<!-- Generated by IcoMoon.io -->
<svg version="1.1" xmlns="http://www.w3.org/2000/svg" width="32" height="32" viewBox="0 0 32 32">
<title>aac-file-format</title>
<path d="M16.467 23.524h-0.021c-0.103 0.414-0.207 0.943-0.321 1.348l-0.414 1.483h1.545l-0.435-1.483c-0.124-0.415-0.249-0.933-0.353-1.348zM27.736 7.239c-0.001-0.148-0.048-0.293-0.15-0.408l-6.2-7.082c-0.002-0.002-0.004-0.003-0.005-0.004-0.037-0.041-0.080-0.076-0.126-0.105-0.013-0.009-0.027-0.017-0.041-0.025-0.039-0.021-0.081-0.039-0.124-0.052-0.012-0.003-0.022-0.008-0.034-0.011-0.047-0.011-0.095-0.018-0.145-0.018h-15.237c-0.696 0-1.261 0.566-1.261 1.261v29.635c0 0.695 0.565 1.261 1.261 1.261h20.807c0.695 0 1.261-0.566 1.261-1.261v-23.119c-0-0.024-0.004-0.047-0.007-0.070zM11.218 29.331l-0.539-1.794h-2.002l-0.498 1.794h-1.638l2.136-6.989h2.074l2.168 6.989h-1.701zM18.023 29.331l-0.539-1.794h-2.002l-0.498 1.794h-1.639l2.137-6.989h2.075l2.167 6.989h-1.7zM23.977 28.128c0.477 0 1.006-0.103 1.317-0.228l0.238 1.234c-0.29 0.145-0.943 0.301-1.793 0.301-2.416 0-3.661-1.504-3.661-3.495 0-2.385 1.701-3.713 3.817-3.713 0.819 0 1.441 0.166 1.722 0.312l-0.322 1.255c-0.322-0.135-0.767-0.259-1.327-0.259-1.255 0-2.23 0.757-2.23 2.312-0.001 1.401 0.829 2.282 2.24 2.282zM5.675 20.944v-20.15h14.607v6.452c0 0.348 0.283 0.631 0.631 0.631h5.57v13.068h-20.807zM9.663 23.524h-0.021c-0.103 0.414-0.207 0.943-0.322 1.348l-0.414 1.483h1.545l-0.435-1.483c-0.124-0.415-0.249-0.933-0.353-1.348zM15.724 6.903c-3.252 0-5.888 2.637-5.888 5.888s2.636 5.888 5.888 5.888c3.251 0 5.887-2.636 5.887-5.888s-2.636-5.888-5.887-5.888zM18.403 14.858c0 0.518-0.386 0.932-0.989 1.084-0.661 0.164-1.3-0.113-1.427-0.62-0.127-0.509 0.306-1.053 0.968-1.219 0.299-0.074 0.593-0.059 0.839 0.028v-3.77l-3.384 0.618-0.015 4.691h-0.001c-0.003 0.444-0.404 0.88-0.98 1.023-0.654 0.164-1.34-0.147-1.412-0.612-0.126-0.503 0.303-1.042 0.958-1.206 0.294-0.073 0.583-0.059 0.825 0.026v-5.553l4.617-0.748v6.258h-0z"></path>
</svg>
