<!-- Generated by IcoMoon.io -->
<svg version="1.1" xmlns="http://www.w3.org/2000/svg" width="28" height="32" viewBox="0 0 28 32">
<title>accessible-icon</title>
<path d="M26.623 15.599l-0.81 9.879c-0.207 2.556-4.013 2.205-3.806-0.308l0.628-7.694-2.581 0.145c0.634 1.3 0.992 2.757 0.992 4.302 0 2.588-1.011 4.943-2.657 6.689l-2.468-2.468c3.636-4.001 0.823-10.501-4.648-10.501-1.627 0-3.109 0.622-4.221 1.633l-2.468-2.468c1.382-1.3 3.147-2.205 5.112-2.525l4.729-5.383-2.676-1.558-3.241 2.889c-1.884 1.683-4.434-1.162-2.544-2.851l4.271-3.812c0.615-0.553 1.514-0.641 2.23-0.226 0 0 8.749 5.081 8.761 5.094 1.017 0.634 1.3 2.261 0.383 3.304l-3.668 4.177 6.664-0.371c1.162-0.069 2.11 0.904 2.016 2.054zM22.547 5.927c1.765 0 3.197-1.432 3.197-3.197s-1.432-3.197-3.197-3.197c-1.765 0-3.197 1.432-3.197 3.197s1.432 3.197 3.197 3.197zM11.28 28.204c-5.062 0-8.002-5.69-5.194-9.804l-2.493-2.493c-1.306 1.652-2.085 3.743-2.085 6.011 0 8.209 9.465 12.649 15.789 7.694l-2.493-2.493c-1.005 0.685-2.217 1.087-3.523 1.087z"></path>
</svg>
