<!-- Generated by IcoMoon.io -->
<svg version="1.1" xmlns="http://www.w3.org/2000/svg" width="40" height="32" viewBox="0 0 40 32">
<title>accusoft</title>
<path d="M30.285 22.903c-0.358-0.433-14.584-18.66-15.067-19.256-0.86-1.080 0-1.055 1.206-1.061 0.609-0.006 6.676-0.038 7.317-0.038 1.514-0.006 1.802 0.038 2.412 0.804 0.132 0.17 12.882 15.438 13.013 15.595 0.345 0.421 0.955 1.2 0.452 1.47-0.151 0.082-7.198 2.996-7.399 3.071-0.634 0.251-1.099 0.427-1.934-0.584zM37.489 22.551s-7.223 3.165-7.38 3.241c-1.005 0.458-1.69-0.201-2.305-0.917l-3.586-4.648c-0.339-0.057-3.793-0.603-4.101-0.584-0.195 0.012-0.603 0.050-0.904 0.182-0.308 0.132-9.119 3.316-9.434 3.435-0.32 0.126-0.716 0.226-0.697 0.477 0.012 0.157 0.126 0.163 0.289 0.22 0.17 0.050 18.898 4.246 19.344 4.34 0.98 0.207 2.418 0.66 3.366 0.107 0.132-0.075 7.775-4.798 7.901-4.886 0.339-0.251 0.27-0.427-0.107-0.515-0.145-0.019-1.545-0.295-2.387-0.452zM17.014 11.165s-0.754 0.1-1.57 0.948c-0.565 0.584-15.205 15.017-15.287 15.13-0.44 0.628 0.1 0.427 0.986 0.107 0.050 0 7.191-2.299 7.191-2.299 0.031-0.038-0.006-0.006 0.038-0.038-0.025-0.32-0.050-1.645-0.063-1.74-0.038-0.327 0.138-0.433 0.44-0.559l5.816-2.123c0.038-0.050 5.558-5.131 5.665-5.232v-0.063l-3.216-4.133z"></path>
</svg>
