<!-- Generated by IcoMoon.io -->
<svg version="1.1" xmlns="http://www.w3.org/2000/svg" width="32" height="32" viewBox="0 0 32 32">
<title>accuracy</title>
<path d="M15.333 0.003v12h1.333v-12zM14 2.165c-6.117 0.88-10.961 5.721-11.844 11.839h2.688c0.833-4.646 4.508-8.313 9.156-9.146zM18 2.165v2.693c4.648 0.831 8.323 4.5 9.156 9.146h2.688c-0.883-6.117-5.727-10.958-11.844-11.839zM14 8.266c-2.805 0.727-5.018 2.935-5.745 5.737h2.818c0.544-1.331 1.596-2.398 2.927-2.94zM18 8.266v2.797c1.333 0.542 2.385 1.609 2.927 2.94h2.82c-0.727-2.802-2.943-5.010-5.747-5.737zM16.003 14.003c-1.104 0-2.003 0.896-2.003 2s0.898 2 2.003 2c1.104 0 1.964-0.896 1.964-2s-0.859-2-1.964-2zM0 15.336v1.333h12v-1.333zM20 15.336v1.333h12v-1.333zM2.161 18.003c0.88 6.117 5.721 10.961 11.839 11.844v-2.688c-4.646-0.833-8.313-4.508-9.146-9.156zM8.253 18.003c0.727 2.802 2.943 5.010 5.747 5.737v-2.797c-1.333-0.542-2.385-1.609-2.927-2.94zM27.146 18.003c-0.833 4.648-4.5 8.323-9.146 9.156v2.688c6.117-0.883 10.958-5.727 11.841-11.844zM20.94 18.003c-0.542 1.333-1.609 2.385-2.94 2.927v2.82c2.802-0.727 5.010-2.943 5.737-5.747zM15.333 20.003v12h1.333v-12z"></path>
</svg>
