<!-- Generated by IcoMoon.io -->
<svg version="1.1" xmlns="http://www.w3.org/2000/svg" width="22" height="32" viewBox="0 0 22 32">
<title>acquisitions-incorporated</title>
<path d="M21.605-0.467c-0.051 0.344-0.102 0.678-0.15 1.012-0.087 0.612-0.182 1.223-0.254 1.837-0.022 0.186-0.076 0.271-0.27 0.272-1.294 0.007-2.588 0.009-3.883 0.033-1.178 0.022-2.36 0.018-3.532 0.126-0.843 0.078-1.462 0.796-1.186 1.673 0.537 1.703 1.737 4.34 2.284 5.618 4.128 9.681 3.858 9.86 5.276 9.959 0.419 0.029 0.842 0.004 1.283 0.004 0.087 0.59 0.167 1.133 0.254 1.728h-7.286v-1.696c0.649 0 1.279-0.008 1.908 0.004 0.221 0.004 0.317-0.040 0.216-0.275-0.279-0.646-0.551-1.296-0.832-1.941-0.102-0.234-0.255-0.3-0.527-0.221-0.774 0.225-1.557 0.42-2.34 0.609-0.267 0.064-0.373 0.174-0.368 0.469 0.053 3.609 0.060 8.010 0.063 8.11 0.025 0.788 0.55 1.345 1.321 1.449 0.056 0.008 0.81 0.171 7.077 0.161 0.518-0.001 0.528-0.011 0.601 0.475 0.135 0.901 0.26 1.802 0.393 2.734-23.097 0-9.668 0.038-21.171 0-0.248-0.001-0.382-0.043-0.332-0.36 0.128-0.808 0.22-1.622 0.312-2.434 0.035-0.302 0.144-0.428 0.479-0.425 7.417 0.062 7.218 0.022 7.627-0.15 0.592-0.25 0.941-0.807 0.939-1.449-0.008-2.696-0.021-5.393-0.016-8.089 0.001-0.243-0.073-0.376-0.286-0.43-0.982-0.246-1.966-0.484-2.988-0.735-0.328 0.771-0.652 1.531-0.984 2.305 0.115 0.21 1.782 0.184 2.216 0.184v1.736h-7.176c0.065-0.541 0.111-1.056 0.203-1.563 0.016-0.089 0.222-0.197 0.344-0.202 0.531-0.022 1.065-0.018 1.597-0.006 0.251 0.006 0.372-0.065 0.478-0.324 1.045-2.556 0.848-1.958 4.228-10.11 1.98-4.779 2.076-4.775 2.050-5.491-0.043-1.166-1.593-1.398-2.365-1.389-1.887 0.024-2.415-0.030-6.396-0.030-0.45-2.794-0.262-2.014-0.401-2.844-0.045-0.266 0.065-0.332 0.291-0.333zM7.404 15.059c0.144 0.072 0.249 0.144 0.365 0.18 0.835 0.264 1.673 0.518 2.508 0.783 0.386 0.122 0.752 0.133 1.149 0.003 0.818-0.269 1.651-0.49 2.476-0.737 0.092-0.028 0.172-0.090 0.247-0.131-0.421-1.091-0.824-2.145-1.235-3.196-0.558-1.424-1.107-3.788-1.695-5.201-0.096-0.049-0.12 0.148-0.592 0-1.075 2.767-2.144 5.519-3.224 8.299z"></path>
</svg>
