<!-- Generated by IcoMoon.io -->
<svg version="1.1" xmlns="http://www.w3.org/2000/svg" width="32" height="32" viewBox="0 0 32 32">
<title>active-directory</title>
<path d="M16.031-0.185c-1.768 0-3.206 1.438-3.206 3.206s1.438 3.206 3.206 3.206c1.768 0 3.206-1.438 3.206-3.206s-1.438-3.206-3.206-3.206zM13.086 6.388l-4.228 6.493c-0.363-0.143-0.749-0.241-1.162-0.241-1.768 0-3.206 1.438-3.206 3.206s1.438 3.206 3.206 3.206c1.768 0 3.206-1.438 3.206-3.206 0-0.894-0.371-1.703-0.962-2.284l4.208-6.473c-0.393-0.183-0.741-0.421-1.062-0.701zM18.977 6.388c-0.321 0.281-0.669 0.519-1.062 0.701l4.208 6.473c-0.591 0.581-0.962 1.39-0.962 2.284 0 1.768 1.438 3.206 3.206 3.206s3.206-1.438 3.206-3.206c0-1.768-1.438-3.206-3.206-3.206-0.413 0-0.799 0.098-1.162 0.241zM5.631 19.834l-1.964 5.671c-0.153-0.023-0.303-0.040-0.461-0.040-1.768 0-3.206 1.438-3.206 3.206s1.438 3.206 3.206 3.206c1.768 0 3.206-1.438 3.206-3.206 0-1.155-0.626-2.159-1.543-2.725l1.984-5.691c-0.428-0.083-0.847-0.225-1.222-0.421zM9.759 19.834c-0.376 0.195-0.794 0.338-1.222 0.421l2.004 5.671c-0.929 0.561-1.563 1.583-1.563 2.745 0 1.768 1.438 3.206 3.206 3.206s3.206-1.438 3.206-3.206c0-1.768-1.438-3.206-3.206-3.206-0.145 0-0.281 0.020-0.421 0.040zM22.304 19.834l-2.004 5.671c-0.14-0.020-0.276-0.040-0.421-0.040-1.768 0-3.206 1.438-3.206 3.206s1.438 3.206 3.206 3.206c1.768 0 3.206-1.438 3.206-3.206 0-1.162-0.634-2.184-1.563-2.745l2.004-5.671c-0.428-0.083-0.847-0.225-1.222-0.421zM26.432 19.834c-0.376 0.195-0.794 0.338-1.222 0.421l1.984 5.691c-0.917 0.566-1.543 1.571-1.543 2.725 0 1.768 1.438 3.206 3.206 3.206s3.206-1.438 3.206-3.206c0-1.768-1.438-3.206-3.206-3.206-0.158 0-0.308 0.018-0.461 0.040z"></path>
</svg>
