<!-- Generated by IcoMoon.io -->
<svg version="1.1" xmlns="http://www.w3.org/2000/svg" width="32" height="32" viewBox="0 0 32 32">
<title>ad</title>
<path d="M9.893 16.616h2.321l-1.161-3.342-1.161 3.342zM22.108 15.611c-0.831 0-1.507 0.676-1.507 1.507s0.676 1.507 1.507 1.507 1.507-0.676 1.507-1.507-0.676-1.507-1.507-1.507zM29.142 3.553h-26.127c-1.664 0-3.015 1.35-3.015 3.015v18.088c0 1.664 1.35 3.015 3.015 3.015h26.127c1.664 0 3.015-1.35 3.015-3.015v-18.088c0-1.664-1.35-3.015-3.015-3.015zM15.738 21.641h-1.064c-0.428 0-0.809-0.271-0.95-0.675l-0.463-1.335h-4.415l-0.463 1.335c-0.141 0.396-0.512 0.675-0.949 0.675-0 0-0 0-0 0h-1.064c-0.692 0-1.176-0.681-0.95-1.335l3.373-9.712c0.211-0.594 0.768-1.012 1.424-1.012 0 0 0 0 0 0h1.674c0 0 0 0 0 0 0.655 0 1.213 0.418 1.42 1.002l0.003 0.011 3.372 9.711c0.227 0.653-0.258 1.335-0.949 1.335zM26.63 20.636c0 0.555-0.45 1.005-1.005 1.005h-1.005c-0.305 0-0.568-0.142-0.752-0.357-0.541 0.23-1.136 0.357-1.76 0.357-2.493 0-4.522-2.029-4.522-4.522s2.029-4.522 4.522-4.522c0.531 0 1.034 0.109 1.507 0.278v-2.287c0-0.555 0.45-1.005 1.005-1.005h1.005c0.555 0 1.005 0.45 1.005 1.005v10.049z"></path>
</svg>
