<!-- Generated by IcoMoon.io -->
<svg version="1.1" xmlns="http://www.w3.org/2000/svg" width="32" height="32" viewBox="0 0 32 32">
<title>add</title>
<path d="M16 0.003c-8.836 0-16 7.164-16 16s7.164 16 16 16 16-7.164 16-16c0-8.836-7.164-16-16-16zM22.667 17.336h-5.333v5.333c0 0.737-0.597 1.333-1.333 1.333s-1.333-0.596-1.333-1.333v-5.333h-5.333c-0.736 0-1.333-0.596-1.333-1.333s0.597-1.333 1.333-1.333h5.333v-5.333c0-0.737 0.597-1.333 1.333-1.333s1.333 0.596 1.333 1.333v5.333h5.333c0.736 0 1.333 0.596 1.333 1.333s-0.597 1.333-1.333 1.333z"></path>
</svg>
