<!-- Generated by IcoMoon.io -->
<svg version="1.1" xmlns="http://www.w3.org/2000/svg" width="36" height="32" viewBox="0 0 36 32">
<title>address-card</title>
<path d="M33.162 1.543h-30.147c-1.664 0-3.015 1.35-3.015 3.015v22.108c0 1.664 1.35 3.015 3.015 3.015h30.147c1.664 0 3.015-1.35 3.015-3.015v-22.108c0-1.664-1.35-3.015-3.015-3.015zM33.162 26.665h-30.147v-22.108h30.147v22.108zM13.064 15.611c2.217 0 4.020-1.803 4.020-4.020s-1.803-4.020-4.020-4.020-4.020 1.802-4.020 4.020 1.803 4.020 4.020 4.020zM7.436 23.651h11.255c0.779 0 1.407-0.54 1.407-1.206v-1.206c0-1.997-1.89-3.618-4.221-3.618-0.678 0-1.175 0.503-2.814 0.503-1.69 0-2.098-0.503-2.814-0.503-2.33 0-4.221 1.62-4.221 3.618v1.206c0 0.666 0.628 1.206 1.407 1.206zM22.61 19.631h7.034c0.276 0 0.503-0.226 0.503-0.503v-1.005c0-0.276-0.226-0.503-0.503-0.503h-7.034c-0.276 0-0.503 0.226-0.503 0.503v1.005c0 0.276 0.226 0.503 0.503 0.503zM22.61 15.611h7.034c0.276 0 0.503-0.226 0.503-0.502v-1.005c0-0.276-0.226-0.502-0.503-0.502h-7.034c-0.276 0-0.503 0.226-0.503 0.502v1.005c0 0.276 0.226 0.502 0.503 0.502zM22.61 11.592h7.034c0.276 0 0.503-0.226 0.503-0.502v-1.005c0-0.276-0.226-0.502-0.503-0.502h-7.034c-0.276 0-0.503 0.226-0.503 0.502v1.005c0 0.276 0.226 0.502 0.503 0.502z"></path>
</svg>
