<!-- Generated by IcoMoon.io -->
<svg version="1.1" xmlns="http://www.w3.org/2000/svg" width="28" height="32" viewBox="0 0 28 32">
<title>address-book1</title>
<path d="M27.383 9.582c0.415 0 0.754-0.339 0.754-0.754v-2.512c0-0.415-0.339-0.754-0.754-0.754h-1.256v-3.015c0-1.664-1.35-3.015-3.015-3.015h-20.098c-1.664 0-3.015 1.35-3.015 3.015v26.127c0 1.664 1.35 3.015 3.015 3.015h20.098c1.664 0 3.015-1.35 3.015-3.015v-3.015h1.256c0.415 0 0.754-0.339 0.754-0.754v-2.512c0-0.415-0.339-0.754-0.754-0.754h-1.256v-4.020h1.256c0.415 0 0.754-0.339 0.754-0.754v-2.512c0-0.415-0.339-0.754-0.754-0.754h-1.256v-4.020h1.256zM13.064 7.572c2.217 0 4.020 1.803 4.020 4.020s-1.803 4.020-4.020 4.020-4.020-1.803-4.020-4.020 1.803-4.020 4.020-4.020zM20.098 22.445c0 0.666-0.628 1.206-1.407 1.206h-11.255c-0.779 0-1.407-0.54-1.407-1.206v-1.206c0-1.997 1.89-3.618 4.221-3.618h0.314c0.772 0.32 1.614 0.503 2.5 0.503s1.733-0.182 2.5-0.503h0.314c2.33 0 4.221 1.62 4.221 3.618v1.206z"></path>
</svg>
