<!-- Generated by IcoMoon.io -->
<svg version="1.1" xmlns="http://www.w3.org/2000/svg" width="36" height="32" viewBox="0 0 36 32">
<title>address-card1</title>
<path d="M33.162 1.543h-30.147c-1.664 0-3.015 1.35-3.015 3.015v22.108c0 1.664 1.35 3.015 3.015 3.015h30.147c1.664 0 3.015-1.35 3.015-3.015v-22.108c0-1.664-1.35-3.015-3.015-3.015zM11.054 7.572c2.217 0 4.020 1.803 4.020 4.020s-1.803 4.020-4.020 4.020-4.020-1.803-4.020-4.020 1.802-4.020 4.020-4.020zM18.088 22.445c0 0.666-0.628 1.206-1.407 1.206h-11.255c-0.779 0-1.407-0.54-1.407-1.206v-1.206c0-1.997 1.89-3.618 4.221-3.618h0.314c0.772 0.32 1.614 0.503 2.5 0.503s1.733-0.182 2.5-0.503h0.314c2.33 0 4.221 1.62 4.221 3.618v1.206zM32.157 19.128c0 0.276-0.226 0.503-0.503 0.503h-9.044c-0.276 0-0.503-0.226-0.503-0.503v-1.005c0-0.276 0.226-0.503 0.503-0.503h9.044c0.276 0 0.502 0.226 0.502 0.503v1.005zM32.157 15.109c0 0.276-0.226 0.502-0.503 0.502h-9.044c-0.276 0-0.503-0.226-0.503-0.502v-1.005c0-0.276 0.226-0.502 0.503-0.502h9.044c0.276 0 0.502 0.226 0.502 0.502v1.005zM32.157 11.089c0 0.276-0.226 0.502-0.503 0.502h-9.044c-0.276 0-0.503-0.226-0.503-0.502v-1.005c0-0.276 0.226-0.502 0.503-0.502h9.044c0.276 0 0.502 0.226 0.502 0.502v1.005z"></path>
</svg>
