<!-- Generated by IcoMoon.io -->
<svg version="1.1" xmlns="http://www.w3.org/2000/svg" width="32" height="32" viewBox="0 0 32 32">
<title>adversal</title>
<path d="M30.279 1.543h-28.476c-1.438 0-1.802 0.371-1.802 1.815v24.507c0 1.463 0.364 1.815 1.802 1.815h28.476c1.532 0 1.878-0.327 1.878-1.865v-24.375c0-1.545-0.339-1.897-1.878-1.897zM11.205 13.369c-1.727-1.269-4.528-0.546-5.288 1.47-0.27 0.697-0.584 0.597-1.099 0.521-0.609-0.094-1.080-0.201-1.413-0.345-1.809-0.716 0.54-3.473 1.564-4.038 2.581-1.344 5.238-1.394 7.87-0.301 2.569 1.055 2.167 3.718 2.167 8.071 0.17 1.62-0.27 3.662 0.584 5.577 0.119 0.276 0.025 0.496-0.17 0.672-0.527 0.421-2.468 0.138-2.927-0.465-0.119-0.138-0.113-0.226-0.245-0.389-0.226-0.245-0.458-0.138-0.747 0.063-3.605 2.286-8.812 1.344-9.232-2.72-0.195-1.84 0.779-3.586 2.487-4.459 2.399-1.225 7.047-0.741 7.16-1.941 0.069-0.641-0.119-1.262-0.71-1.715zM29.211 27.312c0 0.948-0.697 0.622-1.118 0.622h-24.802c-0.465 0-1.143 0.301-1.118-0.672 0.025-0.873 0.66-0.572 1.074-0.572 8.309-0.025 16.612-0.025 24.921 0 0.427 0 1.043-0.276 1.043 0.622zM29.45 5.927v18.277c0 0.358-0.044 0.873-0.509 0.873-0.779-0.025-1.727 0.446-2.267-0.352-0.364-0.546-0.49-0.251-0.779-0.075-3.354 1.865-8.045 0.446-9.069-5.351-0.383-2.098-0.044-4.214 0.986-6.281 0.741-1.501 3.574-4.78 8.548-1.916v-4.459c0-1.645-0.006-1.645 1.633-1.645 0.195 0 0.415 0.025 0.609 0 0.634-0.050 0.854 0.276 0.854 0.898-0.006 0.013-0.006 0.019-0.006 0.031zM26.215 20.517c-1.225 2.99-4.579 2.72-5.653 0.327-0.948-2.091-0.973-4.283 0.025-6.375 1.024-2.142 3.75-2.242 5.119-0.301 1.294 1.809 0.936 5.313 0.509 6.35zM7.7 22.734c-0.471-0.082-2.073-0.207-2.117-1.746-0.025-0.873 0.49-1.445 1.244-1.62 1.533-0.371 3.096-0.622 4.629-0.923 0.559-0.126 0.465 0.276 0.49 0.597 0.088 2.073-1.639 3.718-4.246 3.693z"></path>
</svg>
