<!-- Generated by IcoMoon.io -->
<svg version="1.1" xmlns="http://www.w3.org/2000/svg" width="32" height="32" viewBox="0 0 32 32">
<title>affiliatetheme</title>
<path d="M10.030 14.443c-3.222 4.453-7.323 6.959-9.151 5.602-1.834-1.363-0.703-6.067 2.525-10.52 3.222-4.453 7.323-6.959 9.151-5.602s0.697 6.067-2.525 10.52zM32.088 10.844c-4.635 7.75-12.053 11.789-16.612 9.019-1.57-0.955-2.594-2.588-3.078-4.635-2.11 4.070-5.828 7.147-10.306 8.366 3.128 3.724 7.794 6.086 13.001 6.086 9.421 0 17.058-7.731 17.058-17.265 0.006-0.534-0.019-1.055-0.063-1.57z"></path>
</svg>
