<!-- Generated by IcoMoon.io -->
<svg version="1.1" xmlns="http://www.w3.org/2000/svg" width="32" height="32" viewBox="0 0 32 32">
<title>ai-file-format-symbol</title>
<path d="M14.593 23.47h-0.023c-0.116 0.465-0.232 1.056-0.36 1.509l-0.464 1.66h1.729l-0.488-1.66c-0.139-0.465-0.278-1.045-0.394-1.509zM27.737 7.239c-0.002-0.147-0.048-0.293-0.15-0.408l-6.201-7.082c-0.001-0.002-0.003-0.003-0.005-0.004-0.037-0.041-0.079-0.075-0.125-0.105-0.013-0.009-0.027-0.017-0.041-0.025-0.040-0.021-0.081-0.039-0.124-0.052-0.012-0.003-0.022-0.008-0.034-0.011-0.047-0.011-0.095-0.018-0.145-0.018h-15.238c-0.695 0-1.261 0.566-1.261 1.261v29.635c0 0.695 0.566 1.261 1.261 1.261h20.807c0.696 0 1.261-0.566 1.261-1.261v-23.119c0-0.024-0.004-0.047-0.006-0.071zM16.334 29.97l-0.604-2.008h-2.24l-0.557 2.008h-1.834l2.391-7.823h2.321l2.426 7.823h-1.903zM21.058 29.97h-1.776v-7.823h1.776v7.823zM5.675 20.945v-20.151h14.607v6.452c0 0.348 0.282 0.631 0.631 0.631h5.569l0.001 13.068h-20.808zM12.71 14.958l-0.65 2.344h-2.141l2.791-9.133h2.71l2.832 9.133h-2.222l-0.705-2.344h-2.616zM15.027 13.414l-0.569-1.938c-0.163-0.542-0.325-1.219-0.46-1.762h-0.027c-0.136 0.542-0.271 1.233-0.42 1.762l-0.542 1.938h2.019zM21.452 8.833c0 0.569-0.434 1.030-1.111 1.030-0.651 0-1.084-0.461-1.071-1.030-0.013-0.596 0.42-1.044 1.084-1.044s1.085 0.447 1.098 1.044zM19.324 17.303v-6.627h2.060v6.627h-2.060z"></path>
</svg>
