<!-- Generated by IcoMoon.io -->
<svg version="1.1" xmlns="http://www.w3.org/2000/svg" width="32" height="32" viewBox="0 0 32 32">
<title>aif-file-format</title>
<path d="M11.14 23.322h-0.025c-0.124 0.493-0.247 1.123-0.383 1.605l-0.494 1.766h1.84l-0.519-1.766c-0.149-0.494-0.296-1.111-0.42-1.605zM27.737 7.239c-0.002-0.147-0.049-0.293-0.15-0.408l-6.2-7.082c-0.001-0.002-0.003-0.002-0.005-0.004-0.037-0.041-0.079-0.075-0.125-0.105-0.013-0.009-0.027-0.017-0.041-0.025-0.040-0.022-0.081-0.039-0.124-0.052-0.012-0.004-0.022-0.008-0.034-0.011-0.047-0.011-0.095-0.018-0.145-0.018h-15.238c-0.695 0-1.261 0.566-1.261 1.261v29.635c0 0.695 0.566 1.261 1.261 1.261h20.807c0.696 0 1.261-0.566 1.261-1.261v-23.119c0-0.024-0.004-0.047-0.006-0.070zM12.992 30.237l-0.642-2.136h-2.383l-0.593 2.136h-1.951l2.544-8.323h2.47l2.581 8.323h-2.025zM18.017 30.237h-1.889v-8.323h1.889v8.323zM24.734 23.458h-3.199v1.902h2.988v1.531h-2.989v3.347h-1.889v-8.323h5.088v1.544zM5.675 20.945v-20.151h14.607v6.452c0 0.348 0.282 0.631 0.631 0.631h5.569l0.001 13.068h-20.808zM18.377 6.853c-3.082-2.155-3.073-2.66-3.073-2.66-0.587 0.070-0.647 0.514-0.647 0.514v10.147c-0.441-0.153-0.968-0.18-1.508-0.047-1.196 0.298-1.978 1.286-1.749 2.204 0.134 0.848 1.386 1.417 2.582 1.116 1.051-0.26 1.784-1.054 1.789-1.866h0.004l0.027-9.637c0 0 2.097-0.112 4.152 3.108 0.001 0 0.005-1.662-1.575-2.879z"></path>
</svg>
