<!-- Generated by IcoMoon.io -->
<svg version="1.1" xmlns="http://www.w3.org/2000/svg" width="24" height="32" viewBox="0 0 24 32">
<title>air-freshener</title>
<path d="M23.8 19.719l-5.919-6.118h3.091c0.961 0 1.486-1.043 0.87-1.729l-7.118-7.946c0.215-0.415 0.349-0.879 0.349-1.379 0-1.665-1.35-3.015-3.015-3.015s-3.015 1.35-3.015 3.015c0 0.5 0.133 0.964 0.349 1.379l-7.118 7.946c-0.615 0.686-0.090 1.729 0.87 1.729h3.091l-5.919 6.118c-0.738 0.763-0.108 1.921 1.045 1.921h8.686v2.010h-7.034c-0.555 0-1.005 0.45-1.005 1.005v6.029c0 0.555 0.45 1.005 1.005 1.005h18.088c0.555 0 1.005-0.45 1.005-1.005v-6.029c0-0.555-0.45-1.005-1.005-1.005h-7.034v-2.010h8.686c1.153 0 1.783-1.158 1.045-1.921zM12.059 1.542c0.556 0 1.006 0.45 1.006 1.006s-0.45 1.006-1.006 1.006-1.006-0.451-1.006-1.006c0-0.556 0.45-1.006 1.006-1.006zM19.093 26.665v2.010h-14.069v-2.010h14.069z"></path>
</svg>
