<!-- Generated by IcoMoon.io -->
<svg version="1.1" xmlns="http://www.w3.org/2000/svg" width="32" height="32" viewBox="0 0 32 32">
<title>alert</title>
<path d="M5.174 4.481c-0.177 0-0.342 0.082-0.478 0.217-3.022 3.022-4.696 7.030-4.696 11.304s1.674 8.283 4.696 11.304c0.136 0.136 0.299 0.217 0.478 0.217s0.364-0.082 0.5-0.217l4.913-4.913c0.13-0.13 0.196-0.293 0.196-0.478s-0.065-0.37-0.196-0.5c-1.446-1.443-2.239-3.37-2.239-5.413s0.793-3.97 2.239-5.413c0.13-0.13 0.196-0.315 0.196-0.5s-0.065-0.348-0.196-0.478l-4.913-4.913c-0.136-0.136-0.323-0.217-0.5-0.217zM26.826 4.481c-0.177 0-0.364 0.082-0.5 0.217l-4.913 4.913c-0.13 0.13-0.196 0.293-0.196 0.478s0.065 0.37 0.196 0.5c1.446 1.446 2.239 3.37 2.239 5.413s-0.796 3.967-2.239 5.413c-0.13 0.13-0.196 0.315-0.196 0.5s0.065 0.348 0.196 0.478l4.913 4.913c0.136 0.136 0.321 0.217 0.5 0.217s0.342-0.082 0.478-0.217c3.022-3.022 4.696-7.030 4.696-11.304s-1.674-8.283-4.696-11.304c-0.136-0.136-0.302-0.217-0.478-0.217zM16 11.829c-2.302 0-4.174 1.872-4.174 4.174s1.872 4.174 4.174 4.174c2.302 0 4.174-1.872 4.174-4.174s-1.872-4.174-4.174-4.174z"></path>
</svg>
