<!-- Generated by IcoMoon.io -->
<svg version="1.1" xmlns="http://www.w3.org/2000/svg" width="28" height="32" viewBox="0 0 28 32">
<title>algolia</title>
<path d="M14.401 11.001c-3.096 0-5.602 2.506-5.602 5.602s2.506 5.602 5.602 5.602 5.602-2.506 5.602-5.602c0-3.096-2.512-5.602-5.602-5.602zM18.339 14.556l-3.699 1.922c-0.113 0.057-0.239-0.025-0.239-0.145v-4.177c0-0.094 0.082-0.17 0.17-0.163 1.645 0.063 3.071 0.986 3.837 2.33 0.044 0.082 0.012 0.188-0.069 0.232zM24.438 1.543h-20.739c-2.041 0-3.699 1.658-3.699 3.699v20.732c0 2.047 1.658 3.706 3.699 3.706h20.732c2.047 0 3.699-1.658 3.699-3.699v-20.739c0.006-2.041-1.652-3.699-3.693-3.699zM11.713 6.862c0-0.678 0.546-1.225 1.225-1.225h2.845c0.678 0 1.225 0.546 1.225 1.225v0.967c0 0.113-0.107 0.188-0.207 0.157-0.773-0.214-1.576-0.32-2.393-0.32-0.848 0-1.677 0.113-2.475 0.345-0.107 0.031-0.214-0.050-0.214-0.157v-0.992zM6.412 9.186l0.578-0.578c0.477-0.477 1.25-0.477 1.727 0l0.484 0.484c0.069 0.069 0.063 0.188-0.019 0.251-0.389 0.283-0.76 0.59-1.105 0.936-0.339 0.339-0.653 0.71-0.93 1.093-0.063 0.082-0.182 0.094-0.251 0.019l-0.484-0.484c-0.477-0.471-0.477-1.244 0-1.721zM14.401 24.561c-4.396 0-7.951-3.561-7.951-7.951s3.561-7.951 7.951-7.951c4.396 0 7.951 3.555 7.951 7.951 0 4.384-3.561 7.951-7.951 7.951z"></path>
</svg>
