<!-- Generated by IcoMoon.io -->
<svg version="1.1" xmlns="http://www.w3.org/2000/svg" width="28" height="32" viewBox="0 0 28 32">
<title>align-justify</title>
<path d="M0 4.809v-2.512c0-0.555 0.45-1.005 1.005-1.005h26.127c0.555 0 1.005 0.45 1.005 1.005v2.512c0 0.555-0.45 1.005-1.005 1.005h-26.127c-0.555 0-1.005-0.45-1.005-1.005zM1.005 13.853h26.127c0.555 0 1.005-0.45 1.005-1.005v-2.512c0-0.555-0.45-1.005-1.005-1.005h-26.127c-0.555 0-1.005 0.45-1.005 1.005v2.512c0 0.555 0.45 1.005 1.005 1.005zM1.005 29.931h26.127c0.555 0 1.005-0.45 1.005-1.005v-2.512c0-0.555-0.45-1.005-1.005-1.005h-26.127c-0.555 0-1.005 0.45-1.005 1.005v2.512c0 0.555 0.45 1.005 1.005 1.005zM1.005 21.892h26.127c0.555 0 1.005-0.45 1.005-1.005v-2.512c0-0.555-0.45-1.005-1.005-1.005h-26.127c-0.555 0-1.005 0.45-1.005 1.005v2.512c0 0.555 0.45 1.005 1.005 1.005z"></path>
</svg>
