<!-- Generated by IcoMoon.io -->
<svg version="1.1" xmlns="http://www.w3.org/2000/svg" width="28" height="32" viewBox="0 0 28 32">
<title>align-left</title>
<path d="M18.088 2.296v2.512c0 0.555-0.45 1.005-1.005 1.005h-16.078c-0.555 0-1.005-0.45-1.005-1.005v-2.512c0-0.555 0.45-1.005 1.005-1.005h16.078c0.555 0 1.005 0.45 1.005 1.005zM0 10.336v2.512c0 0.555 0.45 1.005 1.005 1.005h26.127c0.555 0 1.005-0.45 1.005-1.005v-2.512c0-0.555-0.45-1.005-1.005-1.005h-26.127c-0.555 0-1.005 0.45-1.005 1.005zM1.005 29.931h26.127c0.555 0 1.005-0.45 1.005-1.005v-2.512c0-0.555-0.45-1.005-1.005-1.005h-26.127c-0.555 0-1.005 0.45-1.005 1.005v2.512c0 0.555 0.45 1.005 1.005 1.005zM17.083 17.37h-16.078c-0.555 0-1.005 0.45-1.005 1.005v2.512c0 0.555 0.45 1.005 1.005 1.005h16.078c0.555 0 1.005-0.45 1.005-1.005v-2.512c0-0.555-0.45-1.005-1.005-1.005z"></path>
</svg>
