<!-- Generated by IcoMoon.io -->
<svg version="1.1" xmlns="http://www.w3.org/2000/svg" width="28" height="32" viewBox="0 0 28 32">
<title>alipay</title>
<path d="M23.724 1.543h-19.312c-2.44 0-4.413 1.973-4.413 4.413v19.312c0 2.44 1.973 4.413 4.413 4.413h19.312c2.419 0 4.381-1.952 4.413-4.371-2.887-1.609-6.946-3.79-10.777-5.555-2.014 2.762-5.285 5.087-9.334 5.087-4.433 0-5.887-2.845-6.095-4.797-0.249-2.45 0.935-5.119 6.25-5.119 2.222 0 4.984 0.644 7.985 1.568 1.038-1.89 1.661-3.79 1.661-3.79h-11.192v-1.049h5.783v-1.962h-6.873v-1.194h6.873v-3.167h3.198v3.167h6.873v1.194h-6.874v1.962h5.575s-0.955 2.928-2.409 5.71c3.073 1.049 6.281 2.264 9.334 3.312v-14.722c0.010-2.43-1.962-4.413-4.392-4.413zM2.97 19.816c0.062 1.267 0.644 3.375 4.392 3.375 3.27 0 5.815-2.492 7.403-4.579-2.803-1.173-5.306-1.973-6.873-1.973-4.236 0-4.984 2.076-4.921 3.177z"></path>
</svg>
