<!-- Generated by IcoMoon.io -->
<svg version="1.1" xmlns="http://www.w3.org/2000/svg" width="28" height="32" viewBox="0 0 28 32">
<title>allergies</title>
<path d="M26.127 6.567c-1.105 0-2.010 0.904-2.010 2.010v4.522c0 0.276-0.226 0.502-0.503 0.502h-1.005c-0.276 0-0.503-0.226-0.503-0.502v-9.546c0-1.105-0.904-2.010-2.010-2.010s-2.010 0.904-2.010 2.010v9.546c0 0.276-0.226 0.502-0.503 0.502h-1.005c-0.276 0-0.503-0.226-0.503-0.502v-11.556c0-1.105-0.904-2.010-2.010-2.010s-2.010 0.904-2.010 2.010v11.556c0 0.276-0.226 0.502-0.502 0.502h-1.005c-0.276 0-0.502-0.226-0.502-0.502v-9.546c0-1.105-0.904-2.010-2.010-2.010s-2.010 0.904-2.010 2.010v15.136l-1.482-2.041c-0.816-1.124-2.387-1.369-3.511-0.553s-1.369 2.387-0.553 3.511l7.888 10.847c0.565 0.779 1.476 1.244 2.437 1.244h12.41c1.401 0 2.613-0.961 2.933-2.324l1.664-7.078c0.201-0.86 0.308-1.777 0.32-2.657v-11.060c0-1.105-0.904-2.010-2.010-2.010zM11.054 25.66c-0.553 0-1.005-0.452-1.005-1.005s0.452-1.005 1.005-1.005 1.005 0.452 1.005 1.005-0.452 1.005-1.005 1.005zM11.054 19.631c-0.553 0-1.005-0.452-1.005-1.005s0.452-1.005 1.005-1.005 1.005 0.452 1.005 1.005-0.452 1.005-1.005 1.005zM15.073 27.67c-0.553 0-1.005-0.452-1.005-1.005s0.452-1.005 1.005-1.005 1.005 0.452 1.005 1.005-0.452 1.005-1.005 1.005zM15.073 21.641c-0.553 0-1.005-0.452-1.005-1.005s0.452-1.005 1.005-1.005 1.005 0.452 1.005 1.005-0.452 1.005-1.005 1.005zM19.093 23.651c-0.553 0-1.005-0.452-1.005-1.005s0.452-1.005 1.005-1.005 1.005 0.452 1.005 1.005-0.452 1.005-1.005 1.005zM21.103 27.67c-0.553 0-1.005-0.452-1.005-1.005s0.452-1.005 1.005-1.005 1.005 0.452 1.005 1.005-0.452 1.005-1.005 1.005zM23.113 19.631c-0.553 0-1.005-0.452-1.005-1.005s0.452-1.005 1.005-1.005 1.005 0.452 1.005 1.005-0.452 1.005-1.005 1.005z"></path>
</svg>
