<!-- Generated by IcoMoon.io -->
<svg version="1.1" xmlns="http://www.w3.org/2000/svg" width="38" height="32" viewBox="0 0 38 32">
<title>amazon-pay</title>
<path d="M0 19.958c0.144-0.264 0.327-0.308 0.609-0.157 0.653 0.352 1.294 0.716 1.96 1.049 2.556 1.281 5.225 2.236 8.002 2.908 1.313 0.314 2.632 0.565 3.969 0.741 1.978 0.264 3.969 0.377 5.967 0.327 1.093-0.025 2.186-0.113 3.272-0.239 3.542-0.421 6.965-1.306 10.256-2.688 0.182-0.075 0.371-0.126 0.572-0.075 0.421 0.113 0.565 0.565 0.258 0.873-0.176 0.176-0.396 0.32-0.603 0.465-1.928 1.325-4.032 2.286-6.255 3.008-1.545 0.496-3.115 0.867-4.717 1.105-1.105 0.163-2.223 0.276-3.341 0.301-0.050 0-0.107 0.012-0.157 0.019h-1.325c-0.050-0.006-0.107-0.019-0.157-0.019-0.226-0.012-0.452-0.019-0.672-0.025-1.061-0.044-2.117-0.163-3.165-0.333-1.721-0.283-3.404-0.716-5.050-1.313-3.398-1.231-6.444-3.052-9.145-5.464-0.113-0.1-0.188-0.239-0.276-0.358v-0.126zM9.923 3.615c-0.088 0.013-0.182 0.025-0.27 0.038-0.879 0.107-1.671 0.433-2.387 0.948-0.151 0.107-0.289 0.22-0.446 0.339-0.013-0.031-0.025-0.063-0.025-0.088-0.025-0.17-0.050-0.345-0.082-0.515-0.044-0.289-0.188-0.415-0.477-0.415h-0.722c-0.433 0-0.515 0.082-0.515 0.515v13.145c0 0.063 0 0.126 0.006 0.188 0.013 0.188 0.126 0.308 0.308 0.314 0.44 0.006 0.886 0.006 1.325 0 0.182 0 0.295-0.126 0.314-0.314 0.006-0.063 0.006-0.126 0.006-0.188v-4.547c0.069 0.057 0.107 0.088 0.138 0.119 1.124 0.936 2.418 1.244 3.831 0.967 1.281-0.251 2.173-1.036 2.751-2.192 0.44-0.873 0.622-1.803 0.647-2.77 0.031-1.074-0.075-2.129-0.509-3.128-0.534-1.231-1.419-2.041-2.757-2.317-0.201-0.044-0.408-0.063-0.615-0.094-0.176-0.006-0.345-0.006-0.521-0.006zM6.946 6.247c0-0.094 0.025-0.151 0.107-0.207 0.86-0.597 1.809-0.911 2.864-0.829 0.936 0.069 1.702 0.527 2.104 1.627 0.245 0.672 0.308 1.369 0.308 2.073 0 0.653-0.050 1.294-0.251 1.922-0.427 1.338-1.407 1.847-2.676 1.79-0.879-0.038-1.645-0.377-2.349-0.873-0.075-0.057-0.107-0.107-0.107-0.207 0.006-0.886 0-1.765 0-2.65 0-0.879 0.006-1.759 0-2.644zM19.866 3.615c-0.063 0.006-0.126 0.019-0.182 0.025-0.615 0.031-1.218 0.107-1.815 0.257-0.383 0.1-0.754 0.239-1.124 0.364-0.226 0.075-0.339 0.239-0.333 0.484 0.006 0.207-0.006 0.415 0 0.622 0.006 0.301 0.132 0.383 0.427 0.308 0.49-0.126 0.98-0.264 1.476-0.358 0.773-0.144 1.551-0.207 2.336-0.088 0.408 0.063 0.791 0.182 1.055 0.527 0.232 0.301 0.32 0.66 0.333 1.030 0.019 0.521 0.012 1.043 0.019 1.564 0 0.025-0.006 0.057-0.012 0.088-0.031-0.006-0.057 0-0.082-0.006-0.66-0.157-1.325-0.27-2.010-0.308-0.71-0.038-1.413 0.006-2.091 0.245-0.81 0.283-1.463 0.773-1.847 1.564-0.295 0.615-0.339 1.269-0.245 1.928 0.126 0.879 0.565 1.558 1.344 1.991 0.747 0.415 1.558 0.465 2.38 0.339 0.948-0.145 1.79-0.546 2.531-1.156 0.025-0.025 0.057-0.044 0.1-0.069 0.038 0.239 0.069 0.465 0.113 0.691 0.038 0.195 0.157 0.32 0.339 0.327 0.339 0.006 0.685 0.006 1.024 0 0.17-0.006 0.283-0.119 0.301-0.295 0.006-0.057 0.006-0.119 0.006-0.176v-6.657c0-0.27-0.012-0.54-0.057-0.81-0.119-0.81-0.465-1.476-1.193-1.909-0.421-0.251-0.886-0.377-1.369-0.446-0.226-0.031-0.452-0.050-0.678-0.082-0.245 0.006-0.496 0.006-0.747 0.006zM22.064 11.636c0 0.082-0.025 0.138-0.094 0.188-0.703 0.509-1.476 0.848-2.349 0.936-0.358 0.038-0.716 0.025-1.055-0.113-0.396-0.157-0.653-0.433-0.779-0.835s-0.126-0.816-0.006-1.218c0.157-0.521 0.527-0.816 1.030-0.98 0.509-0.163 1.036-0.188 1.558-0.138 0.527 0.044 1.043 0.145 1.57 0.214 0.1 0.012 0.132 0.063 0.132 0.163-0.006 0.301 0 0.597 0 0.898-0.006 0.295-0.012 0.59-0.006 0.886zM38.387 19.763c-0.063-0.314-0.301-0.433-0.572-0.521-0.427-0.145-0.873-0.207-1.319-0.245-0.823-0.069-1.645-0.031-2.462 0.119-0.898 0.17-1.752 0.458-2.512 0.98-0.088 0.063-0.176 0.132-0.232 0.22-0.044 0.069-0.057 0.176-0.031 0.251 0.025 0.094 0.132 0.119 0.226 0.113 0.044 0 0.094 0 0.138-0.006 0.49-0.050 0.973-0.107 1.463-0.157 0.716-0.069 1.438-0.113 2.154-0.057 0.301 0.019 0.609 0.088 0.904 0.17 0.32 0.088 0.465 0.327 0.477 0.653 0.025 0.503-0.088 0.986-0.22 1.463-0.258 0.967-0.628 1.903-0.992 2.833-0.025 0.063-0.050 0.126-0.063 0.188-0.031 0.182 0.075 0.301 0.258 0.258 0.107-0.025 0.226-0.082 0.301-0.157 0.276-0.27 0.559-0.54 0.798-0.842 0.804-1.030 1.275-2.217 1.551-3.492 0.050-0.226 0.088-0.458 0.132-0.685v-1.087zM30.090 12.025c-0.81-2.242-1.62-4.491-2.431-6.733-0.126-0.358-0.264-0.71-0.396-1.061-0.069-0.182-0.201-0.301-0.402-0.301-0.477-0.006-0.955-0.013-1.438-0.006-0.157 0-0.232 0.126-0.201 0.283 0.031 0.132 0.069 0.258 0.119 0.383 1.231 3.046 2.468 6.098 3.712 9.138 0.107 0.258 0.132 0.477 0.012 0.741-0.207 0.458-0.371 0.942-0.584 1.401-0.188 0.408-0.503 0.716-0.955 0.835-0.32 0.088-0.641 0.1-0.967 0.069-0.157-0.012-0.314-0.050-0.471-0.063-0.214-0.012-0.32 0.082-0.327 0.301-0.006 0.207-0.006 0.415 0 0.622 0.006 0.345 0.126 0.503 0.465 0.559 0.352 0.063 0.71 0.119 1.061 0.126 1.074 0.025 1.928-0.408 2.481-1.344 0.22-0.371 0.421-0.76 0.578-1.156 1.488-3.756 2.958-7.518 4.434-11.28 0.044-0.113 0.082-0.226 0.1-0.345 0.025-0.176-0.057-0.276-0.232-0.276-0.415-0.006-0.835 0-1.25 0-0.232 0-0.396 0.1-0.484 0.327-0.031 0.088-0.069 0.17-0.1 0.258-0.729 2.091-1.457 4.183-2.186 6.281-0.157 0.452-0.32 0.911-0.484 1.394-0.025-0.069-0.038-0.107-0.057-0.151z"></path>
</svg>
