<!-- Generated by IcoMoon.io -->
<svg version="1.1" xmlns="http://www.w3.org/2000/svg" width="28" height="32" viewBox="0 0 28 32">
<title>amazon</title>
<path d="M16.154 9.752c-3.059 0.113-10.646 0.973-10.646 7.38 0 6.877 8.686 7.16 11.525 2.713 0.408 0.641 2.223 2.355 2.845 2.939l3.567-3.517s-2.029-1.589-2.029-3.316v-9.239c0-1.589-1.539-5.169-7.053-5.169-5.527 0-8.46 3.454-8.46 6.551l4.616 0.427c1.024-3.109 3.404-3.109 3.404-3.109 2.556-0.006 2.23 1.872 2.23 4.34zM16.154 15.203c0 5.024-5.288 4.271-5.288 1.080 0-2.964 3.172-3.561 5.288-3.63v2.55zM24.695 25.472c-0.484 0.628-4.396 4.208-10.96 4.208s-11.588-4.491-13.126-6.343c-0.427-0.484 0.063-0.71 0.345-0.521 4.604 2.795 11.795 7.399 23.395 1.903 0.471-0.232 0.835 0.126 0.345 0.754zM27.195 25.61c-0.408 0.992-1.005 1.683-1.331 1.947-0.345 0.283-0.597 0.17-0.408-0.239s1.212-2.92 0.798-3.454c-0.408-0.521-2.324-0.27-3.015-0.201-0.678 0.063-0.816 0.126-0.879-0.019-0.145-0.358 1.363-0.973 2.355-1.099 0.986-0.113 2.575-0.050 2.889 0.358 0.232 0.32 0 1.702-0.408 2.707z"></path>
</svg>
