<!-- Generated by IcoMoon.io -->
<svg version="1.1" xmlns="http://www.w3.org/2000/svg" width="40" height="32" viewBox="0 0 40 32">
<title>american-sign-language-interpreting</title>
<path d="M18.248 11.406c-1.275-0.637-2.773-0.703-4.066-0.244 2.676 0 4.472 1.286 5.375 3.176 0.539 1.124-0.323 2.391-1.483 2.391 1.157 0 2.023 1.265 1.483 2.391-0.925 1.937-2.897 3.194-5.043 3.194-0.035 0-5.933-0.541-5.933-0.541l-4.171 2.094c-0.589 0.295-1.245 0.024-1.501-0.489l-2.792-5.585c-0.262-0.541-0.070-1.187 0.436-1.483l3.647-2.077 2.583-4.66c0.401-3.595 2.181-6.894 5.008-9.215 0.715-0.593 1.78-0.489 2.356 0.227 0.593 0.716 0.489 1.763-0.227 2.356-0.785 0.663-1.483 1.414-2.042 2.234 1.361-0.925 2.932-1.553 4.659-1.763 0.925-0.122 1.763 0.523 1.867 1.449 0.122 0.925-0.523 1.763-1.448 1.867-1.012 0.122-1.955 0.471-2.775 0.96 1.64-0.359 3.687-0.197 5.532 0.698 0.838 0.419 1.187 1.414 0.768 2.251-0.401 0.82-1.413 1.169-2.234 0.768zM16.538 15.769c-0.384-0.785-1.152-1.274-2.024-1.274-0.002 0-0.004 0-0.007 0-1.23 0-2.227 0.997-2.227 2.227 0 0.002 0 0.005 0 0.007v-0c0 1.346 1.118 2.234 2.234 2.234 0.873 0 1.64-0.489 2.024-1.274 0.279-0.593 0.855-0.942 1.466-0.96-0.611-0.017-1.187-0.366-1.466-0.96zM40.079 13.43c0.262 0.541 0.070 1.187-0.436 1.483l-3.647 2.077-2.583 4.66c-0.401 3.595-2.181 6.894-5.008 9.215-0.687 0.572-1.746 0.512-2.356-0.227-0.593-0.716-0.489-1.763 0.227-2.356 0.785-0.663 1.483-1.414 2.042-2.234-1.361 0.925-2.932 1.553-4.659 1.763-0.629 0.157-1.73-0.354-1.867-1.449-0.122-0.925 0.523-1.763 1.448-1.867 1.012-0.122 1.955-0.471 2.775-0.96-1.64 0.359-3.687 0.197-5.532-0.698-0.838-0.419-1.187-1.414-0.768-2.251 0.401-0.82 1.413-1.169 2.234-0.768 1.275 0.637 2.773 0.703 4.066 0.244-2.676 0-4.472-1.286-5.375-3.176-0.539-1.124 0.323-2.391 1.483-2.391-1.157 0-2.023-1.265-1.483-2.391 0.881-1.846 2.766-3.196 5.148-3.194l5.829 0.541 4.171-2.094c0.591-0.295 1.245-0.022 1.501 0.489l2.792 5.585zM25.682 12.261c-0.873 0-1.64 0.489-2.024 1.274-0.279 0.593-0.855 0.942-1.466 0.96 0.611 0.018 1.187 0.366 1.466 0.96 0.384 0.785 1.152 1.274 2.024 1.274 0.002 0 0.004 0 0.007 0 1.23 0 2.227-0.997 2.227-2.227 0-0.002 0-0.005 0-0.007v0c0-1.346-1.118-2.234-2.234-2.234z"></path>
</svg>
