<!-- Generated by IcoMoon.io -->
<svg version="1.1" xmlns="http://www.w3.org/2000/svg" width="36" height="32" viewBox="0 0 36 32">
<title>anchor</title>
<path d="M0.815 21.641h2.035c1.37 6.452 8.578 10.049 15.239 10.049 6.672 0 13.871-3.604 15.239-10.049h2.035c0.671 0 1.008-0.812 0.533-1.287l-4.21-4.21c-0.294-0.294-0.771-0.294-1.066 0l-4.21 4.21c-0.475 0.475-0.139 1.287 0.533 1.287h2.207c-1.274 3.411-5.336 5.438-9.051 5.905v-11.934h3.266c0.416 0 0.754-0.338 0.754-0.754v-2.512c0-0.416-0.338-0.754-0.754-0.754h-3.266v-0.344c2.341-0.828 4.019-3.060 4.020-5.685 0-3.281-2.663-5.984-5.943-6.029-3.369-0.047-6.115 2.67-6.115 6.029 0 2.625 1.678 4.858 4.020 5.686v0.344h-3.266c-0.416 0-0.754 0.338-0.754 0.754v2.512c0 0.416 0.338 0.754 0.754 0.754h3.266v11.934c-3.702-0.465-7.777-2.492-9.051-5.905h2.207c0.671 0 1.008-0.812 0.533-1.287l-4.21-4.21c-0.294-0.294-0.771-0.294-1.066 0l-4.21 4.21c-0.475 0.475-0.138 1.287 0.533 1.287zM18.088 3.553c1.108 0 2.010 0.902 2.010 2.010s-0.902 2.010-2.010 2.010-2.010-0.902-2.010-2.010 0.902-2.010 2.010-2.010z"></path>
</svg>
