<!-- Generated by IcoMoon.io -->
<svg version="1.1" xmlns="http://www.w3.org/2000/svg" width="28" height="32" viewBox="0 0 28 32">
<title>android</title>
<path d="M5.627 12.377v7.273c0 0.967-0.76 1.74-1.727 1.74-0.961 0-1.89-0.779-1.89-1.74v-7.273c0-0.948 0.93-1.727 1.89-1.727 0.948 0 1.727 0.779 1.727 1.727zM6.306 22.237c0 1.030 0.829 1.859 1.859 1.859h1.25l0.019 3.837c0 2.317 3.467 2.299 3.467 0v-3.837h2.336v3.837c0 2.305 3.486 2.311 3.486 0v-3.837h1.269c1.017 0 1.847-0.829 1.847-1.859v-11.267h-15.532v11.267zM21.882 10.361h-15.645c0-2.688 1.608-5.024 3.994-6.243l-1.2-2.217c-0.176-0.308 0.27-0.502 0.421-0.239l1.218 2.236c2.192-0.973 4.71-0.923 6.802 0l1.212-2.23c0.157-0.27 0.597-0.069 0.421 0.239l-1.2 2.211c2.368 1.218 3.976 3.555 3.976 6.243zM11.161 6.875c0-0.358-0.289-0.66-0.66-0.66-0.358 0-0.641 0.301-0.641 0.66s0.289 0.66 0.641 0.66c0.371 0 0.66-0.301 0.66-0.66zM18.283 6.875c0-0.358-0.289-0.66-0.641-0.66-0.371 0-0.66 0.301-0.66 0.66s0.289 0.66 0.66 0.66c0.352 0 0.641-0.301 0.641-0.66zM24.237 10.65c-0.948 0-1.727 0.76-1.727 1.727v7.273c0 0.967 0.779 1.74 1.727 1.74 0.967 0 1.89-0.779 1.89-1.74v-7.273c0-0.967-0.93-1.727-1.89-1.727z"></path>
</svg>
