<!-- Generated by IcoMoon.io -->
<svg version="1.1" xmlns="http://www.w3.org/2000/svg" width="28" height="32" viewBox="0 0 28 32">
<title>angellist</title>
<path d="M21.8 13.061c0.735-2.047 2.851-7.97 2.851-9.867 0-1.671-0.986-3.071-2.745-3.071-2.801 0-5.313 8.272-6.098 10.244-0.609-1.79-3.461-10.834-5.973-10.834-1.953 0-2.87 1.438-2.87 3.247 0 2.217 2.148 7.964 2.927 10.175-0.396-0.145-0.823-0.27-1.256-0.27-1.47 0-3.034 1.828-3.034 3.304 0 0.559 0.308 1.344 0.502 1.865-2.317 0.628-3.209 2.173-3.209 4.503-0.006 4.535 4.29 9.333 10.332 9.333 7.411 0 12.021-5.565 12.021-12.743 0-2.707-0.433-5.15-3.448-5.885zM19.577 6.316c0.251-0.772 1.325-4.038 2.33-4.038 0.54 0 0.685 0.559 0.685 1.005 0 1.2-2.424 7.826-2.958 9.295l-2.135-0.377 2.079-5.885zM8.937 2.567c0-0.747 0.911-2.87 2.908 2.958l2.173 6.299c-0.98-0.082-1.74-0.188-2.223 0.088-0.685-1.809-2.858-7.518-2.858-9.346zM8.793 14.858c1.84 0 4.214 5.941 4.214 6.745 0 0.32-0.308 0.716-0.666 0.716-1.313 0-4.83-4.83-4.83-6.136 0.006-0.484 0.798-1.325 1.281-1.325zM20.368 26.558c-1.828 2.010-4.164 3.052-6.89 3.052-3.731 0-6.676-2.047-8.096-5.546-1.074-2.726 0.239-4.29 1.294-4.29 0.716 0 3.41 3.787 3.41 4.591 0 0.308-0.484 0.521-0.735 0.521-1.011 0-1.407-0.973-3.209-3.228-1.865 1.865 1.287 5.458 3.662 5.458 1.639 0 2.707-1.52 2.387-2.638 0.232 0 0.521 0.019 0.735-0.038 0.069 1.702 0.572 3.731 2.619 3.875 0-0.057 0.126-0.446 0.126-0.465 0-1.093-0.666-2.047-0.666-3.159 0-1.777 1.363-3.498 2.745-4.503 0.503-0.377 1.112-0.609 1.702-0.823 0.609-0.232 1.256-0.503 1.721-0.967-0.069-0.703-0.358-1.325-1.061-1.325-1.74 0-7.574 0.251-7.574-2.493 0-0.421 0.006-0.823 1.093-0.823 2.029 0 7.179 0.502 8.686 1.828 1.137 1.011 1.526 7.11-1.947 10.972zM14.175 18.645c0.609 0.195 1.237 0.251 1.865 0.377-0.465 0.339-0.879 0.754-1.275 1.2-0.176-0.534-0.389-1.055-0.59-1.576z"></path>
</svg>
