<!-- Generated by IcoMoon.io -->
<svg version="1.1" xmlns="http://www.w3.org/2000/svg" width="32" height="32" viewBox="0 0 32 32">
<title>angel</title>
<path d="M12.602 14.952c0 1.466-0.738 2.655-1.649 2.655s-1.649-1.189-1.649-2.655c0-1.466 0.738-2.655 1.649-2.655s1.649 1.189 1.649 2.655zM22.852 14.952c0 1.466-0.738 2.655-1.649 2.655s-1.649-1.189-1.649-2.655c0-1.466 0.738-2.655 1.649-2.655s1.649 1.189 1.649 2.655zM16.078 24.268c2.387 0 4.487-1.221 5.714-3.072 0.294-0.444-0.023-1.038-0.556-1.038h-10.315c-0.533 0-0.85 0.594-0.556 1.038 1.226 1.851 3.327 3.072 5.714 3.072zM25.888 7.504c-0.631 0.28-1.364 0.522-2.222 0.732-0.284 0.069-0.58 0.134-0.886 0.195 2.826 2.070 4.666 5.412 4.666 9.176 0 6.268-5.099 11.368-11.368 11.368s-11.368-5.099-11.368-11.368c0-3.728 1.804-7.043 4.585-9.117-0.416-0.077-0.815-0.162-1.193-0.254-0.738-0.181-1.384-0.385-1.953-0.617-2.566 2.551-4.155 6.083-4.155 9.987 0 7.778 6.305 14.083 14.083 14.083s14.083-6.305 14.083-14.083c-0-3.963-1.638-7.544-4.273-10.103zM8.567 6.337c1.971 0.482 4.569 0.747 7.317 0.747s5.346-0.265 7.317-0.747c0.973-0.238 3.933-0.961 3.933-3.029s-2.96-2.791-3.933-3.029c-1.971-0.482-4.569-0.747-7.317-0.747s-5.346 0.265-7.317 0.747c-0.973 0.238-3.933 0.961-3.933 3.029s2.96 2.791 3.933 3.028zM15.884 2.248c3.961 0 6.707 0.574 7.952 1.060-1.246 0.486-3.991 1.060-7.952 1.060s-6.707-0.574-7.953-1.060c1.246-0.486 3.991-1.060 7.953-1.060z"></path>
</svg>
