<!-- Generated by IcoMoon.io -->
<svg version="1.1" xmlns="http://www.w3.org/2000/svg" width="20" height="32" viewBox="0 0 20 32">
<title>angle-double-down</title>
<path d="M8.981 15.63l-8.542-8.542c-0.59-0.59-0.59-1.545 0-2.129l1.419-1.419c0.59-0.59 1.545-0.59 2.129 0l6.055 6.054 6.055-6.054c0.59-0.59 1.545-0.59 2.129 0l1.432 1.413c0.59 0.59 0.59 1.545 0 2.129l-8.542 8.542c-0.59 0.597-1.545 0.597-2.135 0.006zM11.117 27.689l8.542-8.542c0.59-0.59 0.59-1.545 0-2.129l-1.419-1.419c-0.59-0.59-1.545-0.59-2.129 0l-6.061 6.048-6.054-6.055c-0.59-0.59-1.545-0.59-2.129 0l-1.426 1.419c-0.59 0.59-0.59 1.545 0 2.129l8.542 8.542c0.59 0.597 1.545 0.597 2.135 0.006z"></path>
</svg>
