<!-- Generated by IcoMoon.io -->
<svg version="1.1" xmlns="http://www.w3.org/2000/svg" width="28" height="32" viewBox="0 0 28 32">
<title>angle-double-left</title>
<path d="M14.050 14.544l8.542-8.542c0.59-0.59 1.545-0.59 2.129 0l1.419 1.419c0.59 0.59 0.59 1.545 0 2.129l-6.048 6.061 6.055 6.054c0.59 0.59 0.59 1.545 0 2.129l-1.419 1.426c-0.59 0.59-1.545 0.59-2.129 0l-8.542-8.542c-0.597-0.59-0.597-1.545-0.006-2.135zM1.991 16.679l8.542 8.542c0.59 0.59 1.545 0.59 2.129 0l1.419-1.419c0.59-0.59 0.59-1.545 0-2.129l-6.048-6.061 6.054-6.054c0.59-0.59 0.59-1.545 0-2.129l-1.419-1.426c-0.59-0.59-1.545-0.59-2.129 0l-8.542 8.542c-0.597 0.59-0.597 1.545-0.006 2.135z"></path>
</svg>
