<!-- Generated by IcoMoon.io -->
<svg version="1.1" xmlns="http://www.w3.org/2000/svg" width="31" height="32" viewBox="0 0 31 32">
<title>angry</title>
<path d="M15.576 0.035c-8.604 0-15.576 6.971-15.576 15.576s6.971 15.576 15.576 15.576 15.576-6.971 15.576-15.576-6.971-15.576-15.576-15.576zM15.576 28.173c-6.928 0-12.561-5.634-12.561-12.561s5.634-12.561 12.561-12.561 12.561 5.634 12.561 12.561-5.634 12.561-12.561 12.561zM15.576 19.128c-2.11 0-4.095 0.93-5.452 2.55-0.534 0.641-0.446 1.589 0.195 2.123s1.589 0.452 2.123-0.188c1.558-1.865 4.71-1.865 6.268 0 0.509 0.609 1.457 0.747 2.123 0.188 0.641-0.534 0.722-1.482 0.195-2.123-1.357-1.62-3.341-2.55-5.452-2.55zM12.561 14.606c0.647 0 1.25-0.421 1.445-1.074 0.239-0.798-0.214-1.639-1.011-1.878l-5.024-1.507c-0.804-0.245-1.639 0.214-1.878 1.011s0.214 1.639 1.011 1.878l1.771 0.534c-0.195 0.308-0.333 0.653-0.333 1.043 0 1.112 0.898 2.010 2.010 2.010s2.010-0.904 2.010-2.016zM25.060 11.158c-0.239-0.798-1.074-1.25-1.878-1.011l-5.024 1.507c-0.798 0.239-1.25 1.080-1.011 1.878 0.195 0.653 0.798 1.074 1.445 1.074 0 1.112 0.898 2.010 2.010 2.010s2.010-0.898 2.010-2.010c0-0.389-0.138-0.735-0.333-1.043l1.771-0.534c0.798-0.232 1.25-1.074 1.011-1.872z"></path>
</svg>
