<!-- Generated by IcoMoon.io -->
<svg version="1.1" xmlns="http://www.w3.org/2000/svg" width="31" height="32" viewBox="0 0 31 32">
<title>angry1</title>
<path d="M15.576 0.035c-8.604 0-15.576 6.971-15.576 15.576s6.971 15.576 15.576 15.576 15.576-6.971 15.576-15.576-6.971-15.576-15.576-15.576zM8.542 14.606c0-0.584 0.258-1.099 0.66-1.47l-1.947-0.584c-0.534-0.157-0.835-0.722-0.672-1.25 0.157-0.534 0.716-0.829 1.25-0.672l5.024 1.507c0.534 0.157 0.835 0.722 0.672 1.25-0.132 0.433-0.527 0.716-0.961 0.716-0.031 0-0.069-0.012-0.107-0.012 0.044 0.17 0.107 0.333 0.107 0.515 0 1.112-0.898 2.010-2.010 2.010s-2.016-0.898-2.016-2.010zM19.093 24.291c-1.746-2.098-5.288-2.098-7.041 0-0.848 1.024-2.399-0.264-1.545-1.288 1.256-1.507 3.103-2.374 5.062-2.374s3.806 0.867 5.062 2.374c0.867 1.036-0.697 2.299-1.539 1.288zM23.904 12.553l-1.947 0.584c0.396 0.364 0.66 0.886 0.66 1.47 0 1.112-0.898 2.010-2.010 2.010s-2.010-0.898-2.010-2.010c0-0.182 0.057-0.352 0.107-0.515-0.038 0.006-0.069 0.012-0.107 0.012-0.433 0-0.829-0.283-0.961-0.716-0.157-0.534 0.145-1.093 0.672-1.25l5.024-1.507c0.527-0.157 1.093 0.145 1.25 0.672 0.157 0.534-0.145 1.093-0.678 1.25z"></path>
</svg>
