<!-- Generated by IcoMoon.io -->
<svg version="1.1" xmlns="http://www.w3.org/2000/svg" width="40" height="32" viewBox="0 0 40 32">
<title>angrycreative</title>
<path d="M40.196 14.493l-0.201 1.771-2.167 0.145-0.126 1.137 2.167-0.145-0.201 1.771-2.16 0.138-0.145 1.262 2.16-0.138-0.188 1.639-4.064 0.258 0.798-7.11-2.971 7.248-2.003 0.126-1.495-7.399 1.903-0.126 0.854 4.987 1.991-5.175 5.847-0.389zM26.806 22.865l1.777-0.113 0.81-7.543-1.784 0.119-0.804 7.537zM10.175 23.908l-1.218-2.261-0.22 2.349-1.771 0.107 0.17-1.828c-0.691 1.13-2.010 2.154-3.574 2.248-2.060 0.126-3.75-1.313-3.542-3.655 0.163-1.84 1.677-3.944 4.239-4.108 2.368-0.151 2.99 1.457 3.222 1.809l0.176-1.934 2.443-0.157c1.262-0.082 2.431 0.232 2.669 1.488l0.163-1.671 4.070-0.264-0.17 1.752-2.286 0.151-0.107 1.124 2.286-0.145-0.17 1.752-2.286 0.145-0.119 1.25 2.28-0.145-0.132 1.306 3.454-7.361 1.495-0.1 2.016 6.946 0.559-5.376-1.401 0.088 0.182-1.752 4.71-0.308-0.188 1.759-1.526 0.1-0.609 5.772-3.643 0.232-0.27-0.98-2.475 0.157-0.503 1.024-7.926 0.484zM7.392 19.499l-1.658 0.107c-0.421-0.779-0.904-1.043-1.652-0.992-1.193 0.075-2.091 1.099-2.173 2.091-0.088 1.005 0.458 2.041 1.802 1.96 0.804-0.050 1.338-0.54 1.815-1.187l1.696-0.107 0.17-1.872zM10.916 19.015c0.075-0.81-0.477-0.854-1.639-0.779l-0.17 1.79c0.892-0.057 1.727-0.132 1.809-1.011zM12.241 23.462l0.364-3.768c-0.314 0.848-0.923 1.325-1.752 1.671l1.388 2.098zM20.745 20.636l-0.496-2.374-0.992 2.468 1.488-0.094zM10.062 15.95l-0.27-1.099-2.487 0.163-0.509 1.143-2.003 0.132 3.58-7.656 1.501-0.1 1.928 6.406 0.622-6.576 1.696-0.113 2.374 3.994 0.408-4.183 1.79-0.119-0.251 2.588c0.465-0.848 1.438-2.807 3.994-2.983 2.544-0.176 3.291 1.84 3.354 1.903l0.207-2.010 2.468-0.17c0.798-0.057 1.746 0.019 2.28 0.609l-0.276-0.747 2.022-0.138 0.81 2.713 1.445-2.87 1.947-0.138-2.738 4.924-0.301 2.782-1.784 0.119 0.301-2.782-0.992-2.701c0.063 1.401-0.578 2.519-2.010 3.115l1.583 2.437-2.286 0.151-1.206-2.311-0.251 2.405-1.784 0.119 0.207-1.978c-0.421 0.584-1.237 2.223-3.743 2.387-1.645 0.107-2.864-0.647-3.479-2.462l-0.251 2.531-1.57 0.1-2.362-3.976-0.396 4.158-3.567 0.232zM27.434 10.794c0.641-0.044 1.099-0.132 1.357-0.27 0.283-0.151 0.44-0.402 0.477-0.76 0.038-0.333-0.038-0.553-0.214-0.653-0.226-0.132-0.666-0.176-1.438-0.126l-0.182 1.809zM20.582 12.973c0.352 0.371 0.798 0.534 1.338 0.496 0.295-0.019 0.572-0.113 0.835-0.258 0.345-0.188 0.666-0.502 0.948-0.898l-2.148 0.145 0.151-1.501 3.963-0.27 0.075-0.754-1.96 0.132c-0.258-0.232-0.49-0.415-0.697-0.509-0.251-0.107-0.509-0.176-0.766-0.157-0.503 0.031-0.961 0.226-1.382 0.578-0.484 0.402-0.754 0.911-0.81 1.533-0.069 0.603 0.088 1.087 0.452 1.463zM7.939 13.488l1.495-0.1-0.521-2.362-0.973 2.462z"></path>
</svg>
