<!-- Generated by IcoMoon.io -->
<svg version="1.1" xmlns="http://www.w3.org/2000/svg" width="20" height="32" viewBox="0 0 20 32">
<title>ankh</title>
<path d="M18.591 15.611h-2.802c1.324-2.135 2.3-4.67 2.3-7.034 0-5.55-3.599-9.044-8.039-9.044s-8.039 3.494-8.039 9.044c0 2.365 0.976 4.9 2.3 7.034h-2.802c-0.832 0-1.507 0.675-1.507 1.507v2.010c0 0.832 0.675 1.507 1.507 1.507h6.029v9.546c0 0.832 0.675 1.507 1.507 1.507h2.010c0.832 0 1.507-0.675 1.507-1.507v-9.547h6.029c0.832 0 1.507-0.675 1.507-1.507v-2.010c0-0.833-0.675-1.507-1.507-1.507zM10.049 4.557c1.86 0 3.015 1.54 3.015 4.020 0 2.177-1.705 4.908-3.015 6.335-1.31-1.427-3.015-4.158-3.015-6.335 0-2.48 1.155-4.020 3.015-4.020z"></path>
</svg>
