<!-- Generated by IcoMoon.io -->
<svg version="1.1" xmlns="http://www.w3.org/2000/svg" width="32" height="32" viewBox="0 0 32 32">
<title>apk-file-format</title>
<path d="M16.078 23.611c-0.337 0-0.566 0.033-0.686 0.065v2.166c0.141 0.033 0.316 0.044 0.555 0.044 0.882 0 1.425-0.446 1.425-1.198-0-0.675-0.468-1.077-1.295-1.077zM9.351 23.655h-0.021c-0.109 0.435-0.218 0.991-0.337 1.415l-0.435 1.557h1.621l-0.457-1.557c-0.131-0.435-0.261-0.98-0.37-1.415zM27.737 7.239c-0.002-0.147-0.049-0.293-0.151-0.408l-6.2-7.082c-0.002-0.002-0.004-0.003-0.005-0.004-0.037-0.042-0.080-0.075-0.126-0.105-0.013-0.009-0.027-0.017-0.041-0.025-0.039-0.022-0.081-0.039-0.124-0.052-0.012-0.003-0.022-0.008-0.034-0.011-0.047-0.011-0.095-0.018-0.145-0.018h-15.237c-0.695 0-1.261 0.566-1.261 1.261v29.635c0 0.695 0.566 1.261 1.261 1.261h20.807c0.695 0 1.261-0.566 1.261-1.261v-23.119c0-0.024-0.004-0.047-0.006-0.071zM10.984 29.75l-0.566-1.883h-2.1l-0.522 1.883h-1.72l2.242-7.336h2.177l2.275 7.336h-1.785zM18.342 26.387c-0.566 0.533-1.404 0.773-2.384 0.773-0.217 0-0.413-0.011-0.566-0.033v2.622h-1.643v-7.237c0.512-0.087 1.23-0.152 2.242-0.152 1.023 0 1.753 0.195 2.242 0.587 0.468 0.37 0.783 0.98 0.783 1.699 0 0.718-0.239 1.327-0.674 1.741zM24.144 29.75l-1.796-3.167-0.631 0.773v2.395h-1.643v-7.336h1.643v3.243h0.033c0.163-0.283 0.337-0.544 0.501-0.806l1.665-2.438h2.035l-2.427 3.124 2.558 4.212-1.937 0.001zM16.129 20.944l0.036-0.036c0.425-0.426 0.425-1.124-0.001-1.55s-1.124-0.426-1.55 0l-1.586 1.586h-0.775l1.973-1.973-6.975-6.975-1.576 1.576v-0.775l1.189-1.189c0.427-0.426 0.427-1.124 0-1.55-0.321-0.32-0.792-0.393-1.188-0.231v-9.033h14.607v6.452c0 0.348 0.283 0.631 0.631 0.631h5.57v13.068h-10.353zM17.092 12.64l-1.454 0.459c-0.24-0.541-0.581-1.048-1.024-1.491s-0.95-0.784-1.491-1.023l0.459-1.455c0.023-0.072-0.018-0.149-0.089-0.172s-0.149 0.018-0.172 0.090l-0.452 1.433c-1.594-0.601-3.437-0.347-4.821 0.762l6.933 6.932c1.109-1.384 1.362-3.227 0.762-4.821l1.433-0.452c0.071-0.023 0.112-0.1 0.088-0.172-0.021-0.071-0.1-0.112-0.171-0.089zM11.688 12.557c-0.31 0.31-0.813 0.31-1.124-0s-0.31-0.814 0-1.124c0.31-0.31 0.813-0.31 1.124 0 0.31 0.311 0.31 0.814-0.001 1.124zM14.788 15.658c-0.311 0.31-0.813 0.31-1.124 0s-0.31-0.814 0-1.124c0.311-0.31 0.813-0.31 1.124 0s0.311 0.814 0 1.124z"></path>
</svg>
