<!-- Generated by IcoMoon.io -->
<svg version="1.1" xmlns="http://www.w3.org/2000/svg" width="32" height="32" viewBox="0 0 32 32">
<title>app-file-format-variant</title>
<path d="M23.217 23.473c-0.36 0-0.603 0.035-0.731 0.070v2.31c0.151 0.034 0.336 0.046 0.592 0.046 0.94 0 1.521-0.476 1.521-1.277 0-0.72-0.499-1.149-1.382-1.149zM16.473 23.473c-0.36 0-0.603 0.035-0.731 0.070v2.31c0.151 0.034 0.336 0.046 0.592 0.046 0.94 0 1.521-0.476 1.521-1.277-0-0.72-0.5-1.149-1.382-1.149zM27.737 7.239c-0.002-0.148-0.049-0.293-0.15-0.408l-6.201-7.082c-0.001-0.002-0.003-0.003-0.005-0.004-0.037-0.041-0.079-0.075-0.125-0.105-0.013-0.009-0.027-0.017-0.041-0.025-0.040-0.021-0.081-0.039-0.125-0.052-0.012-0.003-0.022-0.008-0.034-0.011-0.047-0.011-0.096-0.018-0.145-0.018h-15.238c-0.695 0-1.261 0.566-1.261 1.261v29.635c0 0.696 0.566 1.261 1.261 1.261h20.807c0.696 0 1.261-0.566 1.261-1.261v-23.119c0-0.024-0.004-0.047-0.006-0.071zM11.041 30.019l-0.603-2.008h-2.24l-0.557 2.008h-1.834l2.392-7.823h2.321l2.426 7.823h-1.904zM18.887 26.432c-0.603 0.569-1.498 0.825-2.542 0.825-0.232 0-0.442-0.012-0.603-0.035v2.797h-1.753v-7.719c0.545-0.093 1.311-0.162 2.391-0.162 1.091 0 1.869 0.209 2.392 0.627 0.499 0.394 0.835 1.044 0.835 1.81s-0.255 1.416-0.719 1.858zM25.631 26.432c-0.603 0.569-1.498 0.825-2.542 0.825-0.232 0-0.441-0.012-0.603-0.035v2.797h-1.753v-7.719c0.546-0.093 1.312-0.162 2.391-0.162 1.091 0 1.869 0.209 2.392 0.627 0.499 0.394 0.836 1.044 0.836 1.81s-0.255 1.416-0.719 1.858zM5.675 20.945v-20.151h14.607v6.452c0 0.348 0.282 0.631 0.631 0.631h5.569l0.001 13.068h-20.808zM9.3 23.519h-0.023c-0.116 0.464-0.232 1.056-0.36 1.509l-0.464 1.66h1.729l-0.487-1.66c-0.14-0.464-0.279-1.045-0.394-1.509zM15.16 12.068l0.282 0.958 0.576-0.446zM19.67 12.429l-0.211-5.577-8.742 0.331 0.027 0.708-3.285 0.733 2.471 11.069 6.104-1.362 0.138-0.006c-0.142 0.245-0.226 0.39-0.226 0.39l-0.173 0.272c-0.081 0.129-0.042 0.301 0.087 0.382l0.672 0.425c0.13 0.082 0.301 0.043 0.383-0.087l0.307-0.487c0.137-0.205 0.366-0.546 0.643-0.961l0.856-0.032 0.111 0.143c0.132 0.17 0.333 0.235 0.45 0.145l0.419-0.325 0.186-0.007-0.006-0.133 0.498-0.386c0.116-0.090 0.103-0.301-0.028-0.471l-0.303-0.39-1.518 1.177 0.030 0.039c-0.065-0.053-0.125-0.112-0.17-0.167-0.025-0.030-0.046-0.059-0.069-0.089l-0.127 0.005c0.026-0.039 0.052-0.078 0.079-0.118l0.026 0.033 1.514-1.174c0.003-0.001 0.006-0.003 0.009-0.005l-0.042-1.108c0.629-0.941 1.135-1.699 1.19-1.787 0.157-0.247 0.268-0.921 0.268-0.921l-1.047-0.661c0.001-0-0.297 0.194-0.524 0.399zM10.293 19.122l-2.262-10.134 2.731-0.61 0.385 10.139 2.237-0.085-3.090 0.69zM17.19 18.796c-0.006-0.004-0.011-0.009-0.017-0.013l-0.288-0.182 0.983-1.473 0.234 0.302-0.912 1.367zM18.699 13.963l-0.614 0.091 0.030 0.207 0.449-0.066c-0.074 0.128-0.152 0.262-0.231 0.398l-0.756-0.976-0.085 0.066-0.174 0.136-1.259 0.976 1.235 1.593c-0.312 0.539-0.605 1.046-0.838 1.449l-4.848 0.184-0.393-10.376 7.784-0.295 0.184 4.867-0.241-1.635-2.316 0.341 0.326 2.214-0.769-0.458-0.688 0.532 0.408 1.384 1.518-1.178-0.159-0.095-0.319-2.163 1.762-0.259 0.086 0.579-1.063 0.156 0.031 0.207 1.062-0.156 0.084 0.57-0.768 0.113 0.030 0.207 0.769-0.113 0.089 0.605-0.769 0.113 0.031 0.207 0.768-0.113 0.009 0.060c-0.107 0.184-0.23 0.396-0.365 0.629zM20.848 13.315l-1.622 2.429-0.234-0.302 1.548-2.321 0.308 0.194zM22.666 8.762c-0.163 0.609-1.246 0.883-1.246 0.883-1.236 0.293-1.082 2.134-1.082 2.134l1.046 0.661c1.13 0.027 1.853-1.145 1.853-1.145 0.999-1.786-0.572-2.533-0.572-2.533zM21.672 12.206l-0.35-0.14c0 0 0.562 0.235 1.859-1.445 0 0-0.127 1.044-1.509 1.585z"></path>
</svg>
