<!-- Generated by IcoMoon.io -->
<svg version="1.1" xmlns="http://www.w3.org/2000/svg" width="28" height="32" viewBox="0 0 28 32">
<title>app-store-ios</title>
<path d="M25.122 1.543h-22.108c-1.664 0-3.015 1.35-3.015 3.015v22.108c0 1.664 1.35 3.015 3.015 3.015h22.108c1.664 0 3.015-1.35 3.015-3.015v-22.108c0-1.664-1.35-3.015-3.015-3.015zM7.976 23.682c-0.345 0.603-1.118 0.804-1.715 0.458-0.603-0.345-0.804-1.118-0.458-1.715l0.898-1.551c1.011-0.308 1.84-0.069 2.487 0.716l-1.212 2.091zM16.7 20.297h-11.424c-0.691 0-1.256-0.565-1.256-1.256s0.565-1.256 1.256-1.256h3.203l4.107-7.11-1.287-2.223c-0.345-0.603-0.138-1.369 0.458-1.715 0.603-0.345 1.369-0.138 1.715 0.458l0.559 0.967 0.559-0.967c0.345-0.603 1.118-0.804 1.715-0.458 0.603 0.345 0.804 1.118 0.458 1.715l-5.389 9.333h3.9c1.269 0 1.978 1.488 1.426 2.512zM22.861 20.297h-1.821l1.231 2.129c0.345 0.603 0.138 1.369-0.458 1.715-0.603 0.345-1.369 0.138-1.715-0.458-2.066-3.574-3.611-6.262-4.648-8.045-1.049-1.821-0.301-3.643 0.446-4.258 0.823 1.426 2.054 3.561 3.699 6.406h3.266c0.691 0 1.256 0.565 1.256 1.256 0 0.697-0.565 1.256-1.256 1.256z"></path>
</svg>
