<!-- Generated by IcoMoon.io -->
<svg version="1.1" xmlns="http://www.w3.org/2000/svg" width="32" height="32" viewBox="0 0 32 32">
<title>app-store</title>
<path d="M16.072 7.126l0.572-0.986c0.352-0.615 1.137-0.823 1.752-0.471s0.823 1.137 0.471 1.752l-5.496 9.515h3.976c1.288 0 2.010 1.514 1.451 2.563h-11.651c-0.71 0-1.281-0.572-1.281-1.281s0.572-1.281 1.281-1.281h3.266l4.183-7.248-1.306-2.267c-0.352-0.615-0.145-1.394 0.471-1.752 0.615-0.352 1.394-0.144 1.752 0.471l0.559 0.986zM11.129 20.818l-1.231 2.135c-0.352 0.615-1.137 0.823-1.752 0.471s-0.823-1.137-0.471-1.752l0.917-1.583c1.030-0.32 1.872-0.075 2.537 0.729zM21.737 16.943h3.335c0.71 0 1.281 0.572 1.281 1.281s-0.572 1.281-1.281 1.281h-1.853l1.25 2.167c0.352 0.615 0.145 1.394-0.471 1.752-0.615 0.352-1.394 0.145-1.752-0.471-2.104-3.649-3.687-6.381-4.736-8.202-1.074-1.853-0.308-3.712 0.452-4.34 0.842 1.445 2.098 3.624 3.775 6.532zM16.078 0.035c-8.604 0-15.576 6.971-15.576 15.576s6.971 15.576 15.576 15.576 15.576-6.971 15.576-15.576-6.971-15.576-15.576-15.576zM29.644 15.611c0 7.455-6.036 13.566-13.566 13.566-7.455 0-13.566-6.036-13.566-13.566 0-7.455 6.036-13.566 13.566-13.566 7.455 0 13.566 6.036 13.566 13.566z"></path>
</svg>
