<!-- Generated by IcoMoon.io -->
<svg version="1.1" xmlns="http://www.w3.org/2000/svg" width="40" height="32" viewBox="0 0 40 32">
<title>apper</title>
<path d="M2.644 14.55c1.394 0 1.821 0.176 2.104 0.917h0.050v-1.438c0-0.71-0.301-0.967-1.124-0.967-0.71 0-0.904 0.157-0.948 0.804h-2.424c0.019-0.873 0.094-1.2 0.364-1.533 0.458-0.553 1.187-0.741 2.895-0.741 2.073 0 2.958 0.314 3.385 1.187 0.126 0.27 0.251 0.98 0.251 1.488v4.792h-2.405l0.082-1.2h-0.063c-0.333 0.98-0.854 1.281-2.23 1.281-1.903 0-2.581-0.634-2.581-2.343 0-1.583 0.772-2.248 2.644-2.248zM3.718 17.571c0.823 0 1.061-0.188 1.061-0.842 0-0.572-0.27-0.729-1.231-0.729-0.823 0-1.124 0.188-1.124 0.76-0.006 0.653 0.232 0.81 1.294 0.81zM8.604 11.611h2.405l-0.094 1.294h0.050c0.572-1.074 0.999-1.313 2.355-1.313 0.904 0 1.551 0.188 1.978 0.572 0.615 0.54 0.804 1.281 0.804 3.021 0 1.884-0.188 2.707-0.76 3.322-0.427 0.458-1.030 0.634-2.085 0.634-1.281 0-1.834-0.345-2.123-1.331h-0.050v4.415h-2.481v-10.614zM13.685 15.423c0-1.727-0.207-2.041-1.3-2.041-1.061 0-1.3 0.314-1.3 1.803 0 1.759 0.22 2.104 1.332 2.104 1.030 0 1.269-0.352 1.269-1.865zM17.322 11.611h2.405l-0.094 1.294h0.050c0.572-1.074 0.999-1.313 2.355-1.313 0.904 0 1.551 0.188 1.978 0.572 0.615 0.54 0.804 1.281 0.804 3.021 0 1.884-0.188 2.707-0.76 3.322-0.427 0.458-1.030 0.634-2.091 0.634-1.281 0-1.834-0.345-2.123-1.331h-0.050v4.415h-2.481v-10.614zM22.403 15.423c0-1.727-0.207-2.041-1.3-2.041-1.061 0-1.3 0.314-1.3 1.803 0 1.759 0.22 2.104 1.331 2.104 1.030 0 1.269-0.352 1.269-1.865zM25.782 15.184c0-1.595 0.207-2.374 0.773-2.877 0.553-0.509 1.394-0.71 2.833-0.71 2.688 0 3.498 0.804 3.498 3.498v0.697h-4.729c-0.019 0.126-0.019 0.251-0.019 0.301 0 1.061 0.283 1.375 1.262 1.375 0.873 0 1.124-0.188 1.124-0.873h2.355v0.145c0 0.615-0.157 1.187-0.427 1.551-0.458 0.615-1.231 0.854-2.782 0.854-1.727 0-2.613-0.207-3.178-0.773-0.534-0.534-0.71-1.338-0.71-3.191zM30.58 14.456c-0.019-0.113-0.019-0.207-0.019-0.239 0-0.772-0.207-0.917-1.231-0.917-0.904 0-1.074 0.188-1.137 0.948l-0.019 0.207h2.405zM34.072 11.611h2.405l-0.113 1.25h0.044c0.427-0.936 0.904-1.269 1.865-1.269 0.678 0 1.2 0.207 1.47 0.584 0.333 0.458 0.427 0.904 0.427 2.135 0 0.094 0 0.314 0.013 0.584h-2.198c0.019-0.113 0.019-0.207 0.019-0.251 0-0.967-0.126-1.218-0.647-1.218-0.396 0-0.678 0.207-0.823 0.584-0.063 0.188-0.063 0.27-0.063 0.773v4.271h-2.405v-7.443z"></path>
</svg>
