<!-- Generated by IcoMoon.io -->
<svg version="1.1" xmlns="http://www.w3.org/2000/svg" width="28" height="32" viewBox="0 0 28 32">
<title>apple-alt</title>
<path d="M22.036 7.635c1.631 0.293 2.969 1.173 4.015 2.638 0.92 1.298 1.547 2.931 1.882 4.899 0.293 1.801 0.271 3.601-0.063 5.401-0.502 2.973-1.505 5.464-3.011 7.474-1.799 2.429-4.057 3.643-6.775 3.643-0.67 0-1.401-0.209-2.196-0.628-0.544-0.335-1.15-0.503-1.82-0.503s-1.275 0.168-1.82 0.503c-0.795 0.419-1.526 0.628-2.196 0.628-2.718 0-4.976-1.214-6.775-3.643-1.505-2.010-2.509-4.501-3.011-7.474-0.334-1.801-0.356-3.601-0.063-5.401 0.334-1.968 0.962-3.601 1.882-4.899 1.046-1.465 2.383-2.345 4.015-2.638 1.004-0.168 2.383-0.021 4.14 0.44 1.505 0.419 2.781 0.921 3.827 1.507 1.046-0.586 2.321-1.088 3.827-1.507 1.757-0.46 3.138-0.607 4.141-0.44zM18.585 5.060c-0.585 0.545-1.36 0.942-2.321 1.193-0.67 0.209-1.401 0.314-2.196 0.314l-0.941-0.063c-0.084-0.586-0.084-1.256 0-2.010 0.168-1.507 0.648-2.659 1.443-3.454 0.585-0.545 1.36-0.942 2.321-1.193 0.67-0.209 1.401-0.314 2.196-0.314l0.941 0.063 0.063 0.942c0 0.796-0.105 1.528-0.313 2.198-0.251 0.963-0.648 1.738-1.192 2.324z"></path>
</svg>
