<!-- Generated by IcoMoon.io -->
<svg version="1.1" xmlns="http://www.w3.org/2000/svg" width="40" height="32" viewBox="0 0 40 32">
<title>apple-pay</title>
<path d="M7.342 9.488c-0.471 0.559-1.225 0.999-1.978 0.936-0.094-0.754 0.276-1.558 0.71-2.047 0.471-0.572 1.294-0.98 1.966-1.011 0.075 0.779-0.232 1.551-0.697 2.123zM8.027 10.568c-1.093-0.063-2.029 0.622-2.544 0.622-0.527 0-1.319-0.59-2.186-0.572-1.124 0.019-2.167 0.653-2.738 1.664-1.181 2.029-0.308 5.025 0.835 6.676 0.559 0.816 1.225 1.715 2.104 1.683 0.835-0.031 1.162-0.54 2.167-0.54 1.011 0 1.306 0.54 2.186 0.527 0.911-0.019 1.482-0.816 2.041-1.633 0.634-0.93 0.898-1.828 0.911-1.878-0.019-0.019-1.759-0.685-1.777-2.694-0.019-1.683 1.375-2.481 1.438-2.531-0.785-1.168-2.010-1.294-2.437-1.325zM14.332 8.294v12.241h1.903v-4.183h2.632c2.405 0 4.089-1.652 4.089-4.038s-1.658-4.020-4.026-4.020h-4.597zM16.235 9.896h2.192c1.652 0 2.594 0.879 2.594 2.424s-0.942 2.437-2.6 2.437h-2.186v-4.861zM26.422 20.63c1.193 0 2.299-0.603 2.801-1.564h0.038v1.47h1.759v-6.092c0-1.765-1.413-2.908-3.586-2.908-2.016 0-3.511 1.156-3.567 2.738h1.715c0.145-0.754 0.842-1.25 1.796-1.25 1.162 0 1.815 0.54 1.815 1.539v0.678l-2.374 0.145c-2.205 0.132-3.398 1.036-3.398 2.606 0.006 1.583 1.237 2.638 3.002 2.638zM26.938 19.179c-1.011 0-1.658-0.49-1.658-1.231 0-0.773 0.622-1.218 1.809-1.288l2.11-0.132v0.691c0 1.143-0.973 1.96-2.261 1.96zM33.375 23.864c1.853 0 2.726-0.71 3.486-2.851l3.335-9.358h-1.934l-2.236 7.229h-0.038l-2.236-7.229h-1.985l3.216 8.912-0.176 0.54c-0.289 0.917-0.76 1.275-1.602 1.275-0.151 0-0.44-0.019-0.559-0.031v1.47c0.113 0.025 0.584 0.044 0.729 0.044z"></path>
</svg>
