<!-- Generated by IcoMoon.io -->
<svg version="1.1" xmlns="http://www.w3.org/2000/svg" width="24" height="32" viewBox="0 0 24 32">
<title>apple</title>
<path d="M19.765 16.409c-0.012-2.305 1.030-4.045 3.14-5.326-1.181-1.69-2.964-2.619-5.32-2.801-2.23-0.176-4.666 1.3-5.558 1.3-0.942 0-3.103-1.237-4.798-1.237-3.505 0.057-7.229 2.795-7.229 8.366 0 1.645 0.301 3.348 0.904 5.1 0.804 2.305 3.706 7.958 6.733 7.863 1.583-0.038 2.701-1.124 4.761-1.124 1.997 0 3.034 1.124 4.798 1.124 3.052-0.044 5.678-5.181 6.444-7.493-4.095-1.928-3.875-5.653-3.875-5.772zM16.21 6.096c1.715-2.035 1.558-3.888 1.507-4.553-1.514 0.088-3.266 1.030-4.265 2.192-1.099 1.244-1.746 2.782-1.608 4.516 1.639 0.126 3.134-0.716 4.365-2.154z"></path>
</svg>
