<!-- Generated by IcoMoon.io -->
<svg version="1.1" xmlns="http://www.w3.org/2000/svg" width="32" height="32" viewBox="0 0 32 32">
<title>archive</title>
<path d="M2.010 27.67c0 1.112 0.898 2.010 2.010 2.010h24.118c1.112 0 2.010-0.898 2.010-2.010v-18.088h-28.137v18.088zM12.059 14.355c0-0.415 0.339-0.754 0.754-0.754h6.532c0.415 0 0.754 0.339 0.754 0.754v0.502c0 0.415-0.339 0.754-0.754 0.754h-6.532c-0.415 0-0.754-0.339-0.754-0.754v-0.502zM30.147 1.543h-28.137c-1.112 0-2.010 0.898-2.010 2.010v3.015c0 0.553 0.452 1.005 1.005 1.005h30.147c0.553 0 1.005-0.452 1.005-1.005v-3.015c0-1.112-0.898-2.010-2.010-2.010z"></path>
</svg>
