<!-- Generated by IcoMoon.io -->
<svg version="1.1" xmlns="http://www.w3.org/2000/svg" width="36" height="32" viewBox="0 0 36 32">
<title>archway</title>
<path d="M35.171 27.67h-1.005v-22.108h-32.157v22.108h-1.004c-0.555 0-1.005 0.45-1.005 1.005v2.010c0 0.555 0.45 1.005 1.005 1.005h10.048c0.555 0 1.005-0.45 1.005-1.005v-11.054c0-3.33 2.699-6.029 6.029-6.029s6.029 2.699 6.029 6.029l0.001 10.049v1.005c0 0.555 0.45 1.005 1.005 1.005h10.048c0.555 0 1.005-0.45 1.005-1.005v-2.010c0-0.555-0.45-1.005-1.005-1.005zM35.171-0.467h-34.167c-0.555 0-1.005 0.45-1.005 1.005v2.010c0 0.555 0.45 1.005 1.005 1.005h34.167c0.555 0 1.005-0.45 1.005-1.005v-2.010c0-0.555-0.45-1.005-1.005-1.005z"></path>
</svg>
