<!-- Generated by IcoMoon.io -->
<svg version="1.1" xmlns="http://www.w3.org/2000/svg" width="32" height="32" viewBox="0 0 32 32">
<title>arrow-alt-circle-left</title>
<path d="M0.502 15.611c0 8.604 6.971 15.576 15.576 15.576s15.576-6.971 15.576-15.576-6.971-15.576-15.576-15.576-15.576 6.971-15.576 15.576zM28.64 15.611c0 6.94-5.621 12.561-12.561 12.561s-12.561-5.621-12.561-12.561 5.621-12.561 12.561-12.561 12.561 5.621 12.561 12.561zM24.118 14.355v2.512c0 0.415-0.339 0.754-0.754 0.754h-7.285v4.208c0 0.672-0.81 1.005-1.287 0.534l-6.218-6.218c-0.295-0.295-0.295-0.773 0-1.068l6.218-6.218c0.477-0.477 1.288-0.138 1.288 0.534v4.208h7.285c0.415 0 0.754 0.339 0.754 0.754z"></path>
</svg>
