<!-- Generated by IcoMoon.io -->
<svg version="1.1" xmlns="http://www.w3.org/2000/svg" width="32" height="32" viewBox="0 0 32 32">
<title>arrow-alt-circle-up1</title>
<path d="M0.502 15.611c0-8.604 6.971-15.576 15.576-15.576s15.576 6.971 15.576 15.576-6.971 15.576-15.576 15.576-15.576-6.971-15.576-15.576zM18.842 22.897v-7.285h4.453c0.672 0 1.011-0.816 0.534-1.287l-7.216-7.179c-0.295-0.295-0.766-0.295-1.061 0l-7.223 7.179c-0.477 0.477-0.138 1.287 0.534 1.287h4.453v7.285c0 0.415 0.339 0.754 0.754 0.754h4.020c0.415 0 0.754-0.339 0.754-0.754z"></path>
</svg>
