<!-- Generated by IcoMoon.io -->
<svg version="1.1" xmlns="http://www.w3.org/2000/svg" width="32" height="32" viewBox="0 0 32 32">
<title>arrow-alt-circle-right</title>
<path d="M31.654 15.611c0-8.604-6.971-15.576-15.576-15.576s-15.576 6.971-15.576 15.576 6.971 15.576 15.576 15.576 15.576-6.971 15.576-15.576zM3.517 15.611c0-6.94 5.621-12.561 12.561-12.561s12.561 5.621 12.561 12.561-5.621 12.561-12.561 12.561-12.561-5.621-12.561-12.561zM8.039 16.867v-2.512c0-0.415 0.339-0.754 0.754-0.754h7.285v-4.208c0-0.672 0.81-1.005 1.288-0.534l6.218 6.218c0.295 0.295 0.295 0.773 0 1.068l-6.218 6.218c-0.477 0.477-1.288 0.138-1.288-0.534v-4.208h-7.285c-0.415 0-0.754-0.339-0.754-0.754z"></path>
</svg>
