<!-- Generated by IcoMoon.io -->
<svg version="1.1" xmlns="http://www.w3.org/2000/svg" width="28" height="32" viewBox="0 0 28 32">
<title>arrow-down</title>
<path d="M25.945 13.507l1.394 1.394c0.59 0.59 0.59 1.545 0 2.129l-12.203 12.21c-0.59 0.59-1.545 0.59-2.129 0l-12.21-12.209c-0.59-0.59-0.59-1.545 0-2.129l1.394-1.394c0.597-0.597 1.57-0.584 2.154 0.025l7.21 7.568v-18.050c0-0.835 0.672-1.507 1.507-1.507h2.010c0.835 0 1.507 0.672 1.507 1.507v18.050l7.21-7.568c0.584-0.615 1.558-0.628 2.154-0.025z"></path>
</svg>
