<!-- Generated by IcoMoon.io -->
<svg version="1.1" xmlns="http://www.w3.org/2000/svg" width="32" height="32" viewBox="0 0 32 32">
<title>arrow-circle-up</title>
<path d="M0.502 15.611c0-8.604 6.971-15.576 15.576-15.576s15.576 6.971 15.576 15.576-6.971 15.576-15.576 15.576-15.576-6.971-15.576-15.576zM9.521 17.426l4.547-4.742v11.468c0 0.835 0.672 1.507 1.507 1.507h1.005c0.835 0 1.507-0.672 1.507-1.507v-11.468l4.547 4.742c0.584 0.609 1.558 0.622 2.154 0.025l0.685-0.691c0.59-0.59 0.59-1.545 0-2.129l-8.328-8.334c-0.59-0.59-1.545-0.59-2.129 0l-8.341 8.334c-0.59 0.59-0.59 1.545 0 2.129l0.685 0.691c0.603 0.597 1.576 0.584 2.16-0.025z"></path>
</svg>
