<!-- Generated by IcoMoon.io -->
<svg version="1.1" xmlns="http://www.w3.org/2000/svg" width="32" height="32" viewBox="0 0 32 32">
<title>arrow-alt-circle-right1</title>
<path d="M16.078 0.035c8.604 0 15.576 6.971 15.576 15.576s-6.971 15.576-15.576 15.576-15.576-6.971-15.576-15.576 6.971-15.576 15.576-15.576zM8.793 18.375h7.286v4.453c0 0.672 0.816 1.011 1.288 0.534l7.179-7.216c0.295-0.295 0.295-0.766 0-1.061l-7.179-7.223c-0.477-0.477-1.288-0.138-1.288 0.534v4.453h-7.285c-0.415 0-0.754 0.339-0.754 0.754v4.020c0 0.415 0.339 0.754 0.754 0.754z"></path>
</svg>
