<!-- Generated by IcoMoon.io -->
<svg version="1.1" xmlns="http://www.w3.org/2000/svg" width="32" height="32" viewBox="0 0 32 32">
<title>arrow-circle-down</title>
<path d="M31.654 15.611c0 8.604-6.971 15.576-15.576 15.576s-15.576-6.971-15.576-15.576 6.971-15.576 15.576-15.576 15.576 6.971 15.576 15.576zM22.635 13.796l-4.547 4.742v-11.468c0-0.835-0.672-1.507-1.507-1.507h-1.005c-0.835 0-1.507 0.672-1.507 1.507v11.468l-4.547-4.742c-0.584-0.609-1.558-0.622-2.154-0.025l-0.685 0.691c-0.59 0.59-0.59 1.545 0 2.129l8.328 8.334c0.59 0.59 1.545 0.59 2.129 0l8.334-8.334c0.59-0.59 0.59-1.545 0-2.129l-0.685-0.691c-0.597-0.597-1.57-0.584-2.154 0.025z"></path>
</svg>
