<!-- Generated by IcoMoon.io -->
<svg version="1.1" xmlns="http://www.w3.org/2000/svg" width="28" height="32" viewBox="0 0 28 32">
<title>arrow-up</title>
<path d="M2.192 17.715l-1.394-1.394c-0.59-0.59-0.59-1.545 0-2.129l12.203-12.21c0.59-0.59 1.545-0.59 2.129 0l12.203 12.203c0.59 0.59 0.59 1.545 0 2.129l-1.394 1.394c-0.597 0.597-1.57 0.584-2.154-0.025l-7.204-7.562v18.050c0 0.835-0.672 1.507-1.507 1.507h-2.010c-0.835 0-1.507-0.672-1.507-1.507v-18.050l-7.21 7.568c-0.584 0.615-1.558 0.628-2.154 0.025z"></path>
</svg>
