<!-- Generated by IcoMoon.io -->
<svg version="1.1" xmlns="http://www.w3.org/2000/svg" width="28" height="32" viewBox="0 0 28 32">
<title>arrow-left</title>
<path d="M16.173 27.488l-1.394 1.394c-0.59 0.59-1.545 0.59-2.129 0l-12.21-12.203c-0.59-0.59-0.59-1.545 0-2.129l12.21-12.21c0.59-0.59 1.545-0.59 2.129 0l1.394 1.394c0.597 0.597 0.584 1.57-0.025 2.154l-7.568 7.21h18.050c0.835 0 1.507 0.672 1.507 1.507v2.010c0 0.835-0.672 1.507-1.507 1.507h-18.050l7.568 7.21c0.615 0.584 0.628 1.558 0.025 2.154z"></path>
</svg>
