<!-- Generated by IcoMoon.io -->
<svg version="1.1" xmlns="http://www.w3.org/2000/svg" width="32" height="32" viewBox="0 0 32 32">
<title>arrow-alt-circle-up</title>
<path d="M16.078 31.187c8.604 0 15.576-6.971 15.576-15.576s-6.971-15.576-15.576-15.576-15.576 6.971-15.576 15.576 6.971 15.576 15.576 15.576zM16.078 3.050c6.94 0 12.561 5.621 12.561 12.561s-5.621 12.561-12.561 12.561-12.561-5.621-12.561-12.561 5.621-12.561 12.561-12.561zM17.334 23.651h-2.512c-0.415 0-0.754-0.339-0.754-0.754v-7.285h-4.208c-0.672 0-1.005-0.81-0.534-1.287l6.218-6.218c0.295-0.295 0.773-0.295 1.068 0l6.218 6.218c0.477 0.477 0.138 1.287-0.534 1.287h-4.208v7.286c0 0.415-0.339 0.754-0.754 0.754z"></path>
</svg>
