<!-- Generated by IcoMoon.io -->
<svg version="1.1" xmlns="http://www.w3.org/2000/svg" width="32" height="32" viewBox="0 0 32 32">
<title>arrow-circle-right</title>
<path d="M16.078 0.035c8.604 0 15.576 6.971 15.576 15.576s-6.971 15.576-15.576 15.576-15.576-6.971-15.576-15.576 6.971-15.576 15.576-15.576zM14.263 9.054l4.742 4.547h-11.468c-0.835 0-1.507 0.672-1.507 1.507v1.005c0 0.835 0.672 1.507 1.507 1.507h11.468l-4.742 4.547c-0.609 0.584-0.622 1.558-0.025 2.154l0.691 0.685c0.59 0.59 1.545 0.59 2.129 0l8.334-8.328c0.59-0.59 0.59-1.545 0-2.129l-8.334-8.341c-0.59-0.59-1.545-0.59-2.129 0l-0.691 0.685c-0.597 0.603-0.584 1.576 0.025 2.16z"></path>
</svg>
