<!-- Generated by IcoMoon.io -->
<svg version="1.1" xmlns="http://www.w3.org/2000/svg" width="32" height="32" viewBox="0 0 32 32">
<title>arrow-alt-circle-down1</title>
<path d="M31.654 15.611c0 8.604-6.971 15.576-15.576 15.576s-15.576-6.971-15.576-15.576 6.971-15.576 15.576-15.576 15.576 6.971 15.576 15.576zM13.315 8.326v7.285h-4.453c-0.672 0-1.011 0.816-0.534 1.288l7.216 7.179c0.295 0.295 0.766 0.295 1.061 0l7.216-7.179c0.477-0.477 0.138-1.287-0.534-1.287h-4.447v-7.286c0-0.415-0.339-0.754-0.754-0.754h-4.020c-0.415 0-0.754 0.339-0.754 0.754z"></path>
</svg>
