<!-- Generated by IcoMoon.io -->
<svg version="1.1" xmlns="http://www.w3.org/2000/svg" width="32" height="32" viewBox="0 0 32 32">
<title>arrows-alt</title>
<path d="M22.12 26.274l-4.974 4.974c-0.589 0.589-1.543 0.589-2.132 0l-4.974-4.974c-0.95-0.95-0.277-2.573 1.066-2.573h3.213l-0-6.331h-6.331v3.213c0 1.343-1.624 2.015-2.573 1.066l-4.974-4.974c-0.589-0.589-0.589-1.543 0-2.132l4.974-4.974c0.95-0.95 2.573-0.277 2.573 1.066v3.217h6.331v-6.331h-3.218c-1.343 0-2.015-1.624-1.066-2.573l4.974-4.974c0.589-0.589 1.543-0.589 2.132 0l4.974 4.974c0.95 0.95 0.277 2.573-1.066 2.573h-3.213v6.331h6.331v-3.213c0-1.343 1.624-2.015 2.573-1.066l4.974 4.974c0.589 0.589 0.589 1.543 0 2.132l-4.974 4.974c-0.95 0.95-2.573 0.277-2.573-1.066v-3.217h-6.331v6.331h3.218c1.343 0 2.015 1.624 1.066 2.573z"></path>
</svg>
