<!-- Generated by IcoMoon.io -->
<svg version="1.1" xmlns="http://www.w3.org/2000/svg" width="32" height="32" viewBox="0 0 32 32">
<title>arrow-alt-circle-left1</title>
<path d="M16.078 31.187c-8.604 0-15.576-6.971-15.576-15.576s6.971-15.576 15.576-15.576 15.576 6.971 15.576 15.576-6.971 15.576-15.576 15.576zM23.364 12.848h-7.285v-4.453c0-0.672-0.816-1.011-1.287-0.534l-7.179 7.216c-0.295 0.295-0.295 0.766 0 1.061l7.179 7.216c0.477 0.477 1.287 0.138 1.287-0.534v-4.447h7.285c0.415 0 0.754-0.339 0.754-0.754v-4.020c0-0.415-0.339-0.754-0.754-0.754z"></path>
</svg>
