<!-- Generated by IcoMoon.io -->
<svg version="1.1" xmlns="http://www.w3.org/2000/svg" width="32" height="32" viewBox="0 0 32 32">
<title>arrow-circle-left</title>
<path d="M16.078 31.187c-8.604 0-15.576-6.971-15.576-15.576s6.971-15.576 15.576-15.576 15.576 6.971 15.576 15.576-6.971 15.576-15.576 15.576zM17.893 22.168l-4.742-4.547h11.468c0.835 0 1.507-0.672 1.507-1.507v-1.005c0-0.835-0.672-1.507-1.507-1.507h-11.468l4.742-4.547c0.609-0.584 0.622-1.558 0.025-2.154l-0.691-0.685c-0.59-0.59-1.545-0.59-2.129 0l-8.334 8.328c-0.59 0.59-0.59 1.545 0 2.129l8.334 8.334c0.59 0.59 1.545 0.59 2.129 0l0.691-0.685c0.597-0.597 0.584-1.57-0.025-2.154z"></path>
</svg>
