<!-- Generated by IcoMoon.io -->
<svg version="1.1" xmlns="http://www.w3.org/2000/svg" width="32" height="32" viewBox="0 0 32 32">
<title>asf-file-format-variant</title>
<path d="M10.636 23.656h-0.021c-0.104 0.414-0.207 0.943-0.322 1.347l-0.414 1.481h1.543l-0.435-1.481c-0.125-0.414-0.249-0.932-0.352-1.347zM27.737 7.239c-0.002-0.148-0.049-0.293-0.15-0.408l-6.2-7.082c-0.001-0.002-0.003-0.002-0.005-0.004-0.037-0.041-0.079-0.075-0.125-0.105-0.013-0.009-0.027-0.017-0.041-0.025-0.040-0.021-0.081-0.039-0.124-0.052-0.012-0.003-0.022-0.008-0.034-0.011-0.047-0.011-0.095-0.018-0.145-0.018h-15.238c-0.695 0-1.261 0.566-1.261 1.261v29.635c0 0.696 0.566 1.261 1.261 1.261h20.807c0.696 0 1.261-0.566 1.261-1.261v-23.119c-0-0.024-0.004-0.047-0.006-0.070zM12.19 29.457l-0.539-1.792h-1.999l-0.498 1.792h-1.636l2.134-6.982h2.072l2.165 6.982h-1.699zM16.53 29.561c-0.798 0-1.585-0.207-1.979-0.424l0.322-1.306c0.425 0.218 1.077 0.435 1.751 0.435 0.725 0 1.108-0.3 1.108-0.756 0-0.435-0.332-0.683-1.171-0.984-1.16-0.404-1.916-1.046-1.916-2.061 0-1.191 0.994-2.103 2.641-2.103 0.787 0 1.367 0.166 1.781 0.352l-0.352 1.274c-0.28-0.134-0.777-0.331-1.461-0.331s-1.015 0.311-1.015 0.674c0 0.445 0.393 0.642 1.295 0.984 1.233 0.456 1.813 1.098 1.813 2.082-0 1.171-0.901 2.165-2.818 2.165zM24.681 23.77h-2.683v1.596h2.507v1.284h-2.507v2.807h-1.585v-6.982h4.268v1.294zM5.675 20.945v-20.151h14.607v6.452c0 0.348 0.282 0.631 0.631 0.631h5.569l0.001 13.068h-20.808zM15.773 7.808v-1.616c-3.31 0-6.003 2.693-6.003 6.003h1.616c-0-2.419 1.968-4.387 4.387-4.387zM16.080 6.192h-0.081v1.668h0.081c2.184 0 4.173 2.047 4.173 4.294v0.081h1.669v-0.081c-0-3.176-2.73-5.962-5.842-5.962zM20.413 12.074c-0.046-2.272-2.043-4.325-4.253-4.374v-1.346c2.965 0.047 5.553 2.69 5.598 5.72h-1.346zM15.886 16.799v1.615c3.31 0 6.003-2.693 6.003-6.003h-1.615c0 2.419-1.968 4.387-4.388 4.387zM11.407 12.452v-0.081h-1.668v0.081c0 3.176 2.729 5.962 5.841 5.962h0.081v-1.668h-0.081c-2.184 0-4.173-2.047-4.173-4.294zM15.499 18.253c-2.966-0.047-5.553-2.69-5.599-5.72h1.346c0.046 2.272 2.043 4.325 4.253 4.374v1.346zM14.438 10.021c-0.036 0.017-0.060 0.055-0.060 0.095v4.511c0 0.040 0.023 0.078 0.060 0.095l0.047 0.011c0.024 0 0.046-0.008 0.066-0.023l3.532-2.255c0.025-0.021 0.040-0.052 0.040-0.084s-0.015-0.062-0.040-0.084l-3.532-2.255c-0.032-0.026-0.076-0.030-0.113-0.012z"></path>
</svg>
