<!-- Generated by IcoMoon.io -->
<svg version="1.1" xmlns="http://www.w3.org/2000/svg" width="32" height="32" viewBox="0 0 32 32">
<title>asp-file-format-symbol</title>
<path d="M27.737 7.239c-0.002-0.148-0.048-0.293-0.15-0.408l-6.201-7.082c-0.001-0.002-0.003-0.002-0.005-0.004-0.037-0.041-0.079-0.075-0.125-0.105-0.013-0.009-0.027-0.017-0.041-0.025-0.040-0.022-0.081-0.039-0.124-0.052-0.012-0.004-0.022-0.008-0.034-0.011-0.047-0.011-0.095-0.018-0.145-0.018h-15.238c-0.695 0-1.261 0.566-1.261 1.261v29.635c0 0.696 0.566 1.261 1.261 1.261h20.807c0.696 0 1.261-0.566 1.261-1.261v-23.119c0-0.024-0.004-0.047-0.006-0.071zM11.951 29.608l-0.529-1.76h-1.964l-0.488 1.76h-1.608l2.096-6.857h2.035l2.126 6.857h-1.668zM16.213 29.711c-0.783 0-1.556-0.204-1.943-0.417l0.315-1.282c0.417 0.214 1.058 0.427 1.719 0.427 0.712 0 1.089-0.295 1.089-0.743 0-0.427-0.326-0.672-1.149-0.966-1.14-0.397-1.883-1.028-1.883-2.025 0-1.17 0.977-2.066 2.594-2.066 0.773 0 1.343 0.163 1.75 0.346l-0.346 1.252c-0.275-0.132-0.763-0.325-1.434-0.325s-0.997 0.305-0.997 0.661c0 0.438 0.387 0.631 1.272 0.966 1.211 0.448 1.78 1.079 1.78 2.045-0 1.15-0.885 2.126-2.768 2.126zM24.321 26.465c-0.529 0.499-1.313 0.722-2.228 0.722-0.203 0-0.387-0.010-0.529-0.031v2.452h-1.536v-6.765c0.478-0.082 1.149-0.142 2.096-0.142 0.957 0 1.638 0.183 2.096 0.549 0.438 0.346 0.733 0.916 0.733 1.587s-0.224 1.242-0.631 1.628zM5.675 20.945v-20.151h14.607v6.452c0 0.348 0.282 0.631 0.631 0.631h5.569l0.001 13.068h-20.808zM10.425 23.912h-0.021c-0.102 0.407-0.203 0.925-0.315 1.323l-0.407 1.454h1.516l-0.427-1.454c-0.122-0.408-0.244-0.916-0.346-1.323zM22.205 23.871c-0.315 0-0.529 0.030-0.641 0.061v2.024c0.132 0.031 0.295 0.041 0.519 0.041 0.824 0 1.333-0.417 1.333-1.119-0-0.631-0.438-1.008-1.211-1.008zM7.675 12.389l5.747-2.966v1.41l-4.346 2.115v0.027l4.346 2.114v1.41l-5.747-2.966v-1.144zM14.311 17.030l2.563-9.642h1.209l-2.562 9.642h-1.21zM24.526 13.572l-5.747 2.926v-1.41l4.443-2.114v-0.027l-4.443-2.114v-1.41l5.747 2.926v1.223z"></path>
</svg>
