<!-- Generated by IcoMoon.io -->
<svg version="1.1" xmlns="http://www.w3.org/2000/svg" width="32" height="32" viewBox="0 0 32 32">
<title>aspx-file-format</title>
<path d="M18.664 23.926c-0.272 0-0.456 0.026-0.553 0.053v1.747c0.115 0.026 0.255 0.035 0.448 0.035 0.711 0 1.15-0.36 1.15-0.965-0-0.544-0.377-0.869-1.044-0.869zM8.497 23.961h-0.017c-0.088 0.351-0.176 0.799-0.272 1.141l-0.352 1.255h1.308l-0.369-1.255c-0.105-0.351-0.211-0.789-0.298-1.141zM27.737 7.239c-0.002-0.147-0.049-0.293-0.15-0.408l-6.201-7.082c-0.001-0.002-0.003-0.003-0.005-0.004-0.037-0.041-0.079-0.075-0.125-0.105-0.013-0.009-0.027-0.017-0.041-0.025-0.040-0.021-0.081-0.039-0.125-0.052-0.012-0.003-0.022-0.008-0.033-0.011-0.047-0.011-0.096-0.018-0.145-0.018h-15.238c-0.695 0-1.261 0.566-1.261 1.261v29.635c0 0.695 0.566 1.261 1.261 1.261h20.807c0.696 0 1.261-0.566 1.261-1.261v-23.119c0-0.024-0.004-0.047-0.006-0.071zM9.813 28.876l-0.456-1.518h-1.693l-0.422 1.518h-1.386l1.808-5.916h1.755l1.834 5.916h-1.439zM13.493 28.964c-0.677 0-1.344-0.176-1.677-0.36l0.272-1.105c0.36 0.184 0.912 0.368 1.483 0.368 0.614 0 0.939-0.254 0.939-0.64 0-0.369-0.281-0.579-0.992-0.834-0.983-0.342-1.623-0.886-1.623-1.746 0-1.009 0.842-1.781 2.238-1.781 0.667 0 1.159 0.14 1.51 0.297l-0.299 1.080c-0.236-0.114-0.658-0.281-1.237-0.281s-0.86 0.263-0.86 0.571c0 0.377 0.334 0.544 1.097 0.834 1.044 0.386 1.536 0.93 1.536 1.764 0 0.992-0.764 1.834-2.387 1.834zM20.49 26.164c-0.456 0.43-1.132 0.623-1.922 0.623-0.176 0-0.333-0.009-0.456-0.026v2.115h-1.326v-5.837c0.413-0.071 0.993-0.123 1.808-0.123 0.825 0 1.413 0.158 1.807 0.474 0.378 0.298 0.632 0.79 0.632 1.37s-0.192 1.070-0.544 1.404zM24.757 28.876l-0.535-1.071c-0.22-0.412-0.36-0.72-0.526-1.062h-0.017c-0.123 0.342-0.272 0.651-0.457 1.062l-0.491 1.071h-1.527l1.712-2.993-1.651-2.923h1.537l0.517 1.080c0.175 0.36 0.307 0.65 0.448 0.983h0.018c0.14-0.378 0.255-0.64 0.403-0.983l0.5-1.080h1.527l-1.667 2.887 1.756 3.029h-1.545zM5.675 20.945v-20.151h14.607v6.452c0 0.348 0.282 0.631 0.631 0.631h5.569l0.001 13.068h-20.808zM7.647 12.57l5.747-2.966v1.41l-4.347 2.115v0.027l4.347 2.114v1.41l-5.747-2.966v-1.144zM14.283 17.211l2.563-9.642h1.209l-2.562 9.642h-1.21zM24.499 13.753l-5.747 2.926v-1.41l4.443-2.114v-0.027l-4.443-2.115v-1.41l5.747 2.926v1.223z"></path>
</svg>
