<!-- Generated by IcoMoon.io -->
<svg version="1.1" xmlns="http://www.w3.org/2000/svg" width="32" height="32" viewBox="0 0 32 32">
<title>assistive-listening-systems</title>
<path d="M13.566 15.863c0 0.971-0.787 1.759-1.759 1.759s-1.759-0.787-1.759-1.759c0-2.77 2.254-5.024 5.024-5.024s5.024 2.254 5.024 5.024c0 0.971-0.787 1.759-1.759 1.759s-1.759-0.787-1.759-1.759c0-0.831-0.676-1.507-1.507-1.507s-1.507 0.676-1.507 1.507zM15.073 4.809c-6.095 0-11.054 4.959-11.054 11.054 0 0.971 0.787 1.759 1.759 1.759s1.759-0.787 1.759-1.759c0-4.156 3.381-7.537 7.537-7.537s7.537 3.381 7.537 7.537c0 4.721-4.46 4.416-4.522 9.020l-0 0.024c0 1.801-1.465 3.266-3.266 3.266-0.971 0-1.759 0.787-1.759 1.759s0.787 1.759 1.759 1.759c3.735 0 6.775-3.035 6.783-6.769 0.037-2.162 4.522-3.030 4.522-9.058 0-6.095-4.959-11.054-11.054-11.054zM10.049 19.631c-1.11 0-2.010 0.9-2.010 2.010s0.9 2.010 2.010 2.010 2.010-0.9 2.010-2.010-0.9-2.010-2.010-2.010zM2.010 27.67c-1.11 0-2.010 0.9-2.010 2.010s0.9 2.010 2.010 2.010 2.010-0.9 2.010-2.010-0.9-2.010-2.010-2.010zM32.157 15.863c0-0.095-0.001-0.19-0.003-0.285-0.118-7.22-4.761-13.629-11.554-15.951-0.919-0.314-1.919 0.176-2.233 1.095s0.177 1.919 1.095 2.233c5.395 1.844 9.082 6.941 9.175 12.684l0 0.012c0.002 0.070 0.002 0.14 0.002 0.211 0 0.971 0.787 1.759 1.759 1.759s1.759-0.787 1.759-1.759zM9.607 27.107l-5.024-5.024-2.132 2.132 5.024 5.024 2.132-2.132z"></path>
</svg>
