<!-- Generated by IcoMoon.io -->
<svg version="1.1" xmlns="http://www.w3.org/2000/svg" width="32" height="32" viewBox="0 0 32 32">
<title>asterisk</title>
<path d="M30.035 20.516l-8.932-4.905 8.932-4.905c0.741-0.407 1.002-1.343 0.58-2.075l-1.223-2.119c-0.423-0.732-1.364-0.973-2.087-0.535l-8.713 5.283 0.218-10.187c0.018-0.845-0.662-1.54-1.507-1.54h-2.447c-0.845 0-1.525 0.695-1.507 1.54l0.218 10.187-8.713-5.283c-0.723-0.438-1.664-0.197-2.087 0.535l-1.223 2.119c-0.423 0.732-0.161 1.668 0.58 2.075l8.932 4.905-8.932 4.905c-0.741 0.407-1.002 1.343-0.58 2.075l1.223 2.119c0.423 0.732 1.364 0.973 2.087 0.535l8.713-5.283-0.218 10.187c-0.018 0.845 0.662 1.54 1.507 1.54h2.447c0.845 0 1.525-0.695 1.507-1.54l-0.218-10.187 8.713 5.283c0.723 0.438 1.664 0.197 2.087-0.535l1.223-2.119c0.423-0.732 0.161-1.668-0.58-2.075z"></path>
</svg>
