<!-- Generated by IcoMoon.io -->
<svg version="1.1" xmlns="http://www.w3.org/2000/svg" width="32" height="32" viewBox="0 0 32 32">
<title>asx-multimedia-file-format</title>
<path d="M9.708 23.788h-0.022c-0.108 0.434-0.217 0.988-0.336 1.411l-0.434 1.552h1.617l-0.456-1.552c-0.13-0.434-0.26-0.977-0.369-1.411zM27.737 7.239c-0.002-0.148-0.049-0.293-0.15-0.408l-6.2-7.082c-0.001-0.002-0.003-0.003-0.005-0.004-0.037-0.041-0.079-0.075-0.125-0.105-0.013-0.009-0.027-0.017-0.041-0.025-0.040-0.021-0.081-0.039-0.124-0.052-0.012-0.003-0.022-0.008-0.034-0.011-0.047-0.011-0.095-0.018-0.145-0.018h-15.238c-0.695 0-1.261 0.566-1.261 1.261v29.635c0 0.696 0.566 1.261 1.261 1.261h20.807c0.696 0 1.261-0.566 1.261-1.261v-23.119c-0-0.024-0.004-0.047-0.006-0.071zM11.336 29.866l-0.564-1.877h-2.095l-0.521 1.877h-1.715l2.236-7.315h2.171l2.268 7.315h-1.78zM15.883 29.975c-0.836 0-1.661-0.217-2.073-0.445l0.336-1.368c0.445 0.228 1.129 0.456 1.834 0.456 0.76 0 1.161-0.315 1.161-0.793 0-0.456-0.347-0.716-1.226-1.031-1.215-0.423-2.008-1.096-2.008-2.16 0-1.248 1.042-2.204 2.768-2.204 0.825 0 1.433 0.174 1.867 0.37l-0.369 1.334c-0.293-0.141-0.815-0.347-1.53-0.347s-1.064 0.325-1.064 0.706c0 0.467 0.412 0.673 1.357 1.031 1.291 0.478 1.899 1.151 1.899 2.182 0 1.227-0.944 2.269-2.952 2.269zM23.805 29.866l-0.662-1.324c-0.271-0.51-0.445-0.89-0.651-1.313h-0.022c-0.152 0.424-0.337 0.804-0.565 1.313l-0.607 1.324h-1.889l2.116-3.7-2.040-3.615h1.899l0.64 1.335c0.217 0.445 0.381 0.803 0.554 1.215h0.022c0.174-0.466 0.315-0.793 0.499-1.215l0.618-1.335h1.889l-2.062 3.571 2.171 3.744h-1.91zM5.675 20.945v-20.151h14.607v6.452c0 0.348 0.282 0.631 0.631 0.631h5.569l0.001 13.068h-20.808zM16.54 17.17h-5.556v-5.168h7.659v2.499c0.104-0.018 0.208-0.031 0.312-0.038v-6.731c0-0.035 0.002-0.070 0.007-0.106 0.061-0.453 0.455-0.978 1.175-1.063 0.214-0.023 0.427 0.042 0.592 0.178v-1.689h-11.634v13.045h8.031c-0.297-0.249-0.506-0.565-0.585-0.929zM10.983 6.086h7.659v5.064h-7.659v-5.064zM10.609 15.817h-1.033v-1.118h1.033v1.118zM10.609 13.288h-1.033v-1.118h1.033v1.118zM10.609 10.792h-1.033v-1.118h1.033v1.118zM10.609 8.262h-1.033v-1.118h1.033v1.118zM22.31 9.433c-2.312-1.616-2.306-1.996-2.306-1.996-0.441 0.052-0.485 0.386-0.485 0.386v7.613c-0.331-0.115-0.727-0.135-1.131-0.035-0.897 0.224-1.484 0.965-1.313 1.654 0.101 0.636 1.039 1.063 1.937 0.837 0.789-0.195 1.339-0.791 1.342-1.4h0.002l0.020-7.23c0 0 1.573-0.084 3.115 2.332-0 0 0.003-1.247-1.182-2.16z"></path>
</svg>
