<!-- Generated by IcoMoon.io -->
<svg version="1.1" xmlns="http://www.w3.org/2000/svg" width="36" height="32" viewBox="0 0 36 32">
<title>asymmetrik</title>
<path d="M32.502 18.953c2.437-2.512 3.649-5.024 3.674-7.292 0.050-4.114-3.731-7.424-10.639-8.479-8.083-1.237-18.12 0.973-25.537 5.175 3.266-1.664 6.946-3.027 10.721-3.655 4.679-1.288 9.609-1.595 13.899-0.93 9.578 1.495 12.36 8.008 6.205 14.552-0.641 0.678-1.382 1.325-2.198 1.922l-9.477-14.219-11.946 17.931c-4.12-1.847-4.805-5.665-1.2-9.496 1.306-1.394 3.034-2.632 4.993-3.649 1.256-0.766 2.493-1.419 3.894-1.928-4.089 1.275-7.706 3.322-10.149 5.835-1.74 1.796-2.6 3.586-2.619 5.207-0.031 2.205 1.47 4.089 4.296 5.213l-2.167 3.247h6.381l1.382-2.16c1.394 0.063 2.845 0 4.309-0.17l-1.432 2.33h8.51l-2.047-3.335c1.168-0.333 2.317-0.722 3.423-1.175l2.883 4.509h6.381l-4.61-6.934c1.162-0.76 2.198-1.602 3.071-2.5zM20.72 24.009l-1.57-2.55-2.054 3.348c-1.47 0.22-2.933 0.32-4.346 0.276l6.4-10.005 4.943 7.725c-1.080 0.465-2.217 0.873-3.373 1.206z"></path>
</svg>
