<!-- Generated by IcoMoon.io -->
<svg version="1.1" xmlns="http://www.w3.org/2000/svg" width="32" height="32" viewBox="0 0 32 32">
<title>at</title>
<path d="M16.078 0.035c-8.608 0-15.576 6.966-15.576 15.576 0 8.608 6.966 15.576 15.576 15.576 3.024 0 5.988-0.888 8.504-2.526 0.754-0.491 0.919-1.525 0.349-2.222l-0.639-0.781c-0.482-0.588-1.33-0.733-1.97-0.322-1.852 1.188-4.026 1.831-6.244 1.831-6.372 0-11.556-5.184-11.556-11.556s5.184-11.556 11.556-11.556c6.289 0 11.556 3.619 11.556 10.049 0 2.436-1.325 5.008-3.653 5.256-1.090-0.029-1.062-0.807-0.846-1.886l1.472-7.606c0.18-0.93-0.533-1.794-1.48-1.794h-2.825c0 0 0 0-0 0-0.435 0-0.794 0.327-0.843 0.749l-0 0.004-0.001 0.006c-0.923-1.124-2.54-1.368-3.767-1.368-4.684 0-8.657 3.909-8.657 9.513 0 4.101 2.31 6.649 6.029 6.649 1.695 0 3.603-0.982 4.71-2.408 0.598 2.142 2.551 2.142 4.441 2.142 6.84 0 9.44-4.498 9.44-9.258 0-8.563-6.907-14.069-15.576-14.069zM14.717 19.156c-1.397 0-2.265-0.981-2.265-2.561 0-2.826 1.933-4.568 3.682-4.568 1.4 0 2.236 0.957 2.236 2.561 0 2.83-2.128 4.568-3.653 4.568z"></path>
</svg>
