<!-- Generated by IcoMoon.io -->
<svg version="1.1" xmlns="http://www.w3.org/2000/svg" width="28" height="32" viewBox="0 0 28 32">
<title>atlas</title>
<path d="M19.996 12.597h-2.455c-0.094 1.698-0.411 3.225-0.892 4.422 1.74-0.832 3.016-2.461 3.348-4.422zM19.996 10.587c-0.332-1.961-1.607-3.591-3.348-4.422 0.482 1.197 0.799 2.725 0.892 4.422h2.455zM14.069 5.645c-0.483 0.468-1.305 2.162-1.472 4.942h2.944c-0.168-2.78-0.989-4.474-1.472-4.942zM11.489 6.165c-1.74 0.832-3.016 2.461-3.348 4.422h2.455c0.094-1.698 0.41-3.225 0.893-4.422zM11.489 17.019c-0.482-1.197-0.799-2.725-0.893-4.422h-2.455c0.332 1.961 1.607 3.591 3.348 4.422zM15.54 12.597h-2.944c0.167 2.78 0.989 4.474 1.472 4.942 0.484-0.468 1.305-2.162 1.472-4.942zM28.137 22.043v-20.902c0-1.005-0.603-1.608-1.608-1.608h-20.5c-3.417 0-6.029 2.613-6.029 6.029v20.098c0 3.417 2.613 6.029 6.029 6.029h20.5c0.804 0 1.608-0.603 1.608-1.608v-1.005c0-0.402-0.201-0.804-0.603-1.206-0.201-1.005-0.201-3.819 0-4.622 0.402-0.201 0.603-0.603 0.603-1.206zM14.069 3.553c4.44 0 8.039 3.599 8.039 8.039s-3.599 8.039-8.039 8.039-8.039-3.599-8.039-8.039 3.599-8.039 8.039-8.039zM24.118 27.67h-18.088c-1.206 0-2.010-0.804-2.010-2.010s1.005-2.010 2.010-2.010h18.088v4.020z"></path>
</svg>
