<!-- Generated by IcoMoon.io -->
<svg version="1.1" xmlns="http://www.w3.org/2000/svg" width="32" height="32" viewBox="0 0 32 32">
<title>atlassian</title>
<path d="M9.559 14.38c-0.484-0.515-1.237-0.484-1.558 0.176l-7.901 15.764c-0.314 0.628 0.151 1.363 0.842 1.363h10.991c0.364 0.006 0.691-0.201 0.842-0.527 2.38-4.886 0.948-12.329-3.216-16.776zM15.35 0.042c-7.681 12.147-0.534 21.894 4.082 31.12 0.157 0.32 0.484 0.527 0.842 0.527h10.941c0.703 0 1.156-0.741 0.842-1.363 0 0-14.728-29.557-15.099-30.291-0.333-0.666-1.181-0.678-1.608 0.006z"></path>
</svg>
