<!-- Generated by IcoMoon.io -->
<svg version="1.1" xmlns="http://www.w3.org/2000/svg" width="28" height="32" viewBox="0 0 28 32">
<title>atom</title>
<path d="M25.941 15.611c2.52-3.447 2.607-6.194 1.579-8.039-0.685-1.226-2.546-3.186-7.306-2.63-1.349-3.218-3.404-5.409-6.145-5.409s-4.796 2.191-6.145 5.409c-4.756-0.551-6.622 1.404-7.306 2.63-1.029 1.847-0.942 4.59 1.579 8.039-2.52 3.447-2.607 6.194-1.579 8.039 1.835 3.287 6.386 2.737 7.306 2.63 1.348 3.217 3.404 5.409 6.145 5.409s4.797-2.192 6.145-5.409c0.92 0.107 5.471 0.657 7.306-2.63 1.029-1.847 0.942-4.59-1.579-8.039zM3.981 21.641c-0.253-0.453-0.012-1.558 0.939-3.033 0.437 0.41 0.892 0.81 1.374 1.205 0.107 0.861 0.251 1.701 0.425 2.517-1.542 0.056-2.505-0.275-2.737-0.689zM6.293 11.411c-0.481 0.395-0.936 0.795-1.374 1.205-0.95-1.476-1.191-2.581-0.939-3.034 0.214-0.386 1.029-0.72 2.382-0.72 0.107 0 0.243 0.019 0.357 0.023-0.149 0.649-0.299 1.508-0.411 2.378l-0.015 0.148zM14.069 3.553c0.595 0 1.394 0.849 2.127 2.34-0.703 0.232-1.409 0.503-2.127 0.808-0.717-0.305-1.424-0.575-2.127-0.808 0.732-1.491 1.532-2.34 2.127-2.34zM14.069 27.67c-0.595 0-1.394-0.849-2.127-2.34 0.703-0.232 1.409-0.503 2.127-0.808 0.717 0.305 1.424 0.575 2.127 0.808-0.732 1.491-1.532 2.34-2.127 2.34zM17.994 17.789c-1.677 1.198-2.898 1.842-3.925 2.354-1.027-0.511-2.248-1.156-3.925-2.354-0.125-1.745-0.125-2.609 0-4.354 1.675-1.196 2.897-1.841 3.925-2.354 1.029 0.513 2.252 1.158 3.925 2.354 0.124 1.745 0.125 2.608 0 4.354zM24.156 21.641c-0.23 0.416-1.193 0.742-2.737 0.688 0.173-0.816 0.317-1.656 0.425-2.516 0.481-0.395 0.936-0.795 1.374-1.205 0.95 1.475 1.191 2.58 0.939 3.033zM23.218 12.615c-0.437-0.41-0.892-0.81-1.374-1.205-0.128-1.019-0.277-1.878-0.463-2.723l0.036 0.197c0.114-0.004 0.249-0.023 0.357-0.023 1.352 0 2.167 0.335 2.382 0.72 0.253 0.453 0.011 1.558-0.939 3.034zM14.069 13.602c-1.11 0-2.010 0.9-2.010 2.010s0.9 2.010 2.010 2.010 2.010-0.9 2.010-2.010-0.9-2.010-2.010-2.010z"></path>
</svg>
