<!-- Generated by IcoMoon.io -->
<svg version="1.1" xmlns="http://www.w3.org/2000/svg" width="40" height="32" viewBox="0 0 40 32">
<title>audible</title>
<path d="M40.196 12.088v3.392l-20.098 12.561-20.098-12.555v-3.392l20.098 12.561 20.098-12.568zM27.98 16.61l2.958-1.847c-2.336-3.505-6.325-5.816-10.847-5.816s-8.51 2.305-10.84 5.803h0.019c0.157-0.145 0.32-0.283 0.484-0.421 5.634-4.673 13.78-3.649 18.226 2.28zM14.156 17.791c1.061-0.747 2.292-1.175 3.605-1.175 2.16 0 4.095 1.156 5.426 2.99l2.851-1.784c-1.313-1.878-3.492-3.109-5.954-3.109-2.443 0-4.61 1.218-5.929 3.078zM6.507 9.651c8.278-6.551 19.985-4.798 26.222 3.9l0.044 0.063 3.065-1.909c-3.36-5.131-9.157-8.523-15.745-8.523-6.5 0-12.348 3.36-15.733 8.517 0.622-0.66 1.426-1.476 2.148-2.047z"></path>
</svg>
