<!-- Generated by IcoMoon.io -->
<svg version="1.1" xmlns="http://www.w3.org/2000/svg" width="32" height="32" viewBox="0 0 32 32">
<title>audio-description</title>
<path d="M10.233 14.525l0.554 1.925h-1.608l0.568-1.925c0.080-0.278 0.166-0.628 0.243-0.957 0.077 0.33 0.163 0.68 0.243 0.957zM20.688 12.509h-0.912v6.204h0.912c1.87 0 2.9-1.11 2.9-3.126 0-2.025-1.098-3.078-2.9-3.078zM32.157 6.567v18.088c0 1.665-1.35 3.015-3.015 3.015h-26.127c-1.665 0-3.015-1.35-3.015-3.015v-18.088c0-1.665 1.35-3.015 3.015-3.015h26.127c1.665 0 3.015 1.35 3.015 3.015zM15.416 20.645l-3.586-10.551c-0.104-0.3-0.384-0.511-0.714-0.511h-2.254c-0.329 0-0.61 0.211-0.712 0.506l-0.002 0.005-3.586 10.551c-0.166 0.489 0.197 0.996 0.714 0.996h1.83c0.342 0 0.631-0.228 0.723-0.541l0.001-0.005 0.539-1.878h3.226l0.552 1.883c0.095 0.316 0.383 0.542 0.723 0.542 0 0 0 0 0 0h1.832c0.516 0 0.88-0.507 0.713-0.996zM27.017 15.587c0-3.704-2.381-6.005-6.215-6.005h-3.603c-0.416 0-0.754 0.338-0.754 0.754v10.551c0 0.416 0.338 0.754 0.754 0.754h3.603c3.834 0 6.215-2.32 6.215-6.054z"></path>
</svg>
