<!-- Generated by IcoMoon.io -->
<svg version="1.1" xmlns="http://www.w3.org/2000/svg" width="32" height="32" viewBox="0 0 32 32">
<title>automatic-gearbox-warning</title>
<path d="M13.516 0.003l-0.588 2.95c-1.41 0.331-2.751 0.886-3.982 1.649l-2.504-1.668-3.511 3.511 1.668 2.504c-0.763 1.232-1.319 2.573-1.649 3.984l-2.95 0.587v4.967l2.95 0.588c0.331 1.41 0.887 2.751 1.649 3.982l-1.668 2.504 3.511 3.511 2.504-1.668c1.232 0.763 2.573 1.319 3.984 1.649l0.587 2.95h4.967l0.588-2.95c1.41-0.331 2.751-0.887 3.982-1.649l2.504 1.668 3.511-3.511-1.668-2.501c0.763-1.232 1.319-2.573 1.649-3.984l2.95-0.59v-4.967l-2.95-0.588c-0.331-1.41-0.887-2.751-1.649-3.982l1.668-2.504-3.511-3.511-2.501 1.667c-1.232-0.763-2.573-1.317-3.984-1.648l-0.59-2.95h-4.967zM14.658 1.394h2.685l0.539 2.693 0.457 0.090c1.564 0.306 3.051 0.922 4.374 1.81l0.386 0.26 2.283-1.522 1.898 1.898-1.522 2.287 0.259 0.386c0.888 1.323 1.503 2.809 1.81 4.372l0.090 0.458 2.693 0.535v2.685l-2.693 0.539-0.090 0.457c-0.307 1.564-0.922 3.051-1.81 4.374l-0.259 0.386 1.522 2.283-1.898 1.898-2.285-1.522-0.386 0.259c-1.323 0.888-2.81 1.503-4.374 1.81l-0.458 0.090-0.535 2.693h-2.685l-0.535-2.693-0.458-0.090c-1.563-0.307-3.049-0.922-4.372-1.81l-0.386-0.259-2.287 1.522-1.898-1.898 1.522-2.285-0.26-0.386c-0.888-1.323-1.503-2.81-1.81-4.374l-0.090-0.458-2.693-0.535v-2.685l2.693-0.535 0.090-0.458c0.307-1.563 0.922-3.049 1.81-4.372l0.26-0.386-1.522-2.287 1.898-1.898 2.287 1.522 0.386-0.26c1.322-0.888 2.809-1.503 4.372-1.81l0.458-0.090 0.535-2.693zM16 5.742c-5.659 0-10.261 4.602-10.261 10.261s4.602 10.261 10.261 10.261c5.659 0 10.261-4.602 10.261-10.261s-4.602-10.261-10.261-10.261zM16 7.134c4.907 0 8.87 3.963 8.87 8.87s-3.963 8.87-8.87 8.87c-4.907 0-8.87-3.963-8.87-8.87s3.963-8.87 8.87-8.87zM15.253 9.184c-0.117 0.003-0.211 0.099-0.211 0.216 0 0.004 0 0.008 0 0.013l-0-0.001v8.587c-0 0.004-0 0.008-0 0.012 0 0.119 0.097 0.216 0.216 0.216 0.005 0 0.010-0 0.014-0l-0.001 0h1.461c0.004 0 0.008 0 0.013 0 0.119 0 0.216-0.097 0.216-0.216 0-0.005-0-0.009-0-0.014l0 0.001v-8.584c0-0.004 0-0.009 0-0.014 0-0.119-0.097-0.216-0.216-0.216-0.005 0-0.009 0-0.014 0l0.001-0-1.461-0.001c-0.003-0-0.006-0-0.009-0s-0.007 0-0.010 0h0zM15.204 20.678c-0.117 0.003-0.211 0.099-0.211 0.217 0 0.004 0 0.009 0 0.013l-0-0.001v1.668c-0 0.004-0 0.008-0 0.013 0 0.12 0.097 0.217 0.217 0.217 0.005 0 0.009-0 0.014-0l-0.001 0h1.556c0.004 0 0.009 0 0.013 0 0.119 0 0.216-0.097 0.216-0.216 0-0.005-0-0.010-0-0.015l0 0.001v-1.668c0-0.004 0-0.009 0-0.014 0-0.119-0.097-0.216-0.216-0.216-0.005 0-0.009 0-0.014 0l0.001-0h-1.556c-0.003-0-0.006-0-0.009-0s-0.007 0-0.010 0h0z"></path>
</svg>
