<!-- Generated by IcoMoon.io -->
<svg version="1.1" xmlns="http://www.w3.org/2000/svg" width="32" height="32" viewBox="0 0 32 32">
<title>automatic</title>
<path d="M3.81 0.003c-2.103 0-3.81 1.707-3.81 3.81v24.381c0 2.103 1.707 3.81 3.81 3.81h24.381c2.103 0 3.81-1.707 3.81-3.81v-24.381c0-2.103-1.707-3.81-3.81-3.81h-24.381zM14.804 4.575h2.271l0.662 3.597c0.838 0.183 1.555 0.541 2.271 0.96l3.109-2.034 1.623 1.615-2.034 3.123c0.419 0.716 0.777 1.44 0.952 2.278l3.649 0.717h0.122v2.286l-3.649 0.716c-0.183 0.838-0.542 1.562-0.961 2.278l2.034 3.123-1.615 1.615-3.109-2.034c-0.716 0.419-1.44 0.777-2.278 0.96l-0.716 3.658h-2.271l-0.716-3.658c-0.838-0.183-1.562-0.541-2.278-0.96l-3.109 2.034-1.615-1.615 2.034-3.123c-0.419-0.716-0.778-1.44-0.961-2.278l-3.649-0.716v-2.286l3.589-0.656c0.183-0.838 0.541-1.562 0.96-2.278l-2.034-3.123 1.615-1.615 3.109 2.034c0.724-0.419 1.44-0.777 2.278-0.96l0.716-3.658zM16 12.194c-2.095 0-3.81 1.714-3.81 3.81s1.714 3.81 3.81 3.81c2.095 0 3.81-1.714 3.81-3.81s-1.714-3.81-3.81-3.81z"></path>
</svg>
