<!-- Generated by IcoMoon.io -->
<svg version="1.1" xmlns="http://www.w3.org/2000/svg" width="32" height="32" viewBox="0 0 32 32">
<title>avi-file-format-variant</title>
<path d="M11.178 23.736h-0.023c-0.113 0.454-0.227 1.032-0.351 1.475l-0.454 1.623h1.691l-0.477-1.623c-0.136-0.454-0.272-1.022-0.386-1.475zM27.736 7.239c-0.001-0.148-0.048-0.293-0.15-0.408l-6.2-7.082c-0.002-0.002-0.004-0.003-0.005-0.004-0.037-0.041-0.080-0.075-0.126-0.105-0.013-0.009-0.027-0.017-0.041-0.025-0.039-0.021-0.081-0.039-0.124-0.052-0.012-0.003-0.022-0.008-0.034-0.011-0.047-0.011-0.095-0.018-0.145-0.018h-15.237c-0.696 0-1.261 0.566-1.261 1.261v29.635c0 0.696 0.565 1.261 1.261 1.261h20.807c0.695 0 1.261-0.566 1.261-1.261v-23.119c-0-0.024-0.004-0.047-0.007-0.071zM12.88 30.091l-0.59-1.963h-2.19l-0.544 1.963h-1.793l2.337-7.649h2.269l2.372 7.649h-1.86zM18.918 30.091h-2.020l-2.451-7.649h1.895l0.93 3.234c0.261 0.908 0.499 1.782 0.681 2.735h0.034c0.193-0.919 0.431-1.827 0.692-2.7l0.976-3.268h1.838l-2.576 7.648zM24.048 30.091h-1.736v-7.649h1.736v7.649zM5.675 20.945v-20.151h14.607v6.452c0 0.348 0.283 0.631 0.631 0.631h5.57v13.068h-20.807zM10.119 5.152v13.045h11.634v-13.045h-11.634zM19.667 6.184v5.064h-7.659v-5.064h7.659zM10.601 7.242h1.033v1.118h-1.033v-1.118zM10.601 9.772h1.033v1.118h-1.033v-1.118zM11.634 15.915h-1.033v-1.118h1.033v1.118zM11.634 13.385h-1.033v-1.118h1.033v1.118zM12.008 17.267v-5.167h7.659v5.167h-7.659zM21.224 15.915h-1.034v-1.118h1.034v1.118zM21.224 13.385h-1.034v-1.118h1.034v1.118zM21.224 10.89h-1.034v-1.118h1.034v1.118zM21.224 8.36h-1.034v-1.118h1.034v1.118z"></path>
</svg>
