<!-- Generated by IcoMoon.io -->
<svg version="1.1" xmlns="http://www.w3.org/2000/svg" width="40" height="32" viewBox="0 0 40 32">
<title>aviato</title>
<path d="M6.733 17.339l-1.193-2.625h-3.272l-1.193 2.625h-1.074l3.907-8.253 3.907 8.253h-1.080zM3.907 11.177l-1.231 2.669h2.462l-1.231-2.669zM10.985 17.609l-3.907-8.253h1.074l2.833 6.029 2.833-6.029h1.068l-3.9 8.253zM16.047 17.339v-7.983h0.973v7.983h-0.973zM29.18 10.078v7.26h-1.087v-7.26h-2.588v-0.722h6.255v0.722h-2.581zM40.196 13.275c0 0.578-0.107 1.118-0.32 1.62s-0.515 0.948-0.892 1.325c-0.377 0.377-0.823 0.678-1.325 0.892s-1.043 0.32-1.62 0.32-1.118-0.107-1.62-0.32c-0.502-0.214-0.948-0.515-1.325-0.892s-0.678-0.816-0.892-1.325c-0.214-0.502-0.32-1.043-0.32-1.62s0.107-1.118 0.32-1.62c0.214-0.502 0.515-0.948 0.892-1.325s0.816-0.527 1.325-0.747c0.502-0.214 1.043-0.32 1.62-0.32s1.118 0.107 1.62 0.32c0.502 0.214 0.948 0.364 1.325 0.747 0.377 0.377 0.672 0.823 0.892 1.325 0.214 0.502 0.32 1.043 0.32 1.62zM39.222 13.275c0-0.458-0.082-0.879-0.245-1.275s-0.389-0.735-0.678-1.024c-0.289-0.289-0.628-0.515-1.017-0.685s-0.804-0.251-1.244-0.251-0.854 0.082-1.244 0.251c-0.389 0.17-0.729 0.396-1.017 0.685s-0.515 0.628-0.678 1.024c-0.163 0.396-0.245 0.823-0.245 1.275 0 0.458 0.082 0.879 0.245 1.275s0.389 0.735 0.678 1.024c0.289 0.289 0.628 0.515 1.017 0.685s0.804 0.251 1.244 0.251 0.854-0.082 1.244-0.251c0.389-0.17 0.729-0.396 1.017-0.685s0.515-0.628 0.678-1.024c0.163-0.396 0.245-0.823 0.245-1.275zM33.268 19.348v-0.396l5.583-0.628-15.256 0.842c0.038-0.138 0.069-0.289 0.088-0.452 0.019-0.126 0.031-0.264 0.038-0.408l4.070-0.509-4.076 0.119c0-0.025-0.006-0.044-0.006-0.069-0.176-1.080-1.602-1.488-1.602-1.488l-0.069-1.652h1.495l1.193 2.625h1.074l-3.907-8.253-3.907 8.253h1.074l1.193-2.625h1.482l-0.069 1.658s-1.426 0.408-1.602 1.488c-0.006 0.019-0.006 0.044-0.006 0.069l-4.076-0.119 4.070 0.509c0.006 0.145 0.019 0.276 0.038 0.408 0.019 0.163 0.050 0.314 0.088 0.452l-15.256-0.848 5.583 0.628v0.396c-0.371 0.057-0.66 0.377-0.66 0.766 0 0.427 0.352 0.779 0.779 0.779s0.779-0.352 0.779-0.779c0-0.389-0.289-0.71-0.66-0.766v-0.364l5.043 0.565v0.339c-0.358 0.069-0.622 0.389-0.622 0.76 0 0.427 0.352 0.641 0.779 0.641s0.779-0.214 0.779-0.641c0-0.377-0.27-0.691-0.622-0.76v-0.308l1.784 0.201v1.488h-0.371v0.873h0.371v-0.415h0.314v0.415h0.371v-0.867h-0.371v-1.457l2.405 0.27c0.509 0.716 1.193 0.854 1.193 0.854l-0.006 0.421-0.32 0.012-0.006 0.76h0.258l0.006-0.314h0.327l0.006 0.314h0.258l-0.006-0.76-0.32-0.012-0.006-0.421s0.685-0.132 1.193-0.854l2.405-0.27v1.457h-0.371v0.867h0.371v-0.415h0.314v0.415h0.371v-0.867h-0.371v-1.488l1.784-0.201v0.308c-0.358 0.069-0.622 0.389-0.622 0.76 0 0.427 0.352 0.641 0.779 0.641s0.779-0.214 0.779-0.641c0-0.377-0.27-0.691-0.622-0.76v-0.339l5.043-0.565v0.364c-0.371 0.057-0.66 0.377-0.66 0.766 0 0.427 0.352 0.779 0.779 0.779s0.779-0.352 0.779-0.779c-0.013-0.396-0.295-0.716-0.672-0.773zM20.657 13.847l1.231-2.669 1.231 2.669h-1.124l-0.107-2.531-0.107 2.531h-1.124z"></path>
</svg>
