<!-- Generated by IcoMoon.io -->
<svg version="1.1" xmlns="http://www.w3.org/2000/svg" width="32" height="32" viewBox="0 0 32 32">
<title>avianex</title>
<path d="M28.457 1.543h-19.596c-2.443 0-4.786 1.96-5.232 4.378l-3.555 19.382c-0.446 2.418 1.175 4.378 3.624 4.378h19.596c2.443 0 4.786-1.96 5.232-4.378l3.561-19.376c0.44-2.424-1.181-4.384-3.63-4.384zM24.802 23.355l-2.010 0.848-7.248-6.909c-0.923 0.628-1.834 1.225-2.619 1.702l1.388 4.032-1.124 0.798-2.55-3.831-3.291-3.021 0.986-0.967 3.643 1.953c0.584-0.66 1.306-1.419 2.060-2.192l-1.287-1.859-4.321-6.268 1.181-1.815 0.559-0.301 6.475 7.059 0.308 0.283c1.218-1.181 2.123-2.035 2.123-2.035 0.484-0.408 1.35-0.182 1.928 0.496 0.565 0.66 0.666 1.551 0.17 1.966-0.113 0.082-0.973 0.716-2.217 1.608l0.283 0.458 5.96 7.499-0.396 0.496z"></path>
</svg>
