<!-- Generated by IcoMoon.io -->
<svg version="1.1" xmlns="http://www.w3.org/2000/svg" width="24" height="32" viewBox="0 0 24 32">
<title>award</title>
<path d="M6.1 22.308c-0.546-0.546-0.261-0.392-1.578-0.744-0.597-0.16-1.122-0.468-1.597-0.837l-2.85 6.987c-0.276 0.676 0.239 1.411 0.969 1.384l3.309-0.126 2.276 2.404c0.502 0.53 1.384 0.365 1.66-0.312l3.269-8.015c-0.681 0.379-1.436 0.602-2.218 0.602-1.225 0-2.375-0.477-3.241-1.342zM24.042 27.714l-2.85-6.987c-0.475 0.369-1 0.676-1.597 0.837-1.323 0.354-1.033 0.2-1.578 0.744-0.866 0.865-2.017 1.342-3.242 1.342-0.781 0-1.537-0.223-2.218-0.602l3.269 8.015c0.276 0.676 1.158 0.842 1.66 0.312l2.277-2.404 3.309 0.126c0.73 0.028 1.245-0.708 0.969-1.384zM16.518 20.887c0.96-0.977 1.070-0.892 2.436-1.265 0.872-0.238 1.554-0.932 1.788-1.82 0.47-1.784 0.348-1.568 1.63-2.873 0.639-0.65 0.888-1.598 0.654-2.486-0.469-1.782-0.47-1.534 0-3.318 0.234-0.888-0.016-1.836-0.654-2.486-1.282-1.305-1.16-1.090-1.63-2.873-0.234-0.888-0.916-1.582-1.788-1.82-1.751-0.478-1.54-0.353-2.823-1.659-0.639-0.65-1.57-0.904-2.442-0.666-1.75 0.477-1.506 0.478-3.26 0-0.872-0.238-1.804 0.016-2.442 0.666-1.282 1.305-1.071 1.181-2.822 1.659-0.872 0.238-1.554 0.932-1.788 1.82-0.469 1.783-0.348 1.568-1.63 2.873-0.639 0.65-0.889 1.598-0.654 2.486 0.469 1.781 0.47 1.533 0 3.317-0.234 0.888 0.016 1.836 0.654 2.486 1.282 1.305 1.16 1.090 1.63 2.873 0.234 0.888 0.916 1.582 1.788 1.82 1.406 0.383 1.51 0.323 2.436 1.265 0.831 0.846 2.125 0.997 3.124 0.365 0.378-0.244 0.84-0.388 1.336-0.388s0.957 0.145 1.345 0.394l-0.010-0.006c0.998 0.632 2.292 0.48 3.123-0.365zM6.134 10.584c0-3.331 2.653-6.031 5.925-6.031s5.925 2.7 5.925 6.031-2.653 6.031-5.925 6.031-5.925-2.7-5.925-6.031z"></path>
</svg>
