<!-- Generated by IcoMoon.io -->
<svg version="1.1" xmlns="http://www.w3.org/2000/svg" width="40" height="32" viewBox="0 0 40 32">
<title>aws</title>
<path d="M11.331 12.283c-0.045 1.422 0.666 2.053 0.683 2.453-0.018 0.169-0.116 0.313-0.255 0.392l-0.002 0.001-0.804 0.563c-0.099 0.070-0.221 0.114-0.352 0.121l-0.002 0c-0.027-0.001-0.514 0.115-1.286-1.608-0.912 1.132-2.299 1.85-3.853 1.85-0.028 0-0.056-0-0.083-0.001l0.004 0c-1.022 0.056-3.793-0.58-3.651-3.53-0.1-2.404 2.139-3.898 4.455-3.772 0.446 0.001 1.357 0.023 2.951 0.394v-0.981c0.169-1.662-0.923-2.951-2.814-2.758-0.151 0.001-1.218-0.031-2.879 0.635-0.462 0.212-0.521 0.177-0.675 0.177-0.465 0-0.274-1.349-0.185-1.52 0.327-0.402 2.252-1.152 4.141-1.142 0.127-0.012 0.276-0.019 0.425-0.019 1.171 0 2.245 0.417 3.080 1.111l-0.008-0.006c0.697 0.777 1.123 1.81 1.123 2.942 0 0.122-0.005 0.243-0.015 0.362l0.001-0.016-0.001 4.352zM5.903 14.318c2.037-0.030 2.899-1.254 3.096-1.914 0.155-0.631 0.129-1.031 0.129-1.721-0.607-0.146-1.482-0.305-2.485-0.306-0.952-0.072-2.689 0.354-2.622 2.026-0.078 1.055 0.698 1.972 1.882 1.914zM16.638 15.765c-0.494 0.045-0.724-0.305-0.796-0.651l-3.128-10.341c-0.061-0.175-0.101-0.355-0.121-0.539-0.002-0.013-0.003-0.028-0.003-0.043 0-0.144 0.106-0.264 0.244-0.286l0.002-0c0.015-0.002-0.134 0 1.397 0 0.551-0.055 0.731 0.379 0.788 0.651l2.243 8.845 2.083-8.845c0.033-0.202 0.185-0.695 0.804-0.643h1.078c0.136-0.011 0.698-0.031 0.796 0.651l2.099 8.958 2.316-8.958c0.030-0.137 0.171-0.714 0.796-0.651h1.239c0.053-0.008 0.386-0.051 0.33 0.539-0.027 0.116 0.214-0.67-3.313 10.671-0.072 0.346-0.303 0.697-0.796 0.651h-1.174c-0.687 0.072-0.786-0.607-0.796-0.675l-2.083-8.613-2.059 8.604c-0.010 0.068-0.109 0.747-0.796 0.675h-1.149zM33.814 16.119c-0.369 0.001-2.13-0.019-3.603-0.772-0.291-0.125-0.491-0.41-0.491-0.74 0-0.003 0-0.005 0-0.008v0-0.675c0-0.531 0.389-0.433 0.555-0.37 0.631 0.255 1.035 0.448 1.809 0.603 2.302 0.473 3.314-0.145 3.562-0.281 0.826-0.49 0.891-1.613 0.33-2.195-0.658-0.552-0.972-0.573-3.337-1.319-0.291-0.081-2.745-0.855-2.75-3.289-0.038-1.774 1.573-3.528 4.366-3.514 0.796-0.001 2.916 0.259 3.49 0.981 0.085 0.131 0.127 0.286 0.121 0.442v0.635c0 0.279-0.102 0.418-0.306 0.418-0.484-0.054-1.343-0.702-3.087-0.675-0.433-0.023-2.505 0.057-2.412 1.568-0.027 1.191 1.671 1.637 1.865 1.689 2.29 0.689 3.055 0.803 3.964 1.858 1.077 1.397 0.496 3.034 0.273 3.482-1.198 2.355-4.297 2.163-4.35 2.162zM36.339 22.705c-4.398 3.248-10.783 4.977-16.235 4.977-0.058 0-0.126 0.001-0.194 0.001-7.602 0-14.531-2.879-19.758-7.606l0.025 0.023c-0.41-0.37-0.048-0.877 0.45-0.595 5.708 3.322 12.563 5.283 19.876 5.283 0.009 0 0.018 0 0.027 0h-0.001c5.486-0.030 10.697-1.172 15.43-3.211l-0.257 0.099c0.74-0.314 1.367 0.49 0.636 1.029zM38.172 20.614c-0.563-0.724-3.723-0.338-5.138-0.169-0.426 0.048-0.499-0.322-0.112-0.595 2.517-1.769 6.65-1.262 7.125-0.668s-0.129 4.736-2.485 6.715c-0.362 0.306-0.708 0.145-0.547-0.258 0.53-1.335 1.72-4.302 1.157-5.026z"></path>
</svg>
