<!-- Generated by IcoMoon.io -->
<svg version="1.1" xmlns="http://www.w3.org/2000/svg" width="24" height="32" viewBox="0 0 24 32">
<title>baby</title>
<path d="M12.059 9.582c2.776 0 5.024-2.248 5.024-5.024s-2.248-5.024-5.024-5.024-5.024 2.248-5.024 5.024 2.248 5.024 5.024 5.024zM8.705 25.208l1.608-2.010-3.863-3.216-2.883 3.605c-0.716 0.892-0.735 2.16-0.050 3.078l3.015 4.020c0.496 0.66 1.25 1.005 2.010 1.005 0.521 0 1.055-0.163 1.507-0.503 1.112-0.829 1.332-2.405 0.502-3.517l-1.847-2.462zM17.667 19.983l-3.863 3.216 1.608 2.010-1.847 2.462c-0.829 1.112-0.609 2.688 0.502 3.517 0.452 0.339 0.98 0.503 1.507 0.503 0.766 0 1.52-0.345 2.010-1.005l3.015-4.020c0.685-0.917 0.666-2.186-0.050-3.078l-2.883-3.605zM23.659 8.64c-0.798-1.137-2.362-1.407-3.498-0.615l-2.55 1.79c-3.31 2.324-7.801 2.324-11.104 0l-2.55-1.784c-1.137-0.798-2.701-0.521-3.498 0.609-0.798 1.137-0.521 2.701 0.609 3.498l2.55 1.79c1.068 0.747 2.223 1.313 3.417 1.752v1.941h10.049v-1.934c1.193-0.44 2.349-1.005 3.417-1.752l2.55-1.79c1.137-0.804 1.407-2.368 0.609-3.505z"></path>
</svg>
