<!-- Generated by IcoMoon.io -->
<svg version="1.1" xmlns="http://www.w3.org/2000/svg" width="32" height="32" viewBox="0 0 32 32">
<title>baby-carriage</title>
<path d="M9.094 0.601c-0.71-1.118-2.336-1.432-3.392-0.59-3.486 2.782-5.703 6.934-5.703 11.581h16.078l-6.984-10.991zM31.152 5.562h-3.015c-2.217 0-4.020 1.803-4.020 4.020v4.020h-24.118c0 3.178 1.445 6.055 3.787 8.209-2.173 0.559-3.787 2.512-3.787 4.855 0 2.776 2.248 5.024 5.024 5.024s5.024-2.248 5.024-5.024c0-0.559-0.113-1.080-0.276-1.583 1.357 0.371 2.801 0.578 4.296 0.578s2.946-0.207 4.296-0.578c-0.17 0.503-0.276 1.024-0.276 1.583 0 2.776 2.248 5.024 5.024 5.024s5.024-2.248 5.024-5.024c0-2.343-1.614-4.296-3.787-4.855 2.343-2.154 3.787-5.031 3.787-8.209v-4.020h3.015c0.553 0 1.005-0.452 1.005-1.005v-2.010c0-0.553-0.452-1.005-1.005-1.005zM5.024 28.675c-1.105 0-2.010-0.904-2.010-2.010s0.904-2.010 2.010-2.010 2.010 0.904 2.010 2.010-0.904 2.010-2.010 2.010zM25.122 26.665c0 1.105-0.904 2.010-2.010 2.010s-2.010-0.904-2.010-2.010 0.904-2.010 2.010-2.010 2.010 0.904 2.010 2.010z"></path>
</svg>
