<!-- Generated by IcoMoon.io -->
<svg version="1.1" xmlns="http://www.w3.org/2000/svg" width="40" height="32" viewBox="0 0 40 32">
<title>backspace</title>
<path d="M36.176 3.553h-23.285c-0 0-0.001 0-0.001 0-1.11 0-2.115 0.45-2.842 1.178l-9.46 9.46c-0.785 0.785-0.785 2.057 0 2.842l9.46 9.46c0.754 0.754 1.776 1.178 2.842 1.178h23.285c2.22 0 4.020-1.799 4.020-4.020v-16.078c0-2.22-1.799-4.020-4.020-4.020zM30.857 19.509c0.392 0.392 0.392 1.029 0 1.421l-1.421 1.421c-0.392 0.392-1.029 0.392-1.421 0l-3.898-3.898-3.898 3.898c-0.392 0.392-1.029 0.392-1.421 0l-1.421-1.421c-0.392-0.392-0.392-1.029 0-1.421l3.898-3.898-3.898-3.898c-0.392-0.393-0.392-1.029 0-1.421l1.421-1.421c0.392-0.393 1.029-0.393 1.421 0l3.898 3.898 3.898-3.898c0.392-0.393 1.029-0.393 1.421 0l1.421 1.421c0.392 0.393 0.392 1.029 0 1.421l-3.898 3.898 3.898 3.898z"></path>
</svg>
