<!-- Generated by IcoMoon.io -->
<svg version="1.1" xmlns="http://www.w3.org/2000/svg" width="32" height="32" viewBox="0 0 32 32">
<title>bak-file-format-symbol</title>
<path d="M8.591 26.548h-0.556v2.029c0.16 0.021 0.352 0.021 0.63 0.021 0.737 0 1.388-0.278 1.388-1.036 0-0.726-0.651-1.015-1.463-1.015zM15.523 23.75h-0.021c-0.107 0.427-0.214 0.972-0.331 1.388l-0.427 1.527h1.591l-0.448-1.527c-0.128-0.427-0.256-0.961-0.363-1.388zM27.737 7.239c-0.002-0.148-0.049-0.293-0.15-0.408l-6.2-7.082c-0.001-0.002-0.003-0.003-0.005-0.004-0.037-0.041-0.079-0.075-0.125-0.105-0.013-0.009-0.027-0.017-0.041-0.025-0.040-0.021-0.081-0.039-0.124-0.052-0.012-0.003-0.022-0.008-0.034-0.011-0.047-0.011-0.095-0.018-0.145-0.018h-15.238c-0.695 0-1.261 0.566-1.261 1.261v29.635c0 0.696 0.566 1.261 1.261 1.261h20.807c0.696 0 1.261-0.566 1.261-1.261v-23.119c-0-0.024-0.004-0.047-0.006-0.071zM11.015 29.154c-0.523 0.417-1.399 0.651-2.83 0.651-0.801 0-1.399-0.054-1.762-0.107v-7.070c0.427-0.085 1.292-0.15 2.104-0.15 0.993 0 1.602 0.096 2.125 0.406 0.502 0.267 0.865 0.758 0.865 1.41 0 0.641-0.374 1.239-1.185 1.538v0.021c0.822 0.224 1.431 0.844 1.431 1.773 0 0.651-0.299 1.164-0.747 1.527zM17.124 29.73l-0.555-1.848h-2.061l-0.513 1.848h-1.688l2.2-7.198h2.136l2.232 7.198h-1.752zM23.832 29.73l-1.762-3.108-0.619 0.758v2.349h-1.612v-7.198h1.612v3.182h0.032c0.16-0.278 0.331-0.534 0.491-0.79l1.634-2.392h1.997l-2.381 3.065 2.509 4.133h-1.901zM5.675 20.945v-20.151h14.607v6.452c0 0.348 0.282 0.631 0.631 0.631h5.569l0.001 13.068h-20.808zM9.884 24.498c0-0.545-0.417-0.833-1.153-0.833-0.352 0-0.555 0.021-0.694 0.042v1.677h0.534c0.854 0 1.313-0.352 1.313-0.886zM18.511 8.628v-0.648h0.605c0.051 0.266 0.285 0.469 0.565 0.469 0.318 0 0.576-0.259 0.576-0.577s-0.258-0.576-0.576-0.576c-0.281 0-0.514 0.202-0.565 0.468h-0.605v-0.828h-0.535v0.828h-1.268c0-0.005 0-0.010 0-0.015l0.005-0.178c0.019-0.601 0.042-1.241 0.071-1.957 0.386-0.317 0.633-0.798 0.633-1.335 0-0.953-0.775-1.728-1.728-1.728s-1.728 0.775-1.728 1.728c0 0.551 0.261 1.042 0.664 1.359 0.029 0.707 0.052 1.338 0.069 1.933l0.005 0.178c0.013 0.451 0.026 0.917 0.021 1.371 0.010 0.126-0.096 0.34-0.19 0.53l-0.011 0.021c-0.12 0.23-0.256 0.462-0.374 0.657-0.165 0.272-0.334 0.544-0.504 0.817-0.374 0.603-0.761 1.225-1.11 1.863-0.306 0.558-0.518 1.002-0.688 1.436-0.108 0.278-0.189 0.531-0.247 0.775-0.073 0.315-0.101 0.578-0.090 0.825-0.008 0.109-0.001 0.2 0.012 0.311 0.013 0.099 0.033 0.2 0.064 0.31 0.058 0.199 0.139 0.39 0.241 0.568 0.185 0.325 0.439 0.622 0.779 0.912 0.533 0.445 1.183 0.794 2.043 1.098 0.012 0.005 0.024 0.007 0.036 0.007 0.044 0 0.085-0.027 0.101-0.070 0.021-0.054-0.006-0.116-0.060-0.138-0.802-0.329-1.424-0.704-1.901-1.144-0.29-0.272-0.51-0.558-0.656-0.848-0.079-0.156-0.14-0.321-0.179-0.488-0.020-0.091-0.033-0.173-0.039-0.252-0.007-0.086-0.006-0.172 0.004-0.239 0.001-0.006 0.001-0.024 0.001-0.029 0.001-0.495 0.186-0.987 0.366-1.401 0.179-0.402 0.407-0.829 0.719-1.342 0.368-0.606 0.778-1.204 1.174-1.784 0.182-0.265 0.364-0.532 0.545-0.801 0.14-0.211 0.288-0.439 0.427-0.679 0.066-0.115 0.136-0.241 0.197-0.381 0.034-0.076 0.063-0.151 0.086-0.228 0.012-0.038 0.028-0.111 0.035-0.159l0.011-0.118c0.029-0.397 0.043-0.787 0.056-1.169h0.269c0.013 0.382 0.027 0.772 0.056 1.168l0.011 0.119c0.006 0.047 0.022 0.12 0.034 0.156 0.024 0.079 0.052 0.154 0.086 0.23 0.064 0.144 0.135 0.272 0.198 0.381 0.139 0.242 0.288 0.469 0.427 0.68 0.181 0.269 0.363 0.536 0.545 0.802 0.396 0.579 0.806 1.177 1.174 1.783 0.312 0.513 0.54 0.939 0.718 1.341 0.181 0.415 0.366 0.908 0.367 1.414 0 0.006 0.002 0.019 0.002 0.025 0.009 0.059 0.010 0.145 0.003 0.231-0.006 0.079-0.019 0.161-0.039 0.251-0.039 0.168-0.1 0.333-0.179 0.489-0.146 0.29-0.367 0.575-0.656 0.847-0.477 0.441-1.099 0.816-1.902 1.145-0.054 0.022-0.081 0.084-0.060 0.138 0.016 0.043 0.057 0.070 0.101 0.070 0.012 0 0.024-0.002 0.036-0.007 0.86-0.303 1.51-0.652 2.044-1.098 0.339-0.288 0.594-0.586 0.778-0.911 0.102-0.179 0.184-0.371 0.241-0.57 0.030-0.109 0.052-0.211 0.064-0.31 0.013-0.111 0.020-0.202 0.012-0.311 0.012-0.248-0.016-0.51-0.090-0.826-0.058-0.244-0.138-0.497-0.247-0.775-0.17-0.435-0.382-0.878-0.688-1.436-0.349-0.637-0.737-1.261-1.111-1.864-0.169-0.272-0.338-0.544-0.503-0.816-0.118-0.195-0.254-0.427-0.373-0.655l-0.011-0.023c-0.094-0.189-0.201-0.403-0.19-0.54-0.004-0.368 0.005-0.751 0.015-1.129h1.273v0.648l0.534-0zM19.682 7.512c0.198 0 0.36 0.162 0.36 0.36s-0.162 0.361-0.36 0.361c-0.161 0-0.296-0.107-0.342-0.253h0.342v-0.216h-0.342c0.046-0.146 0.181-0.252 0.342-0.252zM15.965 4.339c0.046-0.123 0.164-0.212 0.302-0.212 0.142 0 0.262 0.092 0.305 0.22l-0.608-0.008zM14.177 4.279c0-0.834 0.678-1.512 1.512-1.512s1.512 0.678 1.512 1.512c0 0.396-0.154 0.755-0.404 1.026 0.003-0.072 0.006-0.146 0.009-0.22 0-0.007 0.002-0.014 0.002-0.021v-0.029c0.008-0.186 0.016-0.375 0.025-0.572 0.001-0.030-0.009-0.058-0.030-0.079-0-0.001-0.001-0.001-0.002-0.001-0.035-0.265-0.259-0.471-0.533-0.471-0.298 0-0.54 0.243-0.54 0.54v0.612c0 0.072 0.014 0.139 0.040 0.201 0.003 0.178 0.007 0.352 0.011 0.521-0.030 0.002-0.060 0.005-0.090 0.005-0.020 0-0.040-0.003-0.059-0.003 0.004-0.184 0.008-0.373 0.011-0.568 0.015-0.050 0.026-0.102 0.026-0.157v-0.612c0-0.298-0.242-0.54-0.54-0.54-0.282 0-0.511 0.218-0.535 0.493-0.010 0.018-0.017 0.037-0.017 0.058 0.004 0.092 0.008 0.182 0.012 0.271v0.329c0 0.048 0.008 0.093 0.020 0.138 0.002 0.046 0.004 0.093 0.006 0.138-0.269-0.273-0.436-0.648-0.436-1.060zM14.822 4.348c0.043-0.128 0.163-0.22 0.305-0.22 0.139 0 0.257 0.089 0.303 0.212l-0.608 0.009zM15.689 6.007c0.032 0 0.063-0.003 0.094-0.005 0.013 0.562 0.026 1.079 0.041 1.569l0.006 0.192h-0.253l0.006-0.192c0.015-0.49 0.028-1.006 0.041-1.568 0.022 0.001 0.043 0.004 0.065 0.004z"></path>
</svg>
