<!-- Generated by IcoMoon.io -->
<svg version="1.1" xmlns="http://www.w3.org/2000/svg" width="40" height="32" viewBox="0 0 40 32">
<title>balance-scale</title>
<path d="M16.078 20.636h-0.001c0-1.016 0.084-0.548-5.342-11.4-1.109-2.216-4.283-2.221-5.393 0-5.472 10.945-5.341 10.416-5.341 11.4h-0.001c0 2.775 3.599 5.024 8.039 5.024s8.039-2.25 8.039-5.024zM8.039 10.587l4.522 9.044h-9.044l4.522-9.044zM40.195 20.636c0-1.016 0.084-0.548-5.342-11.4-1.109-2.216-4.283-2.221-5.393 0-5.472 10.945-5.341 10.416-5.341 11.4h-0.001c0 2.775 3.599 5.024 8.039 5.024s8.039-2.25 8.039-5.024h-0.001zM27.635 19.631l4.522-9.044 4.522 9.044h-9.044zM33.162 27.67h-11.054v-18.512c1.477-0.646 2.585-1.977 2.914-3.596h8.14c0.555 0 1.005-0.45 1.005-1.005v-2.010c0-0.555-0.45-1.005-1.005-1.005h-9.067c-0.917-1.213-2.358-2.010-3.997-2.010s-3.080 0.796-3.997 2.010h-9.067c-0.555 0-1.005 0.45-1.005 1.005v2.010c0 0.555 0.45 1.005 1.005 1.005h8.14c0.328 1.618 1.436 2.949 2.914 3.596v18.512h-11.054c-0.555 0-1.005 0.45-1.005 1.005v2.010c0 0.555 0.45 1.005 1.005 1.005h26.127c0.555 0 1.005-0.45 1.005-1.005v-2.010c0-0.555-0.45-1.005-1.005-1.005z"></path>
</svg>
