<!-- Generated by IcoMoon.io -->
<svg version="1.1" xmlns="http://www.w3.org/2000/svg" width="40" height="32" viewBox="0 0 40 32">
<title>band-aid</title>
<path d="M0 9.582v12.059c0 2.217 1.802 4.020 4.020 4.020h6.029v-20.098h-6.029c-2.217 0-4.020 1.803-4.020 4.020zM36.176 5.562h-6.029v20.098h6.029c2.217 0 4.020-1.802 4.020-4.020v-12.059c0-2.217-1.803-4.020-4.020-4.020zM12.059 25.66h16.078v-20.098h-16.078v20.098zM23.113 11.089c0.835 0 1.507 0.672 1.507 1.507s-0.672 1.507-1.507 1.507-1.507-0.672-1.507-1.507 0.672-1.507 1.507-1.507zM23.113 17.119c0.835 0 1.507 0.672 1.507 1.507s-0.672 1.507-1.507 1.507-1.507-0.672-1.507-1.507 0.672-1.507 1.507-1.507zM17.083 11.089c0.835 0 1.507 0.672 1.507 1.507s-0.672 1.507-1.507 1.507-1.507-0.672-1.507-1.507 0.672-1.507 1.507-1.507zM17.083 17.119c0.835 0 1.507 0.672 1.507 1.507s-0.672 1.507-1.507 1.507-1.507-0.672-1.507-1.507 0.672-1.507 1.507-1.507z"></path>
</svg>
