<!-- Generated by IcoMoon.io -->
<svg version="1.1" xmlns="http://www.w3.org/2000/svg" width="32" height="32" viewBox="0 0 32 32">
<title>bank-card-dollar</title>
<path d="M4.004 5.248c-1.84 0-3.337 1.496-3.337 3.337v14.681c0 1.84 1.496 3.337 3.337 3.337h22.021c-0.499-0.287-1.035-0.744-1.469-1.335h-20.553c-1.104 0-2.002-0.898-2.002-2.002v-14.681c0-1.104 0.898-2.002 2.002-2.002h24.023c1.104 0 2.002 0.898 2.002 2.002v8.008h1.335v-8.008c0-1.84-1.496-3.337-3.337-3.337zM6.006 9.919c-0.73 0-1.335 0.605-1.335 1.335v2.002c0 0.73 0.605 1.335 1.335 1.335h2.669c0.73 0 1.335-0.605 1.335-1.335v-2.002c0-0.73-0.605-1.335-1.335-1.335zM6.006 11.254h2.669v2.002h-2.669zM18.018 11.254c-0.241-0.004-0.464 0.123-0.585 0.331-0.123 0.207-0.123 0.465 0 0.673 0.121 0.209 0.344 0.335 0.585 0.331h8.675c0.241 0.004 0.464-0.123 0.585-0.331 0.123-0.207 0.123-0.465 0-0.673-0.121-0.209-0.344-0.335-0.585-0.331zM5.339 17.927c-0.241-0.004-0.464 0.123-0.585 0.331-0.123 0.207-0.123 0.465 0 0.673 0.121 0.209 0.344 0.335 0.585 0.331h3.337c0.241 0.004 0.464-0.123 0.585-0.331 0.123-0.207 0.123-0.465 0-0.673-0.121-0.209-0.344-0.335-0.585-0.331zM11.344 17.927c-0.241-0.004-0.464 0.123-0.585 0.331-0.123 0.207-0.123 0.465 0 0.673 0.121 0.209 0.344 0.335 0.585 0.331h3.337c0.241 0.004 0.464-0.123 0.585-0.331 0.123-0.207 0.123-0.465 0-0.673-0.121-0.209-0.344-0.335-0.585-0.331zM17.35 17.927c-0.241-0.004-0.464 0.123-0.585 0.331-0.123 0.207-0.123 0.465 0 0.673 0.121 0.209 0.344 0.335 0.585 0.331h3.337c0.241 0.004 0.464-0.123 0.585-0.331 0.123-0.207 0.123-0.465 0-0.673-0.121-0.209-0.344-0.335-0.585-0.331zM23.356 17.927c-0.369 0-0.667 0.298-0.667 0.667s0.298 0.667 0.667 0.667h1.895c0.448-0.386 0.946-0.683 1.442-0.881v-0.454zM28.027 17.927v1.468c-1.067 0.133-3.003 1.067-3.003 3.337 0 4.271 6.207 2.068 6.207 5.272 0 1.067-0.468 1.935-2.536 1.935s-2.669-1.134-2.669-2.002h-1.335c0.201 2.87 2.203 3.202 3.337 3.403v1.268h1.335v-1.268c1.001-0.066 3.337-0.8 3.337-3.47 0-2.203-1.803-2.804-3.537-3.204-1.401-0.334-2.669-0.667-2.669-2.068 0-0.601 0.267-1.935 2.269-1.935 1.401 0 2.068 0.868 2.269 1.935h1.335c-0.4-1.468-1.067-2.802-3.003-3.136v-1.535zM5.339 21.263c-0.241-0.004-0.464 0.123-0.585 0.331-0.123 0.207-0.123 0.465 0 0.673 0.121 0.209 0.344 0.335 0.585 0.331h8.675c0.241 0.004 0.464-0.123 0.585-0.331 0.123-0.207 0.123-0.465 0-0.673-0.121-0.209-0.344-0.335-0.585-0.331z"></path>
</svg>
