<!-- Generated by IcoMoon.io -->
<svg version="1.1" xmlns="http://www.w3.org/2000/svg" width="32" height="32" viewBox="0 0 32 32">
<title>barcode</title>
<path d="M0 27.67v-24.118h1.13v24.118h-1.13zM1.687 27.653v-24.1h0.574v24.1h-0.574zM3.392 27.653v-24.1h0.556v24.1h-0.556zM6.209 27.653v-24.1h0.556v24.1h-0.556zM8.47 27.653v-24.1h1.113v24.1h-1.113zM11.287 27.653v-24.1h0.556v24.1h-0.556zM12.418 27.653v-24.1h0.556v24.1h-0.556zM13.548 27.653v-24.1h0.556v24.1h-0.556zM15.791 27.653v-24.1h1.13v24.1h-1.13zM18.609 27.653v-24.1h1.13v24.1h-1.13zM20.87 27.653v-24.1h1.131v24.1h-1.131zM23.131 27.653v-24.1h1.131v24.1h-1.131zM24.817 27.653v-24.1h1.13v24.1h-1.13zM27.653 27.653v-24.1h1.687v24.1h-1.687zM29.896 27.653v-24.1h0.574v24.1h-0.574zM31.026 27.67v-24.118h1.13v24.118h-1.13z"></path>
</svg>
