<!-- Generated by IcoMoon.io -->
<svg version="1.1" xmlns="http://www.w3.org/2000/svg" width="28" height="32" viewBox="0 0 28 32">
<title>bars</title>
<path d="M1.005 7.823h26.127c0.555 0 1.005-0.45 1.005-1.005v-2.512c0-0.555-0.45-1.005-1.005-1.005h-26.127c-0.555 0-1.005 0.45-1.005 1.005v2.512c0 0.555 0.45 1.005 1.005 1.005zM1.005 17.872h26.127c0.555 0 1.005-0.45 1.005-1.005v-2.512c0-0.555-0.45-1.005-1.005-1.005h-26.127c-0.555 0-1.005 0.45-1.005 1.005v2.512c0 0.555 0.45 1.005 1.005 1.005zM1.005 27.921h26.127c0.555 0 1.005-0.45 1.005-1.005v-2.512c0-0.555-0.45-1.005-1.005-1.005h-26.127c-0.555 0-1.005 0.45-1.005 1.005v2.512c0 0.555 0.45 1.005 1.005 1.005z"></path>
</svg>
