<!-- Generated by IcoMoon.io -->
<svg version="1.1" xmlns="http://www.w3.org/2000/svg" width="31" height="32" viewBox="0 0 31 32">
<title>baseball-ball</title>
<path d="M23.144 22.388l1.809-0.873c0.697 1.438 1.633 2.713 2.77 3.825 2.135-2.669 3.423-6.048 3.423-9.729 0-3.674-1.281-7.047-3.404-9.71-1.118 1.087-2.047 2.33-2.738 3.737l-1.802-0.886c0.804-1.633 1.884-3.078 3.191-4.334-2.801-2.707-6.607-4.384-10.815-4.384-4.202 0-8.008 1.671-10.809 4.378 1.3 1.25 2.38 2.694 3.184 4.321l-1.803 0.886c-0.691-1.401-1.614-2.644-2.732-3.731-2.135 2.669-3.417 6.042-3.417 9.722s1.281 7.053 3.417 9.716c1.143-1.112 2.085-2.387 2.782-3.831l1.809 0.873c-0.81 1.677-1.903 3.159-3.235 4.44 2.795 2.707 6.601 4.378 10.803 4.378 4.195 0 7.995-1.664 10.796-4.365-1.325-1.281-2.418-2.757-3.228-4.434zM8.805 20.378l-1.916-0.615c0.936-2.914 0.798-5.891-0.038-8.416l1.909-0.628c0.942 2.864 1.13 6.274 0.044 9.66zM22.39 10.744l1.909 0.628c-0.829 2.519-0.973 5.496-0.038 8.416l-1.916 0.615c-1.087-3.392-0.898-6.802 0.044-9.66z"></path>
</svg>
