<!-- Generated by IcoMoon.io -->
<svg version="1.1" xmlns="http://www.w3.org/2000/svg" width="31" height="32" viewBox="0 0 31 32">
<title>basketball-ball</title>
<path d="M13.334 0.18c-2.751 0.396-5.414 1.514-7.675 3.379l4.861 4.861c1.746-2.248 2.72-5.1 2.814-8.24zM15.576 13.476l9.917-9.917c-2.663-2.198-5.879-3.36-9.138-3.523-0.075 4.013-1.35 7.681-3.687 10.533l2.908 2.908zM3.523 5.694c-1.865 2.261-2.983 4.924-3.379 7.675 3.14-0.094 5.998-1.068 8.24-2.814l-4.861-4.861zM20.619 18.519c2.845-2.33 6.513-3.605 10.533-3.687-0.163-3.26-1.325-6.475-3.523-9.138l-9.917 9.917 2.908 2.908zM15.576 17.747l-9.917 9.917c2.663 2.192 5.879 3.36 9.138 3.523 0.082-4.020 1.357-7.687 3.687-10.533l-2.908-2.908zM27.628 25.528c1.865-2.261 2.983-4.924 3.379-7.675-3.147 0.1-5.998 1.074-8.24 2.814l4.861 4.861zM10.533 12.703c-2.851 2.336-6.519 3.618-10.533 3.687 0.163 3.26 1.325 6.475 3.523 9.138l9.917-9.917-2.908-2.908zM17.818 31.043c2.751-0.396 5.414-1.514 7.675-3.379l-4.861-4.861c-1.74 2.242-2.713 5.1-2.814 8.24z"></path>
</svg>
