<!-- Generated by IcoMoon.io -->
<svg version="1.1" xmlns="http://www.w3.org/2000/svg" width="32" height="32" viewBox="0 0 32 32">
<title>bat-file-format-symbol</title>
<path d="M16.612 23.444h-0.023c-0.116 0.464-0.232 1.057-0.36 1.509l-0.464 1.66h1.729l-0.488-1.66c-0.139-0.464-0.278-1.045-0.394-1.509zM10.483 24.257c0-0.592-0.453-0.905-1.254-0.905-0.383 0-0.603 0.023-0.754 0.046v1.823h0.581c0.929 0.001 1.427-0.382 1.427-0.963zM9.079 26.485h-0.603v2.206c0.174 0.023 0.383 0.023 0.685 0.023 0.801 0 1.509-0.302 1.509-1.126 0-0.789-0.708-1.103-1.591-1.103zM27.737 7.239c-0.002-0.148-0.049-0.293-0.15-0.408l-6.201-7.082c-0.001-0.002-0.003-0.003-0.005-0.004-0.037-0.041-0.079-0.075-0.125-0.105-0.013-0.009-0.027-0.017-0.041-0.025-0.040-0.021-0.081-0.039-0.125-0.052-0.012-0.003-0.022-0.008-0.034-0.011-0.047-0.011-0.096-0.018-0.145-0.018h-15.238c-0.695 0-1.261 0.566-1.261 1.261v29.635c0 0.696 0.566 1.261 1.261 1.261h20.807c0.696 0 1.261-0.566 1.261-1.261v-23.119c0-0.024-0.004-0.047-0.006-0.071zM11.714 29.318c-0.569 0.453-1.521 0.708-3.076 0.708-0.871 0-1.521-0.058-1.916-0.116v-7.685c0.465-0.093 1.405-0.163 2.287-0.163 1.079 0 1.741 0.104 2.31 0.441 0.545 0.29 0.94 0.824 0.94 1.532 0 0.696-0.406 1.347-1.289 1.672v0.023c0.894 0.244 1.556 0.917 1.556 1.927 0 0.708-0.325 1.265-0.812 1.66zM18.353 29.945l-0.604-2.008h-2.24l-0.557 2.008h-1.833l2.391-7.824h2.322l2.426 7.824h-1.903zM25.759 23.607h-2.136v6.338h-1.776v-6.338h-2.101v-1.486h6.013v1.486zM5.675 20.945v-20.151h14.607v6.452c0 0.348 0.282 0.631 0.631 0.631h5.569l0.001 13.068h-20.808zM20.794 5.673h-10.058c-0.631 0-1.143 0.513-1.143 1.143v9.408c0 0.631 0.513 1.144 1.143 1.144h10.058c0.631 0 1.144-0.513 1.144-1.144v-9.408c0-0.63-0.513-1.143-1.144-1.143zM21.175 16.223c0 0.211-0.171 0.381-0.381 0.381h-10.058c-0.21 0-0.381-0.17-0.381-0.381v-7.426h10.82v7.426h0zM11.474 13.866c0.303 0.067 0.568 0.256 0.731 0.519 0.161 0.264 0.209 0.588 0.129 0.888-0.007 0.028 0.004 0.058 0.027 0.074l0.705 0.514c0.039 0.028 0.062 0.013 0.079 0.001 0.133-0.085 0.282-0.142 0.439-0.167 0.15-0.023 0.299-0.018 0.446 0.019 0.301 0.072 0.563 0.267 0.72 0.535 0.013 0.024 0.043 0.038 0.071 0.033l0.862-0.135c0.029-0.005 0.052-0.027 0.058-0.054 0.067-0.303 0.256-0.569 0.52-0.73 0.257-0.157 0.57-0.205 0.861-0.136-0.002-0.036 0.001-0.074 0.011-0.112 0.014-0.053 0.006-0.109-0.022-0.154s-0.073-0.077-0.124-0.088c-0.155-0.036-0.27-0.158-0.294-0.312l-0.065-0.409c-0.025-0.154 0.047-0.306 0.182-0.386 0.047-0.028 0.082-0.073 0.094-0.124s0.003-0.106-0.025-0.15c-0.084-0.132-0.078-0.304 0.012-0.43l0.244-0.334c0.061-0.084 0.149-0.137 0.247-0.153l0.068-0.011 0.082 0.018c0.065 0.017 0.115 0.007 0.158-0.020 0.045-0.028 0.079-0.074 0.089-0.125 0.033-0.146 0.145-0.253 0.288-0.286l-0.043-0.269c-0.005-0.028-0.027-0.052-0.055-0.059-0.303-0.066-0.569-0.256-0.73-0.519s-0.209-0.588-0.131-0.887c0.007-0.027-0.003-0.058-0.026-0.074l-0.706-0.514c-0.039-0.029-0.062-0.014-0.080-0.003-0.258 0.166-0.583 0.222-0.884 0.149-0.3-0.071-0.562-0.267-0.719-0.535-0.014-0.024-0.042-0.038-0.072-0.033l-0.862 0.136c-0.028 0.004-0.052 0.027-0.058 0.054-0.066 0.303-0.256 0.569-0.52 0.73-0.263 0.162-0.589 0.21-0.888 0.13-0.019-0.004-0.046-0.011-0.074 0.027l-0.514 0.706c-0.017 0.023-0.017 0.056-0.002 0.080 0.167 0.26 0.222 0.582 0.149 0.884-0.072 0.3-0.267 0.562-0.536 0.719-0.025 0.014-0.038 0.042-0.034 0.072l0.136 0.863c0.004 0.028 0.025 0.051 0.054 0.057zM14.458 11.169c0.925-0.146 1.795 0.489 1.942 1.413 0.145 0.925-0.489 1.795-1.414 1.941-0.924 0.145-1.795-0.488-1.94-1.413s0.487-1.796 1.412-1.941zM18.005 12.458c-0.032 0.143-0.122 0.27-0.246 0.346-0.125 0.077-0.28 0.099-0.421 0.062-0.009-0.002-0.022-0.006-0.035 0.013l-0.244 0.334c-0.008 0.011-0.008 0.027-0.001 0.038 0.079 0.123 0.105 0.276 0.070 0.418s-0.126 0.267-0.253 0.341c-0.012 0.007-0.018 0.021-0.017 0.034l0.065 0.409c0.002 0.013 0.012 0.024 0.026 0.027 0.143 0.032 0.27 0.121 0.345 0.246 0.077 0.125 0.1 0.279 0.062 0.421-0.003 0.013 0.002 0.027 0.013 0.035l0.334 0.244c0.019 0.014 0.030 0.006 0.038 0.001 0.063-0.040 0.133-0.067 0.208-0.079 0.070-0.011 0.142-0.008 0.211 0.008 0.143 0.034 0.267 0.127 0.341 0.254 0.007 0.011 0.020 0.018 0.034 0.016l0.408-0.064c0.013-0.002 0.025-0.012 0.028-0.025 0.031-0.143 0.121-0.269 0.246-0.346s0.279-0.099 0.421-0.062c0.009 0.003 0.022 0.005 0.036-0.012l0.243-0.335c0.008-0.011 0.009-0.026 0.001-0.037-0.079-0.124-0.105-0.277-0.070-0.419s0.126-0.267 0.253-0.341c0.012-0.007 0.018-0.020 0.017-0.034l-0.065-0.409c-0.002-0.013-0.012-0.024-0.026-0.027-0.143-0.032-0.269-0.122-0.346-0.247s-0.099-0.278-0.062-0.42c0.004-0.013-0.002-0.027-0.012-0.035l-0.334-0.243c-0.018-0.013-0.030-0.006-0.038-0.001-0.122 0.079-0.276 0.106-0.419 0.071s-0.267-0.127-0.341-0.254c-0.006-0.012-0.020-0.018-0.033-0.016l-0.409 0.064c-0.013 0.002-0.024 0.012-0.027 0.025zM19.282 13.872c0.069 0.438-0.231 0.85-0.669 0.919s-0.85-0.231-0.919-0.67c-0.068-0.438 0.23-0.85 0.669-0.92 0.438-0.069 0.85 0.231 0.919 0.67z"></path>
</svg>
