<!-- Generated by IcoMoon.io -->
<svg version="1.1" xmlns="http://www.w3.org/2000/svg" width="32" height="32" viewBox="0 0 32 32">
<title>bath</title>
<path d="M30.649 15.611h-25.625v-9.044c0-1.108 0.902-2.010 2.010-2.010 0.713 0 1.34 0.373 1.697 0.935-1.036 1.583-0.922 3.742 0.429 5.215-0.262 0.296-0.253 0.748 0.031 1.032l0.711 0.711c0.294 0.294 0.771 0.294 1.066 0l5.968-5.968c0.294-0.294 0.294-0.771 0-1.066l-0.711-0.711c-0.283-0.283-0.736-0.293-1.032-0.031-1.127-1.034-2.656-1.346-4.031-0.965-0.908-1.308-2.42-2.166-4.129-2.166-2.77 0-5.024 2.254-5.024 5.024v9.044h-0.502c-0.833 0-1.507 0.675-1.507 1.507v1.005c0 0.832 0.675 1.507 1.507 1.507h0.502v2.010c0 1.786 0.776 3.39 2.010 4.494v2.038c0 0.832 0.675 1.507 1.507 1.507h1.005c0.833 0 1.507-0.675 1.507-1.507v-0.503h16.078v0.503c0 0.832 0.675 1.507 1.507 1.507h1.005c0.832 0 1.507-0.675 1.507-1.507v-2.038c1.233-1.104 2.010-2.708 2.010-4.494v-2.010h0.503c0.832 0 1.507-0.675 1.507-1.507v-1.005c0-0.832-0.675-1.507-1.507-1.507z"></path>
</svg>
