<!-- Generated by IcoMoon.io -->
<svg version="1.1" xmlns="http://www.w3.org/2000/svg" width="32" height="32" viewBox="0 0 32 32">
<title>battery-power</title>
<path d="M25.487 18.602h-0.939v-0.939c0-0.519-0.421-0.939-0.939-0.939s-0.939 0.421-0.939 0.939v0.939h-0.939c-0.519 0-0.939 0.421-0.939 0.939s0.421 0.939 0.939 0.939h0.939v0.939c0 0.519 0.421 0.939 0.939 0.939s0.939-0.421 0.939-0.939v-0.939h0.939c0.519 0 0.939-0.421 0.939-0.939s-0.421-0.939-0.939-0.939zM10.333 18.602h-3.757c-0.519 0-0.939 0.421-0.939 0.939s0.421 0.939 0.939 0.939h3.757c0.519 0 0.939-0.421 0.939-0.939s-0.421-0.939-0.939-0.939zM30.184 26.404v-13.599c1.093-0.388 1.879-1.432 1.879-2.656 0-1.554-1.264-2.818-2.818-2.818h-0.939v-0.939c0-1.554-1.264-2.818-2.818-2.818v-0.939c0-1.554-1.264-2.818-2.818-2.818h-13.276c-1.554 0-2.818 1.264-2.818 2.818v0.939c-1.554 0-2.818 1.264-2.818 2.818v0.939h-0.939c-1.554 0-2.818 1.264-2.818 2.818 0 1.225 0.785 2.269 1.879 2.656v13.599c-1.093 0.388-1.879 1.432-1.879 2.656 0 1.554 1.264 2.818 2.818 2.818h26.427c1.554 0 2.818-1.264 2.818-2.818 0-1.225-0.785-2.269-1.879-2.656zM25.487 5.451c0.518 0 0.939 0.421 0.939 0.939v0.939h-3.757v-0.939c0-0.518 0.421-0.939 0.939-0.939h1.879zM8.454 2.633c0-0.518 0.421-0.939 0.939-0.939h13.276c0.518 0 0.939 0.421 0.939 0.939v0.939c-1.554 0-2.818 1.264-2.818 2.818v0.939h-9.519v-0.939c0-1.554-1.264-2.818-2.818-2.818v-0.939zM5.636 6.391c0-0.518 0.421-0.939 0.939-0.939h1.879c0.518 0 0.939 0.421 0.939 0.939v0.939h-3.757v-0.939zM2.818 9.209h26.427c0.518 0 0.939 0.421 0.939 0.939s-0.421 0.939-0.939 0.939h-26.427c-0.518 0-0.939-0.421-0.939-0.939s0.421-0.939 0.939-0.939zM28.305 12.966v13.276h-24.548v-13.276h24.548zM29.245 29.999h-26.427c-0.518 0-0.939-0.421-0.939-0.939s0.421-0.939 0.939-0.939h26.427c0.518 0 0.939 0.421 0.939 0.939s-0.421 0.939-0.939 0.939zM17.973 18.602h-2.237l1.199-2.398c0.232-0.464 0.044-1.028-0.42-1.26s-1.028-0.044-1.26 0.42l-1.879 3.757c-0.146 0.291-0.13 0.637 0.041 0.914s0.474 0.445 0.799 0.445h2.237l-1.199 2.398c-0.232 0.464-0.044 1.028 0.42 1.26s1.028 0.044 1.26-0.42l1.879-3.757c0.312-0.623-0.142-1.359-0.84-1.359z"></path>
</svg>
