<!-- Generated by IcoMoon.io -->
<svg version="1.1" xmlns="http://www.w3.org/2000/svg" width="40" height="32" viewBox="0 0 40 32">
<title>battery-quarter</title>
<path d="M34.167 9.582v4.020h2.010v4.020h-2.010v4.020h-30.147v-12.059h30.147zM35.171 5.562h-32.157c-1.665 0-3.015 1.35-3.015 3.015v14.069c0 1.665 1.35 3.015 3.015 3.015h32.157c1.665 0 3.015-1.35 3.015-3.015v-1.005h0.502c0.833 0 1.507-0.675 1.507-1.507v-9.044c0-0.832-0.675-1.507-1.507-1.507h-0.502v-1.005c0-1.665-1.35-3.015-3.015-3.015zM14.069 11.592h-8.039v8.039h8.039v-8.039z"></path>
</svg>
