<!-- Generated by IcoMoon.io -->
<svg version="1.1" xmlns="http://www.w3.org/2000/svg" width="40" height="32" viewBox="0 0 40 32">
<title>bed</title>
<path d="M11.054 15.611c2.77 0 5.025-2.254 5.025-5.024s-2.254-5.024-5.024-5.024-5.024 2.254-5.024 5.024 2.254 5.024 5.024 5.024zM33.162 7.572h-14.069c-0.555 0-1.005 0.45-1.005 1.005v9.044h-14.069v-13.064c0-0.555-0.45-1.005-1.005-1.005h-2.010c-0.555 0-1.005 0.45-1.005 1.005v22.108c0 0.555 0.45 1.005 1.005 1.005h2.010c0.555 0 1.005-0.45 1.005-1.005v-3.015h32.157v3.015c0 0.555 0.45 1.005 1.005 1.005h2.010c0.555 0 1.005-0.45 1.005-1.005v-12.059c0-3.885-3.149-7.034-7.034-7.034z"></path>
</svg>
