<!-- Generated by IcoMoon.io -->
<svg version="1.1" xmlns="http://www.w3.org/2000/svg" width="28" height="32" viewBox="0 0 28 32">
<title>beer</title>
<path d="M23.113 5.562h-3.015v-2.512c0-0.833-0.675-1.507-1.507-1.507h-17.083c-0.833 0-1.507 0.675-1.507 1.507v25.122c0 0.832 0.675 1.507 1.507 1.507h17.083c0.832 0 1.507-0.675 1.507-1.507v-2.645l5.063-2.26c1.808-0.807 2.977-2.608 2.977-4.588v-8.093c0-2.77-2.254-5.024-5.024-5.024zM24.118 18.68c-0 0.407-0.242 0.757-0.589 0.915l-0.006 0.003-3.424 1.528v-11.544h3.015c0.554 0 1.005 0.451 1.005 1.005v8.093zM13.064 23.651c-0.555 0-1.005-0.45-1.005-1.005v-14.069c0-0.555 0.45-1.005 1.005-1.005s1.005 0.45 1.005 1.005v14.069c0 0.555-0.45 1.005-1.005 1.005zM7.034 23.651c-0.555 0-1.005-0.45-1.005-1.005v-14.069c0-0.555 0.45-1.005 1.005-1.005s1.005 0.45 1.005 1.005v14.069c0 0.555-0.45 1.005-1.005 1.005z"></path>
</svg>
