<!-- Generated by IcoMoon.io -->
<svg version="1.1" xmlns="http://www.w3.org/2000/svg" width="36" height="32" viewBox="0 0 36 32">
<title>behance</title>
<path d="M14.571 14.431c1.997-0.955 3.040-2.399 3.040-4.648 0-4.434-3.304-5.514-7.116-5.514h-10.495v22.259h10.79c4.045 0 7.844-1.941 7.844-6.463 0-2.795-1.325-4.861-4.064-5.634zM4.893 8.068h4.591c1.765 0 3.354 0.496 3.354 2.544 0 1.89-1.237 2.65-2.983 2.65h-4.962v-5.194zM10.124 22.746h-5.232v-6.13h5.332c2.154 0 3.517 0.898 3.517 3.178 0 2.248-1.627 2.952-3.618 2.952zM32.64 7.629h-9.025v-2.192h9.025v2.192zM36.176 18.701c0-4.767-2.789-8.743-7.844-8.743-4.911 0-8.246 3.693-8.246 8.529 0 5.018 3.159 8.46 8.246 8.46 3.85 0 6.343-1.733 7.543-5.42h-3.907c-0.421 1.375-2.154 2.104-3.498 2.104-2.594 0-3.957-1.52-3.957-4.101h11.625c0.019-0.264 0.038-0.546 0.038-0.829zM24.519 16.742c0.145-2.117 1.551-3.442 3.674-3.442 2.223 0 3.341 1.306 3.53 3.442h-7.204z"></path>
</svg>
