<!-- Generated by IcoMoon.io -->
<svg version="1.1" xmlns="http://www.w3.org/2000/svg" width="28" height="32" viewBox="0 0 28 32">
<title>bell</title>
<path d="M27.596 22.287c-1.213-1.304-3.484-3.265-3.484-9.69 0-4.88-3.422-8.787-8.035-9.745v-1.309c0-1.11-0.899-2.010-2.009-2.010s-2.009 0.9-2.009 2.010v1.309c-4.614 0.958-8.035 4.865-8.035 9.745 0 6.425-2.27 8.387-3.484 9.69-0.377 0.405-0.544 0.889-0.541 1.364 0.007 1.030 0.815 2.010 2.016 2.010h24.105c1.201 0 2.010-0.98 2.016-2.010 0.003-0.474-0.164-0.959-0.541-1.364zM4.241 22.646c1.333-1.757 2.79-4.668 2.797-10.013 0-0.012-0.004-0.024-0.004-0.036 0-3.885 3.149-7.034 7.034-7.034s7.034 3.149 7.034 7.034c0 0.012-0.004 0.024-0.004 0.036 0.007 5.345 1.464 8.257 2.797 10.013h-19.655zM14.069 31.69c2.218 0 4.018-1.799 4.018-4.020h-8.035c0 2.22 1.799 4.020 4.018 4.020z"></path>
</svg>
