<!-- Generated by IcoMoon.io -->
<svg version="1.1" xmlns="http://www.w3.org/2000/svg" width="40" height="32" viewBox="0 0 40 32">
<title>bell-slash1</title>
<path d="M39.808 28.304l-5.691-4.4c0.012-0.087 0.050-0.167 0.050-0.255 0.003-0.474-0.164-0.959-0.541-1.364-1.213-1.304-3.484-3.265-3.484-9.69 0-4.88-3.422-8.787-8.035-9.745v-1.308c0-1.11-0.899-2.010-2.009-2.010s-2.009 0.9-2.009 2.010v1.309c-2.533 0.526-4.689 1.951-6.129 3.93l-9.104-7.037c-0.438-0.34-1.070-0.262-1.411 0.176l-1.234 1.587c-0.34 0.438-0.262 1.069 0.176 1.41l36.952 28.56c0.438 0.341 1.070 0.262 1.411-0.177l1.233-1.587c0.34-0.438 0.262-1.069-0.176-1.41zM9.875 15.331c-0.541 4.268-2.287 5.862-3.305 6.956-0.377 0.405-0.544 0.889-0.541 1.364 0.007 1.030 0.815 2.010 2.016 2.010h15.194l-13.364-10.329zM20.098 31.69c2.218 0 4.018-1.799 4.018-4.020h-8.035c0 2.22 1.799 4.020 4.018 4.020z"></path>
</svg>
