<!-- Generated by IcoMoon.io -->
<svg version="1.1" xmlns="http://www.w3.org/2000/svg" width="40" height="32" viewBox="0 0 40 32">
<title>bezier-curve</title>
<path d="M23.113 1.543h-6.029c-1.11 0-2.010 0.9-2.010 2.010v6.029c0 1.11 0.9 2.010 2.010 2.010h6.029c1.11 0 2.010-0.9 2.010-2.010v-6.029c0-1.11-0.9-2.010-2.010-2.010zM13.064 5.060h-5.323c-0.597-1.472-2.036-2.512-3.721-2.512-2.22 0-4.020 1.799-4.020 4.020s1.8 4.020 4.020 4.020c1.686 0 3.125-1.040 3.721-2.512h5.008c-3.478 2.043-6.021 5.484-6.88 9.546h3.103c0.71-2.613 2.309-4.849 4.462-6.379-0.232-0.508-0.369-1.067-0.369-1.661v-4.522zM10.049 19.631h-6.029c-1.11 0-2.010 0.9-2.010 2.010v6.029c0 1.11 0.9 2.010 2.010 2.010h6.029c1.11 0 2.010-0.9 2.010-2.010v-6.029c0-1.11-0.9-2.010-2.010-2.010zM36.176 2.548c-1.686 0-3.125 1.040-3.721 2.512h-5.323v4.522c0 0.594-0.137 1.153-0.369 1.661 2.152 1.529 3.752 3.765 4.462 6.379h3.103c-0.859-4.062-3.402-7.504-6.88-9.546h5.008c0.597 1.472 2.036 2.512 3.721 2.512 2.22 0 4.020-1.799 4.020-4.020s-1.8-4.020-4.020-4.020zM36.176 19.631h-6.029c-1.11 0-2.010 0.9-2.010 2.010v6.029c0 1.11 0.9 2.010 2.010 2.010h6.029c1.11 0 2.010-0.9 2.010-2.010v-6.029c0-1.11-0.9-2.010-2.010-2.010z"></path>
</svg>
