<!-- Generated by IcoMoon.io -->
<svg version="1.1" xmlns="http://www.w3.org/2000/svg" width="28" height="32" viewBox="0 0 28 32">
<title>bible</title>
<path d="M28.137 22.043v-20.902c0-1.005-0.603-1.608-1.608-1.608h-20.5c-3.417 0-6.029 2.613-6.029 6.029v20.098c0 3.417 2.613 6.029 6.029 6.029h20.5c0.804 0 1.608-0.603 1.608-1.608v-1.005c0-0.402-0.201-0.804-0.603-1.206-0.201-1.005-0.201-3.819 0-4.622 0.402-0.201 0.603-0.603 0.603-1.206zM9.044 8.577c0-0.555 0.45-1.005 1.005-1.005h3.015v-3.015c0-0.555 0.45-1.005 1.005-1.005h2.010c0.555 0 1.005 0.45 1.005 1.005v3.015h3.015c0.555 0 1.005 0.45 1.005 1.005v2.010c0 0.555-0.45 1.005-1.005 1.005h-3.015v7.034c0 0.555-0.45 1.005-1.005 1.005h-2.010c-0.555 0-1.005-0.45-1.005-1.005v-7.034h-3.015c-0.555 0-1.005-0.45-1.005-1.005v-2.010zM23.917 27.67h-17.887c-1.206 0-2.010-0.804-2.010-2.010s1.005-2.010 2.010-2.010h17.887v4.020z"></path>
</svg>
