<!-- Generated by IcoMoon.io -->
<svg version="1.1" xmlns="http://www.w3.org/2000/svg" width="40" height="32" viewBox="0 0 40 32">
<title>bicycle</title>
<path d="M32.189 11.592c-1.028-0.004-2.012 0.186-2.916 0.534l-4.879-7.86c-0.27-0.43-0.743-0.712-1.281-0.712-0 0-0 0-0 0h-4.020c-0.555 0-1.005 0.45-1.005 1.005v1.005c0 0.555 0.45 1.005 1.005 1.005h3.181l0.936 1.507h-7.131v-1.005c0-0.555-0.45-1.005-1.005-1.005h-5.493c-0.844 0-1.556 0.691-1.541 1.535 0.014 0.819 0.683 1.48 1.507 1.48h3.060l-1.848 2.985c-0.844-0.303-1.753-0.47-2.7-0.472-4.411-0.011-8.033 3.581-8.059 7.991-0.026 4.462 3.583 8.087 8.039 8.087 3.746 0 6.893-2.562 7.786-6.029h3.268c0.539 0 1.011-0.283 1.278-0.708l0.004-0.006 5.399-8.721 0.938 1.512c-1.599 1.473-2.599 3.585-2.594 5.931 0.009 4.323 3.636 7.98 7.959 8.022 4.434 0.043 8.051-3.505 8.118-7.913 0.068-4.456-3.55-8.147-8.006-8.165zM11.729 16.225c0.611 0.661 1.047 1.486 1.234 2.401h-2.72l1.486-2.401zM8.039 24.655c-2.77 0-5.024-2.254-5.024-5.024s2.254-5.024 5.024-5.024c0.369 0 0.728 0.041 1.074 0.117l-2.858 4.617c-0.621 1.002 0.102 2.301 1.282 2.301h5.106c-0.777 1.773-2.548 3.015-4.604 3.015zM18.253 18.626h-2.237c-0.249-1.994-1.228-3.762-2.662-5.026l1.554-2.511h8.011l-4.666 7.537zM31.886 24.648c-2.577-0.136-4.651-2.242-4.75-4.821-0.051-1.326 0.417-2.545 1.214-3.471l2.791 4.496c0.293 0.472 0.912 0.616 1.384 0.324l0.854-0.53c0.472-0.293 0.617-0.912 0.324-1.384l-2.793-4.5c0.374-0.1 0.802-0.157 1.245-0.157 0.001 0 0.002 0 0.003 0h-0c2.77 0 5.024 2.254 5.024 5.024-0 2.86-2.402 5.17-5.295 5.017z"></path>
</svg>
