<!-- Generated by IcoMoon.io -->
<svg version="1.1" xmlns="http://www.w3.org/2000/svg" width="32" height="32" viewBox="0 0 32 32">
<title>bike-path</title>
<path d="M20 4.003c-0.736 0-1.333 0.597-1.333 1.333v0 0.247c0 0.153 0.026 0.3 0.073 0.436l-0.003-0.009 1.234 3.643-6.698 10.349h-0.083c-0.443-2.112-1.918-3.83-3.862-4.677l2.076-3.323h1.93c0.006 0 0.012 0 0.019 0 0.736 0 1.333-0.597 1.333-1.333s-0.597-1.333-1.333-1.333c-0.007 0-0.013 0-0.020 0h-5.332c-0.006-0-0.012-0-0.019-0-0.736 0-1.333 0.597-1.333 1.333s0.597 1.333 1.333 1.333c0.007 0 0.013-0 0.020-0h0.262l-1.669 2.669c-3.627 0.040-6.594 3.028-6.594 6.664 0 3.661 3.006 6.667 6.667 6.667 3.205 0 5.908-2.303 6.531-5.333h0.802c0 0 0 0 0 0 0.467 0 0.879-0.24 1.117-0.604l0.003-0.005 5.943-9.182 0.945 2.792c-1.98 1.14-3.341 3.228-3.341 5.667 0 3.661 3.006 6.667 6.667 6.667s6.667-3.006 6.667-6.667c0-3.492-2.76-6.311-6.19-6.57-0.141-0.058-0.304-0.093-0.475-0.096h-0.001c-0.047 0-0.093 0.003-0.139 0.008l0.006-0.001c-0.052 0.007-0.098 0.015-0.142 0.025l0.009-0.002c-0.083 0.018-0.154 0.040-0.222 0.068l0.009-0.003c-0.109 0.008-0.21 0.041-0.318 0.055l-2.76-8.151h4.891c0.006 0 0.012 0 0.019 0 0.736 0 1.333-0.597 1.333-1.333s-0.597-1.333-1.333-1.333c-0.007 0-0.013 0-0.020 0h-6.666zM6.667 17.336c1.736 0 3.203 1.118 3.755 2.667h-2.422c-0.006-0-0.012-0-0.019-0-0.736 0-1.333 0.597-1.333 1.333s0.597 1.333 1.333 1.333c0.007 0 0.013-0 0.020-0h2.421c-0.552 1.549-2.019 2.667-3.755 2.667-2.206 0-4-1.794-4-4s1.794-4 4-4zM25.388 17.342c2.18 0.030 3.945 1.807 3.945 3.995 0 2.206-1.794 4-4 4s-4-1.794-4-4c0-1.271 0.607-2.392 1.534-3.125l1.203 3.552c0.177 0.543 0.679 0.928 1.27 0.928 0.736 0 1.333-0.597 1.333-1.333 0-0.161-0.028-0.315-0.081-0.458l0.003 0.009-1.208-3.568z"></path>
</svg>
