<!-- Generated by IcoMoon.io -->
<svg version="1.1" xmlns="http://www.w3.org/2000/svg" width="28" height="32" viewBox="0 0 28 32">
<title>bimobject</title>
<path d="M26.127 1.543h-24.118c-1.105 0-2.010 0.904-2.010 2.010v24.118c0 1.105 0.904 2.010 2.010 2.010h24.118c1.105 0 2.010-0.904 2.010-2.010v-24.118c0-1.105-0.904-2.010-2.010-2.010zM22.108 17.709c0 3.103-0.716 5.188-6.519 5.188h-1.061c-2.77 0-3.919-0.936-4.422-2.437h-0.057v2.186h-4.020v-14.571h4.020v4.692h0.069c0.289-1.916 2.493-2.437 4.378-2.437h1.087c5.803 0 6.519 2.079 6.519 5.181v2.198zM18.088 15.894v1.438c0 1.363-0.214 2.123-2.412 2.123h-2.845c-1.815 0-2.77-0.408-2.77-2.242v-1.193c0-1.84 0.955-2.242 2.77-2.242h2.845c2.198-0.012 2.412 0.754 2.412 2.117z"></path>
</svg>
