<!-- Generated by IcoMoon.io -->
<svg version="1.1" xmlns="http://www.w3.org/2000/svg" width="32" height="32" viewBox="0 0 32 32">
<title>bin-file-format</title>
<path d="M12.161 24.417c0-0.545-0.417-0.833-1.153-0.833-0.352 0-0.555 0.021-0.694 0.043v1.677h0.534c0.854 0 1.313-0.352 1.313-0.886zM10.869 26.468h-0.556v2.029c0.16 0.021 0.353 0.021 0.63 0.021 0.737 0 1.388-0.278 1.388-1.036 0-0.726-0.651-1.015-1.463-1.015zM27.737 7.239c-0.002-0.147-0.049-0.293-0.15-0.408l-6.2-7.082c-0.001-0.002-0.003-0.002-0.005-0.004-0.037-0.041-0.079-0.075-0.125-0.105-0.013-0.009-0.027-0.017-0.041-0.025-0.040-0.021-0.081-0.039-0.124-0.052-0.012-0.004-0.022-0.008-0.034-0.011-0.047-0.011-0.095-0.018-0.145-0.018h-15.238c-0.695 0-1.261 0.566-1.261 1.261v29.635c0 0.695 0.566 1.261 1.261 1.261h20.807c0.696 0 1.261-0.566 1.261-1.261v-23.119c0-0.024-0.004-0.047-0.006-0.071zM13.293 29.073c-0.523 0.417-1.399 0.651-2.83 0.651-0.801 0-1.399-0.054-1.762-0.106v-7.070c0.427-0.085 1.292-0.15 2.104-0.15 0.993 0 1.602 0.096 2.125 0.406 0.502 0.267 0.865 0.759 0.865 1.41 0 0.641-0.374 1.239-1.185 1.538v0.021c0.822 0.224 1.431 0.844 1.431 1.773 0 0.652-0.299 1.164-0.747 1.527zM16.786 29.65h-1.634v-7.198h1.634v7.198zM24.155 29.65h-1.709l-1.538-2.777c-0.427-0.768-0.897-1.698-1.249-2.541l-0.032 0.010c0.042 0.951 0.064 1.965 0.064 3.14v2.168h-1.495v-7.197h1.901l1.495 2.638c0.427 0.758 0.854 1.655 1.175 2.467h0.032c-0.106-0.95-0.139-1.922-0.139-3.001v-2.104h1.495v7.198zM5.675 20.945v-20.151h14.607v6.452c0 0.348 0.282 0.631 0.631 0.631h5.569l0.001 13.068h-20.808zM11.398 11.141c0-1.387 1.125-2.512 2.513-2.512 0.788 0 1.491 0.363 1.951 0.93h4.23c-0.705-2.76-3.2-4.803-6.181-4.803-3.527 0-6.386 2.858-6.386 6.385s2.859 6.387 6.386 6.387c0.069 0 0.136-0.008 0.205-0.011v-3.873c-0.068 0.006-0.136 0.010-0.205 0.010-1.387 0-2.513-1.125-2.513-2.513zM15.834 5.536l-1.387 2.831c-0.27-0.104-0.535-0.049-0.535-0.049l-0.803-2.974c0 0 1.064-0.477 2.725 0.191zM11.908 11.142c0-1.104 0.899-2.004 2.003-2.004 0.461 0 0.885 0.158 1.224 0.421h0.281c-0.393-0.374-0.922-0.605-1.505-0.605-1.205 0-2.186 0.981-2.186 2.187s0.981 2.186 2.186 2.186c0.069 0 0.137-0.004 0.205-0.010v-0.183c-0.067 0.007-0.135 0.010-0.205 0.010-1.104-0-2.003-0.899-2.003-2.004zM12.885 11.141c0 0.567 0.46 1.026 1.026 1.026 0.070 0 0.138-0.007 0.205-0.020v-0.191c-0.066 0.017-0.134 0.028-0.205 0.028-0.465 0-0.843-0.378-0.843-0.843s0.378-0.843 0.843-0.843c0.071 0 0.139 0.011 0.205 0.028v-0.191c-0.066-0.013-0.134-0.021-0.205-0.021-0.566-0.001-1.026 0.46-1.026 1.026zM14.655 10.036v7.972h8.421v-7.972h-8.421zM22.305 16.079h-0.309c-0.293-0.743-0.652-1.521-1.155-1.393-0.471 0.12-0.784 0.888-0.943 1.393h-0.231c-0.172-0.616-0.56-1.73-1.255-2.426-0.788-0.788-1.556 1.439-1.849 2.426h-1.137v-5.271h6.878v5.271zM16.439 11.518c0.343 0 0.621 0.278 0.621 0.621s-0.278 0.621-0.621 0.621c-0.343 0-0.621-0.278-0.621-0.621s0.278-0.621 0.621-0.621zM20.205 13.159c0.126 0 0.243-0.013 0.347-0.034 0.122 0.052 0.269 0.083 0.43 0.083 0.41 0 0.743-0.2 0.743-0.448s-0.333-0.449-0.743-0.449c-0.155 0-0.297 0.029-0.416 0.077-0.048-0.047-0.114-0.077-0.187-0.077h-0.108c-0.138 0-0.247 0.105-0.263 0.239-0.333 0.034-0.58 0.154-0.58 0.298 0 0.171 0.348 0.311 0.776 0.311z"></path>
</svg>
