<!-- Generated by IcoMoon.io -->
<svg version="1.1" xmlns="http://www.w3.org/2000/svg" width="32" height="32" viewBox="0 0 32 32">
<title>binoculars</title>
<path d="M26.127 2.548c0-0.555-0.45-1.005-1.005-1.005h-4.020c-0.555 0-1.005 0.45-1.005 1.005v3.015h6.029v-3.015zM4.014 9.581c-0.158 5.894-3.797 7.174-4.014 15.325v2.763c0 1.11 0.9 2.010 2.010 2.010h6.029c1.11 0 2.010-0.9 2.010-2.010v-10.049h2.010v-10.049h-6.039c-1.107 0-1.975 0.902-2.005 2.009zM28.143 9.581c-0.030-1.107-0.898-2.009-2.005-2.009h-6.039v10.049h2.010v10.049c0 1.11 0.9 2.010 2.010 2.010h6.029c1.11 0 2.010-0.9 2.010-2.010v-2.763c-0.217-8.151-3.856-9.431-4.014-15.325zM11.054 1.543h-4.020c-0.555 0-1.005 0.45-1.005 1.005v3.015h6.029v-3.015c0-0.555-0.45-1.005-1.005-1.005zM14.069 17.621h4.020v-10.049h-4.020v10.049z"></path>
</svg>
