<!-- Generated by IcoMoon.io -->
<svg version="1.1" xmlns="http://www.w3.org/2000/svg" width="36" height="32" viewBox="0 0 36 32">
<title>biohazard</title>
<path d="M18.082 6.567c1.168 0 2.274 0.239 3.316 0.603 0.835-0.647 1.482-1.526 1.853-2.556-1.583-0.685-3.329-1.068-5.163-1.068-1.828 0-3.574 0.377-5.156 1.061 0.371 1.030 1.018 1.909 1.853 2.556 1.036-0.358 2.135-0.597 3.297-0.597zM10.275 27.086c0.754-0.741 1.281-1.658 1.539-2.663-2.066-1.658-3.442-4.101-3.699-6.884-0.534-0.176-1.080-0.289-1.658-0.289-0.477 0-0.955 0.063-1.413 0.195 0.258 3.944 2.248 7.411 5.232 9.641zM24.356 24.41c0.258 1.005 0.785 1.928 1.539 2.669 2.977-2.23 4.968-5.697 5.213-9.641-0.452-0.126-0.923-0.188-1.394-0.188-0.578 0-1.13 0.119-1.671 0.295-0.258 2.776-1.633 5.207-3.687 6.865zM31.485 11.535c-1.105-0.653-2.28-1.043-3.473-1.25 0.377-1.112 0.628-2.286 0.628-3.53 0-2.575-0.911-5.075-2.575-7.047-0.157-0.188-0.415-0.232-0.628-0.113-0.207 0.119-0.301 0.377-0.226 0.609 0.283 0.867 0.415 1.652 0.415 2.418 0 4.258-3.379 7.719-7.537 7.719s-7.537-3.461-7.537-7.719c0-0.76 0.138-1.551 0.415-2.418 0.075-0.232-0.019-0.49-0.226-0.609-0.214-0.119-0.471-0.075-0.628 0.113-1.658 1.972-2.575 4.472-2.575 7.047 0 1.244 0.245 2.418 0.628 3.53-1.187 0.207-2.368 0.597-3.473 1.25-2.173 1.287-3.831 3.348-4.667 5.803-0.082 0.232 0.012 0.484 0.22 0.615 0.207 0.126 0.471 0.082 0.628-0.1 0.59-0.678 1.193-1.2 1.834-1.576 3.599-2.129 8.215-0.86 10.294 2.826s0.842 8.416-2.757 10.545c-0.641 0.383-1.382 0.653-2.248 0.842-0.232 0.050-0.402 0.264-0.402 0.509 0.006 0.251 0.17 0.458 0.408 0.503 2.493 0.49 5.062 0.050 7.235-1.237 1.13-0.666 2.066-1.539 2.845-2.519 0.779 0.98 1.715 1.853 2.845 2.519 2.173 1.288 4.742 1.727 7.235 1.237 0.239-0.044 0.402-0.251 0.408-0.503 0-0.245-0.163-0.458-0.402-0.509-0.873-0.182-1.608-0.458-2.248-0.842-3.599-2.129-4.836-6.858-2.757-10.545s6.695-4.955 10.294-2.826c0.641 0.383 1.244 0.898 1.834 1.576 0.157 0.182 0.421 0.226 0.628 0.1s0.301-0.383 0.22-0.615c-0.823-2.456-2.481-4.522-4.654-5.803zM18.082 19.637c-1.664 0-3.015-1.35-3.015-3.015s1.35-3.015 3.015-3.015 3.015 1.35 3.015 3.015-1.35 3.015-3.015 3.015z"></path>
</svg>
