<!-- Generated by IcoMoon.io -->
<svg version="1.1" xmlns="http://www.w3.org/2000/svg" width="28" height="32" viewBox="0 0 28 32">
<title>birthday-cake</title>
<path d="M28.137 23.651c-1.76 0-1.963-2.010-4.679-2.010-2.728 0-2.941 2.010-4.695 2.010-1.739 0-1.976-2.010-4.695-2.010-2.691 0-2.966 2.010-4.679 2.010-1.768 0-1.96-2.010-4.695-2.010s-2.93 2.010-4.695 2.010v-5.024c0-1.664 1.35-3.015 3.015-3.015h1.005v-9.044h4.020v9.044h4.020v-9.044h4.020v9.044h4.020v-9.044h4.020v9.044h1.005c1.664 0 3.015 1.35 3.015 3.015v5.024zM28.137 31.69h-28.137v-6.029c2.723 0 2.937-2.010 4.695-2.010 1.756 0 1.963 2.010 4.695 2.010 2.691 0 2.966-2.010 4.679-2.010 1.768 0 1.96 2.010 4.695 2.010 2.723 0 2.937-2.010 4.695-2.010 1.726 0 1.963 2.010 4.679 2.010v6.029zM6.029 5.562c-1.115 0-2.010-0.895-2.010-2.010 0-1.947 2.010-1.445 2.010-4.020 0.754 0 2.010 1.853 2.010 3.517s-0.895 2.512-2.010 2.512zM14.069 5.562c-1.115 0-2.010-0.895-2.010-2.010 0-1.947 2.010-1.445 2.010-4.020 0.754 0 2.010 1.853 2.010 3.517s-0.895 2.512-2.010 2.512zM22.108 5.562c-1.115 0-2.010-0.895-2.010-2.010 0-1.947 2.010-1.445 2.010-4.020 0.754 0 2.010 1.853 2.010 3.517s-0.895 2.512-2.010 2.512z"></path>
</svg>
