<!-- Generated by IcoMoon.io -->
<svg version="1.1" xmlns="http://www.w3.org/2000/svg" width="32" height="32" viewBox="0 0 32 32">
<title>bitcoin</title>
<path d="M31.654 15.611c0 8.602-6.974 15.576-15.576 15.576s-15.576-6.974-15.576-15.576 6.974-15.576 15.576-15.576 15.576 6.974 15.576 15.576zM22.758 13.392c0.31-2.073-1.268-3.187-3.426-3.93l0.7-2.808-1.709-0.426-0.681 2.734c-0.449-0.112-0.911-0.218-1.369-0.322l0.686-2.752-1.708-0.426-0.7 2.807c-0.372-0.085-0.737-0.168-1.091-0.257l0.002-0.009-2.357-0.588-0.455 1.825s1.268 0.291 1.241 0.309c0.692 0.173 0.817 0.631 0.796 0.994l-0.797 3.198c0.048 0.012 0.109 0.030 0.178 0.057-0.057-0.014-0.118-0.030-0.181-0.045l-1.118 4.48c-0.085 0.21-0.299 0.526-0.783 0.406 0.017 0.025-1.242-0.31-1.242-0.31l-0.848 1.956 2.224 0.554c0.414 0.104 0.819 0.212 1.218 0.314l-0.707 2.84 1.707 0.426 0.7-2.81c-0.004 0.018 0.452 0.139 0.911 0.256l0.451 0.097-0.698 2.796 1.709 0.426 0.707-2.834c2.914 0.551 5.106 0.329 6.029-2.307 0.743-2.122-0.037-3.346-1.57-4.145 1.117-0.257 1.958-0.992 2.182-2.509zM18.853 18.868c-0.528 2.122-4.102 0.975-5.26 0.687l0.939-3.762c1.159 0.289 4.874 0.862 4.322 3.075zM19.381 13.362c-0.482 1.93-3.456 0.95-4.421 0.709l0.851-3.412c0.965 0.24 4.072 0.689 3.57 2.703z"></path>
</svg>
