<!-- Generated by IcoMoon.io -->
<svg version="1.1" xmlns="http://www.w3.org/2000/svg" width="31" height="32" viewBox="0 0 31 32">
<title>bity</title>
<path d="M4.924 3.754c5.992-5.602 15.457-5.728 21.549 0.239 0.898 0.886-0.402 2.33-1.407 1.35-5.326-5.175-13.554-5.043-18.773-0.201-1.024 0.948-2.292-0.521-1.369-1.388zM11.136 30.044c1.212 0.358 1.84-1.482 0.496-1.884-7.047-2.129-11.041-9.402-9.264-16.392 0.314-1.231-1.564-1.765-1.897-0.446-2.016 8.002 2.581 16.317 10.664 18.723zM20.437 29.919c7.656-2.525 12.115-10.482 10.325-18.277-0.283-1.237-2.192-0.867-1.884 0.496 1.52 6.764-2.33 13.685-8.994 15.915-1.331 0.44-0.653 2.261 0.553 1.865zM16.487 24.957l0.012-4.509c0-0.515-0.415-0.93-0.93-0.93s-0.93 0.421-0.93 0.93l-0.012 4.509c0 0.515 0.415 0.93 0.93 0.93s0.93-0.415 0.93-0.93zM20.946 8.062c0.132 5.709 0.295 8.284-5.37 8.322-5.81-0.044-5.458-2.782-5.37-8.322 0-1.369-2.041-1.231-2.041 0v4.497c0 4.352 3.812 5.709 7.411 5.659 3.599 0.050 7.411-1.306 7.411-5.659v-4.497c0-1.231-2.041-1.369-2.041 0z"></path>
</svg>
