<!-- Generated by IcoMoon.io -->
<svg version="1.1" xmlns="http://www.w3.org/2000/svg" width="32" height="32" viewBox="0 0 32 32">
<title>blackberry</title>
<path d="M10.426 6.875c0 1.47-1.030 3.084-4.553 3.084h-4.403l1.319-5.577h4.258c2.644 0 3.379 1.463 3.379 2.493zM18.352 4.382h-4.258l-1.175 5.577h4.403c3.379 0 4.403-1.614 4.403-3.084 0.006-1.030-0.729-2.493-3.373-2.493zM5.577 12.603h-4.258l-1.319 5.577h4.403c3.523 0 4.553-1.47 4.553-3.084 0-1.024-0.735-2.493-3.379-2.493zM16.889 12.603h-4.258l-1.175 5.577h4.403c3.379 0 4.403-1.47 4.403-3.084 0-1.024-0.735-2.493-3.373-2.493zM28.778 9.224h-4.258l-1.175 5.577h4.403c3.379 0 4.403-1.47 4.403-3.084 0.006-1.024-0.729-2.493-3.373-2.493zM27.019 17.885h-4.258l-1.175 5.577h4.403c3.523 0 4.403-1.47 4.403-3.084 0-1.024-0.729-2.493-3.373-2.493zM15.124 21.264h-4.258l-1.175 5.577h4.403c3.523 0 4.403-1.614 4.403-3.084 0.006-1.024-0.729-2.493-3.373-2.493z"></path>
</svg>
