<!-- Generated by IcoMoon.io -->
<svg version="1.1" xmlns="http://www.w3.org/2000/svg" width="32" height="32" viewBox="0 0 32 32">
<title>blender</title>
<path d="M26.127 23.651h-16.078c-2.22 0-4.020 1.799-4.020 4.020v2.010c0 1.11 0.9 2.010 2.010 2.010h20.098c1.11 0 2.010-0.9 2.010-2.010v-2.010c0-2.22-1.799-4.020-4.020-4.020zM18.088 29.68c-1.11 0-2.010-0.9-2.010-2.010s0.9-2.010 2.010-2.010 2.010 0.9 2.010 2.010-0.9 2.010-2.010 2.010zM20.6 3.553h10.46l1.097-4.020h-29.142c-1.665 0-3.015 1.35-3.015 3.015v10.049c0 1.665 1.35 3.015 3.015 3.015h6.486l0.548 6.029h16.078l1.097-4.020h-6.624c-0.278 0-0.503-0.225-0.503-0.503v-1.005c0-0.278 0.225-0.502 0.503-0.502h7.171l1.097-4.020h-8.268c-0.278 0-0.503-0.225-0.503-0.502v-1.005c0-0.278 0.225-0.502 0.503-0.502h8.815l1.097-4.020h-9.912c-0.278 0-0.503-0.225-0.503-0.503v-1.005c0-0.278 0.225-0.502 0.503-0.502zM4.020 11.592v-8.039h4.385l0.731 8.039h-5.116z"></path>
</svg>
