<!-- Generated by IcoMoon.io -->
<svg version="1.1" xmlns="http://www.w3.org/2000/svg" width="36" height="32" viewBox="0 0 36 32">
<title>blender-phone</title>
<path d="M24.62 3.553h10.46l1.097-4.020h-24.118v22.108h18.088l1.097-4.020h-6.624c-0.278 0-0.503-0.225-0.503-0.503v-1.005c0-0.278 0.225-0.502 0.503-0.502h7.171l1.097-4.020h-8.268c-0.278 0-0.503-0.225-0.503-0.502v-1.005c0-0.278 0.225-0.502 0.503-0.502h8.815l1.097-4.020h-9.912c-0.278 0-0.503-0.225-0.503-0.503v-1.005c0-0.278 0.225-0.502 0.503-0.502zM9.974 20.574l-1.619-3.973c-0.175-0.428-0.615-0.69-1.083-0.644l-2.828 0.278c-1.085-2.948-1.109-6.267 0-9.278l2.828 0.278c0.467 0.046 0.908-0.217 1.083-0.644l1.619-3.973c0.19-0.464 0.012-0.995-0.42-1.26l-2.467-1.514c-0.9-0.552-2.057-0.34-2.757 0.443-5.814 6.507-5.778 16.301 0.132 22.767 0.62 0.678 1.829 0.784 2.616 0.301l2.475-1.519c0.433-0.265 0.609-0.796 0.42-1.26zM30.147 23.651h-18.088c-2.22 0-4.020 1.799-4.020 4.020v2.010c0 1.11 0.9 2.010 2.010 2.010h22.108c1.11 0 2.010-0.9 2.010-2.010v-2.010c0-2.22-1.799-4.020-4.020-4.020zM21.103 29.68c-1.11 0-2.010-0.9-2.010-2.010s0.9-2.010 2.010-2.010 2.010 0.9 2.010 2.010-0.9 2.010-2.010 2.010z"></path>
</svg>
