<!-- Generated by IcoMoon.io -->
<svg version="1.1" xmlns="http://www.w3.org/2000/svg" width="24" height="32" viewBox="0 0 24 32">
<title>blind</title>
<path d="M23.876 31.617c-0.074 0.046-0.164 0.073-0.261 0.073-0.181 0-0.34-0.096-0.428-0.239l-0.001-0.002-7.872-12.965c0.326-0.132 0.6-0.335 0.811-0.592l0.003-0.003 7.917 13.039c0.046 0.074 0.073 0.164 0.073 0.261 0 0.181-0.096 0.34-0.239 0.428l-0.002 0.001zM8.969 19.275l-2.044 5.62 2.269 5.545c0.42 1.027 1.594 1.519 2.621 1.099s1.519-1.594 1.099-2.621l-3.945-9.643zM6.029 5.060c1.526 0 2.763-1.237 2.763-2.763s-1.237-2.763-2.763-2.763-2.763 1.237-2.763 2.763 1.237 2.763 2.763 2.763zM15.754 15.682l-7.537-9.546c-0.297-0.377-0.738-0.572-1.183-0.572v-0.001l-2.010 0.002c-0.449 0-0.893 0.199-1.19 0.58l-3.835 4.93v6.010c0 0.845 0.692 1.557 1.536 1.541 0.819-0.015 1.478-0.684 1.478-1.507v-5.010l1.005-1.292v8.837l-3.396 9.339c-0.379 1.043 0.159 2.196 1.202 2.576s2.196-0.159 2.576-1.202l4.141-11.386v-6.733l-1.973-2.501c-0.034-0.042-0.054-0.097-0.054-0.156 0-0.139 0.113-0.251 0.251-0.251 0.079 0 0.151 0.037 0.196 0.095l0 0.001 6.425 8.116c0.574 0.728 1.53 0.712 2.117 0.249 0.654-0.516 0.764-1.466 0.249-2.117z"></path>
</svg>
