<!-- Generated by IcoMoon.io -->
<svg version="1.1" xmlns="http://www.w3.org/2000/svg" width="28" height="32" viewBox="0 0 28 32">
<title>blogger</title>
<path d="M10.2 11.843c0.301-0.308 0.389-0.32 2.286-0.32 1.708 0 1.765 0.006 2.016 0.132 0.364 0.182 0.521 0.44 0.521 0.854 0 0.371-0.151 0.628-0.477 0.842-0.176 0.113-0.283 0.119-1.953 0.132-1.030 0.006-1.853-0.012-1.978-0.050-0.647-0.182-0.886-1.112-0.415-1.589zM14.056 17.778c-3.385 0-3.505 0.012-3.781 0.258-0.22 0.195-0.358 0.59-0.32 0.873 0.044 0.295 0.301 0.634 0.578 0.754 0.138 0.063 0.886 0.107 3.536 0.075l3.008-0.038 0.578-0.094c0.565-0.32 0.66-1.093 0.195-1.532-0.333-0.295-0.314-0.295-3.793-0.295zM28.087 25.949c-0.22 1.784-1.445 3.165-3.209 3.611-0.452 0.113-0.609 0.119-10.859 0.113-9.911 0-10.42-0.006-10.803-0.113-0.527-0.138-0.98-0.345-1.401-0.628-0.352-0.239-0.873-0.741-1.068-1.030-0.239-0.352-0.515-0.961-0.628-1.382s-0.119-0.59-0.119-10.891c0-10.244 0-10.463 0.113-10.909 0.396-1.551 1.627-2.738 3.216-3.090 0.458-0.1 20.858-0.119 21.354-0.019 1.331 0.27 2.38 1.074 2.99 2.286 0.484 0.961 0.44-0.094 0.458 11.343 0.012 7.273 0 10.332-0.044 10.708zM22.723 14.318c-0.069-0.314-0.264-0.603-0.484-0.722-0.069-0.038-0.503-0.082-0.973-0.107-0.779-0.038-0.867-0.050-1.118-0.195-0.389-0.226-0.496-0.477-0.503-1.149 0-1.281-0.534-2.475-1.589-3.549-0.754-0.766-1.589-1.287-2.55-1.576-0.226-0.069-0.741-0.094-2.462-0.113-2.694-0.031-3.297 0.025-4.214 0.389-1.696 0.672-2.908 2.098-3.354 3.919-0.082 0.339-0.1 0.892-0.119 4.038-0.025 3.944 0 4.528 0.251 5.307 0.609 1.928 2.33 3.354 4.057 3.668 0.578 0.107 7.675 0.132 8.397 0.031 1.262-0.17 2.255-0.678 3.184-1.627 0.672-0.685 1.093-1.432 1.369-2.418 0.201-0.685 0.182-5.552 0.107-5.898z"></path>
</svg>
