<!-- Generated by IcoMoon.io -->
<svg version="1.1" xmlns="http://www.w3.org/2000/svg" width="28" height="32" viewBox="0 0 28 32">
<title>blogger-b</title>
<path d="M28.049 13.52c-0.113-0.502-0.427-0.967-0.785-1.162-0.113-0.063-0.816-0.138-1.57-0.17-1.262-0.057-1.401-0.082-1.802-0.314-0.634-0.371-0.804-0.773-0.81-1.853-0.006-2.073-0.867-4.001-2.569-5.734-1.212-1.237-2.569-2.073-4.114-2.544-0.371-0.113-1.2-0.151-3.976-0.182-4.359-0.050-5.326 0.038-6.808 0.628-2.732 1.080-4.692 3.379-5.408 6.318-0.132 0.553-0.163 1.438-0.195 6.526-0.038 6.375 0.006 7.311 0.402 8.573 0.98 3.115 3.762 5.42 6.557 5.923 0.93 0.17 12.392 0.207 13.566 0.050 2.041-0.276 3.643-1.099 5.144-2.632 1.087-1.112 1.765-2.311 2.211-3.9 0.308-1.105 0.283-8.969 0.157-9.528zM7.819 9.525c0.49-0.496 0.628-0.515 3.693-0.515 2.757 0 2.851 0.006 3.253 0.214 0.584 0.295 0.842 0.71 0.842 1.375 0 0.597-0.239 1.018-0.772 1.357-0.289 0.182-0.458 0.195-3.159 0.207-1.664 0.012-2.996-0.025-3.191-0.075-1.043-0.295-1.432-1.79-0.666-2.563zM19.866 22.074l-0.936 0.151-4.867 0.057c-4.277 0.050-5.483-0.025-5.709-0.126-0.446-0.195-0.867-0.735-0.936-1.218-0.069-0.458 0.163-1.087 0.515-1.407 0.446-0.402 0.641-0.415 6.111-0.421 5.627-0.006 5.596-0.006 6.13 0.49 0.76 0.71 0.597 1.96-0.308 2.475z"></path>
</svg>
