<!-- Generated by IcoMoon.io -->
<svg version="1.1" xmlns="http://www.w3.org/2000/svg" width="32" height="32" viewBox="0 0 32 32">
<title>blog</title>
<path d="M10.815 13.777c-0.917-0.182-1.771 0.559-1.771 1.495v3.165c0 0.641 0.446 1.156 1.049 1.382 1.143 0.427 1.966 1.532 1.966 2.826 0 1.664-1.35 3.015-3.015 3.015s-3.015-1.35-3.015-3.015v-15.576c0-0.835-0.672-1.507-1.507-1.507h-3.015c-0.835 0-1.507 0.672-1.507 1.507v15.576c0 5.621 5.156 10.062 10.991 8.837 3.417-0.716 6.174-3.479 6.89-6.89 1.093-5.207-2.324-9.873-7.066-10.815zM13.126-0.467c-0.578-0.031-1.068 0.427-1.068 1.005v1.985c0 0.534 0.415 0.973 0.942 0.999 8.127 0.44 14.659 7.034 15.13 15.168 0.031 0.527 0.471 0.942 0.999 0.942h2.016c0.578 0 1.036-0.49 1.005-1.068-0.534-10.25-8.774-18.49-19.024-19.030zM13.145 5.562c-0.584-0.044-1.087 0.421-1.087 1.011v2.016c0 0.527 0.408 0.961 0.93 0.999 4.823 0.396 8.667 4.283 9.101 9.119 0.050 0.521 0.477 0.923 0.999 0.923h2.022c0.584 0 1.055-0.503 1.011-1.087-0.527-6.915-6.061-12.448-12.976-12.982z"></path>
</svg>
