<!-- Generated by IcoMoon.io -->
<svg version="1.1" xmlns="http://www.w3.org/2000/svg" width="28" height="32" viewBox="0 0 28 32">
<title>bluetooth</title>
<path d="M18.377 10.279l-2.694 2.694-0.019-5.401 2.713 2.707zM15.664 24.084l2.707-2.707-2.694-2.694-0.012 5.401zM26.127 15.825c0 12.913-4.516 15.865-11.625 15.865s-12.492-2.952-12.492-15.865 5.238-16.292 12.348-16.292 11.77 3.385 11.77 16.292zM16.173 15.825l4.987-5.565-7.857-8.435v11.11l-4.635-4.635-1.696 1.69 5.822 5.841-5.822 5.841 1.69 1.69 4.635-4.635 0.145 10.677 8.002-8.008-5.269-5.571z"></path>
</svg>
