<!-- Generated by IcoMoon.io -->
<svg version="1.1" xmlns="http://www.w3.org/2000/svg" width="32" height="32" viewBox="0 0 32 32">
<title>bmp-file-format-symbol</title>
<path d="M9.187 26.477h-0.508v1.857c0.146 0.019 0.322 0.019 0.576 0.019 0.674 0 1.27-0.254 1.27-0.948 0-0.665-0.595-0.929-1.338-0.929zM23.459 23.878c-0.303 0-0.508 0.030-0.615 0.059v1.944c0.127 0.029 0.283 0.039 0.498 0.039 0.792 0 1.28-0.4 1.28-1.074 0-0.606-0.42-0.968-1.163-0.968zM27.737 7.239c-0.002-0.148-0.049-0.293-0.15-0.408l-6.2-7.082c-0.001-0.002-0.003-0.003-0.005-0.004-0.037-0.041-0.079-0.075-0.125-0.105-0.013-0.009-0.027-0.017-0.041-0.025-0.040-0.021-0.081-0.039-0.124-0.052-0.012-0.003-0.022-0.008-0.034-0.011-0.047-0.011-0.095-0.018-0.145-0.018h-15.238c-0.695 0-1.261 0.566-1.261 1.261v29.635c0 0.696 0.566 1.261 1.261 1.261h20.807c0.696 0 1.261-0.566 1.261-1.261v-23.119c-0-0.024-0.004-0.047-0.006-0.071zM11.405 28.861c-0.479 0.381-1.28 0.596-2.589 0.596-0.732 0-1.28-0.049-1.612-0.098v-6.467c0.391-0.078 1.182-0.137 1.924-0.137 0.908 0 1.465 0.087 1.944 0.371 0.459 0.244 0.791 0.694 0.791 1.29 0 0.586-0.342 1.134-1.084 1.407v0.020c0.752 0.205 1.309 0.771 1.309 1.622 0 0.596-0.274 1.065-0.684 1.397zM18.77 29.389l-0.098-2.521c-0.030-0.791-0.059-1.749-0.059-2.706h-0.029c-0.205 0.84-0.479 1.778-0.733 2.55l-0.801 2.569h-1.162l-0.703-2.55c-0.215-0.771-0.44-1.709-0.596-2.569h-0.020c-0.039 0.889-0.069 1.905-0.117 2.726l-0.117 2.501h-1.377l0.42-6.585h1.983l0.645 2.199c0.205 0.762 0.411 1.583 0.557 2.355h0.029c0.186-0.762 0.41-1.632 0.625-2.364l0.703-2.188h1.944l0.361 6.585-1.455-0.001zM25.491 26.37c-0.508 0.479-1.26 0.694-2.14 0.694-0.195 0-0.371-0.010-0.508-0.030v2.355h-1.476v-6.497c0.459-0.078 1.104-0.137 2.013-0.137 0.918 0 1.573 0.176 2.013 0.528 0.42 0.332 0.703 0.879 0.703 1.524s-0.215 1.192-0.605 1.563zM5.675 20.945v-20.151h14.607v6.452c0 0.348 0.282 0.631 0.631 0.631h5.569l0.001 13.068h-20.808zM10.369 24.602c0-0.498-0.381-0.762-1.055-0.762-0.322 0-0.508 0.020-0.635 0.039v1.534h0.488c0.782 0 1.202-0.322 1.202-0.811zM18.751 9.533c-0.232 0-0.446 0.042-0.626 0.115-0.073-0.070-0.172-0.115-0.281-0.115h-0.163c-0.207 0-0.371 0.158-0.395 0.358-0.502 0.053-0.874 0.234-0.874 0.451 0 0.258 0.523 0.467 1.169 0.467 0.189 0 0.365-0.020 0.522-0.051 0.183 0.078 0.405 0.125 0.647 0.125 0.618 0 1.119-0.303 1.119-0.675s-0.5-0.675-1.119-0.675zM11.912 8.339c-0.518 0-0.937 0.419-0.937 0.935s0.419 0.935 0.937 0.935c0.516 0 0.935-0.418 0.935-0.935s-0.419-0.935-0.935-0.935zM9.602 5.597v12.193h12.19v-12.193h-12.19zM20.785 14.109c0 0.464-0.179 0.884-0.467 1.193-0.449-1.147-0.999-2.393-1.778-2.193-0.988 0.253-1.517 2.397-1.592 2.724h-0.020c-0.075-0.355-0.646-2.879-2.046-4.281-1.403-1.402-2.765 3.545-2.949 4.243-0.757-0.165-1.324-0.857-1.324-1.686v-5.544c0-0.951 0.748-1.723 1.672-1.723h6.831c0.924 0 1.673 0.772 1.673 1.723v5.544h0z"></path>
</svg>
