<!-- Generated by IcoMoon.io -->
<svg version="1.1" xmlns="http://www.w3.org/2000/svg" width="24" height="32" viewBox="0 0 24 32">
<title>bold</title>
<path d="M19.143 14.851c2.113-1.164 3.37-3.402 3.37-6.010 0-3.030-1.649-5.503-4.31-6.543-1.55-0.629-3.076-0.755-5.035-0.755h-11.661c-0.555 0-1.005 0.45-1.005 1.005v2.076c0 0.555 0.45 1.005 1.005 1.005h2.080v20.006h-2.080c-0.555 0-1.005 0.45-1.005 1.005v2.036c0 0.555 0.45 1.005 1.005 1.005h12.291c1.52 0 2.816-0.081 4.2-0.476 3.201-0.956 5.618-3.879 5.618-7.688 0-3.276-1.669-5.758-4.472-6.665zM8.932 5.864h4.236c1.023 0 1.729 0.127 2.357 0.422 0.994 0.533 1.564 1.665 1.564 3.106 0 2.2-1.276 3.567-3.331 3.567h-4.826v-7.094zM16.007 25.050c-0.637 0.255-1.424 0.308-1.973 0.308h-5.102v-8.118h5.299c2.49 0 3.96 1.594 3.96 3.96 0 1.785-0.858 3.296-2.184 3.849z"></path>
</svg>
