<!-- Generated by IcoMoon.io -->
<svg version="1.1" xmlns="http://www.w3.org/2000/svg" width="32" height="32" viewBox="0 0 32 32">
<title>bomb</title>
<path d="M27.666 5.091l-3.266 3.266 1.664 1.664c0.59 0.59 0.59 1.545 0 2.129l-1.093 1.093c0.741 1.639 1.156 3.461 1.156 5.376 0 7.216-5.847 13.064-13.064 13.064s-13.064-5.841-13.064-13.057 5.847-13.064 13.064-13.064c1.916 0 3.737 0.415 5.376 1.156l1.093-1.093c0.59-0.59 1.545-0.59 2.129 0l1.664 1.664 3.266-3.266 1.074 1.068zM31.403 3.301h-1.507c-0.415 0-0.754 0.339-0.754 0.754s0.339 0.754 0.754 0.754h1.507c0.415 0 0.754-0.339 0.754-0.754s-0.339-0.754-0.754-0.754zM27.635-0.467c-0.415 0-0.754 0.339-0.754 0.754v1.507c0 0.415 0.339 0.754 0.754 0.754s0.754-0.339 0.754-0.754v-1.507c0-0.415-0.339-0.754-0.754-0.754zM29.764 2.987l1.068-1.068c0.295-0.295 0.295-0.772 0-1.068s-0.773-0.295-1.068 0l-1.068 1.068c-0.295 0.295-0.295 0.773 0 1.068 0.301 0.295 0.779 0.295 1.068 0zM25.506 2.987c0.295 0.295 0.773 0.295 1.068 0s0.295-0.772 0-1.068l-1.068-1.068c-0.295-0.295-0.773-0.295-1.068 0s-0.295 0.772 0 1.068l1.068 1.068zM29.764 5.123c-0.295-0.295-0.773-0.295-1.068 0s-0.295 0.772 0 1.068l1.068 1.068c0.295 0.295 0.773 0.295 1.068 0s0.295-0.772 0-1.068l-1.068-1.068zM7.034 16.616c0-2.217 1.802-4.020 4.020-4.020 0.553 0 1.005-0.452 1.005-1.005s-0.452-1.005-1.005-1.005c-3.322 0-6.029 2.707-6.029 6.029 0 0.553 0.452 1.005 1.005 1.005s1.005-0.452 1.005-1.005z"></path>
</svg>
