<!-- Generated by IcoMoon.io -->
<svg version="1.1" xmlns="http://www.w3.org/2000/svg" width="28" height="32" viewBox="0 0 28 32">
<title>bong</title>
<path d="M18.999 31.69c1.456 0 2.79-0.79 3.517-2.051 1.017-1.764 1.602-3.805 1.602-5.988 0-2.269-0.633-4.384-1.723-6.194l2.728-2.728 0.589 0.589c0.392 0.393 1.029 0.393 1.421 0l0.71-0.711c0.392-0.393 0.392-1.029 0-1.421l-3.309-3.309c-0.392-0.393-1.029-0.393-1.421 0l-0.71 0.71c-0.392 0.393-0.392 1.029 0 1.421l0.589 0.589-2.475 2.475c-0.726-0.714-1.541-1.34-2.427-1.853v-9.682l1.003-0.001c0.554-0.001 1.003-0.45 1.004-1.004l0.003-1.992c0.001-0.556-0.45-1.007-1.006-1.006l-14.065 0.016c-0.554 0.001-1.003 0.45-1.004 1.004l-0.003 1.993c-0.001 0.556 0.45 1.006 1.006 1.005l1.003-0.001v9.668c-3.601 2.086-6.029 5.972-6.029 10.433 0 2.183 0.585 4.225 1.602 5.988 0.727 1.261 2.062 2.051 3.517 2.051h13.88zM7.54 15.827l1.504-0.871v-11.409l6.029-0.007v11.416l1.504 0.871c1.558 0.902 2.771 2.244 3.552 3.804h-16.141c0.782-1.56 1.994-2.902 3.552-3.804z"></path>
</svg>
