<!-- Generated by IcoMoon.io -->
<svg version="1.1" xmlns="http://www.w3.org/2000/svg" width="32" height="32" viewBox="0 0 32 32">
<title>book-reader</title>
<path d="M22.108 5.562c0-3.33-2.699-6.029-6.029-6.029s-6.029 2.699-6.029 6.029 2.699 6.029 6.029 6.029 6.029-2.699 6.029-6.029zM14.671 14.676c-3.726-2.281-9.762-2.908-12.799-3.081-1.021-0.058-1.872 0.72-1.872 1.701v13.993c0 0.9 0.728 1.651 1.664 1.699 2.742 0.144 8.29 0.671 12.124 2.602 0.588 0.296 1.286-0.107 1.286-0.745v-15.45c-0.001-0.293-0.146-0.562-0.403-0.72zM30.285 11.595c-3.037 0.172-9.073 0.8-12.799 3.081-0.258 0.158-0.403 0.437-0.403 0.73v15.437c0 0.64 0.7 1.045 1.29 0.747 3.834-1.929 9.378-2.456 12.12-2.6 0.936-0.049 1.664-0.8 1.664-1.7v-13.994c-0.001-0.982-0.852-1.759-1.872-1.701z"></path>
</svg>
