<!-- Generated by IcoMoon.io -->
<svg version="1.1" xmlns="http://www.w3.org/2000/svg" width="28" height="32" viewBox="0 0 28 32">
<title>book-dead</title>
<path d="M17.083 8.075c0.555 0 1.005-0.45 1.005-1.005s-0.45-1.005-1.005-1.005-1.005 0.45-1.005 1.005 0.45 1.005 1.005 1.005zM28.137 22.043v-20.902c0-1.005-0.603-1.608-1.608-1.608h-20.5c-3.417 0-6.029 2.613-6.029 6.029v20.098c0 3.417 2.613 6.029 6.029 6.029h20.5c0.804 0 1.608-0.603 1.608-1.608v-1.005c0-0.402-0.201-0.804-0.603-1.206-0.201-1.005-0.201-3.819 0-4.622 0.402-0.201 0.603-0.603 0.603-1.206zM15.073 3.050c2.775 0 5.024 1.799 5.024 4.020 0 1.311-0.796 2.464-2.010 3.197v0.822c0 0.555-0.45 1.005-1.005 1.005h-4.020c-0.555 0-1.005-0.45-1.005-1.005v-0.822c-1.213-0.734-2.010-1.887-2.010-3.197 0-2.22 2.25-4.020 5.024-4.020zM8.105 14.22c-0.181-0.079-0.304-0.256-0.304-0.462 0-0.071 0.015-0.139 0.042-0.201l-0.001 0.003 0.395-0.923c0.079-0.181 0.256-0.305 0.462-0.305 0.072 0 0.14 0.015 0.202 0.042l-0.003-0.001 6.177 2.647 6.177-2.647c0.255-0.109 0.551 0.009 0.66 0.264l0.395 0.923c0.026 0.058 0.041 0.126 0.041 0.198 0 0.206-0.124 0.383-0.301 0.46l-0.003 0.001-4.418 1.894 4.418 1.894c0.181 0.079 0.304 0.256 0.304 0.462 0 0.071-0.015 0.139-0.042 0.201l0.001-0.003-0.395 0.923c-0.079 0.181-0.256 0.305-0.462 0.305-0.071 0-0.139-0.015-0.201-0.042l0.003 0.001-6.176-2.648-6.177 2.647c-0.058 0.026-0.126 0.041-0.198 0.041-0.206 0-0.383-0.124-0.461-0.302l-0.001-0.003-0.395-0.923c-0.026-0.058-0.041-0.126-0.041-0.198 0-0.206 0.124-0.383 0.301-0.46l0.003-0.001 4.418-1.893-4.418-1.894zM23.917 27.67h-17.887c-1.206 0-2.010-0.804-2.010-2.010s1.005-2.010 2.010-2.010h17.887v4.020zM13.064 8.075c0.555 0 1.005-0.45 1.005-1.005s-0.45-1.005-1.005-1.005-1.005 0.45-1.005 1.005 0.45 1.005 1.005 1.005z"></path>
</svg>
