<!-- Generated by IcoMoon.io -->
<svg version="1.1" xmlns="http://www.w3.org/2000/svg" width="36" height="32" viewBox="0 0 36 32">
<title>book-open</title>
<path d="M34.055 1.546c-3.442 0.195-10.283 0.906-14.506 3.491-0.291 0.178-0.457 0.495-0.457 0.827v22.853c0 0.725 0.793 1.184 1.462 0.847 4.345-2.187 10.629-2.784 13.736-2.947 1.061-0.056 1.885-0.906 1.885-1.926v-21.218c0.001-1.112-0.964-1.993-2.121-1.928zM16.627 5.037c-4.222-2.585-11.063-3.295-14.505-3.491-1.157-0.065-2.122 0.816-2.122 1.928v21.219c0 1.020 0.825 1.87 1.885 1.926 3.108 0.163 9.395 0.761 13.74 2.949 0.667 0.336 1.458-0.122 1.458-0.845v-22.869c0-0.332-0.165-0.637-0.457-0.816z"></path>
</svg>
