<!-- Generated by IcoMoon.io -->
<svg version="1.1" xmlns="http://www.w3.org/2000/svg" width="28" height="32" viewBox="0 0 28 32">
<title>book</title>
<path d="M28.137 22.143v-21.103c0-0.835-0.672-1.507-1.507-1.507h-20.6c-3.329 0-6.029 2.701-6.029 6.029v20.098c0 3.329 2.701 6.029 6.029 6.029h20.6c0.835 0 1.507-0.672 1.507-1.507v-1.005c0-0.471-0.22-0.898-0.559-1.175-0.264-0.967-0.264-3.724 0-4.692 0.339-0.27 0.559-0.697 0.559-1.168zM8.039 7.949c0-0.207 0.17-0.377 0.377-0.377h13.315c0.207 0 0.377 0.17 0.377 0.377v1.256c0 0.207-0.17 0.377-0.377 0.377h-13.315c-0.207 0-0.377-0.17-0.377-0.377v-1.256zM8.039 11.969c0-0.207 0.17-0.377 0.377-0.377h13.315c0.207 0 0.377 0.17 0.377 0.377v1.256c0 0.207-0.17 0.377-0.377 0.377h-13.315c-0.207 0-0.377-0.17-0.377-0.377v-1.256zM23.954 27.67h-17.925c-1.112 0-2.010-0.898-2.010-2.010 0-1.105 0.904-2.010 2.010-2.010h17.925c-0.119 1.074-0.119 2.946 0 4.020z"></path>
</svg>
