<!-- Generated by IcoMoon.io -->
<svg version="1.1" xmlns="http://www.w3.org/2000/svg" width="31" height="32" viewBox="0 0 31 32">
<title>bowling-ball</title>
<path d="M15.576 0.035c-8.604 0-15.576 6.971-15.576 15.576s6.971 15.576 15.576 15.576 15.576-6.971 15.576-15.576-6.971-15.576-15.576-15.576zM7.537 11.592c-1.112 0-2.010-0.898-2.010-2.010s0.898-2.010 2.010-2.010 2.010 0.898 2.010 2.010-0.898 2.010-2.010 2.010zM11.556 5.562c0-1.112 0.898-2.010 2.010-2.010s2.010 0.898 2.010 2.010-0.898 2.010-2.010 2.010-2.010-0.898-2.010-2.010zM14.571 14.606c-1.112 0-2.010-0.898-2.010-2.010s0.898-2.010 2.010-2.010 2.010 0.898 2.010 2.010-0.898 2.010-2.010 2.010z"></path>
</svg>
