<!-- Generated by IcoMoon.io -->
<svg version="1.1" xmlns="http://www.w3.org/2000/svg" width="40" height="32" viewBox="0 0 40 32">
<title>box-open</title>
<path d="M3.341 2.108l-3.235 6.456c-0.289 0.578 0.019 1.269 0.634 1.445l12.429 3.549c0.446 0.126 0.923-0.063 1.162-0.458l5.766-9.546-15.714-2.003c-0.433-0.050-0.848 0.17-1.043 0.559zM40.089 8.565l-3.235-6.456c-0.195-0.389-0.615-0.615-1.049-0.559l-15.708 2.003 5.759 9.553c0.239 0.396 0.716 0.584 1.162 0.458l12.429-3.549c0.622-0.182 0.923-0.873 0.641-1.451zM26.737 15.611c-1.061 0-2.060-0.565-2.6-1.47l-4.038-6.695-4.032 6.695c-0.546 0.911-1.545 1.476-2.606 1.476-0.283 0-0.565-0.038-0.835-0.119l-8.604-2.462v11.179c0 0.923 0.628 1.727 1.52 1.947l13.579 3.398c0.641 0.157 1.313 0.157 1.947 0l13.591-3.398c0.892-0.226 1.52-1.030 1.52-1.947v-11.179l-8.604 2.456c-0.27 0.082-0.553 0.119-0.835 0.119z"></path>
</svg>
