<!-- Generated by IcoMoon.io -->
<svg version="1.1" xmlns="http://www.w3.org/2000/svg" width="36" height="32" viewBox="0 0 36 32">
<title>boxes</title>
<path d="M35.171 17.621h-5.024v6.029l-2.010-1.338-2.010 1.338v-6.029h-5.024c-0.553 0-1.005 0.452-1.005 1.005v12.059c0 0.553 0.452 1.005 1.005 1.005h14.069c0.553 0 1.005-0.452 1.005-1.005v-12.059c0-0.553-0.452-1.005-1.005-1.005zM11.054 13.602h14.069c0.553 0 1.005-0.452 1.005-1.005v-12.059c0-0.553-0.452-1.005-1.005-1.005h-5.024v6.029l-2.010-1.338-2.010 1.338v-6.029h-5.024c-0.553 0-1.005 0.452-1.005 1.005v12.059c0 0.553 0.452 1.005 1.005 1.005zM15.073 17.621h-5.024v6.029l-2.010-1.338-2.010 1.338v-6.029h-5.024c-0.553 0-1.005 0.452-1.005 1.005v12.059c0 0.553 0.452 1.005 1.005 1.005h14.069c0.553 0 1.005-0.452 1.005-1.005v-12.059c0-0.553-0.452-1.005-1.005-1.005z"></path>
</svg>
