<!-- Generated by IcoMoon.io -->
<svg version="1.1" xmlns="http://www.w3.org/2000/svg" width="36" height="32" viewBox="0 0 36 32">
<title>brain</title>
<path d="M13.064-0.467c-1.876 0-3.438 1.291-3.881 3.029-0.047-0.001-0.091-0.014-0.138-0.014-2.22 0-4.020 1.799-4.020 4.020 0 0.304 0.040 0.597 0.104 0.882-1.829 0.751-3.119 2.545-3.119 4.645 0 0.79 0.198 1.527 0.524 2.193-1.507 0.867-2.534 2.476-2.534 4.339 0 2.094 1.282 3.886 3.104 4.641-0.057 0.287-0.089 0.583-0.089 0.886 0 2.497 2.024 4.522 4.522 4.522 0.259 0 0.509-0.035 0.756-0.076 0.602 1.791 2.275 3.091 4.269 3.091 2.498 0 4.522-2.025 4.522-4.522v-14.731c-0.685 0.564-1.506 0.97-2.409 1.155-0.312 0.064-0.605-0.177-0.605-0.495v-1.016c0-0.224 0.148-0.426 0.364-0.481 1.52-0.387 2.65-1.755 2.65-3.394v-4.652c0-2.22-1.8-4.020-4.020-4.020zM36.176 18.626c0-1.863-1.026-3.472-2.534-4.339 0.325-0.665 0.524-1.402 0.524-2.193 0-2.1-1.29-3.894-3.119-4.645 0.064-0.285 0.104-0.578 0.104-0.882 0-2.22-1.8-4.020-4.020-4.020-0.047 0-0.091 0.013-0.138 0.014-0.443-1.738-2.005-3.029-3.881-3.029-2.22 0-4.020 1.799-4.020 4.020v4.652c0 1.639 1.13 3.007 2.65 3.394 0.217 0.055 0.364 0.257 0.364 0.481v1.016c0 0.318-0.294 0.56-0.605 0.495-0.903-0.185-1.723-0.591-2.409-1.155v14.731c0 2.497 2.024 4.522 4.522 4.522 1.994 0 3.667-1.299 4.269-3.091 0.247 0.042 0.497 0.076 0.756 0.076 2.498 0 4.522-2.025 4.522-4.522 0-0.303-0.033-0.599-0.089-0.886 1.821-0.754 3.104-2.547 3.104-4.641z"></path>
</svg>
