<!-- Generated by IcoMoon.io -->
<svg version="1.1" xmlns="http://www.w3.org/2000/svg" width="40" height="32" viewBox="0 0 40 32">
<title>braille</title>
<path d="M8.039 15.611c0 2.22-1.8 4.020-4.020 4.020s-4.020-1.8-4.020-4.020 1.8-4.020 4.020-4.020 4.020 1.8 4.020 4.020zM4.020 23.651c-1.11 0-2.010 0.9-2.010 2.010s0.9 2.010 2.010 2.010 2.010-0.9 2.010-2.010-0.9-2.010-2.010-2.010zM4.020 1.543c-2.22 0-4.020 1.8-4.020 4.020s1.8 4.020 4.020 4.020 4.020-1.8 4.020-4.020-1.8-4.020-4.020-4.020zM14.069 13.602c-1.11 0-2.010 0.9-2.010 2.010s0.9 2.010 2.010 2.010 2.010-0.9 2.010-2.010-0.9-2.010-2.010-2.010zM14.069 23.651c-1.11 0-2.010 0.9-2.010 2.010s0.9 2.010 2.010 2.010 2.010-0.9 2.010-2.010-0.9-2.010-2.010-2.010zM14.069 1.543c-2.22 0-4.020 1.8-4.020 4.020s1.8 4.020 4.020 4.020 4.020-1.8 4.020-4.020-1.8-4.020-4.020-4.020zM28.137 13.602c-1.11 0-2.010 0.9-2.010 2.010s0.9 2.010 2.010 2.010 2.010-0.9 2.010-2.010-0.9-2.010-2.010-2.010zM28.137 23.651c-1.11 0-2.010 0.9-2.010 2.010s0.9 2.010 2.010 2.010 2.010-0.9 2.010-2.010-0.9-2.010-2.010-2.010zM28.137 1.543c-2.22 0-4.020 1.8-4.020 4.020s1.8 4.020 4.020 4.020 4.020-1.8 4.020-4.020-1.8-4.020-4.020-4.020zM38.186 13.602c-1.11 0-2.010 0.9-2.010 2.010s0.9 2.010 2.010 2.010 2.010-0.9 2.010-2.010-0.9-2.010-2.010-2.010zM38.186 23.651c-1.11 0-2.010 0.9-2.010 2.010s0.9 2.010 2.010 2.010 2.010-0.9 2.010-2.010-0.9-2.010-2.010-2.010zM38.186 3.553c-1.11 0-2.010 0.9-2.010 2.010s0.9 2.010 2.010 2.010 2.010-0.9 2.010-2.010-0.9-2.010-2.010-2.010z"></path>
</svg>
