<!-- Generated by IcoMoon.io -->
<svg version="1.1" xmlns="http://www.w3.org/2000/svg" width="32" height="32" viewBox="0 0 32 32">
<title>briefcase</title>
<path d="M20.098 20.636c0 0.555-0.45 1.005-1.005 1.005h-6.029c-0.555 0-1.005-0.45-1.005-1.005v-3.015h-12.059v9.044c0 1.608 1.407 3.015 3.015 3.015h26.127c1.608 0 3.015-1.407 3.015-3.015v-9.044h-12.059v3.015zM29.142 7.572h-5.024v-3.015c0-1.608-1.407-3.015-3.015-3.015h-10.049c-1.608 0-3.015 1.407-3.015 3.015v3.015h-5.024c-1.608 0-3.015 1.407-3.015 3.015v5.024h32.157v-5.024c0-1.608-1.407-3.015-3.015-3.015zM20.098 7.572h-8.039v-2.010h8.039v2.010z"></path>
</svg>
