<!-- Generated by IcoMoon.io -->
<svg version="1.1" xmlns="http://www.w3.org/2000/svg" width="32" height="32" viewBox="0 0 32 32">
<title>briefcase-medical</title>
<path d="M29.142 7.572h-5.024v-3.015c0-1.664-1.35-3.015-3.015-3.015h-10.049c-1.664 0-3.015 1.35-3.015 3.015v3.015h-5.024c-1.664 0-3.015 1.35-3.015 3.015v18.088c0 1.664 1.35 3.015 3.015 3.015h26.127c1.664 0 3.015-1.35 3.015-3.015v-18.088c0-1.664-1.35-3.015-3.015-3.015zM12.059 5.562h8.039v2.010h-8.039v-2.010zM22.108 21.138c0 0.276-0.226 0.503-0.503 0.503h-3.517v3.517c0 0.276-0.226 0.503-0.503 0.503h-3.015c-0.276 0-0.502-0.226-0.502-0.503v-3.517h-3.517c-0.276 0-0.502-0.226-0.502-0.503v-3.015c0-0.276 0.226-0.503 0.502-0.503h3.517v-3.517c0-0.276 0.226-0.502 0.502-0.502h3.015c0.276 0 0.503 0.226 0.503 0.502v3.517h3.517c0.276 0 0.503 0.226 0.503 0.503v3.015z"></path>
</svg>
