<!-- Generated by IcoMoon.io -->
<svg version="1.1" xmlns="http://www.w3.org/2000/svg" width="40" height="32" viewBox="0 0 40 32">
<title>broadcast-tower</title>
<path d="M9.48 11.592h2.118c0.692 0 1.169-0.68 0.933-1.33-0.31-0.853-0.474-1.757-0.474-2.689s0.165-1.836 0.474-2.689c0.236-0.65-0.242-1.33-0.933-1.33h-2.118c-0.44 0-0.845 0.282-0.968 0.705-0.307 1.066-0.473 2.176-0.473 3.314s0.166 2.248 0.474 3.314c0.122 0.423 0.527 0.706 0.967 0.706zM5.647 0.999c0.354-0.667-0.122-1.466-0.877-1.466h-2.219c-0.394 0-0.762 0.225-0.926 0.585-1.036 2.275-1.626 4.795-1.626 7.454 0 1.554 0.196 4.292 1.676 7.465 0.165 0.354 0.529 0.574 0.918 0.574h2.188c0.755 0 1.232-0.8 0.876-1.468-3.127-5.861-1.050-11.189-0.011-13.145zM38.567 0.116c-0.163-0.359-0.531-0.583-0.925-0.583h-2.225c-0.752 0-1.235 0.795-0.88 1.46 1.148 2.154 3.041 7.5 0.018 13.141-0.359 0.671 0.113 1.477 0.874 1.477h2.213c0.394 0 0.762-0.225 0.925-0.583 1.038-2.275 1.63-4.795 1.63-7.456s-0.592-5.18-1.629-7.456zM30.716 3.553h-2.118c-0.692 0-1.169 0.68-0.933 1.33 0.31 0.853 0.474 1.757 0.474 2.689s-0.165 1.836-0.474 2.689c-0.236 0.65 0.242 1.33 0.933 1.33h2.118c0.441 0 0.845-0.282 0.968-0.706 0.308-1.066 0.473-2.176 0.473-3.314s-0.166-2.248-0.474-3.314c-0.122-0.424-0.527-0.706-0.967-0.706zM23.412 9.841c0.443-0.646 0.703-1.426 0.703-2.269 0-2.22-1.798-4.020-4.017-4.020s-4.017 1.799-4.017 4.020c0 0.842 0.261 1.622 0.703 2.269l-8.196 19.684c-0.214 0.512 0.029 1.1 0.541 1.314l1.853 0.773c0.512 0.214 1.1-0.029 1.313-0.541l3.089-7.421h9.425l3.090 7.421c0.214 0.512 0.801 0.754 1.313 0.541l1.853-0.773c0.512-0.214 0.754-0.802 0.541-1.314l-8.196-19.684zM17.059 19.631l3.039-7.297 3.039 7.297h-6.077z"></path>
</svg>
