<!-- Generated by IcoMoon.io -->
<svg version="1.1" xmlns="http://www.w3.org/2000/svg" width="24" height="32" viewBox="0 0 24 32">
<title>brush</title>
<path d="M22.108-0.467h-20.098c-1.11 0-2.010 0.9-2.010 2.010v14.069h24.118v-14.069c0-1.11-0.9-2.010-2.010-2.010zM0 19.631c0 2.22 1.8 4.020 4.020 4.020h4.020v4.020c0 2.22 1.8 4.020 4.020 4.020s4.020-1.799 4.020-4.020v-4.020h4.020c2.22 0 4.020-1.799 4.020-4.020v-2.010h-24.118v2.010zM12.059 26.163c0.832 0 1.507 0.675 1.507 1.507s-0.675 1.507-1.507 1.507-1.507-0.675-1.507-1.507c0-0.833 0.675-1.507 1.507-1.507z"></path>
</svg>
