<!-- Generated by IcoMoon.io -->
<svg version="1.1" xmlns="http://www.w3.org/2000/svg" width="24" height="32" viewBox="0 0 24 32">
<title>btc</title>
<path d="M19.483 14.772c1.742-0.891 2.85-2.474 2.593-5.106-0.337-3.602-3.295-4.809-7.213-5.146v-4.987h-3.048v4.849c-0.792 0-1.603 0.020-2.414 0.040v-4.888h-3.048v4.987c-1.121 0.034-2.426 0.017-6.115 0v3.246c2.406-0.043 3.669-0.197 3.958 1.346v13.656c-0.184 1.224-1.163 1.048-3.345 1.009l-0.613 3.622c5.557 0 6.115 0.020 6.115 0.020v4.271h3.048v-4.212c0.831 0.020 1.643 0.020 2.414 0.020v4.192h3.048v-4.271c5.106-0.277 8.519-1.564 8.975-6.373 0.356-3.859-1.465-5.581-4.354-6.274zM9.459 7.984c1.722 0 7.105-0.534 7.105 3.048 0 3.424-5.383 3.028-7.105 3.028v-6.076zM9.459 23.797v-6.689c2.058 0 8.361-0.574 8.361 3.345-0 3.78-6.303 3.345-8.361 3.345z"></path>
</svg>
