<!-- Generated by IcoMoon.io -->
<svg version="1.1" xmlns="http://www.w3.org/2000/svg" width="32" height="32" viewBox="0 0 32 32">
<title>bug</title>
<path d="M32.156 17.678c-0.030 1.095-0.956 1.953-2.051 1.953h-3.475v1.005c0 1.373-0.307 2.674-0.854 3.84l3.783 3.783c0.785 0.785 0.785 2.057 0 2.842s-2.057 0.785-2.842 0l-3.438-3.438c-1.554 1.261-3.535 2.017-5.692 2.017v-15.325c0-0.416-0.338-0.754-0.754-0.754h-1.507c-0.416 0-0.754 0.338-0.754 0.754v15.325c-2.157 0-4.138-0.756-5.693-2.017l-3.438 3.438c-0.785 0.785-2.057 0.785-2.842 0s-0.785-2.057 0-2.842l3.783-3.783c-0.548-1.166-0.854-2.467-0.854-3.84v-1.005h-3.475c-1.095 0-2.021-0.859-2.051-1.953-0.031-1.136 0.88-2.066 2.009-2.066h3.517v-3.69l-2.929-2.928c-0.785-0.785-0.785-2.057 0-2.842s2.057-0.785 2.842 0l3.431 3.431h14.413l3.431-3.431c0.785-0.785 2.057-0.785 2.842 0s0.785 2.057 0 2.842l-2.928 2.928v3.69h3.517c1.129 0 2.040 0.931 2.009 2.066zM16.141-0.467c-3.885 0-7.034 3.149-7.034 7.034h14.069c0-3.885-3.149-7.034-7.034-7.034z"></path>
</svg>
