<!-- Generated by IcoMoon.io -->
<svg version="1.1" xmlns="http://www.w3.org/2000/svg" width="28" height="32" viewBox="0 0 28 32">
<title>building1</title>
<path d="M27.383 29.68h-1.256v-28.64c0-0.833-0.675-1.507-1.507-1.507h-21.103c-0.833 0-1.507 0.675-1.507 1.507v28.64h-1.256c-0.416 0-0.754 0.338-0.754 0.754v1.256h28.137v-1.256c0-0.416-0.338-0.754-0.754-0.754zM8.039 4.306c0-0.416 0.338-0.754 0.754-0.754h2.512c0.416 0 0.754 0.338 0.754 0.754v2.512c0 0.416-0.338 0.754-0.754 0.754h-2.512c-0.416 0-0.754-0.338-0.754-0.754v-2.512zM8.039 10.336c0-0.416 0.338-0.754 0.754-0.754h2.512c0.416 0 0.754 0.338 0.754 0.754v2.512c0 0.416-0.338 0.754-0.754 0.754h-2.512c-0.416 0-0.754-0.338-0.754-0.754v-2.512zM11.305 19.631h-2.512c-0.416 0-0.754-0.338-0.754-0.754v-2.512c0-0.416 0.338-0.754 0.754-0.754h2.512c0.416 0 0.754 0.338 0.754 0.754v2.512c0 0.416-0.338 0.754-0.754 0.754zM16.078 29.68h-4.020v-5.276c0-0.416 0.338-0.754 0.754-0.754h2.512c0.416 0 0.754 0.338 0.754 0.754v5.276zM20.098 18.877c0 0.416-0.338 0.754-0.754 0.754h-2.512c-0.416 0-0.754-0.338-0.754-0.754v-2.512c0-0.416 0.338-0.754 0.754-0.754h2.512c0.416 0 0.754 0.338 0.754 0.754v2.512zM20.098 12.848c0 0.416-0.338 0.754-0.754 0.754h-2.512c-0.416 0-0.754-0.338-0.754-0.754v-2.512c0-0.416 0.338-0.754 0.754-0.754h2.512c0.416 0 0.754 0.338 0.754 0.754v2.512zM20.098 6.819c0 0.416-0.338 0.754-0.754 0.754h-2.512c-0.416 0-0.754-0.338-0.754-0.754v-2.512c0-0.416 0.338-0.754 0.754-0.754h2.512c0.416 0 0.754 0.338 0.754 0.754v2.512z"></path>
</svg>
