<!-- Generated by IcoMoon.io -->
<svg version="1.1" xmlns="http://www.w3.org/2000/svg" width="28" height="32" viewBox="0 0 28 32">
<title>building</title>
<path d="M8.039 8.828v-2.512c0-0.415 0.339-0.754 0.754-0.754h2.512c0.415 0 0.754 0.339 0.754 0.754v2.512c0 0.415-0.339 0.754-0.754 0.754h-2.512c-0.415 0-0.754-0.339-0.754-0.754zM16.832 9.582h2.512c0.415 0 0.754-0.339 0.754-0.754v-2.512c0-0.415-0.339-0.754-0.754-0.754h-2.512c-0.415 0-0.754 0.339-0.754 0.754v2.512c0 0.415 0.339 0.754 0.754 0.754zM8.793 15.611h2.512c0.415 0 0.754-0.339 0.754-0.754v-2.512c0-0.415-0.339-0.754-0.754-0.754h-2.512c-0.415 0-0.754 0.339-0.754 0.754v2.512c0 0.415 0.339 0.754 0.754 0.754zM16.832 15.611h2.512c0.415 0 0.754-0.339 0.754-0.754v-2.512c0-0.415-0.339-0.754-0.754-0.754h-2.512c-0.415 0-0.754 0.339-0.754 0.754v2.512c0 0.415 0.339 0.754 0.754 0.754zM12.059 20.887v-2.512c0-0.415-0.339-0.754-0.754-0.754h-2.512c-0.415 0-0.754 0.339-0.754 0.754v2.512c0 0.415 0.339 0.754 0.754 0.754h2.512c0.415 0 0.754-0.339 0.754-0.754zM16.832 21.641h2.512c0.415 0 0.754-0.339 0.754-0.754v-2.512c0-0.415-0.339-0.754-0.754-0.754h-2.512c-0.415 0-0.754 0.339-0.754 0.754v2.512c0 0.415 0.339 0.754 0.754 0.754zM28.137 29.429v2.261h-28.137v-2.261c0-0.415 0.339-0.754 0.754-0.754h1.225v-27.635c0-0.835 0.672-1.507 1.507-1.507h21.166c0.835 0 1.507 0.672 1.507 1.507v27.635h1.225c0.415 0 0.754 0.339 0.754 0.754zM4.993 28.612h7.066v-4.208c0-0.415 0.339-0.754 0.754-0.754h2.512c0.415 0 0.754 0.339 0.754 0.754v4.208h7.066v-26.002l-18.12-0.063-0.031 26.065z"></path>
</svg>
