<!-- Generated by IcoMoon.io -->
<svg version="1.1" xmlns="http://www.w3.org/2000/svg" width="36" height="32" viewBox="0 0 36 32">
<title>bullhorn</title>
<path d="M36.176 14.606c0-1.484-0.813-2.766-2.010-3.462v-9.601c0-0.55-0.438-2.010-2.010-2.010-0.447 0-0.891 0.15-1.255 0.441l-5.34 4.273c-2.682 2.144-6.050 3.326-9.483 3.326h-12.059c-2.22 0-4.020 1.799-4.020 4.020v6.029c0 2.22 1.799 4.020 4.020 4.020h2.117c-0.087 0.658-0.137 1.328-0.137 2.010 0 2.498 0.582 4.858 1.605 6.968 0.326 0.671 1.037 1.071 1.784 1.071h4.665c1.636 0 2.618-1.874 1.627-3.175-1.030-1.352-1.642-3.037-1.642-4.864 0-0.698 0.102-1.369 0.277-2.010h1.764c3.433 0 6.801 1.181 9.482 3.326l5.34 4.273c0.341 0.274 0.778 0.441 1.255 0.441h0c1.565 0 2.010-1.431 2.010-2.010v-9.601c1.197-0.697 2.010-1.978 2.010-3.463zM30.147 23.488l-2.076-1.661c-3.392-2.713-7.652-4.207-11.993-4.207v-6.029c4.341 0 8.601-1.494 11.993-4.207l2.076-1.661v17.764z"></path>
</svg>
