<!-- Generated by IcoMoon.io -->
<svg version="1.1" xmlns="http://www.w3.org/2000/svg" width="31" height="32" viewBox="0 0 31 32">
<title>bullseye</title>
<path d="M15.576 0.035c-8.603 0-15.576 6.973-15.576 15.576s6.973 15.576 15.576 15.576 15.576-6.973 15.576-15.576-6.973-15.576-15.576-15.576zM15.576 27.168c-6.387 0-11.556-5.168-11.556-11.556 0-6.387 5.168-11.556 11.556-11.556 6.387 0 11.556 5.168 11.556 11.556 0 6.387-5.168 11.556-11.556 11.556zM15.576 7.572c-4.44 0-8.039 3.599-8.039 8.039s3.599 8.039 8.039 8.039 8.039-3.599 8.039-8.039-3.599-8.039-8.039-8.039zM15.576 19.631c-2.216 0-4.020-1.803-4.020-4.020s1.803-4.020 4.020-4.020 4.020 1.803 4.020 4.020-1.803 4.020-4.020 4.020z"></path>
</svg>
