<!-- Generated by IcoMoon.io -->
<svg version="1.1" xmlns="http://www.w3.org/2000/svg" width="28" height="32" viewBox="0 0 28 32">
<title>buromobelexperte</title>
<path d="M0 1.543v8.039h8.039v-8.039h-8.039zM7.537 9.080h-7.034v-7.034h7.034v7.034zM10.049 1.543v8.039h8.039v-8.039h-8.039zM17.586 9.080h-7.034v-7.034h7.034v7.034zM20.098 1.543v8.039h8.039v-8.039h-8.039zM27.635 9.080h-7.034v-7.034h7.034v7.034zM0 11.592v8.039h8.039v-8.039h-8.039zM7.537 19.128h-7.034v-7.034h7.034v7.034zM10.049 11.592v8.039h8.039v-8.039h-8.039zM17.586 19.128h-7.034v-7.034h7.034v7.034zM20.098 11.592v8.039h8.039v-8.039h-8.039zM27.635 19.128h-7.034v-7.034h7.034v7.034zM0 21.641v8.039h8.039v-8.039h-8.039zM7.537 29.177h-7.034v-7.034h7.034v7.034zM10.049 21.641v8.039h8.039v-8.039h-8.039zM17.586 29.177h-7.034v-7.034h7.034v7.034zM20.098 21.641v8.039h8.039v-8.039h-8.039z"></path>
</svg>
