<!-- Generated by IcoMoon.io -->
<svg version="1.1" xmlns="http://www.w3.org/2000/svg" width="32" height="32" viewBox="0 0 32 32">
<title>bus</title>
<path d="M30.649 7.572h-0.503v-3.015c0-2.814-6.23-5.024-14.069-5.024s-14.069 2.211-14.069 5.024v3.015h-0.502c-0.832 0-1.507 0.675-1.507 1.507v5.024c0 0.832 0.675 1.507 1.507 1.507h0.502v10.049c0 1.11 0.9 2.010 2.010 2.010v2.010c0 1.11 0.9 2.010 2.010 2.010h2.010c1.11 0 2.010-0.9 2.010-2.010v-2.010h12.059v2.010c0 1.11 0.9 2.010 2.010 2.010h2.010c1.11 0 2.010-0.9 2.010-2.010v-2.010h0.402c1.005 0 1.608-0.804 1.608-1.608v-10.451h0.503c0.832 0 1.507-0.675 1.507-1.507v-5.024c0-0.833-0.675-1.507-1.507-1.507zM7.034 24.655c-1.11 0-2.010-0.9-2.010-2.010s0.9-2.010 2.010-2.010 2.010 0.9 2.010 2.010-0.9 2.010-2.010 2.010zM8.039 17.621c-1.11 0-2.010-0.9-2.010-2.010v-8.039c0-1.11 0.9-2.010 2.010-2.010h16.078c1.11 0 2.010 0.9 2.010 2.010v8.039c0 1.11-0.9 2.010-2.010 2.010h-16.078zM25.122 24.655c-1.11 0-2.010-0.9-2.010-2.010s0.9-2.010 2.010-2.010 2.010 0.9 2.010 2.010-0.9 2.010-2.010 2.010z"></path>
</svg>
