<!-- Generated by IcoMoon.io -->
<svg version="1.1" xmlns="http://www.w3.org/2000/svg" width="40" height="32" viewBox="0 0 40 32">
<title>business-time</title>
<path d="M31.152 13.602c-4.999 0-9.044 4.045-9.044 9.044s4.045 9.044 9.044 9.044 9.044-4.045 9.044-9.044-4.045-9.044-9.044-9.044zM35.171 23.041c0 0.335-0.275 0.61-0.61 0.61h-3.804c-0.335 0-0.61-0.275-0.61-0.61v-4.809c0-0.335 0.275-0.61 0.61-0.61h0.79c0.335 0 0.61 0.275 0.61 0.61v3.409h2.405c0.335 0 0.61 0.275 0.61 0.61v0.79zM31.152 11.592c0.339 0 0.673 0.021 1.005 0.051v-3.066c0-1.608-1.407-3.015-3.015-3.015h-5.024v-3.015c0-1.608-1.407-3.015-3.015-3.015h-10.049c-1.608 0-3.015 1.407-3.015 3.015v3.015h-5.024c-1.608 0-3.015 1.407-3.015 3.015v5.024h24.816c1.796-1.262 3.979-2.010 6.336-2.010zM20.098 5.562h-8.039v-2.010h8.039v2.010zM20.526 19.631h-7.463c-0.555 0-1.005-0.45-1.005-1.005v-3.015h-12.059v9.044c0 1.608 1.407 3.015 3.015 3.015h18.304c-0.774-1.51-1.22-3.214-1.22-5.024 0-1.046 0.156-2.055 0.428-3.015z"></path>
</svg>
