<!-- Generated by IcoMoon.io -->
<svg version="1.1" xmlns="http://www.w3.org/2000/svg" width="32" height="32" viewBox="0 0 32 32">
<title>businessman</title>
<path d="M10.303 13.568c0.292 1.895 1.756 4.307 4.161 5.155 0.987 0.345 2.067 0.351 3.054-0.007 2.365-0.855 3.876-3.26 4.174-5.148 0.318-0.027 0.735-0.47 1.186-2.067 0.616-2.18-0.040-2.504-0.596-2.451 0.106-0.298 0.186-0.603 0.239-0.894 0.941-5.652-1.842-5.844-1.842-5.844s-0.464-0.888-1.676-1.557c-0.815-0.484-1.948-0.855-3.439-0.729-0.484 0.020-0.941 0.119-1.371 0.258v0c-0.55 0.186-1.053 0.457-1.511 0.775-0.557 0.351-1.087 0.788-1.55 1.285-0.735 0.755-1.391 1.729-1.676 2.942-0.239 0.908-0.186 1.855 0.013 2.876v0c0.053 0.298 0.133 0.596 0.239 0.894-0.557-0.053-1.213 0.272-0.596 2.451 0.457 1.59 0.875 2.034 1.193 2.061zM26.927 20.982c-3.386-0.861-6.135-2.796-6.135-2.796l-2.551 8.070-0.007-0.020-0.351 1.087-1.133-3.213c2.783-3.883-0.563-3.843-0.749-3.836-0.186-0.007-3.531-0.046-0.749 3.836l-1.133 3.213-0.351-1.087-0.007 0.020-0.404-1.279-2.153-6.791c0 0-2.75 1.935-6.135 2.796-2.524 0.643-2.644 3.558-2.544 4.996 0 0 0.146 1.955 0.292 2.816 0 0 4.929 3.2 13.185 3.207 8.256 0 13.185-3.207 13.185-3.207 0.146-0.861 0.292-2.816 0.292-2.816 0.093-1.438-0.026-4.353-2.551-4.996z"></path>
</svg>
