<!-- Generated by IcoMoon.io -->
<svg version="1.1" xmlns="http://www.w3.org/2000/svg" width="32" height="32" viewBox="0 0 32 32">
<title>cab-file-format</title>
<path d="M15.987 23.324h-0.023c-0.113 0.454-0.227 1.033-0.352 1.475l-0.454 1.623h1.691l-0.477-1.623c-0.137-0.454-0.273-1.021-0.386-1.475zM22.876 26.297h-0.59v2.156c0.17 0.023 0.375 0.023 0.669 0.023 0.783 0 1.476-0.296 1.476-1.101-0-0.772-0.692-1.078-1.555-1.078zM24.249 24.119c0-0.579-0.443-0.886-1.225-0.886-0.375 0-0.59 0.023-0.738 0.046v1.781h0.567c0.908 0 1.396-0.374 1.396-0.941zM27.737 7.239c-0.002-0.147-0.049-0.293-0.151-0.408l-6.2-7.082c-0.002-0.002-0.004-0.003-0.005-0.004-0.037-0.041-0.080-0.075-0.126-0.105-0.013-0.009-0.027-0.017-0.041-0.025-0.039-0.021-0.081-0.039-0.124-0.052-0.012-0.003-0.022-0.008-0.034-0.011-0.047-0.011-0.095-0.018-0.145-0.018h-15.237c-0.695 0-1.261 0.566-1.261 1.261v29.635c0 0.695 0.566 1.261 1.261 1.261h20.807c0.695 0 1.261-0.566 1.261-1.261v-23.119c0-0.024-0.004-0.047-0.006-0.071zM10.176 28.362c0.522 0 1.101-0.113 1.441-0.249l0.26 1.35c-0.318 0.159-1.032 0.329-1.963 0.329-2.644 0-4.006-1.646-4.006-3.824 0-2.61 1.861-4.063 4.177-4.063 0.896 0 1.577 0.182 1.884 0.341l-0.351 1.373c-0.352-0.148-0.84-0.284-1.452-0.284-1.373 0-2.44 0.828-2.44 2.53 0 1.533 0.908 2.497 2.451 2.497zM17.689 29.679l-0.59-1.963h-2.19l-0.544 1.963h-1.793l2.337-7.648h2.269l2.372 7.648h-1.861zM25.452 29.066c-0.556 0.443-1.487 0.692-3.007 0.692-0.851 0-1.486-0.057-1.872-0.113v-7.513c0.454-0.091 1.373-0.159 2.236-0.159 1.055 0 1.702 0.102 2.258 0.432 0.533 0.283 0.919 0.805 0.919 1.498 0 0.681-0.397 1.316-1.26 1.634v0.023c0.874 0.238 1.521 0.897 1.521 1.884-0 0.692-0.318 1.237-0.794 1.623zM26.482 20.945h-20.807v-20.151h14.607v6.452c0 0.348 0.283 0.631 0.631 0.631h5.57v13.068zM20.279 11.332v-3.545h-9.021v3.545h-0.516l-0.251-2.807-1.322 2.807 0.032 7.249h13.153v-7.249l-1.312-2.781-0.245 2.781h-0.518zM17.694 13.944h-3.428v-1.537h3.428v1.537zM19.669 11.332h-7.8v-3.039h7.8v3.039zM12.035 6.718h7.548v0.506h-7.548v-0.506zM12.74 5.722h6.119v0.506h-6.119v-0.506zM14.568 12.735h2.851v0.449h-2.851v-0.449z"></path>
</svg>
