<!-- Generated by IcoMoon.io -->
<svg version="1.1" xmlns="http://www.w3.org/2000/svg" width="32" height="32" viewBox="0 0 32 32">
<title>cad-file-format-symbol</title>
<path d="M15.466 23.691h-0.022c-0.109 0.438-0.218 0.994-0.339 1.421l-0.437 1.563h1.628l-0.459-1.563c-0.132-0.437-0.263-0.983-0.372-1.421zM22.31 23.669c-0.371 0-0.612 0.033-0.754 0.066v4.82c0.142 0.033 0.372 0.033 0.579 0.033 1.509 0.011 2.492-0.82 2.492-2.579 0.011-1.53-0.885-2.339-2.317-2.339zM27.737 7.239c-0.002-0.147-0.049-0.293-0.15-0.408l-6.2-7.082c-0.001-0.002-0.003-0.003-0.005-0.004-0.037-0.041-0.079-0.075-0.125-0.105-0.013-0.008-0.027-0.017-0.041-0.025-0.040-0.021-0.081-0.039-0.124-0.052-0.012-0.004-0.022-0.008-0.034-0.011-0.047-0.011-0.096-0.018-0.145-0.018h-15.238c-0.695 0-1.261 0.566-1.261 1.261v29.635c0 0.695 0.566 1.261 1.261 1.261h20.807c0.695 0 1.261-0.566 1.261-1.261v-23.119c-0-0.024-0.004-0.047-0.006-0.071zM9.869 28.544c0.504 0 1.061-0.109 1.389-0.24l0.251 1.301c-0.306 0.153-0.994 0.317-1.891 0.317-2.547 0-3.859-1.585-3.859-3.684 0-2.514 1.793-3.913 4.023-3.913 0.863 0 1.52 0.175 1.815 0.328l-0.339 1.322c-0.339-0.142-0.809-0.272-1.399-0.272-1.323 0-2.351 0.797-2.351 2.437-0 1.476 0.875 2.405 2.361 2.405zM17.106 29.812l-0.569-1.892h-2.109l-0.524 1.892h-1.727l2.251-7.367h2.187l2.284 7.367h-1.793zM25.174 28.937c-0.776 0.645-1.957 0.951-3.399 0.951-0.863 0-1.475-0.055-1.891-0.11v-7.236c0.612-0.099 1.41-0.153 2.252-0.153 1.399 0 2.306 0.251 3.016 0.787 0.766 0.569 1.246 1.476 1.246 2.777 0 1.409-0.514 2.382-1.224 2.983zM5.675 20.945v-20.151h14.607v6.452c0 0.348 0.282 0.631 0.631 0.631h5.569l0.001 13.068-20.808-0zM18.988 15.196l-1.289-3.505h0.715v0.565h0.349v-1.48h-0.349v0.566h-0.844l-0.835-2.27c0.089-0.201 0.14-0.422 0.14-0.656 0-0.824-0.614-1.498-1.408-1.605v-1.931h-0.437v1.93c-0.795 0.108-1.409 0.782-1.409 1.605 0 0.33 0.099 0.637 0.269 0.893l-0.749 2.033h-0.877v-0.566h-0.349v1.48h0.349v-0.565h0.749l-1.289 3.505 0.082 0.986-0.48 2.137 1.079-1.89 0.775-0.727 2.175-5.567 2.176 5.567 0.775 0.727 1.079 1.89-0.48-2.137 0.082-0.986zM15.275 9.543c-0.622 0-1.126-0.504-1.126-1.124s0.504-1.125 1.126-1.125c0.621 0 1.125 0.504 1.125 1.125s-0.504 1.124-1.125 1.124zM15.83 8.435c0 0.306-0.248 0.555-0.555 0.555s-0.555-0.248-0.555-0.555c0-0.306 0.248-0.555 0.555-0.555s0.555 0.248 0.555 0.555z"></path>
</svg>
