<!-- Generated by IcoMoon.io -->
<svg version="1.1" xmlns="http://www.w3.org/2000/svg" width="28" height="32" viewBox="0 0 28 32">
<title>calendar-times</title>
<path d="M19.577 23.066l-1.068 1.068c-0.295 0.295-0.773 0.295-1.068 0l-3.373-3.379-3.373 3.373c-0.295 0.295-0.773 0.295-1.068 0l-1.068-1.068c-0.295-0.295-0.295-0.773 0-1.068l3.373-3.373-3.373-3.373c-0.295-0.295-0.295-0.772 0-1.068l1.068-1.068c0.295-0.295 0.772-0.295 1.068 0l3.373 3.373 3.373-3.373c0.295-0.295 0.773-0.295 1.068 0l1.068 1.068c0.295 0.295 0.295 0.773 0 1.068l-3.379 3.379 3.373 3.373c0.301 0.295 0.301 0.773 0.006 1.068zM28.137 6.567v22.108c0 1.664-1.35 3.015-3.015 3.015h-22.108c-1.664 0-3.015-1.35-3.015-3.015v-22.108c0-1.664 1.35-3.015 3.015-3.015h3.015v-3.266c0-0.415 0.339-0.754 0.754-0.754h2.512c0.415 0 0.754 0.339 0.754 0.754v3.266h8.039v-3.266c0-0.415 0.339-0.754 0.754-0.754h2.512c0.415 0 0.754 0.339 0.754 0.754v3.266h3.015c1.664 0 3.015 1.35 3.015 3.015zM25.122 28.298v-18.716h-22.108v18.716c0 0.207 0.17 0.377 0.377 0.377h21.354c0.207 0 0.377-0.17 0.377-0.377z"></path>
</svg>
