<!-- Generated by IcoMoon.io -->
<svg version="1.1" xmlns="http://www.w3.org/2000/svg" width="28" height="32" viewBox="0 0 28 32">
<title>calendar-check1</title>
<path d="M27.383 9.582h-26.63c-0.416 0-0.754-0.338-0.754-0.754v-2.261c0-1.665 1.35-3.015 3.015-3.015h3.015v-3.266c0-0.416 0.338-0.754 0.754-0.754h2.512c0.416 0 0.754 0.338 0.754 0.754v3.266h8.039v-3.266c0-0.416 0.338-0.754 0.754-0.754h2.512c0.416 0 0.754 0.338 0.754 0.754v3.266h3.015c1.665 0 3.015 1.35 3.015 3.015v2.261c0 0.416-0.338 0.754-0.754 0.754zM0.754 11.592h26.63c0.416 0 0.754 0.338 0.754 0.754v16.33c0 1.665-1.35 3.015-3.015 3.015h-22.108c-1.665 0-3.015-1.35-3.015-3.015v-16.33c0-0.416 0.338-0.754 0.754-0.754zM21.687 17.618l-1.769-1.784c-0.293-0.295-0.77-0.297-1.066-0.004l-6.66 6.606-2.888-2.911c-0.293-0.295-0.77-0.297-1.066-0.004l-1.784 1.769c-0.295 0.293-0.297 0.77-0.004 1.066l5.188 5.23c0.293 0.295 0.77 0.297 1.066 0.004l8.978-8.906c0.295-0.293 0.297-0.77 0.004-1.066z"></path>
</svg>
