<!-- Generated by IcoMoon.io -->
<svg version="1.1" xmlns="http://www.w3.org/2000/svg" width="28" height="32" viewBox="0 0 28 32">
<title>calendar-plus</title>
<path d="M21.103 17.872v1.507c0 0.415-0.339 0.754-0.754 0.754h-4.773v4.773c0 0.415-0.339 0.754-0.754 0.754h-1.507c-0.415 0-0.754-0.339-0.754-0.754v-4.773h-4.773c-0.415 0-0.754-0.339-0.754-0.754v-1.507c0-0.415 0.339-0.754 0.754-0.754h4.773v-4.773c0-0.415 0.339-0.754 0.754-0.754h1.507c0.415 0 0.754 0.339 0.754 0.754v4.773h4.773c0.415 0 0.754 0.339 0.754 0.754zM28.137 6.567v22.108c0 1.664-1.35 3.015-3.015 3.015h-22.108c-1.664 0-3.015-1.35-3.015-3.015v-22.108c0-1.664 1.35-3.015 3.015-3.015h3.015v-3.266c0-0.415 0.339-0.754 0.754-0.754h2.512c0.415 0 0.754 0.339 0.754 0.754v3.266h8.039v-3.266c0-0.415 0.339-0.754 0.754-0.754h2.512c0.415 0 0.754 0.339 0.754 0.754v3.266h3.015c1.664 0 3.015 1.35 3.015 3.015zM25.122 28.298v-18.716h-22.108v18.716c0 0.207 0.17 0.377 0.377 0.377h21.354c0.207 0 0.377-0.17 0.377-0.377z"></path>
</svg>
