<!-- Generated by IcoMoon.io -->
<svg version="1.1" xmlns="http://www.w3.org/2000/svg" width="28" height="32" viewBox="0 0 28 32">
<title>calendar-day</title>
<path d="M0 28.675c0 1.664 1.35 3.015 3.015 3.015h22.108c1.664 0 3.015-1.35 3.015-3.015v-17.083h-28.137v17.083zM4.020 16.616c0-0.553 0.452-1.005 1.005-1.005h6.029c0.553 0 1.005 0.452 1.005 1.005v6.029c0 0.553-0.452 1.005-1.005 1.005h-6.029c-0.553 0-1.005-0.452-1.005-1.005v-6.029zM25.122 3.553h-3.015v-3.015c0-0.553-0.452-1.005-1.005-1.005h-2.010c-0.553 0-1.005 0.452-1.005 1.005v3.015h-8.039v-3.015c0-0.553-0.452-1.005-1.005-1.005h-2.010c-0.553 0-1.005 0.452-1.005 1.005v3.015h-3.015c-1.664 0-3.015 1.35-3.015 3.015v3.015h28.137v-3.015c0-1.664-1.35-3.015-3.015-3.015z"></path>
</svg>
