<!-- Generated by IcoMoon.io -->
<svg version="1.1" xmlns="http://www.w3.org/2000/svg" width="28" height="32" viewBox="0 0 28 32">
<title>calendar-times1</title>
<path d="M27.383 9.582h-26.63c-0.415 0-0.754-0.339-0.754-0.754v-2.261c0-1.664 1.35-3.015 3.015-3.015h3.015v-3.266c0-0.415 0.339-0.754 0.754-0.754h2.512c0.415 0 0.754 0.339 0.754 0.754v3.266h8.039v-3.266c0-0.415 0.339-0.754 0.754-0.754h2.512c0.415 0 0.754 0.339 0.754 0.754v3.266h3.015c1.664 0 3.015 1.35 3.015 3.015v2.261c0 0.415-0.339 0.754-0.754 0.754zM0.754 11.592h26.63c0.415 0 0.754 0.339 0.754 0.754v16.33c0 1.664-1.35 3.015-3.015 3.015h-22.108c-1.664 0-3.015-1.35-3.015-3.015v-16.33c0-0.415 0.339-0.754 0.754-0.754zM16.914 21.641l3.021-3.021c0.295-0.295 0.295-0.773 0-1.068l-1.777-1.777c-0.295-0.295-0.773-0.295-1.068 0l-3.021 3.021-3.021-3.021c-0.295-0.295-0.773-0.295-1.068 0l-1.777 1.777c-0.295 0.295-0.295 0.773 0 1.068l3.021 3.021-3.021 3.021c-0.295 0.295-0.295 0.773 0 1.068l1.777 1.777c0.295 0.295 0.772 0.295 1.068 0l3.021-3.021 3.021 3.021c0.295 0.295 0.773 0.295 1.068 0l1.777-1.777c0.295-0.295 0.295-0.773 0-1.068l-3.021-3.021z"></path>
</svg>
