<!-- Generated by IcoMoon.io -->
<svg version="1.1" xmlns="http://www.w3.org/2000/svg" width="28" height="32" viewBox="0 0 28 32">
<title>calendar</title>
<path d="M25.122 3.553h-3.015v-3.266c0-0.415-0.339-0.754-0.754-0.754h-2.512c-0.415 0-0.754 0.339-0.754 0.754v3.266h-8.039v-3.266c0-0.415-0.339-0.754-0.754-0.754h-2.512c-0.415 0-0.754 0.339-0.754 0.754v3.266h-3.015c-1.664 0-3.015 1.35-3.015 3.015v22.108c0 1.664 1.35 3.015 3.015 3.015h22.108c1.664 0 3.015-1.35 3.015-3.015v-22.108c0-1.664-1.35-3.015-3.015-3.015zM24.746 28.675h-21.354c-0.207 0-0.377-0.17-0.377-0.377v-18.716h22.108v18.716c0 0.207-0.17 0.377-0.377 0.377z"></path>
</svg>
