<!-- Generated by IcoMoon.io -->
<svg version="1.1" xmlns="http://www.w3.org/2000/svg" width="28" height="32" viewBox="0 0 28 32">
<title>calendar-check</title>
<path d="M25.122 3.553h-3.015v-3.266c0-0.416-0.338-0.754-0.754-0.754h-2.512c-0.416 0-0.754 0.338-0.754 0.754v3.266h-8.039v-3.266c0-0.416-0.338-0.754-0.754-0.754h-2.512c-0.416 0-0.754 0.338-0.754 0.754v3.266h-3.015c-1.665 0-3.015 1.35-3.015 3.015v22.108c0 1.665 1.35 3.015 3.015 3.015h22.108c1.665 0 3.015-1.35 3.015-3.015v-22.108c0-1.665-1.35-3.015-3.015-3.015zM24.746 28.675h-21.354c-0.208 0-0.377-0.169-0.377-0.377v0-18.716h22.108v18.716c0 0.208-0.169 0.377-0.377 0.377v0zM21.426 16.073l-8.938 8.866c-0.295 0.293-0.773 0.291-1.066-0.004l-4.716-4.754c-0.293-0.295-0.291-0.773 0.004-1.066l1.427-1.415c0.295-0.293 0.773-0.291 1.066 0.004l2.77 2.792 6.976-6.92c0.295-0.293 0.773-0.291 1.066 0.004l1.415 1.427c0.293 0.295 0.291 0.773-0.004 1.066z"></path>
</svg>
