<!-- Generated by IcoMoon.io -->
<svg version="1.1" xmlns="http://www.w3.org/2000/svg" width="28" height="32" viewBox="0 0 28 32">
<title>calendar-alt</title>
<path d="M25.122 3.553h-3.015v-3.015c0-0.553-0.452-1.005-1.005-1.005h-2.010c-0.553 0-1.005 0.452-1.005 1.005v3.015h-8.039v-3.015c0-0.553-0.452-1.005-1.005-1.005h-2.010c-0.553 0-1.005 0.452-1.005 1.005v3.015h-3.015c-1.664 0-3.015 1.35-3.015 3.015v22.108c0 1.664 1.35 3.015 3.015 3.015h22.108c1.664 0 3.015-1.35 3.015-3.015v-22.108c0-1.664-1.35-3.015-3.015-3.015zM25.122 9.582v5.024h-6.029v-5.024h6.029zM11.054 21.641v-5.024h6.029v5.024h-6.029zM17.083 23.651v5.024h-6.029v-5.024h6.029zM9.044 21.641h-6.029v-5.024h6.029v5.024zM11.054 14.606v-5.024h6.029v5.024h-6.029zM19.093 16.616h6.029v5.024h-6.029v-5.024zM9.044 9.582v5.024h-6.029v-5.024h6.029zM3.015 28.298v-4.648h6.029v5.024h-5.653c-0.207 0-0.377-0.17-0.377-0.377zM24.746 28.675h-5.653v-5.024h6.029v4.648c0 0.207-0.17 0.377-0.377 0.377z"></path>
</svg>
