<!-- Generated by IcoMoon.io -->
<svg version="1.1" xmlns="http://www.w3.org/2000/svg" width="28" height="32" viewBox="0 0 28 32">
<title>calendar-minus1</title>
<path d="M27.383 9.582h-26.63c-0.415 0-0.754-0.339-0.754-0.754v-2.261c0-1.664 1.35-3.015 3.015-3.015h3.015v-3.266c0-0.415 0.339-0.754 0.754-0.754h2.512c0.415 0 0.754 0.339 0.754 0.754v3.266h8.039v-3.266c0-0.415 0.339-0.754 0.754-0.754h2.512c0.415 0 0.754 0.339 0.754 0.754v3.266h3.015c1.664 0 3.015 1.35 3.015 3.015v2.261c0 0.415-0.339 0.754-0.754 0.754zM0.754 11.592h26.63c0.415 0 0.754 0.339 0.754 0.754v16.33c0 1.664-1.35 3.015-3.015 3.015h-22.108c-1.664 0-3.015-1.35-3.015-3.015v-16.33c0-0.415 0.339-0.754 0.754-0.754zM19.847 23.651c0.415 0 0.754-0.339 0.754-0.754v-2.512c0-0.415-0.339-0.754-0.754-0.754h-11.556c-0.415 0-0.754 0.339-0.754 0.754v2.512c0 0.415 0.339 0.754 0.754 0.754h11.556z"></path>
</svg>
