<!-- Generated by IcoMoon.io -->
<svg version="1.1" xmlns="http://www.w3.org/2000/svg" width="28" height="32" viewBox="0 0 28 32">
<title>calendar1</title>
<path d="M0.754 11.592h26.63c0.415 0 0.754 0.339 0.754 0.754v16.33c0 1.664-1.35 3.015-3.015 3.015h-22.108c-1.664 0-3.015-1.35-3.015-3.015v-16.33c0-0.415 0.339-0.754 0.754-0.754zM28.137 8.828v-2.261c0-1.664-1.35-3.015-3.015-3.015h-3.015v-3.266c0-0.415-0.339-0.754-0.754-0.754h-2.512c-0.415 0-0.754 0.339-0.754 0.754v3.266h-8.039v-3.266c0-0.415-0.339-0.754-0.754-0.754h-2.512c-0.415 0-0.754 0.339-0.754 0.754v3.266h-3.015c-1.664 0-3.015 1.35-3.015 3.015v2.261c0 0.415 0.339 0.754 0.754 0.754h26.63c0.415 0 0.754-0.339 0.754-0.754z"></path>
</svg>
