<!-- Generated by IcoMoon.io -->
<svg version="1.1" xmlns="http://www.w3.org/2000/svg" width="32" height="32" viewBox="0 0 32 32">
<title>camera</title>
<path d="M32.157 8.577v18.088c0 1.664-1.35 3.015-3.015 3.015h-26.127c-1.664 0-3.015-1.35-3.015-3.015v-18.088c0-1.664 1.35-3.015 3.015-3.015h5.527l0.773-2.066c0.44-1.175 1.564-1.953 2.82-1.953h7.882c1.256 0 2.38 0.779 2.82 1.953l0.779 2.066h5.527c1.664 0 3.015 1.35 3.015 3.015zM23.615 17.621c0-4.158-3.379-7.537-7.537-7.537s-7.537 3.379-7.537 7.537 3.379 7.537 7.537 7.537 7.537-3.379 7.537-7.537zM21.605 17.621c0 3.046-2.481 5.527-5.527 5.527s-5.527-2.481-5.527-5.527 2.481-5.527 5.527-5.527 5.527 2.481 5.527 5.527z"></path>
</svg>
