<!-- Generated by IcoMoon.io -->
<svg version="1.1" xmlns="http://www.w3.org/2000/svg" width="32" height="32" viewBox="0 0 32 32">
<title>camera-retro</title>
<path d="M3.015 1.543c-1.664 0-3.015 1.35-3.015 3.015v22.108c0 1.664 1.35 3.015 3.015 3.015h26.127c1.664 0 3.015-1.35 3.015-3.015v-22.108c0-1.664-1.35-3.015-3.015-3.015h-26.127zM3.015 3.553h6.657c0.207 0 0.377 0.17 0.377 0.377v1.256c0 0.207-0.17 0.377-0.377 0.377h-7.285c-0.207 0-0.377-0.17-0.377-0.377v-0.628c0-0.553 0.452-1.005 1.005-1.005zM29.77 9.582h-27.383c-0.207 0-0.377-0.17-0.377-0.377v-2.261c0-0.207 0.17-0.377 0.377-0.377h8.667l1.897-2.845c0.069-0.107 0.188-0.17 0.314-0.17h15.877c0.553 0 1.005 0.452 1.005 1.005v4.648c0 0.207-0.17 0.377-0.377 0.377zM16.078 26.163c-4.158 0-7.537-3.379-7.537-7.537s3.379-7.537 7.537-7.537 7.537 3.379 7.537 7.537-3.379 7.537-7.537 7.537zM16.078 13.099c-3.046 0-5.527 2.481-5.527 5.527s2.481 5.527 5.527 5.527 5.527-2.481 5.527-5.527-2.481-5.527-5.527-5.527zM13.064 19.631c-0.553 0-1.005-0.452-1.005-1.005 0-2.217 1.803-4.020 4.020-4.020 0.553 0 1.005 0.452 1.005 1.005s-0.452 1.005-1.005 1.005c-1.105 0-2.010 0.904-2.010 2.010 0 0.553-0.452 1.005-1.005 1.005z"></path>
</svg>
