<!-- Generated by IcoMoon.io -->
<svg version="1.1" xmlns="http://www.w3.org/2000/svg" width="40" height="32" viewBox="0 0 40 32">
<title>campground</title>
<path d="M39.191 27.67h-1.55l-15.060-20.742 3.354-4.619c0.326-0.449 0.227-1.078-0.222-1.404l-1.627-1.18c-0.449-0.326-1.077-0.227-1.404 0.223l-2.585 3.56-2.586-3.561c-0.326-0.449-0.955-0.549-1.404-0.223l-1.625 1.181c-0.449 0.326-0.549 0.955-0.222 1.404l3.355 4.619-15.060 20.742h-1.55c-0.555 0-1.005 0.45-1.005 1.005v2.010c0 0.555 0.45 1.005 1.005 1.005h38.186c0.555 0 1.005-0.45 1.005-1.005v-2.010c0-0.555-0.45-1.005-1.005-1.005zM20.098 17.621l7.308 10.049h-14.616l7.308-10.049z"></path>
</svg>
