<!-- Generated by IcoMoon.io -->
<svg version="1.1" xmlns="http://www.w3.org/2000/svg" width="29" height="32" viewBox="0 0 29 32">
<title>canadian-maple-leaf</title>
<path d="M14.628-0.467s-2.355 4.541-2.669 5.012c-0.314 0.628-0.628 0.628-1.105 0.314-0.628-0.314-2.519-1.407-2.519-1.407s1.733 7.512 1.733 8.14c0.157 0.628-0.471 1.099-1.105 0.628-0.157-0.157-3.461-3.913-3.461-3.913s-0.785 1.715-0.942 2.029c-0.157 0.314-0.314 0.622-0.785 0.471-0.634-0.157-3.624-0.785-3.624-0.785s1.105 3.75 1.262 4.227c0.151 0.377 0.314 0.785-0.314 1.093l-1.099 0.477s6.444 5.646 6.607 5.803c0.32 0.314 0.628 0.471 0.32 1.413-0.32 0.942-0.634 2.205-0.634 2.205s5.979-1.262 6.613-1.419c0.546-0.057 1.149 0.157 1.149 0.785 0 0.634-0.364 7.085-0.364 7.085h1.884s-0.364-6.45-0.364-7.085c0-0.628 0.597-0.842 1.156-0.785 0.628 0.157 6.607 1.419 6.607 1.419s-0.314-1.262-0.628-2.205 0-1.099 0.314-1.413c0.157-0.157 6.607-5.803 6.607-5.803l-1.099-0.471c-0.628-0.308-0.465-0.722-0.314-1.093 0.151-0.477 1.262-4.227 1.262-4.227s-2.996 0.628-3.624 0.785c-0.471 0.151-0.628-0.157-0.785-0.471s-0.942-2.035-0.942-2.035-3.304 3.762-3.461 3.913c-0.628 0.471-1.262 0-1.105-0.628 0-0.628 1.733-8.14 1.733-8.14s-1.89 1.093-2.519 1.407c-0.471 0.314-0.791 0.314-1.105-0.314-0.32-0.471-2.682-5.012-2.682-5.012z"></path>
</svg>
