<!-- Generated by IcoMoon.io -->
<svg version="1.1" xmlns="http://www.w3.org/2000/svg" width="32" height="32" viewBox="0 0 32 32">
<title>candy-cane</title>
<path d="M31.246 5.311c-1.752-3.699-5.383-5.778-9.113-5.778-1.752 0-3.53 0.458-5.138 1.419l-1.727 1.030c-0.955 0.572-1.262 1.802-0.691 2.757l2.060 3.448c0.377 0.628 1.043 0.98 1.727 0.98 0.352 0 0.703-0.094 1.030-0.283l1.727-1.030c0.32-0.195 0.678-0.283 1.030-0.283 0.685 0 1.35 0.352 1.727 0.98 0.572 0.948 0.258 2.186-0.691 2.757l-22.208 13.196c-0.955 0.572-1.262 1.802-0.691 2.757l2.060 3.448c0.377 0.628 1.043 0.98 1.727 0.98 0.352 0 0.703-0.094 1.030-0.283l21.813-12.969c4.503-2.694 6.569-8.385 4.327-13.126zM20.085 6.128l-0.157 0.094-1.288-3.863c0.609-0.295 1.244-0.509 1.903-0.641l1.294 3.881c-0.615 0.050-1.218 0.207-1.752 0.527zM9.163 26.653l-3.8-2.418 1.934-1.149 3.8 2.418-1.934 1.149zM15.915 22.639l-3.8-2.418 1.934-1.149 3.8 2.418-1.934 1.149zM22.88 18.5l-3.8-2.418 1.934-1.149 3.8 2.418-1.934 1.149zM24.162 6.109l2.889-2.889c0.527 0.408 1.005 0.886 1.419 1.419l-2.87 2.87c-0.358-0.584-0.86-1.061-1.438-1.401zM29.318 12.879l-3.737-1.244c0.201-0.333 0.364-0.685 0.465-1.074 0.069-0.283 0.107-0.572 0.113-0.854l3.793 1.262c-0.132 0.653-0.345 1.294-0.634 1.909z"></path>
</svg>
