<!-- Generated by IcoMoon.io -->
<svg version="1.1" xmlns="http://www.w3.org/2000/svg" width="32" height="32" viewBox="0 0 32 32">
<title>cannabis</title>
<path d="M31.621 22.159c-0.098-0.052-2.034-1.061-4.822-1.621 4.035-4.718 5.279-10.154 5.334-10.403 0.074-0.335-0.028-0.685-0.27-0.928-0.19-0.191-0.447-0.295-0.711-0.295-0.072 0-0.144 0.008-0.216 0.024-0.244 0.053-5.435 1.23-10.085 5.009 0.001-0.092 0.001-0.184 0.001-0.276 0-7.461-3.767-13.423-3.927-13.673-0.181-0.28-0.492-0.463-0.845-0.463-0 0-0 0-0 0v0c-0.342 0-0.661 0.175-0.846 0.463-0.16 0.25-3.927 6.212-3.927 13.673 0 0.092 0.001 0.185 0.001 0.276-4.65-3.778-9.841-4.955-10.085-5.009-0.072-0.016-0.144-0.024-0.216-0.024-0.264 0-0.521 0.104-0.711 0.295-0.181 0.182-0.293 0.432-0.293 0.709 0 0.077 0.009 0.153 0.025 0.225l-0.001-0.007c0.055 0.249 1.299 5.685 5.334 10.403-2.788 0.56-4.724 1.57-4.822 1.621-0.321 0.172-0.536 0.505-0.536 0.889s0.214 0.716 0.529 0.886l0.005 0.003c0.154 0.081 3.816 1.992 8.384 1.992 0.386 0 0.751-0.006 1.099-0.020-0.714 1.396-1.037 2.406-1.056 2.463-0.113 0.357-0.018 0.747 0.246 1.012 0.182 0.183 0.434 0.296 0.713 0.296 0.107 0 0.209-0.017 0.306-0.047l-0.007 0.002c0.115-0.036 2.369-0.753 4.855-2.468v4.021c0 0.278 0.225 0.503 0.502 0.503h1.005c0.278 0 0.503-0.225 0.503-0.503v-4.020c2.486 1.715 4.74 2.431 4.855 2.468 0.089 0.029 0.192 0.045 0.299 0.045 0.279 0 0.531-0.113 0.713-0.296l0-0c0.264-0.265 0.359-0.655 0.246-1.012-0.018-0.057-0.342-1.067-1.056-2.463 0.348 0.013 0.714 0.020 1.099 0.020 4.567 0 8.23-1.911 8.384-1.992 0.329-0.175 0.535-0.516 0.535-0.889s-0.207-0.715-0.536-0.889z"></path>
</svg>
