<!-- Generated by IcoMoon.io -->
<svg version="1.1" xmlns="http://www.w3.org/2000/svg" width="36" height="32" viewBox="0 0 36 32">
<title>capsules</title>
<path d="M34.876 18.381l-8.234-11.764c-1.401-1.997-3.63-3.065-5.891-3.065-1.419 0-2.858 0.421-4.114 1.3-1.237 0.867-2.117 2.060-2.606 3.379-0.182-3.724-3.228-6.689-6.997-6.689-3.888 0-7.034 3.147-7.034 7.034v14.069c0 3.888 3.147 7.034 7.034 7.034s7.034-3.147 7.034-7.034v-9.364c0.207 0.54 0.458 1.074 0.804 1.57l8.24 11.764c1.394 1.997 3.624 3.065 5.891 3.065 1.426 0 2.858-0.421 4.114-1.3 3.247-2.274 4.032-6.752 1.759-9.999zM10.049 15.611h-6.029v-7.034c0-1.664 1.35-3.015 3.015-3.015s3.015 1.35 3.015 3.015v7.034zM22.284 18.431l-4.12-5.885c-0.484-0.691-0.672-1.533-0.521-2.362 0.145-0.829 0.609-1.558 1.3-2.041 0.534-0.377 1.162-0.572 1.809-0.572 1.036 0 2.003 0.503 2.594 1.35l4.12 5.885-5.181 3.624z"></path>
</svg>
