<!-- Generated by IcoMoon.io -->
<svg version="1.1" xmlns="http://www.w3.org/2000/svg" width="40" height="32" viewBox="0 0 40 32">
<title>car-crash</title>
<path d="M8.997 13.401l-0.78 2.912c-0.189 0.707-0.228 1.438-0.151 2.16l-2.211 1.82c-0.413 0.34-1.024-0.027-0.918-0.551l0.97-4.816c0.067-0.33-0.167-0.646-0.503-0.678l-4.89-0.474c-0.532-0.052-0.705-0.743-0.26-1.039l4.092-2.72c0.28-0.187 0.338-0.575 0.124-0.835l-3.122-3.794c-0.34-0.413 0.027-1.024 0.551-0.918l4.816 0.97c0.33 0.067 0.646-0.167 0.678-0.503l0.474-4.89c0.052-0.533 0.743-0.705 1.039-0.26l2.72 4.091c0.187 0.28 0.575 0.338 0.835 0.124l3.793-3.122c0.413-0.34 1.024 0.027 0.918 0.551l-0.712 3.527c-0.17 0.192-0.341 0.383-0.497 0.59l-2.692 3.598c-2.056 0.55-3.717 2.169-4.276 4.255zM40.059 21.724l-0.78 2.912c-0.197 0.734-0.589 1.357-1.102 1.844-0.165 0.156-0.345 0.301-0.535 0.43l-0.015 0.009-0.879 3.28c-0.072 0.268-0.195 0.509-0.355 0.715-0.482 0.618-1.303 0.922-2.107 0.707l-1.941-0.52c-1.072-0.287-1.708-1.389-1.421-2.461l0.52-1.941-15.531-4.162-0.52 1.941c-0.287 1.072-1.389 1.708-2.461 1.421l-1.941-0.52c-0.804-0.215-1.363-0.889-1.471-1.665-0.036-0.259-0.022-0.529 0.050-0.796l0.879-3.28c-0.093-0.184-0.18-0.401-0.249-0.627l-0.008-0.030c-0.201-0.678-0.229-1.414-0.033-2.148l0.78-2.912c0.333-1.244 1.216-2.188 2.317-2.651 0.339-0.147 0.732-0.252 1.144-0.295l0.018-0.001 3.158-4.221c0.217-0.29 0.452-0.559 0.703-0.806 0.503-0.495 1.070-0.907 1.679-1.225 0.305-0.16 0.621-0.296 0.945-0.408 0.649-0.225 1.331-0.354 2.025-0.379s1.401 0.052 2.1 0.239l7.705 2.064c0.698 0.187 1.349 0.474 1.938 0.843 0.884 0.561 1.613 1.286 2.162 2.139l0.017 0.028c0.554 0.872 0.92 1.874 1.048 2.951l0.399 3.347 0.225 1.887c0.644 0.469 1.138 1.108 1.419 1.852l0.009 0.028c0.276 0.746 0.332 1.582 0.11 2.411zM16.052 14.251c-1.165-0.312-2.149 0.254-2.46 1.415s0.258 2.143 1.422 2.455c1.165 0.312 2.86 0.974 3.171-0.187s-0.969-3.371-2.134-3.683zM34.304 16.020l-0.399-3.347c-0.036-0.306-0.119-0.599-0.24-0.87-0.364-0.816-1.080-1.445-1.973-1.684l-7.705-2.064c-0.234-0.065-0.503-0.103-0.78-0.103-0.984 0-1.858 0.472-2.409 1.201l-0.006 0.008-2.019 2.699 15.531 4.162zM35.465 19.453c-1.165-0.312-3.379 0.962-3.69 2.122s1.488 1.436 2.653 1.748 2.149-0.254 2.46-1.415c0.311-1.161-0.258-2.143-1.423-2.455z"></path>
</svg>
