<!-- Generated by IcoMoon.io -->
<svg version="1.1" xmlns="http://www.w3.org/2000/svg" width="30" height="32" viewBox="0 0 30 32">
<title>car-alt</title>
<path d="M27.55 12.869l-1.958-4.894c-1.075-2.686-3.638-4.422-6.531-4.422h-7.976c-2.893 0-5.457 1.735-6.531 4.422l-1.958 4.894c-1.515 0.576-2.596 2.030-2.596 3.748v3.015c0 1.012 0.387 1.926 1.005 2.633v3.396c0 1.11 0.9 2.010 2.010 2.010h2.010c1.11 0 2.010-0.9 2.010-2.010v-2.010h16.078v2.010c0 1.11 0.9 2.010 2.010 2.010h2.010c1.11 0 2.010-0.9 2.010-2.010v-3.396c0.618-0.707 1.005-1.62 1.005-2.633v-3.015c0-1.717-1.082-3.172-2.596-3.748zM8.286 9.467c0.458-1.144 1.566-1.895 2.799-1.895h7.976c1.233 0 2.341 0.75 2.799 1.895l1.252 3.13h-16.078l1.252-3.13zM5.024 19.618c-1.206 0-2.010-0.801-2.010-2.003s0.804-2.003 2.010-2.003 3.015 1.803 3.015 3.005-1.809 1.002-3.015 1.002zM25.122 19.618c-1.206 0-3.015 0.2-3.015-1.002s1.809-3.005 3.015-3.005 2.010 0.801 2.010 2.004-0.804 2.003-2.010 2.003z"></path>
</svg>
