<!-- Generated by IcoMoon.io -->
<svg version="1.1" xmlns="http://www.w3.org/2000/svg" width="40" height="32" viewBox="0 0 40 32">
<title>car-side</title>
<path d="M34.167 11.592h-1.005l-6.832-8.54c-0.743-0.923-1.873-1.508-3.139-1.509h-13.435c-1.644 0-3.121 1-3.732 2.527l-3.009 7.664c-1.731 0.448-3.015 2.007-3.015 3.878v7.034c0 0.555 0.45 1.005 1.005 1.005h3.015c0 3.33 2.699 6.029 6.029 6.029s6.029-2.699 6.029-6.029h8.039c0 3.33 2.699 6.029 6.029 6.029s6.029-2.699 6.029-6.029h3.015c0.555 0 1.005-0.45 1.005-1.005v-5.024c0-3.33-2.699-6.029-6.029-6.029zM10.049 26.665c-1.662 0-3.015-1.352-3.015-3.015s1.352-3.015 3.015-3.015 3.015 1.352 3.015 3.015-1.352 3.015-3.015 3.015zM14.571 11.592h-7.227l2.412-6.029h4.815v6.029zM17.586 11.592v-6.029h5.605l4.823 6.029h-10.428zM30.147 26.665c-1.663 0-3.015-1.352-3.015-3.015s1.352-3.015 3.015-3.015 3.015 1.352 3.015 3.015-1.352 3.015-3.015 3.015z"></path>
</svg>
