<!-- Generated by IcoMoon.io -->
<svg version="1.1" xmlns="http://www.w3.org/2000/svg" width="32" height="32" viewBox="0 0 32 32">
<title>car-door</title>
<path d="M12.691 9.167c0.171 0 0.342-0.065 0.472-0.196l1.336-1.336c0.261-0.261 0.261-0.684 0-0.945s-0.684-0.261-0.945 0l-1.336 1.336c-0.261 0.261-0.261 0.684 0 0.945 0.13 0.13 0.301 0.196 0.472 0.196zM16.227 6.691l-4.008 4.008c-0.261 0.261-0.261 0.684 0 0.945 0.13 0.13 0.301 0.196 0.472 0.196s0.342-0.065 0.472-0.196l4.008-4.008c0.261-0.261 0.261-0.684 0-0.945s-0.684-0.261-0.945 0zM31.623 3.454c-0.71-1.42-2.138-2.303-3.727-2.303h-12.944c-2.479 0-4.844 1.062-6.491 2.915l-6.272 7.055c-1.415 1.591-2.194 3.64-2.189 5.855l1.118 8.621c0.16 1.236 0.733 2.402 1.615 3.282 1.072 1.072 2.497 1.662 4.013 1.662h22.645c1.474-0 2.672-1.198 2.672-2.672v-22.553c0-0.643-0.152-1.288-0.44-1.863zM5.189 13.783l6.271-7.055c0.887-0.997 2.161-1.569 3.495-1.569h12.942c0.062 0 0.114 0.031 0.158 0.158v10.53h-23.994c0.123-0.707 0.465-1.317 1.127-2.063zM28.723 25.198h-24.047c-0.369 0-0.668-0.299-0.668-0.668s0.299-0.668 0.668-0.668h24.047c0.369 0 0.668 0.299 0.668 0.668s-0.299 0.668-0.668 0.668zM28.723 21.19h-4.008c-0.369 0-0.668-0.299-0.668-0.668s0.299-0.668 0.668-0.668h4.008c0.369 0 0.668 0.299 0.668 0.668s-0.299 0.668-0.668 0.668z"></path>
</svg>
