<!-- Generated by IcoMoon.io -->
<svg version="1.1" xmlns="http://www.w3.org/2000/svg" width="32" height="32" viewBox="0 0 32 32">
<title>car-battery</title>
<path d="M30.875 7.5h-2.125v-3.188c0-0.587-0.475-1.062-1.062-1.062h-6.375c-0.587 0-1.062 0.475-1.062 1.062v3.188h-8.5v-3.188c0-0.587-0.475-1.062-1.062-1.062h-6.375c-0.587 0-1.062 0.475-1.062 1.062v3.188h-2.125c-1.173 0-2.125 0.952-2.125 2.125v17c0 1.173 0.952 2.125 2.125 2.125h29.75c1.173 0 2.125-0.952 2.125-2.125v-17c0-1.173-0.952-2.125-2.125-2.125zM11.75 16.531c0 0.294-0.238 0.531-0.531 0.531h-7.438c-0.294 0-0.531-0.238-0.531-0.531v-1.062c0-0.294 0.238-0.531 0.531-0.531h7.438c0.294 0 0.531 0.238 0.531 0.531v1.062zM28.75 16.531c0 0.294-0.238 0.531-0.531 0.531h-2.656v2.656c0 0.294-0.238 0.531-0.531 0.531h-1.062c-0.294 0-0.531-0.238-0.531-0.531v-2.656h-2.656c-0.294 0-0.531-0.238-0.531-0.531v-1.062c0-0.294 0.238-0.531 0.531-0.531h2.656v-2.656c0-0.294 0.238-0.531 0.531-0.531h1.062c0.294 0 0.531 0.238 0.531 0.531v2.656h2.656c0.294 0 0.531 0.238 0.531 0.531v1.062z"></path>
</svg>
