<!-- Generated by IcoMoon.io -->
<svg version="1.1" xmlns="http://www.w3.org/2000/svg" width="32" height="32" viewBox="0 0 32 32">
<title>car</title>
<path d="M31.402 10.587h-3.76l-1.045-2.613c-1.074-2.686-3.637-4.422-6.531-4.422h-7.976c-2.893 0-5.457 1.735-6.531 4.422l-1.045 2.613h-3.76c-0.49 0-0.85 0.461-0.731 0.936l0.377 1.507c0.084 0.335 0.385 0.571 0.731 0.571h1.26c-0.843 0.737-1.387 1.807-1.387 3.015v3.015c0 1.012 0.387 1.926 1.005 2.633v3.396c0 1.11 0.9 2.010 2.010 2.010h2.010c1.11 0 2.010-0.9 2.010-2.010v-2.010h16.078v2.010c0 1.11 0.9 2.010 2.010 2.010h2.010c1.11 0 2.010-0.9 2.010-2.010v-3.396c0.618-0.707 1.005-1.62 1.005-2.633v-3.015c0-1.207-0.543-2.278-1.386-3.015h1.26c0.346 0 0.648-0.235 0.731-0.571l0.377-1.507c0.119-0.475-0.241-0.936-0.732-0.936zM9.291 9.467c0.458-1.144 1.566-1.895 2.799-1.895h7.976c1.233 0 2.341 0.75 2.799 1.895l1.252 3.13h-16.078l1.252-3.13zM6.029 19.618c-1.206 0-2.010-0.801-2.010-2.003s0.804-2.003 2.010-2.003 3.015 1.803 3.015 3.005-1.809 1.002-3.015 1.002zM26.127 19.618c-1.206 0-3.015 0.2-3.015-1.002s1.809-3.005 3.015-3.005 2.010 0.801 2.010 2.004-0.804 2.003-2.010 2.003z"></path>
</svg>
