<!-- Generated by IcoMoon.io -->
<svg version="1.1" xmlns="http://www.w3.org/2000/svg" width="28" height="32" viewBox="0 0 28 32">
<title>caret-square-right</title>
<path d="M11.054 21.823v-12.423c0-0.672 0.816-1.011 1.287-0.534l6.174 6.212c0.295 0.295 0.295 0.766 0 1.061l-6.174 6.212c-0.471 0.484-1.287 0.145-1.287-0.527zM28.137 4.557v22.108c0 1.664-1.35 3.015-3.015 3.015h-22.108c-1.664 0-3.015-1.35-3.015-3.015v-22.108c0-1.664 1.35-3.015 3.015-3.015h22.108c1.664 0 3.015 1.35 3.015 3.015zM25.122 26.288v-21.354c0-0.207-0.17-0.377-0.377-0.377h-21.354c-0.207 0-0.377 0.17-0.377 0.377v21.354c0 0.207 0.17 0.377 0.377 0.377h21.354c0.207 0 0.377-0.17 0.377-0.377z"></path>
</svg>
