<!-- Generated by IcoMoon.io -->
<svg version="1.1" xmlns="http://www.w3.org/2000/svg" width="32" height="32" viewBox="0 0 32 32">
<title>carrot</title>
<path d="M18.729 9.368c-3.31-1.614-7.191-0.66-9.434 2.060l3.467 3.467c0.396 0.396 0.396 1.030 0 1.419-0.195 0.195-0.452 0.295-0.71 0.295s-0.515-0.1-0.71-0.295l-3.153-3.153-8.045 16.499c-0.182 0.377-0.195 0.835 0 1.237 0.339 0.697 1.187 0.986 1.884 0.647l8.391-4.095-3.090-3.090c-0.396-0.389-0.396-1.030 0-1.419s1.030-0.389 1.419 0l3.58 3.58 6.406-3.128c1.507-0.735 2.795-1.966 3.586-3.586 1.89-3.875 0.283-8.548-3.593-10.438zM24.513 7.176c1.225-2.556 0.59-5.577-1.903-7.644-3.159 2.619-3.297 6.752-0.496 9.54l0.503 0.502c2.789 2.801 6.927 2.663 9.54-0.496-2.066-2.493-5.087-3.128-7.643-1.903z"></path>
</svg>
