<!-- Generated by IcoMoon.io -->
<svg version="1.1" xmlns="http://www.w3.org/2000/svg" width="36" height="32" viewBox="0 0 36 32">
<title>cart-plus</title>
<path d="M31.699 19.631h-18.411l0.411 2.010h16.858c0.967 0 1.684 0.898 1.47 1.841l-0.347 1.525c1.174 0.57 1.983 1.773 1.983 3.166 0 1.96-1.603 3.545-3.569 3.517-1.873-0.027-3.413-1.547-3.464-3.42-0.028-1.023 0.382-1.95 1.055-2.609h-13.167c0.652 0.639 1.057 1.528 1.057 2.512 0 1.998-1.666 3.607-3.685 3.513-1.793-0.083-3.25-1.532-3.344-3.324-0.073-1.384 0.655-2.604 1.762-3.24l-4.412-21.57h-4.389c-0.833 0-1.507-0.675-1.507-1.507v-1.005c0-0.833 0.675-1.507 1.507-1.507h6.439c0.716 0 1.333 0.504 1.477 1.205l0.576 2.814h24.669c0.967 0 1.684 0.898 1.47 1.841l-2.969 13.064c-0.156 0.686-0.766 1.173-1.47 1.173zM25.625 10.084h-3.015v-2.512c0-0.555-0.45-1.005-1.005-1.005h-1.005c-0.555 0-1.005 0.45-1.005 1.005v2.512h-3.015c-0.555 0-1.005 0.45-1.005 1.005v1.005c0 0.555 0.45 1.005 1.005 1.005h3.015v2.512c0 0.555 0.45 1.005 1.005 1.005h1.005c0.555 0 1.005-0.45 1.005-1.005v-2.512h3.015c0.555 0 1.005-0.45 1.005-1.005v-1.005c0-0.555-0.45-1.005-1.005-1.005z"></path>
</svg>
