<!-- Generated by IcoMoon.io -->
<svg version="1.1" xmlns="http://www.w3.org/2000/svg" width="32" height="32" viewBox="0 0 32 32">
<title>cash-register</title>
<path d="M32.1 23.324l-1.677-10.049c-0.163-0.967-0.999-1.677-1.985-1.677h-15.375v-4.020h6.029c0.553 0 1.005-0.452 1.005-1.005v-6.036c0-0.553-0.452-1.005-1.005-1.005h-16.078c-0.553 0-1.005 0.452-1.005 1.005v6.029c0 0.553 0.452 1.005 1.005 1.005h6.029v4.020h-5.332c-0.98 0-1.821 0.71-1.985 1.677l-1.677 10.049c-0.038 0.22-0.057 0.44-0.057 0.66v5.703c0 1.112 0.898 2.010 2.010 2.010h28.137c1.112 0 2.010-0.898 2.010-2.010v-5.697c0.006-0.22-0.013-0.44-0.050-0.66zM17.586 15.109c0-0.553 0.452-1.005 1.005-1.005h1.005c0.553 0 1.005 0.452 1.005 1.005v1.005c0 0.553-0.452 1.005-1.005 1.005h-1.005c-0.553 0-1.005-0.452-1.005-1.005v-1.005zM15.576 19.128h1.005c0.553 0 1.005 0.452 1.005 1.005v1.005c0 0.553-0.452 1.005-1.005 1.005h-1.005c-0.553 0-1.005-0.452-1.005-1.005v-1.005c0-0.553 0.452-1.005 1.005-1.005zM13.566 14.104c0.553 0 1.005 0.452 1.005 1.005v1.005c0 0.553-0.452 1.005-1.005 1.005h-1.005c-0.553 0-1.005-0.452-1.005-1.005v-1.005c0-0.553 0.452-1.005 1.005-1.005h1.005zM5.024 4.557v-2.010h12.059v2.010h-12.059zM7.537 17.119h-1.005c-0.553 0-1.005-0.452-1.005-1.005v-1.005c0-0.553 0.452-1.005 1.005-1.005h1.005c0.553 0 1.005 0.452 1.005 1.005v1.005c0 0.553-0.452 1.005-1.005 1.005zM8.542 21.138v-1.005c0-0.553 0.452-1.005 1.005-1.005h1.005c0.553 0 1.005 0.452 1.005 1.005v1.005c0 0.553-0.452 1.005-1.005 1.005h-1.005c-0.553 0-1.005-0.452-1.005-1.005zM22.108 28.173c0 0.276-0.226 0.503-0.503 0.503h-11.054c-0.276 0-0.502-0.226-0.502-0.503v-1.005c0-0.276 0.226-0.503 0.502-0.503h11.054c0.276 0 0.503 0.226 0.503 0.503v1.005zM23.615 21.138c0 0.553-0.452 1.005-1.005 1.005h-1.005c-0.553 0-1.005-0.452-1.005-1.005v-1.005c0-0.553 0.452-1.005 1.005-1.005h1.005c0.553 0 1.005 0.452 1.005 1.005v1.005zM26.63 16.114c0 0.553-0.452 1.005-1.005 1.005h-1.005c-0.553 0-1.005-0.452-1.005-1.005v-1.005c0-0.553 0.452-1.005 1.005-1.005h1.005c0.553 0 1.005 0.452 1.005 1.005v1.005z"></path>
</svg>
