<!-- Generated by IcoMoon.io -->
<svg version="1.1" xmlns="http://www.w3.org/2000/svg" width="32" height="32" viewBox="0 0 32 32">
<title>cat</title>
<path d="M18.251 11.592c-1.267 0-6.709 0.124-10.212 5.398v-5.398c0-3.325-2.704-6.029-6.029-6.029-1.11 0-2.010 0.9-2.010 2.010s0.9 2.010 2.010 2.010c1.108 0 2.010 0.902 2.010 2.010v16.078c0 2.217 1.803 4.020 4.020 4.020h11.054c0.555 0 1.005-0.45 1.005-1.005v-1.005c0-1.11-0.9-2.010-2.010-2.010h-2.010l8.039-6.029v9.044c0 0.555 0.45 1.005 1.005 1.005h2.010c0.555 0 1.005-0.45 1.005-1.005v-12.947c-0.646 0.168-1.312 0.285-2.010 0.285-3.882 0-7.13-2.767-7.877-6.431zM28.137 5.562h-4.020l-4.020-4.020v8.441c0 3.33 2.699 6.029 6.029 6.029s6.029-2.699 6.029-6.029v-8.441l-4.020 4.020zM23.615 10.587c-0.555 0-1.005-0.45-1.005-1.005s0.45-1.005 1.005-1.005 1.005 0.45 1.005 1.005-0.45 1.005-1.005 1.005zM28.64 10.587c-0.555 0-1.005-0.45-1.005-1.005s0.45-1.005 1.005-1.005 1.005 0.45 1.005 1.005-0.45 1.005-1.005 1.005z"></path>
</svg>
