<!-- Generated by IcoMoon.io -->
<svg version="1.1" xmlns="http://www.w3.org/2000/svg" width="36" height="32" viewBox="0 0 36 32">
<title>cc-amazon-pay</title>
<path d="M7.832 12.207c0.006-0.741 0-1.476 0-2.217v-2.217c0-0.082 0.025-0.126 0.088-0.17 0.722-0.502 1.514-0.76 2.399-0.697 0.785 0.057 1.426 0.44 1.765 1.363 0.207 0.559 0.258 1.143 0.258 1.74 0 0.546-0.044 1.087-0.214 1.608-0.358 1.118-1.175 1.551-2.242 1.501-0.735-0.031-1.375-0.314-1.972-0.735-0.057-0.050-0.088-0.1-0.082-0.176zM17.561 13.124c0.289 0.113 0.584 0.126 0.886 0.094 0.729-0.075 1.375-0.358 1.966-0.785 0.057-0.038 0.082-0.082 0.082-0.157-0.006-0.245 0-0.496 0-0.741 0-0.251-0.006-0.502 0-0.754 0-0.088-0.025-0.126-0.113-0.138-0.44-0.057-0.873-0.138-1.313-0.182-0.44-0.038-0.879-0.019-1.306 0.119-0.421 0.138-0.735 0.389-0.86 0.823-0.1 0.339-0.1 0.678 0.006 1.018 0.1 0.345 0.327 0.578 0.653 0.703zM36.176 4.557v22.108c0 1.664-1.35 3.015-3.015 3.015h-30.147c-1.664 0-3.015-1.35-3.015-3.015v-22.108c0-1.664 1.35-3.015 3.015-3.015h30.147c1.664 0 3.015 1.35 3.015 3.015zM23.144 6.059c0.025 0.107 0.057 0.214 0.1 0.32 1.036 2.55 2.066 5.106 3.109 7.656 0.088 0.22 0.107 0.402 0.012 0.622-0.176 0.389-0.308 0.791-0.49 1.175-0.163 0.345-0.421 0.597-0.798 0.703-0.264 0.069-0.534 0.082-0.81 0.057-0.132-0.012-0.264-0.044-0.396-0.050-0.176-0.012-0.264 0.069-0.27 0.251-0.006 0.176-0.006 0.352 0 0.521 0.006 0.289 0.1 0.421 0.389 0.471 0.295 0.050 0.59 0.1 0.892 0.107 0.898 0.019 1.614-0.339 2.079-1.124 0.182-0.308 0.352-0.634 0.484-0.967 1.244-3.147 2.481-6.299 3.718-9.452 0.038-0.094 0.069-0.188 0.082-0.289 0.025-0.151-0.044-0.226-0.195-0.232-0.352-0.006-0.697 0-1.049 0-0.195 0-0.333 0.088-0.402 0.27-0.025 0.069-0.057 0.144-0.082 0.214l-1.828 5.257c-0.132 0.383-0.264 0.76-0.408 1.168-0.025-0.057-0.038-0.088-0.050-0.119-0.678-1.878-1.357-3.762-2.035-5.64-0.107-0.295-0.22-0.597-0.333-0.892-0.057-0.157-0.17-0.251-0.339-0.251-0.402-0.006-0.804-0.013-1.206-0.006-0.138 0-0.207 0.1-0.176 0.232zM15.224 12.471c0.107 0.735 0.477 1.306 1.13 1.671 0.622 0.345 1.3 0.389 1.991 0.289 0.798-0.119 1.501-0.458 2.123-0.973 0.025-0.019 0.050-0.038 0.088-0.063 0.031 0.201 0.057 0.389 0.094 0.578 0.031 0.163 0.132 0.27 0.283 0.276 0.289 0.006 0.572 0.006 0.86 0 0.145-0.006 0.239-0.1 0.251-0.245 0.006-0.050 0.006-0.1 0.006-0.145v-5.577c0-0.226-0.012-0.452-0.044-0.678-0.1-0.678-0.389-1.237-0.999-1.595-0.352-0.207-0.741-0.314-1.143-0.371-0.188-0.025-0.377-0.044-0.572-0.069h-0.628c-0.050 0.006-0.1 0.019-0.157 0.019-0.515 0.025-1.024 0.088-1.52 0.22-0.32 0.082-0.628 0.201-0.942 0.308-0.188 0.063-0.283 0.201-0.276 0.408 0.006 0.176-0.006 0.352 0 0.521 0.006 0.258 0.113 0.327 0.358 0.258 0.408-0.107 0.823-0.22 1.237-0.301 0.647-0.119 1.3-0.17 1.953-0.075 0.339 0.050 0.66 0.151 0.886 0.44 0.195 0.251 0.264 0.553 0.276 0.86 0.019 0.433 0.012 0.873 0.019 1.306 0 0.025-0.006 0.044-0.012 0.075-0.025 0-0.050 0-0.069-0.006-0.553-0.132-1.112-0.226-1.683-0.258-0.597-0.031-1.187 0.006-1.752 0.201-0.678 0.239-1.225 0.647-1.545 1.306-0.258 0.521-0.289 1.068-0.214 1.62zM6.199 6.247v11.010c0 0.050 0 0.107 0.006 0.157 0.013 0.157 0.107 0.258 0.258 0.264 0.371 0.006 0.741 0.006 1.112 0 0.157 0 0.251-0.107 0.258-0.258 0.006-0.050 0.006-0.107 0.006-0.157v-3.812c0.057 0.044 0.088 0.075 0.119 0.1 0.942 0.785 2.022 1.043 3.209 0.81 1.074-0.214 1.815-0.873 2.305-1.834 0.364-0.729 0.521-1.514 0.546-2.324 0.031-0.898-0.063-1.784-0.427-2.619-0.446-1.030-1.187-1.715-2.305-1.941-0.17-0.038-0.345-0.050-0.515-0.075h-0.44c-0.075 0.013-0.151 0.019-0.226 0.031-0.735 0.088-1.401 0.364-1.997 0.798-0.126 0.088-0.245 0.188-0.371 0.283-0.006-0.031-0.019-0.050-0.025-0.075-0.025-0.144-0.044-0.289-0.069-0.433-0.038-0.245-0.157-0.345-0.402-0.352h-0.609c-0.371-0.006-0.433 0.063-0.433 0.427zM31.001 20.824c-0.17-0.044-0.32 0-0.477 0.063-2.757 1.156-5.621 1.897-8.592 2.248-0.911 0.107-1.828 0.176-2.745 0.201-1.671 0.044-3.341-0.050-4.999-0.27-1.118-0.151-2.23-0.358-3.329-0.622-2.324-0.559-4.566-1.363-6.701-2.437-0.553-0.276-1.093-0.584-1.639-0.879-0.239-0.132-0.389-0.094-0.515 0.132v0.107c0.075 0.1 0.138 0.214 0.232 0.301 2.261 2.022 4.811 3.549 7.662 4.579 1.375 0.496 2.789 0.86 4.227 1.099 0.879 0.145 1.759 0.239 2.65 0.283 0.188 0.006 0.377 0.012 0.565 0.025 0.044 0 0.088 0.012 0.132 0.019h1.112c0.044-0.006 0.088-0.019 0.132-0.019 0.936-0.025 1.872-0.113 2.801-0.251 1.344-0.201 2.663-0.509 3.95-0.923 1.859-0.603 3.624-1.407 5.238-2.519 0.176-0.119 0.358-0.239 0.503-0.389 0.27-0.276 0.145-0.653-0.207-0.747zM34.167 19.085c-0.050-0.264-0.251-0.364-0.477-0.44-0.358-0.119-0.729-0.176-1.105-0.207-0.691-0.057-1.382-0.025-2.060 0.1-0.754 0.138-1.47 0.383-2.104 0.823-0.075 0.050-0.151 0.113-0.195 0.188-0.038 0.057-0.044 0.145-0.031 0.214 0.019 0.082 0.107 0.1 0.188 0.094 0.038 0 0.075 0 0.113-0.006l1.225-0.132c0.603-0.057 1.206-0.094 1.809-0.050 0.258 0.019 0.509 0.075 0.754 0.138 0.27 0.069 0.389 0.276 0.402 0.546 0.019 0.421-0.075 0.823-0.182 1.225-0.22 0.81-0.521 1.595-0.835 2.374-0.019 0.050-0.044 0.107-0.050 0.157-0.025 0.157 0.063 0.251 0.214 0.22 0.088-0.019 0.188-0.069 0.251-0.132 0.232-0.226 0.471-0.452 0.666-0.703 0.672-0.867 1.068-1.859 1.3-2.927 0.044-0.188 0.075-0.383 0.107-0.572 0.013-0.295 0.013-0.603 0.013-0.911z"></path>
</svg>
