<!-- Generated by IcoMoon.io -->
<svg version="1.1" xmlns="http://www.w3.org/2000/svg" width="36" height="32" viewBox="0 0 36 32">
<title>cc-apple-pay</title>
<path d="M18.98 13.25c0 1.080-0.66 1.702-1.821 1.702h-1.526v-3.404h1.532c1.156 0 1.815 0.615 1.815 1.702zM21.963 17.181c0 0.521 0.452 0.86 1.162 0.86 0.904 0 1.583-0.572 1.583-1.375v-0.484l-1.476 0.094c-0.835 0.057-1.269 0.364-1.269 0.904zM36.176 4.495v22.108c0 1.664-1.35 3.015-3.015 3.015h-30.147c-1.664 0-3.015-1.35-3.015-3.015v-22.108c0-1.664 1.35-3.015 3.015-3.015h30.147c1.664 0 3.015 1.35 3.015 3.015zM8.027 11.918c0.527 0.044 1.055-0.264 1.388-0.653 0.327-0.402 0.54-0.942 0.484-1.488-0.465 0.019-1.043 0.308-1.375 0.71-0.301 0.345-0.559 0.904-0.496 1.432zM11.833 16.597c-0.012-0.012-1.231-0.477-1.244-1.884-0.012-1.175 0.961-1.74 1.005-1.771-0.553-0.816-1.407-0.904-1.702-0.923-0.766-0.044-1.419 0.433-1.784 0.433-0.371 0-0.923-0.415-1.526-0.402-0.785 0.012-1.52 0.458-1.916 1.168-0.823 1.419-0.214 3.517 0.584 4.673 0.389 0.572 0.86 1.2 1.476 1.175 0.584-0.025 0.816-0.377 1.52-0.377 0.71 0 0.911 0.377 1.526 0.371 0.641-0.012 1.036-0.572 1.432-1.143 0.433-0.653 0.615-1.281 0.628-1.319zM20.337 13.244c0-1.671-1.162-2.814-2.82-2.814h-3.216v8.567h1.332v-2.927h1.84c1.683 0 2.864-1.156 2.864-2.826zM25.989 14.732c0-1.237-0.992-2.035-2.512-2.035-1.413 0-2.456 0.81-2.493 1.916h1.2c0.1-0.527 0.59-0.873 1.256-0.873 0.816 0 1.269 0.377 1.269 1.080v0.471l-1.658 0.1c-1.545 0.094-2.38 0.729-2.38 1.828 0 1.112 0.86 1.847 2.098 1.847 0.835 0 1.608-0.421 1.96-1.093h0.025v1.030h1.231v-4.271zM32.408 12.779h-1.35l-1.564 5.062h-0.025l-1.564-5.062h-1.401l2.255 6.237-0.119 0.377c-0.201 0.641-0.534 0.892-1.124 0.892-0.107 0-0.308-0.012-0.389-0.019v1.030c0.075 0.025 0.408 0.031 0.509 0.031 1.3 0 1.909-0.496 2.443-1.997l2.33-6.551z"></path>
</svg>
