<!-- Generated by IcoMoon.io -->
<svg version="1.1" xmlns="http://www.w3.org/2000/svg" width="36" height="32" viewBox="0 0 36 32">
<title>cc-amex</title>
<path d="M36.176 15.574c-2.38-0.012-2.776-0.057-3.423 0.314v-0.314c-2.845 0-3.36-0.107-4.076 0.327v-0.327h-4.911v0.32c-0.716-0.408-1.344-0.32-4.754-0.32v0.352c-0.396-0.232-0.911-0.352-1.526-0.352h-3.643c-0.22 0.239-0.785 0.86-0.986 1.080-0.798-0.886-0.66-0.729-0.973-1.080h-5.219v5.797h5.15c0.207-0.22 0.81-0.873 1.011-1.093 0.798 0.898 0.647 0.735 0.967 1.093h3.071c0-0.923 0.006-0.521 0.006-1.445 0.722 0.012 1.526-0.012 2.154-0.389 0 0.873-0.006 1.074-0.006 1.834h2.487c0-1.162 0.006-0.465 0.006-1.589 0.389 0 0.484 0 0.59 0.006 0.006 0.082 0 0 0 1.583 9.597 0 9.163 0.069 9.842-0.283v0.283c2.186 0 3.442 0.138 4.239-0.383v5.678c0 1.664-1.35 3.015-3.015 3.015h-30.153c-1.664 0-3.015-1.35-3.015-3.015v-12.794h1.671c0.264-0.634 0.138-0.333 0.402-0.961h1.206c0.264 0.628 0.138 0.327 0.402 0.961h3.322v-0.716c0.138 0.314 0.069 0.157 0.32 0.716h1.853c0.151-0.345 0.163-0.364 0.32-0.716v0.716h8.51v-1.576c0.402 0 0.503-0.006 0.615 0.012 0 0-0.012 0.685 0.006 1.558h4.177v-0.559c0.465 0.371 1.093 0.559 1.865 0.559h1.683c0.264-0.634 0.138-0.333 0.402-0.961h1.193c0.408 0.942 0.012 0.031 0.415 0.961h3.316v-1.375c0.741 1.237 0.49 0.81 0.829 1.375h2.613v-5.778h-2.506v1.156c-0.766-1.269-0.396-0.653-0.703-1.156h-2.72v1.294c-0.389-0.917-0.289-0.678-0.553-1.294h-2.035c-0.025 0-0.145 0.012-0.145-0.019h-1.733c-0.804 0-1.451 0.201-1.928 0.584v-0.584h-2.506v0.333c-0.678-0.383-1.3-0.32-4.045-0.333-0.006 0-0.729-0.006-0.729 0h-6.469c-0.157 0.383-0.427 1.030-0.791 1.884-0.176-0.377-0.691-1.495-0.873-1.884h-2.889v1.325c-0.465-1.093-0.295-0.691-0.565-1.325h-2.493c-0.214 0.496-0.86 2.010-1.451 3.385v-6.896c0-1.664 1.35-3.015 3.015-3.015h30.147c1.664 0 3.015 1.35 3.015 3.015v11.016zM24.457 10.511c-0.019 0.012-0.088 0.138-0.088 0.477 0 0.377 0.057 0.484 0.069 0.496 0.012 0.006 0.069 0.031 0.214 0.031l0.458-1.061c-0.069 0-0.132-0.006-0.195-0.006-0.352 0-0.44 0.044-0.458 0.063zM23.207 18.733c0.578 0.207 0.691 0.597 0.691 1.156l-0.006 0.867h-1.043l0.006-0.722c0-0.741-0.239-0.867-0.93-0.867h-1.105l-0.006 1.589h-1.043l0.006-4.352h2.475c0.816 0 1.702 0.145 1.702 1.175-0.006 0.477-0.264 0.961-0.747 1.156zM22.811 17.766c0-0.402-0.352-0.465-0.672-0.465h-1.319v0.98h1.3c0.352 0 0.691-0.082 0.691-0.515zM34.223 17.32h1.89v-0.917h-2.066c-0.804 0-1.495 0.415-1.495 1.3 0 2.073 2.682 0.804 2.682 1.721 0 0.32-0.27 0.402-0.528 0.402h-2.010l-0.006 0.93h2.010c0.528 0 1.105-0.113 1.413-0.559v-1.62c-0.66-0.867-2.468-0.082-2.468-0.848 0-0.364 0.289-0.408 0.578-0.408zM27.993 17.301v-0.898h-3.467l-0.006 4.352h3.467l0.006-0.898-2.424-0.019v-0.867h2.38v-0.886h-2.374v-0.785h2.418zM30.643 19.819h-2.022l-0.006 0.93h2.022c0.93 0 1.645-0.352 1.645-1.382 0-2.085-2.694-0.703-2.694-1.652 0-0.352 0.308-0.402 0.578-0.402h1.909v-0.917h-2.085c-0.804 0-1.476 0.415-1.476 1.3 0 2.073 2.682 0.785 2.682 1.721-0.006 0.339-0.295 0.402-0.553 0.402zM25.738 9.852c-1.093-0.019-2.085-0.258-2.085 1.237 0 0.741 0.176 1.25 1.011 1.25h0.465l1.476-3.423h1.558l1.752 4.107v-4.107h1.589l1.828 3.021v-3.021h1.061v4.334h-1.482l-1.96-3.26v3.26h-2.117l-0.415-0.961h-2.154l-0.402 0.961h-1.206c-1.432 0-2.073-0.741-2.073-2.135 0-1.463 0.66-2.217 2.135-2.217h1.011v0.955zM26.636 11.391h1.432l-0.703-1.733-0.729 1.733zM22.076 8.904h-1.061v4.352h1.061v-4.352zM19.683 11.246c0.597 0.207 0.691 0.578 0.691 1.156v0.848h-1.043c-0.019-0.93 0.226-1.576-0.93-1.576h-1.13v1.576h-1.030v-4.352l2.456 0.019c0.835 0 1.721 0.126 1.721 1.156 0.006 0.502-0.27 0.986-0.735 1.175zM19.263 10.285c0-0.402-0.352-0.465-0.672-0.465h-1.319v0.961h1.3c0.358 0 0.691-0.082 0.691-0.496zM15.526 9.821v-0.917h-3.486v4.352h3.486v-0.898h-2.443v-0.867h2.374v-0.886h-2.374v-0.785h2.443zM10.212 13.256v-3.404l-1.507 3.404h-0.917l-1.507-3.404v3.404h-2.123l-0.402-0.961h-2.167l-0.402 0.961h-1.124l1.865-4.352h1.539l1.765 4.126v-4.126h1.702l1.363 2.952 1.237-2.952h1.733v4.352h-1.055zM3.385 11.391l-0.722-1.733-0.703 1.733h1.426zM19.275 17.828c0 1.752-1.909 1.463-3.096 1.463l-0.006 1.463h-2.022l-1.281-1.445-1.338 1.445h-4.107l0.006-4.352h4.177l1.287 1.432 1.319-1.432h3.31c0.98 0 1.752 0.339 1.752 1.426zM12.197 18.57l-1.124-1.269h-2.619v0.785h2.28v0.886h-2.28v0.867h2.55l1.193-1.269zM15.136 16.867l-1.589 1.721 1.589 1.765v-3.486zM18.17 17.828c0-0.383-0.289-0.527-0.641-0.527h-1.35v1.105h1.331c0.371 0 0.66-0.176 0.66-0.578z"></path>
</svg>
