<!-- Generated by IcoMoon.io -->
<svg version="1.1" xmlns="http://www.w3.org/2000/svg" width="36" height="32" viewBox="0 0 36 32">
<title>cc-discover</title>
<path d="M5.213 12.854c0 0.496-0.201 0.973-0.559 1.3-0.308 0.276-0.729 0.402-1.375 0.402h-0.264v-3.404h0.264c0.647 0 1.049 0.107 1.375 0.415 0.358 0.314 0.559 0.791 0.559 1.287zM31.705 11.089h-0.308v1.564h0.295c0.647 0 0.992-0.276 0.992-0.804 0-0.496-0.345-0.76-0.98-0.76zM36.176 4.557v22.108c0 1.664-1.35 3.015-3.015 3.015h-30.147c-1.664 0-3.015-1.35-3.015-3.015v-22.108c0-1.664 1.35-3.015 3.015-3.015h30.147c1.664 0 3.015 1.35 3.015 3.015zM26.881 15.423h2.845v-0.867h-1.84v-1.394h1.777v-0.867h-1.777v-1.143h1.84v-0.879h-2.845v5.15zM21.467 10.273l2.198 5.288h0.54l2.23-5.288h-1.099l-1.394 3.467-1.375-3.467h-1.099zM16.254 12.886c0 1.545 1.25 2.801 2.801 2.801 1.545 0 2.801-1.25 2.801-2.801 0-1.545-1.25-2.801-2.801-2.801-1.545 0-2.801 1.25-2.801 2.801zM11.983 12.854c0 2.041 2.11 3.297 3.976 2.399v-1.193c-1.212 1.212-2.939 0.364-2.939-1.206 0-1.488 1.677-2.456 2.939-1.193v-1.193c-1.897-0.942-3.976 0.427-3.976 2.387zM9.854 14.632c-0.477 0-0.867-0.232-1.099-0.678l-0.647 0.622c1.118 1.639 3.555 1.143 3.555-0.71 0-0.823-0.339-1.193-1.482-1.608-0.603-0.214-0.772-0.371-0.772-0.647 0-0.546 0.911-0.886 1.564-0.157l0.527-0.678c-1.2-1.074-3.121-0.559-3.121 0.898 0 0.71 0.327 1.080 1.269 1.426 1.614 0.572 0.923 1.533 0.207 1.533zM6.249 12.854c0-1.514-1.13-2.581-2.77-2.581h-1.47v5.15h1.47c1.941 0 2.77-1.407 2.77-2.569zM7.719 10.273h-1.005v5.15h1.005v-5.15zM34.167 17.621c-2.091 1.306-14.219 7.813-26.127 10.049h25.185c0.515 0 0.942-0.427 0.942-0.942v-9.107zM34.167 15.423l-1.627-2.167c0.76-0.157 1.175-0.666 1.175-1.457 0-1.79-1.903-1.533-3.322-1.533v5.15h1.005v-2.060h0.138l1.394 2.060h1.237z"></path>
</svg>
