<!-- Generated by IcoMoon.io -->
<svg version="1.1" xmlns="http://www.w3.org/2000/svg" width="36" height="32" viewBox="0 0 36 32">
<title>cc-diners-club</title>
<path d="M15.055 4.551c-6.086 0-11.041 4.937-11.041 11.041 0 6.086 4.955 11.041 11.041 11.041 6.105 0 11.041-4.955 11.041-11.041 0-6.105-4.937-11.041-11.041-11.041zM12.549 22.112c-2.619-0.999-4.484-3.542-4.484-6.519s1.865-5.521 4.484-6.538v13.057zM17.561 22.131v-13.076c2.619 1.018 4.484 3.561 4.484 6.538s-1.865 5.521-4.484 6.538zM33.162 1.543h-30.147c-1.664 0-3.015 1.35-3.015 3.015v22.108c0 1.664 1.35 3.015 3.015 3.015h30.147c1.664 0 3.015-1.35 3.015-3.015v-22.108c0-1.664-1.35-3.015-3.015-3.015zM20.707 27.67h-5.671c-6.67 0-12.172-5.37-12.172-11.946 0-7.198 5.502-12.172 12.172-12.172h5.671c6.595 0 12.605 4.974 12.605 12.172 0 6.576-6.011 11.946-12.605 11.946z"></path>
</svg>
