<!-- Generated by IcoMoon.io -->
<svg version="1.1" xmlns="http://www.w3.org/2000/svg" width="36" height="32" viewBox="0 0 36 32">
<title>cc-jcb</title>
<path d="M27.101 14.877v-2.029c2.588 0 2.418 0.012 2.418 0.012 0.458 0.082 0.835 0.458 0.835 1.005 0 0.553-0.377 0.911-0.835 0.992-0.075 0.025-0.207 0.019-2.418 0.019zM29.789 16.145c-0.176-0.044-0.207-0.031-2.688-0.031v2.198c2.487 0 2.512 0.012 2.688-0.031 0.471-0.094 0.848-0.503 0.848-1.068 0-0.546-0.377-0.973-0.848-1.068zM36.176 4.557v22.108c0 1.664-1.35 3.015-3.015 3.015h-30.147c-1.664 0-3.015-1.35-3.015-3.015v-22.108c0-1.664 1.35-3.015 3.015-3.015h30.147c1.664 0 3.015 1.35 3.015 3.015zM11.431 11.611h-3.58c0 4.214 0.672 6.89-2.248 6.89-1.225 0-2.437-0.358-3.592-0.93v1.759c1.884 0.521 4.271 0.521 4.271 0.521 6.149 0 5.15-2.996 5.15-8.24zM22.642 11.893c-3.982-1.005-10.363-0.936-10.363 3.724 0 4.842 6.796 4.622 10.363 3.718v-1.777c-2.99 1.551-6.752 1.382-6.752-1.947s3.756-3.492 6.752-1.96v-1.759zM34.167 17.527c0-1.162-1.036-1.916-2.387-2.010v-0.050c1.225-0.17 1.903-0.973 1.903-1.897 0-1.193-0.986-1.884-2.324-1.947 0 0 0.396-0.019-7.556-0.019v8.008h7.706c1.526 0.006 2.657-0.81 2.657-2.085z"></path>
</svg>
