<!-- Generated by IcoMoon.io -->
<svg version="1.1" xmlns="http://www.w3.org/2000/svg" width="36" height="32" viewBox="0 0 36 32">
<title>cc-paypal</title>
<path d="M11.701 15.75c0 0.766-0.609 1.35-1.382 1.35-0.578 0-1.005-0.327-1.005-0.942 0-0.766 0.597-1.382 1.363-1.382 0.584 0 1.024 0.358 1.024 0.973zM5.056 12.703h-0.295c-0.094 0-0.188 0.063-0.201 0.17l-0.27 1.677 0.515-0.019c0.691 0 1.225-0.094 1.35-0.892 0.144-0.842-0.389-0.936-1.099-0.936zM22.893 12.703h-0.283c-0.113 0-0.188 0.063-0.201 0.17l-0.264 1.677 0.503-0.019c0.816 0 1.382-0.188 1.382-1.13-0.006-0.666-0.603-0.697-1.137-0.697zM36.176 4.557v22.108c0 1.664-1.35 3.015-3.015 3.015h-30.147c-1.664 0-3.015-1.35-3.015-3.015v-22.108c0-1.664 1.35-3.015 3.015-3.015h30.147c1.664 0 3.015 1.35 3.015 3.015zM8.058 13.061c0-1.319-1.018-1.759-2.179-1.759h-2.512c-0.157 0-0.314 0.126-0.327 0.295l-1.030 6.412c-0.019 0.126 0.075 0.251 0.201 0.251h1.193c0.17 0 0.327-0.182 0.345-0.358l0.283-1.671c0.063-0.452 0.829-0.295 1.13-0.295 1.796 0 2.895-1.068 2.895-2.877zM13.346 13.614h-1.193c-0.239 0-0.251 0.345-0.264 0.515-0.364-0.534-0.892-0.628-1.488-0.628-1.539 0-2.713 1.35-2.713 2.839 0 1.225 0.766 2.022 1.991 2.022 0.565 0 1.269-0.308 1.664-0.747-0.031 0.094-0.063 0.295-0.063 0.389 0 0.145 0.063 0.251 0.201 0.251h1.080c0.17 0 0.314-0.182 0.345-0.358l0.641-4.038c0.019-0.119-0.075-0.245-0.201-0.245zM15.89 19.763l4.001-5.816c0.031-0.031 0.031-0.063 0.031-0.107 0-0.107-0.094-0.22-0.201-0.22h-1.206c-0.107 0-0.22 0.063-0.283 0.157l-1.664 2.449-0.691-2.355c-0.050-0.138-0.188-0.251-0.345-0.251h-1.175c-0.107 0-0.201 0.113-0.201 0.22 0 0.075 1.225 3.567 1.332 3.9-0.17 0.239-1.287 1.796-1.287 1.985 0 0.113 0.094 0.201 0.201 0.201h1.206c0.113-0.006 0.22-0.069 0.283-0.163zM25.895 13.061c0-1.319-1.018-1.759-2.179-1.759h-2.493c-0.17 0-0.327 0.126-0.345 0.295l-1.017 6.406c-0.012 0.126 0.082 0.251 0.201 0.251h1.288c0.126 0 0.22-0.094 0.251-0.201l0.283-1.821c0.063-0.452 0.829-0.295 1.13-0.295 1.784 0 2.883-1.068 2.883-2.877zM31.183 13.614h-1.193c-0.239 0-0.251 0.345-0.27 0.515-0.345-0.534-0.879-0.628-1.488-0.628-1.539 0-2.713 1.35-2.713 2.839 0 1.225 0.766 2.022 1.991 2.022 0.584 0 1.288-0.308 1.664-0.747-0.019 0.094-0.063 0.295-0.063 0.389 0 0.145 0.063 0.251 0.201 0.251h1.087c0.17 0 0.314-0.182 0.345-0.358l0.641-4.038c0.019-0.119-0.075-0.245-0.201-0.245zM34.167 11.523c0-0.126-0.094-0.22-0.201-0.22h-1.162c-0.094 0-0.188 0.075-0.201 0.17l-1.017 6.532-0.019 0.031c0 0.113 0.094 0.22 0.22 0.22h1.036c0.157 0 0.314-0.182 0.327-0.358l1.017-6.356v-0.019zM28.514 14.776c-0.766 0-1.363 0.609-1.363 1.382 0 0.609 0.44 0.942 1.017 0.942 0.754 0 1.363-0.578 1.363-1.35 0.006-0.615-0.433-0.973-1.017-0.973z"></path>
</svg>
