<!-- Generated by IcoMoon.io -->
<svg version="1.1" xmlns="http://www.w3.org/2000/svg" width="36" height="32" viewBox="0 0 36 32">
<title>cc-stripe</title>
<path d="M24.928 15.643c0 1.2-0.553 2.098-1.375 2.098-0.521 0-0.835-0.188-1.055-0.421l-0.012-3.316c0.232-0.258 0.553-0.44 1.068-0.44 0.81-0.006 1.375 0.911 1.375 2.079zM36.176 4.557v22.108c0 1.664-1.35 3.015-3.015 3.015h-30.147c-1.664 0-3.015-1.35-3.015-3.015v-22.108c0-1.664 1.35-3.015 3.015-3.015h30.147c1.664 0 3.015 1.35 3.015 3.015zM7.675 17.188c0-2.657-3.41-2.179-3.41-3.184 0-0.345 0.289-0.484 0.76-0.484 0.678 0 1.539 0.207 2.217 0.572v-2.098c-0.741-0.295-1.476-0.408-2.217-0.408-1.809 0-3.015 0.942-3.015 2.525 0 2.468 3.392 2.066 3.392 3.134 0 0.415-0.358 0.546-0.854 0.546-0.741 0-1.69-0.308-2.443-0.71v2.129c0.829 0.358 1.671 0.509 2.437 0.509 1.859-0.012 3.134-0.923 3.134-2.531zM12.002 11.73h-1.696v-1.934l-2.179 0.465-0.012 7.154c0 1.319 0.992 2.292 2.317 2.292 0.729 0 1.269-0.132 1.564-0.295v-1.815c-0.283 0.113-1.696 0.521-1.696-0.791v-3.172h1.696v-1.903zM16.637 11.73c-0.295-0.107-1.338-0.301-1.859 0.66l-0.138-0.66h-1.928v7.819h2.23v-5.301c0.527-0.691 1.419-0.559 1.702-0.465v-2.054zM19.413 11.73h-2.242v7.819h2.242v-7.819zM19.413 8.759l-2.242 0.477v1.815l2.242-0.477v-1.815zM27.12 15.593c0-2.594-1.476-4.007-3.040-4.007-0.873 0-1.438 0.415-1.746 0.697l-0.113-0.553h-1.966v10.413l2.23-0.471 0.006-2.525c0.32 0.232 0.798 0.565 1.576 0.565 1.595-0.006 3.052-1.288 3.052-4.12zM34.167 15.668c0-2.286-1.105-4.089-3.222-4.089-2.123 0-3.41 1.803-3.41 4.076 0 2.688 1.52 4.051 3.693 4.051 1.068 0 1.865-0.245 2.475-0.578v-1.796c-0.609 0.308-1.306 0.496-2.192 0.496-0.867 0-1.633-0.308-1.733-1.35h4.365c0.006-0.126 0.025-0.59 0.025-0.81zM30.926 13.401c-0.559 0-1.175 0.421-1.175 1.426h2.305c0-1.005-0.584-1.426-1.13-1.426z"></path>
</svg>
