<!-- Generated by IcoMoon.io -->
<svg version="1.1" xmlns="http://www.w3.org/2000/svg" width="36" height="32" viewBox="0 0 36 32">
<title>cc-visa</title>
<path d="M29.525 14.060s0.477 2.336 0.584 2.826h-2.098c0.207-0.559 1.005-2.732 1.005-2.732-0.012 0.019 0.207-0.572 0.333-0.936l0.176 0.842zM36.176 4.557v22.108c0 1.664-1.35 3.015-3.015 3.015h-30.147c-1.664 0-3.015-1.35-3.015-3.015v-22.108c0-1.664 1.35-3.015 3.015-3.015h30.147c1.664 0 3.015 1.35 3.015 3.015zM9.578 20.334l3.969-9.748h-2.669l-2.468 6.657-0.27-1.35-0.879-4.484c-0.144-0.622-0.59-0.798-1.143-0.823h-4.064l-0.044 0.195c0.992 0.251 1.878 0.615 2.65 1.074l2.248 8.479h2.669zM15.507 20.347l1.583-9.76h-2.525l-1.576 9.76h2.519zM24.293 17.156c0.012-1.112-0.666-1.96-2.117-2.657-0.886-0.446-1.426-0.747-1.426-1.206 0.012-0.415 0.458-0.842 1.451-0.842 0.823-0.019 1.426 0.176 1.878 0.371l0.226 0.107 0.345-2.11c-0.496-0.195-1.288-0.415-2.261-0.415-2.493 0-4.246 1.332-4.258 3.228-0.019 1.401 1.256 2.179 2.211 2.65 0.973 0.477 1.306 0.791 1.306 1.212-0.012 0.653-0.791 0.955-1.514 0.955-1.005 0-1.545-0.157-2.368-0.521l-0.333-0.157-0.352 2.192c0.59 0.27 1.683 0.509 2.814 0.521 2.65 0.006 4.378-1.306 4.396-3.329zM33.162 20.347l-2.035-9.76h-1.953c-0.603 0-1.061 0.176-1.319 0.81l-3.75 8.95h2.65s0.433-1.206 0.527-1.463h3.241c0.075 0.345 0.301 1.463 0.301 1.463h2.336z"></path>
</svg>
