<!-- Generated by IcoMoon.io -->
<svg version="1.1" xmlns="http://www.w3.org/2000/svg" width="32" height="32" viewBox="0 0 32 32">
<title>cdr-file-format-symbol</title>
<path d="M15.347 23.409c-0.368 0-0.607 0.033-0.747 0.065v4.776c0.141 0.033 0.369 0.033 0.574 0.033 1.494 0.010 2.469-0.812 2.469-2.556 0.011-1.516-0.877-2.318-2.296-2.318zM22.865 23.366c-0.401 0-0.628 0.033-0.747 0.054v2.015h0.65c0.823 0 1.31-0.413 1.31-1.051 0-0.672-0.455-1.008-1.213-1.018zM27.737 7.239c-0.002-0.147-0.049-0.293-0.151-0.408l-6.199-7.082c-0.002-0.002-0.004-0.003-0.005-0.004-0.037-0.042-0.080-0.075-0.126-0.105-0.013-0.009-0.027-0.017-0.041-0.025-0.039-0.022-0.081-0.039-0.124-0.052-0.012-0.003-0.022-0.008-0.034-0.011-0.047-0.011-0.095-0.018-0.145-0.018h-15.237c-0.695 0-1.261 0.566-1.261 1.261v29.635c0 0.695 0.566 1.261 1.261 1.261h20.807c0.695 0 1.261-0.566 1.261-1.261v-23.119c-0-0.024-0.004-0.047-0.006-0.071zM10.234 28.24c0.498 0 1.051-0.108 1.376-0.239l0.249 1.289c-0.304 0.152-0.986 0.314-1.874 0.314-2.524 0-3.824-1.571-3.824-3.65 0-2.492 1.777-3.878 3.986-3.878 0.855 0 1.505 0.173 1.798 0.325l-0.336 1.311c-0.335-0.14-0.801-0.27-1.386-0.27-1.311 0-2.329 0.791-2.329 2.415-0 1.462 0.866 2.384 2.339 2.384zM18.185 28.63c-0.768 0.64-1.938 0.943-3.369 0.943-0.855 0-1.462-0.054-1.873-0.108v-7.17c0.607-0.098 1.397-0.152 2.231-0.152 1.386 0 2.285 0.249 2.989 0.78 0.758 0.563 1.235 1.463 1.235 2.752 0 1.397-0.509 2.361-1.213 2.956zM24.305 29.496c-0.119-0.206-0.292-0.802-0.509-1.701-0.195-0.911-0.509-1.16-1.181-1.17h-0.497v2.87h-1.635v-7.202c0.531-0.086 1.321-0.152 2.199-0.152 1.083 0 1.841 0.162 2.361 0.574 0.433 0.347 0.671 0.856 0.671 1.527 0 0.932-0.661 1.571-1.289 1.799v0.032c0.509 0.206 0.791 0.693 0.975 1.365 0.228 0.823 0.455 1.776 0.596 2.058h-1.691zM5.675 20.944v-20.15h14.607v6.452c0 0.348 0.283 0.631 0.631 0.631h5.57v13.068h-20.807zM14.504 15.79l-2.448-2.448 5.589-5.589-0.393-0.393-5.981 5.982 0.004 0.004c-0.062 0.059-0.108 0.134-0.127 0.216l-0.786 3.408c-0.033 0.145 0.009 0.296 0.115 0.401s0.256 0.149 0.401 0.115l3.408-0.787c0.079-0.018 0.151-0.058 0.208-0.115 0.003-0.003 0.006-0.007 0.009-0.011l0.002 0.003 5.982-5.982-0.393-0.393-5.589 5.589zM14.191 16.289l-2.15 0.496-0.98-0.98 0.496-2.15c0-0.002 0.001-0.003 0.002-0.005l0.004-0.003c0.003-0.001 0.007 0 0.009 0.003l2.622 2.622c0.003 0.002 0.004 0.006 0.003 0.009l0.019 0.006 0.008 0.008-0.035-0.007zM18.869 8.978l-5.018 5.017-0.808-0.808 5.017-5.018 0.808 0.808z"></path>
</svg>
