<!-- Generated by IcoMoon.io -->
<svg version="1.1" xmlns="http://www.w3.org/2000/svg" width="28" height="32" viewBox="0 0 28 32">
<title>centos</title>
<path d="M18.189 5.675l1.985 1.991-4.792 4.805v-6.796h2.807zM7.989 7.666l4.792 4.805v-6.796h-2.807l-1.985 1.991zM10.595 5.054h2.807v8.033l0.678 0.678 0.678-0.678v-8.033h2.807l-3.486-3.492-3.486 3.492zM12.241 15.611l-0.678-0.678h-8.077v-2.814l-3.486 3.492 3.486 3.492v-2.814h8.077l0.678-0.678zM17.221 14.311h6.777v-2.814l-1.985-1.991-4.792 4.805zM28.106 15.611l-3.486-3.492v2.814h-8.020l-0.678 0.678 0.678 0.678h8.020v2.814l3.486-3.492zM4.107 10.618l2.041-1.991 5.671 5.684h0.961v-0.961l-5.671-5.684 1.985-1.991h-4.987v4.943zM23.998 5.675h-4.93l1.985 1.991-5.671 5.684v0.961h0.961l5.671-5.684 1.985 1.991v-4.943zM12.781 25.547v-6.789l-4.792 4.805 1.985 1.991h2.807zM4.107 14.311h6.833l-4.792-4.805-2.041 1.991v2.814zM23.998 20.604l-1.985 1.991-5.671-5.684h-0.961v0.961l5.671 5.684-1.985 1.991h4.93v-4.943zM23.998 16.911h-6.777l4.792 4.805 1.985-1.991v-2.814zM20.173 23.556l-4.792-4.805v6.789h2.807l1.985-1.985zM6.149 21.716l4.792-4.805h-6.833v2.814l2.041 1.991zM17.567 26.169h-2.807v-8.033l-0.678-0.678-0.678 0.678v8.033h-2.807l3.486 3.492 3.486-3.492zM7.11 23.556l5.671-5.684v-0.961h-0.961l-5.671 5.684-2.041-1.991v4.943h4.987l-1.985-1.991z"></path>
</svg>
