<!-- Generated by IcoMoon.io -->
<svg version="1.1" xmlns="http://www.w3.org/2000/svg" width="32" height="32" viewBox="0 0 32 32">
<title>cer-file-format</title>
<path d="M21.631 23.689c-0.377 0-0.59 0.031-0.703 0.051v1.893h0.611c0.774 0 1.232-0.387 1.232-0.987 0-0.631-0.428-0.947-1.14-0.957zM27.737 7.239c-0.002-0.148-0.049-0.293-0.15-0.408l-6.201-7.082c-0.001-0.002-0.003-0.002-0.005-0.004-0.037-0.041-0.079-0.075-0.125-0.105-0.013-0.009-0.027-0.017-0.041-0.025-0.040-0.022-0.081-0.039-0.125-0.052-0.012-0.004-0.022-0.008-0.033-0.011-0.047-0.011-0.096-0.018-0.145-0.018h-15.238c-0.695 0-1.261 0.566-1.261 1.261v29.635c0 0.695 0.566 1.261 1.261 1.261h20.807c0.696 0 1.261-0.566 1.261-1.261v-23.119c0-0.024-0.004-0.047-0.006-0.071zM11.411 28.271c0.469 0 0.988-0.102 1.293-0.224l0.234 1.212c-0.285 0.142-0.927 0.296-1.761 0.296-2.372 0-3.594-1.476-3.594-3.431 0-2.342 1.67-3.645 3.747-3.645 0.804 0 1.415 0.163 1.69 0.305l-0.315 1.232c-0.316-0.133-0.754-0.255-1.303-0.255-1.232 0-2.189 0.743-2.189 2.27-0 1.374 0.813 2.239 2.198 2.239zM18.333 29.452h-4.378v-6.862h4.235v1.273h-2.678v1.425h2.525v1.262h-2.525v1.629h2.82v1.273zM22.985 29.452c-0.112-0.194-0.275-0.753-0.478-1.599-0.184-0.855-0.479-1.090-1.11-1.099h-0.469v2.698h-1.537v-6.77c0.499-0.082 1.242-0.143 2.067-0.143 1.018 0 1.73 0.153 2.219 0.539 0.408 0.326 0.631 0.804 0.631 1.436 0 0.875-0.621 1.476-1.211 1.689v0.032c0.478 0.193 0.743 0.651 0.916 1.282 0.214 0.773 0.427 1.669 0.559 1.935l-1.587-0zM5.675 20.945v-20.151h14.607v6.452c0 0.348 0.282 0.631 0.631 0.631h5.569l0.001 13.068h-20.808zM21.060 8.392c0-0.376-0.197-0.704-0.492-0.892 0.174-0.285 0.212-0.646 0.069-0.974l-0.176-0.405c-0.111-0.256-0.314-0.443-0.552-0.546-0.011-0.254-0.111-0.506-0.305-0.701l-0.312-0.312c-0.251-0.251-0.596-0.347-0.921-0.294-0.066-0.345-0.299-0.651-0.651-0.789l-0.411-0.162c-0.29-0.113-0.597-0.087-0.857 0.041-0.184-0.155-0.418-0.253-0.678-0.253h-0.442c-0.326 0-0.614 0.151-0.809 0.383-0.291-0.2-0.674-0.252-1.021-0.1l-0.405 0.176c-0.306 0.134-0.512 0.396-0.594 0.695-0.251 0.014-0.497 0.113-0.688 0.304l-0.312 0.312c-0.217 0.217-0.317 0.505-0.307 0.789-0.326 0.077-0.61 0.306-0.741 0.642l-0.162 0.411c-0.123 0.313-0.082 0.648 0.074 0.918-0.198 0.192-0.322 0.46-0.322 0.758v0.441c0 0.312 0.137 0.59 0.352 0.783-0.14 0.274-0.166 0.603-0.033 0.907l0.176 0.405c0.128 0.295 0.376 0.497 0.661 0.585-0.026 0.3 0.072 0.609 0.302 0.839l0.312 0.312c0.236 0.237 0.558 0.334 0.868 0.299 0.103 0.268 0.31 0.494 0.598 0.608l0.064 0.026-2.876 4.823 2.189-1.2c0 0 0.565 3.566 0.565 3.46 0-0.085 1.308-4.787 1.815-6.602 0.093 0.028 0.191 0.044 0.294 0.044h0.184l2.155 5.746v-3.001l2.083 1.412-1.886-4.777 0.035-0.015c0.245-0.107 0.425-0.298 0.532-0.522 0.305 0.032 0.622-0.065 0.857-0.3l0.312-0.312c0.269-0.269 0.36-0.646 0.279-0.991 0.293-0.094 0.543-0.309 0.663-0.616l0.162-0.411c0.095-0.242 0.090-0.497 0.013-0.726 0.207-0.193 0.34-0.468 0.34-0.774v-0.441h-0zM15.553 12.381c-2.082 0-3.769-1.688-3.769-3.769s1.687-3.769 3.769-3.769c2.081 0 3.768 1.687 3.768 3.769s-1.687 3.769-3.768 3.769z"></path>
</svg>
