<!-- Generated by IcoMoon.io -->
<svg version="1.1" xmlns="http://www.w3.org/2000/svg" width="32" height="32" viewBox="0 0 32 32">
<title>certificate</title>
<path d="M28.804 15.606l2.888-2.827c0.861-0.815 0.459-2.264-0.67-2.534l-3.935-1.004 1.109-3.895c0.314-1.12-0.743-2.177-1.863-1.864l-3.894 1.11-1.004-3.936c-0.266-1.112-1.73-1.518-2.533-0.67l-2.826 2.911-2.826-2.911c-0.793-0.839-2.264-0.454-2.533 0.67l-1.004 3.936-3.894-1.11c-1.12-0.314-2.176 0.743-1.863 1.863l1.109 3.895-3.935 1.004c-1.13 0.27-1.53 1.719-0.67 2.533l2.888 2.827-2.888 2.827c-0.861 0.815-0.459 2.264 0.67 2.534l3.935 1.004-1.109 3.895c-0.313 1.12 0.743 2.177 1.863 1.863l3.894-1.11 1.004 3.936c0.279 1.167 1.739 1.508 2.533 0.67l2.826-2.889 2.826 2.889c0.785 0.847 2.26 0.47 2.533-0.67l1.004-3.936 3.894 1.11c1.12 0.314 2.176-0.743 1.863-1.863l-1.109-3.895 3.935-1.004c1.13-0.27 1.53-1.719 0.67-2.534l-2.888-2.826z"></path>
</svg>
