<!-- Generated by IcoMoon.io -->
<svg version="1.1" xmlns="http://www.w3.org/2000/svg" width="32" height="32" viewBox="0 0 32 32">
<title>cfg-file-format-symbol</title>
<path d="M27.737 7.239c-0.002-0.148-0.049-0.293-0.15-0.408l-6.2-7.082c-0.001-0.002-0.003-0.002-0.005-0.004-0.037-0.041-0.079-0.075-0.125-0.105-0.013-0.009-0.027-0.017-0.041-0.025-0.040-0.021-0.081-0.039-0.124-0.052-0.012-0.004-0.022-0.008-0.034-0.011-0.047-0.011-0.095-0.018-0.145-0.018h-15.238c-0.695 0-1.261 0.566-1.261 1.261v29.635c0 0.696 0.566 1.261 1.261 1.261h20.807c0.696 0 1.261-0.566 1.261-1.261v-23.119c-0-0.024-0.004-0.047-0.006-0.070zM10.931 28.309c0.491 0 1.036-0.107 1.356-0.235l0.246 1.271c-0.298 0.15-0.972 0.309-1.847 0.309-2.488 0-3.77-1.549-3.77-3.599 0-2.456 1.752-3.823 3.93-3.823 0.844 0 1.485 0.171 1.773 0.32l-0.331 1.292c-0.331-0.139-0.79-0.267-1.367-0.267-1.292 0-2.296 0.78-2.296 2.382 0 1.441 0.854 2.349 2.307 2.349zM18.001 23.685h-2.766v1.644h2.585v1.324h-2.585v2.894h-1.634v-7.198h4.399v1.335zM25.242 29.217c-0.502 0.17-1.453 0.406-2.403 0.406-1.313 0-2.264-0.331-2.926-0.972-0.662-0.619-1.025-1.559-1.014-2.616 0.010-2.392 1.751-3.759 4.111-3.759 0.929 0 1.645 0.181 1.997 0.352l-0.342 1.303c-0.395-0.171-0.886-0.31-1.677-0.31-1.356 0-2.381 0.769-2.381 2.328 0 1.485 0.929 2.36 2.264 2.36 0.374 0 0.672-0.042 0.8-0.107v-1.506h-1.11v-1.271h2.68v3.791h0zM5.675 20.945v-20.151h14.607v6.452c0 0.348 0.282 0.631 0.631 0.631h5.569l0.001 13.068h-20.808zM21.010 13.681l0.665-2.221c0.023-0.077 0.027-0.154 0.017-0.229l0.172-0.528c0.026-0.087-0.009-0.166-0.073-0.231 0.008-0.017 0.020-0.030 0.026-0.049 0.042-0.133-0.033-0.275-0.167-0.317l-0.225-0.071c-0.133-0.041-0.276 0.033-0.317 0.167-0.005 0.013-0.003 0.027-0.005 0.040-0.083 0.013-0.15 0.048-0.175 0.13l-0.156 0.548c-0.062 0.061-0.111 0.137-0.138 0.227l-0.666 2.221c-0.035 0.115-0.027 0.232 0.010 0.337l-0.905 3.177c-0.060 0.196-0.174 1.067 0.022 1.127s0.629-0.714 0.688-0.91l1.018-3.136c0.095-0.066 0.171-0.163 0.207-0.284zM9.304 7.349l8.006-2.983 2.624 7.043c0.036-0.091 0.079-0.179 0.137-0.259l0.12-0.418c0.023-0.075 0.057-0.144 0.097-0.207l-2.602-6.983-9.207 3.43 4.466 11.986 5.484-2.043 0.218-0.765-5.326 1.985-4.018-10.786zM21.605 14.058l-0.102 0.342c-0.052 0.174-0.142 0.33-0.264 0.461l-0.009 0.027 0.099 0.264-0.209 0.078-0.253 0.778 1.287-0.48-0.548-1.47zM16.556 10.812c0.054-0.061 0.127-0.097 0.204-0.102l0.055-0.004 0.063 0.020c0.049 0.018 0.090 0.013 0.125-0.004 0.038-0.018 0.067-0.053 0.079-0.092 0.035-0.112 0.131-0.189 0.245-0.204l-0.014-0.214c-0.002-0.023-0.018-0.043-0.039-0.050-0.233-0.073-0.428-0.241-0.536-0.459s-0.123-0.477-0.041-0.706c0.008-0.021 0.002-0.046-0.015-0.060l-0.519-0.453c-0.029-0.025-0.047-0.015-0.062-0.007-0.214 0.112-0.473 0.133-0.704 0.054-0.231-0.078-0.423-0.25-0.528-0.471-0.009-0.020-0.031-0.033-0.054-0.031l-0.686 0.046c-0.023 0.001-0.042 0.017-0.050 0.038-0.073 0.233-0.241 0.429-0.459 0.537s-0.477 0.123-0.707 0.039c-0.014-0.004-0.035-0.012-0.060 0.016l-0.454 0.518c-0.015 0.017-0.018 0.043-0.007 0.063 0.113 0.217 0.132 0.473 0.054 0.705s-0.249 0.423-0.471 0.527c-0.021 0.010-0.033 0.031-0.032 0.054l0.046 0.687c0.001 0.023 0.017 0.042 0.038 0.049 0.233 0.073 0.428 0.241 0.538 0.46 0.108 0.218 0.122 0.477 0.039 0.706-0.007 0.021-0.001 0.046 0.016 0.060l0.518 0.454c0.028 0.025 0.047 0.015 0.062 0.007 0.11-0.058 0.231-0.091 0.356-0.1 0.12-0.008 0.236 0.007 0.349 0.046 0.231 0.078 0.423 0.249 0.527 0.471 0.010 0.020 0.031 0.033 0.054 0.032l0.687-0.046c0.023-0.002 0.043-0.017 0.049-0.038 0.074-0.233 0.241-0.429 0.46-0.537 0.214-0.105 0.462-0.121 0.687-0.046 0.001-0.029 0.007-0.058 0.017-0.086 0.015-0.041 0.012-0.086-0.006-0.123-0.018-0.036-0.052-0.065-0.092-0.078-0.119-0.039-0.2-0.143-0.208-0.266l-0.021-0.325c-0.008-0.123 0.058-0.237 0.169-0.29 0.039-0.019 0.070-0.052 0.083-0.091s0.009-0.084-0.009-0.12c-0.057-0.11-0.040-0.244 0.040-0.337l0.215-0.246zM14.74 12.069c-0.736 0.049-1.375-0.51-1.424-1.247s0.509-1.376 1.246-1.425c0.737-0.049 1.376 0.511 1.425 1.247s-0.51 1.376-1.247 1.425zM18.771 11.632c-0.11-0.035-0.203-0.114-0.254-0.218s-0.059-0.226-0.019-0.335c0.004-0.010 0.001-0.021-0.007-0.029l-0.245-0.215c-0.014-0.012-0.023-0.007-0.030-0.004-0.101 0.053-0.225 0.063-0.334 0.026s-0.201-0.119-0.25-0.223c-0.004-0.009-0.015-0.016-0.025-0.015l-0.326 0.022c-0.010 0.001-0.020 0.008-0.023 0.018-0.035 0.11-0.115 0.204-0.218 0.255s-0.226 0.058-0.334 0.019c-0.007-0.002-0.017-0.006-0.029 0.008l-0.216 0.245c-0.006 0.008-0.008 0.021-0.004 0.030 0.054 0.102 0.062 0.224 0.026 0.334-0.038 0.11-0.118 0.2-0.223 0.25-0.010 0.004-0.017 0.015-0.016 0.026l0.022 0.325c0.001 0.011 0.008 0.020 0.019 0.023 0.11 0.035 0.203 0.114 0.254 0.218 0.052 0.103 0.059 0.226 0.020 0.335-0.004 0.010-0.001 0.021 0.006 0.029l0.246 0.215c0.013 0.012 0.022 0.007 0.029 0.003 0.052-0.027 0.11-0.043 0.169-0.047 0.056-0.004 0.112 0.004 0.164 0.022 0.11 0.036 0.202 0.119 0.25 0.223 0.005 0.010 0.015 0.015 0.026 0.015l0.325-0.022c0.010-0.001 0.020-0.008 0.023-0.018 0.035-0.111 0.114-0.204 0.218-0.255s0.226-0.058 0.335-0.019c0.007 0.002 0.017 0.006 0.028-0.007l0.215-0.246c0.007-0.008 0.008-0.020 0.004-0.030-0.054-0.102-0.063-0.224-0.026-0.334s0.118-0.2 0.223-0.25c0.010-0.005 0.016-0.015 0.015-0.026l-0.021-0.325c-0.001-0.011-0.008-0.020-0.019-0.023zM17.57 12.536c-0.349 0.024-0.651-0.242-0.675-0.591-0.023-0.348 0.242-0.652 0.591-0.676 0.348-0.023 0.651 0.243 0.675 0.591s-0.241 0.652-0.591 0.675z"></path>
</svg>
