<!-- Generated by IcoMoon.io -->
<svg version="1.1" xmlns="http://www.w3.org/2000/svg" width="32" height="32" viewBox="0 0 32 32">
<title>cfm-file-format-symbol</title>
<path d="M27.737 7.239c-0.002-0.148-0.049-0.293-0.15-0.408l-6.201-7.082c-0.001-0.002-0.003-0.002-0.005-0.004-0.037-0.041-0.079-0.075-0.125-0.105-0.013-0.009-0.027-0.017-0.041-0.025-0.040-0.022-0.081-0.039-0.125-0.052-0.012-0.004-0.022-0.008-0.034-0.011-0.047-0.011-0.096-0.018-0.145-0.018h-15.238c-0.695 0-1.261 0.566-1.261 1.261v29.635c0 0.696 0.566 1.261 1.261 1.261h20.807c0.696 0 1.261-0.566 1.261-1.261v-23.119c0-0.024-0.004-0.047-0.006-0.070zM10.673 28.161c0.446 0 0.94-0.097 1.23-0.213l0.223 1.152c-0.271 0.136-0.882 0.281-1.675 0.281-2.257 0-3.421-1.405-3.421-3.264 0-2.229 1.589-3.469 3.565-3.469 0.766 0 1.346 0.155 1.608 0.291l-0.301 1.172c-0.3-0.126-0.717-0.242-1.24-0.242-1.172 0-2.083 0.707-2.083 2.161-0 1.308 0.774 2.131 2.092 2.131zM17.086 23.966h-2.509v1.492h2.345v1.202h-2.345v2.625h-1.482v-6.529h3.991v1.211zM23.683 29.285l-0.097-2.5c-0.029-0.784-0.058-1.734-0.058-2.683h-0.029c-0.204 0.834-0.475 1.764-0.727 2.529l-0.795 2.548h-1.153l-0.698-2.529c-0.213-0.765-0.435-1.695-0.59-2.547h-0.020c-0.039 0.882-0.068 1.889-0.116 2.703l-0.116 2.48h-1.366l0.417-6.529h1.967l0.639 2.18c0.204 0.756 0.407 1.57 0.552 2.334h0.029c0.184-0.756 0.407-1.618 0.62-2.344l0.698-2.17h1.928l0.358 6.529-1.443 0zM5.675 20.945v-20.151h14.607v6.452c0 0.348 0.282 0.631 0.631 0.631h5.569l0.001 13.068h-20.808zM10.738 12.304c0.912-0.013 1.017-0.508 1.017-0.925 0-0.339-0.039-0.691-0.078-1.043-0.052-0.365-0.091-0.717-0.091-1.056 0-1.225 0.782-1.746 1.941-1.746h0.378v0.938h-0.235c-0.678 0-0.913 0.378-0.913 1.016 0 0.261 0.039 0.534 0.092 0.821 0.026 0.287 0.078 0.599 0.078 0.938 0.013 0.912-0.378 1.303-1.043 1.46v0.026c0.665 0.156 1.056 0.56 1.043 1.473 0 0.352-0.052 0.665-0.078 0.952-0.052 0.287-0.092 0.56-0.092 0.821 0 0.651 0.261 1.029 0.913 1.029h0.235v0.926h-0.378c-1.134 0-1.941-0.469-1.941-1.785 0-0.326 0.039-0.691 0.091-1.043 0.039-0.352 0.078-0.691 0.078-1.030 0-0.378-0.105-0.912-1.017-0.926v-0.847zM20.512 13.151c-0.9 0.013-1.017 0.547-1.017 0.926 0 0.339 0.052 0.677 0.091 1.030s0.091 0.717 0.091 1.043c0 1.316-0.808 1.785-1.941 1.785h-0.378v-0.926h0.234c0.651-0.013 0.899-0.377 0.899-1.029 0-0.261-0.039-0.534-0.078-0.821s-0.078-0.599-0.078-0.952c-0.013-0.912 0.378-1.316 1.029-1.473v-0.026c-0.651-0.156-1.042-0.547-1.029-1.46 0-0.339 0.039-0.651 0.078-0.938s0.078-0.56 0.078-0.821c0-0.638-0.235-1.003-0.899-1.016h-0.234v-0.938h0.378c1.16 0 1.941 0.521 1.941 1.746 0 0.339-0.052 0.69-0.091 1.056-0.039 0.352-0.091 0.704-0.091 1.043 0 0.417 0.117 0.912 1.017 0.925v0.847z"></path>
</svg>
