<!-- Generated by IcoMoon.io -->
<svg version="1.1" xmlns="http://www.w3.org/2000/svg" width="32" height="32" viewBox="0 0 32 32">
<title>cgi-file-format-symbol</title>
<path d="M27.737 7.239c-0.002-0.148-0.049-0.293-0.15-0.408l-6.201-7.082c-0.001-0.002-0.003-0.003-0.005-0.004-0.037-0.041-0.079-0.075-0.125-0.105-0.013-0.009-0.027-0.017-0.041-0.025-0.040-0.021-0.081-0.039-0.125-0.052-0.012-0.003-0.022-0.008-0.034-0.011-0.047-0.011-0.096-0.018-0.145-0.018h-15.238c-0.695 0-1.261 0.566-1.261 1.261v29.635c0 0.696 0.566 1.261 1.261 1.261h20.807c0.696 0 1.261-0.566 1.261-1.261v-23.119c0-0.024-0.004-0.047-0.006-0.071zM12.138 28.393c0.534 0 1.126-0.116 1.474-0.255l0.267 1.381c-0.325 0.163-1.057 0.337-2.008 0.337-2.705 0-4.098-1.683-4.098-3.912 0-2.67 1.904-4.156 4.272-4.156 0.918 0 1.614 0.186 1.927 0.348l-0.36 1.405c-0.36-0.151-0.859-0.29-1.486-0.29-1.405 0-2.496 0.847-2.496 2.589-0 1.567 0.929 2.554 2.507 2.554zM21.227 29.379c-0.546 0.186-1.578 0.441-2.611 0.441-1.428 0-2.461-0.36-3.181-1.057-0.719-0.673-1.114-1.695-1.102-2.844 0.011-2.6 1.903-4.086 4.468-4.086 1.010 0 1.788 0.198 2.171 0.383l-0.372 1.416c-0.429-0.185-0.963-0.336-1.822-0.336-1.474 0-2.588 0.836-2.588 2.53 0 1.614 1.010 2.565 2.46 2.565 0.406 0 0.732-0.046 0.871-0.116v-1.637h-1.207v-1.381h2.913v4.121h-0zM24.383 29.739h-1.776v-7.823h1.776v7.823zM5.675 20.945v-20.151h14.607v6.452c0 0.348 0.282 0.631 0.631 0.631h5.569l0.001 13.068h-20.808zM20.506 14.155l0.665-2.221c0.023-0.077 0.027-0.154 0.017-0.229l0.172-0.528c0.026-0.087-0.009-0.165-0.073-0.231 0.008-0.017 0.020-0.030 0.027-0.049 0.042-0.133-0.033-0.275-0.167-0.317l-0.225-0.071c-0.133-0.041-0.276 0.033-0.317 0.167-0.005 0.013-0.002 0.027-0.005 0.040-0.083 0.013-0.15 0.048-0.175 0.13l-0.156 0.548c-0.062 0.062-0.112 0.137-0.138 0.227l-0.665 2.221c-0.034 0.115-0.027 0.232 0.010 0.337l-0.905 3.177c-0.059 0.196-0.174 1.067 0.022 1.127 0.196 0.059 0.629-0.714 0.688-0.91l1.018-3.136c0.096-0.067 0.171-0.163 0.207-0.284zM8.801 7.823l8.007-2.983 2.624 7.043c0.036-0.091 0.079-0.179 0.138-0.259l0.119-0.418c0.023-0.076 0.057-0.144 0.097-0.207l-2.602-6.983-9.207 3.431 4.466 11.986 5.484-2.044 0.218-0.765-5.326 1.985-4.018-10.786zM21.102 14.532l-0.102 0.342c-0.052 0.174-0.142 0.33-0.264 0.461l-0.009 0.027 0.099 0.264-0.209 0.078-0.253 0.778 1.287-0.48-0.548-1.47zM16.053 11.287c0.054-0.061 0.127-0.097 0.204-0.102l0.055-0.004 0.063 0.020c0.050 0.018 0.090 0.013 0.125-0.004 0.038-0.018 0.067-0.053 0.079-0.092 0.036-0.112 0.131-0.189 0.246-0.204l-0.014-0.214c-0.002-0.022-0.018-0.043-0.039-0.050-0.233-0.073-0.428-0.241-0.536-0.459s-0.123-0.477-0.041-0.706c0.008-0.021 0.002-0.046-0.015-0.060l-0.519-0.453c-0.029-0.025-0.047-0.015-0.063-0.007-0.214 0.112-0.473 0.133-0.704 0.054-0.231-0.078-0.423-0.25-0.528-0.471-0.009-0.020-0.031-0.033-0.054-0.031l-0.686 0.046c-0.023 0.001-0.042 0.017-0.050 0.038-0.073 0.233-0.241 0.429-0.459 0.537s-0.477 0.123-0.707 0.039c-0.014-0.004-0.035-0.012-0.060 0.016l-0.454 0.518c-0.015 0.017-0.018 0.043-0.007 0.062 0.113 0.217 0.132 0.473 0.054 0.705s-0.249 0.423-0.471 0.527c-0.021 0.010-0.033 0.031-0.032 0.054l0.046 0.687c0.001 0.023 0.017 0.042 0.038 0.049 0.233 0.073 0.428 0.241 0.537 0.46 0.108 0.219 0.122 0.477 0.039 0.706-0.007 0.021-0.001 0.046 0.016 0.060l0.519 0.454c0.028 0.025 0.047 0.015 0.062 0.007 0.11-0.058 0.231-0.091 0.356-0.1 0.12-0.008 0.236 0.007 0.349 0.046 0.232 0.078 0.423 0.249 0.527 0.471 0.010 0.020 0.032 0.033 0.054 0.032l0.687-0.046c0.023-0.002 0.042-0.017 0.049-0.038 0.074-0.233 0.241-0.429 0.46-0.537 0.214-0.105 0.462-0.121 0.687-0.046 0.001-0.029 0.007-0.058 0.017-0.086 0.015-0.041 0.012-0.085-0.006-0.123-0.018-0.036-0.052-0.065-0.092-0.078-0.119-0.039-0.2-0.143-0.208-0.266l-0.022-0.325c-0.008-0.123 0.058-0.237 0.169-0.29 0.039-0.019 0.070-0.052 0.083-0.091s0.009-0.084-0.009-0.12c-0.057-0.11-0.040-0.244 0.040-0.337l0.215-0.246zM14.237 12.544c-0.737 0.049-1.376-0.511-1.424-1.247-0.050-0.736 0.509-1.376 1.246-1.425s1.376 0.511 1.425 1.247c0.049 0.736-0.51 1.376-1.247 1.425zM18.268 12.106c-0.11-0.035-0.203-0.114-0.254-0.218s-0.059-0.226-0.019-0.335c0.004-0.010 0.001-0.021-0.007-0.029l-0.245-0.215c-0.014-0.012-0.023-0.007-0.030-0.004-0.101 0.053-0.225 0.063-0.334 0.026s-0.201-0.119-0.25-0.224c-0.005-0.009-0.015-0.016-0.025-0.015l-0.326 0.022c-0.010 0.001-0.020 0.008-0.023 0.018-0.035 0.11-0.115 0.204-0.218 0.255s-0.226 0.058-0.334 0.019c-0.007-0.002-0.017-0.006-0.029 0.008l-0.216 0.245c-0.007 0.008-0.009 0.021-0.004 0.030 0.054 0.102 0.063 0.224 0.027 0.334-0.037 0.11-0.118 0.2-0.223 0.25-0.010 0.004-0.017 0.015-0.016 0.026l0.022 0.325c0.001 0.011 0.008 0.020 0.019 0.023 0.11 0.035 0.203 0.114 0.254 0.218 0.052 0.103 0.059 0.226 0.020 0.335-0.004 0.010-0.001 0.021 0.007 0.029l0.246 0.215c0.013 0.012 0.022 0.007 0.029 0.003 0.052-0.027 0.11-0.043 0.169-0.047 0.056-0.004 0.112 0.004 0.164 0.022 0.11 0.036 0.201 0.119 0.25 0.223 0.004 0.010 0.015 0.015 0.026 0.015l0.325-0.022c0.010-0.001 0.020-0.008 0.023-0.018 0.035-0.111 0.114-0.204 0.218-0.255s0.226-0.058 0.335-0.019c0.006 0.002 0.017 0.006 0.028-0.007l0.215-0.246c0.007-0.008 0.008-0.020 0.004-0.030-0.054-0.102-0.063-0.224-0.026-0.334s0.118-0.2 0.223-0.25c0.010-0.005 0.016-0.015 0.015-0.026l-0.021-0.325c-0.001-0.011-0.008-0.020-0.019-0.023zM17.067 13.011c-0.348 0.024-0.651-0.242-0.675-0.591s0.241-0.652 0.591-0.676c0.348-0.022 0.651 0.242 0.675 0.591s-0.241 0.652-0.591 0.675z"></path>
</svg>
