<!-- Generated by IcoMoon.io -->
<svg version="1.1" xmlns="http://www.w3.org/2000/svg" width="28" height="32" viewBox="0 0 28 32">
<title>chair</title>
<path d="M28.032 21.005l-0.67-2.010c-0.274-0.805-1.024-1.374-1.906-1.374-0 0-0 0-0 0h-22.774c-0.865 0-1.633 0.553-1.907 1.374l-0.67 2.010c-0.433 1.301 0.535 2.645 1.907 2.645h-0.002v7.034c0 0.555 0.45 1.005 1.005 1.005h2.010c0.555 0 1.005-0.45 1.005-1.005v-7.034h16.078v7.034c0 0.555 0.45 1.005 1.005 1.005h2.010c0.555 0 1.005-0.45 1.005-1.005v-7.034h-0.002c1.372 0 2.341-1.344 1.907-2.645zM7.034 7.572c0-1.852 1.018-3.454 2.512-4.325v12.365h3.015v-13.064h3.015v13.064h3.015v-12.365c1.495 0.872 2.512 2.474 2.512 4.325v8.039h3.015v-8.039c0-4.44-3.599-8.039-8.039-8.039h-4.020c-4.44 0-8.039 3.599-8.039 8.039v8.039h3.015v-8.039z"></path>
</svg>
