<!-- Generated by IcoMoon.io -->
<svg version="1.1" xmlns="http://www.w3.org/2000/svg" width="40" height="32" viewBox="0 0 40 32">
<title>chalkboard-teacher</title>
<path d="M13.064 21.641c-0.15 0-0.3 0.022-0.443 0.068-0.814 0.264-1.67 0.434-2.571 0.434s-1.757-0.17-2.572-0.434c-0.143-0.046-0.293-0.068-0.443-0.068-3.898 0-7.055 3.17-7.034 7.073 0.009 1.649 1.365 2.976 3.015 2.976h14.069c1.65 0 3.006-1.326 3.015-2.976 0.021-3.903-3.137-7.073-7.034-7.073zM10.049 19.631c3.33 0 6.029-2.699 6.029-6.029s-2.699-6.029-6.029-6.029-6.029 2.699-6.029 6.029 2.699 6.029 6.029 6.029zM37.181-0.467h-24.118c-1.662 0-3.015 1.397-3.015 3.115v2.915c1.471 0 2.833 0.426 4.020 1.118v-3.128h22.108v18.088h-4.020v-4.020h-8.039v4.020h-4.788c1.2 1.048 2.080 2.433 2.493 4.020h15.359c1.663 0 3.015-1.397 3.015-3.115v-19.898c0-1.717-1.352-3.115-3.015-3.115z"></path>
</svg>
