<!-- Generated by IcoMoon.io -->
<svg version="1.1" xmlns="http://www.w3.org/2000/svg" width="34" height="32" viewBox="0 0 34 32">
<title>chart-pie</title>
<path d="M33.148 17.621h-14.903l9.925 9.925c0.379 0.379 1.004 0.41 1.394 0.043 2.431-2.29 4.102-5.377 4.593-8.847 0.084-0.594-0.409-1.121-1.009-1.121zM32.154 13.551c-0.517-7.503-6.513-13.498-14.016-14.016-0.573-0.040-1.055 0.443-1.055 1.018v14.053h14.054c0.574 0 1.056-0.482 1.017-1.055zM14.069 17.621v-14.903c0-0.6-0.527-1.093-1.12-1.009-7.485 1.058-13.206 7.596-12.939 15.433 0.274 8.048 7.203 14.648 15.255 14.547 3.165-0.040 6.090-1.060 8.495-2.765 0.496-0.352 0.529-1.082 0.099-1.512l-9.789-9.79z"></path>
</svg>
