<!-- Generated by IcoMoon.io -->
<svg version="1.1" xmlns="http://www.w3.org/2000/svg" width="32" height="32" viewBox="0 0 32 32">
<title>chart-area</title>
<path d="M31.403 23.651c0.415 0 0.754 0.339 0.754 0.754v2.512c0 0.415-0.339 0.754-0.754 0.754h-30.649c-0.415 0-0.754-0.339-0.754-0.754v-22.61c0-0.415 0.339-0.754 0.754-0.754h2.512c0.415 0 0.754 0.339 0.754 0.754v19.344h27.383zM23.408 9.551l-5.32 3.549-5.357-7.141c-0.32-0.427-0.973-0.396-1.25 0.063l-5.452 9.088v6.532h24.118l-5.646-11.795c-0.201-0.408-0.716-0.546-1.093-0.295z"></path>
</svg>
