<!-- Generated by IcoMoon.io -->
<svg version="1.1" xmlns="http://www.w3.org/2000/svg" width="36" height="32" viewBox="0 0 36 32">
<title>charging-station</title>
<path d="M21.103 27.67h-20.098c-0.555 0-1.005 0.45-1.005 1.005v2.010c0 0.555 0.45 1.005 1.005 1.005h20.098c0.555 0 1.005-0.45 1.005-1.005v-2.010c0-0.555-0.45-1.005-1.005-1.005zM34.167 7.572v-3.015c0-0.555-0.45-1.005-1.005-1.005s-1.005 0.45-1.005 1.005v3.015h-2.010v-3.015c0-0.555-0.45-1.005-1.005-1.005s-1.005 0.45-1.005 1.005v3.015h-1.005c-0.555 0-1.005 0.45-1.005 1.005v2.010c0 2.246 1.483 4.126 3.517 4.769v7.442c0 0.876-0.597 1.691-1.461 1.833-1.1 0.182-2.056-0.667-2.056-1.734v-1.759c0-3.052-2.475-5.527-5.527-5.527h-0.503v-12.059c0-2.22-1.799-4.020-4.020-4.020h-10.049c-2.22 0-4.020 1.799-4.020 4.020v22.108h18.088v-7.034h0.503c1.387 0 2.512 1.125 2.512 2.512v1.546c0 2.492 1.816 4.721 4.297 4.962 2.845 0.278 5.25-1.96 5.25-4.749v-7.541c2.034-0.643 3.517-2.523 3.517-4.769v-2.010c0-0.555-0.45-1.005-1.005-1.005h-1.005zM16.335 10.572l-5.885 8.73c-0.138 0.209-0.39 0.329-0.652 0.329-0.482 0-0.846-0.394-0.733-0.811l1.446-5.218h-3.728c-0.455 0-0.807-0.351-0.747-0.747l1.005-6.72c0.050-0.327 0.369-0.572 0.747-0.572h4.271c0.495 0 0.855 0.411 0.729 0.83l-0.729 3.19h3.624c0.58 0 0.943 0.551 0.652 0.99z"></path>
</svg>
