<!-- Generated by IcoMoon.io -->
<svg version="1.1" xmlns="http://www.w3.org/2000/svg" width="32" height="32" viewBox="0 0 32 32">
<title>chart-bar1</title>
<path d="M20.902 19.631h2.412c0.402 0 0.804-0.402 0.804-0.804v-8.441c0-0.402-0.402-0.804-0.804-0.804h-2.412c-0.402 0-0.804 0.402-0.804 0.804v8.441c0 0.402 0.402 0.804 0.804 0.804zM26.931 19.631h2.412c0.402 0 0.804-0.402 0.804-0.804v-14.47c0-0.402-0.402-0.804-0.804-0.804h-2.412c-0.402 0-0.804 0.402-0.804 0.804v14.47c0 0.402 0.402 0.804 0.804 0.804zM8.843 19.631h2.412c0.402 0 0.804-0.402 0.804-0.804v-4.422c0-0.402-0.402-0.804-0.804-0.804h-2.412c-0.402 0-0.804 0.402-0.804 0.804v4.422c0 0.402 0.402 0.804 0.804 0.804zM14.872 19.631h2.412c0.402 0 0.804-0.402 0.804-0.804v-12.461c0-0.402-0.402-0.804-0.804-0.804h-2.412c-0.402 0-0.804 0.402-0.804 0.804v12.461c0 0.402 0.402 0.804 0.804 0.804zM31.152 23.651h-27.132v-19.093c0-0.555-0.45-1.005-1.005-1.005h-2.010c-0.555 0-1.005 0.45-1.005 1.005v21.103c0 1.11 0.9 2.010 2.010 2.010h29.142c0.555 0 1.005-0.45 1.005-1.005v-2.010c0-0.555-0.45-1.005-1.005-1.005z"></path>
</svg>
