<!-- Generated by IcoMoon.io -->
<svg version="1.1" xmlns="http://www.w3.org/2000/svg" width="32" height="32" viewBox="0 0 32 32">
<title>chart-line</title>
<path d="M31.152 23.651h-27.132v-19.093c0-0.555-0.45-1.005-1.005-1.005h-2.010c-0.555 0-1.005 0.45-1.005 1.005v21.103c0 1.11 0.9 2.010 2.010 2.010h29.142c0.555 0 1.005-0.45 1.005-1.005v-2.010c0-0.555-0.45-1.005-1.005-1.005zM29.142 5.562h-7.415c-1.343 0-2.015 1.624-1.066 2.573l2.035 2.035-4.608 4.609-4.608-4.608c-0.785-0.785-2.057-0.785-2.842 0l-4.314 4.314c-0.393 0.393-0.393 1.029 0 1.421l1.421 1.421c0.392 0.392 1.029 0.392 1.421 0l2.893-2.893 4.608 4.608c0.785 0.785 2.058 0.785 2.842 0l6.029-6.029 2.035 2.035c0.95 0.95 2.573 0.277 2.573-1.066v-7.414c0.001-0.555-0.449-1.005-1.004-1.005z"></path>
</svg>
