<!-- Generated by IcoMoon.io -->
<svg version="1.1" xmlns="http://www.w3.org/2000/svg" width="32" height="32" viewBox="0 0 32 32">
<title>chart-bar</title>
<path d="M24.921 21.641h1.407c0.402 0 0.804-0.402 0.804-0.804v-14.47c0-0.402-0.402-0.804-0.804-0.804h-1.407c-0.402 0-0.804 0.402-0.804 0.804v14.47c0 0.402 0.402 0.804 0.804 0.804zM12.863 21.641h1.407c0.402 0 0.804-0.402 0.804-0.804v-12.461c0-0.402-0.402-0.804-0.804-0.804h-1.407c-0.402 0-0.804 0.402-0.804 0.804v12.461c0 0.402 0.402 0.804 0.804 0.804zM18.892 21.641h1.407c0.402 0 0.804-0.402 0.804-0.804v-8.441c0-0.402-0.402-0.804-0.804-0.804h-1.407c-0.402 0-0.804 0.402-0.804 0.804v8.441c0 0.402 0.402 0.804 0.804 0.804zM31.152 24.655h-28.137v-20.098c0-0.555-0.45-1.005-1.005-1.005h-1.005c-0.555 0-1.005 0.45-1.005 1.005v21.103c0 1.11 0.9 2.010 2.010 2.010h29.142c0.555 0 1.005-0.45 1.005-1.005v-1.005c0-0.555-0.45-1.005-1.005-1.005zM6.833 21.641h1.407c0.402 0 0.804-0.402 0.804-0.804v-4.422c0-0.402-0.402-0.804-0.804-0.804h-1.407c-0.402 0-0.804 0.402-0.804 0.804v4.422c0 0.402 0.402 0.804 0.804 0.804z"></path>
</svg>
