<!-- Generated by IcoMoon.io -->
<svg version="1.1" xmlns="http://www.w3.org/2000/svg" width="32" height="32" viewBox="0 0 32 32">
<title>chauffer</title>
<path d="M16.031-0.185c-8.84 0-16.031 7.192-16.031 16.031s7.192 16.031 16.031 16.031c8.84 0 16.031-7.192 16.031-16.031s-7.192-16.031-16.031-16.031zM16.031 30.935c-8.32 0-15.088-6.769-15.088-15.088s6.769-15.088 15.088-15.088c8.32 0 15.088 6.769 15.088 15.088s-6.768 15.088-15.088 15.088zM20.092 15.847c0-2.239-1.822-4.061-4.061-4.061s-4.061 1.822-4.061 4.061c0 2.239 1.822 4.061 4.061 4.061s4.061-1.822 4.061-4.061zM16.031 18.965c-1.719 0-3.118-1.399-3.118-3.118s1.399-3.118 3.118-3.118 3.118 1.399 3.118 3.118-1.399 3.118-3.118 3.118zM28.64 18.759c-0-0-0.001-0-0.001-0-3.185-0.85-6.61 0.068-8.938 2.397-2.004 2.004-2.97 4.77-2.651 7.589 0 0 0 0 0 0s0 0 0 0c0.028 0.241 0.231 0.418 0.468 0.418 0.018 0 0.036-0.001 0.054-0.003 2.686-0.308 5.188-1.41 7.237-3.188 2.030-1.761 3.469-4.055 4.163-6.635 0.068-0.251-0.081-0.51-0.333-0.578zM24.191 25.26c-1.781 1.545-3.931 2.541-6.244 2.898-0.133-2.364 0.735-4.65 2.421-6.336 1.977-1.977 4.834-2.821 7.558-2.262-0.687 2.207-1.971 4.17-3.735 5.7zM3.424 18.759c-0 0-0 0-0 0s-0 0-0.001 0c-0.252 0.068-0.401 0.326-0.333 0.578 0.694 2.58 2.134 4.874 4.163 6.635 2.049 1.777 4.551 2.88 7.237 3.188 0.018 0.002 0.036 0.003 0.054 0.003 0.236 0 0.44-0.177 0.468-0.418 0-0 0-0 0-0s0-0 0-0c0.32-2.819-0.647-5.585-2.651-7.589-2.328-2.328-5.753-3.247-8.938-2.397zM14.116 28.158c-2.313-0.357-4.463-1.353-6.244-2.898-1.763-1.53-3.047-3.493-3.735-5.7 2.723-0.559 5.581 0.285 7.558 2.262 1.686 1.686 2.554 3.972 2.421 6.336zM25.443 6.307c-2.524-2.49-5.866-3.861-9.411-3.861s-6.888 1.371-9.412 3.861c-2.521 2.487-3.937 5.806-3.988 9.344-0.003 0.2 0.121 0.38 0.309 0.449 0.053 0.020 0.108 0.029 0.162 0.029 0.138 0 0.273-0.061 0.364-0.172 2.81-3.408 7.507-5.442 12.564-5.442s9.754 2.034 12.564 5.442c0.127 0.155 0.338 0.211 0.526 0.143s0.312-0.249 0.309-0.449c-0.050-3.538-1.467-6.857-3.988-9.344zM16.031 9.573c-4.818 0-9.338 1.764-12.369 4.774 0.333-2.789 1.592-5.368 3.62-7.368 2.346-2.315 5.453-3.59 8.749-3.59s6.403 1.275 8.749 3.59c2.028 2.001 3.287 4.579 3.62 7.368-3.031-3.010-7.551-4.774-12.369-4.774z"></path>
</svg>
