<!-- Generated by IcoMoon.io -->
<svg version="1.1" xmlns="http://www.w3.org/2000/svg" width="32" height="32" viewBox="0 0 32 32">
<title>check-circle</title>
<path d="M16.078 0.035c-8.602 0-15.576 6.974-15.576 15.576s6.974 15.576 15.576 15.576 15.576-6.974 15.576-15.576-6.974-15.576-15.576-15.576zM16.078 3.050c6.942 0 12.561 5.618 12.561 12.561 0 6.942-5.618 12.561-12.561 12.561-6.942 0-12.561-5.618-12.561-12.561 0-6.942 5.618-12.561 12.561-12.561zM24.884 11.232l-1.415-1.427c-0.293-0.295-0.77-0.297-1.066-0.004l-8.878 8.806-3.755-3.786c-0.293-0.295-0.77-0.297-1.066-0.004l-1.427 1.415c-0.295 0.293-0.297 0.77-0.004 1.066l5.702 5.748c0.293 0.295 0.77 0.297 1.066 0.004l10.84-10.753c0.295-0.293 0.297-0.77 0.004-1.066z"></path>
</svg>
