<!-- Generated by IcoMoon.io -->
<svg version="1.1" xmlns="http://www.w3.org/2000/svg" width="32" height="32" viewBox="0 0 32 32">
<title>check-double</title>
<path d="M31.686 10.332l-2.274-2.287c-0.628-0.631-1.646-0.631-2.274 0l-15.080 15.166-7.041-7.081c-0.628-0.632-1.646-0.632-2.274 0l-2.274 2.287c-0.628 0.631-0.628 1.656 0 2.287l10.451 10.511c0.628 0.632 1.646 0.632 2.274 0l18.49-18.596c0.628-0.632 0.628-1.656 0-2.287zM10.462 17.289c0.43 0.441 1.142 0.441 1.583 0.011l13.319-13.206c0.441-0.43 0.441-1.142 0.011-1.583l-2.635-2.645c-0.43-0.441-1.142-0.441-1.583-0.011l-9.871 9.803-4.285-4.319c-0.43-0.441-1.142-0.441-1.583-0.011l-2.646 2.623c-0.441 0.43-0.441 1.142-0.011 1.583l7.7 7.757z"></path>
</svg>
