<!-- Generated by IcoMoon.io -->
<svg version="1.1" xmlns="http://www.w3.org/2000/svg" width="32" height="32" viewBox="0 0 32 32">
<title>check-circle1</title>
<path d="M31.654 15.611c0 8.602-6.974 15.576-15.576 15.576s-15.576-6.974-15.576-15.576 6.974-15.576 15.576-15.576 15.576 6.974 15.576 15.576zM14.277 23.859l11.556-11.556c0.392-0.392 0.392-1.029 0-1.421l-1.421-1.421c-0.392-0.392-1.029-0.392-1.421 0l-9.425 9.425-4.4-4.4c-0.392-0.392-1.029-0.392-1.421 0l-1.421 1.421c-0.392 0.392-0.392 1.029 0 1.421l6.532 6.532c0.392 0.392 1.029 0.392 1.421 0z"></path>
</svg>
