<!-- Generated by IcoMoon.io -->
<svg version="1.1" xmlns="http://www.w3.org/2000/svg" width="28" height="32" viewBox="0 0 28 32">
<title>check-square1</title>
<path d="M25.122 29.68h-22.108c-1.665 0-3.015-1.35-3.015-3.015v-22.108c0-1.665 1.35-3.015 3.015-3.015h22.108c1.665 0 3.015 1.35 3.015 3.015v22.108c0 1.665-1.35 3.015-3.015 3.015zM12.267 23.521l11.556-11.556c0.392-0.392 0.392-1.029 0-1.421l-1.421-1.421c-0.392-0.392-1.029-0.392-1.421 0l-9.425 9.425-4.4-4.4c-0.392-0.392-1.029-0.392-1.421 0l-1.421 1.421c-0.392 0.392-0.392 1.029 0 1.421l6.532 6.532c0.392 0.392 1.029 0.392 1.421 0z"></path>
</svg>
