<!-- Generated by IcoMoon.io -->
<svg version="1.1" xmlns="http://www.w3.org/2000/svg" width="28" height="32" viewBox="0 0 28 32">
<title>check-square</title>
<path d="M25.122 1.543h-22.108c-1.665 0-3.015 1.35-3.015 3.015v22.108c0 1.665 1.35 3.015 3.015 3.015h22.108c1.665 0 3.015-1.35 3.015-3.015v-22.108c0-1.665-1.35-3.015-3.015-3.015zM25.122 26.665h-22.108v-22.108h22.108v22.108zM22.87 11.483l-10.84 10.753c-0.295 0.293-0.773 0.291-1.066-0.004l-5.702-5.748c-0.293-0.295-0.291-0.773 0.004-1.066l1.427-1.415c0.295-0.293 0.773-0.291 1.066 0.004l3.755 3.786 8.878-8.806c0.295-0.293 0.773-0.291 1.066 0.004l1.415 1.427c0.293 0.296 0.291 0.773-0.004 1.066z"></path>
</svg>
