<!-- Generated by IcoMoon.io -->
<svg version="1.1" xmlns="http://www.w3.org/2000/svg" width="28" height="32" viewBox="0 0 28 32">
<title>chess-king</title>
<path d="M26.127 29.429v1.507c0 0.416-0.338 0.754-0.754 0.754h-22.61c-0.416 0-0.754-0.338-0.754-0.754v-1.507c0-0.416 0.338-0.754 0.754-0.754h22.61c0.416 0 0.754 0.338 0.754 0.754zM25.623 9.080h-10.047v-3.015h3.14c0.208 0 0.377-0.169 0.377-0.377v0-2.261c0-0.208-0.169-0.377-0.377-0.377v0h-3.14v-3.14c0-0.208-0.169-0.377-0.377-0.377v0h-2.261c-0.208 0-0.377 0.169-0.377 0.377v0 3.14h-3.14c-0.208 0-0.377 0.169-0.377 0.377v0 2.261c0 0.208 0.169 0.377 0.377 0.377v0h3.14v3.015h-10.047c-1.732 0-2.944 1.711-2.37 3.345l5.357 15.246h17.136l5.357-15.246c0.574-1.634-0.638-3.345-2.37-3.345z"></path>
</svg>
