<!-- Generated by IcoMoon.io -->
<svg version="1.1" xmlns="http://www.w3.org/2000/svg" width="32" height="32" viewBox="0 0 32 32">
<title>chess</title>
<path d="M12.55 13.202c0.208 0 0.377 0.169 0.377 0.377v0l-0 1.304c0 0.208-0.169 0.377-0.377 0.377v0h-1.621c0 1.992-0.135 6.042 1.093 9.624h-7.965c1.253-3.654 1.094-7.812 1.094-9.624h-1.623c-0.208 0-0.377-0.169-0.377-0.377v0l0-1.304c0-0.208 0.169-0.377 0.377-0.377v0h9.021zM2.61 6.761l2.172 5.971h6.515l2.171-5.971c0.179-0.491-0.185-1.011-0.708-1.011h-3.213v-1.898h1.355c0.208 0 0.377-0.169 0.377-0.377v0-1.406c0-0.208-0.169-0.377-0.377-0.377v0h-1.782v-1.783c0-0.208-0.169-0.377-0.377-0.377v0h-1.406c-0.208 0-0.377 0.169-0.377 0.377v0 1.783h-1.784c-0.208 0-0.377 0.169-0.377 0.377v0 1.406c0 0.208 0.169 0.377 0.377 0.377v0h1.355v1.898h-3.214c-0.523 0-0.887 0.52-0.708 1.011zM13.986 27.492v-1.763c0-0.208-0.169-0.377-0.377-0.377v0h-11.139c-0.208 0-0.377 0.169-0.377 0.377v0 1.763l-1.391 0.89c-0.105 0.068-0.174 0.185-0.174 0.317 0 0 0 0 0 0v0 2.613c0 0.208 0.169 0.377 0.377 0.377v0h14.269c0.208 0 0.377-0.169 0.377-0.377v0-2.614c0 0 0-0 0-0 0-0.133-0.069-0.249-0.172-0.317l-0.001-0.001-1.391-0.89zM19.674 18.434l1.563 1.065c0.006 1.138-0.010 4.014-0.748 7.193h9.266c-0.736-3.17-0.752-6.050-0.746-7.194l1.561-1.064c0.064-0.044 0.106-0.117 0.106-0.2 0-0 0-0 0-0v0-4.39c0-0.134-0.108-0.242-0.242-0.242v0h-1.737c-0.134 0-0.242 0.108-0.242 0.242v0 1.979h-1.428v-1.979c0-0.134-0.108-0.242-0.242-0.242-0 0-0 0-0 0h-3.324c-0.134 0-0.242 0.108-0.242 0.242v0 1.979h-1.428v-1.979c0-0.134-0.108-0.242-0.242-0.242v0h-1.737c-0.134 0-0.242 0.108-0.242 0.242v0 4.39c0 0 0 0 0 0 0 0.083 0.041 0.156 0.105 0.199l0.001 0.001zM24.17 21.694c0-0.526 0.426-0.952 0.952-0.952s0.952 0.426 0.952 0.952v1.904h-1.904v-1.904zM31.693 29.056l-0.858-0.668v-0.977c0-0.134-0.108-0.242-0.242-0.242v0h-10.94c-0.134 0-0.242 0.108-0.242 0.242v0 0.977l-0.859 0.668c-0.057 0.045-0.093 0.114-0.093 0.191 0 0 0 0 0 0v0 2.201c0 0.134 0.108 0.242 0.242 0.242v0h12.844c0.134 0 0.242-0.108 0.242-0.242v-2.201c-0-0.077-0.036-0.146-0.093-0.191l-0.001-0z"></path>
</svg>
