<!-- Generated by IcoMoon.io -->
<svg version="1.1" xmlns="http://www.w3.org/2000/svg" width="32" height="32" viewBox="0 0 32 32">
<title>chess-board</title>
<path d="M16.078 15.611v4.020h-4.020v-4.020h4.020zM16.078-0.467h-4.020v4.020h4.020v-4.020zM16.078 15.611h4.020v-4.020h-4.020v4.020zM24.118-0.467h-4.020v4.020h4.020v-4.020zM24.118 31.69h4.020v-4.020h-4.020v4.020zM32.157 27.67v-4.020h-4.020v4.020h4.020zM8.039 31.69h4.020v-4.020h-4.020v4.020zM8.039-0.467h-4.020v4.020h4.020v-4.020zM32.157 11.592v-4.020h-4.020v4.020h4.020zM32.157 19.631v-4.020h-4.020v4.020h4.020zM0 31.69h4.020v-4.020h-4.020v4.020zM0 3.553v4.020h4.020v-4.020h-4.020zM0 11.592v4.020h4.020v-4.020h-4.020zM0 19.631v4.020h4.020v-4.020h-4.020zM16.078 31.69h4.020v-4.020h-4.020v4.020zM12.059 23.651v4.020h4.020v-4.020h-4.020zM16.078 11.592v-4.020h-4.020v4.020h4.020zM4.020 23.651v4.020h4.020v-4.020h-4.020zM8.039 15.611h-4.020v4.020h4.020v-4.020zM24.118 23.651h4.020v-4.020h-4.020v4.020zM32.157-0.467h-4.020v4.020h4.020v-4.020zM24.118 15.611h4.020v-4.020h-4.020v4.020zM24.118 3.553v4.020h4.020v-4.020h-4.020zM20.098 23.651v4.020h4.020v-4.020h-4.020zM8.039 19.631v4.020h4.020v-4.020h-4.020zM16.078 19.631v4.020h4.020v-4.020h-4.020zM12.059 11.592h-4.020v4.020h4.020v-4.020zM8.039 7.572h-4.020v4.020h4.020v-4.020zM20.098 19.631h4.020v-4.020h-4.020v4.020zM12.059 7.572v-4.020h-4.020v4.020h4.020zM20.098 7.572v-4.020h-4.020v4.020h4.020zM20.098 11.592h4.020v-4.020h-4.020v4.020z"></path>
</svg>
