<!-- Generated by IcoMoon.io -->
<svg version="1.1" xmlns="http://www.w3.org/2000/svg" width="24" height="32" viewBox="0 0 24 32">
<title>chess-rook</title>
<path d="M5.102 13.038c-0.018 2.757-0.241 8.356-2.088 14.632h18.087c-1.847-6.256-2.069-11.865-2.086-14.632l2.853-2.657c0.148-0.138 0.24-0.334 0.24-0.551 0-0 0-0 0-0v0-7.532c0-0.416-0.338-0.754-0.754-0.754h-2.512c-0.416 0-0.754 0.338-0.754 0.754v2.763h-3.015v-2.763c0-0.416-0.338-0.754-0.754-0.754h-4.522c-0.416 0-0.754 0.338-0.754 0.754v2.763h-3.015v-2.763c0-0.416-0.338-0.754-0.754-0.754h-2.512c-0.416 0-0.754 0.338-0.754 0.754v7.532c0 0.209 0.087 0.409 0.24 0.551l2.853 2.658zM10.049 15.611c0-1.11 0.9-2.010 2.010-2.010s2.010 0.9 2.010 2.010v4.020h-4.020v-4.020zM24.118 29.429v1.507c0 0.416-0.338 0.754-0.754 0.754h-22.61c-0.416 0-0.754-0.338-0.754-0.754v-1.507c0-0.416 0.338-0.754 0.754-0.754h22.61c0.416 0 0.754 0.338 0.754 0.754z"></path>
</svg>
