<!-- Generated by IcoMoon.io -->
<svg version="1.1" xmlns="http://www.w3.org/2000/svg" width="20" height="32" viewBox="0 0 20 32">
<title>chess-pawn</title>
<path d="M16.581 27.67h-13.064s3.768-2.685 3.768-11.054h-2.010c-0.416 0-0.754-0.338-0.754-0.754v-1.507c0-0.416 0.338-0.754 0.754-0.754h2.525c-1.789-0.844-3.028-2.664-3.028-4.773 0-2.914 2.362-5.276 5.276-5.276s5.276 2.362 5.276 5.276c0 2.11-1.239 3.929-3.028 4.773h2.525c0.416 0 0.754 0.338 0.754 0.754v1.507c0 0.416-0.338 0.754-0.754 0.754h-2.010c0 8.369 3.768 11.054 3.768 11.054zM18.339 28.675h-16.581c-0.416 0-0.754 0.338-0.754 0.754v1.507c0 0.416 0.338 0.754 0.754 0.754h16.581c0.416 0 0.754-0.338 0.754-0.754v-1.507c0-0.416-0.338-0.754-0.754-0.754z"></path>
</svg>
