<!-- Generated by IcoMoon.io -->
<svg version="1.1" xmlns="http://www.w3.org/2000/svg" width="32" height="32" viewBox="0 0 32 32">
<title>chess-queen</title>
<path d="M27.383 31.69h-22.61c-0.416 0-0.754-0.338-0.754-0.754v-1.507c0-0.416 0.338-0.754 0.754-0.754h22.61c0.416 0 0.754 0.338 0.754 0.754v1.507c0 0.416-0.338 0.754-0.754 0.754zM16.052-0.467c-1.942 0-3.517 1.575-3.517 3.517s1.575 3.517 3.517 3.517 3.517-1.575 3.517-3.517-1.575-3.517-3.517-3.517zM28.9 9.245c-0.362-0.191-0.811-0.059-1.010 0.3-0.541 0.974-1.429 2.374-2.768 2.374-1.803 0-1.923-1.244-1.99-3.614-0.011-0.408-0.346-0.733-0.753-0.733h-2.575c-0.325 0-0.613 0.209-0.715 0.517-0.558 1.677-1.638 2.575-3.010 2.575s-2.452-0.897-3.010-2.575c-0.103-0.308-0.39-0.517-0.715-0.517h-2.575c-0.408 0-0.742 0.325-0.753 0.733-0.066 2.364-0.184 3.614-1.99 3.614-1.3 0-2.124-1.27-2.79-2.388-0.205-0.344-0.644-0.467-0.999-0.28l-2.461 1.299c-0.241 0.129-0.402 0.379-0.402 0.667 0 0.103 0.021 0.2 0.058 0.29l-0.002-0.005 6.596 16.169h18.088l6.596-16.169c0.035-0.084 0.056-0.182 0.056-0.285 0-0.288-0.161-0.538-0.398-0.665l-0.004-0.002-2.472-1.305z"></path>
</svg>
