<!-- Generated by IcoMoon.io -->
<svg version="1.1" xmlns="http://www.w3.org/2000/svg" width="32" height="32" viewBox="0 0 32 32">
<title>chevron-circle-right</title>
<path d="M16.078 0.035c8.604 0 15.576 6.971 15.576 15.576s-6.971 15.576-15.576 15.576-15.576-6.971-15.576-15.576 6.971-15.576 15.576-15.576zM23.232 14.544l-8.51-8.51c-0.59-0.59-1.545-0.59-2.129 0l-1.068 1.068c-0.59 0.59-0.59 1.545 0 2.129l6.381 6.381-6.381 6.381c-0.59 0.59-0.59 1.545 0 2.129l1.068 1.068c0.59 0.59 1.545 0.59 2.129 0l8.51-8.51c0.59-0.59 0.59-1.545 0-2.135z"></path>
</svg>
