<!-- Generated by IcoMoon.io -->
<svg version="1.1" xmlns="http://www.w3.org/2000/svg" width="32" height="32" viewBox="0 0 32 32">
<title>chevron-circle-up</title>
<path d="M0.502 15.611c0-8.604 6.971-15.576 15.576-15.576s15.576 6.971 15.576 15.576-6.971 15.576-15.576 15.576-15.576-6.971-15.576-15.576zM15.011 8.458l-8.51 8.51c-0.59 0.59-0.59 1.545 0 2.129l1.068 1.068c0.59 0.59 1.545 0.59 2.129 0l6.381-6.381 6.381 6.381c0.59 0.59 1.545 0.59 2.129 0l1.068-1.068c0.59-0.59 0.59-1.545 0-2.129l-8.51-8.51c-0.59-0.59-1.545-0.59-2.135 0z"></path>
</svg>
