<!-- Generated by IcoMoon.io -->
<svg version="1.1" xmlns="http://www.w3.org/2000/svg" width="24" height="32" viewBox="0 0 24 32">
<title>child</title>
<path d="M7.537 4.055c0-2.498 2.025-4.522 4.522-4.522s4.522 2.025 4.522 4.522c0 2.497-2.025 4.522-4.522 4.522s-4.522-2.025-4.522-4.522zM23.529 4.141c-0.785-0.785-2.057-0.785-2.842 0l-5.441 5.441h-6.374l-5.441-5.441c-0.785-0.785-2.057-0.785-2.842 0s-0.785 2.057 0 2.842l5.943 5.943v16.753c0 1.11 0.9 2.010 2.010 2.010h1.005c1.11 0 2.010-0.9 2.010-2.010v-7.034h1.005v7.034c0 1.11 0.9 2.010 2.010 2.010h1.005c1.11 0 2.010-0.9 2.010-2.010v-16.753l5.943-5.943c0.785-0.785 0.785-2.057 0-2.842z"></path>
</svg>
