<!-- Generated by IcoMoon.io -->
<svg version="1.1" xmlns="http://www.w3.org/2000/svg" width="31" height="32" viewBox="0 0 31 32">
<title>chrome</title>
<path d="M8.259 13.193l-4.798-7.373c2.99-3.718 7.474-5.766 12.059-5.784 2.657-0.019 5.37 0.66 7.838 2.085 2.726 1.583 4.798 3.856 6.117 6.469l-12.894-0.678c-3.649-0.214-7.122 1.84-8.322 5.282zM10.325 15.611c0 2.902 2.349 5.251 5.251 5.251s5.251-2.349 5.251-5.251-2.349-5.251-5.251-5.251-5.251 2.343-5.251 5.251zM30.103 10.009l-8.774 0.452c2.38 2.782 2.418 6.796 0.415 9.873l-7.041 10.828c2.92 0.157 5.929-0.484 8.655-2.066 6.745-3.894 9.477-12.059 6.745-19.087zM8.397 18.601l-5.86-11.525c-1.602 2.449-2.537 5.389-2.537 8.535 0 7.788 5.703 14.238 13.158 15.381l4.001-7.838c-3.618 0.678-7.11-1.306-8.761-4.553z"></path>
</svg>
