<!-- Generated by IcoMoon.io -->
<svg version="1.1" xmlns="http://www.w3.org/2000/svg" width="40" height="32" viewBox="0 0 40 32">
<title>church</title>
<path d="M29.171 15.026l-7.063-4.238v-3.216h3.015c0.555 0 1.005-0.45 1.005-1.005v-2.010c0-0.555-0.45-1.005-1.005-1.005h-3.015v-3.015c0-0.555-0.45-1.005-1.005-1.005h-2.010c-0.555 0-1.005 0.45-1.005 1.005v3.015h-3.015c-0.555 0-1.005 0.45-1.005 1.005v2.010c0 0.555 0.45 1.005 1.005 1.005h3.015v3.216l-7.063 4.238c-0.589 0.357-0.976 0.995-0.976 1.723v0 14.94h6.029v-6.029c0-2.22 1.799-4.020 4.020-4.020s4.020 1.799 4.020 4.020v6.029h6.029v-14.94c0-0.706-0.371-1.36-0.976-1.723zM0 24.402v6.283c0 0.555 0.45 1.005 1.005 1.005h7.034v-12.059l-6.821 2.923c-0.722 0.316-1.218 1.024-1.218 1.848v0zM38.978 22.554l-6.821-2.923v12.059h7.034c0.555 0 1.005-0.45 1.005-1.005v-6.283c0-0.804-0.479-1.531-1.218-1.848z"></path>
</svg>
