<!-- Generated by IcoMoon.io -->
<svg version="1.1" xmlns="http://www.w3.org/2000/svg" width="32" height="32" viewBox="0 0 32 32">
<title>circle-notch</title>
<path d="M18.088 1.986v1.046c0 0.679 0.457 1.266 1.111 1.449 4.869 1.36 8.436 5.824 8.436 11.13 0 6.387-5.169 11.556-11.556 11.556-6.387 0-11.556-5.169-11.556-11.556 0-5.305 3.566-9.77 8.436-11.13 0.654-0.183 1.111-0.77 1.111-1.449v-1.046c0-0.987-0.932-1.705-1.887-1.459-6.742 1.737-11.717 7.874-11.679 15.168 0.045 8.608 7.001 15.51 15.609 15.492 8.587-0.018 15.542-6.985 15.542-15.576 0-7.262-4.97-13.364-11.695-15.088-0.949-0.243-1.871 0.483-1.871 1.463z"></path>
</svg>
