<!-- Generated by IcoMoon.io -->
<svg version="1.1" xmlns="http://www.w3.org/2000/svg" width="40" height="32" viewBox="0 0 40 32">
<title>city</title>
<path d="M38.689 11.592h-8.542v-10.551c0-0.833-0.675-1.507-1.507-1.507h-9.044c-0.833 0-1.507 0.675-1.507 1.507v4.522h-4.020v-5.024c0-0.555-0.45-1.005-1.005-1.005h-1.005c-0.555 0-1.005 0.45-1.005 1.005v5.024h-4.020v-5.024c0-0.555-0.45-1.005-1.005-1.005h-1.005c-0.555 0-1.005 0.45-1.005 1.005v5.024h-2.512c-0.833 0-1.507 0.675-1.507 1.507v22.61c0 1.11 0.9 2.010 2.010 2.010h36.176c1.11 0 2.010-0.9 2.010-2.010v-16.581c0-0.833-0.675-1.507-1.507-1.507zM8.039 24.907c0 0.416-0.337 0.754-0.754 0.754h-2.512c-0.416 0-0.754-0.337-0.754-0.754v-2.512c0-0.416 0.337-0.754 0.754-0.754h2.512c0.416 0 0.754 0.337 0.754 0.754v2.512zM8.039 18.877c0 0.416-0.337 0.754-0.754 0.754h-2.512c-0.416 0-0.754-0.337-0.754-0.754v-2.512c0-0.416 0.337-0.754 0.754-0.754h2.512c0.416 0 0.754 0.337 0.754 0.754v2.512zM8.039 12.848c0 0.416-0.337 0.754-0.754 0.754h-2.512c-0.416 0-0.754-0.337-0.754-0.754v-2.512c0-0.416 0.337-0.754 0.754-0.754h2.512c0.416 0 0.754 0.337 0.754 0.754v2.512zM16.078 24.907c0 0.416-0.337 0.754-0.754 0.754h-2.512c-0.416 0-0.754-0.337-0.754-0.754v-2.512c0-0.416 0.337-0.754 0.754-0.754h2.512c0.416 0 0.754 0.337 0.754 0.754v2.512zM16.078 18.877c0 0.416-0.337 0.754-0.754 0.754h-2.512c-0.416 0-0.754-0.337-0.754-0.754v-2.512c0-0.416 0.337-0.754 0.754-0.754h2.512c0.416 0 0.754 0.337 0.754 0.754v2.512zM16.078 12.848c0 0.416-0.337 0.754-0.754 0.754h-2.512c-0.416 0-0.754-0.337-0.754-0.754v-2.512c0-0.416 0.337-0.754 0.754-0.754h2.512c0.416 0 0.754 0.337 0.754 0.754v2.512zM26.127 18.877c0 0.416-0.337 0.754-0.754 0.754h-2.512c-0.416 0-0.754-0.337-0.754-0.754v-2.512c0-0.416 0.337-0.754 0.754-0.754h2.512c0.416 0 0.754 0.337 0.754 0.754v2.512zM26.127 12.848c0 0.416-0.337 0.754-0.754 0.754h-2.512c-0.416 0-0.754-0.337-0.754-0.754v-2.512c0-0.416 0.337-0.754 0.754-0.754h2.512c0.416 0 0.754 0.337 0.754 0.754v2.512zM26.127 6.819c0 0.416-0.337 0.754-0.754 0.754h-2.512c-0.416 0-0.754-0.337-0.754-0.754v-2.512c0-0.416 0.337-0.754 0.754-0.754h2.512c0.416 0 0.754 0.337 0.754 0.754v2.512zM36.176 24.907c0 0.416-0.337 0.754-0.754 0.754h-2.512c-0.416 0-0.754-0.337-0.754-0.754v-2.512c0-0.416 0.337-0.754 0.754-0.754h2.512c0.416 0 0.754 0.337 0.754 0.754v2.512zM36.176 18.877c0 0.416-0.337 0.754-0.754 0.754h-2.512c-0.416 0-0.754-0.337-0.754-0.754v-2.512c0-0.416 0.337-0.754 0.754-0.754h2.512c0.416 0 0.754 0.337 0.754 0.754v2.512z"></path>
</svg>
