<!-- Generated by IcoMoon.io -->
<svg version="1.1" xmlns="http://www.w3.org/2000/svg" width="24" height="32" viewBox="0 0 24 32">
<title>clipboard-list</title>
<path d="M21.103 3.553h-5.024c0-2.217-1.803-4.020-4.020-4.020s-4.020 1.802-4.020 4.020h-5.024c-1.664 0-3.015 1.35-3.015 3.015v22.108c0 1.664 1.35 3.015 3.015 3.015h18.088c1.664 0 3.015-1.35 3.015-3.015v-22.108c0-1.664-1.35-3.015-3.015-3.015zM6.029 26.163c-0.835 0-1.507-0.672-1.507-1.507s0.672-1.507 1.507-1.507 1.507 0.672 1.507 1.507-0.672 1.507-1.507 1.507zM6.029 20.133c-0.835 0-1.507-0.672-1.507-1.507s0.672-1.507 1.507-1.507 1.507 0.672 1.507 1.507-0.672 1.507-1.507 1.507zM6.029 14.104c-0.835 0-1.507-0.672-1.507-1.507s0.672-1.507 1.507-1.507 1.507 0.672 1.507 1.507-0.672 1.507-1.507 1.507zM12.059 2.045c0.835 0 1.507 0.672 1.507 1.507s-0.672 1.507-1.507 1.507-1.507-0.672-1.507-1.507 0.672-1.507 1.507-1.507zM20.098 25.158c0 0.276-0.226 0.503-0.503 0.503h-9.044c-0.276 0-0.502-0.226-0.502-0.503v-1.005c0-0.276 0.226-0.503 0.502-0.503h9.044c0.276 0 0.503 0.226 0.503 0.503v1.005zM20.098 19.128c0 0.276-0.226 0.503-0.503 0.503h-9.044c-0.276 0-0.502-0.226-0.502-0.503v-1.005c0-0.276 0.226-0.503 0.502-0.503h9.044c0.276 0 0.503 0.226 0.503 0.503v1.005zM20.098 13.099c0 0.276-0.226 0.502-0.503 0.502h-9.044c-0.276 0-0.502-0.226-0.502-0.502v-1.005c0-0.276 0.226-0.502 0.502-0.502h9.044c0.276 0 0.503 0.226 0.503 0.502v1.005z"></path>
</svg>
