<!-- Generated by IcoMoon.io -->
<svg version="1.1" xmlns="http://www.w3.org/2000/svg" width="24" height="32" viewBox="0 0 24 32">
<title>clipboard1</title>
<path d="M24.118 6.567v22.108c0 1.665-1.35 3.015-3.015 3.015h-18.088c-1.665 0-3.015-1.35-3.015-3.015v-22.108c0-1.665 1.35-3.015 3.015-3.015h5.024c0-2.216 1.803-4.020 4.020-4.020s4.020 1.803 4.020 4.020h5.024c1.665 0 3.015 1.35 3.015 3.015zM12.059 2.045c-0.832 0-1.507 0.675-1.507 1.507s0.675 1.507 1.507 1.507 1.507-0.675 1.507-1.507-0.675-1.507-1.507-1.507zM18.088 9.205v-1.256c0-0.208-0.169-0.377-0.377-0.377v0h-11.305c-0.208 0-0.377 0.169-0.377 0.377v0 1.256c0 0.208 0.169 0.377 0.377 0.377v0h11.305c0.208 0 0.377-0.169 0.377-0.377v0z"></path>
</svg>
