<!-- Generated by IcoMoon.io -->
<svg version="1.1" xmlns="http://www.w3.org/2000/svg" width="24" height="32" viewBox="0 0 24 32">
<title>clipboard</title>
<path d="M21.103 3.553h-5.024c0-2.216-1.803-4.020-4.020-4.020s-4.020 1.803-4.020 4.020h-5.024c-1.665 0-3.015 1.35-3.015 3.015v22.108c0 1.665 1.35 3.015 3.015 3.015h18.088c1.665 0 3.015-1.35 3.015-3.015v-22.108c0-1.665-1.35-3.015-3.015-3.015zM20.726 28.675h-17.334c-0.208 0-0.377-0.169-0.377-0.377v0-21.354c0-0.208 0.169-0.377 0.377-0.377v0h2.638v2.261c0 0.416 0.338 0.754 0.754 0.754h10.551c0.416 0 0.754-0.338 0.754-0.754v-2.261h2.638c0.208 0 0.377 0.169 0.377 0.377v0 21.354c0 0.208-0.169 0.377-0.377 0.377v0zM12.059 2.045c0.832 0 1.507 0.675 1.507 1.507s-0.675 1.507-1.507 1.507-1.507-0.675-1.507-1.507 0.675-1.507 1.507-1.507z"></path>
</svg>
