<!-- Generated by IcoMoon.io -->
<svg version="1.1" xmlns="http://www.w3.org/2000/svg" width="32" height="32" viewBox="0 0 32 32">
<title>clock</title>
<path d="M16.078 0.035c-8.604 0-15.576 6.971-15.576 15.576s6.971 15.576 15.576 15.576 15.576-6.971 15.576-15.576-6.971-15.576-15.576-15.576zM16.078 28.173c-6.94 0-12.561-5.621-12.561-12.561s5.621-12.561 12.561-12.561 12.561 5.621 12.561 12.561-5.621 12.561-12.561 12.561zM19.96 21.616l-5.332-3.875c-0.195-0.145-0.308-0.371-0.308-0.609v-10.313c0-0.415 0.339-0.754 0.754-0.754h2.010c0.415 0 0.754 0.339 0.754 0.754v8.9l4.195 3.052c0.339 0.245 0.408 0.716 0.163 1.055l-1.181 1.627c-0.245 0.333-0.716 0.408-1.055 0.163z"></path>
</svg>
