<!-- Generated by IcoMoon.io -->
<svg version="1.1" xmlns="http://www.w3.org/2000/svg" width="32" height="32" viewBox="0 0 32 32">
<title>clock1</title>
<path d="M16.078 0.035c-8.604 0-15.576 6.971-15.576 15.576s6.971 15.576 15.576 15.576 15.576-6.971 15.576-15.576-6.971-15.576-15.576-15.576zM19.665 22.024l-5.54-4.026c-0.195-0.145-0.308-0.371-0.308-0.609v-10.57c0-0.415 0.339-0.754 0.754-0.754h3.015c0.415 0 0.754 0.339 0.754 0.754v8.648l3.988 2.902c0.339 0.245 0.408 0.716 0.163 1.055l-1.771 2.437c-0.245 0.333-0.716 0.408-1.055 0.163z"></path>
</svg>
