<!-- Generated by IcoMoon.io -->
<svg version="1.1" xmlns="http://www.w3.org/2000/svg" width="32" height="32" viewBox="0 0 32 32">
<title>clone</title>
<path d="M29.142-0.467h-20.098c-1.665 0-3.015 1.35-3.015 3.015v3.015h-3.015c-1.665 0-3.015 1.35-3.015 3.015v20.098c0 1.665 1.35 3.015 3.015 3.015h20.098c1.665 0 3.015-1.35 3.015-3.015v-3.015h3.015c1.665 0 3.015-1.35 3.015-3.015v-20.098c0-1.665-1.35-3.015-3.015-3.015zM22.736 28.675h-19.344c-0.208 0-0.377-0.169-0.377-0.377v0-19.344c0-0.208 0.169-0.377 0.377-0.377v0h2.638v14.069c0 1.665 1.35 3.015 3.015 3.015h14.069v2.638c0 0.208-0.169 0.377-0.377 0.377v0zM28.765 22.646h-19.344c-0.208 0-0.377-0.169-0.377-0.377v0-19.344c0-0.208 0.169-0.377 0.377-0.377v0h19.344c0.208 0 0.377 0.169 0.377 0.377v0 19.344c0 0.208-0.169 0.377-0.377 0.377v0z"></path>
</svg>
