<!-- Generated by IcoMoon.io -->
<svg version="1.1" xmlns="http://www.w3.org/2000/svg" width="32" height="32" viewBox="0 0 32 32">
<title>clone1</title>
<path d="M29.142-0.467c1.665 0 3.015 1.35 3.015 3.015v18.088c0 1.665-1.35 3.015-3.015 3.015h-18.088c-1.665 0-3.015-1.35-3.015-3.015v-18.088c0-1.665 1.35-3.015 3.015-3.015h18.088zM11.054 25.66c-2.77 0-5.024-2.254-5.024-5.024v-13.064h-3.015c-1.665 0-3.015 1.35-3.015 3.015v18.088c0 1.665 1.35 3.015 3.015 3.015h18.088c1.665 0 3.015-1.35 3.015-3.015v-3.015h-13.064z"></path>
</svg>
