<!-- Generated by IcoMoon.io -->
<svg version="1.1" xmlns="http://www.w3.org/2000/svg" width="32" height="32" viewBox="0 0 32 32">
<title>closed-captioning1</title>
<path d="M29.142 3.553h-26.127c-1.664 0-3.015 1.35-3.015 3.015v18.088c0 1.664 1.35 3.015 3.015 3.015h26.127c1.664 0 3.015-1.35 3.015-3.015v-18.088c0-1.664-1.35-3.015-3.015-3.015zM13.698 17.602c0.176-0.157 0.446-0.132 0.578 0.057l1.225 1.74c0.107 0.151 0.094 0.352-0.031 0.484-3.366 3.567-10.853 2.016-10.853-4.265 0-6.111 7.643-7.505 10.834-4.403 0.132 0.126 0.157 0.201 0.063 0.358l-1.099 1.916c-0.119 0.195-0.389 0.251-0.572 0.107-2.563-2.010-5.941-0.936-5.941 1.96 0.006 3.015 3.209 4.428 5.797 2.047zM25.656 17.602c0.176-0.157 0.446-0.132 0.578 0.057l1.225 1.74c0.107 0.151 0.094 0.352-0.031 0.484-3.36 3.574-10.847 2.016-10.847-4.265 0-6.111 7.643-7.505 10.834-4.403 0.132 0.126 0.157 0.201 0.063 0.358l-1.099 1.916c-0.119 0.195-0.389 0.251-0.572 0.107-2.563-2.010-5.941-0.936-5.941 1.96 0 3.015 3.203 4.428 5.791 2.047z"></path>
</svg>
