<!-- Generated by IcoMoon.io -->
<svg version="1.1" xmlns="http://www.w3.org/2000/svg" width="28" height="32" viewBox="0 0 28 32">
<title>cloudscale</title>
<path d="M19.979 9.205l-0.59 0.477c-1.413-1.212-3.235-2.11-5.232-2.11-4.497 0-8.127 3.819-8.127 8.309 0 0.415 0.025 0.823 0.088 1.218-0.126-3.517 2.625-6.117 5.816-6.117 1.52 0 2.902 0.59 3.932 1.551l-1.583 1.281c-0.521-0.057-1.055 0.113-1.451 0.509-0.697 0.691-0.697 1.815 0 2.512 0.697 0.691 1.815 0.691 2.512 0 0.396-0.396 0.565-0.936 0.509-1.451l4.723-5.577c0.396-0.408-0.207-0.999-0.597-0.603zM14.715 16.208c-0.352 0.345-0.917 0.345-1.269 0-0.352-0.352-0.352-0.917 0-1.269s0.917-0.352 1.269 0 0.352 0.923 0 1.269zM14.069 1.543c-7.757 0-14.069 6.312-14.069 14.069s6.312 14.069 14.069 14.069 14.069-6.312 14.069-14.069-6.312-14.069-14.069-14.069zM14.069 25.66c-5.54 0-10.049-4.509-10.049-10.049s4.51-10.049 10.049-10.049 10.049 4.509 10.049 10.049-4.509 10.049-10.049 10.049z"></path>
</svg>
