<!-- Generated by IcoMoon.io -->
<svg version="1.1" xmlns="http://www.w3.org/2000/svg" width="40" height="32" viewBox="0 0 40 32">
<title>cloud-sun</title>
<path d="M36.126 19.989c0.013-0.119 0.050-0.232 0.050-0.352 0-2.217-1.803-4.020-4.020-4.020-0.791 0-1.52 0.239-2.142 0.628-1.105-2.437-3.549-4.145-6.4-4.145-3.881 0-7.034 3.147-7.034 7.034 0 0.188 0.044 0.364 0.057 0.546-3.115 0.232-5.583 2.807-5.583 5.985 0 3.329 2.701 6.029 6.029 6.029h17.083c3.329 0 6.029-2.701 6.029-6.029 0-2.644-1.708-4.861-4.070-5.678zM9.094 18.57c-2.745-2.745-2.745-7.204 0-9.942 2.745-2.745 7.204-2.745 9.948 0 0.609 0.609 1.061 1.313 1.401 2.054 0.615-0.232 1.262-0.377 1.928-0.471l1.872-5.583c0.251-0.747-0.458-1.451-1.206-1.206l-5.514 1.84-2.606-5.2c-0.345-0.703-1.35-0.703-1.702 0l-2.6 5.2-5.521-1.84c-0.741-0.245-1.451 0.465-1.206 1.206l1.84 5.514-5.2 2.606c-0.703 0.352-0.703 1.35 0 1.702l5.2 2.6-1.84 5.514c-0.251 0.747 0.458 1.451 1.206 1.206l4.78-1.589c0.383-0.779 0.879-1.488 1.482-2.104-0.823-0.339-1.595-0.842-2.261-1.507zM8.793 13.595c0 2.563 1.84 4.698 4.265 5.169 0.502-0.295 1.024-0.553 1.583-0.735 0.339-2.782 1.947-5.181 4.233-6.595-0.829-1.828-2.669-3.109-4.805-3.109-2.908 0-5.276 2.362-5.276 5.269z"></path>
</svg>
