<!-- Generated by IcoMoon.io -->
<svg version="1.1" xmlns="http://www.w3.org/2000/svg" width="36" height="32" viewBox="0 0 36 32">
<title>cloud-sun-rain</title>
<path d="M32.063 13.696c-0.433-2.336-2.468-4.114-4.93-4.114-0.773 0-1.501 0.188-2.154 0.502-1.093-1.514-2.864-2.512-4.88-2.512-3.329 0-6.029 2.701-6.029 6.029 0 0.031 0.012 0.069 0.012 0.1-2.299 0.465-4.032 2.487-4.032 4.924 0 2.776 2.248 5.024 5.024 5.024h16.078c2.776 0 5.024-2.248 5.024-5.024 0-2.462-1.771-4.503-4.114-4.93zM7.794 15.856c-2.349-2.349-2.349-6.174 0-8.529 2.173-2.173 5.596-2.311 7.958-0.465 1.256-0.81 2.738-1.3 4.346-1.3 0.044 0 0.082 0.013 0.126 0.013l0.559-1.677c0.214-0.641-0.396-1.244-1.036-1.030l-4.729 1.576-2.23-4.459c-0.301-0.603-1.162-0.603-1.463 0l-2.23 4.459-4.729-1.576c-0.641-0.214-1.244 0.396-1.030 1.036l1.576 4.729-4.459 2.23c-0.603 0.301-0.603 1.162 0 1.463l4.459 2.23-1.576 4.729c-0.214 0.641 0.396 1.244 1.036 1.036l3.718-1.237c-0.012-0.151-0.044-0.295-0.044-0.452 0-0.785 0.145-1.539 0.389-2.255-0.226-0.17-0.446-0.327-0.641-0.521zM12.178 12.214c0.27-1.539 0.992-2.914 2.004-4.020-0.615-0.389-1.344-0.622-2.123-0.622-2.217 0-4.020 1.802-4.020 4.020 0 1.175 0.515 2.223 1.325 2.958 0.71-0.999 1.671-1.815 2.814-2.336zM32.942 25.792c-0.477-0.27-1.093-0.113-1.369 0.377l-2.299 4.020c-0.276 0.484-0.107 1.093 0.377 1.369 0.157 0.088 0.327 0.132 0.496 0.132 0.345 0 0.685-0.182 0.873-0.509l2.299-4.020c0.27-0.484 0.107-1.093-0.377-1.369zM26.912 25.792c-0.477-0.27-1.093-0.113-1.369 0.377l-2.299 4.020c-0.276 0.484-0.107 1.093 0.377 1.369 0.157 0.088 0.327 0.132 0.496 0.132 0.345 0 0.685-0.182 0.873-0.509l2.299-4.020c0.27-0.484 0.107-1.093-0.377-1.369zM20.883 25.792c-0.477-0.27-1.093-0.113-1.369 0.377l-2.299 4.020c-0.276 0.484-0.107 1.093 0.377 1.369 0.157 0.088 0.327 0.132 0.496 0.132 0.345 0 0.685-0.182 0.873-0.509l2.299-4.020c0.27-0.484 0.107-1.093-0.377-1.369zM14.854 25.792c-0.477-0.27-1.093-0.113-1.369 0.377l-2.299 4.020c-0.276 0.484-0.107 1.093 0.377 1.369 0.157 0.088 0.327 0.132 0.496 0.132 0.345 0 0.685-0.182 0.873-0.509l2.299-4.020c0.27-0.484 0.107-1.093-0.377-1.369z"></path>
</svg>
