<!-- Generated by IcoMoon.io -->
<svg version="1.1" xmlns="http://www.w3.org/2000/svg" width="40" height="32" viewBox="0 0 40 32">
<title>cloud-download-alt</title>
<path d="M33.765 13.765c0.258-0.672 0.402-1.407 0.402-2.173 0-3.329-2.701-6.029-6.029-6.029-1.237 0-2.393 0.377-3.348 1.018-1.74-3.015-4.987-5.037-8.711-5.037-5.552 0-10.049 4.497-10.049 10.049 0 0.17 0.006 0.339 0.013 0.509-3.517 1.237-6.042 4.591-6.042 8.535 0 4.993 4.051 9.044 9.044 9.044h23.113c4.44 0 8.039-3.599 8.039-8.039 0-3.888-2.763-7.135-6.431-7.876zM25.418 19.336l-6.62 6.62c-0.389 0.389-1.030 0.389-1.419 0l-6.62-6.62c-0.634-0.634-0.182-1.715 0.71-1.715h4.107v-7.034c0-0.553 0.452-1.005 1.005-1.005h3.015c0.553 0 1.005 0.452 1.005 1.005v7.034h4.108c0.892 0 1.344 1.080 0.71 1.715z"></path>
</svg>
