<!-- Generated by IcoMoon.io -->
<svg version="1.1" xmlns="http://www.w3.org/2000/svg" width="32" height="32" viewBox="0 0 32 32">
<title>cloud-rain</title>
<path d="M26.127 7.572c-0.038 0-0.069 0.013-0.1 0.013 0.069-0.327 0.1-0.666 0.1-1.018 0-2.776-2.248-5.024-5.024-5.024-1.545 0-2.908 0.71-3.831 1.809-1.168-2.261-3.498-3.819-6.218-3.819-3.888 0-7.034 3.147-7.034 7.034 0 0.458 0.050 0.898 0.132 1.332-2.405 0.791-4.151 3.034-4.151 5.703 0 3.329 2.701 6.029 6.029 6.029h20.098c3.329 0 6.029-2.701 6.029-6.029s-2.701-6.029-6.029-6.029zM5.527 23.035c-0.804 2.789-2.512 3.542-2.512 5.508 0 1.74 1.35 3.147 3.015 3.147s3.015-1.407 3.015-3.147c0-1.972-1.708-2.707-2.512-5.508-0.138-0.509-0.848-0.534-1.005 0zM15.576 23.035c-0.804 2.789-2.512 3.542-2.512 5.508 0 1.74 1.35 3.147 3.015 3.147s3.015-1.407 3.015-3.147c0-1.972-1.708-2.707-2.512-5.508-0.138-0.509-0.848-0.534-1.005 0zM25.625 23.035c-0.804 2.789-2.512 3.542-2.512 5.508 0 1.74 1.35 3.147 3.015 3.147s3.015-1.407 3.015-3.147c0-1.972-1.708-2.707-2.512-5.508-0.138-0.509-0.848-0.534-1.005 0z"></path>
</svg>
