<!-- Generated by IcoMoon.io -->
<svg version="1.1" xmlns="http://www.w3.org/2000/svg" width="32" height="32" viewBox="0 0 32 32">
<title>cloud-meatball</title>
<path d="M3.015 21.641c-1.664 0-3.015 1.35-3.015 3.015s1.35 3.015 3.015 3.015 3.015-1.35 3.015-3.015-1.35-3.015-3.015-3.015zM29.142 21.641c-1.664 0-3.015 1.35-3.015 3.015s1.35 3.015 3.015 3.015 3.015-1.35 3.015-3.015-1.35-3.015-3.015-3.015zM21.668 22.338c0.289-0.911 0.1-1.934-0.615-2.657-0.722-0.722-1.746-0.904-2.657-0.622-0.44-0.848-1.3-1.445-2.317-1.445s-1.878 0.597-2.317 1.445c-0.911-0.289-1.934-0.1-2.657 0.622s-0.904 1.746-0.622 2.657c-0.848 0.44-1.445 1.3-1.445 2.317s0.597 1.878 1.445 2.317c-0.289 0.911-0.1 1.934 0.622 2.657 0.515 0.515 1.187 0.773 1.865 0.773 0.27 0 0.534-0.069 0.791-0.157 0.44 0.848 1.3 1.445 2.317 1.445s1.878-0.597 2.317-1.445c0.258 0.082 0.521 0.157 0.791 0.157 0.678 0 1.35-0.258 1.865-0.773 0.722-0.722 0.904-1.746 0.615-2.657 0.848-0.44 1.445-1.3 1.445-2.317s-0.597-1.878-1.445-2.317zM32.157 13.602c0-3.329-2.701-6.029-6.029-6.029-0.038 0-0.069 0.013-0.1 0.013 0.069-0.327 0.1-0.666 0.1-1.018 0-2.776-2.248-5.024-5.024-5.024-1.545 0-2.908 0.71-3.831 1.809-1.168-2.261-3.498-3.819-6.218-3.819-3.888 0-7.034 3.147-7.034 7.034 0 0.458 0.050 0.898 0.132 1.332-2.405 0.791-4.151 3.034-4.151 5.703 0 3.329 2.701 6.029 6.029 6.029h2.726c0.226-0.503 0.527-0.967 0.93-1.369 0.848-0.848 1.978-1.325 3.191-1.338 0.848-0.829 1.991-1.313 3.203-1.313s2.355 0.484 3.203 1.313c1.212 0.012 2.343 0.49 3.191 1.338 0.402 0.402 0.71 0.867 0.93 1.369h2.726c3.329 0 6.029-2.701 6.029-6.029z"></path>
</svg>
