<!-- Generated by IcoMoon.io -->
<svg version="1.1" xmlns="http://www.w3.org/2000/svg" width="32" height="32" viewBox="0 0 32 32">
<title>cloud-showers-heavy</title>
<path d="M11.55 22.778c-0.477-0.276-1.093-0.113-1.369 0.377l-4.020 7.034c-0.276 0.484-0.107 1.099 0.377 1.369 0.157 0.088 0.327 0.132 0.496 0.132 0.345 0 0.685-0.182 0.873-0.509l4.020-7.034c0.276-0.477 0.107-1.093-0.377-1.369zM17.579 22.778c-0.477-0.276-1.093-0.113-1.369 0.377l-4.020 7.034c-0.276 0.484-0.107 1.099 0.377 1.369 0.157 0.088 0.327 0.132 0.496 0.132 0.345 0 0.685-0.182 0.873-0.509l4.020-7.034c0.276-0.477 0.107-1.093-0.377-1.369zM5.521 22.778c-0.477-0.276-1.093-0.113-1.369 0.377l-4.020 7.034c-0.276 0.484-0.107 1.099 0.377 1.369 0.157 0.088 0.327 0.132 0.496 0.132 0.345 0 0.685-0.182 0.873-0.509l4.020-7.034c0.276-0.477 0.107-1.093-0.377-1.369zM29.638 22.778c-0.477-0.276-1.093-0.113-1.369 0.377l-4.020 7.034c-0.276 0.484-0.107 1.099 0.377 1.369 0.157 0.088 0.327 0.132 0.496 0.132 0.345 0 0.685-0.182 0.873-0.509l4.020-7.034c0.276-0.477 0.107-1.093-0.377-1.369zM23.609 22.778c-0.477-0.276-1.093-0.113-1.369 0.377l-4.020 7.034c-0.276 0.484-0.107 1.099 0.377 1.369 0.157 0.088 0.327 0.132 0.496 0.132 0.345 0 0.685-0.182 0.873-0.509l4.020-7.034c0.276-0.477 0.107-1.093-0.377-1.369zM26.127 7.572c-0.038 0-0.069 0.013-0.1 0.013 0.069-0.327 0.1-0.666 0.1-1.018 0-2.776-2.248-5.024-5.024-5.024-1.545 0-2.908 0.71-3.831 1.809-1.168-2.261-3.498-3.819-6.218-3.819-3.881 0-7.034 3.147-7.034 7.034 0 0.458 0.050 0.898 0.132 1.332-2.405 0.791-4.151 3.034-4.151 5.703 0 3.329 2.701 6.029 6.029 6.029h20.098c3.329 0 6.029-2.701 6.029-6.029s-2.701-6.029-6.029-6.029z"></path>
</svg>
