<!-- Generated by IcoMoon.io -->
<svg version="1.1" xmlns="http://www.w3.org/2000/svg" width="36" height="32" viewBox="0 0 36 32">
<title>cloud-moon</title>
<path d="M21.53 21.685c0.358-0.603 0.578-1.3 0.578-2.054 0-2.217-1.802-4.020-4.020-4.020-1.080 0-2.060 0.433-2.782 1.124-1.024-1.859-2.983-3.134-5.257-3.134-3.329 0-6.029 2.701-6.029 6.029 0 0.126 0.031 0.239 0.038 0.358-2.355 0.823-4.057 3.040-4.057 5.671 0 3.329 2.701 6.029 6.029 6.029h15.073c2.776 0 5.024-2.248 5.024-5.024 0-2.632-2.029-4.761-4.597-4.98zM35.504 18.274c-5.847 1.112-11.211-3.373-11.211-9.276 0-3.404 1.821-6.532 4.78-8.215 0.458-0.258 0.339-0.948-0.176-1.049-0.735-0.132-1.47-0.201-2.205-0.201-6.651 0-12.053 5.395-12.053 12.059 0 0.534 0.044 1.055 0.113 1.57 0.371 0.27 0.729 0.559 1.049 0.892 0.716-0.295 1.488-0.452 2.286-0.452 3.322 0 6.029 2.707 6.029 6.029 0 0.226-0.012 0.452-0.038 0.672 1.482 0.678 2.663 1.853 3.36 3.304 3.417-0.214 6.513-1.84 8.611-4.422 0.333-0.408-0.031-1.011-0.546-0.911z"></path>
</svg>
