<!-- Generated by IcoMoon.io -->
<svg version="1.1" xmlns="http://www.w3.org/2000/svg" width="39" height="32" viewBox="0 0 39 32">
<title>cloudversify</title>
<path d="M9.333 18.626c0.515 4.302 4.233 7.254 9.17 6.99 3.216 2.72 8.592 2.877 11.707-0.352 4.346 0.069 7.443-2.801 8.259-6.249 0.93-3.925-1.143-8.322-5.784-9.741-2.073-5.533-8.253-6.375-11.713-5.339-3.599 1.087-5.295 3.341-6.237 6.89-0.49 0.17-1.664 0.559-2.826 1.514 0.735 0 0.955 0.559 0.955 1.225v1.281c0 0.672-0.546 1.225-1.225 1.225h-1.269c-0.672 0-1.225-0.377-1.225-1.049v-0.415h-2.939c-0.239 0-0.678 0.27-0.678 0.747v2.537c0 0.402 0.333 0.741 0.735 0.741h3.071zM23.615 19.128c-0.672 2.908 1.363 4.547 3.473 5.452-6.733 2.123-10.777-3.191-8.498-6.959-2.085 1.357-2.117 4.472-1.834 5.835-1.124-0.779-3.379-2.035-3.605-5.012-0.188-2.506 1.35-4.754 3.58-5.898 1.922-0.992 6.5-0.534 8.391 2.563-0.886-3.015-3.379-4.403-6.394-4.698 1.941-1.928 4.045-3.159 7.172-2.745 4.384 0.584 8.366 5.2 4.252 9.452 2.198-1.024 3.059-3.417 2.983-4.83l0.66 1.231c0.741 1.382 0.955 2.99 0.59 4.522-0.578 2.449-2.55 4.321-5.006 4.805-2.016 0.396-5.219-0.32-5.766-3.718zM8.039 12.597h-2.5c-0.559 0-1.018-0.458-1.018-1.018v-2.487c0-0.559 0.458-1.018 1.018-1.018h2.5c0.559 0 1.018 0.458 1.018 1.018v2.487c0 0.559-0.458 1.018-1.018 1.018zM0.634 10.084c-0.352 0-0.634-0.283-0.634-0.634v-1.746c0-0.352 0.283-0.634 0.634-0.634h1.74c0.345 0 0.634 0.283 0.634 0.634v1.746c0 0.352-0.283 0.634-0.634 0.634h-1.74zM10.551 8.495v-1.344c0-0.32 0.264-0.584 0.584-0.584h1.344c0.32 0 0.584 0.264 0.584 0.584v1.344c0 0.32-0.264 0.584-0.584 0.584h-1.344c-0.32 0-0.584-0.264-0.584-0.584zM3.517 14.324v1.57c0 0.396-0.32 0.722-0.716 0.722h-1.583c-0.396 0-0.716-0.327-0.716-0.722v-1.57c0-0.396 0.32-0.722 0.716-0.722h1.576c0.402 0 0.722 0.327 0.722 0.722z"></path>
</svg>
