<!-- Generated by IcoMoon.io -->
<svg version="1.1" xmlns="http://www.w3.org/2000/svg" width="36" height="32" viewBox="0 0 36 32">
<title>cocktail</title>
<path d="M18.591 28.675h-3.517v-7.865l10.598-10.597c0.975-0.975 0.285-2.641-1.094-2.641h-23.027c-1.379 0-2.069 1.666-1.094 2.641l10.598 10.597v7.865h-3.517c-1.387 0-2.512 1.125-2.512 2.512 0 0.278 0.225 0.503 0.502 0.503h15.073c0.278 0 0.503-0.225 0.503-0.503 0-1.387-1.125-2.512-2.512-2.512zM27.132-0.467c-3.932 0-7.245 2.525-8.49 6.029h3.3c1.046-1.793 2.969-3.015 5.19-3.015 3.324 0 6.029 2.704 6.029 6.029s-2.705 6.029-6.029 6.029c-0.882 0-1.714-0.201-2.47-0.543l-2.215 2.215c1.37 0.835 2.963 1.343 4.684 1.343 4.995 0 9.044-4.049 9.044-9.044s-4.049-9.044-9.044-9.044z"></path>
</svg>
