<!-- Generated by IcoMoon.io -->
<svg version="1.1" xmlns="http://www.w3.org/2000/svg" width="40" height="32" viewBox="0 0 40 32">
<title>code</title>
<path d="M17.517 31.658l-3.831-1.112c-0.402-0.113-0.628-0.534-0.515-0.936l8.573-29.531c0.113-0.402 0.534-0.628 0.936-0.515l3.831 1.112c0.402 0.113 0.628 0.534 0.515 0.936l-8.573 29.531c-0.119 0.402-0.534 0.634-0.936 0.515zM10.357 24.611l2.732-2.914c0.289-0.308 0.27-0.798-0.050-1.080l-5.69-5.006 5.69-5.006c0.32-0.283 0.345-0.773 0.050-1.080l-2.732-2.914c-0.283-0.301-0.76-0.32-1.068-0.031l-9.050 8.479c-0.32 0.295-0.32 0.804 0 1.099l9.050 8.485c0.308 0.289 0.785 0.276 1.068-0.031zM30.907 24.649l9.050-8.485c0.32-0.295 0.32-0.804 0-1.099l-9.050-8.491c-0.301-0.283-0.779-0.27-1.068 0.031l-2.732 2.914c-0.289 0.308-0.27 0.798 0.050 1.080l5.69 5.012-5.69 5.006c-0.32 0.283-0.345 0.773-0.050 1.080l2.732 2.914c0.283 0.308 0.76 0.32 1.068 0.038z"></path>
</svg>
