<!-- Generated by IcoMoon.io -->
<svg version="1.1" xmlns="http://www.w3.org/2000/svg" width="24" height="32" viewBox="0 0 24 32">
<title>code-branch</title>
<path d="M24.118 8.577c0-2.776-2.248-5.024-5.024-5.024s-5.024 2.248-5.024 5.024c0 2.286 1.526 4.214 3.611 4.823-0.038 1.011-0.264 1.79-0.691 2.317-0.967 1.206-3.096 1.407-5.351 1.614-1.771 0.163-3.605 0.339-5.106 1.061v-9.044c2.041-0.641 3.517-2.544 3.517-4.792 0-2.776-2.248-5.024-5.024-5.024s-5.024 2.248-5.024 5.024c0 2.248 1.476 4.151 3.517 4.792v12.517c-2.041 0.647-3.517 2.55-3.517 4.798 0 2.776 2.248 5.024 5.024 5.024s5.024-2.248 5.024-5.024c0-2.135-1.332-3.963-3.216-4.685 0.195-0.327 0.49-0.615 0.936-0.842 1.018-0.515 2.537-0.653 4.151-0.804 2.65-0.245 5.653-0.527 7.424-2.726 0.879-1.093 1.325-2.5 1.357-4.265 1.985-0.678 3.417-2.556 3.417-4.767zM5.024 3.553c0.553 0 1.005 0.452 1.005 1.005s-0.452 1.005-1.005 1.005-1.005-0.452-1.005-1.005 0.452-1.005 1.005-1.005zM5.024 27.67c-0.553 0-1.005-0.452-1.005-1.005s0.452-1.005 1.005-1.005 1.005 0.452 1.005 1.005-0.452 1.005-1.005 1.005zM19.093 7.572c0.553 0 1.005 0.452 1.005 1.005s-0.452 1.005-1.005 1.005-1.005-0.452-1.005-1.005 0.452-1.005 1.005-1.005z"></path>
</svg>
