<!-- Generated by IcoMoon.io -->
<svg version="1.1" xmlns="http://www.w3.org/2000/svg" width="30" height="32" viewBox="0 0 30 32">
<title>codiepie</title>
<path d="M26.536 12.276c1.928 0 2.104 3.335-0.019 3.335h-0.678v2.782h-1.671v-6.117h2.368zM29.644 21.678c-2.644 5.772-7.637 9.509-14.069 9.509-8.604 0-15.576-6.971-15.576-15.576s6.971-15.576 15.576-15.576c6.117 0 10.853 3.373 13.704 8.692l-11.682 6.833 12.046 6.117zM27.226 22.463l-3.787-1.928c-1.702 2.782-4.422 4.484-7.687 4.484-5.181 0-9.371-4.189-9.371-9.352 0-5.181 4.189-9.371 9.371-9.371 3.040 0 5.583 1.476 7.342 3.982l3.737-2.173c-2.556-3.932-6.576-6.281-11.255-6.281-7.612 0-13.786 6.174-13.786 13.786s6.174 13.786 13.786 13.786c4.937 0 9.201-2.644 11.651-6.934z"></path>
</svg>
