<!-- Generated by IcoMoon.io -->
<svg version="1.1" xmlns="http://www.w3.org/2000/svg" width="40" height="32" viewBox="0 0 40 32">
<title>coffee</title>
<path d="M12.059 23.651h12.059c3.329 0 6.029-2.701 6.029-6.029h2.010c4.434 0 8.039-3.605 8.039-8.039s-3.605-8.039-8.039-8.039h-24.62c-0.835 0-1.507 0.672-1.507 1.507v14.571c0 3.329 2.701 6.029 6.029 6.029zM32.157 5.562c2.217 0 4.020 1.803 4.020 4.020s-1.803 4.020-4.020 4.020h-2.010v-8.039h2.010zM35.153 29.68h-32.119c-2.99 0-3.831-4.020-2.261-4.020h36.635c1.57 0 0.741 4.020-2.255 4.020z"></path>
</svg>
