<!-- Generated by IcoMoon.io -->
<svg version="1.1" xmlns="http://www.w3.org/2000/svg" width="32" height="32" viewBox="0 0 32 32">
<title>cog</title>
<path d="M27.935 17.816l2.677 1.545c0.306 0.176 0.448 0.541 0.343 0.878-0.695 2.239-1.882 4.261-3.435 5.941-0.138 0.149-0.335 0.243-0.554 0.243-0.139 0-0.269-0.037-0.381-0.103l0.004 0.002-2.675-1.545c-1.080 0.929-2.347 1.678-3.732 2.18l-0.084 0.027v3.089c0 0 0 0 0 0 0 0.358-0.249 0.658-0.584 0.735l-0.005 0.001c-2.195 0.493-4.553 0.518-6.86 0-0.345-0.077-0.591-0.383-0.591-0.736v-3.089c-1.469-0.528-2.736-1.277-3.832-2.22l0.016 0.013-2.675 1.545c-0.108 0.064-0.238 0.101-0.377 0.101-0.219 0-0.416-0.093-0.554-0.242l-0-0c-1.552-1.68-2.74-3.702-3.435-5.941-0.105-0.337 0.037-0.702 0.343-0.878l2.677-1.545c-0.128-0.663-0.202-1.425-0.202-2.204s0.073-1.542 0.214-2.28l-0.012 0.076-2.677-1.545c-0.306-0.176-0.448-0.541-0.343-0.878 0.695-2.239 1.882-4.261 3.435-5.941 0.138-0.149 0.335-0.243 0.554-0.243 0.139 0 0.269 0.037 0.381 0.103l-0.004-0.002 2.675 1.545c1.080-0.929 2.347-1.678 3.732-2.18l0.084-0.027v-3.089c0 0 0 0 0 0 0-0.358 0.249-0.658 0.584-0.735l0.005-0.001c2.195-0.493 4.553-0.518 6.86-0 0.345 0.077 0.59 0.383 0.59 0.736v3.089c1.469 0.528 2.736 1.277 3.832 2.22l-0.016-0.013 2.674-1.545c0.108-0.064 0.238-0.101 0.377-0.101 0.219 0 0.416 0.093 0.554 0.242l0 0c1.552 1.68 2.74 3.702 3.435 5.941 0.105 0.337-0.037 0.702-0.343 0.878l-2.677 1.545c0.128 0.663 0.202 1.425 0.202 2.205s-0.073 1.542-0.214 2.28l0.012-0.076zM21.103 15.611c0-2.77-2.254-5.024-5.024-5.024s-5.024 2.254-5.024 5.024 2.254 5.024 5.024 5.024 5.024-2.254 5.024-5.024z"></path>
</svg>
