<!-- Generated by IcoMoon.io -->
<svg version="1.1" xmlns="http://www.w3.org/2000/svg" width="40" height="32" viewBox="0 0 40 32">
<title>cogs</title>
<path d="M32.163 11.529l-0.515 0.898c-0.188 0.333-0.59 0.471-0.948 0.339-0.741-0.276-1.419-0.672-2.016-1.168-0.289-0.239-0.364-0.66-0.176-0.986l0.515-0.898c-0.433-0.502-0.773-1.087-0.999-1.721h-1.036c-0.377 0-0.703-0.27-0.766-0.647-0.126-0.754-0.132-1.545 0-2.33 0.063-0.377 0.389-0.653 0.766-0.653h1.036c0.226-0.634 0.565-1.218 0.999-1.721l-0.515-0.898c-0.188-0.327-0.119-0.747 0.176-0.986 0.597-0.496 1.281-0.892 2.016-1.168 0.358-0.132 0.76 0.006 0.948 0.339l0.515 0.898c0.66-0.119 1.331-0.119 1.991 0l0.515-0.898c0.188-0.333 0.59-0.471 0.948-0.339 0.741 0.276 1.419 0.672 2.016 1.168 0.289 0.239 0.364 0.66 0.176 0.986l-0.515 0.898c0.433 0.502 0.773 1.087 0.999 1.721h1.036c0.377 0 0.703 0.27 0.766 0.647 0.126 0.754 0.132 1.545 0 2.33-0.063 0.377-0.389 0.653-0.766 0.653h-1.036c-0.226 0.634-0.565 1.218-0.999 1.721l0.515 0.898c0.188 0.327 0.119 0.747-0.176 0.986-0.597 0.496-1.281 0.892-2.016 1.168-0.358 0.132-0.76-0.006-0.948-0.339l-0.515-0.898c-0.653 0.119-1.331 0.119-1.991 0zM31.504 7.836c2.418 1.859 5.175-0.898 3.316-3.316-2.418-1.865-5.175 0.898-3.316 3.316zM24.262 17.502l2.117 1.055c0.634 0.364 0.911 1.137 0.66 1.828-0.559 1.52-1.658 2.914-2.676 4.133-0.465 0.559-1.269 0.697-1.903 0.333l-1.828-1.055c-1.005 0.86-2.173 1.545-3.448 1.991v2.11c0 0.729-0.521 1.357-1.237 1.482-1.545 0.264-3.165 0.276-4.767 0-0.722-0.126-1.256-0.747-1.256-1.482v-2.11c-1.275-0.452-2.443-1.13-3.448-1.991l-1.828 1.049c-0.628 0.364-1.438 0.226-1.903-0.333-1.018-1.218-2.091-2.613-2.65-4.126-0.251-0.685 0.025-1.457 0.66-1.828l2.091-1.055c-0.245-1.313-0.245-2.663 0-3.982l-2.091-1.061c-0.634-0.364-0.917-1.137-0.66-1.821 0.559-1.52 1.633-2.914 2.65-4.133 0.465-0.559 1.269-0.697 1.903-0.333l1.828 1.055c1.005-0.86 2.173-1.545 3.448-1.991v-2.117c0-0.722 0.515-1.35 1.231-1.476 1.545-0.264 3.172-0.276 4.773-0.006 0.722 0.126 1.256 0.747 1.256 1.482v2.11c1.275 0.452 2.443 1.13 3.448 1.991l1.828-1.055c0.628-0.364 1.438-0.226 1.903 0.333 1.017 1.218 2.085 2.613 2.644 4.133 0.251 0.685 0.006 1.457-0.628 1.828l-2.117 1.055c0.245 1.319 0.245 2.669 0 3.988zM16.876 18.827c3.718-4.836-1.803-10.357-6.639-6.639-3.718 4.836 1.803 10.357 6.639 6.639zM32.163 30.302l-0.515 0.898c-0.188 0.333-0.59 0.471-0.948 0.339-0.741-0.276-1.419-0.672-2.016-1.168-0.289-0.239-0.364-0.66-0.176-0.986l0.515-0.898c-0.433-0.503-0.773-1.087-0.999-1.721h-1.036c-0.377 0-0.703-0.27-0.766-0.647-0.126-0.754-0.132-1.545 0-2.33 0.063-0.377 0.389-0.653 0.766-0.653h1.036c0.226-0.634 0.565-1.218 0.999-1.721l-0.515-0.898c-0.188-0.327-0.119-0.747 0.176-0.986 0.597-0.496 1.281-0.892 2.016-1.168 0.358-0.132 0.76 0.006 0.948 0.339l0.515 0.898c0.66-0.119 1.331-0.119 1.991 0l0.515-0.898c0.188-0.333 0.59-0.471 0.948-0.339 0.741 0.276 1.419 0.672 2.016 1.168 0.289 0.239 0.364 0.66 0.176 0.986l-0.515 0.898c0.433 0.503 0.773 1.087 0.999 1.721h1.036c0.377 0 0.703 0.27 0.766 0.647 0.126 0.754 0.132 1.545 0 2.33-0.063 0.377-0.389 0.653-0.766 0.653h-1.036c-0.226 0.634-0.565 1.218-0.999 1.721l0.515 0.898c0.188 0.327 0.119 0.747-0.176 0.986-0.597 0.496-1.281 0.892-2.016 1.168-0.358 0.132-0.76-0.006-0.948-0.339l-0.515-0.898c-0.653 0.119-1.331 0.119-1.991 0zM31.504 26.602c2.418 1.859 5.175-0.898 3.316-3.316-2.418-1.859-5.175 0.898-3.316 3.316z"></path>
</svg>
