<!-- Generated by IcoMoon.io -->
<svg version="1.1" xmlns="http://www.w3.org/2000/svg" width="32" height="32" viewBox="0 0 32 32">
<title>coins</title>
<path d="M0 24.988v2.682c0 2.217 5.401 4.020 12.059 4.020s12.059-1.802 12.059-4.020v-2.682c-2.594 1.828-7.336 2.682-12.059 2.682s-9.465-0.854-12.059-2.682zM20.098 7.572c6.657 0 12.059-1.803 12.059-4.020s-5.401-4.020-12.059-4.020-12.059 1.802-12.059 4.020 5.401 4.020 12.059 4.020zM0 18.4v3.241c0 2.217 5.401 4.020 12.059 4.020s12.059-1.802 12.059-4.020v-3.241c-2.594 2.135-7.342 3.241-12.059 3.241s-9.465-1.105-12.059-3.241zM26.127 19.091c3.599-0.697 6.029-1.991 6.029-3.479v-2.682c-1.457 1.030-3.599 1.733-6.029 2.167v3.994zM12.059 9.582c-6.657 0-12.059 2.248-12.059 5.024s5.401 5.025 12.059 5.025 12.059-2.248 12.059-5.024-5.401-5.024-12.059-5.024zM25.832 13.118c3.768-0.678 6.325-2.010 6.325-3.536v-2.682c-2.23 1.576-6.061 2.424-10.093 2.625 1.853 0.898 3.216 2.104 3.768 3.592z"></path>
</svg>
