<!-- Generated by IcoMoon.io -->
<svg version="1.1" xmlns="http://www.w3.org/2000/svg" width="32" height="32" viewBox="0 0 32 32">
<title>collapse</title>
<path d="M28.48-0.166c-0.362 0.063-3.492 3.053-5.016 4.143l-2.088-2.093c-0.227-0.222-0.545-0.318-0.839-0.227-0.299 0.092-0.506 0.338-0.569 0.646-0.772 3.969-0.4 8.59-0.381 8.778 0.019 0.193 0.096 0.362 0.232 0.492 0.125 0.135 0.299 0.207 0.492 0.232 0.193 0.019 4.809 0.395 8.778-0.381 0.304-0.063 0.555-0.275 0.646-0.569 0.092-0.299-0.010-0.617-0.227-0.839l-2.093-2.088c1.085-1.524 4.008-4.727 4.071-5.093 0.087-0.535-0.352-1.375-0.95-1.973-0.603-0.598-1.519-1.124-2.055-1.027zM3.018-0.089c-0.535-0.092-1.375 0.352-1.973 0.95s-1.124 1.514-1.027 2.050c0.063 0.362 3.053 3.492 4.143 5.016l-2.093 2.088c-0.222 0.227-0.318 0.545-0.227 0.839 0.092 0.299 0.338 0.506 0.646 0.569 3.969 0.772 8.59 0.4 8.778 0.381 0.193-0.019 0.362-0.096 0.492-0.232 0.135-0.125 0.207-0.299 0.232-0.492 0.019-0.188 0.395-4.809-0.381-8.778-0.063-0.304-0.275-0.555-0.569-0.646-0.299-0.092-0.617 0.010-0.839 0.227l-2.088 2.093c-1.524-1.085-4.727-4.008-5.093-4.066zM8.3 19.29c-1.669 0-3.825 0.101-5.812 0.492-0.304 0.063-0.555 0.275-0.646 0.569-0.092 0.299 0.010 0.617 0.227 0.839l2.093 2.088c-1.085 1.524-4.008 4.727-4.066 5.093-0.092 0.535 0.352 1.375 0.95 1.978 0.598 0.598 1.514 1.119 2.050 1.023 0.367-0.063 3.492-3.053 5.016-4.143l2.088 2.093c0.227 0.222 0.545 0.318 0.839 0.227 0.299-0.092 0.506-0.338 0.569-0.646 0.772-3.969 0.405-8.585 0.381-8.778-0.019-0.193-0.096-0.362-0.232-0.492-0.13-0.135-0.299-0.207-0.492-0.232-0.096-0.010-1.293-0.111-2.966-0.111zM23.276 19.29c-1.674 0-2.87 0.101-2.966 0.111-0.193 0.019-0.362 0.096-0.492 0.232-0.135 0.125-0.207 0.299-0.232 0.492-0.014 0.193-0.391 4.804 0.381 8.778 0.063 0.304 0.275 0.555 0.569 0.646 0.299 0.092 0.617-0.010 0.839-0.227l2.088-2.093c1.524 1.085 4.727 4.008 5.093 4.071 0.535 0.087 1.375-0.352 1.978-0.95 0.598-0.603 1.119-1.519 1.023-2.055-0.063-0.362-3.053-3.492-4.143-5.016l2.093-2.088c0.222-0.227 0.318-0.545 0.227-0.839-0.092-0.299-0.338-0.506-0.646-0.569-1.987-0.391-4.143-0.492-5.812-0.492z"></path>
</svg>
