<!-- Generated by IcoMoon.io -->
<svg version="1.1" xmlns="http://www.w3.org/2000/svg" width="32" height="32" viewBox="0 0 32 32">
<title>com-file-format-symbol</title>
<path d="M27.737 7.239c-0.002-0.148-0.049-0.293-0.15-0.408l-6.201-7.082c-0.001-0.002-0.003-0.003-0.005-0.004-0.037-0.041-0.079-0.075-0.125-0.105-0.013-0.009-0.027-0.017-0.041-0.025-0.040-0.021-0.081-0.039-0.125-0.052-0.012-0.003-0.022-0.008-0.034-0.011-0.047-0.011-0.096-0.018-0.145-0.018h-15.238c-0.695 0-1.261 0.566-1.261 1.261v29.635c0 0.696 0.566 1.261 1.261 1.261h20.807c0.696 0 1.261-0.566 1.261-1.261v-23.119c0-0.024-0.004-0.047-0.006-0.071zM5.675 0.794h14.607v6.452c0 0.348 0.282 0.631 0.631 0.631h5.569l0.001 13.068h-20.808v-20.151zM9.957 28.33c0.457 0 0.964-0.099 1.261-0.218l0.229 1.182c-0.278 0.139-0.904 0.288-1.717 0.288-2.314 0-3.506-1.44-3.506-3.347 0-2.284 1.629-3.555 3.655-3.555 0.784 0 1.38 0.159 1.649 0.298l-0.309 1.202c-0.307-0.129-0.735-0.248-1.271-0.248-1.202 0-2.135 0.725-2.135 2.214-0 1.341 0.795 2.184 2.145 2.184zM14.981 29.592c-1.986 0-3.147-1.499-3.147-3.406 0-2.006 1.281-3.506 3.257-3.506 2.056 0 3.177 1.539 3.177 3.386-0 2.195-1.331 3.525-3.287 3.525zM25.020 29.483l-0.099-2.562c-0.030-0.805-0.060-1.778-0.060-2.751h-0.030c-0.209 0.853-0.487 1.807-0.745 2.591l-0.814 2.612h-1.182l-0.714-2.592c-0.219-0.784-0.447-1.738-0.606-2.611h-0.020c-0.039 0.904-0.070 1.936-0.119 2.77l-0.119 2.542h-1.4l0.427-6.693h2.016l0.655 2.234c0.209 0.775 0.418 1.609 0.567 2.393h0.029c0.189-0.775 0.417-1.658 0.636-2.403l0.715-2.225h1.977l0.367 6.693-1.481 0zM15.050 23.882c-1.022 0-1.617 0.973-1.617 2.274 0 1.311 0.615 2.235 1.628 2.235 1.023 0 1.609-0.973 1.609-2.275-0-1.202-0.576-2.234-1.62-2.234zM9.065 6.653v11.757h13.097v-11.757h-13.097zM21.594 17.84h-11.959v-9.157h11.959v9.157zM10.11 9.5h4.033v7.545h-4.033v-7.545zM16.821 11.169l-1.423-0.623v-0.008l1.423-0.623v-0.415l-1.881 0.874v0.337l1.881 0.874zM19.949 10.362l-1.881-0.862v0.415l1.454 0.623v0.008l-1.454 0.623v0.415l1.881-0.862z"></path>
</svg>
