<!-- Generated by IcoMoon.io -->
<svg version="1.1" xmlns="http://www.w3.org/2000/svg" width="32" height="32" viewBox="0 0 32 32">
<title>comment-dollar</title>
<path d="M16.078 1.543c-8.88 0-16.078 5.848-16.078 13.064 0 3.113 1.345 5.967 3.581 8.211-0.789 3.16-3.412 5.981-3.443 6.014-0.086 0.090-0.138 0.212-0.138 0.346 0 0.277 0.225 0.502 0.502 0.502 0 0 0 0 0 0v0c4.162 0 7.285-1.994 8.831-3.227 2.053 0.773 4.333 1.217 6.745 1.217 8.88 0 16.078-5.849 16.078-13.064s-7.199-13.064-16.078-13.064zM17.586 20.538v1.103c0 0.555-0.45 1.005-1.005 1.005h-1.005c-0.555 0-1.005-0.45-1.005-1.005v-1.114c-0.717-0.085-1.399-0.326-1.996-0.72-0.391-0.258-0.428-0.823-0.097-1.154l1.1-1.1c0.235-0.235 0.585-0.266 0.886-0.128 0.2 0.092 0.418 0.139 0.644 0.139h2.059c0.293 0 0.53-0.237 0.53-0.529 0-0.235-0.158-0.445-0.384-0.509l-3.145-0.898c-1.397-0.399-2.513-1.552-2.695-2.994-0.254-2.014 1.195-3.733 3.098-3.96v-1.102c0-0.555 0.45-1.005 1.005-1.005h1.005c0.555 0 1.005 0.45 1.005 1.005v1.114c0.717 0.085 1.399 0.326 1.996 0.72 0.391 0.258 0.428 0.823 0.097 1.154l-1.1 1.1c-0.235 0.235-0.585 0.266-0.886 0.127-0.188-0.088-0.408-0.139-0.64-0.139-0.001 0-0.003 0-0.004 0h-2.059c-0.293 0-0.53 0.237-0.53 0.529 0 0.235 0.158 0.445 0.384 0.509l3.145 0.898c1.397 0.399 2.513 1.552 2.695 2.994 0.254 2.014-1.195 3.732-3.098 3.959z"></path>
</svg>
