<!-- Generated by IcoMoon.io -->
<svg version="1.1" xmlns="http://www.w3.org/2000/svg" width="32" height="32" viewBox="0 0 32 32">
<title>comment</title>
<path d="M16.078 1.543c-8.881 0-16.078 5.847-16.078 13.064 0 2.99 1.25 5.728 3.322 7.932-0.936 2.475-2.883 4.572-2.914 4.597-0.415 0.44-0.527 1.080-0.289 1.633s0.785 0.911 1.388 0.911c3.863 0 6.909-1.614 8.736-2.908 1.815 0.572 3.775 0.898 5.835 0.898 8.881 0 16.078-5.847 16.078-13.064s-7.198-13.064-16.078-13.064zM16.078 24.655c-1.677 0-3.335-0.258-4.924-0.76l-1.426-0.452-1.225 0.867c-0.898 0.634-2.129 1.344-3.611 1.821 0.458-0.76 0.904-1.614 1.25-2.525l0.666-1.765-1.294-1.369c-1.137-1.212-2.5-3.216-2.5-5.866 0-5.54 5.86-10.049 13.064-10.049s13.064 4.509 13.064 10.049-5.86 10.049-13.064 10.049z"></path>
</svg>
