<!-- Generated by IcoMoon.io -->
<svg version="1.1" xmlns="http://www.w3.org/2000/svg" width="32" height="32" viewBox="0 0 32 32">
<title>comment-alt</title>
<path d="M28.137-0.467h-24.118c-2.217 0-4.020 1.802-4.020 4.020v18.088c0 2.217 1.802 4.020 4.020 4.020h6.029v5.276c0 0.446 0.364 0.754 0.754 0.754 0.151 0 0.308-0.044 0.446-0.151l7.844-5.879h9.044c2.217 0 4.020-1.802 4.020-4.020v-18.088c0-2.217-1.802-4.020-4.020-4.020zM29.142 21.641c0 0.553-0.452 1.005-1.005 1.005h-10.049l-5.024 3.768v-3.768h-9.044c-0.553 0-1.005-0.452-1.005-1.005v-18.088c0-0.553 0.452-1.005 1.005-1.005h24.118c0.553 0 1.005 0.452 1.005 1.005v18.088z"></path>
</svg>
