<!-- Generated by IcoMoon.io -->
<svg version="1.1" xmlns="http://www.w3.org/2000/svg" width="36" height="32" viewBox="0 0 36 32">
<title>comments-dollar</title>
<path d="M26.127 11.592c0-5.55-5.848-10.049-13.064-10.049s-13.064 4.499-13.064 10.049c0 2.152 0.887 4.142 2.385 5.777-0.839 1.899-2.226 3.403-2.247 3.424-0.086 0.090-0.138 0.212-0.138 0.346 0 0.277 0.225 0.502 0.502 0.502 0 0 0 0 0 0v0c2.297 0 4.204-0.769 5.573-1.569 2.022 0.989 4.415 1.569 6.988 1.569 7.215 0 13.064-4.499 13.064-10.049zM12.059 17.621v-1.023c-0.709-0.036-1.399-0.284-1.97-0.713-0.245-0.184-0.258-0.551-0.036-0.762l0.738-0.704c0.174-0.166 0.433-0.173 0.636-0.046 0.243 0.152 0.519 0.234 0.805 0.234h1.765c0.408 0 0.741-0.372 0.741-0.828 0-0.374-0.227-0.703-0.551-0.8l-2.826-0.848c-1.168-0.35-1.983-1.471-1.983-2.725 0-1.54 1.196-2.791 2.68-2.831v-1.013c0-0.278 0.225-0.503 0.502-0.503h1.005c0.278 0 0.502 0.225 0.502 0.502v1.023c0.709 0.036 1.399 0.283 1.97 0.713 0.245 0.184 0.258 0.551 0.036 0.762l-0.738 0.704c-0.174 0.166-0.433 0.173-0.636 0.046-0.243-0.153-0.519-0.234-0.805-0.234h-1.765c-0.408 0-0.741 0.372-0.741 0.828 0 0.374 0.227 0.703 0.551 0.8l2.826 0.848c1.168 0.35 1.983 1.471 1.983 2.725 0 1.541-1.196 2.791-2.68 2.831v1.012c0 0.278-0.225 0.503-0.502 0.503h-1.005c-0.278 0-0.502-0.225-0.502-0.503zM33.79 25.408c1.499-1.635 2.386-3.625 2.386-5.778 0-4.204-3.36-7.801-8.123-9.3 0.054 0.415 0.084 0.835 0.084 1.26 0 6.649-6.762 12.059-15.073 12.059-0.677 0-1.339-0.048-1.993-0.118 1.98 3.612 6.626 6.147 12.042 6.147 2.574 0 4.966-0.58 6.988-1.569 1.369 0.8 3.275 1.569 5.573 1.569 0.201 0 0.383-0.12 0.461-0.304 0.080-0.185 0.041-0.398-0.097-0.545-0.020-0.021-1.408-1.522-2.247-3.423z"></path>
</svg>
