<!-- Generated by IcoMoon.io -->
<svg version="1.1" xmlns="http://www.w3.org/2000/svg" width="40" height="32" viewBox="0 0 40 32">
<title>comment-slash</title>
<path d="M4.020 14.606c0 3.115 1.344 5.967 3.58 8.209-0.791 3.159-3.41 5.979-3.442 6.017-0.138 0.145-0.176 0.358-0.094 0.546 0.082 0.182 0.258 0.301 0.458 0.301 4.164 0 7.286-1.997 8.831-3.228 2.054 0.773 4.334 1.218 6.745 1.218 1.721 0 3.373-0.226 4.924-0.628l-20.443-15.802c-0.352 1.074-0.559 2.198-0.559 3.366zM39.806 28.304l-7.185-5.552c2.211-2.236 3.555-5.056 3.555-8.146 0-7.216-7.198-13.064-16.078-13.064-4.089 0-7.801 1.262-10.639 3.31l-6.601-5.106c-0.44-0.339-1.068-0.264-1.413 0.176l-1.231 1.583c-0.339 0.44-0.264 1.068 0.176 1.407l36.955 28.558c0.44 0.339 1.068 0.264 1.413-0.176l1.231-1.589c0.339-0.427 0.258-1.061-0.182-1.401z"></path>
</svg>
