<!-- Generated by IcoMoon.io -->
<svg version="1.1" xmlns="http://www.w3.org/2000/svg" width="36" height="32" viewBox="0 0 36 32">
<title>comments1</title>
<path d="M26.127 11.592c0-5.552-5.847-10.049-13.064-10.049s-13.064 4.497-13.064 10.049c0 2.154 0.886 4.139 2.387 5.778-0.842 1.897-2.23 3.404-2.248 3.423-0.138 0.145-0.176 0.358-0.094 0.546s0.258 0.301 0.458 0.301c2.299 0 4.202-0.773 5.571-1.57 2.022 0.986 4.415 1.57 6.99 1.57 7.216 0 13.064-4.497 13.064-10.049zM33.79 25.409c1.501-1.633 2.387-3.624 2.387-5.778 0-4.202-3.36-7.801-8.121-9.302 0.057 0.415 0.082 0.835 0.082 1.262 0 6.651-6.764 12.059-15.073 12.059-0.678 0-1.338-0.050-1.991-0.119 1.978 3.611 6.626 6.149 12.040 6.149 2.575 0 4.968-0.578 6.99-1.57 1.369 0.798 3.272 1.57 5.571 1.57 0.201 0 0.383-0.119 0.458-0.301 0.082-0.182 0.044-0.396-0.094-0.546-0.019-0.019-1.407-1.52-2.248-3.423z"></path>
</svg>
