<!-- Generated by IcoMoon.io -->
<svg version="1.1" xmlns="http://www.w3.org/2000/svg" width="32" height="32" viewBox="0 0 32 32">
<title>command</title>
<path d="M11.84 5.123c-1.365 0-2.66 1.062-2.96 2.42l-0.32 1.42h23.119l0.26-1.14c0.155-0.702 0.012-1.407-0.4-1.92-0.407-0.507-1.020-0.78-1.72-0.78zM8.28 10.243l-3.1 13.94c-0.155 0.702-0.010 1.407 0.4 1.92 0.402 0.5 1.030 0.78 1.72 0.78h17.979c1.365 0 2.657-1.062 2.96-2.42l3.16-14.22zM0.001 11.523v1.28h6.26l0.28-1.28zM11.88 12.803h15.139l-1.1 4.48h-15.159zM0.001 16.643v1.28h5.12l0.28-1.28zM0.001 21.763v1.28h3.98l0.28-1.28z"></path>
</svg>
