<!-- Generated by IcoMoon.io -->
<svg version="1.1" xmlns="http://www.w3.org/2000/svg" width="36" height="32" viewBox="0 0 36 32">
<title>comments</title>
<path d="M33.413 23.789c1.727-1.702 2.763-3.837 2.763-6.168 0-5.024-4.805-9.176-11.066-9.917-1.978-3.618-6.626-6.161-12.046-6.161-7.216 0-13.064 4.497-13.064 10.049 0 2.324 1.036 4.459 2.763 6.168-0.961 1.928-2.343 3.423-2.368 3.448-0.396 0.421-0.509 1.036-0.276 1.57 0.226 0.534 0.754 0.879 1.331 0.879 3.36 0 6.073-1.269 7.863-2.437 0.578 0.132 1.175 0.232 1.784 0.308 1.972 3.605 6.601 6.142 12.015 6.142 1.306 0 2.563-0.151 3.756-0.427 1.79 1.162 4.497 2.437 7.863 2.437 0.578 0 1.099-0.345 1.331-0.879 0.226-0.534 0.119-1.149-0.276-1.57-0.025-0.019-1.413-1.514-2.374-3.442zM8.743 17.992l-1.074 0.697c-0.886 0.572-1.79 1.024-2.707 1.344 0.17-0.295 0.339-0.609 0.502-0.93l0.973-1.953-1.558-1.539c-0.848-0.842-1.865-2.217-1.865-4.020 0-3.812 4.604-7.034 10.049-7.034s10.049 3.222 10.049 7.034-4.604 7.034-10.049 7.034c-1.036 0-2.073-0.119-3.078-0.352l-1.244-0.283zM31.296 21.641l-1.551 1.532 0.973 1.953c0.163 0.32 0.333 0.634 0.503 0.93-0.917-0.32-1.821-0.773-2.707-1.344l-1.074-0.697-1.25 0.289c-1.005 0.232-2.041 0.352-3.078 0.352-3.392 0-6.419-1.262-8.246-3.121 6.362-0.678 11.261-4.861 11.261-9.942 0-0.214-0.025-0.421-0.044-0.628 4.045 0.911 7.078 3.567 7.078 6.657 0 1.802-1.017 3.178-1.865 4.020z"></path>
</svg>
