<!-- Generated by IcoMoon.io -->
<svg version="1.1" xmlns="http://www.w3.org/2000/svg" width="32" height="32" viewBox="0 0 32 32">
<title>compare-git</title>
<path d="M16 0.003l-5.714 5.714 5.714 5.714v-4.571h5.714c1.909 0 3.429 1.52 3.429 3.429v12.786c-1.323 0.477-2.286 1.736-2.286 3.214 0 1.88 1.549 3.429 3.429 3.429s3.429-1.549 3.429-3.429c0-1.479-0.962-2.738-2.286-3.214v-12.786c0-3.143-2.571-5.714-5.714-5.714h-5.714v-4.571zM5.714 2.289c-1.88 0-3.429 1.549-3.429 3.429 0 1.479 0.962 2.738 2.286 3.214v12.786c0 3.143 2.571 5.714 5.714 5.714h5.714v4.571l5.714-5.714-5.714-5.714v4.571h-5.714c-1.909 0-3.429-1.52-3.429-3.429v-12.786c1.323-0.477 2.286-1.736 2.286-3.214 0-1.88-1.549-3.429-3.429-3.429zM5.714 4.575c0.645 0 1.143 0.498 1.143 1.143s-0.498 1.143-1.143 1.143c-0.645 0-1.143-0.498-1.143-1.143s0.498-1.143 1.143-1.143zM26.286 25.146c0.645 0 1.143 0.498 1.143 1.143s-0.498 1.143-1.143 1.143c-0.645 0-1.143-0.498-1.143-1.143s0.498-1.143 1.143-1.143z"></path>
</svg>
