<!-- Generated by IcoMoon.io -->
<svg version="1.1" xmlns="http://www.w3.org/2000/svg" width="31" height="32" viewBox="0 0 31 32">
<title>compass</title>
<path d="M21.853 7.689l-9.065 4.143c-0.44 0.204-0.786 0.55-0.985 0.978l-0.005 0.012-4.143 9.065c-0.478 1.046 0.599 2.123 1.645 1.645l9.065-4.143c0.44-0.204 0.786-0.55 0.985-0.978l0.005-0.012 4.143-9.065c0.478-1.046-0.599-2.123-1.645-1.645zM16.994 17.029c-0.783 0.783-2.053 0.783-2.836 0s-0.783-2.053 0-2.836c0.783-0.783 2.053-0.783 2.836 0s0.783 2.053 0 2.836zM15.576 0.035c-8.603 0-15.576 6.973-15.576 15.576s6.973 15.576 15.576 15.576 15.576-6.973 15.576-15.576-6.973-15.576-15.576-15.576zM15.576 28.173c-6.926 0-12.561-5.635-12.561-12.561s5.635-12.561 12.561-12.561 12.561 5.635 12.561 12.561-5.635 12.561-12.561 12.561z"></path>
</svg>
