<!-- Generated by IcoMoon.io -->
<svg version="1.1" xmlns="http://www.w3.org/2000/svg" width="32" height="32" viewBox="0 0 32 32">
<title>computer-support</title>
<path d="M4.48 5.123c-1.436 0-2.56 1.124-2.56 2.56v14.080c0 0.472 0.131 0.904 0.345 1.28h-1.625c-0.354 0-0.64 0.286-0.64 0.64 0 1.764 1.436 3.2 3.2 3.2h12.094l3.84-3.84h-14.654c-0.73 0-1.28-0.55-1.28-1.28v-14.080c0-0.73 0.55-1.28 1.28-1.28h23.040c0.73 0 1.28 0.55 1.28 1.28v6.689c0.451 0.16 0.879 0.366 1.28 0.614v-7.303c0-1.436-1.124-2.56-2.56-2.56h-23.040zM26.56 15.363c-3 0-5.44 2.44-5.44 5.44 0 0.627 0.107 1.239 0.319 1.828l-5.398 5.398c-0.908 0.908-0.908 2.386 0 3.294 0.454 0.454 1.050 0.68 1.646 0.68s1.192-0.226 1.646-0.68l5.398-5.398c0.589 0.212 1.202 0.319 1.829 0.319 3 0 5.44-2.44 5.44-5.44 0-0.574-0.093-1.148-0.275-1.703l-0.117-0.358-3.739 3.66-2.269-0.64-0.64-2.27 3.659-3.738-0.356-0.116c-0.553-0.183-1.126-0.276-1.703-0.276z"></path>
</svg>
