<!-- Generated by IcoMoon.io -->
<svg version="1.1" xmlns="http://www.w3.org/2000/svg" width="32" height="32" viewBox="0 0 32 32">
<title>compass2</title>
<path d="M16.031-0.185c-8.84 0-16.031 7.192-16.031 16.031s7.192 16.031 16.031 16.031 16.031-7.192 16.031-16.031-7.192-16.031-16.031-16.031zM16.566 30.796v-12.269c1.572 0.060 4.639 0.585 9.797 5.199 0.101 0.091 0.229 0.136 0.356 0.136 0.115 0 0.23-0.037 0.326-0.111 0.204-0.157 0.266-0.438 0.149-0.667l-10.688-20.841c-0.183-0.356-0.768-0.356-0.951 0l-10.688 20.841c-0.118 0.229-0.055 0.51 0.149 0.667 0.204 0.158 0.492 0.147 0.683-0.025 5.157-4.614 8.225-5.14 9.797-5.199v12.269c-8.003-0.283-14.428-6.878-14.428-14.949 0-8.25 6.712-14.963 14.963-14.963s14.963 6.712 14.963 14.963c0 8.071-6.425 14.666-14.428 14.949z"></path>
</svg>
