<!-- Generated by IcoMoon.io -->
<svg version="1.1" xmlns="http://www.w3.org/2000/svg" width="32" height="32" viewBox="0 0 32 32">
<title>compress-arrows-alt</title>
<path d="M12.561 17.621h-7.034c-1.344 0-2.016 1.62-1.068 2.575l2.066 1.947-6.23 6.237c-0.389 0.389-0.389 1.030 0 1.419l1.595 1.595c0.389 0.389 1.030 0.389 1.419 0l6.237-6.237 1.953 2.073c0.948 0.948 2.569 0.276 2.569-1.068v-7.034c0-0.835-0.672-1.507-1.507-1.507zM19.596 13.602h7.034c1.344 0 2.016-1.627 1.068-2.575l-2.073-1.947 6.237-6.237c0.389-0.389 0.389-1.030 0-1.419l-1.595-1.595c-0.389-0.389-1.030-0.389-1.419 0l-6.237 6.237-1.953-2.073c-0.948-0.948-2.569-0.276-2.569 1.068v7.034c0 0.835 0.672 1.507 1.507 1.507zM25.625 22.143l2.073-1.953c0.948-0.948 0.276-2.569-1.068-2.569h-7.034c-0.835 0-1.507 0.672-1.507 1.507v7.034c0 1.344 1.627 2.016 2.575 1.068l1.947-2.066 6.237 6.237c0.389 0.389 1.030 0.389 1.419 0l1.595-1.595c0.389-0.389 0.389-1.030 0-1.419l-6.237-6.243zM11.493 3.998l-1.947 2.066-6.237-6.237c-0.389-0.389-1.030-0.389-1.419 0l-1.595 1.595c-0.389 0.389-0.389 1.030 0 1.419l6.237 6.237-2.073 1.953c-0.948 0.948-0.276 2.569 1.068 2.569h7.034c0.835 0 1.507-0.672 1.507-1.507v-7.034c0-1.338-1.627-2.010-2.575-1.061z"></path>
</svg>
