<!-- Generated by IcoMoon.io -->
<svg version="1.1" xmlns="http://www.w3.org/2000/svg" width="31" height="32" viewBox="0 0 31 32">
<title>compact-disc</title>
<path d="M15.576 0.035c-8.604 0-15.576 6.971-15.576 15.576s6.971 15.576 15.576 15.576 15.576-6.971 15.576-15.576-6.971-15.576-15.576-15.576zM5.527 15.611h-2.010c0-6.651 5.408-12.059 12.059-12.059v2.010c-5.54 0-10.049 4.509-10.049 10.049zM15.576 21.641c-3.329 0-6.029-2.701-6.029-6.029s2.701-6.029 6.029-6.029 6.029 2.701 6.029 6.029-2.701 6.029-6.029 6.029zM15.576 13.602c-1.112 0-2.010 0.898-2.010 2.010s0.898 2.010 2.010 2.010 2.010-0.898 2.010-2.010-0.898-2.010-2.010-2.010z"></path>
</svg>
