<!-- Generated by IcoMoon.io -->
<svg version="1.1" xmlns="http://www.w3.org/2000/svg" width="31" height="32" viewBox="0 0 31 32">
<title>compass1</title>
<path d="M14.155 14.19c-0.785 0.785-0.785 2.058 0 2.842s2.058 0.785 2.842 0c0.785-0.785 0.785-2.058 0-2.842s-2.058-0.784-2.842 0zM15.576 0.035c-8.603 0-15.576 6.973-15.576 15.576s6.973 15.576 15.576 15.576 15.576-6.973 15.576-15.576-6.973-15.576-15.576-15.576zM23.498 9.334l-4.143 9.066c-0.204 0.44-0.55 0.786-0.978 0.985l-0.012 0.005-9.065 4.143c-1.046 0.478-2.123-0.6-1.645-1.645l4.144-9.066c0.204-0.44 0.55-0.786 0.978-0.985l0.012-0.005 9.065-4.143c1.046-0.477 2.123 0.6 1.645 1.645z"></path>
</svg>
