<!-- Generated by IcoMoon.io -->
<svg version="1.1" xmlns="http://www.w3.org/2000/svg" width="32" height="32" viewBox="0 0 32 32">
<title>company</title>
<path d="M11.636 0.003v0.727h-2.909v31.273h2.909v-0.727h0.727v0.727h0.727v-0.727h0.727v0.727h0.727v-0.727h0.727v0.727h0.727v-0.727h0.727v0.727h0.727v-0.727h0.727v0.727h0.727v-0.727h0.727v0.727h2.909v-31.273h-2.909v-0.727zM7.273 3.034l-7.273 3.028v25.94h2.909v-1.455h0.727v1.455h0.727v-1.455h0.727v1.455h0.727v-1.455h0.727v1.455h0.727zM11.636 3.639h0.727v0.727h-0.727zM13.091 3.639h0.727v0.727h-0.727zM14.545 3.639h0.727v0.727h-0.727zM16 3.639h0.727v0.727h-0.727zM17.455 3.639h0.727v0.727h-0.727zM18.909 3.639h0.727v0.727h-0.727zM11.636 5.094h0.727v0.727h-0.727zM13.091 5.094h0.727v0.727h-0.727zM14.545 5.094h0.727v0.727h-0.727zM16 5.094h0.727v0.727h-0.727zM17.455 5.094h0.727v0.727h-0.727zM18.909 5.094h0.727v0.727h-0.727zM6.545 6.355v1.648h-0.727v-1.366zM11.636 6.549h0.727v0.727h-0.727zM13.091 6.549h0.727v0.727h-0.727zM14.545 6.549h0.727v0.727h-0.727zM16 6.549h0.727v0.727h-0.727zM17.455 6.549h0.727v0.727h-0.727zM18.909 6.549h0.727v0.727h-0.727zM24 6.549v2.909h0.727v0.727h-0.727v0.727h0.727v0.727h-0.727v0.727h0.727v0.727h-0.727v0.727h0.727v0.727h-0.727v0.727h0.727v0.727h-0.727v0.727h0.727v0.727h-0.727v0.727h0.727v0.727h-0.727v0.727h0.727v0.727h-0.727v0.727h0.727v0.727h-0.727v0.727h0.727v0.727h-0.727v0.727h0.727v0.727h-0.727v0.727h0.727v0.727h-0.727v0.727h0.727v0.727h-0.727v0.727h0.727v0.727h-0.727v0.727h0.727v0.727h-0.727v0.727h0.727v0.727h0.727v-0.727h1.455v0.727h0.727v-0.727h1.455v0.727h2.909v-25.455zM5.091 6.912v1.091h-0.727v-0.81zM3.636 7.469v0.534h-0.727v-0.253zM11.636 8.003h0.727v0.727h-0.727zM13.091 8.003h0.727v0.727h-0.727zM14.545 8.003h0.727v0.727h-0.727zM16 8.003h0.727v0.727h-0.727zM17.455 8.003h0.727v0.727h-0.727zM18.909 8.003h0.727v0.727h-0.727zM2.909 8.73h0.727v1.455h-0.727zM4.364 8.73h0.727v1.455h-0.727zM5.818 8.73h0.727v1.455h-0.727zM11.636 9.458h0.727v0.727h-0.727zM13.091 9.458h0.727v0.727h-0.727zM14.545 9.458h0.727v0.727h-0.727zM16 9.458h0.727v0.727h-0.727zM17.455 9.458h0.727v0.727h-0.727zM18.909 9.458h0.727v0.727h-0.727zM25.455 9.458h1.455v0.727h-1.455zM27.636 9.458h1.455v0.727h-1.455zM2.909 10.912h0.727v1.455h-0.727zM4.364 10.912h0.727v1.455h-0.727zM5.818 10.912h0.727v1.455h-0.727zM11.636 10.912h0.727v0.727h-0.727zM13.091 10.912h0.727v0.727h-0.727zM14.545 10.912h0.727v0.727h-0.727zM16 10.912h0.727v0.727h-0.727zM17.455 10.912h0.727v0.727h-0.727zM18.909 10.912h0.727v0.727h-0.727zM25.455 10.912h1.455v0.727h-1.455zM27.636 10.912h1.455v0.727h-1.455zM11.636 12.367h0.727v0.727h-0.727zM13.091 12.367h0.727v0.727h-0.727zM14.545 12.367h0.727v0.727h-0.727zM16 12.367h0.727v0.727h-0.727zM17.455 12.367h0.727v0.727h-0.727zM18.909 12.367h0.727v0.727h-0.727zM25.455 12.367h1.455v0.727h-1.455zM27.636 12.367h1.455v0.727h-1.455zM2.909 13.094h0.727v1.455h-0.727zM4.364 13.094h0.727v1.455h-0.727zM5.818 13.094h0.727v1.455h-0.727zM11.636 13.821h0.727v0.727h-0.727zM13.091 13.821h0.727v0.727h-0.727zM14.545 13.821h0.727v0.727h-0.727zM16 13.821h0.727v0.727h-0.727zM17.455 13.821h0.727v0.727h-0.727zM18.909 13.821h0.727v0.727h-0.727zM25.455 13.821h1.455v0.727h-1.455zM27.636 13.821h1.455v0.727h-1.455zM2.909 15.276h0.727v1.455h-0.727zM4.364 15.276h0.727v1.455h-0.727zM5.818 15.276h0.727v1.455h-0.727zM11.636 15.276h0.727v0.727h-0.727zM13.091 15.276h0.727v0.727h-0.727zM14.545 15.276h0.727v0.727h-0.727zM16 15.276h0.727v0.727h-0.727zM17.455 15.276h0.727v0.727h-0.727zM18.909 15.276h0.727v0.727h-0.727zM25.455 15.276h1.455v0.727h-1.455zM27.636 15.276h1.455v0.727h-1.455zM11.636 16.73h0.727v0.727h-0.727zM13.091 16.73h0.727v0.727h-0.727zM14.545 16.73h0.727v0.727h-0.727zM16 16.73h0.727v0.727h-0.727zM17.455 16.73h0.727v0.727h-0.727zM18.909 16.73h0.727v0.727h-0.727zM25.455 16.73h1.455v0.727h-1.455zM27.636 16.73h1.455v0.727h-1.455zM2.909 17.458h0.727v1.455h-0.727zM4.364 17.458h0.727v1.455h-0.727zM5.818 17.458h0.727v1.455h-0.727zM11.636 18.185h0.727v0.727h-0.727zM13.091 18.185h0.727v0.727h-0.727zM14.545 18.185h0.727v0.727h-0.727zM16 18.185h0.727v0.727h-0.727zM17.455 18.185h0.727v0.727h-0.727zM18.909 18.185h0.727v0.727h-0.727zM25.455 18.185h1.455v0.727h-1.455zM27.636 18.185h1.455v0.727h-1.455zM2.909 19.64h0.727v1.455h-0.727zM4.364 19.64h0.727v1.455h-0.727zM5.818 19.64h0.727v1.455h-0.727zM11.636 19.64h0.727v0.727h-0.727zM13.091 19.64h0.727v0.727h-0.727zM14.545 19.64h0.727v0.727h-0.727zM16 19.64h0.727v0.727h-0.727zM17.455 19.64h0.727v0.727h-0.727zM18.909 19.64h0.727v0.727h-0.727zM25.455 19.64h1.455v0.727h-1.455zM27.636 19.64h1.455v0.727h-1.455zM11.636 21.094h0.727v0.727h-0.727zM13.091 21.094h0.727v0.727h-0.727zM14.545 21.094h0.727v0.727h-0.727zM16 21.094h0.727v0.727h-0.727zM17.455 21.094h0.727v0.727h-0.727zM18.909 21.094h0.727v0.727h-0.727zM25.455 21.094h1.455v0.727h-1.455zM27.636 21.094h1.455v0.727h-1.455zM2.909 21.821h0.727v1.455h-0.727zM4.364 21.821h0.727v1.455h-0.727zM5.818 21.821h0.727v1.455h-0.727zM11.636 22.549h0.727v0.727h-0.727zM13.091 22.549h0.727v0.727h-0.727zM14.545 22.549h0.727v0.727h-0.727zM16 22.549h0.727v0.727h-0.727zM17.455 22.549h0.727v0.727h-0.727zM18.909 22.549h0.727v0.727h-0.727zM25.455 22.549h1.455v0.727h-1.455zM27.636 22.549h1.455v0.727h-1.455zM2.909 24.003h0.727v1.455h-0.727zM4.364 24.003h0.727v1.455h-0.727zM5.818 24.003h0.727v1.455h-0.727zM11.636 24.003h0.727v0.727h-0.727zM13.091 24.003h0.727v0.727h-0.727zM14.545 24.003h0.727v0.727h-0.727zM16 24.003h0.727v0.727h-0.727zM17.455 24.003h0.727v0.727h-0.727zM18.909 24.003h0.727v0.727h-0.727zM25.455 24.003h1.455v0.727h-1.455zM27.636 24.003h1.455v0.727h-1.455zM11.636 25.458h0.727v0.727h-0.727zM13.091 25.458h0.727v0.727h-0.727zM14.545 25.458h0.727v0.727h-0.727zM16 25.458h0.727v0.727h-0.727zM17.455 25.458h0.727v0.727h-0.727zM18.909 25.458h0.727v0.727h-0.727zM25.455 25.458h1.455v0.727h-1.455zM27.636 25.458h1.455v0.727h-1.455zM2.909 26.185h0.727v1.455h-0.727zM4.364 26.185h0.727v1.455h-0.727zM5.818 26.185h0.727v1.455h-0.727zM11.636 26.912h0.727v0.727h-0.727zM13.091 26.912h0.727v0.727h-0.727zM14.545 26.912h0.727v0.727h-0.727zM16 26.912h0.727v0.727h-0.727zM17.455 26.912h0.727v0.727h-0.727zM18.909 26.912h0.727v0.727h-0.727zM25.455 26.912h1.455v0.727h-1.455zM27.636 26.912h1.455v0.727h-1.455zM2.909 28.367h0.727v1.455h-0.727zM4.364 28.367h0.727v1.455h-0.727zM5.818 28.367h0.727v1.455h-0.727zM11.636 28.367h0.727v0.727h-0.727zM13.091 28.367h0.727v0.727h-0.727zM14.545 28.367h0.727v0.727h-0.727zM16 28.367h0.727v0.727h-0.727zM17.455 28.367h0.727v0.727h-0.727zM18.909 28.367h0.727v0.727h-0.727zM25.455 28.367h1.455v0.727h-1.455zM27.636 28.367h1.455v0.727h-1.455zM11.636 29.821h0.727v0.727h-0.727zM13.091 29.821h0.727v0.727h-0.727zM14.545 29.821h0.727v0.727h-0.727zM16 29.821h0.727v0.727h-0.727zM17.455 29.821h0.727v0.727h-0.727zM18.909 29.821h0.727v0.727h-0.727zM25.455 29.821h1.455v0.727h-1.455zM27.636 29.821h1.455v0.727h-1.455z"></path>
</svg>
