<!-- Generated by IcoMoon.io -->
<svg version="1.1" xmlns="http://www.w3.org/2000/svg" width="32" height="32" viewBox="0 0 32 32">
<title>concierge-bell</title>
<path d="M18.088 7.732v-1.164h1.005c0.555 0 1.005-0.45 1.005-1.005v-1.005c0-0.555-0.45-1.005-1.005-1.005h-6.029c-0.555 0-1.005 0.45-1.005 1.005v1.005c0 0.555 0.45 1.005 1.005 1.005h1.005v1.164c-6.815 0.978-12.059 6.823-12.059 13.909h28.137c0-7.086-5.244-12.931-12.059-13.909zM31.152 23.651h-30.147c-0.555 0-1.005 0.45-1.005 1.005v2.010c0 0.555 0.45 1.005 1.005 1.005h30.147c0.555 0 1.005-0.45 1.005-1.005v-2.010c0-0.555-0.45-1.005-1.005-1.005z"></path>
</svg>
