<!-- Generated by IcoMoon.io -->
<svg version="1.1" xmlns="http://www.w3.org/2000/svg" width="32" height="32" viewBox="0 0 32 32">
<title>confluence</title>
<path d="M0.144 25.422c-0.283 0.477-0.132 1.099 0.345 1.394l6.651 4.095c0.484 0.295 1.112 0.151 1.407-0.333 0-0.006 0.006-0.012 0.006-0.012 4.214-7.047 5.056-6.023 17.642-0.044 0.509 0.245 1.118 0.025 1.363-0.484 0.006-0.006 0.006-0.019 0.012-0.025l3.165-7.166c0.226-0.509-0.006-1.105-0.509-1.338-1.394-0.653-4.158-1.96-6.651-3.159-15.57-7.574-20.776 2.87-23.433 7.072zM32.012 5.82c0.283-0.477 0.132-1.099-0.345-1.394l-6.645-4.089c-0.471-0.314-1.105-0.195-1.419 0.276-0.012 0.019-0.025 0.038-0.038 0.063-4.227 7.072-5.094 6.004-17.623 0.057-0.509-0.245-1.118-0.025-1.363 0.484-0.006 0.006-0.006 0.019-0.013 0.025l-3.172 7.166c-0.226 0.509 0.006 1.105 0.509 1.338 1.394 0.653 4.164 1.96 6.657 3.165 15.576 7.537 20.776-2.851 23.452-7.091z"></path>
</svg>
