<!-- Generated by IcoMoon.io -->
<svg version="1.1" xmlns="http://www.w3.org/2000/svg" width="36" height="32" viewBox="0 0 36 32">
<title>connectdevelop</title>
<path d="M34.575 14.669l-3.146-5.451c0.067-0.134 0.118-0.286 0.118-0.454 0-0.505-0.421-0.925-0.925-0.942l-3.482-6.023c0.034-0.101 0.067-0.202 0.067-0.303 0-0.538-0.437-0.959-0.959-0.959-0.303 0-0.555 0.135-0.74 0.353h-6.695c-0.168-0.219-0.421-0.353-0.723-0.353s-0.555 0.135-0.723 0.353h-6.662c-0.185-0.219-0.437-0.353-0.74-0.353-0.521 0-0.959 0.421-0.959 0.959 0 0.101 0.034 0.219 0.067 0.303l-3.516 6.107c-0.336 0.151-0.572 0.471-0.572 0.858 0 0.034 0.017 0.067 0.017 0.101l-3.348 5.787c-0.454 0.084-0.791 0.471-0.791 0.942 0 0.454 0.32 0.841 0.757 0.942l3.466 5.989c-0.034 0.101-0.051 0.185-0.051 0.303 0 0.454 0.32 0.841 0.757 0.925l3.247 5.636c-0.034 0.101-0.067 0.219-0.067 0.336 0 0.538 0.437 0.959 0.959 0.959 0.303 0 0.555-0.135 0.723-0.336h6.712c0.168 0.202 0.437 0.336 0.723 0.336s0.555-0.135 0.723-0.336h6.729c0.168 0.185 0.421 0.303 0.69 0.303 0.538 0 0.959-0.437 0.959-0.959 0-0.101-0.017-0.185-0.050-0.269l3.247-5.669c0.437-0.084 0.757-0.471 0.757-0.925 0-0.101-0.017-0.202-0.051-0.303l3.449-5.989c0.437-0.084 0.774-0.471 0.774-0.942-0-0.454-0.32-0.841-0.74-0.925zM9.643 27.842l-2.742-4.761h2.742v4.761zM9.643 22.576h-2.742c-0.017-0.067-0.051-0.134-0.084-0.202l2.826-2.978v3.179zM9.643 18.656l-3.163 3.348c-0.084-0.034-0.168-0.084-0.252-0.101l-3.499-6.056c0.034-0.084 0.034-0.168 0.034-0.252s0-0.151-0.017-0.219l3.264-5.653c0.168-0.017 0.336-0.067 0.488-0.168l3.146 3.264v5.838zM9.643 12.23l-2.877-2.978c0.084-0.135 0.135-0.303 0.135-0.488 0-0.017-0.017-0.051-0.017-0.067l2.759-0.993v4.525zM9.643 7.166l-2.742 0.993 2.742-4.744v3.752zM30.15 9.622l0.051 0.084-2.221 10.498-4.004-4.223 6.157-6.376 0.017 0.017zM18.324 21.836l0.723 0.74h-1.43l0.707-0.74zM18.307 21.129l-5.232-5.367 4.996-5.299 5.215 5.501-4.98 5.165zM18.643 21.499l4.98-5.165 4.239 4.475-0.37 1.766h-7.789l-1.060-1.077zM25.776 2.321c0.067 0.034 0.134 0.067 0.219 0.084l3.634 6.325v0.034c0 0.185 0.050 0.353 0.135 0.488l-6.124 6.359-5.215-5.501 7.352-7.789zM25.204 2.187l-7.133 7.554-3.583-3.785 10.447-3.768h0.269zM17.449 2.187c0.168 0.168 0.387 0.269 0.639 0.269s0.471-0.101 0.639-0.269h4.71l-9.32 3.365-3.196-3.365h6.527zM10.148 2.54l0.067-0.135c0.072-0.018 0.128-0.036 0.183-0.055l-0.015 0.005 3.213 3.381-3.449 1.245v-4.441zM10.148 7.519l3.819-1.379 3.752 3.97-4.996 5.282-2.574-2.641v-5.232zM10.148 13.34l2.288 2.372-2.288 2.406v-4.778zM10.148 18.858l2.641-2.793 5.198 5.4-1.077 1.11h-6.763v-3.718zM10.585 29.036c-0.101-0.101-0.219-0.168-0.37-0.219l-0.067-0.101v-5.636h6.275l-5.753 5.955h-0.084zM18.744 29.036c-0.168-0.151-0.404-0.269-0.656-0.269s-0.488 0.118-0.656 0.269h-6.056l5.753-5.955h2.406l5.753 5.955h-6.544zM26.281 28.296l-0.269 0.471c-0.084 0.017-0.151 0.050-0.219 0.084l-5.602-5.77h7.184l-1.094 5.215zM27.088 26.9l0.808-3.819h1.379l-2.187 3.819zM29.275 22.576h-1.279l0.286-1.329 1.077 1.144c-0.034 0.050-0.067 0.118-0.084 0.185zM33.431 15.83l-3.482 6.073c-0.084 0.034-0.168 0.067-0.252 0.118l-1.295-1.379 2.17-10.296 2.877 4.98c-0.017 0.084-0.050 0.168-0.050 0.269 0 0.084 0.017 0.151 0.034 0.235z"></path>
</svg>
