<!-- Generated by IcoMoon.io -->
<svg version="1.1" xmlns="http://www.w3.org/2000/svg" width="32" height="32" viewBox="0 0 32 32">
<title>contao</title>
<path d="M2.851 18.689c0.904 4.214 1.658 8.102 4.283 10.991h-4.999c-1.175 0-2.135-0.955-2.135-2.135v-23.866c0-1.175 0.955-2.135 2.135-2.135h3.624c-0.867 0.791-1.639 1.708-2.317 2.738-2.851 4.396-1.696 9.22-0.59 14.408zM30.021 1.543h-5.665c1.344 1.344 2.462 3.109 3.31 5.282l-8.611 1.84c-0.936-1.821-2.374-3.348-5.188-2.757-1.545 0.333-2.575 1.212-3.034 2.173-0.553 1.175-0.829 2.5 0.515 8.812 1.325 6.293 2.117 7.392 3.109 8.24 0.81 0.697 2.098 1.068 3.662 0.735 2.795-0.59 3.498-2.556 3.605-4.597l8.63-1.859c0.201 4.491-1.175 7.863-3.605 10.275h3.272c1.175 0 2.135-0.955 2.135-2.135v-23.873c0-1.181-0.955-2.135-2.135-2.135z"></path>
</svg>
