<!-- Generated by IcoMoon.io -->
<svg version="1.1" xmlns="http://www.w3.org/2000/svg" width="32" height="32" viewBox="0 0 32 32">
<title>cookie-bite</title>
<path d="M32.064 15.6c-4.395-0.053-7.943-3.623-7.943-8.030-4.407 0-7.976-3.548-8.030-7.942-1.712-0.26-3.463 0.019-5.007 0.805l-4.342 2.212c-1.57 0.812-2.818 2.060-3.608 3.585l-0.022 0.046-2.205 4.326c-0.572 1.1-0.908 2.401-0.908 3.781 0 0.46 0.037 0.911 0.109 1.351l-0.006-0.048 0.759 4.79c0.293 1.805 1.13 3.377 2.334 4.582l3.44 3.439c1.2 1.201 2.767 2.035 4.519 2.321l0.048 0.006 4.818 0.763c1.728 0.274 3.498-0.007 5.058-0.801l4.342-2.211c1.57-0.812 2.818-2.060 3.608-3.585l0.022-0.046 2.205-4.326c0.789-1.547 1.068-3.302 0.811-5.019zM11.054 22.646c-1.11 0-2.010-0.9-2.010-2.010s0.9-2.010 2.010-2.010 2.010 0.9 2.010 2.010-0.9 2.010-2.010 2.010zM13.064 12.597c-1.11 0-2.010-0.9-2.010-2.010s0.9-2.010 2.010-2.010 2.010 0.9 2.010 2.010-0.9 2.010-2.010 2.010zM23.113 20.636c-1.11 0-2.010-0.9-2.010-2.010s0.9-2.010 2.010-2.010 2.010 0.9 2.010 2.010-0.9 2.010-2.010 2.010z"></path>
</svg>
