<!-- Generated by IcoMoon.io -->
<svg version="1.1" xmlns="http://www.w3.org/2000/svg" width="32" height="32" viewBox="0 0 32 32">
<title>cookie</title>
<path d="M32.054 15.535l-0.759-4.79c-0.293-1.805-1.13-3.377-2.334-4.582l-3.439-3.439c-1.239-1.239-2.838-2.054-4.567-2.327l-4.817-0.763c-1.728-0.274-3.498 0.007-5.057 0.801l-4.341 2.211c-1.57 0.812-2.818 2.060-3.608 3.584l-0.022 0.046-2.205 4.326c-0.572 1.1-0.908 2.401-0.908 3.781 0 0.46 0.037 0.911 0.109 1.351l-0.006-0.048 0.759 4.79c0.293 1.805 1.13 3.377 2.334 4.582l3.439 3.439c1.201 1.2 2.768 2.035 4.519 2.32l0.048 0.006 4.817 0.762c1.728 0.274 3.498-0.007 5.057-0.801l4.341-2.211c1.57-0.812 2.818-2.060 3.608-3.584l0.022-0.046 2.205-4.325c0.798-1.568 1.080-3.348 0.805-5.085zM11.054 22.646c-1.11 0-2.010-0.9-2.010-2.010s0.9-2.010 2.010-2.010 2.010 0.9 2.010 2.010-0.9 2.010-2.010 2.010zM13.064 12.597c-1.11 0-2.010-0.9-2.010-2.010s0.9-2.010 2.010-2.010 2.010 0.9 2.010 2.010-0.9 2.010-2.010 2.010zM23.113 20.636c-1.11 0-2.010-0.9-2.010-2.010s0.9-2.010 2.010-2.010 2.010 0.9 2.010 2.010-0.9 2.010-2.010 2.010z"></path>
</svg>
