<!-- Generated by IcoMoon.io -->
<svg version="1.1" xmlns="http://www.w3.org/2000/svg" width="32" height="32" viewBox="0 0 32 32">
<title>copyright1</title>
<path d="M16.078 0.035c-8.602 0-15.576 6.974-15.576 15.576s6.974 15.576 15.576 15.576 15.576-6.974 15.576-15.576-6.974-15.576-15.576-15.576zM23.435 21.814c-0.1 0.117-2.498 2.872-6.899 2.872-5.319 0-9.074-3.973-9.074-9.143 0-5.106 3.894-9.006 9.029-9.006 4.205 0 6.404 2.344 6.496 2.443 0.123 0.134 0.198 0.313 0.198 0.51 0 0.152-0.045 0.293-0.122 0.412l0.002-0.003-1.406 2.177c-0.254 0.394-0.802 0.462-1.145 0.144-0.015-0.013-1.666-1.5-3.886-1.5-2.896 0-4.642 2.109-4.642 4.778 0 2.487 1.602 5.005 4.665 5.005 2.43 0 4.1-1.78 4.117-1.798 0.322-0.35 0.883-0.316 1.162 0.066l1.542 2.109c0.091 0.123 0.145 0.278 0.145 0.445 0 0.187-0.068 0.358-0.181 0.49l0.001-0.001z"></path>
</svg>
