<!-- Generated by IcoMoon.io -->
<svg version="1.1" xmlns="http://www.w3.org/2000/svg" width="32" height="32" viewBox="0 0 32 32">
<title>copyright</title>
<path d="M16.078 0.035c-8.602 0-15.576 6.974-15.576 15.576s6.974 15.576 15.576 15.576 15.576-6.974 15.576-15.576-6.974-15.576-15.576-15.576zM16.078 28.173c-6.942 0-12.561-5.618-12.561-12.561 0-6.942 5.618-12.561 12.561-12.561 6.942 0 12.561 5.618 12.561 12.561 0 6.942-5.618 12.561-12.561 12.561zM22.821 21.825c-0.604 0.61-2.86 2.6-6.536 2.6-5.177 0-8.823-3.858-8.823-8.891 0-4.971 3.786-8.755 8.778-8.755 3.488 0 5.573 1.672 6.129 2.184 0.15 0.138 0.243 0.335 0.243 0.553 0 0.152-0.045 0.294-0.123 0.412l0.002-0.003-1.14 1.766c-0.241 0.374-0.751 0.457-1.099 0.184-0.54-0.426-1.998-1.415-3.876-1.415-3.034 0-4.894 2.219-4.894 5.030 0 2.612 1.689 5.256 4.916 5.256 2.051 0 3.57-1.196 4.128-1.71 0.331-0.305 0.854-0.254 1.119 0.109l1.248 1.706c0.091 0.123 0.146 0.278 0.146 0.445 0 0.207-0.084 0.394-0.219 0.529l0-0z"></path>
</svg>
