<!-- Generated by IcoMoon.io -->
<svg version="1.1" xmlns="http://www.w3.org/2000/svg" width="28" height="32" viewBox="0 0 28 32">
<title>copy</title>
<path d="M27.254 3.675l-3.259-3.259c-0.546-0.546-1.299-0.883-2.132-0.883h-10.81c-1.665 0-3.015 1.35-3.015 3.015v3.015h-5.024c-1.665 0-3.015 1.35-3.015 3.015v20.098c0 1.665 1.35 3.015 3.015 3.015h14.069c1.665 0 3.015-1.35 3.015-3.015v-3.015h5.024c1.665 0 3.015-1.35 3.015-3.015v-16.839c0-0.832-0.337-1.586-0.883-2.132v0zM16.706 28.675h-13.315c-0.208 0-0.377-0.169-0.377-0.377v0-19.344c0-0.208 0.169-0.377 0.377-0.377v0h4.648v14.069c0 1.665 1.35 3.015 3.015 3.015h6.029v2.638c0 0.208-0.169 0.377-0.377 0.377v0zM24.746 22.646h-13.315c-0.208 0-0.377-0.169-0.377-0.377v0-19.344c0-0.208 0.169-0.377 0.377-0.377v0h6.657v5.527c0 0.832 0.675 1.507 1.507 1.507h5.527v12.687c0 0.208-0.169 0.377-0.377 0.377v0zM25.122 6.567h-4.020v-4.020h0.605c0.1 0 0.196 0.040 0.266 0.11l3.038 3.038c0.068 0.068 0.11 0.162 0.11 0.266 0 0 0 0 0 0v0 0.605z"></path>
</svg>
