<!-- Generated by IcoMoon.io -->
<svg version="1.1" xmlns="http://www.w3.org/2000/svg" width="32" height="32" viewBox="0 0 32 32">
<title>copy-link</title>
<path d="M2.667 0.003c-1.467 0-2.667 1.2-2.667 2.667v22.4c0 1.467 1.2 2.667 2.667 2.667h0.533v1.6c0 1.467 1.2 2.667 2.667 2.667h23.467c1.467 0 2.667-1.2 2.667-2.667v-23.467c0-1.467-1.2-2.667-2.667-2.667h-1.6v-0.533c0-1.467-1.2-2.667-2.667-2.667zM2.667 1.070h22.4c0.89 0 1.6 0.71 1.6 1.6v0.533h-20.8c-1.467 0-2.667 1.2-2.667 2.667v20.8h-0.533c-0.89 0-1.6-0.71-1.6-1.6v-22.4c0-0.89 0.71-1.6 1.6-1.6zM5.867 4.27h23.467c0.89 0 1.6 0.71 1.6 1.6v23.467c0 0.89-0.71 1.6-1.6 1.6h-23.467c-0.89 0-1.6-0.71-1.6-1.6v-23.467c0-0.89 0.71-1.6 1.6-1.6zM6.933 6.403c-0.294 0-0.533 0.24-0.533 0.533s0.24 0.533 0.533 0.533c0.294 0 0.533-0.24 0.533-0.533s-0.24-0.533-0.533-0.533zM9.067 6.403c-0.294 0-0.533 0.24-0.533 0.533s0.24 0.533 0.533 0.533c0.294 0 0.533-0.24 0.533-0.533s-0.24-0.533-0.533-0.533zM11.2 6.403c-0.294 0-0.533 0.24-0.533 0.533s0.24 0.533 0.533 0.533c0.294 0 0.533-0.24 0.533-0.533s-0.24-0.533-0.533-0.533zM13.333 6.403c-0.294 0-0.533 0.24-0.533 0.533s0.24 0.533 0.533 0.533c0.294 0 0.533-0.24 0.533-0.533s-0.24-0.533-0.533-0.533zM15.467 6.403c-0.294 0-0.533 0.24-0.533 0.533s0.24 0.533 0.533 0.533c0.294 0 0.533-0.24 0.533-0.533s-0.24-0.533-0.533-0.533zM17.6 6.403c-0.294 0-0.533 0.24-0.533 0.533s0.24 0.533 0.533 0.533c0.294 0 0.533-0.24 0.533-0.533s-0.24-0.533-0.533-0.533zM19.733 6.403c-0.294 0-0.533 0.24-0.533 0.533s0.24 0.533 0.533 0.533c0.294 0 0.533-0.24 0.533-0.533s-0.24-0.533-0.533-0.533zM21.867 6.403c-0.294 0-0.533 0.24-0.533 0.533s0.24 0.533 0.533 0.533c0.294 0 0.533-0.24 0.533-0.533s-0.24-0.533-0.533-0.533zM24 6.403c-0.294 0-0.533 0.24-0.533 0.533s0.24 0.533 0.533 0.533c0.294 0 0.533-0.24 0.533-0.533s-0.24-0.533-0.533-0.533zM26.133 6.403c-0.294 0-0.533 0.24-0.533 0.533s0.24 0.533 0.533 0.533c0.294 0 0.533-0.24 0.533-0.533s-0.24-0.533-0.533-0.533zM28.267 6.403c-0.294 0-0.533 0.24-0.533 0.533s0.24 0.533 0.533 0.533c0.294 0 0.533-0.24 0.533-0.533s-0.24-0.533-0.533-0.533zM6.933 8.536c-0.294 0-0.533 0.24-0.533 0.533s0.24 0.533 0.533 0.533c0.294 0 0.533-0.24 0.533-0.533s-0.24-0.533-0.533-0.533zM28.267 8.536c-0.294 0-0.533 0.24-0.533 0.533s0.24 0.533 0.533 0.533c0.294 0 0.533-0.24 0.533-0.533s-0.24-0.533-0.533-0.533zM21.867 10.136c-0.854 0-1.658 0.333-2.26 0.938l-1.602 1.6c-0.604 0.604-0.938 1.408-0.938 2.262 0 0.485 0.11 0.952 0.315 1.377l0.831-0.831c-0.048-0.177-0.079-0.358-0.079-0.546 0-0.569 0.223-1.104 0.625-1.508l1.6-1.6c0.404-0.404 0.94-0.625 1.508-0.625s1.104 0.221 1.508 0.625c0.404 0.404 0.625 0.94 0.625 1.508s-0.223 1.104-0.625 1.508l-1.6 1.6c-0.535 0.535-1.329 0.706-2.042 0.533l-0.844 0.844c0.425 0.204 0.892 0.315 1.377 0.315 0.854 0 1.658-0.333 2.26-0.938l1.602-1.6c0.604-0.604 0.938-1.408 0.938-2.263s-0.333-1.658-0.938-2.262c-0.604-0.604-1.408-0.938-2.262-0.938zM6.933 10.67c-0.294 0-0.533 0.24-0.533 0.533s0.24 0.533 0.533 0.533c0.294 0 0.533-0.24 0.533-0.533s-0.24-0.533-0.533-0.533zM28.267 10.67c-0.294 0-0.533 0.24-0.533 0.533s0.24 0.533 0.533 0.533c0.294 0 0.533-0.24 0.533-0.533s-0.24-0.533-0.533-0.533zM6.933 12.803c-0.294 0-0.533 0.24-0.533 0.533s0.24 0.533 0.533 0.533c0.294 0 0.533-0.24 0.533-0.533s-0.24-0.533-0.533-0.533zM28.267 12.803c-0.294 0-0.533 0.24-0.533 0.533s0.24 0.533 0.533 0.533c0.294 0 0.533-0.24 0.533-0.533s-0.24-0.533-0.533-0.533zM20.256 14.397c-0.14 0.004-0.271 0.063-0.367 0.162l-5.333 5.333c-0.14 0.133-0.196 0.333-0.146 0.519 0.048 0.188 0.194 0.333 0.381 0.381 0.185 0.050 0.385-0.006 0.519-0.146l5.333-5.333c0.158-0.154 0.204-0.387 0.119-0.59-0.085-0.204-0.285-0.333-0.506-0.327zM6.933 14.936c-0.294 0-0.533 0.24-0.533 0.533s0.24 0.533 0.533 0.533c0.294 0 0.533-0.24 0.533-0.533s-0.24-0.533-0.533-0.533zM28.267 14.936c-0.294 0-0.533 0.24-0.533 0.533s0.24 0.533 0.533 0.533c0.294 0 0.533-0.24 0.533-0.533s-0.24-0.533-0.533-0.533zM6.933 17.070c-0.294 0-0.533 0.24-0.533 0.533s0.24 0.533 0.533 0.533c0.294 0 0.533-0.24 0.533-0.533s-0.24-0.533-0.533-0.533zM14.933 17.070c-0.854 0-1.658 0.333-2.26 0.938l-1.602 1.6c-0.604 0.604-0.938 1.408-0.938 2.262s0.333 1.658 0.938 2.262c0.604 0.604 1.408 0.938 2.263 0.938s1.658-0.333 2.26-0.938l1.602-1.6c0.604-0.604 0.938-1.408 0.938-2.262 0-0.485-0.11-0.952-0.315-1.377l-0.831 0.831c0.048 0.177 0.079 0.358 0.079 0.546 0 0.569-0.223 1.104-0.625 1.508l-1.6 1.6c-0.806 0.806-2.21 0.806-3.017 0-0.404-0.404-0.625-0.94-0.625-1.508s0.223-1.104 0.625-1.508l1.6-1.6c0.404-0.404 0.94-0.625 1.508-0.625 0.188 0 0.369 0.031 0.546 0.079l0.831-0.831c-0.425-0.204-0.892-0.315-1.377-0.315zM28.267 17.070c-0.294 0-0.533 0.24-0.533 0.533s0.24 0.533 0.533 0.533c0.294 0 0.533-0.24 0.533-0.533s-0.24-0.533-0.533-0.533zM6.933 19.203c-0.294 0-0.533 0.24-0.533 0.533s0.24 0.533 0.533 0.533c0.294 0 0.533-0.24 0.533-0.533s-0.24-0.533-0.533-0.533zM28.267 19.203c-0.294 0-0.533 0.24-0.533 0.533s0.24 0.533 0.533 0.533c0.294 0 0.533-0.24 0.533-0.533s-0.24-0.533-0.533-0.533zM6.933 21.336c-0.294 0-0.533 0.24-0.533 0.533s0.24 0.533 0.533 0.533c0.294 0 0.533-0.24 0.533-0.533s-0.24-0.533-0.533-0.533zM28.267 21.336c-0.294 0-0.533 0.24-0.533 0.533s0.24 0.533 0.533 0.533c0.294 0 0.533-0.24 0.533-0.533s-0.24-0.533-0.533-0.533zM6.933 23.47c-0.294 0-0.533 0.24-0.533 0.533s0.24 0.533 0.533 0.533c0.294 0 0.533-0.24 0.533-0.533s-0.24-0.533-0.533-0.533zM28.267 23.47c-0.294 0-0.533 0.24-0.533 0.533s0.24 0.533 0.533 0.533c0.294 0 0.533-0.24 0.533-0.533s-0.24-0.533-0.533-0.533zM6.933 25.603c-0.294 0-0.533 0.24-0.533 0.533s0.24 0.533 0.533 0.533c0.294 0 0.533-0.24 0.533-0.533s-0.24-0.533-0.533-0.533zM28.267 25.603c-0.294 0-0.533 0.24-0.533 0.533s0.24 0.533 0.533 0.533c0.294 0 0.533-0.24 0.533-0.533s-0.24-0.533-0.533-0.533zM6.933 27.736c-0.294 0-0.533 0.24-0.533 0.533s0.24 0.533 0.533 0.533c0.294 0 0.533-0.24 0.533-0.533s-0.24-0.533-0.533-0.533zM9.067 27.736c-0.294 0-0.533 0.24-0.533 0.533s0.24 0.533 0.533 0.533c0.294 0 0.533-0.24 0.533-0.533s-0.24-0.533-0.533-0.533zM11.2 27.736c-0.294 0-0.533 0.24-0.533 0.533s0.24 0.533 0.533 0.533c0.294 0 0.533-0.24 0.533-0.533s-0.24-0.533-0.533-0.533zM13.333 27.736c-0.294 0-0.533 0.24-0.533 0.533s0.24 0.533 0.533 0.533c0.294 0 0.533-0.24 0.533-0.533s-0.24-0.533-0.533-0.533zM15.467 27.736c-0.294 0-0.533 0.24-0.533 0.533s0.24 0.533 0.533 0.533c0.294 0 0.533-0.24 0.533-0.533s-0.24-0.533-0.533-0.533zM17.6 27.736c-0.294 0-0.533 0.24-0.533 0.533s0.24 0.533 0.533 0.533c0.294 0 0.533-0.24 0.533-0.533s-0.24-0.533-0.533-0.533zM19.733 27.736c-0.294 0-0.533 0.24-0.533 0.533s0.24 0.533 0.533 0.533c0.294 0 0.533-0.24 0.533-0.533s-0.24-0.533-0.533-0.533zM21.867 27.736c-0.294 0-0.533 0.24-0.533 0.533s0.24 0.533 0.533 0.533c0.294 0 0.533-0.24 0.533-0.533s-0.24-0.533-0.533-0.533zM24 27.736c-0.294 0-0.533 0.24-0.533 0.533s0.24 0.533 0.533 0.533c0.294 0 0.533-0.24 0.533-0.533s-0.24-0.533-0.533-0.533zM26.133 27.736c-0.294 0-0.533 0.24-0.533 0.533s0.24 0.533 0.533 0.533c0.294 0 0.533-0.24 0.533-0.533s-0.24-0.533-0.533-0.533zM28.267 27.736c-0.294 0-0.533 0.24-0.533 0.533s0.24 0.533 0.533 0.533c0.294 0 0.533-0.24 0.533-0.533s-0.24-0.533-0.533-0.533z"></path>
</svg>
