<!-- Generated by IcoMoon.io -->
<svg version="1.1" xmlns="http://www.w3.org/2000/svg" width="28" height="32" viewBox="0 0 28 32">
<title>copy1</title>
<path d="M20.098 27.67v2.512c0 0.832-0.675 1.507-1.507 1.507h-17.083c-0.833 0-1.507-0.675-1.507-1.507v-23.113c0-0.832 0.675-1.507 1.507-1.507h4.522v18.591c0 1.939 1.578 3.517 3.517 3.517h10.551zM20.098 6.065v-6.532h-10.551c-0.832 0-1.507 0.675-1.507 1.507v23.113c0 0.832 0.675 1.507 1.507 1.507h17.083c0.832 0 1.507-0.675 1.507-1.507v-16.581h-6.532c-0.829 0-1.507-0.678-1.507-1.507zM27.696 4.116l-4.142-4.142c-0.273-0.273-0.65-0.442-1.066-0.442h-0.381v6.029h6.029v-0.381c0-0.416-0.169-0.793-0.442-1.066v0z"></path>
</svg>
