<!-- Generated by IcoMoon.io -->
<svg version="1.1" xmlns="http://www.w3.org/2000/svg" width="40" height="32" viewBox="0 0 40 32">
<title>couch</title>
<path d="M10.049 13.602v4.020h20.098v-4.020c0-2.217 1.802-4.020 4.020-4.020h2.010c0-3.329-2.701-6.029-6.029-6.029h-20.098c-3.329 0-6.029 2.701-6.029 6.029h2.010c2.217 0 4.020 1.803 4.020 4.020zM36.176 11.592h-2.010c-1.112 0-2.010 0.898-2.010 2.010v6.029h-24.118v-6.029c0-1.112-0.898-2.010-2.010-2.010h-2.010c-2.217 0-4.020 1.803-4.020 4.020 0 1.482 0.816 2.763 2.010 3.461v7.593c0 0.553 0.452 1.005 1.005 1.005h4.020c0.553 0 1.005-0.452 1.005-1.005v-1.005h24.118v1.005c0 0.553 0.452 1.005 1.005 1.005h4.020c0.553 0 1.005-0.452 1.005-1.005v-7.593c1.193-0.697 2.010-1.978 2.010-3.461 0-2.217-1.803-4.020-4.020-4.020z"></path>
</svg>
