<!-- Generated by IcoMoon.io -->
<svg version="1.1" xmlns="http://www.w3.org/2000/svg" width="40" height="32" viewBox="0 0 40 32">
<title>cpanel</title>
<path d="M3.322 12.955h2.512l-0.389 1.482c-0.119 0.408-0.465 0.685-0.898 0.685h-1.168c-1.564 0-1.551 2.349 0 2.349h0.71c0.264 0 0.477 0.245 0.402 0.521l-0.446 1.639h-0.779c-2.104 0-3.706-1.972-3.159-4.095 0.458-1.696 1.777-2.581 3.216-2.581zM4.591 19.631l2.192-8.171c0.113-0.402 0.452-0.685 0.898-0.685h2.324c1.514 0 2.851 1.030 3.203 2.588 0.415 1.828-0.911 4.101-3.247 4.101h-2.010l0.402-1.495c0.113-0.389 0.458-0.678 0.898-0.678h0.647c0.779 0 1.306-0.735 1.149-1.419-0.132-0.578-0.622-0.93-1.149-0.93h-1.244l-1.62 6.011c-0.119 0.389-0.465 0.672-0.892 0.672l-1.551 0.006zM18.446 15.272c0.019-0.063 0.119-0.333-0.132-0.333h-3.611c-0.609 0-1.043-0.559-0.892-1.162l0.22-0.842h4.893c1.181 0 2.091 1.105 1.79 2.311l-0.879 3.253c-0.176 0.666-0.766 1.118-1.47 1.118l-3.611-0.012c-2.694 0-2.418-4.007 0.044-4.007h3.040l-0.22 0.829c-0.119 0.389-0.465 0.678-0.892 0.678h-1.357c-0.333 0-0.333 0.496 0 0.496h2.192c0.289 0 0.32-0.245 0.345-0.333l0.54-1.997zM24.921 12.955c2.16 0 3.724 2.029 3.159 4.108l-0.553 2.079c-0.075 0.308-0.358 0.49-0.647 0.49h-1.2c-0.283 0-0.477-0.251-0.402-0.521l0.666-2.512c0.207-0.729-0.352-1.47-1.137-1.47h-1.244l-1.080 4.020c-0.075 0.301-0.352 0.49-0.653 0.49h-1.187c-0.264 0-0.477-0.245-0.402-0.521l1.645-6.155h3.034zM31.277 15.335l-0.503 1.884c-0.057 0.207 0.094 0.421 0.32 0.421h4.604l-0.358 1.319c-0.119 0.389-0.465 0.672-0.892 0.672h-4.189c-1.256 0-2.091-1.193-1.777-2.305l0.678-2.512c0.301-1.105 1.3-1.859 2.424-1.859h2.971c1.193 0 2.085 1.112 1.777 2.311l-0.201 0.754c-0.182 0.691-0.798 1.105-1.457 1.105h-3.354l0.22-0.816c0.1-0.389 0.452-0.678 0.892-0.678h1.357c0.126 0 0.207-0.063 0.245-0.188l0.044-0.163c0.044-0.17-0.082-0.32-0.245-0.32h-2.066c-0.258 0-0.433 0.132-0.49 0.377zM35.686 19.631l2.236-8.359c0.075-0.295 0.345-0.496 0.653-0.496h1.187c0.283 0 0.484 0.251 0.408 0.521l-1.664 6.168c-0.32 1.3-1.52 2.167-2.82 2.167z"></path>
</svg>
