<!-- Generated by IcoMoon.io -->
<svg version="1.1" xmlns="http://www.w3.org/2000/svg" width="32" height="32" viewBox="0 0 32 32">
<title>cpl-file-format-variant</title>
<path d="M16.682 23.441c-0.331 0-0.555 0.032-0.673 0.064v2.125c0.139 0.032 0.31 0.043 0.545 0.043 0.865 0 1.399-0.438 1.399-1.175 0-0.662-0.459-1.057-1.271-1.057zM27.737 7.239c-0.002-0.148-0.049-0.293-0.15-0.408l-6.201-7.082c-0.001-0.002-0.003-0.003-0.005-0.004-0.037-0.041-0.079-0.075-0.125-0.105-0.013-0.009-0.027-0.017-0.041-0.025-0.040-0.021-0.081-0.039-0.125-0.052-0.012-0.003-0.022-0.008-0.034-0.011-0.047-0.011-0.096-0.018-0.145-0.018h-15.238c-0.695 0-1.261 0.566-1.261 1.261v29.635c0 0.696 0.566 1.261 1.261 1.261h20.807c0.696 0 1.261-0.566 1.261-1.261v-23.119c0-0.024-0.004-0.047-0.006-0.071zM11.725 28.226c0.491 0 1.036-0.107 1.357-0.235l0.246 1.271c-0.299 0.15-0.972 0.31-1.847 0.31-2.489 0-3.77-1.549-3.77-3.599 0-2.456 1.752-3.823 3.93-3.823 0.844 0 1.484 0.171 1.773 0.321l-0.331 1.292c-0.331-0.139-0.79-0.267-1.367-0.267-1.293 0-2.296 0.78-2.296 2.382 0 1.441 0.854 2.349 2.306 2.349zM18.903 26.165c-0.555 0.523-1.378 0.758-2.339 0.758-0.214 0-0.406-0.010-0.555-0.032v2.574h-1.612v-7.102c0.502-0.085 1.206-0.15 2.2-0.15 1.005 0 1.72 0.192 2.2 0.577 0.459 0.363 0.769 0.961 0.769 1.666s-0.235 1.303-0.662 1.709zM25.098 29.464h-4.496v-7.198h1.634v5.831h2.863v1.367zM5.675 20.945v-20.151h14.607v6.452c0 0.348 0.282 0.631 0.631 0.631h5.569l0.001 13.068h-20.808zM20.65 5.441l-9.842 0.014 0.002 12.791 9.841-0.006-0.002-12.799zM11.457 17.605l-0.007-11.51 8.536-0.004 0.002 11.51-8.53 0.004zM16.295 13.521c0.041-0.141 0.164-0.24 0.31-0.254 0.052-0.005 0.099-0.029 0.13-0.067s0.045-0.089 0.039-0.137c-0.018-0.146 0.057-0.289 0.185-0.36l0.342-0.185c0.085-0.046 0.181-0.056 0.271-0.030l0.062 0.019 0.062 0.048c0.048 0.041 0.095 0.053 0.142 0.047 0.050-0.005 0.097-0.032 0.127-0.070 0.087-0.111 0.225-0.156 0.36-0.126l0.073-0.245c0.007-0.026-0.003-0.055-0.023-0.072-0.23-0.179-0.379-0.446-0.41-0.735s0.060-0.584 0.247-0.806c0.018-0.020 0.021-0.050 0.009-0.073l-0.391-0.721c-0.021-0.040-0.046-0.037-0.067-0.034-0.286 0.036-0.583-0.048-0.809-0.232-0.226-0.182-0.369-0.454-0.394-0.745-0.002-0.026-0.021-0.049-0.047-0.057l-0.785-0.233c-0.027-0.009-0.055 0.001-0.071 0.022-0.179 0.23-0.447 0.38-0.736 0.409-0.288 0.031-0.584-0.060-0.805-0.249-0.014-0.011-0.034-0.028-0.074-0.007l-0.721 0.391c-0.024 0.013-0.038 0.040-0.034 0.067 0.036 0.289-0.048 0.584-0.231 0.81-0.182 0.226-0.454 0.368-0.744 0.393-0.027 0.001-0.050 0.020-0.058 0.047l-0.233 0.786c-0.008 0.026 0.001 0.053 0.022 0.071 0.23 0.179 0.379 0.447 0.41 0.736 0.030 0.289-0.061 0.584-0.249 0.806-0.017 0.021-0.020 0.050-0.007 0.074l0.391 0.722c0.021 0.040 0.047 0.036 0.066 0.033 0.147-0.019 0.296-0.006 0.439 0.036 0.137 0.041 0.262 0.106 0.371 0.196 0.225 0.183 0.369 0.454 0.393 0.744 0.002 0.027 0.021 0.050 0.047 0.058l0.785 0.233c0.027 0.008 0.055-0.001 0.072-0.022 0.179-0.23 0.447-0.379 0.736-0.409 0.282-0.029 0.567 0.056 0.785 0.232 0.013-0.031 0.032-0.062 0.054-0.089 0.034-0.039 0.050-0.090 0.045-0.139-0.006-0.048-0.031-0.094-0.071-0.125-0.116-0.093-0.164-0.243-0.123-0.384l0.111-0.372zM14.751 13.168c-0.843-0.25-1.324-1.14-1.074-1.983s1.14-1.326 1.983-1.075c0.843 0.251 1.325 1.141 1.075 1.983s-1.141 1.325-1.983 1.074zM19.24 14.002c-0.014-0.137 0.029-0.276 0.118-0.381 0.008-0.009 0.009-0.024 0.004-0.035l-0.185-0.342c-0.010-0.019-0.023-0.017-0.031-0.017-0.136 0.018-0.279-0.022-0.385-0.109s-0.174-0.216-0.186-0.353c-0.001-0.012-0.010-0.023-0.022-0.027l-0.373-0.11c-0.012-0.004-0.026 0.001-0.033 0.010-0.084 0.109-0.212 0.18-0.349 0.194s-0.276-0.029-0.382-0.118c-0.007-0.005-0.016-0.013-0.034-0.004l-0.342 0.185c-0.011 0.006-0.018 0.020-0.017 0.032 0.017 0.137-0.023 0.277-0.109 0.384s-0.215 0.175-0.353 0.186c-0.012 0.001-0.024 0.010-0.028 0.023l-0.111 0.372c-0.004 0.013 0.001 0.026 0.011 0.034 0.109 0.085 0.18 0.212 0.194 0.349s-0.028 0.277-0.117 0.382c-0.009 0.009-0.009 0.023-0.004 0.034l0.185 0.342c0.010 0.019 0.022 0.017 0.032 0.015 0.070-0.008 0.14-0.003 0.208 0.017 0.064 0.020 0.123 0.051 0.175 0.093 0.107 0.086 0.176 0.216 0.187 0.353 0.001 0.013 0.010 0.023 0.022 0.027l0.372 0.11c0.012 0.004 0.026 0 0.034-0.009 0.085-0.109 0.212-0.18 0.348-0.194 0.137-0.015 0.277 0.029 0.382 0.118 0.007 0.006 0.016 0.013 0.035 0.004l0.342-0.186c0.012-0.006 0.018-0.019 0.017-0.031-0.017-0.137 0.022-0.277 0.11-0.384 0.086-0.108 0.214-0.175 0.352-0.187 0.013-0.001 0.024-0.010 0.029-0.022l0.11-0.372c0.003-0.012-0.001-0.026-0.011-0.034-0.109-0.085-0.179-0.212-0.194-0.349zM18.658 14.353c-0.118 0.4-0.54 0.628-0.939 0.509-0.399-0.118-0.628-0.539-0.509-0.939 0.119-0.399 0.54-0.628 0.939-0.509s0.628 0.541 0.509 0.94z"></path>
</svg>
