<!-- Generated by IcoMoon.io -->
<svg version="1.1" xmlns="http://www.w3.org/2000/svg" width="32" height="32" viewBox="0 0 32 32">
<title>cpp-file-format-symbol</title>
<path d="M22.559 23.787c-0.327 0-0.549 0.033-0.665 0.064v2.099c0.138 0.032 0.306 0.042 0.538 0.042 0.856 0 1.383-0.432 1.383-1.161-0-0.654-0.454-1.044-1.256-1.044zM16.426 23.787c-0.327 0-0.549 0.033-0.665 0.064v2.099c0.138 0.032 0.306 0.042 0.539 0.042 0.855 0 1.382-0.432 1.382-1.161-0-0.654-0.454-1.044-1.256-1.044zM27.737 7.239c-0.002-0.148-0.049-0.293-0.15-0.408l-6.2-7.082c-0.001-0.002-0.003-0.002-0.005-0.004-0.037-0.041-0.079-0.075-0.125-0.105-0.013-0.009-0.027-0.017-0.041-0.025-0.040-0.022-0.081-0.039-0.124-0.052-0.012-0.004-0.022-0.008-0.034-0.011-0.047-0.011-0.095-0.018-0.145-0.018h-15.238c-0.695 0-1.261 0.566-1.261 1.261v29.635c0 0.696 0.566 1.261 1.261 1.261h20.807c0.696 0 1.261-0.566 1.261-1.261v-23.119c-0-0.024-0.004-0.047-0.006-0.070zM11.528 28.515c0.485 0 1.023-0.105 1.34-0.232l0.243 1.255c-0.295 0.148-0.961 0.307-1.826 0.307-2.458 0-3.724-1.53-3.724-3.556 0-2.428 1.731-3.778 3.883-3.778 0.834 0 1.467 0.169 1.751 0.316l-0.327 1.277c-0.326-0.137-0.78-0.263-1.35-0.263-1.277 0-2.269 0.769-2.269 2.352-0 1.424 0.844 2.321 2.279 2.321zM18.621 26.479c-0.549 0.517-1.361 0.749-2.312 0.749-0.211 0-0.4-0.010-0.549-0.032v2.543h-1.593v-7.017c0.496-0.084 1.193-0.148 2.174-0.148 0.992 0 1.699 0.19 2.174 0.57 0.454 0.358 0.76 0.95 0.76 1.646s-0.233 1.288-0.654 1.688zM24.754 26.479c-0.549 0.517-1.361 0.749-2.311 0.749-0.211 0-0.401-0.010-0.549-0.032v2.543h-1.593v-7.017c0.496-0.084 1.192-0.148 2.174-0.148 0.992 0 1.699 0.19 2.173 0.57 0.454 0.358 0.76 0.95 0.76 1.646s-0.233 1.288-0.654 1.688zM5.675 20.945v-20.151h14.607v6.452c0 0.348 0.282 0.631 0.631 0.631h5.569l0.001 13.068h-20.808zM14.939 16.765c-0.469 0.209-1.357 0.383-2.367 0.383-2.751 0-4.508-1.671-4.508-4.351 0-2.489 1.706-4.525 4.874-4.525 0.696 0 1.462 0.122 2.019 0.331l-0.418 1.966c-0.313-0.139-0.783-0.261-1.479-0.261-1.393 0-2.298 0.992-2.28 2.385 0 1.567 1.044 2.384 2.333 2.384 0.627 0 1.114-0.104 1.514-0.261l0.313 1.95zM18.19 10.76v1.598h1.532v0.69h-1.532v1.613h-0.719v-1.613h-1.532v-0.69h1.532v-1.598h0.719zM22.561 10.76v1.598h1.532v0.69h-1.532v1.613h-0.718v-1.613h-1.533v-0.69h1.533v-1.598h0.718z"></path>
</svg>
