<!-- Generated by IcoMoon.io -->
<svg version="1.1" xmlns="http://www.w3.org/2000/svg" width="31" height="32" viewBox="0 0 31 32">
<title>creative-commons-share</title>
<path d="M15.551 0.035c8.906 0 15.601 6.915 15.601 15.576 0 9.239-7.443 15.576-15.601 15.576-8.416 0-15.551-6.877-15.551-15.576 0-8.347 6.576-15.576 15.551-15.576zM15.601 2.843c-7.424 0-12.794 6.149-12.794 12.768 0 6.896 5.728 12.737 12.794 12.737 6.482 0 12.737-5.094 12.737-12.737 0.006-7.147-5.665-12.768-12.737-12.768zM21.944 11.158c0.49 0 0.86 0.383 0.86 0.86v11.462c0 0.484-0.383 0.86-0.86 0.86h-8.485c-0.484 0-0.86-0.377-0.86-0.86v-3.392h-3.392c-0.49 0-0.86-0.377-0.86-0.86v-11.462c0-0.515 0.415-0.798 0.779-0.86h8.567c0.484 0 0.86 0.377 0.86 0.86v3.392h3.392zM10.043 18.394h2.556v-6.369c0-0.465 0.364-0.791 0.754-0.86h3.505v-2.531h-6.814v9.76zM21.109 12.86h-6.814v9.76h6.814v-9.76z"></path>
</svg>
