<!-- Generated by IcoMoon.io -->
<svg version="1.1" xmlns="http://www.w3.org/2000/svg" width="32" height="32" viewBox="0 0 32 32">
<title>create</title>
<path d="M29.488-0.532c-0.81 0.003-1.616 0.314-2.224 0.935l-9.889 9.863c-2.433 2.433-4.257 5.473-5.288 8.778-0.079 0.291 0 0.582 0.185 0.793 0.159 0.159 0.344 0.238 0.555 0.238 0.079 0 0.159 0 0.238-0.026 3.305-1.005 6.346-2.856 8.778-5.288l8.355-8.356c0.238 0.317 0.37 0.714 0.37 1.111 0 0.502-0.185 0.952-0.555 1.296l-4.125 4.125c-0.317 0.317-0.317 0.819 0 1.11 0.159 0.159 0.37 0.238 0.555 0.238s0.396-0.079 0.555-0.238l4.178-4.125c0.661-0.661 1.004-1.507 1.004-2.432 0-0.82-0.291-1.613-0.82-2.247l0.37-0.37c1.243-1.243 1.243-3.252 0-4.495-0.621-0.608-1.435-0.912-2.244-0.909zM4.102 0.667c-1.904 0-3.437 1.534-3.437 3.437v23.797c0 1.904 1.534 3.437 3.437 3.437h23.797c1.904 0 3.437-1.534 3.437-3.437v-10.576c0-0.45-0.344-0.793-0.793-0.793s-0.793 0.344-0.793 0.793v10.576c0 1.031-0.82 1.851-1.851 1.851h-23.797c-1.031 0-1.851-0.82-1.851-1.851v-23.797c0-1.031 0.82-1.851 1.851-1.851h15.864c0.45 0 0.793-0.344 0.793-0.793s-0.344-0.793-0.793-0.793h-15.864zM29.485 1.064c0.397 0 0.819 0.159 1.11 0.476 0.635 0.608 0.635 1.612 0.027 2.221l-9.863 9.863c-1.877 1.877-4.151 3.358-6.61 4.363 0.978-2.459 2.485-4.707 4.363-6.584l9.863-9.862c0.317-0.317 0.714-0.476 1.11-0.476z"></path>
</svg>
