<!-- Generated by IcoMoon.io -->
<svg version="1.1" xmlns="http://www.w3.org/2000/svg" width="31" height="32" viewBox="0 0 31 32">
<title>creative-commons</title>
<path d="M15.44 13.028l-2.086 1.085c-0.592-1.23-1.585-1.252-1.725-1.252-1.39 0-2.086 0.918-2.086 2.753 0 1.48 0.578 2.753 2.086 2.753 0.909 0 1.548-0.445 1.92-1.335l1.919 0.973c-0.387 0.723-1.613 2.448-4.089 2.448-1.419 0-4.645-0.648-4.645-4.839 0-3.686 2.701-4.84 4.562-4.84 1.929-0.001 3.31 0.75 4.145 2.252zM24.424 13.028l-2.059 1.085c-0.597-1.242-1.615-1.252-1.752-1.252-1.39 0-2.086 0.918-2.086 2.753 0 1.479 0.58 2.753 2.086 2.753 0.907 0 1.548-0.445 1.918-1.335l1.947 0.973c-0.132 0.235-1.343 2.448-4.088 2.448-1.425 0-4.645-0.62-4.645-4.839 0-3.685 2.699-4.84 4.562-4.84 1.929-0.001 3.302 0.75 4.118 2.252zM15.548 0.039c-8.97 0-15.548 7.226-15.548 15.576 0 8.698 7.135 15.576 15.548 15.576 8.16 0 15.604-6.335 15.604-15.576 0-8.659-6.696-15.576-15.604-15.576zM15.603 28.352c-7.068 0-12.794-5.843-12.794-12.738 0-6.621 5.366-12.767 12.795-12.767 7.068 0 12.738 5.619 12.738 12.766-0.001 7.643-6.261 12.738-12.74 12.738z"></path>
</svg>
