<!-- Generated by IcoMoon.io -->
<svg version="1.1" xmlns="http://www.w3.org/2000/svg" width="31" height="32" viewBox="0 0 31 32">
<title>creative-commons-remix</title>
<path d="M15.551 0.035c8.906 0 15.601 6.915 15.601 15.576 0 9.239-7.443 15.576-15.601 15.576-8.416 0-15.551-6.877-15.551-15.576 0-8.347 6.576-15.576 15.551-15.576zM15.601 2.843c-7.424 0-12.794 6.149-12.794 12.768 0 6.896 5.728 12.737 12.794 12.737 6.482 0 12.737-5.094 12.737-12.737 0.006-7.147-5.665-12.768-12.737-12.768zM25.757 15.888l0.308 0.138v4.396c-0.452 0.226-3.982 1.727-4.227 1.809-0.408-0.113-7.141-2.939-8.623-3.53l-4.032 1.671-3.976-1.727v-4.007l3.724-1.558c-0.044-0.044-0.025 0.314-0.025-4.422l4.227-1.865 9.54 3.95v3.869l3.084 1.275zM21.335 21.006v-2.751h-0.025v-0.113l-7.147-2.92v2.839l7.147 2.946v-0.025l0.025 0.025zM21.806 17.389l2.506-1.030-2.311-0.973-2.449 1.030 2.255 0.973zM25.091 19.782v-2.701l-2.782 1.168v2.726l2.782-1.193z"></path>
</svg>
