<!-- Generated by IcoMoon.io -->
<svg version="1.1" xmlns="http://www.w3.org/2000/svg" width="31" height="32" viewBox="0 0 31 32">
<title>creative-commons-pd</title>
<path d="M15.576 0.035c-8.604 0-15.576 6.978-15.576 15.576 0 8.604 6.971 15.576 15.576 15.576s15.576-6.971 15.576-15.576c0-8.598-6.971-15.576-15.576-15.576zM15.576 28.267c-8.743 0-14.81-8.667-11.946-16.826l4.949 2.205c-0.132 0.66-0.207 1.35-0.207 2.066 0 6.218 4.641 7.97 7.562 7.97 1.438 0 3.36-0.421 4.987-1.853l-2.267-2.757c-0.345 0.396-1.105 1.049-2.28 1.049-2.374 0-3.373-2.506-3.385-4.516 14.47 6.444 13.598 6.061 13.685 6.080-2.154 3.919-6.318 6.582-11.098 6.582zM27.773 18.846l-14.069-6.281c1.181-2.135 3.448-1.928 4.692-0.691l2.537-2.613c-1.702-1.463-3.643-1.727-4.905-1.727-2.977 0-5.081 1.288-6.325 3.241l-4.704-2.098c2.267-3.448 6.161-5.728 10.583-5.728 6.978 0 12.655 5.678 12.655 12.655 0 1.13-0.151 2.223-0.427 3.266-0.019-0.006-0.025-0.012-0.038-0.025z"></path>
</svg>
