<!-- Generated by IcoMoon.io -->
<svg version="1.1" xmlns="http://www.w3.org/2000/svg" width="31" height="32" viewBox="0 0 31 32">
<title>creative-commons-nc</title>
<path d="M15.551 0.035c8.78 0 15.601 6.777 15.601 15.576 0 9.245-7.443 15.576-15.601 15.576-8.447 0-15.551-6.959-15.551-15.576 0-8.347 6.576-15.576 15.551-15.576zM3.505 11.41c-0.465 1.281-0.697 2.682-0.697 4.202 0 6.965 5.784 12.712 12.794 12.712 7.687 0 11.129-6.394 11.211-6.538l-5.866-2.613c-0.484 2.33-2.588 3.329-4.283 3.479v2.393h-1.809v-2.399c-1.727-0.019-3.304-0.641-4.729-1.865l2.142-2.167c1.991 1.847 5.426 1.997 5.426-0.138 0-0.389-0.138-0.703-0.415-0.948-0.892-0.377-0.113-0.006-13.773-6.117zM15.601 2.818c-2.412 0-7.059 0.546-10.708 5.841l5.954 2.669c0.628-1.966 2.537-2.694 4.007-2.782v-2.393h1.809v2.393c1.426 0.075 2.726 0.559 3.894 1.445l-2.029 2.085c-2.682-1.878-5.244-0.502-4.396 0.697 3.354 1.514 2.751 1.244 5.841 2.613l7.983 3.561c0.258-1.093 0.389-2.205 0.389-3.335 0-3.58-1.244-6.595-3.724-9.038-2.468-2.506-5.477-3.756-9.019-3.756z"></path>
</svg>
