<!-- Generated by IcoMoon.io -->
<svg version="1.1" xmlns="http://www.w3.org/2000/svg" width="31" height="32" viewBox="0 0 31 32">
<title>creative-commons-nc-jp</title>
<path d="M15.557 0.035c-9.050 0-15.557 7.336-15.557 15.576 0 8.567 7.022 15.576 15.557 15.576 8.177 0 15.595-6.331 15.595-15.576 0-8.717-6.752-15.576-15.595-15.576zM15.595 28.342c-7.034 0-12.787-5.81-12.787-12.731 0-1.325 0.188-2.588 0.565-3.787l7.976 3.549h-1.752v2.424h3.649l0.358 0.741v1.175h-4.007v2.431h4.007v3.517h3.875v-3.517h4.032v-2.242l5.087 2.267c-0.094 0.138-3.586 6.174-11.004 6.174zM21.097 19.719h-3.618v-1.175l0.182-0.352 3.435 1.526zM21.505 16.491v-1.118h-2.424l3.957-7.285h-4.133l-2.726 6.029-1.445-0.641-2.487-5.383h-4.133l1.715 3.203-5.144-2.292c1.746-2.77 5.188-6.161 10.909-6.161 7.085 0 12.75 5.653 12.75 12.775 0 1.319-0.17 2.55-0.496 3.706l-6.343-2.833z"></path>
</svg>
