<!-- Generated by IcoMoon.io -->
<svg version="1.1" xmlns="http://www.w3.org/2000/svg" width="31" height="32" viewBox="0 0 31 32">
<title>creative-commons-zero</title>
<path d="M15.551 0.035c8.906 0 15.601 6.915 15.601 15.576 0 9.239-7.443 15.576-15.601 15.576-8.416 0-15.551-6.877-15.551-15.576 0-8.347 6.576-15.576 15.551-15.576zM15.601 2.843c-7.424 0-12.794 6.149-12.794 12.768 0 6.896 5.728 12.737 12.794 12.737 6.482 0 12.737-5.094 12.737-12.737 0.006-7.147-5.665-12.768-12.737-12.768zM15.576 6.643c-5.144 0-6.438 4.855-6.438 8.969s1.294 8.969 6.438 8.969 6.438-4.855 6.438-8.969c0-4.114-1.294-8.969-6.438-8.969zM15.576 10.028c0.207 0 0.402 0.031 0.578 0.075 0.371 0.32 0.553 0.76 0.195 1.375l-3.423 6.293c-0.107-0.798-0.119-1.576-0.119-2.16 0-1.809 0.126-5.583 2.77-5.583zM18.138 12.93c0.182 0.967 0.207 1.972 0.207 2.682 0 1.815-0.126 5.583-2.77 5.583-0.848 0-2.047-0.484-1.262-1.658l3.825-6.607z"></path>
</svg>
