<!-- Generated by IcoMoon.io -->
<svg version="1.1" xmlns="http://www.w3.org/2000/svg" width="31" height="32" viewBox="0 0 31 32">
<title>creative-commons-sa</title>
<path d="M15.551 0.035c8.906 0 15.601 6.915 15.601 15.576 0 9.239-7.443 15.576-15.601 15.576-8.416 0-15.551-6.877-15.551-15.576 0-8.347 6.576-15.576 15.551-15.576zM15.601 2.843c-7.424 0-12.794 6.149-12.794 12.768 0 6.896 5.728 12.737 12.794 12.737 6.482 0 12.737-5.094 12.737-12.737 0.006-7.147-5.665-12.768-12.737-12.768zM8.648 13.413c0.816-5.269 5.056-6.011 6.84-6.011 6.268 0 8.008 5.181 8.008 8.429 0 3.994-2.575 8.347-8.096 8.347-2.443 0-6.224-1.256-6.871-6.092h3.925c0.094 1.89 1.231 2.839 3.423 2.839 1.463 0 3.643-1.143 3.643-5.2 0-5.181-3.084-5.062-3.561-5.062-2.079 0-3.247 0.917-3.505 2.751h1.143l-3.090 3.090-3.078-3.090h1.218z"></path>
</svg>
