<!-- Generated by IcoMoon.io -->
<svg version="1.1" xmlns="http://www.w3.org/2000/svg" width="31" height="32" viewBox="0 0 31 32">
<title>creative-commons-by</title>
<path d="M19.778 11.742v6.369h-1.777v7.568h-4.842v-7.562h-1.777v-6.375c0-0.276 0.1-0.515 0.289-0.71 0.195-0.195 0.433-0.295 0.71-0.295h6.4c0.258 0 0.49 0.1 0.697 0.295 0.195 0.201 0.301 0.433 0.301 0.71zM13.403 7.742c0-1.463 0.722-2.198 2.167-2.198s2.167 0.735 2.167 2.198c0 1.445-0.722 2.167-2.167 2.167s-2.167-0.722-2.167-2.167zM15.551 0.035c8.906 0 15.601 6.915 15.601 15.576 0 9.239-7.443 15.576-15.601 15.576-8.416 0-15.551-6.877-15.551-15.576 0-8.347 6.576-15.576 15.551-15.576zM15.601 2.843c-7.424 0-12.794 6.149-12.794 12.768 0 6.896 5.728 12.737 12.794 12.737 6.482 0 12.737-5.094 12.737-12.737 0.006-7.147-5.665-12.768-12.737-12.768z"></path>
</svg>
