<!-- Generated by IcoMoon.io -->
<svg version="1.1" xmlns="http://www.w3.org/2000/svg" width="31" height="32" viewBox="0 0 31 32">
<title>creative-commons-nc-eu</title>
<path d="M15.557 0.035c-9.050 0-15.557 7.336-15.557 15.576 0 8.56 7.015 15.576 15.557 15.576 8.177 0 15.595-6.337 15.595-15.576 0-8.73-6.758-15.576-15.595-15.576zM15.595 28.342c-7.034 0-12.787-5.81-12.787-12.731 0-1.457 0.232-2.839 0.685-4.145l4.126 1.828h-0.295v1.853h1.463c0 0.389-0.025 0.201-0.025 1.225h-1.432v1.853h1.696c0.716 4.208 4.221 6.362 7.826 6.362 1.671 0 3.178-0.496 4.070-0.992l-0.628-2.895c-0.546 0.289-1.771 0.678-2.971 0.678-1.771 0-3.649-0.685-4.227-3.153h5.671l8.058 3.567c-0.094 0.132-3.53 6.551-11.23 6.551zM14.546 16.371l-0.031-0.025 0.057 0.025h-0.025zM19.395 15.147h0.232v-1.853h-4.415l-1.796-0.791c0.157-0.345 0.339-0.66 0.553-0.898 0.81-0.992 1.953-1.407 3.209-1.407 1.149 0 2.217 0.339 2.895 0.628l0.729-2.971c-0.942-0.415-2.324-0.779-3.913-0.779-2.449 0-4.535 0.992-6.023 2.657-0.333 0.383-0.615 0.81-0.873 1.262l-5.125-2.267c4.057-6.080 9.905-5.879 10.721-5.879 7.097 0 12.75 5.665 12.75 12.775 0 1.175-0.132 2.28-0.396 3.322l-8.548-3.8z"></path>
</svg>
