<!-- Generated by IcoMoon.io -->
<svg version="1.1" xmlns="http://www.w3.org/2000/svg" width="31" height="32" viewBox="0 0 31 32">
<title>creative-commons-sampling</title>
<path d="M15.551 0.035c8.906 0 15.601 6.915 15.601 15.576 0 9.239-7.443 15.576-15.601 15.576-8.416 0-15.551-6.877-15.551-15.576 0-8.347 6.576-15.576 15.551-15.576zM15.601 2.843c-7.424 0-12.794 6.149-12.794 12.768 0 6.896 5.728 12.737 12.794 12.737 6.482 0 12.737-5.094 12.737-12.737 0.006-7.147-5.665-12.768-12.737-12.768zM15.827 6.184c0.176-0.019 0.722 0.063 0.722 0.722l0.415 6.733 0.308-3.724c0-0.377 0.295-0.666 0.666-0.666s0.666 0.295 0.666 0.666c0 0.157-0.031-0.358 0.358 5.119l0.364-4.032c0.019-0.182 0.182-0.584 0.641-0.584 0.239 0 0.622 0.145 0.666 0.559l0.722 6.061 0.333-0.804c0.113-0.276 0.327-0.415 0.641-0.415h3.643v1.338h-3.197l-1.143 2.782c-0.245 0.622-1.225 0.572-1.306-0.195l-0.251-2.003-0.471 5.816c-0.019 0.188-0.188 0.584-0.641 0.584-0.188 0-0.615-0.132-0.666-0.584 0-0.119 0.038 0.364-0.389-4.893l-0.333 4.535c-0.069 0.301-0.301 0.584-0.666 0.584-0.182 0-0.615-0.126-0.666-0.584 0-0.119 0.031 0.421-0.364-5.508l-0.364 5.954c0 0.396-0.226 0.779-0.666 0.779-0.327 0-0.666-0.258-0.666-0.754l-0.364-5.508c-0.364 5.81-0.333 5.276-0.333 5.395-0.069 0.301-0.301 0.584-0.666 0.584-0.188 0-0.615-0.132-0.666-0.584 0-0.044-0.025-0.069-0.025-0.163l-0.389-5.565-0.308 3.561c-0.044 0.408-0.421 0.584-0.666 0.584-0.364 0-0.603-0.258-0.666-0.559l-0.697-4.798c-0.126 0.251-0.22 0.527-0.697 0.527h-3.228v-1.338h2.814l0.86-1.752c0.276-0.622 1.143-0.452 1.25 0.17l0.195 1.281 0.527-6.149c0-0.377 0.301-0.666 0.666-0.666 0.031 0 0.666-0.012 0.666 0.779l0.308 4.34 0.415-5.816c0-0.634 0.597-0.666 0.641-0.666 0.038 0 0.666 0.044 0.666 0.666l0.333 5.062 0.389-6.149c0.006-0.069-0.038-0.647 0.622-0.722z"></path>
</svg>
