<!-- Generated by IcoMoon.io -->
<svg version="1.1" xmlns="http://www.w3.org/2000/svg" width="31" height="32" viewBox="0 0 31 32">
<title>creative-commons-pd-alt</title>
<path d="M15.551 0.035c8.906 0 15.601 6.915 15.601 15.576 0 9.239-7.443 15.576-15.601 15.576-8.416 0-15.551-6.877-15.551-15.576 0-8.347 6.576-15.576 15.551-15.576zM15.601 2.843c-7.424 0-12.794 6.149-12.794 12.768 0 6.896 5.728 12.737 12.794 12.737 6.482 0 12.737-5.094 12.737-12.737 0.006-7.147-5.665-12.768-12.737-12.768zM8.51 19.838v-8.623h4.283c2.117 0 3.172 0.973 3.172 2.92 0 0.565-0.188 2.92-3.586 2.92h-1.696v2.782h-2.173zM10.652 12.829v2.613h1.834c1.752 0 1.884-2.613-0.057-2.613h-1.777zM16.549 19.838v-8.623h3.341c1.344 0 4.396 0.327 4.396 4.309 0 3.988-3.052 4.309-4.396 4.309h-3.341zM18.691 13.024v5.006h1.25c1.507 0 2.167-0.961 2.167-2.506 0-2.638-1.96-2.506-2.198-2.506l-1.218 0.006z"></path>
</svg>
