<!-- Generated by IcoMoon.io -->
<svg version="1.1" xmlns="http://www.w3.org/2000/svg" width="31" height="32" viewBox="0 0 31 32">
<title>creative-commons-sampling-plus</title>
<path d="M15.551 0.035c8.906 0 15.601 6.915 15.601 15.576 0 9.239-7.443 15.576-15.601 15.576-8.416 0-15.551-6.877-15.551-15.576 0-8.347 6.576-15.576 15.551-15.576zM15.601 2.843c-7.424 0-12.794 6.149-12.794 12.768 0 6.896 5.728 12.737 12.794 12.737 6.482 0 12.737-5.094 12.737-12.737 0.006-7.147-5.665-12.768-12.737-12.768zM22.321 15.756c-0.295 0-0.565 0.176-0.672 0.452l-0.251 0.597-0.691-5.828c-0.107-0.873-1.382-0.842-1.451 0.025l-0.27 3.228-0.327-4.321c-0.069-0.898-1.388-0.892-1.457 0l-0.22 2.82-0.371-5.923c-0.057-0.911-1.401-0.904-1.457 0l-0.32 5.257-0.27-4.164c-0.057-0.904-1.394-0.904-1.457 0l-0.333 5.037-0.258-3.58c-0.069-0.898-1.382-0.898-1.457-0.012l-0.484 5.64-0.113-0.766c-0.107-0.716-1.074-0.854-1.382-0.207l-0.829 1.74h-2.757v1.457h3.222c0.276 0 0.527-0.157 0.653-0.402l0.672 4.591c0.126 0.848 1.375 0.816 1.451-0.044l0.239-2.738 0.358 4.918c0.069 0.904 1.401 0.892 1.457-0.006l0.289-4.422 0.301 4.604c0.057 0.904 1.401 0.904 1.457-0.006l0.308-5.056 0.283 4.509c0.057 0.898 1.388 0.911 1.457 0.012l0.289-3.68 0.308 4.045c0.069 0.898 1.382 0.892 1.451 0.006l0.427-5.213 0.17 1.401c0.088 0.741 1.112 0.886 1.401 0.195l1.13-2.726h3.172v-1.457l-3.668 0.019zM17.422 16.082h-1.375v1.375c0 0.258-0.207 0.471-0.471 0.471-0.258 0-0.471-0.207-0.471-0.471v-1.375h-1.375c-0.258 0-0.471-0.207-0.471-0.471 0-0.258 0.214-0.471 0.471-0.471h1.375v-1.375c0-0.258 0.214-0.471 0.471-0.471s0.471 0.207 0.471 0.471v1.375h1.375c0.258 0 0.471 0.207 0.471 0.471 0 0.258-0.214 0.471-0.471 0.471z"></path>
</svg>
