<!-- Generated by IcoMoon.io -->
<svg version="1.1" xmlns="http://www.w3.org/2000/svg" width="36" height="32" viewBox="0 0 36 32">
<title>credit-card</title>
<path d="M33.155 1.543h-30.134c-1.671 0-3.021 1.35-3.021 3.015v22.108c0 1.664 1.35 3.015 3.021 3.015h30.134c1.671 0 3.021-1.35 3.021-3.015v-22.108c0-1.664-1.35-3.015-3.021-3.015zM3.398 4.557h29.381c0.207 0 0.377 0.17 0.377 0.377v2.638h-30.134v-2.638c0-0.207 0.17-0.377 0.377-0.377zM32.778 26.665h-29.381c-0.207 0-0.377-0.17-0.377-0.377v-10.677h30.134v10.677c0 0.207-0.17 0.377-0.377 0.377zM12.059 20.385v2.512c0 0.415-0.339 0.754-0.754 0.754h-4.522c-0.415 0-0.754-0.339-0.754-0.754v-2.512c0-0.415 0.339-0.754 0.754-0.754h4.522c0.415 0 0.754 0.339 0.754 0.754zM24.118 20.385v2.512c0 0.415-0.339 0.754-0.754 0.754h-8.542c-0.415 0-0.754-0.339-0.754-0.754v-2.512c0-0.415 0.339-0.754 0.754-0.754h8.542c0.415 0 0.754 0.339 0.754 0.754z"></path>
</svg>
