<!-- Generated by IcoMoon.io -->
<svg version="1.1" xmlns="http://www.w3.org/2000/svg" width="36" height="32" viewBox="0 0 36 32">
<title>credit-card1</title>
<path d="M0 26.665c0 1.664 1.35 3.015 3.015 3.015h30.147c1.664 0 3.015-1.35 3.015-3.015v-11.054h-36.176v11.054zM12.059 22.394c0-0.415 0.339-0.754 0.754-0.754h8.542c0.415 0 0.754 0.339 0.754 0.754v2.512c0 0.415-0.339 0.754-0.754 0.754h-8.542c-0.415 0-0.754-0.339-0.754-0.754v-2.512zM4.020 22.394c0-0.415 0.339-0.754 0.754-0.754h4.522c0.415 0 0.754 0.339 0.754 0.754v2.512c0 0.415-0.339 0.754-0.754 0.754h-4.522c-0.415 0-0.754-0.339-0.754-0.754v-2.512zM36.176 4.557v3.015h-36.176v-3.015c0-1.664 1.35-3.015 3.015-3.015h30.147c1.664 0 3.015 1.35 3.015 3.015z"></path>
</svg>
