<!-- Generated by IcoMoon.io -->
<svg version="1.1" xmlns="http://www.w3.org/2000/svg" width="28" height="32" viewBox="0 0 28 32">
<title>critical-role</title>
<path d="M14.12-0.467c0.016 0.009 13.602 7.82 13.636 7.833 0.191 0.074 0.232 0.217 0.232 0.412-0.004 5.241-0.004 10.482-0.001 15.724 0 0.174-0.062 0.278-0.212 0.363-1.342 0.753-13.055 7.429-13.75 7.824h-0.188c-4.982-2.868-13.707-7.878-13.716-7.883-0.081-0.046-0.123-0.11-0.118-0.203 0.003-0.055-0.002-14.19-0.003-15.896 0-0.153 0.056-0.238 0.184-0.31 1.461-0.823 13.143-7.488 13.826-7.864h0.11zM13.466 0.815l-0.014-0.010c-4.067 2.315-8.133 4.631-12.199 6.947 0.002 0.008 0.005 0.014 0.008 0.022 0.64 0.241 1.281 0.483 1.938 0.731-0.484 0.376-0.522 0.379-0.669 0.322-0.006-0.002-1.518-0.583-1.683-0.627v14.472c0.055-0.089 4.024-6.966 4.028-6.972 0.102-0.177 0.19-0.121 0.573-0.095 0.088 0.006 0.093 0.014 0.049 0.089-2.587 4.48-2.286 3.956-4.238 7.345-0.051 0.088-0.038 0.071 0.078 0.071 14.303 0 11.079 0 11.713 0.002 0.090 0 0.106-0.014 0.107-0.103 0.001-0.186 0.001-0.372 0-0.558 0-0.084 0.148-0.051-1.154-0.063-0.469-0.004-0.888-0.202-1.343-0.798-0.463-0.607-0.918-1.22-1.372-1.835-0.143-0.193-0.217-0.15-1.053-0.15-0.11 0-0.112 0-0.11 0.114 0.018 1.646 0.009 1.587 0.065 2.051 0.033 0.275 0.136 0.264 0.609 0.302 0.197 0.016 0.244 0.256 0.033 0.309-0.099 0.025-1.985 0.032-2.115-0.006-0.143-0.041-0.16-0.256 0.019-0.297 0.207-0.048 0.387 0.051 0.418-0.279 0.082-0.858 0.073-0.568 0.069-4.988-0.001-0.68-0.022-0.79-0.337-0.851-0.077-0.015-0.222-0.010-0.295-0.035-0.181-0.061-0.126-0.304 0.111-0.305 2.115-0.002 2.894-0.067 3.521 0.305 0.486 0.29 0.752 0.721 0.786 1.281 0.055 0.916-0.409 1.404-0.941 2.047-0.043 0.052-0.045 0.087-0.002 0.139 0.163 0.204 0.317 0.416 0.484 0.617 1.731 2.087 1.514 1.918 2.593 2.076 0.056 0.008 0.064-0.026 0.063-0.072-0.001-0.23 0.001-0.46-0.001-0.691-0.001-0.064 0.020-0.090 0.089-0.079 0.788 0.12 1.372-0.004 1.481-0.019 0.068-0.009 0.094 0.012 0.093 0.084 0 0.007 0.055 1.676 0.055 1.683-0.003 0.095 0.042 0.102 0.119 0.102 3.918-0.001 7.86-0.001 11.726-0.001-1.703-2.954-3.398-5.894-5.099-8.844 0.142-0.041-0.025-0.002 0.42-0.087 0.128-0.025 0.129-0.026 0.195 0.090 0.459 0.794 4.856 8.414 4.859 8.42v-14.474c-0.108 0.031-6.488 2.432-6.642 2.492-0.068 0.026-0.097 0.012-0.12-0.055-0.040-0.119-0.084-0.236-0.131-0.353-0.020-0.050-0.006-0.071 0.041-0.087 0.006-0.002 6-2.252 6.472-2.435-4.109-2.36-8.2-4.71-12.311-7.072 1.826 3.163 3.64 6.304 5.453 9.445-0.006 0.007-0.011 0.014-0.018 0.021-0.601-0.057-0.657-0.1-0.741-0.248-0.060-0.106-4.616-8.021-5.15-8.928-0.572 0.921-5.248 9.183-5.362 9.19-0.184 0.011-0.369 0.005-0.581 0.005 1.811-3.13 3.611-6.244 5.413-9.358zM16.727 8.975c0.116-0.003 0.232-0.033 0.348-0.053 0.106-0.019 0.159 0.012 0.163 0.121 0 0.007 0.004 1.197-0.054 1.284-0.055 0.082-0.118 0.077-0.163-0.012-0.312-0.609 0.391-0.607-2.457-0.757-0.044-0.002-0.063 0.014-0.061 0.058 0 0.008 0.234 7.661 0.234 7.669 0.001 0.056 0.033 0.075 0.076 0.095 0.183 0.082 0.374 0.152 0.546 0.254 0.459 0.272 0.715 0.681 0.779 1.213 0.090 0.741-0.174 2.247-2.023 2.333-0.173 0.008-1.775 0.068-2.144-1.46-0.293-1.21 0.519-2.054 1.249-2.286 0.094-0.030 0.123-0.079 0.124-0.167 0.006-0.354 0.188-6.727 0.233-7.622 0.003-0.068-0.039-0.073-0.085-0.072-2.032 0.033-2.308-0.021-2.526 0.535-0.152 0.388-0.26 0.083-0.248 0.014 0.149-0.907 0.221-1.291 0.296-1.673l-0.088 0.541c0.025-0.133 0.090-0.164 0.215-0.117 0.351 0.133 0.422 0.107 2.34 0.121 0.109 0.001 0.112-0.005 0.114-0.116 0.043-1.727 0.036-1.419 0.061-1.856 0.004-0.081-0.026-0.136-0.102-0.176-0.352-0.183-0.55-0.474-0.559-0.871-0.022-0.93 1.113-1.361 1.72-0.723 0.43 0.452 0.364 1.188-0.154 1.517-0.104 0.067-0.145 0.146-0.139 0.273 0.002 0.037-0.007-0.271 0.062 1.887 0.002 0.057 0.027 0.070 0.078 0.070 0.006 0 1.445-0.006 2.165-0.023zM4.225 8.433c1.246-0.283 2.053-0.035 3.297 0.106 0.173 0.020 0.235 0.077 0.227 0.251-0.013 0.313-0.073 1.402-0.078 1.454-0.006 0.065-0.038 0.12-0.102 0.147-0.255 0.107-0.227-0.28-0.252-0.458-0.197-1.409-4.639-2.054-4.687 1.595-0.020 1.502 1.068 3.368 3.397 3.196 1.711-0.126 1.196-1.268 1.56-1.286 0.124-0.006 0.209 0.084 0.187 0.211-0.115 0.681-0.215 1.19-0.217 1.203-0.095 0.577-5.443 1.387-5.863-2.641-0.168-1.625 0.658-3.352 2.531-3.778zM9.249 13.939c-0.408-0.002-0.816 0-1.224-0.002-0.123-0.001-0.175-0.101-0.167-0.112 0.15-0.235 0.37 0.058 0.368-0.386-0.005-1.617 0.013-2.386 0.014-2.519 0.002-0.215-0.033-0.292-0.209-0.31-0.44-0.045-0.195-0.212-0.070-0.212 0.744-0.006 1.421-0.011 1.887 0.045 0.551 0.067 1.050 0.793 0.498 1.421-0.124 0.141-0.253 0.278-0.386 0.423 0.060 0.072 0.433 0.554 1.085 1.236 0.167 0.175 0.386 0.22 0.62 0.197 0.077-0.008 0.133-0.047 0.14-0.133 0.019-0.215 0.016 0.297 0.028-2.549 0.001-0.355-0.021-0.413-0.203-0.429-0.248-0.022-0.253-0.142-0.043-0.212 0.008-0.002 1.192-0.006 1.199-0.006 0.020 0 0.282 0.033 0.066 0.212-0.003 0.003-0.010 0.002-0.015 0.002-0.227 0.016-0.248 0.062-0.249 0.29-0.017 2.759 0.004 2.527 0.026 2.689 0.007 0.053 0.017 0.14 0.32 0.134 0.156-0.002 0.242 0.212-0.001 0.214-0.651 0.005-1.303 0.002-1.954 0.004-0.67 0.002-0.846-0.389-1.521-1.308-0.1-0.137-0.522-0.148-0.515-0.023 0.055 1.034 0 1.117 0.251 1.11 0.298-0.006 0.297 0.224 0.052 0.223zM26.519 13.301c-0.076 0.448 0.011 0.652-0.333 0.649-3.866-0.026-3.003-0.014-3.186-0.020-0.077-0.002-0.153-0.028-0.228-0.046-0.159-0.038 0.093-0.077-0.024-0.352-0.090-0.212-0.175-0.426-0.258-0.64-0.024-0.062-0.059-0.090-0.128-0.090-0.196 0-0.457-0.028-0.916 0.004-0.036 0.002-0.088 0.035-0.102 0.067-0.099 0.227-0.193 0.458-0.283 0.688-0.080 0.203 0.494 0.083 0.766 0.136 0.187 0.036 0.285 0.234 0.041 0.234-0.552 0.002-1.104 0.004-1.656 0.003-0.183 0-0.194-0.198-0.046-0.202 0.168-0.004 0.298-0.071 0.372-0.218 0.094-0.187 0.176-0.379 0.258-0.571 1.142-2.647 1.071-2.523 1.157-2.613 0.063-0.067 0.13-0.066 0.19 0.002 0.184 0.21 1.156 2.808 1.483 3.261 0.123 0.17 0.36 0.124 0.399 0.126 0.227 0.008 0.249-0.070 0.259-0.269 0.006-0.117 0.005 0.073 0.004-2.59 0-0.28-0.148-0.235-0.349-0.268-0.016-0.002-0.161-0.040-0.005-0.192 0.013-0.012-0.056-0.015 1.363-0.009 0.146 0.001 0.334 0.173-0.076 0.217-0.114 0.012-0.162 0.063-0.167 0.178-0.004 0.102-0.012 2.443 0.018 2.588 0.022 0.109 0.109 0.15 0.203 0.153 0.832 0.027 0.937 0.028 1.007-0.214 0.105-0.363 0.259-0.158 0.234-0.012zM19.944 17.344c-0.266 0-0.278-0.213-0.038-0.214 2.255-0.010 1.765 0.024 2.336-0.041 0.105-0.012 0.15 0.015 0.141 0.119-0.016 0.213-0.040 0.426-0.065 0.638-0.016 0.136-0.201 0.164-0.214-0.009-0.024-0.333-0.135-0.28-0.982-0.319-0.099-0.004-0.103-0.001-0.103 0.095v1.012c0 0.104 0 0.1 0.102 0.092 0.196-0.016 0.648 0.021 0.985-0.095 0.030-0.010 0.207-0.112 0.193 0.11-0.001 0.013-0.048 0.65-0.074 0.715-0.033 0.081-0.118 0.095-0.162 0.020-0.073-0.122 0-0.319-0.233-0.333-0.968-0.057-0.811-0.16-0.811 0.376 0 0.769-0.048 1.012 0.244 1.020 1.045 0.030 0.904 0 1.032-0.359 0.053-0.149 0.22-0.111 0.2 0.036-0.028 0.202-0.053 0.404-0.077 0.605-0.003 0.023-0.010 0.151-0.293 0.15-2.334-0.005-2.169-0.012-2.211-0.020-0.171-0.032-0.138-0.191 0.014-0.217 0.069-0.012 0.253 0.034 0.261-0.161 0.153-3.531-0.004-3.224-0.246-3.224zM19.918 10.466c0.155 0.038 0.197 0.11 0.185 0.292-0.021 0.333-0.021 0.564-0.035 0.609-0.041 0.14-0.198 0.133-0.21-0.017-0.024-0.302-0.192-0.491-0.475-0.575-1.651-0.485-2.061 0.971-1.706 1.898 0.369 0.968 1.381 1 1.813 0.865 0.372-0.116 0.369-0.408 0.434-0.476 0.077-0.082 0.141-0.116 0.196 0.069 0.002 0.006 0.036 0.747-0.375 0.801-0.1 0.013-1.217 0.232-2.052-0.213-1.32-0.703-1.051-2.228-0.432-2.847 0.881-0.883 2.507-0.443 2.658-0.406zM18.138 17.128c0.206 0 0.23 0.188 0.010 0.215-0.164 0.020-0.312-0.026-0.314 0.343-0.001 0.124-0.012 1.825 0.025 2.603 0.007 0.144 0.072 0.221 0.216 0.229 1.384 0.076 0.939-0.104 1.18-0.398 0.115-0.141 0.173 0.053 0.173 0.068 0.022 0.855-0.249 0.778-0.326 0.779-0.006 0-2.392-0.011-2.398-0.012-0.121-0.014-0.129-0.188-0.026-0.212 0.125-0.030 0.31 0.025 0.322-0.176 0.060-0.997 0.036-2.804 0.021-3.003-0.017-0.237-0.176-0.205-0.357-0.233-0.155-0.024-0.125-0.202 0.021-0.202 0.092-0.001 1.13-0.002 1.451-0.001zM16.152 13.498c0.004 0.256 0.18 0.217 0.378 0.225 0.164 0.006 0.159 0.214-0.004 0.215-0.407 0.002-0.86-0.001-1.357-0.004-0.241-0.001-0.212-0.21 0.002-0.212 0.282-0.002 0.203 0.101 0.214-2.86 0.001-0.319-0.205-0.222-0.296-0.266-0.162-0.077-0.085-0.194 0.026-0.198 0.081-0.003 1.268-0.026 1.33 0.013 0.071 0.045 0.117 0.104-0.026 0.18-0.062 0.033-0.242-0.018-0.261 0.155-0.001 0.013-0.052 0.102-0.004 2.751zM13.834 30.724c0.072 0.041 0.133 0.041 0.205 0 1.067-0.615 11.429-6.505 12.399-7.066-0.009-0.027 0.707-0.011-11.401-0.017-0.077 0-0.099 0.023-0.096 0.098 0 0.006 0.078 2.795 0.077 3.164-0.001 0.162-0.039 0.328-0.085 0.484-0.035 0.115 0.024-0.031-0.848 2.024-0.046 0.108-0.065 0.139-0.124-0.005-0.263-0.649-0.52-1.301-0.79-1.948-0.092-0.22-0.141-0.44-0.126-0.678 0.010-0.155 0.050-1.012 0.095-3.016 0.002-0.122 0.001-0.123-0.123-0.123h-11.493c0.162 0.102 11.2 6.442 12.31 7.082zM8.125 18.869c0 0.151 0.023 0.175 0.173 0.19 0.725 0.073 1.321 0.235 1.61-0.46 0.377-0.908 0.167-2.161-0.784-2.439-0.126-0.037-1.002-0.173-1.001 0.095 0.003 0.503 0.001 0.727 0.001 2.614zM14.766 17.924c0 0.134 0.067 2.429 0.068 2.458 0.021 0.624-1.607 0.362-1.585-0.163 0.005-0.127 0.086-2.35 0.069-2.476-0.886 0.467-0.906 2.525 0.405 3.065 0.529 0.218 1.102 0.038 1.406-0.444 0.308-0.487 0.43-1.851-0.341-2.447-0.008 0.003-0.015 0.006-0.023 0.008zM13.995 5.486c-0.617-0.002-0.611 0.926-0.004 0.934 0.602 0.007 0.634-0.932 0.004-0.934zM8.961 12.009c0.001 0.113 0.026 0.151 0.136 0.162 0.855 0.087 0.786-0.69 0.764-0.839-0.106-0.705-0.903-0.641-0.901-0.49 0.003 0.283-0.002 0.859 0.001 1.168zM22.296 12.411c-0.128-0.332-0.251-0.652-0.383-0.995-0.136 0.344-0.261 0.664-0.391 0.995h0.774z"></path>
</svg>
