<!-- Generated by IcoMoon.io -->
<svg version="1.1" xmlns="http://www.w3.org/2000/svg" width="32" height="32" viewBox="0 0 32 32">
<title>crop</title>
<path d="M30.649 21.641h-2.512v-15.246l3.725-3.725c0.393-0.393 0.393-1.029 0-1.421l-1.421-1.421c-0.392-0.393-1.029-0.393-1.421 0l-3.725 3.725h-13.236v6.029h7.207l-9.217 9.217v-17.758c0-0.833-0.675-1.507-1.507-1.507h-3.015c-0.832 0-1.507 0.675-1.507 1.507v2.512h-2.512c-0.832 0-1.507 0.675-1.507 1.507v3.015c0 0.832 0.675 1.507 1.507 1.507h2.512v16.581c0 0.832 0.675 1.507 1.507 1.507h14.571v-6.029h-7.207l9.217-9.217v17.758c0 0.832 0.675 1.507 1.507 1.507h3.015c0.832 0 1.507-0.675 1.507-1.507v-2.512h2.512c0.832 0 1.507-0.675 1.507-1.507v-3.015c0-0.833-0.675-1.507-1.507-1.507z"></path>
</svg>
