<!-- Generated by IcoMoon.io -->
<svg version="1.1" xmlns="http://www.w3.org/2000/svg" width="32" height="32" viewBox="0 0 32 32">
<title>crop-alt</title>
<path d="M30.649 21.641h-2.512v-16.078c0-1.11-0.9-2.010-2.010-2.010h-14.069v6.029h10.049v20.6c0 0.832 0.675 1.507 1.507 1.507h3.015c0.832 0 1.507-0.675 1.507-1.507v-2.512h2.512c0.832 0 1.507-0.675 1.507-1.507v-3.015c0-0.833-0.675-1.507-1.507-1.507zM10.049 1.040c0-0.833-0.675-1.507-1.507-1.507h-3.015c-0.832 0-1.507 0.675-1.507 1.507v2.512h-2.512c-0.832 0-1.507 0.675-1.507 1.507v3.015c0 0.832 0.675 1.507 1.507 1.507h2.512v16.078c0 1.11 0.9 2.010 2.010 2.010h14.069v-6.029h-10.049v-20.6z"></path>
</svg>
