<!-- Generated by IcoMoon.io -->
<svg version="1.1" xmlns="http://www.w3.org/2000/svg" width="24" height="32" viewBox="0 0 24 32">
<title>cross</title>
<path d="M22.108 7.572h-6.029v-6.029c0-1.11-0.9-2.010-2.010-2.010h-4.020c-1.11 0-2.010 0.9-2.010 2.010v6.029h-6.029c-1.11 0-2.010 0.9-2.010 2.010v4.020c0 1.11 0.9 2.010 2.010 2.010h6.029v14.069c0 1.11 0.9 2.010 2.010 2.010h4.020c1.11 0 2.010-0.9 2.010-2.010v-14.069h6.029c1.11 0 2.010-0.9 2.010-2.010v-4.020c0-1.11-0.9-2.010-2.010-2.010z"></path>
</svg>
