<!-- Generated by IcoMoon.io -->
<svg version="1.1" xmlns="http://www.w3.org/2000/svg" width="32" height="32" viewBox="0 0 32 32">
<title>crosshairs</title>
<path d="M31.403 13.602h-1.907c-0.874-5.883-5.524-10.534-11.408-11.408v-1.907c0-0.416-0.338-0.754-0.754-0.754h-2.512c-0.416 0-0.754 0.338-0.754 0.754v1.907c-5.883 0.874-10.534 5.524-11.408 11.408h-1.907c-0.416 0-0.754 0.338-0.754 0.754v2.512c0 0.416 0.338 0.754 0.754 0.754h1.907c0.874 5.883 5.524 10.534 11.408 11.408v1.907c0 0.416 0.338 0.754 0.754 0.754h2.512c0.416 0 0.754-0.338 0.754-0.754v-1.907c5.883-0.874 10.534-5.524 11.408-11.408h1.907c0.416 0 0.754-0.338 0.754-0.754v-2.512c0-0.416-0.338-0.754-0.754-0.754zM18.088 24.946v-2.552c0-0.416-0.338-0.754-0.754-0.754h-2.512c-0.416 0-0.754 0.338-0.754 0.754v2.552c-3.654-0.779-6.545-3.667-7.325-7.325h2.552c0.416 0 0.754-0.338 0.754-0.754v-2.512c0-0.416-0.338-0.754-0.754-0.754h-2.552c0.779-3.654 3.667-6.545 7.325-7.325v2.552c0 0.416 0.338 0.754 0.754 0.754h2.512c0.416 0 0.754-0.338 0.754-0.754v-2.552c3.654 0.779 6.545 3.667 7.325 7.325h-2.552c-0.416 0-0.754 0.338-0.754 0.754v2.512c0 0.416 0.338 0.754 0.754 0.754h2.552c-0.779 3.654-3.667 6.545-7.325 7.325zM18.088 15.611c0 1.11-0.9 2.010-2.010 2.010s-2.010-0.9-2.010-2.010c0-1.11 0.9-2.010 2.010-2.010s2.010 0.9 2.010 2.010z"></path>
</svg>
