<!-- Generated by IcoMoon.io -->
<svg version="1.1" xmlns="http://www.w3.org/2000/svg" width="40" height="32" viewBox="0 0 40 32">
<title>crow</title>
<path d="M34.167 1.543h-1.028c-0.917-1.213-2.358-2.010-3.997-2.010-2.775 0-5.024 2.25-5.024 5.024v1.318l-23.358 18.376c-0.463 0.35-0.759 0.899-0.759 1.518v0c0 1.411 1.485 2.328 2.747 1.698l7.633-3.817h6.060l2.789 7.543c0.142 0.391 0.575 0.593 0.966 0.45l1.416-0.516c0.391-0.142 0.593-0.575 0.45-0.966l-2.407-6.512h2.453c0.12 0 0.236-0.014 0.355-0.018l2.795 7.561c0.142 0.391 0.575 0.593 0.966 0.45l1.416-0.516c0.391-0.142 0.593-0.575 0.45-0.966l-2.59-7.005c5.006-1.466 8.665-6.085 8.665-11.565v-5.024l6.029-1.005c0-2.22-2.699-4.020-6.029-4.020zM29.142 6.065c-0.832 0-1.507-0.675-1.507-1.507s0.675-1.507 1.507-1.507 1.507 0.675 1.507 1.507c0 0.832-0.675 1.507-1.507 1.507z"></path>
</svg>
