<!-- Generated by IcoMoon.io -->
<svg version="1.1" xmlns="http://www.w3.org/2000/svg" width="40" height="32" viewBox="0 0 40 32">
<title>crown</title>
<path d="M33.162 27.67h-26.127c-0.553 0-1.005 0.452-1.005 1.005v2.010c0 0.553 0.452 1.005 1.005 1.005h26.127c0.553 0 1.005-0.452 1.005-1.005v-2.010c0-0.553-0.452-1.005-1.005-1.005zM37.181 7.572c-1.664 0-3.015 1.35-3.015 3.015 0 0.446 0.1 0.86 0.276 1.244l-4.547 2.726c-0.967 0.578-2.217 0.251-2.776-0.729l-5.119-8.956c0.672-0.553 1.112-1.382 1.112-2.324 0-1.664-1.35-3.015-3.015-3.015s-3.015 1.35-3.015 3.015c0 0.942 0.44 1.771 1.112 2.324l-5.119 8.956c-0.559 0.98-1.815 1.306-2.776 0.729l-4.541-2.726c0.17-0.377 0.276-0.798 0.276-1.244 0-1.664-1.35-3.015-3.015-3.015s-3.021 1.35-3.021 3.015 1.35 3.015 3.015 3.015c0.163 0 0.327-0.025 0.484-0.050l4.541 12.109h24.118l4.541-12.109c0.157 0.025 0.32 0.050 0.484 0.050 1.664 0 3.015-1.35 3.015-3.015s-1.35-3.015-3.015-3.015z"></path>
</svg>
