<!-- Generated by IcoMoon.io -->
<svg version="1.1" xmlns="http://www.w3.org/2000/svg" width="32" height="32" viewBox="0 0 32 32">
<title>crx-file-format-symbol</title>
<path d="M15.262 23.734c-0.395 0-0.62 0.032-0.737 0.054v1.986h0.641c0.812 0 1.292-0.406 1.292-1.036-0-0.662-0.449-0.993-1.196-1.004zM27.737 7.239c-0.002-0.148-0.048-0.293-0.15-0.408l-6.201-7.082c-0.001-0.002-0.003-0.003-0.005-0.004-0.037-0.041-0.079-0.075-0.125-0.105-0.013-0.009-0.027-0.017-0.041-0.025-0.040-0.021-0.081-0.039-0.124-0.052-0.012-0.003-0.022-0.008-0.034-0.011-0.047-0.011-0.095-0.018-0.145-0.018h-15.238c-0.695 0-1.261 0.566-1.261 1.261v29.635c0 0.696 0.566 1.261 1.261 1.261h20.807c0.696 0 1.261-0.566 1.261-1.261v-23.119c0-0.024-0.004-0.047-0.006-0.071zM10.242 28.54c0.491 0 1.036-0.107 1.356-0.235l0.246 1.271c-0.299 0.15-0.972 0.31-1.848 0.31-2.488 0-3.77-1.549-3.77-3.599 0-2.456 1.752-3.823 3.93-3.823 0.844 0 1.484 0.171 1.773 0.321l-0.331 1.292c-0.331-0.139-0.79-0.267-1.367-0.267-1.292 0-2.296 0.78-2.296 2.381 0 1.442 0.854 2.349 2.307 2.349zM16.682 29.778c-0.118-0.203-0.288-0.79-0.502-1.676-0.192-0.897-0.502-1.143-1.164-1.153h-0.491v2.83h-1.612v-7.102c0.523-0.086 1.303-0.15 2.168-0.15 1.068 0 1.816 0.16 2.328 0.566 0.427 0.342 0.662 0.844 0.662 1.506 0 0.918-0.651 1.548-1.271 1.773v0.032c0.502 0.203 0.78 0.683 0.961 1.345 0.224 0.812 0.449 1.752 0.587 2.029l-1.666-0.001zM23.123 29.778l-0.651-1.303c-0.267-0.502-0.438-0.876-0.641-1.292h-0.022c-0.149 0.417-0.331 0.79-0.555 1.292l-0.598 1.303h-1.858l2.082-3.642-2.007-3.556h1.869l0.63 1.313c0.214 0.438 0.374 0.79 0.545 1.196h0.022c0.171-0.459 0.31-0.78 0.491-1.196l0.608-1.313h1.858l-2.029 3.513 2.136 3.685-1.88-0.001zM5.675 20.945v-20.151h14.607v6.452c0 0.348 0.282 0.631 0.631 0.631h5.569l0.001 13.068h-20.808zM12.513 9.761c0.678-1.609 2.132-2.449 3.873-2.395 1.974 0.060 3.951 0.013 5.927 0.006-1.285-2.098-3.599-3.501-6.234-3.501-2.335 0-4.416 1.102-5.754 2.813 0.629 1.161 1.3 2.3 1.999 3.517 0.094-0.219 0.143-0.329 0.19-0.44zM16.686 14.952c-1.848 0.194-3.182-0.515-4.092-2.14-0.928-1.657-1.877-3.301-2.82-4.948-0.031-0.055-0.069-0.106-0.117-0.167-0.563 1.035-0.884 2.221-0.884 3.48 0 3.687 2.745 6.743 6.298 7.235 0.693-1.124 1.338-2.278 2.031-3.483-0.209 0.011-0.313 0.012-0.416 0.023zM22.466 8.382c-0.873 0.057-1.753 0.015-2.629 0.015-0.315 0-0.631 0-1.035 0 1.397 1.763 1.405 3.431 0.312 5.208-0.979 1.592-1.863 3.243-2.783 4.871 3.912-0.134 7.054-3.356 7.054-7.299 0-0.979-0.195-1.912-0.545-2.766-0.104-0.028-0.226-0.039-0.373-0.029zM16.057 8.419c-1.497 0.013-2.749 1.284-2.736 2.779 0.012 1.496 1.284 2.748 2.779 2.736 1.497-0.012 2.748-1.283 2.736-2.779-0.012-1.497-1.283-2.749-2.779-2.736z"></path>
</svg>
