<!-- Generated by IcoMoon.io -->
<svg version="1.1" xmlns="http://www.w3.org/2000/svg" width="32" height="32" viewBox="0 0 32 32">
<title>csr-file-format</title>
<path d="M27.737 7.239c-0.002-0.148-0.049-0.293-0.15-0.408l-6.201-7.082c-0.001-0.002-0.003-0.002-0.005-0.004-0.037-0.041-0.079-0.075-0.125-0.105-0.013-0.009-0.027-0.017-0.041-0.025-0.040-0.022-0.081-0.039-0.125-0.052-0.012-0.004-0.022-0.008-0.033-0.011-0.047-0.011-0.096-0.018-0.145-0.018h-15.238c-0.695 0-1.261 0.566-1.261 1.261v29.635c0 0.695 0.566 1.261 1.261 1.261h20.807c0.696 0 1.261-0.566 1.261-1.261v-23.119c0-0.024-0.004-0.047-0.006-0.071zM11.373 28.283c0.446 0 0.94-0.097 1.23-0.213l0.223 1.153c-0.271 0.136-0.882 0.281-1.675 0.281-2.257 0-3.421-1.404-3.421-3.264 0-2.228 1.589-3.468 3.565-3.468 0.766 0 1.346 0.155 1.608 0.291l-0.3 1.172c-0.3-0.126-0.717-0.242-1.24-0.242-1.172 0-2.083 0.707-2.083 2.16-0 1.308 0.774 2.132 2.092 2.132zM15.393 29.503c-0.746 0-1.482-0.193-1.85-0.397l0.3-1.221c0.397 0.204 1.007 0.407 1.637 0.407 0.678 0 1.036-0.281 1.036-0.707 0-0.407-0.31-0.64-1.094-0.92-1.085-0.378-1.793-0.979-1.793-1.928 0-1.114 0.93-1.967 2.47-1.967 0.736 0 1.278 0.155 1.666 0.329l-0.329 1.191c-0.262-0.126-0.727-0.309-1.366-0.309s-0.95 0.291-0.95 0.629c0 0.417 0.368 0.601 1.211 0.921 1.153 0.426 1.695 1.027 1.695 1.948 0 1.094-0.843 2.024-2.635 2.024zM22.445 29.406c-0.107-0.183-0.262-0.716-0.456-1.521-0.174-0.813-0.455-1.036-1.056-1.046h-0.445v2.567h-1.463v-6.443c0.475-0.078 1.181-0.136 1.966-0.136 0.968 0 1.647 0.145 2.112 0.514 0.388 0.31 0.6 0.765 0.6 1.366 0 0.833-0.591 1.405-1.153 1.608v0.030c0.455 0.184 0.707 0.62 0.872 1.22 0.204 0.736 0.407 1.589 0.532 1.84h-1.51zM5.675 20.945v-20.151h14.607v6.452c0 0.348 0.282 0.631 0.631 0.631h5.569l0.001 13.068h-20.808zM21.156 23.924c-0.359 0-0.562 0.029-0.668 0.048v1.802h0.581c0.736 0 1.172-0.369 1.172-0.94-0-0.601-0.407-0.901-1.085-0.91zM13.682 8.651c-1.821-0.626-4.177 0.345-3.405 2.602 0.39 1.142 1.692 1.872 2.605 2.542 1.822 1.338-1.473 1.955-2.507 1.805 0.17-0.169 0.34-0.338 0.51-0.507 0.271 0.114 0.533 0.246 0.787 0.395 0.266 0.148 0.525 0.295 0.801 0.423 0.345 0.161 0.921 0.307 1.296 0.154 0.521-0.213 0.89-0.495 1.28-0.905 0.361-0.38 0.813-1.552 1.339-0.921 0.242 0.29 0.691 0.33 1.026 0.238 0.271-0.074 0.508-0.264 0.732-0.422 0.44-0.312 0.743-0.179 1.297-0.165 1.563 0.039 2.718-0.528 3.907-1.505 0.472-0.387-0.202-1.052-0.669-0.669-1.053 0.864-2.162 1.438-3.566 1.153-0.746-0.152-1.17 0.173-1.754 0.587-0.221 0.156-0.958-0.512-1.282-0.512-0.549 0-0.983 0.635-1.275 1.001-0.624 0.781-1.338 1.449-2.368 0.891-0.526-0.285-1.102-0.695-1.717-0.753-1.011-0.095-1.678 0.706-1.545 1.689 0.259 1.907 4.512 0.271 5.144-0.398 0.873-0.923-0.253-1.894-0.959-2.393-0.873-0.617-2.171-1.347-2.306-2.524-0.16-1.395 1.712-1.12 2.377-0.891 0.579 0.199 0.825-0.714 0.252-0.912v0z"></path>
</svg>
