<!-- Generated by IcoMoon.io -->
<svg version="1.1" xmlns="http://www.w3.org/2000/svg" width="32" height="32" viewBox="0 0 32 32">
<title>css-file-format-symbol</title>
<path d="M27.736 7.239c-0.001-0.148-0.048-0.293-0.15-0.408l-6.2-7.082c-0.002-0.002-0.004-0.003-0.005-0.004-0.037-0.041-0.080-0.076-0.126-0.105-0.013-0.009-0.027-0.017-0.041-0.025-0.039-0.021-0.081-0.039-0.124-0.052-0.012-0.003-0.022-0.008-0.034-0.011-0.047-0.011-0.095-0.018-0.145-0.018h-15.237c-0.696 0-1.261 0.566-1.261 1.261v29.635c0 0.695 0.565 1.261 1.261 1.261h20.807c0.695 0 1.261-0.566 1.261-1.261v-23.119c-0-0.023-0.004-0.047-0.007-0.070zM11.023 28.855c0.522 0 1.101-0.113 1.441-0.25l0.261 1.351c-0.318 0.159-1.032 0.329-1.963 0.329-2.644 0-4.006-1.645-4.006-3.824 0-2.61 1.861-4.063 4.176-4.063 0.896 0 1.577 0.182 1.884 0.341l-0.352 1.373c-0.352-0.147-0.84-0.283-1.452-0.283-1.373 0-2.44 0.828-2.44 2.53-0 1.532 0.908 2.497 2.451 2.497zM15.733 30.284c-0.874 0-1.736-0.227-2.167-0.466l0.352-1.43c0.465 0.238 1.18 0.477 1.918 0.477 0.795 0 1.214-0.329 1.214-0.828 0-0.477-0.363-0.749-1.282-1.078-1.271-0.443-2.099-1.146-2.099-2.258 0-1.305 1.089-2.304 2.894-2.304 0.862 0 1.498 0.182 1.952 0.386l-0.386 1.396c-0.307-0.148-0.851-0.363-1.6-0.363s-1.112 0.341-1.112 0.738c0 0.488 0.431 0.703 1.418 1.078 1.35 0.499 1.986 1.202 1.986 2.28-0 1.283-0.987 2.372-3.087 2.372zM21.862 30.284c-0.874 0-1.736-0.227-2.167-0.466l0.352-1.43c0.465 0.238 1.18 0.477 1.917 0.477 0.795 0 1.214-0.329 1.214-0.828 0-0.477-0.363-0.749-1.282-1.078-1.271-0.443-2.1-1.146-2.1-2.258 0-1.305 1.090-2.304 2.894-2.304 0.862 0 1.497 0.182 1.952 0.386l-0.386 1.396c-0.306-0.148-0.851-0.363-1.6-0.363s-1.112 0.341-1.112 0.738c0 0.488 0.431 0.703 1.418 1.078 1.35 0.499 1.986 1.202 1.986 2.28-0 1.283-0.988 2.372-3.087 2.372zM26.482 20.944h-20.807v-20.15h14.607v6.452c0 0.349 0.283 0.631 0.631 0.631h5.57v13.068zM11.726 8.586c0 0.386 0.056 0.757 0.111 1.143 0.055 0.384 0.11 0.77 0.11 1.155 0 0.482-0.137 1.018-1.115 1.018v0.702c0.977 0 1.115 0.592 1.115 1.018 0 0.373-0.055 0.743-0.11 1.115s-0.111 0.756-0.111 1.128c0 1.389 0.853 1.886 1.996 1.886h0.289v-0.757h-0.247c-0.771 0-1.088-0.427-1.088-1.197 0-0.33 0.042-0.647 0.097-0.992 0.055-0.33 0.096-0.673 0.096-1.045 0.014-0.881-0.372-1.349-0.991-1.501v-0.026c0.62-0.166 1.005-0.607 0.991-1.487 0-0.371-0.041-0.702-0.096-1.046-0.055-0.331-0.097-0.661-0.097-0.977 0-0.743 0.275-1.184 1.088-1.184h0.247v-0.757h-0.289c-1.17 0-1.996 0.537-1.996 1.803zM19.684 10.884c0-0.385 0.055-0.771 0.11-1.155 0.055-0.385 0.11-0.757 0.11-1.143 0-1.266-0.84-1.803-2.010-1.803h-0.275v0.757h0.248c0.799 0.013 1.087 0.44 1.087 1.184 0 0.316-0.055 0.646-0.096 0.977-0.056 0.344-0.111 0.674-0.111 1.046 0 0.88 0.386 1.32 0.992 1.487v0.026c-0.606 0.151-0.992 0.619-0.992 1.501 0 0.372 0.055 0.716 0.111 1.045 0.041 0.345 0.096 0.662 0.096 0.992 0 0.77-0.331 1.184-1.101 1.197h-0.234v0.757h0.289c1.129 0 1.996-0.496 1.996-1.886 0-0.372-0.055-0.756-0.11-1.128s-0.11-0.742-0.11-1.115c0-0.427 0.138-1.018 1.115-1.018v-0.702c-0.977 0-1.115-0.536-1.115-1.018z"></path>
</svg>
