<!-- Generated by IcoMoon.io -->
<svg version="1.1" xmlns="http://www.w3.org/2000/svg" width="32" height="32" viewBox="0 0 32 32">
<title>csv-file-format-symbol</title>
<path d="M27.736 7.239c-0.001-0.147-0.048-0.293-0.15-0.408l-6.2-7.082c-0.002-0.002-0.004-0.003-0.005-0.004-0.037-0.041-0.080-0.075-0.126-0.105-0.013-0.008-0.027-0.017-0.041-0.025-0.039-0.021-0.081-0.039-0.124-0.052-0.012-0.004-0.022-0.008-0.034-0.011-0.047-0.011-0.095-0.018-0.145-0.018h-15.237c-0.696 0-1.261 0.566-1.261 1.261v29.635c0 0.695 0.565 1.261 1.261 1.261h20.807c0.695 0 1.261-0.566 1.261-1.261v-23.119c-0-0.024-0.004-0.047-0.007-0.071zM10.573 28.471c0.521 0 1.1-0.113 1.441-0.249l0.261 1.35c-0.318 0.159-1.032 0.329-1.963 0.329-2.644 0-4.006-1.646-4.006-3.824 0-2.61 1.861-4.063 4.176-4.063 0.897 0 1.578 0.181 1.884 0.341l-0.352 1.373c-0.351-0.147-0.84-0.283-1.452-0.283-1.373 0-2.439 0.828-2.439 2.53-0 1.532 0.908 2.497 2.451 2.497zM15.283 29.901c-0.874 0-1.736-0.227-2.167-0.466l0.351-1.43c0.466 0.238 1.18 0.477 1.918 0.477 0.794 0 1.214-0.329 1.214-0.829 0-0.477-0.363-0.749-1.282-1.078-1.271-0.443-2.099-1.146-2.099-2.258 0-1.305 1.089-2.304 2.894-2.304 0.862 0 1.498 0.181 1.952 0.386l-0.385 1.396c-0.307-0.148-0.851-0.363-1.6-0.363s-1.112 0.341-1.112 0.738c0 0.489 0.431 0.704 1.419 1.078 1.35 0.5 1.986 1.203 1.986 2.281-0.001 1.282-0.988 2.372-3.087 2.372zM23.363 29.787h-2.020l-2.451-7.648h1.895l0.93 3.235c0.261 0.908 0.499 1.781 0.681 2.735h0.034c0.193-0.919 0.431-1.827 0.692-2.701l0.976-3.268h1.839l-2.576 7.648zM5.675 20.945v-20.151h14.607v6.452c0 0.348 0.283 0.631 0.631 0.631h5.57v13.068l-20.807-0zM22.021 9.461h-11.653v6.96h11.661v-5.411h-0.007v-1.548zM14.229 16.287h-3.727v-1.572h3.727v1.572zM14.229 14.58h-3.727v-1.572h3.727v1.572zM14.229 12.874h-3.727v-1.571h3.727v1.571zM14.297 11.167v-1.571h3.727v1.571h-3.727zM21.87 16.263h-1.472v-4.501h-1.010v4.501h-0.842v-3.569h-1.010v3.569h-0.741v-2.648h-1.011v2.648h-1.42v-4.961h7.506v4.961zM21.886 11.010h-0.016v0.158h-3.711v-1.571h3.727v1.414z"></path>
</svg>
