<!-- Generated by IcoMoon.io -->
<svg version="1.1" xmlns="http://www.w3.org/2000/svg" width="32" height="32" viewBox="0 0 32 32">
<title>cube</title>
<path d="M15.017-0.071l-13.064 4.899c-1.175 0.44-1.953 1.57-1.953 2.826v14.138c0 1.143 0.647 2.186 1.664 2.694l13.064 6.532c0.848 0.427 1.847 0.427 2.694 0l13.064-6.532c1.024-0.509 1.664-1.558 1.664-2.694v-14.138c0-1.256-0.779-2.38-1.953-2.82l-13.064-4.899c-0.678-0.264-1.432-0.264-2.117-0.006zM16.078 3.829l12.059 4.522v0.069l-12.059 4.899-12.059-4.899v-0.069l12.059-4.522zM18.088 26.188v-9.352l10.049-4.082v8.41l-10.049 5.024z"></path>
</svg>
