<!-- Generated by IcoMoon.io -->
<svg version="1.1" xmlns="http://www.w3.org/2000/svg" width="32" height="32" viewBox="0 0 32 32">
<title>cubes</title>
<path d="M30.687 15.247l-6.067-2.274v-6.814c0-0.942-0.584-1.784-1.47-2.117l-6.281-2.355c-0.509-0.195-1.074-0.195-1.589 0l-6.281 2.355c-0.886 0.333-1.47 1.175-1.47 2.117v6.814l-6.067 2.274c-0.879 0.333-1.463 1.175-1.463 2.117v6.915c0 0.854 0.484 1.639 1.25 2.022l6.281 3.14c0.634 0.32 1.388 0.32 2.022 0l6.526-3.266 6.526 3.266c0.634 0.32 1.388 0.32 2.022 0l6.281-3.14c0.766-0.383 1.25-1.168 1.25-2.022v-6.915c0-0.942-0.584-1.784-1.47-2.117zM22.485 13.024l-5.339 2.003v-4.283l5.339-2.324v4.604zM9.672 6.071l6.406-2.399 6.406 2.399v0.038l-6.406 2.6-6.406-2.6v-0.038zM14.948 24.354l-5.339 2.669v-4.968l5.339-2.437v4.736zM14.948 17.32l-6.406 2.6-6.406-2.6v-0.038l6.406-2.399 6.406 2.399v0.038zM30.021 24.354l-5.339 2.669v-4.968l5.339-2.437v4.736zM30.021 17.32l-6.406 2.6-6.406-2.6v-0.038l6.406-2.399 6.406 2.399v0.038z"></path>
</svg>
