<!-- Generated by IcoMoon.io -->
<svg version="1.1" xmlns="http://www.w3.org/2000/svg" width="32" height="32" viewBox="0 0 32 32">
<title>cue-file-format-symbol</title>
<path d="M27.737 7.239c-0.002-0.148-0.049-0.293-0.15-0.408l-6.2-7.082c-0.001-0.002-0.003-0.002-0.005-0.004-0.037-0.041-0.079-0.075-0.125-0.105-0.013-0.009-0.027-0.017-0.041-0.025-0.040-0.021-0.081-0.039-0.124-0.052-0.012-0.004-0.022-0.008-0.034-0.011-0.047-0.011-0.095-0.018-0.145-0.018h-15.238c-0.695 0-1.261 0.566-1.261 1.261v29.635c0 0.696 0.566 1.261 1.261 1.261h20.807c0.696 0 1.261-0.566 1.261-1.261v-23.119c-0-0.024-0.004-0.047-0.006-0.071zM10.804 28.748c0.491 0 1.036-0.107 1.357-0.235l0.246 1.271c-0.299 0.15-0.972 0.31-1.847 0.31-2.489 0-3.77-1.549-3.77-3.599 0-2.456 1.752-3.823 3.93-3.823 0.844 0 1.484 0.17 1.773 0.32l-0.331 1.292c-0.331-0.139-0.79-0.267-1.367-0.267-1.292 0-2.296 0.78-2.296 2.381 0 1.442 0.855 2.349 2.306 2.349zM19.349 26.826c0 2.221-1.121 3.278-3.001 3.278-1.815 0-2.884-1.004-2.884-3.3v-4.015h1.634v4.143c0 1.239 0.47 1.869 1.303 1.869 0.854 0 1.324-0.598 1.324-1.869v-4.143h1.624v4.037zM25.352 29.988h-4.592v-7.198h4.443v1.335h-2.809v1.495h2.649v1.324h-2.649v1.709h2.959v1.336h-0zM5.675 20.945v-20.151h14.607v6.452c0 0.348 0.282 0.631 0.631 0.631h5.569l0.001 13.068h-20.808zM19.881 9.799c-0.435-2.917-2.944-5.156-5.983-5.156-3.345 0-6.057 2.712-6.057 6.056 0 3.346 2.713 6.058 6.057 6.058 0.694 0 1.358-0.123 1.978-0.337-0.247-0.576-0.385-1.21-0.385-1.874 0-2.502 1.938-4.554 4.39-4.747zM15.722 5.384l-1.317 2.685c-0.256-0.099-0.508-0.046-0.508-0.046l-0.761-2.82c0-0 1.009-0.453 2.586 0.181zM13.898 13.083c-1.316 0-2.384-1.067-2.384-2.384 0-1.316 1.067-2.383 2.384-2.383s2.383 1.067 2.383 2.383c0 1.317-1.066 2.384-2.383 2.384zM13.898 8.65c-1.13 0-2.050 0.92-2.050 2.051s0.919 2.050 2.050 2.050c1.131 0 2.051-0.92 2.051-2.050s-0.92-2.051-2.051-2.051zM13.898 12.624c-1.060 0-1.923-0.863-1.923-1.923s0.863-1.924 1.923-1.924c1.061 0 1.924 0.863 1.924 1.924 0 1.060-0.863 1.923-1.924 1.923zM13.898 9.75c-0.523 0-0.95 0.426-0.95 0.95s0.426 0.95 0.95 0.95c0.524 0 0.95-0.426 0.95-0.95s-0.426-0.95-0.95-0.95zM13.898 11.523c-0.454 0-0.823-0.369-0.823-0.823s0.369-0.823 0.823-0.823 0.823 0.369 0.823 0.823c-0 0.454-0.37 0.823-0.823 0.823zM20.024 10.471c-2.251 0-4.075 1.824-4.075 4.075s1.824 4.075 4.075 4.075 4.076-1.824 4.076-4.075c0-2.251-1.825-4.075-4.076-4.075zM20.738 17.782h-1.436v-4.616h1.436v4.616zM20.010 12.6c-0.453 0-0.755-0.321-0.745-0.717-0.010-0.416 0.292-0.727 0.755-0.727s0.755 0.311 0.764 0.727c-0 0.396-0.302 0.717-0.774 0.717z"></path>
</svg>
