<!-- Generated by IcoMoon.io -->
<svg version="1.1" xmlns="http://www.w3.org/2000/svg" width="32" height="32" viewBox="0 0 32 32">
<title>cur-file-format</title>
<path d="M27.737 7.239c-0.002-0.147-0.049-0.293-0.15-0.408l-6.201-7.082c-0.001-0.002-0.003-0.003-0.005-0.004-0.037-0.041-0.079-0.075-0.125-0.105-0.013-0.009-0.027-0.017-0.041-0.025-0.040-0.021-0.081-0.039-0.125-0.052-0.012-0.003-0.022-0.008-0.033-0.011-0.047-0.011-0.096-0.018-0.145-0.018h-15.238c-0.695 0-1.261 0.566-1.261 1.261v29.635c0 0.695 0.566 1.261 1.261 1.261h20.807c0.696 0 1.261-0.566 1.261-1.261v-23.119c0-0.024-0.004-0.047-0.006-0.071zM10.391 28.871c0.492 0 1.036-0.106 1.356-0.235l0.246 1.271c-0.299 0.15-0.972 0.309-1.848 0.309-2.488 0-3.77-1.549-3.77-3.599 0-2.456 1.751-3.823 3.93-3.823 0.844 0 1.485 0.171 1.773 0.32l-0.331 1.292c-0.331-0.139-0.791-0.267-1.367-0.267-1.292 0-2.296 0.78-2.296 2.382-0 1.441 0.854 2.349 2.306 2.349zM18.935 26.949c0 2.222-1.122 3.279-3.001 3.279-1.816 0-2.883-1.004-2.883-3.3v-4.015h1.634v4.143c0 1.239 0.47 1.869 1.302 1.869 0.855 0 1.324-0.598 1.324-1.869v-4.143h1.623v4.037zM24.116 30.11c-0.118-0.203-0.288-0.791-0.502-1.677-0.192-0.897-0.502-1.143-1.164-1.153h-0.491v2.83h-1.612v-7.102c0.523-0.085 1.302-0.15 2.167-0.15 1.068 0 1.816 0.16 2.328 0.566 0.427 0.342 0.663 0.843 0.663 1.505 0 0.919-0.651 1.549-1.271 1.773v0.032c0.502 0.203 0.779 0.683 0.961 1.346 0.224 0.812 0.448 1.751 0.587 2.029l-1.666-0zM5.675 20.945v-20.151h14.607v6.452c0 0.348 0.282 0.631 0.631 0.631h5.569l0.001 13.068h-20.808zM22.695 24.066c-0.395 0-0.619 0.032-0.737 0.054v1.986h0.641c0.811 0 1.292-0.406 1.292-1.036-0-0.663-0.449-0.993-1.196-1.004zM15.855 11.417l3.95-0.991-8.543-2.616 2.616 8.543 0.991-3.95 5.039 5.039 0.987-0.986z"></path>
</svg>
