<!-- Generated by IcoMoon.io -->
<svg version="1.1" xmlns="http://www.w3.org/2000/svg" width="28" height="32" viewBox="0 0 28 32">
<title>cut</title>
<path d="M17.464 15.611l10.452-10.453c0.295-0.295 0.295-0.772 0-1.066-2.060-2.060-5.401-2.060-7.461 0l-7.255 7.255-1.561-1.561c0.271-0.686 0.42-1.433 0.42-2.215 0-3.33-2.699-6.029-6.029-6.029s-6.029 2.699-6.029 6.029 2.699 6.029 6.029 6.029c0.285 0 0.565-0.020 0.839-0.058l2.068 2.068-2.068 2.068c-0.275-0.038-0.555-0.058-0.839-0.058-3.33 0-6.029 2.699-6.029 6.029s2.699 6.029 6.029 6.029 6.029-2.699 6.029-6.029c0-0.782-0.149-1.529-0.42-2.215l1.561-1.561 7.255 7.255c2.060 2.060 5.401 2.060 7.461 0 0.295-0.294 0.295-0.771 0-1.066l-10.452-10.453zM6.029 9.582c-1.108 0-2.010-0.902-2.010-2.010s0.902-2.010 2.010-2.010 2.010 0.902 2.010 2.010-0.902 2.010-2.010 2.010zM6.029 25.66c-1.108 0-2.010-0.902-2.010-2.010s0.902-2.010 2.010-2.010 2.010 0.902 2.010 2.010-0.902 2.010-2.010 2.010z"></path>
</svg>
