<!-- Generated by IcoMoon.io -->
<svg version="1.1" xmlns="http://www.w3.org/2000/svg" width="28" height="32" viewBox="0 0 28 32">
<title>cuttlefish</title>
<path d="M21.605 18.72c-1.099 1.985-3.605 3.423-6.029 3.423-3.555 0-6.532-2.977-6.532-6.532s2.977-6.532 6.532-6.532c2.424 0 4.93 1.438 6.029 3.423 0.86-3.197 2.619-5.86 5.464-7.399-2.845-3.115-6.94-5.068-11.493-5.068-8.604 0-15.576 6.971-15.576 15.576s6.971 15.576 15.576 15.576c4.553 0 8.648-1.953 11.493-5.068-2.845-1.539-4.604-4.202-5.464-7.399z"></path>
</svg>
