<!-- Generated by IcoMoon.io -->
<svg version="1.1" xmlns="http://www.w3.org/2000/svg" width="36" height="32" viewBox="0 0 36 32">
<title>d-and-d</title>
<path d="M5.181 5.745c-0.038-1.080 0.126-2.123 0.798-3.027 0.019 0.465 0.075 0.911 0.264 1.357 0.371-1.727 1.237-3.096 2.657-4.114-0.119 0.371-0.22 0.741-0.188 1.112 0.546-0.465 1.181-1.118 2.789-1.426 0.923-0.176 1.865-0.126 2.644 0.063 2.418 0.584 3.831 2.154 4.378 4.541 0.333 1.451 0.044 2.826-0.521 4.17-0.327 0.779-0.754 1.533-1.3 2.205-0.126-0.119-0.245-0.239-0.364-0.352-2.688-2.563-1.683-1.583-2.349-2.349-0.069-0.075-0.063-0.138-0.006-0.226 0.521-0.848 0.741-1.771 0.628-2.763-0.069-0.615-0.27-1.187-0.71-1.645-0.911-0.961-2.462-0.942-3.36 0.038-0.716 0.785-0.886 1.721-0.685 2.738 0.012 0.082 0.025 0.17 0 0.245-0.214 0.86-0.289 1.733-0.157 2.613 0.006 0.031 0.006 0.069 0.006 0.1 0 0.019-0.006 0.031-0.012 0.069-1.369-0.691-2.261-1.777-2.713-3.278-0.521 1.118-0.697 2.23-0.415 3.398-0.98-0.955-1.338-2.154-1.382-3.467zM34.675 13.482c-0.729-0.729-1.57-1.281-2.519-1.671-0.804-0.327-1.633-0.496-2.506-0.446-0.628 0.038-1.231 0.195-1.821 0.402-0.157 0.057-0.32 0.1-0.484 0.138-0.308 0.075-0.458-0.195-0.295-0.427 0.201-0.289 0.214-0.264 0.942-0.754 0.038-0.025 0.075-0.050 0.138-0.094h-0.157c-0.038 0-0.075 0.012-0.119 0.019-1.212 0.207-1.928 0.973-3.071 1.859-0.653 0.509-0.867 0.239-0.754-0.031 0.088-0.22 0.207-0.421 0.32-0.628 0.063-0.113 0.145-0.214 0.22-0.32-0.012-0.012-0.031-0.019-0.044-0.031-1.696 1.149-2.933 2.663-3.624 4.604 0.019 0.019 0.044 0.038 0.063 0.057 0.019-0.038 0.031-0.075 0.057-0.107 0.653-0.76 1.432-1.369 2.299-1.872 1.143-0.666 2.355-1.149 3.687-1.269 0.27-0.025 0.546-0.006 0.823-0.006-0.113 0.044-0.22 0.057-0.333 0.069-1.162 0.151-2.23 0.565-3.235 1.162-1.897 1.124-3.423 2.65-4.717 4.422-0.019 0.025-0.025 0.057-0.044 0.082 0.911 0.333 1.507 1.087 2.267 1.608 0.012-0.006 0.019-0.012 0.025-0.025l0.075-0.17c0.766-1.69 1.696-3.285 2.933-4.679 1.049-1.181 2.387-1.589 3.925-1.256 0.371 0.082 0.716 0.276 1.080 0.427 0.145-0.088 0.32-0.201 0.503-0.295 0.527-0.27 1.093-0.44 1.677-0.565 0.923-0.195 1.853-0.308 2.795-0.082v-0.031c-0.031-0.025-0.075-0.050-0.107-0.088zM19.891 24.505c-2.475-2.073-1.432-1.225-2.682-2.236-0.050 0.057 0-0.012-0.119 0.188-0.703 1.2-1.602 2.217-2.763 2.99-0.647 0.427-1.35 0.741-2.142 0.741-1.357 0-2.399-0.597-3.103-1.746-0.754-1.225-0.835-2.556-0.515-3.932 0.49-2.123 1.89-3.467 2.424-4.038-1.175-0.389-2.073 0.107-2.914 0.873 0.050-0.873 0.27-1.645 0.741-2.343-1.526 0.666-2.883 1.57-4.070 2.757-0.019-0.364 0.339-2.745 0.352-2.807 0.019-0.17-0.038-0.333-0.188-0.465-1.52 1.551-2.795 3.253-3.523 5.313 0.465-0.371 0.936-0.716 1.482-1.017-0.521 1.401-1.231 3.316-0.49 6.35 0.289 1.193 0.747 2.311 1.514 3.285 0.182 0.232 0.396 0.433 0.597 0.647 0.013-0.012 0.025-0.019 0.038-0.031-0.088-0.44-0.138-0.886-0.094-1.375 0.138 0.201 0.245 0.377 0.371 0.54 0.791 1.005 1.803 1.721 2.964 2.236 1.57 0.71 3.209 0.835 4.893 0.54 3.448-0.609 5.697-3.052 7.285-6.205 0.063-0.113 0.038-0.182-0.057-0.264zM30.693 21.59c-0.597-0.195-1.394-0.264-1.802-0.182 0.622 0.251 0.886 0.415 1.181 0.754 0.791 0.904 0.653 2.179-0.339 2.864-0.735 0.509-1.564 0.66-2.443 0.572-0.075-0.006-0.145-0.025-0.188-0.038 0.176-0.232 0.377-0.44 0.509-0.678 0.59-1.055 0.339-2.644-0.546-3.523-0.132-0.132-0.289-0.245-0.44-0.371-0.019 0.082-0.006 0.132 0.006 0.176 0.264 1.043-0.509 2.035-1.558 1.997-0.477-0.019-0.873-0.239-1.231-0.534-1.225-1.011-2.456-2.016-3.674-3.034-0.371-0.308-0.785-0.509-1.262-0.546-0.289-0.025-0.584-0.038-0.873-0.057-0.371-0.025-0.553-0.176-0.653-0.527-0.057-0.214-0.094-0.427-0.138-0.641-0.094-0.509-0.389-0.816-0.898-0.892-0.276-0.044-0.559-0.063-0.835-0.094-0.816-0.088-1.244-0.465-1.419-1.275-0.314 0.691-0.1 1.407 0.458 1.878 0.283 0.239 0.584 0.458 0.867 0.703 0.289 0.239 0.465 0.546 0.496 0.93 0.025 0.295 0.050 0.597 0.113 0.886 0.138 0.666 0.559 1.156 1.068 1.576 1.036 0.86 2.073 1.715 3.109 2.581 1.124 0.942 0.873 2.060 0.816 3.517-0.057 1.438 0.766 2.694 2.104 3.216 0.063 0.025 0.126 0.038 0.226 0.069-0.986-1.143-0.634-2.77 0.044-3.285 0.019 0.138 0.025 0.27 0.057 0.402 0.59 2.77 2.851 4.032 5.339 3.574 1.005-0.182 1.922-0.559 2.694-1.244 0.126-0.113 0.232-0.258 0.371-0.408-1.212 0.289-2.248 0.006-3.197-0.666 0.044-0.019 0.082-0.019 0.119-0.019 1.338 0.113 2.55-0.214 3.58-1.093 1.225-1.043 1.671-2.694 1.093-4.145-0.521-1.262-1.482-2.029-2.751-2.443zM6.243 10.794c-0.333-0.578-0.829-0.98-1.388-1.338 0.86-0.031 1.671 0.012 2.487 0.232-0.44-0.766-0.534-1.551-0.314-2.431 0.333 0.747 0.86 1.262 1.482 1.683 1.237 0.829 2.242 1.231 2.933 1.897 0.214 0.207 0.396 0.446 0.603 0.685-0.050-0.132-0.088-0.258-0.138-0.377-0.314-0.666-0.816-1.168-1.419-1.57-0.113-0.075-0.176-0.157-0.214-0.283-0.207-0.785-0.188-1.576-0.044-2.362 0.063-0.345 0.176-0.685 0.283-1.024 0.050-0.151 0.145-0.289 0.251-0.415 0.038 0.433 0 1.602 1.231 2.889 0.678 0.71 1.407 1.375 2.129 2.054 0.565 0.534 1.149 1.049 1.602 1.683 0.069 0.1 0.138 0.207 0.239 0.295-0.314-0.816-0.892-1.514-1.52-2.123-0.603-0.584-1.218-1.156-1.834-1.721-0.207-0.188-0.289-0.421-0.32-0.685-0.075-0.653 0-1.294 0.27-1.897 0.031-0.063 0.069-0.126 0.119-0.207 0.031 0.264 0.038 0.496 0.088 0.729 0.301 1.451 1.281 2.28 3.096 3.988 0.628 0.59 1.212 1.206 1.608 1.985 0.301 0.584 0.458 1.193 0.358 1.859-0.006 0.038 0.031 0.107 0.069 0.126 0.389 0.163 0.628 0.433 0.609 0.898 0.484-0.163 0.785-0.502 1.030-0.911 0.264 1.269-0.572 3.159-1.708 3.687 0.025-0.283 0.314-1.47-1.036-1.74-0.427-0.082-0.804-0.082-1.438-0.132 0.295-0.565 0.653-1.294 0.031-1.407-1.564-0.289-3.316 0.119-3.63 0.289 0.515 0.025 1.024 0.063 1.476 0.207-0.126 0.408-0.251 0.798-0.364 1.187-0.119 0.408 0.132 0.917 0.584 0.603 0.075-0.057 0.145-0.119 0.207-0.17-0.195 1.124-0.182 0.999-0.176 1.149 0.019 0.641 0.597 0.49 0.986 0.458-0.157 0.741-1.853 1.715-2.851 1.62 0.44-0.295 0.798-0.647 0.999-1.124-0.408 0.050-0.81 0.1-1.206 0.151l-0.019-0.057c0.295-0.214 0.502-0.49 0.641-0.823 0.546-1.325-0.226-2.387-1.57-2.506-0.572-0.050-1.118 0.050-1.627 0.345 0.389-0.98 1.080-1.671 2.047-2.167-0.955-0.27-0.559-0.17-1.545-0.396 0.917-0.584 1.897-0.829 2.92-0.917-0.327-0.201-3.021-0.226-4.409 1.313 0.496 0.088 0.973 0.176 1.457 0.264-1.495 0.44-2.763 1.237-3.919 2.236 0.069-0.301 0.17-0.597 0.207-0.898 0.038-0.283 0.050-0.578 0.006-0.854-0.094-0.59-0.559-0.948-1.237-1.024-0.496-0.057-0.98 0.006-1.463 0.082-0.057 0.006-0.107 0.019-0.182 0 0.992-0.93 2.261-1.363 3.335-2.104 0.377-0.283 0.427-0.515 0.188-0.936zM14.307 12.477c0.207 1.005 0.791 1.602 1.495 1.526-0.289-0.71-0.76-1.225-1.495-1.526z"></path>
</svg>
