<!-- Generated by IcoMoon.io -->
<svg version="1.1" xmlns="http://www.w3.org/2000/svg" width="40" height="32" viewBox="0 0 40 32">
<title>d-and-d-beyond</title>
<path d="M17.96 13.062c0-0.357 0.099-0.967 0.604-1.288-0.008 0-0.231-0.049-0.563 0.070 0.128-0.192 0.626-0.493 0.654-0.493-0.513-1.636-2.386-1.439-2.022-1.439-1.942 0-2.050 0.021-2.505-0.252 0.008 0.048 0.033 0.512 0.604 0.936 0.1 0.080 0.181 0.151 0.181 0.413v2.435c0 0.262-0.050 0.332-0.171 0.403-0.008 0.004-0.472 0.28-0.493 0.292h2.203c0.629 0 1.093-0.096 1.63-0.543-0.040-0.312 0.010-0.594 0.050-0.755 0.001-0.010-0.11 0.090-0.17 0.222zM16.078 13.112v-2.173c0.288 0 1.449-0.21 1.449 1.087 0 1.301-1.154 1.087-1.449 1.087zM22.659 13.656c0.046-0.092 0.113-0.317-0.010-0.563 0.045 0.008 0.352 0.030 0.352 0.282 0 0.181-0.182 0.261-0.342 0.281zM23.574 14.139h-0.020c0.225-0.271 0.214-0.75-0.141-1.026 0.073 0 1.237 0.201 1.237-1.087 0-1.302-1.153-1.087-1.449-1.087v0.272c-0.339-0.048-0.468 0.017-0.473 0.020 0.131-0.11 0.282-0.161 0.383-0.181-0.443-0.1-0.855 0.151-0.916 0.221 0.050-0.11 0.151-0.211 0.221-0.282-0.141 0.050-0.272 0.121-0.383 0.191 0-0.325 0.016-0.468-0.181-0.594-0.572-0.413-0.596-0.89-0.604-0.936 0.444 0.266 0.483 0.252 2.505 0.252 2.052 0.098 2.123 1.873 2.123 2.103 0.001 0.416-0.209 2.133-2.304 2.133zM22.86 12.921c-0.151 0-0.312 0.030-0.312 0.030-0.030-0.030-0.231-0.181-0.322-0.201 0.253 0.269 0.029 0.617-0.191 0.453v-0.986c0.040-0.050 0.080-0.11 0.131-0.161 0.11-0.131 0.292-0.211 0.473-0.211 0.11 0 0.221 0.030 0.292 0.090l0.060 0.040 0.050-0.050c0.030-0.030 0.1-0.060 0.171-0.090v1.157c-0.11-0.051-0.22-0.071-0.352-0.071zM22.659 11.553c-0.372-0.050-0.946 0.201-1.237 0.563 0.060-0.241 0.322-0.634 0.644-0.815 0 0-0.161 0.201-0.090 0.231 0.1 0.050 0.362-0.362 0.704-0.373 0 0-0.252 0.121-0.201 0.211 0.040 0.060 0.211-0.080 0.503-0.080 0.362 0 0.684 0.221 0.835 0.393-0.252-0.070-0.724 0.050-0.865 0.171-0.016-0.012-0.739-0.56-1.379 0.976-0.3-0.241-0.279-0.232-0.403-0.282 0.272-0.381 0.835-0.965 1.489-0.995zM18.734 10.425c-0.012-0.145 0.003-1.243 1.258-1.187 0.704 0.040 1.046 0.523 1.046 1.036 0 0.272-0.141 0.634-0.342 0.865-0.139-0.139-0.349-0.293-0.483-0.493 0.241-0.352 0.141-0.906-0.292-0.906-0.272 0-0.493 0.282-0.403 0.624-0.040 0.151-0.060 0.352-0.030 0.503-0.312-0.161-0.413-0.373-0.473-0.563-0.080 0.161-0.131 0.383-0.070 0.594 0.001 0.020-0.181-0.141-0.211-0.473zM18.916 11.281c-0.030 0.11-0.443 0.231-0.644 0.433 0.302-0.060 0.443-0.010 0.493 0.11 0.030 0.090-0.010 0.211-0.030 0.352 0.1-0.11 0.443-0.342 0.694-0.393-0.060-0.020-0.211-0.050-0.272-0.050 0.181-0.211 0.583-0.282 0.805-0.231-0.141-0.010-0.423 0.070-0.533 0.161 0.1 0.020 0.191 0.040 0.272 0.070-0.131 0.050-0.302 0.211-0.362 0.383 0.442-0.312 0.821 0.324 0.443 0.513 0.050 0.010 0.171 0 0.221-0.030-0.020 0.070-0.121 0.191-0.191 0.211 0.181 0 0.443-0.121 0.513-0.292 0 0-0.11 0.040-0.161-0.010s0.020-0.272 0.020-0.272c-0.143 0.184-0.215-0.082-0.080-0.262-0.060-0.020-0.221-0.040-0.292-0.030 0.201-0.070 0.654-0.11 0.704-0.020 0.040 0.070-0.060 0.211-0.060 0.211 0.252-0.031 0.519 0.071 0.423 0.322 0.181-0.090 0.342-0.373 0.302-0.654-0.020 0.060-0.1 0.151-0.181 0.171 0.010-0.090-0.060-0.141-0.121-0.161 0.107-0.604-0.918-0.894-0.886-1.499-0.060 0.080-0.11 0.312-0.050 0.443 0.171 0.201 0.543 0.423 0.634 0.765-0.161-0.403-0.946-0.714-0.916-1.268-0.1 0.1-0.161 0.493-0.080 0.694 0.151 0.090 0.282 0.241 0.302 0.383-0.141-0.322-0.714-0.383-0.875-0.765-0.040 0.141-0.020 0.312 0.060 0.423 0 0-0.141-0.050-0.443-0.040 0.1 0.041 0.312 0.222 0.291 0.333zM20.546 11.744c-0.171 0-0.221-0.131-0.262-0.272 0.202 0.081 0.262 0.272 0.262 0.272zM22.739 14.37c0.121 0.11 0.413 0.191 0.563 0.121-0.244 0.435-1.449 0.473-1.449-0.403-0.181 0.181-0.131 0.463 0 0.583-0.141-0.040-0.362-0.191-0.403-0.463-0.082-0.631 0.276-0.406-0.654-1.137-0.302-0.231-0.191-0.413-0.252-0.533-0.069-0.139-0.438-0.259-0.282-0.533-0.010 0.1 0.060 0.181 0.161 0.221 0.11 0.040 0.201 0.010 0.302 0.060 0.11 0.070 0.060 0.241 0.141 0.312 0.070 0.050 0.262-0.020 0.413 0.11 0.161 0.131 0.513 0.423 0.664 0.543 0.272 0.221 0.553-0.030 0.463-0.292 0.282 0.161 0.312 0.624 0.080 0.785 0.665 0.151 0.815-0.631 0.312-0.714 0.453-0.040 0.845 0.272 0.845 0.674-0.020 0.403-0.432 0.725-0.905 0.665zM21.27 13.575c-0.241 0.493-0.694 1.127-1.56 1.127-0.626 0-1.010-0.443-0.976-0.443-0.267-0.355-0.188 0.019-0.151 0.121-0.684-0.644-0.332-1.59-0.322-1.63 0.040-0.121 0-0.141-0.040-0.121-0.060 0.020-0.131 0.121-0.131 0.121 0.050-0.573 0.583-0.926 0.583-0.926l0.010 0.010c0.060 0.090-0.030 0.201-0.040 0.563 0.1-0.141 0.493-0.413 0.714-0.493-0.070 0.090-0.131 0.221-0.131 0.413 0.233-0.262 0.472-0.166 0.503-0.151-0.765 0.744-0.443 1.67 0.201 1.67 0.362 0 0.724-0.403 0.875-0.674 0.152 0.151 0.397 0.346 0.463 0.413zM22.266 15.748c-4.644 0-4.866 6.238-0.020 6.238 4.892 0 4.652-6.238 0.020-6.238zM22.246 20.618c-2.347 0-2.317-3.471 0.010-3.471 2.316 0 2.439 3.471-0.010 3.471zM30.457 15.939h2.465l-0.463 0.523v5.353h-1.338c-0.252-0.795-2.817-2.828-3.049-3.491h-0.020v2.978l0.463 0.513h-2.445l0.453-0.523v-4.83l-0.463-0.533h1.982c0.181 0.594 2.495 2.294 2.838 3.199h0.020v-2.666l-0.443-0.523zM36.402 15.809c-1.298 0-2.515 0.080-3.159 0.131l0.463 0.513v4.85l-0.463 0.513c0.654 0.050 1.942 0.131 3.24 0.131 2.646 0 3.712-1.298 3.712-3.069 0.001-1.841-1.458-3.069-3.793-3.069zM35.457 20.557v-3.351c1.889-0.21 2.938 0.239 2.938 1.65-0.001 1.608-1.348 1.9-2.938 1.701zM16.521 21.292l0.453 0.513h-2.676l0.483-0.513-0.010-1.217-2.767-4.135h2.817l-0.403 0.453 1.318 2.335h0.020l1.288-2.335-0.383-0.453h2.616l-2.767 4.155 0.010 1.197zM12.557 20.477l-0.886 1.328h-5.101l0.463-0.513v-4.84l-0.463-0.513 4.618-0.010v0.010l0.886 1.318h-3.29v0.936h2.335l-0.886 1.328v0.010l-1.449-0.010v0.966l3.773-0.011zM5.021 18.747c1.077-0.287 1.016-1.133 1.016-1.247 0-1.292-1.516-1.57-2.324-1.57h-3.522l0.523 0.543v1.852h-0.714l0.714 0.916v2.022l-0.523 0.543c3.878 0 4.636 0.097 5.423-0.372 0.423-0.252 0.624-0.614 0.624-1.107 0-0.322 0.165-1.18-1.217-1.58zM2.425 17.016c1.255 0 1.862-0.053 1.862 0.573v0.191c0 0.759-1.191 0.553-1.862 0.553v-1.318zM4.487 20.155c0 0.703-0.781 0.583-2.063 0.583v-1.419c0.766 0 2.053-0.143 2.053 0.553v0.282h0.010z"></path>
</svg>
