<!-- Generated by IcoMoon.io -->
<svg version="1.1" xmlns="http://www.w3.org/2000/svg" width="32" height="32" viewBox="0 0 32 32">
<title>dat-file-format-variant</title>
<path d="M9.664 23.801c-0.35 0-0.577 0.031-0.711 0.062v4.542c0.134 0.031 0.35 0.031 0.546 0.031 1.422 0.010 2.348-0.772 2.348-2.431 0.010-1.442-0.834-2.204-2.184-2.204zM16.978 23.821h-0.021c-0.103 0.412-0.206 0.937-0.319 1.339l-0.412 1.473h1.535l-0.433-1.473c-0.124-0.412-0.247-0.927-0.35-1.339zM27.737 7.239c-0.002-0.148-0.049-0.293-0.15-0.408l-6.2-7.082c-0.001-0.002-0.003-0.003-0.005-0.004-0.037-0.041-0.079-0.075-0.125-0.105-0.013-0.009-0.027-0.017-0.041-0.025-0.040-0.021-0.081-0.039-0.124-0.052-0.012-0.003-0.022-0.008-0.034-0.011-0.047-0.011-0.095-0.018-0.145-0.018h-15.238c-0.695 0-1.261 0.566-1.261 1.261v29.635c0 0.696 0.566 1.261 1.261 1.261h20.807c0.696 0 1.261-0.566 1.261-1.261v-23.119c-0-0.024-0.004-0.047-0.006-0.071zM12.362 28.765c-0.731 0.607-1.844 0.896-3.203 0.896-0.813 0-1.39-0.052-1.782-0.103v-6.819c0.577-0.092 1.328-0.144 2.121-0.144 1.318 0 2.173 0.237 2.843 0.742 0.721 0.536 1.174 1.39 1.174 2.616 0 1.329-0.484 2.245-1.153 2.812zM18.523 29.589l-0.535-1.782h-1.988l-0.494 1.782h-1.627l2.122-6.942h2.060l2.153 6.941h-1.689zM25.095 23.966h-1.895v5.623h-1.576v-5.623h-1.864v-1.318h5.335v1.318zM5.675 20.945v-20.151h14.607v6.452c0 0.348 0.282 0.631 0.631 0.631h5.569l0.001 13.068h-20.808zM17.403 12.911c0.166-0.401 0.494-0.722 0.9-0.88 0.036-0.015 0.062-0.050 0.062-0.091v-1.225c0-0.040-0.026-0.078-0.062-0.093-0.406-0.158-0.733-0.479-0.9-0.88-0.165-0.401-0.161-0.86 0.013-1.258 0.016-0.036 0.007-0.082-0.020-0.11l-0.866-0.866c-0.048-0.047-0.084-0.032-0.111-0.021-0.394 0.174-0.857 0.181-1.257 0.013-0.402-0.165-0.723-0.494-0.881-0.899-0.014-0.036-0.051-0.062-0.091-0.062h-1.225c-0.040 0-0.078 0.026-0.092 0.062-0.157 0.405-0.479 0.733-0.879 0.899-0.401 0.167-0.862 0.162-1.259-0.013-0.025-0.010-0.061-0.026-0.109 0.021l-0.867 0.866c-0.028 0.029-0.037 0.074-0.021 0.111 0.176 0.398 0.179 0.856 0.013 1.257s-0.493 0.721-0.898 0.88c-0.038 0.015-0.064 0.051-0.064 0.093v1.225c0 0.041 0.026 0.076 0.064 0.091 0.405 0.159 0.732 0.479 0.898 0.88s0.163 0.86-0.013 1.259c-0.016 0.036-0.007 0.079 0.021 0.108l0.867 0.867c0.049 0.047 0.083 0.032 0.109 0.020 0.204-0.089 0.42-0.135 0.645-0.135 0.212 0 0.418 0.042 0.613 0.123 0.402 0.167 0.724 0.493 0.881 0.898 0.014 0.038 0.052 0.062 0.092 0.062h1.224c0.040 0 0.077-0.024 0.091-0.062 0.158-0.405 0.479-0.732 0.881-0.898 0.401-0.166 0.861-0.161 1.258 0.013 0.026 0.012 0.061 0.026 0.11-0.020l0.866-0.867c0.028-0.029 0.037-0.072 0.020-0.108-0.174-0.399-0.179-0.858-0.013-1.259zM13.577 13.708c-1.315 0-2.381-1.068-2.381-2.383 0-1.312 1.066-2.383 2.381-2.383s2.382 1.070 2.382 2.383c-0 1.314-1.069 2.383-2.382 2.383zM22.406 14.581c-0.204-0.079-0.368-0.241-0.452-0.441s-0.081-0.432 0.007-0.632c0.008-0.018 0.004-0.040-0.010-0.056l-0.435-0.434c-0.024-0.024-0.043-0.016-0.056-0.011-0.198 0.087-0.43 0.091-0.631 0.007-0.202-0.083-0.363-0.248-0.442-0.451-0.007-0.019-0.026-0.032-0.046-0.032h-0.615c-0.020 0-0.039 0.013-0.046 0.032-0.079 0.203-0.24 0.368-0.442 0.451s-0.433 0.081-0.632-0.007c-0.013-0.005-0.031-0.013-0.055 0.011l-0.435 0.434c-0.014 0.015-0.019 0.037-0.010 0.057 0.088 0.199 0.090 0.429 0.006 0.631s-0.248 0.362-0.45 0.441c-0.019 0.008-0.032 0.026-0.032 0.047v0.615c0 0.020 0.013 0.038 0.032 0.046 0.203 0.079 0.367 0.24 0.45 0.442s0.082 0.432-0.006 0.632c-0.008 0.018-0.004 0.040 0.010 0.055l0.435 0.435c0.025 0.023 0.042 0.016 0.055 0.009 0.102-0.045 0.211-0.068 0.323-0.068 0.106 0 0.21 0.020 0.308 0.062 0.202 0.083 0.363 0.248 0.442 0.451 0.007 0.019 0.026 0.031 0.046 0.031h0.615c0.020 0 0.039-0.012 0.046-0.031 0.079-0.203 0.24-0.367 0.442-0.451s0.432-0.081 0.632 0.006c0.013 0.006 0.031 0.013 0.055-0.009l0.435-0.435c0.014-0.015 0.018-0.037 0.010-0.055-0.088-0.2-0.090-0.431-0.007-0.632s0.248-0.363 0.452-0.442c0.018-0.007 0.031-0.025 0.031-0.046v-0.615c-0-0.020-0.013-0.039-0.031-0.047zM20.033 16.132c-0.66 0-1.195-0.537-1.195-1.196s0.535-1.196 1.195-1.196c0.66 0 1.196 0.537 1.196 1.196s-0.536 1.196-1.196 1.196z"></path>
</svg>
