<!-- Generated by IcoMoon.io -->
<svg version="1.1" xmlns="http://www.w3.org/2000/svg" width="32" height="32" viewBox="0 0 32 32">
<title>data</title>
<path d="M4.293 1.532c-2.461 0-4.009 1.845-4.009 5.007s1.528 5.056 4.009 5.056c2.475 0 4.011-1.899 4.011-5.048 0-3.176-1.556-5.015-4.011-5.015zM21.235 1.532c-2.461 0-4.009 1.845-4.009 5.007s1.528 5.056 4.009 5.056c2.475 0 4.011-1.899 4.011-5.048 0-3.176-1.556-5.015-4.011-5.015zM12.357 1.79l-2.427 1.654v2.091l2.301-1.556h0.125v7.357h2.427v-9.546h-2.427zM29.301 1.79l-2.427 1.654v2.091l2.301-1.556h0.125v7.357h2.427v-9.546h-2.427zM4.293 3.398c0.927 0 1.549 1.044 1.549 3.141 0 2.11-0.622 3.19-1.549 3.19s-1.541-1.079-1.541-3.19c0-2.097 0.614-3.141 1.541-3.141zM21.235 3.398c0.927 0 1.549 1.044 1.549 3.141 0 2.11-0.622 3.19-1.549 3.19s-1.541-1.079-1.541-3.19c0-2.097 0.614-3.141 1.541-3.141zM11.579 20.411c-2.461 0-4.011 1.845-4.011 5.007s1.53 5.055 4.011 5.053c2.475 0 4.009-1.896 4.009-5.046 0-3.176-1.554-5.015-4.009-5.015zM21.235 20.411c-2.461 0-4.009 1.845-4.009 5.007s1.528 5.055 4.009 5.053c2.475 0 4.011-1.896 4.011-5.046 0-3.176-1.556-5.015-4.011-5.015zM2.699 20.67l-2.427 1.654v2.091l2.301-1.556h0.125v7.357h2.427v-9.546h-2.427zM29.301 20.67l-2.427 1.654v2.091l2.301-1.556h0.125v7.357h2.427v-9.546h-2.427zM11.579 22.278c0.927 0 1.546 1.044 1.546 3.141 0 2.112-0.621 3.19-1.546 3.19-0.927 0-1.544-1.079-1.544-3.19 0-2.097 0.617-3.141 1.544-3.141zM21.235 22.278c0.927 0 1.549 1.044 1.549 3.141 0 2.112-0.622 3.19-1.549 3.19s-1.541-1.079-1.541-3.19c0-2.097 0.614-3.141 1.541-3.141z"></path>
</svg>
