<!-- Generated by IcoMoon.io -->
<svg version="1.1" xmlns="http://www.w3.org/2000/svg" width="28" height="32" viewBox="0 0 28 32">
<title>database</title>
<path d="M28.137 4.127v2.871c0 2.53-6.302 4.594-14.069 4.594s-14.069-2.064-14.069-4.594v-2.871c0-2.53 6.302-4.594 14.069-4.594s14.069 2.064 14.069 4.594zM28.137 10.587v6.46c0 2.53-6.302 4.594-14.069 4.594s-14.069-2.064-14.069-4.594v-6.46c3.022 2.082 8.555 3.051 14.069 3.051s11.046-0.969 14.069-3.051zM28.137 20.636v6.46c0 2.53-6.302 4.594-14.069 4.594s-14.069-2.064-14.069-4.594v-6.46c3.022 2.082 8.555 3.051 14.069 3.051s11.046-0.969 14.069-3.051z"></path>
</svg>
