<!-- Generated by IcoMoon.io -->
<svg version="1.1" xmlns="http://www.w3.org/2000/svg" width="32" height="32" viewBox="0 0 32 32">
<title>db-file-format-variant</title>
<path d="M19.356 26.435h-0.59v2.156c0.17 0.023 0.374 0.023 0.669 0.023 0.783 0 1.475-0.295 1.475-1.101 0-0.772-0.692-1.078-1.555-1.078zM20.729 24.256c0-0.579-0.443-0.885-1.225-0.885-0.375 0-0.59 0.023-0.738 0.045v1.781h0.567c0.908-0 1.396-0.374 1.396-0.941zM11.672 23.439c-0.386 0-0.636 0.034-0.782 0.068v5.005c0.147 0.034 0.386 0.034 0.602 0.034 1.566 0.012 2.587-0.851 2.587-2.678 0.012-1.589-0.919-2.429-2.406-2.429zM27.737 7.239c-0.002-0.147-0.049-0.293-0.15-0.408l-6.2-7.082c-0.001-0.002-0.003-0.003-0.005-0.004-0.037-0.042-0.079-0.075-0.125-0.105-0.013-0.009-0.027-0.017-0.041-0.025-0.040-0.022-0.081-0.039-0.124-0.052-0.012-0.003-0.022-0.008-0.034-0.011-0.047-0.011-0.095-0.018-0.145-0.018h-15.238c-0.695 0-1.261 0.566-1.261 1.261v29.635c0 0.695 0.566 1.261 1.261 1.261h20.807c0.696 0 1.261-0.566 1.261-1.261v-23.119c-0-0.024-0.004-0.047-0.006-0.071zM14.645 28.909c-0.806 0.669-2.031 0.987-3.529 0.987-0.897 0-1.532-0.057-1.963-0.113v-7.512c0.635-0.102 1.464-0.159 2.338-0.159 1.452 0 2.394 0.261 3.132 0.817 0.794 0.59 1.294 1.532 1.294 2.883-0 1.464-0.533 2.473-1.271 3.098zM21.932 29.204c-0.557 0.443-1.487 0.692-3.007 0.692-0.852 0-1.487-0.057-1.872-0.113v-7.512c0.454-0.091 1.373-0.159 2.235-0.159 1.055 0 1.703 0.102 2.259 0.432 0.533 0.284 0.919 0.805 0.919 1.498 0 0.68-0.397 1.316-1.26 1.634v0.023c0.874 0.238 1.521 0.897 1.521 1.884-0 0.692-0.318 1.236-0.794 1.623zM5.675 20.944v-20.15h14.607v6.452c0 0.348 0.282 0.631 0.631 0.631h5.569l0.001 13.068h-20.808zM19.246 7.728h-7.455c-0.168 0-0.304 0.136-0.304 0.304v2.197c0 0.168 0.136 0.304 0.304 0.304h7.455c0.168 0 0.305-0.136 0.305-0.304v-2.197c0-0.168-0.136-0.304-0.304-0.304zM19.246 11.221h-7.455c-0.168 0-0.304 0.136-0.304 0.304v2.196c0 0.168 0.136 0.304 0.304 0.304h7.455c0.168 0 0.305-0.136 0.305-0.304v-2.196c0-0.168-0.136-0.304-0.304-0.304zM19.246 14.692h-7.455c-0.168 0-0.304 0.136-0.304 0.304v2.197c0 0.167 0.136 0.303 0.304 0.303h7.455c0.168 0 0.305-0.136 0.305-0.303v-2.197c0-0.168-0.136-0.304-0.304-0.304z"></path>
</svg>
