<!-- Generated by IcoMoon.io -->
<svg version="1.1" xmlns="http://www.w3.org/2000/svg" width="32" height="32" viewBox="0 0 32 32">
<title>dbf-file-format-symbol</title>
<path d="M16.577 26.437h-0.603v2.206c0.174 0.023 0.383 0.023 0.685 0.023 0.801 0 1.509-0.302 1.509-1.126-0-0.789-0.708-1.103-1.591-1.103zM17.982 24.208c0-0.592-0.453-0.905-1.254-0.905-0.383 0-0.603 0.023-0.754 0.046v1.822h0.581c0.929 0.001 1.428-0.382 1.428-0.963zM8.719 23.373c-0.394 0-0.65 0.035-0.8 0.070v5.119c0.151 0.035 0.395 0.035 0.615 0.035 1.602 0.012 2.647-0.871 2.647-2.739 0.012-1.625-0.94-2.484-2.461-2.484zM27.737 7.239c-0.002-0.148-0.048-0.293-0.15-0.408l-6.201-7.082c-0.001-0.002-0.003-0.003-0.005-0.004-0.037-0.041-0.079-0.075-0.125-0.105-0.013-0.009-0.027-0.017-0.041-0.025-0.040-0.021-0.081-0.039-0.124-0.052-0.012-0.003-0.022-0.008-0.034-0.011-0.047-0.011-0.095-0.018-0.145-0.018h-15.238c-0.695 0-1.261 0.566-1.261 1.261v29.635c0 0.696 0.566 1.261 1.261 1.261h20.807c0.696 0 1.261-0.566 1.261-1.261v-23.119c0-0.024-0.004-0.047-0.006-0.071zM11.761 28.967c-0.825 0.685-2.078 1.010-3.61 1.010-0.918 0-1.567-0.058-2.009-0.116v-7.685c0.65-0.105 1.498-0.163 2.392-0.163 1.486 0 2.45 0.267 3.204 0.836 0.813 0.604 1.323 1.567 1.323 2.949-0 1.498-0.546 2.53-1.3 3.169zM19.212 29.269c-0.569 0.453-1.521 0.708-3.076 0.708-0.871 0-1.521-0.058-1.916-0.116v-7.685c0.465-0.093 1.405-0.163 2.287-0.163 1.080 0 1.741 0.105 2.31 0.441 0.546 0.29 0.94 0.824 0.94 1.532 0 0.696-0.406 1.347-1.289 1.672v0.023c0.894 0.244 1.555 0.917 1.555 1.927 0.001 0.708-0.325 1.265-0.812 1.66zM26.015 23.524h-3.007v1.788h2.809v1.439h-2.809v3.146h-1.776v-7.824h4.782v1.451zM5.675 20.945v-20.151h14.607v6.452c0 0.348 0.282 0.631 0.631 0.631h5.569l0.001 13.068h-20.808zM15.239 17.034c-0.13-0.053-0.234-0.139-0.309-0.245-0.069 0.001-0.137 0.005-0.208 0.005-2.294 0-3.893-0.803-3.893-1.523v-1.182c0.716 0.656 2.189 1.074 3.893 1.074 0.104 0 0.204-0.007 0.306-0.010 0.059-0.054 0.124-0.1 0.201-0.132 0.092-0.036 0.161-0.103 0.194-0.184s0.032-0.177-0.003-0.257c-0.022-0.047-0.032-0.099-0.042-0.15-0.212 0.015-0.43 0.025-0.656 0.025-2.294 0-3.893-0.803-3.893-1.523v-1.182c0.716 0.656 2.189 1.074 3.893 1.074 1.706 0 3.179-0.419 3.895-1.075v0.786h0.040c0.162 0 0.308 0.059 0.428 0.155v-1.015c0-0.179-0.052-0.36-0.156-0.538l-0.013-0.023c0.108-0.175 0.169-0.361 0.169-0.555v-1.256c0-0.17-0.047-0.343-0.141-0.514l-0.011-0.020c0.028-0.076 0.047-0.154 0.047-0.238 0-1.015-2.193-1.563-4.257-1.563-2.062 0-4.255 0.548-4.255 1.563 0 0.083 0.019 0.162 0.047 0.238l-0.011 0.020c-0.094 0.171-0.141 0.344-0.141 0.514v1.256c0 0.193 0.061 0.379 0.168 0.554l-0.014 0.024c-0.103 0.178-0.154 0.359-0.154 0.538v1.256c0 0.187 0.057 0.366 0.159 0.538l-0.005 0.008c-0.103 0.178-0.154 0.359-0.154 0.537v1.256c0 1.116 1.915 1.99 4.359 1.99 0.241 0 0.475-0.011 0.705-0.027-0.002-0.007-0.001-0.015-0.004-0.021-0.033-0.080-0.1-0.146-0.184-0.178zM10.83 9.514c0.7 0.593 2.322 0.9 3.893 0.9 1.573 0 3.195-0.307 3.895-0.9v1.046c0 0.72-1.598 1.523-3.895 1.523-2.294 0-3.893-0.802-3.893-1.523v-1.046zM19.901 16.843c0.043-0.017 0.077-0.051 0.094-0.091s0.016-0.087-0.001-0.127c-0.053-0.12-0.026-0.262 0.066-0.354l0.245-0.245c0.062-0.061 0.141-0.094 0.224-0.094h0.058l0.066 0.025c0.051 0.023 0.095 0.020 0.133 0.004 0.041-0.017 0.074-0.051 0.090-0.092 0.047-0.116 0.153-0.191 0.275-0.199v-0.228c0-0.024-0.015-0.046-0.038-0.056-0.242-0.095-0.438-0.286-0.537-0.525s-0.097-0.514 0.008-0.752c0.009-0.021 0.005-0.048-0.012-0.065l-0.517-0.517c-0.028-0.029-0.050-0.020-0.066-0.013-0.236 0.104-0.511 0.108-0.751 0.008-0.239-0.099-0.431-0.295-0.526-0.537-0.009-0.022-0.030-0.037-0.055-0.037h-0.732c-0.024 0-0.046 0.015-0.055 0.037-0.095 0.242-0.286 0.438-0.526 0.537s-0.514 0.097-0.752-0.008c-0.015-0.006-0.036-0.016-0.065 0.013l-0.518 0.517c-0.017 0.017-0.022 0.044-0.012 0.066 0.104 0.238 0.107 0.511 0.008 0.751s-0.295 0.431-0.537 0.525c-0.022 0.009-0.037 0.031-0.037 0.056v0.732c0 0.024 0.015 0.046 0.037 0.055 0.243 0.094 0.438 0.286 0.537 0.525s0.096 0.514-0.008 0.752c-0.009 0.021-0.004 0.048 0.012 0.065l0.518 0.518c0.029 0.029 0.050 0.019 0.066 0.012 0.122-0.053 0.251-0.081 0.385-0.081 0.127 0 0.25 0.025 0.367 0.073 0.239 0.099 0.431 0.295 0.526 0.537 0.008 0.022 0.031 0.037 0.055 0.037h0.732c0.025 0 0.046-0.015 0.055-0.037 0.095-0.242 0.286-0.438 0.526-0.537 0.234-0.097 0.499-0.095 0.731-0 0.003-0.031 0.011-0.062 0.024-0.091 0.019-0.042 0.019-0.090 0.002-0.13s-0.051-0.073-0.091-0.089c-0.124-0.050-0.203-0.166-0.203-0.297v-0.347c0-0.131 0.079-0.248 0.201-0.296zM18.291 17.23c-0.784 0-1.423-0.638-1.423-1.423 0-0.783 0.638-1.423 1.423-1.423s1.424 0.639 1.424 1.423c-0.001 0.786-0.639 1.423-1.424 1.423zM22.719 17.112c-0.115-0.045-0.207-0.135-0.254-0.248s-0.046-0.244 0.004-0.356c0.005-0.010 0.003-0.023-0.006-0.032l-0.245-0.245c-0.013-0.013-0.024-0.009-0.031-0.006-0.111 0.049-0.243 0.051-0.356 0.004-0.114-0.047-0.205-0.14-0.249-0.254-0.004-0.010-0.014-0.018-0.026-0.018h-0.346c-0.012 0-0.023 0.007-0.026 0.018-0.044 0.115-0.135 0.207-0.249 0.254s-0.244 0.046-0.356-0.004c-0.007-0.003-0.018-0.007-0.031 0.006l-0.245 0.245c-0.008 0.009-0.010 0.021-0.006 0.032 0.050 0.112 0.051 0.242 0.004 0.356s-0.14 0.204-0.254 0.248c-0.011 0.005-0.018 0.014-0.018 0.026v0.347c0 0.011 0.007 0.021 0.018 0.026 0.115 0.045 0.207 0.135 0.254 0.249s0.046 0.244-0.004 0.356c-0.005 0.010-0.002 0.022 0.006 0.031l0.245 0.245c0.013 0.013 0.024 0.009 0.031 0.006 0.058-0.025 0.119-0.038 0.182-0.038 0.060 0 0.118 0.012 0.173 0.035 0.114 0.047 0.205 0.139 0.249 0.254 0.004 0.010 0.015 0.018 0.026 0.018h0.346c0.012 0 0.022-0.006 0.026-0.018 0.045-0.114 0.135-0.207 0.249-0.254s0.244-0.045 0.356 0.004c0.007 0.003 0.018 0.007 0.031-0.006l0.245-0.245c0.008-0.008 0.010-0.020 0.006-0.031-0.050-0.113-0.050-0.243-0.004-0.356s0.139-0.204 0.255-0.249c0.010-0.005 0.018-0.015 0.018-0.026v-0.347c0-0.011-0.007-0.022-0.018-0.026zM21.382 17.986c-0.372 0-0.674-0.302-0.674-0.674s0.302-0.675 0.674-0.675c0.372 0 0.674 0.303 0.674 0.675s-0.302 0.674-0.674 0.674z"></path>
</svg>
