<!-- Generated by IcoMoon.io -->
<svg version="1.1" xmlns="http://www.w3.org/2000/svg" width="32" height="32" viewBox="0 0 32 32">
<title>deaf</title>
<path d="M13.566 15.863c0 0.971-0.787 1.759-1.759 1.759s-1.759-0.787-1.759-1.759c0-2.77 2.254-5.024 5.024-5.024s5.024 2.254 5.024 5.024c0 0.971-0.787 1.759-1.759 1.759s-1.759-0.787-1.759-1.759c0-0.831-0.676-1.507-1.507-1.507s-1.507 0.676-1.507 1.507zM15.073 4.809c-6.095 0-11.054 4.959-11.054 11.054 0 0.971 0.787 1.759 1.759 1.759s1.759-0.787 1.759-1.759c0-4.156 3.381-7.537 7.537-7.537s7.537 3.381 7.537 7.537c0 4.721-4.46 4.416-4.522 9.020l-0 0.024c0 1.801-1.465 3.266-3.266 3.266-0.971 0-1.759 0.787-1.759 1.759s0.787 1.759 1.759 1.759c3.735 0 6.775-3.035 6.783-6.769 0.037-2.162 4.522-3.030 4.522-9.058 0-6.095-4.959-11.054-11.054-11.054zM31.936 1.53l-1.776-1.776c-0.294-0.294-0.771-0.294-1.066 0l-5.466 5.466c-0.294 0.294-0.294 0.771 0 1.066l1.776 1.776c0.294 0.294 0.771 0.294 1.066 0l5.466-5.466c0.294-0.294 0.294-0.772 0-1.066zM10.612 19.301c-0.294-0.294-0.771-0.294-1.066 0l-9.326 9.326c-0.294 0.294-0.294 0.771 0 1.066l1.776 1.776c0.294 0.294 0.771 0.294 1.066 0l9.326-9.326c0.294-0.294 0.294-0.771 0-1.066l-1.777-1.776z"></path>
</svg>
