<!-- Generated by IcoMoon.io -->
<svg version="1.1" xmlns="http://www.w3.org/2000/svg" width="32" height="32" viewBox="0 0 32 32">
<title>debian-file</title>
<path d="M14.862 12.682c0.083-0.065 0.158-0.13 0.225-0.193-0.186 0.046-0.376 0.047-0.567 0.029-0.229 0.003 0.043 0.118 0.343 0.164zM15.75 12.211c0.136-0.188 0.236-0.395 0.271-0.608-0.031 0.152-0.113 0.283-0.191 0.422-0.428 0.27-0.040-0.16-0-0.324-0.461 0.58-0.063 0.348-0.080 0.51zM16.204 11.029c0.028-0.413-0.081-0.282-0.118-0.125 0.043 0.022 0.076 0.291 0.118 0.125zM13.65 5.388c0.122 0.022 0.264 0.039 0.244 0.068 0.134-0.029 0.164-0.056-0.244-0.068zM13.889 5.466l0.006-0.011-0.086 0.018zM13.576 13.996c-0.33-0.155-0.632-0.388-0.88-0.673 0.132 0.193 0.274 0.38 0.458 0.528-0.311-0.105-0.726-0.754-0.848-0.78 0.536 0.96 2.175 1.683 3.033 1.324-0.397 0.015-0.901 0.008-1.348-0.157-0.172-0.088-0.399-0.263-0.401-0.32-0.008 0.022-0.023 0.045-0.014 0.078zM18.429 8.469c0.307 0.444 0.482 1.133 0.562 1.418-0.061-0.348-0.16-0.684-0.281-1.010 0.093 0.039-0.15-0.715 0.121-0.216-0.29-1.065-1.239-2.061-2.113-2.528 0.107 0.098 0.242 0.221 0.193 0.24-0.435-0.259-0.358-0.279-0.42-0.388-0.354-0.144-0.377 0.011-0.612 0-0.667-0.354-0.796-0.316-1.41-0.538l0.028 0.13c-0.442-0.147-0.515 0.056-0.993 0-0.029-0.023 0.153-0.082 0.303-0.104-0.427 0.056-0.407-0.084-0.825 0.015 0.103-0.072 0.212-0.12 0.322-0.182-0.348 0.021-0.832 0.203-0.683 0.038-0.568 0.254-1.578 0.61-2.144 1.141l-0.018-0.119c-0.26 0.312-1.132 0.931-1.201 1.334l-0.069 0.016c-0.135 0.229-0.222 0.488-0.33 0.723-0.177 0.301-0.259 0.116-0.234 0.163-0.347 0.704-0.52 1.296-0.669 1.782 0.106 0.159 0.003 0.956 0.043 1.594-0.174 3.151 2.212 6.21 4.819 6.917 0.382 0.137 0.951 0.131 1.434 0.146-0.571-0.163-0.644-0.086-1.2-0.28-0.401-0.189-0.489-0.404-0.773-0.651l0.112 0.199c-0.557-0.197-0.324-0.244-0.777-0.387l0.12-0.157c-0.181-0.014-0.478-0.304-0.559-0.465l-0.197 0.008c-0.237-0.293-0.364-0.504-0.354-0.667l-0.064 0.114c-0.072-0.124-0.873-1.098-0.457-0.871-0.077-0.070-0.18-0.115-0.291-0.317l0.085-0.097c-0.2-0.257-0.368-0.587-0.355-0.697 0.107 0.144 0.181 0.171 0.254 0.196-0.505-1.252-0.533-0.069-0.915-1.275l0.081-0.006c-0.062-0.093-0.1-0.195-0.15-0.294l0.035-0.351c-0.363-0.42-0.102-1.787-0.049-2.536 0.036-0.305 0.303-0.629 0.506-1.138l-0.124-0.021c0.236-0.412 1.35-1.657 1.866-1.593 0.25-0.314-0.050-0.001-0.098-0.080 0.549-0.568 0.721-0.401 1.092-0.503 0.399-0.237-0.343 0.093-0.153-0.090 0.691-0.176 0.489-0.401 1.39-0.491 0.095 0.054-0.221 0.084-0.3 0.154 0.575-0.282 1.821-0.218 2.63 0.156 0.939 0.439 1.993 1.735 2.035 2.955l0.047 0.013c-0.024 0.485 0.074 1.046-0.096 1.561l0.116-0.244c0.014 0.371-0.108 0.55-0.219 0.869l-0.198 0.099c-0.162 0.315 0.016 0.2-0.1 0.45-0.253 0.225-0.768 0.704-0.933 0.748-0.12-0.003 0.082-0.142 0.108-0.197-0.339 0.233-0.272 0.349-0.79 0.491l-0.015-0.034c-1.278 0.601-3.053-0.59-3.029-2.216-0.014 0.103-0.039 0.077-0.067 0.119-0.066-0.836 0.386-1.676 1.149-2.019 0.746-0.369 1.62-0.218 2.155 0.28-0.293-0.384-0.878-0.792-1.57-0.754-0.678 0.011-1.313 0.442-1.524 0.909-0.347 0.219-0.388 0.843-0.539 0.958-0.204 1.497 0.383 2.144 1.376 2.905 0.080 0.054 0.090 0.084 0.083 0.112 0.001-0.001 0.001-0.001 0.001-0.002 1.171 0.438 2.381 0.331 3.394-0.481 0.258-0.201 0.54-0.542 0.621-0.547-0.123 0.184 0.021 0.089-0.073 0.251 0.257-0.414-0.111-0.169 0.266-0.715l0.139 0.192c-0.052-0.344 0.427-0.762 0.378-1.305 0.11-0.166 0.123 0.179 0.006 0.562 0.162-0.425 0.043-0.493 0.084-0.843 0.045 0.118 0.104 0.243 0.134 0.367-0.105-0.41 0.108-0.691 0.161-0.929-0.052-0.023-0.163 0.181-0.188-0.303 0.004-0.211 0.059-0.11 0.080-0.162-0.041-0.024-0.15-0.185-0.216-0.494 0.048-0.073 0.128 0.188 0.193 0.199-0.042-0.246-0.114-0.434-0.117-0.622-0.19-0.397-0.067 0.053-0.221-0.17-0.203-0.631 0.168-0.147 0.193-0.433zM13.59 13.918c0.001-0.004 0.003-0.007 0.004-0.011-0.003 0.003-0.004 0.007-0.004 0.011zM11.985 12.993c0.151 0.205 0.27 0.426 0.462 0.586-0.138-0.27-0.241-0.382-0.43-0.747l-0.032 0.161zM12.374 12.818c-0.080-0.088-0.127-0.194-0.18-0.3 0.051 0.186 0.154 0.346 0.25 0.508l-0.070-0.208zM18.242 12.808c0.226-0.425 0.372-0.889 0.433-1.359l-0.034 0.084c-0.062 0.439-0.195 0.873-0.399 1.275zM14.241 5.209c-0.214 0.018-0.428 0.029-0.638 0.056l0.093 0.013c0.155-0.057 0.381-0.031 0.545-0.069zM8.318 8.412c0.167-0.377-0.065-0.104-0.063-0.241 0.036 0.331-0.249 0.459 0.063 0.241zM8.001 9.221c-0.199 0.254-0.091 0.308-0.112 0.48 0.072-0.22 0.085-0.353 0.112-0.48zM21.508 24.733c0-0.394-0.301-0.602-0.834-0.602-0.255 0-0.402 0.015-0.502 0.031v1.213h0.386c0.618 0 0.95-0.255 0.95-0.641zM11.22 24.177c-0.263 0-0.433 0.023-0.533 0.046v3.406c0.1 0.023 0.263 0.023 0.409 0.023 1.066 0.008 1.761-0.579 1.761-1.823 0.008-1.081-0.626-1.653-1.637-1.653zM20.574 26.216h-0.402v1.468c0.116 0.015 0.255 0.015 0.456 0.015 0.533 0 1.004-0.201 1.004-0.749 0-0.525-0.471-0.734-1.058-0.734zM27.473 6.69l-5.95-6.785c-0.207-0.236-0.506-0.371-0.819-0.371h-15.029c-0.696 0-1.261 0.565-1.261 1.261v29.635c0 0.697 0.565 1.261 1.261 1.261h20.807c0.697 0 1.261-0.565 1.261-1.261v-23.020c0-0.264-0.096-0.52-0.27-0.718zM13.244 27.9c-0.548 0.456-1.383 0.672-2.402 0.672-0.61 0-1.043-0.039-1.336-0.077v-5.113c0.433-0.070 0.996-0.108 1.591-0.108 0.989 0 1.63 0.178 2.132 0.556 0.541 0.402 0.88 1.043 0.88 1.962-0 0.996-0.363 1.684-0.865 2.109zM18.202 28.517h-3.321v-5.206h3.213v0.965h-2.031v1.081h1.916v0.958h-1.916v1.236h2.14v0.965zM22.327 28.1c-0.378 0.301-1.012 0.471-2.047 0.471-0.579 0-1.012-0.039-1.274-0.077v-5.113c0.309-0.062 0.935-0.108 1.522-0.108 0.718 0 1.159 0.070 1.537 0.294 0.363 0.193 0.626 0.548 0.626 1.020 0 0.463-0.27 0.896-0.857 1.112v0.015c0.595 0.162 1.035 0.61 1.035 1.282 0 0.471-0.216 0.842-0.541 1.104zM5.675 20.944v0-20.15h14.607v6.452c0 0.348 0.282 0.631 0.631 0.631h5.569l0.001 13.068h-20.808z"></path>
</svg>
