<!-- Generated by IcoMoon.io -->
<svg version="1.1" xmlns="http://www.w3.org/2000/svg" width="28" height="32" viewBox="0 0 28 32">
<title>delicious</title>
<path d="M28.043 3.804c-0.025-0.094-0.057-0.188-0.088-0.283-0.057-0.157-0.126-0.301-0.207-0.446-0.088-0.151-0.188-0.301-0.295-0.433-0.132-0.157-0.276-0.301-0.433-0.427-0.069-0.057-0.138-0.107-0.207-0.157-0.082-0.057-0.163-0.107-0.251-0.151-0.113-0.063-0.226-0.113-0.345-0.157-0.107-0.044-0.22-0.082-0.339-0.107-0.239-0.063-0.496-0.094-0.754-0.094h-22.108c-1.664-0.006-3.015 1.344-3.015 3.008v22.108c0 0.258 0.031 0.515 0.094 0.754 0.126 0.484 0.364 0.917 0.691 1.275 0.063 0.069 0.132 0.138 0.207 0.207 0.358 0.327 0.791 0.565 1.275 0.691 0.239 0.063 0.496 0.094 0.754 0.094h22.108c1.664 0 3.015-1.35 3.015-3.015v-22.114c-0.006-0.258-0.038-0.515-0.1-0.754zM26.127 26.665c0 0.553-0.452 1.005-1.005 1.005h-11.054v-12.059h-12.059v-11.054c0-0.553 0.452-1.005 1.005-1.005h11.054v12.059h12.059v11.054z"></path>
</svg>
