<!-- Generated by IcoMoon.io -->
<svg version="1.1" xmlns="http://www.w3.org/2000/svg" width="32" height="32" viewBox="0 0 32 32">
<title>dem-file-format-symbol</title>
<path d="M8.82 23.746c-0.329 0-0.542 0.029-0.668 0.058v4.272c0.126 0.030 0.329 0.030 0.514 0.030 1.337 0.009 2.209-0.727 2.209-2.287 0.010-1.356-0.785-2.073-2.054-2.073zM27.737 7.239c-0.002-0.148-0.048-0.293-0.15-0.408l-6.201-7.082c-0.001-0.002-0.003-0.002-0.005-0.004-0.037-0.041-0.079-0.075-0.125-0.105-0.013-0.009-0.027-0.017-0.041-0.025-0.040-0.021-0.081-0.039-0.124-0.052-0.012-0.004-0.022-0.008-0.034-0.011-0.047-0.011-0.095-0.018-0.145-0.018h-15.238c-0.695 0-1.261 0.566-1.261 1.261v29.635c0 0.696 0.566 1.261 1.261 1.261h20.807c0.696 0 1.261-0.566 1.261-1.261v-23.119c0-0.024-0.004-0.047-0.006-0.070zM11.358 28.415c-0.688 0.571-1.734 0.843-3.013 0.843-0.766 0-1.308-0.048-1.676-0.097v-6.413c0.543-0.087 1.25-0.136 1.996-0.136 1.24 0 2.044 0.223 2.674 0.698 0.678 0.503 1.104 1.308 1.104 2.461 0 1.249-0.455 2.112-1.085 2.645zM17.577 29.19h-4.166v-6.529h4.030v1.211h-2.548v1.356h2.402v1.201h-2.402v1.55h2.683v1.211h-0zM24.202 29.19l-0.097-2.5c-0.029-0.784-0.059-1.734-0.059-2.683h-0.028c-0.204 0.833-0.475 1.763-0.727 2.528l-0.795 2.549h-1.153l-0.697-2.529c-0.213-0.765-0.436-1.695-0.591-2.548h-0.019c-0.039 0.881-0.068 1.889-0.116 2.703l-0.116 2.48h-1.366l0.417-6.529h1.966l0.639 2.179c0.203 0.756 0.406 1.57 0.552 2.334h0.029c0.184-0.755 0.407-1.618 0.62-2.344l0.698-2.17h1.927l0.358 6.529-1.443 0zM5.675 20.945v-20.151h14.607v6.452c0 0.348 0.282 0.631 0.631 0.631h5.569l0.001 13.068h-20.808zM20.731 9.346h-4.516l-0.866-0.010c-0.065-0.162-0.092-0.316-0.096-0.447-0.033-0.919 0.849-1.714 1.23-2.013 0.505-0.396 0.768-0.802 0.908-1.398 0.093-0.394-0.128-0.837-0.38-1.258l-0.231-0.383c-0.588-0.97-1.143-1.887-1.426-3.087-0.023-0.099-0.070-0.2-0.239-0.2-0.12 0-0.247 0.058-0.316 0.145-0.055 0.070-0.069 0.151-0.044 0.257 0.214 0.905 0.589 1.793 1.179 2.795l0.074 0.125c0.414 0.695 1.106 1.857-0.238 2.737-0.282 0.185-0.548 0.359-0.728 0.595-0.334 0.437-0.465 1.062-0.358 1.716 0.024 0.146 0.061 0.288 0.105 0.426h-3.633c-2.315 0-4.192 1.877-4.192 4.192s1.877 4.192 4.192 4.192c2.251 0 4.088-1.775 4.188-4.001h1.2c0.1 2.227 1.936 4.001 4.188 4.001 2.315 0 4.192-1.877 4.192-4.192s-1.877-4.192-4.192-4.192zM11.427 11.397c0.428-0.157 0.902 0.063 1.059 0.491s-0.063 0.903-0.491 1.060c-0.428 0.157-0.902-0.063-1.059-0.491s0.063-0.902 0.491-1.059zM8.908 13.2c-0.157-0.428 0.063-0.902 0.491-1.060s0.902 0.063 1.059 0.491c0.157 0.428-0.063 0.903-0.491 1.060s-0.903-0.063-1.060-0.491zM10.697 15.68c-0.428 0.157-0.903-0.063-1.060-0.491s0.063-0.902 0.491-1.059c0.428-0.157 0.902 0.063 1.059 0.491s-0.063 0.902-0.491 1.059zM12.725 14.936c-0.428 0.157-0.902-0.063-1.059-0.491s0.063-0.903 0.491-1.060 0.902 0.063 1.059 0.491c0.157 0.428-0.063 0.902-0.491 1.059zM22.889 14.092h-1.447v1.447h-1.107v-1.447h-1.447v-1.107h1.447v-1.448h1.107v1.448h1.447v1.107z"></path>
</svg>
