<!-- Generated by IcoMoon.io -->
<svg version="1.1" xmlns="http://www.w3.org/2000/svg" width="40" height="32" viewBox="0 0 40 32">
<title>democrat</title>
<path d="M40.026 15.668l-1.231-1.847c-1.771-2.657-4.729-4.239-7.92-4.239h-14.797l-5.1-5.1c1.262-1.262 1.419-3.209 0.471-4.641-0.214-0.327-0.678-0.371-0.955-0.094l-2.625 2.625-2.694-2.688c-0.226-0.226-0.603-0.188-0.779 0.075-0.772 1.168-0.647 2.763 0.383 3.793 0.207 0.207 0.458 0.333 0.71 0.471-0.138 0.107-0.295 0.195-0.402 0.339l-4.685 6.237c-0.458 0.609-0.527 1.426-0.188 2.104l0.898 1.796c0.339 0.678 1.036 1.112 1.796 1.112h1.947c0.534 0 1.043-0.214 1.419-0.59l2.393-2.173 3.392 6.783h22.108v-4.886c1.017 0.766 1.149 1.105 2.519 3.159 0.308 0.465 0.93 0.584 1.394 0.276l1.671-1.112c0.458-0.314 0.584-0.936 0.276-1.401zM18.603 14.814l-1.036 1.011 0.245 1.426c0.044 0.258-0.226 0.452-0.452 0.333l-1.281-0.672-1.281 0.672c-0.226 0.119-0.496-0.075-0.452-0.333l0.245-1.426-1.036-1.011c-0.188-0.182-0.082-0.496 0.176-0.534l1.432-0.207 0.641-1.3c0.113-0.232 0.446-0.232 0.565 0l0.641 1.3 1.432 0.207c0.251 0.038 0.352 0.352 0.163 0.534zM25.637 14.814l-1.036 1.011 0.245 1.426c0.044 0.258-0.226 0.452-0.452 0.333l-1.281-0.672-1.281 0.672c-0.226 0.119-0.496-0.075-0.452-0.333l0.245-1.426-1.036-1.011c-0.188-0.182-0.082-0.496 0.176-0.534l1.432-0.207 0.641-1.3c0.113-0.232 0.446-0.232 0.565 0l0.641 1.3 1.432 0.207c0.251 0.038 0.352 0.352 0.163 0.534zM32.672 14.814l-1.036 1.011 0.245 1.426c0.044 0.258-0.226 0.452-0.452 0.333l-1.281-0.672-1.281 0.672c-0.226 0.119-0.496-0.075-0.452-0.333l0.245-1.426-1.036-1.011c-0.188-0.182-0.082-0.496 0.176-0.534l1.432-0.207 0.641-1.3c0.113-0.232 0.446-0.232 0.565 0l0.641 1.3 1.432 0.207c0.251 0.038 0.352 0.352 0.163 0.534zM12.059 30.685c0 0.553 0.452 1.005 1.005 1.005h4.020c0.553 0 1.005-0.452 1.005-1.005v-5.024h10.049v5.024c0 0.553 0.452 1.005 1.005 1.005h4.020c0.553 0 1.005-0.452 1.005-1.005v-9.044h-22.108v9.044z"></path>
</svg>
