<!-- Generated by IcoMoon.io -->
<svg version="1.1" xmlns="http://www.w3.org/2000/svg" width="32" height="32" viewBox="0 0 32 32">
<title>demon</title>
<path d="M18.762 18.479h-11.518c-0.292 0-0.529 0.237-0.529 0.529v0.69c0 0.292 0.237 0.529 0.529 0.529h1.74l0.493 0.868c0.162 0.286 0.575 0.286 0.737-0l0.491-0.867h4.855l0.493 0.868c0.162 0.286 0.575 0.286 0.737-0l0.491-0.867h1.483c0.292 0 0.529-0.237 0.529-0.529v-0.69c0-0.292-0.237-0.529-0.529-0.529zM32.016 11.549l-1.692-2.367c-0.299-0.418-0.92-0.418-1.219 0l-1.692 2.367c-0.354 0.496 0 1.185 0.61 1.185h0.406v9.895c0 1.719-1.399 3.117-3.117 3.117-0.835 0-1.649-0.343-2.232-0.941l-0.476-0.488c2.032-2.285 3.268-5.295 3.268-8.593 0-2.942-0.983-5.653-2.636-7.827l0.69-3.482c0.233-1.179-0.907-2.162-2.039-1.758l-3.6 1.287c-1.631-0.742-3.442-1.155-5.351-1.155s-3.72 0.414-5.351 1.155l-3.6-1.287c-1.132-0.405-2.272 0.579-2.039 1.758l0.69 3.482c-1.654 2.173-2.636 4.885-2.636 7.827 0 7.144 5.791 12.936 12.936 12.936 2.919 0 5.612-0.967 7.777-2.598l0.526 0.539c1.064 1.091 2.549 1.717 4.073 1.717 3.137 0 5.689-2.552 5.689-5.689v-9.895h0.406c0.609 0 0.964-0.689 0.61-1.185zM2.572 15.723c0-5.715 4.649-10.364 10.364-10.364s10.364 4.649 10.364 10.364-4.649 10.364-10.364 10.364c-5.715-0-10.364-4.649-10.364-10.364zM8.228 15.723c0.836 0 1.514-1.092 1.514-2.439 0-0.183-0.014-0.361-0.038-0.533l-2.635-1.037c-0.222 0.424-0.356 0.972-0.356 1.57 0 1.347 0.678 2.439 1.514 2.439zM17.643 15.723c0.836 0 1.514-1.092 1.514-2.439 0-0.598-0.134-1.145-0.356-1.57l-2.635 1.037c-0.024 0.172-0.038 0.349-0.038 0.533 0 1.347 0.678 2.439 1.514 2.439z"></path>
</svg>
