<!-- Generated by IcoMoon.io -->
<svg version="1.1" xmlns="http://www.w3.org/2000/svg" width="30" height="32" viewBox="0 0 30 32">
<title>deskpro</title>
<path d="M12.932 31.69l1.953-2.412c0.773-0.012 1.608-0.088 2.292-0.415 2.443-1.168 2.412-3.888 2.405-4.007-0.006-0.314-0.050-0.276-1.815-2.349h4.968c-0.012 3.147-0.458 4.302-0.641 4.754-0.59 1.488-2.757 3.944-5.979 4.359-0.546 0.069-2.060 0.075-3.184 0.069zM25.518 21.157c2.424 0 3.674-0.854 4.629-1.941l-11.022-0.019-1.093 1.966 7.486-0.006zM22.78 7.095v10.57h-4.616l-2.054 3.486h-0.408c-3.285 0-3.649-3.549-3.662-3.699-0.075-0.829-1.338-0.729-1.262 0.113 0.088 0.992 0.553 2.512 1.658 3.586h-5.715c-1.602 0-6.959-1.683-6.72-7.16v-13.397c0-1.005 0.609-1.043 0.942-1.055h5.15c0.013 0 0.019 0.006 0.031 0.006 0.27-0.025 3.147-0.132 3.147 2.745 0 0.835 1.269 0.842 1.269 0 0-1.143-0.345-2.060-0.992-2.745h5.288c6.827-0.025 7.945 4.987 7.945 7.549zM14.458 10.612l4.020 1.84c0.835-2.858-2.65-4.503-4.020-1.84z"></path>
</svg>
