<!-- Generated by IcoMoon.io -->
<svg version="1.1" xmlns="http://www.w3.org/2000/svg" width="36" height="32" viewBox="0 0 36 32">
<title>desktop</title>
<path d="M33.162-0.467h-30.147c-1.664 0-3.015 1.35-3.015 3.015v20.098c0 1.664 1.35 3.015 3.015 3.015h12.059l-1.005 3.015h-4.522c-0.835 0-1.507 0.672-1.507 1.507s0.672 1.507 1.507 1.507h17.083c0.835 0 1.507-0.672 1.507-1.507s-0.672-1.507-1.507-1.507h-4.522l-1.005-3.015h12.059c1.664 0 3.015-1.35 3.015-3.015v-20.098c0-1.664-1.35-3.015-3.015-3.015zM32.157 21.641h-28.137v-18.088h28.137v18.088z"></path>
</svg>
