<!-- Generated by IcoMoon.io -->
<svg version="1.1" xmlns="http://www.w3.org/2000/svg" width="32" height="32" viewBox="0 0 32 32">
<title>details</title>
<path d="M1.464 0.013c-0.802 0-1.454 0.651-1.454 1.454v5.814c0 0.802 0.651 1.454 1.454 1.454h5.814c0.802 0 1.454-0.651 1.454-1.454v-5.814c0-0.802-0.651-1.454-1.454-1.454h-5.814zM4.371 2.921c0.802 0 1.454 0.651 1.454 1.454s-0.651 1.454-1.454 1.454c-0.802 0-1.454-0.651-1.454-1.454s0.651-1.454 1.454-1.454zM13.093 2.921c-0.006-0-0.013-0-0.021-0-0.803 0-1.454 0.651-1.454 1.454s0.651 1.454 1.454 1.454c0.007 0 0.014-0 0.022-0h5.813c0.006 0 0.013 0 0.021 0 0.803 0 1.454-0.651 1.454-1.454s-0.651-1.454-1.454-1.454c-0.007 0-0.014 0-0.022 0h-5.813zM24.722 2.921c-0.006-0-0.013-0-0.021-0-0.803 0-1.454 0.651-1.454 1.454s0.651 1.454 1.454 1.454c0.007 0 0.014-0 0.022-0h5.813c0.006 0 0.013 0 0.021 0 0.803 0 1.454-0.651 1.454-1.454s-0.651-1.454-1.454-1.454c-0.007 0-0.014 0-0.022 0h-5.813zM1.464 11.642c-0.802 0-1.454 0.651-1.454 1.454v5.814c0 0.802 0.651 1.454 1.454 1.454h5.814c0.802 0 1.454-0.651 1.454-1.454v-5.814c0-0.802-0.651-1.454-1.454-1.454h-5.814zM4.371 14.55l2.18 2.907h-4.361l2.18-2.907zM13.093 14.55c-0.006-0-0.013-0-0.021-0-0.803 0-1.454 0.651-1.454 1.454s0.651 1.454 1.454 1.454c0.007 0 0.014-0 0.022-0h5.813c0.006 0 0.013 0 0.021 0 0.803 0 1.454-0.651 1.454-1.454s-0.651-1.454-1.454-1.454c-0.007 0-0.014 0-0.022 0h-5.813zM24.722 14.55c-0.006-0-0.013-0-0.021-0-0.803 0-1.454 0.651-1.454 1.454s0.651 1.454 1.454 1.454c0.007 0 0.014-0 0.022-0h5.813c0.006 0 0.013 0 0.021 0 0.803 0 1.454-0.651 1.454-1.454s-0.651-1.454-1.454-1.454c-0.007 0-0.014 0-0.022 0h-5.813zM1.464 23.271c-0.802 0-1.454 0.651-1.454 1.454v5.814c0 0.802 0.651 1.454 1.454 1.454h5.814c0.802 0 1.454-0.651 1.454-1.454v-5.814c0-0.802-0.651-1.454-1.454-1.454h-5.814zM2.918 26.178h2.907v2.907h-2.907v-2.907zM13.093 26.178c-0.006-0-0.013-0-0.021-0-0.803 0-1.454 0.651-1.454 1.454s0.651 1.454 1.454 1.454c0.007 0 0.014-0 0.022-0h5.813c0.006 0 0.013 0 0.021 0 0.803 0 1.454-0.651 1.454-1.454s-0.651-1.454-1.454-1.454c-0.007 0-0.014 0-0.022 0h-5.813zM24.722 26.178c-0.006-0-0.013-0-0.021-0-0.803 0-1.454 0.651-1.454 1.454s0.651 1.454 1.454 1.454c0.007 0 0.014-0 0.022-0h5.813c0.006 0 0.013 0 0.021 0 0.803 0 1.454-0.651 1.454-1.454s-0.651-1.454-1.454-1.454c-0.007 0-0.014 0-0.022 0h-5.813z"></path>
</svg>
