<!-- Generated by IcoMoon.io -->
<svg version="1.1" xmlns="http://www.w3.org/2000/svg" width="32" height="32" viewBox="0 0 32 32">
<title>device</title>
<path d="M29.792 12.999l-2.533-7.237c-0.69-1.972-2.559-3.297-4.649-3.297h-13.221c-2.090 0-3.958 1.326-4.647 3.296l-2.533 7.237c-1.353 0.89-2.209 2.427-2.209 4.118v8.734c0 1.36 1.102 2.462 2.462 2.462s2.462-1.102 2.462-2.462v-1.552c0 0 6.5 0.321 11.077 0.321s11.077-0.321 11.077-0.321v1.552c0 1.36 1.102 2.462 2.462 2.462s2.462-1.102 2.462-2.462v-8.734c0-1.691-0.858-3.228-2.208-4.117zM5.655 10.604l1.41-4.030c0.346-0.987 1.278-1.648 2.324-1.648h13.221c1.046 0 1.978 0.661 2.324 1.648l1.41 4.030c0.222 0.634-0.306 1.273-0.97 1.166-2.414-0.39-5.516-0.689-9.375-0.689s-6.961 0.299-9.375 0.689c-0.663 0.107-1.191-0.532-0.97-1.166zM5.538 19.695c-1.019 0-1.846-0.827-1.846-1.846s0.827-1.846 1.846-1.846 1.846 0.827 1.846 1.846-0.827 1.846-1.846 1.846zM19.692 18.465h-7.385c-0.679 0-1.231-0.551-1.231-1.231s0.551-1.231 1.231-1.231h7.385c0.679 0 1.231 0.551 1.231 1.231s-0.551 1.231-1.231 1.231zM26.462 19.695c-1.019 0-1.846-0.827-1.846-1.846s0.827-1.846 1.846-1.846 1.846 0.827 1.846 1.846-0.827 1.846-1.846 1.846z"></path>
</svg>
