<!-- Generated by IcoMoon.io -->
<svg version="1.1" xmlns="http://www.w3.org/2000/svg" width="32" height="32" viewBox="0 0 32 32">
<title>dharmachakra</title>
<path d="M31.089 13.668l-1.082 0.068c-0.331-2.48-1.306-4.751-2.755-6.647l0.813-0.718c0.435-0.384 0.455-1.055 0.046-1.464l-1.329-1.329c-0.41-0.41-1.081-0.389-1.464 0.046l-0.718 0.813c-1.897-1.448-4.167-2.423-6.647-2.755l0.067-1.081c0.036-0.578-0.423-1.068-1.003-1.068h-1.88c-0.58 0-1.039 0.489-1.003 1.068l0.068 1.082c-2.48 0.331-4.751 1.306-6.647 2.755l-0.718-0.813c-0.384-0.435-1.055-0.455-1.464-0.046l-1.33 1.329c-0.41 0.41-0.389 1.081 0.046 1.464l0.813 0.718c-1.448 1.897-2.423 4.167-2.755 6.647l-1.082-0.068c-0.578-0.036-1.068 0.423-1.068 1.003v1.88c0 0.58 0.489 1.039 1.068 1.003l1.082-0.068c0.331 2.48 1.306 4.751 2.755 6.647l-0.813 0.718c-0.435 0.384-0.455 1.055-0.046 1.464l1.33 1.33c0.41 0.41 1.081 0.389 1.464-0.046l0.718-0.813c1.897 1.448 4.167 2.423 6.647 2.755l-0.068 1.082c-0.036 0.578 0.423 1.068 1.003 1.068h1.88c0.58 0 1.039-0.489 1.003-1.068l-0.068-1.082c2.48-0.331 4.751-1.306 6.647-2.755l0.718 0.813c0.384 0.435 1.055 0.455 1.464 0.046l1.33-1.33c0.41-0.41 0.389-1.081-0.046-1.464l-0.813-0.718c1.448-1.897 2.423-4.167 2.755-6.647l1.082 0.068c0.578 0.036 1.068-0.423 1.068-1.003v-1.88c-0.001-0.58-0.49-1.039-1.068-1.003zM17.701 5.726c1.558 0.256 2.991 0.858 4.222 1.745l-2.677 3.033c-0.548-0.342-1.151-0.599-1.797-0.75l0.252-4.027zM14.455 5.726l0.252 4.027c-0.646 0.151-1.249 0.41-1.797 0.75l-2.677-3.033c1.231-0.887 2.664-1.489 4.222-1.745zM7.938 9.767l3.034 2.676c-0.342 0.548-0.599 1.151-0.751 1.797l-4.027-0.252c0.256-1.558 0.858-2.991 1.745-4.222zM6.193 17.234l4.027-0.252c0.151 0.646 0.41 1.249 0.75 1.797l-3.033 2.677c-0.887-1.231-1.489-2.664-1.745-4.222zM14.455 25.496c-1.558-0.256-2.991-0.858-4.222-1.745l2.676-3.034c0.548 0.342 1.151 0.599 1.797 0.751l-0.251 4.027zM16.078 17.621c-1.11 0-2.010-0.9-2.010-2.010s0.9-2.010 2.010-2.010 2.010 0.9 2.010 2.010-0.9 2.010-2.010 2.010zM17.701 25.496l-0.252-4.027c0.646-0.151 1.249-0.41 1.797-0.751l2.676 3.034c-1.231 0.887-2.664 1.489-4.222 1.745zM24.219 21.456l-3.033-2.677c0.342-0.548 0.599-1.151 0.75-1.797l4.027 0.252c-0.256 1.559-0.858 2.992-1.745 4.222zM21.936 14.24c-0.151-0.646-0.41-1.249-0.751-1.797l3.034-2.676c0.887 1.231 1.489 2.664 1.745 4.222l-4.027 0.251z"></path>
</svg>
