<!-- Generated by IcoMoon.io -->
<svg version="1.1" xmlns="http://www.w3.org/2000/svg" width="40" height="32" viewBox="0 0 40 32">
<title>dhl</title>
<path d="M14.948 18.45h3.687l1.401-1.897h-3.687l-1.401 1.897zM0 17.301v0.402h5.138l0.295-0.402h-5.433zM10.859 16.553c-0.546 0-0.377-0.226-0.289-0.345 0.176-0.239 0.477-0.653 0.653-0.886s0.176-0.371-0.176-0.371h-3.203l-2.581 3.505h6.287c2.079 0 3.235-1.413 3.592-1.903h-4.283zM30.8 16.12l2.468-3.354h-3.907l-2.468 3.354h3.907zM5.985 16.553h-5.985v0.402h5.69l0.295-0.402zM12.957 14.883c-0.176 0.239-0.471 0.653-0.647 0.892-0.088 0.126-0.258 0.345 0.289 0.345h2.864s0.458-0.628 0.848-1.156c0.527-0.716 0.044-2.198-1.834-2.198h-7.405l-1.281 1.746h6.997c0.352 0 0.345 0.138 0.17 0.371zM0 18.45h4.591l0.295-0.402h-4.886v0.402zM20.286 18.45h3.687l1.401-1.897h-3.687c-0.006 0-1.401 1.897-1.401 1.897zM34.229 18.456h5.967v-0.402h-5.671l-0.295 0.402zM35.63 16.553l-0.295 0.402h4.861v-0.402h-4.566zM34.782 17.703h5.414v-0.402h-5.119l-0.295 0.402zM24.469 12.766l-1.413 1.922h-1.645l1.413-1.922h-3.687l-2.468 3.354h9.019l2.468-3.354h-3.687zM26.573 16.553s-0.27 0.371-0.402 0.546c-0.465 0.628-0.057 1.357 1.457 1.357h5.923l1.401-1.903h-8.378z"></path>
</svg>
