<!-- Generated by IcoMoon.io -->
<svg version="1.1" xmlns="http://www.w3.org/2000/svg" width="40" height="32" viewBox="0 0 40 32">
<title>diagnoses</title>
<path d="M31.152 15.611c0.553 0 1.005-0.452 1.005-1.005s-0.452-1.005-1.005-1.005-1.005 0.452-1.005 1.005 0.452 1.005 1.005 1.005zM20.098 10.587c3.046 0 5.527-2.481 5.527-5.527s-2.481-5.527-5.527-5.527-5.527 2.481-5.527 5.527 2.481 5.527 5.527 5.527zM3.756 22.394c0.641 0.961 1.84 1.118 2.694 0.615 1.018-0.603 3.53-1.991 6.613-3.052v5.703h14.069v-5.697c3.084 1.055 5.596 2.449 6.613 3.052 0.854 0.503 2.054 0.333 2.694-0.615l1.118-1.677c0.553-0.829 0.477-2.173-0.628-2.833-0.747-0.446-1.865-1.068-3.209-1.721-1.765 2.895-6.243 1.118-5.508-2.205-2.506-0.791-5.282-1.369-8.115-1.369-3.58 0-7.091 0.911-10.049 2.022-0.012 2.525-2.99 3.976-4.974 2.261-0.703 0.377-1.338 0.729-1.803 1.005-1.105 0.66-1.181 1.997-0.628 2.833l1.112 1.677zM23.113 21.138c0.835 0 1.507 0.672 1.507 1.507s-0.672 1.507-1.507 1.507-1.507-0.672-1.507-1.507 0.672-1.507 1.507-1.507zM17.083 15.109c0.835 0 1.507 0.672 1.507 1.507s-0.672 1.507-1.507 1.507-1.507-0.672-1.507-1.507 0.672-1.507 1.507-1.507zM7.034 15.611c0.553 0 1.005-0.452 1.005-1.005s-0.452-1.005-1.005-1.005-1.005 0.452-1.005 1.005 0.452 1.005 1.005 1.005zM39.191 27.67h-38.186c-0.553 0-1.005 0.452-1.005 1.005v2.010c0 0.553 0.452 1.005 1.005 1.005h38.186c0.553 0 1.005-0.452 1.005-1.005v-2.010c0-0.553-0.452-1.005-1.005-1.005z"></path>
</svg>
