<!-- Generated by IcoMoon.io -->
<svg version="1.1" xmlns="http://www.w3.org/2000/svg" width="29" height="32" viewBox="0 0 29 32">
<title>diaspora</title>
<path d="M14.232 21.81c-0.088 0-5.527 7.53-5.571 7.53s-5.439-3.8-5.458-3.844c-0.019-0.050 5.439-7.895 5.439-8.002 0-0.138-8.14-2.763-8.642-2.958-0.082-0.031 1.972-6.394 1.991-6.412 0.038-0.044 9.069 2.952 9.138 2.952 0.025 0 0.057-0.038 0.063-0.082 0.025-0.126 0.063-9.333 0.107-9.396 0.050-0.075 6.563-0.044 6.601-0.019 0.094 0.063 0.22 9.804 0.383 9.804 0.088 0 8.711-2.952 8.749-2.908 0.050 0.057 2.003 6.419 1.978 6.444-0.057 0.057-8.805 2.958-8.831 3.065-0.019 0.088 5.2 7.669 5.181 7.719-0.012 0.044-5.37 3.988-5.42 3.988-0.063-0.012-5.59-7.882-5.709-7.882z"></path>
</svg>
