<!-- Generated by IcoMoon.io -->
<svg version="1.1" xmlns="http://www.w3.org/2000/svg" width="40" height="32" viewBox="0 0 40 32">
<title>dice</title>
<path d="M37.181 11.592h-7.458c0.797 1.858 0.447 4.095-1.068 5.61l-8.558 8.558v2.915c0 1.665 1.35 3.015 3.015 3.015h14.069c1.665 0 3.015-1.35 3.015-3.015v-14.069c0-1.665-1.35-3.015-3.015-3.015zM30.147 23.148c-0.832 0-1.507-0.675-1.507-1.507s0.675-1.507 1.507-1.507 1.507 0.675 1.507 1.507c0 0.832-0.675 1.507-1.507 1.507zM27.235 11.422l-10.987-10.987c-1.203-1.203-3.155-1.203-4.358 0l-10.987 10.987c-1.203 1.203-1.203 3.155 0 4.358l10.987 10.987c1.203 1.203 3.155 1.203 4.358 0l10.987-10.987c1.203-1.204 1.203-3.155 0-4.359zM6.029 15.109c-0.832 0-1.507-0.675-1.507-1.507s0.675-1.507 1.507-1.507 1.507 0.675 1.507 1.507c0 0.832-0.675 1.507-1.507 1.507zM14.069 23.148c-0.832 0-1.507-0.675-1.507-1.507s0.675-1.507 1.507-1.507 1.507 0.675 1.507 1.507c0 0.832-0.675 1.507-1.507 1.507zM14.069 15.109c-0.832 0-1.507-0.675-1.507-1.507s0.675-1.507 1.507-1.507 1.507 0.675 1.507 1.507c0 0.832-0.675 1.507-1.507 1.507zM14.069 7.070c-0.832 0-1.507-0.675-1.507-1.507s0.675-1.507 1.507-1.507 1.507 0.675 1.507 1.507c0 0.832-0.675 1.507-1.507 1.507zM22.108 15.109c-0.832 0-1.507-0.675-1.507-1.507s0.675-1.507 1.507-1.507 1.507 0.675 1.507 1.507c0 0.832-0.675 1.507-1.507 1.507z"></path>
</svg>
