<!-- Generated by IcoMoon.io -->
<svg version="1.1" xmlns="http://www.w3.org/2000/svg" width="30" height="32" viewBox="0 0 30 32">
<title>dice-d20</title>
<path d="M6.705 13.040l-6.629 9.791c-0.193 0.314 0.006 0.722 0.372 0.762l13.080 1.386-6.823-11.939zM0.465 19.344l4.729-7.684-4.813-2.888c-0.168-0.1-0.381 0.020-0.381 0.215v10.225c0 0.253 0.332 0.347 0.465 0.131zM1.146 26.138l12.21 5.506c0.333 0.154 0.713-0.090 0.713-0.456v-4.125l-12.784-1.401c-0.28-0.031-0.391 0.351-0.138 0.475zM6.247 9.947l5.020-8.977c0.273-0.443-0.225-0.958-0.677-0.7l-9.472 6.193c-0.155 0.102-0.15 0.33 0.008 0.426l5.121 3.058zM15.073 10.587h6.859l-6.003-10.575c-0.197-0.319-0.526-0.479-0.856-0.479s-0.66 0.16-0.856 0.479l-6.003 10.575h6.859zM29.766 8.772l-4.813 2.888 4.729 7.684c0.133 0.216 0.465 0.122 0.465-0.132v-10.225c0-0.195-0.213-0.316-0.381-0.215zM23.9 9.947l5.121-3.059c0.159-0.095 0.163-0.324 0.008-0.426l-9.472-6.193c-0.452-0.258-0.95 0.256-0.677 0.7l5.020 8.977zM28.863 25.662l-12.784 1.4v4.125c0 0.367 0.38 0.61 0.713 0.456l12.209-5.506c0.253-0.124 0.141-0.506-0.138-0.475zM23.442 13.040l-6.823 11.939 13.080-1.386c0.366-0.041 0.566-0.448 0.372-0.762l-6.63-9.791zM15.073 12.597h-6.308l6.308 11.038 6.308-11.038h-6.308z"></path>
</svg>
