<!-- Generated by IcoMoon.io -->
<svg version="1.1" xmlns="http://www.w3.org/2000/svg" width="28" height="32" viewBox="0 0 28 32">
<title>dice-d6</title>
<path d="M26.516 6.439l-10.425-6.336c-1.25-0.76-2.796-0.76-4.047 0l-10.424 6.336c-0.334 0.203-0.332 0.708 0.004 0.908l12.444 7.42 12.444-7.42c0.336-0.2 0.338-0.705 0.003-0.908zM27.385 9.242l-12.312 7.341v14.057c0 0.809 0.841 1.313 1.51 0.906l9.557-5.808c1.236-0.751 1.997-2.132 1.997-3.624v-12.417c0-0.403-0.417-0.655-0.752-0.455zM0 9.697v12.417c0 1.493 0.761 2.873 1.997 3.624l9.557 5.808c0.67 0.407 1.51-0.097 1.51-0.906v-14.057l-12.312-7.341c-0.335-0.2-0.752 0.053-0.752 0.455z"></path>
</svg>
