<!-- Generated by IcoMoon.io -->
<svg version="1.1" xmlns="http://www.w3.org/2000/svg" width="32" height="32" viewBox="0 0 32 32">
<title>digital-ocean</title>
<path d="M16.078 31.187v-6.036c6.394 0 11.355-6.337 8.9-13.064-0.898-2.487-2.895-4.484-5.389-5.383-6.727-2.437-13.070 2.506-13.070 8.9h-6.017c0-10.187 9.854-18.132 20.538-14.797 4.66 1.463 8.391 5.175 9.835 9.835 3.341 10.696-4.585 20.544-14.797 20.544zM16.097 19.166h-6.004v6.004h6.004v-6.004zM10.093 25.17h-4.629v4.622h4.629v-4.622zM5.464 21.302h-3.869v3.869h3.869v-3.869z"></path>
</svg>
