<!-- Generated by IcoMoon.io -->
<svg version="1.1" xmlns="http://www.w3.org/2000/svg" width="40" height="32" viewBox="0 0 40 32">
<title>digital-tachograph</title>
<path d="M38.186 5.562h-36.176c-1.11 0-2.010 0.9-2.010 2.010v16.078c0 1.11 0.9 2.010 2.010 2.010h36.176c1.11 0 2.010-0.9 2.010-2.010v-16.078c0-1.11-0.9-2.010-2.010-2.010zM19.093 21.641c0 0.278-0.225 0.503-0.503 0.503h-14.069c-0.278 0-0.502-0.225-0.502-0.503v-0.503c0-0.278 0.225-0.503 0.502-0.503h14.069c0.278 0 0.503 0.225 0.503 0.503v0.503zM4.522 17.621v-1.005c0-0.278 0.225-0.503 0.503-0.503h1.005c0.278 0 0.503 0.225 0.503 0.503v1.005c0 0.278-0.225 0.503-0.502 0.503h-1.005c-0.278 0-0.503-0.225-0.503-0.503zM8.542 17.621v-1.005c0-0.278 0.225-0.503 0.502-0.503h1.005c0.278 0 0.502 0.225 0.502 0.503v1.005c0 0.278-0.225 0.503-0.502 0.503h-1.005c-0.278 0-0.502-0.225-0.502-0.503zM12.561 17.621v-1.005c0-0.278 0.225-0.503 0.502-0.503h1.005c0.278 0 0.502 0.225 0.502 0.503v1.005c0 0.278-0.225 0.503-0.502 0.503h-1.005c-0.278 0-0.502-0.225-0.502-0.503zM16.581 17.621v-1.005c0-0.278 0.225-0.503 0.503-0.503h1.005c0.278 0 0.503 0.225 0.503 0.503v1.005c0 0.278-0.225 0.503-0.503 0.503h-1.005c-0.278 0-0.503-0.225-0.503-0.503zM19.093 13.602c0 0.555-0.45 1.005-1.005 1.005h-13.064c-0.555 0-1.005-0.45-1.005-1.005v-3.015c0-0.555 0.45-1.005 1.005-1.005h13.064c0.555 0 1.005 0.45 1.005 1.005v3.015zM36.176 21.641c0 0.278-0.225 0.503-0.502 0.503h-14.069c-0.278 0-0.503-0.225-0.503-0.503v-0.503c0-0.278 0.225-0.503 0.503-0.503h14.069c0.278 0 0.502 0.225 0.502 0.503v0.503z"></path>
</svg>
