<!-- Generated by IcoMoon.io -->
<svg version="1.1" xmlns="http://www.w3.org/2000/svg" width="32" height="32" viewBox="0 0 32 32">
<title>directions</title>
<path d="M31.567 14.187l-14.064-14.064c-0.786-0.786-2.062-0.786-2.849 0l-14.064 14.064c-0.786 0.787-0.786 2.062 0 2.849l14.064 14.064c0.786 0.787 2.062 0.787 2.849 0l14.064-14.064c0.786-0.787 0.786-2.062 0-2.849zM25.225 14.976l-5.289 4.882c-0.322 0.297-0.843 0.069-0.843-0.369v-3.375h-6.029v4.020c0 0.278-0.225 0.503-0.502 0.503h-2.010c-0.278 0-0.502-0.225-0.502-0.503v-5.024c0-1.11 0.9-2.010 2.010-2.010h7.034v-3.375c0-0.438 0.521-0.666 0.843-0.369l5.289 4.882c0.215 0.199 0.215 0.54 0 0.739z"></path>
</svg>
