<!-- Generated by IcoMoon.io -->
<svg version="1.1" xmlns="http://www.w3.org/2000/svg" width="28" height="32" viewBox="0 0 28 32">
<title>discourse</title>
<path d="M14.188 1.543c-7.7 0-14.188 6.186-14.188 13.824 0 0.245 0.006 14.314 0.006 14.314l14.182-0.012c7.706 0 13.949-6.425 13.949-14.062s-6.243-14.062-13.949-14.062zM14.069 23.651c-1.218 0-2.38-0.27-3.417-0.76l-5.094 1.262 1.438-4.71c-0.615-1.137-0.967-2.443-0.967-3.831 0-4.44 3.599-8.039 8.039-8.039s8.039 3.599 8.039 8.039-3.599 8.039-8.039 8.039z"></path>
</svg>
