<!-- Generated by IcoMoon.io -->
<svg version="1.1" xmlns="http://www.w3.org/2000/svg" width="28" height="32" viewBox="0 0 28 32">
<title>discord</title>
<path d="M18.667 14.807c0 0.981-0.724 1.785-1.64 1.785-0.9 0-1.64-0.804-1.64-1.785s0.724-1.785 1.64-1.785c0.917 0 1.64 0.804 1.64 1.785zM11.158 13.023c-0.917 0-1.64 0.804-1.64 1.785s0.74 1.785 1.64 1.785c0.917 0 1.64-0.804 1.64-1.785 0.016-0.981-0.724-1.785-1.64-1.785zM28.137 2.845v28.845c-4.051-3.58-2.755-2.395-7.46-6.769l0.852 2.975h-18.233c-1.817 0-3.296-1.479-3.296-3.312v-21.738c0-1.833 1.479-3.312 3.296-3.312h21.545c1.817 0 3.296 1.479 3.296 3.312zM23.555 18.087c0-5.177-2.315-9.374-2.315-9.374-2.315-1.736-4.518-1.688-4.518-1.688l-0.225 0.257c2.733 0.836 4.004 2.042 4.004 2.042-3.819-2.093-8.306-2.094-12.011-0.466-0.595 0.273-0.949 0.466-0.949 0.466s1.335-1.27 4.229-2.106l-0.161-0.193s-2.203-0.048-4.518 1.688c0 0-2.315 4.196-2.315 9.374 0 0 1.351 2.331 4.904 2.444 0 0 0.595-0.724 1.077-1.335-2.042-0.611-2.814-1.897-2.814-1.897 0.236 0.166 0.627 0.38 0.659 0.402 2.714 1.52 6.569 2.018 10.033 0.563 0.563-0.209 1.19-0.515 1.849-0.949 0 0-0.804 1.318-2.91 1.913 0.482 0.611 1.061 1.302 1.061 1.302 3.553-0.113 4.92-2.444 4.92-2.444z"></path>
</svg>
