<!-- Generated by IcoMoon.io -->
<svg version="1.1" xmlns="http://www.w3.org/2000/svg" width="28" height="32" viewBox="0 0 28 32">
<title>divide</title>
<path d="M14.069 21.641c-2.22 0-4.020 1.799-4.020 4.020s1.799 4.020 4.020 4.020 4.020-1.799 4.020-4.020-1.799-4.020-4.020-4.020zM14.069 9.582c2.22 0 4.020-1.799 4.020-4.020s-1.799-4.020-4.020-4.020-4.020 1.799-4.020 4.020 1.799 4.020 4.020 4.020zM26.127 12.597h-24.118c-1.11 0-2.010 0.9-2.010 2.010v2.010c0 1.11 0.9 2.010 2.010 2.010h24.118c1.11 0 2.010-0.9 2.010-2.010v-2.010c0-1.11-0.9-2.010-2.010-2.010z"></path>
</svg>
