<!-- Generated by IcoMoon.io -->
<svg version="1.1" xmlns="http://www.w3.org/2000/svg" width="31" height="32" viewBox="0 0 31 32">
<title>dizzy1</title>
<path d="M15.576 0.035c-8.604 0-15.576 6.971-15.576 15.576s6.971 15.576 15.576 15.576 15.576-6.971 15.576-15.576-6.971-15.576-15.576-15.576zM9.546 13.011l-1.803 1.803c-0.93 0.93-2.374-0.471-1.419-1.419l1.803-1.803-1.803-1.803c-0.942-0.942 0.484-2.362 1.419-1.419l1.803 1.803 1.803-1.803c0.942-0.942 2.362 0.484 1.419 1.419l-1.803 1.803 1.803 1.803c0.955 0.955-0.496 2.349-1.419 1.419l-1.803-1.803zM15.576 25.66c-2.217 0-4.020-1.802-4.020-4.020s1.803-4.020 4.020-4.020 4.020 1.802 4.020 4.020-1.802 4.020-4.020 4.020zM24.827 13.394c0.955 0.955-0.496 2.349-1.419 1.419l-1.802-1.803-1.802 1.803c-0.93 0.93-2.374-0.471-1.419-1.419l1.802-1.803-1.802-1.803c-0.942-0.942 0.484-2.362 1.419-1.419l1.802 1.803 1.802-1.803c0.942-0.942 2.362 0.484 1.419 1.419l-1.802 1.803 1.802 1.803z"></path>
</svg>
