<!-- Generated by IcoMoon.io -->
<svg version="1.1" xmlns="http://www.w3.org/2000/svg" width="31" height="32" viewBox="0 0 31 32">
<title>dizzy</title>
<path d="M15.576 0.035c-8.604 0-15.576 6.971-15.576 15.576s6.971 15.576 15.576 15.576 15.576-6.971 15.576-15.576-6.971-15.576-15.576-15.576zM15.576 28.173c-6.928 0-12.561-5.634-12.561-12.561s5.634-12.561 12.561-12.561 12.561 5.634 12.561 12.561-5.634 12.561-12.561 12.561zM13.453 14.487c0.49-0.49 0.49-1.287 0-1.777l-1.124-1.118 1.124-1.124c0.49-0.49 0.49-1.287 0-1.777s-1.287-0.49-1.777 0l-1.124 1.124-1.118-1.118c-0.49-0.49-1.287-0.49-1.777 0s-0.49 1.287 0 1.777l1.124 1.124-1.124 1.124c-0.49 0.49-0.49 1.287 0 1.777s1.288 0.49 1.777 0l1.118-1.118 1.118 1.118c0.496 0.484 1.287 0.484 1.784-0.012zM23.502 8.696c-0.49-0.49-1.288-0.49-1.777 0l-1.124 1.118-1.118-1.118c-0.49-0.49-1.288-0.49-1.777 0s-0.49 1.287 0 1.777l1.124 1.124-1.124 1.124c-0.49 0.49-0.49 1.287 0 1.777s1.288 0.49 1.777 0l1.118-1.118 1.118 1.118c0.49 0.49 1.288 0.49 1.777 0s0.49-1.287 0-1.777l-1.118-1.13 1.124-1.124c0.484-0.49 0.484-1.281 0-1.771zM15.576 16.616c-2.217 0-4.020 1.802-4.020 4.020s1.803 4.020 4.020 4.020 4.020-1.802 4.020-4.020-1.802-4.020-4.020-4.020z"></path>
</svg>
