<!-- Generated by IcoMoon.io -->
<svg version="1.1" xmlns="http://www.w3.org/2000/svg" width="32" height="32" viewBox="0 0 32 32">
<title>dll-file-format-variant</title>
<path d="M10.009 23.473c-0.386 0-0.636 0.034-0.782 0.068v5.005c0.147 0.034 0.386 0.034 0.601 0.034 1.566 0.011 2.587-0.851 2.587-2.678 0.012-1.589-0.919-2.429-2.406-2.429zM27.737 7.239c-0.002-0.148-0.049-0.293-0.15-0.408l-6.2-7.082c-0.001-0.002-0.003-0.003-0.005-0.004-0.037-0.041-0.079-0.075-0.125-0.105-0.013-0.009-0.027-0.017-0.041-0.025-0.040-0.021-0.081-0.039-0.124-0.052-0.012-0.003-0.022-0.008-0.034-0.011-0.047-0.011-0.095-0.018-0.145-0.018h-15.238c-0.695 0-1.261 0.566-1.261 1.261v29.635c0 0.696 0.566 1.261 1.261 1.261h20.807c0.696 0 1.261-0.566 1.261-1.261v-23.119c-0-0.024-0.004-0.047-0.006-0.071zM12.983 28.943c-0.806 0.669-2.031 0.987-3.529 0.987-0.897 0-1.532-0.057-1.963-0.113v-7.513c0.636-0.102 1.464-0.159 2.338-0.159 1.452 0 2.394 0.261 3.132 0.817 0.794 0.59 1.294 1.532 1.294 2.883-0 1.464-0.534 2.474-1.271 3.098zM20.167 29.851h-4.778v-7.648h1.736v6.196h3.041v1.453h0zM25.966 29.851h-4.778v-7.648h1.736v6.196h3.041v1.453zM5.675 20.945v-20.151h14.607v6.452c0 0.348 0.282 0.631 0.631 0.631h5.569l0.001 13.068h-20.808zM17.615 13.837c0.081-0.032 0.145-0.095 0.177-0.17s0.030-0.165-0.002-0.239c-0.099-0.226-0.048-0.493 0.125-0.667l0.461-0.461c0.116-0.115 0.266-0.178 0.422-0.178h0.108l0.124 0.047c0.096 0.042 0.177 0.038 0.25 0.008 0.077-0.032 0.14-0.096 0.17-0.173 0.087-0.219 0.288-0.359 0.518-0.375v-0.43c0-0.045-0.029-0.087-0.071-0.104-0.455-0.178-0.823-0.538-1.010-0.989s-0.182-0.968 0.015-1.415c0.018-0.040 0.008-0.091-0.023-0.123l-0.974-0.973c-0.054-0.054-0.093-0.037-0.124-0.024-0.443 0.196-0.962 0.203-1.413 0.015-0.451-0.186-0.811-0.555-0.99-1.010-0.016-0.041-0.057-0.070-0.103-0.070h-1.377c-0.046 0-0.088 0.029-0.104 0.070-0.178 0.455-0.538 0.825-0.989 1.010-0.45 0.188-0.968 0.183-1.415-0.015-0.028-0.011-0.068-0.030-0.123 0.024l-0.974 0.973c-0.032 0.032-0.041 0.083-0.022 0.124 0.196 0.447 0.201 0.962 0.015 1.414s-0.555 0.811-1.011 0.989c-0.042 0.017-0.070 0.057-0.070 0.104v1.377c0 0.046 0.028 0.086 0.070 0.103 0.456 0.178 0.823 0.538 1.011 0.989 0.187 0.452 0.181 0.968-0.016 1.415-0.018 0.041-0.008 0.091 0.023 0.123l0.974 0.974c0.055 0.054 0.093 0.036 0.124 0.022 0.229-0.1 0.473-0.151 0.724-0.151 0.239 0 0.47 0.046 0.69 0.137 0.452 0.187 0.812 0.555 0.99 1.010 0.017 0.041 0.058 0.070 0.104 0.070h1.377c0.046 0 0.087-0.028 0.103-0.070 0.178-0.455 0.538-0.823 0.99-1.010 0.44-0.182 0.939-0.18 1.376-0.001 0.006-0.058 0.021-0.116 0.045-0.171 0.035-0.078 0.036-0.168 0.004-0.245-0.031-0.074-0.096-0.138-0.172-0.168-0.233-0.094-0.381-0.312-0.381-0.558v-0.652c-0-0.248 0.147-0.466 0.377-0.558zM14.585 14.566c-1.476 0-2.677-1.201-2.677-2.678s1.201-2.679 2.677-2.679c1.478 0 2.679 1.203 2.679 2.679s-1.202 2.678-2.679 2.678zM22.441 13.877c-0.088-0.214-0.086-0.458 0.007-0.67 0.008-0.019 0.004-0.043-0.011-0.058l-0.461-0.461c-0.026-0.026-0.045-0.017-0.059-0.011-0.21 0.093-0.456 0.097-0.669 0.007-0.215-0.088-0.385-0.263-0.469-0.479-0.008-0.020-0.027-0.033-0.049-0.033h-0.652c-0.021 0-0.042 0.013-0.049 0.033-0.084 0.216-0.255 0.391-0.468 0.479-0.213 0.089-0.459 0.086-0.671-0.007-0.013-0.005-0.033-0.014-0.059 0.011l-0.462 0.461c-0.015 0.015-0.019 0.039-0.011 0.059 0.094 0.212 0.096 0.455 0.007 0.67s-0.263 0.384-0.478 0.468c-0.020 0.008-0.034 0.027-0.034 0.050v0.652c0 0.021 0.014 0.040 0.034 0.049 0.216 0.084 0.39 0.255 0.478 0.469s0.087 0.459-0.007 0.671c-0.008 0.019-0.004 0.043 0.011 0.058l0.462 0.462c0.026 0.026 0.045 0.017 0.059 0.010 0.109-0.047 0.224-0.072 0.343-0.072 0.112 0 0.223 0.022 0.326 0.065 0.214 0.089 0.386 0.263 0.469 0.479 0.007 0.020 0.028 0.033 0.049 0.033h0.652c0.022 0 0.041-0.013 0.049-0.033 0.084-0.216 0.255-0.39 0.469-0.479s0.459-0.086 0.67 0.007c0.014 0.007 0.033 0.014 0.059-0.010l0.461-0.462c0.015-0.015 0.020-0.038 0.011-0.058-0.093-0.212-0.095-0.457-0.007-0.671s0.263-0.384 0.479-0.469c0.019-0.008 0.033-0.027 0.033-0.049v-0.652c0-0.021-0.013-0.042-0.033-0.050-0.216-0.085-0.391-0.255-0.479-0.469zM20.403 15.989c-0.7 0-1.268-0.569-1.268-1.269s0.568-1.269 1.268-1.269c0.7 0 1.269 0.57 1.269 1.269 0 0.7-0.569 1.269-1.269 1.269z"></path>
</svg>
