<!-- Generated by IcoMoon.io -->
<svg version="1.1" xmlns="http://www.w3.org/2000/svg" width="32" height="32" viewBox="0 0 32 32">
<title>dm-file-format</title>
<path d="M14.334 24.062c-0.335 0-0.551 0.030-0.679 0.059v4.347c0.128 0.030 0.335 0.030 0.522 0.030 1.36 0.010 2.247-0.739 2.247-2.326 0.010-1.38-0.798-2.11-2.090-2.11zM27.737 7.239c-0.002-0.147-0.049-0.293-0.15-0.408l-6.2-7.082c-0.001-0.002-0.003-0.003-0.005-0.004-0.037-0.041-0.079-0.075-0.125-0.105-0.013-0.009-0.027-0.017-0.041-0.025-0.040-0.021-0.081-0.039-0.124-0.052-0.012-0.003-0.022-0.008-0.034-0.011-0.047-0.011-0.095-0.018-0.145-0.018h-15.238c-0.695 0-1.261 0.566-1.261 1.261v29.635c0 0.695 0.566 1.261 1.261 1.261h20.807c0.696 0 1.261-0.566 1.261-1.261v-23.119c0-0.024-0.004-0.047-0.006-0.071zM8.286 29.857c-0.864 0-1.595-0.227-1.986-0.474l0.319-1.174c0.278 0.144 0.915 0.412 1.554 0.412 0.813 0 1.224-0.391 1.224-0.895 0-0.659-0.659-0.957-1.348-0.957h-0.638v-1.122h0.607c0.525-0.010 1.194-0.205 1.194-0.772 0-0.402-0.329-0.7-0.988-0.7-0.545 0-1.121 0.236-1.399 0.401l-0.319-1.132c0.401-0.257 1.204-0.505 2.069-0.505 1.43 0 2.223 0.751 2.223 1.667 0 0.71-0.401 1.266-1.225 1.554v0.021c0.803 0.144 1.451 0.751 1.451 1.626-0.001 1.184-1.040 2.049-2.738 2.049zM16.917 28.813c-0.7 0.582-1.765 0.858-3.066 0.858-0.779 0-1.331-0.050-1.706-0.099v-6.526c0.552-0.088 1.272-0.138 2.030-0.138 1.262 0 2.080 0.227 2.721 0.709 0.69 0.513 1.123 1.331 1.123 2.504 0 1.272-0.462 2.149-1.103 2.691zM24.723 29.602l-0.099-2.543c-0.030-0.798-0.059-1.765-0.059-2.731h-0.029c-0.207 0.848-0.483 1.794-0.74 2.572l-0.808 2.593h-1.173l-0.709-2.572c-0.217-0.779-0.443-1.725-0.602-2.593h-0.020c-0.039 0.897-0.069 1.922-0.118 2.751l-0.118 2.523h-1.389l0.423-6.643h2.001l0.65 2.217c0.207 0.769 0.414 1.597 0.562 2.376h0.029c0.188-0.769 0.414-1.646 0.631-2.385l0.71-2.208h1.962l0.365 6.643-1.469-0zM5.675 20.945v-20.151h14.607v6.452c0 0.348 0.282 0.631 0.631 0.631h5.569l0.001 13.068h-20.808zM22.84 13.38c-1.031 0.184-1.845 1.246-2.927 0.528 0.446-0.721 0.829-1.338 1.305-2.106-0.39 0-0.52-0.027-0.634 0.004-2.478 0.687-2.555 0.675-3.746-1.522-0.344-0.634-0.69-0.836-1.308-0.387-0.213 0.155-0.461 0.26-0.693 0.388 1.481-1.603 1.521-1.785 0.593-3.698-0.244-0.503-0.534-0.999-0.886-1.431-0.483-0.591-1.045-1.118-1.783-1.892-0.229 1.249-0.257 2.197-0.588 3.026-0.534 1.338-1.234 2.615-1.948 3.87-0.114 0.2-0.668 0.149-1.019 0.214-0.022-0.328-0.128-0.678-0.046-0.978 0.094-0.338 0.366-0.624 0.544-0.941 0.885-1.575 1.286-3.251 1.056-5.060-0.099-0.776-0.515-1.132-1.297-0.94-0.865 0.212-1.725 0.449-2.583 0.688-0.54 0.151-0.569 0.419-0.379 0.962 0.322 0.92 0.606 1.896 0.649 2.86 0.076 1.772-0.075 1.858-1.853 2.034 0 0.614-0.060 1.248 0.029 1.86 0.036 0.247 0.374 0.605 0.616 0.643 1.852 0.293 3.221 1.337 4.369 2.722 0.509 0.614 0.935 1.297 1.501 2.093 0.064-0.356 0.154-0.55 0.119-0.718-0.183-0.866-0.319-1.754-0.623-2.577-0.297-0.802-0.162-1.254 0.667-1.509 0.565-0.174 1.113-0.407 1.668-0.614-0.367 0.216-0.786 0.377-1.090 0.66-0.527 0.491-0.373 1.176 0.281 1.425 0.243 0.093 0.51 0.121 0.765 0.179-0.059 0.079-0.118 0.158-0.177 0.237 0.476 0.421 0.953 0.84 1.428 1.261 0.848 0.752 1.047-0.71 1.733-0.508-0.221 0.385-0.501 0.748-0.65 1.159-0.211 0.578-0.304 1.199-1.172 0.974-1.308-0.339-1.793-0.833-1.746-1.741 0.021-0.425-0.058-0.855-0.091-1.282-0.288 0.502-0.281 0.973-0.402 1.408-0.257 0.919 0.064 1.434 0.879 1.932 1.521 0.93 2.944 2.017 4.412 3.034 0.303 0.209 0.621 0.398 0.932 0.597 0.082-0.062 0.165-0.126 0.247-0.189-0.128-0.334-0.328-0.66-0.367-1.004-0.045-0.396 0.025-0.815 0.112-1.21 0.016-0.073 0.451-0.17 0.512-0.099 0.262 0.3 0.47 0.652 0.663 1.004 0.048 0.088-0.036 0.248-0.046 0.299-0.289-0.151-0.571-0.297-1.058-0.55 0.594 1.358 0.996 1.445 1.672 0.573 0.238-0.307 0.354-0.705 0.552-1.046 0.325-0.56 0.55-1.27 1.032-1.629 1.141-0.852 0.847-1.907 0.776-3.005zM14.878 14.265l-0.799-0.746c1.283 0.921 1.656 0.746 1.656 0.746-0.345 0.373-0.857 0-0.857 0z"></path>
</svg>
