<!-- Generated by IcoMoon.io -->
<svg version="1.1" xmlns="http://www.w3.org/2000/svg" width="32" height="32" viewBox="0 0 32 32">
<title>dmg-file-format-symbol</title>
<path d="M27.737 7.239c-0.002-0.148-0.049-0.293-0.15-0.408l-6.2-7.082c-0.001-0.002-0.003-0.003-0.005-0.004-0.037-0.041-0.079-0.075-0.125-0.105-0.013-0.009-0.027-0.017-0.041-0.025-0.040-0.021-0.081-0.039-0.124-0.052-0.012-0.003-0.022-0.008-0.034-0.011-0.047-0.011-0.095-0.018-0.145-0.018h-15.238c-0.695 0-1.261 0.566-1.261 1.261v29.635c0 0.696 0.566 1.261 1.261 1.261h20.807c0.696 0 1.261-0.566 1.261-1.261v-23.119c-0-0.024-0.004-0.047-0.006-0.071zM10.608 28.624c-0.683 0.568-1.722 0.837-2.992 0.837-0.76 0-1.299-0.048-1.664-0.096v-6.368c0.538-0.087 1.241-0.135 1.982-0.135 1.231 0 2.030 0.221 2.655 0.692 0.674 0.5 1.097 1.299 1.097 2.443-0 1.242-0.452 2.098-1.078 2.627zM18.228 29.394l-0.096-2.481c-0.029-0.78-0.058-1.723-0.058-2.666h-0.029c-0.202 0.828-0.471 1.751-0.721 2.512l-0.789 2.53h-1.145l-0.693-2.511c-0.212-0.76-0.433-1.683-0.587-2.53h-0.019c-0.038 0.876-0.067 1.876-0.116 2.685l-0.115 2.463h-1.356l0.414-6.484h1.952l0.636 2.164c0.202 0.751 0.404 1.559 0.548 2.319h0.029c0.183-0.75 0.404-1.607 0.616-2.328l0.693-2.155h1.914l0.356 6.484h-1.434zM26.205 29.095c-0.452 0.154-1.308 0.365-2.164 0.365-1.183 0-2.039-0.298-2.636-0.876-0.596-0.558-0.923-1.404-0.913-2.356 0.009-2.155 1.577-3.387 3.703-3.387 0.837 0 1.481 0.164 1.799 0.317l-0.308 1.174c-0.356-0.154-0.799-0.279-1.51-0.279-1.222 0-2.145 0.692-2.145 2.097 0 1.337 0.837 2.126 2.039 2.126 0.337 0 0.606-0.038 0.722-0.096v-1.356h-1.001v-1.145h2.414v3.415zM5.675 20.945v-20.151h14.607v6.452c0 0.348 0.282 0.631 0.631 0.631h5.569l0.001 13.068h-20.808zM8.088 23.987c-0.327 0-0.539 0.029-0.664 0.058v4.242c0.125 0.029 0.327 0.029 0.51 0.029 1.327 0.009 2.193-0.721 2.193-2.271 0.010-1.347-0.779-2.059-2.040-2.059zM23.733 13.507l-1.033-6.587c-0.007-0.048-0.048-0.083-0.097-0.083h-13.573c-0.049 0-0.090 0.035-0.097 0.083l-1.034 6.595c-0.007 0.014-0.012 0.031-0.012 0.048v4.18c0 0.054 0.044 0.098 0.099 0.098h15.672c0.054 0 0.098-0.044 0.098-0.098v-4.179c-0.001-0.021-0.009-0.041-0.023-0.057zM16.029 8.205c2.334 0 4.226 0.977 4.226 2.181s-1.892 2.181-4.226 2.181c-2.334 0-4.226-0.976-4.226-2.181s1.892-2.181 4.226-2.181zM23.036 17.122h-14.431v-2.938h14.431v2.938zM21.084 16.209h1.241c0.054 0 0.098-0.044 0.098-0.098v-1.241c0-0.054-0.044-0.098-0.098-0.098h-1.241c-0.054 0-0.098 0.044-0.098 0.098v1.241c0 0.055 0.044 0.098 0.098 0.098zM9.853 16.209h1.241c0.054 0 0.098-0.044 0.098-0.098v-1.241c0-0.054-0.044-0.098-0.098-0.098h-1.241c-0.054 0-0.099 0.044-0.099 0.098v1.241c0 0.055 0.044 0.098 0.099 0.098zM11.9 16.209h1.24c0.054 0 0.098-0.044 0.098-0.098v-1.241c0-0.054-0.044-0.098-0.098-0.098h-1.24c-0.054 0-0.098 0.044-0.098 0.098v1.241c0 0.055 0.044 0.098 0.098 0.098zM14.076 16.209h1.242c0.054 0 0.098-0.044 0.098-0.098v-1.241c0-0.054-0.044-0.098-0.098-0.098h-1.242c-0.054 0-0.098 0.044-0.098 0.098v1.241c0 0.055 0.044 0.098 0.098 0.098zM16.013 8.566c1.901 0 3.442 0.792 3.442 1.768s-1.541 1.768-3.442 1.768c-1.901 0-3.442-0.792-3.442-1.768s1.541-1.768 3.442-1.768z"></path>
</svg>
