<!-- Generated by IcoMoon.io -->
<svg version="1.1" xmlns="http://www.w3.org/2000/svg" width="32" height="32" viewBox="0 0 32 32">
<title>dmp-file-format-symbol</title>
<path d="M22.914 24.25c-0.285 0-0.478 0.027-0.579 0.055v1.831c0.119 0.028 0.267 0.037 0.469 0.037 0.745 0 1.205-0.377 1.205-1.012 0-0.57-0.396-0.91-1.095-0.91zM8.801 24.268c-0.313 0-0.515 0.027-0.635 0.055v4.056c0.12 0.027 0.313 0.027 0.488 0.027 1.269 0.009 2.097-0.69 2.097-2.171 0.009-1.287-0.745-1.968-1.95-1.968zM27.737 7.239c-0.002-0.148-0.049-0.293-0.15-0.408l-6.2-7.082c-0.001-0.002-0.003-0.002-0.005-0.004-0.037-0.041-0.079-0.075-0.125-0.105-0.013-0.009-0.027-0.017-0.041-0.025-0.040-0.021-0.081-0.039-0.124-0.052-0.012-0.004-0.022-0.008-0.034-0.011-0.047-0.011-0.095-0.018-0.145-0.018h-15.238c-0.695 0-1.261 0.566-1.261 1.261v29.635c0 0.696 0.566 1.261 1.261 1.261h20.807c0.696 0 1.261-0.566 1.261-1.261v-23.119c-0-0.024-0.004-0.047-0.006-0.070zM11.212 28.701c-0.653 0.543-1.647 0.8-2.861 0.8-0.727 0-1.242-0.046-1.591-0.092v-6.089c0.515-0.083 1.187-0.129 1.895-0.129 1.177 0 1.941 0.212 2.539 0.663 0.644 0.478 1.049 1.242 1.049 2.336-0 1.186-0.433 2.005-1.030 2.511zM18.497 29.437l-0.092-2.373c-0.027-0.745-0.055-1.647-0.055-2.548h-0.027c-0.193 0.791-0.451 1.674-0.69 2.401l-0.755 2.419h-1.095l-0.662-2.4c-0.203-0.727-0.414-1.61-0.561-2.419h-0.019c-0.037 0.837-0.064 1.794-0.111 2.567l-0.11 2.355h-1.297l0.395-6.199h1.867l0.607 2.069c0.193 0.717 0.387 1.491 0.524 2.217h0.028c0.175-0.718 0.386-1.536 0.589-2.226l0.662-2.060h1.83l0.341 6.199-1.37-0.001zM24.827 26.595c-0.478 0.451-1.187 0.653-2.015 0.653-0.184 0-0.349-0.009-0.478-0.028v2.217h-1.389v-6.117c0.432-0.073 1.039-0.129 1.895-0.129 0.865 0 1.481 0.166 1.895 0.497 0.395 0.313 0.663 0.828 0.663 1.435s-0.202 1.122-0.57 1.471zM5.675 20.945v-20.151h14.607v6.452c0 0.348 0.282 0.631 0.631 0.631h5.569l0.001 13.068h-20.808zM22.266 11.038h-0.849v-5.928h-12.881v10.18h4.397v0.935h-1.247v0.9h5.82v2.254h6.114v-7.038l-1.355-1.304zM22.41 11.651l0.66 0.635h-0.66v-0.635zM9.644 14.182v-7.964h10.665v4.819h-2.802v3.145l-7.863-0zM16.638 16.225v-0.935h0.868v0.935h-0.868zM23.279 19.039h-5.431v-7.659h4.22v1.248h1.211v6.411h0zM18.443 13.517h3.704v0.315h-3.704v-0.315zM18.443 15.146h3.704v0.315h-3.704v-0.315zM18.443 16.867h3.704v0.315h-3.704v-0.315z"></path>
</svg>
