<!-- Generated by IcoMoon.io -->
<svg version="1.1" xmlns="http://www.w3.org/2000/svg" width="28" height="32" viewBox="0 0 28 32">
<title>dna</title>
<path d="M0.006 30.565c-0.069 0.597 0.396 1.118 0.999 1.118l2.029 0.006c0.509 0 0.936-0.371 1.005-0.873 0.044-0.308 0.113-0.697 0.214-1.137h19.614c0.1 0.433 0.182 0.829 0.22 1.137 0.069 0.503 0.496 0.879 1.005 0.873l2.029-0.006c0.603 0 1.074-0.521 0.999-1.118-0.289-2.38-1.608-8.102-7.468-13.045-1.105 0.779-2.33 1.52-3.674 2.223 0.389 0.289 0.716 0.59 1.068 0.892h-8.014c1.338-1.137 2.952-2.236 4.943-3.228 10.809-5.37 12.794-13.742 13.158-16.75 0.069-0.597-0.396-1.118-0.999-1.118l-2.035-0.006c-0.509 0-0.936 0.371-1.005 0.873-0.044 0.308-0.113 0.697-0.214 1.137h-19.621c-0.1-0.44-0.17-0.823-0.214-1.137-0.069-0.502-0.496-0.879-1.005-0.873l-2.029 0.006c-0.603 0-1.074 0.521-1.005 1.118 0.327 2.694 1.966 9.666 10.043 14.954-8.071 5.288-9.716 12.26-10.043 14.954zM14.069 13.325c-1.576-0.86-2.914-1.784-4.038-2.738h8.071c-1.118 0.955-2.456 1.884-4.032 2.738zM22.302 5.562c-0.364 0.653-0.804 1.325-1.319 2.010h-13.824c-0.521-0.685-0.961-1.357-1.319-2.010h16.461zM5.835 25.66c0.364-0.653 0.804-1.325 1.319-2.010h13.78c0.521 0.685 0.967 1.357 1.331 2.010h-16.43z"></path>
</svg>
