<!-- Generated by IcoMoon.io -->
<svg version="1.1" xmlns="http://www.w3.org/2000/svg" width="32" height="32" viewBox="0 0 32 32">
<title>doc-file-format-symbol</title>
<path d="M16.405 23.678c-1.085 0-1.717 1.033-1.717 2.412 0 1.391 0.653 2.371 1.728 2.371 1.086 0 1.707-1.033 1.707-2.412 0-1.275-0.611-2.371-1.717-2.371zM8.323 23.699c-0.358 0-0.59 0.031-0.727 0.063v4.646c0.137 0.032 0.358 0.032 0.558 0.032 1.454 0.010 2.402-0.791 2.402-2.486 0.011-1.475-0.853-2.255-2.233-2.255zM27.737 7.239c-0.002-0.148-0.049-0.293-0.15-0.408l-6.2-7.082c-0.001-0.002-0.003-0.003-0.005-0.004-0.037-0.041-0.079-0.075-0.125-0.105-0.013-0.009-0.027-0.017-0.041-0.025-0.040-0.021-0.081-0.039-0.124-0.052-0.012-0.003-0.022-0.008-0.034-0.011-0.047-0.011-0.095-0.018-0.145-0.018h-15.238c-0.695 0-1.261 0.566-1.261 1.261v29.635c0 0.696 0.566 1.261 1.261 1.261h20.807c0.696 0 1.261-0.566 1.261-1.261v-23.119c-0-0.024-0.004-0.047-0.006-0.071zM11.084 28.777c-0.748 0.622-1.886 0.917-3.277 0.917-0.833 0-1.422-0.053-1.823-0.105v-6.975c0.59-0.095 1.359-0.148 2.171-0.148 1.348 0 2.223 0.243 2.908 0.759 0.738 0.548 1.201 1.422 1.201 2.676-0 1.359-0.495 2.297-1.18 2.876zM16.331 29.736c-2.107 0-3.34-1.591-3.34-3.614 0-2.128 1.359-3.719 3.456-3.719 2.181 0 3.372 1.633 3.372 3.593 0 2.329-1.412 3.741-3.488 3.741zM24.508 28.399c0.485 0 1.022-0.106 1.338-0.232l0.243 1.254c-0.295 0.148-0.959 0.306-1.823 0.306-2.455 0-3.719-1.528-3.719-3.551 0-2.423 1.728-3.772 3.877-3.772 0.833 0 1.465 0.168 1.749 0.316l-0.327 1.275c-0.326-0.137-0.78-0.264-1.348-0.264-1.275 0-2.266 0.769-2.266 2.35 0 1.422 0.843 2.318 2.276 2.318zM5.675 20.945v-20.151h14.607v6.452c0 0.348 0.282 0.631 0.631 0.631h5.569l0.001 13.068h-20.808zM14.48 8.238h4.588c0.23 0 0.418-0.187 0.418-0.418s-0.187-0.418-0.418-0.418h-4.588c-0.231 0-0.417 0.187-0.417 0.418s0.186 0.418 0.417 0.418zM21.313 10.744h-11.415c-0.231 0-0.418 0.187-0.418 0.418s0.187 0.418 0.418 0.418h11.415c0.231 0 0.418-0.187 0.418-0.418s-0.187-0.418-0.418-0.418zM11.091 9.074l0.387-1.573c0.099-0.382 0.164-0.704 0.224-1.061h0.010c0.039 0.362 0.099 0.68 0.183 1.061l0.348 1.573h0.655l0.897-3.343h-0.62l-0.347 1.513c-0.089 0.407-0.169 0.788-0.228 1.156h-0.010c-0.049-0.362-0.119-0.734-0.203-1.131l-0.332-1.537h-0.64l-0.362 1.513c-0.095 0.421-0.19 0.819-0.244 1.171h-0.009c-0.055-0.332-0.134-0.759-0.219-1.166l-0.318-1.518h-0.65l0.819 3.343 0.66-0zM21.313 14.061h-11.415c-0.231 0-0.418 0.187-0.418 0.418s0.187 0.418 0.418 0.418h11.415c0.231 0 0.418-0.187 0.418-0.418s-0.187-0.418-0.418-0.418zM21.313 17.458h-11.415c-0.231 0-0.418 0.187-0.418 0.418s0.187 0.418 0.418 0.418h11.415c0.231 0 0.418-0.187 0.418-0.418s-0.187-0.418-0.418-0.418z"></path>
</svg>
