<!-- Generated by IcoMoon.io -->
<svg version="1.1" xmlns="http://www.w3.org/2000/svg" width="40" height="32" viewBox="0 0 40 32">
<title>docker</title>
<path d="M21.976 14.374h-4.151v-3.731h4.151v3.731zM21.976 1.543h-4.151v3.812h4.151v-3.812zM26.887 10.637h-4.151v3.731h4.151v-3.731zM17.071 6.109h-4.151v3.775h4.151v-3.775zM21.976 6.109h-4.151v3.775h4.151v-3.775zM39.361 12.389c-0.904-0.609-2.99-0.829-4.591-0.527-0.207-1.507-1.049-2.82-2.581-4.001l-0.879-0.584-0.584 0.879c-1.156 1.746-1.47 4.623-0.232 6.519-0.546 0.295-1.62 0.697-3.040 0.672h-27.302c-0.546 3.191 0.364 7.336 2.763 10.181 2.33 2.757 5.822 4.158 10.388 4.158 9.886 0 17.203-4.553 20.626-12.825 1.344 0.025 4.246 0.006 5.734-2.839 0.094-0.157 0.415-0.829 0.534-1.074l-0.835-0.559zM7.26 10.637h-4.145v3.731h4.151v-3.731zM12.166 10.637h-4.151v3.731h4.151v-3.731zM17.071 10.637h-4.151v3.731h4.151v-3.731zM12.166 6.109h-4.151v3.775h4.151v-3.775z"></path>
</svg>
