<!-- Generated by IcoMoon.io -->
<svg version="1.1" xmlns="http://www.w3.org/2000/svg" width="32" height="32" viewBox="0 0 32 32">
<title>docx-file-format</title>
<path d="M27.737 7.239c-0.002-0.147-0.049-0.293-0.151-0.408l-6.2-7.082c-0.002-0.002-0.004-0.003-0.005-0.004-0.037-0.042-0.080-0.075-0.126-0.105-0.013-0.009-0.027-0.017-0.041-0.025-0.039-0.022-0.081-0.039-0.124-0.052-0.012-0.003-0.022-0.008-0.034-0.011-0.047-0.011-0.095-0.018-0.145-0.018h-15.237c-0.695 0-1.261 0.566-1.261 1.261v29.635c0 0.695 0.566 1.261 1.261 1.261h20.807c0.695 0 1.261-0.566 1.261-1.261v-23.119c0-0.024-0.004-0.047-0.006-0.071zM9.727 27.965c-0.577 0.48-1.454 0.707-2.527 0.707-0.641 0-1.097-0.041-1.405-0.081v-5.379c0.455-0.073 1.048-0.113 1.674-0.113 1.040 0 1.714 0.187 2.242 0.585 0.569 0.422 0.927 1.097 0.927 2.063 0 1.048-0.382 1.771-0.91 2.218zM13.773 28.705c-1.625 0-2.576-1.227-2.576-2.787 0-1.641 1.048-2.868 2.665-2.868 1.682 0 2.6 1.26 2.6 2.771 0 1.796-1.088 2.885-2.689 2.885zM20.079 27.673c0.374 0 0.788-0.081 1.032-0.179l0.187 0.967c-0.227 0.113-0.739 0.236-1.405 0.236-1.894 0-2.868-1.178-2.868-2.738 0-1.869 1.333-2.909 2.99-2.909 0.642 0 1.129 0.13 1.348 0.244l-0.252 0.983c-0.252-0.106-0.601-0.203-1.040-0.203-0.983 0-1.747 0.593-1.747 1.812 0.001 1.097 0.651 1.788 1.755 1.788zM25.019 28.615l-0.496-0.991c-0.203-0.382-0.333-0.666-0.488-0.984h-0.016c-0.114 0.317-0.252 0.602-0.422 0.984l-0.455 0.991h-1.414l1.584-2.771-1.527-2.705h1.422l0.479 1c0.163 0.333 0.284 0.601 0.414 0.909h0.016c0.13-0.349 0.236-0.593 0.374-0.909l0.463-1h1.414l-1.543 2.673 1.625 2.804-1.43-0zM5.675 20.944v-20.15h14.607v6.452c0 0.348 0.283 0.631 0.631 0.631h5.57v13.068h-20.807zM7.598 24.049c-0.276 0-0.455 0.025-0.561 0.049v3.583c0.106 0.024 0.276 0.024 0.431 0.024 1.121 0.008 1.852-0.609 1.852-1.917 0.008-1.137-0.658-1.739-1.722-1.739zM13.83 24.033c-0.837 0-1.324 0.796-1.324 1.86 0 1.072 0.504 1.828 1.333 1.828 0.837 0 1.316-0.796 1.316-1.86-0-0.983-0.471-1.828-1.325-1.828zM19.962 10.076v-3.581h-12.295v8.722h3.581v3.581h12.295v-8.722h-3.581zM11.249 14.586h-2.951v-7.461h11.034v2.95h-8.083v4.511zM22.913 18.167h-11.034v-7.461h11.034v7.461zM14.093 12.046c0 0.232-0.188 0.42-0.42 0.42s-0.42-0.188-0.42-0.42c0-0.232 0.188-0.42 0.42-0.42s0.42 0.188 0.42 0.42zM14.739 11.888h6.41v0.315h-6.41v-0.315zM14.093 13.57c0 0.232-0.188 0.42-0.42 0.42s-0.42-0.188-0.42-0.42c0-0.232 0.188-0.42 0.42-0.42s0.42 0.188 0.42 0.42zM14.739 13.412h6.41v0.315h-6.41v-0.315zM14.093 15.21c0 0.232-0.188 0.42-0.42 0.42s-0.42-0.188-0.42-0.42c0-0.232 0.188-0.42 0.42-0.42s0.42 0.188 0.42 0.42zM14.739 15.052h6.41v0.315h-6.41v-0.315zM13.673 16.339c0.232 0 0.42 0.188 0.42 0.421s-0.188 0.42-0.42 0.42c-0.232 0-0.42-0.188-0.42-0.42s0.188-0.421 0.42-0.421zM14.739 16.602h6.41v0.315h-6.41v-0.315z"></path>
</svg>
