<!-- Generated by IcoMoon.io -->
<svg version="1.1" xmlns="http://www.w3.org/2000/svg" width="32" height="32" viewBox="0 0 32 32">
<title>dog</title>
<path d="M31.152 5.562h-4.020l-0.45-0.899c-0.337-0.664-1.015-1.111-1.797-1.111h-3.368l-1.713-1.713c-0.634-0.633-1.716-0.185-1.716 0.71v9.411l8.039 2.871v-2.235h2.010c2.22 0 4.020-1.799 4.020-4.020v-2.010c0-0.555-0.45-1.005-1.005-1.005zM24.118 8.577c-0.555 0-1.005-0.45-1.005-1.005s0.45-1.005 1.005-1.005 1.005 0.45 1.005 1.005-0.45 1.005-1.005 1.005zM6.029 13.602c-1.108 0-2.010-0.902-2.010-2.010 0-1.11-0.9-2.010-2.010-2.010s-2.010 0.9-2.010 2.010c0 2.617 1.685 4.827 4.020 5.659v13.434c0 0.555 0.45 1.005 1.005 1.005h4.020c0.555 0 1.005-0.45 1.005-1.005v-7.034h10.049v7.034c0 0.555 0.45 1.005 1.005 1.005h4.020c0.555 0 1.005-0.45 1.005-1.005v-13.72l-9.418-3.363h-10.68z"></path>
</svg>
