<!-- Generated by IcoMoon.io -->
<svg version="1.1" xmlns="http://www.w3.org/2000/svg" width="32" height="32" viewBox="0 0 32 32">
<title>dog1</title>
<path d="M20 0.003v4l-3.333 6.667h-9.466l-2.667-2.667-1.867 1.867 2.667 2.667v4.799l-1.333 2.667-1.333 8h3l1-5.333 2.667-2.667h8.742l3.057 8h2.854l-1.987-6.914v-1.086l2-4v-6.667h1.011c1.061 0 2.079-0.421 2.828-1.172l1.495-1.495v-2c0-0.368-0.299-0.667-0.667-0.667h-2l-0.943-0.943c-0.251-0.251-0.589-0.391-0.943-0.391h-1.448l-1.201-1.599c-0.504-0.672-1.293-1.068-2.133-1.068zM10.438 22.67l-0.523 0.523 1.753 4.81h3l-1.82-5.333h-2.409z"></path>
</svg>
