<!-- Generated by IcoMoon.io -->
<svg version="1.1" xmlns="http://www.w3.org/2000/svg" width="18" height="32" viewBox="0 0 18 32">
<title>dollar-sign</title>
<path d="M13.139 14.192l-6.783-1.985c-0.785-0.226-1.332-0.961-1.332-1.777 0-1.024 0.829-1.853 1.853-1.853h4.164c0.766 0 1.52 0.232 2.148 0.66 0.383 0.258 0.898 0.195 1.225-0.126l2.186-2.135c0.446-0.433 0.383-1.156-0.113-1.539-1.539-1.206-3.461-1.878-5.433-1.884v-3.015c0-0.553-0.452-1.005-1.005-1.005h-2.010c-0.553 0-1.005 0.452-1.005 1.005v3.015h-0.157c-4.001 0-7.216 3.435-6.846 7.512 0.264 2.895 2.475 5.251 5.263 6.067l6.438 1.884c0.785 0.232 1.332 0.961 1.332 1.777 0 1.024-0.829 1.853-1.853 1.853h-4.164c-0.766 0-1.52-0.232-2.148-0.66-0.383-0.258-0.898-0.195-1.225 0.126l-2.186 2.135c-0.446 0.433-0.383 1.156 0.113 1.539 1.539 1.206 3.461 1.878 5.433 1.884v3.015c0 0.553 0.452 1.005 1.005 1.005h2.010c0.553 0 1.005-0.452 1.005-1.005v-3.027c2.927-0.057 5.671-1.796 6.639-4.566 1.35-3.869-0.917-7.838-4.553-8.9z"></path>
</svg>
