<!-- Generated by IcoMoon.io -->
<svg version="1.1" xmlns="http://www.w3.org/2000/svg" width="40" height="32" viewBox="0 0 40 32">
<title>dolly-flatbed</title>
<path d="M13.064 19.631h24.118c0.553 0 1.005-0.452 1.005-1.005v-16.078c0-0.553-0.452-1.005-1.005-1.005h-9.044v8.039l-3.015-2.010-3.015 2.010v-8.039h-9.044c-0.553 0-1.005 0.452-1.005 1.005v16.078c0 0.553 0.452 1.005 1.005 1.005zM39.191 23.651h-31.152v-23.113c0-0.553-0.452-1.005-1.005-1.005h-6.029c-0.553 0-1.005 0.452-1.005 1.005v2.010c0 0.553 0.452 1.005 1.005 1.005h3.015v23.113c0 0.553 0.452 1.005 1.005 1.005h5.207c-0.113 0.314-0.182 0.653-0.182 1.005 0 1.664 1.35 3.015 3.015 3.015s3.015-1.35 3.015-3.015c0-0.352-0.075-0.691-0.182-1.005h12.429c-0.113 0.314-0.182 0.653-0.182 1.005 0 1.664 1.35 3.015 3.015 3.015s3.015-1.35 3.015-3.015c0-0.352-0.075-0.691-0.182-1.005h5.2c0.553 0 1.005-0.452 1.005-1.005v-2.010c0-0.553-0.452-1.005-1.005-1.005z"></path>
</svg>
