<!-- Generated by IcoMoon.io -->
<svg version="1.1" xmlns="http://www.w3.org/2000/svg" width="36" height="32" viewBox="0 0 36 32">
<title>dolly</title>
<path d="M18.478 16.974c1.13 0.314 2.179 0.842 3.109 1.551l10.143-3.379c0.528-0.176 0.81-0.747 0.634-1.269l-3.793-11.38c-0.176-0.527-0.747-0.81-1.269-0.634l-3.837 1.281 2.079 6.243-3.812 1.262-2.079-6.243-3.869 1.287c-0.527 0.176-0.81 0.747-0.634 1.269l3.329 10.011zM36.126 20.033l-0.641-1.909c-0.176-0.527-0.747-0.81-1.269-0.634l-13.409 4.472c-1.080-1.382-2.738-2.286-4.616-2.324l-6.243-18.729c-0.276-0.823-1.043-1.375-1.909-1.375h-7.034c-0.553 0-1.005 0.452-1.005 1.005v2.010c0 0.553 0.452 1.005 1.005 1.005h5.583l5.791 17.378c-1.639 1.281-2.619 3.366-2.261 5.684 0.383 2.475 2.38 4.541 4.855 4.974 3.781 0.672 7.053-2.186 7.122-5.816l13.397-4.472c0.521-0.176 0.81-0.741 0.634-1.269zM16.078 28.675c-1.664 0-3.015-1.35-3.015-3.015s1.35-3.015 3.015-3.015 3.015 1.35 3.015 3.015-1.35 3.015-3.015 3.015z"></path>
</svg>
