<!-- Generated by IcoMoon.io -->
<svg version="1.1" xmlns="http://www.w3.org/2000/svg" width="32" height="32" viewBox="0 0 32 32">
<title>donate</title>
<path d="M16.078 25.66c7.216 0 13.064-5.847 13.064-13.064s-5.847-13.064-13.064-13.064-13.064 5.847-13.064 13.064 5.847 13.064 13.064 13.064zM14.684 5.65v-1.055c0-0.578 0.465-1.043 1.043-1.043h0.697c0.578 0 1.043 0.465 1.043 1.043v1.068c0.973 0.050 1.916 0.383 2.701 0.967 0.352 0.258 0.389 0.772 0.075 1.074l-1.024 0.973c-0.239 0.232-0.597 0.239-0.879 0.063-0.339-0.214-0.716-0.32-1.118-0.32h-2.443c-0.565 0-1.024 0.515-1.024 1.149 0 0.515 0.314 0.973 0.76 1.105l3.913 1.175c1.614 0.484 2.745 2.035 2.745 3.775 0 2.135-1.658 3.863-3.712 3.919v1.055c0 0.578-0.465 1.043-1.043 1.043h-0.697c-0.578 0-1.043-0.465-1.043-1.043v-1.068c-0.973-0.050-1.916-0.383-2.701-0.967-0.352-0.258-0.389-0.773-0.075-1.074l1.024-0.973c0.239-0.232 0.597-0.239 0.879-0.063 0.339 0.214 0.716 0.32 1.118 0.32h2.443c0.565 0 1.024-0.515 1.024-1.149 0-0.515-0.314-0.973-0.76-1.105l-3.913-1.175c-1.614-0.484-2.745-2.035-2.745-3.775 0.006-2.135 1.658-3.863 3.712-3.919zM30.147 21.641h-2.041c-1.231 1.633-2.801 2.996-4.585 4.020h4.007c0.333 0 0.603 0.226 0.603 0.503v1.005c0 0.276-0.27 0.503-0.603 0.503h-22.905c-0.333 0-0.603-0.226-0.603-0.503v-1.005c0-0.276 0.27-0.503 0.603-0.503h4.007c-1.784-1.024-3.348-2.387-4.585-4.020h-2.035c-1.112 0-2.010 0.898-2.010 2.010v6.029c0 1.112 0.898 2.010 2.010 2.010h28.137c1.112 0 2.010-0.898 2.010-2.010v-6.029c0-1.112-0.898-2.010-2.010-2.010z"></path>
</svg>
