<!-- Generated by IcoMoon.io -->
<svg version="1.1" xmlns="http://www.w3.org/2000/svg" width="40" height="32" viewBox="0 0 40 32">
<title>door-closed</title>
<path d="M39.191 27.67h-7.034v-24.947c0-1.76-1.352-3.191-3.015-3.191h-18.089c-1.662 0-3.015 1.431-3.015 3.191v24.947h-7.034c-0.555 0-1.005 0.45-1.005 1.005v2.010c0 0.555 0.45 1.005 1.005 1.005h38.186c0.555 0 1.005-0.45 1.005-1.005v-2.010c0-0.555-0.45-1.005-1.005-1.005zM26.127 17.621c-1.11 0-2.010-0.9-2.010-2.010s0.9-2.010 2.010-2.010 2.010 0.9 2.010 2.010c0.001 1.11-0.899 2.010-2.010 2.010z"></path>
</svg>
