<!-- Generated by IcoMoon.io -->
<svg version="1.1" xmlns="http://www.w3.org/2000/svg" width="40" height="32" viewBox="0 0 40 32">
<title>door-open</title>
<path d="M39.191 27.67h-5.025v-21.012c0-1.712-1.352-3.106-3.015-3.106h-7.034v4.020h6.029v24.118h9.044c0.555 0 1.005-0.45 1.005-1.005v-2.010c0-0.555-0.45-1.005-1.005-1.005zM19.611-0.404l-12.059 3.124c-0.895 0.232-1.522 1.065-1.522 2.020v22.929h-5.024c-0.555 0-1.005 0.45-1.005 1.005v2.010c0 0.555 0.45 1.005 1.005 1.005h21.103v-30.073c0-1.355-1.228-2.35-2.497-2.020zM16.581 17.621c-0.832 0-1.507-0.9-1.507-2.010s0.675-2.010 1.507-2.010 1.507 0.9 1.507 2.010-0.675 2.010-1.507 2.010z"></path>
</svg>
