<!-- Generated by IcoMoon.io -->
<svg version="1.1" xmlns="http://www.w3.org/2000/svg" width="32" height="32" viewBox="0 0 32 32">
<title>door-key</title>
<path d="M31.653 10.092c0-1.362-0.268-2.683-0.792-3.931-0.509-1.202-1.236-2.281-2.162-3.207s-2.005-1.653-3.207-2.162c-1.244-0.528-2.568-0.792-3.93-0.792s-2.683 0.268-3.93 0.792c-1.202 0.509-2.281 1.236-3.207 2.162s-1.653 2.005-2.162 3.207c-0.528 1.244-0.792 2.568-0.792 3.931 0 1.703 0.429 3.372 1.244 4.857l-12.082 12.071c-0.279 0.279-0.367 0.704-0.195 1.106 0.034 0.084 0.092 0.161 0.157 0.226l2.706 2.706c0.065 0.065 0.142 0.119 0.226 0.157 0.402 0.172 0.827 0.088 1.106-0.195l1.672-1.672 2.407 2.407c0.065 0.065 0.142 0.119 0.226 0.157 0.402 0.172 0.827 0.088 1.106-0.195l2.668-2.668c0.065-0.065 0.119-0.142 0.157-0.226 0.172-0.402 0.088-0.827-0.195-1.106l-2.369-2.369 6.399-6.403c1.481 0.815 3.154 1.244 4.857 1.244 1.362 0 2.683-0.268 3.93-0.792 1.202-0.509 2.281-1.236 3.207-2.162s1.653-2.005 2.162-3.207c0.528-1.252 0.796-2.572 0.796-3.934zM25.097 13.632c-0.945 0.945-2.204 1.466-3.54 1.466s-2.595-0.521-3.54-1.466c-0.945-0.945-1.47-2.204-1.47-3.54 0-1.339 0.52-2.595 1.466-3.54s2.204-1.466 3.54-1.466c1.336 0 2.595 0.521 3.54 1.466s1.466 2.204 1.466 3.54c0.008 1.336-0.513 2.595-1.462 3.54z"></path>
</svg>
