<!-- Generated by IcoMoon.io -->
<svg version="1.1" xmlns="http://www.w3.org/2000/svg" width="32" height="32" viewBox="0 0 32 32">
<title>dot-circle</title>
<path d="M16.078 3.050c6.942 0 12.561 5.618 12.561 12.561 0 6.942-5.618 12.561-12.561 12.561-6.942 0-12.561-5.618-12.561-12.561 0-6.942 5.618-12.561 12.561-12.561zM16.078 0.035c-8.602 0-15.576 6.974-15.576 15.576s6.974 15.576 15.576 15.576 15.576-6.974 15.576-15.576-6.974-15.576-15.576-15.576zM16.078 10.587c-2.775 0-5.024 2.249-5.024 5.024s2.249 5.024 5.024 5.024 5.024-2.25 5.024-5.024-2.25-5.024-5.024-5.024z"></path>
</svg>
