<!-- Generated by IcoMoon.io -->
<svg version="1.1" xmlns="http://www.w3.org/2000/svg" width="32" height="32" viewBox="0 0 32 32">
<title>dove</title>
<path d="M18.088 10.034v-1.765c-1.771-2.28-2.958-4.981-3.398-7.863-0.132-0.848-1.193-1.181-1.746-0.521-1.325 1.564-2.368 3.398-3.071 5.433 2.148 2.405 5.024 4.057 8.215 4.717zM25.122 3.553c-2.776 0-5.024 2.255-5.024 5.031v3.731c-6.557-0.389-12.122-4.428-14.634-10.156-0.345-0.785-1.457-0.829-1.821-0.057-1.043 2.205-1.633 4.667-1.633 7.267 0 4.447 2.142 8.598 5.345 11.676 0.829 0.798 1.639 1.457 2.443 2.060l-9.038 2.261c-0.672 0.17-0.973 0.948-0.597 1.532 1.093 1.69 3.793 4.553 9.622 4.792 0.502 0.019 1.005-0.163 1.388-0.496l4.095-3.523h4.83c5.552 0 10.049-4.491 10.049-10.043v-10.055l2.010-4.020h-7.034zM25.122 9.588c-0.553 0-1.005-0.452-1.005-1.005s0.452-1.005 1.005-1.005 1.005 0.452 1.005 1.005-0.452 1.005-1.005 1.005z"></path>
</svg>
