<!-- Generated by IcoMoon.io -->
<svg version="1.1" xmlns="http://www.w3.org/2000/svg" width="32" height="32" viewBox="0 0 32 32">
<title>download</title>
<path d="M13.566-0.467h5.024c0.835 0 1.507 0.672 1.507 1.507v10.551h5.508c1.118 0 1.677 1.35 0.886 2.142l-9.553 9.559c-0.471 0.471-1.244 0.471-1.715 0l-9.565-9.559c-0.791-0.791-0.232-2.142 0.886-2.142h5.514v-10.551c0-0.835 0.672-1.507 1.507-1.507zM32.157 23.148v7.034c0 0.835-0.672 1.507-1.507 1.507h-29.142c-0.835 0-1.507-0.672-1.507-1.507v-7.034c0-0.835 0.672-1.507 1.507-1.507h9.214l3.078 3.078c1.262 1.262 3.297 1.262 4.56 0l3.078-3.078h9.214c0.835 0 1.507 0.672 1.507 1.507zM24.369 28.675c0-0.691-0.565-1.256-1.256-1.256s-1.256 0.565-1.256 1.256 0.565 1.256 1.256 1.256 1.256-0.565 1.256-1.256zM28.388 28.675c0-0.691-0.565-1.256-1.256-1.256s-1.256 0.565-1.256 1.256 0.565 1.256 1.256 1.256 1.256-0.565 1.256-1.256z"></path>
</svg>
