<!-- Generated by IcoMoon.io -->
<svg version="1.1" xmlns="http://www.w3.org/2000/svg" width="30" height="32" viewBox="0 0 30 32">
<title>draft2digital</title>
<path d="M23.232 26.251v-3.417l2.958 1.708-2.958 1.708zM5.175 23.437c1.602-1.715 6.136-6.576 9.477-10.677 2.205-2.707 2.531-5.175 1.784-7.078-0.465-1.181-1.099-1.897-1.526-2.242 2.845 0.132 4.271 1.47 5.163 2.405 0 0 2.663 3.027 0.364 7.116-2.324 4.139-6.965 9.264-8.071 10.47h-7.191zM8.429 9.67c0 0.779-0.628 1.407-1.407 1.407s-1.407-0.628-1.407-1.407c0-0.779 0.628-1.407 1.407-1.407s1.407 0.634 1.407 1.407zM21.103 19.373v4.064h-5.734c1.934-2.198 5.138-6.023 7.022-9.377 2.211-3.932 1.011-7.75-0.804-9.628-0.276-0.289-3.907-3.95-10.426-2.588-3.712 0.779-5.615 2.726-6.551 4.227-0.823 1.313-1.068 2.5-1.143 2.996-0.345 2.073 1.218 4.214 3.561 4.214 1.991 0 3.599-1.614 3.599-3.605 0-1.702-1.237-3.272-3.015-3.567 0.113-0.458 1.112-1.325 1.652-1.551 2.581-1.087 4.899 0.327 5.232 2.104 0.521 2.782-2.33 5.678-4.378 8.014-4.811 5.464-8.969 9.779-10.118 10.978l21.103-0.006v4.032l9.044-5.144-9.044-5.163z"></path>
</svg>
