<!-- Generated by IcoMoon.io -->
<svg version="1.1" xmlns="http://www.w3.org/2000/svg" width="32" height="32" viewBox="0 0 32 32">
<title>drafting-compass</title>
<path d="M28.703 21.165c-1.573 1.277-3.305 2.335-5.184 3.081l3.415 5.916 3.388 1.447c0.616 0.263 1.312-0.139 1.392-0.804l0.441-3.658-3.453-5.981zM31.372 15.226c0.305-0.482 0.119-1.13-0.38-1.406l-1.763-0.978c-0.47-0.261-1.043-0.092-1.335 0.359-2.582 3.99-7.026 6.43-11.815 6.43-1.503 0-2.966-0.267-4.359-0.724l4.231-7.328c0.044 0.001 0.084 0.013 0.128 0.013s0.085-0.012 0.128-0.013l3.209 5.558c1.961-0.563 3.741-1.617 5.188-3.072l-3.253-5.634c0.468-0.856 0.758-1.823 0.758-2.868 0-3.33-2.699-6.029-6.029-6.029s-6.029 2.699-6.029 6.029c0 1.045 0.29 2.012 0.757 2.868l-4.29 7.431c-0.788-0.729-1.505-1.544-2.115-2.449-0.301-0.446-0.877-0.604-1.343-0.335l-1.743 1.009c-0.493 0.285-0.668 0.936-0.354 1.411 0.978 1.485 2.179 2.777 3.516 3.895l-4.477 7.754 0.441 3.658c0.080 0.665 0.776 1.067 1.392 0.804l3.388-1.447 4.447-7.702c2.022 0.769 4.188 1.191 6.41 1.191 6.221 0 11.988-3.204 15.293-8.425zM16.078 3.553c1.11 0 2.010 0.9 2.010 2.010s-0.9 2.010-2.010 2.010-2.010-0.9-2.010-2.010 0.9-2.010 2.010-2.010z"></path>
</svg>
