<!-- Generated by IcoMoon.io -->
<svg version="1.1" xmlns="http://www.w3.org/2000/svg" width="40" height="32" viewBox="0 0 40 32">
<title>dragon</title>
<path d="M1.151 15.598l10.908-1.998-5.733 4.314c-0.633 0.633-0.185 1.715 0.71 1.715h13.987c-0.593-1.658-0.925-3.421-0.925-5.237v-2.655l-7.52-5.502c-1.496-0.997-3.473-0.88-4.84 0.288l-7.373 7.307c-0.777 0.649-0.217 1.911 0.786 1.767zM36.125 17.739l-6.322-3.16c-0.996-0.506-1.666-1.522-1.666-2.696v-2.304h4.020l1.764 1.421c0.377 0.377 0.888 0.588 1.421 0.588h1.945c0.782-0 1.46-0.447 1.792-1.1l0.005-0.011 0.899-1.797c0.134-0.262 0.212-0.571 0.212-0.899 0-0.455-0.151-0.874-0.406-1.211l0.004 0.005-4.681-6.242c-0.38-0.506-0.975-0.801-1.608-0.801h-14.913c-0.448 0-0.672 0.538-0.355 0.855l3.871 3.162-3.742 1.56c-0.371 0.185-0.371 0.713 0 0.899l3.742 1.561v6.822c0 4.527 2.263 8.755 6.029 11.266-12.284 0.428-21.64 2.576-27.264 3.825-0.51 0.113-0.873 0.566-0.873 1.088 0 0.615 0.499 1.118 1.115 1.118h31.345c3.975 0.001 7.512-2.987 7.724-6.956 0.158-2.97-1.428-5.678-4.060-6.994zM30.723 3.694l2.867 0.717c-0.173 0.685-0.783 1.186-1.515 1.147-0.814-0.045-1.624-0.787-1.352-1.863z"></path>
</svg>
