<!-- Generated by IcoMoon.io -->
<svg version="1.1" xmlns="http://www.w3.org/2000/svg" width="32" height="32" viewBox="0 0 32 32">
<title>drag-dot</title>
<path d="M16 0.003c-2.41 0-4.364 1.954-4.364 4.364v0c0 2.41 1.954 4.364 4.364 4.364v0c2.41 0 4.364-1.954 4.364-4.364v0c0-2.41-1.954-4.364-4.364-4.364v0zM16 11.639c-2.41 0-4.364 1.954-4.364 4.364v0c0 2.41 1.954 4.364 4.364 4.364v0c2.41 0 4.364-1.954 4.364-4.364v0c0-2.41-1.954-4.364-4.364-4.364v0zM16 23.276c-2.41 0-4.364 1.954-4.364 4.364v0c0 2.41 1.954 4.364 4.364 4.364v0c2.41 0 4.364-1.954 4.364-4.364v0c0-2.41-1.954-4.364-4.364-4.364v0z"></path>
</svg>
