<!-- Generated by IcoMoon.io -->
<svg version="1.1" xmlns="http://www.w3.org/2000/svg" width="28" height="32" viewBox="0 0 28 32">
<title>draw-polygon</title>
<path d="M24.118 21.641c-0.022 0-0.042 0.006-0.064 0.006l-2.462-4.102c0.318-0.576 0.516-1.228 0.516-1.933s-0.197-1.357-0.516-1.933l2.462-4.102c0.022 0.001 0.042 0.006 0.064 0.006 2.22 0 4.020-1.799 4.020-4.020s-1.799-4.020-4.020-4.020c-1.484 0-2.766 0.813-3.462 2.010h-13.174c-0.696-1.196-1.978-2.010-3.462-2.010-2.22 0-4.020 1.799-4.020 4.020 0 1.484 0.813 2.766 2.010 3.462v13.174c-1.196 0.697-2.010 1.978-2.010 3.462 0 2.22 1.799 4.020 4.020 4.020 1.484 0 2.766-0.813 3.462-2.010h13.174c0.697 1.196 1.978 2.010 3.462 2.010 2.22 0 4.020-1.799 4.020-4.020s-1.799-4.020-4.019-4.020zM6.029 22.198v-13.174c0.605-0.356 1.096-0.847 1.442-1.433l0.010-0.019h13.086l-2.415 4.026c-0.022-0.001-0.042-0.006-0.064-0.006-2.22 0-4.020 1.799-4.020 4.020s1.799 4.020 4.020 4.020c0.022 0 0.042-0.006 0.064-0.006l2.415 4.026h-13.086c-0.356-0.605-0.847-1.096-1.433-1.442l-0.019-0.010zM17.083 15.611c0-0.554 0.451-1.005 1.005-1.005s1.005 0.451 1.005 1.005-0.451 1.005-1.005 1.005-1.005-0.451-1.005-1.005zM25.122 5.562c0 0.554-0.451 1.005-1.005 1.005s-1.005-0.451-1.005-1.005 0.451-1.005 1.005-1.005 1.005 0.451 1.005 1.005zM4.020 4.557c0.554 0 1.005 0.451 1.005 1.005s-0.451 1.005-1.005 1.005-1.005-0.451-1.005-1.005 0.451-1.005 1.005-1.005zM3.015 25.66c0-0.554 0.451-1.005 1.005-1.005s1.005 0.451 1.005 1.005-0.451 1.005-1.005 1.005-1.005-0.451-1.005-1.005zM24.118 26.665c-0.554 0-1.005-0.451-1.005-1.005s0.451-1.005 1.005-1.005 1.005 0.451 1.005 1.005-0.451 1.005-1.005 1.005z"></path>
</svg>
