<!-- Generated by IcoMoon.io -->
<svg version="1.1" xmlns="http://www.w3.org/2000/svg" width="28" height="32" viewBox="0 0 28 32">
<title>dribbble-square</title>
<path d="M5.665 13.865c0.559-2.663 2.349-4.88 4.754-6.011 0.226 0.308 1.759 2.437 3.184 4.962-4.020 1.068-7.556 1.055-7.939 1.049zM19.759 9.205c-2.11-1.872-4.98-2.581-7.7-1.922 0.239 0.32 1.796 2.443 3.203 5.024 3.052-1.149 4.34-2.883 4.497-3.103zM8.799 22.394c2.544 1.985 5.86 2.305 8.623 1.13-0.126-0.754-0.628-3.379-1.834-6.507-3.461 1.181-5.891 3.542-6.789 5.376zM15.004 15.599c-0.214-0.49-0.452-0.973-0.697-1.457-4.283 1.281-8.441 1.231-8.818 1.218 0 0.088-0.006 0.176-0.006 0.264 0 2.205 0.835 4.214 2.205 5.74 1.394-2.38 4.214-4.893 7.317-5.766zM17.196 16.623c1.124 3.084 1.576 5.596 1.664 6.117 1.928-1.3 3.297-3.366 3.68-5.753-0.289-0.094-2.657-0.798-5.345-0.364zM15.921 13.583c0.301 0.615 0.521 1.118 0.754 1.683 2.858-0.358 5.697 0.214 5.979 0.276-0.019-2.029-0.741-3.888-1.941-5.345-0.182 0.245-1.62 2.085-4.792 3.385zM28.137 4.557v22.108c0 1.664-1.35 3.015-3.015 3.015h-22.108c-1.664 0-3.015-1.35-3.015-3.015v-22.108c0-1.664 1.35-3.015 3.015-3.015h22.108c1.664 0 3.015 1.35 3.015 3.015zM24.118 15.611c0-5.54-4.509-10.049-10.049-10.049s-10.049 4.51-10.049 10.049 4.509 10.049 10.049 10.049 10.049-4.509 10.049-10.049z"></path>
</svg>
