<!-- Generated by IcoMoon.io -->
<svg version="1.1" xmlns="http://www.w3.org/2000/svg" width="32" height="32" viewBox="0 0 32 32">
<title>dribbble</title>
<path d="M16.078 0.035c-8.589 0-15.576 6.987-15.576 15.576s6.987 15.576 15.576 15.576 15.576-6.987 15.576-15.576-6.987-15.576-15.576-15.576zM26.377 7.218c1.853 2.264 2.975 5.147 3.004 8.288-0.439-0.093-4.837-0.985-9.264-0.428-0.361-0.882-0.702-1.658-1.169-2.614 4.919-2.008 7.148-4.866 7.429-5.246zM24.898 5.68c-0.239 0.341-2.242 3.033-6.973 4.806-2.18-4.006-4.596-7.296-4.964-7.788 4.219-1.017 8.665 0.080 11.937 2.983zM10.422 3.592c0.351 0.481 2.728 3.776 4.933 7.694-6.223 1.653-11.705 1.629-12.3 1.621 0.863-4.128 3.645-7.56 7.367-9.315zM2.774 15.632c0-0.136 0.003-0.271 0.007-0.407 0.582 0.012 7.029 0.095 13.673-1.893 0.381 0.745 0.745 1.502 1.079 2.258-4.811 1.355-9.182 5.246-11.338 8.938-2.125-2.359-3.42-5.479-3.42-8.896zM7.912 26.127c1.39-2.841 5.161-6.508 10.525-8.338 1.868 4.854 2.64 8.922 2.838 10.089-4.278 1.822-9.422 1.322-13.363-1.751zM23.512 26.66c-0.136-0.809-0.844-4.704-2.585-9.486 4.169-0.667 7.832 0.425 8.287 0.569-0.593 3.702-2.718 6.899-5.703 8.917z"></path>
</svg>
