<!-- Generated by IcoMoon.io -->
<svg version="1.1" xmlns="http://www.w3.org/2000/svg" width="32" height="32" viewBox="0 0 32 32">
<title>driver-license-3</title>
<path d="M3.485 4.694c-1.917 0-3.485 1.568-3.485 3.485v15.334c0 1.917 1.568 3.485 3.485 3.485h25.092c1.917 0 3.485-1.568 3.485-3.485v-15.334c0-1.917-1.568-3.485-3.485-3.485zM3.485 6.088h25.092c1.163 0 2.091 0.928 2.091 2.091v15.334c0 1.163-0.928 2.091-2.091 2.091h-25.092c-1.163 0-2.091-0.928-2.091-2.091v-15.334c0-1.163 0.928-2.091 2.091-2.091zM14.637 6.785c-0.384 0-0.697 0.313-0.697 0.697s0.313 0.697 0.697 0.697c0.384 0 0.697-0.313 0.697-0.697s-0.313-0.697-0.697-0.697zM7.972 8.18c-1.77 0-2.429 1.378-1.917 2.548-0.065 0.041-0.158 0.163-0.131 0.392 0.049 0.427 0.218 0.536 0.327 0.545 0.041 0.4 0.297 0.885 0.436 0.958 0 0.286 0.005 0.493-0.022 0.806-0.329 0.912-2.38 0.659-2.483 2.418h6.97c-0.103-1.759-2.303-1.506-2.636-2.418-0.027-0.313-0.022-0.52-0.022-0.806 0.139-0.073 0.395-0.558 0.436-0.958 0.109-0.008 0.278-0.117 0.327-0.545 0.027-0.229-0.065-0.368-0.152-0.392 0.327-0.427 0.272-2.156-0.958-2.156zM14.637 8.877c-0.384 0-0.697 0.313-0.697 0.697s0.313 0.697 0.697 0.697c0.384 0 0.697-0.313 0.697-0.697s-0.313-0.697-0.697-0.697zM14.637 10.968c-0.384 0-0.697 0.313-0.697 0.697s0.313 0.697 0.697 0.697c0.384 0 0.697-0.313 0.697-0.697s-0.313-0.697-0.697-0.697zM17.992 10.968c-0.384 0.035-0.667 0.378-0.632 0.762s0.378 0.667 0.762 0.632h9.061c0.25 0.003 0.485-0.128 0.613-0.346 0.125-0.218 0.125-0.485 0-0.702-0.128-0.218-0.362-0.348-0.613-0.346h-9.061c-0.022 0-0.044 0-0.065 0s-0.044 0-0.065 0zM14.637 13.059c-0.384 0-0.697 0.313-0.697 0.697s0.313 0.697 0.697 0.697c0.384 0 0.697-0.313 0.697-0.697s-0.313-0.697-0.697-0.697zM17.992 13.756c-0.384 0.035-0.667 0.378-0.632 0.762s0.378 0.667 0.762 0.632h6.97c0.25 0.003 0.485-0.128 0.613-0.346 0.125-0.218 0.125-0.485 0-0.702-0.128-0.218-0.362-0.348-0.613-0.346h-6.97c-0.022 0-0.044 0-0.065 0s-0.044 0-0.065 0zM14.637 15.15c-0.384 0-0.697 0.313-0.697 0.697s0.313 0.697 0.697 0.697c0.384 0 0.697-0.313 0.697-0.697s-0.313-0.697-0.697-0.697zM17.992 16.544c-0.384 0.035-0.667 0.378-0.632 0.762s0.378 0.667 0.762 0.632h9.061c0.25 0.003 0.485-0.128 0.613-0.346 0.125-0.218 0.125-0.485 0-0.702-0.128-0.218-0.362-0.349-0.613-0.346h-9.061c-0.022 0-0.044 0-0.065 0s-0.044 0-0.065 0zM6.077 17.241c-0.596 0-1.141 0.392-1.329 0.958l-0.523 1.612-0.044 0.109v3.245c0 0.193 0.155 0.349 0.348 0.349h0.697c0.193 0 0.348-0.155 0.348-0.349v-0.349h4.182v0.349c0 0.193 0.155 0.349 0.348 0.349h0.697c0.193 0 0.348-0.155 0.348-0.349v-3.245l-0.044-0.109-0.523-1.612c-0.188-0.569-0.732-0.958-1.329-0.958zM14.637 17.241c-0.384 0-0.697 0.313-0.697 0.697s0.313 0.697 0.697 0.697c0.384 0 0.697-0.313 0.697-0.697s-0.313-0.697-0.697-0.697zM6.077 18.635h3.18l0.479 1.394h-4.138zM14.637 19.332c-0.384 0-0.697 0.313-0.697 0.697s0.313 0.697 0.697 0.697c0.384 0 0.697-0.313 0.697-0.697s-0.313-0.697-0.697-0.697zM17.992 19.332c-0.384 0.035-0.667 0.378-0.632 0.762s0.378 0.667 0.762 0.632h6.97c0.25 0.003 0.485-0.128 0.613-0.346 0.125-0.218 0.125-0.485 0-0.702-0.128-0.218-0.362-0.349-0.613-0.346h-6.97c-0.022 0-0.044 0-0.065 0s-0.044 0-0.065 0zM5.576 20.726c0.384 0 0.697 0.313 0.697 0.697s-0.313 0.697-0.697 0.697c-0.384 0-0.697-0.313-0.697-0.697s0.313-0.697 0.697-0.697zM9.758 20.726c0.384 0 0.697 0.313 0.697 0.697s-0.313 0.697-0.697 0.697c-0.384 0-0.697-0.313-0.697-0.697s0.313-0.697 0.697-0.697zM14.637 21.423c-0.384 0-0.697 0.313-0.697 0.697s0.313 0.697 0.697 0.697c0.384 0 0.697-0.313 0.697-0.697s-0.313-0.697-0.697-0.697zM14.637 23.514c-0.384 0-0.697 0.313-0.697 0.697s0.313 0.697 0.697 0.697c0.384 0 0.697-0.313 0.697-0.697s-0.313-0.697-0.697-0.697z"></path>
</svg>
