<!-- Generated by IcoMoon.io -->
<svg version="1.1" xmlns="http://www.w3.org/2000/svg" width="32" height="32" viewBox="0 0 32 32">
<title>driver</title>
<path d="M16.031-0.185c-3.181 0-5.771 2.876-5.771 6.412s2.59 6.412 5.771 6.412c3.184 0 5.771-2.876 5.771-6.412s-2.588-6.412-5.771-6.412zM16.031 13.322c-3.314 0-5.751 0.408-8.156 1.343-0.994 0.386-1.603 1.368-2.304 2.505-0.16 0.258-0.323 0.526-0.501 0.802-0.268 0.411-0.571 0.879-0.902 1.383-1.36 2.074-3.046 4.647-3.627 5.771-0.621 1.205-0.656 2.172-0.12 3.206 0.426 0.827 1.020 1.906 1.763 3.206l0.2 0.341h4.028v-0.641c0-4.604 4.306-8.336 9.619-8.336s9.619 3.732 9.619 8.336v0.641h4.028l0.2-0.341c0.739-1.29 1.33-2.37 1.763-3.206 0.536-1.035 0.501-2.001-0.12-3.206-0.413-0.799-1.408-2.309-2.465-3.928-0.764-1.172-1.556-2.385-2.044-3.206l-0.281-0.461c-0.779-1.328-1.435-2.487-2.545-2.886-2.214-0.797-4.459-1.323-8.156-1.323zM16.031 25.465c-3.89 0-7.054 2.603-7.054 5.771v0.641h14.108v-0.641c0-3.169-3.166-5.771-7.054-5.771z"></path>
</svg>
