<!-- Generated by IcoMoon.io -->
<svg version="1.1" xmlns="http://www.w3.org/2000/svg" width="32" height="32" viewBox="0 0 32 32">
<title>driver-license</title>
<path d="M12.301 13.502c-0.057 0.72-0.428 1.467-0.965 1.949-0.183 0.164-0.262 0.418-0.202 0.659l0.273 1.091c0.060 0.239 0.246 0.426 0.486 0.486l2.393 0.597c0.33 0.081 0.637 0.241 0.914 0.473 0.283 0.236 0.704 0.2 0.942-0.084 0.235-0.283 0.198-0.704-0.084-0.942-0.433-0.362-0.919-0.612-1.447-0.745l-2.005-0.5-0.084-0.337c0.52-0.574 0.89-1.308 1.042-2.069 0.357-0.184 0.617-0.536 0.669-0.957l0.144-1.16c0.044-0.351-0.064-0.708-0.298-0.974-0.072-0.083-0.155-0.155-0.245-0.215l0.035-0.709 0.122-0.123c0.345-0.365 0.811-1.148 0.073-2.274-0.35-0.534-1.070-1.174-2.517-1.174-0.426 0-1.387 0-2.319 0.586-2.749 0.096-3.073 1.578-3.073 2.696 0 0.22 0.040 0.633 0.077 0.978-0.099 0.063-0.188 0.14-0.269 0.23-0.238 0.268-0.347 0.627-0.302 0.979l0.144 1.162c0.055 0.436 0.331 0.796 0.739 0.974 0.15 0.729 0.5 1.434 0.987 1.995l-0.098 0.393-2.005 0.5c-1.623 0.406-2.759 1.86-2.759 3.535 0 0.369 0.299 0.668 0.668 0.668h9.428c0.369 0 0.668-0.299 0.668-0.668s-0.299-0.668-0.668-0.668l-8.66-0.001c0.228-0.763 0.844-1.369 1.649-1.57l2.394-0.597c0.239-0.060 0.426-0.246 0.486-0.486l0.285-1.14c0.059-0.234-0.015-0.482-0.192-0.648-0.52-0.49-0.863-1.205-0.92-1.913-0.028-0.347-0.325-0.538-0.673-0.538l-0.172-1.065c0.192 0 0.374-0.083 0.501-0.226 0.127-0.146 0.186-0.335 0.162-0.526-0.051-0.403-0.132-1.131-0.132-1.368 0-0.691 0-1.344 1.953-1.364 0.136-0.001 0.27-0.044 0.382-0.126 0.636-0.456 1.368-0.456 1.72-0.456 1.026 0 1.305 0.428 1.403 0.57 0.271 0.417 0.16 0.534 0.085 0.614l-0.29 0.29c-0.118 0.118-0.187 0.274-0.195 0.44l-0.072 1.455c-0.008 0.182 0.013 0.307 0.139 0.441 0.124 0.132 0.254 0.158 0.436 0.16l-0.087 1.085c-0.349 0-0.637 0.267-0.665 0.616zM19.371 10.503h4.008c0.369 0 0.668-0.299 0.668-0.668s-0.299-0.668-0.668-0.668h-4.008c-0.369 0-0.668 0.299-0.668 0.668s0.299 0.668 0.668 0.668zM28.723-0.185h-25.383c-1.842 0-3.34 1.498-3.34 3.34v17.367c0 1.842 1.498 3.34 3.34 3.34h9.883c0.37 0 0.668-0.299 0.668-0.668s-0.299-0.668-0.668-0.668h-9.883c-1.105 0-2.004-0.899-2.004-2.004v-15.363h29.391v13.106c0 0.369 0.299 0.668 0.668 0.668s0.668-0.299 0.668-0.668v-15.11c0-1.842-1.498-3.34-3.34-3.34zM30.727 3.823h-29.391v-0.668c0-1.105 0.899-2.004 2.004-2.004h25.383c1.105 0 2.004 0.899 2.004 2.004v0.668zM28.723 10.503c0.369 0 0.668-0.299 0.668-0.668s-0.299-0.668-0.668-0.668h-2.672c-0.369 0-0.668 0.299-0.668 0.668s0.299 0.668 0.668 0.668h2.672zM32.063 21.19c0-0.558-0.416-0.949-1.010-0.949-0.335 0-0.91 0.172-1.404 0.457-0.653-1.379-1.722-2.601-2.488-2.982-0.506-0.253-2.231-0.534-3.782-0.534s-3.276 0.282-3.783 0.534c-0.763 0.381-1.832 1.603-2.486 2.982-0.496-0.285-1.070-0.457-1.405-0.457-0.254 0-0.472 0.065-0.647 0.198-0.232 0.175-0.362 0.442-0.362 0.751 0 1.042 0.808 1.765 0.902 1.844 0.072 0.061 0.155 0.1 0.241 0.127-0.319 0.886-0.474 1.869-0.474 2.705 0 0.998 0.092 2.7 0.668 3.57v1.106c0 0.749 0.586 1.336 1.336 1.336h1.336c0.749 0 1.336-0.586 1.336-1.336v-0.453c0.807 0.202 2.065 0.453 3.34 0.453s2.533-0.251 3.34-0.453v0.453c0 0.749 0.586 1.336 1.336 1.336h1.336c0.749 0 1.336-0.586 1.336-1.336v-1.106c0.576-0.87 0.668-2.572 0.668-3.57 0-0.836-0.155-1.82-0.474-2.705 0.085-0.025 0.168-0.064 0.241-0.127 0.094-0.079 0.902-0.802 0.902-1.844zM20.19 18.914c0.25-0.115 1.675-0.395 3.189-0.395s2.939 0.281 3.185 0.393c0.506 0.254 1.682 1.586 2.149 3.038-1.256 0.176-4.224 0.577-5.334 0.577s-4.080-0.401-5.336-0.577c0.468-1.452 1.643-2.784 2.147-3.035zM16.417 21.972c-0.043-0.043-0.108-0.112-0.186-0.226 0.088 0.041 0.172 0.088 0.251 0.135-0.021 0.031-0.044 0.059-0.066 0.091zM18.703 30.542h-1.336v-0.668h1.336v0.668zM29.391 30.542h-1.336v-0.668h1.336v0.668zM29.698 28.538h-2.311c-0.071 0-0.142 0.012-0.211 0.033-0.019 0.007-1.932 0.635-3.797 0.635s-3.778-0.628-3.797-0.633c-0.023-0.007-0.045-0.001-0.068-0.005-0.047-0.011-0.092-0.029-0.143-0.029h-2.314c-0.175-0.399-0.359-1.32-0.359-2.671 0-0.212 0.016-0.438 0.040-0.667 0.898 0.025 1.965 0.329 1.965 0.665 0 0.369 0.299 0.668 0.668 0.668s0.668-0.299 0.668-0.668c0-1.633-2.204-1.933-3.039-1.989 0.075-0.244 0.164-0.474 0.266-0.691 0.001 0 0.003 0.001 0.004 0.001 0.187 0.028 4.597 0.675 6.109 0.675s5.922-0.647 6.109-0.675c0.001 0 0.001-0.001 0.003-0.001 0.102 0.216 0.191 0.446 0.266 0.691-0.835 0.056-3.038 0.358-3.038 1.989 0 0.369 0.299 0.668 0.668 0.668s0.668-0.299 0.668-0.668c0-0.343 1.061-0.637 1.964-0.665 0.024 0.228 0.040 0.454 0.040 0.665 0 1.352-0.186 2.272-0.361 2.672zM30.339 21.971c-0.021-0.031-0.043-0.060-0.065-0.090 0.079-0.047 0.164-0.095 0.251-0.136-0.066 0.099-0.132 0.172-0.186 0.226zM19.371 14.511h9.352c0.369 0 0.668-0.299 0.668-0.668s-0.299-0.668-0.668-0.668h-9.352c-0.369 0-0.668 0.299-0.668 0.668s0.299 0.668 0.668 0.668zM24.715 25.198h-2.672c-0.369 0-0.668 0.299-0.668 0.668s0.299 0.668 0.668 0.668h2.672c0.369 0 0.668-0.299 0.668-0.668s-0.299-0.668-0.668-0.668z"></path>
</svg>
