<!-- Generated by IcoMoon.io -->
<svg version="1.1" xmlns="http://www.w3.org/2000/svg" width="32" height="32" viewBox="0 0 32 32">
<title>driver-license2</title>
<path d="M3.485 4.694c-1.922 0-3.485 1.563-3.485 3.485v15.334c0 1.922 1.563 3.485 3.485 3.485h25.092c1.922 0 3.485-1.563 3.485-3.485v-15.334c0-1.922-1.563-3.485-3.485-3.485zM14.637 6.785c0.384 0 0.697 0.313 0.697 0.697s-0.313 0.697-0.697 0.697c-0.384 0-0.697-0.313-0.697-0.697s0.313-0.697 0.697-0.697zM7.972 8.18l0.174 0.392c1.231 0 1.285 1.729 0.958 2.156 0.087 0.025 0.18 0.163 0.152 0.392-0.049 0.427-0.218 0.536-0.327 0.545-0.041 0.4-0.297 0.885-0.436 0.958 0 0.286-0.005 0.493 0.022 0.806 0.332 0.912 2.532 0.659 2.636 2.418h-6.97c0.103-1.759 2.154-1.506 2.483-2.418 0.027-0.313 0.022-0.52 0.022-0.806-0.139-0.073-0.395-0.558-0.436-0.958-0.109-0.008-0.278-0.117-0.327-0.545-0.027-0.229 0.065-0.351 0.131-0.392-0.512-1.171 0.147-2.548 1.917-2.548zM14.637 8.877c0.384 0 0.697 0.313 0.697 0.697s-0.313 0.697-0.697 0.697c-0.384 0-0.697-0.313-0.697-0.697s0.313-0.697 0.697-0.697zM14.637 10.968c0.384 0 0.697 0.313 0.697 0.697s-0.313 0.697-0.697 0.697c-0.384 0-0.697-0.313-0.697-0.697s0.313-0.697 0.697-0.697zM18.122 10.968h9.061c0.387 0 0.697 0.313 0.697 0.697s-0.31 0.697-0.697 0.697h-9.061c-0.387 0-0.697-0.313-0.697-0.697s0.31-0.697 0.697-0.697zM14.637 13.059c0.384 0 0.697 0.313 0.697 0.697s-0.313 0.697-0.697 0.697c-0.384 0-0.697-0.313-0.697-0.697s0.313-0.697 0.697-0.697zM18.122 13.756h6.97c0.387 0 0.697 0.313 0.697 0.697s-0.31 0.697-0.697 0.697h-6.97c-0.387 0-0.697-0.313-0.697-0.697s0.31-0.697 0.697-0.697zM14.637 15.15c0.384 0 0.697 0.313 0.697 0.697s-0.313 0.697-0.697 0.697c-0.384 0-0.697-0.313-0.697-0.697s0.313-0.697 0.697-0.697zM18.122 16.544h9.061c0.387 0 0.697 0.31 0.697 0.697s-0.31 0.697-0.697 0.697h-9.061c-0.387 0-0.697-0.31-0.697-0.697s0.31-0.697 0.697-0.697zM6.077 17.241h3.18c0.602 0 1.138 0.389 1.329 0.958l0.566 1.721v3.245c0 0.193-0.155 0.349-0.348 0.349h-0.697c-0.193 0-0.348-0.155-0.348-0.349v-0.349h-4.182v0.349c0 0.193-0.155 0.349-0.348 0.349h-0.697c-0.193 0-0.348-0.155-0.348-0.349v-3.245l0.566-1.721c0.191-0.569 0.727-0.958 1.329-0.958zM14.637 17.241c0.384 0 0.697 0.313 0.697 0.697s-0.313 0.697-0.697 0.697c-0.384 0-0.697-0.313-0.697-0.697s0.313-0.697 0.697-0.697zM6.077 18.635l-0.457 1.394h4.095l-0.457-1.394zM14.637 19.332c0.384 0 0.697 0.313 0.697 0.697s-0.313 0.697-0.697 0.697c-0.384 0-0.697-0.313-0.697-0.697s0.313-0.697 0.697-0.697zM18.122 19.332h6.97c0.387 0 0.697 0.31 0.697 0.697s-0.31 0.697-0.697 0.697h-6.97c-0.387 0-0.697-0.31-0.697-0.697s0.31-0.697 0.697-0.697zM5.576 20.726c-0.384 0-0.697 0.313-0.697 0.697s0.313 0.697 0.697 0.697c0.384 0 0.697-0.313 0.697-0.697s-0.313-0.697-0.697-0.697zM9.758 20.726c-0.384 0-0.697 0.313-0.697 0.697s0.313 0.697 0.697 0.697c0.384 0 0.697-0.313 0.697-0.697s-0.313-0.697-0.697-0.697zM14.637 21.423c0.384 0 0.697 0.313 0.697 0.697s-0.313 0.697-0.697 0.697c-0.384 0-0.697-0.313-0.697-0.697s0.313-0.697 0.697-0.697zM14.637 23.514c0.384 0 0.697 0.313 0.697 0.697s-0.313 0.697-0.697 0.697c-0.384 0-0.697-0.313-0.697-0.697s0.313-0.697 0.697-0.697z"></path>
</svg>
