<!-- Generated by IcoMoon.io -->
<svg version="1.1" xmlns="http://www.w3.org/2000/svg" width="32" height="32" viewBox="0 0 32 32">
<title>driver1</title>
<path d="M16 0.003c-3.175 0-5.76 2.87-5.76 6.4s2.585 6.4 5.76 6.4c3.178 0 5.76-2.87 5.76-6.4s-2.582-6.4-5.76-6.4zM16 13.483c-3.308 0-5.74 0.408-8.14 1.34-0.992 0.385-1.6 1.365-2.3 2.5-0.16 0.258-0.322 0.525-0.5 0.8-0.268 0.41-0.57 0.878-0.9 1.38-1.357 2.070-3.040 4.637-3.62 5.76-0.62 1.203-0.655 2.168-0.12 3.2 0.425 0.825 1.018 1.902 1.76 3.2l0.2 0.34h4.020v-0.64c0-4.595 4.297-8.32 9.6-8.32s9.6 3.725 9.6 8.32v0.64h4.020l0.2-0.34c0.738-1.288 1.328-2.365 1.76-3.2 0.535-1.032 0.5-1.997-0.12-3.2-0.413-0.797-1.405-2.305-2.46-3.92-0.762-1.17-1.552-2.38-2.040-3.2l-0.28-0.46c-0.777-1.325-1.433-2.482-2.54-2.88-2.21-0.795-4.45-1.32-8.14-1.32zM16 25.603c-3.883 0-7.040 2.598-7.040 5.76v0.64h14.080v-0.64c0-3.163-3.16-5.76-7.040-5.76z"></path>
</svg>
