<!-- Generated by IcoMoon.io -->
<svg version="1.1" xmlns="http://www.w3.org/2000/svg" width="36" height="32" viewBox="0 0 36 32">
<title>drum-steelpan</title>
<path d="M18.088 1.543c-9.99 0-18.088 3.599-18.088 8.039v12.059c0 4.44 8.098 8.039 18.088 8.039s18.088-3.599 18.088-8.039v-12.059c0-4.44-8.098-8.039-18.088-8.039zM12.876 11.489c-0.28 1.043-0.913 1.92-1.778 2.542-4.803-0.84-8.083-2.516-8.083-4.449 0-1.894 3.147-3.542 7.79-4.398l1.608 2.785c0.619 1.073 0.784 2.323 0.463 3.52zM18.088 14.606c-1.324 0-2.601-0.063-3.824-0.17 0.506-1.641 2.019-2.845 3.824-2.845s3.318 1.204 3.824 2.845c-1.223 0.107-2.5 0.17-3.824 0.17zM22.108 5.562c0 2.216-1.803 4.020-4.020 4.020s-4.020-1.803-4.020-4.020v-0.819c1.281-0.118 2.625-0.186 4.020-0.186s2.738 0.068 4.020 0.186v0.819zM25.055 14.035c-0.867-0.622-1.504-1.501-1.784-2.546-0.321-1.197-0.156-2.447 0.463-3.52l1.611-2.79c4.658 0.854 7.816 2.505 7.816 4.403 0 1.936-3.291 3.614-8.106 4.453z"></path>
</svg>
