<!-- Generated by IcoMoon.io -->
<svg version="1.1" xmlns="http://www.w3.org/2000/svg" width="32" height="32" viewBox="0 0 32 32">
<title>drumstick-bite</title>
<path d="M29.066 2.646c-4.154-4.151-10.888-4.151-15.042 0-2.228 2.226-3.967 4.926-3.967 8.945v5.391l-2.551 2.549c-0.609 0.609-1.51 0.695-2.31 0.376-1.364-0.545-2.978-0.269-4.084 0.835-1.483 1.482-1.483 3.884 0 5.366 0.96 0.959 2.294 1.23 3.526 0.948-0.283 1.231-0.011 2.564 0.948 3.523 1.483 1.482 3.886 1.482 5.369 0 1.105-1.104 1.381-2.717 0.836-4.081-0.32-0.8-0.234-1.699 0.376-2.308l2.551-2.549h5.394c1.457 0 2.736-0.234 3.887-0.63-2.49-2.757-2.502-6.923 0.066-9.488 2.159-2.158 5.449-2.478 8.086-1.055 0.082-2.822-0.93-5.668-3.086-7.821z"></path>
</svg>
