<!-- Generated by IcoMoon.io -->
<svg version="1.1" xmlns="http://www.w3.org/2000/svg" width="36" height="32" viewBox="0 0 36 32">
<title>drum</title>
<path d="M28.77 7.125l6.431-3.858c0.952-0.571 1.26-1.806 0.689-2.758s-1.805-1.26-2.758-0.689l-10.092 6.055c-1.486-0.199-3.206-0.312-4.951-0.313h-0.001c-9.99 0-18.088 3.599-18.088 8.039v10.101c0 1.913 1.509 3.668 4.020 5.048v-6.053c0-1.105 0.904-2.010 2.010-2.010s2.010 0.904 2.010 2.010v7.688c2.349 0.699 5.087 1.158 8.039 1.303v-6.981c0-1.105 0.904-2.010 2.010-2.010s2.010 0.904 2.010 2.010v6.982c2.952-0.145 5.69-0.604 8.039-1.303v-7.688c0-1.105 0.904-2.010 2.010-2.010s2.010 0.904 2.010 2.010v6.053c2.51-1.38 4.020-3.135 4.020-5.048v-10.101c-0.001-2.662-2.923-5.014-7.406-6.477zM18.088 18.626c-8.325 0-15.073-2.25-15.073-5.024s6.748-5.024 15.073-5.024c0.147 0 0.29 0.006 0.436 0.008l-5.49 3.294c-0.952 0.571-1.26 1.806-0.689 2.758 0.6 1 1.853 1.232 2.758 0.689l10.219-6.131c4.671 0.854 7.839 2.507 7.839 4.408 0 2.775-6.749 5.024-15.073 5.024z"></path>
</svg>
