<!-- Generated by IcoMoon.io -->
<svg version="1.1" xmlns="http://www.w3.org/2000/svg" width="28" height="32" viewBox="0 0 28 32">
<title>drupal</title>
<path d="M20.067 6.737c-1.394-0.879-2.732-1.225-4.064-2.104-0.816-0.553-1.966-1.884-2.92-3.034-0.17 1.84-0.722 2.588-1.382 3.109-1.338 1.068-2.186 1.394-3.36 2.029-0.992 0.521-6.331 4.195-6.331 11.041 0 6.858 5.766 11.902 12.172 11.902 6.387 0 11.946-4.648 11.946-11.682 0-7.053-5.213-10.74-6.061-11.261zM20.224 27.187c-1.262 1.262-5.659 1.802-7.329 0.264-0.301-0.301 0.019-0.754 0.408-0.754 0 0 1.068 0.835 3.235 0.835 1.696 0 2.889-0.484 3.423-0.879 0.383-0.289 0.527 0.27 0.264 0.534zM16.801 23.883c0.546-0.226 1.821-0.239 2.311 0.082 0.258 0.176 1.011 1.181 0.389 1.488-0.527 0.264-0.075-0.986-1.664-0.986-0.923 0-1.225 0.327-1.677 0.691-0.44 0.377-0.615 0.503-0.766 0.295-0.377-0.515 0.999-1.401 1.407-1.57zM22.61 24.969c-0.955-0.063-2.858-3.065-4.082-3.109-1.941-0.057-6.538 5.068-10.131 2.638-2.437-1.671-0.917-6.582 3.253-6.607 3.109-0.031 5.263 3.078 6.814 3.046 1.338-0.019 3.881-2.625 5.138-2.625 3.059 0 1.463 6.865-0.992 6.657z"></path>
</svg>
