<!-- Generated by IcoMoon.io -->
<svg version="1.1" xmlns="http://www.w3.org/2000/svg" width="32" height="32" viewBox="0 0 32 32">
<title>drv-file-format-variant</title>
<path d="M8.86 23.539c-0.363 0-0.598 0.032-0.737 0.064v4.709c0.139 0.032 0.363 0.032 0.566 0.032 1.474 0.011 2.435-0.801 2.435-2.52 0.010-1.495-0.865-2.286-2.264-2.286zM16.273 23.496c-0.395 0-0.619 0.032-0.737 0.053v1.986h0.641c0.811 0 1.292-0.406 1.292-1.036-0-0.662-0.449-0.993-1.196-1.004zM27.737 7.239c-0.002-0.148-0.049-0.293-0.15-0.408l-6.2-7.082c-0.001-0.002-0.003-0.003-0.005-0.004-0.037-0.041-0.079-0.075-0.125-0.105-0.013-0.009-0.027-0.017-0.041-0.025-0.040-0.021-0.081-0.039-0.124-0.052-0.012-0.003-0.022-0.008-0.034-0.011-0.047-0.011-0.095-0.018-0.145-0.018h-15.238c-0.695 0-1.261 0.566-1.261 1.261v29.635c0 0.696 0.566 1.261 1.261 1.261h20.807c0.696 0 1.261-0.566 1.261-1.261v-23.119c-0-0.024-0.004-0.047-0.006-0.071zM11.658 28.687c-0.758 0.63-1.911 0.929-3.321 0.929-0.843 0-1.442-0.054-1.848-0.107v-7.069c0.598-0.096 1.378-0.15 2.2-0.15 1.367 0 2.253 0.245 2.948 0.768 0.747 0.555 1.217 1.441 1.217 2.713 0 1.377-0.502 2.328-1.196 2.916zM17.693 29.541c-0.118-0.203-0.288-0.79-0.502-1.677-0.192-0.897-0.502-1.142-1.164-1.153h-0.491v2.83h-1.612v-7.102c0.523-0.086 1.303-0.15 2.168-0.15 1.068 0 1.816 0.16 2.328 0.566 0.427 0.342 0.662 0.843 0.662 1.506 0 0.918-0.651 1.548-1.271 1.773v0.032c0.502 0.203 0.78 0.683 0.961 1.345 0.224 0.811 0.449 1.752 0.587 2.029l-1.666-0.001zM23.792 29.541h-1.901l-2.307-7.197h1.784l0.875 3.043c0.246 0.854 0.47 1.676 0.641 2.573h0.032c0.182-0.865 0.406-1.719 0.651-2.542l0.918-3.076h1.73l-2.424 7.198zM5.675 20.945v-20.151h14.607v6.452c0 0.348 0.282 0.631 0.631 0.631h5.569l0.001 13.068h-20.808zM21.339 13.137h-9.912c-0.513 0-0.929 0.416-0.929 0.929v1.479c0 0.513 0.416 0.929 0.929 0.929h9.912c0.514 0 0.93-0.416 0.93-0.929v-1.479c0-0.514-0.416-0.929-0.93-0.929zM21.587 15.414h-2.416v-1.216h2.416v1.216zM22.674 12.394l-1.113-2.814-6.288 0.002c0.006 0.019 0.010 0.038 0.018 0.055 0.117 0.255 0.065 0.563-0.136 0.775l-0.713 0.714c-0.145 0.139-0.319 0.211-0.499 0.211v0c-0.104 0-0.203-0.023-0.302-0.069-0.134-0.057-0.349-0.067-0.511 0.001-0.168 0.069-0.302 0.206-0.368 0.375-0.1 0.267-0.367 0.451-0.662 0.451h-0.992c-0.205 0-0.395-0.094-0.528-0.242l-0.246 0.503c-0.345 0.207-0.579 0.601-0.579 1.053v2.792c0 0.666 0.509 1.208 1.134 1.208h11.175c0.626 0 1.134-0.542 1.134-1.208v-2.792c-0.001-0.427-0.21-0.802-0.525-1.016zM22.64 16.202c0 0.358-0.259 0.65-0.576 0.65h-11.175c-0.318 0-0.577-0.292-0.577-0.65v-2.792c0-0.359 0.259-0.65 0.577-0.65h11.175c0.318 0 0.576 0.292 0.576 0.65v2.792zM10.284 10.726c0.326 0.135 0.587 0.4 0.714 0.729 0.012 0.030 0.042 0.050 0.075 0.050h0.992c0.033 0 0.062-0.019 0.074-0.050 0.128-0.328 0.388-0.594 0.714-0.729 0.325-0.135 0.698-0.13 1.020 0.010 0.021 0.010 0.050 0.021 0.089-0.016l0.702-0.703c0.023-0.024 0.030-0.059 0.017-0.088-0.142-0.323-0.145-0.696-0.011-1.021s0.4-0.584 0.729-0.712c0.030-0.012 0.051-0.042 0.051-0.074v-0.993c0-0.033-0.021-0.063-0.051-0.075-0.329-0.128-0.594-0.388-0.729-0.713-0.134-0.325-0.131-0.697 0.011-1.019 0.013-0.030 0.006-0.066-0.017-0.090l-0.702-0.702c-0.039-0.038-0.069-0.026-0.090-0.017-0.32 0.141-0.694 0.146-1.018 0.010-0.326-0.134-0.586-0.4-0.714-0.729-0.012-0.030-0.041-0.050-0.074-0.050h-0.992c-0.033 0-0.064 0.020-0.075 0.050-0.127 0.328-0.388 0.594-0.712 0.729-0.324 0.136-0.698 0.131-1.020-0.010-0.020-0.008-0.049-0.021-0.089 0.017l-0.703 0.702c-0.022 0.024-0.030 0.060-0.017 0.090 0.143 0.322 0.146 0.694 0.011 1.019s-0.4 0.584-0.728 0.713c-0.031 0.012-0.052 0.041-0.052 0.075v0.993c0 0.033 0.021 0.062 0.052 0.074 0.328 0.129 0.593 0.388 0.728 0.712s0.132 0.698-0.011 1.021c-0.012 0.029-0.005 0.064 0.017 0.088l0.703 0.703c0.039 0.038 0.067 0.026 0.089 0.016 0.165-0.072 0.34-0.11 0.522-0.11 0.172 0 0.339 0.034 0.497 0.1zM11.568 5.694c1.065 0 1.93 0.868 1.93 1.931 0 1.065-0.866 1.931-1.93 1.931s-1.93-0.866-1.93-1.931c0-1.063 0.864-1.931 1.93-1.931z"></path>
</svg>
