<!-- Generated by IcoMoon.io -->
<svg version="1.1" xmlns="http://www.w3.org/2000/svg" width="32" height="32" viewBox="0 0 32 32">
<title>ds-file-format-symbol</title>
<path d="M15.986 23.237c-0.394 0-0.65 0.035-0.801 0.070v5.119c0.151 0.034 0.395 0.034 0.615 0.034 1.602 0.012 2.647-0.87 2.647-2.739 0.011-1.625-0.941-2.484-2.462-2.484zM27.737 7.239c-0.002-0.148-0.049-0.293-0.15-0.408l-6.2-7.082c-0.001-0.002-0.003-0.003-0.005-0.004-0.037-0.041-0.079-0.075-0.125-0.105-0.013-0.009-0.027-0.017-0.041-0.025-0.040-0.021-0.081-0.039-0.124-0.052-0.012-0.003-0.022-0.008-0.034-0.011-0.047-0.011-0.095-0.018-0.145-0.018h-15.238c-0.695 0-1.261 0.566-1.261 1.261v29.635c0 0.696 0.566 1.261 1.261 1.261h20.807c0.696 0 1.261-0.566 1.261-1.261v-23.119c-0-0.024-0.004-0.047-0.006-0.071zM5.675 0.794h14.607v6.452c0 0.348 0.282 0.631 0.631 0.631h5.569l0.001 13.068h-20.808v-20.151zM8.856 30.135c-1.037 0-1.913-0.271-2.381-0.568l0.382-1.406c0.333 0.173 1.098 0.493 1.863 0.493 0.975 0 1.468-0.469 1.468-1.074 0-0.79-0.789-1.148-1.616-1.148h-0.765v-1.345h0.728c0.629-0.012 1.431-0.247 1.431-0.925 0-0.481-0.395-0.839-1.185-0.839-0.654 0-1.345 0.283-1.678 0.481l-0.383-1.357c0.481-0.309 1.444-0.605 2.48-0.605 1.715 0 2.665 0.901 2.665 1.999 0 0.852-0.481 1.518-1.469 1.863v0.025c0.963 0.173 1.74 0.901 1.74 1.95 0 1.419-1.246 2.456-3.282 2.456zM19.028 28.833c-0.824 0.685-2.078 1.010-3.61 1.010-0.917 0-1.567-0.058-2.008-0.116v-7.685c0.65-0.104 1.498-0.162 2.391-0.162 1.486 0 2.449 0.267 3.204 0.836 0.813 0.604 1.323 1.567 1.323 2.949 0 1.498-0.546 2.531-1.3 3.169zM23.403 29.877c-0.894 0-1.776-0.232-2.217-0.476l0.36-1.463c0.476 0.244 1.207 0.488 1.962 0.488 0.813 0 1.242-0.337 1.242-0.848 0-0.488-0.372-0.766-1.312-1.103-1.3-0.453-2.148-1.172-2.148-2.31 0-1.335 1.115-2.356 2.96-2.356 0.882 0 1.532 0.186 1.997 0.395l-0.395 1.428c-0.313-0.151-0.871-0.372-1.637-0.372s-1.137 0.348-1.137 0.755c0 0.499 0.441 0.72 1.451 1.103 1.381 0.51 2.031 1.23 2.031 2.333-0 1.312-1.010 2.427-3.158 2.427zM9.648 9.95c-0.006 0.001-0.012 0.003-0.017 0.005l0.034 0.034c-0.005-0.013-0.011-0.026-0.017-0.039zM21.203 6.098c-1.636 1.265-3.341 0.9-5.106 0.815 0 0 0.006 0.004 0.010 0.006-0.171-0.010-0.343-0.015-0.514-0.006-1.765 0.085-3.47 0.451-5.106-0.815-0.864-0.668-2.020 0.101-1.879 1.178 0.12 0.921 0.671 1.785 1.041 2.673 0.001-0 0.002-0.001 0.004-0.001-0.273-0.819-0.643-1.624-0.762-2.465-0.054-0.384 0.446-1.215 0.633-1.198 0.663 0.064 1.341 0.337 1.914 0.691 0.143 0.088-0.020 0.8-0.158 1.184-0.19 0.524-0.434 1.051-0.768 1.49-0.153 0.201-0.559 0.209-0.86 0.297 0.004 0.013 0.009 0.027 0.014 0.040 0 0-0.035-0.034-0.035-0.034h0.001l-0.001-0c0.109 0.684 0.212 1.369 0.328 2.051 0.073 0.427 0.135 0.86 0.26 1.272 0.218 0.722 0.558 1.415 0.704 2.149 0.198 0.987 0.581 1.722 1.606 2.063 0.567 0.189 1.056 0.627 1.626 0.793 0.717 0.209 1.606 0.559 2.203 0.316 1.887-0.768 4.297-1.11 4.289-3.998-0.001-0.401 0.369-0.791 0.51-1.206s0.254-0.824 0.312-1.231c0.172-0.492 0.52-1.773 0.59-2.21l-0.035 0.034c0.005-0.013 0.010-0.026 0.014-0.040-0.3-0.088-0.707-0.096-0.86-0.297-0.334-0.439-0.579-0.966-0.768-1.49-0.139-0.384-0.301-1.096-0.158-1.184 0.573-0.354 1.252-0.627 1.914-0.691 0.187-0.018 0.686 0.814 0.632 1.198-0.119 0.841-0.488 1.646-0.762 2.465 0.001 0.001 0.002 0.001 0.004 0.001 0.37-0.888 0.92-1.753 1.041-2.673 0.141-1.077-1.015-1.847-1.879-1.178zM15.474 7.816c0.154 0 0.308 0 0.462 0 0 0.777 0 1.555 0 2.332-0.154 0-0.308 0-0.462 0 0-0.777 0-1.554 0-2.332zM13.744 13.079c-0.522 1.103-0.834 2.174-0.393 3.37 0.044 0.119-0.052 0.289-0.153 0.768-1.501-2.012-0.253-3.596 0.262-5.31-0.863-0.336-1.662-0.648-2.6-1.013 0.13-0.806 0.916-1.136 1.827-1.162 0.931-0.025 1.41 0.584 1.387 1.476-0.016 0.63-0.068 1.317-0.331 1.871zM16.903 17.227c-0.893 0-1.48 0-2.206 0 0.788-0.841 0.562-1.476-0.241-2.060-0.212-0.153-0.416-0.575-0.349-0.784 0.075-0.232 0.446-0.463 0.722-0.516 0.469-0.090 0.98-0.115 1.446-0.026 0.393 0.075 0.747 0.352 1.118 0.54-0.199 0.314-0.356 0.667-0.606 0.934-0.545 0.582-0.887 1.141 0.115 1.912zM17.936 11.889c0.404 1.684 1.846 3.3 0.158 4.996-0.009-0.219-0.091-0.466-0.017-0.651 0.418-1.038 0.085-1.95-0.337-2.896-0.256-0.572-0.422-1.224-0.452-1.849-0.041-0.842 0.18-1.686 1.233-1.749 0.982-0.059 1.776 0.311 2.022 1.162-0.961 0.364-1.734 0.657-2.607 0.987zM22.059 9.954v-0l-0.001 0z"></path>
</svg>
