<!-- Generated by IcoMoon.io -->
<svg version="1.1" xmlns="http://www.w3.org/2000/svg" width="32" height="32" viewBox="0 0 32 32">
<title>dtd-file-format-extension</title>
<path d="M8.978 23.605c-0.353 0-0.581 0.032-0.716 0.062v4.577c0.135 0.031 0.353 0.031 0.55 0.031 1.432 0.011 2.366-0.778 2.366-2.449 0.010-1.453-0.84-2.221-2.2-2.221zM21.601 23.605c-0.353 0-0.581 0.032-0.716 0.062v4.577c0.135 0.031 0.352 0.031 0.55 0.031 1.433 0.011 2.366-0.778 2.366-2.449 0.011-1.453-0.84-2.221-2.2-2.221zM27.737 7.239c-0.002-0.148-0.049-0.293-0.15-0.408l-6.201-7.082c-0.001-0.002-0.003-0.002-0.005-0.004-0.037-0.041-0.079-0.075-0.125-0.105-0.013-0.009-0.027-0.017-0.041-0.025-0.040-0.022-0.081-0.039-0.125-0.052-0.012-0.004-0.022-0.008-0.034-0.011-0.047-0.011-0.096-0.018-0.145-0.018h-15.238c-0.695 0-1.261 0.566-1.261 1.261v29.635c0 0.696 0.566 1.261 1.261 1.261h20.807c0.696 0 1.261-0.566 1.261-1.261v-23.119c0-0.024-0.004-0.047-0.006-0.071zM11.697 28.607c-0.736 0.612-1.857 0.903-3.227 0.903-0.82 0-1.401-0.052-1.795-0.104v-6.87c0.581-0.094 1.338-0.145 2.138-0.145 1.328 0 2.189 0.239 2.864 0.747 0.726 0.54 1.183 1.401 1.183 2.636 0 1.338-0.488 2.262-1.163 2.833zM18.456 23.772h-1.91v5.666h-1.588v-5.666h-1.878v-1.329h5.376v1.329zM24.32 28.607c-0.736 0.612-1.857 0.903-3.228 0.903-0.82 0-1.401-0.052-1.795-0.104v-6.87c0.581-0.094 1.338-0.145 2.138-0.145 1.328 0 2.19 0.239 2.864 0.747 0.725 0.54 1.183 1.401 1.183 2.636 0 1.338-0.488 2.262-1.162 2.833zM5.675 20.945v-20.151h14.607v6.452c0 0.348 0.282 0.631 0.631 0.631h5.569l0.001 13.068h-20.808zM13.834 12.223l-4.23-2.118v-0.027l4.23-2.117v-1.412l-5.593 2.97v1.145l5.593 2.97zM16.737 10.973l0.257-4.905h-1.853l0.268 4.905zM16.073 14.063c0.629 0 1.037-0.519 1.037-1.212-0.012-0.705-0.419-1.212-1.037-1.212s-1.049 0.506-1.049 1.212c0 0.692 0.42 1.212 1.049 1.212zM18.311 6.55v1.412l4.323 2.117v0.027l-4.323 2.118v1.411l5.594-2.93v-1.225zM9.064 15.543h14.029v0.946h-14.029v-0.946zM9.064 18.249h14.029v0.946h-14.029v-0.946z"></path>
</svg>
