<!-- Generated by IcoMoon.io -->
<svg version="1.1" xmlns="http://www.w3.org/2000/svg" width="40" height="32" viewBox="0 0 40 32">
<title>dumbbell</title>
<path d="M6.532 5.562h-3.015c-0.835 0-1.507 0.672-1.507 1.507v6.532h-1.507c-0.276 0-0.502 0.226-0.502 0.502v3.015c0 0.276 0.226 0.503 0.502 0.503h1.507v6.532c0 0.835 0.672 1.507 1.507 1.507h3.015c0.835 0 1.507-0.672 1.507-1.507v-17.083c0-0.835-0.672-1.507-1.507-1.507zM39.693 13.602h-1.507v-6.532c0-0.835-0.672-1.507-1.507-1.507h-3.015c-0.835 0-1.507 0.672-1.507 1.507v17.083c0 0.835 0.672 1.507 1.507 1.507h3.015c0.835 0 1.507-0.672 1.507-1.507v-6.532h1.507c0.276 0 0.502-0.226 0.502-0.503v-3.015c0-0.276-0.226-0.502-0.502-0.502zM28.64 1.543h-3.015c-0.835 0-1.507 0.672-1.507 1.507v10.551h-8.039v-10.551c0-0.835-0.672-1.507-1.507-1.507h-3.015c-0.835 0-1.507 0.672-1.507 1.507v25.122c0 0.835 0.672 1.507 1.507 1.507h3.015c0.835 0 1.507-0.672 1.507-1.507v-10.551h8.039v10.551c0 0.835 0.672 1.507 1.507 1.507h3.015c0.835 0 1.507-0.672 1.507-1.507v-25.122c0-0.835-0.672-1.507-1.507-1.507z"></path>
</svg>
