<!-- Generated by IcoMoon.io -->
<svg version="1.1" xmlns="http://www.w3.org/2000/svg" width="36" height="32" viewBox="0 0 36 32">
<title>dumpster</title>
<path d="M35.171 9.582c0.653 0 1.13-0.615 0.973-1.25l-1.507-6.029c-0.113-0.446-0.515-0.76-0.973-0.76h-6.212l1.608 8.039h6.111zM17.083 1.543h-6.312l-1.608 8.039h7.92v-8.039zM25.405 1.543h-6.312v8.039h7.92l-1.608-8.039zM1.005 9.582h6.111l1.608-8.039h-6.212c-0.458 0-0.86 0.314-0.973 0.76l-1.507 6.029c-0.157 0.634 0.32 1.25 0.973 1.25zM35.171 13.602h-1.256l0.251-2.010h-32.157l0.251 2.010h-1.256c-0.553 0-1.005 0.452-1.005 1.005v2.010c0 0.553 0.452 1.005 1.005 1.005h1.759l1.256 10.049v1.005c0 0.553 0.452 1.005 1.005 1.005h2.010c0.553 0 1.005-0.452 1.005-1.005v-1.005h20.098v1.005c0 0.553 0.452 1.005 1.005 1.005h2.010c0.553 0 1.005-0.452 1.005-1.005v-1.005l1.256-10.049h1.759c0.553 0 1.005-0.452 1.005-1.005v-2.010c0-0.553-0.452-1.005-1.005-1.005z"></path>
</svg>
