<!-- Generated by IcoMoon.io -->
<svg version="1.1" xmlns="http://www.w3.org/2000/svg" width="40" height="32" viewBox="0 0 40 32">
<title>dumpster-fire</title>
<path d="M26.297 6.071l0.012-0.013-0.904-4.522h-6.312v8.039h3.819c1.017-1.212 2.148-2.399 3.385-3.505zM17.083 1.543h-6.312l-1.608 8.039h7.92v-8.039zM28.972 6.071c1.143 1.024 2.23 2.117 3.209 3.235 0.358-0.352 0.716-0.697 1.087-1.024l1.338-1.193 1.338 1.193c0.069 0.057 0.132 0.132 0.195 0.195-0.006-0.050 0.013-0.094 0-0.145l-1.507-6.029c-0.107-0.446-0.509-0.76-0.967-0.76h-6.212l0.773 3.863 0.747 0.666zM1.005 9.582h6.111l1.608-8.039h-6.212c-0.458 0-0.86 0.314-0.973 0.76l-1.507 6.029c-0.157 0.634 0.32 1.25 0.973 1.25zM21.392 11.592h-19.382l0.251 2.010h-1.256c-0.553 0-1.005 0.452-1.005 1.005v2.010c0 0.553 0.452 1.005 1.005 1.005h1.759l1.256 10.049v1.005c0 0.553 0.452 1.005 1.005 1.005h2.010c0.553 0 1.005-0.452 1.005-1.005v-1.005h13.114c-1.897-2.117-3.065-4.893-3.065-7.939 0-2.255 1.25-5.207 3.304-8.14zM34.612 9.783c-0.936 0.835-1.777 1.708-2.525 2.588-1.225-1.62-2.738-3.266-4.459-4.798-4.409 3.938-7.537 9.063-7.537 12.159 0 5.496 4.497 9.948 10.049 9.948s10.049-4.453 10.049-9.948c0.006-2.299-2.324-7.047-5.577-9.948zM33.444 24.191c-0.923 0.672-2.066 1.068-3.297 1.068-3.078 0-5.583-2.104-5.583-5.527 0-1.702 1.036-3.203 3.103-5.772 0.295 0.352 4.214 5.533 4.214 5.533l2.5-2.952c0.176 0.301 0.339 0.597 0.484 0.879 1.168 2.305 0.678 5.251-1.419 6.77z"></path>
</svg>
