<!-- Generated by IcoMoon.io -->
<svg version="1.1" xmlns="http://www.w3.org/2000/svg" width="32" height="32" viewBox="0 0 32 32">
<title>dungeon</title>
<path d="M8.085 11.8l-5.201-3.251c-0.505-0.315-1.193-0.136-1.44 0.405-0.768 1.64-1.274 3.548-1.407 5.559l-0.003 0.048c-0.037 0.571 0.443 1.050 1.014 1.050h6.1c0.5 0 0.884-0.393 0.943-0.889 0.068-0.586 0.203-1.151 0.392-1.692 0.161-0.461 0.016-0.971-0.398-1.23zM20.037 0.035c-1.267-0.325-2.591-0.502-3.959-0.502s-2.692 0.177-3.959 0.502c-0.576 0.148-0.874 0.791-0.652 1.343l2.353 6.534c0.144 0.391 0.512 0.664 0.945 0.665h2.625c0.424 0 0.802-0.266 0.945-0.665l2.353-6.534c0.221-0.552-0.077-1.195-0.652-1.343zM7.034 17.621h-6.029c-0.555 0-1.005 0.45-1.005 1.005v4.020c0 0.555 0.45 1.005 1.005 1.005h6.029c0.555 0 1.005-0.45 1.005-1.005v-4.020c0-0.555-0.45-1.005-1.005-1.005zM7.034 25.66h-6.029c-0.555 0-1.005 0.45-1.005 1.005v4.020c0 0.555 0.45 1.005 1.005 1.005h6.029c0.555 0 1.005-0.45 1.005-1.005v-4.020c0-0.555-0.45-1.005-1.005-1.005zM11.89 7.844l-2.281-5.703c-0.222-0.555-0.887-0.816-1.408-0.522-1.757 1.004-3.246 2.258-4.476 3.735l-0.021 0.026c-0.381 0.46-0.242 1.161 0.265 1.477l5.208 3.255c0.409 0.256 0.921 0.165 1.263-0.175 0.325-0.323 0.678-0.619 1.055-0.882 0.394-0.277 0.575-0.764 0.396-1.212zM25.008 15.611h6.1c0.572 0 1.051-0.479 1.014-1.050-0.136-2.058-0.642-3.967-1.451-5.705l0.041 0.098c-0.247-0.541-0.935-0.72-1.44-0.405l-5.201 3.251c-0.414 0.259-0.559 0.769-0.398 1.23 0.189 0.541 0.323 1.107 0.392 1.692 0.058 0.497 0.443 0.889 0.943 0.889zM28.453 5.381c-1.252-1.503-2.741-2.758-4.419-3.72l-0.079-0.042c-0.52-0.294-1.186-0.033-1.408 0.522l-2.281 5.703c-0.179 0.447 0.001 0.935 0.396 1.211 0.377 0.264 0.729 0.559 1.055 0.882 0.342 0.34 0.854 0.431 1.263 0.175l5.209-3.255c0.507-0.316 0.646-1.017 0.265-1.477zM31.152 17.621h-6.029c-0.555 0-1.005 0.45-1.005 1.005v4.020c0 0.555 0.45 1.005 1.005 1.005h6.029c0.555 0 1.005-0.45 1.005-1.005v-4.020c0-0.555-0.45-1.005-1.005-1.005zM31.152 25.66h-6.029c-0.555 0-1.005 0.45-1.005 1.005v4.020c0 0.555 0.45 1.005 1.005 1.005h6.029c0.555 0 1.005-0.45 1.005-1.005v-4.020c0-0.555-0.45-1.005-1.005-1.005zM15.073 10.689v18.489c0 0.278 0.225 0.503 0.502 0.503h1.005c0.278 0 0.503-0.225 0.503-0.503v-18.489c-0.328-0.056-0.661-0.102-1.005-0.102s-0.676 0.046-1.005 0.102zM11.054 13.296v15.882c0 0.278 0.225 0.503 0.502 0.503h1.005c0.278 0 0.502-0.225 0.502-0.503v-17.752c-0.803 0.468-1.497 1.097-2.010 1.87zM19.093 11.426v17.752c0 0.278 0.225 0.503 0.503 0.503h1.005c0.278 0 0.503-0.225 0.503-0.503v-15.882c-0.512-0.773-1.207-1.402-2.010-1.87z"></path>
</svg>
