<!-- Generated by IcoMoon.io -->
<svg version="1.1" xmlns="http://www.w3.org/2000/svg" width="32" height="32" viewBox="0 0 32 32">
<title>dwg-file-format-variant</title>
<path d="M27.737 7.239c-0.002-0.148-0.049-0.293-0.15-0.408l-6.201-7.082c-0.001-0.002-0.003-0.002-0.005-0.004-0.037-0.041-0.079-0.075-0.125-0.105-0.013-0.009-0.027-0.017-0.041-0.025-0.040-0.021-0.081-0.039-0.125-0.052-0.012-0.004-0.022-0.008-0.034-0.011-0.047-0.011-0.096-0.018-0.145-0.018h-15.238c-0.695 0-1.261 0.566-1.261 1.261v29.635c0 0.696 0.566 1.261 1.261 1.261h20.807c0.696 0 1.261-0.566 1.261-1.261v-23.119c0-0.024-0.004-0.047-0.006-0.070zM10.826 28.615c-0.658 0.547-1.658 0.806-2.88 0.806-0.732 0-1.251-0.046-1.602-0.092v-6.132c0.519-0.084 1.194-0.13 1.908-0.13 1.186 0 1.954 0.213 2.556 0.668 0.648 0.481 1.056 1.25 1.056 2.352 0 1.195-0.434 2.020-1.037 2.528zM18.605 29.357h-1.529l-0.529-2.686c-0.12-0.63-0.222-1.214-0.296-1.927h-0.018c-0.111 0.704-0.213 1.297-0.361 1.927l-0.593 2.686h-1.547l-1.482-6.243h1.51l0.472 2.575c0.139 0.741 0.269 1.546 0.371 2.176h0.019c0.102-0.676 0.25-1.426 0.408-2.195l0.528-2.556h1.501l0.5 2.63c0.139 0.732 0.241 1.399 0.334 2.094h0.018c0.092-0.695 0.231-1.426 0.361-2.167l0.51-2.556h1.436l-1.612 6.242zM26.087 29.069c-0.435 0.148-1.259 0.352-2.084 0.352-1.139 0-1.964-0.287-2.537-0.842-0.575-0.538-0.89-1.352-0.88-2.269 0.009-2.074 1.518-3.26 3.566-3.26 0.806 0 1.426 0.157 1.732 0.305l-0.296 1.13c-0.342-0.148-0.769-0.268-1.454-0.268-1.176 0-2.066 0.667-2.066 2.019 0 1.287 0.806 2.046 1.964 2.046 0.324 0 0.584-0.037 0.695-0.092v-1.306h-0.963v-1.102h2.324v3.288h-0zM5.675 20.945v-20.151h14.607v6.452c0 0.348 0.282 0.631 0.631 0.631h5.569l0.001 13.068h-20.808zM8.399 24.151c-0.315 0-0.519 0.028-0.639 0.056v4.084c0.121 0.028 0.315 0.028 0.491 0.028 1.278 0.009 2.111-0.695 2.111-2.186 0.010-1.296-0.749-1.982-1.963-1.982zM26.742 7.654h-12.871v-2.499h-2.499v-4.699h-0.631v4.699h-2.498v2.499h-2.885v0.631h2.885v2.498h2.498v10.974h0.631v-10.974h2.499v-2.498h12.871v-0.631zM13.241 10.152h-4.366v-4.366h4.366v4.366zM12.058 7.969c0 0.553-0.448 1.001-1.001 1.001s-1.001-0.448-1.001-1.001c0-0.553 0.448-1.001 1.001-1.001s1.001 0.448 1.001 1.001z"></path>
</svg>
