<!-- Generated by IcoMoon.io -->
<svg version="1.1" xmlns="http://www.w3.org/2000/svg" width="32" height="32" viewBox="0 0 32 32">
<title>dxf-file-format-symbol</title>
<path d="M9.516 23.918c-0.36 0-0.593 0.032-0.731 0.064v4.67c0.138 0.031 0.36 0.031 0.561 0.031 1.462 0.011 2.414-0.794 2.414-2.499 0.011-1.482-0.857-2.266-2.245-2.266zM27.737 7.239c-0.002-0.148-0.048-0.293-0.15-0.408l-6.201-7.082c-0.001-0.002-0.003-0.002-0.005-0.004-0.037-0.041-0.079-0.075-0.125-0.105-0.013-0.009-0.027-0.017-0.041-0.025-0.040-0.022-0.081-0.039-0.124-0.052-0.012-0.004-0.022-0.008-0.034-0.011-0.047-0.011-0.095-0.018-0.145-0.018h-15.238c-0.695 0-1.261 0.566-1.261 1.261v29.635c0 0.696 0.566 1.261 1.261 1.261h20.807c0.696 0 1.261-0.566 1.261-1.261v-23.119c0-0.024-0.004-0.047-0.006-0.070zM12.29 29.022c-0.751 0.625-1.895 0.921-3.293 0.921-0.837 0-1.429-0.052-1.832-0.106v-7.010c0.593-0.095 1.366-0.148 2.181-0.148 1.356 0 2.235 0.243 2.923 0.763 0.741 0.55 1.207 1.429 1.207 2.689 0 1.366-0.497 2.308-1.186 2.891zM17.945 29.869l-0.646-1.292c-0.265-0.498-0.434-0.869-0.636-1.281h-0.021c-0.148 0.413-0.328 0.783-0.551 1.281l-0.593 1.292h-1.843l2.065-3.611-1.991-3.527h1.853l0.624 1.303c0.212 0.434 0.371 0.783 0.54 1.186h0.021c0.169-0.454 0.307-0.773 0.487-1.186l0.603-1.303h1.843l-2.012 3.484 2.118 3.654h-1.863zM25.039 24.056h-2.743v1.631h2.563v1.313h-2.563v2.87h-1.621v-7.138h4.363v1.324h0zM5.675 20.945v-20.151h14.607v6.452c0 0.348 0.282 0.631 0.631 0.631h5.569l0.001 13.068h-20.808zM23.167 18.020c-0.811-1.925-1.624-3.85-2.437-5.775-0.446-1.056-0.897-2.109-1.342-3.165-0.486-1.15-0.971-2.3-1.45-3.453-0.105-0.252-0.262-0.426-0.54-0.471-0.013-0.002-4.145 0.015-4.153 0.015-0.261-0.003-0.41 0.148-0.506 0.369-0.131 0.304-0.257 0.61-0.384 0.915-0.475 1.136-0.95 2.272-1.425 3.407-0.593 1.419-1.186 2.838-1.778 4.257-0.053 0.125-0.113 0.248-0.156 0.378-0.023 0.069-0.038 0.134-0.047 0.197l-0.010-0.010c0 0 0.001 0.022 0.004 0.062-0.008 0.093-0.002 0.179 0.018 0.258l0.979 2.728c0.295 0.957 0.74 0.652 1.248 0.444s6.087-2.585 6.087-2.585l-7.316-0.074 2.629-0.211 2.472-5.961-1.101-3.512 1.458 3.122c0.336 0.796 0.669 1.593 1.005 2.389 0.604 1.429 1.209 2.856 1.812 4.286 0.5 1.187 0.546 1.291 1.044 2.479 1.306 0 2.612 0 3.918 0-0.16-0.391 0.135 0.301-0.029-0.089z"></path>
</svg>
