<!-- Generated by IcoMoon.io -->
<svg version="1.1" xmlns="http://www.w3.org/2000/svg" width="30" height="32" viewBox="0 0 30 32">
<title>earlybirds</title>
<path d="M19.671 2.516c0.075-0.816 1.338-0.879 2.299-0.546 0.057 0.019 1.645 0.609 1.193 0.955-1.752-0.465-3.542 1.143-3.492-0.408zM7.047 2.95c1.928-0.509 3.894 1.256 3.837-0.446-0.082-0.892-1.47-0.961-2.525-0.603-0.063 0.019-1.803 0.66-1.313 1.049zM20.060 9.582c-0.553 0-1.005 0.452-1.005 1.005s0.452 1.005 1.005 1.005 1.005-0.452 1.005-1.005-0.452-1.005-1.005-1.005zM10.030 9.582c-0.553 0-1.005 0.452-1.005 1.005s0.452 1.005 1.005 1.005 1.005-0.452 1.005-1.005-0.452-1.005-1.005-1.005zM30.034 19.832c-0.622 1.507-2.556 0.691-4.013-0.075-0.848 4.34-3.649 6.997-7.932 7.801 0.019 0.057-0.126-0.006 1.507 0.063 2.11 0.088 4.007-0.195 6.117-0.503-1.244-0.867-0.716-2.33-0.615-2.393 0.088-0.057 0.923 0.107 1.357 0.722 0.54-0.785 1.784-0.93 1.897-0.854 0.1 0.069 0.415 1.313-0.433 2.173 0.295-0.057 0.515-0.1 0.615-0.132 0.163-0.050 1.112 0.71 0.195 0.835-0.898 0.145-1.419 0.32-2.958 0.678-2.883 0.672-5.395 0.741-7.392 0.804l0.063 0.729c0.239 1.137-1.47 1.526-1.733 0.389 0.050 1.124-1.702 1.369-1.784-0.063l-0.031 0.333c-0.044 1.156-1.784 1.124-1.777-0.038-0.471 0.848-1.765 0.427-1.658-0.534l0.075-0.779c-2.305 0.057-3.75 0.195-3.881 0.195-1.313 0-1.313-1.985 0-1.985 0.151 0 1.74 0.082 3.969 0.176-3.837-0.973-6.513-3.454-7.216-7.424-1.57 0.804-3.611 1.683-4.283 0.050-0.66-1.595 1.35-2.676 4.195-4.61 0.044-0.415 0.1-0.835 0.17-1.244-0.904-1.231-0.729-2.28-1.011-3.793-1.055 0.151-1.457-0.572-1.482-1.451 0.019-0.458 0.132-0.936 0.151-0.967 0.069-0.113 0.634-0.126 0.798-0.163 0.377-1.991 3.178-2.085 5.709-2.167 1.237-1.369 2.839-2.606 5.081-3.034-0.961-1.218-0.214-2.506-0.151-2.537 0.107-0.050 1.332 0.27 1.652 1.457 0.327-0.553 1.149-0.716 1.231-0.672 0.069 0.038 0.402 0.942-0.308 1.627 2.531 0.22 4.535 1.551 6.029 3.184 2.267 0.094 4.509 0.371 4.842 2.135 0.17 0.038 0.729 0.050 0.798 0.163 0.019 0.031 0.132 0.509 0.151 0.967-0.031 0.873-0.427 1.595-1.482 1.451-0.201 1.087-0.17 2.066-0.546 2.996 0.151 0.735 0.251 1.495 0.301 2.286 2.324 1.595 4.415 2.669 3.787 4.202zM13.026 9.576c0.057-2.763-2.38-2.65-4.937-2.531-1.363 0.063-2.443 0.119-2.858 0.873-0.716 1.313 0.371 5.835 1.457 6.356 0.615 0.295 4.61 0.496 5.42-0.446 0.515-0.59 0.942-3.103 0.917-4.252zM16.292 13.237c-0.27-0.779-0.377-1.89-0.961-2.054-0.126-0.031-0.565-0.031-0.691 0-0.628 0.176-0.678 1.388-1.068 2.336 0.967 0 1.212 0.609 1.488 0.609 0.27 0 0.396-0.71 1.231-0.892zM24.815 7.918c-0.415-0.76-1.558-0.81-2.92-0.873-2.525-0.119-4.911-0.239-4.855 2.531-0.031 1.149 0.314 3.662 0.829 4.258 0.816 0.936 4.811 0.741 5.42 0.446 0.992-0.477 2.292-4.955 1.526-6.362z"></path>
</svg>
