<!-- Generated by IcoMoon.io -->
<svg version="1.1" xmlns="http://www.w3.org/2000/svg" width="40" height="32" viewBox="0 0 40 32">
<title>ebay</title>
<path d="M25.449 16.101c-1.828 0.057-2.964 0.389-2.964 1.589 0 0.779 0.622 1.62 2.198 1.62 2.117 0 3.241-1.156 3.241-3.040v-0.207c-0.741 0-1.652 0.006-2.475 0.038zM29.94 18.595c0 0.584 0.019 1.168 0.063 1.683h-1.872c-0.050-0.433-0.069-0.854-0.069-1.269-1.011 1.244-2.217 1.602-3.888 1.602-2.481 0-3.806-1.313-3.806-2.826 0-2.198 1.809-2.971 4.937-3.040 0.86-0.019 1.821-0.025 2.619-0.025v-0.214c0-1.47-0.942-2.073-2.575-2.073-1.212 0-2.11 0.502-2.198 1.369h-2.117c0.226-2.16 2.493-2.707 4.491-2.707 2.393 0 4.415 0.848 4.415 3.379v4.12zM8.020 15.027c-0.144-3.435-5.496-3.555-5.929 0h5.929zM2.054 16.371c0.22 3.662 4.974 3.605 5.728 1.357h2.079c-0.402 2.16-2.701 2.895-4.673 2.895-3.592 0-5.181-1.978-5.181-4.648 0-2.939 1.645-4.874 5.213-4.874 2.845 0 4.924 1.488 4.924 4.736v0.534h-8.089zM15.306 19.242c1.872 0 3.153-1.35 3.153-3.379 0-2.035-1.281-3.379-3.153-3.379-1.859 0-3.153 1.344-3.153 3.379 0 2.029 1.294 3.379 3.153 3.379zM10.143 7.56h2.016v5.062c0.986-1.175 2.349-1.52 3.687-1.52 2.242 0 4.736 1.514 4.736 4.786 0 2.738-1.978 4.736-4.773 4.736-1.463 0-2.833-0.521-3.687-1.564 0 0.415-0.025 0.829-0.069 1.225h-1.978c0.031-0.641 0.069-1.432 0.069-2.079v-10.646zM40.196 11.435l-6.23 12.235h-2.255l1.79-3.398-4.685-8.837h2.355l3.448 6.902 3.442-6.902h2.135z"></path>
</svg>
