<!-- Generated by IcoMoon.io -->
<svg version="1.1" xmlns="http://www.w3.org/2000/svg" width="32" height="32" viewBox="0 0 32 32">
<title>eco-fuel</title>
<path d="M16.059 0.003c-0.971 0-1.862 0.372-2.552 1.063l-3.67 3.67-0.946-0.946c0.422-0.486 0.444-1.231-0.12-1.654l0.063 0.056-0.829-0.83c-0.223-0.223-0.529-0.334-0.834-0.334s-0.61 0.111-0.833 0.334l-5.037 5.037c-0.447 0.447-0.447 1.221 0 1.668l0.83 0.83c0.447 0.447 1.22 0.447 1.667 0l0.056-0.056 0.97 0.97-0.774 0.774c-0.73 0.657-1.084 1.592-1.084 2.514v16.534c0 1.31 1.061 2.37 2.37 2.37h23.111c1.31 0 2.37-1.061 2.37-2.37v-27.259c0-1.31-1.061-2.37-2.37-2.37h-12.385zM16.059 1.188h12.385c0.705 0 1.185 0.48 1.185 1.185v27.259c0 0.705-0.48 1.185-1.185 1.185h-23.111c-0.705 0-1.185-0.48-1.185-1.185v-16.534c0-0.618 0.239-1.224 0.693-1.633 0.008-0.007 0.015-0.014 0.022-0.022l0-0 2.785-2.785c0.112-0.108 0.182-0.26 0.182-0.428 0-0.327-0.265-0.593-0.593-0.593-0.168 0-0.319 0.070-0.427 0.182l-1.151 1.152-0.97-0.97 3.369-3.369 1.359 1.359c0.107 0.107 0.255 0.173 0.419 0.173s0.312-0.066 0.419-0.173l4.089-4.089c0.495-0.495 1.026-0.715 1.714-0.715zM7.17 2.205l0.822 0.821-0.322 0.323c-0.011 0.010-0.020 0.019-0.030 0.029l-4.677 4.677-0.822-0.822 5.029-5.028zM16.593 2.373c-0.975 0-1.778 0.803-1.778 1.778s0.803 1.778 1.778 1.778h8.889c0.975 0 1.778-0.803 1.778-1.778s-0.803-1.778-1.778-1.778h-8.889zM16.593 3.559h8.889c0.329 0 0.593 0.264 0.593 0.593s-0.264 0.593-0.593 0.593h-8.889c-0.329 0-0.593-0.264-0.593-0.593s0.264-0.593 0.593-0.593zM23.053 8.299c-0 0-0.001 0-0.001 0-0.045 0-0.089 0.005-0.132 0.015l0.004-0.001c-0.983 0.215-3.030 0.752-5.178 1.63s-4.396 2.072-5.759 3.728c-0.004 0.005-0.008 0.010-0.013 0.016l-0.001 0.001c-1.007 1.322-1.506 2.686-1.3 4.061 0 0 0 0.001 0 0.001 0.212 1.471 1.2 2.554 1.848 3.138 0.010 0.009 0.022 0.019 0.033 0.028l0.001 0.001 0.144 0.111c-0.199 0.17-0.462 0.442-0.644 0.588-1.432 1.157-2.248 1.56-2.248 1.56-0.196 0.099-0.328 0.299-0.328 0.53 0 0.327 0.265 0.593 0.593 0.593 0.097 0 0.188-0.023 0.269-0.064l-0.003 0.002c0 0 0.962-0.486 2.463-1.699 0.262-0.212 0.628-0.584 0.924-0.843 0.725 0.378 2.226 1.059 4.087 0.759 0.009-0.001 0.015-0.002 0.021-0.003l-0.003 0c1.397-0.266 2.605-1.084 3.562-2.36 0.001-0.002 0.004-0.005 0.006-0.008l0.001-0.002c2.517-3.485 2.368-9.433 2.244-11.231-0.022-0.309-0.278-0.552-0.59-0.552h-0zM22.432 9.706c0.071 2.097-0.060 6.998-1.99 9.677-0.818 1.089-1.739 1.692-2.825 1.902-1.2 0.191-2.213-0.157-2.929-0.469 1.205-1.147 2.526-2.518 4.031-4.448 0.084-0.101 0.135-0.233 0.135-0.376 0-0.327-0.265-0.593-0.593-0.593-0.194 0-0.367 0.094-0.475 0.238l-0.001 0.002c-1.596 2.046-2.97 3.44-4.196 4.578l-0.28-0.216c-0.536-0.484-1.318-1.41-1.463-2.421-0.002-0.005-0.002-0.006-0.002-0.008l0.001 0.004c-0.149-0.991 0.183-1.995 1.065-3.156 1.127-1.364 3.229-2.539 5.285-3.378 1.751-0.715 3.201-1.081 4.237-1.334zM20.122 12.441c-0.222 0.012-0.41 0.143-0.502 0.331l-0.002 0.003c-0.178 0.356-0.14 0.291-0.377 0.647-0.066 0.094-0.105 0.211-0.105 0.336 0 0.327 0.265 0.593 0.593 0.593 0.208 0 0.391-0.107 0.497-0.269l0.001-0.002c0.237-0.356 0.274-0.419 0.451-0.774 0.042-0.079 0.066-0.173 0.066-0.273 0-0.327-0.265-0.593-0.593-0.593-0.011 0-0.021 0-0.032 0.001l0.001-0zM6.519 26.67c-0.356 0-0.593 0.237-0.593 0.593v1.185c0 0.356 0.237 0.593 0.593 0.593s0.593-0.237 0.593-0.593v-1.185c0-0.356-0.237-0.593-0.593-0.593zM9.482 26.67c-0.356 0-0.593 0.237-0.593 0.593v1.185c0 0.356 0.237 0.593 0.593 0.593s0.593-0.237 0.593-0.593v-1.185c0-0.356-0.237-0.593-0.593-0.593zM12.444 26.67c-0.356 0-0.593 0.237-0.593 0.593v1.185c0 0.356 0.237 0.593 0.593 0.593s0.593-0.237 0.593-0.593v-1.185c0-0.356-0.237-0.593-0.593-0.593zM15.407 26.67c-0.356 0-0.593 0.237-0.593 0.593v1.185c0 0.356 0.237 0.593 0.593 0.593s0.593-0.237 0.593-0.593v-1.185c0-0.356-0.237-0.593-0.593-0.593zM18.37 26.67c-0.356 0-0.593 0.237-0.593 0.593v1.185c0 0.356 0.237 0.593 0.593 0.593s0.593-0.237 0.593-0.593v-1.185c0-0.356-0.237-0.593-0.593-0.593zM21.333 26.67c-0.356 0-0.593 0.237-0.593 0.593v1.185c0 0.356 0.237 0.593 0.593 0.593s0.593-0.237 0.593-0.593v-1.185c0-0.356-0.237-0.593-0.593-0.593zM24.296 26.67c-0.356 0-0.593 0.237-0.593 0.593v1.185c0 0.356 0.237 0.593 0.593 0.593s0.593-0.237 0.593-0.593v-1.185c0-0.356-0.237-0.593-0.593-0.593zM27.259 26.67c-0.356 0-0.593 0.237-0.593 0.593v1.185c0 0.356 0.237 0.593 0.593 0.593s0.593-0.237 0.593-0.593v-1.185c0-0.356-0.237-0.593-0.593-0.593z"></path>
</svg>
