<!-- Generated by IcoMoon.io -->
<svg version="1.1" xmlns="http://www.w3.org/2000/svg" width="32" height="32" viewBox="0 0 32 32">
<title>edge</title>
<path d="M1.615 13.863c0.007-0.010 0.014-0.020 0.022-0.030-0.001 0.010-0.003 0.020-0.004 0.030h-0.017zM30.542 14.837c0-2.765-0.487-5.305-1.809-7.688-2.574-4.609-7.133-7.114-12.473-7.114-8.789-0.017-13.709 6.608-14.624 13.797 2.665-3.851 7.353-7.623 13.841-7.849 0 0 6.888 0 6.244 6.592h-11.045c0.4-2.348 1.165-3.705 2.157-4.957-4.713 2.191-7.653 6.035-7.583 11.827 0.052 4.487 3.148 9.097 7.583 10.801 5.235 2 12.107 0.452 15.082-1.339v-6.557c-5.079 3.548-17.012 3.826-17.099-4.244h19.726v-3.27z"></path>
</svg>
