<!-- Generated by IcoMoon.io -->
<svg version="1.1" xmlns="http://www.w3.org/2000/svg" width="36" height="32" viewBox="0 0 36 32">
<title>edit</title>
<path d="M25.267 21.195l2.010-2.010c0.314-0.314 0.86-0.094 0.86 0.358v9.132c0 1.664-1.35 3.015-3.015 3.015h-22.108c-1.664 0-3.015-1.35-3.015-3.015v-22.108c0-1.664 1.35-3.015 3.015-3.015h17.177c0.446 0 0.672 0.54 0.358 0.86l-2.010 2.010c-0.094 0.094-0.22 0.144-0.358 0.144h-15.168v22.108h22.108v-7.128c0-0.132 0.050-0.258 0.145-0.352zM35.102 8.521l-16.493 16.493-5.678 0.628c-1.645 0.182-3.046-1.206-2.864-2.864l0.628-5.678 16.493-16.493c1.438-1.438 3.762-1.438 5.194 0l2.713 2.713c1.438 1.438 1.438 3.768 0.006 5.2zM28.897 10.461l-3.649-3.649-11.669 11.676-0.458 4.101 4.101-0.458 11.676-11.669zM32.967 5.456l-2.713-2.713c-0.258-0.257-0.678-0.257-0.93 0l-1.941 1.941 3.649 3.649 1.941-1.941c0.251-0.264 0.251-0.678-0.006-0.936z"></path>
</svg>
