<!-- Generated by IcoMoon.io -->
<svg version="1.1" xmlns="http://www.w3.org/2000/svg" width="36" height="32" viewBox="0 0 36 32">
<title>edit1</title>
<path d="M25.286 4.758l5.665 5.665c0.239 0.239 0.239 0.628 0 0.867l-13.717 13.717-5.828 0.647c-0.779 0.088-1.438-0.572-1.35-1.35l0.647-5.828 13.717-13.717c0.239-0.239 0.628-0.239 0.867 0zM35.46 3.32l-3.065-3.065c-0.955-0.955-2.506-0.955-3.467 0l-2.223 2.223c-0.239 0.239-0.239 0.628 0 0.867l5.665 5.665c0.239 0.239 0.628 0.239 0.867 0l2.223-2.223c0.955-0.961 0.955-2.512 0-3.467zM24.118 21.276v6.394h-20.098v-20.098h14.433c0.201 0 0.389-0.082 0.534-0.22l2.512-2.512c0.477-0.477 0.138-1.288-0.534-1.288h-17.95c-1.664 0-3.015 1.35-3.015 3.015v22.108c0 1.664 1.35 3.015 3.015 3.015h22.108c1.664 0 3.015-1.35 3.015-3.015v-9.911c0-0.672-0.81-1.005-1.288-0.534l-2.512 2.512c-0.138 0.145-0.22 0.333-0.22 0.534z"></path>
</svg>
