<!-- Generated by IcoMoon.io -->
<svg version="1.1" xmlns="http://www.w3.org/2000/svg" width="32" height="32" viewBox="0 0 32 32">
<title>electric-meter1</title>
<path d="M5.89 9.265h20.346c0.296 0 0.535-0.24 0.535-0.535v-6.425c0-0.296-0.24-0.535-0.535-0.535h-20.346c-0.296 0-0.535 0.24-0.535 0.535v6.425c0 0.296 0.24 0.535 0.535 0.535zM6.425 2.84h19.275v5.354h-19.275zM28.377-0.373h-24.629c-0.296 0-0.535 0.24-0.535 0.535v24.629c0 0.296 0.24 0.535 0.535 0.535h1.071v5.89c0 0.296 0.24 0.535 0.535 0.535h21.417c0.296 0 0.535-0.24 0.535-0.535v-5.89h1.071c0.296 0 0.535-0.24 0.535-0.535v-24.629c0-0.296-0.24-0.535-0.535-0.535zM26.236 30.682h-20.346v-5.354h20.346zM27.842 24.257h-23.559v-23.559h23.559zM14.992 4.981h2.142v1.071h-2.142zM18.204 4.981h2.142v1.071h-2.142zM11.779 4.981h2.142v1.071h-2.142zM7.496 15.154h17.133c1.183 0 2.142-0.959 2.142-2.142s-0.959-2.142-2.142-2.142h-17.133c-1.183 0-2.142 0.959-2.142 2.142s0.959 2.142 2.142 2.142zM7.496 11.942h17.133c0.591 0 1.071 0.479 1.071 1.071s-0.479 1.071-1.071 1.071h-17.133c-0.591 0-1.071-0.479-1.071-1.071s0.479-1.071 1.071-1.071zM7.496 12.477h17.133v1.071h-17.133zM15.527 16.761h1.071v6.425h-1.071zM17.669 16.761h1.071v6.425h-1.071zM19.811 16.761h1.071v6.425h-1.071zM21.952 16.761h1.071v6.425h-1.071zM24.094 16.761h1.071v6.425h-1.071zM13.386 16.761h1.071v6.425h-1.071zM11.244 16.761h1.071v6.425h-1.071zM9.102 16.761h1.071v6.425h-1.071zM6.96 16.761h1.071v6.425h-1.071zM12.85 30.146h2.142c0.296 0 0.535-0.24 0.535-0.535v-3.212c0-0.296-0.24-0.535-0.535-0.535h-2.142c-0.296 0-0.535 0.24-0.535 0.535v3.212c0 0.296 0.24 0.535 0.535 0.535zM13.386 26.934h1.071v2.142h-1.071zM8.567 30.146h2.142c0.296 0 0.535-0.24 0.535-0.535v-3.212c0-0.296-0.24-0.535-0.535-0.535h-2.142c-0.296 0-0.535 0.24-0.535 0.535v3.212c0 0.296 0.24 0.535 0.535 0.535zM9.102 26.934h1.071v2.142h-1.071zM17.133 30.146h2.142c0.296 0 0.535-0.24 0.535-0.535v-3.212c0-0.296-0.24-0.535-0.535-0.535h-2.142c-0.296 0-0.535 0.24-0.535 0.535v3.212c0 0.296 0.24 0.535 0.535 0.535zM17.669 26.934h1.071v2.142h-1.071zM21.417 30.146h2.142c0.296 0 0.535-0.24 0.535-0.535v-3.212c0-0.296-0.24-0.535-0.535-0.535h-2.142c-0.296 0-0.535 0.24-0.535 0.535v3.212c0 0.296 0.24 0.535 0.535 0.535zM21.952 26.934h1.071v2.142h-1.071z"></path>
</svg>
