<!-- Generated by IcoMoon.io -->
<svg version="1.1" xmlns="http://www.w3.org/2000/svg" width="32" height="32" viewBox="0 0 32 32">
<title>electric-meter2</title>
<path d="M9.093 9.884c-1.477 0-2.674 1.197-2.674 2.674s1.197 2.674 2.674 2.674 2.674-1.197 2.674-2.674c-0.002-1.476-1.198-2.673-2.674-2.674zM9.093 14.164c-0.886 0-1.605-0.718-1.605-1.605s0.718-1.605 1.605-1.605 1.605 0.718 1.605 1.605-0.718 1.605-1.605 1.605zM9.093 16.303c-1.477 0-2.674 1.197-2.674 2.674s1.197 2.674 2.674 2.674 2.674-1.197 2.674-2.674c-0.002-1.476-1.198-2.673-2.674-2.674zM9.093 20.582c-0.886 0-1.605-0.718-1.605-1.605s0.718-1.605 1.605-1.605 1.605 0.718 1.605 1.605-0.718 1.605-1.605 1.605zM15.512 18.443h2.14c0.295 0 0.535-0.239 0.535-0.535v-4.279c0-0.295-0.239-0.535-0.535-0.535h-2.14c-0.295 0-0.535 0.239-0.535 0.535v4.279c0 0.295 0.239 0.535 0.535 0.535zM16.047 14.164h1.070v3.209h-1.070zM19.791 18.443h2.14c0.295 0 0.535-0.239 0.535-0.535v-4.279c0-0.295-0.239-0.535-0.535-0.535h-2.14c-0.295 0-0.535 0.239-0.535 0.535v4.279c0 0.295 0.239 0.535 0.535 0.535zM20.326 14.164h1.070v3.209h-1.070zM24.070 11.489h-10.698c-0.295 0-0.535 0.239-0.535 0.535v7.489c0 0.295 0.239 0.535 0.535 0.535h10.698c0.295 0 0.535-0.239 0.535-0.535v-7.489c0-0.295-0.239-0.535-0.535-0.535zM23.536 18.978h-9.628v-6.419h9.628zM31.559 9.884h-4.814v-1.070c0-0.591-0.479-1.070-1.070-1.070h-20.326c-0.591 0-1.070 0.479-1.070 1.070v1.070h-3.744c-0.295 0-0.535 0.239-0.535 0.535v10.698c0 0.295 0.239 0.535 0.535 0.535h3.744v1.070c0 0.591 0.479 1.070 1.070 1.070h20.326c0.591 0 1.070-0.479 1.070-1.070v-1.070h4.814c0.295 0 0.535-0.239 0.535-0.535v-10.698c0-0.295-0.239-0.535-0.535-0.535zM1.070 10.954h1.070v9.628h-1.070zM3.209 20.582v-9.628h1.070v9.628zM5.349 22.722v-13.907h20.326v13.907zM26.745 10.954h1.605v9.628h-1.605zM31.024 20.582h-1.605v-9.628h1.605z"></path>
</svg>
