<!-- Generated by IcoMoon.io -->
<svg version="1.1" xmlns="http://www.w3.org/2000/svg" width="32" height="32" viewBox="0 0 32 32">
<title>electric-meter</title>
<path d="M5.884 9.35h20.326c0.295 0 0.535-0.239 0.535-0.535v-6.419c0-0.295-0.239-0.535-0.535-0.535h-20.326c-0.295 0-0.535 0.239-0.535 0.535v6.419c0 0.295 0.239 0.535 0.535 0.535zM6.419 2.931h19.256v5.349h-19.256zM28.35-0.279h-24.605c-0.295 0-0.535 0.239-0.535 0.535v24.605c0 0.295 0.239 0.535 0.535 0.535h1.070v5.884c0 0.295 0.239 0.535 0.535 0.535h21.396c0.295 0 0.535-0.239 0.535-0.535v-5.884h1.070c0.295 0 0.535-0.239 0.535-0.535v-24.605c0-0.295-0.239-0.535-0.535-0.535zM26.21 30.745h-20.326v-5.349h20.326zM27.815 24.327h-23.536v-23.536h23.536zM14.977 5.070h2.14v1.070h-2.14zM18.187 5.070h2.14v1.070h-2.14zM11.768 5.070h2.14v1.070h-2.14zM7.489 15.233h17.117c1.182 0 2.14-0.958 2.14-2.14s-0.958-2.14-2.14-2.14h-17.117c-1.182 0-2.14 0.958-2.14 2.14s0.958 2.14 2.14 2.14zM7.489 12.024h17.117c0.591 0 1.070 0.479 1.070 1.070s-0.479 1.070-1.070 1.070h-17.117c-0.591 0-1.070-0.479-1.070-1.070s0.479-1.070 1.070-1.070zM7.489 12.559h17.117v1.070h-17.117zM15.512 16.838h1.070v6.419h-1.070zM17.652 16.838h1.070v6.419h-1.070zM19.791 16.838h1.070v6.419h-1.070zM21.931 16.838h1.070v6.419h-1.070zM24.070 16.838h1.070v6.419h-1.070zM13.372 16.838h1.070v6.419h-1.070zM11.233 16.838h1.070v6.419h-1.070zM9.093 16.838h1.070v6.419h-1.070zM6.954 16.838h1.070v6.419h-1.070zM12.838 30.211h2.14c0.295 0 0.535-0.239 0.535-0.535v-3.209c0-0.295-0.239-0.535-0.535-0.535h-2.14c-0.295 0-0.535 0.239-0.535 0.535v3.209c0 0.295 0.239 0.535 0.535 0.535zM13.372 27.001h1.070v2.14h-1.070zM8.558 30.211h2.14c0.295 0 0.535-0.239 0.535-0.535v-3.209c0-0.295-0.239-0.535-0.535-0.535h-2.14c-0.295 0-0.535 0.239-0.535 0.535v3.209c0 0.295 0.239 0.535 0.535 0.535zM9.093 27.001h1.070v2.14h-1.070zM17.117 30.211h2.14c0.295 0 0.535-0.239 0.535-0.535v-3.209c0-0.295-0.239-0.535-0.535-0.535h-2.14c-0.295 0-0.535 0.239-0.535 0.535v3.209c0 0.295 0.239 0.535 0.535 0.535zM17.652 27.001h1.070v2.14h-1.070zM21.396 30.211h2.14c0.295 0 0.535-0.239 0.535-0.535v-3.209c0-0.295-0.239-0.535-0.535-0.535h-2.14c-0.295 0-0.535 0.239-0.535 0.535v3.209c0 0.295 0.239 0.535 0.535 0.535zM21.931 27.001h1.070v2.14h-1.070z"></path>
</svg>
