<!-- Generated by IcoMoon.io -->
<svg version="1.1" xmlns="http://www.w3.org/2000/svg" width="32" height="32" viewBox="0 0 32 32">
<title>elf-file-format-variant</title>
<path d="M27.737 7.239c-0.002-0.147-0.049-0.293-0.15-0.408l-6.2-7.082c-0.001-0.002-0.003-0.003-0.005-0.004-0.037-0.042-0.079-0.075-0.125-0.105-0.013-0.009-0.027-0.017-0.041-0.025-0.040-0.022-0.081-0.039-0.124-0.052-0.012-0.003-0.022-0.008-0.034-0.011-0.047-0.011-0.095-0.018-0.145-0.018h-15.238c-0.695 0-1.261 0.566-1.261 1.261v29.635c0 0.695 0.566 1.261 1.261 1.261h20.807c0.696 0 1.261-0.566 1.261-1.261v-23.119c-0-0.024-0.004-0.047-0.006-0.071zM12.691 29.701h-4.88v-7.649h4.721v1.419h-2.985v1.589h2.815v1.407h-2.815v1.816h3.143v1.419zM18.649 29.701h-4.778v-7.649h1.736v6.196h3.041v1.453zM24.347 23.471h-2.94v1.747h2.746v1.407h-2.746v3.076h-1.736v-7.649h4.676v1.419zM5.675 20.944v-20.15h14.607v6.452c0 0.348 0.282 0.631 0.631 0.631h5.569l0.001 13.068h-20.808zM16.365 17.526c-0.248-0.159-0.45-0.345-0.586-0.6-0.121-0.228-0.264-0.249-0.264 0.010 0 0.267 0.162 0.456 0.495 0.643 0.106 0.059 0.247 0.095 0.25 0.244 0.003 0.128-0.11 0.19-0.212 0.225-0.575 0.198-1.087 0.501-1.585 0.851-0.367 0.257-0.776 0.062-0.786-0.349-0.016-0.615 0.031-1.231-0.075-1.843-0.021-0.116-0.011-0.267 0.14-0.308 0.137-0.037 0.183 0.094 0.237 0.185 0.183 0.31 0.456 0.38 0.778 0.281 0.444-0.137 0.935-0.842 0.88-1.307-0.102-0.873-0.362-1.707-0.958-2.366-0.169-0.187-0.33-0.391-0.46-0.608-0.036-0.062-0.069-0.125-0.101-0.188-0.161-0.299-0.325-0.73-0.366-1.032-0.041-0.238-0.035-1.053-0.182-1.502-0.141-0.4-0.407-0.794-0.786-1-0.27-0.147-0.587-0.249-0.896-0.262-0.173-0.007-0.359 0.010-0.527 0.051-0.607 0.151-0.985 0.643-1.057 1.406-0.021 0.217-0.021 0.44 0.006 0.656 0.123 1.013 0.017 1.92-0.74 2.737-0.526 0.569-0.64 1.411-0.956 2.122-0.114 0.257-0.101 0.562 0.35 0.523 0.142-0.013 0.252 0.104 0.343 0.206 0.487 0.545 0.886 1.151 1.205 1.806 0.114 0.235 0.193 0.505-0.004 0.739-0.184 0.218-0.451 0.19-0.691 0.137-0.616-0.134-1.226-0.29-1.839-0.438-0.273-0.066-0.36-0.222-0.238-0.487 0.071-0.153 0.103-0.319 0.027-0.478-0.173-0.36-0.060-0.523 0.332-0.571 0.186-0.023 0.335-0.092 0.418-0.235 0.13-0.224-0.044-0.264-0.264-0.126-0.154 0.096-0.323 0.138-0.51 0.155-0.27 0.025-0.357 0.214-0.306 0.478 0.053 0.267 0.099 0.525-0.003 0.806-0.158 0.428-0.052 0.612 0.402 0.707 0.23 0.049 2.173 0.559 2.209 0.575 0.345 0.15 1.076-0.809 1.343-0.809 0.020 0 0.038 0 0.058 0 0.482 0 1.004 0.157 1.464 0.153 0.174-0.001 0.309 0.147 0.434 0.276 0.429 0.437 0.949 0.502 1.416 0.103 0.326-0.278 0.674-0.494 1.064-0.673 0.018-0.008 0.036-0.014 0.054-0.020 0.030-0.010 0.231-0.137 0.413-0.321 0.211-0.213 0.29-0.412 0.074-0.55zM13.060 17.629c-0.564 0.582-1.214 0.688-1.946 0.363-0.060-0.026-0.426-0.131-0.302-0.278 0.211-0.251 0.138-0.484-0.080-0.689-0.151-0.142-0.533-0.476-0.79-0.772-0.17-0.195-0.353-0.579-0.4-0.833-0.092-0.493-0.024-1.061-0.024-1.061 0.009-0.056 0.029-0.082 0.051-0.093 0.055-0.026 0.046 0.233 0.063 0.491 0.002 0.026 0.004 0.052 0.007 0.077 0.030 0.257 0.146 0.247 0.216-0.003 0.108-0.381 0.265-0.749 0.463-1.115 0.161-0.297 0.118-0.711 0.31-1.043 0.112-0.194 0.181-0.259 0.335-0.052 0.227 0.305 0.492 0.297 0.786 0.091 0.213-0.149 0.438-0.281 0.655-0.425 0.085-0.056 0.239-0.104 0.158-0.235-0.072-0.117-0.198-0.028-0.295 0.016-0.17 0.077-0.332 0.179-0.524 0.24-0.247 0.079-0.268-0.033-0.027-0.128 0.267-0.105 0.514-0.202 0.759-0.301 0.087-0.035 0.211-0.090 0.154-0.198-0.066-0.123-0.164-0.012-0.243 0.026-0.35 0.166-0.711 0.288-1.104 0.283-0.248-0.003-0.443-0.134-0.505-0.352-0.060-0.213 0.191-0.257 0.312-0.375 0.043-0.042 0.087-0.080 0.13-0.111 0.077-0.055 0.147-0.096 0.146-0.116s0-0.035 0-0.035c0.021-0.153 0.016-0.266-0.003-0.348-0.043-0.189-0.412-0.26-0.525-0.12-0.1 0.123-0.1 0.307-0.1 0.307 0.005 0.070-0.012 0.108-0.037 0.127-0.060 0.046-0.141-0.214-0.063-0.46 0.086-0.272 0.239-0.315 0.406-0.315 0.612-0 0.56 0.849 0.541 0.866-0.002 0.002-0.004 0.003-0.006 0.004-0.003 0.002 0.061 0.021 0.13 0.067s0.14-0.003 0.15-0.128c0.006-0.076 0.008-0.153 0.013-0.227 0.005-0.498 0.286-0.611 0.498-0.582 0.628 0.084 0.55 0.849 0.531 0.866-0.068 0.057-0.115 0.077-0.148 0.077-0.094-0-0.061-0.171-0.055-0.219 0.005-0.030 0.007-0.059 0.010-0.086 0-0.053-0.002-0.107-0.008-0.162-0.011-0.089-0.062-0.207-0.116-0.244s-0.305-0.068-0.42 0.088c-0.116 0.156-0.114 0.418-0.104 0.526 0.007 0.074 0.025 0.144 0.074 0.175 0.103 0.066 0.214 0.128 0.33 0.165 0.233 0.074 0.342 0.2 0.276 0.458-0.052 0.206-0.004 0.405 0.104 0.592 0.365 0.636 0.777 1.795 0.956 2.62 0.055 0.253 0.141 0.404 0.194 0.313s0.119-0.38 0.132-0.638c0.016-0.302-0.003-0.703-0.152-1.049-0.102-0.238-0.072-0.275 0.075-0.062 0.164 0.24 0.319 0.628 0.269 1.215-0.022 0.258 0.011 0.545 0.117 0.647s0.024 0.087-0.195 0.114c-0.218 0.027-0.352 0.227-0.369 0.293-0.012 0.050-0.032 0.086-0.060 0.104-0.527 0.317-0.455 0.783-0.415 1.263 0.012 0.133-0.288 0.333-0.334 0.381zM11.278 10.655c0.063 0.133 0.006 0.152-0.049 0.028s-0.015-0.16 0.049-0.028zM12.524 10.598c-0.079-0.108-0.026-0.162 0.066-0.049s0.012 0.156-0.066 0.049zM19.967 6.936c-0.286-0.111-0.522-0.341-0.64-0.627-0.119-0.285-0.115-0.613 0.009-0.897 0.011-0.026 0.006-0.057-0.015-0.078l-0.617-0.617c-0.020-0.021-0.052-0.026-0.078-0.015-0.284 0.125-0.611 0.128-0.896 0.009-0.286-0.118-0.516-0.352-0.628-0.641-0.007-0.018-0.018-0.044-0.066-0.044l-0.873-0c-0.029 0-0.055 0.019-0.066 0.046-0.112 0.288-0.341 0.522-0.627 0.641-0.285 0.118-0.612 0.115-0.896-0.010-0.026-0.011-0.057-0.006-0.078 0.015l-0.618 0.618c-0.020 0.020-0.026 0.051-0.014 0.078 0.125 0.284 0.128 0.61 0.010 0.896-0.119 0.286-0.353 0.515-0.641 0.627-0.026 0.011-0.044 0.037-0.044 0.066l-0.001 0.874c0.001 0.048 0.026 0.058 0.046 0.065 0.147 0.058 0.28 0.144 0.393 0.257 0.107 0.107 0.19 0.231 0.247 0.371 0.119 0.286 0.116 0.613-0.009 0.897-0.011 0.026-0.006 0.058 0.015 0.078l0.617 0.617c0.021 0.021 0.052 0.027 0.078 0.015 0.284-0.124 0.611-0.128 0.897-0.009 0.279 0.116 0.502 0.34 0.617 0.616 0.029-0.023 0.061-0.043 0.097-0.057 0.051-0.020 0.092-0.059 0.111-0.108 0.020-0.047 0.019-0.105-0.002-0.152-0.063-0.147-0.031-0.311 0.079-0.421l0.293-0.292c0.11-0.111 0.274-0.142 0.418-0.081 0.050 0.022 0.108 0.023 0.156 0.003s0.087-0.060 0.106-0.108c0.058-0.146 0.2-0.243 0.355-0.243h0.413c0.104 0.001 0.199 0.040 0.269 0.11l0.049 0.049 0.034 0.076c0.024 0.062 0.062 0.097 0.109 0.116 0.049 0.020 0.106 0.020 0.154-0.002 0.138-0.059 0.29-0.032 0.4 0.064l0.192-0.193c0.020-0.020 0.026-0.052 0.015-0.079-0.124-0.284-0.127-0.61-0.009-0.896 0.119-0.287 0.352-0.515 0.641-0.628 0.026-0.010 0.045-0.036 0.045-0.065v-0.873c-0.001-0.049-0.026-0.059-0.045-0.067zM17.801 8.639c-0.662 0.662-1.739 0.662-2.401-0.001s-0.662-1.738 0.001-2.4c0.661-0.662 1.739-0.663 2.401-0.001s0.661 1.74 0 2.401zM19.178 11.695c0.056-0.136 0.167-0.244 0.303-0.297 0.012-0.005 0.021-0.018 0.021-0.031v-0.414c0-0.023-0.013-0.028-0.021-0.032-0.136-0.052-0.248-0.161-0.303-0.297-0.056-0.136-0.055-0.29 0.005-0.425 0.006-0.012 0.002-0.027-0.007-0.037l-0.292-0.292c-0.010-0.010-0.025-0.013-0.037-0.007-0.134 0.059-0.289 0.060-0.424 0.005s-0.244-0.167-0.297-0.304c-0.004-0.008-0.009-0.021-0.031-0.021h-0.414c-0.013 0-0.026 0.009-0.032 0.022-0.053 0.137-0.161 0.247-0.296 0.303s-0.29 0.055-0.424-0.004c-0.012-0.005-0.028-0.003-0.038 0.007l-0.292 0.292c-0.010 0.010-0.012 0.025-0.006 0.037 0.059 0.134 0.061 0.289 0.005 0.424s-0.167 0.245-0.304 0.298c-0.012 0.005-0.021 0.018-0.021 0.031v0.414c0 0.023 0.012 0.027 0.021 0.031 0.070 0.027 0.133 0.068 0.186 0.122 0.050 0.051 0.090 0.109 0.117 0.175 0.056 0.136 0.055 0.291-0.005 0.425-0.006 0.012-0.002 0.028 0.007 0.037l0.292 0.292c0.009 0.010 0.024 0.013 0.036 0.007 0.135-0.059 0.289-0.061 0.425-0.004s0.244 0.167 0.297 0.303c0.004 0.009 0.009 0.021 0.031 0.021l0.414-0c0.013 0 0.026-0.008 0.031-0.021 0.054-0.137 0.162-0.247 0.297-0.303s0.29-0.055 0.425 0.005c0.012 0.005 0.027 0.003 0.037-0.007l0.292-0.292c0.009-0.010 0.012-0.025 0.007-0.037-0.059-0.135-0.061-0.29-0.004-0.425zM17.318 11.729c-0.313-0.314-0.313-0.823 0.001-1.137s0.823-0.314 1.137-0c0.313 0.314 0.313 0.824-0 1.137s-0.824 0.314-1.137 0z"></path>
</svg>
