<!-- Generated by IcoMoon.io -->
<svg version="1.1" xmlns="http://www.w3.org/2000/svg" width="32" height="32" viewBox="0 0 32 32">
<title>elf-file</title>
<path d="M27.473 6.69l-5.95-6.785c-0.207-0.236-0.506-0.371-0.819-0.371h-15.029c-0.696 0-1.261 0.565-1.261 1.261v29.635c0 0.697 0.565 1.261 1.261 1.261h20.807c0.697 0 1.261-0.565 1.261-1.261v-23.020c0-0.264-0.096-0.52-0.27-0.718zM13.838 29.194h-3.321v-5.206h3.213v0.965h-2.031v1.081h1.916v0.958h-1.916v1.236h2.14v0.965zM17.893 29.194h-3.252v-5.206h1.182v4.217h2.070v0.989zM21.771 24.954h-2v1.189h1.869v0.958h-1.869v2.093h-1.182v-5.206h3.182v0.965zM5.675 20.944v0-20.15h14.607v6.452c0 0.348 0.282 0.631 0.631 0.631h5.569l0.001 13.068h-20.808zM16.229 10.168c0.202 0 0.366-0.164 0.366-0.366v-1.296c0-0.202-0.164-0.366-0.366-0.366h-0.753c-0.091-0.343-0.228-0.668-0.403-0.968l0.534-0.534c0.143-0.143 0.143-0.375 0-0.518l-0.917-0.917c-0.143-0.143-0.375-0.143-0.518 0l-0.534 0.534c-0.3-0.175-0.624-0.311-0.968-0.403v-0.753c0-0.202-0.164-0.366-0.366-0.366h-1.296c-0.202 0-0.366 0.164-0.366 0.366v0.753c-0.343 0.091-0.668 0.228-0.968 0.403l-0.534-0.534c-0.143-0.143-0.375-0.143-0.518 0l-0.917 0.917c-0.143 0.143-0.143 0.375 0 0.518l0.534 0.534c-0.175 0.3-0.311 0.624-0.403 0.968h-0.753c-0.202 0-0.366 0.164-0.366 0.366v1.296c0 0.202 0.164 0.366 0.366 0.366h0.753c0.091 0.343 0.228 0.668 0.403 0.968l-0.534 0.534c-0.143 0.143-0.143 0.375 0 0.518l0.917 0.917c0.143 0.143 0.375 0.143 0.518 0l0.534-0.534c0.3 0.175 0.624 0.311 0.968 0.403v0.753c0 0.202 0.164 0.366 0.366 0.366h1.296c0.202 0 0.366-0.164 0.366-0.366v-0.753c0.343-0.091 0.668-0.228 0.968-0.403l0.534 0.534c0.143 0.143 0.375 0.143 0.518 0l0.917-0.917c0.143-0.143 0.143-0.375 0-0.518l-0.534-0.534c0.175-0.3 0.311-0.624 0.403-0.968h0.753zM11.656 11.076c-1.060 0-1.923-0.863-1.923-1.923s0.863-1.923 1.923-1.923 1.923 0.863 1.923 1.923-0.863 1.923-1.923 1.923zM23.148 14.23h-0.539c-0.065-0.245-0.163-0.477-0.288-0.692l0.382-0.382c0.102-0.102 0.102-0.268 0-0.37l-0.656-0.656c-0.102-0.102-0.268-0.102-0.37 0l-0.382 0.382c-0.215-0.125-0.447-0.223-0.692-0.288v-0.539c0-0.145-0.117-0.262-0.262-0.262h-0.927c-0.145 0-0.262 0.117-0.262 0.262v0.539c-0.245 0.065-0.477 0.163-0.692 0.288l-0.382-0.382c-0.102-0.102-0.268-0.102-0.37 0l-0.656 0.656c-0.102 0.102-0.102 0.268 0 0.37l0.382 0.382c-0.125 0.215-0.223 0.447-0.288 0.692h-0.539c-0.145 0-0.262 0.117-0.262 0.262v0.927c0 0.145 0.117 0.262 0.262 0.262h0.539c0.065 0.245 0.163 0.477 0.288 0.692l-0.382 0.382c-0.102 0.102-0.102 0.268 0 0.37l0.656 0.656c0.102 0.102 0.268 0.102 0.37 0l0.382-0.382c0.215 0.125 0.447 0.223 0.692 0.288v0.539c0 0.145 0.117 0.262 0.262 0.262h0.927c0.145 0 0.262-0.117 0.262-0.262v-0.539c0.245-0.065 0.477-0.163 0.692-0.288l0.382 0.382c0.102 0.102 0.268 0.102 0.37 0l0.656-0.656c0.102-0.102 0.102-0.268 0-0.37l-0.382-0.382c0.125-0.215 0.223-0.447 0.288-0.692h0.539c0.145 0 0.262-0.117 0.262-0.262v-0.927c0-0.145-0.117-0.262-0.262-0.262zM19.878 16.331c-0.758 0-1.375-0.617-1.375-1.375s0.617-1.375 1.375-1.375 1.375 0.617 1.375 1.375c0 0.758-0.617 1.375-1.375 1.375z"></path>
</svg>
