<!-- Generated by IcoMoon.io -->
<svg version="1.1" xmlns="http://www.w3.org/2000/svg" width="32" height="32" viewBox="0 0 32 32">
<title>ellipsis-h</title>
<path d="M20.6 15.611c0 2.5-2.022 4.522-4.522 4.522s-4.522-2.022-4.522-4.522 2.022-4.522 4.522-4.522 4.522 2.022 4.522 4.522zM27.132 11.089c-2.5 0-4.522 2.022-4.522 4.522s2.022 4.522 4.522 4.522 4.522-2.022 4.522-4.522-2.022-4.522-4.522-4.522zM5.024 11.089c-2.5 0-4.522 2.022-4.522 4.522s2.022 4.522 4.522 4.522 4.522-2.022 4.522-4.522-2.022-4.522-4.522-4.522z"></path>
</svg>
