<!-- Generated by IcoMoon.io -->
<svg version="1.1" xmlns="http://www.w3.org/2000/svg" width="12" height="32" viewBox="0 0 12 32">
<title>ellipsis-v</title>
<path d="M6.029 11.089c2.5 0 4.522 2.022 4.522 4.522s-2.022 4.522-4.522 4.522-4.522-2.022-4.522-4.522 2.022-4.522 4.522-4.522zM1.507 4.557c0 2.5 2.022 4.522 4.522 4.522s4.522-2.022 4.522-4.522-2.022-4.522-4.522-4.522-4.522 2.022-4.522 4.522zM1.507 26.665c0 2.5 2.022 4.522 4.522 4.522s4.522-2.022 4.522-4.522-2.022-4.522-4.522-4.522-4.522 2.022-4.522 4.522z"></path>
</svg>
