<!-- Generated by IcoMoon.io -->
<svg version="1.1" xmlns="http://www.w3.org/2000/svg" width="31" height="32" viewBox="0 0 31 32">
<title>ello</title>
<path d="M15.576 0.035c-8.603 0-15.576 6.973-15.576 15.576s6.973 15.576 15.576 15.576 15.576-6.973 15.576-15.576-6.973-15.576-15.576-15.576zM24.61 17.948c-1.038 4.102-4.776 7.009-9.034 7.009s-7.996-2.907-9.034-7.009c-0.104-0.467 0.156-0.987 0.623-1.090s0.987 0.156 1.090 0.623c0.882 3.323 3.894 5.659 7.321 5.659s6.438-2.336 7.321-5.659c0.104-0.467 0.623-0.779 1.090-0.623 0.467 0.104 0.779 0.623 0.623 1.090z"></path>
</svg>
