<!-- Generated by IcoMoon.io -->
<svg version="1.1" xmlns="http://www.w3.org/2000/svg" width="40" height="32" viewBox="0 0 40 32">
<title>ember</title>
<path d="M40.19 15.523c-0.069-0.672-0.672-0.427-0.672-0.427s-0.98 0.76-1.84 0.672c-0.86-0.082-0.59-2.010-0.59-2.010s0.188-1.765-0.32-1.909c-0.509-0.151-1.13 0.458-1.13 0.458s-0.779 0.86-1.149 1.96l-0.1 0.031s0.119-1.922-0.019-2.362c-0.1-0.22-1.030-0.201-1.181 0.188s-0.892 3.090-0.942 4.221c0 0-1.451 1.231-2.72 1.432s-1.57-0.59-1.57-0.59 3.442-0.961 3.322-3.712c-0.119-2.751-2.776-1.733-3.078-1.507-0.289 0.22-1.847 1.156-2.299 3.75-0.012 0.088-0.044 0.471-0.044 0.471s-1.331 0.892-2.073 1.13c0 0 2.073-3.492-0.458-5.081-1.149-0.691-2.060 0.76-2.060 0.76s3.423-3.812 2.669-7.034c-0.364-1.532-1.13-1.702-1.834-1.451-1.068 0.421-1.476 1.049-1.476 1.049s-1.382 2.010-1.702 4.993-0.791 6.601-0.791 6.601-0.66 0.641-1.269 0.672-0.339-1.802-0.339-1.802 0.471-2.801 0.44-3.272-0.069-0.729-0.622-0.892c-0.559-0.17-1.162 0.54-1.162 0.54s-1.602 2.431-1.74 2.801l-0.082 0.151-0.082-0.1s1.13-3.31 0.050-3.36c-1.080-0.050-1.79 1.181-1.79 1.181s-1.231 2.060-1.281 2.292l-0.082-0.1s0.509-2.399 0.402-2.99c-0.1-0.59-0.66-0.471-0.66-0.471s-0.71-0.082-0.892 0.371-0.86 3.473-0.942 4.44c0 0-1.771 1.269-2.939 1.281-1.162 0.019-1.049-0.741-1.049-0.741s4.271-1.463 3.103-4.346c-0.521-0.741-1.13-0.973-1.991-0.961-0.86 0.019-1.903 0.54-2.594 2.091-0.333 0.741-0.427 1.445-0.49 1.978 0 0-0.772 0.151-1.181-0.182s-0.628 0-0.628 0-0.703 0.879-0.006 1.149 1.765 0.383 1.765 0.383c0.1 0.471 0.389 1.225 1.231 1.865 1.269 0.961 3.693-0.082 3.693-0.082l0.999-0.553s0.031 0.917 0.76 1.049c0.729 0.132 1.030 0.063 2.292-3.008 0.741-1.57 0.791-1.482 0.791-1.482l0.082-0.019s-0.572 2.939-0.352 3.75c0.22 0.804 1.181 0.716 1.181 0.716s0.521 0.151 0.942-1.331c0.421-1.482 1.231-3.134 1.231-3.134h0.1s-0.352 3.021 0.188 4.001c0.54 0.98 1.941 0.333 1.941 0.333s0.98-0.49 1.13-0.641c0 0 1.162 0.992 2.801 0.81 3.662-0.722 4.968-1.627 4.968-1.627s0.628 1.532 2.581 1.677c2.23 0.17 3.442-1.168 3.442-1.168s-0.019 0.848 0.76 1.168c0.779 0.32 1.3-1.432 1.3-1.432l1.3-3.592h0.119s0.069 2.343 1.35 2.713 2.952-0.86 2.952-0.86 0.402-0.22 0.333-0.898zM3.888 15.856c0.050-2.010 1.369-2.883 1.821-2.449 0.458 0.44 0.289 1.382-0.572 1.972-0.86 0.597-1.25 0.477-1.25 0.477zM21.021 8.081s1.2-3.121 1.482-1.602-2.512 6.042-2.512 6.042c0.031-1.018 1.030-4.44 1.030-4.44zM22.453 16.773c-0.791 2.073-2.72 1.231-2.72 1.231s-0.22-0.741 0.402-2.82 2.091-1.269 2.091-1.269 1.018 0.779 0.226 2.858zM27.767 15.856s-0.188-0.66 0.509-1.922c0.691-1.269 1.231-0.572 1.231-0.572s0.59 0.641-0.082 1.602-1.658 0.892-1.658 0.892z"></path>
</svg>
