<!-- Generated by IcoMoon.io -->
<svg version="1.1" xmlns="http://www.w3.org/2000/svg" width="32" height="32" viewBox="0 0 32 32">
<title>eml-file</title>
<path d="M27.473 6.69l-5.95-6.785c-0.207-0.236-0.506-0.371-0.819-0.371h-15.029c-0.696 0-1.261 0.565-1.261 1.261v29.635c0 0.697 0.565 1.261 1.261 1.261h20.807c0.697 0 1.261-0.565 1.261-1.261v-23.020c0-0.264-0.096-0.52-0.27-0.718zM12.658 28.768h-3.271v-5.128h3.165v0.951h-2.001v1.065h1.887v0.943h-1.887v1.217h2.107v0.951zM17.862 28.768l-0.076-1.963c-0.023-0.616-0.046-1.362-0.046-2.107h-0.023c-0.16 0.654-0.373 1.385-0.571 1.986l-0.624 2.001h-0.905l-0.548-1.986c-0.167-0.601-0.342-1.331-0.464-2.001h-0.015c-0.030 0.692-0.053 1.483-0.091 2.122l-0.091 1.948h-1.073l0.327-5.128h1.544l0.502 1.712c0.16 0.593 0.32 1.232 0.434 1.833h0.023c0.145-0.593 0.32-1.27 0.487-1.841l0.548-1.704h1.514l0.282 5.128h-1.134zM23.089 28.768h-3.203v-5.128h1.164v4.154h2.039v0.974zM5.675 20.944v0-20.15h14.607v6.452c0 0.348 0.282 0.631 0.631 0.631h5.569l0.001 13.068h-20.808zM21.311 9.753h-10.466c-0.623 0-1.129 0.507-1.129 1.129v6.419c0 0.623 0.507 1.129 1.129 1.129h10.466c0.623 0 1.129-0.507 1.129-1.129v-6.419c0-0.623-0.507-1.129-1.129-1.129zM10.845 10.674h10.466c0.038 0 0.075 0.010 0.107 0.030l-5.4 3.638-5.283-3.636c0.032-0.020 0.070-0.032 0.11-0.032zM10.637 16.619v-4.864l3.561 2.451-3.561 2.413zM21.311 17.51h-10.347l4.048-2.743 1 0.688 1.187-0.799 4.2 2.834c-0.027 0.013-0.057 0.020-0.088 0.020zM21.52 16.461l-3.497-2.36 3.497-2.356v4.716z"></path>
</svg>
