<!-- Generated by IcoMoon.io -->
<svg version="1.1" xmlns="http://www.w3.org/2000/svg" width="31" height="32" viewBox="0 0 31 32">
<title>empire</title>
<path d="M18.063 2.937c-0.678-0.138-1.388-0.207-2.104-0.226v-1.143c4.905 0.138 9.176 2.763 11.594 6.695l-0.992 0.572c-0.383-0.609-0.798-1.181-1.269-1.702l-1.13 0.973c-1.633-1.859-3.856-3.184-6.4-3.668l0.301-1.501zM3.354 19.782l1.445-0.484c-0.402-1.149-0.628-2.399-0.628-3.687s0.207-2.537 0.609-3.687l-1.426-0.484c0.226-0.678 0.521-1.338 0.854-1.947l-0.992-0.572c-1.080 1.978-1.702 4.271-1.702 6.689s0.628 4.71 1.702 6.695l0.992-0.572c-0.333-0.628-0.609-1.275-0.854-1.953zM13.384 26.791c-2.537-0.503-4.761-1.828-6.4-3.687l-1.13 0.992c-0.471-0.54-0.904-1.112-1.269-1.721l-1.005 0.59c2.418 3.913 6.708 6.551 11.613 6.695v-1.149c-0.71-0.019-1.426-0.107-2.104-0.226l0.295-1.495zM5.86 7.126l1.13 0.973c1.633-1.859 3.856-3.184 6.4-3.668l-0.295-1.495c0.678-0.138 1.388-0.207 2.104-0.226v-1.143c-4.905 0.138-9.176 2.763-11.594 6.695l0.992 0.572c0.377-0.609 0.791-1.187 1.262-1.708zM25.292 24.096l-1.13-0.992c-1.633 1.859-3.856 3.184-6.4 3.687l0.295 1.495c-0.678 0.119-1.388 0.207-2.104 0.226v1.149c4.905-0.138 9.195-2.782 11.613-6.695l-1.011-0.59c-0.358 0.609-0.791 1.181-1.262 1.721zM31.152 15.611c0 8.604-6.971 15.576-15.576 15.576s-15.576-6.971-15.576-15.576 6.971-15.576 15.576-15.576 15.576 6.971 15.576 15.576zM30.386 15.611c0-8.171-6.639-14.81-14.81-14.81s-14.81 6.639-14.81 14.81 6.639 14.81 14.81 14.81 14.81-6.639 14.81-14.81zM27.936 8.916l-0.992 0.572c0.333 0.609 0.628 1.269 0.854 1.947l-1.426 0.484c0.402 1.149 0.609 2.399 0.609 3.687s-0.226 2.537-0.628 3.687l1.445 0.484c-0.245 0.678-0.521 1.319-0.854 1.947l0.992 0.572c1.080-1.972 1.702-4.265 1.702-6.683s-0.622-4.71-1.702-6.695zM16.443 20.077c1.024-0.207 1.909-0.729 2.556-1.476l3.216 2.814c0.747-0.854 1.338-1.84 1.702-2.939l-4.032-1.388c0.157-0.471 0.245-0.955 0.245-1.476s-0.088-1.011-0.245-1.476l4.051-1.388c-0.383-1.093-0.973-2.085-1.721-2.939l-3.216 2.814c-0.641-0.747-1.532-1.287-2.556-1.495l0.835-4.17c-0.54-0.119-1.112-0.176-1.702-0.176s-1.162 0.050-1.702 0.176l0.835 4.17c-1.024 0.207-1.909 0.747-2.556 1.495l-3.216-2.814c-0.747 0.854-1.338 1.84-1.721 2.939l4.051 1.388c-0.157 0.471-0.245 0.955-0.245 1.476s0.088 1.011 0.245 1.476l-4.032 1.388c0.364 1.093 0.955 2.085 1.702 2.939l3.216-2.814c0.641 0.747 1.533 1.269 2.556 1.476l-0.835 4.189c0.54 0.107 1.112 0.176 1.702 0.176s1.162-0.069 1.702-0.176l-0.835-4.189z"></path>
</svg>
