<!-- Generated by IcoMoon.io -->
<svg version="1.1" xmlns="http://www.w3.org/2000/svg" width="32" height="32" viewBox="0 0 32 32">
<title>engine</title>
<path d="M27.366 11.15c-0.519 0-0.939 0.421-0.939 0.939v0.939h-1.879v-0.939c0-0.519-0.421-0.939-0.939-0.939h-1.49l-1.604-1.604c-0.176-0.176-0.415-0.275-0.664-0.275h-0.939v-1.879h0.939c0.519 0 0.939-0.421 0.939-0.939s-0.421-0.939-0.939-0.939h-9.519c-0.519 0-0.939 0.421-0.939 0.939s0.421 0.939 0.939 0.939h0.939v1.879h-0.939c-0.249 0-0.488 0.099-0.664 0.275l-1.604 1.604h-3.368c-0.519 0-0.939 0.421-0.939 0.939v3.757h-1.879v-3.757c0-0.519-0.421-0.939-0.939-0.939s-0.939 0.421-0.939 0.939v9.393c0 0.519 0.421 0.939 0.939 0.939s0.939-0.421 0.939-0.939v-3.757h1.879v3.757c0 0.519 0.421 0.939 0.939 0.939h3.368l3.482 3.482c0.176 0.176 0.415 0.275 0.664 0.275h9.519c0.356 0 0.681-0.201 0.84-0.519l1.619-3.238h2.237v0.939c0 0.519 0.421 0.939 0.939 0.939 2.59 0 4.697-2.107 4.697-4.697v-3.757c0-2.59-2.107-4.697-4.697-4.697zM7.515 20.543h-1.879v-7.515h1.879v7.515zM13.151 7.393h3.883v1.879h-3.883v-1.879zM22.669 21.261l-1.52 3.040h-8.549l-3.207-3.207v-8.615l1.328-1.328c0.382 0 8.404 0 8.74 0l1.604 1.604c0.176 0.176 0.415 0.275 0.664 0.275h0.939c0 0.384 0 7.927 0 8.232zM26.427 20.543h-1.879v-5.636h1.879v5.636zM30.184 19.604c0 1.225-0.785 2.269-1.879 2.657 0-0.66 0-8.823 0-9.071 1.093 0.388 1.879 1.432 1.879 2.657v3.757zM17.973 16.786h-2.237l1.199-2.398c0.232-0.464 0.044-1.028-0.42-1.26s-1.028-0.044-1.26 0.42l-1.879 3.757c-0.312 0.623 0.142 1.359 0.84 1.359h2.237l-1.199 2.398c-0.232 0.464-0.044 1.028 0.42 1.26s1.028 0.044 1.26-0.42l1.879-3.757c0.312-0.623-0.142-1.359-0.84-1.359z"></path>
</svg>
