<!-- Generated by IcoMoon.io -->
<svg version="1.1" xmlns="http://www.w3.org/2000/svg" width="32" height="32" viewBox="0 0 32 32">
<title>engine-on</title>
<path d="M31.638 15.273l-3.598-2.731c-0.325-0.247-0.761-0.289-1.127-0.106-0.365 0.181-0.596 0.554-0.596 0.962v1.671h-1.064v-1.689c0-0.593-0.481-1.074-1.074-1.074h-2.138v-3.989c0-0.593-0.481-1.074-1.074-1.074h-3.341v-1.14h0.899c0.593 0 1.074-0.481 1.074-1.074s-0.481-1.074-1.074-1.074h-6.939c-0.593 0-1.074 0.481-1.074 1.074s0.481 1.074 1.074 1.074h0.9v1.14h-4.153c-0.593 0-1.074 0.481-1.074 1.074v2.097h-2.098c-0.593 0-1.074 0.481-1.074 1.074v2.457h-1.937v-3.048c0-0.593-0.481-1.074-1.074-1.074s-1.074 0.481-1.074 1.074v11.235c0 0.593 0.481 1.074 1.074 1.074s1.074-0.481 1.074-1.074v-3.048h1.938v2.519c0 0.593 0.481 1.074 1.074 1.074h2.701l3.79 4.667c0.204 0.251 0.51 0.397 0.834 0.397h11.693c0.593 0 1.074-0.481 1.074-1.074v-1.419h1.064v1.419c0 0.42 0.244 0.8 0.625 0.976 0.144 0.066 0.297 0.098 0.449 0.098 0.252 0 0.5-0.089 0.699-0.259l3.598-3.084c0.238-0.204 0.375-0.502 0.375-0.816v-7.454c-0-0.335-0.158-0.652-0.425-0.855z"></path>
</svg>
