<!-- Generated by IcoMoon.io -->
<svg version="1.1" xmlns="http://www.w3.org/2000/svg" width="32" height="32" viewBox="0 0 32 32">
<title>engine3</title>
<path d="M15.53 1.819c-0.828 0-1.503 0.675-1.503 1.503s0.675 1.503 1.503 1.503h2.505v1.002h-2.804c-0.568 0-1.121 0.196-1.564 0.548l-3.914 3.131c-0.264 0.213-0.597 0.329-0.937 0.329h-3.305c-0.828 0-1.503 0.675-1.503 1.503v4.509h-1.002v-4.509c0-0.828-0.675-1.503-1.503-1.503s-1.503 0.675-1.503 1.503v13.025c0 0.828 0.675 1.503 1.503 1.503s1.503-0.675 1.503-1.503v-4.509h1.002v4.509c0 0.828 0.675 1.503 1.503 1.503h1.301c0.341 0 0.673 0.116 0.939 0.329l3.912 3.131c0.442 0.352 0.996 0.548 1.564 0.548h6.609c0.568 0 1.123-0.196 1.566-0.548l3.71-2.967c0.597-0.479 0.939-1.192 0.939-1.957v-2.544h1.002v3.006c0 0.552 0.45 1.002 1.002 1.002h1.503c1.382 0 2.505-1.123 2.505-2.505v-10.020c0-1.382-1.123-2.505-2.505-2.505h-1.503c-0.552 0-1.002 0.45-1.002 1.002v3.006h-1.002v-7.515c0-0.828-0.675-1.503-1.503-1.503h-2.505v-1.002h2.505c0.828 0 1.503-0.675 1.503-1.503s-0.675-1.503-1.503-1.503zM15.53 2.821h9.018c0.276 0 0.501 0.225 0.501 0.501s-0.225 0.501-0.501 0.501h-3.006c-0.276 0-0.501 0.225-0.501 0.501v1.503h-2.004v-1.503c0-0.276-0.225-0.501-0.501-0.501h-3.006c-0.276 0-0.501-0.225-0.501-0.501s0.225-0.501 0.501-0.501zM15.231 6.829h9.317c0.276 0 0.501 0.225 0.501 0.501v8.016c0 0.276 0.225 0.501 0.501 0.501h2.004c0.276 0 0.501-0.225 0.501-0.501v-3.507h1.503c0.828 0 1.503 0.675 1.503 1.503v10.020c0 0.828-0.675 1.503-1.503 1.503h-1.503v-3.507c0-0.276-0.225-0.501-0.501-0.501h-2.004c-0.276 0-0.501 0.225-0.501 0.501v3.045c0 0.46-0.205 0.887-0.564 1.174l-3.708 2.967c-0.266 0.213-0.599 0.329-0.939 0.329h-6.611c-0.341 0-0.673-0.116-0.939-0.329l-3.344-2.677h9.593c0.276 0 0.501-0.225 0.501-0.501s-0.225-0.501-0.501-0.501h-11.523c-0.022 0-0.039 0.010-0.061 0.012-0.047-0.002-0.094-0.012-0.141-0.012h-1.301c-0.276 0-0.501-0.225-0.501-0.501v-13.025c0-0.276 0.225-0.501 0.501-0.501h3.305c0.568 0 1.121-0.196 1.564-0.548l3.914-3.131c0.264-0.213 0.597-0.329 0.937-0.329zM1.503 10.837c0.276 0 0.501 0.225 0.501 0.501v13.025c0 0.276-0.225 0.501-0.501 0.501s-0.501-0.225-0.501-0.501v-13.025c0-0.276 0.225-0.501 0.501-0.501zM7.515 12.841c-0.276 0-0.501 0.225-0.501 0.501v1.002c0 0.276 0.225 0.501 0.501 0.501s0.501-0.225 0.501-0.501v-1.002c0-0.276-0.225-0.501-0.501-0.501zM10.020 12.841c-0.276 0-0.501 0.225-0.501 0.501v1.002c0 0.276 0.225 0.501 0.501 0.501s0.501-0.225 0.501-0.501v-1.002c0-0.276-0.225-0.501-0.501-0.501zM12.524 12.841c-0.276 0-0.501 0.225-0.501 0.501v1.002c0 0.276 0.225 0.501 0.501 0.501s0.501-0.225 0.501-0.501v-1.002c0-0.276-0.225-0.501-0.501-0.501zM15.029 12.841c-0.276 0-0.501 0.225-0.501 0.501v1.002c0 0.276 0.225 0.501 0.501 0.501s0.501-0.225 0.501-0.501v-1.002c0-0.276-0.225-0.501-0.501-0.501zM17.534 12.841c-0.276 0-0.501 0.225-0.501 0.501v1.002c0 0.276 0.225 0.501 0.501 0.501s0.501-0.225 0.501-0.501v-1.002c0-0.276-0.225-0.501-0.501-0.501zM20.039 12.841c-0.276 0-0.501 0.225-0.501 0.501v1.002c0 0.276 0.225 0.501 0.501 0.501s0.501-0.225 0.501-0.501v-1.002c0-0.276-0.225-0.501-0.501-0.501zM22.544 12.841c-0.276 0-0.501 0.225-0.501 0.501v1.002c0 0.276 0.225 0.501 0.501 0.501s0.501-0.225 0.501-0.501v-1.002c0-0.276-0.225-0.501-0.501-0.501zM3.006 16.849h1.002v2.004h-1.002zM8.517 18.852c-0.828 0-1.503 0.675-1.503 1.503s0.675 1.503 1.503 1.503c0.828 0 1.503-0.675 1.503-1.503s-0.675-1.503-1.503-1.503zM8.517 19.854c0.276 0 0.501 0.225 0.501 0.501s-0.225 0.501-0.501 0.501c-0.276 0-0.501-0.225-0.501-0.501s0.225-0.501 0.501-0.501zM11.523 19.854c-0.276 0-0.501 0.225-0.501 0.501s0.225 0.501 0.501 0.501h2.004c0.276 0 0.501-0.225 0.501-0.501s-0.225-0.501-0.501-0.501zM15.53 19.854c-0.276 0-0.501 0.225-0.501 0.501s0.225 0.501 0.501 0.501h7.014c0.276 0 0.501-0.225 0.501-0.501s-0.225-0.501-0.501-0.501zM20.54 24.864c-0.276 0-0.501 0.225-0.501 0.501s0.225 0.501 0.501 0.501h2.004c0.276 0 0.501-0.225 0.501-0.501s-0.225-0.501-0.501-0.501z"></path>
</svg>
