<!-- Generated by IcoMoon.io -->
<svg version="1.1" xmlns="http://www.w3.org/2000/svg" width="32" height="32" viewBox="0 0 32 32">
<title>envelope-open-text</title>
<path d="M11.054 13.099h10.049c0.555 0 1.005-0.45 1.005-1.005v-1.005c0-0.555-0.45-1.005-1.005-1.005h-10.049c-0.555 0-1.005 0.45-1.005 1.005v1.005c0 0.555 0.45 1.005 1.005 1.005zM10.049 18.124c0 0.555 0.45 1.005 1.005 1.005h10.049c0.555 0 1.005-0.45 1.005-1.005v-1.005c0-0.555-0.45-1.005-1.005-1.005h-10.049c-0.555 0-1.005 0.45-1.005 1.005v1.005zM16.078 25.731c-1.031 0-2.063-0.318-2.943-0.954l-13.135-9.489v13.386c0 1.665 1.35 3.015 3.015 3.015h26.127c1.665 0 3.015-1.35 3.015-3.015v-13.386l-13.135 9.489c-0.881 0.636-1.912 0.954-2.943 0.954zM31.002 9.767c-0.556-0.436-1.083-0.846-1.86-1.433v-2.772c0-1.665-1.35-3.015-3.015-3.015h-4.871c-0.191-0.138-0.369-0.268-0.568-0.412-1.056-0.771-3.153-2.625-4.611-2.603-1.457-0.022-3.554 1.832-4.611 2.603-0.199 0.144-0.377 0.274-0.568 0.412h-4.871c-1.665 0-3.015 1.35-3.015 3.015v2.772c-0.777 0.586-1.304 0.997-1.86 1.433-0.706 0.557-1.155 1.412-1.155 2.372v0.669l6.029 4.356v-11.602h20.098v11.602l6.029-4.356v-0.669c0-0.926-0.426-1.801-1.155-2.372z"></path>
</svg>
