<!-- Generated by IcoMoon.io -->
<svg version="1.1" xmlns="http://www.w3.org/2000/svg" width="28" height="32" viewBox="0 0 28 32">
<title>envelope-square</title>
<path d="M25.122 1.543h-22.108c-1.665 0-3.015 1.35-3.015 3.015v22.108c0 1.665 1.35 3.015 3.015 3.015h22.108c1.665 0 3.015-1.35 3.015-3.015v-22.108c0-1.665-1.35-3.015-3.015-3.015zM11.187 15.995c-5.696-4.134-5.638-4.144-7.167-5.335v-1.581c0-0.832 0.675-1.507 1.507-1.507h17.083c0.832 0 1.507 0.675 1.507 1.507v1.581c-1.531 1.191-1.472 1.201-7.167 5.335-0.66 0.481-1.972 1.64-2.882 1.626-0.911 0.014-2.221-1.145-2.882-1.626zM24.118 13.211v8.933c0 0.832-0.675 1.507-1.507 1.507h-17.083c-0.832 0-1.507-0.675-1.507-1.507v-8.933c0.877 0.678 2.093 1.585 5.986 4.41 0.889 0.649 2.385 2.019 4.063 2.010 1.689 0.008 3.205-1.384 4.065-2.011 3.891-2.824 5.108-3.731 5.984-4.409z"></path>
</svg>
