<!-- Generated by IcoMoon.io -->
<svg version="1.1" xmlns="http://www.w3.org/2000/svg" width="32" height="32" viewBox="0 0 32 32">
<title>envelope-open</title>
<path d="M31.063 9.866c-0.295-0.244-7.017-5.649-8.495-6.824-1.388-1.11-3.762-3.508-6.49-3.508-2.714 0-5.064 2.369-6.49 3.508-1.536 1.222-8.232 6.607-8.488 6.818-0.674 0.557-1.1 1.393-1.1 2.329v0 16.488c0 1.665 1.35 3.015 3.015 3.015h26.127c1.665 0 3.015-1.35 3.015-3.015v-16.486c0-0.933-0.424-1.766-1.089-2.319l-0.005-0.004zM29.142 28.298c0 0.208-0.169 0.377-0.377 0.377v0h-25.374c-0.208 0-0.377-0.169-0.377-0.377v0-15.931c0-0.114 0.051-0.221 0.14-0.293 0.997-0.805 6.833-5.499 8.313-6.676 1.141-0.911 3.128-2.851 4.611-2.851 1.488 0 3.508 1.97 4.611 2.851 1.48 1.177 7.317 5.872 8.313 6.677 0.086 0.069 0.14 0.175 0.14 0.293 0 0 0 0 0 0v-0 15.93zM27.133 16.509c0.267 0.324 0.218 0.804-0.11 1.066-1.82 1.462-3.723 2.989-4.455 3.571-1.426 1.14-3.777 3.508-6.49 3.508-2.729 0-5.105-2.402-6.49-3.508-0.708-0.563-2.622-2.099-4.455-3.571-0.327-0.263-0.376-0.742-0.11-1.066l0.958-1.164c0.262-0.319 0.732-0.367 1.054-0.108 1.797 1.445 3.678 2.954 4.432 3.553 1.102 0.881 3.123 2.851 4.611 2.851 1.482 0 3.47-1.939 4.611-2.851 0.753-0.599 2.634-2.108 4.432-3.553 0.322-0.258 0.791-0.21 1.054 0.108l0.958 1.164z"></path>
</svg>
