<!-- Generated by IcoMoon.io -->
<svg version="1.1" xmlns="http://www.w3.org/2000/svg" width="32" height="32" viewBox="0 0 32 32">
<title>envelope1</title>
<path d="M31.547 11.516c0.245-0.195 0.609-0.012 0.609 0.295v12.844c0 1.664-1.35 3.015-3.015 3.015h-26.127c-1.664 0-3.015-1.35-3.015-3.015v-12.838c0-0.314 0.358-0.49 0.609-0.295 1.407 1.093 3.272 2.481 9.678 7.135 1.325 0.967 3.561 3.002 5.791 2.99 2.242 0.019 4.522-2.060 5.797-2.99 6.406-4.654 8.265-6.048 9.672-7.141zM16.078 19.631c1.457 0.025 3.555-1.834 4.61-2.6 8.334-6.048 8.969-6.576 10.891-8.083 0.364-0.283 0.578-0.722 0.578-1.187v-1.193c0-1.664-1.35-3.015-3.015-3.015h-26.127c-1.664 0-3.015 1.35-3.015 3.015v1.193c0 0.465 0.214 0.898 0.578 1.187 1.922 1.501 2.556 2.035 10.891 8.083 1.055 0.766 3.153 2.625 4.61 2.6z"></path>
</svg>
