<!-- Generated by IcoMoon.io -->
<svg version="1.1" xmlns="http://www.w3.org/2000/svg" width="32" height="32" viewBox="0 0 32 32">
<title>envelope-open1</title>
<path d="M32.157 28.675c0 1.665-1.35 3.015-3.015 3.015h-26.127c-1.665 0-3.015-1.35-3.015-3.015v-16.535c0-0.96 0.449-1.816 1.148-2.368l0.006-0.005c1.565-1.226 2.858-2.221 10.313-7.632 1.057-0.77 3.153-2.624 4.611-2.602 1.457-0.022 3.555 1.832 4.611 2.602 7.454 5.41 8.749 6.406 10.313 7.632 0.706 0.557 1.155 1.412 1.155 2.373v0 16.535zM28.032 16.327c-0.161-0.234-0.484-0.289-0.712-0.12-1.435 1.060-3.483 2.557-6.631 4.841-1.057 0.77-3.153 2.624-4.611 2.602-1.458 0.022-3.552-1.83-4.611-2.602-3.147-2.284-5.196-3.781-6.631-4.841-0.229-0.169-0.551-0.114-0.712 0.12l-0.57 0.829c-0.055 0.079-0.088 0.178-0.088 0.285 0 0.165 0.080 0.312 0.203 0.403l0.001 0.001c1.437 1.061 3.483 2.556 6.614 4.828 1.273 0.928 3.55 3.003 5.795 2.988 2.244 0.015 4.52-2.058 5.795-2.988 3.131-2.272 5.176-3.766 6.614-4.828 0.124-0.093 0.204-0.239 0.204-0.404 0-0.106-0.033-0.205-0.090-0.286l0.001 0.002-0.57-0.829z"></path>
</svg>
