<!-- Generated by IcoMoon.io -->
<svg version="1.1" xmlns="http://www.w3.org/2000/svg" width="32" height="32" viewBox="0 0 32 32">
<title>envelope-regular</title>
<path d="M29.057 3.823h-26.051c-1.66 0-3.006 1.346-3.006 3.006v18.035c0 1.66 1.346 3.006 3.006 3.006h26.051c1.66 0 3.006-1.346 3.006-3.006v-18.035c0-1.66-1.346-3.006-3.006-3.006zM29.057 6.829v2.555c-1.404 1.143-3.643 2.921-8.428 6.669-1.055 0.83-3.144 2.822-4.597 2.799-1.453 0.023-3.543-1.97-4.597-2.799-4.785-3.747-7.024-5.525-8.428-6.669v-2.555h26.051zM3.006 24.864v-11.623c1.435 1.143 3.47 2.747 6.571 5.176 1.369 1.077 3.766 3.456 6.454 3.441 2.675 0.014 5.042-2.329 6.453-3.441 3.102-2.429 5.137-4.033 6.572-5.176v11.623h-26.051z"></path>
</svg>
