<!-- Generated by IcoMoon.io -->
<svg version="1.1" xmlns="http://www.w3.org/2000/svg" width="28" height="32" viewBox="0 0 28 32">
<title>envira</title>
<path d="M0 1.543c29.996 0 23.025 19.928 23.056 23.006l5.081 5.131h-1.633l-4.422-4.472c-2.449 0.264-7.813 2.167-13.466-2.324-5.665-4.491-5.351-9.867-8.617-21.341zM5.006 4.432c-3.121-1.476-0.327 0.578-0.327 0.578 2.839 1.96 4.145 4.629 5.665 7.53 1.978 3.781 4.962 8.774 9.057 10.533 4.082 1.759 2.148 0.785 0.377-0.534-1.771-1.331-4.283-5.464-5.715-8.177-1.991-3.768-3.831-7.449-9.057-9.93z"></path>
</svg>
