<!-- Generated by IcoMoon.io -->
<svg version="1.1" xmlns="http://www.w3.org/2000/svg" width="32" height="32" viewBox="0 0 32 32">
<title>eps-file-format-variant</title>
<path d="M27.737 7.239c-0.002-0.148-0.049-0.293-0.15-0.408l-6.201-7.082c-0.001-0.002-0.003-0.003-0.005-0.004-0.037-0.041-0.079-0.075-0.125-0.105-0.013-0.009-0.027-0.017-0.041-0.025-0.040-0.021-0.081-0.039-0.125-0.052-0.012-0.003-0.022-0.008-0.034-0.011-0.047-0.011-0.096-0.018-0.145-0.018h-15.238c-0.695 0-1.261 0.566-1.261 1.261v29.635c0 0.696 0.566 1.261 1.261 1.261h20.807c0.696 0 1.261-0.566 1.261-1.261v-23.119c0-0.024-0.004-0.047-0.006-0.071zM12.408 30.26h-4.992v-7.823h4.829v1.451h-3.053v1.625h2.879v1.44h-2.879v1.857h3.215v1.451h0zM18.514 26.673c-0.603 0.569-1.498 0.824-2.542 0.824-0.232 0-0.441-0.012-0.603-0.035v2.797h-1.753v-7.719c0.545-0.092 1.312-0.162 2.392-0.162 1.091 0 1.869 0.209 2.391 0.627 0.499 0.394 0.836 1.044 0.836 1.811s-0.255 1.416-0.719 1.857zM22.274 30.376c-0.894 0-1.776-0.232-2.217-0.476l0.36-1.463c0.476 0.244 1.207 0.487 1.962 0.487 0.812 0 1.242-0.336 1.242-0.847 0-0.488-0.372-0.767-1.312-1.103-1.3-0.453-2.148-1.172-2.148-2.31 0-1.335 1.115-2.357 2.96-2.357 0.882 0 1.533 0.186 1.997 0.395l-0.395 1.428c-0.313-0.151-0.871-0.372-1.637-0.372s-1.138 0.348-1.138 0.755c0 0.499 0.441 0.72 1.452 1.103 1.381 0.511 2.031 1.23 2.031 2.333-0 1.312-1.011 2.427-3.158 2.427zM5.675 20.945v-20.151h14.607v6.452c0 0.348 0.282 0.631 0.631 0.631h5.569l0.001 13.068h-20.808zM16.099 23.713c-0.36 0-0.604 0.035-0.731 0.070v2.31c0.151 0.034 0.337 0.046 0.592 0.046 0.94 0 1.521-0.476 1.521-1.277 0-0.719-0.499-1.149-1.381-1.149zM21.382 15.118l-3.070-3.663v-0.579h-0.485l-3.269-3.901v-0.819h-0.988v0.988h0.718l2.444 2.917c-0.797-0.521-1.723-0.812-2.698-0.828-1.134-0.022-2.226 0.34-3.127 1.013h-0.753v0.906h0.906v-0.628c0.848-0.645 1.878-0.983 2.969-0.976 1.277 0.021 2.469 0.538 3.358 1.455 0.006 0.007 0.012 0.014 0.018 0.021v0.758h0.592c1.088 1.729 0.957 3.999-0.368 5.596h-0.677v0.906h0.906v-0.689c1.247-1.491 1.51-3.538 0.776-5.265l2.378 2.838v0.938h0.988v-0.988h-0.618zM13.886 6.471h0.357v0.357h-0.357v-0.357zM21.686 15.79h-0.357v-0.357h0.357v0.357z"></path>
</svg>
