<!-- Generated by IcoMoon.io -->
<svg version="1.1" xmlns="http://www.w3.org/2000/svg" width="32" height="32" viewBox="0 0 32 32">
<title>eps-file-format-symbol</title>
<path d="M16.055 23.666c-0.351 0-0.59 0.034-0.715 0.068v2.258c0.148 0.034 0.329 0.046 0.579 0.046 0.919 0 1.487-0.466 1.487-1.248 0-0.704-0.488-1.124-1.351-1.124zM27.737 7.239c-0.002-0.148-0.049-0.293-0.151-0.408l-6.2-7.082c-0.002-0.002-0.004-0.003-0.005-0.004-0.037-0.041-0.080-0.075-0.126-0.105-0.013-0.009-0.027-0.017-0.041-0.025-0.039-0.021-0.081-0.039-0.124-0.052-0.012-0.003-0.022-0.008-0.034-0.011-0.047-0.011-0.095-0.018-0.145-0.018h-15.237c-0.695 0-1.261 0.566-1.261 1.261v29.635c0 0.696 0.566 1.261 1.261 1.261h20.807c0.695 0 1.261-0.566 1.261-1.261v-23.119c-0-0.024-0.004-0.047-0.006-0.071zM12.446 30.066h-4.88v-7.648h4.721v1.418h-2.985v1.589h2.814v1.407h-2.814v1.816h3.143v1.418zM18.416 26.56c-0.59 0.556-1.464 0.806-2.485 0.806-0.227 0-0.431-0.011-0.59-0.034v2.735h-1.714v-7.547c0.534-0.091 1.282-0.159 2.338-0.159 1.067 0 1.827 0.204 2.338 0.613 0.488 0.385 0.816 1.021 0.816 1.77s-0.249 1.385-0.703 1.816zM22.093 30.18c-0.874 0-1.736-0.227-2.167-0.465l0.352-1.43c0.465 0.238 1.18 0.477 1.917 0.477 0.794 0 1.214-0.329 1.214-0.829 0-0.477-0.363-0.749-1.282-1.078-1.271-0.443-2.1-1.147-2.1-2.259 0-1.305 1.089-2.304 2.894-2.304 0.862 0 1.498 0.182 1.952 0.386l-0.386 1.396c-0.307-0.147-0.851-0.363-1.6-0.363s-1.112 0.341-1.112 0.738c0 0.488 0.432 0.703 1.419 1.078 1.35 0.499 1.986 1.203 1.986 2.281-0 1.282-0.987 2.372-3.087 2.372zM5.675 20.945v-20.151h14.607v6.452c0 0.348 0.283 0.631 0.631 0.631h5.57v13.068h-20.807zM16.972 16.371c-1.953-0.309-2.18-2.433-2.204-3.078h0.629v-3.158h-0.72v-3.324c0.239-0.072 0.415-0.292 0.415-0.554-0.001-0.321-0.26-0.582-0.582-0.582s-0.582 0.261-0.582 0.582c0 0.263 0.176 0.483 0.416 0.554v2.145c-0.552-1.584-1.803-1.868-2.438-1.906v-1.286h-1.773v3.157h1.773v-1.441c1.713 0.204 2.164 1.76 2.279 2.654h-0.562v3.157h0.721v3.446c-0.24 0.071-0.416 0.291-0.416 0.555 0 0.321 0.261 0.582 0.582 0.582s0.581-0.26 0.582-0.582c0-0.263-0.176-0.483-0.415-0.554v-1.745c0.533 1.424 1.647 1.751 2.295 1.813v1.295h1.773v-3.159h-1.773v1.427h-0z"></path>
</svg>
