<!-- Generated by IcoMoon.io -->
<svg version="1.1" xmlns="http://www.w3.org/2000/svg" width="32" height="32" viewBox="0 0 32 32">
<title>eraser</title>
<path d="M31.274 16.738c1.177-1.177 1.177-3.086 0-4.263l-10.049-10.049c-1.177-1.177-3.086-1.177-4.263 0l-16.078 16.078c-1.177 1.177-1.177 3.086 0 4.263l6.029 6.029c0.546 0.546 1.299 0.883 2.132 0.883h22.359c0.416 0 0.754-0.338 0.754-0.754v-2.512c0-0.416-0.338-0.754-0.754-0.754h-9.051l8.922-8.922zM12.267 12.805l8.628 8.628-4.228 4.228h-7.207l-5.024-5.024 7.831-7.831z"></path>
</svg>
