<!-- Generated by IcoMoon.io -->
<svg version="1.1" xmlns="http://www.w3.org/2000/svg" width="40" height="32" viewBox="0 0 40 32">
<title>erlang</title>
<path d="M1.363 15.008c-0.006 5.452 1.821 10.018 4.943 13.321h-6.306v-25.436h5.477c-2.606 3.153-4.12 7.298-4.114 12.115zM40.196 2.899h-5.251c1.972 2.682 3.059 6.124 2.902 10.219 0.031 0.377 0.031 0.735 0 1.514h-23.389c-0.012 6.89 2.443 12.241 8.705 12.266 4.302-0.019 7.411-3.203 9.54-6.664l6.054 3.027c-1.093 1.941-2.292 3.63-3.636 5.075h5.075v-25.436zM35.121 28.336s0-0.006 0 0v0zM34.926 2.899h0.019l-0.006-0.006-0.013 0.006zM20.437 3.502c-2.883 0.006-5.345 2.104-5.602 5.225h10.671c-0.069-3.121-2.167-5.219-5.068-5.225z"></path>
</svg>
