<!-- Generated by IcoMoon.io -->
<svg version="1.1" xmlns="http://www.w3.org/2000/svg" width="32" height="32" viewBox="0 0 32 32">
<title>ethernet</title>
<path d="M31.152 11.592h-3.015v-3.015c0-0.553-0.452-1.005-1.005-1.005h-3.015v-3.015c0-0.553-0.452-1.005-1.005-1.005h-14.069c-0.553 0-1.005 0.452-1.005 1.005v3.015h-3.015c-0.553 0-1.005 0.452-1.005 1.005v3.015h-3.015c-0.553 0-1.005 0.452-1.005 1.005v14.069c0 0.553 0.452 1.005 1.005 1.005h5.024v-8.039h2.010v8.039h4.020v-8.039h2.010v8.039h4.020v-8.039h2.010v8.039h4.020v-8.039h2.010v8.039h5.024c0.553 0 1.005-0.452 1.005-1.005v-14.069c0-0.553-0.452-1.005-1.005-1.005z"></path>
</svg>
