<!-- Generated by IcoMoon.io -->
<svg version="1.1" xmlns="http://www.w3.org/2000/svg" width="24" height="32" viewBox="0 0 24 32">
<title>etsy</title>
<path d="M24.118 21.39c-0.11 0.675-0.864 6.909-0.973 8.29-7.404-0.27-13.811-0.298-23.144 0v-1.602c2.855-0.562 3.808-0.504 3.831-2.214 0.113-4.542 0.221-15.334 0-20.224-0.065-1.788-0.762-1.681-3.831-2.261v-1.602c4.641 0.148 16.074 0.537 22.799-0.235-0.22 2.402-0.487 7.945-0.487 7.945h-1.46c-0.694-2.69-1.178-5.684-3.439-5.684h-8.604c-0.644 0-0.675 0.22-0.675 0.612v10.284c3.643 0.031 5.558-0.157 5.558-0.157 1.87-0.060 1.731-0.534 2.559-4.098h1.617c-0.277 6.365-0.246 3.883-0.11 10.065h-1.617c-0.575-2.518-0.569-3.834-2.481-3.863 0 0-1.35-0.126-5.527-0.126v8.73c0 1.633 0.895 2.402 2.779 2.402h5.606c3.997 0 4.181-1.57 6.202-6.265h1.397z"></path>
</svg>
