<!-- Generated by IcoMoon.io -->
<svg version="1.1" xmlns="http://www.w3.org/2000/svg" width="20" height="32" viewBox="0 0 20 32">
<title>euro-sign</title>
<path d="M19.514 25.52c-0.083-0.416-0.492-0.683-0.906-0.588-0.672 0.153-1.722 0.34-2.853 0.34-3.565 0-6.402-2.185-7.628-5.367h7.14c0.358 0 0.657-0.249 0.734-0.583l0.001-0.005 0.4-1.781c0.106-0.471-0.252-0.919-0.735-0.919h-8.431c-0.076-0.9-0.089-1.777 0.009-2.653h9.207c0 0 0 0 0 0 0.359 0 0.66-0.251 0.735-0.587l0.001-0.005 0.409-1.869c0.103-0.47-0.255-0.915-0.736-0.915h-8.685c1.296-2.826 3.937-4.712 7.387-4.712 0.91 0 1.794 0.141 2.377 0.26 0.39 0.080 0.775-0.157 0.879-0.542l0.753-2.787c0.114-0.423-0.155-0.855-0.586-0.937-0.76-0.144-1.985-0.327-3.309-0.327-6.104 0-11.029 3.784-12.848 9.044h-2.077c-0.416 0-0.754 0.338-0.754 0.754v1.869c0 0.416 0.338 0.754 0.754 0.754h1.355c-0.063 0.855-0.074 1.839-0.011 2.653h-1.343c-0.416 0-0.754 0.338-0.754 0.754v1.781c0 0.416 0.338 0.754 0.754 0.754h1.891c1.572 5.673 6.478 9.775 13.034 9.775 1.652 0 3.050-0.285 3.838-0.489 0.387-0.1 0.63-0.484 0.552-0.877l-0.554-2.794z"></path>
</svg>
