<!-- Generated by IcoMoon.io -->
<svg version="1.1" xmlns="http://www.w3.org/2000/svg" width="32" height="32" viewBox="0 0 32 32">
<title>exchange-alt</title>
<path d="M0 10.084v-1.005c0-0.832 0.675-1.507 1.507-1.507h22.61v-3.015c0-1.342 1.627-2.012 2.573-1.066l5.024 5.024c0.589 0.589 0.589 1.543 0 2.132l-5.024 5.024c-0.943 0.943-2.573 0.282-2.573-1.066v-3.015h-22.61c-0.833 0-1.507-0.675-1.507-1.507zM30.649 19.631h-22.61v-3.015c0-1.339-1.624-2.015-2.573-1.066l-5.024 5.024c-0.589 0.589-0.589 1.543 0 2.132l5.024 5.024c0.944 0.944 2.573 0.281 2.573-1.066v-3.015h22.61c0.832 0 1.507-0.675 1.507-1.507v-1.005c0-0.832-0.675-1.507-1.507-1.507z"></path>
</svg>
