<!-- Generated by IcoMoon.io -->
<svg version="1.1" xmlns="http://www.w3.org/2000/svg" width="32" height="32" viewBox="0 0 32 32">
<title>exclamation-circle</title>
<path d="M31.654 15.611c0 8.604-6.974 15.576-15.576 15.576s-15.576-6.972-15.576-15.576c0-8.599 6.974-15.576 15.576-15.576s15.576 6.977 15.576 15.576zM16.078 18.752c-1.596 0-2.889 1.293-2.889 2.889s1.293 2.889 2.889 2.889 2.889-1.293 2.889-2.889-1.293-2.889-2.889-2.889zM13.335 8.367l0.466 8.542c0.022 0.4 0.352 0.713 0.752 0.713h3.049c0.4 0 0.731-0.313 0.753-0.713l0.466-8.542c0.024-0.432-0.32-0.795-0.753-0.795h-3.981c-0.432 0-0.776 0.363-0.752 0.795z"></path>
</svg>
