<!-- Generated by IcoMoon.io -->
<svg version="1.1" xmlns="http://www.w3.org/2000/svg" width="36" height="32" viewBox="0 0 36 32">
<title>exclamation-triangle</title>
<path d="M35.769 27.168c1.159 2.009-0.296 4.521-2.611 4.521h-30.14c-2.32 0-3.768-2.516-2.611-4.521l15.070-26.129c1.16-2.010 4.065-2.007 5.223 0l15.070 26.129zM18.088 21.766c-1.596 0-2.889 1.293-2.889 2.889s1.293 2.889 2.889 2.889 2.889-1.293 2.889-2.889-1.293-2.889-2.889-2.889zM15.345 11.382l0.466 8.542c0.022 0.4 0.352 0.713 0.752 0.713h3.049c0.4 0 0.731-0.313 0.753-0.713l0.466-8.542c0.024-0.432-0.32-0.795-0.753-0.795h-3.981c-0.432 0-0.776 0.363-0.752 0.795z"></path>
</svg>
