<!-- Generated by IcoMoon.io -->
<svg version="1.1" xmlns="http://www.w3.org/2000/svg" width="32" height="32" viewBox="0 0 32 32">
<title>exe-file-format-symbol</title>
<path d="M27.737 7.239c-0.002-0.148-0.049-0.293-0.15-0.408l-6.2-7.082c-0.001-0.002-0.003-0.003-0.005-0.004-0.037-0.041-0.079-0.075-0.125-0.105-0.013-0.009-0.027-0.017-0.041-0.025-0.040-0.021-0.081-0.039-0.124-0.052-0.012-0.003-0.022-0.008-0.034-0.011-0.047-0.011-0.095-0.018-0.145-0.018h-15.238c-0.695 0-1.261 0.566-1.261 1.261v29.635c0 0.696 0.566 1.261 1.261 1.261h20.807c0.696 0 1.261-0.566 1.261-1.261v-23.119c-0-0.024-0.004-0.047-0.006-0.071zM20.204 13.169c0.009-0.005 0.018-0.010 0.028-0.015 0.063-0.032 0.129-0.059 0.193-0.087 0.047-0.020 0.093-0.042 0.14-0.060 0.019-0.007 0.040-0.013 0.059-0.020 1.049-0.374 2.258-0.25 3.233 0.443 1.585 1.127 1.958 3.331 0.832 4.918-0.571 0.803-1.42 1.294-2.325 1.438-0.103 0.016-0.207 0.030-0.31 0.037-0.003 0-0.006 0-0.007 0-1.779 0.114-3.396-1.136-3.7-2.932-0.262-1.548 0.533-3.036 1.858-3.723zM5.675 0.794h14.607v6.452c0 0.348 0.282 0.631 0.631 0.631h5.569v3.040l-1.292-0.917c-0.081-0.058-0.129-0.028-0.165-0.004-0 0-0.001 0.001-0.001 0.001-0.002 0.001-0.006 0.001-0.007 0.002-0.202 0.133-0.422 0.232-0.651 0.297-0.015 0.004-0.030 0.007-0.046 0.011-0.059 0.015-0.117 0.030-0.177 0.041-0.313 0.057-0.638 0.051-0.951-0.022-0.626-0.141-1.176-0.542-1.507-1.094-0.030-0.050-0.090-0.078-0.149-0.068l-1.788 0.303c-0.059 0.010-0.107 0.057-0.12 0.114-0.13 0.631-0.517 1.189-1.062 1.529-0.543 0.343-1.218 0.45-1.842 0.292-0.039-0.009-0.095-0.024-0.154 0.058l-0.727 1.021c-0.002-0.001-0.005-0.002-0.007-0.003l-0.328 0.461c-0.034 0.048-0.034 0.116-0.003 0.166 0.353 0.539 0.473 1.206 0.33 1.832-0.144 0.628-0.543 1.179-1.096 1.508-0.050 0.030-0.078 0.091-0.069 0.15l0.303 1.788c0.017 0.099 0.072 0.111 0.114 0.12 0.626 0.128 1.189 0.516 1.529 1.063 0.26 0.412 0.383 0.897 0.36 1.38h-11.303v-20.151zM12.088 30.019h-4.88v-7.648h4.721v1.418h-2.985v1.589h2.815v1.407h-2.815v1.816h3.143v1.418zM17.298 30.019l-0.693-1.384c-0.283-0.533-0.465-0.93-0.68-1.373h-0.023c-0.159 0.443-0.352 0.84-0.59 1.373l-0.635 1.384h-1.974l2.213-3.87-2.133-3.779h1.986l0.669 1.396c0.227 0.465 0.397 0.84 0.579 1.271h0.023c0.182-0.488 0.329-0.828 0.522-1.271l0.646-1.396h1.975l-2.156 3.734 2.27 3.915-1.997-0zM25.106 30.019h-4.88v-7.648h4.72v1.418h-2.985v1.589h2.815v1.407h-2.815v1.816h3.144v1.418zM14.285 14.194c-0.22-0.19-0.355-0.466-0.37-0.756s0.091-0.579 0.29-0.791c0.019-0.020 0.023-0.049 0.012-0.073l-0.242-0.509c0.001-0.001 0.002-0.002 0.004-0.002l-0.11-0.231c-0.004-0.009-0.011-0.014-0.019-0.020-0.001-0.001-0.002-0.002-0.003-0.003-0.003-0.003-0.006-0.005-0.010-0.007-0.009-0.004-0.017-0.007-0.025-0.006-0.003-0-0.006-0.002-0.008-0.002-0.29 0.021-0.58-0.079-0.795-0.273s-0.346-0.473-0.354-0.764c-0.001-0.026-0.019-0.051-0.044-0.060l-0.772-0.274c-0.042-0.015-0.059 0.004-0.072 0.019-0 0-0 0-0 0.001-0.001 0-0.002 0.001-0.003 0.002-0.071 0.082-0.154 0.153-0.246 0.209-0.006 0.004-0.012 0.007-0.018 0.010-0.023 0.014-0.047 0.027-0.072 0.039-0.129 0.063-0.271 0.101-0.416 0.108-0.29 0.016-0.578-0.091-0.79-0.29-0.019-0.018-0.049-0.023-0.073-0.011l-0.74 0.352c-0.025 0.012-0.040 0.038-0.038 0.064 0.021 0.29-0.078 0.581-0.273 0.796-0.194 0.216-0.474 0.346-0.765 0.354-0.018 0.002-0.044 0.002-0.060 0.044l-0.19 0.534c-0.001 0-0.002 0-0.003-0.001l-0.086 0.241c-0.009 0.025-0 0.055 0.020 0.073 0.22 0.19 0.355 0.466 0.369 0.755 0.015 0.291-0.091 0.579-0.29 0.791-0.018 0.019-0.023 0.049-0.011 0.073l0.353 0.741c0.020 0.041 0.045 0.039 0.064 0.038 0.288-0.021 0.58 0.078 0.795 0.274 0.216 0.194 0.345 0.473 0.354 0.763 0.001 0.027 0.018 0.051 0.043 0.060l0.772 0.273c0.005 0.002 0.010 0.001 0.015 0.001 0.035 0.008 0.051-0.008 0.062-0.022 0.049-0.056 0.102-0.107 0.161-0.151 0.003-0.002 0.006-0.004 0.008-0.006 0.025-0.020 0.052-0.037 0.078-0.054 0.020-0.012 0.042-0.024 0.063-0.035 0.010-0.006 0.020-0.011 0.030-0.016 0.128-0.062 0.269-0.099 0.412-0.106 0.289-0.016 0.579 0.091 0.791 0.29 0.013 0.012 0.032 0.030 0.073 0.011l0.74-0.352c0.001-0 0.001-0.001 0.002-0.001l0.002-0.001c0.025-0.012 0.039-0.037 0.038-0.064-0.021-0.29 0.078-0.58 0.273-0.796 0.113-0.125 0.255-0.22 0.411-0.281 0.008-0.003 0.016-0.007 0.024-0.009 0.013-0.005 0.027-0.008 0.041-0.013 0.022-0.007 0.045-0.014 0.067-0.020 0.004-0.001 0.007-0.001 0.010-0.002 0.067-0.015 0.136-0.025 0.206-0.027 0.027-0.001 0.051-0.018 0.060-0.044l0.275-0.772c0.009-0.026 0.001-0.054-0.019-0.072zM12.651 14.114c-0.149 0.42-0.458 0.738-0.833 0.912-0.043 0.020-0.086 0.039-0.13 0.054-0.001 0-0.002 0.001-0.004 0.001-0.759 0.269-1.616-0.075-1.97-0.818-0.304-0.64-0.142-1.386 0.349-1.847 0.003-0.003 0.007-0.007 0.010-0.010 0.023-0.021 0.048-0.041 0.073-0.061 0.018-0.015 0.035-0.030 0.053-0.043 0.007-0.005 0.016-0.010 0.023-0.016 0.41-0.292 0.951-0.387 1.46-0.206 0.828 0.294 1.263 1.206 0.969 2.034zM13.248 7.344c0.014 0.29-0.091 0.579-0.29 0.791-0.018 0.019-0.023 0.049-0.012 0.073l0.353 0.74c0.020 0.041 0.045 0.039 0.065 0.038 0.287-0.022 0.58 0.078 0.795 0.273 0.216 0.194 0.345 0.473 0.354 0.764 0.001 0.027 0.018 0.051 0.044 0.060l0.772 0.274c0.005 0.001 0.010 0 0.015 0.001 0.035 0.008 0.050-0.008 0.061-0.022 0.049-0.056 0.102-0.107 0.161-0.151 0.002-0.002 0.006-0.004 0.008-0.005 0.025-0.019 0.051-0.037 0.078-0.054 0.020-0.012 0.042-0.024 0.063-0.034 0.010-0.006 0.020-0.011 0.030-0.016 0.128-0.062 0.268-0.099 0.412-0.106 0.289-0.016 0.58 0.090 0.791 0.29 0.013 0.012 0.033 0.031 0.074 0.011l0.74-0.352c0.001 0 0.001-0.001 0.002-0.001l0.003-0.001c0.025-0.012 0.039-0.037 0.038-0.064-0.021-0.29 0.079-0.58 0.274-0.796 0.113-0.125 0.256-0.221 0.411-0.281 0.007-0.003 0.016-0.007 0.024-0.009 0.013-0.005 0.027-0.009 0.041-0.013 0.022-0.007 0.044-0.014 0.067-0.020 0.003-0.001 0.006-0.001 0.010-0.002 0.067-0.015 0.136-0.025 0.206-0.027 0.027-0.001 0.051-0.018 0.060-0.044l0.275-0.772c0.009-0.026 0.001-0.054-0.019-0.072-0.22-0.19-0.355-0.466-0.37-0.756-0.014-0.291 0.091-0.579 0.29-0.791 0.018-0.019 0.023-0.049 0.011-0.073l-0.241-0.508c0.001-0.001 0.002-0.002 0.004-0.002l-0.11-0.231c-0.004-0.009-0.012-0.014-0.018-0.020-0.001-0.001-0.002-0.002-0.003-0.003-0.004-0.002-0.006-0.005-0.010-0.007-0.009-0.004-0.018-0.006-0.025-0.006-0.003-0-0.006-0.002-0.008-0.002-0.29 0.021-0.58-0.079-0.796-0.273s-0.345-0.473-0.354-0.764c-0-0.027-0.018-0.051-0.044-0.060l-0.772-0.274c-0.043-0.015-0.060 0.004-0.073 0.019 0 0 0 0 0 0-0.001 0.001-0.002 0.001-0.003 0.002-0.071 0.082-0.155 0.153-0.246 0.209-0.006 0.003-0.013 0.007-0.018 0.010-0.024 0.014-0.047 0.027-0.072 0.039-0.129 0.063-0.271 0.101-0.416 0.108-0.29 0.015-0.578-0.091-0.79-0.29-0.020-0.018-0.049-0.023-0.073-0.011l-0.74 0.353c-0.025 0.012-0.039 0.038-0.038 0.064 0.021 0.29-0.078 0.581-0.273 0.797-0.194 0.216-0.474 0.346-0.765 0.354-0.018 0.001-0.044 0.001-0.060 0.045l-0.19 0.533c-0.001-0-0.002 0-0.003-0l-0.086 0.241c-0.009 0.026-0.001 0.055 0.020 0.073 0.221 0.19 0.356 0.465 0.37 0.755zM14.929 6.036c0.004-0.003 0.007-0.007 0.010-0.010 0.023-0.022 0.049-0.041 0.073-0.062 0.018-0.014 0.035-0.030 0.053-0.043 0.008-0.005 0.016-0.010 0.023-0.016 0.41-0.292 0.95-0.387 1.46-0.206 0.828 0.294 1.262 1.206 0.968 2.035-0.149 0.42-0.457 0.738-0.833 0.912-0.043 0.020-0.086 0.039-0.13 0.054-0.001 0-0.002 0.001-0.004 0.001-0.759 0.269-1.616-0.075-1.97-0.818-0.305-0.64-0.143-1.385 0.349-1.847z"></path>
</svg>
