<!-- Generated by IcoMoon.io -->
<svg version="1.1" xmlns="http://www.w3.org/2000/svg" width="28" height="32" viewBox="0 0 28 32">
<title>expand-arrows-alt</title>
<path d="M28.143 21.138v7.034c0 0.835-0.672 1.507-1.507 1.507h-7.034c-1.344 0-2.016-1.627-1.068-2.575l2.274-2.274-6.739-6.733-6.733 6.739 2.274 2.267c0.948 0.948 0.276 2.575-1.068 2.575h-7.034c-0.835 0-1.507-0.672-1.507-1.507v-7.034c0-1.344 1.627-2.016 2.575-1.068l2.274 2.274 6.739-6.733-6.739-6.739-2.274 2.28c-0.948 0.948-2.575 0.276-2.575-1.068v-7.034c0-0.835 0.672-1.507 1.507-1.507h7.034c1.344 0 2.016 1.627 1.068 2.575l-2.274 2.274 6.733 6.733 6.739-6.739-2.274-2.267c-0.948-0.948-0.276-2.575 1.068-2.575h7.034c0.835 0 1.507 0.672 1.507 1.507v7.034c0 1.344-1.627 2.016-2.575 1.068l-2.274-2.274-6.739 6.733 6.739 6.739 2.274-2.274c0.948-0.955 2.575-0.283 2.575 1.061z"></path>
</svg>
