<!-- Generated by IcoMoon.io -->
<svg version="1.1" xmlns="http://www.w3.org/2000/svg" width="28" height="32" viewBox="0 0 28 32">
<title>expand</title>
<path d="M0 10.838v-7.788c0-0.835 0.672-1.507 1.507-1.507h7.788c0.415 0 0.754 0.339 0.754 0.754v2.512c0 0.415-0.339 0.754-0.754 0.754h-5.276v5.276c0 0.415-0.339 0.754-0.754 0.754h-2.512c-0.415 0-0.754-0.339-0.754-0.754zM18.088 2.296v2.512c0 0.415 0.339 0.754 0.754 0.754h5.276v5.276c0 0.415 0.339 0.754 0.754 0.754h2.512c0.415 0 0.754-0.339 0.754-0.754v-7.788c0-0.835-0.672-1.507-1.507-1.507h-7.788c-0.415 0-0.754 0.339-0.754 0.754zM27.383 19.631h-2.512c-0.415 0-0.754 0.339-0.754 0.754v5.276h-5.276c-0.415 0-0.754 0.339-0.754 0.754v2.512c0 0.415 0.339 0.754 0.754 0.754h7.788c0.835 0 1.507-0.672 1.507-1.507v-7.788c0-0.415-0.339-0.754-0.754-0.754zM10.049 28.926v-2.512c0-0.415-0.339-0.754-0.754-0.754h-5.276v-5.276c0-0.415-0.339-0.754-0.754-0.754h-2.512c-0.415 0-0.754 0.339-0.754 0.754v7.788c0 0.835 0.672 1.507 1.507 1.507h7.788c0.415 0 0.754-0.339 0.754-0.754z"></path>
</svg>
