<!-- Generated by IcoMoon.io -->
<svg version="1.1" xmlns="http://www.w3.org/2000/svg" width="31" height="32" viewBox="0 0 31 32">
<title>expeditedssl</title>
<path d="M15.576 2.259c-7.373 0-13.353 5.979-13.353 13.353s5.979 13.353 13.353 13.353 13.353-5.979 13.353-13.353-5.979-13.353-13.353-13.353zM9.459 10.606c0-3.373 2.745-6.117 6.117-6.117s6.117 2.745 6.117 6.117v1.671c0 0.314-0.245 0.559-0.559 0.559h-1.112c-0.314 0-0.559-0.245-0.559-0.559v-1.671c0-5.156-7.788-5.156-7.788 0v1.671c0 0.314-0.245 0.559-0.559 0.559h-1.112c-0.314 0-0.559-0.245-0.559-0.559v-1.671zM24.476 23.399c0 0.609-0.503 1.112-1.112 1.112h-15.576c-0.609 0-1.112-0.503-1.112-1.112v-8.9c0-0.609 0.502-1.112 1.112-1.112h15.576c0.609 0 1.112 0.502 1.112 1.112v8.9zM8.9 14.776v8.347c0 0.157-0.119 0.276-0.276 0.276h-0.559c-0.157 0-0.276-0.119-0.276-0.276v-8.347c0-0.157 0.119-0.276 0.276-0.276h0.559c0.157 0 0.276 0.119 0.276 0.276zM17.799 17.835c0 0.816-0.452 1.532-1.112 1.909v1.985c0 0.314-0.245 0.559-0.559 0.559h-1.112c-0.314 0-0.559-0.245-0.559-0.559v-1.985c-0.66-0.383-1.112-1.093-1.112-1.909 0-1.237 0.992-2.223 2.223-2.223s2.23 0.992 2.23 2.223zM15.576 0.035c-8.604 0-15.576 6.971-15.576 15.576s6.971 15.576 15.576 15.576 15.576-6.971 15.576-15.576-6.971-15.576-15.576-15.576zM15.576 30.076c-7.976 0-14.464-6.488-14.464-14.464s6.488-14.464 14.464-14.464 14.464 6.488 14.464 14.464-6.488 14.464-14.464 14.464z"></path>
</svg>
