<!-- Generated by IcoMoon.io -->
<svg version="1.1" xmlns="http://www.w3.org/2000/svg" width="28" height="32" viewBox="0 0 28 32">
<title>external-link-square-alt</title>
<path d="M28.137 4.557v22.108c0 1.665-1.35 3.015-3.015 3.015h-22.108c-1.665 0-3.015-1.35-3.015-3.015v-22.108c0-1.665 1.35-3.015 3.015-3.015h22.108c1.665 0 3.015 1.35 3.015 3.015zM22.61 5.562h-7.032c-1.339 0-2.015 1.624-1.066 2.573l2.009 2.009-12.28 12.28c-0.294 0.294-0.294 0.771 0 1.066l1.949 1.949c0.294 0.294 0.772 0.294 1.066 0l12.28-12.28 2.009 2.009c0.944 0.944 2.573 0.281 2.573-1.066v-7.033c0-0.832-0.675-1.507-1.507-1.507z"></path>
</svg>
