<!-- Generated by IcoMoon.io -->
<svg version="1.1" xmlns="http://www.w3.org/2000/svg" width="36" height="32" viewBox="0 0 36 32">
<title>external-link-alt</title>
<path d="M36.176 1.040v8.038c0 1.348-1.63 2.009-2.573 1.066l-2.243-2.243-15.295 15.295c-0.589 0.589-1.543 0.589-2.132 0l-1.421-1.421c-0.589-0.589-0.589-1.543 0-2.132l15.295-15.295-2.242-2.243c-0.947-0.947-0.276-2.573 1.066-2.573h8.038c0.833 0 1.507 0.675 1.507 1.507zM25.564 16.541l-1.005 1.005c-0.273 0.273-0.442 0.65-0.442 1.066 0 0 0 0 0 0v0 9.059h-20.098v-20.098h16.581c0.416-0 0.793-0.169 1.066-0.441l1.005-1.005c0.95-0.95 0.277-2.573-1.066-2.573h-18.591c-1.665 0-3.015 1.35-3.015 3.015v22.108c0 1.665 1.35 3.015 3.015 3.015h22.108c1.665 0 3.015-1.35 3.015-3.015v-11.069c0-1.343-1.624-2.015-2.573-1.066z"></path>
</svg>
