<!-- Generated by IcoMoon.io -->
<svg version="1.1" xmlns="http://www.w3.org/2000/svg" width="36" height="32" viewBox="0 0 36 32">
<title>eye-slash1</title>
<path d="M18.006 24.152l2.046 2.923c-0.588 0.059-1.272 0.092-1.964 0.093h-0c-7.525 0-14.129-4.016-17.671-10.026-0.262-0.438-0.417-0.966-0.417-1.531s0.155-1.093 0.425-1.544l-0.008 0.014c1.509-2.56 3.574-4.759 6.031-6.44l3.585 5.121c-0.315 0.891-0.487 1.85-0.487 2.849 0 4.694 3.777 8.497 8.46 8.541zM35.759 17.142c-1.989 3.375-4.946 6.121-8.49 7.881l0.001 0.001 2.605 3.718c0.477 0.682 0.312 1.622-0.371 2.099l-0.823 0.577c-0.682 0.477-1.622 0.312-2.099-0.371l-20.279-28.565c-0.477-0.682-0.312-1.622 0.371-2.099l0.823-0.577c0.682-0.477 1.622-0.312 2.099 0.371l3.205 4.561c1.688-0.445 3.46-0.682 5.288-0.682 7.525 0 14.129 4.016 17.671 10.026 0.262 0.438 0.417 0.966 0.417 1.531s-0.155 1.093-0.425 1.544l0.008-0.014zM26.63 15.611c0-4.721-3.821-8.542-8.542-8.542-1.127 0-2.202 0.218-3.186 0.614l1.212 1.699c1.625-0.513 3.457-0.387 5.050 0.465h-0.002c-1.485 0-2.689 1.204-2.689 2.689 0 1.484 1.203 2.689 2.689 2.689 1.485 0 2.689-1.204 2.689-2.689v-0.002c1.16 2.166 1.024 4.893-0.518 6.968v0.001l1.213 1.7c1.298-1.498 2.084-3.453 2.084-5.593zM16.456 21.938l-4.869-6.956c-0.315 3.29 1.841 6.177 4.869 6.956z"></path>
</svg>
