<!-- Generated by IcoMoon.io -->
<svg version="1.1" xmlns="http://www.w3.org/2000/svg" width="32" height="32" viewBox="0 0 32 32">
<title>eye-dropper</title>
<path d="M3.187 20.463c-0.754 0.754-1.178 1.776-1.178 2.843v2.857l-2.010 3.517 2.010 2.010 3.517-2.010h2.857c1.066 0 2.088-0.423 2.842-1.177l7.954-7.953-8.039-8.039-7.953 7.952zM30.391 1.299c-2.353-2.355-6.173-2.355-8.526 0l-4.842 4.842-0.823-0.823c-0.593-0.593-1.548-0.585-2.132 0l-2.573 2.573c-0.588 0.588-0.588 1.543 0 2.132l10.171 10.171c0.593 0.593 1.548 0.585 2.132 0l2.573-2.572c0.588-0.588 0.588-1.543 0-2.132l-0.823-0.823 4.842-4.842c2.356-2.354 2.356-6.171 0.001-8.526z"></path>
</svg>
