<!-- Generated by IcoMoon.io -->
<svg version="1.1" xmlns="http://www.w3.org/2000/svg" width="36" height="32" viewBox="0 0 36 32">
<title>eye-slash</title>
<path d="M17.127 22.089c-5.055-0.566-8.555-5.457-7.344-10.491l7.344 10.491zM18.088 24.153c-6.441 0-12.065-3.436-15.073-8.542 1.366-2.319 3.272-4.292 5.549-5.757l-1.73-2.471c-2.625 1.71-4.829 4.003-6.416 6.697-0.262 0.438-0.417 0.966-0.417 1.531s0.155 1.093 0.425 1.544l-0.008-0.014c3.54 6.007 10.143 10.026 17.671 10.026 0 0 0.001 0 0.001 0 0.877 0 1.742-0.054 2.59-0.159l-0.102 0.010-2.011-2.873c-0.142 0.004-0.31 0.007-0.478 0.007h-0.001zM35.759 17.142c-2.087 3.542-5.239 6.39-9.016 8.133l3.022 4.317c0.239 0.341 0.156 0.811-0.185 1.050l-1.302 0.912c-0.341 0.239-0.811 0.156-1.050-0.185l-20.816-29.738c-0.239-0.341-0.156-0.811 0.185-1.050l1.302-0.912c0.341-0.239 0.811-0.156 1.050 0.185l3.487 4.982c1.796-0.509 3.693-0.782 5.652-0.782 7.528 0 14.131 4.019 17.671 10.026 0.262 0.438 0.417 0.966 0.417 1.531s-0.155 1.093-0.425 1.544l0.008-0.014zM33.162 15.611c-2.773-4.706-7.768-7.993-13.576-8.479-0.615 0.633-0.995 1.497-0.995 2.45 0 1.943 1.575 3.517 3.517 3.517s3.517-1.575 3.517-3.517l-0-0.003c1.924 3.597 1.051 8.181-2.319 10.785l1.677 2.395c3.446-1.461 6.315-3.983 8.18-7.148z"></path>
</svg>
