<!-- Generated by IcoMoon.io -->
<svg version="1.1" xmlns="http://www.w3.org/2000/svg" width="36" height="32" viewBox="0 0 36 32">
<title>eye</title>
<path d="M35.759 14.081c-3.541-6.009-10.146-10.026-17.671-10.026-7.528 0-14.131 4.019-17.671 10.026-0.262 0.438-0.417 0.966-0.417 1.531s0.155 1.093 0.425 1.544l-0.008-0.014c3.541 6.009 10.146 10.026 17.671 10.026 7.528 0 14.131-4.019 17.671-10.026 0.262-0.438 0.417-0.966 0.417-1.531s-0.155-1.093-0.425-1.544l0.008 0.014zM18.088 24.153c-6.441 0-12.065-3.436-15.073-8.542 2.773-4.706 7.768-7.993 13.576-8.479 0.615 0.633 0.995 1.497 0.995 2.45 0 1.942-1.575 3.517-3.517 3.517s-3.517-1.575-3.517-3.517l0-0.003c-0.641 1.199-1.005 2.568-1.005 4.022 0 4.717 3.824 8.542 8.542 8.542s8.542-3.824 8.542-8.542c0-1.949-0.653-3.745-1.752-5.182 3.492 1.454 6.4 3.996 8.284 7.192-3.009 5.106-8.632 8.542-15.073 8.542z"></path>
</svg>
