<!-- Generated by IcoMoon.io -->
<svg version="1.1" xmlns="http://www.w3.org/2000/svg" width="36" height="32" viewBox="0 0 36 32">
<title>eye1</title>
<path d="M35.759 14.081c-3.541-6.009-10.146-10.026-17.671-10.026-7.528 0-14.131 4.019-17.671 10.026-0.262 0.438-0.417 0.966-0.417 1.531s0.155 1.093 0.425 1.544l-0.008-0.014c3.541 6.009 10.146 10.026 17.671 10.026 7.528 0 14.131-4.019 17.671-10.026 0.262-0.438 0.417-0.966 0.417-1.531s-0.155-1.093-0.425-1.544l0.008 0.014zM18.088 24.153c-4.721 0-8.542-3.82-8.542-8.542s3.82-8.542 8.542-8.542c4.721 0 8.542 3.82 8.542 8.542s-3.82 8.542-8.542 8.542zM24.62 15.611c0 3.607-2.924 6.532-6.532 6.532s-6.532-2.924-6.532-6.532c0-1.112 0.278-2.159 0.768-3.076l-0 0.002c0 1.485 1.204 2.69 2.69 2.69s2.69-1.204 2.69-2.69c0-1.485-1.204-2.69-2.69-2.69l-0.002 0c0.917-0.49 1.964-0.768 3.076-0.768 3.607 0 6.532 2.924 6.532 6.532z"></path>
</svg>
