<!-- Generated by IcoMoon.io -->
<svg version="1.1" xmlns="http://www.w3.org/2000/svg" width="28" height="32" viewBox="0 0 28 32">
<title>facebook</title>
<path d="M28.137 3.094v25.028c0 0.86-0.697 1.551-1.551 1.551h-7.172v-10.891h3.655l0.546-4.246h-4.208v-2.713c0-1.231 0.339-2.066 2.104-2.066h2.248v-3.8c-0.389-0.050-1.721-0.17-3.278-0.17-3.241 0-5.464 1.978-5.464 5.615v3.134h-3.668v4.246h3.668v10.897h-13.466c-0.854 0-1.551-0.697-1.551-1.551v-25.035c0-0.854 0.697-1.551 1.551-1.551h25.028c0.86 0 1.558 0.697 1.558 1.551z"></path>
</svg>
