<!-- Generated by IcoMoon.io -->
<svg version="1.1" xmlns="http://www.w3.org/2000/svg" width="28" height="32" viewBox="0 0 28 32">
<title>facebook-square</title>
<path d="M28.137 4.557v22.108c0 1.664-1.35 3.015-3.015 3.015h-5.357v-11.129h3.806l0.546-4.246h-4.352v-2.713c0-1.231 0.339-2.066 2.104-2.066h2.248v-3.793c-0.389-0.050-1.721-0.17-3.278-0.17-3.241 0-5.464 1.978-5.464 5.615v3.134h-3.819v4.246h3.825v11.123h-12.367c-1.664 0-3.015-1.35-3.015-3.015v-22.108c0-1.664 1.35-3.015 3.015-3.015h22.108c1.664 0 3.015 1.35 3.015 3.015z"></path>
</svg>
