<!-- Generated by IcoMoon.io -->
<svg version="1.1" xmlns="http://www.w3.org/2000/svg" width="32" height="32" viewBox="0 0 32 32">
<title>fantasy-flight-games</title>
<path d="M16.078 1.597l-14.015 14.015 14.015 14.015 14.015-14.015-14.015-14.015zM5.548 15.601c0.123-0.126 0.749-0.773 6.060-6.122 2.603-2.622 5.413-2.749 7.522-1.174 1.547 1.156 3.898 3.699 3.903 3.706 0.043 0.046 0.067 0.18 0.036 0.212-0.708 0.744-1.424 1.478-2.104 2.179-2.149-2.029-2.545-2.402-3.047-2.76-1.116-0.797-2.6-0.636-3.579 0.32-0.136 0.134-0.112 0.215 0.008 0.336 0.185 0.185 1.765 1.779 2.204 2.247-0.75 0.729-1.486 1.443-2.242 2.177-0.755-0.788-1.537-1.603-2.295-2.394-1.343 1.325-2.618 2.582-3.885 3.831-1.084-1.071-1.925-1.905-2.766-2.739l0.183 0.181zM20.296 21.982c-2.229 2.225-4.905 2.395-6.72 1.286-1.387-0.848-2.473-2.015-4.58-4.198 0.757-0.777 1.494-1.534 2.221-2.28 2.074 2.004 2.328 2.262 2.806 2.643 1.161 0.926 2.67 0.859 3.726-0.113 0.231-0.213 0.232-0.229 0.009-0.455-0.665-0.674-1.331-1.347-1.995-2.021-0.083-0.084-0.19-0.156-0.050-0.295 0.678-0.673 1.349-1.352 2.023-2.028 0.016-0.016 0.041-0.024 0.12-0.067 0.777 0.808 1.565 1.628 2.34 2.434 1.32-1.302 2.59-2.555 3.847-3.795 0.859 0.842 1.704 1.669 2.566 2.514-1.267 1.31-5.13 5.195-6.312 6.375zM16.078-0.467l-16.078 16.078 16.078 16.078 16.078-16.078-16.078-16.078zM1.005 15.611l15.073-15.073 15.073 15.073-15.073 15.073-15.073-15.073z"></path>
</svg>
