<!-- Generated by IcoMoon.io -->
<svg version="1.1" xmlns="http://www.w3.org/2000/svg" width="32" height="32" viewBox="0 0 32 32">
<title>fast-backward</title>
<path d="M0 26.916v-22.61c0-0.415 0.339-0.754 0.754-0.754h2.512c0.415 0 0.754 0.339 0.754 0.754v9.54l10.771-9.829c1.294-1.074 3.297-0.176 3.297 1.545v8.284l10.771-9.829c1.294-1.074 3.297-0.176 3.297 1.545v20.098c0 1.721-2.003 2.619-3.297 1.545l-10.771-9.754v8.209c0 1.721-2.003 2.619-3.297 1.545l-10.771-9.754v9.465c0 0.415-0.339 0.754-0.754 0.754h-2.512c-0.415 0-0.754-0.339-0.754-0.754z"></path>
</svg>
