<!-- Generated by IcoMoon.io -->
<svg version="1.1" xmlns="http://www.w3.org/2000/svg" width="32" height="32" viewBox="0 0 32 32">
<title>fast-forward</title>
<path d="M32.157 4.306v22.61c0 0.415-0.339 0.754-0.754 0.754h-2.512c-0.415 0-0.754-0.339-0.754-0.754v-9.54l-10.771 9.829c-1.294 1.080-3.297 0.176-3.297-1.545v-8.284l-10.771 9.829c-1.294 1.080-3.297 0.176-3.297-1.545v-20.098c0-1.721 2.003-2.619 3.297-1.545l10.771 9.76v-8.215c0-1.721 2.003-2.619 3.297-1.545l10.771 9.76v-9.471c0-0.415 0.339-0.754 0.754-0.754h2.512c0.415 0 0.754 0.339 0.754 0.754z"></path>
</svg>
