<!-- Generated by IcoMoon.io -->
<svg version="1.1" xmlns="http://www.w3.org/2000/svg" width="32" height="32" viewBox="0 0 32 32">
<title>fax</title>
<path d="M4.020 7.572h-2.010c-1.11 0-2.010 0.9-2.010 2.010v20.098c0 1.11 0.9 2.010 2.010 2.010h2.010c1.11 0 2.010-0.9 2.010-2.010v-20.098c0-1.11-0.9-2.010-2.010-2.010zM30.147 9.582v-5.197c0-0.533-0.212-1.044-0.588-1.421l-2.843-2.842c-0.377-0.377-0.888-0.588-1.421-0.588h-15.246c-1.11 0-2.010 0.9-2.010 2.010v28.137c0 1.11 0.9 2.010 2.010 2.010h20.098c1.11 0 2.010-0.9 2.010-2.010v-18.088c0-1.11-0.9-2.010-2.010-2.010zM18.088 26.665c0 0.555-0.45 1.005-1.005 1.005h-2.010c-0.555 0-1.005-0.45-1.005-1.005v-2.010c0-0.555 0.45-1.005 1.005-1.005h2.010c0.555 0 1.005 0.45 1.005 1.005v2.010zM18.088 18.626c0 0.555-0.45 1.005-1.005 1.005h-2.010c-0.555 0-1.005-0.45-1.005-1.005v-2.010c0-0.555 0.45-1.005 1.005-1.005h2.010c0.555 0 1.005 0.45 1.005 1.005v2.010zM26.127 26.665c0 0.555-0.45 1.005-1.005 1.005h-2.010c-0.555 0-1.005-0.45-1.005-1.005v-2.010c0-0.555 0.45-1.005 1.005-1.005h2.010c0.555 0 1.005 0.45 1.005 1.005v2.010zM26.127 18.626c0 0.555-0.45 1.005-1.005 1.005h-2.010c-0.555 0-1.005-0.45-1.005-1.005v-2.010c0-0.555 0.45-1.005 1.005-1.005h2.010c0.555 0 1.005 0.45 1.005 1.005v2.010zM27.132 11.592h-16.078v-9.044h13.064v2.010c0 0.555 0.45 1.005 1.005 1.005h2.010v6.029z"></path>
</svg>
