<!-- Generated by IcoMoon.io -->
<svg version="1.1" xmlns="http://www.w3.org/2000/svg" width="32" height="32" viewBox="0 0 32 32">
<title>feather-alt</title>
<path d="M32.157-0.467c-3.252 0.224-26.1 2.399-27.697 18.064-0.194 1.674-0.304 3.356-0.376 5.040l11.234-11.223c0.393-0.393 1.030-0.393 1.422 0s0.392 1.029 0 1.421l-16.298 16.282c-0.589 0.588-0.589 1.543 0 2.132s1.544 0.588 2.134 0l3.588-3.584c2.643-0.009 5.285-0.159 7.911-0.462 3.359-0.342 6.093-1.663 8.327-3.551h-6.34l9.219-3.070c0.707-0.935 1.342-1.929 1.913-2.959h-5.096l6.691-3.342c2.632-6.402 3.254-13.097 3.368-14.746z"></path>
</svg>
