<!-- Generated by IcoMoon.io -->
<svg version="1.1" xmlns="http://www.w3.org/2000/svg" width="32" height="32" viewBox="0 0 32 32">
<title>feather</title>
<path d="M29.339 2.349c-3.929-3.924-10.154-4.069-15.845 1.616-4.937 4.932-3.83 3.826-5.386 5.38-3.797 3.793-4.421 9.473-3.997 13.263l11.207-11.195c0.393-0.393 1.030-0.393 1.423 0s0.392 1.029 0 1.421l-16.299 16.282c-0.589 0.588-0.589 1.543 0 2.132s1.545 0.588 2.134 0l4.151-4.147c3.285 0.987 10.795 1.141 15.502-3.451h-6.167l9.268-3.086c3.14-3.136 2.285-2.272 2.909-2.943h-6.141l8.262-2.751c2.854-4.677 2.155-9.348-1.021-12.521z"></path>
</svg>
