<!-- Generated by IcoMoon.io -->
<svg version="1.1" xmlns="http://www.w3.org/2000/svg" width="40" height="32" viewBox="0 0 40 32">
<title>fedex</title>
<path d="M36.804 17.401l3.348-3.762h-3.919l-1.363 1.558-1.413-1.558h-7.455v-1.005h3.523v-3.021h-9.496v4.742h-0.031c-0.603-0.691-1.35-0.93-2.223-0.93-1.784 0-3.128 1.218-3.599 2.82-1.13-3.731-6.117-3.618-7.656-0.879v-1.52h-3.442v-1.645h3.768v-2.581h-6.846v11.581h3.078v-4.867h3.071c-0.094 0.358-0.144 0.741-0.144 1.143 0 4.591 6.444 5.74 8.177 1.488h-2.638c-0.923 1.313-2.877 0.559-2.877-0.917h5.37c0.232 1.916 1.721 3.574 3.775 3.574 0.886 0 1.696-0.433 2.192-1.168h0.031v0.747h13.327l1.388-1.57 1.401 1.57h4.045l-3.392-3.8zM8.749 16.359c0.383-1.652 2.619-1.608 2.92 0h-2.92zM18.383 19.43c-2.173 0-2.135-3.944 0-3.944 2.047 0 2.167 3.944 0 3.944zM28.922 20.63h-5.929v-10.457h5.967v1.897h-3.523v2.129h3.486v1.765h-3.523v2.807h3.523v1.859zM26.039 18.13v-1.532h3.523v-2.763l3.184 3.58-3.184 3.58v-2.864h-3.523zM34.744 18.777l-1.639 1.853h-2.393l2.864-3.216-2.864-3.216h2.493l1.671 1.84 1.608-1.84h2.418l-2.851 3.203 2.889 3.228h-2.544l-1.652-1.853z"></path>
</svg>
