<!-- Generated by IcoMoon.io -->
<svg version="1.1" xmlns="http://www.w3.org/2000/svg" width="28" height="32" viewBox="0 0 28 32">
<title>fedora</title>
<path d="M3.368 29.652c-1.871-0.005-3.373-1.514-3.368-3.385l0.028-10.692c0.020-7.77 6.335-14.052 14.105-14.032s14.052 6.335 14.032 14.105-6.335 14.052-14.105 14.032l-10.692-0.028zM18.204 4.93c-3.658-0.009-6.62 2.937-6.629 6.595l-0.009 3.517-2.673-0.007c-2.049-0.005-2.057 3.090-0.008 3.095l2.11 0.006c0.281 0.001 0.562 0.283 0.562 0.564l-0.008 2.954c-0.005 1.941-1.585 3.513-3.526 3.508-0.588-0.001-0.59-0.1-0.985-0.101-0.83-0.002-1.535 0.7-1.537 1.544-0.003 0.978 0.891 1.522 1.248 1.522 3.851 0.807 7.884-2.113 7.895-6.465l0.009-3.517 2.673 0.007c2.051 0.005 2.054-3.090 0.008-3.095l-2.11-0.006c-0.311-0.001-0.562-0.253-0.562-0.564l0.008-2.954c0.006-2.545 2.426-3.823 4.145-3.45 0.965 0.244 1.9-0.529 1.903-1.5 0.002-0.76-0.545-1.394-1.248-1.509-0.422-0.099-0.83-0.143-1.266-0.144zM6.836 16.071l-0.744-0.748c-0.296 0.084-0.592 0.195-0.859 0.335l1.698 1.706c-0.098-0.254-0.153-0.507-0.153-0.788zM6.391 24.736v0zM5.078 26.604c0.001-0.323 0.086-0.633 0.227-0.9l-3.887-3.907c-0.001 0.479 0.068 0.929 0.18 1.379l3.48 3.498v-0.070zM5.426 27.73c-0.126-0.183-0.21-0.366-0.266-0.577l-3.41-3.427c0.6 1.801 1.947 3.254 3.675 4.005zM19.382 17.116l0.744 0.747c0.296-0.084 0.592-0.195 0.859-0.335l-1.698-1.706c0.098 0.254 0.153 0.507 0.153 0.788zM21.154 6.584c-0.001 0.323-0.1 0.605-0.242 0.9l3.887 3.935c-0.012-0.506-0.068-0.957-0.179-1.408l-3.466-3.526-0.001 0.098zM20.791 5.457c0.126 0.183 0.21 0.366 0.266 0.577l3.41 3.427c-0.6-1.802-1.946-3.254-3.675-4.005zM19.816 17.948l-0.533-0.536c-0.113 0.267-0.269 0.506-0.48 0.716 0.352-0.028 0.69-0.097 1.014-0.18zM22.86 16.225l-2.189-2.2c-0.197 0.195-0.413 0.371-0.647 0.523l-0.016 0.009 2.217 2.228c0.225-0.182 0.437-0.364 0.634-0.561zM21.999 16.954l-2.274-2.257c-0.254 0.14-0.55 0.224-0.859 0.293l2.385 2.412c0.254-0.14 0.508-0.294 0.747-0.448zM23.593 15.354l-2.245-2.257c-0.141 0.267-0.296 0.506-0.48 0.716l2.189 2.2c0.184-0.21 0.367-0.421 0.537-0.66zM24.173 14.357l-2.484-2.497c-0.029 0.337-0.1 0.661-0.227 0.956l2.287 2.299c0.155-0.239 0.296-0.492 0.424-0.759zM24.798 11.784l-4.041-4.062c-0.17 0.239-0.381 0.435-0.62 0.575l4.518 4.528c0.085-0.323 0.128-0.703 0.143-1.041zM24.597 13.176l-3.339-3.357c0.266 0.493 0.433 1.056 0.446 1.647l2.596 2.61c0.114-0.295 0.213-0.59 0.298-0.9zM3.993 16.401c-0.225 0.182-0.451 0.365-0.634 0.589l2.189 2.172c0.197-0.197 0.423-0.379 0.663-0.533l-2.217-2.229zM4.951 15.785c-0.239 0.14-0.493 0.294-0.705 0.448l2.217 2.257c0.282-0.14 0.592-0.237 0.887-0.293l-2.399-2.412zM7.415 15.059c-0.352 0.027-0.69 0.097-1.014 0.18l0.533 0.536c0.128-0.266 0.283-0.506 0.48-0.716zM1.549 20.334c-0.071 0.352-0.128 0.703-0.129 1.069l4.042 4.034c0.17-0.21 0.381-0.407 0.62-0.547l-4.533-4.556zM2.469 18.071c-0.155 0.239-0.296 0.492-0.424 0.759l2.484 2.497c0.029-0.337 0.1-0.661 0.227-0.956l-2.287-2.299zM1.918 19.097c-0.113 0.309-0.212 0.604-0.298 0.914l3.312 3.357c-0.238-0.493-0.405-1.056-0.418-1.647l-2.596-2.623zM3.161 17.173c-0.183 0.21-0.367 0.421-0.536 0.66l2.245 2.257c0.141-0.281 0.296-0.506 0.48-0.716l-2.189-2.201z"></path>
</svg>
