<!-- Generated by IcoMoon.io -->
<svg version="1.1" xmlns="http://www.w3.org/2000/svg" width="16" height="32" viewBox="0 0 16 32">
<title>female</title>
<path d="M8.039-0.467c2.22 0 4.020 1.8 4.020 4.020s-1.8 4.020-4.020 4.020c-2.22 0-4.020-1.8-4.020-4.020s1.8-4.020 4.020-4.020zM15.531 21.778l-3.015-12.059c-0.169-0.661-0.76-1.142-1.462-1.142h-0.713c-1.426 0.656-3.115 0.684-4.602 0h-0.713c-0.703 0-1.293 0.481-1.46 1.131l-0.002 0.010-3.015 12.059c-0.237 0.95 0.481 1.873 1.462 1.873h3.517v6.532c0 0.832 0.675 1.507 1.507 1.507h2.010c0.832 0 1.507-0.675 1.507-1.507v-6.532h3.517c0.979 0 1.7-0.921 1.462-1.873z"></path>
</svg>
