<!-- Generated by IcoMoon.io -->
<svg version="1.1" xmlns="http://www.w3.org/2000/svg" width="22" height="32" viewBox="0 0 22 32">
<title>figma</title>
<path d="M21.436 15.611c0 2.958-2.399 5.357-5.357 5.357s-5.357-2.399-5.357-5.357 2.399-5.357 5.357-5.357 5.357 2.399 5.357 5.357zM16.078 10.254c2.958 0 5.357-2.399 5.357-5.357s-2.399-5.364-5.357-5.364h-10.721c-2.958 0-5.357 2.399-5.357 5.357s2.399 5.357 5.357 5.357c-2.958 0.006-5.357 2.405-5.357 5.364s2.399 5.357 5.357 5.357c-2.958 0-5.357 2.399-5.357 5.364s2.399 5.357 5.357 5.357 5.357-2.399 5.357-5.357v-16.078h5.364z"></path>
</svg>
