<!-- Generated by IcoMoon.io -->
<svg version="1.1" xmlns="http://www.w3.org/2000/svg" width="24" height="32" viewBox="0 0 24 32">
<title>file-medical</title>
<path d="M23.678 6.128l-6.149-6.155c-0.283-0.283-0.666-0.44-1.068-0.44h-0.383v8.039h8.039v-0.383c0-0.396-0.157-0.779-0.44-1.061zM14.069 8.075v-8.542h-12.561c-0.835 0-1.507 0.672-1.507 1.507v29.142c0 0.835 0.672 1.507 1.507 1.507h21.103c0.835 0 1.507-0.672 1.507-1.507v-20.6h-8.542c-0.829 0-1.507-0.678-1.507-1.507zM18.088 18.124v3.015c0 0.276-0.226 0.503-0.503 0.503h-3.517v3.517c0 0.276-0.226 0.503-0.502 0.503h-3.015c-0.276 0-0.502-0.226-0.502-0.503v-3.517h-3.517c-0.276 0-0.503-0.226-0.503-0.503v-3.015c0-0.276 0.226-0.503 0.502-0.503h3.517v-3.517c0-0.276 0.226-0.502 0.502-0.502h3.015c0.276 0 0.502 0.226 0.502 0.502v3.517h3.517c0.276 0 0.503 0.226 0.503 0.503z"></path>
</svg>
