<!-- Generated by IcoMoon.io -->
<svg version="1.1" xmlns="http://www.w3.org/2000/svg" width="24" height="32" viewBox="0 0 24 32">
<title>file-archive1</title>
<path d="M14.069 8.075v-8.542h-3.994v2.010h-2.010v-2.010h-6.557c-0.835 0-1.507 0.672-1.507 1.507v29.142c0 0.835 0.672 1.507 1.507 1.507h21.103c0.835 0 1.507-0.672 1.507-1.507v-20.6h-8.542c-0.829 0-1.507-0.678-1.507-1.507zM6.023 1.543h2.010v2.010h-2.010v-2.010zM8.052 25.66c-2.085 0-3.643-1.909-3.228-3.95l1.231-6.098v-2.010h2.010v-2.010h-2.010v-2.010h2.010v-2.010h-2.010v-2.010h2.010v-2.010h2.010v2.010h-2.010v2.010h2.010v2.010h-2.010v2.010h2.010v2.010h-2.010v2.010h1.388c0.358 0 0.672 0.258 0.741 0.609l1.087 5.508c0.402 2.035-1.156 3.932-3.228 3.932zM10.105 22.332c0 0.936-0.911 1.696-2.035 1.696s-2.041-0.754-2.041-1.696c0-0.936 0.911-1.696 2.035-1.696s2.041 0.76 2.041 1.696zM24.118 7.189v0.383h-8.039v-8.039h0.383c0.402 0 0.785 0.157 1.068 0.44l6.149 6.155c0.283 0.283 0.44 0.666 0.44 1.061z"></path>
</svg>
