<!-- Generated by IcoMoon.io -->
<svg version="1.1" xmlns="http://www.w3.org/2000/svg" width="24" height="32" viewBox="0 0 24 32">
<title>file-csv</title>
<path d="M14.069 8.075v-8.542h-12.561c-0.835 0-1.507 0.672-1.507 1.507v29.142c0 0.835 0.672 1.507 1.507 1.507h21.103c0.835 0 1.507-0.672 1.507-1.507v-20.6h-8.542c-0.829 0-1.507-0.678-1.507-1.507zM8.039 17.119c0 0.278-0.225 0.503-0.502 0.503h-0.502c-0.555 0-1.005 0.45-1.005 1.005v2.010c0 0.555 0.45 1.005 1.005 1.005h0.502c0.278 0 0.502 0.225 0.502 0.503v1.005c0 0.278-0.225 0.503-0.502 0.503h-0.502c-1.665 0-3.015-1.35-3.015-3.015v-2.010c0-1.665 1.35-3.015 3.015-3.015h0.502c0.278 0 0.502 0.225 0.502 0.503v1.005zM10.82 23.651h-0.771c-0.278 0-0.502-0.225-0.502-0.503v-1.005c0-0.278 0.225-0.503 0.502-0.503h0.771c0.374 0 0.654-0.22 0.654-0.416 0-0.082-0.047-0.167-0.133-0.241l-1.375-1.179c-0.532-0.453-0.837-1.098-0.837-1.767 0-1.338 1.195-2.426 2.664-2.426h0.769c0.278 0 0.502 0.225 0.502 0.503v1.005c0 0.278-0.225 0.503-0.502 0.503h-0.771c-0.374 0-0.654 0.22-0.654 0.416 0 0.082 0.047 0.167 0.133 0.241l1.375 1.179c0.532 0.453 0.837 1.098 0.837 1.767 0.001 1.337-1.193 2.426-2.662 2.426zM16.078 16.114v1.306c0 1.273 0.358 2.523 1.005 3.572 0.647-1.049 1.005-2.299 1.005-3.572v-1.306c0-0.278 0.225-0.502 0.503-0.502h1.005c0.278 0 0.503 0.225 0.503 0.502v1.306c0 2.228-0.809 4.327-2.279 5.909-0.19 0.204-0.457 0.321-0.736 0.321s-0.546-0.117-0.736-0.321c-1.47-1.583-2.279-3.681-2.279-5.909v-1.306c0-0.278 0.225-0.502 0.502-0.502h1.005c0.278 0 0.503 0.225 0.503 0.502zM23.678 6.128l-6.149-6.155c-0.283-0.283-0.666-0.44-1.068-0.44h-0.383v8.039h8.039v-0.383c0-0.396-0.157-0.779-0.44-1.061z"></path>
</svg>
