<!-- Generated by IcoMoon.io -->
<svg version="1.1" xmlns="http://www.w3.org/2000/svg" width="24" height="32" viewBox="0 0 24 32">
<title>file-excel1</title>
<path d="M14.069 8.075v-8.542h-12.561c-0.835 0-1.507 0.672-1.507 1.507v29.142c0 0.835 0.672 1.507 1.507 1.507h21.103c0.835 0 1.507-0.672 1.507-1.507v-20.6h-8.542c-0.829 0-1.507-0.678-1.507-1.507zM17.843 14.763l-3.775 5.872 3.775 5.872c0.32 0.503-0.038 1.162-0.634 1.162h-2.192c-0.276 0-0.534-0.151-0.666-0.396-1.231-2.274-2.292-4.315-2.292-4.315-0.402 0.93-0.628 1.256-2.299 4.321-0.132 0.245-0.383 0.396-0.66 0.396h-2.192c-0.597 0-0.955-0.66-0.634-1.162l3.787-5.872-3.787-5.872c-0.327-0.502 0.038-1.162 0.634-1.162h2.186c0.276 0 0.534 0.151 0.666 0.396 1.639 3.065 1.256 2.11 2.299 4.302 0 0 0.383-0.735 2.299-4.302 0.132-0.245 0.389-0.396 0.666-0.396h2.186c0.597-0.006 0.955 0.653 0.634 1.156zM24.118 7.189v0.383h-8.039v-8.039h0.383c0.402 0 0.785 0.157 1.068 0.44l6.149 6.155c0.283 0.283 0.44 0.666 0.44 1.061z"></path>
</svg>
