<!-- Generated by IcoMoon.io -->
<svg version="1.1" xmlns="http://www.w3.org/2000/svg" width="24" height="32" viewBox="0 0 24 32">
<title>file-download</title>
<path d="M14.069 8.075v-8.542h-12.561c-0.835 0-1.507 0.672-1.507 1.507v29.142c0 0.835 0.672 1.507 1.507 1.507h21.103c0.835 0 1.507-0.672 1.507-1.507v-20.6h-8.542c-0.829 0-1.507-0.678-1.507-1.507zM18.87 21.349l-6.056 6.011c-0.418 0.415-1.092 0.415-1.51 0l-6.056-6.011c-0.638-0.633-0.19-1.718 0.707-1.718h4.094v-5.024c0-0.555 0.45-1.005 1.005-1.005h2.010c0.555 0 1.005 0.45 1.005 1.005v5.024h4.094c0.897 0 1.344 1.086 0.708 1.718zM23.678 6.128l-6.149-6.155c-0.283-0.283-0.666-0.44-1.068-0.44h-0.383v8.039h8.039v-0.383c0-0.396-0.157-0.779-0.44-1.061z"></path>
</svg>
