<!-- Generated by IcoMoon.io -->
<svg version="1.1" xmlns="http://www.w3.org/2000/svg" width="24" height="32" viewBox="0 0 24 32">
<title>file-audio</title>
<path d="M23.235 5.684l-5.268-5.268c-0.546-0.546-1.299-0.883-2.132-0.883h-12.82c-1.665 0-3.015 1.35-3.015 3.015v26.127c0 1.665 1.35 3.015 3.015 3.015h18.088c1.665 0 3.015-1.35 3.015-3.015v-20.859c0-0.832-0.337-1.586-0.883-2.132v0zM20.859 7.572h-4.781v-4.781l4.781 4.781zM3.015 28.675v-26.127h10.049v6.532c0 0.832 0.675 1.507 1.507 1.507h6.532v18.088h-18.088zM12.059 23.9c0 0.671-0.812 1.008-1.287 0.533l-2.231-2.259h-1.759c-0.416 0-0.754-0.338-0.754-0.754v-3.517c0-0.416 0.338-0.754 0.754-0.754h1.759l2.231-2.32c0.475-0.475 1.287-0.139 1.287 0.533v8.539zM14.646 20.94c0.569-0.584 0.569-1.516 0-2.1-1.391-1.429 0.768-3.533 2.16-2.103 1.708 1.755 1.709 4.55 0 6.306-1.369 1.406-3.577-0.648-2.16-2.103z"></path>
</svg>
