<!-- Generated by IcoMoon.io -->
<svg version="1.1" xmlns="http://www.w3.org/2000/svg" width="24" height="32" viewBox="0 0 24 32">
<title>file-alt</title>
<path d="M18.088 15.109v1.759c0 0.415-0.339 0.754-0.754 0.754h-10.551c-0.415 0-0.754-0.339-0.754-0.754v-1.759c0-0.415 0.339-0.754 0.754-0.754h10.551c0.415 0 0.754 0.339 0.754 0.754zM17.334 19.631h-10.551c-0.415 0-0.754 0.339-0.754 0.754v1.759c0 0.415 0.339 0.754 0.754 0.754h10.551c0.415 0 0.754-0.339 0.754-0.754v-1.759c0-0.415-0.339-0.754-0.754-0.754zM24.118 7.817v20.858c0 1.664-1.35 3.015-3.015 3.015h-18.088c-1.664 0-3.015-1.35-3.015-3.015v-26.127c0-1.664 1.35-3.015 3.015-3.015h12.819c0.798 0 1.564 0.32 2.129 0.886l5.269 5.269c0.565 0.559 0.886 1.332 0.886 2.129zM16.078 2.793v4.78h4.78l-4.78-4.78zM21.103 28.675v-18.088h-6.532c-0.835 0-1.507-0.672-1.507-1.507v-6.532h-10.049v26.127h18.088z"></path>
</svg>
