<!-- Generated by IcoMoon.io -->
<svg version="1.1" xmlns="http://www.w3.org/2000/svg" width="24" height="32" viewBox="0 0 24 32">
<title>file-powerpoint1</title>
<path d="M12.166 16.566c0.553 0 0.973 0.17 1.275 0.509 0.603 0.685 0.615 2.054-0.012 2.77-0.308 0.352-0.747 0.534-1.325 0.534h-1.69v-3.812h1.752zM23.678 6.128l-6.155-6.155c-0.283-0.283-0.666-0.44-1.068-0.44h-0.377v8.039h8.039v-0.383c0-0.396-0.157-0.779-0.44-1.061zM14.069 8.075v-8.542h-12.561c-0.835 0-1.507 0.672-1.507 1.507v29.142c0 0.835 0.672 1.507 1.507 1.507h21.103c0.835 0 1.507-0.672 1.507-1.507v-20.6h-8.542c-0.829 0-1.507-0.678-1.507-1.507zM17.397 18.45c0 5.671-5.577 4.874-6.978 4.874v3.593c0 0.415-0.339 0.754-0.754 0.754h-1.934c-0.415 0-0.754-0.339-0.754-0.754v-12.549c0-0.415 0.339-0.754 0.754-0.754h5.087c2.795 0 4.579 2.060 4.579 4.836z"></path>
</svg>
