<!-- Generated by IcoMoon.io -->
<svg version="1.1" xmlns="http://www.w3.org/2000/svg" width="24" height="32" viewBox="0 0 24 32">
<title>file-code1</title>
<path d="M24.118 7.192v0.381h-8.039v-8.039h0.381c0.4 0 0.783 0.159 1.066 0.442l6.151 6.151c0.273 0.273 0.441 0.65 0.442 1.066v0zM15.576 9.582c-0.829 0-1.507-0.678-1.507-1.507v-8.542h-12.561c-0.833 0-1.507 0.675-1.507 1.507v29.142c0 0.832 0.675 1.507 1.507 1.507h21.103c0.832 0 1.507-0.675 1.507-1.507v-20.6h-8.542zM7.738 24.687c-0.062 0.066-0.15 0.107-0.247 0.107-0.090 0-0.171-0.035-0.232-0.092l0 0-4.074-3.819c-0.066-0.062-0.107-0.15-0.107-0.247s0.041-0.185 0.107-0.247l0-0 4.074-3.819c0.061-0.057 0.142-0.092 0.232-0.092 0.098 0 0.185 0.041 0.247 0.107l0 0 1.23 1.312c0.057 0.061 0.092 0.142 0.092 0.232 0 0.101-0.044 0.192-0.115 0.254l-0 0-2.56 2.253 2.56 2.253c0.071 0.062 0.115 0.153 0.115 0.255 0 0.090-0.035 0.171-0.092 0.232l0-0-1.23 1.312zM10.96 27.858l-1.724-0.501c-0.142-0.042-0.245-0.172-0.245-0.326 0-0.034 0.005-0.066 0.014-0.097l-0.001 0.002 3.859-13.291c0.042-0.142 0.172-0.245 0.326-0.245 0.034 0 0.066 0.005 0.097 0.014l-0.002-0.001 1.724 0.501c0.142 0.042 0.245 0.172 0.245 0.326 0 0.034-0.005 0.066-0.014 0.097l0.001-0.002-3.859 13.291c-0.042 0.142-0.172 0.245-0.326 0.245-0.034 0-0.066-0.005-0.097-0.014l0.002 0.001zM21.058 20.883l-4.074 3.819c-0.061 0.057-0.142 0.092-0.232 0.092-0.098 0-0.185-0.041-0.247-0.107l-0-0-1.23-1.312c-0.057-0.061-0.092-0.142-0.092-0.232 0-0.101 0.044-0.192 0.115-0.254l0-0 2.56-2.253-2.56-2.253c-0.071-0.062-0.115-0.153-0.115-0.255 0-0.090 0.035-0.171 0.092-0.232l-0 0 1.23-1.312c0.062-0.066 0.15-0.107 0.247-0.107 0.090 0 0.171 0.035 0.232 0.092l-0-0 4.074 3.819c0.066 0.062 0.107 0.15 0.107 0.247s-0.041 0.185-0.107 0.247l-0 0z"></path>
</svg>
