<!-- Generated by IcoMoon.io -->
<svg version="1.1" xmlns="http://www.w3.org/2000/svg" width="24" height="32" viewBox="0 0 24 32">
<title>file-video1</title>
<path d="M24.118 7.192v0.381h-8.039v-8.039h0.381c0.4 0 0.783 0.159 1.066 0.442l6.151 6.151c0.273 0.273 0.441 0.65 0.442 1.066v0zM14.069 8.075v-8.542h-12.561c-0.833 0-1.507 0.675-1.507 1.507v29.142c0 0.832 0.675 1.507 1.507 1.507h21.103c0.832 0 1.507-0.675 1.507-1.507v-20.6h-8.542c-0.829 0-1.507-0.678-1.507-1.507zM20.098 17.12v7.032c0 1.347-1.629 2.010-2.573 1.066l-3.456-3.455v2.39c0 0.832-0.675 1.507-1.507 1.507h-7.034c-0.833 0-1.507-0.675-1.507-1.507v-7.034c0-0.832 0.675-1.507 1.507-1.507h7.034c0.832 0 1.507 0.675 1.507 1.507v2.39l3.456-3.455c0.943-0.943 2.573-0.282 2.573 1.066z"></path>
</svg>
