<!-- Generated by IcoMoon.io -->
<svg version="1.1" xmlns="http://www.w3.org/2000/svg" width="24" height="32" viewBox="0 0 24 32">
<title>file-pdf</title>
<path d="M23.232 5.682l-5.269-5.269c-0.565-0.565-1.331-0.886-2.129-0.886h-12.819c-1.664 0.006-3.015 1.357-3.015 3.021v26.127c0 1.664 1.35 3.015 3.015 3.015h18.088c1.664 0 3.015-1.35 3.015-3.015v-20.858c0-0.798-0.32-1.57-0.886-2.135zM20.858 7.572h-4.78v-4.78l4.78 4.78zM3.015 28.675v-26.127h10.049v6.532c0 0.835 0.672 1.507 1.507 1.507h6.532v18.088h-18.088zM18.729 19.65c-0.766-0.754-2.952-0.546-4.045-0.408-1.080-0.66-1.803-1.57-2.311-2.908 0.245-1.011 0.634-2.55 0.339-3.517-0.264-1.645-2.374-1.482-2.676-0.371-0.276 1.011-0.025 2.418 0.44 4.214-0.628 1.501-1.564 3.517-2.223 4.673-1.256 0.647-2.952 1.645-3.203 2.902-0.207 0.992 1.633 3.467 4.78-1.96 1.407-0.465 2.939-1.036 4.296-1.262 1.187 0.641 2.575 1.068 3.505 1.068 1.602 0 1.759-1.771 1.099-2.431zM6.287 24.536c0.32-0.86 1.539-1.853 1.909-2.198-1.193 1.903-1.909 2.242-1.909 2.198zM11.412 12.565c0.465 0 0.421 2.016 0.113 2.563-0.276-0.873-0.27-2.563-0.113-2.563zM9.879 21.145c0.609-1.061 1.13-2.324 1.551-3.435 0.521 0.948 1.187 1.708 1.89 2.23-1.306 0.27-2.443 0.823-3.442 1.206zM18.145 20.831s-0.314 0.377-2.343-0.49c2.205-0.163 2.569 0.339 2.343 0.49z"></path>
</svg>
