<!-- Generated by IcoMoon.io -->
<svg version="1.1" xmlns="http://www.w3.org/2000/svg" width="24" height="32" viewBox="0 0 24 32">
<title>file-prescription</title>
<path d="M14.069 8.075v-8.542h-12.561c-0.835 0-1.507 0.672-1.507 1.507v29.142c0 0.835 0.672 1.507 1.507 1.507h21.103c0.835 0 1.507-0.672 1.507-1.507v-20.6h-8.542c-0.829 0-1.507-0.678-1.507-1.507zM18.373 19.347l0.71 0.71c0.392 0.392 0.392 1.029 0 1.421l-1.878 1.878 1.888 1.888c0.392 0.392 0.392 1.029 0 1.421l-0.71 0.71c-0.392 0.392-1.029 0.392-1.421 0l-1.888-1.889-1.888 1.888c-0.393 0.392-1.029 0.392-1.421 0l-0.71-0.71c-0.393-0.392-0.393-1.029 0-1.421l1.888-1.888-3.726-3.725h-1.177v3.015c0 0.555-0.45 1.005-1.005 1.005h-1.005c-0.555 0-1.005-0.45-1.005-1.005v-10.049c0-0.555 0.45-1.005 1.005-1.005h5.024c2.22 0 4.020 1.799 4.020 4.020 0 1.521-0.855 2.829-2.101 3.512l2.101 2.102 1.878-1.878c0.392-0.392 1.029-0.392 1.421 0zM11.054 16.616h-3.015v-2.010h3.015c0.554 0 1.005 0.451 1.005 1.005s-0.451 1.005-1.005 1.005zM24.118 7.189v0.383h-8.039v-8.039h0.383c0.402 0 0.785 0.157 1.068 0.44l6.149 6.155c0.283 0.283 0.44 0.666 0.44 1.061z"></path>
</svg>
