<!-- Generated by IcoMoon.io -->
<svg version="1.1" xmlns="http://www.w3.org/2000/svg" width="24" height="32" viewBox="0 0 24 32">
<title>file-invoice</title>
<path d="M18.088 15.611h-12.059v4.020h12.059v-4.020zM23.678 6.128l-6.149-6.155c-0.283-0.283-0.666-0.44-1.068-0.44h-0.383v8.039h8.039v-0.383c0-0.396-0.157-0.779-0.44-1.061zM14.069 8.075v-8.542h-12.561c-0.835 0-1.507 0.672-1.507 1.507v29.142c0 0.835 0.672 1.507 1.507 1.507h21.103c0.835 0 1.507-0.672 1.507-1.507v-20.6h-8.542c-0.829 0-1.507-0.678-1.507-1.507zM4.020 4.055c0-0.278 0.225-0.502 0.503-0.502h5.024c0.278 0 0.502 0.225 0.502 0.502v1.005c0 0.278-0.225 0.502-0.502 0.502h-5.024c-0.278 0-0.502-0.225-0.502-0.502v-1.005zM4.020 8.075c0-0.278 0.225-0.502 0.503-0.502h5.024c0.278 0 0.502 0.225 0.502 0.502v1.005c0 0.278-0.225 0.502-0.502 0.502h-5.024c-0.278 0-0.502-0.225-0.502-0.502v-1.005zM20.098 27.168c0 0.278-0.225 0.503-0.503 0.503h-5.024c-0.278 0-0.502-0.225-0.502-0.503v-1.005c0-0.278 0.225-0.503 0.502-0.503h5.024c0.278 0 0.503 0.225 0.503 0.503v1.005zM20.098 14.606v6.029c0 0.555-0.45 1.005-1.005 1.005h-14.069c-0.555 0-1.005-0.45-1.005-1.005v-6.029c0-0.555 0.45-1.005 1.005-1.005h14.069c0.555 0 1.005 0.45 1.005 1.005z"></path>
</svg>
