<!-- Generated by IcoMoon.io -->
<svg version="1.1" xmlns="http://www.w3.org/2000/svg" width="24" height="32" viewBox="0 0 24 32">
<title>file-image</title>
<path d="M23.232 5.682l-5.269-5.269c-0.565-0.565-1.331-0.886-2.129-0.886h-12.819c-1.664 0.006-3.015 1.357-3.015 3.021v26.127c0 1.664 1.35 3.015 3.015 3.015h18.088c1.664 0 3.015-1.35 3.015-3.015v-20.858c0-0.798-0.32-1.57-0.886-2.135zM20.858 7.572h-4.78v-4.78l4.78 4.78zM3.015 28.675v-26.127h10.049v6.532c0 0.835 0.672 1.507 1.507 1.507h6.532v18.088h-18.088zM5.024 25.66h14.069v-8.039l-1.476-1.476c-0.295-0.295-0.773-0.295-1.068 0l-5.496 5.496-2.481-2.481c-0.295-0.295-0.772-0.295-1.068 0l-2.481 2.481v4.020zM8.039 10.587c-1.664 0-3.015 1.35-3.015 3.015s1.35 3.015 3.015 3.015 3.015-1.35 3.015-3.015-1.35-3.015-3.015-3.015z"></path>
</svg>
