<!-- Generated by IcoMoon.io -->
<svg version="1.1" xmlns="http://www.w3.org/2000/svg" width="24" height="32" viewBox="0 0 24 32">
<title>file-code</title>
<path d="M23.235 5.684l-5.268-5.268c-0.546-0.546-1.299-0.883-2.132-0.883h-12.82c-1.665 0-3.015 1.35-3.015 3.015v26.127c0 1.665 1.35 3.015 3.015 3.015h18.088c1.665 0 3.015-1.35 3.015-3.015v-20.859c0-0.832-0.337-1.586-0.883-2.132v0zM20.859 7.572h-4.781v-4.781l4.781 4.781zM3.015 28.675v-26.127h10.049v6.532c0 0.832 0.675 1.507 1.507 1.507h6.532v18.088h-18.088zM9.401 21.445l-2.061-1.814 2.061-1.814c0.115-0.102 0.188-0.25 0.188-0.415 0-0.146-0.057-0.28-0.15-0.378l0 0-1.093-1.166c-0.213-0.227-0.563-0.23-0.781-0.025l-3.621 3.395c-0.233 0.218-0.233 0.588 0 0.806l3.621 3.395c0.098 0.093 0.231 0.15 0.377 0.15 0 0 0.001 0 0.001 0h-0c0.001 0 0.001 0 0.002 0 0.158 0 0.301-0.067 0.402-0.174l0-0 1.093-1.166c0.093-0.099 0.15-0.232 0.15-0.378 0-0.165-0.072-0.313-0.187-0.414l-0.001-0.001zM14.694 13.415l-1.533-0.445c-0.046-0.014-0.099-0.022-0.154-0.022-0.25 0-0.462 0.166-0.53 0.395l-0.001 0.004-3.43 11.815c-0.085 0.293 0.084 0.6 0.377 0.685l1.533 0.445c0.294 0.085 0.6-0.085 0.685-0.377l3.43-11.815c0.085-0.293-0.084-0.6-0.377-0.685zM20.174 19.228l-3.621-3.395c-0.221-0.208-0.572-0.199-0.781 0.025l-1.093 1.166c-0.093 0.099-0.15 0.232-0.15 0.378 0 0.165 0.072 0.313 0.187 0.414l0.001 0.001 2.061 1.814-2.061 1.814c-0.115 0.102-0.188 0.25-0.188 0.415 0 0.146 0.057 0.28 0.15 0.378l-0-0 1.093 1.166c0.101 0.108 0.244 0.175 0.403 0.175 0.146 0 0.279-0.057 0.378-0.15l-0 0h-0l3.621-3.395c0.233-0.218 0.233-0.588-0-0.806z"></path>
</svg>
