<!-- Generated by IcoMoon.io -->
<svg version="1.1" xmlns="http://www.w3.org/2000/svg" width="24" height="32" viewBox="0 0 24 32">
<title>file-pdf1</title>
<path d="M11.424 15.618c-0.314-1.005-0.308-2.946-0.126-2.946 0.527 0 0.477 2.317 0.126 2.946zM11.318 18.582c-0.484 1.269-1.087 2.72-1.784 3.938 1.149-0.44 2.449-1.080 3.95-1.375-0.798-0.603-1.564-1.47-2.167-2.563zM5.408 26.42c0 0.050 0.829-0.339 2.192-2.525-0.421 0.396-1.828 1.539-2.192 2.525zM15.576 9.582h8.542v20.6c0 0.835-0.672 1.507-1.507 1.507h-21.103c-0.835 0-1.507-0.672-1.507-1.507v-29.142c0-0.835 0.672-1.507 1.507-1.507h12.561v8.542c0 0.829 0.678 1.507 1.507 1.507zM15.073 20.372c-1.256-0.766-2.091-1.821-2.682-3.379 0.283-1.162 0.729-2.927 0.389-4.032-0.295-1.847-2.663-1.664-3.002-0.427-0.314 1.149-0.025 2.77 0.509 4.836-0.729 1.733-1.803 4.057-2.563 5.389-0.006 0-0.006 0.006-0.013 0.006-1.702 0.873-4.622 2.795-3.423 4.271 0.352 0.433 1.005 0.628 1.35 0.628 1.124 0 2.242-1.13 3.837-3.881 1.62-0.534 3.398-1.2 4.962-1.457 1.363 0.741 2.958 1.225 4.020 1.225 1.834 0 1.96-2.010 1.237-2.726-0.873-0.854-3.41-0.609-4.622-0.452zM23.678 6.128l-6.155-6.155c-0.283-0.283-0.666-0.44-1.068-0.44h-0.377v8.039h8.039v-0.383c0-0.396-0.157-0.779-0.44-1.061zM19.024 22.162c0.258-0.17-0.157-0.747-2.688-0.565 2.33 0.992 2.688 0.565 2.688 0.565z"></path>
</svg>
