<!-- Generated by IcoMoon.io -->
<svg version="1.1" xmlns="http://www.w3.org/2000/svg" width="24" height="32" viewBox="0 0 24 32">
<title>file-alt1</title>
<path d="M14.069 8.075v-8.542h-12.561c-0.835 0-1.507 0.672-1.507 1.507v29.142c0 0.835 0.672 1.507 1.507 1.507h21.103c0.835 0 1.507-0.672 1.507-1.507v-20.6h-8.542c-0.829 0-1.507-0.678-1.507-1.507zM18.088 22.897c0 0.415-0.339 0.754-0.754 0.754h-10.551c-0.415 0-0.754-0.339-0.754-0.754v-0.503c0-0.415 0.339-0.754 0.754-0.754h10.551c0.415 0 0.754 0.339 0.754 0.754v0.503zM18.088 18.877c0 0.415-0.339 0.754-0.754 0.754h-10.551c-0.415 0-0.754-0.339-0.754-0.754v-0.503c0-0.415 0.339-0.754 0.754-0.754h10.551c0.415 0 0.754 0.339 0.754 0.754v0.503zM18.088 14.355v0.502c0 0.415-0.339 0.754-0.754 0.754h-10.551c-0.415 0-0.754-0.339-0.754-0.754v-0.502c0-0.415 0.339-0.754 0.754-0.754h10.551c0.415 0 0.754 0.339 0.754 0.754zM24.118 7.189v0.383h-8.039v-8.039h0.383c0.402 0 0.785 0.157 1.068 0.44l6.149 6.155c0.283 0.283 0.44 0.666 0.44 1.061z"></path>
</svg>
