<!-- Generated by IcoMoon.io -->
<svg version="1.1" xmlns="http://www.w3.org/2000/svg" width="24" height="32" viewBox="0 0 24 32">
<title>file-word</title>
<path d="M23.232 5.682l-5.269-5.269c-0.565-0.565-1.331-0.886-2.129-0.886h-12.819c-1.664 0.006-3.015 1.357-3.015 3.021v26.127c0 1.664 1.35 3.015 3.015 3.015h18.088c1.664 0 3.015-1.35 3.015-3.015v-20.858c0-0.798-0.32-1.57-0.886-2.135zM20.858 7.572h-4.78v-4.78l4.78 4.78zM3.015 28.675v-26.127h10.049v6.532c0 0.835 0.672 1.507 1.507 1.507h6.532v18.088h-18.088zM16.838 15.611c-0.358 0-0.666 0.251-0.735 0.597-1.294 6.136-1.281 5.992-1.319 6.5-0.012-0.075-0.025-0.163-0.044-0.27-0.050-0.32 0.019 0.012-1.482-6.249-0.082-0.339-0.383-0.578-0.735-0.578h-0.835c-0.345 0-0.647 0.239-0.735 0.572-1.533 6.218-1.507 6.042-1.558 6.513-0.006-0.069-0.012-0.157-0.031-0.264-0.044-0.327-0.886-4.604-1.2-6.218-0.069-0.352-0.377-0.609-0.741-0.609h-1.055c-0.49 0-0.848 0.458-0.735 0.93 0.502 2.047 1.677 6.877 2.085 8.542 0.082 0.339 0.383 0.572 0.735 0.572h1.583c0.345 0 0.647-0.232 0.729-0.572l1.124-4.484c0.094-0.389 0.157-0.754 0.188-1.087l0.182 1.087c0.006 0.025 0.791 3.172 1.124 4.484 0.082 0.333 0.383 0.572 0.729 0.572h1.551c0.345 0 0.647-0.232 0.729-0.572 1.306-5.144 1.897-7.474 2.167-8.542 0.119-0.477-0.239-0.936-0.729-0.936h-0.992z"></path>
</svg>
