<!-- Generated by IcoMoon.io -->
<svg version="1.1" xmlns="http://www.w3.org/2000/svg" width="24" height="32" viewBox="0 0 24 32">
<title>file-video</title>
<path d="M23.235 5.684l-5.268-5.268c-0.546-0.546-1.299-0.883-2.132-0.883h-12.82c-1.665 0-3.015 1.35-3.015 3.015v26.127c0 1.665 1.35 3.015 3.015 3.015h18.088c1.665 0 3.015-1.35 3.015-3.015v-20.859c0-0.832-0.337-1.586-0.883-2.132v0zM20.859 7.572h-4.781v-4.781l4.781 4.781zM3.015 28.675v-26.127h10.049v6.532c0 0.832 0.675 1.507 1.507 1.507h6.532v18.088h-18.088zM17.378 15.404l-3.309 3.308v-2.347c0-0.694-0.562-1.256-1.256-1.256h-6.532c-0.694 0-1.256 0.562-1.256 1.256v6.532c0 0.694 0.562 1.256 1.256 1.256h6.532c0.694 0 1.256-0.562 1.256-1.256v-2.347l3.309 3.308c0.629 0.629 1.715 0.187 1.715-0.711v-7.033c0-0.899-1.087-1.339-1.715-0.711z"></path>
</svg>
