<!-- Generated by IcoMoon.io -->
<svg version="1.1" xmlns="http://www.w3.org/2000/svg" width="24" height="32" viewBox="0 0 24 32">
<title>file-archive</title>
<path d="M23.235 5.684l-5.268-5.268c-0.546-0.546-1.299-0.883-2.132-0.883h-12.82c-1.665 0-3.015 1.35-3.015 3.015v26.127c0 1.665 1.35 3.015 3.015 3.015h18.088c1.665 0 3.015-1.35 3.015-3.015v-20.859c0-0.832-0.337-1.586-0.883-2.132v0zM16.078 2.792l4.781 4.781h-4.781v-4.781zM21.103 28.675h-18.088v-26.127h5.006v1.005h2.010v-1.005h3.033v6.532c0 0.832 0.675 1.507 1.507 1.507h6.532v18.088zM12.076 5.562h-2.010v-2.010h2.010v2.010zM10.066 5.562v2.010h-2.010v-2.010h2.010zM10.066 9.582v2.010h-2.010v-2.010h2.010zM12.076 9.582h-2.010v-2.010h2.010v2.010zM12.196 16.219c-0.071-0.349-0.375-0.608-0.739-0.608h-1.39v-2.010h-2.010v2.010l-1.237 6.099c-0.414 2.042 1.146 3.95 3.23 3.95 2.076 0 3.635-1.896 3.233-3.933l-1.086-5.508zM10.066 24.032c-1.125 0-2.038-0.76-2.038-1.698s0.912-1.698 2.038-1.698 2.038 0.76 2.038 1.698c0 0.938-0.912 1.698-2.038 1.698zM12.076 13.602h-2.010v-2.010h2.010v2.010z"></path>
</svg>
