<!-- Generated by IcoMoon.io -->
<svg version="1.1" xmlns="http://www.w3.org/2000/svg" width="32" height="32" viewBox="0 0 32 32">
<title>file-import</title>
<path d="M1.005 17.621c-0.555 0-1.005 0.45-1.005 1.005v2.010c0 0.555 0.45 1.005 1.005 1.005h7.034v-4.020h-7.034zM22.108 8.075v-8.542h-12.561c-0.835 0-1.507 0.672-1.507 1.507v16.581h8.039v-4.094c0-0.897 1.086-1.345 1.718-0.708l6.011 6.056c0.415 0.418 0.415 1.092 0 1.51l-6.011 6.056c-0.632 0.637-1.718 0.189-1.718-0.708v-4.093h-8.039v8.542c0 0.835 0.672 1.507 1.507 1.507h21.103c0.835 0 1.507-0.672 1.507-1.507v-20.6h-8.542c-0.829 0-1.507-0.678-1.507-1.507zM31.717 6.128l-6.149-6.155c-0.283-0.283-0.666-0.44-1.068-0.44h-0.383v8.039h8.039v-0.383c0-0.396-0.157-0.779-0.44-1.061z"></path>
</svg>
