<!-- Generated by IcoMoon.io -->
<svg version="1.1" xmlns="http://www.w3.org/2000/svg" width="36" height="32" viewBox="0 0 36 32">
<title>file-signature</title>
<path d="M13.702 26.172c-0.185-0.372-0.508-0.41-0.639-0.41s-0.453 0.037-0.629 0.389l-0.482 0.963c-0.4 0.803-1.572 0.714-1.852-0.131l-1.057-3.17-0.666 2.002c-0.37 1.109-1.406 1.855-2.575 1.855h-0.778c-0.555 0-1.005-0.45-1.005-1.005s0.45-1.005 1.005-1.005h0.778c0.303 0 0.572-0.193 0.668-0.481l1.143-3.432c0.207-0.616 0.781-1.031 1.431-1.031s1.223 0.414 1.43 1.031l0.872 2.615c1.24-1.017 3.395-0.609 4.145 0.889 0.119 0.237 0.345 0.374 0.588 0.393v-5.158l8.039-7.982v-2.924h-8.542c-0.829 0-1.507-0.678-1.507-1.507v-8.542h-12.561c-0.835 0-1.507 0.672-1.507 1.507v29.142c0 0.835 0.672 1.507 1.507 1.507h21.103c0.835 0 1.507-0.672 1.507-1.507v-2.512l-8.039-0.007c-1.012-0.020-1.921-0.583-2.376-1.492zM24.118 7.189c0-0.396-0.157-0.779-0.44-1.061l-6.149-6.155c-0.283-0.283-0.666-0.44-1.068-0.44h-0.383v8.039h8.039v-0.383zM18.088 21.324v4.336h4.333l10.154-10.224-4.263-4.263-10.224 10.151zM35.708 10.042l-2.002-2.002c-0.624-0.624-1.637-0.624-2.262 0l-1.711 1.711 4.263 4.263 1.711-1.711c0.625-0.624 0.625-1.637 0-2.262z"></path>
</svg>
