<!-- Generated by IcoMoon.io -->
<svg version="1.1" xmlns="http://www.w3.org/2000/svg" width="24" height="32" viewBox="0 0 24 32">
<title>file-word1</title>
<path d="M14.069 8.075v-8.542h-12.561c-0.835 0-1.507 0.672-1.507 1.507v29.142c0 0.835 0.672 1.507 1.507 1.507h21.103c0.835 0 1.507-0.672 1.507-1.507v-20.6h-8.542c-0.829 0-1.507-0.678-1.507-1.507zM17.655 15.611h1.501c0.484 0 0.842 0.446 0.735 0.923l-2.387 10.551c-0.075 0.345-0.383 0.584-0.735 0.584h-2.387c-0.345 0-0.647-0.239-0.729-0.572-1.62-6.5-1.306-5.1-1.608-6.94h-0.031c-0.069 0.898-0.151 1.093-1.608 6.94-0.082 0.333-0.383 0.572-0.729 0.572h-2.33c-0.352 0-0.66-0.245-0.735-0.59l-2.374-10.551c-0.107-0.471 0.251-0.917 0.735-0.917h1.539c0.358 0 0.672 0.251 0.741 0.609 0.98 4.899 1.262 6.877 1.319 7.675 0.1-0.641 0.458-2.054 1.847-7.706 0.082-0.339 0.383-0.572 0.735-0.572h1.828c0.352 0 0.653 0.239 0.735 0.578 1.507 6.306 1.809 7.788 1.859 8.127-0.012-0.703-0.163-1.118 1.357-8.115 0.063-0.352 0.371-0.597 0.722-0.597zM24.118 7.189v0.383h-8.039v-8.039h0.383c0.402 0 0.785 0.157 1.068 0.44l6.149 6.155c0.283 0.283 0.44 0.666 0.44 1.061z"></path>
</svg>
