<!-- Generated by IcoMoon.io -->
<svg version="1.1" xmlns="http://www.w3.org/2000/svg" width="24" height="32" viewBox="0 0 24 32">
<title>file-image1</title>
<path d="M24.118 7.192v0.381h-8.039v-8.039h0.381c0.416 0 0.793 0.169 1.066 0.442l6.151 6.151c0.273 0.273 0.442 0.65 0.442 1.066v0zM15.576 9.582c-0.829 0-1.507-0.678-1.507-1.507v-8.542h-12.561c-0.833 0-1.507 0.675-1.507 1.507v29.142c0 0.832 0.675 1.507 1.507 1.507h21.103c0.832 0 1.507-0.675 1.507-1.507v-20.6h-8.542zM7.069 10.587c1.665 0 3.015 1.35 3.015 3.015s-1.35 3.015-3.015 3.015-3.015-1.35-3.015-3.015 1.35-3.015 3.015-3.015zM20.132 25.66h-16.078l0.030-3.045 2.482-2.482c0.294-0.294 0.741-0.264 1.035 0.030l2.482 2.482 6.501-6.501c0.294-0.294 0.771-0.294 1.066 0l2.482 2.482v7.034z"></path>
</svg>
