<!-- Generated by IcoMoon.io -->
<svg version="1.1" xmlns="http://www.w3.org/2000/svg" width="24" height="32" viewBox="0 0 24 32">
<title>file-audio1</title>
<path d="M14.069 8.075v-8.542h-12.561c-0.835 0-1.507 0.672-1.507 1.507v29.142c0 0.835 0.672 1.507 1.507 1.507h21.103c0.835 0 1.507-0.672 1.507-1.507v-20.6h-8.542c-0.829 0-1.507-0.678-1.507-1.507zM10.049 24.907c0 0.672-0.81 1.005-1.287 0.534l-2.23-2.292h-1.759c-0.415 0-0.754-0.339-0.754-0.754v-3.517c0-0.415 0.339-0.754 0.754-0.754h1.759l2.23-2.292c0.477-0.477 1.287-0.138 1.287 0.534v8.542zM12.134 21.917c0.572-0.584 0.572-1.514 0-2.098-1.388-1.432 0.766-3.53 2.161-2.104 1.708 1.752 1.708 4.547 0 6.306-1.369 1.401-3.574-0.653-2.16-2.104zM17.535 14.562c3.417 3.511 3.417 9.094 0 12.611-1.369 1.407-3.58-0.647-2.16-2.104 2.274-2.336 2.28-6.061 0-8.403-1.388-1.432 0.773-3.536 2.16-2.104zM24.118 7.189v0.383h-8.039v-8.039h0.383c0.402 0 0.785 0.157 1.068 0.44l6.149 6.155c0.283 0.283 0.44 0.666 0.44 1.061z"></path>
</svg>
