<!-- Generated by IcoMoon.io -->
<svg version="1.1" xmlns="http://www.w3.org/2000/svg" width="24" height="32" viewBox="0 0 24 32">
<title>file-excel</title>
<path d="M23.232 5.682l-5.269-5.269c-0.565-0.565-1.331-0.886-2.129-0.886h-12.819c-1.664 0.006-3.015 1.357-3.015 3.021v26.127c0 1.664 1.35 3.015 3.015 3.015h18.088c1.664 0 3.015-1.35 3.015-3.015v-20.858c0-0.798-0.32-1.57-0.886-2.135zM20.858 7.572h-4.78v-4.78l4.78 4.78zM3.015 28.675v-26.127h10.049v6.532c0 0.835 0.672 1.507 1.507 1.507h6.532v18.088h-18.088zM16.33 13.602h-1.809c-0.276 0-0.527 0.151-0.66 0.396-1.13 2.079-1.394 2.663-1.796 3.624-0.873-1.828-0.433-1.087-1.796-3.624-0.132-0.245-0.389-0.396-0.666-0.396h-1.815c-0.584 0-0.942 0.628-0.653 1.13l2.908 4.899-2.908 4.899c-0.295 0.503 0.069 1.13 0.653 1.13h1.815c0.276 0 0.527-0.151 0.66-0.396 1.363-2.512 1.445-2.826 1.796-3.624 0.936 1.897 0.371 0.999 1.796 3.624 0.132 0.245 0.389 0.396 0.666 0.396h1.809c0.584 0 0.942-0.628 0.653-1.13l-2.914-4.899c0.044-0.069 1.903-3.172 2.908-4.899 0.295-0.502-0.069-1.13-0.647-1.13z"></path>
</svg>
