<!-- Generated by IcoMoon.io -->
<svg version="1.1" xmlns="http://www.w3.org/2000/svg" width="24" height="32" viewBox="0 0 24 32">
<title>file-invoice-dollar</title>
<path d="M23.678 6.128l-6.149-6.155c-0.283-0.283-0.666-0.44-1.068-0.44h-0.383v8.039h8.039v-0.383c0-0.396-0.157-0.779-0.44-1.061zM14.069 8.075v-8.542h-12.561c-0.835 0-1.507 0.672-1.507 1.507v29.142c0 0.835 0.672 1.507 1.507 1.507h21.103c0.835 0 1.507-0.672 1.507-1.507v-20.6h-8.542c-0.829 0-1.507-0.678-1.507-1.507zM4.020 4.055c0-0.278 0.225-0.502 0.503-0.502h5.024c0.278 0 0.502 0.225 0.502 0.502v1.005c0 0.278-0.225 0.502-0.502 0.502h-5.024c-0.278 0-0.502-0.225-0.502-0.502v-1.005zM4.020 9.080v-1.005c0-0.278 0.225-0.502 0.503-0.502h5.024c0.278 0 0.502 0.225 0.502 0.502v1.005c0 0.278-0.225 0.502-0.502 0.502h-5.024c-0.278 0-0.502-0.225-0.502-0.502zM13.064 25.653v1.515c0 0.278-0.225 0.503-0.502 0.503h-1.005c-0.278 0-0.502-0.225-0.502-0.503v-1.526c-0.709-0.036-1.399-0.284-1.97-0.713-0.245-0.184-0.258-0.551-0.036-0.762l0.738-0.704c0.174-0.166 0.433-0.173 0.636-0.046 0.243 0.152 0.519 0.234 0.805 0.234h1.765c0.408 0 0.741-0.372 0.741-0.828 0-0.374-0.227-0.703-0.551-0.8l-2.826-0.848c-1.168-0.35-1.983-1.471-1.983-2.725 0-1.54 1.196-2.791 2.68-2.831v-1.515c0-0.278 0.225-0.502 0.502-0.502h1.005c0.278 0 0.502 0.225 0.502 0.502v1.526c0.709 0.036 1.399 0.283 1.97 0.713 0.245 0.184 0.258 0.551 0.036 0.762l-0.738 0.704c-0.174 0.166-0.433 0.173-0.636 0.046-0.243-0.153-0.519-0.234-0.805-0.234h-1.765c-0.408 0-0.741 0.372-0.741 0.828 0 0.374 0.227 0.703 0.551 0.8l2.826 0.848c1.168 0.35 1.983 1.471 1.983 2.725 0 1.541-1.196 2.791-2.68 2.831z"></path>
</svg>
