<!-- Generated by IcoMoon.io -->
<svg version="1.1" xmlns="http://www.w3.org/2000/svg" width="36" height="32" viewBox="0 0 36 32">
<title>fill-drip</title>
<path d="M32.157 19.631s-4.020 5.819-4.020 8.039c0 2.22 1.8 4.020 4.020 4.020s4.020-1.799 4.020-4.020-4.020-8.039-4.020-8.039zM31.568 13.166l-13.044-13.044c-0.392-0.393-0.907-0.588-1.421-0.588s-1.029 0.196-1.421 0.588l-5.124 5.124-5.413-5.413c-0.393-0.393-1.029-0.393-1.421 0l-1.421 1.421c-0.392 0.393-0.392 1.029 0 1.421l5.413 5.413-5.952 5.951c-2.355 2.354-2.355 6.171 0 8.526l7.36 7.36c1.177 1.177 2.72 1.766 4.263 1.766s3.086-0.588 4.263-1.766l13.916-13.916c0.785-0.785 0.785-2.057 0.001-2.842zM24.269 17.623h-20.128c0.085-0.241 0.224-0.501 0.467-0.743l5.952-5.951 3.68 3.68c0.784 0.784 2.057 0.784 2.841 0s0.784-2.057 0-2.841l-3.68-3.68 3.702-3.702 10.202 10.202-3.036 3.036z"></path>
</svg>
