<!-- Generated by IcoMoon.io -->
<svg version="1.1" xmlns="http://www.w3.org/2000/svg" width="32" height="32" viewBox="0 0 32 32">
<title>film</title>
<path d="M30.649 3.553h-0.503v1.256c0 0.415-0.339 0.754-0.754 0.754h-2.512c-0.415 0-0.754-0.339-0.754-0.754v-1.256h-20.098v1.256c0 0.415-0.339 0.754-0.754 0.754h-2.512c-0.415 0-0.754-0.339-0.754-0.754v-1.256h-0.502c-0.835 0-1.507 0.672-1.507 1.507v21.103c0 0.835 0.672 1.507 1.507 1.507h0.502v-1.256c0-0.415 0.339-0.754 0.754-0.754h2.512c0.415 0 0.754 0.339 0.754 0.754v1.256h20.098v-1.256c0-0.415 0.339-0.754 0.754-0.754h2.512c0.415 0 0.754 0.339 0.754 0.754v1.256h0.503c0.835 0 1.507-0.672 1.507-1.507v-21.103c0-0.835-0.672-1.507-1.507-1.507zM6.029 22.897c0 0.415-0.339 0.754-0.754 0.754h-2.512c-0.415 0-0.754-0.339-0.754-0.754v-2.512c0-0.415 0.339-0.754 0.754-0.754h2.512c0.415 0 0.754 0.339 0.754 0.754v2.512zM6.029 16.867c0 0.415-0.339 0.754-0.754 0.754h-2.512c-0.415 0-0.754-0.339-0.754-0.754v-2.512c0-0.415 0.339-0.754 0.754-0.754h2.512c0.415 0 0.754 0.339 0.754 0.754v2.512zM6.029 10.838c0 0.415-0.339 0.754-0.754 0.754h-2.512c-0.415 0-0.754-0.339-0.754-0.754v-2.512c0-0.415 0.339-0.754 0.754-0.754h2.512c0.415 0 0.754 0.339 0.754 0.754v2.512zM23.113 23.902c0 0.415-0.339 0.754-0.754 0.754h-12.561c-0.415 0-0.754-0.339-0.754-0.754v-6.029c0-0.415 0.339-0.754 0.754-0.754h12.561c0.415 0 0.754 0.339 0.754 0.754v6.029zM23.113 13.35c0 0.415-0.339 0.754-0.754 0.754h-12.561c-0.415 0-0.754-0.339-0.754-0.754v-6.029c0-0.415 0.339-0.754 0.754-0.754h12.561c0.415 0 0.754 0.339 0.754 0.754v6.029zM30.147 22.897c0 0.415-0.339 0.754-0.754 0.754h-2.512c-0.415 0-0.754-0.339-0.754-0.754v-2.512c0-0.415 0.339-0.754 0.754-0.754h2.512c0.415 0 0.754 0.339 0.754 0.754v2.512zM30.147 16.867c0 0.415-0.339 0.754-0.754 0.754h-2.512c-0.415 0-0.754-0.339-0.754-0.754v-2.512c0-0.415 0.339-0.754 0.754-0.754h2.512c0.415 0 0.754 0.339 0.754 0.754v2.512zM30.147 10.838c0 0.415-0.339 0.754-0.754 0.754h-2.512c-0.415 0-0.754-0.339-0.754-0.754v-2.512c0-0.415 0.339-0.754 0.754-0.754h2.512c0.415 0 0.754 0.339 0.754 0.754v2.512z"></path>
</svg>
