<!-- Generated by IcoMoon.io -->
<svg version="1.1" xmlns="http://www.w3.org/2000/svg" width="32" height="32" viewBox="0 0 32 32">
<title>filter-fill</title>
<path d="M1.394-0.185c-0.419 0-0.697 0.278-0.697 0.697v2.091c0 0.21 0.079 0.34 0.218 0.479l11.152 11.849c0.139 0.139 0.34 0.218 0.479 0.218h6.97c0.21 0 0.34-0.079 0.479-0.218l11.152-11.849c0.139-0.139 0.218-0.27 0.218-0.479v-2.091c0-0.419-0.278-0.697-0.697-0.697zM11.849 16.544v10.455c0 0.278 0.139 0.493 0.348 0.632l6.97 4.182c0.071 0.071 0.21 0.065 0.349 0.065s0.21 0.005 0.349-0.065c0.21-0.139 0.349-0.354 0.349-0.632v-14.637z"></path>
</svg>
