<!-- Generated by IcoMoon.io -->
<svg version="1.1" xmlns="http://www.w3.org/2000/svg" width="32" height="32" viewBox="0 0 32 32">
<title>fingerprint</title>
<path d="M16.086 14.981c-0.832 0-1.507 0.675-1.507 1.507 0.072 4.538-0.511 8.912-1.74 13.287-0.171 0.61 0.135 1.915 1.452 1.915 0.658 0 1.263-0.435 1.45-1.1 0.85-3.009 1.95-7.877 1.852-14.101 0.001-0.832-0.674-1.507-1.507-1.507zM16.032 9.848c-3.848-0.004-6.532 2.956-6.479 6.349 0.047 3.011-0.235 6.024-0.84 8.953-0.169 0.815 0.356 1.613 1.171 1.781 0.82 0.168 1.612-0.355 1.781-1.171 0.649-3.146 0.953-6.38 0.902-9.611-0.026-1.63 1.251-3.297 3.42-3.287 1.966 0.030 3.589 1.592 3.619 3.484 0.048 3.018-0.177 6.050-0.666 9.016-0.136 0.82 0.42 1.597 1.241 1.732 1.254 0.209 1.684-0.948 1.732-1.242 0.52-3.142 0.758-6.357 0.708-9.553-0.055-3.505-3.011-6.399-6.589-6.451zM9.080 8.605c-0.647-0.524-1.593-0.427-2.12 0.219-1.609 1.978-2.474 4.477-2.434 7.034 0.037 2.36-0.155 4.727-0.572 7.037-0.147 0.82 0.396 1.603 1.216 1.752 1.263 0.22 1.7-0.93 1.752-1.216 0.452-2.502 0.66-5.066 0.619-7.62-0.030-1.877 0.578-3.635 1.759-5.085 0.524-0.646 0.426-1.595-0.219-2.12zM15.955 4.691c-0.968-0.026-1.939 0.090-2.875 0.312-0.81 0.192-1.311 1.004-1.12 1.814 0.192 0.81 1.005 1.308 1.815 1.12 0.694-0.164 1.411-0.237 2.135-0.232 4.737 0.071 8.65 3.863 8.723 8.452 0.037 2.379-0.080 4.78-0.35 7.137-0.094 0.827 0.499 1.575 1.326 1.669 1.050 0.122 1.602-0.746 1.669-1.326 0.24-1.987 0.377-4.289 0.377-6.622 0-0.318-0.003-0.636-0.008-0.953l0.001 0.048c-0.098-6.202-5.343-11.326-11.692-11.42zM31.787 12.318c-0.18-0.811-0.974-1.332-1.797-1.147-0.813 0.18-1.326 0.984-1.147 1.797 0.296 1.345 0.308 2.35 0.295 3.869-0.007 0.833 0.663 1.513 1.495 1.52h0.012c0.827 0 1.5-0.666 1.507-1.495 0.011-1.393 0.025-2.77-0.366-4.543zM29.267 6.621c-3.059-4.358-8.064-7.007-13.389-7.086-4.383-0.053-8.437 1.563-11.453 4.58-2.912 2.916-4.482 6.789-4.417 10.91l-0.007 1.348c-0.025 0.832 0.63 1.527 1.462 1.551 0.014 0.001 0.030 0.001 0.045 0.001 0.811 0 1.482-0.647 1.505-1.463l0.010-1.485c-0.052-3.297 1.203-6.397 3.535-8.73 2.434-2.437 5.737-3.748 9.275-3.697 4.362 0.065 8.462 2.233 10.967 5.803 0.478 0.682 1.417 0.845 2.099 0.368 0.681-0.479 0.845-1.419 0.367-2.1z"></path>
</svg>
