<!-- Generated by IcoMoon.io -->
<svg version="1.1" xmlns="http://www.w3.org/2000/svg" width="28" height="32" viewBox="0 0 28 32">
<title>fire-extinguisher</title>
<path d="M27.26 1.187l-10.551 1.759c-0.712 0.119-0.63 0.846-0.63 1.11h-3.664c0.671-2.254-1.019-4.522-3.371-4.522-2.477 0-4.168 2.492-3.28 4.786-3.268 0.82-4.734 3.405-5.656 5.708-0.309 0.773 0.067 1.65 0.84 1.959s1.65-0.068 1.959-0.84c1.807-4.517 3.811-4.077 7.644-4.077v1.701c-2.609 0.682-4.522 3.092-4.522 5.912v15.5c0 0.832 0.675 1.507 1.507 1.507h9.044c0.832 0 1.507-0.675 1.507-1.507v-15.576c0-2.809-1.922-5.17-4.522-5.839v-1.698h2.512c0 0.187-0.107 0.987 0.63 1.11l10.551 1.759c0.459 0.076 0.878-0.278 0.878-0.743v-7.265c0-0.466-0.418-0.82-0.878-0.743zM9.044 4.055c-0.554 0-1.005-0.451-1.005-1.005s0.451-1.005 1.005-1.005 1.005 0.451 1.005 1.005-0.451 1.005-1.005 1.005z"></path>
</svg>
