<!-- Generated by IcoMoon.io -->
<svg version="1.1" xmlns="http://www.w3.org/2000/svg" width="30" height="32" viewBox="0 0 30 32">
<title>firefox</title>
<path d="M30.028 14.311c-0.044-0.283-0.088-0.446-0.088-0.446s-0.113 0.126-0.295 0.371c-0.057-0.672-0.176-1.332-0.364-1.985-0.232-0.81-0.534-1.595-0.911-2.349-0.239-0.502-0.515-0.98-0.835-1.432-0.113-0.17-0.232-0.339-0.352-0.496-0.553-0.904-1.193-1.463-1.928-2.512-0.477-0.804-0.81-1.69-0.967-2.613-0.201 0.559-0.358 1.13-0.465 1.715-0.76-0.766-1.413-1.306-1.815-1.677-1.947-1.834-1.721-2.782-1.721-2.782s-3.662 4.089-2.079 8.347c0.546 1.445 1.495 2.707 2.726 3.636 1.532 1.269 3.191 2.261 4.064 4.811-0.703-1.338-1.765-2.462-3.065-3.235 0.389 0.923 0.59 1.922 0.584 2.92 0 3.831-3.115 6.94-6.946 6.934-0.521 0-1.036-0.057-1.539-0.176-0.597-0.113-1.175-0.308-1.721-0.584-0.81-0.49-1.507-1.137-2.060-1.903l-0.012-0.019 0.126 0.044c0.289 0.1 0.578 0.176 0.879 0.232 1.175 0.251 2.405 0.107 3.492-0.415 1.099-0.609 1.759-1.061 2.299-0.879h0.012c0.527 0.17 0.942-0.345 0.565-0.879-0.653-0.842-1.721-1.256-2.776-1.068-1.099 0.157-2.104 0.942-3.542 0.182-0.094-0.050-0.182-0.1-0.27-0.157-0.1-0.057 0.308 0.082 0.214 0.019-0.314-0.157-0.615-0.339-0.904-0.54-0.019-0.019 0.22 0.069 0.195 0.050-0.371-0.251-0.691-0.578-0.942-0.955-0.258-0.465-0.283-1.030-0.063-1.514 0.132-0.239 0.339-0.433 0.584-0.546 0.188 0.094 0.301 0.163 0.301 0.163s-0.082-0.157-0.132-0.239c0.019-0.006 0.031 0 0.050-0.012 0.163 0.069 0.521 0.251 0.716 0.364 0.132 0.069 0.239 0.17 0.327 0.295 0 0 0.063-0.031 0.019-0.17-0.069-0.17-0.182-0.314-0.339-0.415h0.012c0.145 0.075 0.283 0.163 0.415 0.258 0.119-0.276 0.176-0.578 0.163-0.879 0.012-0.163-0.012-0.333-0.069-0.49-0.050-0.1 0.031-0.138 0.119-0.031-0.012-0.082-0.044-0.157-0.075-0.232v-0.006s0.050-0.069 0.075-0.094c0.063-0.063 0.132-0.119 0.214-0.17 0.452-0.283 0.93-0.527 1.426-0.729 0.402-0.176 0.735-0.308 0.804-0.352 0.1-0.063 0.195-0.138 0.283-0.22 0.333-0.283 0.565-0.678 0.641-1.112 0.006-0.057 0.012-0.113 0.019-0.176v-0.094c-0.057-0.22-0.433-0.383-2.412-0.572-0.697-0.113-1.256-0.634-1.413-1.325v0.006c-0.025 0.069-0.057 0.145-0.082 0.22 0.025-0.075 0.050-0.145 0.082-0.22v-0.012c0.377-0.986 1.055-1.828 1.934-2.405 0.050-0.044-0.201 0.013-0.151-0.031 0.17-0.082 0.339-0.157 0.515-0.22 0.088-0.038-0.377-0.214-0.791-0.17-0.251 0.013-0.502 0.075-0.735 0.176 0.1-0.082 0.389-0.195 0.32-0.195-0.527 0.1-1.036 0.295-1.501 0.565 0-0.050 0.006-0.094 0.031-0.138-0.371 0.157-0.691 0.408-0.942 0.722 0.006-0.057 0.012-0.113 0.012-0.17-0.17 0.126-0.327 0.27-0.458 0.433l-0.006 0.006c-1.093-0.421-2.28-0.521-3.429-0.295l-0.013-0.006h0.013c-0.239-0.195-0.446-0.421-0.609-0.685l-0.013 0.006-0.025-0.013c-0.075-0.113-0.151-0.239-0.232-0.377-0.057-0.1-0.113-0.214-0.17-0.327 0-0.006-0.006-0.013-0.013-0.013-0.025 0-0.038 0.107-0.057 0.082v-0.006c-0.201-0.521-0.295-1.080-0.276-1.645l-0.013 0.006c-0.32 0.22-0.565 0.54-0.697 0.911-0.057 0.132-0.1 0.207-0.138 0.283v-0.031c0.006-0.069 0.038-0.207 0.031-0.195s-0.013 0.019-0.019 0.025c-0.094 0.107-0.182 0.232-0.245 0.364-0.057 0.119-0.107 0.245-0.144 0.371-0.006 0.019 0-0.019 0-0.063s0.006-0.126 0-0.107l-0.019 0.044c-0.421 0.936-0.685 1.934-0.779 2.958-0.025 0.176-0.038 0.352-0.031 0.521v0.012c-0.301 0.327-0.565 0.691-0.798 1.074-0.76 1.281-1.325 2.669-1.683 4.12 0.251-0.553 0.553-1.080 0.898-1.576-0.672 1.702-1.018 3.517-1.018 5.351 0.113-0.54 0.264-1.068 0.44-1.589-0.107 2.167 0.308 4.327 1.218 6.299 1.218 2.732 3.241 5.024 5.797 6.576 1.043 0.703 2.179 1.25 3.379 1.62 0.157 0.057 0.32 0.113 0.484 0.17-0.050-0.019-0.1-0.044-0.151-0.063 1.419 0.427 2.902 0.647 4.384 0.647 5.257 0 6.99-2.003 7.147-2.198 0.258-0.232 0.471-0.515 0.622-0.835 0.1-0.044 0.201-0.088 0.308-0.132l0.063-0.031 0.119-0.057c0.791-0.371 1.539-0.842 2.217-1.388 1.024-0.735 1.752-1.802 2.066-3.021 0.188-0.446 0.195-0.942 0.025-1.394 0.057-0.088 0.107-0.176 0.17-0.27 1.13-1.815 1.771-3.888 1.859-6.023v-0.176c0-0.458-0.038-0.911-0.119-1.357z"></path>
</svg>
