<!-- Generated by IcoMoon.io -->
<svg version="1.1" xmlns="http://www.w3.org/2000/svg" width="28" height="32" viewBox="0 0 28 32">
<title>fire-alt</title>
<path d="M20.322 2.749c-1.306 1.212-2.486 2.486-3.531 3.766-1.712-2.358-3.835-4.751-6.239-6.982-6.171 5.726-10.551 13.187-10.551 17.686 0 7.992 6.299 14.471 14.069 14.471s14.069-6.478 14.069-14.471c0-3.346-3.265-10.246-7.816-14.47zM19.099 24.144c-1.36 0.952-3.038 1.517-4.851 1.517-4.531 0-8.219-2.998-8.219-7.866 0-2.425 1.527-4.562 4.572-8.212 0.435 0.501 6.207 7.872 6.207 7.872l3.682-4.2c0.26 0.43 0.497 0.851 0.708 1.254 1.718 3.278 0.993 7.472-2.1 9.636z"></path>
</svg>
