<!-- Generated by IcoMoon.io -->
<svg version="1.1" xmlns="http://www.w3.org/2000/svg" width="28" height="32" viewBox="0 0 28 32">
<title>first-order</title>
<path d="M0.81 13.928c0.006-0.006 0.012-0.019 0.019-0.025 0 0.006 0 0.019-0.006 0.025h-0.012zM14.069 5.6c-0.446 0-0.917 0.038-1.344 0.107l0.232 4.233-1.382-4.020c-0.898 0.232-1.74 0.59-2.512 1.043l1.847 3.856-2.833-3.197c-0.716 0.559-1.363 1.2-1.922 1.941l3.178 2.851-3.837-1.865c-0.446 0.773-0.81 1.614-1.043 2.512l4.038 1.419-4.271-0.251c-0.057 0.446-0.088 0.917-0.088 1.382s0.038 0.917 0.088 1.363l4.252-0.251-4.020 1.419c0.232 0.898 0.59 1.74 1.043 2.531l3.837-1.865-3.197 2.833c0.559 0.735 1.2 1.401 1.941 1.941l2.82-3.197-1.853 3.856c0.773 0.465 1.614 0.823 2.512 1.061l1.401-4.057-0.251 4.271c0.446 0.069 0.917 0.107 1.363 0.107 0.465 0 0.917-0.038 1.363-0.107l-0.251-4.308 1.419 4.089c0.898-0.251 1.74-0.59 2.512-1.061l-1.847-3.85 2.82 3.197c0.735-0.559 1.382-1.2 1.922-1.941l-3.178-2.833 3.837 1.847c0.446-0.773 0.81-1.614 1.043-2.531l-4.020-1.401 4.233 0.251c0.069-0.446 0.088-0.898 0.088-1.363s-0.019-0.936-0.088-1.382l-4.252 0.251 4.020-1.401c-0.232-0.898-0.572-1.759-1.043-2.531l-3.825 1.865 3.178-2.851c-0.559-0.735-1.2-1.382-1.922-1.941l-2.833 3.197 1.847-3.837c-0.773-0.465-1.614-0.823-2.512-1.061l-1.401 4.038 0.251-4.252c-0.446-0.075-0.898-0.107-1.363-0.107zM27.848 7.572v16.078l-13.78 8.039-13.78-8.039v-16.078l13.78-8.039 13.78 8.039zM26.774 8.219l-12.706-7.373-12.706 7.373v14.766l12.706 7.392 12.706-7.392v-14.766zM14.069 1.863l11.789 6.871v13.748l-11.789 6.877-11.789-6.877v-13.742l11.789-6.877zM14.069 5.060c-5.797 0-10.482 4.717-10.482 10.551 0 5.816 4.685 10.533 10.482 10.533 5.778 0 10.482-4.717 10.482-10.533 0-5.835-4.704-10.551-10.482-10.551z"></path>
</svg>
