<!-- Generated by IcoMoon.io -->
<svg version="1.1" xmlns="http://www.w3.org/2000/svg" width="31" height="32" viewBox="0 0 31 32">
<title>first-order-alt</title>
<path d="M15.576 0.035c-8.603 0-15.576 6.973-15.576 15.576s6.973 15.576 15.576 15.576 15.576-6.973 15.576-15.576-6.973-15.576-15.576-15.576zM15.576 30.698c-8.332 0-15.087-6.755-15.087-15.087s6.755-15.087 15.087-15.087 15.087 6.755 15.087 15.087-6.755 15.087-15.087 15.087zM15.576 1.812c-7.621 0-13.799 6.178-13.799 13.799s6.178 13.799 13.799 13.799 13.799-6.178 13.799-13.799-6.178-13.799-13.799-13.799zM15.576 28.895c-7.336 0-13.284-5.947-13.284-13.284s5.948-13.284 13.284-13.284 13.284 5.948 13.284 13.284-5.948 13.284-13.284 13.284zM27.272 18.659c-0.306 1.161-0.739 2.178-1.295 3.113l0.031-0.055-4.656-2.253 3.861 3.443c-0.678 0.891-1.448 1.662-2.307 2.321l-0.029 0.021-3.442-3.867 2.253 4.665c-0.879 0.528-1.895 0.962-2.97 1.251l-0.084 0.019-1.714-4.928 0.301 5.209c-0.541 0.074-1.093 0.113-1.654 0.113s-1.113-0.039-1.654-0.113l0.299-5.179-1.705 4.901c-1.16-0.308-2.176-0.742-3.111-1.299l0.055 0.030 2.257-4.669-3.446 3.871c-0.889-0.68-1.659-1.451-2.316-2.312l-0.022-0.030 3.868-3.448-4.664 2.257c-0.526-0.88-0.958-1.897-1.246-2.974l-0.019-0.084 4.889-1.703-5.165 0.299c-0.073-0.538-0.112-1.088-0.112-1.646 0-0.565 0.040-1.12 0.114-1.665l5.174 0.3-4.895-1.706c0.309-1.16 0.743-2.177 1.301-3.112l-0.030 0.055 4.661 2.256-3.864-3.446c0.68-0.889 1.451-1.659 2.312-2.316l0.030-0.022 3.439 3.864-2.25-4.658c0.879-0.525 1.896-0.958 2.972-1.245l0.084-0.019 1.688 4.852-0.296-5.126c0.541-0.074 1.092-0.113 1.653-0.113s1.112 0.039 1.653 0.113l-0.298 5.16 1.699-4.884c1.085 0.283 2.11 0.713 3.054 1.267l-2.25 4.655 3.437-3.861c0.89 0.679 1.66 1.449 2.317 2.309l0.022 0.029-3.859 3.44 4.655-2.252c0.527 0.879 0.961 1.896 1.249 2.971l0.019 0.084-4.887 1.702 5.165-0.298c0.075 0.544 0.114 1.099 0.114 1.664 0 0.558-0.038 1.107-0.112 1.645l-5.158-0.298 4.881 1.701z"></path>
</svg>
