<!-- Generated by IcoMoon.io -->
<svg version="1.1" xmlns="http://www.w3.org/2000/svg" width="32" height="32" viewBox="0 0 32 32">
<title>fishing-boat</title>
<path d="M19.139 1.907c-0.027 0.005-0.055 0.012-0.080 0.020-0.297 0.067-0.507 0.335-0.5 0.64v0.64c-0.020 0-0.040 0-0.060 0s-0.040 0-0.060 0c-0.352 0.033-0.612 0.347-0.58 0.7s0.347 0.612 0.7 0.58v1.92h-1.28c-0.020 0-0.040 0-0.060 0s-0.040 0-0.060 0c-0.305 0.058-0.525 0.327-0.52 0.64v1.92h-1.919c-0.020 0-0.040 0-0.060 0-0.27 0.025-0.492 0.217-0.56 0.48l-2.439 9.118h-9.737c-0.355 0-0.64 0.287-0.64 0.64v3.839c0 0.137 0.038 0.27 0.12 0.38l1.54 2.039c-0.415 0.097-0.802 0.14-1.12 0.14-0.397 0-0.73-0.040-1.060-0.1-0.347-0.067-0.682 0.162-0.75 0.51s0.162 0.682 0.51 0.75c0.38 0.067 0.812 0.12 1.3 0.12 1 0 2.379-0.345 3.539-1.2 1.162 0.865 2.557 1.2 3.559 1.2 1 0 2.359-0.345 3.519-1.2 1.162 0.862 2.557 1.2 3.559 1.2s2.397-0.335 3.559-1.2c1.16 0.855 2.519 1.2 3.519 1.2 1.002 0 2.397-0.335 3.559-1.2 1.16 0.855 2.539 1.2 3.539 1.2 0.565 0 1.035-0.102 1.42-0.26 0.332-0.132 0.492-0.507 0.36-0.84s-0.507-0.492-0.84-0.36c-0.245 0.1-0.537 0.18-0.94 0.18-0.54 0-1.31-0.137-2.019-0.44 0.925-0.977 3.199-3.787 3.199-7.838 0-0.352-0.287-0.637-0.64-0.64l-5.759-0.020v-3.719l1.24-3.099c0.080-0.197 0.055-0.422-0.065-0.6s-0.32-0.282-0.535-0.28h-3.839v-1.92c0-0.352-0.287-0.64-0.64-0.64h-1.28v-1.92c0.23 0.003 0.445-0.117 0.562-0.317 0.115-0.2 0.115-0.445 0-0.645-0.117-0.2-0.332-0.32-0.562-0.317v-0.64c0.008-0.185-0.067-0.362-0.2-0.487-0.135-0.127-0.317-0.19-0.5-0.172zM17.919 7.685h2.559v1.28h-2.559zM15.22 10.245h9.418l-0.76 1.919h-0.84v2.559h0.64v1.939l-4.479-0.020c-0.215 0-0.42 0.102-0.54 0.28l-1.080 1.64h-4.579zM4.483 10.884c-0.355 0-0.64 0.287-0.64 0.64v6.398h4.819l-1.64-6.558c-0.072-0.285-0.325-0.48-0.62-0.48zM16.64 12.164v2.559h1.919v-2.559zM19.839 12.164v2.559h1.919v-2.559zM21.119 19.202c0.352 0 0.64 0.287 0.64 0.64s-0.287 0.64-0.64 0.64c-0.352 0-0.64-0.287-0.64-0.64s0.287-0.64 0.64-0.64zM23.678 19.202c0.352 0 0.64 0.287 0.64 0.64s-0.287 0.64-0.64 0.64c-0.352 0-0.64-0.287-0.64-0.64s0.287-0.64 0.64-0.64zM26.237 19.202c0.352 0 0.64 0.287 0.64 0.64s-0.287 0.64-0.64 0.64c-0.352 0-0.64-0.287-0.64-0.64s0.287-0.64 0.64-0.64zM5.263 26.88c-0.12 0.023-0.23 0.077-0.32 0.16-0.872 0.805-2.272 1.12-3.119 1.12-0.397 0-0.73-0.040-1.060-0.1-0.347-0.067-0.682 0.162-0.75 0.51s0.162 0.682 0.51 0.75c0.38 0.067 0.812 0.12 1.3 0.12 1 0 2.379-0.345 3.539-1.2 1.162 0.865 2.557 1.2 3.559 1.2 1 0 2.359-0.345 3.519-1.2 1.162 0.862 2.557 1.2 3.559 1.2s2.397-0.335 3.559-1.2c1.16 0.855 2.519 1.2 3.519 1.2 1.002 0 2.397-0.335 3.559-1.2 1.16 0.855 2.539 1.2 3.539 1.2 0.565 0 1.035-0.102 1.42-0.26 0.332-0.132 0.492-0.507 0.36-0.84s-0.507-0.492-0.84-0.36c-0.245 0.1-0.537 0.18-0.94 0.18-0.847 0-2.247-0.315-3.119-1.12-0.245-0.222-0.615-0.222-0.86 0-0.872 0.805-2.272 1.12-3.119 1.12s-2.227-0.315-3.099-1.12c-0.245-0.222-0.615-0.222-0.86 0-0.872 0.805-2.272 1.12-3.119 1.12s-2.247-0.315-3.119-1.12c-0.245-0.222-0.615-0.222-0.86 0-0.872 0.805-2.252 1.12-3.099 1.12s-2.247-0.315-3.119-1.12c-0.145-0.135-0.345-0.192-0.54-0.16z"></path>
</svg>
