<!-- Generated by IcoMoon.io -->
<svg version="1.1" xmlns="http://www.w3.org/2000/svg" width="36" height="32" viewBox="0 0 36 32">
<title>fish</title>
<path d="M20.544 5.562c-5.651 0-10.585 3.44-13.332 6.383l-5.485-4.148c-0.762-0.577-1.899 0.038-1.705 0.921l1.519 6.894-1.519 6.894c-0.195 0.883 0.943 1.497 1.705 0.921l5.485-4.148c2.747 2.942 7.682 6.382 13.332 6.382 8.633 0 15.632-8.039 15.632-10.049s-6.999-10.049-15.632-10.049zM26.035 17.119c-0.832 0-1.507-0.675-1.507-1.507s0.675-1.507 1.507-1.507c0.833 0 1.507 0.675 1.507 1.507s-0.675 1.507-1.507 1.507z"></path>
</svg>
