<!-- Generated by IcoMoon.io -->
<svg version="1.1" xmlns="http://www.w3.org/2000/svg" width="24" height="32" viewBox="0 0 24 32">
<title>fist-raised</title>
<path d="M16.077 9.582v-9.044c0-0.555-0.45-1.005-1.005-1.005h-2.010c-0.555 0-1.005 0.45-1.005 1.005v9.228c0.315-0.112 0.649-0.184 1.003-0.184h3.017zM24.116 15.611c-0.001-2.22-1.8-4.019-4.019-4.019h-7.043c-0.551 0-0.999 0.444-0.999 0.995v0.035c0 1.65 1.338 2.989 2.988 2.989h2.215c0.608 0 0.829 0.225 0.829 0.503v1.017c0 0.269-0.225 0.489-0.495 0.503-2.796 0.143-4.030 1.552-6.033 4.557l-0.396 0.595c-0.091 0.136-0.244 0.224-0.418 0.224-0.104 0-0.2-0.032-0.28-0.086l0.002 0.001-0.836-0.558c-0.136-0.091-0.224-0.244-0.224-0.418 0-0.104 0.032-0.2 0.086-0.28l-0.001 0.002 0.396-0.595c0.988-1.482 1.897-2.717 2.971-3.648-1.085-0.346-1.972-1.138-2.441-2.164-0.414 0.214-0.877 0.347-1.374 0.347h-2.010c-0.775 0-1.475-0.302-2.010-0.784-0.535 0.482-1.235 0.784-2.010 0.784h-2.010c-0.354 0-0.689-0.072-1.005-0.185v4.895c0 2.132 0.847 4.177 2.355 5.685l1.664 1.665v4.020h16.077v-4.017l2.255-2.256c1.091-1.091 1.766-2.599 1.766-4.264 0-0 0-0 0-0.001v0l-0.001-5.541zM22.106 9.953v-7.405c0-0.555-0.45-1.005-1.005-1.005h-2.010c-0.555 0-1.005 0.45-1.005 1.005v7.034h2.010c0.708 0 1.378 0.145 2.010 0.371zM1.005 13.602h2.010c0.555 0 1.005-0.45 1.005-1.005v-8.039c0-0.555-0.45-1.005-1.005-1.005h-2.010c-0.555 0-1.005 0.45-1.005 1.005v8.039c0 0.555 0.45 1.005 1.005 1.005zM7.034 13.602h2.010c0.555 0 1.005-0.45 1.005-1.005v-10.049c0-0.555-0.45-1.005-1.005-1.005h-2.010c-0.555 0-1.005 0.45-1.005 1.005v10.049c0 0.555 0.45 1.005 1.005 1.005z"></path>
</svg>
