<!-- Generated by IcoMoon.io -->
<svg version="1.1" xmlns="http://www.w3.org/2000/svg" width="32" height="32" viewBox="0 0 32 32">
<title>fit-to-width</title>
<path d="M-0.844-0.184v9.281c-0.010 0.61 0.31 1.173 0.837 1.48 0.524 0.31 1.177 0.31 1.701 0 0.527-0.307 0.847-0.87 0.837-1.48v-3.52l5.557 5.557c0.422 0.442 1.051 0.62 1.645 0.465 0.59-0.155 1.051-0.616 1.206-1.206 0.155-0.593-0.023-1.223-0.465-1.645l-5.557-5.557h3.52c0.61 0.010 1.173-0.31 1.48-0.837 0.31-0.524 0.31-1.177 0-1.701-0.307-0.527-0.87-0.847-1.48-0.837zM21.938-0.184c-0.61-0.010-1.173 0.31-1.48 0.837-0.31 0.524-0.31 1.177 0 1.701 0.307 0.527 0.87 0.847 1.48 0.837h3.52l-5.557 5.557c-0.442 0.422-0.62 1.051-0.465 1.645 0.155 0.59 0.616 1.051 1.206 1.206 0.593 0.155 1.223-0.023 1.645-0.465l5.557-5.557v3.52c-0.010 0.61 0.31 1.173 0.837 1.48 0.524 0.31 1.177 0.31 1.701 0 0.527-0.307 0.847-0.87 0.837-1.48v-9.281zM9.248 20.049c-0.438 0.013-0.854 0.198-1.16 0.511l-5.557 5.557v-3.52c0.007-0.455-0.171-0.893-0.494-1.216s-0.761-0.501-1.219-0.494c-0.929 0.013-1.674 0.778-1.661 1.711v9.281h9.281c0.61 0.010 1.173-0.31 1.48-0.837 0.31-0.524 0.31-1.177 0-1.701-0.307-0.527-0.87-0.847-1.48-0.837h-3.52l5.557-5.557c0.498-0.484 0.649-1.226 0.379-1.869-0.274-0.639-0.91-1.048-1.605-1.028zM21.077 20.049c-0.689 0-1.305 0.419-1.562 1.055-0.26 0.636-0.105 1.364 0.386 1.842l5.557 5.557h-3.52c-0.61-0.010-1.173 0.31-1.48 0.837-0.31 0.524-0.31 1.177 0 1.701 0.307 0.527 0.87 0.847 1.48 0.837h9.281v-9.281c0.007-0.455-0.171-0.893-0.494-1.216s-0.761-0.501-1.219-0.494c-0.929 0.013-1.674 0.778-1.661 1.711v3.52l-5.557-5.557c-0.32-0.326-0.755-0.511-1.21-0.511z"></path>
</svg>
