<!-- Generated by IcoMoon.io -->
<svg version="1.1" xmlns="http://www.w3.org/2000/svg" width="32" height="32" viewBox="0 0 32 32">
<title>fla-file-format-variant</title>
<path d="M21.808 23.654h-0.023c-0.113 0.454-0.227 1.033-0.352 1.475l-0.454 1.623h1.691l-0.477-1.623c-0.136-0.454-0.272-1.022-0.386-1.475zM27.736 7.239c-0.001-0.148-0.048-0.293-0.15-0.408l-6.2-7.082c-0.002-0.002-0.004-0.003-0.005-0.004-0.037-0.041-0.080-0.076-0.126-0.105-0.013-0.009-0.027-0.017-0.041-0.025-0.039-0.021-0.081-0.039-0.124-0.052-0.012-0.003-0.022-0.008-0.034-0.011-0.047-0.011-0.095-0.018-0.145-0.018h-15.237c-0.696 0-1.261 0.566-1.261 1.261v29.635c0 0.695 0.565 1.261 1.261 1.261h20.807c0.695 0 1.261-0.566 1.261-1.261v-23.119c-0-0.023-0.004-0.047-0.007-0.070zM11.776 23.778h-2.939v1.748h2.746v1.407h-2.746v3.075h-1.736v-7.648h4.676v1.418zM17.859 30.008h-4.778v-7.648h1.736v6.196h3.041v1.453zM23.511 30.008l-0.59-1.963h-2.19l-0.544 1.963h-1.793l2.337-7.648h2.27l2.372 7.648h-1.86zM26.482 20.944h-20.807v-20.15h14.607v6.452c0 0.349 0.283 0.631 0.631 0.631h5.57v13.068zM11.26 7.595h5.211v1.422h-3.599v2.618h3.363v1.422h-3.363v4.026h-1.612v-9.488zM17.655 7.655h1.625c0 0 0 6.454 0 7.19s0.169 0.873 0.986 0.873c0 1.317-0.005 1.536-0.005 1.536-1.286 0.035-2.606-0.156-2.606-1.7s0-7.899 0-7.899z"></path>
</svg>
