<!-- Generated by IcoMoon.io -->
<svg version="1.1" xmlns="http://www.w3.org/2000/svg" width="32" height="32" viewBox="0 0 32 32">
<title>flag1</title>
<path d="M21.955 5.737c-3.366 0-6.145-2.185-10.377-2.185-1.567 0-2.971 0.275-4.274 0.755 0.147-0.373 0.232-0.805 0.232-1.256 0-0.079-0.003-0.157-0.008-0.234l0.001 0.010c-0.111-1.786-1.575-3.218-3.363-3.291-2.009-0.082-3.664 1.523-3.664 3.514 0 1.195 0.597 2.25 1.507 2.886v24.247c0 0.832 0.675 1.507 1.507 1.507h1.005c0.832 0 1.507-0.675 1.507-1.507v-5.929c1.778-0.758 3.993-1.389 7.187-1.389 3.366 0 6.145 2.185 10.377 2.185 3.025 0 5.443-1.023 7.694-2.566 0.545-0.374 0.869-0.994 0.869-1.655v-15.268c0-1.469-1.524-2.441-2.857-1.822-2.157 1.002-4.802 2.001-7.345 2.001z"></path>
</svg>
