<!-- Generated by IcoMoon.io -->
<svg version="1.1" xmlns="http://www.w3.org/2000/svg" width="32" height="32" viewBox="0 0 32 32">
<title>flag</title>
<path d="M21.114 4.557c-3.086 0-5.86-2.010-10.169-2.010-1.966 0-3.662 0.407-5.070 0.953 0.098-0.285 0.155-0.613 0.155-0.954 0-0.123-0.007-0.244-0.022-0.362l0.001 0.014c-0.164-1.436-1.351-2.565-2.794-2.659-1.756-0.114-3.216 1.277-3.216 3.008 0 1.116 0.607 2.089 1.507 2.61v25.527c0 0.555 0.45 1.005 1.005 1.005h1.005c0.555 0 1.005-0.45 1.005-1.005v-5.241c2.378-1.085 4.476-1.794 8.028-1.794 3.086 0 5.86 2.010 10.169 2.010 3.673 0 6.404-1.42 8.074-2.511 0.852-0.556 1.364-1.505 1.364-2.523v-15.068c0-2.164-2.215-3.628-4.202-2.771-2.255 0.973-4.613 1.77-6.841 1.77zM29.142 20.636c-1.368 0.968-3.82 2.010-6.423 2.010-3.765 0-6.406-2.010-10.169-2.010-2.723 0-6.053 0.59-8.028 1.507v-14.571c1.368-0.968 3.82-2.010 6.423-2.010 3.765 0 6.406 2.010 10.169 2.010 2.718 0 6.049-1.091 8.028-2.010v15.073z"></path>
</svg>
