<!-- Generated by IcoMoon.io -->
<svg version="1.1" xmlns="http://www.w3.org/2000/svg" width="32" height="32" viewBox="0 0 32 32">
<title>flag-checkered</title>
<path d="M29.3 3.736c1.333-0.619 2.857 0.353 2.857 1.822v15.268c0 0.661-0.324 1.282-0.869 1.655-2.251 1.543-4.669 2.566-7.694 2.566-4.231 0-7.011-2.185-10.377-2.185-3.194 0-5.409 0.632-7.187 1.389v5.929c0 0.832-0.675 1.507-1.507 1.507h-1.005c-0.833 0-1.507-0.675-1.507-1.507v-24.247c-0.911-0.636-1.507-1.691-1.507-2.886 0-1.991 1.655-3.596 3.664-3.514 1.788 0.073 3.252 1.505 3.363 3.291 0.033 0.524-0.051 1.024-0.225 1.48 1.302-0.479 2.706-0.755 4.274-0.755 4.231 0 7.011 2.185 10.377 2.185 2.543 0 5.189-0.999 7.345-2.001zM6.029 7.989v4.427c1.821-0.67 3.214-1.12 4.623-1.313v-4.495c-1.476 0.136-2.54 0.615-4.622 1.381zM19.897 8.566c-1.659-0.293-3.133-0.878-4.622-1.34v4.234c1.518 0.421 2.987 1.033 4.622 1.401v-4.295zM10.652 11.102v4.399c2.060-0.187 3.386-0.040 4.623 0.239v-4.28c-1.586-0.442-2.926-0.592-4.622-0.357zM15.274 20.035c1.654 0.292 3.123 0.875 4.623 1.34v-4.234c-1.525-0.424-2.986-1.033-4.622-1.402v4.295zM6.029 21.019c1.483-0.527 3.002-0.869 4.623-1.040v-4.477c-1.64 0.148-2.975 0.505-4.622 1.090v4.427zM29.142 7.101c-1.338 0.556-2.926 1.108-4.622 1.411v4.516c1.715-0.274 3.142-0.886 4.622-1.5v-4.427zM29.142 20.288v-4.427c-1.394 0.892-3.064 1.42-4.622 1.634v4.496c1.575-0.15 3.045-0.693 4.622-1.703zM19.897 12.861v4.281c1.612 0.448 2.928 0.587 4.622 0.353v-4.466c-1.633 0.263-3.137 0.168-4.622-0.168z"></path>
</svg>
