<!-- Generated by IcoMoon.io -->
<svg version="1.1" xmlns="http://www.w3.org/2000/svg" width="32" height="32" viewBox="0 0 32 32">
<title>flag-usa</title>
<path d="M2.010-0.467c-1.112 0-2.010 0.898-2.010 2.010v29.142c0 0.553 0.452 1.005 1.005 1.005h2.010c0.553 0 1.005-0.452 1.005-1.005v-29.142c0-1.112-0.898-2.010-2.010-2.010zM18.836 18.601c-3.592-0.948-7.015-1.809-12.806 0.697v4.352c11.663-5.791 13.924 3.348 24.965-1.451 0.716-0.314 1.162-1.036 1.162-1.809v-2.261c-2.738 1.087-5.037 1.514-7.041 1.514-2.349-0.006-4.327-0.527-6.281-1.043zM18.836 12.572c-3.592-0.948-7.015-1.809-12.806 0.697v3.863c5.954-2.362 9.71-1.426 13.321-0.477 3.593 0.948 7.015 1.809 12.806-0.697v-3.863c-2.738 1.087-5.037 1.514-7.041 1.514-2.349 0-4.327-0.521-6.281-1.036zM19.432 4.664c3.253 0.98 6.117 1.821 12.725-1.262v-1.934c0-1.576-1.683-2.393-3.103-1.671-10.759 5.483-9.873-4.17-23.025 1.771v9.54c5.954-2.355 9.71-1.426 13.321-0.477 3.593 0.942 7.015 1.803 12.806-0.697v-4.327c-3.366 1.476-5.86 1.972-7.92 1.972s-3.706-0.49-5.383-0.999c-0.251-0.075-0.509-0.151-0.76-0.22v-2.085c0.452 0.126 0.898 0.258 1.338 0.389zM10.049 7.578c-0.553 0-1.005-0.446-1.005-1.005 0-0.553 0.452-1.005 1.005-1.005s1.005 0.446 1.005 1.005-0.452 1.005-1.005 1.005zM10.049 4.074c-0.553 0-1.005-0.446-1.005-1.005 0-0.553 0.452-1.005 1.005-1.005s1.005 0.446 1.005 1.005c0 0.553-0.452 1.005-1.005 1.005zM14.069 7.082c-0.553 0-1.005-0.446-1.005-1.005 0-0.553 0.452-1.005 1.005-1.005s1.005 0.446 1.005 1.005c0 0.553-0.452 1.005-1.005 1.005zM14.069 3.571c-0.553 0-1.005-0.446-1.005-1.005 0-0.553 0.452-1.005 1.005-1.005s1.005 0.446 1.005 1.005c0 0.553-0.452 1.005-1.005 1.005z"></path>
</svg>
