<!-- Generated by IcoMoon.io -->
<svg version="1.1" xmlns="http://www.w3.org/2000/svg" width="28" height="32" viewBox="0 0 28 32">
<title>flask</title>
<path d="M27.459 24.875l-7.361-11.839v-9.484h0.503c0.835 0 1.507-0.672 1.507-1.507v-1.005c0-0.835-0.672-1.507-1.507-1.507h-13.064c-0.835 0-1.507 0.672-1.507 1.507v1.005c0 0.835 0.672 1.507 1.507 1.507h0.502v9.484l-7.361 11.839c-1.84 2.958 0.283 6.814 3.775 6.814h19.231c3.498 0 5.615-3.863 3.775-6.814zM8.661 19.631l3.027-4.874c0.232-0.327 0.364-0.729 0.364-1.156v-10.049h4.020v10.049c0 0.433 0.138 0.829 0.364 1.156l3.027 4.874h-10.803z"></path>
</svg>
