<!-- Generated by IcoMoon.io -->
<svg version="1.1" xmlns="http://www.w3.org/2000/svg" width="32" height="32" viewBox="0 0 32 32">
<title>flash-file-format</title>
<path d="M15.437 24.514h-0.014c-0.072 0.31-0.143 0.706-0.222 1.009l-0.286 1.11h1.066l-0.3-1.11c-0.087-0.31-0.172-0.698-0.244-1.009zM27.737 7.239c-0.002-0.147-0.049-0.293-0.151-0.408l-6.2-7.082c-0.002-0.002-0.004-0.003-0.005-0.004-0.037-0.042-0.080-0.075-0.126-0.105-0.013-0.009-0.027-0.017-0.041-0.025-0.039-0.022-0.081-0.039-0.124-0.052-0.012-0.003-0.022-0.008-0.034-0.011-0.047-0.011-0.095-0.018-0.145-0.018h-15.237c-0.695 0-1.261 0.566-1.261 1.261v29.635c0 0.695 0.566 1.261 1.261 1.261h20.807c0.695 0 1.261-0.566 1.261-1.261v-23.119c0-0.024-0.004-0.047-0.006-0.071zM9.114 24.599h-1.852v1.195h1.731v0.963h-1.731v2.103h-1.094v-5.231h2.947v0.97zM12.948 28.86h-3.011v-5.231h1.094v4.237h1.917v0.994zM16.511 28.86l-0.372-1.343h-1.381l-0.343 1.343h-1.13l1.473-5.231h1.431l1.495 5.231h-1.173zM19.507 28.938c-0.55 0-1.094-0.155-1.366-0.318l0.222-0.978c0.293 0.163 0.744 0.326 1.209 0.326 0.501 0 0.765-0.225 0.765-0.567 0-0.326-0.229-0.512-0.808-0.737-0.801-0.302-1.322-0.784-1.322-1.544 0-0.892 0.686-1.575 1.823-1.575 0.544 0 0.944 0.125 1.23 0.264l-0.243 0.954c-0.192-0.101-0.536-0.248-1.009-0.248s-0.701 0.232-0.701 0.504c0 0.334 0.271 0.481 0.894 0.737 0.851 0.342 1.252 0.823 1.252 1.56-0 0.877-0.623 1.622-1.946 1.622zM26.167 28.86h-1.087v-2.189h-1.795v2.189h-1.095v-5.231h1.095v2.010h1.795v-2.010h1.087v5.231zM5.675 20.944v-20.15h14.607v6.452c0 0.348 0.283 0.631 0.631 0.631h5.57v13.068h-20.807zM16.435 8.607c-1.392 1.043-2.273 3.873-3.015 5.427s-2.11 1.369-2.11 1.369v1.831c0 0 0.858 0.024 1.576-0.276 0.72-0.302 1.555-0.976 2.043-1.809 0.19-0.326 0.48-0.997 0.796-1.74h2.196v-1.879h-1.393c0.215-0.477 0.409-0.881 0.556-1.112 0.534-0.834 1.856-0.813 1.856-0.813v-1.786c0-0-1.113-0.255-2.505 0.789z"></path>
</svg>
