<!-- Generated by IcoMoon.io -->
<svg version="1.1" xmlns="http://www.w3.org/2000/svg" width="28" height="32" viewBox="0 0 28 32">
<title>flickr</title>
<path d="M25.122 1.543h-22.108c-1.664 0-3.015 1.35-3.015 3.015v22.108c0 1.664 1.35 3.015 3.015 3.015h22.108c1.664 0 3.015-1.35 3.015-3.015v-22.108c0-1.664-1.35-3.015-3.015-3.015zM9.075 19.568c-2.205 0-3.988-1.784-3.988-3.988s1.784-3.988 3.988-3.988 3.988 1.784 3.988 3.988-1.784 3.988-3.988 3.988zM19.062 19.568c-2.205 0-3.988-1.784-3.988-3.988s1.784-3.988 3.988-3.988 3.988 1.784 3.988 3.988-1.784 3.988-3.988 3.988z"></path>
</svg>
