<!-- Generated by IcoMoon.io -->
<svg version="1.1" xmlns="http://www.w3.org/2000/svg" width="32" height="32" viewBox="0 0 32 32">
<title>flow</title>
<path d="M16.064 13.302c-1.367 0.010-2.479-1.091-2.489-2.453-0.011-1.367 1.085-2.477 2.453-2.489 0.205-0.001 0.4 0.028 0.59 0.074 1.427-1.117 3.292-2.574 3.504-2.726 0.368-0.26 0.79-0.291 1.090 0.009 0.296 0.306 0.265 0.769-0.012 1.094-0.095 0.112-1.599 2.002-2.751 3.454 0.042 0.177 0.069 0.359 0.070 0.548 0.011 1.36-1.087 2.479-2.455 2.489zM0 25.643c0-0.683 0.553-1.234 1.234-1.234h11.109v-3.117c-4.308-1.529-7.406-5.635-7.406-10.461 0-6.125 4.984-11.109 11.109-11.109 6.126 0 11.109 4.984 11.109 11.109 0 4.826-3.098 8.932-7.406 10.461v3.117h11.109c0.683 0 1.234 0.552 1.234 1.234s-0.552 1.234-1.234 1.234h-29.625c-0.681 0-1.234-0.552-1.234-1.234zM16.047 18.237c4.085 0 7.406-3.322 7.406-7.406s-3.322-7.406-7.406-7.406-7.406 3.322-7.406 7.406 3.322 7.406 7.406 7.406zM30.86 29.346h-29.625c-0.681 0-1.234 0.552-1.234 1.234s0.553 1.234 1.234 1.234h29.625c0.683 0 1.234-0.552 1.234-1.234s-0.552-1.234-1.234-1.234z"></path>
</svg>
