<!-- Generated by IcoMoon.io -->
<svg version="1.1" xmlns="http://www.w3.org/2000/svg" width="31" height="32" viewBox="0 0 31 32">
<title>flushed1</title>
<path d="M21.605 12.094c-0.835 0-1.507 0.672-1.507 1.507s0.672 1.507 1.507 1.507 1.507-0.672 1.507-1.507-0.672-1.507-1.507-1.507zM9.546 12.094c-0.835 0-1.507 0.672-1.507 1.507s0.672 1.507 1.507 1.507 1.507-0.672 1.507-1.507-0.672-1.507-1.507-1.507zM15.576 0.035c-8.604 0-15.576 6.971-15.576 15.576s6.971 15.576 15.576 15.576 15.576-6.971 15.576-15.576-6.971-15.576-15.576-15.576zM5.024 13.602c0-2.5 2.022-4.522 4.522-4.522s4.522 2.022 4.522 4.522-2.022 4.522-4.522 4.522-4.522-2.022-4.522-4.522zM19.596 24.655h-8.039c-1.332 0-1.332-2.010 0-2.010h8.039c1.331 0 1.331 2.010 0 2.010zM21.605 18.124c-2.5 0-4.522-2.022-4.522-4.522s2.022-4.522 4.522-4.522 4.522 2.022 4.522 4.522-2.022 4.522-4.522 4.522z"></path>
</svg>
