<!-- Generated by IcoMoon.io -->
<svg version="1.1" xmlns="http://www.w3.org/2000/svg" width="32" height="32" viewBox="0 0 32 32">
<title>flv-file-format-symbol</title>
<path d="M27.737 7.239c-0.002-0.148-0.049-0.293-0.15-0.408l-6.2-7.082c-0.001-0.002-0.004-0.003-0.005-0.004-0.037-0.041-0.079-0.076-0.125-0.105-0.013-0.009-0.028-0.017-0.042-0.025-0.039-0.021-0.081-0.039-0.124-0.052-0.011-0.003-0.022-0.008-0.034-0.011-0.047-0.011-0.095-0.018-0.144-0.018h-15.238c-0.695 0-1.261 0.566-1.261 1.261v29.635c0 0.695 0.566 1.261 1.261 1.261h20.807c0.695 0 1.261-0.566 1.261-1.261v-23.119c-0-0.023-0.004-0.047-0.006-0.070zM12.137 23.778h-2.939v1.748h2.746v1.407h-2.746v3.076h-1.736v-7.649h4.675v1.419zM18.22 30.008h-4.777v-7.649h1.736v6.196h3.041v1.453zM22.329 30.008h-2.020l-2.451-7.649h1.895l0.93 3.235c0.261 0.908 0.499 1.781 0.681 2.734h0.034c0.193-0.919 0.431-1.827 0.692-2.701l0.976-3.268h1.838l-2.576 7.649zM5.675 20.944v-20.15h14.607v6.452c0 0.349 0.282 0.631 0.631 0.631h5.569l0.001 13.068h-20.808zM17.043 8.745c-1.527 1.145-2.494 4.251-3.309 5.956s-2.316 1.502-2.316 1.502v2.010c0 0 0.941 0.026 1.729-0.303 0.791-0.331 1.706-1.070 2.242-1.985 0.208-0.358 0.527-1.094 0.874-1.91h2.41v-2.063h-1.529c0.235-0.524 0.448-0.968 0.61-1.22 0.586-0.916 2.037-0.892 2.037-0.892v-1.961c0 0-1.222-0.28-2.749 0.866z"></path>
</svg>
