<!-- Generated by IcoMoon.io -->
<svg version="1.1" xmlns="http://www.w3.org/2000/svg" width="24" height="32" viewBox="0 0 24 32">
<title>fly</title>
<path d="M12.423 26.401c0.81 0.735 2.117 2.091 2.085 3.184 0 0.050-0.006 0.1-0.006 0.157-0.113 1.244-1.181 1.953-2.456 1.947-1.57-0.006-2.506-1.055-2.431-2.248 0.063-1.017 1.287-2.305 2.035-2.99 0.145-0.132 0.17-0.17 0.352-0.226 0.214 0 0.245 0.019 0.421 0.176zM20.845 3.76c-1.024-1.614-2.424-2.55-3.976-3.272-1.602-0.672-3.429-0.967-4.811-0.955-2.77 0-4.472 0.829-5.094 1.087-3.366 1.752-5.301 4.39-5.207 8.874 0.446 5.163 6.092 11.054 9.785 14.684 0.107 0.1 0.283 0.283 0.389 0.32l0.207 0.006c0.132-0.044 0.113-0.031 0.22-0.132 3.285-3.090 8.837-9.157 9.791-13.547 0.44-2.462 0.195-4.553-1.306-7.066zM11.732 21.634c-1.759-3.209-4.095-8.209-4.352-11.87-0.214-2.983 0.716-8.24 4.352-8.586v20.456zM20.644 10.838c-1.030 3.567-4.855 8.039-7.468 10.696 1.746-3.26 4.095-8.372 4.221-12.053 0.1-2.883-0.615-6.645-3.015-8.253 5.577 1.149 7.254 6.161 6.262 9.609z"></path>
</svg>
