<!-- Generated by IcoMoon.io -->
<svg version="1.1" xmlns="http://www.w3.org/2000/svg" width="32" height="32" viewBox="0 0 32 32">
<title>fnt-file-format</title>
<path d="M27.737 7.239c-0.002-0.147-0.048-0.293-0.15-0.408l-6.201-7.082c-0.001-0.002-0.003-0.003-0.005-0.004-0.037-0.041-0.079-0.075-0.125-0.105-0.013-0.009-0.027-0.017-0.041-0.025-0.040-0.021-0.081-0.039-0.124-0.052-0.012-0.003-0.022-0.008-0.034-0.011-0.047-0.011-0.095-0.018-0.145-0.018h-15.238c-0.695 0-1.261 0.566-1.261 1.261v29.635c0 0.695 0.566 1.261 1.261 1.261h20.807c0.696 0 1.261-0.566 1.261-1.261v-23.119c0-0.024-0.004-0.047-0.006-0.071zM11.485 24.123h-2.766v1.644h2.585v1.324h-2.585v2.894h-1.634v-7.198h4.4v1.335zM18.674 29.987h-1.709l-1.538-2.777c-0.427-0.769-0.897-1.698-1.249-2.542l-0.032 0.010c0.042 0.951 0.064 1.965 0.064 3.14v2.168h-1.495v-7.197h1.901l1.495 2.638c0.427 0.758 0.855 1.656 1.175 2.467h0.032c-0.106-0.951-0.139-1.922-0.139-3.001v-2.103h1.495v7.198zM25.071 24.155h-1.965v5.831h-1.634v-5.831h-1.933v-1.367h5.532v1.367zM5.675 20.945v-20.151h14.607v6.452c0 0.348 0.282 0.631 0.631 0.631h5.569l0.001 13.068h-20.808zM17.138 11.873l-1.635 5.346h1.253l0.381-1.372h1.531l0.413 1.372h1.301l-1.658-5.346h-1.587zM17.313 14.942l0.317-1.134c0.087-0.309 0.167-0.714 0.246-1.031h0.016c0.079 0.318 0.175 0.714 0.27 1.031l0.333 1.134h-1.182zM24.291 16.275v-1.348c0-0.912-0.412-1.674-1.705-1.674-0.706 0-1.238 0.191-1.507 0.341l0.222 0.777c0.254-0.159 0.675-0.293 1.071-0.293 0.595 0 0.706 0.293 0.706 0.5v0.055c-1.372-0.007-2.277 0.476-2.277 1.483 0 0.619 0.468 1.19 1.253 1.19 0.46 0 0.857-0.166 1.111-0.476h0.024l0.072 0.388h1.087c-0.039-0.214-0.056-0.57-0.056-0.943zM23.117 15.807c0 0.071-0.008 0.143-0.024 0.206-0.079 0.246-0.325 0.444-0.627 0.444-0.27 0-0.476-0.151-0.476-0.46 0-0.468 0.492-0.619 1.126-0.611v0.421zM9.024 14.879l4.44 0.549v-3.36h-4.44zM9.024 11.148h4.44v-3.271l-4.44 0.618zM18.824 7.076l-4.44 0.618v3.454h4.44zM14.384 12.068v3.523l0.922 0.114 1.112-3.637z"></path>
</svg>
