<!-- Generated by IcoMoon.io -->
<svg version="1.1" xmlns="http://www.w3.org/2000/svg" width="32" height="32" viewBox="0 0 32 32">
<title>folder-plus</title>
<path d="M29.142 7.572h-12.059l-4.020-4.020h-10.049c-1.665 0-3.015 1.35-3.015 3.015v18.088c0 1.665 1.35 3.015 3.015 3.015h26.127c1.665 0 3.015-1.35 3.015-3.015v-14.069c0-1.665-1.35-3.015-3.015-3.015zM23.113 18.124c0 0.555-0.45 1.005-1.005 1.005h-4.522v4.522c0 0.555-0.45 1.005-1.005 1.005h-1.005c-0.555 0-1.005-0.45-1.005-1.005v-4.522h-4.522c-0.555 0-1.005-0.45-1.005-1.005v-1.005c0-0.555 0.45-1.005 1.005-1.005h4.522v-4.522c0-0.555 0.45-1.005 1.005-1.005h1.005c0.555 0 1.005 0.45 1.005 1.005v4.522h4.522c0.555 0 1.005 0.45 1.005 1.005v1.005z"></path>
</svg>
