<!-- Generated by IcoMoon.io -->
<svg version="1.1" xmlns="http://www.w3.org/2000/svg" width="36" height="32" viewBox="0 0 36 32">
<title>folder-open</title>
<path d="M33.158 13.602h-3.011v-3.015c0-1.665-1.35-3.015-3.015-3.015h-10.049l-4.020-4.020h-10.049c-1.665 0-3.015 1.35-3.015 3.015v18.088c0 1.665 1.35 3.015 3.015 3.015h25.122c1.073 0 2.015-0.56 2.549-1.405l0.007-0.012 5.021-8.039c1.253-2.005-0.191-4.613-2.556-4.613zM3.392 6.567h8.423l4.020 4.020h10.921c0.208 0 0.377 0.169 0.377 0.377v0 2.638h-17.586c-1.089 0-2.044 0.578-2.574 1.444l-0.007 0.013-3.951 6.547v-14.662c0-0.208 0.168-0.376 0.376-0.376 0 0 0 0 0 0h-0zM28.137 24.655h-23.615l4.851-8.039h23.789l-5.024 8.039z"></path>
</svg>
