<!-- Generated by IcoMoon.io -->
<svg version="1.1" xmlns="http://www.w3.org/2000/svg" width="36" height="32" viewBox="0 0 36 32">
<title>folder-open1</title>
<path d="M35.969 17.878l-4.549 7.798c-0.71 1.201-1.998 1.994-3.472 1.994-0 0-0 0-0 0h-25.12c-1.163 0-1.888-1.262-1.302-2.267l4.549-7.798c0.71-1.201 1.998-1.994 3.472-1.994 0 0 0 0 0 0h25.12c1.163 0 1.888 1.262 1.302 2.267zM9.546 13.602h20.6v-3.015c0-1.665-1.35-3.015-3.015-3.015h-10.049l-4.020-4.020h-10.049c-1.665 0-3.015 1.35-3.015 3.015v17.463l4.338-7.437c1.076-1.845 3.072-2.991 5.208-2.991z"></path>
</svg>
