<!-- Generated by IcoMoon.io -->
<svg version="1.1" xmlns="http://www.w3.org/2000/svg" width="32" height="32" viewBox="0 0 32 32">
<title>follow_alt</title>
<path d="M30.646 0.053l-29.935 9.782c-0.845 0.276-0.968 1.426-0.198 1.873l11.313 6.578c0.357 0.208 0.803 0.183 1.134-0.064l3.18-2.362-2.362 3.18c-0.246 0.331-0.271 0.778-0.064 1.134l6.578 11.313c0.448 0.77 1.598 0.646 1.874-0.198l9.782-29.935c0.262-0.804-0.502-1.563-1.302-1.302zM20.919 28.458l-5.078-8.733 6.123-8.245c0.305-0.411 0.263-0.983-0.099-1.345s-0.934-0.404-1.345-0.099l-8.245 6.123-8.733-5.078 25.812-8.434zM10.838 22.622l-6.854 6.854c-0.403 0.403-1.057 0.403-1.46 0s-0.403-1.057 0-1.46l6.854-6.854c0.403-0.403 1.057-0.403 1.46 0s0.403 1.057 0 1.46zM1.783 22.881c-0.403-0.403-0.403-1.057 0-1.46l2.704-2.705c0.403-0.403 1.057-0.403 1.46 0s0.403 1.057 0 1.46l-2.704 2.705c-0.403 0.403-1.057 0.403-1.46 0zM13.283 26.052c0.403 0.403 0.403 1.057 0 1.46l-2.705 2.704c-0.202 0.202-0.466 0.302-0.73 0.302-0.911 0-1.382-1.11-0.73-1.762l2.705-2.704c0.403-0.403 1.057-0.403 1.46 0z"></path>
</svg>
