<!-- Generated by IcoMoon.io -->
<svg version="1.1" xmlns="http://www.w3.org/2000/svg" width="32" height="32" viewBox="0 0 32 32">
<title>follow</title>
<path d="M13.283 26.053c-0.403-0.403-1.057-0.403-1.46 0l-2.704 2.704c-0.403 0.403-0.403 1.057 0 1.459 0.4 0.402 1.055 0.405 1.46 0l2.704-2.704c0.403-0.403 0.403-1.057 0-1.459zM5.947 18.717c-0.403-0.403-1.056-0.403-1.459 0l-2.704 2.704c-0.403 0.403-0.403 1.057 0 1.46s1.055 0.404 1.459 0l2.704-2.704c0.403-0.403 0.403-1.057 0-1.46zM10.838 21.162c-0.403-0.403-1.057-0.403-1.46 0l-6.854 6.854c-0.403 0.403-0.403 1.057 0 1.46 0.403 0.402 1.055 0.403 1.46 0l6.854-6.854c0.403-0.403 0.403-1.057 0-1.46zM31.947 1.354l-9.782 29.935c-0.276 0.845-1.425 0.968-1.874 0.198l-6.578-11.313c-0.208-0.357-0.183-0.803 0.063-1.134l2.362-3.18-3.18 2.362c-0.332 0.246-0.777 0.271-1.134 0.063l-11.313-6.578c-0.767-0.446-0.649-1.596 0.198-1.874l29.935-9.782c0.8-0.261 1.564 0.498 1.302 1.302z"></path>
</svg>
