<!-- Generated by IcoMoon.io -->
<svg version="1.1" xmlns="http://www.w3.org/2000/svg" width="251" height="32" viewBox="0 0 251 32">
<title>font-awesome-logo-full2</title>
<path d="M28.552-0.467h-24.947c-1.978 0-3.605 1.627-3.605 3.605v24.953c0 1.972 1.627 3.599 3.605 3.599h24.953c1.972 0 3.605-1.627 3.605-3.605v-24.947c-0.006-1.978-1.633-3.605-3.611-3.605zM24.852 19.939c0 0.301-0.258 0.433-0.559 0.559-1.206 0.509-2.493 0.986-3.863 0.986-2.544 0-4.315-2.814-10.25 0.157v3.253c0 1.903-2.87 1.897-2.87 0v-15.702c-0.565-0.44-0.942-1.124-0.942-1.903 0-1.319 1.074-2.399 2.399-2.399 1.319 0 2.399 1.074 2.399 2.399 0 0.766-0.364 1.457-0.936 1.897v1.319c2.33-0.754 4.114-2.161 9.176-0.214 1.671 0.716 4.315-0.986 4.805-0.986 0.345 0 0.647 0.258 0.647 0.559v10.074zM52.041 8.998h-8.604v4.403h8.378c2.5 0 2.537 3.907 0 3.907h-8.378v6.632c0 2.858-4.44 2.914-4.44 0v-16.348c0-1.382 1.13-2.5 2.5-2.5h10.539c2.487 0 2.544 3.907 0.006 3.907zM64.043 10.468c-10.633 0-10.621 15.852 0 15.852 10.671 0 10.671-15.852 0-15.852zM64.043 22.784c-5.125 0-5.156-8.78 0-8.78 5.181 0 5.175 8.78 0 8.78zM87.432 26.138c-1.099 0-1.972-0.873-1.972-1.972v-7.348c0-3.919-4.56-3.297-6.224-1.030v8.378c0 2.606-3.976 2.625-3.976 0v-11.569c0-2.512 3.963-2.613 3.963 0v0.214c2.72-3.241 10.2-3.793 10.2 2.468v8.887c0.019 1.909-1.978 1.972-1.991 1.972zM98.719 26.32c-2.782 0-4.29-1.438-4.29-4.133v-7.882h-0.973c-2.236 0-2.305-3.473 0-3.473h0.973v-2.343c0-2.594 4.007-2.644 4.007 0v2.355h1.564c2.223 0 2.242 3.473 0 3.473h-1.564v6.814c0 1.859 1.639 1.652 1.721 1.652 1.972 0 3.304 3.536-1.438 3.536zM125.11 7.258c-1.225-3.153-5.998-3.14-7.191 0-6.739 17.316-6.249 15.871-6.249 16.505 0 2.688 3.662 3.216 4.528 0.904l0.848-2.255h8.944l0.816 2.255c0.892 2.368 4.528 1.708 4.528-0.904 0-0.634 0.333 0.427-6.224-16.505zM118.27 18.507l3.247-8.975 3.253 8.975h-6.5zM155.407 13.13l-3.373 11.073c-0.779 2.588-4.522 2.575-5.276 0l-2.657-8.535-2.657 8.535c-0.779 2.569-4.522 2.588-5.307 0l-3.404-11.073c-0.785-2.475 3.128-3.523 3.781-1.061l2.475 8.944 2.845-8.761c0.685-2.054 3.743-2.179 4.472 0l2.845 8.761 2.468-8.944c0.647-2.405 4.56-1.495 3.787 1.061zM172.704 17.847c0-2.663-2.129-7.38-7.505-7.38-4.597 0-7.813 3.536-7.813 7.914 0 4.849 3.473 7.939 8.071 7.939 1.991 0 5.841-0.722 5.841-2.5 0-1.149-1.325-1.978-2.468-1.407-3.103 1.645-6.846 0.527-7.279-2.751h9.314c1.024 0 1.84-0.842 1.84-1.815zM161.474 16.974c0.597-4.61 7.154-4.309 7.449 0h-7.449zM181.365 26.32c-1.972 0-5.125-0.66-6.067-2.003-0.779-1.068 0.157-2.5 1.369-2.5 1.024 0 2.311 1.438 4.88 1.438 1.721 0 2.537-0.691 2.537-1.62 0-2.5-8.975-0.465-8.975-6.406 0-2.537 2.217-4.754 6.193-4.754 1.972 0 4.654 0.622 5.502 1.847 0.678 0.93-0.088 2.274-1.313 2.274-0.948 0-1.677-1.087-4.158-1.087-1.438 0-2.374 0.66-2.374 1.495 0 2.255 8.944 0.377 8.944 6.475-0.006 2.745-2.349 4.842-6.538 4.842zM198.122 10.468c-10.633 0-10.621 15.852 0 15.852 10.683 0 10.652-15.852 0-15.852zM198.122 22.784c-5.138 0-5.15-8.78 0-8.78 5.181 0 5.175 8.78 0 8.78zM228.074 24.166v-7.757c0-3.379-3.856-2.877-5.382-0.66v8.416c0 2.594-4.007 2.644-4.007 0v-7.757c0-3.272-3.737-2.977-5.382-0.634v8.391c0 2.606-3.976 2.625-3.976 0v-11.569c0-2.512 3.963-2.613 3.963 0v0.214c0.622-0.904 2.625-2.343 4.937-2.343 2.217 0 3.624 1.030 4.189 2.751 0.873-1.369 2.877-2.751 5.188-2.751 2.782 0 4.44 1.47 4.44 4.566v9.126c0.031 1.087-0.848 1.972-2.004 1.972 0.22 0.006-1.966 0.069-1.966-1.966zM250.722 17.847c0-2.663-2.035-7.38-7.405-7.38-4.597 0-8.008 3.536-8.008 7.914 0 4.849 3.662 7.939 8.265 7.939 1.991 0 5.747-0.722 5.747-2.5 0-1.149-1.325-1.978-2.468-1.407-3.103 1.645-6.94 0.527-7.38-2.751h9.408c1.024 0 1.828-0.842 1.84-1.815zM239.385 16.974c0.609-4.673 7.279-4.29 7.543 0h-7.543z"></path>
</svg>
