<!-- Generated by IcoMoon.io -->
<svg version="1.1" xmlns="http://www.w3.org/2000/svg" width="28" height="32" viewBox="0 0 28 32">
<title>font-awesome-flag</title>
<path d="M27.909 22.107c0 0.45-0.386 0.643-0.836 0.836-1.801 0.772-3.73 1.479-5.788 1.479-2.894 0-4.245-1.801-7.718-1.801-2.508 0-5.145 0.9-7.267 1.865-0.129 0.064-0.257 0.064-0.386 0.129v4.888c0 1.344-1.013 2.187-2.122 2.187-1.222 0-2.187-0.965-2.187-2.187v-23.539c-0.836-0.643-1.415-1.672-1.415-2.83 0-1.994 1.608-3.602 3.602-3.602s3.602 1.608 3.602 3.602c0 1.158-0.514 2.187-1.415 2.83v1.994c0.259-0.086 3.691-1.801 7.203-1.801 4.099 0 6.135 1.736 7.975 1.736 2.444 0 5.145-1.736 5.788-1.736 0.514 0 0.965 0.386 0.965 0.836v15.114z"></path>
</svg>
