<!-- Generated by IcoMoon.io -->
<svg version="1.1" xmlns="http://www.w3.org/2000/svg" width="28" height="32" viewBox="0 0 28 32">
<title>font</title>
<path d="M9.546 25.66h-1.508l1.67-5.074h8.681l1.67 5.074h-1.469c-0.555 0-1.005 0.45-1.005 1.005v2.010c0 0.555 0.45 1.005 1.005 1.005h8.542c0.555 0 1.005-0.45 1.005-1.005v-2.010c0-0.555-0.45-1.005-1.005-1.005h-1.679l-8.15-23.443c-0.141-0.396-0.512-0.675-0.949-0.675 0 0 0 0-0 0h-4.57c0 0 0 0 0 0-0.437 0-0.808 0.279-0.947 0.668l-0.002 0.007-8.15 23.443h-1.679c-0.555 0-1.005 0.45-1.005 1.005v2.010c0 0.555 0.45 1.005 1.005 1.005h8.542c0.555 0 1.005-0.45 1.005-1.005v-2.010c0-0.555-0.45-1.005-1.005-1.005zM13.588 8.591c0.273-0.956 0.415-1.768 0.476-2.176 0.053 0.41 0.185 1.223 0.485 2.18l2.596 7.788h-6.194l2.636-7.792z"></path>
</svg>
