<!-- Generated by IcoMoon.io -->
<svg version="1.1" xmlns="http://www.w3.org/2000/svg" width="28" height="32" viewBox="0 0 28 32">
<title>font-awesome</title>
<path d="M24.984 1.543h-21.831c-1.727 0-3.153 1.426-3.153 3.153v21.831c0 1.727 1.426 3.153 3.153 3.153h21.831c1.727 0 3.153-1.426 3.153-3.153v-21.831c0-1.727-1.426-3.153-3.153-3.153zM22.133 19.399c0 0.264-0.226 0.377-0.49 0.49-1.049 0.452-2.173 0.86-3.379 0.86-1.69 0-2.475-1.049-4.503-1.049-1.463 0-3.002 0.527-4.239 1.087-0.075 0.038-0.151 0.038-0.226 0.075v2.851c0 0.113 0 0.226-0.038 0.301v0.075c-0.151 0.527-0.641 0.898-1.2 0.898-0.71 0-1.275-0.565-1.275-1.275v-13.729c-0.49-0.377-0.823-0.973-0.823-1.652 0-1.162 0.936-2.104 2.104-2.104 1.162 0 2.104 0.936 2.104 2.104 0 0.678-0.301 1.275-0.823 1.652v1.162c0.113-0.038 0.226-0.075 0.339-0.151 1.162-0.49 2.55-0.898 3.863-0.898 1.426 0 2.55 0.377 3.825 0.86 0.264 0.113 0.527 0.151 0.823 0.151 1.426 0 3.002-1.011 3.379-1.011 0.301 0 0.565 0.226 0.565 0.49v8.812z"></path>
</svg>
