<!-- Generated by IcoMoon.io -->
<svg version="1.1" xmlns="http://www.w3.org/2000/svg" width="28" height="32" viewBox="0 0 28 32">
<title>fonticons</title>
<path d="M0 1.543v28.137h28.137v-28.137h-28.137zM10.514 13.853h4.233l-0.697 2.343h-3.498v7.091c0 0.364-0.126 0.421 0.201 0.458l2.732 0.258v1.576h-8.209v-1.614l1.338-0.126c0.327-0.038 0.421-0.145 0.421-0.496v-6.997c0-0.145-0.182-0.145-0.364-0.145h-1.394v-2.349h1.759v-1.319c0-3.115 1.664-4.396 4.855-4.396 2.142 0 4.064 0.515 4.064 3.316l-3.184 0.383c0.019-1.175-0.276-1.445-1.024-1.445-1.156 0-1.193 0.622-1.193 1.721v1.463c0 0.151-0.22 0.276-0.038 0.276zM22.861 25.579h-6.45v-1.576l1.281-0.163c0.327-0.038 0.477-0.107 0.477-0.458v-6.777c0-0.258-0.182-0.421-0.421-0.496l-1.52-0.402 0.421-1.853h5.037v9.528c0 0.364-0.163 0.402 0.182 0.458l0.986 0.163v1.576zM21.486 9.532l0.565 2.085-0.458 0.458-1.96-1.043-1.96 1.043-0.458-0.458 0.565-2.085-1.369-1.52 0.22-0.603h1.74l0.973-1.759h0.584l0.973 1.759h1.74l0.22 0.603-1.375 1.52z"></path>
</svg>
