<!-- Generated by IcoMoon.io -->
<svg version="1.1" xmlns="http://www.w3.org/2000/svg" width="28" height="32" viewBox="0 0 28 32">
<title>font-awesome-alt</title>
<path d="M24.984 3.791c0.49 0 0.898 0.415 0.898 0.898v21.831c0 0.49-0.415 0.898-0.898 0.898h-21.831c-0.49 0-0.898-0.415-0.898-0.898v-21.825c0-0.49 0.415-0.898 0.898-0.898h21.831zM24.984 1.543h-21.831c-1.727 0-3.153 1.426-3.153 3.153v21.831c0 1.727 1.426 3.153 3.153 3.153h21.831c1.727 0 3.153-1.426 3.153-3.153v-21.831c0-1.727-1.426-3.153-3.153-3.153zM21.31 10.285c-0.377 0-1.878 0.973-3.304 0.973-0.264 0-0.527-0.038-0.785-0.151-1.237-0.49-2.324-0.86-3.712-0.86-1.275 0-2.625 0.415-3.75 0.86-0.113 0.038-0.226 0.075-0.301 0.113v-1.124c0.49-0.377 0.785-0.936 0.785-1.614 0-1.124-0.898-2.029-2.029-2.029s-2.029 0.898-2.029 2.029c0 0.641 0.301 1.237 0.785 1.614v13.321c0 0.678 0.565 1.237 1.237 1.237 0.565 0 1.011-0.377 1.162-0.86v-0.082c0.038-0.113 0.038-0.188 0.038-0.301v-2.776c0.075 0 0.151-0.038 0.188-0.075 1.237-0.527 2.701-1.049 4.126-1.049 1.953 0 2.701 1.011 4.352 1.011 1.162 0 2.286-0.415 3.266-0.86 0.264-0.113 0.452-0.226 0.452-0.49v-8.441c0.113-0.258-0.145-0.446-0.484-0.446z"></path>
</svg>
