<!-- Generated by IcoMoon.io -->
<svg version="1.1" xmlns="http://www.w3.org/2000/svg" width="31" height="32" viewBox="0 0 31 32">
<title>football-ball</title>
<path d="M30.241 3.32c-0.301-1.143-1.2-2.041-2.343-2.349-1.501-0.402-3.844-0.879-6.582-0.936l9.835 9.848c-0.050-2.732-0.515-5.062-0.911-6.563zM0.911 27.902c0.301 1.143 1.2 2.041 2.343 2.349 1.501 0.402 3.844 0.879 6.582 0.936l-9.835-9.848c0.050 2.732 0.515 5.062 0.911 6.563zM0.264 17.332l13.579 13.604c8.322-1.218 15.626-7.455 17.052-17.046l-13.585-13.604c-8.322 1.218-15.626 7.455-17.046 17.046zM20.192 9.569c0.195-0.195 0.515-0.195 0.71 0l0.71 0.71c0.195 0.195 0.195 0.515 0 0.71l-1.777 1.777 1.777 1.777c0.195 0.195 0.195 0.515 0 0.71l-0.71 0.71c-0.195 0.195-0.515 0.195-0.71 0l-1.777-1.777-1.419 1.426 1.777 1.777c0.195 0.195 0.195 0.515 0 0.71l-0.71 0.71c-0.195 0.195-0.515 0.195-0.71 0l-1.777-1.777-1.419 1.419 1.777 1.777c0.195 0.195 0.195 0.515 0 0.71l-0.71 0.71c-0.195 0.195-0.515 0.195-0.71 0l-1.777-1.777-1.777 1.777c-0.195 0.195-0.515 0.195-0.71 0l-0.71-0.71c-0.195-0.195-0.195-0.515 0-0.71l1.777-1.777-1.777-1.771c-0.195-0.195-0.195-0.515 0-0.71l0.71-0.71c0.195-0.195 0.515-0.195 0.71 0l1.777 1.777 1.419-1.419-1.777-1.777c-0.195-0.195-0.195-0.515 0-0.71l0.71-0.71c0.195-0.195 0.515-0.195 0.71 0l1.777 1.777 1.419-1.419-1.777-1.777c-0.195-0.195-0.195-0.515 0-0.71l0.71-0.71c0.195-0.195 0.515-0.195 0.71 0l1.777 1.777 1.777-1.79z"></path>
</svg>
