<!-- Generated by IcoMoon.io -->
<svg version="1.1" xmlns="http://www.w3.org/2000/svg" width="32" height="32" viewBox="0 0 32 32">
<title>footprint</title>
<path d="M17.536 31.982c-0.188-0.012-0.375-0.034-0.561-0.071l-0.556-0.298c-2.747-1.241-2.227-3.043-1.565-5.346 0.155-0.534 0.313-1.091 0.422-1.655 0.542-3.621 0.737-7.489-0.87-9.642-1.279-1.713-4.342-1.68-4.52-3.979-0.087-1.125 0.205-2.040 0.87-2.717 1.557-1.583 4.845-1.634 6.667-1.523 1.513 0.090 1.647 0.261 2.327 0.441 7.096 1.848 2.919 5.165 2.313 13.703-0.27 3.842 2.709 11.527-4.528 11.088zM9.637 0c-0.229 0-0.453 0.038-0.663 0.113-0.678 0.238-1.176 0.821-1.403 1.634-0.206 0.745-0.16 1.609 0.131 2.434 0.523 1.479 1.683 2.472 2.885 2.472 0.228 0 0.451-0.037 0.664-0.114 0.656-0.231 1.147-0.793 1.381-1.577 0.231-0.759 0.191-1.641-0.109-2.49-0.523-1.479-1.683-2.473-2.886-2.473zM14.434 1.123c-0.818 0.19-1.264 1.173-1.017 2.238 0.206 0.916 0.91 1.603 1.633 1.603 0.089 0 0.18-0.011 0.254-0.028 0.324-0.074 0.608-0.283 0.802-0.591 0.277-0.442 0.357-1.043 0.219-1.65-0.24-1.038-1.028-1.738-1.891-1.572zM18.214 1.583c-0.72 0.002-1.3 0.687-1.355 1.594-0.028 0.433 0.073 0.852 0.283 1.178 0.22 0.344 0.548 0.554 0.932 0.576h0.032c0.687 0 1.269-0.702 1.324-1.601 0.024-0.436-0.078-0.854-0.286-1.171-0.216-0.342-0.543-0.551-0.93-0.575zM22.259 3.593c-0.149-0.378-0.433-0.648-0.78-0.738-0.715-0.184-1.439 0.402-1.669 1.289-0.132 0.504-0.078 1.016 0.147 1.399 0.16 0.275 0.402 0.468 0.683 0.542 0.081 0.021 0.168 0.031 0.253 0.031 0.613 0 1.223-0.568 1.418-1.32 0.108-0.42 0.090-0.846-0.052-1.203zM24.455 5.424c-0.122-0.309-0.356-0.531-0.628-0.606l-0.232-0.030c-0.508 0-0.997 0.452-1.157 1.073-0.091 0.342-0.076 0.69 0.041 0.979 0.123 0.311 0.357 0.533 0.662 0.615l0.195 0.023c0.514 0 1.004-0.452 1.163-1.074 0.089-0.345 0.074-0.684-0.043-0.979z"></path>
</svg>
