<!-- Generated by IcoMoon.io -->
<svg version="1.1" xmlns="http://www.w3.org/2000/svg" width="32" height="32" viewBox="0 0 32 32">
<title>fort-awesome-alt</title>
<path d="M13.296 14.676v3.247c0 0.132-0.1 0.232-0.232 0.232h-1.394c-0.132 0-0.232-0.1-0.232-0.232v-3.247c0-0.132 0.1-0.232 0.232-0.232h1.394c0.132 0 0.232 0.1 0.232 0.232zM20.487 14.443h-1.394c-0.132 0-0.232 0.1-0.232 0.232v3.247c0 0.132 0.1 0.232 0.232 0.232h1.394c0.132 0 0.232-0.1 0.232-0.232v-3.247c-0.006-0.132-0.107-0.232-0.232-0.232zM18.66 30.974c-0.057 0.006-0.107 0.019-0.163 0.025-0.063 0.012-0.132 0.019-0.195 0.031-0.057 0.006-0.113 0.019-0.176 0.025s-0.126 0.019-0.188 0.025c-0.063 0.006-0.126 0.012-0.182 0.019-0.063 0.006-0.119 0.012-0.182 0.019s-0.132 0.012-0.195 0.019c-0.057 0.006-0.113 0.012-0.17 0.012-0.069 0.006-0.145 0.006-0.214 0.012-0.050 0-0.107 0.006-0.157 0.006-0.082 0.006-0.163 0.006-0.245 0.006-0.044 0-0.088 0.006-0.132 0.006-0.126 0-0.251 0.006-0.377 0.006s-0.251 0-0.377-0.006c-0.044 0-0.088 0-0.132-0.006-0.082 0-0.163-0.006-0.245-0.006-0.050 0-0.107-0.006-0.157-0.006-0.069-0.006-0.145-0.006-0.214-0.012-0.057-0.006-0.113-0.006-0.17-0.012-0.063-0.006-0.132-0.012-0.195-0.019s-0.119-0.012-0.182-0.019c-0.063-0.006-0.126-0.012-0.182-0.019-0.063-0.006-0.126-0.012-0.188-0.025-0.057-0.006-0.113-0.019-0.176-0.025s-0.132-0.019-0.195-0.031c-0.057-0.006-0.107-0.019-0.163-0.025-4.12-0.685-7.694-2.996-10.049-6.243-0.013-0.012-0.019-0.031-0.031-0.044-0.050-0.069-0.1-0.138-0.144-0.207-0.019-0.025-0.038-0.050-0.050-0.075-0.044-0.069-0.088-0.132-0.132-0.201-0.019-0.031-0.038-0.057-0.057-0.088-0.044-0.069-0.088-0.132-0.126-0.201-0.019-0.031-0.038-0.057-0.057-0.088-0.044-0.069-0.082-0.138-0.126-0.207-0.013-0.025-0.031-0.050-0.044-0.075-0.151-0.251-0.289-0.509-0.427-0.766-0.006-0.012-0.013-0.019-0.019-0.031-0.038-0.069-0.069-0.138-0.107-0.207-0.019-0.038-0.038-0.069-0.050-0.107-0.031-0.063-0.063-0.132-0.094-0.195-0.019-0.044-0.038-0.082-0.057-0.126-0.031-0.063-0.057-0.126-0.088-0.188l-0.057-0.132c-0.025-0.063-0.057-0.126-0.082-0.188-0.019-0.044-0.038-0.094-0.057-0.138l-0.075-0.188c-0.019-0.050-0.038-0.094-0.057-0.145-0.025-0.063-0.050-0.126-0.069-0.188-0.019-0.057-0.038-0.113-0.063-0.176-0.038-0.1-0.069-0.207-0.107-0.308-0.019-0.057-0.038-0.113-0.057-0.176-0.019-0.057-0.031-0.113-0.050-0.17s-0.038-0.119-0.050-0.176c-0.019-0.057-0.031-0.113-0.050-0.17-0.019-0.063-0.031-0.119-0.050-0.182-0.012-0.057-0.031-0.113-0.044-0.17-0.019-0.063-0.031-0.126-0.044-0.188-0.012-0.057-0.025-0.107-0.038-0.163-0.012-0.069-0.031-0.138-0.044-0.201-0.012-0.050-0.019-0.1-0.031-0.151-0.019-0.082-0.031-0.17-0.050-0.251-0.006-0.038-0.012-0.069-0.019-0.107l-0.057-0.358c-0.006-0.038-0.012-0.082-0.019-0.119-0.012-0.082-0.025-0.163-0.031-0.245-0.006-0.050-0.012-0.094-0.019-0.145-0.006-0.075-0.019-0.151-0.025-0.226-0.006-0.050-0.012-0.1-0.012-0.151-0.006-0.075-0.012-0.151-0.019-0.22-0.006-0.050-0.006-0.1-0.012-0.151-0.006-0.075-0.012-0.151-0.012-0.232 0-0.050-0.006-0.094-0.006-0.145-0.006-0.082-0.006-0.17-0.012-0.251 0-0.044 0-0.082-0.006-0.126 0-0.126-0.006-0.251-0.006-0.377 0-3.36 1.061-6.469 2.877-9.019 0.144-0.201 0.295-0.402 0.446-0.597 0.308-0.389 0.634-0.772 0.98-1.13 0.17-0.182 0.345-0.358 0.527-0.527s0.364-0.339 0.553-0.502c0.283-0.245 0.572-0.477 0.873-0.703 0.1-0.075 0.201-0.151 0.301-0.22 1.715-1.231 3.706-2.117 5.86-2.563 1.011-0.207 2.066-0.314 3.14-0.314s2.123 0.107 3.14 0.314c2.154 0.44 4.145 1.325 5.879 2.556 0.1 0.075 0.201 0.144 0.301 0.22 0.301 0.226 0.59 0.458 0.873 0.703 0.754 0.653 1.445 1.375 2.060 2.16 0.157 0.195 0.301 0.396 0.446 0.597 1.815 2.556 2.877 5.665 2.877 9.025 0 0.126 0 0.251-0.006 0.377 0 0.044 0 0.082-0.006 0.126 0 0.082-0.006 0.17-0.012 0.251 0 0.050-0.006 0.094-0.006 0.145-0.006 0.075-0.006 0.151-0.012 0.044-0.006 0.050-0.006 0.1-0.012 0.151-0.006 0.075-0.012 0.151-0.019 0.22-0.006 0.050-0.012 0.1-0.012 0.151-0.006 0.075-0.019 0.151-0.025 0.226-0.006 0.050-0.012 0.094-0.019 0.145-0.012 0.082-0.025 0.163-0.031 0.245-0.006 0.038-0.012 0.082-0.019 0.119l-0.057 0.358c-0.006 0.038-0.012 0.069-0.019 0.107-0.012 0.082-0.031 0.17-0.050 0.251-0.012 0.050-0.019 0.1-0.031 0.151-0.012 0.069-0.031 0.138-0.044 0.201-0.012 0.057-0.025 0.107-0.038 0.163-0.012 0.063-0.031 0.126-0.044 0.188-0.012 0.057-0.031 0.113-0.044 0.17-0.019 0.063-0.031 0.119-0.050 0.182-0.012 0.057-0.031 0.113-0.050 0.17s-0.038 0.119-0.050 0.176c-0.019 0.057-0.031 0.113-0.050 0.17s-0.038 0.113-0.057 0.176c-0.031 0.1-0.069 0.207-0.107 0.308-0.019 0.057-0.038 0.113-0.063 0.176s-0.044 0.126-0.069 0.188c-0.019 0.050-0.038 0.094-0.057 0.145l-0.075 0.188c-0.019 0.044-0.038 0.094-0.057 0.138-0.025 0.063-0.050 0.126-0.082 0.188l-0.057 0.132c-0.025 0.063-0.057 0.126-0.088 0.188-0.019 0.044-0.038 0.082-0.057 0.126-0.031 0.063-0.063 0.132-0.094 0.195-0.019 0.038-0.038 0.069-0.050 0.107-0.038 0.069-0.069 0.138-0.107 0.207-0.006 0.012-0.012 0.019-0.019 0.031-0.138 0.258-0.276 0.515-0.427 0.766-0.012 0.025-0.031 0.050-0.044 0.075-0.044 0.069-0.082 0.138-0.126 0.207-0.019 0.031-0.038 0.057-0.057 0.088-0.044 0.069-0.088 0.132-0.126 0.201-0.019 0.031-0.038 0.057-0.057 0.088-0.044 0.069-0.088 0.132-0.132 0.201-0.019 0.025-0.038 0.050-0.050 0.075-0.050 0.069-0.094 0.138-0.145 0.207-0.012 0.012-0.019 0.031-0.031 0.044-2.362 3.435-5.935 5.74-10.055 6.431zM26.027 25.56c0.816-0.816 1.52-1.721 2.11-2.694v-4.478c0-0.132-0.1-0.232-0.232-0.232h-1.394c-0.132 0-0.232 0.1-0.232 0.232v1.62h-1.853v-9.044c0-0.132-0.1-0.232-0.232-0.232h-1.388c-0.132 0-0.232 0.1-0.232 0.232v1.627h-1.853v-1.627c0-0.132-0.1-0.232-0.232-0.232h-1.394c-0.132 0-0.232 0.1-0.232 0.232v1.627h-1.853v-1.627c0-0.301-0.408-0.232-0.597-0.232v-1.928c0.421-0.1 0.867-0.176 1.306-0.176 0.553 0 1.055 0.22 1.595 0.22 0.232 0 1.407-0.057 1.407-0.408v-3.040c0-0.132-0.1-0.232-0.232-0.232-0.264 0-0.766 0.22-1.218 0.22-0.496 0-1.061-0.22-1.652-0.22-0.408 0-0.81 0.057-1.206 0.144v-0.245c0.276-0.132 0.465-0.421 0.465-0.722 0-1.055-1.595-1.055-1.595 0 0 0.301 0.188 0.597 0.465 0.722v5.665c-0.188 0-0.597-0.069-0.597 0.232v1.627h-1.853v-1.627c0-0.132-0.1-0.232-0.232-0.232h-1.394c-0.132 0-0.232 0.1-0.232 0.232v1.627h-1.853v-1.627c0-0.132-0.1-0.232-0.232-0.232h-1.388c-0.132 0-0.232 0.1-0.232 0.232v9.044h-1.859v-1.62c0-0.132-0.1-0.232-0.232-0.232h-1.388c-0.132 0-0.232 0.1-0.232 0.232v4.478c0.59 0.973 1.294 1.878 2.11 2.694 1.294 1.294 2.795 2.305 4.472 3.015 0.873 0.371 1.771 0.647 2.694 0.829v-4.761c0-3.68 5.565-3.68 5.565 0v4.761c0.923-0.182 1.821-0.465 2.694-0.829 1.677-0.71 3.178-1.721 4.472-3.015z"></path>
</svg>
