<!-- Generated by IcoMoon.io -->
<svg version="1.1" xmlns="http://www.w3.org/2000/svg" width="32" height="32" viewBox="0 0 32 32">
<title>fort-awesome</title>
<path d="M30.725 17.615h-1.721c-0.163 0-0.289 0.126-0.289 0.289v2.010h-2.299v-11.198c0-0.163-0.126-0.289-0.289-0.289h-1.721c-0.163 0-0.289 0.126-0.289 0.289v2.010h-2.299v-2.010c0-0.163-0.126-0.289-0.289-0.289h-1.721c-0.163 0-0.289 0.126-0.289 0.289v2.010h-2.299v-2.010c0-0.377-0.503-0.289-0.735-0.289v-2.387c0.521-0.126 1.074-0.214 1.614-0.214 0.685 0 1.313 0.27 1.972 0.27 0.289 0 1.74-0.069 1.74-0.502v-3.768c0-0.163-0.126-0.289-0.289-0.289-0.32 0-0.948 0.27-1.507 0.27-0.609 0-1.313-0.27-2.047-0.27-0.503 0-1.005 0.069-1.488 0.182v-0.308c0.339-0.163 0.572-0.521 0.572-0.898 0-1.3-1.972-1.306-1.972 0 0 0.377 0.232 0.735 0.572 0.898v7.015c-0.232 0-0.735-0.088-0.735 0.289v2.010h-2.299v-2.010c0-0.163-0.126-0.289-0.289-0.289h-1.721c-0.163 0-0.289 0.126-0.289 0.289v2.010h-2.28v-2.010c0-0.163-0.126-0.289-0.289-0.289h-1.721c-0.163 0-0.289 0.126-0.289 0.289v11.198h-2.299v-2.010c0-0.163-0.126-0.289-0.289-0.289h-1.721c-0.163 0-0.289 0.126-0.289 0.289v13.786h11.487v-6.029c0-4.56 6.89-4.56 6.89 0v6.029h11.487v-13.786c0.006-0.163-0.119-0.289-0.283-0.289zM12.63 17.332c0 0.163-0.126 0.289-0.289 0.289h-1.721c-0.163 0-0.289-0.126-0.289-0.289v-4.020c0-0.163 0.126-0.289 0.289-0.289h1.721c0.163 0 0.289 0.126 0.289 0.289v4.020zM21.825 17.332c0 0.163-0.126 0.289-0.289 0.289h-1.721c-0.163 0-0.289-0.126-0.289-0.289v-4.020c0-0.163 0.126-0.289 0.289-0.289h1.721c0.163 0 0.289 0.126 0.289 0.289v4.020z"></path>
</svg>
