<!-- Generated by IcoMoon.io -->
<svg version="1.1" xmlns="http://www.w3.org/2000/svg" width="28" height="32" viewBox="0 0 28 32">
<title>forumbee</title>
<path d="M0.364 18.984c-0.239-1.068-0.364-2.148-0.364-3.228 0-7.744 6.268-14.025 14.012-14.025 1.043 0 2.091 0.126 3.096 0.345-7.75 2.952-13.849 9.138-16.744 16.907zM25.041 7.101c-0.86-1.099-1.865-2.054-3.002-2.845-9.396 2.782-16.725 10.181-19.451 19.596 0.785 1.137 1.759 2.236 2.839 3.078 2.707-9.503 10.124-17.064 19.614-19.828zM26.033 22.972c0.955-1.576 1.595-3.373 1.853-5.2-4.987 2.694-9.107 6.946-11.782 11.952 1.884-0.276 3.699-0.961 5.313-1.966 2.198 0.823 4.453 1.526 6.72 2.11-0.584-2.292-1.281-4.679-2.104-6.896zM27.898 13.834c-0.163-1.225-0.496-2.431-0.992-3.567-8.661 2.877-15.475 9.835-18.295 18.534 1.137 0.477 2.324 0.785 3.555 0.955 2.908-7.166 8.592-12.988 15.733-15.921z"></path>
</svg>
