<!-- Generated by IcoMoon.io -->
<svg version="1.1" xmlns="http://www.w3.org/2000/svg" width="23" height="32" viewBox="0 0 23 32">
<title>foursquare</title>
<path d="M20.293-0.279h-17.159c-2.355 0-3.134 1.777-3.134 2.895v27.245c0 1.275 0.76 1.74 1.143 1.89 0.389 0.157 1.432 0.289 2.066-0.446 8.096-9.383 8.234-9.54 8.234-9.54 0.195-0.214 0.214-0.195 0.427-0.195h5.238c2.205 0 2.55-1.583 2.782-2.493l3.052-15.262c0.534-2.663-0.138-4.095-2.65-4.095zM19.269 4.356l-0.716 3.75c-0.075 0.408-0.597 0.829-1.061 0.829h-6.683c-0.754 0-1.294 0.521-1.294 1.275v0.816c0 0.754 0.54 1.294 1.294 1.294h5.678c0.521 0 1.043 0.578 0.93 1.143-0.113 0.559-0.66 3.379-0.716 3.693-0.057 0.308-0.427 0.848-1.061 0.848h-4.616c-0.848 0-1.080 0.113-1.664 0.791 0 0-0.559 0.716-5.621 6.802-0.057 0.057-0.113 0.038-0.113-0.019v-21.279c0-0.484 0.427-1.043 1.043-1.043h13.755c0.515 0 0.98 0.484 0.848 1.099z"></path>
</svg>
