<!-- Generated by IcoMoon.io -->
<svg version="1.1" xmlns="http://www.w3.org/2000/svg" width="28" height="32" viewBox="0 0 28 32">
<title>freebsd</title>
<path d="M19.074 5.575c0.697-0.697 7.254-4.836 8.743-3.341 1.488 1.488-2.644 8.045-3.341 8.743s-2.475 0.057-3.963-1.438c-1.495-1.488-2.142-3.266-1.438-3.963zM6.902 3.81c-2.28-1.294-5.521-2.732-6.551-1.696-1.043 1.043 0.446 4.359 1.752 6.639 1.162-2.022 2.814-3.724 4.798-4.943zM25.543 10.461c0.207 0.71 0.17 1.3-0.17 1.639-1.275 1.275-5.496-1.696-6.865-4.403-1.13-2.029-0.697-3.354 0.936-3.059 0.358-0.226 0.773-0.477 1.231-0.729-1.872-0.973-3.994-1.526-6.249-1.526-7.48 0-13.541 6.061-13.541 13.541 0 7.474 6.061 13.541 13.541 13.541s13.541-6.061 13.541-13.541c0-2.412-0.634-4.679-1.74-6.645-0.245 0.44-0.477 0.835-0.685 1.181z"></path>
</svg>
