<!-- Generated by IcoMoon.io -->
<svg version="1.1" xmlns="http://www.w3.org/2000/svg" width="36" height="32" viewBox="0 0 36 32">
<title>frog</title>
<path d="M28.045 5.652c-0.431-2.336-2.471-4.109-4.932-4.109-2.464 0-4.504 1.777-4.933 4.116-10.219 0.968-18.211 9.583-18.18 20.063 0.007 2.193 1.826 3.958 4.020 3.958h19.093c0.555 0 1.005-0.45 1.005-1.005 0-1.11-0.9-2.010-2.010-2.010h-4.992l2.248-3.035c1.516-2.275 0.65-5.545-2.117-6.695-1.5-0.624-3.238-0.292-4.537 0.683l-2.058 1.544c-0.443 0.333-1.073 0.246-1.408-0.2-0.333-0.445-0.244-1.075 0.2-1.407l2.184-1.639c2.314-1.737 5.545-1.735 7.859 0 0.683 0.512 2.881 2.453 2.563 5.854l7.444 7.91h5.676c0.555 0 1.005-0.45 1.005-1.005 0-1.11-0.9-2.010-2.010-2.010h-3.368l-6.188-6.575 9.7-5.442c1.122-0.638 1.866-1.825 1.866-3.186 0-0 0-0 0-0v0c0-1.344-0.736-2.572-1.914-3.218-2.547-1.396-6.217-2.593-6.217-2.593zM23.113 8.075c-0.833 0-1.507-0.675-1.507-1.507s0.675-1.507 1.507-1.507c0.832 0 1.507 0.675 1.507 1.507s-0.675 1.507-1.507 1.507z"></path>
</svg>
