<!-- Generated by IcoMoon.io -->
<svg version="1.1" xmlns="http://www.w3.org/2000/svg" width="31" height="32" viewBox="0 0 31 32">
<title>frown-open1</title>
<path d="M15.576 0.035c-8.604 0-15.576 6.971-15.576 15.576s6.971 15.576 15.576 15.576 15.576-6.971 15.576-15.576-6.971-15.576-15.576-15.576zM8.542 12.597c0-1.112 0.898-2.010 2.010-2.010s2.010 0.898 2.010 2.010-0.898 2.010-2.010 2.010-2.010-0.898-2.010-2.010zM20.305 24.109c-1.96-0.603-3.731-0.961-4.729-0.961s-2.77 0.358-4.729 0.961c-0.722 0.22-1.413-0.396-1.287-1.137 0.44-2.512 3.775-3.844 6.017-3.844s5.577 1.338 6.017 3.844c0.126 0.747-0.572 1.357-1.288 1.137zM20.6 14.606c-1.112 0-2.010-0.898-2.010-2.010s0.898-2.010 2.010-2.010 2.010 0.898 2.010 2.010-0.898 2.010-2.010 2.010z"></path>
</svg>
