<!-- Generated by IcoMoon.io -->
<svg version="1.1" xmlns="http://www.w3.org/2000/svg" width="31" height="32" viewBox="0 0 31 32">
<title>frown1</title>
<path d="M15.576 0.035c-8.604 0-15.576 6.971-15.576 15.576s6.971 15.576 15.576 15.576 15.576-6.971 15.576-15.576-6.971-15.576-15.576-15.576zM20.6 10.587c1.112 0 2.010 0.898 2.010 2.010s-0.898 2.010-2.010 2.010-2.010-0.898-2.010-2.010 0.898-2.010 2.010-2.010zM10.551 10.587c1.112 0 2.010 0.898 2.010 2.010s-0.898 2.010-2.010 2.010-2.010-0.898-2.010-2.010 0.898-2.010 2.010-2.010zM21.241 24.291c-1.407-1.683-3.473-2.65-5.665-2.65s-4.258 0.967-5.665 2.65c-0.848 1.024-2.393-0.264-1.545-1.288 1.79-2.142 4.422-3.373 7.21-3.373s5.42 1.231 7.204 3.379c0.854 1.017-0.691 2.305-1.539 1.281z"></path>
</svg>
