<!-- Generated by IcoMoon.io -->
<svg version="1.1" xmlns="http://www.w3.org/2000/svg" width="31" height="32" viewBox="0 0 31 32">
<title>frown</title>
<path d="M15.576 0.035c-8.604 0-15.576 6.971-15.576 15.576s6.971 15.576 15.576 15.576 15.576-6.971 15.576-15.576-6.971-15.576-15.576-15.576zM15.576 28.173c-6.928 0-12.561-5.634-12.561-12.561s5.634-12.561 12.561-12.561 12.561 5.634 12.561 12.561-5.634 12.561-12.561 12.561zM10.551 14.606c1.112 0 2.010-0.898 2.010-2.010s-0.898-2.010-2.010-2.010-2.010 0.898-2.010 2.010 0.898 2.010 2.010 2.010zM20.6 10.587c-1.112 0-2.010 0.898-2.010 2.010s0.898 2.010 2.010 2.010 2.010-0.898 2.010-2.010-0.898-2.010-2.010-2.010zM15.576 18.626c-2.525 0-4.899 1.112-6.519 3.052-0.534 0.641-0.446 1.589 0.195 2.123 0.641 0.527 1.589 0.446 2.123-0.195 1.043-1.25 2.575-1.972 4.202-1.972s3.159 0.716 4.202 1.972c0.509 0.609 1.451 0.747 2.123 0.195 0.641-0.534 0.722-1.482 0.195-2.123-1.62-1.941-3.994-3.052-6.519-3.052z"></path>
</svg>
