<!-- Generated by IcoMoon.io -->
<svg version="1.1" xmlns="http://www.w3.org/2000/svg" width="32" height="32" viewBox="0 0 32 32">
<title>full-screen</title>
<path d="M0.412 0.227v9.865c-0.010 0.594 0.302 1.143 0.816 1.442 0.511 0.302 1.146 0.302 1.657 0 0.514-0.299 0.825-0.848 0.816-1.442v-6.577h6.577c0.594 0.010 1.143-0.302 1.442-0.816 0.302-0.511 0.302-1.146 0-1.657-0.299-0.514-0.848-0.825-1.442-0.816zM21.786 0.227c-0.909-0.032-1.67 0.678-1.702 1.586-0.032 0.906 0.678 1.67 1.586 1.702 0.039 0 0.077 0 0.116 0h6.577v6.577c-0.013 0.864 0.645 1.59 1.503 1.66 0.055 0.006 0.109 0.006 0.167 0.006 0.906-0.013 1.631-0.758 1.619-1.667v-9.865zM2.030 20.757c-0.906 0.013-1.631 0.758-1.619 1.667v9.865h9.865c0.055 0 0.109 0 0.164-0.006 0.88-0.080 1.538-0.838 1.493-1.718-0.042-0.883-0.774-1.573-1.657-1.564h-6.577v-6.577c0.006-0.443-0.167-0.87-0.482-1.185s-0.742-0.488-1.188-0.482zM29.981 20.757c-0.906 0.013-1.631 0.758-1.619 1.667v6.577h-6.577c-0.594-0.010-1.143 0.302-1.442 0.816-0.302 0.511-0.302 1.146 0 1.657 0.299 0.514 0.848 0.825 1.442 0.816h9.865v-9.865c0.006-0.443-0.167-0.87-0.482-1.185s-0.742-0.488-1.188-0.482z"></path>
</svg>
