<!-- Generated by IcoMoon.io -->
<svg version="1.1" xmlns="http://www.w3.org/2000/svg" width="40" height="32" viewBox="0 0 40 32">
<title>funnel-dollar</title>
<path d="M27.224 9.955l6.356-7.026c1.253-1.253 0.365-3.396-1.407-3.396h-30.18c-1.772 0-2.66 2.143-1.407 3.396l11.472 12.682v9.793c0 0.791 0.373 1.535 1.005 2.010l5.024 3.768c1.31 0.982 3.044 0.438 3.719-0.852-2.287-2.196-3.719-5.276-3.719-8.689 0-5.639 3.897-10.374 9.136-11.686zM30.147 11.592c-5.55 0-10.049 4.499-10.049 10.049s4.499 10.049 10.049 10.049 10.049-4.499 10.049-10.049-4.499-10.049-10.049-10.049zM31.152 26.658v1.012c0 0.278-0.225 0.503-0.503 0.503h-1.005c-0.278 0-0.503-0.225-0.503-0.503v-1.023c-0.709-0.036-1.399-0.284-1.97-0.713-0.245-0.184-0.258-0.551-0.036-0.762l0.738-0.704c0.174-0.166 0.433-0.173 0.636-0.046 0.243 0.152 0.519 0.234 0.805 0.234h1.765c0.408 0 0.741-0.372 0.741-0.828 0-0.374-0.227-0.703-0.551-0.8l-2.826-0.848c-1.168-0.35-1.983-1.471-1.983-2.725 0-1.54 1.196-2.791 2.68-2.831v-1.012c0-0.278 0.225-0.502 0.503-0.502h1.005c0.278 0 0.503 0.225 0.503 0.502v1.023c0.709 0.036 1.399 0.283 1.97 0.713 0.245 0.184 0.258 0.551 0.036 0.762l-0.738 0.704c-0.174 0.166-0.433 0.173-0.636 0.046-0.243-0.153-0.519-0.234-0.805-0.234h-1.765c-0.408 0-0.741 0.372-0.741 0.828 0 0.374 0.227 0.703 0.551 0.8l2.826 0.848c1.167 0.35 1.983 1.471 1.983 2.725 0 1.541-1.196 2.791-2.68 2.831z"></path>
</svg>
