<!-- Generated by IcoMoon.io -->
<svg version="1.1" xmlns="http://www.w3.org/2000/svg" width="31" height="32" viewBox="0 0 31 32">
<title>futbol</title>
<path d="M30.386 10.8c-2.135-6.582-8.24-10.765-14.803-10.765-1.595 0-3.216 0.245-4.817 0.766-8.177 2.657-12.655 11.443-9.999 19.621 2.135 6.582 8.24 10.765 14.803 10.765 1.595 0 3.216-0.245 4.817-0.766 8.177-2.657 12.655-11.443 9.999-19.621zM25.707 22.966l-3.278 0.402-2.745-3.825 1.532-4.723 4.465-1.388 2.443 2.286c-0.012 1.928-0.465 3.837-1.363 5.602-0.295 0.584-0.672 1.118-1.055 1.645zM25.707 8.181l-0.653 3.335-4.44 1.382-4.032-2.92v-4.635l2.977-1.645c2.462 0.816 4.61 2.387 6.149 4.484zM11.613 3.703l2.958 1.639v4.635l-4.032 2.92-4.434-1.382-0.634-3.297c1.526-2.098 3.636-3.68 6.142-4.516zM8.73 23.368l-3.335-0.408c-0.904-1.262-2.343-3.743-2.374-7.242l2.449-2.286 4.465 1.394 1.526 4.667-2.732 3.875zM11.757 27.576l-1.407-3.021 2.738-3.875h4.937l2.782 3.875-1.407 3.021c-0.389 0.113-3.618 1.281-7.643 0z"></path>
</svg>
