<!-- Generated by IcoMoon.io -->
<svg version="1.1" xmlns="http://www.w3.org/2000/svg" width="32" height="32" viewBox="0 0 32 32">
<title>futbol1</title>
<path d="M31.654 15.611c0 8.602-6.974 15.576-15.576 15.576s-15.576-6.974-15.576-15.576 6.974-15.576 15.576-15.576 15.576 6.974 15.576 15.576zM28.64 15.611l-0-0.018-1.637 1.428-3.937-3.674 1.033-5.298 2.154 0.193c-1.563-2.149-3.769-3.774-6.325-4.594l0.857 2.006-4.708 2.608-4.708-2.608 0.857-2.006c-2.552 0.818-4.759 2.441-6.325 4.594l2.171-0.193 1.017 5.298-3.937 3.674-1.637-1.428-0 0.018c0 2.702 0.848 5.273 2.416 7.411l0.484-2.129 5.347 0.656 2.28 4.888-1.878 1.117c2.525 0.824 5.294 0.826 7.824 0l-1.878-1.117 2.28-4.888 5.347-0.656 0.484 2.129c1.569-2.138 2.416-4.709 2.416-7.411zM13.057 19.981l-1.878-5.735 4.899-3.55 4.899 3.55-1.86 5.735h-6.059z"></path>
</svg>
