<!-- Generated by IcoMoon.io -->
<svg version="1.1" xmlns="http://www.w3.org/2000/svg" width="32" height="32" viewBox="0 0 32 32">
<title>g2-file-format-symbol</title>
<path d="M27.737 7.239c-0.002-0.148-0.049-0.293-0.15-0.408l-6.2-7.082c-0.001-0.002-0.003-0.002-0.005-0.004-0.037-0.041-0.079-0.075-0.125-0.105-0.013-0.009-0.027-0.017-0.041-0.025-0.040-0.021-0.081-0.039-0.124-0.052-0.012-0.003-0.022-0.008-0.034-0.011-0.047-0.011-0.095-0.018-0.145-0.018h-15.238c-0.695 0-1.261 0.566-1.261 1.261v29.635c0 0.696 0.566 1.261 1.261 1.261h20.807c0.696 0 1.261-0.566 1.261-1.261v-23.119c-0-0.024-0.004-0.047-0.006-0.070zM9.153 29.82c-0.884 0-1.632-0.231-2.031-0.484l0.326-1.2c0.284 0.147 0.937 0.421 1.59 0.421 0.831 0 1.252-0.4 1.252-0.915 0-0.674-0.674-0.979-1.379-0.979h-0.652v-1.148h0.621c0.537-0.010 1.221-0.211 1.221-0.789 0-0.41-0.337-0.716-1.010-0.716-0.558 0-1.148 0.242-1.432 0.41l-0.326-1.158c0.411-0.263 1.231-0.516 2.116-0.516 1.463 0 2.274 0.768 2.274 1.705 0 0.726-0.411 1.295-1.253 1.59v0.021c0.821 0.147 1.485 0.768 1.485 1.663-0 1.211-1.063 2.095-2.8 2.095zM19.183 29.378c-0.494 0.168-1.431 0.4-2.368 0.4-1.295 0-2.232-0.326-2.884-0.958-0.652-0.61-1.011-1.537-1-2.579 0.010-2.358 1.726-3.705 4.052-3.705 0.915 0 1.621 0.179 1.968 0.348l-0.337 1.284c-0.39-0.168-0.874-0.305-1.653-0.305-1.337 0-2.347 0.758-2.347 2.295 0 1.463 0.916 2.326 2.231 2.326 0.369 0 0.663-0.042 0.789-0.105v-1.484h-1.095v-1.253h2.642v3.737zM25.035 29.704h-4.852v-0.968l0.884-0.8c1.495-1.337 2.221-2.105 2.242-2.905 0-0.558-0.337-1-1.127-1-0.589 0-1.105 0.295-1.463 0.568l-0.453-1.148c0.516-0.389 1.316-0.705 2.242-0.705 1.547 0 2.4 0.905 2.4 2.147 0 1.147-0.831 2.063-1.821 2.948l-0.632 0.526v0.021h2.579v1.316h0zM5.675 20.945v-20.151h14.607v6.452c0 0.348 0.282 0.631 0.631 0.631h5.569l0.001 13.068h-20.808zM21.475 10.997c0 0-8.074 0-10.298 0l0.344-0.245c2.556-1.476 8.212-5.025 8.212-5.025 0.235-0.136 0.315-0.437 0.181-0.672l-0.492-1.211c-0.137-0.236-0.437-0.315-0.673-0.18l-9.305 5.655c-0.235 0.136-0.314 0.438-0.179 0.673l0.891 0.966 0.007 7.417c0 0.272 0.22 0.492 0.491 0.492h10.821c0.271 0 0.492-0.219 0.492-0.492v-6.885c-0-0.272-0.221-0.492-0.492-0.492zM17.907 11.349l-1.518 1.475h-1.967l1.476-1.475h2.009zM17.267 5.010l1.746-1.121-0.255 1.644-1.787 1.147 0.296-1.67zM14.154 6.925l1.776-1.107-0.318 1.667-1.774 1.107 0.316-1.666zM10.614 10.608l0.298-1.671 1.762-1.126-0.298 1.668-1.762 1.129zM12.454 11.349h1.967l-1.475 1.475h-1.967l1.475-1.475zM21.119 18.268h-10.119v-4.675h10.119v4.675zM19.864 12.824h-1.999l1.476-1.475h1.953l-1.43 1.475z"></path>
</svg>
