<!-- Generated by IcoMoon.io -->
<svg version="1.1" xmlns="http://www.w3.org/2000/svg" width="32" height="32" viewBox="0 0 32 32">
<title>galactic-senate</title>
<path d="M15.693 1.636v1.637c-0.853 1.295-1.499 6.82-1.537 13.525 0.737-0.981 1.201-2.093 1.201-3.030v-1.060c-0.002-0.334 0.047-0.661 0.137-0.983 0.041-0.134 0.087-0.256 0.165-0.365s0.215-0.238 0.42-0.238c0.203 0 0.342 0.129 0.42 0.238s0.124 0.231 0.165 0.365c0.090 0.322 0.139 0.649 0.137 0.983v1.060c0 0.936 0.464 2.049 1.201 3.030-0.040-6.705-0.685-12.23-1.538-13.525v-1.637h-0.771zM14.038 10.917c-0.598 0.135-1.175 0.326-1.725 0.57 0.559 1.012 0.613 2.050 0.107 2.342-0.502 0.29-1.372-0.266-1.97-1.245-0.727 0.552-1.374 1.213-1.919 1.953 0.925 0.604 1.438 1.44 1.151 1.926-0.285 0.484-1.258 0.448-2.228-0.060-0.363 0.832-0.612 1.728-0.732 2.664 0.608 0.011 1.173 0.15 1.644 0.379 1.117-0.019 2.058-0.123 2.543-0.265 0.349-1.655 1.446-3.029 2.909-3.738 0.046-1.605 0.118-3.12 0.219-4.526zM18.118 10.917c0.1 1.407 0.173 2.922 0.218 4.526 1.463 0.708 2.561 2.083 2.909 3.738 0.485 0.142 1.426 0.246 2.543 0.265 0.472-0.23 1.036-0.367 1.644-0.379-0.119-0.936-0.368-1.832-0.732-2.664-0.97 0.509-1.943 0.544-2.228 0.060-0.287-0.486 0.226-1.322 1.151-1.926-0.545-0.739-1.192-1.401-1.919-1.953-0.597 0.979-1.467 1.535-1.97 1.245-0.506-0.292-0.452-1.329 0.107-2.342-0.489-0.224-1.064-0.42-1.662-0.558l-0.062-0.012zM16.078 11.457c-0.203 0-0.368 0.553-0.383 1.252h-0.003v1.060c0 2.601-3.078 5.969-5.872 5.969-3.266 0-7.709-0.091-9.821 1.832v0.158c0.592 1.075 1.292 2.083 2.084 3.013 0.786-1.325 3.24-2.572 6.784-2.597 2.869 0.064 4.964 1.277 5.7 2.567 0.001 0.001-0.001 0.003 0 0.003 0.482 0.134 0.995 0.203 1.51 0.202 0.514 0.001 1.028-0.067 1.51-0.202 0.001-0.001-0.001-0.003 0-0.003 0.737-1.29 2.831-2.503 5.7-2.567 3.544 0.025 5.997 1.273 6.784 2.597 0.791-0.93 1.492-1.938 2.084-3.013v-0.158c-2.111-1.923-6.555-1.832-9.821-1.832-2.794 0-5.872-3.368-5.872-5.969v-1.060h-0.003c-0.014-0.698-0.18-1.252-0.383-1.252zM16.078 17.523c1.408 0 2.55 1.142 2.55 2.55s-1.142 2.553-2.55 2.553-2.55-1.145-2.55-2.553c0-1.408 1.142-2.55 2.55-2.55zM16.078 18.003c-1.143 0-2.070 0.928-2.070 2.070s0.928 2.070 2.070 2.070 2.070-0.928 2.070-2.070-0.928-2.070-2.070-2.070zM16.078 18.389c0.93 0 1.684 0.754 1.684 1.684s-0.754 1.684-1.684 1.684-1.684-0.754-1.684-1.684 0.754-1.684 1.684-1.684zM8.868 22.576c-0.64 0.004-1.357 0.023-1.916 0.104 0.027 0.278 0.095 1.17 0.447 1.869 0.572-0.161 1.153-0.245 1.735-0.245 2.593 0.059 4.489 2.157 4.915 4.677l0.007 0.295c0.653 0.12 1.331 0.185 2.023 0.185s1.37-0.064 2.023-0.185l0.007-0.295c0.426-2.52 2.323-4.618 4.915-4.677 0.582 0 1.163 0.084 1.735 0.245 0.352-0.699 0.42-1.592 0.447-1.869-0.559-0.082-1.276-0.099-1.916-0.104-1.178 0.026-2.21 0.262-3.053 0.607-0.788 1.007-1.831 1.886-3.114 2.077-0.006 0.001-0.011 0.003-0.017 0.003-0.003 0.001-0.007 0.003-0.010 0.003-0.329 0.067-0.668 0.1-1.017 0.1s-0.688-0.033-1.017-0.1c-0.003-0.001-0.007-0.003-0.010-0.003-0.006-0.001-0.011-0.003-0.017-0.003-1.283-0.19-2.326-1.070-3.114-2.077-0.843-0.345-1.875-0.581-3.053-0.607z"></path>
</svg>
