<!-- Generated by IcoMoon.io -->
<svg version="1.1" xmlns="http://www.w3.org/2000/svg" width="31" height="32" viewBox="0 0 31 32">
<title>galactic-republic</title>
<path d="M15.576 31.187c-8.589 0-15.576-6.987-15.576-15.576s6.987-15.576 15.576-15.576 15.576 6.987 15.576 15.576-6.987 15.576-15.576 15.576zM15.576 1.074c-8.016 0-14.538 6.522-14.538 14.538s6.522 14.538 14.538 14.538 14.538-6.522 14.538-14.538-6.522-14.538-14.538-14.538zM17.311 2.443v1.546c2 0.302 3.779 1.070 5.279 2.191l-0.031-0.022 1.092-1.090c-1.806-1.385-3.976-2.317-6.341-2.625zM13.833 2.448c-2.364 0.31-4.532 1.244-6.336 2.628l1.085 1.090h0.005c1.512-1.12 3.3-1.888 5.246-2.178v-1.541zM14.602 5.599v5.205c-0.631 0.127-1.22 0.373-1.738 0.717l-3.682-3.68-1.377 1.377 3.685 3.685c-0.344 0.517-0.594 1.105-0.72 1.735h-5.207v1.947h5.207c0.127 0.629 0.377 1.213 0.72 1.73l-3.685 3.686 1.377 1.377 3.682-3.682c0.496 0.334 1.079 0.584 1.706 0.715l0.032 0.006v5.207h1.947v-5.207c0.631-0.128 1.217-0.381 1.735-0.725l3.685 3.686 1.377-1.377-3.685-3.686c0.343-0.517 0.595-1.1 0.722-1.73h5.205v-1.947h-5.205c-0.127-0.629-0.379-1.217-0.722-1.735l3.685-3.685-1.377-1.377-3.685 3.685c-0.518-0.345-1.103-0.595-1.735-0.722v-5.204h-1.947zM26.111 7.528l-1.090 1.090c1.102 1.472 1.873 3.252 2.169 5.19l0.008 0.065h1.546c-0.311-2.367-1.245-4.54-2.633-6.345zM5.036 7.536c-1.385 1.804-2.318 3.973-2.628 6.338h1.548c0.289-1.945 1.053-3.734 2.173-5.246l-1.092-1.092zM2.408 17.349c0.309 2.364 1.24 4.533 2.625 6.337l1.090-1.092c-1.119-1.512-1.879-3.302-2.167-5.246h-1.548zM27.198 17.349c-0.29 1.946-1.055 3.737-2.177 5.251l1.090 1.090c1.387-1.805 2.323-3.975 2.633-6.341h-1.546zM8.583 25.056l-1.090 1.090c1.804 1.387 3.976 2.323 6.341 2.633v-1.547c-1.946-0.291-3.739-1.055-5.251-2.176zM22.559 25.059c-1.513 1.12-3.302 1.889-5.249 2.178v1.543c2.366-0.309 4.535-1.243 6.341-2.628l-1.087-1.092h-0.005z"></path>
</svg>
