<!-- Generated by IcoMoon.io -->
<svg version="1.1" xmlns="http://www.w3.org/2000/svg" width="32" height="32" viewBox="0 0 32 32">
<title>gam-file-format-variant</title>
<path d="M14.98 24.002h-0.020c-0.097 0.388-0.193 0.882-0.3 1.259l-0.388 1.385h1.444l-0.407-1.385c-0.116-0.388-0.232-0.872-0.329-1.259zM27.737 7.239c-0.002-0.148-0.049-0.293-0.15-0.408l-6.201-7.082c-0.001-0.002-0.003-0.002-0.005-0.004-0.037-0.041-0.079-0.075-0.125-0.105-0.013-0.009-0.027-0.017-0.041-0.025-0.040-0.021-0.081-0.039-0.125-0.052-0.012-0.004-0.022-0.008-0.034-0.011-0.047-0.011-0.096-0.018-0.145-0.018h-15.238c-0.695 0-1.261 0.566-1.261 1.261v29.635c0 0.696 0.566 1.261 1.261 1.261h20.807c0.696 0 1.261-0.566 1.261-1.261v-23.119c0-0.024-0.004-0.047-0.006-0.070zM11.386 29.127c-0.455 0.155-1.317 0.368-2.18 0.368-1.191 0-2.054-0.3-2.654-0.882-0.601-0.562-0.93-1.414-0.921-2.373 0.010-2.17 1.589-3.41 3.73-3.41 0.843 0 1.492 0.164 1.812 0.32l-0.31 1.182c-0.358-0.155-0.804-0.281-1.521-0.281-1.23 0-2.161 0.697-2.161 2.111 0 1.347 0.843 2.142 2.054 2.142 0.339 0 0.61-0.039 0.727-0.097v-1.366h-1.008v-1.153h2.432v3.439h-0zM16.433 29.427l-0.504-1.676h-1.87l-0.465 1.676h-1.531l1.995-6.53h1.938l2.025 6.53h-1.588zM24.512 29.427l-0.097-2.5c-0.029-0.785-0.058-1.735-0.058-2.684h-0.030c-0.203 0.833-0.475 1.763-0.727 2.529l-0.794 2.548h-1.153l-0.698-2.529c-0.213-0.765-0.436-1.695-0.591-2.548h-0.018c-0.039 0.882-0.068 1.889-0.116 2.703l-0.116 2.48h-1.366l0.416-6.53h1.967l0.639 2.179c0.203 0.756 0.406 1.57 0.553 2.335h0.029c0.184-0.756 0.406-1.618 0.62-2.345l0.698-2.17h1.927l0.358 6.53-1.443 0.001zM5.675 20.945v-20.151h14.607v6.452c0 0.348 0.282 0.631 0.631 0.631h5.569l0.001 13.068h-20.808zM17.473 11.008h-1.992l-0.382-0.004c-0.028-0.072-0.040-0.139-0.043-0.197-0.014-0.405 0.375-0.755 0.543-0.887 0.223-0.175 0.339-0.354 0.401-0.617 0.041-0.174-0.056-0.37-0.167-0.556l-0.101-0.169c-0.26-0.428-0.505-0.832-0.63-1.361-0.010-0.044-0.030-0.088-0.105-0.088-0.053 0-0.108 0.025-0.139 0.064-0.025 0.031-0.031 0.067-0.020 0.114 0.095 0.399 0.26 0.791 0.52 1.233l0.033 0.055c0.182 0.307 0.488 0.819-0.105 1.208-0.125 0.082-0.242 0.159-0.322 0.263-0.147 0.192-0.205 0.469-0.158 0.757 0.010 0.065 0.027 0.127 0.047 0.188h-1.602c-1.021 0-1.849 0.829-1.849 1.85s0.828 1.849 1.849 1.849c0.993 0 1.804-0.783 1.847-1.765h0.53c0.044 0.982 0.854 1.765 1.847 1.765 1.022 0 1.849-0.828 1.849-1.849s-0.827-1.85-1.849-1.85zM13.369 11.913c0.189-0.069 0.399 0.028 0.467 0.217s-0.028 0.398-0.216 0.467c-0.189 0.070-0.398-0.027-0.467-0.217s0.028-0.398 0.216-0.467zM12.258 12.709c-0.069-0.19 0.028-0.398 0.217-0.468s0.398 0.028 0.467 0.217c0.069 0.189-0.028 0.398-0.217 0.467s-0.397-0.027-0.467-0.216zM13.047 13.803c-0.189 0.069-0.398-0.028-0.467-0.216s0.028-0.399 0.216-0.468c0.189-0.069 0.399 0.028 0.468 0.217s-0.028 0.398-0.217 0.467zM13.942 13.475c-0.189 0.070-0.398-0.027-0.467-0.216s0.028-0.398 0.217-0.468c0.189-0.069 0.399 0.028 0.467 0.217s-0.028 0.398-0.217 0.467zM18.426 13.102h-0.639v0.639h-0.488v-0.639h-0.639v-0.488h0.639v-0.638h0.488v0.638h0.639v0.488zM18.38 4.662h-8.135v13.819h10.235v-11.38l-2.099-2.439zM18.597 5.772l0.991 1.152h-0.991v-1.152zM10.804 17.92v-12.698h7.232v2.263h1.883v10.436l-9.116-0z"></path>
</svg>
