<!-- Generated by IcoMoon.io -->
<svg version="1.1" xmlns="http://www.w3.org/2000/svg" width="40" height="32" viewBox="0 0 40 32">
<title>gamepad</title>
<path d="M30.147 5.562h-20.098c-5.552 0-10.049 4.497-10.049 10.049s4.497 10.049 10.049 10.049c2.814 0 5.351-1.156 7.172-3.015h5.747c1.821 1.859 4.365 3.015 7.172 3.015 5.552 0 10.049-4.497 10.049-10.049s-4.491-10.049-10.043-10.049zM16.078 16.867c0 0.415-0.339 0.754-0.754 0.754h-3.266v3.266c0 0.415-0.339 0.754-0.754 0.754h-2.512c-0.415 0-0.754-0.339-0.754-0.754v-3.266h-3.266c-0.415 0-0.754-0.339-0.754-0.754v-2.512c0-0.415 0.339-0.754 0.754-0.754h3.266v-3.266c0-0.415 0.339-0.754 0.754-0.754h2.512c0.415 0 0.754 0.339 0.754 0.754v3.266h3.266c0.415 0 0.754 0.339 0.754 0.754v2.512zM27.635 21.138c-1.664 0-3.015-1.35-3.015-3.015s1.35-3.015 3.015-3.015 3.015 1.35 3.015 3.015-1.35 3.015-3.015 3.015zM32.659 16.114c-1.664 0-3.015-1.35-3.015-3.015s1.35-3.015 3.015-3.015 3.015 1.35 3.015 3.015-1.35 3.015-3.015 3.015z"></path>
</svg>
