<!-- Generated by IcoMoon.io -->
<svg version="1.1" xmlns="http://www.w3.org/2000/svg" width="32" height="32" viewBox="0 0 32 32">
<title>gas-station</title>
<path d="M4.495 1.747c-1.416 0-2.564 1.147-2.564 2.564v23.072c-0.005-0-0.012-0-0.018-0-0.708 0-1.282 0.574-1.282 1.282s0.574 1.282 1.282 1.282c0.006 0 0.013-0 0.019-0h17.944c0.005 0 0.012 0 0.018 0 0.708 0 1.282-0.574 1.282-1.282s-0.574-1.282-1.282-1.282c-0.006 0-0.013 0-0.019 0h0.001v-5.127h3.845v3.204c0 2.463 2.024 4.486 4.486 4.486 0.168-0.003 0.326-0.038 0.472-0.098l-0.008 0.003c2.238-0.245 4.023-2.092 4.023-4.391v-10.895c-0-0.354-0.144-0.674-0.376-0.906l-5.127-5.127c-0.058-0.058-0.122-0.111-0.191-0.157l-0.005-0.003-3.845-2.564c-0.202-0.141-0.453-0.225-0.723-0.225h-0c-0.001 0-0.001 0-0.002 0-0.708 0-1.282 0.574-1.282 1.282 0 0.449 0.231 0.844 0.581 1.073l0.005 0.003 3.274 2.183v3.159c0 1.416 1.147 2.564 2.564 2.564h2.564v9.613c0 1.078-0.845 1.923-1.923 1.923s-1.923-0.845-1.923-1.923v-3.204c0-1.401-1.162-2.564-2.564-2.564h-3.845v-15.381c0-1.416-1.147-2.564-2.564-2.564h-12.818zM4.495 4.311h12.818v7.691h-12.818v-7.691z"></path>
</svg>
