<!-- Generated by IcoMoon.io -->
<svg version="1.1" xmlns="http://www.w3.org/2000/svg" width="32" height="32" viewBox="0 0 32 32">
<title>gas-pump</title>
<path d="M21.103 27.67h-20.098c-0.553 0-1.005 0.452-1.005 1.005v2.010c0 0.553 0.452 1.005 1.005 1.005h20.098c0.553 0 1.005-0.452 1.005-1.005v-2.010c0-0.553-0.452-1.005-1.005-1.005zM30.976 6.272l-5.087-5.087c-0.389-0.389-1.030-0.389-1.419 0l-0.71 0.71c-0.389 0.389-0.389 1.030 0 1.419l2.368 2.368v3.9c0 1.765 1.313 3.222 3.015 3.467v10.099c0 0.829-0.678 1.507-1.507 1.507s-1.507-0.678-1.507-1.507v-2.010c0-3.052-2.475-5.527-5.527-5.527h-0.503v-12.059c0-2.217-1.802-4.020-4.020-4.020h-10.049c-2.217 0-4.020 1.802-4.020 4.020v22.108h18.088v-7.034h0.503c1.388 0 2.512 1.124 2.512 2.512v1.746c0 2.368 1.696 4.522 4.051 4.767 2.701 0.27 4.993-1.853 4.993-4.503v-14.031c0-1.068-0.427-2.091-1.181-2.845zM16.078 11.592h-10.049v-8.039h10.049v8.039z"></path>
</svg>
