<!-- Generated by IcoMoon.io -->
<svg version="1.1" xmlns="http://www.w3.org/2000/svg" width="32" height="32" viewBox="0 0 32 32">
<title>gavel</title>
<path d="M31.715 12.054l-1.421-1.421c-0.589-0.589-1.543-0.589-2.132 0l-0.355 0.355-7.106-7.106 0.355-0.355c0.589-0.589 0.589-1.543 0-2.132l-1.421-1.421c-0.589-0.589-1.543-0.589-2.132 0l-7.816 7.816c-0.589 0.589-0.589 1.543 0 2.132l1.421 1.421c0.589 0.589 1.543 0.589 2.132 0l0.355-0.355 2.487 2.487-5.090 5.090-0.355-0.355c-0.785-0.785-2.057-0.785-2.842 0l-7.207 7.207c-0.785 0.785-0.785 2.057 0 2.842l2.842 2.842c0.785 0.785 2.057 0.785 2.842 0l7.207-7.207c0.785-0.785 0.785-2.057 0-2.842l-0.355-0.355 5.090-5.090 2.487 2.487-0.355 0.355c-0.589 0.589-0.589 1.543 0 2.132l1.421 1.421c0.589 0.589 1.543 0.589 2.132 0l7.816-7.816c0.589-0.589 0.589-1.543 0-2.132z"></path>
</svg>
