<!-- Generated by IcoMoon.io -->
<svg version="1.1" xmlns="http://www.w3.org/2000/svg" width="32" height="32" viewBox="0 0 32 32">
<title>gbr-file-format-extension</title>
<path d="M16.11 26.52h-0.536v1.957c0.155 0.021 0.34 0.021 0.608 0.021 0.71 0 1.339-0.268 1.339-0.999 0-0.701-0.628-0.978-1.411-0.978zM17.355 24.543c0-0.525-0.402-0.803-1.112-0.803-0.34 0-0.536 0.020-0.67 0.041v1.617h0.515c0.824 0 1.267-0.34 1.267-0.855zM22.507 23.76c-0.381 0-0.598 0.031-0.711 0.051v1.916h0.618c0.783 0 1.246-0.391 1.246-0.999 0-0.638-0.433-0.958-1.153-0.968zM27.737 7.239c-0.002-0.147-0.049-0.293-0.15-0.408l-6.2-7.082c-0.001-0.002-0.003-0.003-0.005-0.004-0.037-0.041-0.079-0.075-0.125-0.105-0.013-0.009-0.027-0.017-0.041-0.025-0.040-0.021-0.081-0.039-0.124-0.052-0.012-0.003-0.022-0.008-0.034-0.011-0.047-0.011-0.095-0.018-0.145-0.018h-15.238c-0.695 0-1.261 0.566-1.261 1.261v29.635c0 0.695 0.566 1.261 1.261 1.261h20.807c0.696 0 1.261-0.566 1.261-1.261v-23.119c0-0.024-0.004-0.047-0.006-0.071zM12.792 29.27c-0.484 0.164-1.401 0.391-2.317 0.391-1.267 0-2.184-0.319-2.822-0.937-0.638-0.597-0.989-1.504-0.979-2.523 0.010-2.307 1.689-3.625 3.965-3.625 0.896 0 1.586 0.175 1.926 0.34l-0.329 1.257c-0.381-0.165-0.855-0.299-1.617-0.299-1.308 0-2.297 0.741-2.297 2.245 0 1.432 0.896 2.276 2.184 2.276 0.36 0 0.649-0.041 0.772-0.102v-1.452h-1.071v-1.226h2.585v3.656h-0zM18.447 29.033c-0.505 0.401-1.349 0.628-2.729 0.628-0.772 0-1.349-0.051-1.699-0.102v-6.818c0.412-0.083 1.246-0.144 2.029-0.144 0.958 0 1.545 0.093 2.050 0.392 0.484 0.257 0.834 0.731 0.834 1.359 0 0.618-0.36 1.195-1.143 1.483v0.021c0.793 0.216 1.38 0.813 1.38 1.709-0 0.629-0.288 1.123-0.721 1.473zM23.876 29.589c-0.113-0.196-0.278-0.762-0.484-1.617-0.185-0.865-0.484-1.102-1.122-1.112h-0.474v2.729h-1.555v-6.849c0.505-0.083 1.256-0.144 2.091-0.144 1.030 0 1.751 0.155 2.245 0.546 0.412 0.33 0.639 0.814 0.639 1.452 0 0.886-0.628 1.494-1.225 1.71v0.031c0.484 0.195 0.752 0.659 0.927 1.297 0.216 0.783 0.433 1.689 0.567 1.957l-1.607 0zM5.675 20.945v-20.151h14.607v6.452c0 0.348 0.282 0.631 0.631 0.631h5.569l0.001 13.068h-20.808zM23.277 16.294c-0.642 0-1.167 0.482-1.245 1.103h-6.636v-3.67h4.632c0.078 0.621 0.603 1.103 1.245 1.103 0.696 0 1.261-0.565 1.261-1.261s-0.565-1.261-1.261-1.261c-0.642 0-1.167 0.482-1.245 1.103h-4.632v-3.265h5.375c0.078 0.621 0.603 1.103 1.245 1.103 0.696 0 1.261-0.565 1.261-1.261s-0.565-1.261-1.261-1.261c-0.643 0-1.167 0.482-1.245 1.103h-5.69v10.824h0.315v-2.942h6.636c0.078 0.622 0.603 1.103 1.245 1.103 0.697 0 1.261-0.565 1.261-1.261s-0.565-1.261-1.261-1.261zM7.987 13.772c-0.697 0-1.261 0.565-1.261 1.261s0.565 1.261 1.261 1.261c0.642 0 1.167-0.482 1.245-1.103h3.615v5.425h0.315v-5.74h-3.93c-0.078-0.621-0.603-1.103-1.245-1.103zM9.195 4.561c0.621-0.078 1.103-0.602 1.103-1.245 0-0.696-0.565-1.261-1.261-1.261s-1.261 0.565-1.261 1.261c0 0.643 0.482 1.167 1.103 1.245v3.287l4.907 4.906v7.862h0.315v-7.993l-4.907-4.906v-3.156z"></path>
</svg>
