<!-- Generated by IcoMoon.io -->
<svg version="1.1" xmlns="http://www.w3.org/2000/svg" width="32" height="32" viewBox="0 0 32 32">
<title>ged-file-format-symbol</title>
<path d="M27.737 7.239c-0.002-0.148-0.049-0.293-0.15-0.408l-6.2-7.082c-0.001-0.002-0.003-0.002-0.005-0.004-0.037-0.041-0.079-0.075-0.125-0.105-0.013-0.009-0.027-0.017-0.041-0.025-0.040-0.022-0.081-0.039-0.124-0.052-0.012-0.004-0.022-0.008-0.034-0.011-0.047-0.011-0.095-0.018-0.145-0.018h-15.238c-0.695 0-1.261 0.566-1.261 1.261v29.635c0 0.696 0.566 1.261 1.261 1.261h20.807c0.696 0 1.261-0.566 1.261-1.261v-23.119c-0-0.024-0.004-0.047-0.006-0.070zM12.772 29.583c-0.484 0.164-1.401 0.391-2.317 0.391-1.267 0-2.184-0.319-2.822-0.937-0.638-0.597-0.989-1.504-0.979-2.523 0.010-2.307 1.689-3.626 3.965-3.626 0.896 0 1.586 0.175 1.926 0.34l-0.329 1.257c-0.381-0.165-0.855-0.299-1.617-0.299-1.308 0-2.297 0.741-2.297 2.245 0 1.432 0.896 2.276 2.183 2.276 0.361 0 0.649-0.041 0.772-0.102v-1.452h-1.071v-1.226h2.585v3.656h-0zM18.427 29.902h-4.429v-6.942h4.284v1.287h-2.709v1.442h2.554v1.277h-2.554v1.648h2.853v1.288h0zM24.484 29.079c-0.731 0.607-1.843 0.896-3.203 0.896-0.814 0-1.391-0.052-1.782-0.103v-6.819c0.577-0.092 1.329-0.144 2.122-0.144 1.319 0 2.173 0.237 2.843 0.742 0.721 0.536 1.174 1.39 1.174 2.616 0 1.329-0.484 2.245-1.153 2.812zM5.675 20.945v-20.151h14.607v6.452c0 0.348 0.282 0.631 0.631 0.631h5.569l0.001 13.068h-20.808zM21.786 24.114c-0.35 0-0.577 0.031-0.711 0.062v4.542c0.134 0.031 0.35 0.031 0.546 0.031 1.421 0.010 2.348-0.772 2.348-2.431 0.010-1.442-0.834-2.204-2.183-2.204zM11.488 2.684h4.492v2.207h-4.492v-2.207zM12.453 10.907h4.492v2.207h-4.492v-2.207zM12.453 16.384h4.492v2.207h-4.492v-2.207zM19.696 16.384h4.492v2.207h-4.492v-2.207zM6.67 13.626h4.492v2.207h-4.492v-2.207zM19.696 10.907h4.492v2.207h-4.492v-2.207zM8.748 8.463h4.828v2.102h0.315v-0.368h7.42v0.368h0.315v-0.683h-7.735v-4.466h-0.315v2.732h-5.143v5.202h0.315zM13.576 13.626h0.315v2.207h-0.315v-2.207zM21.312 13.626h0.315v2.207h-0.315v-2.207z"></path>
</svg>
