<!-- Generated by IcoMoon.io -->
<svg version="1.1" xmlns="http://www.w3.org/2000/svg" width="36" height="32" viewBox="0 0 36 32">
<title>gem</title>
<path d="M29.142-0.467h-22.108c-0.251 0-0.49 0.126-0.628 0.339l-6.281 9.245c-0.182 0.276-0.163 0.641 0.044 0.892l17.334 21.404c0.301 0.371 0.867 0.371 1.168 0l17.334-21.404c0.207-0.258 0.226-0.615 0.044-0.892l-6.274-9.245c-0.145-0.214-0.377-0.339-0.634-0.339zM27.93 2.548l3.976 6.029h-4.296l-3.247-6.029h3.567zM15.237 2.548h5.697l3.247 6.029h-12.184l3.241-6.029zM8.246 2.548h3.567l-3.247 6.029h-4.296l3.976-6.029zM5.546 11.592h3.228l4.29 10.049-7.518-10.049zM12.009 11.592h12.159l-6.080 15.281-6.080-15.281zM23.113 21.641l4.283-10.049h3.228l-7.512 10.049z"></path>
</svg>
