<!-- Generated by IcoMoon.io -->
<svg version="1.1" xmlns="http://www.w3.org/2000/svg" width="36" height="32" viewBox="0 0 36 32">
<title>gem1</title>
<path d="M30.492-0.467l5.684 10.049h-6.35l-4.346-10.049h5.012zM22.453-0.467l4.346 10.049h-17.422l4.346-10.049h8.73zM5.684-0.467h5.012l-4.346 10.049h-6.35l5.684-10.049zM0 11.592h6.325l7.725 15.808c0.094 0.195-0.17 0.371-0.314 0.207l-13.736-16.016zM9.308 11.592h17.561l-8.604 19.985c-0.063 0.151-0.283 0.151-0.345 0l-8.611-19.985zM22.127 27.4l7.725-15.808h6.325l-13.736 16.009c-0.145 0.17-0.408-0.006-0.314-0.201z"></path>
</svg>
