<!-- Generated by IcoMoon.io -->
<svg version="1.1" xmlns="http://www.w3.org/2000/svg" width="28" height="32" viewBox="0 0 28 32">
<title>get-pocket</title>
<path d="M25.6 3.553h-23.050c-1.388 0-2.55 1.162-2.55 2.55v8.491c0 7.832 6.262 14.081 14.081 14.081 7.788 0 14.056-6.249 14.056-14.081v-8.491c0-1.407-1.112-2.55-2.537-2.55zM15.425 20.416c-0.779 0.741-1.972 0.697-2.663 0-7.141-6.84-7.216-6.601-7.216-7.738 0-1.061 0.867-1.928 1.928-1.928 1.068 0 1.011 0.239 6.607 5.609 5.69-5.458 5.565-5.609 6.626-5.609s1.928 0.867 1.928 1.928c0 1.118-0.182 0.986-7.21 7.738z"></path>
</svg>
