<!-- Generated by IcoMoon.io -->
<svg version="1.1" xmlns="http://www.w3.org/2000/svg" width="32" height="32" viewBox="0 0 32 32">
<title>gg-circle</title>
<path d="M16.141 0.035c-8.604 0-15.576 6.971-15.576 15.576s6.971 15.576 15.576 15.576 15.576-6.971 15.576-15.576-6.971-15.576-15.576-15.576zM13.032 23.575l-7.895-7.895 7.895-7.895 2.211 2.223-1.52 1.52-0.697-0.697-4.849 4.849 4.849 4.849 1.671-1.671-3.335-3.322 1.533-1.533 4.849 4.849-4.71 4.723zM19.25 23.437l-2.211-2.211 1.514-1.532 0.697 0.697 4.849-4.849-4.849-4.849-1.664 1.664 3.335 3.322-1.532 1.533-4.849-4.849 4.71-4.71 7.895 7.895-7.895 7.888z"></path>
</svg>
