<!-- Generated by IcoMoon.io -->
<svg version="1.1" xmlns="http://www.w3.org/2000/svg" width="24" height="32" viewBox="0 0 24 32">
<title>ghost</title>
<path d="M11.688-0.461c-6.6 0.198-11.688 5.956-11.688 12.559v16.576c0 0.896 1.082 1.343 1.715 0.71l1.565-1.164c0.418-0.311 1.005-0.251 1.351 0.139l2.697 3.037c0.393 0.392 1.029 0.392 1.421 0l2.557-2.88c0.4-0.45 1.103-0.45 1.502 0l2.557 2.88c0.393 0.392 1.029 0.392 1.421 0l2.698-3.037c0.346-0.389 0.933-0.45 1.351-0.139l1.565 1.164c0.633 0.633 1.715 0.185 1.715-0.71v-17.081c0-6.783-5.6-12.258-12.429-12.053zM8.039 13.602c-1.11 0-2.010-0.9-2.010-2.010s0.9-2.010 2.010-2.010 2.010 0.9 2.010 2.010-0.9 2.010-2.010 2.010zM16.078 13.602c-1.11 0-2.010-0.9-2.010-2.010s0.9-2.010 2.010-2.010 2.010 0.9 2.010 2.010-0.9 2.010-2.010 2.010z"></path>
</svg>
