<!-- Generated by IcoMoon.io -->
<svg version="1.1" xmlns="http://www.w3.org/2000/svg" width="32" height="32" viewBox="0 0 32 32">
<title>gif-file-format</title>
<path d="M27.737 7.239c-0.002-0.147-0.049-0.293-0.15-0.408l-6.2-7.082c-0.001-0.002-0.004-0.003-0.005-0.004-0.037-0.042-0.079-0.075-0.125-0.105-0.013-0.009-0.028-0.017-0.042-0.025-0.039-0.022-0.081-0.039-0.124-0.052-0.011-0.003-0.022-0.008-0.034-0.011-0.047-0.011-0.095-0.018-0.144-0.018h-15.238c-0.695 0-1.261 0.566-1.261 1.261v29.635c0 0.695 0.566 1.261 1.261 1.261h20.807c0.695 0 1.261-0.566 1.261-1.261v-23.119c0-0.024-0.004-0.047-0.006-0.071zM14.345 29.52c-0.533 0.182-1.543 0.431-2.554 0.431-1.396 0-2.406-0.352-3.109-1.032-0.704-0.658-1.089-1.657-1.078-2.78 0.011-2.542 1.861-3.994 4.369-3.994 0.987 0 1.748 0.193 2.122 0.375l-0.363 1.384c-0.419-0.181-0.941-0.329-1.782-0.329-1.44 0-2.53 0.817-2.53 2.474 0 1.578 0.988 2.508 2.407 2.508 0.397 0 0.715-0.045 0.851-0.113v-1.6h-1.18v-1.351h2.848v4.028zM17.432 29.871h-1.736v-7.648h1.736v7.648zM23.606 23.641h-2.94v1.748h2.746v1.407h-2.746v3.075h-1.736v-7.648h4.676v1.418zM5.675 20.944v-20.15h14.607v6.452c0 0.348 0.282 0.631 0.631 0.631h5.569l0.001 13.068h-20.808zM21.492 16.673l-3.281-3.877h1.823l-3.024-3.573h1.884l-2.486-2.937h1.159l-1.911-2.259-1.737 2.258h1.172l-2.259 2.937h1.849l-2.749 3.573h1.718l-2.983 3.877h5.001v4.691h0.825v-4.691z"></path>
</svg>
