<!-- Generated by IcoMoon.io -->
<svg version="1.1" xmlns="http://www.w3.org/2000/svg" width="40" height="32" viewBox="0 0 40 32">
<title>gifts</title>
<path d="M15.111 11.724c0.119-1.934 1.087-3.844 2.763-5.012-0.327-0.678-0.999-1.149-1.796-1.149h-1.847l1.928-1.382c0.452-0.32 0.559-0.948 0.232-1.401l-0.584-0.816c-0.32-0.452-0.948-0.559-1.401-0.232l-2.010 1.438 0.722-1.922c0.195-0.521-0.069-1.099-0.59-1.294l-0.942-0.352c-0.521-0.195-1.099 0.069-1.294 0.59l-1.25 3.329-1.25-3.335c-0.195-0.521-0.772-0.785-1.294-0.59l-0.942 0.352c-0.521 0.195-0.785 0.779-0.584 1.294l0.722 1.922-2.016-1.432c-0.452-0.32-1.080-0.22-1.401 0.232l-0.584 0.816c-0.32 0.452-0.22 1.080 0.232 1.401l1.928 1.382h-1.847c-1.112 0-2.010 0.898-2.010 2.010v22.108c0 1.112 0.898 2.010 2.010 2.010h10.608c-0.345-0.597-0.559-1.275-0.559-2.010v-14.069c0-1.878 1.306-3.454 3.052-3.888zM14.069 29.68c0 1.112 0.898 2.010 2.010 2.010h10.049v-8.039h-12.059v6.029zM28.137 31.69h10.049c1.112 0 2.010-0.898 2.010-2.010v-6.029h-12.059v8.039zM38.186 13.602h-1.281c0.163-0.477 0.276-0.973 0.276-1.495 0-2.23-1.696-4.535-4.528-4.535-3.021 0-4.767 2.996-5.521 4.729-0.76-1.733-2.506-4.729-5.521-4.729-2.833 0-4.528 2.305-4.528 4.535 0 0.521 0.107 1.018 0.276 1.495h-1.281c-1.112 0-2.010 0.898-2.010 2.010v6.029h12.059v-8.039h0.961l0.044-0.012 0.044 0.012h0.961v8.039h12.059v-6.029c0-1.112-0.898-2.010-2.010-2.010zM21.103 13.602c-0.17-0.088-0.32-0.188-0.452-0.301-0.458-0.402-0.553-0.867-0.553-1.193 0-0.609 0.402-1.52 1.514-1.52 1.175 0 2.236 1.721 2.795 3.015h-3.304zM33.614 13.3c-0.132 0.113-0.283 0.214-0.452 0.301h-3.304c0.553-1.275 1.62-3.015 2.795-3.015 1.112 0 1.514 0.911 1.514 1.52 0 0.327-0.094 0.791-0.553 1.193z"></path>
</svg>
