<!-- Generated by IcoMoon.io -->
<svg version="1.1" xmlns="http://www.w3.org/2000/svg" width="32" height="32" viewBox="0 0 32 32">
<title>gift</title>
<path d="M2.010 27.67c0 1.112 0.898 2.010 2.010 2.010h10.049v-10.049h-12.059v8.039zM18.088 29.68h10.049c1.112 0 2.010-0.898 2.010-2.010v-8.039h-12.059v10.049zM30.147 9.582h-2.644c0.389-0.76 0.634-1.602 0.634-2.512 0-3.046-2.481-5.527-5.527-5.527-2.613 0-4.302 1.338-6.469 4.29-2.167-2.952-3.856-4.29-6.469-4.29-3.046 0-5.527 2.481-5.527 5.527 0 0.911 0.239 1.752 0.634 2.512h-2.77c-1.112 0-2.010 0.898-2.010 2.010v5.024c0 0.553 0.452 1.005 1.005 1.005h30.147c0.553 0 1.005-0.452 1.005-1.005v-5.024c0-1.112-0.898-2.010-2.010-2.010zM9.666 9.582c-1.388 0-2.512-1.124-2.512-2.512s1.124-2.512 2.512-2.512c1.25 0 2.173 0.207 5.408 5.024h-5.408zM22.61 9.582h-5.408c3.228-4.805 4.126-5.024 5.408-5.024 1.388 0 2.512 1.124 2.512 2.512s-1.124 2.512-2.512 2.512z"></path>
</svg>
