<!-- Generated by IcoMoon.io -->
<svg version="1.1" xmlns="http://www.w3.org/2000/svg" width="28" height="32" viewBox="0 0 28 32">
<title>git-square</title>
<path d="M8.799 21.421c0.76 0 1.853 0.132 1.853 1.124 0 0.973-0.873 1.181-1.696 1.181-0.772 0-1.941-0.126-1.941-1.13s0.986-1.175 1.784-1.175zM7.248 14.098c0 0.93 0.415 1.514 1.401 1.514 0.973 0 1.332-0.628 1.332-1.539 0.006-2.161-2.732-2.186-2.732 0.025zM28.137 4.557v22.108c0 1.664-1.35 3.015-3.015 3.015h-22.108c-1.664 0-3.015-1.35-3.015-3.015v-22.108c0-1.664 1.35-3.015 3.015-3.015h22.108c1.664 0 3.015 1.35 3.015 3.015zM13.001 10.442c-0.772 0.301-1.602 0.527-2.443 0.527-2.418-1.388-5.697 0.057-5.697 3.109 0 1.13 0.729 2.694 1.859 3.071v0.044c-0.842 0.371-1.074 2.267 0.044 2.952v0.044c-1.225 0.402-2.029 1.181-2.029 2.525 0 2.311 2.186 2.952 4.107 2.952 2.33 0 4.070-0.842 4.070-3.41 0-3.165-4.528-1.997-4.528-3.712 0-0.603 0.327-0.842 0.886-0.955 1.859-0.345 3.027-1.796 3.027-3.687 0-0.327-0.069-0.641-0.182-0.942 0.301-0.069 0.597-0.145 0.886-0.245v-2.274zM16.568 10.555h-2.487c0.082 0.666 0.069 8.956 0 9.766h2.487c-0.069-0.804-0.075-9.113 0-9.766zM16.851 7.208c0-0.842-0.628-1.645-1.514-1.645-0.898 0-1.545 0.785-1.545 1.645 0 0.854 0.66 1.627 1.545 1.627 0.86 0 1.514-0.785 1.514-1.627zM23.402 10.555h-2.286c0-0.615-0.025-1.231 0.069-1.853h-2.544c0.082 0.458 0.069 0.854 0.069 1.853h-1.074v2.129c0.747-0.119 0.76-0.044 1.074-0.044v0.044h-0.025v3.938c0 1.953 0.283 3.844 2.682 3.844 0.672 0 1.445-0.113 2.041-0.44v-2.198c-0.358 0.245-0.873 0.371-1.313 0.371-0.829 0-0.973-0.81-0.973-1.47v-4.095c1.426 0 2.286 0.044 2.286 0.044v-2.123z"></path>
</svg>
