<!-- Generated by IcoMoon.io -->
<svg version="1.1" xmlns="http://www.w3.org/2000/svg" width="28" height="32" viewBox="0 0 28 32">
<title>git</title>
<path d="M1.181 13.457c0 1.589 1.018 3.768 2.606 4.302v0.063c-1.181 0.521-1.507 3.178 0.063 4.133v0.063c-1.715 0.565-2.845 1.652-2.845 3.53 0 3.235 3.065 4.133 5.747 4.133 3.266 0 5.697-1.175 5.697-4.773 0-4.428-6.343-2.795-6.343-5.2 0-0.848 0.452-1.175 1.237-1.338 2.606-0.484 4.239-2.512 4.239-5.163 0-0.458-0.094-0.892-0.251-1.319 0.421-0.094 0.829-0.207 1.237-0.345v-3.172c-1.080 0.427-2.242 0.741-3.423 0.741-3.379-1.947-7.964 0.082-7.964 4.346zM6.689 23.745c1.068 0 2.588 0.188 2.588 1.57 0 1.369-1.225 1.652-2.368 1.652-1.087 0-2.72-0.17-2.72-1.583 0.006-1.401 1.388-1.639 2.5-1.639zM6.488 15.611c-1.382 0-1.966-0.816-1.966-2.123 0-3.096 3.831-3.065 3.831-0.031 0 1.275-0.502 2.154-1.865 2.154zM27.132 18.72v3.078c-0.835 0.458-1.916 0.615-2.858 0.615-3.36 0-3.756-2.65-3.756-5.383v-5.508h0.031v-0.063c-0.44 0-0.458-0.1-1.507 0.063v-2.983h1.507c0-1.401 0.019-1.947-0.094-2.588h3.561c-0.126 0.867-0.094 1.727-0.094 2.588h3.203v2.983s-1.212-0.063-3.203-0.063v5.722c0 0.93 0.207 2.060 1.369 2.060 0.615 0 1.338-0.176 1.84-0.521zM17.963 3.848c0 1.175-0.911 2.274-2.123 2.274-1.244 0-2.167-1.080-2.167-2.274 0-1.212 0.911-2.305 2.167-2.305 1.244 0 2.123 1.13 2.123 2.305zM17.573 8.527c-0.113 0.917-0.1 12.549 0 13.679h-3.486c0.1-1.137 0.113-12.75 0-13.679h3.486z"></path>
</svg>
