<!-- Generated by IcoMoon.io -->
<svg version="1.1" xmlns="http://www.w3.org/2000/svg" width="28" height="32" viewBox="0 0 28 32">
<title>github-square</title>
<path d="M25.122 1.543h-22.108c-1.664 0-3.015 1.35-3.015 3.015v22.108c0 1.664 1.35 3.015 3.015 3.015h22.108c1.664 0 3.015-1.35 3.015-3.015v-22.108c0-1.664-1.35-3.015-3.015-3.015zM17.416 25.641c-0.527 0.094-0.722-0.232-0.722-0.503 0-0.339 0.012-2.073 0.012-3.473 0-0.98-0.327-1.602-0.71-1.928 2.324-0.258 4.773-0.578 4.773-4.591 0-1.143-0.408-1.715-1.074-2.449 0.107-0.27 0.465-1.382-0.107-2.826-0.873-0.27-2.87 1.124-2.87 1.124-0.829-0.232-1.727-0.352-2.613-0.352s-1.784 0.119-2.613 0.352c0 0-1.997-1.394-2.87-1.124-0.572 1.438-0.22 2.55-0.107 2.826-0.666 0.735-0.98 1.306-0.98 2.449 0 3.994 2.343 4.334 4.667 4.591-0.301 0.27-0.572 0.735-0.666 1.401-0.597 0.27-2.123 0.735-3.034-0.873-0.572-0.992-1.602-1.074-1.602-1.074-1.018-0.012-0.069 0.641-0.069 0.641 0.678 0.314 1.156 1.52 1.156 1.52 0.609 1.865 3.523 1.237 3.523 1.237 0 0.873 0.012 2.292 0.012 2.55 0 0.27-0.188 0.597-0.722 0.503-4.145-1.388-7.047-5.332-7.047-9.942 0-5.766 4.409-10.143 10.175-10.143s10.438 4.378 10.438 10.143c0.006 4.61-2.807 8.56-6.953 9.942zM11.255 21.804c-0.119 0.025-0.232-0.025-0.245-0.107-0.012-0.094 0.069-0.176 0.188-0.201 0.119-0.012 0.232 0.038 0.245 0.119 0.019 0.082-0.063 0.163-0.188 0.188zM10.658 21.748c0 0.082-0.094 0.151-0.22 0.151-0.138 0.012-0.232-0.057-0.232-0.151 0-0.082 0.094-0.151 0.22-0.151 0.119-0.012 0.232 0.057 0.232 0.151zM9.798 21.678c-0.025 0.082-0.151 0.119-0.258 0.082-0.119-0.025-0.201-0.119-0.176-0.201s0.151-0.119 0.258-0.094c0.126 0.038 0.207 0.132 0.176 0.214zM9.025 21.339c-0.057 0.069-0.176 0.057-0.27-0.038-0.094-0.082-0.119-0.201-0.057-0.258 0.057-0.069 0.176-0.057 0.27 0.038 0.082 0.082 0.113 0.207 0.057 0.258zM8.454 20.768c-0.057 0.038-0.163 0-0.232-0.094s-0.069-0.201 0-0.245c0.069-0.057 0.176-0.012 0.232 0.082 0.069 0.094 0.069 0.207 0 0.258zM8.045 20.159c-0.057 0.057-0.151 0.025-0.22-0.038-0.069-0.082-0.082-0.176-0.025-0.22 0.057-0.057 0.151-0.025 0.22 0.038 0.069 0.082 0.082 0.176 0.025 0.22zM7.625 19.694c-0.025 0.057-0.107 0.069-0.176 0.025-0.082-0.038-0.119-0.107-0.094-0.163 0.025-0.038 0.094-0.057 0.176-0.025 0.082 0.044 0.119 0.113 0.094 0.163z"></path>
</svg>
