<!-- Generated by IcoMoon.io -->
<svg version="1.1" xmlns="http://www.w3.org/2000/svg" width="30" height="32" viewBox="0 0 30 32">
<title>github-alt</title>
<path d="M11.688 20.177c0 1.313-0.685 3.461-2.305 3.461s-2.305-2.148-2.305-3.461 0.685-3.461 2.305-3.461 2.305 2.148 2.305 3.461zM30.147 17.006c0 2.003-0.201 4.126-1.099 5.967-2.38 4.811-8.925 4.698-13.61 4.698-4.761 0-11.694 0.17-14.169-4.698-0.917-1.821-1.269-3.963-1.269-5.967 0-2.632 0.873-5.119 2.606-7.135-0.327-0.992-0.484-2.035-0.484-3.065 0-1.35 0.308-2.029 0.917-3.253 2.845 0 4.667 0.565 6.833 2.261 1.821-0.433 3.693-0.628 5.571-0.628 1.696 0 3.404 0.182 5.050 0.578 2.135-1.677 3.957-2.211 6.771-2.211 0.615 1.225 0.917 1.903 0.917 3.253 0 1.030-0.163 2.054-0.484 3.027 1.727 2.035 2.449 4.541 2.449 7.172zM26.108 20.177c0-2.757-1.677-5.188-4.616-5.188-1.187 0-2.324 0.214-3.517 0.377-0.936 0.145-1.872 0.201-2.833 0.201-0.955 0-1.89-0.057-2.833-0.201-1.175-0.163-2.324-0.377-3.517-0.377-2.939 0-4.616 2.431-4.616 5.188 0 5.514 5.050 6.362 9.446 6.362h3.027c4.415 0 9.459-0.842 9.459-6.362zM20.921 16.717c-1.62 0-2.305 2.148-2.305 3.461s0.685 3.461 2.305 3.461 2.305-2.148 2.305-3.461-0.685-3.461-2.305-3.461z"></path>
</svg>
