<!-- Generated by IcoMoon.io -->
<svg version="1.1" xmlns="http://www.w3.org/2000/svg" width="31" height="32" viewBox="0 0 31 32">
<title>github</title>
<path d="M10.42 24.492c0 0.126-0.145 0.226-0.327 0.226-0.207 0.019-0.352-0.082-0.352-0.226 0-0.126 0.145-0.226 0.327-0.226 0.188-0.019 0.352 0.082 0.352 0.226zM8.466 24.209c-0.044 0.126 0.082 0.27 0.27 0.308 0.163 0.063 0.352 0 0.389-0.126s-0.082-0.27-0.27-0.327c-0.163-0.044-0.345 0.019-0.389 0.145zM11.242 24.103c-0.182 0.044-0.308 0.163-0.289 0.308 0.019 0.126 0.182 0.207 0.371 0.163 0.182-0.044 0.308-0.163 0.289-0.289-0.019-0.119-0.188-0.201-0.371-0.182zM15.375 0.035c-8.711 0-15.375 6.613-15.375 15.325 0 6.965 4.384 12.925 10.646 15.023 0.804 0.145 1.087-0.352 1.087-0.76 0-0.389-0.019-2.537-0.019-3.856 0 0-4.396 0.942-5.32-1.872 0 0-0.716-1.828-1.746-2.299 0 0-1.438-0.986 0.1-0.967 0 0 1.564 0.126 2.424 1.62 1.375 2.424 3.68 1.727 4.579 1.313 0.145-1.005 0.553-1.702 1.005-2.117-3.511-0.389-7.053-0.898-7.053-6.94 0-1.727 0.477-2.594 1.482-3.699-0.163-0.408-0.697-2.091 0.163-4.265 1.313-0.408 4.334 1.696 4.334 1.696 1.256-0.352 2.606-0.534 3.944-0.534s2.688 0.182 3.944 0.534c0 0 3.021-2.11 4.334-1.696 0.86 2.179 0.327 3.856 0.163 4.265 1.005 1.112 1.62 1.978 1.62 3.699 0 6.061-3.699 6.544-7.21 6.94 0.578 0.496 1.068 1.438 1.068 2.914 0 2.117-0.019 4.736-0.019 5.251 0 0.408 0.289 0.904 1.087 0.76 6.281-2.085 10.539-8.045 10.539-15.011 0-8.711-7.066-15.325-15.777-15.325zM6.105 21.697c-0.082 0.063-0.063 0.207 0.044 0.327 0.1 0.1 0.245 0.145 0.327 0.063 0.082-0.063 0.063-0.207-0.044-0.327-0.1-0.1-0.245-0.145-0.327-0.063zM5.426 21.189c-0.044 0.082 0.019 0.182 0.144 0.245 0.1 0.063 0.226 0.044 0.27-0.044 0.044-0.082-0.019-0.182-0.144-0.245-0.126-0.038-0.226-0.019-0.27 0.044zM7.461 23.424c-0.1 0.082-0.063 0.27 0.082 0.389 0.144 0.145 0.327 0.163 0.408 0.063 0.082-0.082 0.044-0.27-0.082-0.389-0.138-0.145-0.327-0.163-0.408-0.063zM6.745 22.501c-0.1 0.063-0.1 0.226 0 0.371s0.27 0.207 0.352 0.145c0.1-0.082 0.1-0.245 0-0.389-0.088-0.145-0.251-0.207-0.352-0.126z"></path>
</svg>
