<!-- Generated by IcoMoon.io -->
<svg version="1.1" xmlns="http://www.w3.org/2000/svg" width="37" height="32" viewBox="0 0 37 32">
<title>gitkraken</title>
<path d="M35.529 6.95c-0.145-0.383-0.584-0.578-0.961-0.415-0.358 0.151-0.534 0.559-0.396 0.917 0.685 1.821 1.061 3.8 1.061 5.86 0 8.454-6.299 15.431-14.458 16.499v-7.769c0.496-0.094 0.973-0.226 1.445-0.389v6.532c6.701-1.627 11.676-7.669 11.676-14.872 0-5.766-3.191-10.79-7.901-13.397-0.358-0.201-0.816-0.057-0.999 0.314-0.17 0.345-0.038 0.766 0.295 0.948 4.265 2.362 7.154 6.909 7.154 12.134 0 5.86-3.636 10.872-8.78 12.9v-5.791c0.892-0.283 1.564-1.112 1.564-2.104 0-0.823-0.427-1.532-1.087-1.916 0.521-4.993 2.795-3.68 2.795-5.269v-0.923c0-2.387-5.521-10.162-8.102-10.344-0.157-0.013-0.314-0.013-0.477 0-2.588 0.188-8.108 7.958-8.108 10.344v0.93c0 1.589 2.28 0.27 2.795 5.269-0.666 0.383-1.087 1.093-1.087 1.916 0 0.992 0.666 1.821 1.558 2.104v5.791c-5.144-2.022-8.78-7.034-8.78-12.9 0-5.219 2.889-9.766 7.154-12.134 0.339-0.188 0.465-0.603 0.295-0.948-0.182-0.371-0.634-0.515-0.999-0.314-4.71 2.606-7.901 7.631-7.901 13.397 0 7.204 4.974 13.24 11.676 14.872v-6.532c0.477 0.157 0.948 0.289 1.445 0.389v7.769c-8.152-1.068-14.458-8.045-14.458-16.499 0-2.060 0.377-4.038 1.061-5.86 0.138-0.364-0.038-0.766-0.396-0.917-0.377-0.163-0.816 0.025-0.961 0.415-0.741 1.978-1.149 4.12-1.149 6.362 0 9.741 7.7 17.686 17.353 18.076v-9.163c0.427 0.025 0.942 0.031 1.47 0v9.157c9.653-0.383 17.353-8.328 17.353-18.069 0-2.242-0.408-4.384-1.149-6.369zM22.981 16.836c0.816 0 1.488 0.66 1.488 1.488 0 0.823-0.666 1.488-1.488 1.488-0.816 0-1.488-0.66-1.488-1.488 0-0.823 0.666-1.488 1.488-1.488zM14.2 19.807c-0.829 0-1.488-0.672-1.488-1.488s0.66-1.488 1.488-1.488c0.823 0 1.488 0.666 1.488 1.488 0 0.816-0.66 1.488-1.488 1.488z"></path>
</svg>
