<!-- Generated by IcoMoon.io -->
<svg version="1.1" xmlns="http://www.w3.org/2000/svg" width="32" height="32" viewBox="0 0 32 32">
<title>gitlab</title>
<path d="M1.87 12.077l14.208 18.464-15.571-11.557c-0.431-0.323-0.61-0.879-0.449-1.381l1.812-5.525zM6.606 1.099c-0.197-0.556-0.987-0.556-1.184 0l-3.552 10.979h8.288l-3.552-10.979zM10.158 12.077l5.92 18.464 5.92-18.464h-11.84zM32.098 17.603l-1.812-5.525-14.208 18.464 15.571-11.557c0.43-0.323 0.61-0.879 0.449-1.381zM26.734 1.099c-0.197-0.556-0.987-0.556-1.184 0l-3.552 10.979h8.288l-3.552-10.979z"></path>
</svg>
