<!-- Generated by IcoMoon.io -->
<svg version="1.1" xmlns="http://www.w3.org/2000/svg" width="36" height="32" viewBox="0 0 36 32">
<title>glasses</title>
<path d="M36.057 17.142l-2.848-11.412c-0.371-1.488-1.356-2.767-2.701-3.505-1.347-0.737-2.95-0.886-4.408-0.397l-0.958 0.319c-0.527 0.175-0.811 0.745-0.636 1.271l0.318 0.953c0.175 0.526 0.744 0.811 1.271 0.636l0.828-0.276c0.683-0.227 1.445-0.224 2.083 0.109 0.646 0.337 1.103 0.914 1.279 1.622l2.415 9.661c-1.394-0.428-3.127-0.783-5.1-0.783-2.184 0-4.646 0.441-7.213 1.679h-4.596c-2.567-1.24-5.030-1.68-7.214-1.68-1.973 0-3.707 0.355-5.1 0.783l2.415-9.661c0.175-0.707 0.634-1.284 1.28-1.621 0.638-0.333 1.399-0.336 2.082-0.109l0.827 0.276c0.526 0.175 1.095-0.109 1.271-0.636l0.318-0.953c0.176-0.526-0.109-1.096-0.636-1.271l-0.958-0.319c-1.458-0.489-3.062-0.34-4.408 0.398-1.345 0.739-2.33 2.017-2.701 3.505l-2.848 11.414c-0.076 0.292-0.119 0.627-0.119 0.973v4.412c0 3.95 3.24 7.153 7.235 7.153h2.331c3.786 0 6.932-2.885 7.215-6.618l0.184-2.426h2.245l0.184 2.426c0.283 3.733 3.429 6.618 7.215 6.618h2.331c3.996 0 7.235-3.203 7.235-7.152v-4.412c0-0.328-0.040-0.655-0.119-0.973zM12.774 22.758c-0.124 1.627-1.533 2.902-3.207 2.902h-2.331c-1.773 0-3.216-1.406-3.216-3.133v-2.358c1.138-0.408 2.727-0.811 4.558-0.811 1.499 0 2.968 0.272 4.392 0.811l-0.197 2.589zM32.157 22.528c0 1.728-1.443 3.133-3.216 3.133h-2.331c-1.675 0-3.084-1.275-3.207-2.902l-0.197-2.589c1.424-0.54 2.894-0.811 4.393-0.811 1.829 0 3.419 0.405 4.557 0.812v2.358z"></path>
</svg>
