<!-- Generated by IcoMoon.io -->
<svg version="1.1" xmlns="http://www.w3.org/2000/svg" width="40" height="32" viewBox="0 0 40 32">
<title>glass-cheers</title>
<path d="M40.158 26.766c-0.528-1.281-1.997-1.89-3.278-1.357l-1.388 0.578-2.431-6.4c3.008-2.198 4.070-6.299 2.167-9.597l-5.439-9.452c-0.503-0.873-1.576-1.237-2.512-0.854l-7.179 2.977-7.179-2.977c-0.936-0.389-2.010-0.019-2.512 0.854l-5.439 9.452c-1.897 3.297-0.842 7.399 2.167 9.59l-2.431 6.4-1.388-0.578c-1.281-0.534-2.745 0.075-3.278 1.357-0.107 0.258 0.012 0.553 0.27 0.66l10.193 4.233c0.258 0.107 0.546-0.012 0.653-0.27 0.527-1.281-0.075-2.751-1.357-3.285l-1.388-0.578 2.475-6.507c0.276 0.031 0.553 0.082 0.823 0.082 3.247 0 6.243-2.079 7.122-5.357l1.269-4.736 1.269 4.736c0.879 3.278 3.875 5.357 7.122 5.357 0.27 0 0.546-0.050 0.823-0.082l2.468 6.507-1.388 0.578c-1.281 0.534-1.89 2.003-1.357 3.285 0.107 0.258 0.402 0.377 0.653 0.27l10.2-4.233c0.251-0.107 0.377-0.396 0.27-0.653zM17.328 9.714l-7.041-2.92 2.292-3.982 5.935 2.462-1.187 4.44zM22.868 9.714l-1.187-4.44 5.935-2.462 2.292 3.982-7.041 2.92z"></path>
</svg>
