<!-- Generated by IcoMoon.io -->
<svg version="1.1" xmlns="http://www.w3.org/2000/svg" width="28" height="32" viewBox="0 0 28 32">
<title>glide</title>
<path d="M15.877 8.866c0 0.553-0.1 1.112-0.214 1.658-0.364 1.746-0.729 3.505-1.087 5.251-0.088 0.396-0.521 0.308-0.86 0.308-1.495 0-1.916-1.633-1.916-2.858 0-1.84 0.703-4.277 2.418-5.219 0.27-0.157 0.578-0.264 0.886-0.264 0.716 0 0.772 0.521 0.772 1.124zM28.137 4.557v22.108c0 1.664-1.35 3.015-3.015 3.015h-22.108c-1.664 0-3.015-1.35-3.015-3.015v-22.108c0-1.664 1.35-3.015 3.015-3.015h22.108c1.664 0 3.015 1.35 3.015 3.015zM24.118 16.302c0-0.32-1.306-2.368-1.602-2.481-0.138-0.057-0.452-0.145-0.603-0.145-1.451 0-2.431 0.66-3.655 1.35l-0.031-0.031c0.27-1.847 0.917-3.592 0.917-5.489 0-2.801-1.495-3.938-4.239-3.938-4.503 0-6.783 4.447-6.783 7.757 0 3.435 2.010 5.339 5.42 5.339 0.471 0 0.433-0.038 0.433 0.145-0.66 5.043-3.549 5.207-3.549 3.699 0-1.532 1.759-2.292 1.777-2.387-0.012-0.477-1.84-1.080-2.305-1.080-1.325 0-2.054 2.073-2.054 3.178 0 2.029 1.281 3.435 3.348 3.435 3.027 0 5.238-3.121 5.923-5.759 0.59-2.368 0.44-2.475 0.773-2.644 1.256-0.634 2.248-1.055 3.668-1.055 0.697 0 1.193 0.145 2.305 0.327 0.113 0.006 0.258-0.107 0.258-0.22z"></path>
</svg>
