<!-- Generated by IcoMoon.io -->
<svg version="1.1" xmlns="http://www.w3.org/2000/svg" width="28" height="32" viewBox="0 0 28 32">
<title>glide-g</title>
<path d="M25.568 12.798c-0.22-0.088-0.729-0.239-0.967-0.239-2.33 0-3.907 1.055-5.872 2.167l-0.057-0.057c0.44-2.971 1.476-5.772 1.476-8.818 0-4.491-2.399-6.318-6.808-6.318-7.229 0-10.891 7.141-10.891 12.461 0 5.521 3.222 8.579 8.705 8.579 0.754 0 0.691-0.063 0.691 0.239-1.061 8.096-5.703 8.359-5.703 5.941 0-2.462 2.826-3.68 2.858-3.831-0.019-0.766-2.952-1.733-3.699-1.733-2.129 0.006-3.291 3.216-3.291 4.98 0 3.26 2.060 5.521 5.37 5.521 4.861 0 8.416-4.886 9.509-9.132 0.948-3.8 0.703-3.976 1.237-4.246 2.022-1.018 3.611-1.696 5.891-1.696 1.118 0 1.916 0.232 3.699 0.527 0.182 0 0.421-0.182 0.421-0.364 0-0.503-2.098-3.8-2.569-3.982zM14.558 7.497c-0.584 2.807-1.168 5.627-1.746 8.435-0.145 0.641-0.835 0.49-1.382 0.49-2.405 0-3.078-2.625-3.078-4.591 0-2.952 1.13-6.865 3.881-8.378 0.44-0.257 0.93-0.421 1.419-0.421 1.168 0 1.256 0.835 1.256 1.803-0.006 0.898-0.17 1.79-0.352 2.663z"></path>
</svg>
