<!-- Generated by IcoMoon.io -->
<svg version="1.1" xmlns="http://www.w3.org/2000/svg" width="31" height="32" viewBox="0 0 31 32">
<title>globe</title>
<path d="M21.134 9.582c-0.911-5.609-3.059-9.546-5.558-9.546s-4.648 3.938-5.558 9.546h11.117zM9.546 15.611c0 1.394 0.075 2.732 0.207 4.020h11.638c0.132-1.288 0.207-2.625 0.207-4.020s-0.075-2.732-0.207-4.020h-11.638c-0.132 1.287-0.207 2.625-0.207 4.020zM29.94 9.582c-1.796-4.265-5.433-7.562-9.923-8.893 1.532 2.123 2.588 5.32 3.14 8.893h6.783zM11.129 0.689c-4.484 1.332-8.127 4.629-9.917 8.893h6.783c0.546-3.574 1.602-6.771 3.134-8.893zM30.612 11.592h-7.204c0.132 1.319 0.207 2.669 0.207 4.020s-0.075 2.701-0.207 4.020h7.198c0.345-1.288 0.54-2.625 0.54-4.020s-0.195-2.732-0.534-4.020zM7.537 15.611c0-1.35 0.075-2.701 0.207-4.020h-7.204c-0.339 1.287-0.54 2.625-0.54 4.020s0.201 2.732 0.54 4.020h7.198c-0.126-1.319-0.201-2.669-0.201-4.020zM10.018 21.641c0.911 5.609 3.059 9.546 5.558 9.546s4.648-3.938 5.558-9.547h-11.117zM20.023 30.534c4.484-1.331 8.127-4.629 9.923-8.893h-6.783c-0.553 3.574-1.608 6.771-3.14 8.893zM1.212 21.641c1.796 4.265 5.433 7.562 9.923 8.893-1.533-2.123-2.588-5.32-3.14-8.893h-6.783z"></path>
</svg>
