<!-- Generated by IcoMoon.io -->
<svg version="1.1" xmlns="http://www.w3.org/2000/svg" width="31" height="32" viewBox="0 0 31 32">
<title>globe-europe</title>
<path d="M15.576 0.035c-8.604 0-15.576 6.971-15.576 15.576s6.971 15.576 15.576 15.576 15.576-6.971 15.576-15.576-6.971-15.576-15.576-15.576zM28.137 15.611c0 1.413-0.245 2.776-0.678 4.045h-1.275c-0.27 0-0.527-0.107-0.716-0.301l-2.010-2.047c-0.283-0.289-0.283-0.76 0.006-1.049l0.785-0.785v-0.546c0-0.188-0.075-0.371-0.207-0.502l-0.59-0.59c-0.132-0.132-0.314-0.207-0.503-0.207h-1.005c-0.389 0-0.71-0.32-0.71-0.71 0-0.188 0.075-0.371 0.207-0.502l0.59-0.59c0.132-0.132 0.314-0.207 0.503-0.207h2.010c0.389 0 0.71-0.32 0.71-0.71v-0.59c0-0.389-0.32-0.71-0.71-0.71h-2.305c-0.553 0-1.005 0.452-1.005 1.005v0.283c0 0.433-0.276 0.816-0.685 0.955l-1.985 0.66c-0.207 0.069-0.345 0.258-0.345 0.477v0.138c0 0.276-0.226 0.502-0.503 0.502h-1.005c-0.276 0-0.503-0.226-0.503-0.502s-0.226-0.502-0.502-0.502h-0.195c-0.188 0-0.364 0.107-0.452 0.276l-0.59 1.175c-0.17 0.339-0.515 0.553-0.898 0.553h-1.388c-0.553 0-1.005-0.452-1.005-1.005v-1.589c0-0.264 0.107-0.521 0.295-0.71l1.262-1.262c0.289-0.289 0.452-0.685 0.452-1.099 0-0.214 0.138-0.408 0.345-0.477l2.512-0.835c0.107-0.038 0.201-0.094 0.276-0.17l1.683-1.683c0.132-0.132 0.207-0.314 0.207-0.502 0-0.389-0.32-0.71-0.71-0.71h-1.3l-1.005 1.005v0.502c0 0.276-0.226 0.502-0.502 0.502h-1.005c-0.276 0-0.502-0.226-0.502-0.502v-1.256c0-0.157 0.075-0.308 0.201-0.402l1.815-1.363c0.119-0.006 0.239-0.019 0.358-0.019 6.94 0 12.574 5.634 12.574 12.561zM8.171 8.897c0-0.188 0.075-0.371 0.207-0.502l1.595-1.595c0.132-0.132 0.314-0.207 0.502-0.207 0.389 0 0.71 0.32 0.71 0.71v1.005c0 0.188-0.075 0.371-0.207 0.502l-0.59 0.59c-0.132 0.132-0.314 0.207-0.502 0.207h-1.005c-0.389 0-0.71-0.32-0.71-0.71zM16.21 28.141v-0.446c0-0.553-0.452-1.005-1.005-1.005h-1.269c-0.678 0-1.677-0.333-2.223-0.741l-1.394-1.049c-0.722-0.54-1.143-1.388-1.143-2.286v-1.501c0-1.005 0.527-1.934 1.388-2.449l2.694-1.614c0.446-0.264 0.955-0.408 1.47-0.408h1.96c0.685 0 1.344 0.245 1.859 0.685l2.713 2.33h1.149c0.534 0 1.043 0.214 1.419 0.59l1.087 1.087c0.214 0.214 0.509 0.333 0.81 0.333h0.842c-2.035 3.699-5.891 6.249-10.357 6.475z"></path>
</svg>
