<!-- Generated by IcoMoon.io -->
<svg version="1.1" xmlns="http://www.w3.org/2000/svg" width="31" height="32" viewBox="0 0 31 32">
<title>globe-americas</title>
<path d="M15.576 0.035c-8.603 0-15.576 6.973-15.576 15.576s6.973 15.576 15.576 15.576 15.576-6.973 15.576-15.576-6.973-15.576-15.576-15.576zM20.744 22.495c-0.245 0.244-0.502 0.499-0.71 0.708-0.188 0.188-0.32 0.421-0.387 0.673-0.095 0.355-0.171 0.715-0.3 1.060l-1.092 2.942c-0.864 0.188-1.759 0.295-2.679 0.295v-1.72c0.106-0.793-0.48-2.277-1.421-3.219-0.377-0.377-0.588-0.888-0.588-1.421v-2.010c0-0.731-0.394-1.403-1.034-1.757-0.902-0.499-2.186-1.197-3.066-1.64-0.721-0.363-1.388-0.825-1.988-1.366l-0.050-0.045c-0.424-0.384-0.798-0.811-1.118-1.278l-0.016-0.025c-0.589-0.865-1.549-2.287-2.173-3.212 1.286-2.858 3.603-5.153 6.482-6.399l1.508 0.754c0.668 0.334 1.455-0.151 1.455-0.899v-0.71c0.502-0.081 1.012-0.132 1.532-0.152l1.777 1.777c0.392 0.393 0.392 1.029 0 1.421l-0.295 0.294-0.649 0.649c-0.196 0.196-0.196 0.514 0 0.71l0.295 0.295c0.196 0.196 0.196 0.514 0 0.71l-0.502 0.502c-0.091 0.091-0.217 0.147-0.355 0.147-0 0-0 0-0 0h-0.565c-0.131 0-0.256 0.051-0.35 0.143l-0.623 0.606c-0.094 0.091-0.152 0.219-0.152 0.36 0 0.082 0.020 0.159 0.054 0.227l-0.001-0.003 0.979 1.959c0.167 0.334-0.076 0.727-0.449 0.727h-0.354c-0.121 0-0.238-0.044-0.329-0.123l-0.583-0.506c-0.175-0.153-0.407-0.246-0.659-0.246-0.114 0-0.223 0.019-0.325 0.054l0.007-0.002-1.958 0.652c-0.301 0.102-0.513 0.382-0.513 0.712 0 0 0 0 0 0v0c0 0.285 0.161 0.544 0.415 0.671l0.696 0.348c0.591 0.296 1.243 0.45 1.904 0.45s1.419 1.714 2.010 2.010h4.192c0.533 0 1.044 0.212 1.421 0.588l0.86 0.86c0.347 0.347 0.561 0.826 0.561 1.354 0 0 0 0 0 0v-0c-0 0.809-0.33 1.542-0.862 2.071l-0 0zM26.19 16.758c-0.364-0.091-0.681-0.314-0.889-0.626l-1.129-1.694c-0.159-0.235-0.253-0.524-0.253-0.836s0.095-0.601 0.257-0.841l-0.003 0.005 1.23-1.845c0.146-0.218 0.345-0.395 0.58-0.512l0.815-0.408c0.849 1.691 1.339 3.592 1.339 5.61 0 0.545-0.046 1.078-0.114 1.604l-1.833-0.458z"></path>
</svg>
