<!-- Generated by IcoMoon.io -->
<svg version="1.1" xmlns="http://www.w3.org/2000/svg" width="31" height="32" viewBox="0 0 31 32">
<title>globe-africa</title>
<path d="M15.576 0.035c-8.603 0-15.576 6.973-15.576 15.576s6.973 15.576 15.576 15.576 15.576-6.973 15.576-15.576-6.973-15.576-15.576-15.576zM25.625 13.57v0.435c0 0.369-0.209 0.706-0.538 0.87l-0.967 0.484c-0.127 0.065-0.277 0.103-0.435 0.103-0.201 0-0.388-0.061-0.544-0.166l0.003 0.002-1.144-0.762c-0.152-0.102-0.339-0.163-0.54-0.163-0.11 0-0.216 0.018-0.314 0.052l0.007-0.002-0.166 0.055c-0.609 0.203-0.858 0.929-0.502 1.463l0.832 1.247c0.18 0.271 0.484 0.433 0.81 0.433h0.516c0.538 0 0.973 0.436 0.973 0.973v0.712c0 0.21-0.068 0.416-0.195 0.584l-1.177 1.569c-0.089 0.119-0.15 0.258-0.178 0.404l-0.27 1.434c-0.039 0.207-0.144 0.395-0.299 0.538-0.588 0.54-1.105 1.14-1.547 1.796l-0.023 0.036-0.818 1.228c-0.317 0.471-0.848 0.776-1.45 0.776v0c-0.66 0-1.264-0.373-1.559-0.963-0.33-0.646-0.523-1.408-0.523-2.216 0-0 0-0 0-0v0-1.877c0-0.538-0.436-0.973-0.973-0.973h-1.625c-0.91 0-1.782-0.362-2.426-1.005-0.621-0.621-1.005-1.479-1.005-2.426v-0.883c0-1.080 0.509-2.096 1.372-2.745l1.732-1.299c0.566-0.428 1.282-0.686 2.059-0.686h0.056c0.533 0 1.058 0.124 1.534 0.362l0.925 0.462c0.231 0.116 0.498 0.134 0.743 0.053l2.971-0.99c0.398-0.133 0.666-0.504 0.666-0.923 0-0.538-0.436-0.973-0.973-0.973h-0.634c-0.258 0-0.506-0.102-0.688-0.285l-0.435-0.435c-0.176-0.176-0.419-0.285-0.688-0.285-0 0-0 0-0 0h-5.656c-0.538 0-0.973-0.436-0.973-0.973v-0.276c0-0.447 0.304-0.836 0.737-0.945l0.908-0.227c0.235-0.059 0.44-0.203 0.574-0.405l0.508-0.761c0.18-0.271 0.484-0.433 0.81-0.433h1.52c0.538 0 0.973-0.436 0.973-0.973v-1.363c4.975 0.806 8.972 4.536 10.17 9.371h-1.157c-0.538 0-0.973 0.436-0.973 0.973z"></path>
</svg>
