<!-- Generated by IcoMoon.io -->
<svg version="1.1" xmlns="http://www.w3.org/2000/svg" width="31" height="32" viewBox="0 0 31 32">
<title>globe-asia</title>
<path d="M15.576 0.035c-8.603 0-15.576 6.973-15.576 15.576s6.973 15.576 15.576 15.576 15.576-6.973 15.576-15.576-6.973-15.576-15.576-15.576zM14.864 15.123c-0.182 0.303-0.509 0.488-0.862 0.488h-0.020c-0.266 0-0.522 0.106-0.71 0.295l-0.355 0.355c-0.196 0.196-0.196 0.514 0 0.71l0.355 0.355c0.188 0.188 0.295 0.444 0.295 0.71v0.588c0 0.555-0.45 1.005-1.005 1.005h-0.384c-0.381 0-0.729-0.215-0.899-0.556l-1.421-2.841c-0.153-0.307-0.562-0.373-0.805-0.131l-1.223 1.222c-0.188 0.188-0.444 0.295-0.71 0.295h-3.93c-0.106-0.656-0.176-1.323-0.176-2.009 0-6.926 5.635-12.561 12.561-12.561 1.351 0 2.65 0.22 3.871 0.617l-3.15 2.42c-0.321 0.214-0.291 0.695 0.054 0.867l0.68 0.34c0.34 0.17 0.555 0.518 0.555 0.899v4.906c0 0.278-0.225 0.502-0.503 0.502h-0.192c-0.19 0-0.364-0.107-0.449-0.278-0.098-0.196-0.374-0.207-0.487-0.019l-1.091 1.818zM25.625 22.045c0 0.266-0.106 0.522-0.295 0.71l-0.601 0.601c-0.188 0.188-0.444 0.295-0.71 0.295h-0.952c-0.266 0-0.522-0.106-0.71-0.295l-0.817-0.817c-0.304-0.304-0.725-0.492-1.189-0.492-0.145 0-0.285 0.018-0.419 0.053l0.012-0.003-1.336 0.334c-0.080 0.020-0.161 0.030-0.244 0.030h-0.649c-0.266 0-0.522-0.106-0.71-0.295l-0.748-0.748c-0.091-0.091-0.147-0.217-0.147-0.355 0-0 0-0 0-0v0-0.641c0-0.205 0.125-0.39 0.316-0.467l2.471-0.989c0.124-0.050 0.242-0.114 0.351-0.192l1.489-1.061c0.081-0.058 0.182-0.093 0.291-0.093 0 0 0 0 0.001 0h0.759c0.203 0 0.386 0.122 0.464 0.31l0.336 0.807c0.039 0.091 0.128 0.154 0.232 0.155h0.239c0.112 0 0.21-0.074 0.241-0.181l0.264-0.909c0.031-0.107 0.129-0.181 0.241-0.181h0.381c0.139 0 0.251 0.112 0.251 0.251v0.812c0 0.133 0.053 0.261 0.147 0.355l0.748 0.748c0.188 0.188 0.295 0.444 0.295 0.71v1.545z"></path>
</svg>
