<!-- Generated by IcoMoon.io -->
<svg version="1.1" xmlns="http://www.w3.org/2000/svg" width="32" height="32" viewBox="0 0 32 32">
<title>gmail</title>
<path d="M3.7 4.787c-0.381 0-0.737 0.072-1.079 0.178l3.594 2.288h19.635l3.594-2.288c-0.342-0.106-0.698-0.178-1.079-0.178zM1.373 5.634c-0.833 0.679-1.373 1.7-1.373 2.852v16.031c0 2.038 1.662 3.7 3.7 3.7h24.664c2.038 0 3.7-1.662 3.7-3.7v-16.031c0-1.151-0.54-2.173-1.373-2.852l-14.658 9.326zM3.7 11.463l12.332 7.852 12.332-7.852v14.288h-24.664z"></path>
</svg>
