<!-- Generated by IcoMoon.io -->
<svg version="1.1" xmlns="http://www.w3.org/2000/svg" width="25" height="32" viewBox="0 0 25 32">
<title>gofore</title>
<path d="M20.349 19.618h-0.829v2.179c-1.539 1.451-3.536 2.248-5.646 2.248-4.597 0-8.316-3.781-8.316-8.441 0-4.654 3.718-8.441 8.316-8.441 2.217 0 4.309 0.879 5.879 2.475l3.913-3.976c-2.625-2.657-6.098-4.12-9.804-4.12-7.706 0-13.861 6.318-13.861 14.069 0 7.694 6.092 14.069 13.861 14.069 3.969 0 7.819-1.645 10.74-5.181-0.126-1.733-0.842-4.88-4.252-4.88zM19.589 12.553h-6.676v5.59h7.436c2.104 0 3.8 0.948 4.773 2.625v-1.922c0-4.095-2.537-6.293-5.533-6.293z"></path>
</svg>
