<!-- Generated by IcoMoon.io -->
<svg version="1.1" xmlns="http://www.w3.org/2000/svg" width="26" height="32" viewBox="0 0 26 32">
<title>golf-ball</title>
<path d="M6.029 25.66h14.069c0 1.112-0.898 2.010-2.010 2.010h-1.005c-1.112 0-2.010 0.898-2.010 2.010v1.256c0 0.415-0.339 0.754-0.754 0.754h-2.512c-0.415 0-0.754-0.339-0.754-0.754v-1.256c0-1.112-0.898-2.010-2.010-2.010h-1.005c-1.112 0-2.010-0.898-2.010-2.010zM26.127 12.597c0 4.66-2.449 8.743-6.124 11.054h-13.88c-3.674-2.311-6.124-6.394-6.124-11.054 0-7.216 5.847-13.064 13.064-13.064s13.064 5.847 13.064 13.064zM14.816 15.354c1.149 0 2.079-0.93 2.079-2.079 0-0.904-0.584-1.652-1.388-1.941 0.603 1.683-0.98 3.222-2.632 2.632 0.289 0.804 1.036 1.388 1.941 1.388zM17.9 18.299c0-0.904-0.584-1.652-1.388-1.941 0.603 1.683-0.98 3.222-2.632 2.632 0.289 0.804 1.036 1.388 1.941 1.388 1.149 0 2.079-0.936 2.079-2.079zM21.919 14.28c0-0.904-0.584-1.652-1.388-1.941 0.603 1.683-0.98 3.222-2.632 2.632 0.289 0.804 1.036 1.388 1.941 1.388 1.149 0 2.079-0.936 2.079-2.079z"></path>
</svg>
