<!-- Generated by IcoMoon.io -->
<svg version="1.1" xmlns="http://www.w3.org/2000/svg" width="28" height="32" viewBox="0 0 28 32">
<title>goodreads</title>
<path d="M18.836 11.542c0.32 2.343-0.295 4.962-2.255 6.325-1.401 0.973-3.316 0.886-4.447 0.358-2.33-1.087-3.109-3.68-2.939-6.105 0.27-3.825 2.569-5.521 4.729-5.496 2.946-0.013 4.509 1.997 4.911 4.918zM28.137 5.060v21.103c0 1.941-1.576 3.517-3.517 3.517h-21.103c-1.941 0-3.517-1.576-3.517-3.517v-21.103c0-1.941 1.576-3.517 3.517-3.517h21.103c1.941 0 3.517 1.576 3.517 3.517zM20.726 19.204s-0.006-2.135-0.006-13.648h-1.821v2.531c-0.050 0.019-0.075-0.031-0.1-0.075-0.603-1.3-2.255-2.908-4.773-2.889-3.26 0.025-5.477 1.96-6.318 4.886-0.27 0.936-0.364 1.89-0.345 2.864 0.107 4.893 2.833 7.399 7.059 7.235 1.815-0.069 3.423-1.068 4.334-2.839 0.031-0.063 0.069-0.119 0.107-0.182 0.012 0.006 0.025 0.006 0.038 0.012 0.019 0.239 0.012 1.928 0.006 2.167-0.012 0.93-0.126 1.853-0.452 2.732-0.49 1.319-1.401 2.179-2.795 2.481-1.118 0.245-2.236 0.239-3.341-0.075-1.35-0.383-2.292-1.193-2.581-2.625-0.019-0.1-0.082-0.082-0.145-0.082h-1.683c0.050 0.666 0.201 1.275 0.534 1.834 1.52 2.544 5.194 3.046 8.052 2.349 3.134-0.773 4.227-3.448 4.233-6.676z"></path>
</svg>
