<!-- Generated by IcoMoon.io -->
<svg version="1.1" xmlns="http://www.w3.org/2000/svg" width="24" height="32" viewBox="0 0 24 32">
<title>goodreads-g</title>
<path d="M2.676 24.863h0.176c0.798 0 1.602 0 2.399 0.006 0.1 0 0.195-0.025 0.226 0.132 0.446 2.192 1.884 3.429 3.95 4.013 1.69 0.477 3.398 0.49 5.106 0.113 2.123-0.465 3.517-1.777 4.271-3.793 0.503-1.35 0.672-2.751 0.691-4.177 0.006-0.364 0.019-2.952-0.012-3.316l-0.057-0.019c-0.050 0.094-0.107 0.182-0.157 0.276-1.388 2.707-3.85 4.233-6.62 4.34-6.469 0.251-10.639-3.58-10.803-11.066-0.031-1.488 0.113-2.946 0.521-4.378 1.294-4.465 4.685-7.424 9.666-7.461 3.85-0.025 6.375 2.431 7.298 4.415 0.031 0.069 0.082 0.144 0.151 0.119v-3.869h2.782c0 17.605 0.006 20.864 0.006 20.864-0.006 4.93-1.677 9.025-6.469 10.187-4.365 1.061-9.986 0.301-12.31-3.593-0.502-0.848-0.741-1.777-0.816-2.795zM11.864 1.825c-3.297-0.031-6.814 2.556-7.223 8.403-0.258 3.706 0.93 7.675 4.491 9.333 1.733 0.81 4.666 0.942 6.802-0.546 2.99-2.085 3.938-6.092 3.442-9.672-0.609-4.465-3.002-7.537-7.512-7.518z"></path>
</svg>
