<!-- Generated by IcoMoon.io -->
<svg version="1.1" xmlns="http://www.w3.org/2000/svg" width="40" height="32" viewBox="0 0 40 32">
<title>google-plus-g</title>
<path d="M24.247 13.884c0.115 0.609 0.197 1.217 0.197 2.007 0 6.893-4.623 11.779-11.582 11.779-6.663 0-12.059-5.396-12.059-12.059s5.396-12.059 12.059-12.059c3.257 0 5.972 1.184 8.078 3.159l-3.274 3.142c-0.888-0.856-2.451-1.859-4.804-1.859-4.113 0-7.469 3.405-7.469 7.617s3.356 7.617 7.469 7.617c4.771 0 6.564-3.438 6.844-5.199h-6.844v-4.146h11.384zM35.892 14.288v-3.5h-3.517v3.5h-3.5v3.517h3.5v3.5h3.517v-3.5h3.5v-3.517h-3.5z"></path>
</svg>
