<!-- Generated by IcoMoon.io -->
<svg version="1.1" xmlns="http://www.w3.org/2000/svg" width="28" height="32" viewBox="0 0 28 32">
<title>google-wallet</title>
<path d="M9.848 7.497c2.362 3.806 4.032 7.103 5.295 10.206-0.521 2.123-1.181 4.177-1.966 6.174-0.829-3.285-1.664-6.362-3.517-9.327 0.408-2.286 0.145-4.623 0.188-7.053zM6.865 12.094h-5.854c-0.408 0-0.66 0.471-0.408 0.798 2.65 3.41 4.503 7.399 5.759 11.764h6.5c-1.018-4.378-2.431-8.397-5.181-12.153-0.188-0.251-0.502-0.408-0.816-0.408zM9.867 6.567c4.302 6.783 8.165 14.728 8.68 23.113h7.141c-0.754-8.667-4.296-16.644-8.994-23.113h-6.827zM25.681 2.265c-0.113-0.427-0.515-0.722-0.955-0.722h-5.546c-0.333 0-0.565 0.314-0.49 0.647 0.829 2.92 1.401 5.998 1.664 9.17 3.027 5.414 5.006 11.198 5.69 17.008 0.992-3.8 1.589-8.385 1.589-12.75 0-4.623-0.76-9.113-1.953-13.353z"></path>
</svg>
