<!-- Generated by IcoMoon.io -->
<svg version="1.1" xmlns="http://www.w3.org/2000/svg" width="31" height="32" viewBox="0 0 31 32">
<title>google-plus</title>
<path d="M15.576 0.035c-8.598 0-15.576 6.978-15.576 15.576s6.978 15.576 15.576 15.576 15.576-6.978 15.576-15.576-6.978-15.576-15.576-15.576zM11.136 23.399c-4.321 0-7.788-3.486-7.788-7.788s3.467-7.788 7.788-7.788c1.966 0 3.775 0.691 5.213 2.029l-2.11 2.047c-0.829-0.81-1.966-1.2-3.103-1.2-2.694 0-4.849 2.23-4.849 4.905s2.148 4.905 4.849 4.905c2.047 0 4.076-1.2 4.403-3.348h-4.403v-2.676h7.342c0.082 0.427 0.119 0.854 0.119 1.3 0 4.447-2.983 7.612-7.461 7.612zM25.593 16.729v2.23h-2.23v-2.23h-2.23v-2.23h2.23v-2.23h2.23v2.23h2.211v2.23h-2.211z"></path>
</svg>
