<!-- Generated by IcoMoon.io -->
<svg version="1.1" xmlns="http://www.w3.org/2000/svg" width="28" height="32" viewBox="0 0 28 32">
<title>google-plus-square</title>
<path d="M25.122 1.543h-22.108c-1.664 0-3.015 1.35-3.015 3.015v22.108c0 1.664 1.35 3.015 3.015 3.015h22.108c1.664 0 3.015-1.35 3.015-3.015v-22.108c0-1.664-1.35-3.015-3.015-3.015zM10.3 21.892c-3.473 0-6.281-2.807-6.281-6.281s2.807-6.281 6.281-6.281c1.696 0 3.109 0.615 4.208 1.645l-1.702 1.639c-0.465-0.446-1.275-0.967-2.5-0.967-2.142 0-3.888 1.771-3.888 3.969 0 2.192 1.746 3.969 3.888 3.969 2.487 0 3.417-1.79 3.567-2.707h-3.574v-2.16h5.929c0.063 0.314 0.1 0.634 0.1 1.043 0 3.586-2.405 6.13-6.029 6.13zM24.118 16.754h-1.821v1.821h-1.834v-1.821h-1.821v-1.834h1.821v-1.821h1.834v1.821h1.821v1.834z"></path>
</svg>
