<!-- Generated by IcoMoon.io -->
<svg version="1.1" xmlns="http://www.w3.org/2000/svg" width="32" height="32" viewBox="0 0 32 32">
<title>gopuram</title>
<path d="M31.152 21.641h-1.005v-7.034c0-0.555-0.45-1.005-1.005-1.005h-1.005v-5.024c0-0.555-0.45-1.005-1.005-1.005h-1.005v-7.034c0-0.555-0.45-1.005-1.005-1.005s-1.005 0.45-1.005 1.005v1.005h-4.020v-1.005c0-0.555-0.45-1.005-1.005-1.005s-1.005 0.45-1.005 1.005v1.005h-4.020v-1.005c0-0.555-0.45-1.005-1.005-1.005s-1.005 0.45-1.005 1.005v1.005h-4.020v-1.005c0-0.555-0.45-1.005-1.005-1.005s-1.005 0.45-1.005 1.005v7.034h-1.005c-0.555 0-1.005 0.45-1.005 1.005v5.024h-1.005c-0.555 0-1.005 0.45-1.005 1.005v7.034h-1.005c-0.555 0-1.005 0.45-1.005 1.005v8.039c0 0.555 0.45 1.005 1.005 1.005h5.024v-10.049h2.010v-8.039h2.010v-6.029h2.010v6.029h-2.010v8.039h-2.010v10.049h5.024v-5.024c0-0.555 0.45-1.005 1.005-1.005h4.020c0.555 0 1.005 0.45 1.005 1.005v5.024h5.024v-10.049h-2.010v-8.039h-2.010v-6.029h2.010v6.029h2.010v8.039h2.010v10.049h5.024c0.555 0 1.005-0.45 1.005-1.005v-8.039c0-0.555-0.45-1.005-1.005-1.005zM14.069 21.641v-4.020c0-0.555 0.45-1.005 1.005-1.005h2.010c0.555 0 1.005 0.45 1.005 1.005v4.020h-4.020zM14.571 13.602v-3.015c0-0.555 0.45-1.005 1.005-1.005h1.005c0.555 0 1.005 0.45 1.005 1.005v3.015h-3.015z"></path>
</svg>
