<!-- Generated by IcoMoon.io -->
<svg version="1.1" xmlns="http://www.w3.org/2000/svg" width="32" height="32" viewBox="0 0 32 32">
<title>gp-file-format-variant</title>
<path d="M22.876 23.729c-0.331 0-0.555 0.032-0.673 0.064v2.125c0.139 0.032 0.31 0.042 0.545 0.042 0.865 0 1.399-0.438 1.399-1.175-0-0.662-0.459-1.057-1.271-1.057zM27.737 7.239c-0.002-0.148-0.049-0.293-0.15-0.408l-6.2-7.082c-0.001-0.002-0.003-0.002-0.005-0.004-0.037-0.041-0.079-0.075-0.125-0.105-0.013-0.009-0.027-0.017-0.041-0.025-0.040-0.021-0.081-0.039-0.124-0.052-0.012-0.003-0.022-0.008-0.034-0.011-0.047-0.011-0.095-0.018-0.145-0.018h-15.238c-0.695 0-1.261 0.566-1.261 1.261v29.635c0 0.696 0.566 1.261 1.261 1.261h20.807c0.696 0 1.261-0.566 1.261-1.261v-23.119c-0-0.024-0.004-0.047-0.006-0.070zM9.145 29.869c-0.897 0-1.655-0.235-2.061-0.491l0.331-1.217c0.288 0.15 0.951 0.427 1.612 0.427 0.844 0 1.271-0.406 1.271-0.928 0-0.683-0.683-0.993-1.399-0.993h-0.662v-1.164h0.63c0.545-0.011 1.239-0.214 1.239-0.801 0-0.417-0.342-0.727-1.025-0.727-0.566 0-1.164 0.246-1.452 0.417l-0.331-1.175c0.417-0.267 1.249-0.523 2.147-0.523 1.484 0 2.306 0.78 2.306 1.73 0 0.737-0.416 1.313-1.271 1.613v0.021c0.833 0.15 1.506 0.78 1.506 1.687 0 1.228-1.079 2.125-2.841 2.125zM19.321 29.421c-0.502 0.171-1.452 0.406-2.402 0.406-1.314 0-2.264-0.331-2.926-0.972-0.662-0.619-1.025-1.559-1.014-2.616 0.011-2.392 1.752-3.758 4.111-3.758 0.929 0 1.644 0.181 1.997 0.352l-0.342 1.302c-0.395-0.171-0.886-0.309-1.676-0.309-1.356 0-2.381 0.769-2.381 2.328 0 1.484 0.929 2.36 2.263 2.36 0.374 0 0.673-0.042 0.801-0.107v-1.506h-1.11v-1.271h2.68v3.791h-0zM25.097 26.452c-0.555 0.523-1.378 0.758-2.339 0.758-0.214 0-0.406-0.011-0.556-0.032v2.573h-1.612v-7.101c0.502-0.086 1.207-0.15 2.2-0.15 1.004 0 1.719 0.192 2.2 0.577 0.459 0.363 0.768 0.961 0.768 1.666s-0.235 1.303-0.662 1.709zM5.675 20.945v-20.151h14.607v6.452c0 0.348 0.282 0.631 0.631 0.631h5.569l0.001 13.068h-20.808zM23.498 17.254c-0.22 0.119-0.41 0.127-0.596 0.028-1.176-0.63-1.799-4.703-1.939-6.22l-0.045 0.004c-0.412-2.801-2.818-4.954-5.733-4.954-3.204 0-5.802 2.598-5.802 5.801s2.598 5.802 5.802 5.802c2.588 0 4.778-1.695 5.526-4.035 0.334 1.678 0.921 3.637 1.893 4.157 0.179 0.096 0.366 0.144 0.558 0.144 0.21 0 0.424-0.058 0.636-0.172l-0.299-0.554zM11.612 13.209c-0.802-0.052-1.411-0.744-1.359-1.546 0.052-0.803 0.744-1.411 1.547-1.359 0.801 0.052 1.41 0.745 1.357 1.547-0.051 0.801-0.743 1.41-1.545 1.358zM14.778 16.825c-0.802-0.052-1.411-0.744-1.359-1.547 0.052-0.801 0.745-1.41 1.546-1.357s1.412 0.743 1.359 1.546c-0.052 0.801-0.744 1.41-1.546 1.358zM14.373 11.953c0-0.435 0.352-0.789 0.788-0.789s0.789 0.354 0.789 0.789c0 0.435-0.354 0.788-0.789 0.788s-0.788-0.353-0.788-0.788zM15.192 9.907c-0.802-0.052-1.411-0.744-1.36-1.547 0.053-0.802 0.744-1.41 1.547-1.358s1.41 0.743 1.359 1.545c-0.052 0.802-0.745 1.41-1.546 1.359zM18.286 13.64c-0.802-0.052-1.411-0.744-1.36-1.546 0.052-0.803 0.743-1.41 1.547-1.358 0.802 0.051 1.41 0.743 1.359 1.546-0.053 0.802-0.745 1.41-1.546 1.358z"></path>
</svg>
