<!-- Generated by IcoMoon.io -->
<svg version="1.1" xmlns="http://www.w3.org/2000/svg" width="32" height="32" viewBox="0 0 32 32">
<title>gpx-file-format-variant</title>
<path d="M16.378 23.749c-0.326 0-0.547 0.032-0.663 0.063v2.093c0.137 0.032 0.305 0.043 0.536 0.043 0.852 0 1.378-0.432 1.378-1.157 0-0.652-0.452-1.042-1.251-1.042zM27.737 7.239c-0.002-0.148-0.048-0.293-0.15-0.408l-6.201-7.082c-0.001-0.002-0.003-0.002-0.005-0.004-0.037-0.041-0.079-0.075-0.125-0.105-0.013-0.009-0.027-0.017-0.041-0.025-0.040-0.022-0.081-0.039-0.124-0.052-0.012-0.004-0.022-0.008-0.034-0.011-0.047-0.011-0.095-0.018-0.145-0.018h-15.238c-0.695 0-1.261 0.566-1.261 1.261v29.635c0 0.696 0.566 1.261 1.261 1.261h20.807c0.696 0 1.261-0.566 1.261-1.261v-23.119c0-0.024-0.004-0.047-0.006-0.071zM12.877 29.355c-0.494 0.168-1.43 0.4-2.366 0.4-1.294 0-2.229-0.325-2.882-0.957-0.652-0.61-1.010-1.535-0.999-2.576 0.011-2.356 1.725-3.703 4.050-3.703 0.915 0 1.62 0.178 1.966 0.347l-0.336 1.283c-0.389-0.169-0.873-0.306-1.651-0.306-1.336 0-2.345 0.757-2.345 2.294 0 1.462 0.915 2.324 2.23 2.324 0.368 0 0.662-0.042 0.789-0.105v-1.483h-1.094v-1.252h2.64v3.734h-0zM18.566 26.431c-0.547 0.516-1.357 0.747-2.304 0.747-0.21 0-0.4-0.010-0.547-0.032v2.535h-1.588v-6.994c0.494-0.084 1.189-0.147 2.167-0.147 0.988 0 1.694 0.19 2.166 0.568 0.453 0.357 0.757 0.946 0.757 1.64s-0.231 1.284-0.652 1.683zM23.677 29.682l-0.642-1.283c-0.263-0.494-0.431-0.862-0.631-1.273h-0.021c-0.148 0.41-0.326 0.779-0.547 1.273l-0.589 1.283h-1.83l2.051-3.587-1.977-3.502h1.841l0.62 1.294c0.21 0.431 0.368 0.779 0.537 1.178h0.021c0.169-0.452 0.305-0.768 0.484-1.178l0.599-1.294h1.83l-1.999 3.461 2.103 3.628-1.851-0zM5.675 20.945v-20.151h14.607v6.452c0 0.348 0.282 0.631 0.631 0.631h5.569l0.001 13.068h-20.808zM22.372 13.868l-0.303-1.145c-0.798 0.192-1.808 0.536-2.92 1.145h3.222zM22.511 14.393h-4.234c-1.284 0.837-2.661 2.034-3.984 3.761h9.212l-0.994-3.761zM15.744 9.546c-0.153-0.414-0.321-0.866-0.486-1.318h-5.255l-0.627 2.374h5.116c0.191-0.458 0.649-0.838 1.252-1.055zM16.907 14.393h-8.533l-0.993 3.761h5.91c0.716-1.053 1.906-2.515 3.617-3.761zM21.923 12.166l-1.040-3.938h-2.247c-0.183 0.437-0.373 0.885-0.558 1.321 0.803 0.288 1.354 0.859 1.354 1.523 0 0.952-1.13 1.726-2.523 1.726-1.206 0-2.213-0.581-2.462-1.354h-5.293l-0.641 2.424h9.176c1.192-0.747 2.596-1.371 4.235-1.702zM16.548 10.101c-0.602 0.105-1.047 0.46-1.047 0.884 0 0.507 0.63 0.917 1.407 0.917s1.407-0.41 1.407-0.917c0-0.427-0.449-0.783-1.055-0.885 0.558-1.299 1.554-3.633 1.754-4.225 0.087-0.233 0.138-0.485 0.138-0.749 0-1.18-0.957-2.138-2.138-2.138s-2.138 0.957-2.138 2.138c0 0.23 0.037 0.452 0.105 0.66 0.11 0.387 1.054 2.937 1.568 4.315zM17.763 10.985c0 0.308-0.383 0.558-0.856 0.558s-0.856-0.25-0.856-0.558c0-0.256 0.265-0.47 0.625-0.535 0.122 0.324 0.2 0.535 0.2 0.535s0.092-0.213 0.234-0.541c0.373 0.061 0.652 0.279 0.652 0.541zM17.012 3.77c0.753 0 1.364 0.611 1.364 1.365 0 0.753-0.611 1.362-1.364 1.362s-1.364-0.61-1.364-1.362c0-0.754 0.61-1.365 1.364-1.365z"></path>
</svg>
