<!-- Generated by IcoMoon.io -->
<svg version="1.1" xmlns="http://www.w3.org/2000/svg" width="32" height="32" viewBox="0 0 32 32">
<title>graduted-hat</title>
<path d="M16 1.883l-16 8.060 1.28 0.744v9.276c-0.741 0.267-1.28 0.972-1.28 1.8 0 0.37 0.118 0.647 0.254 0.955s0.305 0.621 0.472 0.91c0.335 0.578 0.667 1.059 0.667 1.059l0.526 0.764 0.526-0.764c0 0 0.333-0.481 0.667-1.059 0.167-0.289 0.337-0.602 0.473-0.91s0.254-0.585 0.254-0.955c0-0.828-0.539-1.533-1.28-1.8v-8.533l13.44 7.813 16-9.3-16-8.060zM7.168 15.556c-1.562 2.701-2.073 5.791-2.047 10.047 5.53 0 9.6 1.6 10.88 3.84 1.28-2.24 5.35-3.84 10.88-3.84 0.026-4.256-0.486-7.347-2.047-10.047l-8.174 4.749c-0.205 0.122-0.428 0.179-0.659 0.179s-0.454-0.057-0.659-0.179l-8.174-4.749zM1.92 21.123c0.355 0 0.64 0.285 0.64 0.64 0-0.018-0.042 0.202-0.146 0.44s-0.255 0.519-0.407 0.782c-0.043 0.074-0.044 0.067-0.086 0.137-0.042-0.070-0.043-0.063-0.086-0.137-0.153-0.263-0.303-0.544-0.407-0.782s-0.146-0.458-0.146-0.44c0-0.355 0.285-0.64 0.64-0.64z"></path>
</svg>
