<!-- Generated by IcoMoon.io -->
<svg version="1.1" xmlns="http://www.w3.org/2000/svg" width="40" height="32" viewBox="0 0 40 32">
<title>graduation-cap</title>
<path d="M39.087 9.155l-17.519-5.383c-0.955-0.293-1.985-0.293-2.939 0l-17.52 5.383c-1.478 0.454-1.478 2.409 0 2.863l3.054 0.938c-0.67 0.828-1.082 1.839-1.123 2.946-0.605 0.347-1.031 0.972-1.031 1.719 0 0.677 0.357 1.247 0.87 1.611l-1.603 7.215c-0.139 0.628 0.338 1.223 0.98 1.223h3.524c0.643 0 1.12-0.595 0.981-1.223l-1.603-7.215c0.514-0.364 0.87-0.934 0.87-1.611 0-0.727-0.406-1.335-0.984-1.688 0.048-0.943 0.53-1.777 1.299-2.306l12.283 3.774c0.569 0.175 1.661 0.392 2.939 0l17.52-5.383c1.479-0.455 1.479-2.409 0-2.864zM22.157 19.323c-1.792 0.55-3.319 0.246-4.119 0l-9.108-2.798-0.891 7.126c0 2.22 5.399 4.020 12.059 4.020s12.059-1.799 12.059-4.020l-0.891-7.127-9.109 2.799z"></path>
</svg>
