<!-- Generated by IcoMoon.io -->
<svg version="1.1" xmlns="http://www.w3.org/2000/svg" width="32" height="32" viewBox="0 0 32 32">
<title>grav</title>
<path d="M18.911 12.848c0.276 0.276 0.276 0.747 0 1.024l-0.609 0.609c-0.276 0.295-0.747 0.295-1.043 0l-0.66-0.66c-0.276-0.295-0.276-0.747 0-1.043l0.609-0.609c0.276-0.276 0.747-0.276 1.043 0l0.66 0.678zM17.014 11.611c0.188-0.188 0.188-0.49 0-0.66-0.176-0.188-0.471-0.188-0.66 0-0.176 0.176-0.176 0.471 0 0.66 0.195 0.176 0.49 0.176 0.66 0zM15.381 11.943c-0.188 0.176-0.188 0.471 0 0.641 0.176 0.188 0.471 0.188 0.66 0 0.176-0.176 0.176-0.471 0-0.641-0.188-0.188-0.484-0.188-0.66 0zM19.935 11.108c-1.25-0.904-2.123-2.713-0.747-4.277 1.357-1.564 2.556-1.080 3.756 0.050 0.747 0.71 1.84 1.564 1.080 3.027-0.785 1.476-2.833 2.085-4.089 1.2zM22.93 8.313c-0.559-0.628-1.463 0.433-0.973 1.011 0.465 0.565 2.016 0.151 0.973-1.011zM31.654 15.611c0 8.604-6.971 15.576-15.576 15.576s-15.576-6.971-15.576-15.576 6.971-15.576 15.576-15.576 15.576 6.971 15.576 15.576zM27.497 18.287c0.157-1.011-1.269-1.043-1.583-1.614-0.854-1.514-1.74-2.311-3.423-1.909 0.729-0.502 1.476-0.383 1.476-0.383 0.019-0.402 0-0.816-0.59-1.564 0.245-0.785 0.019-1.407 0.019-1.407 0.973-0.54 1.683-1.533 1.828-2.713 0.226-1.947-1.181-3.718-3.128-3.944-1.388-0.157-2.745 0.484-3.41 1.614-1.457 2.519 0.088 4.453 1.407 5.112-0.904-0.088-2.154-0.747-2.519-2.154-0.415-1.614 0.176-3.128 0.559-3.856 0 0-0.276-0.364-0.503-0.559 0 0-0.867 0-1.545 0.333 0.747-0.955 1.583-0.904 1.583-0.904 0-0.402-0.038-0.936-0.226-1.357-0.339-0.691-1.495-0.81-1.991 0.176 0.006-0.013 0.019-0.025 0.025-0.031-0.314 0.747-0.069 3.511 1.061 5.477-0.157 0.088-0.572 0.383-0.816 0.628-1.357 0.609-3.53 3.787-3.53 3.787-1.771 0.678-4.849 3.197-4.434 5.006 0.019 0.188 0.088 0.345 0.188 0.471-0.176 0.138-0.345 0.314-0.521 0.521-0.747 0.867-0.333 2.211 1.112 1.532 0.992-0.452 1.859-1.269 2.28-1.909 0 0-0.345-0.314-1.024-0.276 1.74-0.415 2.154-0.59 2.902-0.572 0.502 0.245 0.502-2.154 0.502-2.154 0-0.923-0.138-1.947-0.697-2.606 0.785 0.766 1.828 2.054 1.759 3.806-0.050 1.149-0.955 1.445-0.955 1.445-0.572 1.043-2.713 4.139-1.909 6.657 0 0-0.609-0.936-0.641-1.388-1.093 1.218-2.92 3.285-1.545 4.051 1.671 0.923 6.833-5.565 7.926-8.937 2.173-1.306 3.479-2.971 4.013-4.082 1.382 2.732 5.985 5.935 6.35 3.706z"></path>
</svg>
