<!-- Generated by IcoMoon.io -->
<svg version="1.1" xmlns="http://www.w3.org/2000/svg" width="28" height="32" viewBox="0 0 28 32">
<title>greater-than-equal</title>
<path d="M3.468 6.297l11.026 4.276-11.019 4.274c-1.155 0.379-1.751 1.532-1.332 2.575l0.759 1.889c0.42 1.043 1.695 1.582 2.85 1.203l18.93-7.528c0.865-0.284 1.443-1.043 1.443-1.895v-1.002c0-0.852-0.578-1.611-1.443-1.895l-18.95-7.535c-1.149-0.377-2.419 0.159-2.836 1.197l-0.756 1.879c-0.417 1.038 0.176 2.185 1.325 2.562zM26.63 24.655h-25.122c-0.832 0-1.507 0.675-1.507 1.507v3.015c0 0.832 0.675 1.507 1.507 1.507h25.122c0.832 0 1.507-0.675 1.507-1.507v-3.015c0-0.833-0.675-1.507-1.507-1.507z"></path>
</svg>
