<!-- Generated by IcoMoon.io -->
<svg version="1.1" xmlns="http://www.w3.org/2000/svg" width="31" height="32" viewBox="0 0 31 32">
<title>grimace</title>
<path d="M15.576 0.035c-8.604 0-15.576 6.971-15.576 15.576s6.971 15.576 15.576 15.576 15.576-6.971 15.576-15.576-6.971-15.576-15.576-15.576zM15.576 28.173c-6.928 0-12.561-5.634-12.561-12.561s5.634-12.561 12.561-12.561 12.561 5.634 12.561 12.561-5.634 12.561-12.561 12.561zM10.551 14.606c1.112 0 2.010-0.898 2.010-2.010s-0.898-2.010-2.010-2.010-2.010 0.898-2.010 2.010 0.898 2.010 2.010 2.010zM20.6 14.606c1.112 0 2.010-0.898 2.010-2.010s-0.898-2.010-2.010-2.010-2.010 0.898-2.010 2.010 0.898 2.010 2.010 2.010zM21.605 15.611h-12.059c-1.664 0-3.015 1.35-3.015 3.015v2.010c0 1.664 1.35 3.015 3.015 3.015h12.059c1.664 0 3.015-1.35 3.015-3.015v-2.010c0-1.664-1.35-3.015-3.015-3.015zM11.054 21.641h-1.507c-0.553 0-1.005-0.452-1.005-1.005v-0.503h2.512v1.507zM11.054 19.128h-2.512v-0.503c0-0.553 0.452-1.005 1.005-1.005h1.507v1.507zM15.073 21.641h-3.015v-1.507h3.015v1.507zM15.073 19.128h-3.015v-1.507h3.015v1.507zM19.093 21.641h-3.015v-1.507h3.015v1.507zM19.093 19.128h-3.015v-1.507h3.015v1.507zM22.61 20.636c0 0.553-0.452 1.005-1.005 1.005h-1.507v-1.507h2.512v0.503zM22.61 19.128h-2.512v-1.507h1.507c0.553 0 1.005 0.452 1.005 1.005v0.503z"></path>
</svg>
