<!-- Generated by IcoMoon.io -->
<svg version="1.1" xmlns="http://www.w3.org/2000/svg" width="31" height="32" viewBox="0 0 31 32">
<title>grimace1</title>
<path d="M15.576 0.035c-8.604 0-15.576 6.971-15.576 15.576s6.971 15.576 15.576 15.576 15.576-6.971 15.576-15.576-6.971-15.576-15.576-15.576zM9.044 24.655h-0.502c-1.112 0-2.010-0.898-2.010-2.010v-0.503h2.512v2.512zM9.044 21.138h-2.512v-0.503c0-1.112 0.898-2.010 2.010-2.010h0.502v2.512zM8.542 12.597c0-1.112 0.898-2.010 2.010-2.010s2.010 0.898 2.010 2.010-0.898 2.010-2.010 2.010-2.010-0.898-2.010-2.010zM13.064 24.655h-3.015v-2.512h3.015v2.512zM13.064 21.138h-3.015v-2.512h3.015v2.512zM17.083 24.655h-3.015v-2.512h3.015v2.512zM17.083 21.138h-3.015v-2.512h3.015v2.512zM21.103 24.655h-3.015v-2.512h3.015v2.512zM21.103 21.138h-3.015v-2.512h3.015v2.512zM20.6 14.606c-1.112 0-2.010-0.898-2.010-2.010s0.898-2.010 2.010-2.010 2.010 0.898 2.010 2.010-0.898 2.010-2.010 2.010zM24.62 22.646c0 1.112-0.898 2.010-2.010 2.010h-0.503v-2.512h2.512v0.503zM24.62 21.138h-2.512v-2.512h0.503c1.112 0 2.010 0.898 2.010 2.010v0.503z"></path>
</svg>
