<!-- Generated by IcoMoon.io -->
<svg version="1.1" xmlns="http://www.w3.org/2000/svg" width="31" height="32" viewBox="0 0 31 32">
<title>grin-alt1</title>
<path d="M15.576 0.035c-8.604 0-15.576 6.971-15.576 15.576s6.971 15.576 15.576 15.576 15.576-6.971 15.576-15.576-6.971-15.576-15.576-15.576zM19.577 8.119c0.477-0.716 1.551-0.735 2.054 0 0.779 1.156 0.948 2.318 0.986 3.473-0.031 1.156-0.207 2.317-0.986 3.473-0.477 0.716-1.551 0.735-2.054 0-0.779-1.156-0.948-2.318-0.986-3.473 0.031-1.156 0.207-2.317 0.986-3.473zM9.528 8.119c0.477-0.716 1.551-0.735 2.054 0 0.779 1.156 0.948 2.318 0.986 3.473-0.031 1.156-0.207 2.317-0.986 3.473-0.477 0.716-1.551 0.735-2.054 0-0.779-1.156-0.948-2.318-0.986-3.473 0.031-1.156 0.207-2.317 0.986-3.473zM15.576 26.665c-3.806 0-8.447-2.405-9.031-5.86-0.126-0.741 0.584-1.357 1.3-1.124 1.897 0.609 4.717 0.955 7.731 0.955s5.835-0.345 7.731-0.955c0.716-0.232 1.419 0.383 1.3 1.124-0.584 3.454-5.225 5.86-9.031 5.86z"></path>
</svg>
