<!-- Generated by IcoMoon.io -->
<svg version="1.1" xmlns="http://www.w3.org/2000/svg" width="40" height="32" viewBox="0 0 40 32">
<title>grin-tears</title>
<path d="M7.355 15.618c-1.62 0.232-5.276 0.86-6.337 1.922-1.375 1.375-1.35 3.636 0.057 5.043s3.662 1.432 5.043 0.057c1.061-1.061 1.69-4.717 1.922-6.337 0.050-0.402-0.289-0.741-0.685-0.685zM39.178 17.54c-1.061-1.061-4.717-1.69-6.337-1.922-0.396-0.057-0.735 0.283-0.678 0.678 0.232 1.62 0.86 5.276 1.922 6.337 1.375 1.375 3.636 1.35 5.043-0.057 1.401-1.401 1.426-3.662 0.050-5.037zM31.227 21.415c-2.098 4.013-6.299 6.758-11.129 6.758s-9.031-2.745-11.129-6.758c-0.785 2.349-1.583 2.757-1.777 2.92 2.801 4.133 7.537 6.852 12.907 6.852s10.105-2.72 12.907-6.852c-0.201-0.17-0.999-0.578-1.777-2.92zM7.706 13.633c0.955-5.985 6.142-10.583 12.392-10.583s11.437 4.597 12.392 10.583c0.132-0.012 0.327-0.151 3.109 0.44-0.779-7.882-7.417-14.037-15.501-14.037s-14.722 6.155-15.501 14.031c2.795-0.59 2.958-0.452 3.109-0.433zM20.098 24.655c3.26 0 7.242-2.066 7.744-5.024 0.107-0.622-0.484-1.162-1.112-0.961-1.627 0.521-4.045 0.823-6.632 0.823s-4.999-0.301-6.632-0.823c-0.615-0.195-1.218 0.333-1.112 0.961 0.502 2.958 4.484 5.024 7.744 5.024zM28.282 14.085c0.226-0.069 0.377-0.283 0.358-0.521-0.207-2.644-2.022-4.484-3.517-4.484s-3.31 1.84-3.517 4.484c-0.019 0.232 0.132 0.452 0.358 0.521 0.22 0.069 0.465-0.031 0.584-0.232l0.597-1.068c0.484-0.86 1.206-1.357 1.978-1.357s1.495 0.496 1.978 1.357l0.597 1.068c0.132 0.226 0.389 0.289 0.584 0.232zM15.073 11.428c0.773 0 1.495 0.496 1.978 1.357l0.597 1.068c0.132 0.232 0.389 0.295 0.584 0.232 0.226-0.069 0.377-0.283 0.358-0.521-0.207-2.644-2.022-4.484-3.517-4.484s-3.31 1.84-3.517 4.484c-0.019 0.232 0.132 0.452 0.358 0.521 0.22 0.069 0.465-0.031 0.584-0.232l0.597-1.068c0.484-0.867 1.206-1.357 1.978-1.357z"></path>
</svg>
