<!-- Generated by IcoMoon.io -->
<svg version="1.1" xmlns="http://www.w3.org/2000/svg" width="31" height="32" viewBox="0 0 31 32">
<title>grin-alt</title>
<path d="M12.58 15.109c0.779-1.175 0.948-2.343 0.986-3.517-0.031-1.175-0.207-2.343-0.986-3.517-0.502-0.754-1.576-0.716-2.054 0-0.779 1.175-0.948 2.343-0.986 3.517 0.031 1.175 0.207 2.343 0.986 3.517 0.509 0.754 1.583 0.716 2.054 0zM20.619 15.109c0.779-1.175 0.948-2.343 0.986-3.517-0.031-1.175-0.207-2.343-0.986-3.517-0.503-0.754-1.576-0.716-2.054 0-0.779 1.175-0.948 2.343-0.986 3.517 0.031 1.175 0.207 2.343 0.986 3.517 0.509 0.754 1.583 0.716 2.054 0zM15.576 0.035c-8.604 0-15.576 6.971-15.576 15.576s6.971 15.576 15.576 15.576 15.576-6.971 15.576-15.576-6.971-15.576-15.576-15.576zM15.576 28.173c-6.928 0-12.561-5.634-12.561-12.561s5.634-12.561 12.561-12.561 12.561 5.634 12.561 12.561-5.634 12.561-12.561 12.561zM22.208 18.664c-1.627 0.521-4.045 0.823-6.632 0.823s-4.999-0.301-6.632-0.823c-0.622-0.195-1.218 0.333-1.112 0.961 0.496 2.964 4.478 5.024 7.744 5.024s7.242-2.066 7.744-5.024c0.1-0.615-0.484-1.156-1.112-0.961z"></path>
</svg>
