<!-- Generated by IcoMoon.io -->
<svg version="1.1" xmlns="http://www.w3.org/2000/svg" width="40" height="32" viewBox="0 0 40 32">
<title>grin-tears1</title>
<path d="M6.431 15.618c-1.419 0.201-4.616 0.754-5.546 1.683-1.2 1.2-1.181 3.178 0.050 4.409s3.203 1.25 4.409 0.044c0.93-0.93 1.476-4.126 1.683-5.546 0.050-0.345-0.245-0.641-0.597-0.59zM39.304 17.301c-0.93-0.93-4.126-1.476-5.546-1.683-0.345-0.050-0.647 0.245-0.597 0.597 0.201 1.419 0.754 4.616 1.683 5.546 1.206 1.206 3.178 1.187 4.409-0.044s1.256-3.216 0.050-4.415zM31.177 16.497c-0.239-1.671 1.2-3.109 2.87-2.87 0.559 0.082 1.055 0.17 1.526 0.258-0.86-7.788-7.455-13.849-15.475-13.849s-14.615 6.061-15.475 13.849c0.471-0.088 0.967-0.176 1.526-0.258 2.085-0.245 3.052 1.589 2.87 2.87-0.741 5.169-1.878 6.306-2.248 6.683-0.057 0.057-0.126 0.1-0.188 0.157 2.682 4.685 7.725 7.851 13.516 7.851s10.834-3.165 13.516-7.857c-0.063-0.057-0.132-0.094-0.188-0.157-0.371-0.371-1.507-1.507-2.248-6.676zM25.122 9.080c1.495 0 3.31 1.84 3.517 4.484 0.044 0.54-0.678 0.754-0.936 0.283l-0.597-1.068c-0.484-0.86-1.206-1.357-1.978-1.357s-1.495 0.496-1.978 1.357l-0.597 1.068c-0.264 0.465-0.98 0.251-0.936-0.283 0.195-2.644 2.010-4.484 3.505-4.484zM15.073 9.080c1.495 0 3.31 1.84 3.517 4.484 0.044 0.54-0.678 0.754-0.936 0.283l-0.597-1.068c-0.484-0.86-1.206-1.357-1.978-1.357s-1.495 0.496-1.978 1.357l-0.597 1.068c-0.264 0.465-0.98 0.251-0.936-0.283 0.195-2.644 2.010-4.484 3.505-4.484zM20.098 26.665c-3.806 0-8.447-2.405-9.031-5.86-0.126-0.735 0.578-1.357 1.3-1.124 1.897 0.609 4.717 0.955 7.731 0.955s5.835-0.345 7.731-0.955c0.716-0.232 1.419 0.383 1.3 1.124-0.584 3.454-5.225 5.86-9.032 5.86z"></path>
</svg>
