<!-- Generated by IcoMoon.io -->
<svg version="1.1" xmlns="http://www.w3.org/2000/svg" width="31" height="32" viewBox="0 0 31 32">
<title>grin-tongue-wink</title>
<path d="M9.546 10.838c-1.614 0-3.511 1.061-3.756 2.644-0.050 0.314 0.107 0.628 0.383 0.779s0.622 0.113 0.86-0.1l0.597-0.534c0.93-0.829 2.902-0.829 3.831 0l0.597 0.534c0.157 0.138 0.502 0.295 0.86 0.1 0.276-0.151 0.433-0.465 0.383-0.779-0.245-1.583-2.142-2.644-3.756-2.644zM20.6 7.572c-2.776 0-5.024 2.248-5.024 5.024s2.248 5.024 5.024 5.024 5.024-2.248 5.024-5.024-2.248-5.024-5.024-5.024zM20.6 15.611c-1.664 0-3.015-1.35-3.015-3.015s1.35-3.015 3.015-3.015 3.015 1.35 3.015 3.015-1.35 3.015-3.015 3.015zM20.6 11.089c-0.835 0-1.507 0.672-1.507 1.507s0.672 1.507 1.507 1.507 1.507-0.672 1.507-1.507-0.672-1.507-1.507-1.507zM15.576 0.035c-8.604 0-15.576 6.971-15.576 15.576s6.971 15.576 15.576 15.576 15.576-6.971 15.576-15.576-6.971-15.576-15.576-15.576zM19.596 25.158c0 2.236-1.828 4.051-4.076 4.020-2.205-0.031-3.963-1.872-3.963-4.082v-2.688l1.112-0.553c0.942-0.471 1.978 0.107 2.192 1.036l0.176 0.76c0.132 0.578 0.955 0.578 1.087 0l0.176-0.76c0.214-0.93 1.244-1.514 2.192-1.036l1.112 0.553v2.751zM21.367 26.747c0.138-0.509 0.239-1.036 0.239-1.589v-2.732c0.892-0.779 1.532-1.727 1.715-2.795 0.107-0.622-0.484-1.162-1.112-0.961-1.627 0.521-4.045 0.823-6.632 0.823s-4.999-0.301-6.632-0.823c-0.622-0.195-1.218 0.333-1.112 0.961 0.182 1.068 0.823 2.016 1.715 2.795v2.732c0 0.553 0.1 1.080 0.239 1.589-4.020-2.098-6.771-6.299-6.771-11.136 0-6.928 5.634-12.561 12.561-12.561s12.561 5.634 12.561 12.561c0 4.836-2.751 9.038-6.77 11.136z"></path>
</svg>
