<!-- Generated by IcoMoon.io -->
<svg version="1.1" xmlns="http://www.w3.org/2000/svg" width="31" height="32" viewBox="0 0 31 32">
<title>grin-hearts</title>
<path d="M22.208 18.664c-1.627 0.521-4.045 0.823-6.632 0.823s-4.999-0.301-6.632-0.823c-0.615-0.195-1.218 0.333-1.112 0.961 0.496 2.964 4.478 5.024 7.744 5.024s7.242-2.066 7.744-5.024c0.1-0.615-0.484-1.156-1.112-0.961zM12.611 15.593c0.283 0.075 0.578-0.094 0.66-0.377l1.218-4.39c0.352-1.275-0.465-2.581-1.809-2.795-1.168-0.188-2.286 0.615-2.606 1.752l-0.126 0.446-0.446-0.119c-1.143-0.295-2.399 0.27-2.82 1.382-0.484 1.269 0.239 2.632 1.52 2.964l4.409 1.137zM24.469 11.491c-0.421-1.105-1.677-1.677-2.82-1.382l-0.446 0.119-0.126-0.446c-0.314-1.137-1.432-1.941-2.606-1.752-1.344 0.214-2.16 1.52-1.809 2.795l1.218 4.39c0.075 0.283 0.371 0.452 0.66 0.377l4.409-1.143c1.281-0.333 2.003-1.69 1.52-2.958zM15.576 0.035c-8.604 0-15.576 6.971-15.576 15.576s6.971 15.576 15.576 15.576 15.576-6.971 15.576-15.576-6.971-15.576-15.576-15.576zM15.576 28.173c-6.928 0-12.561-5.634-12.561-12.561s5.634-12.561 12.561-12.561 12.561 5.634 12.561 12.561-5.634 12.561-12.561 12.561z"></path>
</svg>
