<!-- Generated by IcoMoon.io -->
<svg version="1.1" xmlns="http://www.w3.org/2000/svg" width="31" height="32" viewBox="0 0 31 32">
<title>grin-stars</title>
<path d="M15.576 0.035c-8.604 0-15.576 6.971-15.576 15.576s6.971 15.576 15.576 15.576 15.576-6.971 15.576-15.576-6.971-15.576-15.576-15.576zM15.576 28.173c-6.928 0-12.561-5.634-12.561-12.561s5.634-12.561 12.561-12.561 12.561 5.634 12.561 12.561-5.634 12.561-12.561 12.561zM22.208 18.664c-1.627 0.521-4.045 0.823-6.632 0.823s-4.999-0.301-6.632-0.823c-0.615-0.195-1.218 0.333-1.112 0.961 0.496 2.964 4.478 5.024 7.744 5.024s7.242-2.066 7.744-5.024c0.1-0.615-0.484-1.156-1.112-0.961zM7.895 15.052c-0.063 0.389 0.339 0.691 0.691 0.496l1.966-1.024 1.966 1.024c0.352 0.195 0.754-0.107 0.691-0.496l-0.377-2.192 1.595-1.545c0.283-0.283 0.119-0.766-0.27-0.829l-2.192-0.314-0.973-1.985c-0.182-0.364-0.691-0.364-0.873 0l-0.973 1.985-2.192 0.314c-0.389 0.057-0.559 0.54-0.27 0.829l1.595 1.545-0.383 2.192zM24.205 10.486l-2.192-0.314-0.973-1.985c-0.182-0.364-0.691-0.364-0.873 0l-0.973 1.985-2.192 0.314c-0.389 0.057-0.559 0.54-0.27 0.829l1.595 1.545-0.377 2.192c-0.063 0.389 0.339 0.691 0.691 0.496l1.966-1.024 1.966 1.024c0.352 0.195 0.754-0.107 0.691-0.496l-0.377-2.192 1.595-1.545c0.283-0.289 0.113-0.766-0.276-0.829z"></path>
</svg>
