<!-- Generated by IcoMoon.io -->
<svg version="1.1" xmlns="http://www.w3.org/2000/svg" width="31" height="32" viewBox="0 0 31 32">
<title>grin1</title>
<path d="M15.576 0.035c-8.604 0-15.576 6.971-15.576 15.576s6.971 15.576 15.576 15.576 15.576-6.971 15.576-15.576-6.971-15.576-15.576-15.576zM20.6 10.587c1.112 0 2.010 0.898 2.010 2.010s-0.898 2.010-2.010 2.010-2.010-0.898-2.010-2.010 0.898-2.010 2.010-2.010zM10.551 10.587c1.112 0 2.010 0.898 2.010 2.010s-0.898 2.010-2.010 2.010-2.010-0.898-2.010-2.010 0.898-2.010 2.010-2.010zM15.576 26.665c-3.806 0-8.447-2.405-9.031-5.86-0.126-0.741 0.584-1.357 1.3-1.124 1.897 0.609 4.717 0.955 7.731 0.955s5.835-0.345 7.731-0.955c0.71-0.232 1.419 0.383 1.3 1.124-0.584 3.454-5.225 5.86-9.031 5.86z"></path>
</svg>
