<!-- Generated by IcoMoon.io -->
<svg version="1.1" xmlns="http://www.w3.org/2000/svg" width="31" height="32" viewBox="0 0 31 32">
<title>grin-beam</title>
<path d="M15.576 0.035c-8.604 0-15.576 6.971-15.576 15.576s6.971 15.576 15.576 15.576 15.576-6.971 15.576-15.576-6.971-15.576-15.576-15.576zM15.576 28.173c-6.928 0-12.561-5.634-12.561-12.561s5.634-12.561 12.561-12.561 12.561 5.634 12.561 12.561-5.634 12.561-12.561 12.561zM22.208 18.664c-1.627 0.521-4.045 0.823-6.632 0.823s-4.999-0.301-6.632-0.823c-0.615-0.195-1.218 0.333-1.112 0.961 0.496 2.958 4.478 5.024 7.744 5.024s7.242-2.066 7.744-5.024c0.1-0.615-0.484-1.156-1.112-0.961zM7.392 14.085c0.22 0.069 0.465-0.031 0.584-0.232l0.597-1.068c0.484-0.86 1.206-1.357 1.978-1.357s1.495 0.496 1.978 1.357l0.597 1.068c0.132 0.232 0.389 0.295 0.584 0.232 0.226-0.069 0.377-0.283 0.358-0.521-0.207-2.644-2.022-4.484-3.517-4.484s-3.31 1.84-3.517 4.484c-0.019 0.232 0.132 0.452 0.358 0.521zM17.441 14.085c0.22 0.069 0.465-0.031 0.584-0.232l0.597-1.068c0.484-0.86 1.206-1.357 1.978-1.357s1.495 0.496 1.978 1.357l0.597 1.068c0.132 0.232 0.389 0.295 0.584 0.232 0.226-0.069 0.377-0.283 0.358-0.521-0.207-2.644-2.022-4.484-3.517-4.484s-3.31 1.84-3.517 4.484c-0.019 0.232 0.132 0.452 0.358 0.521z"></path>
</svg>
