<!-- Generated by IcoMoon.io -->
<svg version="1.1" xmlns="http://www.w3.org/2000/svg" width="31" height="32" viewBox="0 0 31 32">
<title>grin-wink1</title>
<path d="M0 15.611c0 8.604 6.971 15.576 15.576 15.576s15.576-6.971 15.576-15.576-6.971-15.576-15.576-15.576-15.576 6.971-15.576 15.576zM12.561 12.597c0 1.112-0.898 2.010-2.010 2.010s-2.010-0.898-2.010-2.010 0.898-2.010 2.010-2.010 2.010 0.898 2.010 2.010zM23.113 14.167l-0.597-0.534c-0.93-0.829-2.902-0.829-3.831 0l-0.597 0.534c-0.521 0.465-1.357 0.025-1.244-0.678 0.251-1.583 2.148-2.644 3.762-2.644s3.511 1.061 3.762 2.644c0.1 0.691-0.722 1.143-1.256 0.678zM7.844 19.681c1.897 0.609 4.717 0.955 7.731 0.955s5.835-0.345 7.731-0.955c0.71-0.232 1.419 0.377 1.3 1.124-0.578 3.454-5.225 5.86-9.031 5.86s-8.447-2.405-9.031-5.86c-0.126-0.747 0.584-1.357 1.3-1.124z"></path>
</svg>
