<!-- Generated by IcoMoon.io -->
<svg version="1.1" xmlns="http://www.w3.org/2000/svg" width="31" height="32" viewBox="0 0 31 32">
<title>grin-squint1</title>
<path d="M15.576 0.035c-8.604 0-15.576 6.971-15.576 15.576s6.971 15.576 15.576 15.576 15.576-6.971 15.576-15.576-6.971-15.576-15.576-15.576zM17.699 11.95l5.024-3.015c0.729-0.433 1.507 0.484 0.967 1.13l-2.11 2.531 2.11 2.531c0.546 0.653-0.245 1.558-0.967 1.13l-5.024-3.015c-0.484-0.295-0.484-0.999 0-1.294zM7.461 10.066c-0.54-0.647 0.239-1.564 0.967-1.13l5.024 3.015c0.49 0.295 0.49 0.999 0 1.294l-5.024 3.015c-0.722 0.427-1.507-0.477-0.967-1.13l2.11-2.531-2.11-2.531zM15.576 26.665c-3.806 0-8.447-2.405-9.031-5.86-0.126-0.747 0.59-1.357 1.3-1.124 1.897 0.609 4.717 0.955 7.731 0.955s5.835-0.345 7.731-0.955c0.722-0.232 1.419 0.389 1.3 1.124-0.584 3.454-5.225 5.86-9.031 5.86z"></path>
</svg>
