<!-- Generated by IcoMoon.io -->
<svg version="1.1" xmlns="http://www.w3.org/2000/svg" width="32" height="32" viewBox="0 0 32 32">
<title>grin-squint-tears</title>
<path d="M7.355 23.657c-1.62 0.232-5.276 0.86-6.337 1.922-1.375 1.375-1.35 3.636 0.057 5.043s3.662 1.432 5.043 0.057c1.061-1.061 1.69-4.717 1.922-6.337 0.050-0.402-0.289-0.741-0.685-0.685zM4.767 21.038c-2.236-4.673-1.438-10.445 2.431-14.307 2.374-2.374 5.527-3.68 8.881-3.68 2.274 0 4.447 0.615 6.356 1.74 0.239-1.275 0.503-2.267 0.754-3.034-2.223-1.143-4.666-1.721-7.11-1.721-3.988 0-7.97 1.52-11.016 4.56-4.654 4.654-5.734 11.519-3.266 17.209 0.766-0.258 1.74-0.521 2.971-0.766zM26.894 9.255c2.826 4.811 2.192 11.11-1.934 15.237-2.374 2.374-5.527 3.68-8.881 3.68-1.916 0-3.756-0.44-5.426-1.244-0.245 1.225-0.502 2.198-0.766 2.964 1.972 0.854 4.082 1.294 6.199 1.294 3.988 0 7.97-1.52 11.016-4.56 4.905-4.905 5.847-12.272 2.839-18.126-0.773 0.251-1.771 0.509-3.046 0.754zM24.802 7.566c1.62-0.232 5.276-0.86 6.337-1.922 1.375-1.375 1.35-3.636-0.057-5.043s-3.662-1.432-5.043-0.057c-1.061 1.061-1.69 4.717-1.922 6.337-0.050 0.402 0.289 0.741 0.685 0.685zM13.057 14.368c-0.188-0.188-0.452-0.264-0.716-0.201l-5.684 1.426c-0.358 0.088-0.597 0.421-0.572 0.791 0.031 0.364 0.32 0.66 0.685 0.691l3.285 0.301 0.301 3.285c0.031 0.364 0.327 0.653 0.691 0.685h0.057c0.345 0 0.647-0.232 0.735-0.572l1.419-5.684c0.063-0.264-0.012-0.534-0.201-0.722zM15.551 12.791l5.684-1.419c0.358-0.088 0.597-0.421 0.572-0.791-0.031-0.364-0.32-0.66-0.685-0.691l-3.285-0.301-0.301-3.285c-0.031-0.364-0.327-0.653-0.691-0.685-0.352-0.006-0.703 0.214-0.791 0.572l-1.419 5.684c-0.063 0.258 0.012 0.527 0.201 0.716 0.314 0.314 0.71 0.201 0.716 0.201zM18.817 18.35c-1.828 1.828-3.75 3.322-5.269 4.108-0.578 0.301-0.628 1.099-0.107 1.47 2.443 1.74 6.72 0.389 9.025-1.922s3.662-6.582 1.922-9.025c-0.364-0.515-1.162-0.477-1.47 0.107-0.773 1.52-2.274 3.435-4.101 5.263z"></path>
</svg>
