<!-- Generated by IcoMoon.io -->
<svg version="1.1" xmlns="http://www.w3.org/2000/svg" width="31" height="32" viewBox="0 0 31 32">
<title>grin-tongue-squint</title>
<path d="M15.576 0.035c-8.604 0-15.576 6.971-15.576 15.576s6.971 15.576 15.576 15.576 15.576-6.971 15.576-15.576-6.971-15.576-15.576-15.576zM19.596 25.158c0 2.236-1.828 4.051-4.076 4.020-2.205-0.031-3.963-1.872-3.963-4.082v-2.688l1.112-0.553c0.942-0.471 1.978 0.107 2.192 1.036l0.176 0.76c0.132 0.578 0.955 0.578 1.087 0l0.176-0.76c0.214-0.93 1.244-1.514 2.192-1.036l1.112 0.553v2.751zM21.367 26.747c0.138-0.509 0.239-1.036 0.239-1.589v-2.732c0.892-0.779 1.532-1.727 1.715-2.795 0.107-0.622-0.484-1.162-1.112-0.961-1.627 0.521-4.045 0.823-6.632 0.823s-4.999-0.301-6.632-0.823c-0.622-0.195-1.218 0.333-1.112 0.961 0.182 1.068 0.823 2.016 1.715 2.795v2.732c0 0.553 0.1 1.080 0.239 1.589-4.020-2.098-6.771-6.299-6.771-11.136 0-6.928 5.634-12.561 12.561-12.561s12.561 5.634 12.561 12.561c0 4.836-2.751 9.038-6.77 11.136zM23.684 9.092c-0.239-0.276-0.647-0.345-0.961-0.157l-5.024 3.015c-0.226 0.138-0.364 0.383-0.364 0.647s0.138 0.509 0.364 0.647l5.024 3.015c0.339 0.201 0.735 0.107 0.961-0.157 0.239-0.283 0.239-0.691 0.006-0.973l-2.11-2.531 2.11-2.531c0.239-0.283 0.232-0.697-0.006-0.973zM13.453 11.95l-5.024-3.015c-0.314-0.188-0.716-0.126-0.961 0.157-0.239 0.283-0.239 0.691-0.006 0.973l2.11 2.531-2.11 2.531c-0.239 0.283-0.232 0.691 0.006 0.973 0.226 0.264 0.622 0.358 0.961 0.157l5.024-3.015c0.226-0.138 0.364-0.383 0.364-0.647s-0.138-0.509-0.364-0.647z"></path>
</svg>
