<!-- Generated by IcoMoon.io -->
<svg version="1.1" xmlns="http://www.w3.org/2000/svg" width="32" height="32" viewBox="0 0 32 32">
<title>grin-beam-sweat1</title>
<path d="M28.64 7.572c1.664 0 3.015-1.319 3.015-2.952 0-1.256-1.79-3.793-2.613-4.886-0.201-0.27-0.603-0.27-0.804 0-0.823 1.093-2.613 3.63-2.613 4.886 0 1.633 1.35 2.952 3.015 2.952zM28.64 9.582c-2.77 0-5.024-2.223-5.024-4.962 0-0.276 0.019-0.892 0.509-2.022-2.456-1.614-5.389-2.563-8.548-2.563-8.604 0-15.576 6.971-15.576 15.576s6.971 15.576 15.576 15.576 15.576-6.971 15.576-15.576c0-2.205-0.465-4.296-1.288-6.193-0.396 0.094-0.798 0.163-1.225 0.163zM20.6 9.080c1.495 0 3.31 1.84 3.517 4.484 0.044 0.54-0.678 0.754-0.936 0.283l-0.597-1.068c-0.484-0.86-1.206-1.357-1.978-1.357s-1.495 0.496-1.978 1.357l-0.597 1.068c-0.258 0.465-0.98 0.251-0.936-0.283 0.195-2.644 2.010-4.484 3.505-4.484zM10.551 9.080c1.495 0 3.31 1.84 3.517 4.484 0.044 0.54-0.678 0.754-0.936 0.283l-0.597-1.068c-0.484-0.86-1.206-1.357-1.978-1.357s-1.495 0.496-1.978 1.357l-0.597 1.068c-0.264 0.465-0.98 0.251-0.936-0.283 0.195-2.644 2.010-4.484 3.505-4.484zM15.576 26.665c-3.806 0-8.447-2.405-9.031-5.86-0.126-0.741 0.584-1.357 1.3-1.124 1.897 0.609 4.717 0.955 7.731 0.955s5.835-0.345 7.731-0.955c0.722-0.232 1.419 0.389 1.3 1.124-0.584 3.454-5.225 5.86-9.031 5.86z"></path>
</svg>
