<!-- Generated by IcoMoon.io -->
<svg version="1.1" xmlns="http://www.w3.org/2000/svg" width="31" height="32" viewBox="0 0 31 32">
<title>grin-beam1</title>
<path d="M15.576 0.035c-8.604 0-15.576 6.971-15.576 15.576s6.971 15.576 15.576 15.576 15.576-6.971 15.576-15.576-6.971-15.576-15.576-15.576zM20.6 9.080c1.495 0 3.31 1.84 3.517 4.484 0.044 0.54-0.678 0.747-0.936 0.283l-0.597-1.068c-0.484-0.86-1.206-1.357-1.978-1.357s-1.495 0.496-1.978 1.357l-0.597 1.068c-0.258 0.458-0.98 0.251-0.936-0.283 0.195-2.644 2.010-4.484 3.505-4.484zM10.551 9.080c1.495 0 3.31 1.84 3.517 4.484 0.044 0.54-0.678 0.747-0.936 0.283l-0.597-1.068c-0.484-0.86-1.206-1.357-1.978-1.357s-1.495 0.496-1.978 1.357l-0.597 1.068c-0.264 0.465-0.98 0.251-0.936-0.283 0.195-2.644 2.010-4.484 3.505-4.484zM15.576 26.665c-3.806 0-8.447-2.405-9.031-5.86-0.126-0.747 0.59-1.357 1.3-1.124 1.897 0.609 4.717 0.955 7.731 0.955s5.835-0.345 7.731-0.955c0.716-0.232 1.419 0.383 1.3 1.124-0.584 3.454-5.225 5.86-9.031 5.86z"></path>
</svg>
