<!-- Generated by IcoMoon.io -->
<svg version="1.1" xmlns="http://www.w3.org/2000/svg" width="31" height="32" viewBox="0 0 31 32">
<title>grin-squint</title>
<path d="M15.576 0.035c-8.604 0-15.576 6.971-15.576 15.576s6.971 15.576 15.576 15.576 15.576-6.971 15.576-15.576-6.971-15.576-15.576-15.576zM15.576 28.173c-6.928 0-12.561-5.634-12.561-12.561s5.634-12.561 12.561-12.561 12.561 5.634 12.561 12.561-5.634 12.561-12.561 12.561zM22.208 18.664c-1.627 0.521-4.045 0.823-6.632 0.823s-4.999-0.301-6.632-0.823c-0.622-0.195-1.218 0.339-1.112 0.961 0.496 2.958 4.478 5.024 7.744 5.024s7.242-2.066 7.744-5.024c0.1-0.615-0.484-1.156-1.112-0.961zM7.468 16.101c0.226 0.264 0.622 0.358 0.961 0.157l5.024-3.015c0.226-0.138 0.364-0.383 0.364-0.647s-0.138-0.509-0.364-0.647l-5.024-3.015c-0.32-0.188-0.716-0.119-0.961 0.157-0.239 0.283-0.239 0.691-0.006 0.973l2.11 2.531-2.11 2.531c-0.239 0.283-0.232 0.697 0.006 0.973zM22.723 16.258c0.339 0.201 0.735 0.107 0.961-0.157 0.239-0.283 0.239-0.691 0.006-0.973l-2.11-2.531 2.11-2.531c0.239-0.283 0.232-0.691-0.006-0.973-0.239-0.276-0.641-0.339-0.961-0.157l-5.024 3.015c-0.226 0.138-0.364 0.383-0.364 0.647s0.138 0.509 0.364 0.647l5.024 3.015z"></path>
</svg>
