<!-- Generated by IcoMoon.io -->
<svg version="1.1" xmlns="http://www.w3.org/2000/svg" width="31" height="32" viewBox="0 0 31 32">
<title>grin-beam-sweat</title>
<path d="M27.635 9.582c1.853 0 3.348-1.652 3.348-3.687 0-1.57-1.991-4.742-2.902-6.111-0.226-0.333-0.672-0.333-0.892 0-0.911 1.369-2.902 4.541-2.902 6.111 0 2.035 1.495 3.687 3.348 3.687zM15.576 24.655c3.26 0 7.242-2.066 7.744-5.024 0.107-0.622-0.484-1.162-1.112-0.961-1.627 0.521-4.045 0.823-6.632 0.823s-4.999-0.301-6.632-0.823c-0.615-0.195-1.218 0.333-1.112 0.961 0.502 2.958 4.484 5.024 7.744 5.024zM23.76 14.085c0.226-0.069 0.377-0.283 0.358-0.521-0.207-2.644-2.022-4.484-3.517-4.484s-3.31 1.84-3.517 4.484c-0.019 0.232 0.132 0.452 0.358 0.521 0.22 0.069 0.465-0.031 0.584-0.232l0.597-1.068c0.484-0.86 1.206-1.357 1.978-1.357s1.495 0.496 1.978 1.357l0.597 1.068c0.132 0.226 0.389 0.289 0.584 0.232zM30.373 10.763c-1.545 0.986-2.889 0.81-2.914 0.81 0.433 1.269 0.678 2.625 0.678 4.038 0 6.927-5.634 12.561-12.561 12.561s-12.561-5.634-12.561-12.561 5.634-12.561 12.561-12.561c2.5 0 4.824 0.741 6.783 2.003 0.107-0.597 0.396-1.514 1.080-2.87-2.311-1.357-4.993-2.148-7.863-2.148-8.604 0-15.576 6.971-15.576 15.576s6.971 15.576 15.576 15.576 15.576-6.971 15.576-15.576c0-1.696-0.276-3.322-0.779-4.849zM10.551 11.428c0.773 0 1.495 0.496 1.978 1.357l0.597 1.068c0.132 0.232 0.389 0.295 0.584 0.232 0.226-0.069 0.377-0.283 0.358-0.521-0.207-2.644-2.022-4.484-3.517-4.484s-3.31 1.84-3.517 4.484c-0.019 0.232 0.132 0.452 0.358 0.521 0.22 0.069 0.465-0.031 0.584-0.232l0.597-1.068c0.484-0.867 1.206-1.357 1.978-1.357z"></path>
</svg>
