<!-- Generated by IcoMoon.io -->
<svg version="1.1" xmlns="http://www.w3.org/2000/svg" width="31" height="32" viewBox="0 0 31 32">
<title>grin-stars1</title>
<path d="M15.576 0.035c-8.604 0-15.576 6.971-15.576 15.576s6.971 15.576 15.576 15.576 15.576-6.971 15.576-15.576-6.971-15.576-15.576-15.576zM5.941 10.141l2.192-0.314 0.973-1.985c0.182-0.364 0.691-0.364 0.873 0l0.973 1.985 2.192 0.314c0.389 0.063 0.559 0.54 0.27 0.829l-1.595 1.545 0.377 2.192c0.063 0.389-0.333 0.691-0.691 0.496l-1.96-1.018-1.966 1.024c-0.358 0.195-0.754-0.107-0.691-0.496l0.377-2.192-1.595-1.545c-0.289-0.295-0.119-0.772 0.27-0.835zM15.576 26.665c-3.806 0-8.447-2.405-9.031-5.86-0.126-0.741 0.584-1.35 1.3-1.124 1.897 0.609 4.717 0.955 7.731 0.955s5.835-0.345 7.731-0.955c0.722-0.232 1.419 0.383 1.3 1.124-0.584 3.454-5.225 5.86-9.031 5.86zM25.48 10.97l-1.595 1.545 0.377 2.192c0.063 0.389-0.333 0.691-0.691 0.496l-1.966-1.018-1.966 1.024c-0.358 0.195-0.754-0.107-0.691-0.496l0.377-2.192-1.595-1.545c-0.283-0.289-0.119-0.766 0.27-0.829l2.192-0.314 0.973-1.985c0.182-0.364 0.691-0.364 0.873 0l0.973 1.985 2.192 0.314c0.396 0.057 0.565 0.534 0.276 0.823z"></path>
</svg>
