<!-- Generated by IcoMoon.io -->
<svg version="1.1" xmlns="http://www.w3.org/2000/svg" width="31" height="32" viewBox="0 0 31 32">
<title>grin-tongue-wink1</title>
<path d="M21.605 11.089c-0.835 0-1.507 0.672-1.507 1.507s0.672 1.507 1.507 1.507 1.507-0.672 1.507-1.507-0.672-1.507-1.507-1.507zM15.576 0.035c-8.604 0-15.576 6.971-15.576 15.576 0 6.676 4.208 12.354 10.112 14.571-0.352-0.766-0.565-1.614-0.565-2.512v-2.858c-1.551-1.017-2.732-2.393-3.002-4.007-0.126-0.741 0.584-1.35 1.3-1.124 1.897 0.609 4.717 0.955 7.731 0.955s5.835-0.345 7.731-0.955c0.722-0.232 1.419 0.383 1.3 1.124-0.27 1.614-1.451 2.99-3.002 4.007v2.858c0 0.898-0.214 1.746-0.565 2.512 5.904-2.217 10.112-7.895 10.112-14.571 0-8.604-6.971-15.576-15.576-15.576zM12.059 14.167l-0.597-0.534c-0.93-0.829-2.902-0.829-3.831 0l-0.597 0.534c-0.534 0.465-1.357 0.019-1.244-0.678 0.251-1.583 2.148-2.644 3.762-2.644s3.511 1.061 3.762 2.644c0.1 0.697-0.729 1.143-1.256 0.678zM21.605 16.616c-2.217 0-4.020-1.803-4.020-4.020s1.802-4.020 4.020-4.020 4.020 1.803 4.020 4.020-1.802 4.020-4.020 4.020zM18.408 23.060c-0.904-0.408-1.953 0.138-2.173 1.105l-0.113 0.49c-0.132 0.578-0.955 0.578-1.087 0l-0.113-0.49c-0.22-0.967-1.269-1.514-2.173-1.105-0.057 0.025 0.019-0.012-1.187 0.59v3.957c0 2.211 1.759 4.051 3.963 4.076 2.242 0.031 4.076-1.784 4.076-4.020v-4.020c-1.225-0.603-1.143-0.559-1.193-0.584z"></path>
</svg>
