<!-- Generated by IcoMoon.io -->
<svg version="1.1" xmlns="http://www.w3.org/2000/svg" width="32" height="32" viewBox="0 0 32 32">
<title>grin-squint-tears1</title>
<path d="M25.725 6.561c1.419-0.201 4.616-0.754 5.546-1.683 1.206-1.206 1.187-3.178-0.044-4.409s-3.216-1.25-4.415-0.044c-0.93 0.93-1.476 4.126-1.683 5.546-0.050 0.345 0.245 0.641 0.597 0.59zM6.431 24.662c-1.419 0.201-4.616 0.754-5.546 1.683-1.2 1.2-1.181 3.178 0.050 4.409s3.203 1.25 4.409 0.044c0.93-0.93 1.476-4.126 1.683-5.546 0.050-0.345-0.245-0.641-0.597-0.59zM26.008 8.552c-2.073 0.245-3.052-1.576-2.87-2.87 0.214-1.507 0.465-2.644 0.722-3.549-5.954-3.442-13.698-2.632-18.798 2.462-5.094 5.094-5.904 12.838-2.462 18.798 0.904-0.258 2.035-0.503 3.549-0.722 2.085-0.245 3.052 1.583 2.87 2.87-0.214 1.507-0.465 2.644-0.722 3.549 5.954 3.442 13.698 2.632 18.798-2.462s5.904-12.838 2.462-18.798c-0.904 0.258-2.041 0.502-3.549 0.722zM16.059 6.19c0.207-0.829 1.407-0.722 1.482 0.113l0.301 3.285 3.285 0.301c0.842 0.075 0.936 1.275 0.113 1.482l-5.684 1.419c-0.559 0.138-1.049-0.371-0.911-0.911l1.413-5.69zM10.35 20.655l-0.301-3.285-3.285-0.301c-0.842-0.075-0.936-1.275-0.113-1.482l5.684-1.419c0.553-0.138 1.049 0.364 0.911 0.911l-1.419 5.684c-0.195 0.829-1.394 0.735-1.476-0.107zM23.898 23.431c-1.84 1.84-4.754 3.165-7.329 3.165-1.187 0-2.299-0.283-3.203-0.923-0.615-0.433-0.546-1.369 0.126-1.708 1.777-0.917 4.013-2.663 6.142-4.792s3.875-4.371 4.792-6.142c0.339-0.66 1.269-0.747 1.715-0.126 2.029 2.845 0.446 7.832-2.242 10.526z"></path>
</svg>
