<!-- Generated by IcoMoon.io -->
<svg version="1.1" xmlns="http://www.w3.org/2000/svg" width="20" height="32" viewBox="0 0 20 32">
<title>grip-vertical</title>
<path d="M6.029 1.543h-4.020c-1.11 0-2.010 0.9-2.010 2.010v4.020c0 1.11 0.9 2.010 2.010 2.010h4.020c1.11 0 2.010-0.9 2.010-2.010v-4.020c0-1.11-0.9-2.010-2.010-2.010zM6.029 11.592h-4.020c-1.11 0-2.010 0.9-2.010 2.010v4.020c0 1.11 0.9 2.010 2.010 2.010h4.020c1.11 0 2.010-0.9 2.010-2.010v-4.020c0-1.11-0.9-2.010-2.010-2.010zM6.029 21.641h-4.020c-1.11 0-2.010 0.9-2.010 2.010v4.020c0 1.11 0.9 2.010 2.010 2.010h4.020c1.11 0 2.010-0.9 2.010-2.010v-4.020c0-1.11-0.9-2.010-2.010-2.010zM18.088 1.543h-4.020c-1.11 0-2.010 0.9-2.010 2.010v4.020c0 1.11 0.9 2.010 2.010 2.010h4.020c1.11 0 2.010-0.9 2.010-2.010v-4.020c0-1.11-0.9-2.010-2.010-2.010zM18.088 11.592h-4.020c-1.11 0-2.010 0.9-2.010 2.010v4.020c0 1.11 0.9 2.010 2.010 2.010h4.020c1.11 0 2.010-0.9 2.010-2.010v-4.020c0-1.11-0.9-2.010-2.010-2.010zM18.088 21.641h-4.020c-1.11 0-2.010 0.9-2.010 2.010v4.020c0 1.11 0.9 2.010 2.010 2.010h4.020c1.11 0 2.010-0.9 2.010-2.010v-4.020c0-1.11-0.9-2.010-2.010-2.010z"></path>
</svg>
