<!-- Generated by IcoMoon.io -->
<svg version="1.1" xmlns="http://www.w3.org/2000/svg" width="16" height="32" viewBox="0 0 16 32">
<title>grip-lines-vertical</title>
<path d="M6.029 30.685v-30.147c0-0.553-0.452-1.005-1.005-1.005h-2.010c-0.553 0-1.005 0.452-1.005 1.005v30.147c0 0.553 0.452 1.005 1.005 1.005h2.010c0.553 0 1.005-0.452 1.005-1.005zM14.069 30.685v-30.147c0-0.553-0.452-1.005-1.005-1.005h-2.010c-0.553 0-1.005 0.452-1.005 1.005v30.147c0 0.553 0.452 1.005 1.005 1.005h2.010c0.553 0 1.005-0.452 1.005-1.005z"></path>
</svg>
