<!-- Generated by IcoMoon.io -->
<svg version="1.1" xmlns="http://www.w3.org/2000/svg" width="28" height="32" viewBox="0 0 28 32">
<title>grip-horizontal</title>
<path d="M6.029 17.621h-4.020c-1.11 0-2.010 0.9-2.010 2.010v4.020c0 1.11 0.9 2.010 2.010 2.010h4.020c1.11 0 2.010-0.9 2.010-2.010v-4.020c0-1.11-0.9-2.010-2.010-2.010zM16.078 17.621h-4.020c-1.11 0-2.010 0.9-2.010 2.010v4.020c0 1.11 0.9 2.010 2.010 2.010h4.020c1.11 0 2.010-0.9 2.010-2.010v-4.020c0-1.11-0.9-2.010-2.010-2.010zM26.127 17.621h-4.020c-1.11 0-2.010 0.9-2.010 2.010v4.020c0 1.11 0.9 2.010 2.010 2.010h4.020c1.11 0 2.010-0.9 2.010-2.010v-4.020c0-1.11-0.9-2.010-2.010-2.010zM6.029 5.562h-4.020c-1.11 0-2.010 0.9-2.010 2.010v4.020c0 1.11 0.9 2.010 2.010 2.010h4.020c1.11 0 2.010-0.9 2.010-2.010v-4.020c0-1.11-0.9-2.010-2.010-2.010zM16.078 5.562h-4.020c-1.11 0-2.010 0.9-2.010 2.010v4.020c0 1.11 0.9 2.010 2.010 2.010h4.020c1.11 0 2.010-0.9 2.010-2.010v-4.020c0-1.11-0.9-2.010-2.010-2.010zM26.127 5.562h-4.020c-1.11 0-2.010 0.9-2.010 2.010v4.020c0 1.11 0.9 2.010 2.010 2.010h4.020c1.11 0 2.010-0.9 2.010-2.010v-4.020c0-1.11-0.9-2.010-2.010-2.010z"></path>
</svg>
