<!-- Generated by IcoMoon.io -->
<svg version="1.1" xmlns="http://www.w3.org/2000/svg" width="24" height="32" viewBox="0 0 24 32">
<title>gripfire</title>
<path d="M10.79 31.175c0-0.333 0.301-0.766 0.301-1.401 0-0.955-0.816-2.506-4.905-5.439-2.154-1.828-4.177-3.674-4.177-6.802 0-7.204 9.239-11.085 9.239-16.87 0-0.207-0.012-0.421-0.038-0.628 0.32 0.151 2.456 2.72 2.456 5.678 0 5.056-6.601 8.115-6.601 12.75 0 1.69 1.043 2.964 2.048 4.365 1.413 1.897 2.776 3.574 2.776 5.433-0.006 0.911-0.276 1.865-1.099 2.914zM19.96 16.013c0.094 0.527 0.138 1.043 0.138 1.545 0 3.253-1.847 6.124-4.227 8.592-0.063 0.063-0.138 0.151-0.201 0.151-0.226 0-2.23-2.613-2.23-3.341 0 0 2.625-3.498 2.625-6.086 0-0.678-0.17-1.363-0.572-2.098-0.094 2.029-3.498 5.508-3.649 5.508-0.17 0-1.124-1.382-1.124-2.644 0-0.333 0.063-0.672 0.201-0.992 0.151-0.345 3.555-4.522 3.555-7.329 0-0.389-0.063-0.754-0.214-1.074l-0.251-0.452c1.049 0.408 5.188 4.026 5.948 8.221z"></path>
</svg>
