<!-- Generated by IcoMoon.io -->
<svg version="1.1" xmlns="http://www.w3.org/2000/svg" width="24" height="32" viewBox="0 0 24 32">
<title>grunt</title>
<path d="M3.85 11.422c-0.069 0.628 0.327 1.2 0.327 1.2 0.044-0.471 0.138-0.804 0.251-1.043 0.025 0.647 0.201 1.476 0.804 2.142 0.433 0.477 2.236 1.463 3.448 0.383 0.063 0.151 0.132 0.333 0.188 0.534 0.182 0.647-0.17 1.589-0.17 1.589s0.948-1.074 0.873-2.041c0.678-0.031 1.344-0.527 1.325-1.225 0 0-1.187 0.653-2.23-0.553-0.609-0.703-2.569-2.638-5.219-1.997 0.27 0.063 0.559 0.151 0.848 0.258h-0.006c-0.264 0.126-0.408 0.446-0.44 0.754zM5.627 11.309c1.225 0.691 2.349 1.614 2.82 2.324-0.358 0.207-1.363 0.653-2.387-0.107-0.647-0.477-0.615-1.645-0.433-2.217zM10.602 25.987c0.138 0.145 0.094 0.333 0.057 0.427-0.069 0.17-0.345 0.729-0.816 1.244-0.17 0.182-0.415 0.289-0.691 0.289-0.27 0-0.546-0.1-0.741-0.27-0.145-0.132-0.641-0.597-0.86-1.168-0.082-0.214-0.063-0.383 0.057-0.509 0.082-0.082 0.251-0.182 0.597-0.182h1.847c0.258 0 0.44 0.057 0.553 0.17zM14.552 14.186c-0.075 0.973 0.873 2.041 0.873 2.041s-0.352-0.942-0.17-1.589c0.057-0.201 0.126-0.377 0.188-0.534 1.212 1.087 3.015 0.094 3.442-0.383 0.603-0.666 0.773-1.495 0.804-2.142 0.113 0.239 0.214 0.572 0.251 1.043 0 0 0.402-0.572 0.327-1.2-0.038-0.314-0.182-0.628-0.44-0.741h-0.006c0.289-0.113 0.578-0.201 0.848-0.258-2.657-0.641-4.61 1.294-5.219 1.997-1.049 1.206-2.23 0.553-2.23 0.553-0.012 0.685 0.653 1.187 1.332 1.212zM15.67 13.633c0.471-0.716 1.595-1.633 2.82-2.324 0.188 0.572 0.214 1.74-0.44 2.223-1.024 0.76-2.022 0.314-2.38 0.1-0.006 0.006 0 0 0 0zM16.518 26c0.119 0.119 0.138 0.289 0.057 0.496-0.22 0.559-0.716 1.011-0.86 1.137-0.195 0.163-0.465 0.264-0.741 0.264s-0.521-0.1-0.691-0.283c-0.471-0.503-0.754-1.049-0.816-1.212-0.038-0.094-0.082-0.276 0.057-0.421 0.107-0.113 0.295-0.17 0.559-0.17h1.847c0.339 0.006 0.509 0.107 0.59 0.188zM10.344 10.204c0.622 0.377 1.181 0.509 1.715 0.521 0.534-0.012 1.093-0.145 1.715-0.521 0 0-0.911 1.112-1.708 1.118h-0.012c-0.798-0.012-1.708-1.118-1.708-1.118zM21.932 19.461c-0.151 1.124-0.816 2.123-1.545 2.745-0.195-1.426-0.232-3.486-0.232-3.919 0-0.923 0.597-1.539 0.766-1.639 0.157-0.094 0.339-0.188 0.521-0.289 1.13-0.603 2.537-1.357 2.537-2.745 0-1.018-0.584-1.457-0.967-1.746-0.050-0.038-0.094-0.069-0.138-0.107-0.132-0.107-0.232-0.188-0.27-0.276-0.276-0.615-0.226-2.148-0.107-2.362 0.038-0.038 1.049-1.313 0.741-2.462-0.126-0.465-0.433-0.835-0.886-1.068-0.333-0.17-0.747-0.264-1.225-0.283-0.006-0.126-0.031-0.245-0.057-0.371-0.038-0.163-0.069-0.333-0.057-0.509 0.025-0.295 0.050-0.565 0.138-0.71 0.527-0.835 1.809-1.105 1.821-1.105l0.773-0.151-0.509-0.597c-0.006-0.012-1.087-1.099-2.908-1.099-0.496 0-1.005 0.082-1.514 0.245-1.52 0.49-2.694 1.916-3.103 2.468-0.195-0.063-0.396-0.119-0.603-0.17-0.264-0.992 0.565-2.418 0.565-2.418s-0.854-0.188-2.117 0.955c-0.163-0.408-0.509-1.288-0.113-2.336-1.853 0.653-2.317 1.652-2.456 2.556-0.477-0.339-0.421-1.451-0.452-1.733-0.471 0.057-1.834 1.375-1.771 3.034-0.126 0.031-0.245 0.069-0.371 0.107-0.408-0.553-1.576-1.978-3.103-2.468-0.496-0.138-1.005-0.22-1.501-0.22-1.821 0-2.895 1.087-2.908 1.099l-0.509 0.59 0.772 0.151c0.012 0 1.294 0.27 1.821 1.105 0.088 0.138 0.113 0.415 0.138 0.71 0.013 0.176-0.025 0.345-0.057 0.509-0.025 0.119-0.050 0.245-0.057 0.371-0.484 0.019-0.892 0.113-1.225 0.283-0.452 0.232-0.76 0.603-0.886 1.068-0.314 1.143 0.703 2.418 0.741 2.462 0.119 0.214 0.17 1.746-0.107 2.362-0.038 0.088-0.138 0.17-0.27 0.276-0.044 0.031-0.088 0.069-0.138 0.107-0.383 0.289-0.967 0.735-0.967 1.746 0 1.388 1.407 2.142 2.537 2.745 0.188 0.1 0.364 0.195 0.521 0.289 0.17 0.1 0.766 0.716 0.766 1.639 0 0.433-0.038 2.493-0.232 3.919-0.729-0.622-1.394-1.627-1.545-2.751 0 0-1.834 1.419-1.294 4.447 0.327 1.853 1.457 2.895 2.952 3.435 0.553 1.2 1.847 2.87 4.227 3.115 0.904 0.741 2.16 1.225 3.994 1.225h0.012c1.828 0 3.084-0.484 3.994-1.225 2.38-0.245 3.674-1.916 4.227-3.115 1.495-0.546 2.619-1.583 2.952-3.435 0.515-3.040-1.325-4.453-1.325-4.453zM19.2 1.901c0.352-0.113 0.729-0.17 1.112-0.17 0.691 0 1.25 0.188 1.551 0.314-0.195 0.088-0.402 0.201-0.609 0.333-0.151-0.025-0.352-0.050-0.578-0.050-0.66 0-1.288 0.195-1.802 0.559-0.773 0.546-1.13 1.061-1.3 1.407-0.138-0.082-0.283-0.157-0.446-0.232-0.1-0.050-0.195-0.094-0.295-0.138 0.383-0.572 1.25-1.664 2.368-2.022zM20.519 3.044c-0.050 0.063-0.1 0.132-0.145 0.201-0.207 0.327-0.245 0.729-0.276 1.118-0.031 0.402-0.069 0.785-0.276 1.068-0.264 0.050-0.509 0.107-0.722 0.17-0.145-0.195-0.352-0.44-0.66-0.703 0.088-0.301 0.345-1.011 0.848-1.413 0.352-0.27 0.766-0.421 1.231-0.44zM2.864 2.378c-0.207-0.138-0.415-0.251-0.609-0.333 0.301-0.126 0.86-0.314 1.551-0.314 0.383 0 0.754 0.057 1.112 0.17 1.118 0.364 1.985 1.457 2.368 2.016-0.1 0.044-0.201 0.088-0.301 0.138-0.157 0.075-0.308 0.157-0.446 0.232-0.163-0.339-0.521-0.86-1.3-1.407-0.521-0.364-1.143-0.559-1.809-0.559-0.214 0.006-0.415 0.031-0.565 0.057zM5.671 4.897c-0.308 0.264-0.521 0.502-0.66 0.703-0.214-0.057-0.458-0.119-0.722-0.17-0.207-0.276-0.239-0.66-0.27-1.061-0.031-0.389-0.069-0.791-0.276-1.118-0.044-0.069-0.094-0.138-0.144-0.201 0.465 0.019 0.879 0.163 1.225 0.44 0.502 0.396 0.76 1.105 0.848 1.407zM3.649 15.856c-0.17-0.1-0.352-0.195-0.527-0.289-0.936-0.502-1.897-1.024-1.897-1.916 0-0.697 0.27-0.917 0.559-1.143l0.031-0.025c0.044-0.038 0.088-0.075 0.138-0.113-0.057 0.452-0.119 0.835-0.17 0.936 0 0 0.76-0.942 0.986-2.782 0.088-0.722-0.069-2.154-0.32-2.701 0.013 0.308 0 0.615-0.019 0.904-0.025-0.050-0.050-0.1-0.082-0.138-0.201-0.251-0.741-1.099-0.59-1.671 0.057-0.22 0.195-0.377 0.421-0.49 0.239-0.119 0.553-0.182 0.948-0.182 0.772 0 1.627 0.232 2.066 0.377 1.576 0.502 3.479 1.941 4.026 2.368 0.012 0.012 0.025 0.019 0.025 0.019l0.352 0.245-0.22-0.364c-0.012-0.019-1.2-1.972-3.341-2.92 0.126-0.182 0.465-0.509 1.357-0.948 1.344-0.66 2.92-0.992 4.667-0.992 1.752 0 3.322 0.333 4.666 0.992 0.892 0.433 1.231 0.766 1.357 0.948-2.135 0.948-3.322 2.902-3.335 2.92l-0.22 0.364 0.352-0.245s0.012-0.006 0.025-0.019c0.546-0.427 2.449-1.872 4.026-2.368 0.44-0.138 1.294-0.377 2.066-0.377 0.396 0 0.71 0.063 0.948 0.182 0.22 0.113 0.358 0.276 0.421 0.49 0.157 0.572-0.383 1.419-0.59 1.671-0.031 0.038-0.057 0.082-0.082 0.138-0.019-0.289-0.031-0.597-0.019-0.904-0.251 0.553-0.408 1.978-0.32 2.701 0.226 1.84 0.986 2.782 0.986 2.782-0.050-0.1-0.113-0.484-0.17-0.936 0.044 0.038 0.094 0.075 0.138 0.113l0.031 0.025c0.289 0.232 0.559 0.446 0.559 1.143 0 0.892-0.967 1.413-1.897 1.916-0.182 0.094-0.358 0.195-0.527 0.289-0.546 0.314-1.13 1.049-1.2 2.148-0.057 0.917 0.057 3.134 0.214 4.767-0.779 0.301-1.677 0.402-2.493 0.427-0.126-0.258-0.245-0.534-0.345-0.823-0.044-0.126-1.231-3.209-1.658-3.907 0.345 2.449 1.099 4.629 1.476 5.627-0.22-0.031-0.458-0.044-0.735-0.044h-7.348c-0.276 0-0.521 0.019-0.735 0.044 0.377-0.999 1.137-3.178 1.476-5.627-0.427 0.703-1.614 3.787-1.658 3.907-0.1 0.289-0.22 0.565-0.345 0.823-0.816-0.025-1.708-0.126-2.493-0.427 0.157-1.633 0.27-3.844 0.214-4.767-0.057-1.093-0.647-1.834-1.193-2.148zM2.186 24.944c-0.76-1.256-0.546-3.398-0.232-3.712 0.685 2.16 2.964 2.782 4.673 2.851-0.17 0.264-0.327 0.477-0.44 0.628l-0.088 0.088c-0.452 0.49-0.54 1.162-0.258 1.997-1.426-0.006-2.908-0.615-3.655-1.853zM5.056 27.676c0.377 0.069 0.766 0.119 1.168 0.151 0.22 0.503 0.465 0.999 0.772 1.451-0.904-0.371-1.532-1.005-1.941-1.602zM12.059 30.823c-3.806-0.006-4.918-2.877-5.332-4.064-0.232-0.66-0.214-1.143 0.057-1.451 0.182-0.207 0.597-0.452 1.545-0.452h7.461c0.948 0 1.369 0.245 1.545 0.452 0.264 0.301 0.283 0.791 0.057 1.451-0.415 1.181-1.526 4.057-5.332 4.064zM17.121 29.278c0.308-0.452 0.553-0.948 0.773-1.451 0.402-0.031 0.791-0.082 1.168-0.151-0.408 0.597-1.036 1.231-1.941 1.602zM21.932 24.944c-0.754 1.237-2.236 1.84-3.649 1.865 0.283-0.835 0.195-1.514-0.258-1.997-0.025-0.031-0.057-0.063-0.088-0.094-0.113-0.151-0.27-0.364-0.44-0.628 1.708-0.075 3.988-0.691 4.673-2.851 0.314 0.314 0.527 2.456-0.239 3.706z"></path>
</svg>
