<!-- Generated by IcoMoon.io -->
<svg version="1.1" xmlns="http://www.w3.org/2000/svg" width="32" height="32" viewBox="0 0 32 32">
<title>gsm</title>
<path d="M10.843 2.361c-0.455-0.312-1.079-0.195-1.389 0.263-0.951 1.395-1.453 3.023-1.453 4.709s0.503 3.315 1.453 4.709c0.312 0.46 0.939 0.572 1.389 0.263 0.456-0.311 0.575-0.933 0.263-1.389-0.723-1.060-1.105-2.3-1.105-3.583s0.383-2.523 1.107-3.584c0.311-0.455 0.193-1.077-0.264-1.388zM7.556 14.488c0.453-0.315 0.567-0.937 0.252-1.391-1.183-1.707-1.808-3.7-1.808-5.764s0.625-4.057 1.808-5.764c0.315-0.453 0.201-1.077-0.252-1.391-0.453-0.315-1.076-0.203-1.391 0.252-1.416 2.041-2.165 4.429-2.165 6.903s0.749 4.861 2.165 6.903c0.313 0.452 0.936 0.568 1.391 0.252zM21.157 12.305c0.451 0.309 1.076 0.196 1.389-0.263 0.951-1.395 1.453-3.023 1.453-4.709s-0.503-3.315-1.453-4.709c-0.311-0.457-0.936-0.575-1.389-0.263-0.456 0.311-0.575 0.933-0.263 1.389 0.723 1.060 1.105 2.3 1.105 3.583s-0.383 2.523-1.107 3.584c-0.311 0.455-0.193 1.077 0.264 1.388zM25.835 14.236c1.416-2.041 2.165-4.429 2.165-6.903s-0.749-4.861-2.165-6.903c-0.313-0.453-0.937-0.565-1.391-0.252-0.453 0.315-0.567 0.937-0.252 1.391 1.183 1.707 1.808 3.7 1.808 5.764s-0.625 4.057-1.808 5.764c-0.315 0.453-0.201 1.077 0.252 1.391 0.455 0.316 1.076 0.201 1.391-0.252zM24.617 30.868c0.5-0.709 0.621-1.62 0.328-2.437l-6.711-18.64c0.669-0.611 1.099-1.481 1.099-2.457 0-1.837-1.496-3.333-3.333-3.333s-3.333 1.496-3.333 3.333c0 0.976 0.429 1.847 1.099 2.456l-6.711 18.641c-0.293 0.816-0.171 1.727 0.328 2.437 0.499 0.709 1.313 1.132 2.181 1.132h12.872c0.868 0 1.683-0.423 2.181-1.132zM12.119 22.236l6.045 2.372-8.091 3.308zM14.653 20.367l3.775-2.167 1.529 4.248zM13.703 17.837l2.297-6.38 1.511 4.195zM13.653 29.333l7.656-3.129 1.127 3.129z"></path>
</svg>
