<!-- Generated by IcoMoon.io -->
<svg version="1.1" xmlns="http://www.w3.org/2000/svg" width="32" height="32" viewBox="0 0 32 32">
<title>guitar</title>
<path d="M31.566 2.962l-2.839-2.839c-0.785-0.785-2.060-0.785-2.845 0l-4.265 4.265c-0.785 0.785-0.785 2.060 0 2.845l-3.404 3.398c-2.851-1.821-6.306-1.815-8.385 0.264-0.609 0.609-1.030 1.332-1.287 2.129-0.383 1.181-1.476 2.079-2.682 2.192-1.507 0.145-2.908 0.729-3.982 1.809-2.902 2.895-2.38 8.108 1.149 11.638s8.743 4.045 11.638 1.149c1.080-1.074 1.664-2.475 1.809-3.988 0.113-1.2 1.011-2.299 2.192-2.682 0.798-0.258 1.52-0.678 2.129-1.288 2.079-2.079 2.079-5.533 0.264-8.385l3.404-3.404c0.785 0.785 2.060 0.785 2.845 0l4.265-4.265c0.779-0.779 0.779-2.054-0.006-2.839zM13.064 21.641c-1.664 0-3.015-1.35-3.015-3.015s1.35-3.015 3.015-3.015 3.015 1.35 3.015 3.015-1.35 3.015-3.015 3.015z"></path>
</svg>
