<!-- Generated by IcoMoon.io -->
<svg version="1.1" xmlns="http://www.w3.org/2000/svg" width="16" height="32" viewBox="0 0 16 32">
<title>gulp</title>
<path d="M13.177 24.096l-0.886 1.545-0.289 5.037c0 0.559-1.777 1.011-3.963 1.011s-3.963-0.452-3.963-1.011l-0.364-4.987-0.936-1.595c2.588 1.087 7.914 1.049 10.401 0zM0.867 8.188l0.854 7.882c0.371-1.256 1.306-2.952 2.512-3.467 0.396-0.17 0.798-0.17 1.175 0.057 0.327 0.188 0.603 0.584 0.634 0.741 0.075 0.408-0.126 0.572-0.283 0.572-0.188 0-0.333-0.289-0.427-0.458-0.258-0.458-0.647-0.477-1.061-0.176-0.433 0.314-0.81 0.842-1.074 1.3-0.32 0.553-0.59 1.162-0.754 1.771-0.094 0.352-0.182 0.917-0.038 1.25 0.063 0.138 0.157 0.226 0.308 0.226 0.314 0 0.772-0.415 0.992-0.634 0.283-0.283 0.647-0.722 0.785-1.005l0.327-0.973c0.163-0.427 0.622-0.352 0.622 0 0 0.641-0.232 0.854-0.628 2.179-0.364 1.225-0.477 1.62-0.477 1.62-0.044 0.176-0.214 0.471-0.396 0.471-0.075 0-0.132-0.025-0.163-0.075-0.063-0.088-0.057-0.333-0.050-0.396 0.013-0.201 0.396-1.394 0.458-1.583-0.126 0.138-0.257 0.276-0.402 0.415-0.339 0.32-0.886 0.741-1.35 0.741-0.214 0-0.352-0.057-0.484-0.151l0.477 4.999c0.126 0.314 2.462 1.074 5.54 1.074 3.084 0 5.42-0.766 5.54-1.074l0.685-5.941c-0.358 0.327-0.773 0.729-1.231 0.93-0.339 0.145-1.093 0.239-1.093-0.358 0-0.327 0.572-0.93 0.904-1.35 0.088-0.107 0.295-0.371 0.295-0.509 0-0.182-0.377-0.138-0.735 0.157-0.201 0.17-0.389 0.396-0.546 0.609-0.27 0.377-0.415 0.703-0.534 0.973-0.389 0.892-0.258 0.54-0.572 1.382-0.314 0.835-0.264 0.741-0.327 0.879-0.057 0.119-0.138 0.22-0.251 0.283-0.119 0.063-0.283 0.057-0.383-0.019-0.057-0.038-0.082-0.119-0.082-0.232 0-0.057 0.006-0.113 0.019-0.17 0.094-0.383 0.49-1.137 0.942-2.154 0.1-0.232 0.063-0.163 0.050-0.145-0.389 0.377-0.685 0.559-0.904 0.66-0.364 0.163-0.816 0.163-0.911-0.258-0.006-0.025-0.006-0.050-0.012-0.075-0.741 0.578-1.526 0.735-1.256-0.509-0.289 0.515-0.791 0.936-1.407 0.936-0.258 0-0.446-0.088-0.54-0.32-0.144-0.345 0.082-0.936 0.289-1.495 0.107-0.283 0.251-0.622 0.446-1.018 0.1-0.214 0.264-0.339 0.477-0.283 0.038 0.012 0.069 0.025 0.1 0.044 0.163 0.113 0.1 0.283 0.019 0.452-0.239 0.471-0.446 0.816-0.584 1.306-0.057 0.207-0.126 0.565 0.094 0.565 0.151 0 0.295-0.050 0.433-0.151 0.289-0.214 0.521-0.534 0.697-0.848 0.126-0.226 0.276-0.521 0.352-0.773 0.031-0.107 0.069-0.207 0.113-0.301 0.069-0.157 0.163-0.32 0.327-0.32 0.082 0 0.151 0.031 0.201 0.094 0.107 0.138 0.082 0.283 0.025 0.433-0.126 0.352-0.295 0.666-0.433 1.049-0.082 0.22-0.17 0.503-0.17 0.735 0 0.214 0.232 0.163 0.427 0.075 0.151-0.069 0.301-0.176 0.427-0.283 0.075-0.308 0.057-0.239 1.658-4.283 0.082-0.207 0.232-0.295 0.383-0.295 0.075 0 0.138 0.025 0.201 0.069 0.107 0.082 0.107 0.258 0.063 0.389-0.044 0.119-0.038 0.082-0.283 0.66-0.327 0.76-0.54 1.306-0.829 2.004-0.119 0.289-0.484 1.187-0.546 1.401-0.038 0.138-0.082 0.364 0.063 0.364 0.339 0 1.212-0.823 1.451-1.068 0.012-0.019 0.031-0.025 0.057-0.038 0.038-0.119 0.075-0.232 0.107-0.345 0.088-0.239 0.17-0.515 0.333-0.71 0.050-0.063 0.107-0.1 0.17-0.1 0.176 0 0.264 0.075 0.264 0.251 0 0.069-0.044 0.32-0.069 0.389 0.088-0.094 0.182-0.188 0.283-0.283 0.942-0.873 1.614-0.427 1.614 0.012 0 0.465-0.559 1.112-0.867 1.47-0.1 0.119-0.308 0.339-0.314 0.402 0 0.082 0.057 0.113 0.138 0.113 0.126 0 0.402-0.22 0.502-0.295 0.314-0.245 0.741-0.622 1.043-0.886l0.93-8.592c-1.916 1.074-12.41 1.080-14.339 0.012zM15.293 7.654c0 1.319-14.521 1.319-14.521 0 0-0.553 3.253-0.999 7.26-0.999 0.565 0 1.118 0.006 1.652 0.025l0.791-3.059 3.85-4.051c0.088-0.088 0.364-0.013 0.622 0.22s0.415 0.496 0.333 0.584l-0.006 0.006-3.599 3.8-0.628 2.556c2.506 0.163 4.246 0.509 4.246 0.917zM10.935 7.943c0-0.050-0.057-0.094-0.157-0.132l-0.012 0.050c0 0.082-0.314 0.151-0.697 0.151s-0.697-0.069-0.697-0.151c0-0.006 0-0.013 0.006-0.019l0.012-0.044c-0.113 0.038-0.188 0.088-0.188 0.144 0 0.132 0.389 0.232 0.86 0.232 0.484 0.006 0.873-0.1 0.873-0.232z"></path>
</svg>
