<!-- Generated by IcoMoon.io -->
<svg version="1.1" xmlns="http://www.w3.org/2000/svg" width="32" height="32" viewBox="0 0 32 32">
<title>gz-file-format-symbol</title>
<path d="M27.737 7.239c-0.002-0.148-0.049-0.293-0.15-0.408l-6.2-7.082c-0.001-0.002-0.003-0.003-0.005-0.004-0.037-0.041-0.079-0.075-0.125-0.105-0.013-0.009-0.027-0.017-0.041-0.025-0.040-0.021-0.081-0.039-0.124-0.052-0.012-0.004-0.022-0.008-0.034-0.011-0.047-0.011-0.095-0.018-0.145-0.018h-15.238c-0.695 0-1.261 0.566-1.261 1.261v29.635c0 0.696 0.566 1.261 1.261 1.261h20.807c0.696 0 1.261-0.566 1.261-1.261v-23.119c-0-0.024-0.004-0.047-0.006-0.071zM14.668 29.701c-0.502 0.171-1.452 0.406-2.403 0.406-1.314 0-2.264-0.331-2.926-0.972-0.662-0.619-1.025-1.559-1.015-2.616 0.011-2.392 1.752-3.759 4.112-3.759 0.929 0 1.644 0.182 1.997 0.352l-0.342 1.303c-0.395-0.171-0.887-0.309-1.676-0.309-1.356 0-2.381 0.769-2.381 2.328 0 1.485 0.929 2.36 2.264 2.36 0.374 0 0.673-0.042 0.801-0.107v-1.506h-1.111v-1.271h2.68v3.791zM21.076 30.033h-5.596v-0.876l3.428-4.934v-0.042h-3.108v-1.346h5.222v0.939l-3.353 4.87v0.042h3.407v1.346h-0.001zM5.675 20.945v-20.151h14.607v6.452c0 0.348 0.282 0.631 0.631 0.631h5.569l0.001 13.068h-20.808zM14.383 13.215l-3.355-0.948v3.345l4.983 1.533v-7.571l-0.705 1.604zM16.905 11.208l-0.605-1.539v7.475l4.983-1.533v-3.809l-3.642 1.030zM16.445 8.917l1.457 3.215 4.245-1.2-1.229-2.246 0.001-0.012-0.008-0.001-0.007-0.014-0.1 0.006-4.598-0.354-5.523 0.354-0.109-0.006-0.008 0.014-0.010 0.001 0.001 0.016-1.372 2.509 4.743 1.342 1.63-3.594-2.494-0.144 3.14-0.202 2.444 0.189z"></path>
</svg>
