<!-- Generated by IcoMoon.io -->
<svg version="1.1" xmlns="http://www.w3.org/2000/svg" width="32" height="32" viewBox="0 0 32 32">
<title>gzip-file-format-variant</title>
<path d="M27.737 7.239c-0.002-0.147-0.049-0.293-0.151-0.408l-6.2-7.082c-0.002-0.002-0.004-0.003-0.005-0.004-0.037-0.042-0.080-0.075-0.126-0.105-0.013-0.009-0.027-0.017-0.041-0.025-0.039-0.022-0.081-0.039-0.124-0.052-0.012-0.003-0.022-0.008-0.034-0.011-0.047-0.011-0.095-0.018-0.145-0.018h-15.237c-0.695 0-1.261 0.566-1.261 1.261v29.635c0 0.695 0.566 1.261 1.261 1.261h20.807c0.695 0 1.261-0.566 1.261-1.261v-23.119c-0-0.024-0.004-0.047-0.006-0.071zM11.862 28.943c-0.453 0.154-1.31 0.366-2.168 0.366-1.185 0-2.043-0.298-2.64-0.877-0.597-0.558-0.925-1.406-0.916-2.36 0.010-2.159 1.581-3.392 3.71-3.392 0.839 0 1.485 0.164 1.802 0.318l-0.309 1.176c-0.357-0.154-0.8-0.279-1.513-0.279-1.224 0-2.149 0.694-2.149 2.1 0 1.339 0.839 2.13 2.043 2.13 0.337 0 0.607-0.039 0.723-0.097v-1.358h-1.002v-1.147h2.419v3.421zM17.645 29.242h-5.049v-0.79l3.093-4.452v-0.039h-2.804v-1.214h4.712v0.848l-3.026 4.394v0.038h3.074v1.215h0zM20.045 29.242h-1.474v-6.495h1.474v6.495zM25.383 26.265c-0.501 0.472-1.242 0.684-2.11 0.684-0.193 0-0.366-0.009-0.502-0.029v2.322h-1.455v-6.408c0.454-0.077 1.089-0.135 1.985-0.135 0.906 0 1.551 0.174 1.985 0.52 0.414 0.327 0.694 0.867 0.694 1.504-0 0.636-0.213 1.175-0.598 1.542zM5.675 20.944v-20.15h14.607v6.452c0 0.348 0.283 0.631 0.631 0.631h5.57v13.068h-20.807zM23.379 23.808c-0.299 0-0.501 0.029-0.607 0.058v1.917c0.125 0.029 0.28 0.039 0.492 0.039 0.78 0 1.262-0.395 1.262-1.060 0-0.597-0.414-0.954-1.147-0.954zM14.109 13.593l-3.355-0.949v3.345l4.983 1.533v-7.571l-0.705 1.604zM16.631 11.586l-0.605-1.539v7.475l4.983-1.533v-3.809l-3.642 1.030zM20.645 9.053l-0.008-0.001-0.007-0.014-0.1 0.006-4.598-0.354-5.522 0.355-0.109-0.006-0.008 0.014-0.010 0.001 0.001 0.016-1.372 2.509 4.743 1.341 1.63-3.594-2.494-0.144 3.14-0.202 2.444 0.189-2.203 0.127 1.457 3.216 4.245-1.201-1.229-2.246z"></path>
</svg>
