<!-- Generated by IcoMoon.io -->
<svg version="1.1" xmlns="http://www.w3.org/2000/svg" width="28" height="32" viewBox="0 0 28 32">
<title>h-square</title>
<path d="M28.137 4.557v22.108c0 1.665-1.35 3.015-3.015 3.015h-22.108c-1.665 0-3.015-1.35-3.015-3.015v-22.108c0-1.665 1.35-3.015 3.015-3.015h22.108c1.665 0 3.015 1.35 3.015 3.015zM21.103 7.572h-2.010c-0.555 0-1.005 0.45-1.005 1.005v5.024h-8.039v-5.024c0-0.555-0.45-1.005-1.005-1.005h-2.010c-0.555 0-1.005 0.45-1.005 1.005v14.069c0 0.555 0.45 1.005 1.005 1.005h2.010c0.555 0 1.005-0.45 1.005-1.005v-5.024h8.039v5.024c0 0.555 0.45 1.005 1.005 1.005h2.010c0.555 0 1.005-0.45 1.005-1.005v-14.069c0-0.555-0.45-1.005-1.005-1.005z"></path>
</svg>
