<!-- Generated by IcoMoon.io -->
<svg version="1.1" xmlns="http://www.w3.org/2000/svg" width="28" height="32" viewBox="0 0 28 32">
<title>hacker-news-square</title>
<path d="M25.122 1.543h-22.108c-1.664 0-3.015 1.35-3.015 3.015v22.108c0 1.664 1.35 3.015 3.015 3.015h22.108c1.664 0 3.015-1.35 3.015-3.015v-22.108c0-1.664-1.35-3.015-3.015-3.015zM1.331 13.928h-0.012c0.006-0.006 0.012-0.019 0.019-0.025 0 0.006 0 0.019-0.006 0.025zM15.023 17.313v6.337h-1.972v-6.45l-5.012-9.628h2.343c3.297 6.174 3.090 6.356 3.724 7.888 0.772-1.696 0.364-1.533 3.806-7.888h2.186l-5.075 9.741z"></path>
</svg>
