<!-- Generated by IcoMoon.io -->
<svg version="1.1" xmlns="http://www.w3.org/2000/svg" width="29" height="32" viewBox="0 0 29 32">
<title>hackerrank</title>
<path d="M28.483 7.572c-0.91-1.567-12.082-8.039-13.902-8.039s-12.995 6.456-13.9 8.039-0.91 14.496 0 16.079c0.91 1.583 12.083 8.039 13.9 8.039s12.991-6.464 13.901-8.039c0.909-1.575 0.91-14.511 0.001-16.078zM18.348 25.549c-0.249 0-2.569-2.247-2.387-2.43 0.055-0.055 0.393-0.093 1.102-0.115 0-1.647 0.037-4.308 0.059-5.421 0.003-0.127-0.028-0.215-0.028-0.367h-5.020c0 0.446-0.029 2.274 0.086 4.577 0.014 0.285-0.099 0.374-0.36 0.373-0.636-0.002-1.273-0.007-1.91-0.005-0.258 0.001-0.369-0.096-0.36-0.384 0.058-2.1 0.186-5.277-0.009-13.357v-0.199c-0.607-0.022-1.029-0.060-1.084-0.116-0.183-0.183 2.169-2.43 2.417-2.43s2.586 2.247 2.404 2.43c-0.055 0.055-0.496 0.094-1.053 0.116v0.198c-0.152 1.617-0.127 4.999-0.165 6.619h5.041c0-0.286 0.025-2.182-0.075-5.253-0.006-0.213 0.060-0.325 0.264-0.327 0.695-0.005 1.391-0.008 2.087-0.004 0.217 0.001 0.287 0.108 0.283 0.338-0.229 12.014-0.041 11.176-0.041 13.211 0.557 0.022 1.056 0.060 1.111 0.116 0.181 0.183-2.112 2.43-2.36 2.43z"></path>
</svg>
