<!-- Generated by IcoMoon.io -->
<svg version="1.1" xmlns="http://www.w3.org/2000/svg" width="36" height="32" viewBox="0 0 36 32">
<title>hammer</title>
<path d="M35.882 11.714l-1.421-1.421c-0.392-0.393-1.029-0.393-1.421 0l-0.71 0.71-1.815-1.815c0.354-1.338 0.023-2.82-1.027-3.87l-2.842-2.842c-3.924-3.924-10.287-3.924-14.212 0l5.685 2.842v1.178c0 1.066 0.423 2.088 1.178 2.842l3.086 3.086c1.050 1.050 2.531 1.38 3.869 1.027l1.815 1.815-0.71 0.71c-0.392 0.393-0.392 1.029 0 1.421l1.421 1.421c0.392 0.392 1.029 0.392 1.421 0l5.685-5.685c0.391-0.392 0.391-1.028-0.001-1.421zM17.874 10.759c-0.232-0.232-0.43-0.489-0.619-0.75l-16.022 14.959c-1.606 1.5-1.649 4.032-0.096 5.585s4.086 1.51 5.585-0.096l14.956-16.020c-0.249-0.183-0.496-0.369-0.718-0.591l-3.086-3.086z"></path>
</svg>
