<!-- Generated by IcoMoon.io -->
<svg version="1.1" xmlns="http://www.w3.org/2000/svg" width="32" height="32" viewBox="0 0 32 32">
<title>hamsa</title>
<path d="M31.99 18.83c-0.318-0.734-1.042-1.209-1.843-1.209h-4.020v-13.064c0-1.382-1.13-2.512-2.512-2.512s-2.512 1.13-2.512 2.512v8.416c0 0.347-0.281 0.628-0.628 0.628h-1.256c-0.347 0-0.628-0.281-0.628-0.628v-10.928c0-1.382-1.13-2.512-2.512-2.512s-2.512 1.13-2.512 2.512v10.928c0 0.347-0.281 0.628-0.628 0.628h-1.256c-0.347 0-0.628-0.281-0.628-0.628v-8.416c0-1.382-1.13-2.512-2.512-2.512s-2.512 1.13-2.512 2.512v13.064h-4.020c-0.801 0-1.525 0.475-1.843 1.209-0.106 0.236-0.167 0.512-0.167 0.802 0 0.53 0.205 1.012 0.541 1.371l-0.001-0.001 6.45 6.911c2.241 2.4 5.552 3.777 9.089 3.777s6.848-1.377 9.089-3.777l6.449-6.911c0.335-0.358 0.54-0.84 0.54-1.37 0-0.29-0.062-0.566-0.172-0.814l0.005 0.013zM16.078 25.66c-3.33 0-6.029-4.020-6.029-4.020s2.699-4.020 6.029-4.020 6.029 4.020 6.029 4.020-2.699 4.020-6.029 4.020zM16.078 19.631c-1.11 0-2.010 0.9-2.010 2.010s0.9 2.010 2.010 2.010 2.010-0.9 2.010-2.010-0.9-2.010-2.010-2.010z"></path>
</svg>
