<!-- Generated by IcoMoon.io -->
<svg version="1.1" xmlns="http://www.w3.org/2000/svg" width="34" height="32" viewBox="0 0 34 32">
<title>hand-holding-usd</title>
<path d="M16.179 8.596l3.14 0.898c0.226 0.063 0.383 0.276 0.383 0.509 0 0.289-0.239 0.527-0.527 0.527h-2.060c-0.226 0-0.446-0.050-0.647-0.138-0.301-0.138-0.653-0.107-0.886 0.126l-1.099 1.099c-0.333 0.333-0.295 0.898 0.094 1.156 0.597 0.396 1.275 0.634 1.997 0.722v1.112c0 0.553 0.452 1.005 1.005 1.005h1.005c0.553 0 1.005-0.452 1.005-1.005v-1.105c1.903-0.226 3.348-1.947 3.096-3.957-0.182-1.445-1.3-2.594-2.694-2.996l-3.14-0.898c-0.226-0.063-0.383-0.276-0.383-0.509 0-0.289 0.239-0.527 0.527-0.527h2.060c0.226 0 0.446 0.050 0.647 0.138 0.301 0.138 0.653 0.107 0.886-0.126l1.099-1.099c0.333-0.333 0.295-0.898-0.094-1.156-0.597-0.396-1.275-0.634-1.997-0.722v-1.112c0-0.553-0.452-1.005-1.005-1.005h-1.005c-0.553 0-1.005 0.452-1.005 1.005v1.105c-1.903 0.226-3.348 1.947-3.096 3.957 0.182 1.445 1.3 2.594 2.694 2.996zM33.532 20.14c-0.703-0.672-1.79-0.628-2.531 0l-5.477 4.641c-0.672 0.572-1.507 0.879-2.374 0.879h-7.015c-0.521 0-0.948-0.452-0.948-1.005s0.427-1.005 0.948-1.005h4.641c0.948 0 1.821-0.685 1.972-1.671 0.195-1.256-0.722-2.349-1.872-2.349h-9.49c-1.602 0-3.153 0.584-4.39 1.652l-2.757 2.368h-3.291c-0.521 0-0.948 0.452-0.948 1.005v6.029c0 0.553 0.427 1.005 0.948 1.005h21.159c0.86 0 1.696-0.308 2.374-0.879l8.969-7.6c0.904-0.76 0.973-2.217 0.082-3.071z"></path>
</svg>
