<!-- Generated by IcoMoon.io -->
<svg version="1.1" xmlns="http://www.w3.org/2000/svg" width="36" height="32" viewBox="0 0 36 32">
<title>hand-lizard</title>
<path d="M34.963 17.781l-9.192-14.176c-0.837-1.291-2.255-2.062-3.794-2.062h-18.46c-1.939 0-3.517 1.578-3.517 3.517v0.502c0 2.77 2.254 5.024 5.024 5.024h12.313l-1.151 3.015h-7.142c-3.048 0-5.527 2.479-5.527 5.527 0 1.939 1.578 3.517 3.517 3.517h8.262c0.188 0 0.371 0.034 0.546 0.102l6.265 2.436v4.496h14.069v-7.799c0-1.459-0.419-2.877-1.213-4.1zM33.162 26.665h-8.039v-1.481c0-1.253-0.755-2.356-1.922-2.81l-6.265-2.436c-0.485-0.195-1.047-0.307-1.636-0.307-0.001 0-0.002 0-0.003 0h-8.262c-0.277 0-0.502-0.225-0.502-0.503 0-1.385 1.127-2.512 2.512-2.512h7.142c1.242 0 2.373-0.779 2.816-1.939l1.542-4.037c0.565-1.479-0.529-3.068-2.112-3.068h-13.407c-1.108 0-2.010-0.902-2.010-2.010v-0.502c0-0.277 0.225-0.502 0.502-0.502h18.46c0.513 0 0.986 0.257 1.265 0.687l9.192 14.176c0.456 0.693 0.728 1.544 0.728 2.457 0 0.001 0 0.002 0 0.003v-0 4.784z"></path>
</svg>
