<!-- Generated by IcoMoon.io -->
<svg version="1.1" xmlns="http://www.w3.org/2000/svg" width="32" height="32" viewBox="0 0 32 32">
<title>hand-spock1</title>
<path d="M0.683 19.416c0.951-1.010 2.541-1.059 3.551-0.108l3.805 3.581v-4.987l-2.45-10.779c-0.308-1.353 0.54-2.699 1.893-3.007s2.699 0.54 3.007 1.893l2.182 9.601h0.618l-2.987-13.003c-0.311-1.352 0.534-2.7 1.886-3.011s2.7 0.534 3.011 1.886l3.246 14.128h0.949l3.041-12.166c0.336-1.346 1.7-2.164 3.047-1.828s2.165 1.7 1.828 3.047l-2.737 10.947h0.696l1.932-8.119c0.321-1.35 1.676-2.184 3.026-1.862s2.183 1.676 1.862 3.026l-2.279 9.576c-0.104 0.419-0.164 0.901-0.164 1.397v0 2.644c0 0.611-0.091 1.201-0.26 1.757l0.011-0.043-1.644 5.545c-0.379 1.28-1.555 2.158-2.89 2.158h-13.608c0 0 0 0 0 0-0.8 0-1.528-0.312-2.068-0.821l0.002 0.001-8.396-7.903c-1.010-0.951-1.058-2.541-0.108-3.551z"></path>
</svg>
