<!-- Generated by IcoMoon.io -->
<svg version="1.1" xmlns="http://www.w3.org/2000/svg" width="28" height="32" viewBox="0 0 28 32">
<title>hand-pointer1</title>
<path d="M28.137 14.606v6.029c0 0.194-0.022 0.387-0.067 0.575l-2.010 8.542c-0.267 1.135-1.28 1.937-2.445 1.937h-13.064c-0.832-0-1.57-0.405-2.027-1.028l-0.005-0.007-8.039-11.054c-0.816-1.122-0.568-2.693 0.554-3.509s2.693-0.568 3.509 0.554l1.988 2.733v-17.334c0-1.387 1.125-2.512 2.512-2.512s2.512 1.125 2.512 2.512v12.561h0.502v-2.512c0-1.387 1.125-2.512 2.512-2.512s2.512 1.125 2.512 2.512v2.512h0.503v-1.507c0-1.387 1.125-2.512 2.512-2.512s2.512 1.125 2.512 2.512v1.507h0.503c0-1.387 1.125-2.512 2.512-2.512s2.512 1.125 2.512 2.512zM12.059 19.631h-0.502v6.029h0.502v-6.029zM17.586 19.631h-0.503v6.029h0.503v-6.029zM23.113 19.631h-0.503v6.029h0.503v-6.029z"></path>
</svg>
