<!-- Generated by IcoMoon.io -->
<svg version="1.1" xmlns="http://www.w3.org/2000/svg" width="32" height="32" viewBox="0 0 32 32">
<title>hand-point-left</title>
<path d="M0 13.401c0 2.865 2.372 5.225 5.225 5.225h2.239c0.119 0.525 0.29 0.987 0.513 1.418l-0.015-0.033c-0.157 1.382 0.22 2.825 1.004 3.944 0.072 3.297 2.349 5.724 6.277 5.724h1.338c3.772 0 6.187-2.512 7.989-2.512h0.168c0.361 0.311 0.85 0.503 1.389 0.503h4.020c1.11 0 2.010-0.81 2.010-1.809v-14.47c0-0.999-0.9-1.809-2.010-1.809h-4.020c-0.539 0-1.028 0.191-1.389 0.502h-0.168c-0.437 0-0.933-0.389-1.896-1.486l-0.008-0.009-0.008-0.009c-0.556-0.624-1.138-1.309-1.624-2.088-1.175-1.9-1.909-4.948-4.755-4.948-3.575 0-5.778 2.216-5.778 5.225 0 0.504 0.051 0.973 0.137 1.407h-5.412c-2.832 0-5.225 2.393-5.225 5.225zM3.015 13.401c0-1.175 1.054-2.211 2.211-2.211h9.948c0-1.088-1.658-2.211-1.658-4.422 0-1.658 1.295-2.211 2.763-2.211 0.552 0 1.284 2.054 2.194 3.523 0.57 0.915 1.226 1.71 1.934 2.504 1.012 1.154 2.125 2.301 3.71 2.487v11.101c-2.688 0.236-4.68 2.492-7.537 2.492h-1.338c-2.545 0-3.588-1.394-3.178-3.852-0.918-0.503-1.517-2.134-0.812-3.368-1.216-1.145-1.117-2.913-0.311-3.834h-5.717c-1.192 0-2.211-1.019-2.211-2.211zM28.137 22.143c0.832 0 1.507 0.675 1.507 1.507s-0.675 1.507-1.507 1.507-1.507-0.675-1.507-1.507 0.675-1.507 1.507-1.507z"></path>
</svg>
