<!-- Generated by IcoMoon.io -->
<svg version="1.1" xmlns="http://www.w3.org/2000/svg" width="40" height="32" viewBox="0 0 40 32">
<title>handshake1</title>
<path d="M27.302 3.553h-5.395c-0.503 0-0.986 0.188-1.357 0.528l-6.174 5.653c-0.006 0.006-0.012 0.019-0.019 0.025-1.043 0.98-1.024 2.544-0.132 3.517 0.798 0.873 2.475 1.105 3.523 0.17 0.006-0.006 0.019-0.006 0.025-0.012l5.018-4.597c0.408-0.371 1.049-0.345 1.419 0.063 0.377 0.408 0.345 1.043-0.063 1.419l-1.639 1.501 9.145 7.424c0.182 0.151 0.345 0.314 0.496 0.484v-12.153l-3.429-3.429c-0.371-0.377-0.886-0.59-1.419-0.59zM34.167 7.585v14.062c0 1.112 0.898 2.010 2.010 2.010h4.020v-16.072h-6.029zM37.181 21.647c-0.553 0-1.005-0.452-1.005-1.005s0.452-1.005 1.005-1.005 1.005 0.452 1.005 1.005-0.452 1.005-1.005 1.005zM0 23.651h4.020c1.112 0 2.010-0.898 2.010-2.010v-14.056h-6.029v16.066zM3.015 19.637c0.553 0 1.005 0.452 1.005 1.005s-0.452 1.005-1.005 1.005-1.005-0.452-1.005-1.005c0-0.559 0.452-1.005 1.005-1.005zM30.392 20.805l-9.377-7.612-1.884 1.727c-1.865 1.702-4.723 1.539-6.387-0.276-1.69-1.847-1.558-4.704 0.276-6.387l5.138-4.704h-5.263c-0.534 0-1.043 0.214-1.419 0.59l-3.435 3.429v14.062h1.149l5.684 5.144c1.721 1.401 4.252 1.137 5.653-0.584l0.012-0.012 1.124 0.973c0.999 0.816 2.475 0.66 3.285-0.339l1.972-2.424 0.339 0.276c0.86 0.697 2.129 0.572 2.826-0.295l0.597-0.735c0.703-0.867 0.572-2.129-0.289-2.833z"></path>
</svg>
