<!-- Generated by IcoMoon.io -->
<svg version="1.1" xmlns="http://www.w3.org/2000/svg" width="36" height="32" viewBox="0 0 36 32">
<title>hand-lizard1</title>
<path d="M24.118 29.68h12.059v-7.299c0 0 0 0 0-0 0-1.194-0.347-2.307-0.946-3.244l0.014 0.024-10.24-16.213c-0.543-0.85-1.481-1.405-2.549-1.405h-20.949c-0.833 0-1.507 0.675-1.507 1.507v1.005c0 1.942 1.575 3.517 3.517 3.517h14.444c0.807 0 1.354 0.821 1.044 1.565l-1.345 3.227c-0.311 0.732-1.024 1.237-1.855 1.237h-7.766c-2.22 0-4.020 1.8-4.020 4.020v0.503c0 0.832 0.675 1.507 1.507 1.507h9.258c0 0 0 0 0 0 0.599 0 1.157 0.174 1.626 0.475l-0.012-0.007 7.018 4.447c0.424 0.272 0.701 0.74 0.701 1.273v0 3.86z"></path>
</svg>
