<!-- Generated by IcoMoon.io -->
<svg version="1.1" xmlns="http://www.w3.org/2000/svg" width="32" height="32" viewBox="0 0 32 32">
<title>hand-rock</title>
<path d="M25.679 4.498c-1.407-2.129-4.152-2.655-6.206-1.481-1.851-1.976-4.971-1.953-6.804-0.001-2.962-1.697-6.828 0.317-6.951 3.819-2.902-0.681-5.718 1.492-5.718 4.471v3.577c0 2.056 0.897 4.017 2.461 5.378l6.137 5.344c0.267 0.232 0.195 0.35 0.195 2.067 0 1.11 0.9 2.010 2.010 2.010h15.827c1.11 0 2.010-0.9 2.010-2.010 0-1.477-0.064-1.931 0.25-2.661l2.69-6.259c0.383-0.89 0.577-1.832 0.577-2.799v-7.188c0-3.319-3.411-5.569-6.478-4.265zM29.142 15.951c0 0.001 0 0.002 0 0.003 0 0.58-0.122 1.132-0.342 1.632l0.010-0.026-2.69 6.259c-0.328 0.764-0.495 1.573-0.495 2.402v0.444h-13.817v-0.646c0-1.028-0.448-2.008-1.23-2.689l-6.137-5.344c-0.906-0.789-1.426-1.921-1.426-3.105v-3.577c0-2.086 3.266-2.106 3.266 0.042v2.589c0 0 0 0 0 0 0 0.302 0.133 0.573 0.344 0.757l0.001 0.001 0.44 0.383c0.175 0.153 0.407 0.247 0.66 0.247 0.555 0 1.005-0.45 1.005-1.005v0-7.321c0-2.079 3.266-2.118 3.266 0.042v1.68c0 0.555 0.45 1.005 1.005 1.005h0.44c0.555 0 1.005-0.45 1.005-1.005v-2.584c0-2.081 3.266-2.115 3.266 0.042v2.541c0 0.555 0.45 1.005 1.005 1.005h0.44c0.555 0 1.005-0.45 1.005-1.005v-1.723c0-2.075 3.266-2.122 3.266 0.042v1.68c0 0.555 0.45 1.005 1.005 1.005h0.44c0.555 0 1.005-0.45 1.005-1.005 0-2.082 3.266-2.111 3.266 0.042v7.188z"></path>
</svg>
