<!-- Generated by IcoMoon.io -->
<svg version="1.1" xmlns="http://www.w3.org/2000/svg" width="28" height="32" viewBox="0 0 28 32">
<title>hand-peace1</title>
<path d="M25.625 13.099c-1.387 0-2.512 1.125-2.512 2.512h-0.503v-2.010c0-1.387-1.125-2.512-2.512-2.512s-2.512 1.125-2.512 2.512v2.010h-0.503v-13.064c0-1.665-1.35-3.015-3.015-3.015s-3.015 1.35-3.015 3.015v13.064h-0.852l-4.38-11.151c-0.609-1.55-2.359-2.312-3.908-1.704s-2.312 2.359-1.704 3.908l4.696 11.955-1.953 1.562c-0.966 0.773-1.226 2.134-0.612 3.208l4.020 7.034c0.441 0.762 1.252 1.266 2.181 1.266 0 0 0 0 0 0h15.073c1.166 0 2.178-0.802 2.445-1.937l2.010-8.542c0.042-0.173 0.067-0.371 0.067-0.575 0-0 0-0 0-0v0-5.024c0-1.387-1.125-2.512-2.512-2.512z"></path>
</svg>
