<!-- Generated by IcoMoon.io -->
<svg version="1.1" xmlns="http://www.w3.org/2000/svg" width="28" height="32" viewBox="0 0 28 32">
<title>hand-peace</title>
<path d="M22.745 11.59c-0.861-1.36-2.434-2.136-4.083-1.906v-5.504c0-2.563-2.061-4.648-4.594-4.648s-4.594 2.085-4.594 4.648l0.574 5.904-1.173-4.952c-0.926-2.406-3.61-3.583-5.974-2.634-2.354 0.944-3.503 3.627-2.588 6.007l3.502 9.102c-1.919 1.567-2.763 3.631-1.553 5.792l3.445 6.155c0.737 1.317 2.126 2.136 3.623 2.136h12.919c1.931 0 3.615-1.347 4.054-3.253l1.723-7.474c0.069-0.287 0.108-0.616 0.109-0.955v-0l0.001-4.396c0-2.823-2.717-4.858-5.392-4.021zM25.122 20.008c0 0.093-0.011 0.187-0.032 0.278l-1.723 7.474c-0.124 0.539-0.583 0.916-1.117 0.916h-12.919c-0.407 0-0.788-0.227-0.993-0.593l-3.445-6.155c-0.286-0.511-0.164-1.172 0.283-1.538l1.674-1.367c0.226-0.186 0.369-0.465 0.369-0.778 0-0.13-0.025-0.254-0.069-0.368l0.002 0.007-4.025-10.46c-0.789-2.051 2.172-3.189 2.934-1.207l3.755 9.757c0.149 0.38 0.513 0.644 0.938 0.644 0 0 0 0 0 0h0.731c0.555 0 1.005-0.45 1.005-1.005v-11.431c0-2.159 3.158-2.162 3.158 0v11.431c0 0.555 0.45 1.005 1.005 1.005h0.431c0.555 0 1.005-0.45 1.005-1.005v-1.759c0-1.578 2.297-1.58 2.297 0v1.759c0 0.555 0.45 1.005 1.005 1.005h0.431c0.555 0 1.005-0.45 1.005-1.005 0-1.578 2.297-1.58 2.297 0v4.396z"></path>
</svg>
