<!-- Generated by IcoMoon.io -->
<svg version="1.1" xmlns="http://www.w3.org/2000/svg" width="24" height="32" viewBox="0 0 24 32">
<title>hand-point-up1</title>
<path d="M8.52-0.467c1.484 0 2.753 1.297 2.753 2.814v6.271c1.071-1.026 3.126-1.152 4.456 0.396 1.434-0.897 3.33-0.135 3.914 1.033 3.086-0.564 4.476 1.378 4.476 4.56 0 0.172-0.013 0.834-0.012 1.005 0.011 3.892-1.951 4.829-2.406 7.771-0.114 0.733-0.747 1.273-1.489 1.273l-10.773-0c-1.153-0.001-2.254-0.666-2.754-1.788-0.816-1.814-3.080-5.992-4.856-6.754-1.143-0.49-1.827-1.343-1.827-2.512-0.001-2.149 2.204-3.627 4.202-2.771 0.525 0.225 1.047 0.522 1.565 0.889v-9.373c0-1.473 1.29-2.814 2.753-2.814zM8.542 25.66h12.059c0.832 0 1.507 0.675 1.507 1.507v3.015c0 0.832-0.675 1.507-1.507 1.507h-12.059c-0.832 0-1.507-0.675-1.507-1.507v-3.015c0-0.832 0.675-1.507 1.507-1.507zM19.093 27.419c-0.694 0-1.256 0.562-1.256 1.256s0.562 1.256 1.256 1.256 1.256-0.562 1.256-1.256-0.562-1.256-1.256-1.256z"></path>
</svg>
