<!-- Generated by IcoMoon.io -->
<svg version="1.1" xmlns="http://www.w3.org/2000/svg" width="40" height="32" viewBox="0 0 40 32">
<title>handshake</title>
<path d="M32.609 7.566l-2.99-2.99c-0.638-0.633-1.517-1.024-2.487-1.024 0 0-0 0-0 0h-14.244c-0.93 0-1.828 0.371-2.487 1.024l-2.99 2.99h-7.411v16.059h4.020c1.105 0 1.997-0.892 2.003-1.991h0.572l5.313 4.798c1.941 1.576 4.635 1.614 6.632 0.239 0.785 0.678 1.633 0.999 2.581 0.999 1.143 0 2.217-0.465 3.065-1.507 1.388 0.546 3.027 0.163 4.020-1.055l1.645-2.029c0.352-0.433 0.572-0.93 0.685-1.445h3.636c0.006 1.099 0.904 1.991 2.004 1.991h4.020v-16.059h-7.587zM3.015 21.616c-0.553 0-1.005-0.452-1.005-1.005s0.452-1.005 1.005-1.005 1.005 0.452 1.005 1.005c0 0.559-0.452 1.005-1.005 1.005zM27.509 21.182l-1.639 2.022c-0.176 0.214-0.49 0.251-0.71 0.075l-1.501-1.218-1.884 2.292c-0.377 0.458-0.942 0.301-1.13 0.151l-2.311-1.978-0.98 1.206c-0.873 1.074-2.462 1.237-3.473 0.415l-6.111-5.527h-1.74v-8.045h2.632l3.875-3.869c0.126-0.050 0.232-0.094 0.358-0.144h3.561l-2.431 2.23c-1.847 1.69-1.953 4.541-0.276 6.362 0.93 1.018 3.844 2.588 6.375 0.276l0.515-0.471 6.796 5.514c0.214 0.176 0.245 0.496 0.075 0.71zM34.167 18.62h-4.346c-0.145-0.176-0.308-0.339-0.484-0.484l-6.45-5.238 0.785-0.716c0.408-0.377 0.44-1.011 0.063-1.419l-0.685-0.735c-0.377-0.408-1.011-0.433-1.419-0.063l-3.467 3.178c-0.597 0.546-1.614 0.59-2.173 0-0.584-0.622-0.534-1.576 0.075-2.129l4.12-3.775c0.465-0.427 1.068-0.66 1.696-0.66l5.257-0.013c0.132 0 0.258 0.050 0.345 0.144l3.875 3.869h2.807v8.039zM37.181 21.616c-0.553 0-1.005-0.452-1.005-1.005s0.452-1.005 1.005-1.005 1.005 0.452 1.005 1.005c0 0.559-0.452 1.005-1.005 1.005z"></path>
</svg>
