<!-- Generated by IcoMoon.io -->
<svg version="1.1" xmlns="http://www.w3.org/2000/svg" width="32" height="32" viewBox="0 0 32 32">
<title>hand-point-left1</title>
<path d="M2.814 9.32h9.373c-0.367-0.518-0.664-1.040-0.889-1.565-0.856-1.998 0.622-4.203 2.771-4.202 1.169 0.001 2.023 0.684 2.512 1.827 0.761 1.777 4.94 4.040 6.754 4.856 1.122 0.5 1.787 1.6 1.788 2.754l0 0v10.773c0 0.742-0.54 1.375-1.273 1.489-2.942 0.455-3.879 2.417-7.771 2.406-0.171-0-0.832 0.012-1.005 0.012-3.181 0-5.123-1.389-4.56-4.476-1.168-0.584-1.931-2.48-1.033-3.914-1.548-1.33-1.422-3.385-0.396-4.456h-6.271c-1.517 0-2.814-1.269-2.814-2.753 0-1.462 1.341-2.753 2.814-2.753zM27.635 10.587h3.015c0.832 0 1.507 0.675 1.507 1.507v12.059c0 0.832-0.675 1.507-1.507 1.507h-3.015c-0.832 0-1.507-0.675-1.507-1.507v-12.059c0-0.832 0.675-1.507 1.507-1.507zM29.142 23.902c0.694 0 1.256-0.562 1.256-1.256s-0.562-1.256-1.256-1.256-1.256 0.562-1.256 1.256 0.562 1.256 1.256 1.256z"></path>
</svg>
