<!-- Generated by IcoMoon.io -->
<svg version="1.1" xmlns="http://www.w3.org/2000/svg" width="28" height="32" viewBox="0 0 28 32">
<title>hand-point-down</title>
<path d="M11.858 31.69c2.865 0 5.225-2.372 5.225-5.225v-2.239c0.525-0.119 0.987-0.29 1.418-0.513l-0.033 0.015c1.382 0.157 2.825-0.22 3.944-1.004 3.297-0.072 5.724-2.349 5.724-6.277v-1.338c0-3.772-2.512-6.187-2.512-7.989v-0.168c0.311-0.361 0.503-0.85 0.503-1.389v-4.020c0-1.11-0.81-2.010-1.809-2.010h-14.47c-0.999 0-1.809 0.9-1.809 2.010v4.020c0 0.539 0.191 1.028 0.502 1.389v0.168c0 0.437-0.389 0.933-1.486 1.896l-0.009 0.008-0.009 0.008c-0.624 0.556-1.309 1.138-2.088 1.624-1.9 1.175-4.948 1.909-4.948 4.755 0 3.575 2.216 5.778 5.225 5.778 0.504 0 0.973-0.051 1.407-0.137v5.412c0 2.832 2.393 5.225 5.225 5.225zM11.858 28.675c-1.175 0-2.211-1.054-2.211-2.211v-9.948c-1.088 0-2.211 1.658-4.422 1.658-1.658 0-2.211-1.295-2.211-2.763 0-0.552 2.054-1.284 3.523-2.194 0.915-0.57 1.71-1.226 2.504-1.934 1.154-1.012 2.301-2.125 2.487-3.71h11.101c0.236 2.688 2.492 4.68 2.492 7.537v1.338c0 2.545-1.394 3.588-3.852 3.178-0.503 0.918-2.134 1.517-3.368 0.812-1.145 1.216-2.913 1.117-3.834 0.311v5.717c0 1.192-1.019 2.211-2.211 2.211zM20.6 3.553c0-0.833 0.675-1.507 1.507-1.507s1.507 0.675 1.507 1.507-0.675 1.507-1.507 1.507-1.507-0.675-1.507-1.507z"></path>
</svg>
