<!-- Generated by IcoMoon.io -->
<svg version="1.1" xmlns="http://www.w3.org/2000/svg" width="40" height="32" viewBox="0 0 40 32">
<title>hands-helping</title>
<path d="M30.649 11.592h-9.547v3.517c0 2.493-2.029 4.522-4.522 4.522s-4.522-2.029-4.522-4.522v-7.637l-4.076 2.449c-1.212 0.722-1.953 2.035-1.953 3.442v2.971l-5.024 2.902c-0.961 0.553-1.294 1.784-0.735 2.745l5.024 8.705c0.553 0.961 1.784 1.288 2.745 0.735l6.494-3.75h8.579c2.217 0 4.020-1.802 4.020-4.020h1.005c1.112 0 2.010-0.898 2.010-2.010v-4.020h0.503c0.835 0 1.507-0.672 1.507-1.507v-3.015c0-0.835-0.672-1.507-1.507-1.507zM39.926 9.243l-5.024-8.705c-0.553-0.961-1.784-1.288-2.745-0.735l-6.494 3.75h-6.419c-0.754 0-1.488 0.214-2.129 0.609l-2.104 1.313c-0.59 0.364-0.942 1.011-0.942 1.702v7.932c0 1.388 1.124 2.512 2.512 2.512s2.512-1.124 2.512-2.512v-5.527h11.556c1.941 0 3.517 1.576 3.517 3.517v1.79l5.025-2.902c0.961-0.559 1.288-1.784 0.735-2.745z"></path>
</svg>
