<!-- Generated by IcoMoon.io -->
<svg version="1.1" xmlns="http://www.w3.org/2000/svg" width="24" height="32" viewBox="0 0 24 32">
<title>hand-point-down1</title>
<path d="M5.767 28.876v-9.373c-0.518 0.367-1.040 0.664-1.565 0.889-1.998 0.856-4.203-0.622-4.202-2.771 0.001-1.169 0.684-2.023 1.827-2.512 1.777-0.761 4.040-4.94 4.856-6.754 0.5-1.122 1.6-1.787 2.754-1.788l0-0h10.773c0.742 0 1.375 0.54 1.489 1.273 0.455 2.942 2.417 3.879 2.406 7.771-0 0.171 0.012 0.832 0.012 1.005 0 3.181-1.389 5.123-4.476 4.56-0.584 1.168-2.48 1.93-3.914 1.033-1.33 1.548-3.385 1.422-4.456 0.396v6.271c0 1.517-1.269 2.814-2.753 2.814-1.462 0-2.753-1.341-2.753-2.814zM7.034 4.055v-3.015c0-0.833 0.675-1.507 1.507-1.507h12.059c0.832 0 1.507 0.675 1.507 1.507v3.015c0 0.833-0.675 1.507-1.507 1.507h-12.059c-0.832 0-1.507-0.675-1.507-1.507zM20.349 2.548c0-0.694-0.562-1.256-1.256-1.256s-1.256 0.562-1.256 1.256 0.562 1.256 1.256 1.256 1.256-0.562 1.256-1.256z"></path>
</svg>
