<!-- Generated by IcoMoon.io -->
<svg version="1.1" xmlns="http://www.w3.org/2000/svg" width="32" height="32" viewBox="0 0 32 32">
<title>hand-scissors1</title>
<path d="M13.566 27.168c0-1.387 1.125-2.512 2.512-2.512v-0.503h-2.010c-1.387 0-2.512-1.125-2.512-2.512s1.125-2.512 2.512-2.512h2.010v-0.503h-13.064c-1.665 0-3.015-1.35-3.015-3.015s1.35-3.015 3.015-3.015h13.064v-0.852l-11.151-4.38c-1.55-0.609-2.312-2.359-1.704-3.908s2.359-2.312 3.908-1.704l11.955 4.696 1.562-1.953c0.773-0.966 2.134-1.226 3.208-0.612l7.034 4.020c0.762 0.441 1.266 1.252 1.266 2.181v0 15.073c0 1.166-0.802 2.178-1.937 2.445l-8.542 2.010c-0.173 0.042-0.371 0.067-0.575 0.067-0 0-0 0-0 0h-5.024c-1.387 0-2.512-1.125-2.512-2.512z"></path>
</svg>
