<!-- Generated by IcoMoon.io -->
<svg version="1.1" xmlns="http://www.w3.org/2000/svg" width="32" height="32" viewBox="0 0 32 32">
<title>hand-rock1</title>
<path d="M32.157 7.622c0-1.653-1.31-3.036-2.963-3.064-1.689-0.028-3.066 1.332-3.066 3.014h-0.503v-1.96c0-1.653-1.31-3.036-2.963-3.064-1.689-0.028-3.066 1.332-3.066 3.014v2.010h-0.503v-2.965c0-1.653-1.31-3.036-2.963-3.064-1.689-0.028-3.066 1.332-3.066 3.014v3.015h-0.502v-1.96c0-1.653-1.31-3.036-2.963-3.064-1.689-0.028-3.066 1.332-3.066 3.014v8.542l-0.503-0.447v-3.021c0-1.653-1.31-3.036-2.963-3.064-1.689-0.028-3.066 1.332-3.066 3.014v4.173c0 0 0 0 0 0 0 1.79 0.78 3.397 2.018 4.501l0.006 0.005 7.013 6.234c0.622 0.555 1.012 1.358 1.012 2.253 0 0 0 0 0 0v0 0.419c0 0.832 0.675 1.507 1.507 1.507h15.073c0.832 0 1.507-0.675 1.507-1.507v-0.183c0-0.845 0.174-1.649 0.487-2.379l-0.015 0.039 3.075-7.302c0.299-0.691 0.473-1.495 0.473-2.34 0 0 0 0 0 0v0-8.386z"></path>
</svg>
