<!-- Generated by IcoMoon.io -->
<svg version="1.1" xmlns="http://www.w3.org/2000/svg" width="28" height="32" viewBox="0 0 28 32">
<title>hand-paper</title>
<path d="M23.4 6.608v-0.68c0-2.739-2.545-4.817-5.215-4.117-1.61-3.109-5.909-2.98-7.41 0.047-2.593-0.663-5.176 1.314-5.176 4.081v7.922c-1.253-0.467-2.72-0.318-3.899 0.557-1.844 1.369-2.248 3.978-0.914 5.851l7.535 10.578c0.369 0.513 0.964 0.844 1.637 0.844h13.999c0.936 0 1.748-0.646 1.958-1.558l1.896-8.225c0.207-0.862 0.326-1.851 0.326-2.868v-8.263c0-2.551-2.231-4.522-4.737-4.168zM25.122 19.038c0 0.737-0.084 1.474-0.249 2.191l-1.716 7.446h-12.682l-7.235-10.156c-0.907-1.273 0.943-2.687 1.846-1.42l1.704 2.392c0.565 0.793 1.823 0.395 1.823-0.583v-12.969c0-1.611 2.297-1.558 2.297 0.043v9.629c0 0.555 0.45 1.005 1.005 1.005h0.431c0.555 0 1.005-0.45 1.005-1.005v-11.87c0-1.612 2.297-1.558 2.297 0.043v11.827c0 0.555 0.45 1.005 1.005 1.005h0.431c0.555 0 1.005-0.45 1.005-1.005v-9.727c0-1.612 2.297-1.558 2.297 0.043v9.684c0 0.555 0.45 1.005 1.005 1.005h0.431c0.555 0 1.005-0.45 1.005-1.005v-4.793c0-1.648 2.297-1.61 2.297-0.043v8.263z"></path>
</svg>
