<!-- Generated by IcoMoon.io -->
<svg version="1.1" xmlns="http://www.w3.org/2000/svg" width="28" height="32" viewBox="0 0 28 32">
<title>hand-paper1</title>
<path d="M25.674 7.573c-1.408-0.027-2.561 1.153-2.561 2.561v5.477h-0.503v-11.067c0-1.409-1.153-2.588-2.561-2.561-1.365 0.026-2.463 1.141-2.463 2.512v11.117h-0.503v-13.517c0-1.409-1.153-2.588-2.561-2.561-1.365 0.026-2.463 1.141-2.463 2.512v13.566h-0.502v-11.004c0-1.409-1.153-2.588-2.561-2.561-1.365 0.026-2.463 1.141-2.463 2.512v14.822l-1.988-2.733c-0.816-1.122-2.387-1.37-3.509-0.554s-1.37 2.387-0.554 3.509l7.889 10.847c0.554 0.756 1.44 1.242 2.438 1.242h12.41c1.399 0 2.614-0.962 2.935-2.324l1.665-7.076c0.204-0.83 0.321-1.782 0.321-2.762v0-9.443c0-1.371-1.098-2.486-2.463-2.512z"></path>
</svg>
