<!-- Generated by IcoMoon.io -->
<svg version="1.1" xmlns="http://www.w3.org/2000/svg" width="36" height="32" viewBox="0 0 36 32">
<title>hand-holding</title>
<path d="M35.504 20.14c-0.741-0.672-1.897-0.628-2.676 0l-5.803 4.641c-0.71 0.572-1.595 0.879-2.512 0.879h-7.43c-0.553 0-1.005-0.452-1.005-1.005s0.452-1.005 1.005-1.005h4.918c0.999 0 1.928-0.685 2.091-1.671 0.207-1.256-0.76-2.349-1.985-2.349h-10.049c-1.696 0-3.335 0.584-4.654 1.652l-2.92 2.368h-3.479c-0.553 0-1.005 0.452-1.005 1.005v6.029c0 0.553 0.452 1.005 1.005 1.005h22.409c0.911 0 1.796-0.308 2.512-0.879l9.496-7.6c0.955-0.76 1.030-2.217 0.082-3.071z"></path>
</svg>
