<!-- Generated by IcoMoon.io -->
<svg version="1.1" xmlns="http://www.w3.org/2000/svg" width="32" height="32" viewBox="0 0 32 32">
<title>hand-spock</title>
<path d="M1.325 23.512l8.108 7.632c0.359 0.338 0.844 0.546 1.377 0.546h14.923c0.89 0 1.674-0.585 1.927-1.439l1.998-6.74c0.191-0.62 0.3-1.332 0.3-2.071 0-0 0-0 0-0v0-2.314c0-0.254 0.030-0.509 0.089-0.757l1.993-8.379c0.634-2.664-1.402-5.196-4.117-5.183-0.26-1.561-1.416-2.962-3.131-3.391-2.249-0.562-4.536 0.795-5.103 3.062l-1.061 6.61-1.361-8.29c-0.52-2.265-2.783-3.679-5.044-3.159-1.86 0.427-3.149 2.034-3.259 3.85-2.678 0.052-4.613 2.548-4.024 5.14l1.95 8.574c-1.708-1.414-4.226-1.256-5.746 0.359-1.594 1.693-1.513 4.354 0.18 5.948zM3.339 19.63l0-0c0.453-0.482 1.208-0.501 1.687-0.051l3.329 3.134c0.64 0.602 1.694 0.147 1.694-0.732v-4.364c0-0.075-0.008-0.15-0.025-0.223l-2.144-9.432c-0.351-1.546 1.979-2.064 2.327-0.529l1.909 8.401c0.105 0.451 0.504 0.782 0.98 0.782 0 0 0 0 0 0h0.54c0.645 0 1.124-0.601 0.979-1.23l-2.614-11.378c-0.353-1.537 1.971-2.077 2.326-0.534l2.84 12.362c0.106 0.45 0.504 0.78 0.979 0.78 0 0 0 0 0 0h0.83c0.468 0 0.862-0.32 0.973-0.754l0.002-0.007 2.661-10.645c0.383-1.534 2.698-0.952 2.315 0.579l-2.395 9.579c-0.158 0.634 0.321 1.249 0.975 1.249h0.609c0.472 0 0.869-0.326 0.976-0.765l0.001-0.007 1.691-7.104c0.366-1.535 2.688-0.985 2.322 0.553l-1.994 8.379c-0.108 0.437-0.171 0.939-0.171 1.455v2.314c0 0.411-0.059 0.82-0.176 1.214l-1.785 6.021h-13.774l-7.819-7.359c-0.479-0.451-0.502-1.208-0.051-1.687z"></path>
</svg>
