<!-- Generated by IcoMoon.io -->
<svg version="1.1" xmlns="http://www.w3.org/2000/svg" width="28" height="32" viewBox="0 0 28 32">
<title>hand-pointer</title>
<path d="M22.496 10.798c-1.224-1.556-3.309-2.006-5.016-1.199-0.95-0.985-2.272-1.412-3.555-1.233v-4.625c0-2.32-1.868-4.208-4.163-4.208s-4.163 1.888-4.163 4.208v10.12c-1.25-0.465-2.718-0.32-3.899 0.557-1.844 1.369-2.248 3.978-0.914 5.85l6.89 9.672c0.78 1.095 2.043 1.749 3.378 1.749h11.197c1.934 0 3.616-1.35 4.055-3.253l1.723-7.474c0.069-0.287 0.108-0.616 0.108-0.955v-5.276c0-2.942-2.928-4.979-5.641-3.934zM5.086 17.1l1.704 2.392c0.565 0.793 1.823 0.395 1.823-0.583v-15.167c0-1.578 2.297-1.58 2.297 0v10.991c0 0.555 0.45 1.005 1.005 1.005h0.431c0.555 0 1.005-0.45 1.005-1.005v-2.198c0-1.578 2.297-1.58 2.297 0v2.198c0 0.555 0.45 1.005 1.005 1.005h0.431c0.555 0 1.005-0.45 1.005-1.005v-1.319c0-1.578 2.297-1.58 2.297 0v1.319c0 0.555 0.45 1.005 1.005 1.005h0.431c0.555 0 1.005-0.45 1.005-1.005 0-1.578 2.297-1.58 2.297 0v5.276c0 0.093-0.011 0.187-0.032 0.278l-1.723 7.474c-0.124 0.539-0.583 0.916-1.117 0.916h-11.197c-0.362 0-0.707-0.181-0.923-0.483l-6.891-9.672c-0.905-1.27 0.942-2.689 1.846-1.42zM11.063 24.655v-6.029c0-0.555 0.394-1.005 0.879-1.005h0.377c0.486 0 0.879 0.45 0.879 1.005v6.029c0 0.555-0.394 1.005-0.879 1.005h-0.377c-0.486 0-0.879-0.45-0.879-1.005zM15.8 24.655v-6.029c0-0.555 0.394-1.005 0.879-1.005h0.377c0.486 0 0.879 0.45 0.879 1.005v6.029c0 0.555-0.394 1.005-0.879 1.005h-0.377c-0.486 0-0.879-0.45-0.879-1.005zM20.538 24.655v-6.029c0-0.555 0.394-1.005 0.879-1.005h0.377c0.486 0 0.879 0.45 0.879 1.005v6.029c0 0.555-0.394 1.005-0.879 1.005h-0.377c-0.486 0-0.879-0.45-0.879-1.005z"></path>
</svg>
