<!-- Generated by IcoMoon.io -->
<svg version="1.1" xmlns="http://www.w3.org/2000/svg" width="36" height="32" viewBox="0 0 36 32">
<title>hand-holding-heart</title>
<path d="M17.291 15.266c0.44 0.465 1.156 0.465 1.602 0l6.84-7.172c1.985-2.085 1.872-5.54-0.352-7.461-1.934-1.677-4.817-1.375-6.588 0.484l-0.703 0.735-0.697-0.729c-1.771-1.865-4.654-2.167-6.588-0.49-2.217 1.922-2.336 5.376-0.352 7.461l6.84 7.172zM35.504 20.14c-0.741-0.672-1.897-0.628-2.676 0l-5.803 4.641c-0.71 0.572-1.595 0.879-2.512 0.879h-7.43c-0.553 0-1.005-0.452-1.005-1.005s0.452-1.005 1.005-1.005h4.918c0.999 0 1.928-0.685 2.091-1.671 0.207-1.256-0.76-2.349-1.985-2.349h-10.049c-1.696 0-3.335 0.584-4.654 1.652l-2.92 2.368h-3.479c-0.553 0-1.005 0.452-1.005 1.005v6.029c0 0.553 0.452 1.005 1.005 1.005h22.409c0.911 0 1.796-0.308 2.512-0.879l9.496-7.6c0.955-0.76 1.030-2.217 0.082-3.071z"></path>
</svg>
