<!-- Generated by IcoMoon.io -->
<svg version="1.1" xmlns="http://www.w3.org/2000/svg" width="32" height="32" viewBox="0 0 32 32">
<title>hand-scissors</title>
<path d="M16.078 29.68l4.396-0.001c0.321 0 0.643-0.037 0.955-0.109l7.474-1.723c1.907-0.439 3.253-2.123 3.253-4.054v-12.919c0-1.498-0.818-2.886-2.136-3.623l-6.155-3.445c-2.161-1.21-4.225-0.366-5.792 1.553l-9.102-3.502c-2.38-0.916-5.063 0.234-6.007 2.588-0.948 2.364 0.228 5.048 2.634 5.974l4.952 1.173-5.904-0.574c-2.563 0-4.648 2.061-4.648 4.594s2.085 4.594 4.648 4.594h5.504c-0.231 1.648 0.546 3.222 1.906 4.083-0.836 2.675 1.198 5.392 4.021 5.392zM16.078 26.664c-1.58 0-1.578-2.297 0-2.297 0.555 0 1.005-0.45 1.005-1.005v-0.431c0-0.555-0.45-1.005-1.005-1.005h-1.759c-1.58 0-1.578-2.297 0-2.297h1.759c0.555 0 1.005-0.45 1.005-1.005v-0.431c0-0.555-0.45-1.005-1.005-1.005h-11.431c-2.162 0-2.159-3.158 0-3.158h11.431c0.555 0 1.005-0.45 1.005-1.005v-0.731c0 0 0 0 0-0 0-0.425-0.264-0.789-0.637-0.935l-0.007-0.002-9.757-3.755c-1.982-0.763-0.844-3.723 1.207-2.934l10.46 4.025c0.107 0.042 0.231 0.067 0.361 0.067 0.313 0 0.593-0.143 0.777-0.367l0.001-0.002 1.367-1.674c0.365-0.448 1.027-0.569 1.538-0.283l6.155 3.445c0.366 0.205 0.593 0.585 0.593 0.993v12.919c0 0.533-0.377 0.993-0.916 1.117l-7.474 1.723c-0.084 0.020-0.179 0.032-0.278 0.032h-4.396z"></path>
</svg>
