<!-- Generated by IcoMoon.io -->
<svg version="1.1" xmlns="http://www.w3.org/2000/svg" width="40" height="32" viewBox="0 0 40 32">
<title>hands</title>
<path d="M12.863 14.004c-0.666-0.886-1.928-1.068-2.814-0.402s-1.068 1.928-0.402 2.814l2.393 3.191c0.301 0.402 0.258 0.961-0.094 1.313l-0.804 0.804c-0.421 0.421-1.105 0.389-1.482-0.069l-5.64-6.771v-9.32c0-1.112-0.898-2.010-2.010-2.010s-2.010 0.898-2.010 2.010v13.717c0 0.685 0.232 1.35 0.66 1.884l6.538 8.435c0.314 0.408 0.527 0.873 0.653 1.363 0.113 0.433 0.509 0.729 0.961 0.729h8.272c0.553 0 1.005-0.452 1.005-1.005v-7.034c0-1.74-0.565-3.429-1.608-4.823l-3.618-4.823zM38.186 3.553c-1.112 0-2.010 0.898-2.010 2.010v9.32l-5.64 6.77c-0.377 0.452-1.068 0.484-1.482 0.069l-0.804-0.804c-0.352-0.352-0.396-0.911-0.094-1.313l2.393-3.191c0.666-0.886 0.484-2.148-0.402-2.814s-2.148-0.484-2.814 0.402l-3.618 4.824c-1.043 1.394-1.608 3.084-1.608 4.823v7.034c0 0.553 0.452 1.005 1.005 1.005h8.272c0.446 0 0.848-0.295 0.961-0.729 0.126-0.49 0.339-0.955 0.653-1.363l6.538-8.435c0.427-0.534 0.66-1.2 0.66-1.884v-13.717c0-1.112-0.898-2.010-2.010-2.010z"></path>
</svg>
