<!-- Generated by IcoMoon.io -->
<svg version="1.1" xmlns="http://www.w3.org/2000/svg" width="28" height="32" viewBox="0 0 28 32">
<title>hand-point-up</title>
<path d="M6.632 4.758v5.412c-0.421-0.087-0.906-0.137-1.402-0.137-0.002 0-0.004 0-0.005 0h0c-3.009 0-5.225 2.203-5.225 5.778 0 2.846 3.048 3.58 4.948 4.755 0.78 0.486 1.465 1.067 2.088 1.624l0.009 0.008 0.009 0.008c1.098 0.962 1.487 1.458 1.487 1.896v0.168c-0.311 0.361-0.502 0.85-0.502 1.389v4.020c0 1.11 0.81 2.010 1.809 2.010h14.47c0.999 0 1.809-0.9 1.809-2.010v-4.020c0-0.539-0.191-1.028-0.503-1.389v-0.168c0-1.802 2.512-4.217 2.512-7.989v-1.338c0-3.928-2.428-6.205-5.724-6.277-1.119-0.784-2.562-1.161-3.944-1.004-0.398-0.208-0.861-0.379-1.346-0.49l-0.039-0.008v-2.239c0-2.854-2.361-5.225-5.225-5.225-2.832 0-5.225 2.393-5.225 5.225zM14.069 4.758v5.717c0.921-0.806 2.69-0.905 3.834 0.311 1.234-0.705 2.865-0.106 3.368 0.812 2.457-0.41 3.852 0.633 3.852 3.178v1.338c0 2.857-2.256 4.849-2.492 7.537h-11.101c-0.186-1.585-1.333-2.698-2.487-3.71-0.795-0.708-1.589-1.364-2.504-1.934-1.469-0.909-3.523-1.641-3.523-2.194 0-1.468 0.553-2.763 2.211-2.763 2.211 0 3.333 1.658 4.422 1.658v-9.948c0-1.157 1.036-2.211 2.211-2.211 1.192 0 2.211 1.019 2.211 2.211zM22.108 26.163c0.832 0 1.507 0.675 1.507 1.507s-0.675 1.507-1.507 1.507-1.507-0.675-1.507-1.507 0.675-1.507 1.507-1.507z"></path>
</svg>
