<!-- Generated by IcoMoon.io -->
<svg version="1.1" xmlns="http://www.w3.org/2000/svg" width="32" height="32" viewBox="0 0 32 32">
<title>hand-point-right1</title>
<path d="M32.157 12.072c0 1.484-1.297 2.753-2.814 2.753h-6.271c1.026 1.071 1.152 3.126-0.396 4.456 0.897 1.434 0.135 3.33-1.033 3.914 0.564 3.086-1.378 4.476-4.56 4.476-0.172 0-0.834-0.013-1.005-0.012-3.892 0.011-4.829-1.951-7.771-2.406-0.733-0.114-1.273-0.747-1.273-1.489v-10.773l0-0c0.001-1.153 0.666-2.254 1.788-2.754 1.814-0.816 5.993-3.080 6.754-4.856 0.49-1.143 1.343-1.827 2.512-1.827 2.149-0.001 3.627 2.204 2.771 4.202-0.225 0.525-0.522 1.047-0.889 1.565h9.373c1.473 0 2.814 1.29 2.814 2.753zM6.029 12.094v12.059c0 0.832-0.675 1.507-1.507 1.507h-3.015c-0.833 0-1.507-0.675-1.507-1.507v-12.059c0-0.832 0.675-1.507 1.507-1.507h3.015c0.832 0 1.507 0.675 1.507 1.507zM4.271 22.646c0-0.694-0.562-1.256-1.256-1.256s-1.256 0.562-1.256 1.256 0.562 1.256 1.256 1.256 1.256-0.562 1.256-1.256z"></path>
</svg>
