<!-- Generated by IcoMoon.io -->
<svg version="1.1" xmlns="http://www.w3.org/2000/svg" width="40" height="32" viewBox="0 0 40 32">
<title>hanukiah</title>
<path d="M14.571 9.582c-0.278 0-0.502 0.225-0.502 0.502v7.537h2.010v-7.537c0-0.278-0.225-0.502-0.502-0.502h-1.005zM10.551 9.582c-0.278 0-0.502 0.225-0.502 0.502v7.537h2.010v-7.537c0-0.278-0.225-0.502-0.502-0.502h-1.005zM24.62 9.582c-0.278 0-0.503 0.225-0.503 0.502v7.537h2.010v-7.537c0-0.278-0.225-0.502-0.503-0.502h-1.005zM28.64 9.582c-0.278 0-0.503 0.225-0.503 0.502v7.537h2.010v-7.537c0-0.278-0.225-0.502-0.503-0.502h-1.005zM34.167 10.084c0-0.278-0.225-0.502-0.502-0.502h-1.005c-0.278 0-0.502 0.225-0.502 0.502v7.537h2.010v-7.537zM6.532 9.582c-0.278 0-0.502 0.225-0.502 0.502v7.537h2.010v-7.537c0-0.278-0.225-0.502-0.502-0.502h-1.005zM39.191 9.582h-2.010c-0.555 0-1.005 0.45-1.005 1.005v7.034c0 1.11-0.9 2.010-2.010 2.010h-12.059v-12.059c0-0.555-0.45-1.005-1.005-1.005h-2.010c-0.555 0-1.005 0.45-1.005 1.005v12.059h-12.059c-1.11 0-2.010-0.9-2.010-2.010v-7.034c0-0.555-0.45-1.005-1.005-1.005h-2.010c-0.555 0-1.005 0.45-1.005 1.005v7.034c0 3.33 2.699 6.029 6.029 6.029h12.059v4.020h-11.054c-0.555 0-1.005 0.45-1.005 1.005v2.010c0 0.555 0.45 1.005 1.005 1.005h26.127c0.555 0 1.005-0.45 1.005-1.005v-2.010c0-0.555-0.45-1.005-1.005-1.005h-11.054v-4.020h12.059c3.33 0 6.029-2.699 6.029-6.029v-7.034c0-0.555-0.45-1.005-1.005-1.005zM38.186 7.572c0.832 0 1.507-0.75 1.507-1.675s-1.507-3.349-1.507-3.349-1.507 2.425-1.507 3.349 0.675 1.675 1.507 1.675zM2.010 7.572c0.832 0 1.507-0.75 1.507-1.675s-1.507-3.349-1.507-3.349-1.507 2.425-1.507 3.349 0.675 1.675 1.507 1.675zM20.098 4.557c0.832 0 1.507-0.75 1.507-1.675s-1.507-3.349-1.507-3.349-1.507 2.425-1.507 3.349 0.675 1.675 1.507 1.675zM7.034 7.572c0.832 0 1.507-0.75 1.507-1.675s-1.507-3.349-1.507-3.349-1.507 2.425-1.507 3.349 0.675 1.675 1.507 1.675zM11.054 7.572c0.832 0 1.507-0.75 1.507-1.675s-1.507-3.349-1.507-3.349-1.507 2.425-1.507 3.349 0.675 1.675 1.507 1.675zM15.073 7.572c0.832 0 1.507-0.75 1.507-1.675s-1.507-3.349-1.507-3.349-1.507 2.425-1.507 3.349 0.675 1.675 1.507 1.675zM25.122 7.572c0.832 0 1.507-0.75 1.507-1.675s-1.507-3.349-1.507-3.349-1.507 2.425-1.507 3.349 0.675 1.675 1.507 1.675zM29.142 7.572c0.832 0 1.507-0.75 1.507-1.675s-1.507-3.349-1.507-3.349-1.507 2.425-1.507 3.349 0.675 1.675 1.507 1.675zM33.162 7.572c0.832 0 1.507-0.75 1.507-1.675s-1.507-3.349-1.507-3.349-1.507 2.425-1.507 3.349 0.675 1.675 1.507 1.675z"></path>
</svg>
