<!-- Generated by IcoMoon.io -->
<svg version="1.1" xmlns="http://www.w3.org/2000/svg" width="28" height="32" viewBox="0 0 28 32">
<title>hashtag</title>
<path d="M27.677 10.971l0.449-2.512c0.083-0.462-0.273-0.886-0.742-0.886h-4.699l0.918-5.143c0.083-0.462-0.273-0.886-0.742-0.886h-2.552c-0.369 0-0.677 0.266-0.741 0.617l-0.001 0.005-0.966 5.408h-6.195l0.918-5.143c0.083-0.462-0.273-0.886-0.742-0.886h-2.552c-0.369 0-0.677 0.266-0.741 0.617l-0.001 0.005-0.966 5.408h-4.968c-0.369 0-0.677 0.266-0.741 0.617l-0.001 0.005-0.449 2.512c-0.083 0.462 0.273 0.886 0.742 0.886h4.699l-1.436 8.039h-4.968c-0.369 0-0.677 0.266-0.741 0.617l-0.001 0.005-0.449 2.512c-0.083 0.462 0.273 0.886 0.742 0.886h4.699l-0.918 5.143c-0.083 0.462 0.273 0.886 0.742 0.886h2.552c0.369 0 0.677-0.266 0.741-0.617l0.001-0.005 0.966-5.408h6.195l-0.918 5.143c-0.083 0.462 0.273 0.886 0.742 0.886h2.552c0.369 0 0.677-0.266 0.741-0.617l0.001-0.005 0.966-5.408h4.968c0.369 0 0.677-0.266 0.741-0.617l0.001-0.005 0.449-2.512c0.083-0.462-0.273-0.886-0.742-0.886h-4.699l1.436-8.039h4.968c0.369 0 0.677-0.266 0.741-0.617l0.001-0.005zM16.448 19.631h-6.195l1.436-8.039h6.195l-1.436 8.039z"></path>
</svg>
