<!-- Generated by IcoMoon.io -->
<svg version="1.1" xmlns="http://www.w3.org/2000/svg" width="32" height="32" viewBox="0 0 32 32">
<title>hat-wizard</title>
<path d="M31.152 27.67h-30.147c-0.555 0-1.005 0.45-1.005 1.005v2.010c0 0.555 0.45 1.005 1.005 1.005h30.147c0.555 0 1.005-0.45 1.005-1.005v-2.010c0-0.555-0.45-1.005-1.005-1.005zM12.059 23.651l-4.020-2.010 4.020-2.010 2.010-4.020 2.010 4.020 4.020 2.010-4.020 2.010-1.005 2.010h13.064l-5.427-12.664c-0.206-0.467-0.325-1.011-0.325-1.583 0-0.455 0.076-0.892 0.215-1.3l-0.008 0.028 3.536-10.609-11.781 6.732c-1.483 0.859-2.643 2.133-3.337 3.664l-0.021 0.051-6.969 15.68h9.044l-1.005-2.010zM16.078 9.582l1.005-2.010 1.005 2.010 2.010 1.005-2.010 1.005-1.005 2.010-1.005-2.010-2.010-1.005 2.010-1.005z"></path>
</svg>
