<!-- Generated by IcoMoon.io -->
<svg version="1.1" xmlns="http://www.w3.org/2000/svg" width="32" height="32" viewBox="0 0 32 32">
<title>haykal</title>
<path d="M31.168 12.252l-6.909-0.97 2.627-6.553c0.419-1.045-0.729-2.021-1.67-1.421l-5.906 3.761-2.141-6.732c-0.17-0.537-0.63-0.805-1.090-0.805s-0.92 0.268-1.090 0.805l-2.141 6.732-5.906-3.761c-0.941-0.6-2.088 0.376-1.67 1.421l2.627 6.553-6.909 0.969c-1.102 0.155-1.362 1.65-0.379 2.178l6.165 3.307-4.678 5.247c-0.686 0.769-0.108 1.943 0.835 1.943 0.082 0 0.168-0.009 0.256-0.028l6.819-1.485-0.258 7.069c-0.027 0.732 0.557 1.207 1.156 1.207 0.323 0 0.652-0.139 0.892-0.451l4.282-5.583 4.282 5.583c0.239 0.312 0.568 0.451 0.892 0.451 0.599 0 1.183-0.475 1.156-1.207l-0.258-7.069 6.819 1.485c1.090 0.236 1.835-1.080 1.090-1.915l-4.678-5.247 6.165-3.307c0.982-0.527 0.722-2.022-0.379-2.177zM21.26 19.108l-3.259-0.71 0.124 3.378-2.047-2.669-2.047 2.669 0.123-3.378-3.259 0.71 2.236-2.508-2.947-1.581 3.302-0.463-1.255-3.132 2.823 1.797 1.024-3.218 1.023 3.218 2.823-1.797-1.255 3.132 3.302 0.463-2.947 1.581 2.237 2.508z"></path>
</svg>
