<!-- Generated by IcoMoon.io -->
<svg version="1.1" xmlns="http://www.w3.org/2000/svg" width="36" height="32" viewBox="0 0 36 32">
<title>hdd</title>
<path d="M35.636 14.333l-6.6-9.487c-0.552-0.786-1.454-1.293-2.475-1.293 0 0-0 0-0 0h-16.948c0 0-0 0-0 0-1.021 0-1.923 0.507-2.468 1.284l-0.006 0.010-6.6 9.487c-0.338 0.48-0.54 1.077-0.54 1.722v0 8.601c0 1.665 1.35 3.015 3.015 3.015h30.147c1.665 0 3.015-1.35 3.015-3.015v-8.601c0-0.616-0.188-1.216-0.54-1.722zM9.614 6.567h16.947l4.893 7.034h-26.734l4.893-7.034zM33.162 24.655h-30.147v-8.039h30.147v8.039zM31.152 20.636c0 1.11-0.9 2.010-2.010 2.010s-2.010-0.9-2.010-2.010 0.9-2.010 2.010-2.010 2.010 0.9 2.010 2.010zM25.122 20.636c0 1.11-0.9 2.010-2.010 2.010s-2.010-0.9-2.010-2.010 0.9-2.010 2.010-2.010 2.010 0.9 2.010 2.010z"></path>
</svg>
