<!-- Generated by IcoMoon.io -->
<svg version="1.1" xmlns="http://www.w3.org/2000/svg" width="36" height="32" viewBox="0 0 36 32">
<title>hdd1</title>
<path d="M36.176 18.626v6.029c0 1.665-1.35 3.015-3.015 3.015h-30.147c-1.665 0-3.015-1.35-3.015-3.015v-6.029c0-1.665 1.35-3.015 3.015-3.015h30.147c1.665 0 3.015 1.35 3.015 3.015zM33.162 13.602c0.001 0 0.003 0 0.004 0 0.696 0 1.359 0.142 1.961 0.399l-0.033-0.012-6.062-9.094c-0.548-0.814-1.467-1.342-2.508-1.342h-16.871c-1.042 0-1.96 0.528-2.502 1.332l-0.007 0.011-6.063 9.094c0.57-0.245 1.232-0.387 1.929-0.387 0.002 0 0.003 0 0.005 0h30.147zM30.147 19.631c-1.11 0-2.010 0.9-2.010 2.010s0.9 2.010 2.010 2.010 2.010-0.9 2.010-2.010-0.9-2.010-2.010-2.010zM24.118 19.631c-1.11 0-2.010 0.9-2.010 2.010s0.9 2.010 2.010 2.010 2.010-0.9 2.010-2.010-0.9-2.010-2.010-2.010z"></path>
</svg>
