<!-- Generated by IcoMoon.io -->
<svg version="1.1" xmlns="http://www.w3.org/2000/svg" width="32" height="32" viewBox="0 0 32 32">
<title>headphones-alt</title>
<path d="M10.049 17.621h-1.005c-2.22 0-4.020 1.802-4.020 4.027v4.005c0 2.224 1.799 4.027 4.020 4.027h1.005c1.11 0 2.010-0.902 2.010-2.014v-8.032c0-1.112-0.9-2.014-2.010-2.014zM23.113 17.621h-1.005c-1.11 0-2.010 0.901-2.010 2.014v8.032c0 1.112 0.9 2.014 2.010 2.014h1.005c2.22 0 4.020-1.803 4.020-4.027v-4.005c0-2.224-1.799-4.027-4.020-4.027zM16.078 1.543c-8.987 0-15.791 7.482-16.078 16.078v7.034c0 0.555 0.45 1.005 1.005 1.005h1.005c0.555 0 1.005-0.45 1.005-1.005v-7.034c0-7.202 5.862-13.051 13.064-13.052 7.202 0.001 13.064 5.85 13.064 13.052v7.034c0 0.555 0.45 1.005 1.005 1.005h1.005c0.555 0 1.005-0.45 1.005-1.005v-7.034c-0.287-8.596-7.091-16.078-16.078-16.078z"></path>
</svg>
