<!-- Generated by IcoMoon.io -->
<svg version="1.1" xmlns="http://www.w3.org/2000/svg" width="32" height="32" viewBox="0 0 32 32">
<title>headphones</title>
<path d="M16.078 1.543c-8.886 0-16.078 7.191-16.078 16.078v3.015c0 0 0 0 0 0 0 0.782 0.447 1.46 1.1 1.792l0.011 0.005 0.903 0.452c0.126 3.774 3.225 6.795 7.030 6.795h1.507c0.832 0 1.507-0.675 1.507-1.507v-11.054c0-0.832-0.675-1.507-1.507-1.507h-1.507c-1.968 0-3.748 0.809-5.024 2.112v-0.102c0-6.649 5.41-12.059 12.059-12.059s12.059 5.41 12.059 12.059v0.102c-1.277-1.303-3.056-2.112-5.024-2.112h-1.507c-0.832 0-1.507 0.675-1.507 1.507v11.054c0 0.832 0.675 1.507 1.507 1.507h1.507c3.805 0 6.903-3.021 7.030-6.795l0.903-0.452c0.664-0.337 1.111-1.015 1.111-1.798v0-3.015c0-8.886-7.191-16.078-16.078-16.078z"></path>
</svg>
