<!-- Generated by IcoMoon.io -->
<svg version="1.1" xmlns="http://www.w3.org/2000/svg" width="32" height="32" viewBox="0 0 32 32">
<title>headset</title>
<path d="M12.059 12.597c0-1.11-0.9-2.010-2.010-2.010h-1.005c-2.22 0-4.020 1.799-4.020 4.020v3.015c0 2.22 1.799 4.020 4.020 4.020h1.005c1.11 0 2.010-0.9 2.010-2.010v-7.034zM23.113 21.641c2.22 0 4.020-1.799 4.020-4.020v-3.015c0-2.22-1.799-4.020-4.020-4.020h-1.005c-1.11 0-2.010 0.9-2.010 2.010v7.034c0 1.11 0.9 2.010 2.010 2.010h1.005zM16.078-0.467c-8.97 0-15.791 7.463-16.078 16.078v1.005c0 0.555 0.45 1.005 1.005 1.005h1.005c0.555 0 1.005-0.45 1.005-1.005v-1.005c0-7.203 5.86-13.064 13.064-13.064s13.064 5.86 13.064 13.064h-0.008c0.005 0.153 0.008 10.408 0.008 10.408 0 1.467-1.189 2.655-2.655 2.655h-6.389c0-1.665-1.35-3.015-3.015-3.015h-2.010c-1.665 0-3.015 1.35-3.015 3.015s1.35 3.015 3.015 3.015h11.413c3.132 0 5.67-2.539 5.67-5.67v-10.408c-0.288-8.615-7.108-16.078-16.078-16.078z"></path>
</svg>
