<!-- Generated by IcoMoon.io -->
<svg version="1.1" xmlns="http://www.w3.org/2000/svg" width="32" height="32" viewBox="0 0 32 32">
<title>heart</title>
<path d="M28.79 3.571c-3.63-3.052-9.239-2.594-12.712 0.942-3.473-3.536-9.082-4.001-12.712-0.942-4.723 3.976-4.032 10.457-0.666 13.893l11.016 11.223c0.628 0.641 1.47 0.999 2.362 0.999 0.898 0 1.733-0.352 2.362-0.992l11.016-11.223c3.36-3.435 4.064-9.917-0.666-13.899zM27.308 15.348l-11.016 11.223c-0.151 0.151-0.276 0.151-0.427 0l-11.016-11.223c-2.292-2.336-2.757-6.758 0.458-9.465 2.443-2.054 6.212-1.746 8.573 0.66l2.198 2.242 2.198-2.242c2.374-2.418 6.142-2.713 8.573-0.666 3.209 2.707 2.732 7.154 0.458 9.471z"></path>
</svg>
