<!-- Generated by IcoMoon.io -->
<svg version="1.1" xmlns="http://www.w3.org/2000/svg" width="32" height="32" viewBox="0 0 32 32">
<title>heartbeat</title>
<path d="M20.11 14.845l-3.121 6.243c-0.377 0.76-1.47 0.735-1.815-0.038l-3.574-7.932-1.884 4.503h-5.91l11.462 11.713c0.446 0.458 1.168 0.458 1.614 0l11.468-11.713h-6.852l-1.388-2.776zM29.751 4.174l-0.151-0.157c-3.235-3.304-8.529-3.304-11.77 0l-1.752 1.796-1.752-1.79c-3.235-3.31-8.535-3.31-11.77 0l-0.151 0.151c-3.059 3.128-3.191 8.108-0.458 11.437h6.431l2.255-5.414c0.339-0.81 1.482-0.829 1.847-0.025l3.655 8.121 3.078-6.149c0.371-0.741 1.426-0.741 1.796 0l1.733 3.467h7.468c2.732-3.329 2.6-8.309-0.458-11.437z"></path>
</svg>
