<!-- Generated by IcoMoon.io -->
<svg version="1.1" xmlns="http://www.w3.org/2000/svg" width="40" height="32" viewBox="0 0 40 32">
<title>helicopter</title>
<path d="M19.093 23.651h17.083c1.11 0 2.010-0.9 2.010-2.010 0-7.77-6.299-14.069-14.069-14.069v-4.020h11.054c0.555 0 1.005-0.45 1.005-1.005v-2.010c0-0.555-0.45-1.005-1.005-1.005h-26.127c-0.555 0-1.005 0.45-1.005 1.005v2.010c0 0.555 0.45 1.005 1.005 1.005h11.054v4.020h-13.064l-2.713-3.618c-0.19-0.253-0.488-0.402-0.804-0.402h-2.512c-0.654 0-1.134 0.614-0.975 1.249l1.979 6.791 10.049 4.020 5.426 7.235c0.371 0.49 0.952 0.804 1.608 0.804 0 0 0 0 0 0v0zM26.127 11.812c3.929 0.803 7.036 3.89 7.838 7.819h-7.838v-7.819zM39.905 28.349l-1.391-1.394c-0.392-0.393-1.020-0.383-1.422 0.001-0.445 0.425-0.869 0.707-1.547 0.707h-20.471c-0.555 0-1.005 0.451-1.005 1.007v2.014c0 0.556 0.45 1.007 1.005 1.007h20.471c0.935 0 2.217-0.030 4.299-1.854 0.441-0.386 0.475-1.071 0.062-1.486z"></path>
</svg>
