<!-- Generated by IcoMoon.io -->
<svg version="1.1" xmlns="http://www.w3.org/2000/svg" width="32" height="32" viewBox="0 0 32 32">
<title>highway</title>
<path d="M11.082 1.25l-1.791 8.606h5.48v-8.606h-3.688zM17.229 1.25v8.606h5.48l-1.791-8.606h-3.688zM4.916 12.298c-0.064 0.001-0.125 0.008-0.185 0.018l0.007-0.001h-3.491c-0.005-0-0.011-0-0.017-0-0.679 0-1.23 0.55-1.23 1.23s0.55 1.23 1.23 1.23c0.006 0 0.012-0 0.018-0h2.458v1.229c-0 0.005-0 0.011-0 0.017 0 0.679 0.55 1.23 1.23 1.23s1.23-0.55 1.23-1.23c0-0.006-0-0.012-0-0.018v0.001-1.229h19.671v1.229c-0 0.005-0 0.011-0 0.017 0 0.679 0.55 1.23 1.23 1.23s1.23-0.55 1.23-1.23c0-0.006-0-0.012-0-0.018v0.001-1.229h2.459c0.005 0 0.011 0 0.017 0 0.679 0 1.23-0.55 1.23-1.23s-0.55-1.23-1.23-1.23c-0.006 0-0.012 0-0.018 0h-3.498c-0.061-0.011-0.131-0.017-0.203-0.017-0.002 0-0.004 0-0.007 0h0c-0.064 0.001-0.125 0.008-0.185 0.018l0.007-0.001h-21.743c-0.061-0.011-0.131-0.017-0.203-0.017-0.002 0-0.004 0-0.007 0h0zM7.754 17.233l-2.819 13.524h9.835v-13.524h-7.016zM17.229 17.233v13.524h9.835l-2.819-13.524h-7.016z"></path>
</svg>
