<!-- Generated by IcoMoon.io -->
<svg version="1.1" xmlns="http://www.w3.org/2000/svg" width="34" height="32" viewBox="0 0 34 32">
<title>highlighter</title>
<path d="M0 29.679l6.276 2.011 2.226-2.226-4.21-4.21-4.292 4.426zM7.826 14.605c-0.478 0.423-0.777 1.038-0.777 1.723 0 0.239 0.036 0.469 0.104 0.686l-0.004-0.016 0.82 2.69-3.199 3.199 6.044 6.044 3.194-3.194 2.684 0.822c0.862 0.264 1.799-0.001 2.396-0.677l2.233-2.615-10.887-10.887-2.608 2.226zM33.157 4.512l-3.969-3.969c-1.287-1.287-3.353-1.352-4.718-0.148l-12.502 10.675 10.663 10.663 10.674-12.502c1.205-1.365 1.14-3.431-0.148-4.719z"></path>
</svg>
