<!-- Generated by IcoMoon.io -->
<svg version="1.1" xmlns="http://www.w3.org/2000/svg" width="24" height="32" viewBox="0 0 24 32">
<title>hiking</title>
<path d="M5.084 29.192c-0.269 1.078 0.386 2.169 1.462 2.438 0.164 0.041 0.328 0.060 0.49 0.060 0.9 0 1.719-0.609 1.948-1.522l1.585-6.342-3.315-3.315-2.171 8.681zM6.019 16.874l2.585-9.993c0.137-0.529-0.197-1.065-0.749-1.197-2.756-0.661-5.549 0.947-6.238 3.591l-1.587 6.163c-0.138 0.529 0.197 1.065 0.749 1.197l3.992 0.958c0.552 0.132 1.11-0.19 1.248-0.718zM23.113 9.582h-1.005c-0.555 0-1.005 0.45-1.005 1.005v1.005h-2.183l-2.938-2.938c-0.697-0.698-1.624-1.082-2.61-1.082-1.697 0-3.17 1.149-3.582 2.796l-1.691 6.765c-0.038 0.146-0.060 0.314-0.060 0.487 0 0.555 0.225 1.058 0.589 1.421l5.44 5.44v5.197c0 1.11 0.9 2.010 2.010 2.010s2.010-0.9 2.010-2.010v-5.197c0-1.073-0.418-2.083-1.178-2.842l-2.941-2.941c0.009-0.031 0.031-0.056 0.039-0.089l1.249-4.997 1.409 1.409c0.377 0.377 0.888 0.589 1.421 0.589h3.015v15.073c0 0.555 0.45 1.005 1.005 1.005h1.005c0.555 0 1.005-0.45 1.005-1.005v-20.099c0.001-0.555-0.449-1.005-1.004-1.005zM15.073 5.562c1.665 0 3.015-1.35 3.015-3.015s-1.35-3.015-3.015-3.015-3.015 1.35-3.015 3.015 1.35 3.015 3.015 3.015z"></path>
</svg>
