<!-- Generated by IcoMoon.io -->
<svg version="1.1" xmlns="http://www.w3.org/2000/svg" width="40" height="32" viewBox="0 0 40 32">
<title>hippo</title>
<path d="M36.498 5.575c-1.738-0.009-3.297 1.104-4.811 1.672-0.913-2.17-3.058-3.694-5.56-3.694-0.708 0-1.379 0.144-2.010 0.369v-0.872c0-0.833-0.675-1.507-1.507-1.507h-1.005c-0.832 0-1.507 0.675-1.507 1.507v3.076c-2.135-1.595-4.947-2.574-8.039-2.574-6.66 0-12.059 4.499-12.059 10.049v15.073c0 0.555 0.45 1.005 1.005 1.005h4.020c0.555 0 1.005-0.45 1.005-1.005v-4.446c2.032 0.902 4.442 1.431 7.034 1.431s5.002-0.529 7.034-1.431v4.446c0 0.555 0.45 1.005 1.005 1.005h4.020c0.555 0 1.005-0.45 1.005-1.005v-11.054h8.039v2.010c0 0.555 0.45 1.005 1.005 1.005h2.010c0.555 0 1.005-0.45 1.005-1.005v-2.010c1.11 0 2.010-0.9 2.010-2.010v-5.779c0-2.141-1.557-4.245-3.698-4.257zM28.137 10.587c-0.555 0-1.005-0.45-1.005-1.005s0.45-1.005 1.005-1.005 1.005 0.45 1.005 1.005-0.45 1.005-1.005 1.005z"></path>
</svg>
