<!-- Generated by IcoMoon.io -->
<svg version="1.1" xmlns="http://www.w3.org/2000/svg" width="40" height="32" viewBox="0 0 40 32">
<title>hips</title>
<path d="M0 4.57c0-0.113 0.057-0.17 0.17-0.17h2.569c0.119 0 0.176 0.057 0.176 0.17v5.1c0.955-0.484 1.991-0.722 3.128-0.716 1.507 0.006 2.776 0.389 3.787 1.13 1.175 0.848 1.759 2.003 1.759 3.473v8.548c0 0.119-0.057 0.176-0.17 0.176h-1.715c-0.572 0-1.030-0.458-1.030-1.024v-7.7c0-0.057 0.17-1.696-2.877-1.696-3.052 0-2.877 1.645-2.877 1.696v8.548c0 0.119-0.057 0.176-0.176 0.176h-2.575c-0.113 0-0.17-0.057-0.17-0.176v-17.535zM31.259 18.482c0.86 0.641 2.142 1.2 3.668 1.2 1.463 0 2.060-0.283 2.292-0.854 0.188-0.496-0.038-1.011-0.766-1.331l-3.366-1.476c-1.344-0.59-2.123-1.507-2.336-2.738-0.358-2.117 1.394-3.348 1.426-3.373 0.829-0.603 2.010-0.967 3.674-0.967 1.193 0 2.349 0.207 3.461 0.622 0.082 0.031 0.119 0.082 0.119 0.163v2.807c0 0.132-0.145 0.214-0.251 0.151-2.493-1.3-4.811-0.772-5.276-0.427-0.415 0.308-0.377 0.785 0.163 1.011l3.618 1.589c1.036 0.446 1.765 1.156 2.192 2.142 0.345 0.791 0.415 1.608 0.195 2.456-0.603 2.317-2.82 2.858-2.864 2.877-0.66 0.195-1.482 0.27-2.28 0.27-1.043 0-2.047-0.17-3.027-0.515-0.609-0.214-0.917-0.647-0.917-1.3v-2.16c0-0.132 0.145-0.232 0.276-0.145zM23.628 8.941c-1.991 0-6.544 1.262-6.544 6.5v11.525c0 0.050 0.038 0.17 0.17 0.17h2.569c0.119 0 0.176-0.057 0.176-0.17v-5.577c1.036 0.798 2.248 1.2 3.624 1.2 3.8 0 6.827-3.046 6.827-6.827 0.006-3.787-3.027-6.821-6.821-6.821zM23.628 19.675c-1.080 0-2.003-0.383-2.763-1.143-0.766-0.766-1.143-1.683-1.143-2.763 0-2.167 1.733-3.907 3.907-3.907 2.167 0 3.907 1.733 3.907 3.907 0.006 2.154-1.715 3.907-3.907 3.907zM15.802 22.105c0 0.119-0.057 0.176-0.176 0.176h-2.569c-0.1 0-0.17-0.088-0.17-0.176v-12.674c0-0.088 0.069-0.176 0.17-0.176h2.569c0.119 0 0.176 0.057 0.176 0.176v12.674zM14.339 4.086c0.999 0 1.815 0.798 1.815 1.815 0 0.992-0.798 1.815-1.815 1.815s-1.815-0.835-1.815-1.815c0.006-1.005 0.816-1.815 1.815-1.815z"></path>
</svg>
