<!-- Generated by IcoMoon.io -->
<svg version="1.1" xmlns="http://www.w3.org/2000/svg" width="32" height="32" viewBox="0 0 32 32">
<title>hips1</title>
<path d="M1.28 0.643c-0.335 0-0.677 0.117-0.92 0.36s-0.36 0.585-0.36 0.92v23.040c0 0.335 0.117 0.677 0.36 0.92s0.585 0.36 0.92 0.36h10.88v1.28h-2.62c-1.053 0-1.86 0.905-1.86 1.92v1.92h16.64v-1.92c0-1.052-0.835-1.92-1.86-1.92h-2.62v-1.28h10.88c0.335 0 0.677-0.117 0.92-0.36s0.36-0.585 0.36-0.92v-23.040c0-0.335-0.117-0.677-0.36-0.92s-0.585-0.36-0.92-0.36zM1.28 1.923h29.44v23.040h-11.4c-0.085-0.017-0.175-0.017-0.26 0h-6.14c-0.085-0.017-0.175-0.017-0.26 0h-11.38zM3.84 3.203c-0.335 0-0.678 0.118-0.92 0.36s-0.36 0.585-0.36 0.92v15.36c0 0.335 0.118 0.677 0.36 0.92s0.585 0.36 0.92 0.36h24.32c0.335 0 0.677-0.117 0.92-0.36s0.36-0.585 0.36-0.92v-15.36c0-0.335-0.117-0.678-0.36-0.92s-0.585-0.36-0.92-0.36zM3.84 4.483h24.32v15.36h-24.32zM16 5.763c-0.765 0-1.31 0.38-2.040 0.76s-1.683 0.843-3.22 1.18c-0.29 0.065-0.498 0.323-0.5 0.62 0 3.768 1.357 6.327 2.72 7.92s2.78 2.26 2.78 2.26c0.17 0.080 0.37 0.080 0.54 0 0 0 5.48-2.83 5.48-10.18-0.003-0.297-0.21-0.555-0.5-0.62-1.538-0.338-2.49-0.8-3.22-1.18s-1.275-0.76-2.040-0.76zM16 7.043c0.258 0 0.668 0.218 1.44 0.62 0.675 0.353 1.675 0.772 3 1.12-0.205 5.78-3.785 8.028-4.46 8.4-0.322-0.172-1.092-0.628-2.060-1.76-1.14-1.332-2.252-3.455-2.36-6.64 1.325-0.348 2.325-0.768 3-1.12 0.772-0.402 1.182-0.62 1.44-0.62zM26.88 21.763c-0.705 0-1.28 0.575-1.28 1.28s0.575 1.28 1.28 1.28c0.705 0 1.28-0.575 1.28-1.28s-0.575-1.28-1.28-1.28zM13.44 26.243h5.12v1.28h-5.12zM9.54 28.803h12.92c0.255 0 0.58 0.285 0.58 0.64v0.64h-14.080v-0.64c0-0.392 0.225-0.64 0.58-0.64z"></path>
</svg>
