<!-- Generated by IcoMoon.io -->
<svg version="1.1" xmlns="http://www.w3.org/2000/svg" width="32" height="32" viewBox="0 0 32 32">
<title>hire-a-helper</title>
<path d="M27.829-0.467h-23.314c-0.251 2.343-2.167 4.258-4.516 4.503v23.332c2.349 0.308 4.145 2.035 4.516 4.321h23.376c0.188-2.286 2.041-4.133 4.265-4.384v-23.27c-2.286-0.371-4.082-2.217-4.327-4.503zM25.506 24.963c-2.28 0-1.181-0.126-3.461-0.126-2.248 0-1.319 0.126-3.523 0.126-0.371 0-0.308-0.515 0-0.615 1.432-0.477 1.438-0.641 1.545-0.804 0.653-0.98 0.371-5.213 0.371-7.097 0-0.333-0.402-0.804-0.867-0.804h-6.984c-0.465 0-0.867 0.471-0.867 0.804 0 1.884-0.283 6.117 0.371 7.097 0.107 0.157 0.113 0.327 1.545 0.804 0.308 0.1 0.377 0.615 0 0.615-2.205 0-1.275-0.126-3.523-0.126-2.28 0-1.181 0.126-3.461 0.126-0.496 0-0.364-0.678 0-0.678 0.641-0.214 0.848-0.22 1.363-0.867 0.484-0.81 0.496-2.789 0.496-8.027v-6.356c0-1.394-0.766-1.777-1.796-2.035-0.553-0.138-0.251-0.741 0.063-0.741 2.292 0 1.294 0.126 3.586 0.126 2.054 0 1.036-0.126 3.090-0.126 0.207 0 0.534 0.521 0.063 0.678-0.308 0.1-1.733 0.232-1.733 2.468 0 2.864-0.012 3.505 0.063 4.321 0 0.082 0.145 0.804 0.804 0.804h6.858c0.66 0 0.804-0.722 0.804-0.804 0.075-0.816 0.063-1.457 0.063-4.321 0-2.236-1.426-2.368-1.733-2.468-0.471-0.157-0.145-0.678 0.063-0.678 2.054 0 1.036 0.126 3.090 0.126 2.292 0 1.294-0.126 3.586-0.126 0.308 0 0.622 0.603 0.063 0.741-1.030 0.258-1.796 0.647-1.796 2.035v6.356c0 5.238 0.006 7.216 0.496 8.027 0.515 0.641 0.716 0.653 1.363 0.867 0.364 0 0.49 0.678 0 0.678z"></path>
</svg>
