<!-- Generated by IcoMoon.io -->
<svg version="1.1" xmlns="http://www.w3.org/2000/svg" width="32" height="32" viewBox="0 0 32 32">
<title>history</title>
<path d="M31.654 15.582c0.016 8.582-6.983 15.599-15.565 15.605-3.707 0.003-7.111-1.289-9.787-3.449-0.696-0.561-0.748-1.604-0.116-2.236l0.708-0.708c0.541-0.541 1.404-0.6 2.003-0.125 1.971 1.564 4.466 2.498 7.18 2.498 6.388 0 11.556-5.17 11.556-11.556s-5.17-11.556-11.556-11.556c-3.066 0-5.85 1.191-7.918 3.136l3.188 3.188c0.633 0.633 0.185 1.716-0.71 1.716h-9.13c-0.555 0-1.005-0.45-1.005-1.005v-9.13c0-0.895 1.082-1.344 1.716-0.711l3.101 3.101c2.796-2.672 6.586-4.314 10.76-4.314 8.592 0 15.56 6.958 15.576 15.546zM20.292 20.53l0.617-0.793c0.511-0.657 0.393-1.604-0.264-2.115l-2.556-1.988v-6.554c0-0.832-0.675-1.507-1.507-1.507h-1.005c-0.832 0-1.507 0.675-1.507 1.507v8.52l4.108 3.195c0.657 0.511 1.604 0.393 2.115-0.264z"></path>
</svg>
