<!-- Generated by IcoMoon.io -->
<svg version="1.1" xmlns="http://www.w3.org/2000/svg" width="28" height="32" viewBox="0 0 28 32">
<title>holly-berry</title>
<path d="M9.044 11.592c1.664 0 3.015-1.35 3.015-3.015s-1.35-3.015-3.015-3.015-3.015 1.35-3.015 3.015 1.35 3.015 3.015 3.015zM16.078 8.577c0 1.664 1.35 3.015 3.015 3.015s3.015-1.35 3.015-3.015-1.35-3.015-3.015-3.015-3.015 1.35-3.015 3.015zM14.069 5.562c1.664 0 3.015-1.35 3.015-3.015s-1.35-3.015-3.015-3.015-3.015 1.35-3.015 3.015 1.35 3.015 3.015 3.015zM13.051 14.299c0.006-0.779-0.823-1.262-1.495-0.86-2.154 1.275-4.484 2.054-6.827 2.274-0.609 0.057-0.98 0.71-0.729 1.269 0.389 0.873 0.697 1.796 0.923 2.751s-0.333 1.922-1.269 2.205c-0.936 0.283-1.89 0.477-2.845 0.572-0.609 0.063-0.986 0.71-0.735 1.269 0.942 2.060 1.438 4.365 1.445 6.764 0.006 0.904 0.955 1.451 1.733 1.005 2.085-1.193 4.327-1.916 6.582-2.129 0.609-0.057 0.98-0.71 0.729-1.269-0.389-0.873-0.697-1.796-0.923-2.751s0.333-1.922 1.269-2.205c0.936-0.283 1.89-0.477 2.845-0.572 0.609-0.063 0.986-0.71 0.735-1.269-0.973-2.148-1.463-4.553-1.438-7.053zM27.321 22.495c-0.955-0.1-1.903-0.295-2.845-0.572-0.936-0.283-1.495-1.25-1.269-2.205s0.534-1.872 0.923-2.751c0.251-0.559-0.119-1.212-0.729-1.269-2.343-0.22-4.673-0.999-6.827-2.274-0.672-0.396-1.501 0.088-1.495 0.86 0 0.1-0.012 0.201-0.012 0.308 0.012 2.091 0.44 4.126 1.25 5.904 0.358 0.779 0.327 1.671-0.038 2.443 0.308 0.075 0.622 0.138 0.93 0.232 0.936 0.283 1.495 1.25 1.269 2.205s-0.534 1.872-0.923 2.751c-0.251 0.559 0.119 1.212 0.729 1.269 2.255 0.214 4.497 0.936 6.582 2.129 0.785 0.446 1.733-0.1 1.733-1.005 0.012-2.399 0.503-4.71 1.445-6.764 0.27-0.546-0.113-1.2-0.722-1.262z"></path>
</svg>
