<!-- Generated by IcoMoon.io -->
<svg version="1.1" xmlns="http://www.w3.org/2000/svg" width="36" height="32" viewBox="0 0 36 32">
<title>home1</title>
<path d="M30.649 19.172v9c0 0.835-0.672 1.507-1.507 1.507h-7.285c-0.415 0-0.754-0.339-0.754-0.754v-7.034c0-0.415-0.339-0.754-0.754-0.754h-4.522c-0.415 0-0.754 0.339-0.754 0.754v7.034c0 0.415-0.339 0.754-0.754 0.754h-7.285c-0.835 0-1.507-0.672-1.507-1.507v-9c0-0.226 0.1-0.44 0.276-0.584l11.808-9.722c0.276-0.226 0.678-0.226 0.961 0l11.808 9.722c0.17 0.145 0.27 0.358 0.27 0.584zM35.9 15.348l-5.251-4.327v-8.699c0-0.415-0.339-0.754-0.754-0.754h-3.517c-0.415 0-0.754 0.339-0.754 0.754v4.56l-5.621-4.629c-1.112-0.917-2.72-0.917-3.831 0l-15.896 13.095c-0.32 0.264-0.364 0.741-0.1 1.061l1.602 1.947c0.264 0.32 0.741 0.364 1.061 0.1l14.772-12.166c0.276-0.226 0.678-0.226 0.961 0l14.772 12.166c0.32 0.264 0.798 0.22 1.061-0.1l1.602-1.947c0.264-0.327 0.214-0.798-0.107-1.061z"></path>
</svg>
