<!-- Generated by IcoMoon.io -->
<svg version="1.1" xmlns="http://www.w3.org/2000/svg" width="40" height="32" viewBox="0 0 40 32">
<title>hooli</title>
<path d="M31.931 21.641h3.636v-12.266l-3.636 1.715v10.551zM36.559 14.701v6.94h3.636v-6.94h-3.636zM20.814 14.142c-1.143-1.143-3.165-1.074-3.165-1.074s-2.022-0.069-3.165 1.074c-0.119 0.119-0.232 0.245-0.333 0.377-2.399-1.859-4.553-2.92-6.412-3.837v-1.3l-1.413 0.666c-3.417-1.388-5.59-1.143-6.111 0.006 0 0-1.564 2.060 3.888 6.965v-1.947c-3.065-3.429-2.449-4.78-2.217-4.974 0.848-0.716 2.355-0.502 4.045 0.132l-1.834 0.86v3.976c0.823 0.923 1.916 1.978 3.36 3.165l0.283 0.226v-1.872c0-0.433 0.107-1.143 0.678-1.143s0.666 0.433 0.666 0.942v3.059c1.13 0.766 2.343 1.388 3.624 1.859v-5.898c0-1.175-0.842-2.349-2.55-2.349-0.992-0.006-1.916 0.515-2.418 1.375v-3.41c2.632 1.313 5.269 2.92 6.274 3.662-0.641 0.917-0.584 1.765-0.584 2.745 0 1.175-0.088 2.154 1.055 3.297s3.165 1.074 3.165 1.074 2.029 0.069 3.165-1.074c1.143-1.143 1.049-2.123 1.049-3.297 0-1.162 0.094-2.148-1.049-3.285zM18.321 18.657c0 0.226-0.113 0.785-0.672 0.785s-0.672-0.559-0.672-0.785v-2.537c0-0.546 0.458-0.685 0.672-0.685s0.672 0.132 0.672 0.685v2.537zM29.984 14.142c-1.143-1.143-3.165-1.074-3.165-1.074s-2.029-0.069-3.165 1.074c-1.143 1.143-1.055 2.129-1.055 3.304s-0.088 2.154 1.055 3.297c1.143 1.143 3.165 1.074 3.165 1.074s2.029 0.069 3.165-1.074c1.143-1.143 1.055-2.123 1.055-3.297-0.006-1.181 0.082-2.167-1.055-3.304zM27.484 18.657c0 0.226-0.113 0.785-0.672 0.785s-0.672-0.559-0.672-0.785v-2.537c0-0.546 0.458-0.685 0.672-0.685s0.672 0.132 0.672 0.685v2.537zM38.381 14.073c0.999 0 1.815-0.81 1.815-1.815s-0.81-1.539-1.815-1.539c-0.999 0-1.815 0.54-1.815 1.539s0.81 1.815 1.815 1.815zM9.075 21.641l2.405 0.050c-0.829-0.289-1.633-0.641-2.405-1.055v1.005zM7.731 21.641v-1.796c-0.408-0.264-0.816-0.546-1.218-0.854-0.93-0.703-1.727-1.363-2.418-1.978v4.629h3.636zM11.481 21.691c2.292 0.785 4.39 0.892 5.948 0.452-1.25 0.012-2.877-0.163-4.729-0.835v0.333l-1.218 0.050z"></path>
</svg>
