<!-- Generated by IcoMoon.io -->
<svg version="1.1" xmlns="http://www.w3.org/2000/svg" width="32" height="32" viewBox="0 0 32 32">
<title>hornbill</title>
<path d="M4.734 22.79c0.134 0.994-0.362 2.009-1.315 2.468-1.184 0.572-2.61 0.073-3.183-1.11-0.57-1.183-0.071-2.611 1.112-3.181 0.443-0.214 0.919-0.278 1.372-0.212-4.916-6.993 3.266-11.966 3.266-11.966-0.368 2.703-0.518 5.725-0.518 5.725-4.228 2.603 0.058 4.023 2.5 4.577 1.242 3.368 4.471 5.774 8.269 5.774 0.121 0 0.237-0.013 0.356-0.018l0.007 1.185c-6.232 0.087-9.967-1.83-11.867-3.241zM11.517 2.209c0.056-0.44-0.006-0.9-0.213-1.328-0.572-1.183-1.998-1.682-3.182-1.111-1.185 0.572-1.683 1.999-1.111 3.183 0.438 0.909 1.383 1.408 2.335 1.333-1.416 1.879-3.381 5.626-3.292 11.935l1.372-0.009c-0.001-0.057-0.009-0.111-0.009-0.168 0-3.702 2.284-6.867 5.518-8.175 0.503-2.371 1.931-7.179 4.638-2.782 0 0 3.023 0.15 5.727 0.518 0-0.001-4.889-8.041-11.782-3.395zM30.622 10.635c1.183-0.571 1.684-1.998 1.112-3.181s-1.999-1.681-3.182-1.111c-0.959 0.463-1.456 1.488-1.311 2.49-1.992-1.378-5.643-3.081-11.522-2.998l0.009 1.413c0.17-0.009 0.339-0.026 0.511-0.026 3.724 0 6.902 2.311 8.196 5.575 2.456 0.567 6.598 1.983 2.415 4.556 0 0-0.147 3.023-0.516 5.725 0 0 8.381-5.097 3.075-12.223 0.404 0.031 0.821-0.031 1.213-0.22zM23.43 26.932c1.346-2.039 2.915-5.633 2.835-11.284l-1.226 0.009c0.005 0.129 0.019 0.256 0.019 0.386 0 3.785-2.39 7.006-5.74 8.256-0.556 2.446-1.975 6.699-4.57 2.48 0 0-3.022-0.147-5.727-0.516 0 0 5.019 8.249 12.052 3.201 0.020 0.296 0.091 0.594 0.229 0.877 0.569 1.186 1.997 1.682 3.18 1.112 1.185-0.572 1.683-1.999 1.112-3.181-0.412-0.855-1.273-1.346-2.164-1.341z"></path>
</svg>
