<!-- Generated by IcoMoon.io -->
<svg version="1.1" xmlns="http://www.w3.org/2000/svg" width="36" height="32" viewBox="0 0 36 32">
<title>horse</title>
<path d="M36.171 4.344c-0.001-0.511-0.19-0.997-0.539-1.369-0.237-0.253-0.539-0.573-0.86-0.911 0.695-0.43 1.225-1.098 1.393-1.926 0.064-0.312-0.18-0.605-0.498-0.605h-7.535c-4.44 0-8.039 3.599-8.039 8.039h-10.044c-1.811 0-3.417 0.815-4.522 2.080v-0.070c-3.048 0-5.527 2.479-5.527 5.527v3.517c0 0.555 0.45 1.005 1.005 1.005h1.005c0.555 0 1.005-0.45 1.005-1.005v-3.517c0-0.83 0.431-1.532 1.054-1.99-0.013 0.162-0.049 0.317-0.049 0.482 0 1.736 0.744 3.289 1.918 4.389l-1.615 4.309c-0.162 0.419-0.256 0.904-0.256 1.411 0 0.346 0.044 0.683 0.126 1.003l-0.006-0.028 1.561 6.244c0.113 0.441 0.506 0.761 0.974 0.761 0 0 0 0 0 0h4.143c0.654 0 1.134-0.614 0.975-1.249l-1.652-6.611 1.497-3.994 8.414 1.402v9.446c0 0.555 0.45 1.005 1.005 1.005h4.020c0.555 0 1.005-0.45 1.005-1.005v-11.166c1.24-1.268 2.010-2.999 2.010-4.913 0-0.014-0.004-0.026-0.005-0.040v-6.436l1.005 0.447 1.187 2.368c0.468 0.934 1.573 1.353 2.543 0.965l2.044-0.818c0.747-0.304 1.264-1.025 1.264-1.866 0-0.001 0-0.001 0-0.002v0l-0.004-4.881zM32.152 5.562c-0.555 0-1.005-0.45-1.005-1.005s0.45-1.005 1.005-1.005 1.005 0.45 1.005 1.005-0.45 1.005-1.005 1.005z"></path>
</svg>
