<!-- Generated by IcoMoon.io -->
<svg version="1.1" xmlns="http://www.w3.org/2000/svg" width="32" height="32" viewBox="0 0 32 32">
<title>horse-head</title>
<path d="M32.019 20.416l-4.39-10.319c-0.936-2.588-3.165-4.459-5.841-4.974 1.13-0.666 2.908-2.255 2.148-5.169-0.082-0.314-0.446-0.496-0.754-0.383l-12.699 4.754c-8.228 2.958-10.482 10.212-10.482 20.255v5.1c0 1.112 0.898 2.010 2.010 2.010h14.835c1.495 0 2.468-1.57 1.796-2.908l-2.563-5.131v-0.044c-2.864-0.22-5.313-1.928-6.551-4.371-0.1-0.195-0.057-0.433 0.1-0.584l0.76-0.76c0.245-0.245 0.666-0.17 0.81 0.151 0.93 2.117 3.027 3.605 5.489 3.605 1.080 0 2.073-0.32 2.939-0.829l2.889 4.013c0.377 0.527 0.986 0.835 1.633 0.835h3.159c0.534 0 1.043-0.214 1.419-0.59l2.845-2.5c0.559-0.572 0.735-1.419 0.446-2.16zM20.6 13.602c-0.835 0-1.507-0.672-1.507-1.507s0.672-1.507 1.507-1.507 1.507 0.672 1.507 1.507-0.672 1.507-1.507 1.507z"></path>
</svg>
