<!-- Generated by IcoMoon.io -->
<svg version="1.1" xmlns="http://www.w3.org/2000/svg" width="28" height="32" viewBox="0 0 28 32">
<title>hospital1</title>
<path d="M8.039 14.858v-2.512c0-0.416 0.338-0.754 0.754-0.754h2.512c0.416 0 0.754 0.338 0.754 0.754v2.512c0 0.416-0.338 0.754-0.754 0.754h-2.512c-0.416 0-0.754-0.338-0.754-0.754zM16.832 15.611h2.512c0.416 0 0.754-0.338 0.754-0.754v-2.512c0-0.416-0.338-0.754-0.754-0.754h-2.512c-0.416 0-0.754 0.338-0.754 0.754v2.512c0 0.416 0.338 0.754 0.754 0.754zM12.059 20.887v-2.512c0-0.416-0.338-0.754-0.754-0.754h-2.512c-0.416 0-0.754 0.338-0.754 0.754v2.512c0 0.416 0.338 0.754 0.754 0.754h2.512c0.416 0 0.754-0.338 0.754-0.754zM16.832 21.641h2.512c0.416 0 0.754-0.338 0.754-0.754v-2.512c0-0.416-0.338-0.754-0.754-0.754h-2.512c-0.416 0-0.754 0.338-0.754 0.754v2.512c0 0.416 0.338 0.754 0.754 0.754zM28.137 29.429v2.261h-28.137v-2.261c0-0.416 0.338-0.754 0.754-0.754h1.225v-23.801c0-0.73 0.675-1.321 1.507-1.321h5.558v-2.512c0-0.833 0.675-1.507 1.507-1.507h7.034c0.832 0 1.507 0.675 1.507 1.507v2.512h5.558c0.832 0 1.507 0.591 1.507 1.321v23.801h1.225c0.416 0 0.754 0.338 0.754 0.754zM4.993 28.612h7.066v-4.208c0-0.416 0.338-0.754 0.754-0.754h2.512c0.416 0 0.754 0.338 0.754 0.754v4.208h7.066v-22.045h-4.051v1.507c0 0.832-0.675 1.507-1.507 1.507h-7.034c-0.832 0-1.507-0.675-1.507-1.507v-1.507h-4.051v22.045zM16.706 3.553h-1.633v-1.633c0-0.208-0.169-0.377-0.377-0.377v0h-1.256c-0.208 0-0.377 0.169-0.377 0.377v0 1.633h-1.633c-0.208 0-0.377 0.169-0.377 0.377v0 1.256c0 0.208 0.169 0.377 0.377 0.377v0h1.633v1.633c0 0.208 0.169 0.377 0.377 0.377v0h1.256c0.208 0 0.377-0.169 0.377-0.377v0-1.633h1.633c0.208 0 0.377-0.169 0.377-0.377v0-1.256c0-0.208-0.169-0.377-0.377-0.377v0z"></path>
</svg>
