<!-- Generated by IcoMoon.io -->
<svg version="1.1" xmlns="http://www.w3.org/2000/svg" width="32" height="32" viewBox="0 0 32 32">
<title>hospital</title>
<path d="M4.8 0.003c-2.631 0-4.8 2.169-4.8 4.8v22.4c0 2.631 2.169 4.8 4.8 4.8h22.4c2.631 0 4.8-2.169 4.8-4.8v-22.4c0-2.631-2.169-4.8-4.8-4.8zM4.8 3.203h22.4c0.887 0 1.6 0.712 1.6 1.6v22.4c0 0.887-0.712 1.6-1.6 1.6h-22.4c-0.888 0-1.6-0.712-1.6-1.6v-22.4c0-0.888 0.712-1.6 1.6-1.6zM9.6 8.003v16h3.2v-6.4h6.4v6.4h3.2v-16h-3.2v6.4h-6.4v-6.4z"></path>
</svg>
