<!-- Generated by IcoMoon.io -->
<svg version="1.1" xmlns="http://www.w3.org/2000/svg" width="36" height="32" viewBox="0 0 36 32">
<title>hospital-alt</title>
<path d="M34.167 5.562h-8.039v-4.020c0-1.112-0.898-2.010-2.010-2.010h-12.059c-1.112 0-2.010 0.898-2.010 2.010v4.020h-8.039c-1.112 0-2.010 0.898-2.010 2.010v23.113c0 0.553 0.452 1.005 1.005 1.005h34.167c0.553 0 1.005-0.452 1.005-1.005v-23.113c0-1.112-0.898-2.010-2.010-2.010zM10.049 26.916c0 0.415-0.339 0.754-0.754 0.754h-2.512c-0.415 0-0.754-0.339-0.754-0.754v-2.512c0-0.415 0.339-0.754 0.754-0.754h2.512c0.415 0 0.754 0.339 0.754 0.754v2.512zM10.049 18.877c0 0.415-0.339 0.754-0.754 0.754h-2.512c-0.415 0-0.754-0.339-0.754-0.754v-2.512c0-0.415 0.339-0.754 0.754-0.754h2.512c0.415 0 0.754 0.339 0.754 0.754v2.512zM20.098 26.916c0 0.415-0.339 0.754-0.754 0.754h-2.512c-0.415 0-0.754-0.339-0.754-0.754v-2.512c0-0.415 0.339-0.754 0.754-0.754h2.512c0.415 0 0.754 0.339 0.754 0.754v2.512zM20.098 18.877c0 0.415-0.339 0.754-0.754 0.754h-2.512c-0.415 0-0.754-0.339-0.754-0.754v-2.512c0-0.415 0.339-0.754 0.754-0.754h2.512c0.415 0 0.754 0.339 0.754 0.754v2.512zM21.103 8.2c0 0.207-0.17 0.377-0.377 0.377h-1.633v1.633c0 0.207-0.17 0.377-0.377 0.377h-1.256c-0.207 0-0.377-0.17-0.377-0.377v-1.633h-1.633c-0.207 0-0.377-0.17-0.377-0.377v-1.256c0-0.207 0.17-0.377 0.377-0.377h1.633v-1.633c0-0.207 0.17-0.377 0.377-0.377h1.256c0.207 0 0.377 0.17 0.377 0.377v1.633h1.633c0.207 0 0.377 0.17 0.377 0.377v1.256zM30.147 26.916c0 0.415-0.339 0.754-0.754 0.754h-2.512c-0.415 0-0.754-0.339-0.754-0.754v-2.512c0-0.415 0.339-0.754 0.754-0.754h2.512c0.415 0 0.754 0.339 0.754 0.754v2.512zM30.147 18.877c0 0.415-0.339 0.754-0.754 0.754h-2.512c-0.415 0-0.754-0.339-0.754-0.754v-2.512c0-0.415 0.339-0.754 0.754-0.754h2.512c0.415 0 0.754 0.339 0.754 0.754v2.512z"></path>
</svg>
