<!-- Generated by IcoMoon.io -->
<svg version="1.1" xmlns="http://www.w3.org/2000/svg" width="32" height="32" viewBox="0 0 32 32">
<title>hospital-symbol</title>
<path d="M16.078-0.467c-8.881 0-16.078 7.198-16.078 16.078s7.198 16.078 16.078 16.078 16.078-7.198 16.078-16.078-7.198-16.078-16.078-16.078zM23.113 23.148c0 0.276-0.226 0.503-0.503 0.503h-3.015c-0.276 0-0.503-0.226-0.503-0.503v-5.527h-6.029v5.527c0 0.276-0.226 0.503-0.502 0.503h-3.015c-0.276 0-0.502-0.226-0.502-0.503v-15.073c0-0.276 0.226-0.502 0.502-0.502h3.015c0.276 0 0.502 0.226 0.502 0.502v5.527h6.029v-5.527c0-0.276 0.226-0.502 0.503-0.502h3.015c0.276 0 0.503 0.226 0.503 0.502v15.073z"></path>
</svg>
