<!-- Generated by IcoMoon.io -->
<svg version="1.1" xmlns="http://www.w3.org/2000/svg" width="28" height="32" viewBox="0 0 28 32">
<title>hospital11</title>
<path d="M28.137 30.434v1.256h-28.137v-1.256c0-0.416 0.338-0.754 0.754-0.754h1.256v-22.61c0-0.832 0.675-1.507 1.507-1.507h5.527v-4.522c0-0.833 0.675-1.507 1.507-1.507h7.034c0.832 0 1.507 0.675 1.507 1.507v4.522h5.527c0.832 0 1.507 0.675 1.507 1.507v22.61h1.256c0.416 0 0.754 0.338 0.754 0.754zM19.344 11.592h-2.512c-0.416 0-0.754 0.338-0.754 0.754v2.512c0 0.416 0.338 0.754 0.754 0.754h2.512c0.416 0 0.754-0.338 0.754-0.754v-2.512c0-0.416-0.338-0.754-0.754-0.754zM8.793 15.611h2.512c0.416 0 0.754-0.338 0.754-0.754v-2.512c0-0.416-0.338-0.754-0.754-0.754h-2.512c-0.416 0-0.754 0.338-0.754 0.754v2.512c0 0.416 0.338 0.754 0.754 0.754zM15.325 23.651h-2.512c-0.416 0-0.754 0.338-0.754 0.754v5.276h4.020v-5.276c0-0.416-0.338-0.754-0.754-0.754zM19.344 17.621h-2.512c-0.416 0-0.754 0.338-0.754 0.754v2.512c0 0.416 0.338 0.754 0.754 0.754h2.512c0.416 0 0.754-0.338 0.754-0.754v-2.512c0-0.416-0.338-0.754-0.754-0.754zM12.059 18.375c0-0.416-0.338-0.754-0.754-0.754h-2.512c-0.416 0-0.754 0.338-0.754 0.754v2.512c0 0.416 0.338 0.754 0.754 0.754h2.512c0.416 0 0.754-0.338 0.754-0.754v-2.512zM11.431 5.562h1.633v1.633c0 0.208 0.169 0.377 0.377 0.377v0h1.256c0.208 0 0.377-0.169 0.377-0.377v0-1.633h1.633c0.208 0 0.377-0.169 0.377-0.377v0-1.256c0-0.208-0.169-0.377-0.377-0.377v0h-1.633v-1.633c0-0.208-0.169-0.377-0.377-0.377v0h-1.256c-0.208 0-0.377 0.169-0.377 0.377v0 1.633h-1.633c-0.208 0-0.377 0.169-0.377 0.377v0 1.256c0 0.208 0.169 0.377 0.377 0.377v0z"></path>
</svg>
