<!-- Generated by IcoMoon.io -->
<svg version="1.1" xmlns="http://www.w3.org/2000/svg" width="32" height="32" viewBox="0 0 32 32">
<title>hot-tub</title>
<path d="M26.015 10.691c0.064 0.516 0.487 0.901 0.989 0.901h1.012c0.597 0 1.073-0.538 1.005-1.152-0.273-2.456-1.407-4.681-3.148-6.102-1.091-0.89-1.81-2.308-2.009-3.903-0.063-0.515-0.487-0.901-0.989-0.901h-1.012c-0.597 0-1.073 0.538-1.005 1.153 0.273 2.456 1.407 4.681 3.148 6.102 1.090 0.89 1.81 2.308 2.008 3.903zM19.232 10.691c0.064 0.516 0.487 0.901 0.989 0.901h1.012c0.597 0 1.073-0.538 1.005-1.152-0.273-2.456-1.407-4.681-3.148-6.102-1.091-0.89-1.81-2.308-2.009-3.903-0.063-0.515-0.487-0.901-0.989-0.901h-1.012c-0.597 0-1.073 0.538-1.005 1.153 0.273 2.456 1.407 4.681 3.148 6.102 1.090 0.89 1.81 2.308 2.008 3.903zM30.147 15.611h-14.069l-6.967-5.225c-0.663-0.502-1.502-0.804-2.412-0.804-0 0-0 0-0 0h-2.68c-2.22 0-4.020 1.799-4.020 4.020v14.069c0 2.22 1.799 4.020 4.020 4.020h24.118c2.22 0 4.020-1.799 4.020-4.020v-10.049c0-1.11-0.9-2.010-2.010-2.010zM8.039 27.168c0 0.278-0.225 0.503-0.502 0.503h-1.005c-0.278 0-0.503-0.225-0.503-0.503v-7.034c0-0.278 0.225-0.503 0.502-0.503h1.005c0.278 0 0.503 0.225 0.503 0.503v7.034zM14.069 27.168c0 0.278-0.225 0.503-0.502 0.503h-1.005c-0.278 0-0.502-0.225-0.502-0.503v-7.034c0-0.278 0.225-0.503 0.502-0.503h1.005c0.278 0 0.502 0.225 0.502 0.503v7.034zM20.098 27.168c0 0.278-0.225 0.503-0.503 0.503h-1.005c-0.278 0-0.503-0.225-0.503-0.503v-7.034c0-0.278 0.225-0.503 0.503-0.503h1.005c0.278 0 0.503 0.225 0.503 0.503v7.034zM26.127 27.168c0 0.278-0.225 0.503-0.503 0.503h-1.005c-0.278 0-0.503-0.225-0.503-0.503v-7.034c0-0.278 0.225-0.503 0.503-0.503h1.005c0.278 0 0.503 0.225 0.503 0.503v7.034zM4.020 7.572c2.22 0 4.020-1.799 4.020-4.020s-1.799-4.020-4.020-4.020-4.020 1.799-4.020 4.020 1.799 4.020 4.020 4.020z"></path>
</svg>
