<!-- Generated by IcoMoon.io -->
<svg version="1.1" xmlns="http://www.w3.org/2000/svg" width="36" height="32" viewBox="0 0 36 32">
<title>hotel</title>
<path d="M35.171 3.553c0.555 0 1.005-0.45 1.005-1.005v-2.010c0-0.555-0.45-1.005-1.005-1.005h-34.167c-0.555 0-1.005 0.45-1.005 1.005v2.010c0 0.555 0.45 1.005 1.005 1.005h1.004v24.118h-1.004c-0.555 0-1.005 0.45-1.005 1.005v2.010c0 0.555 0.45 1.005 1.005 1.005h15.073v-5.024c0-0.553 0.452-1.005 1.005-1.005h2.010c0.553 0 1.005 0.452 1.005 1.005v5.024h15.073c0.555 0 1.005-0.45 1.005-1.005v-2.010c0-0.555-0.45-1.005-1.005-1.005h-1.005v-24.118h1.005zM16.078 6.366c0-0.402 0.402-0.804 0.804-0.804h2.412c0.402 0 0.804 0.402 0.804 0.804v2.412c0 0.402-0.402 0.804-0.804 0.804h-2.412c-0.402 0-0.804-0.402-0.804-0.804v-2.412zM16.078 12.396c0-0.402 0.402-0.804 0.804-0.804h2.412c0.402 0 0.804 0.402 0.804 0.804v2.412c0 0.402-0.402 0.804-0.804 0.804h-2.412c-0.402 0-0.804-0.402-0.804-0.804v-2.412zM8.039 6.366c0-0.402 0.402-0.804 0.804-0.804h2.412c0.402 0 0.804 0.402 0.804 0.804v2.412c0 0.402-0.402 0.804-0.804 0.804h-2.412c-0.402 0-0.804-0.402-0.804-0.804v-2.412zM11.255 15.611h-2.412c-0.402 0-0.804-0.402-0.804-0.804v-2.412c0-0.402 0.402-0.804 0.804-0.804h2.412c0.402 0 0.804 0.402 0.804 0.804v2.412c0 0.402-0.402 0.804-0.804 0.804zM12.059 23.651c0-3.33 2.699-6.029 6.029-6.029s6.029 2.699 6.029 6.029h-12.059zM28.137 14.807c0 0.402-0.402 0.804-0.804 0.804h-2.412c-0.402 0-0.804-0.402-0.804-0.804v-2.412c0-0.402 0.402-0.804 0.804-0.804h2.412c0.402 0 0.804 0.402 0.804 0.804v2.412zM28.137 8.778c0 0.402-0.402 0.804-0.804 0.804h-2.412c-0.402 0-0.804-0.402-0.804-0.804v-2.412c0-0.402 0.402-0.804 0.804-0.804h2.412c0.402 0 0.804 0.402 0.804 0.804v2.412z"></path>
</svg>
