<!-- Generated by IcoMoon.io -->
<svg version="1.1" xmlns="http://www.w3.org/2000/svg" width="24" height="32" viewBox="0 0 24 32">
<title>hourglass</title>
<path d="M23.113 2.548h0.251c0.416 0 0.754-0.338 0.754-0.754v-1.507c0-0.416-0.338-0.754-0.754-0.754h-22.61c-0.416 0-0.754 0.338-0.754 0.754v1.507c0 0.416 0.338 0.754 0.754 0.754h0.251c0 5.060 2.022 10.414 6.104 13.064-4.1 2.662-6.104 8.033-6.104 13.064h-0.251c-0.416 0-0.754 0.338-0.754 0.754v1.507c0 0.416 0.338 0.754 0.754 0.754h22.61c0.416 0 0.754-0.338 0.754-0.754v-1.507c0-0.416-0.338-0.754-0.754-0.754h-0.251c0-5.060-2.022-10.414-6.104-13.064 4.1-2.662 6.104-8.033 6.104-13.064zM4.020 2.548h16.078c0 6.382-3.599 11.556-8.039 11.556s-8.039-5.174-8.039-11.556zM20.098 28.675h-16.078c0-6.382 3.599-11.556 8.039-11.556s8.039 5.174 8.039 11.556z"></path>
</svg>
