<!-- Generated by IcoMoon.io -->
<svg version="1.1" xmlns="http://www.w3.org/2000/svg" width="24" height="32" viewBox="0 0 24 32">
<title>hourglass-start</title>
<path d="M22.61-0.467h-21.103c-0.833 0-1.507 0.675-1.507 1.507v1.005c0 0.833 0.675 1.507 1.507 1.507 0 5.713 3.204 10.535 7.59 12.059-4.386 1.524-7.59 6.346-7.59 12.059-0.833 0-1.507 0.675-1.507 1.507v1.005c0 0.832 0.675 1.507 1.507 1.507h21.103c0.832 0 1.507-0.675 1.507-1.507v-1.005c0-0.832-0.675-1.507-1.507-1.507 0-5.713-3.204-10.535-7.59-12.059 4.386-1.524 7.59-6.346 7.59-12.059 0.832 0 1.507-0.675 1.507-1.507v-1.005c0-0.833-0.675-1.507-1.507-1.507zM18.591 27.67h-13.064c0-4.865 2.902-9.044 6.532-9.044s6.532 4.178 6.532 9.044z"></path>
</svg>
