<!-- Generated by IcoMoon.io -->
<svg version="1.1" xmlns="http://www.w3.org/2000/svg" width="24" height="32" viewBox="0 0 24 32">
<title>hourglass-half</title>
<path d="M22.61-0.467h-21.103c-0.833 0-1.507 0.675-1.507 1.507v1.005c0 0.833 0.675 1.507 1.507 1.507 0 5.713 3.204 10.535 7.59 12.059-4.386 1.524-7.59 6.346-7.59 12.059-0.833 0-1.507 0.675-1.507 1.507v1.005c0 0.832 0.675 1.507 1.507 1.507h21.103c0.832 0 1.507-0.675 1.507-1.507v-1.005c0-0.832-0.675-1.507-1.507-1.507 0-5.713-3.204-10.535-7.59-12.059 4.386-1.524 7.59-6.346 7.59-12.059 0.832 0 1.507-0.675 1.507-1.507v-1.005c0-0.833-0.675-1.507-1.507-1.507zM17.895 23.651h-11.672c1.071-2.939 3.272-5.024 5.836-5.024s4.765 2.085 5.836 5.024zM17.896 7.572h-11.673c-0.445-1.222-0.696-2.591-0.696-4.020h13.064c0 1.432-0.25 2.8-0.695 4.020z"></path>
</svg>
