<!-- Generated by IcoMoon.io -->
<svg version="1.1" xmlns="http://www.w3.org/2000/svg" width="36" height="32" viewBox="0 0 36 32">
<title>house-damage</title>
<path d="M18.088 6.753l-13.725 12.106c-0.102 0.092-0.232 0.134-0.344 0.21v11.615c0 0.555 0.45 1.005 1.005 1.005h9.373l-2.338-4.573 6.539-4.020-3.778-7.488 9.298 8.591-6.539 4.020 2.507 3.47h11.066c0.555 0 1.005-0.45 1.005-1.005v-11.613c-0.107-0.073-0.234-0.114-0.33-0.201l-13.738-12.118zM35.843 14.373l-3.686-3.255v-8.57c0-0.555-0.45-1.005-1.005-1.005h-4.020c-0.555 0-1.005 0.45-1.005 1.005v3.246l-6.359-5.614c-0.479-0.431-1.080-0.647-1.68-0.647s-1.2 0.214-1.677 0.645l-16.078 14.195c-0.413 0.371-0.447 1.006-0.076 1.419l1.344 1.496c0.371 0.413 1.006 0.447 1.419 0.076l14.403-12.704c0.38-0.335 0.95-0.335 1.33 0l14.403 12.704c0.413 0.371 1.048 0.337 1.419-0.076l1.344-1.496c0.371-0.413 0.337-1.048-0.077-1.419z"></path>
</svg>
