<!-- Generated by IcoMoon.io -->
<svg version="1.1" xmlns="http://www.w3.org/2000/svg" width="32" height="32" viewBox="0 0 32 32">
<title>hqz-file-format</title>
<path d="M27.737 7.239c-0.002-0.147-0.049-0.293-0.15-0.408l-6.2-7.082c-0.001-0.002-0.003-0.003-0.005-0.004-0.037-0.041-0.079-0.075-0.125-0.105-0.013-0.009-0.027-0.017-0.041-0.025-0.040-0.021-0.081-0.039-0.124-0.052-0.012-0.003-0.022-0.008-0.034-0.011-0.047-0.011-0.095-0.018-0.145-0.018h-15.238c-0.695 0-1.261 0.566-1.261 1.261v29.635c0 0.695 0.566 1.261 1.261 1.261h20.807c0.696 0 1.261-0.566 1.261-1.261v-23.119c0-0.024-0.004-0.047-0.006-0.071zM11.939 29.623h-1.623v-3.012h-2.68v3.012h-1.634v-7.198h1.634v2.766h2.68v-2.766h1.623v7.197zM19.512 30.862c-1.025-0.299-1.88-0.609-2.841-1.015-0.16-0.064-0.331-0.096-0.502-0.106-1.623-0.106-3.14-1.303-3.14-3.653 0-2.157 1.367-3.78 3.513-3.78 2.2 0 3.407 1.666 3.407 3.631 0 1.634-0.759 2.787-1.709 3.214v0.043c0.556 0.16 1.175 0.288 1.741 0.406l-0.47 1.26zM26.156 29.623h-5.596v-0.875l3.428-4.934v-0.043h-3.108v-1.345h5.222v0.94l-3.353 4.87v0.043h3.407v1.345h0zM5.675 20.945v-20.151h14.607v6.452c0 0.348 0.282 0.631 0.631 0.631h5.569l0.001 13.068h-20.808zM16.501 23.6c-1.111 0-1.752 1.089-1.752 2.435-0.010 1.367 0.651 2.413 1.741 2.413 1.1 0 1.74-1.036 1.74-2.445 0-1.314-0.619-2.403-1.729-2.403zM15.207 1.094h1.912v0.789h-1.912v-0.789zM13.295 0.025h1.912v0.591h-1.912v-0.591zM13.295 2.275h1.912v0.789h-1.912v-0.789zM15.207 3.567h1.912v0.789h-1.912v-0.789zM15.27 5.903h1.912v0.789h-1.912v-0.789zM13.295 4.793h1.912v0.789h-1.912v-0.789zM13.357 7.434h1.912v0.789h-1.912v-0.789zM15.27 8.614h1.912v0.789h-1.912v-0.789zM13.357 9.906h1.912v0.789h-1.912v-0.789zM15.207 11.356c-0.939 0-1.386 0.761-1.386 1.701l-0.315 2.85c0 0.94 0.762 1.701 1.701 1.701s1.7-0.762 1.7-1.701l-0.313-2.85c0-0.939-0.448-1.701-1.387-1.701zM15.771 16.86h-1.126v-2.379h1.126v2.379z"></path>
</svg>
