<!-- Generated by IcoMoon.io -->
<svg version="1.1" xmlns="http://www.w3.org/2000/svg" width="24" height="32" viewBox="0 0 24 32">
<title>hryvnia</title>
<path d="M23.113 14.606c0.555 0 1.005-0.45 1.005-1.005v-2.010c0-0.555-0.45-1.005-1.005-1.005h-2.629c0.842-1.798 0.863-3.978-0.259-5.907-1.173-2.017-3.449-3.137-5.781-3.137h-4.95c-1.527 0-3.006 0.536-4.179 1.513l-0.739 0.616c-0.639 0.533-0.726 1.483-0.193 2.123l1.287 1.544c0.533 0.64 1.483 0.726 2.123 0.193l0.737-0.614c0.271-0.226 0.614-0.35 0.967-0.35h5.252c0.734 0 1.331 0.598 1.331 1.332 0 0.371-0.156 0.727-0.428 0.979l-1.852 1.709h-12.794c-0.555 0-1.005 0.45-1.005 1.005v2.010c0 0.555 0.45 1.005 1.005 1.005h8.439l-2.178 2.010h-6.262c-0.555 0-1.005 0.45-1.005 1.005v2.010c0 0.555 0.45 1.005 1.005 1.005h2.629c-0.842 1.798-0.863 3.977 0.259 5.907 1.173 2.016 3.449 3.137 5.781 3.137h4.95c1.527 0 3.006-0.536 4.179-1.513l0.739-0.616c0.639-0.533 0.726-1.483 0.193-2.123l-1.287-1.544c-0.533-0.64-1.483-0.726-2.123-0.193l-0.738 0.615c-0.259 0.217-0.597 0.349-0.965 0.349-0 0-0 0-0 0h-5.252c-0.734 0-1.332-0.598-1.332-1.331 0-0.371 0.156-0.727 0.428-0.979l1.852-1.71h12.794c0.555 0 1.005-0.45 1.005-1.005v-2.010c0-0.555-0.45-1.005-1.005-1.005h-8.439l2.178-2.010h6.262z"></path>
</svg>
