<!-- Generated by IcoMoon.io -->
<svg version="1.1" xmlns="http://www.w3.org/2000/svg" width="32" height="32" viewBox="0 0 32 32">
<title>html-file-with-code-symbol</title>
<path d="M27.737 7.239c-0.002-0.147-0.049-0.293-0.15-0.408l-6.2-7.082c-0.001-0.002-0.003-0.003-0.005-0.004-0.037-0.042-0.079-0.075-0.125-0.105-0.013-0.009-0.027-0.017-0.041-0.025-0.040-0.022-0.081-0.039-0.124-0.052-0.012-0.003-0.022-0.008-0.034-0.011-0.047-0.011-0.095-0.018-0.144-0.018h-15.238c-0.695 0-1.261 0.566-1.261 1.261v29.635c0 0.695 0.566 1.261 1.261 1.261h20.807c0.695 0 1.261-0.566 1.261-1.261v-23.119c-0-0.024-0.004-0.047-0.006-0.071zM5.675 0.794h14.607v6.452c0 0.348 0.282 0.631 0.631 0.631h5.569l0.001 13.068h-20.808v-20.15zM10.535 28.684h-1.263v-2.409h-2.087v2.409h-1.271v-5.757h1.271v2.212h2.087v-2.212h1.263v5.757zM15.522 24.020h-1.529v4.664h-1.272v-4.664h-1.504v-1.094h4.304v1.094zM20.983 28.684l-0.083-2.204c-0.025-0.692-0.050-1.529-0.050-2.366h-0.025c-0.175 0.735-0.408 1.555-0.624 2.23l-0.681 2.246h-0.989l-0.599-2.229c-0.183-0.675-0.374-1.495-0.507-2.247h-0.017c-0.033 0.778-0.059 1.666-0.099 2.384l-0.1 2.187h-1.172l0.357-5.757h1.687l0.549 1.922c0.175 0.666 0.349 1.384 0.474 2.059h0.025c0.158-0.667 0.349-1.426 0.532-2.067l0.599-1.913h1.654l0.307 5.757-1.239-0zM26.694 28.684h-3.499v-5.757h1.272v4.664h2.227v1.094h0zM8.998 14.075l4.831 2.244v-1.067l-3.653-1.6v-0.020l3.653-1.6v-1.066l-4.831 2.244zM14.575 16.721h1.016l2.153-7.296h-1.016zM18.328 12.032l3.734 1.6v0.020l-3.734 1.6v1.067l4.83-2.214v-0.926l-4.83-2.214z"></path>
</svg>
