<!-- Generated by IcoMoon.io -->
<svg version="1.1" xmlns="http://www.w3.org/2000/svg" width="32" height="32" viewBox="0 0 32 32">
<title>hubspot</title>
<path d="M16.794 12.823c-1.576 1.488-2.563 3.599-2.563 5.941 0 1.84 0.609 3.536 1.633 4.899l-3.109 3.128c-0.276-0.1-0.572-0.157-0.879-0.157-0.678 0-1.313 0.264-1.79 0.741s-0.741 1.118-0.741 1.796 0.264 1.313 0.741 1.79c0.477 0.477 1.118 0.729 1.79 0.729 0.678 0 1.313-0.245 1.796-0.729 0.477-0.477 0.741-1.118 0.741-1.79 0-0.264-0.038-0.515-0.119-0.76l3.14-3.153c1.382 1.061 3.103 1.69 4.98 1.69 4.516 0 8.165-3.662 8.165-8.177 0-4.095-2.996-7.486-6.921-8.083v-3.869c1.099-0.465 1.771-1.495 1.771-2.694 0-1.639-1.313-3.008-2.952-3.008s-2.933 1.369-2.933 3.008c0 1.2 0.672 2.23 1.771 2.694v3.844c-0.955 0.132-1.859 0.421-2.682 0.854-1.733-1.313-7.38-5.383-10.608-7.838 0.075-0.276 0.126-0.565 0.126-0.867 0-1.809-1.476-3.278-3.291-3.278-1.809 0-3.278 1.47-3.278 3.278 0 1.815 1.47 3.285 3.278 3.285 0.615 0 1.187-0.182 1.683-0.477l10.25 7.204zM22.415 23.098c-2.393 0-4.334-1.941-4.334-4.334s1.941-4.334 4.334-4.334 4.334 1.941 4.334 4.334-1.941 4.334-4.334 4.334z"></path>
</svg>
