<!-- Generated by IcoMoon.io -->
<svg version="1.1" xmlns="http://www.w3.org/2000/svg" width="32" height="32" viewBox="0 0 32 32">
<title>ibooks-file-format-symbol</title>
<path d="M9.264 26.709h-0.298v1.090c0.086 0.012 0.19 0.012 0.339 0.012 0.396 0 0.746-0.149 0.746-0.557 0-0.39-0.35-0.545-0.786-0.545zM17.363 25.182c-0.591 0-0.935 0.562-0.935 1.315 0 0.757 0.355 1.291 0.941 1.291 0.591 0 0.93-0.563 0.93-1.315 0-0.694-0.333-1.291-0.936-1.291zM9.958 25.607c0-0.292-0.224-0.448-0.62-0.448-0.19 0-0.298 0.011-0.373 0.023v0.901h0.287c0.459 0.001 0.706-0.189 0.706-0.476zM13.248 25.182c-0.591 0-0.935 0.562-0.935 1.315 0 0.757 0.356 1.291 0.941 1.291 0.591 0 0.93-0.563 0.93-1.315 0-0.694-0.333-1.291-0.935-1.291zM27.737 7.239c-0.002-0.148-0.049-0.293-0.15-0.408l-6.2-7.082c-0.001-0.002-0.003-0.002-0.005-0.004-0.037-0.041-0.079-0.075-0.125-0.105-0.013-0.009-0.027-0.017-0.041-0.025-0.040-0.022-0.081-0.039-0.124-0.052-0.012-0.004-0.022-0.008-0.034-0.011-0.047-0.011-0.095-0.018-0.145-0.018h-15.238c-0.695 0-1.261 0.566-1.261 1.261v29.635c0 0.696 0.566 1.261 1.261 1.261h20.807c0.696 0 1.261-0.566 1.261-1.261v-23.119c-0-0.024-0.004-0.047-0.006-0.070zM7.341 28.419h-0.878v-3.868h0.878v3.868zM10.567 28.108c-0.281 0.224-0.752 0.35-1.521 0.35-0.43 0-0.751-0.028-0.947-0.057v-3.799c0.23-0.046 0.695-0.081 1.13-0.081 0.534 0 0.861 0.052 1.142 0.218 0.27 0.143 0.465 0.407 0.465 0.757 0 0.344-0.201 0.665-0.637 0.826v0.012c0.442 0.121 0.769 0.453 0.769 0.953 0.001 0.35-0.16 0.626-0.401 0.821zM13.208 28.482c-1.148 0-1.819-0.866-1.819-1.968 0-1.16 0.741-2.026 1.883-2.026 1.188 0 1.837 0.889 1.837 1.957-0 1.269-0.77 2.037-1.9 2.037zM17.323 28.482c-1.148 0-1.819-0.866-1.819-1.968 0-1.16 0.741-2.026 1.882-2.026 1.188 0 1.837 0.889 1.837 1.957 0 1.269-0.769 2.037-1.9 2.037zM21.944 28.419l-0.947-1.67-0.333 0.407v1.263h-0.867v-3.868h0.867v1.71h0.017c0.086-0.149 0.178-0.287 0.264-0.425l0.878-1.285h1.073l-1.28 1.647 1.349 2.221h-1.022zM24.269 28.476c-0.442 0-0.878-0.115-1.096-0.235l0.178-0.724c0.235 0.121 0.597 0.241 0.97 0.241 0.402 0 0.614-0.166 0.614-0.419 0-0.241-0.184-0.379-0.648-0.546-0.643-0.224-1.062-0.579-1.062-1.142 0-0.66 0.551-1.165 1.464-1.165 0.436 0 0.757 0.092 0.987 0.195l-0.195 0.706c-0.155-0.074-0.43-0.184-0.809-0.184s-0.563 0.172-0.563 0.373c0 0.246 0.218 0.356 0.717 0.545 0.683 0.252 1.004 0.608 1.004 1.153 0.001 0.648-0.499 1.199-1.561 1.199zM5.675 20.945v-20.151h14.607v6.452c0 0.348 0.282 0.631 0.631 0.631h5.569l0.001 13.068h-20.808zM23.952 6.95c-0.006-0.001-0.567-0.057-1.386-0.057-1.824 0-5.052 0.278-6.462 2.104-1.411-1.826-4.639-2.104-6.462-2.104-0.819 0-1.38 0.056-1.386 0.057l-0.469 0.007v1.274l-0.016 8.104c3.535-0.396 7.392 1.509 8.133 1.896v0.016h0.029c0.064 0.034 0.1 0.053 0.1 0.053l0-0.053h0.092v0.053c0 0 0.035-0.020 0.099-0.053h0.002v-0.001c0.662-0.352 4.541-2.313 8.121-1.911l0.040-9.378-0.433-0.007zM15.904 9.269v7.713c-0.727-0.397-3.604-1.853-6.652-1.853-0.333 0-0.662 0.018-0.979 0.052l-0.089 0.010v-7.824c0.175-0.014 0.817-0.047 1.458-0.047 1.78 0 4.918 0.259 6.303 1.949h-0.041zM24.025 15.184l-0.089-0.010c-0.316-0.035-0.646-0.052-0.979-0.052-3.178 0-6.168 1.59-6.732 1.906v-7.747c1.364-1.741 4.545-2.006 6.342-2.006 0.641 0 1.283 0.033 1.458 0.048v7.86h-0z"></path>
</svg>
