<!-- Generated by IcoMoon.io -->
<svg version="1.1" xmlns="http://www.w3.org/2000/svg" width="32" height="32" viewBox="0 0 32 32">
<title>icns-file-format</title>
<path d="M27.737 7.239c-0.002-0.147-0.049-0.293-0.15-0.408l-6.2-7.082c-0.001-0.002-0.003-0.002-0.005-0.004-0.037-0.041-0.079-0.075-0.125-0.105-0.013-0.009-0.027-0.017-0.041-0.025-0.040-0.021-0.081-0.039-0.124-0.052-0.012-0.004-0.022-0.008-0.034-0.011-0.047-0.011-0.095-0.018-0.145-0.018h-15.238c-0.695 0-1.261 0.566-1.261 1.261v29.635c0 0.695 0.566 1.261 1.261 1.261h20.807c0.696 0 1.261-0.566 1.261-1.261v-23.119c0-0.024-0.004-0.047-0.006-0.070zM7.946 29.318h-1.517v-6.684h1.517v6.684zM12.677 28.167c0.456 0 0.962-0.099 1.259-0.218l0.228 1.18c-0.278 0.139-0.903 0.288-1.716 0.288-2.311 0-3.501-1.438-3.501-3.342 0-2.281 1.627-3.55 3.65-3.55 0.783 0 1.379 0.158 1.646 0.297l-0.307 1.2c-0.307-0.129-0.734-0.248-1.269-0.248-1.2 0-2.133 0.724-2.133 2.212-0 1.339 0.793 2.182 2.142 2.182zM20.691 29.318h-1.586l-1.429-2.579c-0.397-0.714-0.832-1.577-1.16-2.36l-0.030 0.009c0.040 0.883 0.059 1.825 0.059 2.916v2.014h-1.388v-6.684h1.765l1.388 2.45c0.397 0.704 0.793 1.537 1.091 2.291h0.030c-0.099-0.882-0.129-1.785-0.129-2.787v-1.953h1.388v6.684h0.001zM23.638 29.417c-0.764 0-1.517-0.199-1.894-0.407l0.307-1.25c0.407 0.208 1.031 0.416 1.676 0.416 0.694 0 1.061-0.288 1.061-0.724 0-0.417-0.317-0.655-1.121-0.943-1.111-0.386-1.834-1.001-1.834-1.973 0-1.14 0.952-2.013 2.529-2.013 0.754 0 1.309 0.158 1.706 0.337l-0.337 1.22c-0.268-0.129-0.744-0.317-1.398-0.317s-0.972 0.297-0.972 0.645c0 0.426 0.377 0.615 1.24 0.942 1.18 0.436 1.736 1.051 1.736 1.993-0 1.121-0.863 2.074-2.698 2.074zM5.675 20.945v-20.151h14.607v6.452c0 0.348 0.282 0.631 0.631 0.631h5.569l0.001 13.068h-20.808zM18.137 5.69h-10.442v9.885h10.442v-9.885zM17.181 13.183h-0.382c-0.364-0.921-0.809-1.887-1.433-1.727-0.584 0.149-0.972 1.101-1.169 1.727h-0.287c-0.214-0.765-0.694-2.146-1.556-3.009-0.977-0.976-1.929 1.784-2.292 3.009h-1.41v-6.537h8.529v6.537h0zM10.678 8.298c0 0.425-0.345 0.77-0.77 0.77s-0.77-0.345-0.77-0.77c0-0.425 0.345-0.77 0.77-0.77s0.77 0.345 0.77 0.77zM14.577 9.562c0.155 0 0.301-0.016 0.43-0.042 0.151 0.065 0.334 0.103 0.533 0.103 0.509 0 0.922-0.249 0.922-0.556s-0.413-0.556-0.922-0.556c-0.191 0-0.368 0.035-0.516 0.095-0.060-0.059-0.142-0.095-0.232-0.095h-0.133c-0.171 0-0.306 0.13-0.326 0.296-0.413 0.042-0.719 0.191-0.719 0.37-0 0.213 0.431 0.386 0.963 0.386zM18.466 8.406v0.976l4.403 0.894-1.302 6.406-3.28-0.667h-6.264l-0.228 1.121 10.233 2.079 1.968-9.686zM18.978 13.74l0.759 0.171-0.924-1.772 0.785 0.177-0.76-1.457 0.483 0.11-0.584-1.12-0.271 0.225v5.248l1.514 0.342z"></path>
</svg>
