<!-- Generated by IcoMoon.io -->
<svg version="1.1" xmlns="http://www.w3.org/2000/svg" width="32" height="32" viewBox="0 0 32 32">
<title>ico-file-format-variant</title>
<path d="M21.209 23.456c-1.247 0-1.974 1.187-1.974 2.773 0 1.597 0.75 2.724 1.986 2.724 1.247 0 1.96-1.186 1.96-2.773 0.001-1.465-0.701-2.724-1.973-2.724zM27.737 7.239c-0.002-0.148-0.048-0.293-0.15-0.408l-6.201-7.082c-0.001-0.002-0.003-0.002-0.005-0.004-0.037-0.041-0.079-0.075-0.125-0.105-0.013-0.009-0.027-0.017-0.041-0.025-0.040-0.022-0.081-0.039-0.124-0.052-0.012-0.004-0.022-0.008-0.034-0.011-0.047-0.011-0.095-0.018-0.145-0.018h-15.238c-0.695 0-1.261 0.566-1.261 1.261v29.635c0 0.696 0.566 1.261 1.261 1.261h20.807c0.696 0 1.261-0.566 1.261-1.261v-23.119c0-0.024-0.004-0.047-0.006-0.071zM9.219 30.284h-1.852v-8.16h1.852v8.16zM14.995 28.88c0.557 0 1.174-0.121 1.537-0.266l0.278 1.44c-0.339 0.171-1.101 0.352-2.094 0.352-2.821 0-4.274-1.756-4.274-4.080 0-2.784 1.985-4.334 4.455-4.334 0.956 0 1.683 0.193 2.010 0.363l-0.376 1.465c-0.375-0.157-0.895-0.302-1.549-0.302-1.465 0-2.603 0.883-2.603 2.699-0 1.635 0.968 2.664 2.615 2.664zM21.124 30.418c-2.422 0-3.837-1.828-3.837-4.153 0-2.446 1.562-4.274 3.971-4.274 2.506 0 3.874 1.876 3.874 4.129-0 2.674-1.622 4.298-4.008 4.298zM5.675 20.945v-20.151h14.607v6.452c0 0.348 0.282 0.631 0.631 0.631h5.569l0.001 13.068h-20.808zM18.605 7.558c0.348 0 0.631-0.283 0.631-0.631v-1.161c0-0.348-0.282-0.631-0.631-0.631h-5.753c-0.348 0-0.631 0.282-0.631 0.631v1.161c0 0.348 0.282 0.631 0.631 0.631h1.569v7.793h-1.569c-0.348 0-0.631 0.283-0.631 0.631v1.161c0 0.348 0.282 0.631 0.631 0.631h5.753c0.348 0 0.631-0.282 0.631-0.631v-1.161c0-0.348-0.282-0.631-0.631-0.631h-1.411v-7.793h1.411z"></path>
</svg>
