<svg fill="#000000" xmlns="http://www.w3.org/2000/svg"  viewBox="0 0 32 32" width="64px" height="64px"><path d="M 16 3 C 14.895 3 14 3.895 14 5 C 14 5.0878128 14.01443 5.1710428 14.025391 5.2558594 C 10.571386 6.1399261 8 9.2752191 8 13 L 8 22 C 8 22.56503 7.5650302 23 7 23 L 6 23 L 6 25 L 7 25 L 13.416016 25 C 13.278986 25.342014 13 25.611652 13 26 C 13 27.64497 14.35503 29 16 29 C 17.64497 29 19 27.64497 19 26 C 19 25.611652 18.721014 25.342014 18.583984 25 L 25 25 L 26 25 L 26 23 L 25 23 C 24.43497 23 24 22.56503 24 22 L 24 13.292969 C 24 9.5377667 21.490315 6.1883288 17.972656 5.2597656 C 17.983962 5.1736557 18 5.0892077 18 5 C 18 3.895 17.105 3 16 3 z M 16.185547 7.0019531 C 19.452305 7.0999901 22 9.9735784 22 13.292969 L 22 22 C 22 22.388348 22.278986 22.657986 22.416016 23 L 16 23 L 9.5839844 23 C 9.7210143 22.657986 10 22.388348 10 22 L 10 13 C 10 9.612364 12.771694 6.8994686 16.185547 7.0019531 z M 4.1894531 8.5839844 C 2.6202113 12.016159 2.6184477 15.982209 4.1933594 19.416016 L 6.0117188 18.583984 C 4.6806305 15.681791 4.6810543 12.317841 6.0078125 9.4160156 L 4.1894531 8.5839844 z M 27.810547 8.5839844 L 25.992188 9.4160156 C 27.318946 12.317841 27.319363 15.681791 25.988281 18.583984 L 27.806641 19.416016 C 29.381552 15.982209 29.379796 12.016159 27.810547 8.5839844 z M 16 25 C 16.56503 25 17 25.43497 17 26 C 17 26.56503 16.56503 27 16 27 C 15.43497 27 15 26.56503 15 26 C 15 25.43497 15.43497 25 16 25 z"/></svg>