<?xml version="1.0"?><svg fill="#000000" xmlns="http://www.w3.org/2000/svg"  viewBox="0 0 100 100" width="200px" height="200px">    <path d="M 68.822266 21.005859 C 67.542891 21.051359 66.281297 21.58525 65.341797 22.59375 L 37.908203 52.033203 L 34.636719 48.568359 C 32.741719 46.563359 29.572359 46.474234 27.568359 48.365234 C 26.597359 49.282234 26.041906 50.521422 26.003906 51.857422 C 25.965906 53.192422 26.448234 54.462594 27.365234 55.433594 L 31.078125 59.363281 L 27.976562 62.691406 L 14.636719 48.568359 C 12.742719 46.563359 9.5733594 46.474234 7.5683594 48.365234 C 6.5973594 49.282234 6.0419062 50.521422 6.0039062 51.857422 C 5.9659062 53.192422 6.4482344 54.462594 7.3652344 55.433594 L 24.365234 73.433594 C 25.305234 74.429594 26.63 75 28 75 L 28.017578 75 C 29.392578 74.995 30.719203 74.415203 31.658203 73.408203 L 37.957031 66.648438 L 44.365234 73.433594 C 45.305234 74.429594 46.629578 75 48.017578 75 C 49.392578 74.995 50.719203 74.415203 51.658203 73.408203 L 92.658203 29.408203 C 94.536203 27.392203 94.425203 24.221797 92.408203 22.341797 C 90.390203 20.460797 87.220797 20.574797 85.341797 22.591797 L 47.976562 62.691406 L 44.787109 59.318359 L 72.658203 29.408203 C 74.537203 27.391203 74.425203 24.22275 72.408203 22.34375 C 71.399203 21.40325 70.101641 20.960359 68.822266 21.005859 z M 68.894531 23.001953 C 69.662031 22.975078 70.441375 23.241187 71.046875 23.804688 C 72.256875 24.932688 72.322313 26.834922 71.195312 28.044922 L 30.195312 72.044922 C 29.632313 72.648922 28.836672 72.997 28.013672 73 L 28 73 C 27.178 73 26.383359 72.657547 25.818359 72.060547 L 8.8183594 54.060547 C 8.2683594 53.478547 7.9789531 52.715062 8.0019531 51.914062 C 8.0249531 51.113062 8.3564531 50.368359 8.9394531 49.818359 C 9.5184531 49.271359 10.258047 49.001953 10.998047 49.001953 C 11.796047 49.001953 12.591641 49.315453 13.181641 49.939453 L 27.253906 64.839844 C 27.441906 65.039844 27.704469 65.152344 27.980469 65.152344 L 27.984375 65.152344 C 28.260375 65.151344 28.523891 65.037937 28.712891 64.835938 L 66.806641 23.955078 C 67.371141 23.349078 68.127031 23.028828 68.894531 23.001953 z M 88.894531 23.003906 C 89.662031 22.977031 90.441375 23.243141 91.046875 23.806641 C 92.255875 24.933641 92.322313 26.834922 91.195312 28.044922 L 50.195312 72.044922 C 49.632313 72.647922 48.836 72.997 48 73 C 47.178 73 46.383359 72.657547 45.818359 72.060547 L 39.322266 65.183594 L 43.421875 60.783203 L 47.253906 64.841797 C 47.441906 65.041797 47.704469 65.154297 47.980469 65.154297 L 47.984375 65.154297 C 48.260375 65.153297 48.523891 65.037938 48.712891 64.835938 L 86.806641 23.955078 C 87.371141 23.349078 88.127031 23.030781 88.894531 23.003906 z M 87.339844 28 C 87.211844 28.004625 87.084234 28.057203 86.990234 28.158203 L 86.134766 29.078125 C 85.946766 29.280125 85.956203 29.597156 86.158203 29.785156 C 86.255203 29.875156 86.378 29.919922 86.5 29.919922 C 86.634 29.919922 86.767234 29.866719 86.865234 29.761719 L 87.722656 28.841797 C 87.910656 28.639797 87.899266 28.323766 87.697266 28.134766 C 87.596266 28.040266 87.467844 27.995375 87.339844 28 z M 84.482422 31.066406 C 84.354422 31.071156 84.228766 31.124109 84.134766 31.224609 L 81.400391 34.158203 C 81.212391 34.360203 81.223781 34.677234 81.425781 34.865234 C 81.522781 34.955234 81.645578 35 81.767578 35 C 81.900578 35 82.033813 34.946797 82.132812 34.841797 L 84.865234 31.90625 C 85.053234 31.70425 85.043797 31.388219 84.841797 31.199219 C 84.740797 31.104719 84.610422 31.061656 84.482422 31.066406 z M 79.982422 35.896484 C 79.854422 35.901109 79.729266 35.954188 79.634766 36.054688 L 48.003906 69.996094 L 42.863281 64.554688 C 42.675281 64.355688 42.35625 64.343203 42.15625 64.533203 C 41.95625 64.722203 41.947719 65.039234 42.136719 65.240234 L 47.267578 70.675781 C 47.454578 70.882781 47.721766 71 48.009766 71 C 48.268766 71 48.529328 70.889641 48.736328 70.681641 L 80.367188 36.736328 C 80.555188 36.534328 80.543797 36.217297 80.341797 36.029297 C 80.240297 35.935297 80.110422 35.891859 79.982422 35.896484 z M 56.982422 39.115234 C 56.854547 39.119734 56.729266 39.172937 56.634766 39.273438 L 33.445312 64.158203 C 33.257312 64.360203 33.268703 64.677234 33.470703 64.865234 C 33.567703 64.955234 33.6895 65 33.8125 65 C 33.9465 65 34.079734 64.946797 34.177734 64.841797 L 57.365234 39.955078 C 57.553234 39.753078 57.543797 39.436047 57.341797 39.248047 C 57.240797 39.154547 57.110297 39.110734 56.982422 39.115234 z M 31.085938 49.003906 C 31.853562 49.026031 32.613641 49.338953 33.181641 49.939453 L 36.541016 53.498047 L 32.441406 57.896484 L 28.818359 54.060547 C 28.268359 53.478547 27.978953 52.715062 28.001953 51.914062 C 28.024953 51.113062 28.356453 50.368359 28.939453 49.818359 C 29.541953 49.250359 30.318313 48.981781 31.085938 49.003906 z M 31.982422 65.945312 C 31.854422 65.949938 31.728766 66.002516 31.634766 66.103516 L 30.650391 67.160156 C 30.462391 67.362156 30.473781 67.679188 30.675781 67.867188 C 30.771781 67.956188 30.895578 68 31.017578 68 C 31.151578 68 31.284813 67.946797 31.382812 67.841797 L 32.365234 66.785156 C 32.553234 66.583156 32.543797 66.266125 32.341797 66.078125 C 32.240797 65.984625 32.110422 65.940687 31.982422 65.945312 z"/></svg>