<svg fill="#000000" xmlns="http://www.w3.org/2000/svg"  viewBox="0 0 32 32" width="32px" height="32px"><path d="M 9 4 L 9 5 L 5 5 L 5 27 L 14.458984 27 C 14.257984 26.359 14.119781 25.69 14.050781 25 L 7 25 L 7 11 L 25 11 L 25 14.050781 C 25.69 14.119781 26.359 14.256984 27 14.458984 L 27 5 L 23 5 L 23 4 L 21 4 L 21 5 L 11 5 L 11 4 L 9 4 z M 7 7 L 9 7 L 9 8 L 11 8 L 11 7 L 21 7 L 21 8 L 23 8 L 23 7 L 25 7 L 25 9 L 7 9 L 7 7 z M 13 13 L 13 15 L 15 15 L 15 13 L 13 13 z M 17 13 L 17 15 L 19 15 L 19 13 L 17 13 z M 23 16 L 23 18.199219 C 22.1 18.299219 21.2 18.699219 20.5 19.199219 L 19 17.699219 L 17.599609 19.099609 L 19.099609 20.5 C 18.599609 21.3 18.299609 22.1 18.099609 23 L 16 23 L 16 25 L 18.099609 25 C 18.199609 25.9 18.599609 26.8 19.099609 27.5 L 17.599609 29 L 19 30.400391 L 20.5 28.900391 C 21.3 29.400391 22.1 29.700391 23 29.900391 L 23 32 L 25 32 L 25 29.900391 C 25.9 29.800391 26.8 29.400391 27.5 28.900391 L 29 30.400391 L 30.400391 29 L 28.900391 27.5 C 29.400391 26.7 29.700391 25.9 29.900391 25 L 32 25 L 32 23 L 29.900391 23 C 29.800391 22.1 29.400391 21.2 28.900391 20.5 L 30.400391 19 L 29 17.599609 L 27.5 19.099609 C 26.7 18.599609 25.9 18.299609 25 18.099609 L 25 16 L 23 16 z M 9 17 L 9 19 L 11 19 L 11 17 L 9 17 z M 13 17 L 13 19 L 15 19 L 15 17 L 13 17 z M 24 20 C 26.2 20 28 21.8 28 24 C 28 26.2 26.2 28 24 28 C 21.8 28 20 26.2 20 24 C 20 21.8 21.8 20 24 20 z M 9 21 L 9 23 L 11 23 L 11 21 L 9 21 z M 24 22 C 22.9 22 22 22.9 22 24 C 22 25.1 22.9 26 24 26 C 25.1 26 26 25.1 26 24 C 26 22.9 25.1 22 24 22 z"/></svg>