<!-- Generated by IcoMoon.io -->
<svg version="1.1" xmlns="http://www.w3.org/2000/svg" width="32" height="32" viewBox="0 0 32 32">
<title>ics-file-format-symbol</title>
<path d="M27.737 7.239c-0.002-0.148-0.049-0.293-0.15-0.408l-6.2-7.082c-0.001-0.002-0.003-0.003-0.005-0.004-0.037-0.041-0.079-0.075-0.125-0.105-0.013-0.009-0.027-0.017-0.041-0.025-0.040-0.021-0.081-0.039-0.124-0.052-0.012-0.003-0.022-0.008-0.034-0.011-0.047-0.011-0.095-0.018-0.145-0.018h-15.238c-0.695 0-1.261 0.566-1.261 1.261v29.635c0 0.696 0.566 1.261 1.261 1.261h20.807c0.696 0 1.261-0.566 1.261-1.261v-23.119c-0-0.024-0.004-0.047-0.006-0.071zM10.467 29.951h-1.799v-7.923h1.799v7.923zM16.075 28.587c0.541 0 1.14-0.118 1.493-0.259l0.27 1.399c-0.329 0.165-1.070 0.341-2.034 0.341-2.739 0-4.15-1.705-4.15-3.962 0-2.704 1.928-4.209 4.326-4.209 0.929 0 1.634 0.188 1.951 0.353l-0.364 1.423c-0.364-0.153-0.87-0.294-1.505-0.294-1.422 0-2.528 0.858-2.528 2.622 0.001 1.587 0.941 2.586 2.54 2.586zM20.955 30.068c-0.905 0-1.799-0.235-2.246-0.482l0.364-1.481c0.482 0.247 1.223 0.494 1.987 0.494 0.823 0 1.258-0.341 1.258-0.858 0-0.493-0.376-0.776-1.328-1.117-1.317-0.458-2.175-1.187-2.175-2.339 0-1.352 1.129-2.386 2.998-2.386 0.893 0 1.552 0.188 2.022 0.4l-0.4 1.446c-0.317-0.153-0.882-0.376-1.658-0.376s-1.152 0.353-1.152 0.764c0 0.506 0.447 0.729 1.47 1.117 1.399 0.517 2.057 1.246 2.057 2.363-0.001 1.329-1.023 2.457-3.198 2.457zM5.675 20.945v-20.151h14.607v6.452c0 0.348 0.282 0.631 0.631 0.631h5.569l0.001 13.068h-20.808zM21.713 6.777h-1.651v-1.131h-0.826v1.131h-1.57v-1.131h-0.795v1.131h-1.517v-1.131h-0.795v1.131h-1.637v-1.131h-0.826v1.131h-1.503v-1.131h-0.795v1.262c-0.403 0.2-0.684 0.612-0.684 1.092v8.867c0 0.675 0.549 1.223 1.223 1.223h11.375c0.674 0 1.223-0.549 1.223-1.223v-8.867c-0-0.674-0.549-1.223-1.223-1.223zM21.957 16.867c0 0.135-0.11 0.245-0.245 0.245h-11.375c-0.135 0-0.244-0.11-0.244-0.245v-8.073h11.864v8.073zM14.94 9.483h1.773v1.774h-1.773v-1.774zM17.967 9.483h1.773v1.774h-1.773v-1.774zM12.005 12.021h1.773v1.773h-1.773v-1.773zM14.94 12.021h1.773v1.773h-1.773v-1.773zM17.967 12.021h1.773v1.773h-1.773v-1.773zM12.005 14.562h1.773v1.773h-1.773v-1.773zM14.94 14.562h1.773v1.773h-1.773v-1.773zM17.967 14.562h1.773v1.773h-1.773v-1.773z"></path>
</svg>
