<!-- Generated by IcoMoon.io -->
<svg version="1.1" xmlns="http://www.w3.org/2000/svg" width="36" height="32" viewBox="0 0 36 32">
<title>id-card</title>
<path d="M33.162 1.543h-30.147c-1.664 0-3.015 1.35-3.015 3.015v22.108c0 1.664 1.35 3.015 3.015 3.015h30.147c1.664 0 3.015-1.35 3.015-3.015v-22.108c0-1.664-1.35-3.015-3.015-3.015zM33.162 26.665h-14.119c0.057-0.283 0.050 0.226 0.050-1.407 0-1.997-1.89-3.618-4.221-3.618-0.678 0-1.175 0.503-2.814 0.503-1.69 0-2.098-0.503-2.814-0.503-2.33 0-4.221 1.62-4.221 3.618 0 1.633-0.013 1.124 0.050 1.407h-2.060v-18.088h30.147v18.088zM22.61 21.641h7.034c0.276 0 0.503-0.226 0.503-0.503v-1.005c0-0.276-0.226-0.503-0.503-0.503h-7.034c-0.276 0-0.503 0.226-0.503 0.503v1.005c0 0.276 0.226 0.503 0.503 0.503zM22.61 17.621h7.034c0.276 0 0.503-0.226 0.503-0.503v-1.005c0-0.276-0.226-0.502-0.503-0.502h-7.034c-0.276 0-0.503 0.226-0.503 0.502v1.005c0 0.276 0.226 0.503 0.503 0.503zM22.61 13.602h7.034c0.276 0 0.503-0.226 0.503-0.502v-1.005c0-0.276-0.226-0.502-0.503-0.502h-7.034c-0.276 0-0.503 0.226-0.503 0.502v1.005c0 0.276 0.226 0.502 0.503 0.502zM12.059 19.631c2.217 0 4.020-1.802 4.020-4.020s-1.803-4.020-4.020-4.020-4.020 1.803-4.020 4.020 1.803 4.020 4.020 4.020z"></path>
</svg>
