<!-- Generated by IcoMoon.io -->
<svg version="1.1" xmlns="http://www.w3.org/2000/svg" width="36" height="32" viewBox="0 0 36 32">
<title>id-card1</title>
<path d="M33.162 1.543h-30.147c-1.664 0-3.015 1.35-3.015 3.015v1.005h36.176v-1.005c0-1.664-1.35-3.015-3.015-3.015zM0 26.665c0 1.664 1.35 3.015 3.015 3.015h30.147c1.664 0 3.015-1.35 3.015-3.015v-19.093h-36.176v19.093zM22.108 12.094c0-0.276 0.226-0.502 0.503-0.502h9.044c0.276 0 0.502 0.226 0.502 0.502v1.005c0 0.276-0.226 0.502-0.503 0.502h-9.044c-0.276 0-0.503-0.226-0.503-0.502v-1.005zM22.108 16.114c0-0.276 0.226-0.502 0.503-0.502h9.044c0.276 0 0.502 0.226 0.502 0.502v1.005c0 0.276-0.226 0.503-0.503 0.503h-9.044c-0.276 0-0.503-0.226-0.503-0.503v-1.005zM22.108 20.133c0-0.276 0.226-0.503 0.503-0.503h9.044c0.276 0 0.502 0.226 0.502 0.503v1.005c0 0.276-0.226 0.503-0.503 0.503h-9.044c-0.276 0-0.503-0.226-0.503-0.503v-1.005zM11.054 11.592c2.217 0 4.020 1.803 4.020 4.020s-1.803 4.020-4.020 4.020-4.020-1.802-4.020-4.020 1.802-4.020 4.020-4.020zM4.214 24.417c0.527-1.614 2.041-2.776 3.825-2.776h0.515c0.772 0.32 1.614 0.503 2.5 0.503s1.733-0.182 2.5-0.503h0.515c1.784 0 3.297 1.162 3.825 2.776 0.201 0.622-0.327 1.244-0.98 1.244h-11.72c-0.653 0-1.181-0.628-0.98-1.244z"></path>
</svg>
