<!-- Generated by IcoMoon.io -->
<svg version="1.1" xmlns="http://www.w3.org/2000/svg" width="36" height="32" viewBox="0 0 36 32">
<title>id-card-alt</title>
<path d="M33.162 3.553h-9.044v6.029h-12.059v-6.029h-9.044c-1.664 0-3.015 1.35-3.015 3.015v22.108c0 1.664 1.35 3.015 3.015 3.015h30.147c1.664 0 3.015-1.35 3.015-3.015v-22.108c0-1.664-1.35-3.015-3.015-3.015zM18.088 13.602c2.217 0 4.020 1.803 4.020 4.020s-1.802 4.020-4.020 4.020-4.020-1.802-4.020-4.020 1.803-4.020 4.020-4.020zM23.948 27.67h-11.72c-0.653 0-1.181-0.628-0.98-1.244 0.521-1.608 2.035-2.776 3.825-2.776h0.515c0.773 0.32 1.614 0.503 2.5 0.503s1.733-0.182 2.5-0.503h0.515c1.784 0 3.297 1.162 3.825 2.776 0.201 0.615-0.327 1.244-0.98 1.244zM22.108 1.543c0-1.112-0.898-2.010-2.010-2.010h-4.020c-1.112 0-2.010 0.898-2.010 2.010v6.029h8.039v-6.029z"></path>
</svg>
