<!-- Generated by IcoMoon.io -->
<svg version="1.1" xmlns="http://www.w3.org/2000/svg" width="32" height="32" viewBox="0 0 32 32">
<title>iff-file-format</title>
<path d="M27.737 7.239c-0.002-0.147-0.049-0.293-0.15-0.408l-6.2-7.082c-0.001-0.002-0.003-0.002-0.005-0.004-0.037-0.041-0.079-0.075-0.125-0.105-0.013-0.009-0.027-0.017-0.041-0.025-0.040-0.022-0.081-0.039-0.124-0.052-0.012-0.004-0.022-0.008-0.034-0.011-0.047-0.011-0.095-0.018-0.145-0.018h-15.238c-0.695 0-1.261 0.566-1.261 1.261v29.635c0 0.695 0.566 1.261 1.261 1.261h20.807c0.696 0 1.261-0.566 1.261-1.261v-23.119c0-0.024-0.004-0.047-0.006-0.070zM11.459 30.382h-1.889v-8.323h1.889v8.323zM18.176 23.602h-3.199v1.902h2.989v1.531h-2.989v3.346h-1.889v-8.323h5.088v1.544zM24.683 23.602h-3.199v1.902h2.988v1.531h-2.988v3.346h-1.889v-8.323h5.088v1.544zM5.675 20.945v-20.151h14.607v6.452c0 0.348 0.282 0.631 0.631 0.631h5.569l0.001 13.068h-20.808zM17.277 11.718c-1.695-1.185-1.691-1.464-1.691-1.464-0.323 0.038-0.356 0.283-0.356 0.283v5.583c-0.243-0.084-0.533-0.099-0.83-0.026-0.658 0.164-1.088 0.707-0.962 1.213 0.074 0.466 0.762 0.779 1.42 0.614 0.578-0.143 0.982-0.58 0.984-1.027h0.002l0.015-5.301c0 0 1.154-0.061 2.284 1.71 0 0 0.003-0.914-0.867-1.584zM21.643 10.874c-0.212-3.053-2.758-5.474-5.864-5.474s-5.652 2.421-5.864 5.474c-0.507 0.017-0.914 0.431-0.914 0.943v4.729c0 0.522 0.423 0.946 0.946 0.946h0.841c0.522 0 0.946-0.424 0.946-0.946v-4.729c0-0.498-0.385-0.9-0.873-0.938 0.208-2.534 2.332-4.532 4.918-4.532s4.71 1.999 4.918 4.532c-0.487 0.038-0.872 0.441-0.872 0.938v4.729c0 0.522 0.424 0.946 0.946 0.946h0.841c0.522 0 0.946-0.424 0.946-0.946v-4.729c0-0.512-0.407-0.925-0.914-0.943z"></path>
</svg>
