<!-- Generated by IcoMoon.io -->
<svg version="1.1" xmlns="http://www.w3.org/2000/svg" width="36" height="32" viewBox="0 0 36 32">
<title>igloo</title>
<path d="M20.098 1.662c-0.66-0.075-1.331-0.119-2.010-0.119-6.268 0-11.795 3.191-15.036 8.039h17.046v-7.92zM6.029 11.592h-4.126c-1.206 2.424-1.903 5.15-1.903 8.039h6.029v-8.039zM22.108 2.008v7.574h11.016c-2.525-3.775-6.444-6.538-11.016-7.574zM30.147 19.631h6.029c0-2.889-0.697-5.615-1.903-8.039h-4.126v8.039zM26.127 23.651v6.029h8.039c1.112 0 2.010-0.898 2.010-2.010v-6.029h-10.332c0.163 0.647 0.283 1.313 0.283 2.010zM28.137 11.592h-20.098v8.039h3.128c1.394-2.393 3.957-4.020 6.921-4.020s5.527 1.627 6.921 4.020h3.128v-8.039zM0 27.67c0 1.112 0.898 2.010 2.010 2.010h8.039v-6.029c0-0.697 0.119-1.363 0.283-2.010h-10.332v6.029zM18.088 17.621c-3.329 0-6.029 2.701-6.029 6.029v6.029h12.059v-6.029c0-3.329-2.701-6.029-6.029-6.029z"></path>
</svg>
