<!-- Generated by IcoMoon.io -->
<svg version="1.1" xmlns="http://www.w3.org/2000/svg" width="32" height="32" viewBox="0 0 32 32">
<title>image</title>
<path d="M29.142 3.553h-26.127c-1.665 0-3.015 1.35-3.015 3.015v18.088c0 1.665 1.35 3.015 3.015 3.015h26.127c1.665 0 3.015-1.35 3.015-3.015v-18.088c0-1.665-1.35-3.015-3.015-3.015zM28.765 24.655h-25.374c-0.208 0-0.377-0.169-0.377-0.377v0-17.334c0-0.208 0.169-0.377 0.377-0.377v0h25.374c0.208 0 0.377 0.169 0.377 0.377v0 17.334c0 0.208-0.169 0.377-0.377 0.377v0zM8.039 9.080c-1.387 0-2.512 1.125-2.512 2.512s1.125 2.512 2.512 2.512 2.512-1.125 2.512-2.512-1.125-2.512-2.512-2.512zM6.029 21.641h20.098v-5.024l-5.496-5.496c-0.294-0.294-0.771-0.294-1.066 0l-7.506 7.506-2.482-2.482c-0.294-0.294-0.771-0.294-1.066 0l-2.482 2.482v3.015z"></path>
</svg>
