<!-- Generated by IcoMoon.io -->
<svg version="1.1" xmlns="http://www.w3.org/2000/svg" width="36" height="32" viewBox="0 0 36 32">
<title>images1</title>
<path d="M30.147 25.66v1.005c0 1.665-1.35 3.015-3.015 3.015h-24.118c-1.665 0-3.015-1.35-3.015-3.015v-16.078c0-1.665 1.35-3.015 3.015-3.015h1.005v13.064c0 2.77 2.254 5.024 5.024 5.024h21.103zM36.176 20.636v-16.078c0-1.665-1.35-3.015-3.015-3.015h-24.118c-1.665 0-3.015 1.35-3.015 3.015v16.078c0 1.665 1.35 3.015 3.015 3.015h24.118c1.665 0 3.015-1.35 3.015-3.015zM16.078 7.572c0 1.665-1.35 3.015-3.015 3.015s-3.015-1.35-3.015-3.015 1.35-3.015 3.015-3.015 3.015 1.35 3.015 3.015zM10.049 16.616l3.487-3.487c0.294-0.294 0.771-0.294 1.066 0l2.482 2.482 8.511-8.511c0.294-0.294 0.771-0.294 1.066 0l5.496 5.496v7.034h-22.108v-3.015z"></path>
</svg>
