<!-- Generated by IcoMoon.io -->
<svg version="1.1" xmlns="http://www.w3.org/2000/svg" width="36" height="32" viewBox="0 0 36 32">
<title>images</title>
<path d="M30.147 25.66v1.005c0 1.665-1.35 3.015-3.015 3.015h-24.118c-1.665 0-3.015-1.35-3.015-3.015v-16.078c0-1.665 1.35-3.015 3.015-3.015h1.005v3.015h-0.628c-0.208 0-0.377 0.169-0.377 0.377v0 15.325c0 0.208 0.169 0.377 0.377 0.377v0h23.364c0.208 0 0.377-0.169 0.377-0.377v0-0.628h3.015zM32.785 4.557h-23.364c-0.208 0-0.377 0.169-0.377 0.377v0 15.325c0 0.208 0.169 0.377 0.377 0.377v0h23.364c0.208 0 0.377-0.169 0.377-0.377v0-15.325c0-0.208-0.169-0.377-0.377-0.377v0zM33.162 1.543c1.665 0 3.015 1.35 3.015 3.015v16.078c0 1.665-1.35 3.015-3.015 3.015h-24.118c-1.665 0-3.015-1.35-3.015-3.015v-16.078c0-1.665 1.35-3.015 3.015-3.015h24.118zM16.581 8.577c0 1.387-1.125 2.512-2.512 2.512s-2.512-1.125-2.512-2.512 1.125-2.512 2.512-2.512 2.512 1.125 2.512 2.512zM12.059 14.606l2.482-2.482c0.294-0.294 0.771-0.294 1.066 0l2.482 2.482 6.501-6.501c0.294-0.294 0.771-0.294 1.066 0l4.491 4.492v5.024h-18.088v-3.015z"></path>
</svg>
