<!-- Generated by IcoMoon.io -->
<svg version="1.1" xmlns="http://www.w3.org/2000/svg" width="32" height="32" viewBox="0 0 32 32">
<title>image1</title>
<path d="M29.142 27.67h-26.127c-1.665 0-3.015-1.35-3.015-3.015v-18.088c0-1.665 1.35-3.015 3.015-3.015h26.127c1.665 0 3.015 1.35 3.015 3.015v18.088c0 1.665-1.35 3.015-3.015 3.015zM7.034 7.070c-1.942 0-3.517 1.575-3.517 3.517s1.575 3.517 3.517 3.517 3.517-1.575 3.517-3.517-1.575-3.517-3.517-3.517zM4.020 23.651h24.118v-7.034l-5.496-5.496c-0.294-0.294-0.771-0.294-1.066 0l-8.511 8.511-3.487-3.487c-0.294-0.294-0.771-0.294-1.066 0l-4.492 4.492v3.015z"></path>
</svg>
