<!-- Generated by IcoMoon.io -->
<svg version="1.1" xmlns="http://www.w3.org/2000/svg" width="28" height="32" viewBox="0 0 28 32">
<title>imdb</title>
<path d="M22.014 17.665c0 0.339 0.1 0.904-0.389 0.904-0.1 0-0.188-0.050-0.239-0.151-0.138-0.32-0.069-2.77-0.069-2.807 0-0.239-0.069-0.798 0.308-0.798 0.458 0 0.389 0.458 0.389 0.798v2.054zM16.644 13.972c0-0.609 0.1-1.005-0.647-1.005v5.257c0.766 0.019 0.647-0.546 0.647-1.156v-3.096zM28.137 4.557v22.108c0 1.664-1.35 3.015-3.015 3.015h-22.108c-1.664 0-3.015-1.35-3.015-3.015v-22.108c0-1.664 1.35-3.015 3.015-3.015h22.108c1.664 0 3.015 1.35 3.015 3.015zM1.338 13.903c-0.006 0.006-0.012 0.019-0.019 0.025h0.019v-0.025zM6.092 11.592h-2.073v8.027h2.073v-8.027zM13.208 11.592h-2.707l-0.477 3.762c-0.17-1.256-0.339-2.519-0.546-3.762h-2.688v8.027h1.821v-5.307l0.766 5.307h1.294l0.729-5.426v5.426h1.803v-8.027zM18.628 14.437c0-0.509 0.019-1.055-0.088-1.533-0.27-1.413-1.972-1.313-3.078-1.313h-1.545v8.027c5.408 0.006 4.71 0.377 4.71-5.181zM24.023 15.523c0-1.087-0.050-1.89-1.394-1.89-0.559 0-0.936 0.17-1.313 0.578v-2.619h-1.991v8.027h1.872l0.119-0.509c0.358 0.427 0.747 0.615 1.313 0.615 1.244 0 1.394-0.955 1.394-1.941v-2.261z"></path>
</svg>
