<!-- Generated by IcoMoon.io -->
<svg version="1.1" xmlns="http://www.w3.org/2000/svg" width="36" height="32" viewBox="0 0 36 32">
<title>inbox</title>
<path d="M35.67 14.852l-6.638-9.957c-0.548-0.814-1.467-1.342-2.508-1.342h-16.871c-1.042 0-1.96 0.528-2.502 1.332l-0.007 0.011-6.638 9.957c-0.317 0.47-0.506 1.049-0.506 1.672 0 0 0 0 0 0v0 8.131c0 1.665 1.35 3.015 3.015 3.015h30.147c1.665 0 3.015-1.35 3.015-3.015v-8.131c0 0 0-0 0-0 0-0.623-0.189-1.202-0.513-1.683l0.007 0.011zM10.19 7.572h15.796l5.359 8.039h-7.73l-2.010 4.020h-7.034l-2.010-4.020h-7.73l5.359-8.039z"></path>
</svg>
