<!-- Generated by IcoMoon.io -->
<svg version="1.1" xmlns="http://www.w3.org/2000/svg" width="32" height="32" viewBox="0 0 32 32">
<title>indd-file-format-variant</title>
<path d="M17.064 24.228c-0.289 0-0.475 0.026-0.586 0.051v3.744c0.11 0.026 0.289 0.026 0.449 0.026 1.172 0.009 1.936-0.637 1.936-2.004 0.008-1.189-0.688-1.817-1.8-1.817zM22.973 24.228c-0.288 0-0.475 0.026-0.586 0.051v3.744c0.11 0.026 0.289 0.026 0.45 0.026 1.171 0.009 1.936-0.637 1.936-2.004 0.008-1.189-0.688-1.817-1.801-1.817zM27.737 7.239c-0.002-0.148-0.049-0.293-0.15-0.408l-6.201-7.082c-0.001-0.002-0.003-0.002-0.005-0.004-0.037-0.041-0.079-0.075-0.125-0.105-0.013-0.009-0.027-0.017-0.041-0.025-0.040-0.021-0.081-0.039-0.125-0.052-0.012-0.003-0.022-0.008-0.034-0.011-0.047-0.011-0.096-0.018-0.145-0.018h-15.238c-0.695 0-1.261 0.566-1.261 1.261v29.635c0 0.696 0.566 1.261 1.261 1.261h20.807c0.696 0 1.261-0.566 1.261-1.261v-23.119c0-0.024-0.004-0.047-0.006-0.070zM8.201 29h-1.3v-5.722h1.3v5.722zM14.058 29h-1.358l-1.223-2.207c-0.339-0.611-0.713-1.35-0.993-2.021l-0.025 0.009c0.034 0.755 0.051 1.562 0.051 2.496v1.724h-1.189v-5.722h1.511l1.189 2.097c0.339 0.603 0.679 1.316 0.934 1.961h0.025c-0.085-0.755-0.111-1.528-0.111-2.385v-1.673h1.189v5.722h0zM19.289 28.321c-0.603 0.501-1.52 0.738-2.641 0.738-0.671 0-1.146-0.042-1.469-0.085v-5.62c0.476-0.076 1.096-0.119 1.75-0.119 1.087 0 1.792 0.195 2.344 0.611 0.595 0.442 0.968 1.146 0.968 2.157-0 1.095-0.399 1.851-0.951 2.318zM25.197 28.321c-0.603 0.501-1.519 0.738-2.64 0.738-0.671 0-1.147-0.042-1.469-0.085v-5.62c0.475-0.076 1.095-0.119 1.749-0.119 1.086 0 1.792 0.195 2.343 0.611 0.594 0.442 0.967 1.146 0.967 2.157 0 1.095-0.399 1.851-0.951 2.318zM5.675 20.945v-20.151h14.607v6.452c0 0.348 0.282 0.631 0.631 0.631h5.569l0.001 13.068h-20.808zM13.048 8.696v8.388h-1.904v-8.388h1.904zM20.49 8.248v7.019c0 0.685 0.025 1.406 0.049 1.817h-1.68l-0.087-0.896h-0.025c-0.386 0.684-1.12 1.033-1.904 1.033-1.444 0-2.601-1.232-2.601-3.124-0.012-2.054 1.269-3.236 2.725-3.236 0.747 0 1.332 0.261 1.606 0.685h0.025v-3.298h1.891zM18.599 13.574c0-0.099-0.013-0.236-0.025-0.336-0.112-0.51-0.523-0.933-1.108-0.933-0.859 0-1.307 0.771-1.307 1.73 0 1.033 0.511 1.68 1.294 1.68 0.547 0 0.983-0.374 1.096-0.909 0.037-0.137 0.050-0.274 0.050-0.436v-0.796h0z"></path>
</svg>
