<!-- Generated by IcoMoon.io -->
<svg version="1.1" xmlns="http://www.w3.org/2000/svg" width="40" height="32" viewBox="0 0 40 32">
<title>infinity</title>
<path d="M29.588 5.562c-4.151 0-7.399 2.594-9.49 4.937-2.091-2.343-5.339-4.937-9.49-4.937-5.847 0-10.608 4.51-10.608 10.049s4.761 10.049 10.608 10.049c4.151 0 7.399-2.594 9.49-4.937 2.091 2.343 5.339 4.937 9.49 4.937 5.847 0 10.608-4.509 10.608-10.049s-4.761-10.049-10.608-10.049zM10.608 19.631c-2.525 0-4.579-1.802-4.579-4.020s2.054-4.020 4.579-4.020c2.399 0 4.61 2.267 5.904 4.020-1.281 1.733-3.511 4.020-5.904 4.020zM29.588 19.631c-2.399 0-4.61-2.267-5.904-4.020 1.281-1.733 3.511-4.020 5.904-4.020 2.525 0 4.579 1.803 4.579 4.020s-2.054 4.020-4.579 4.020z"></path>
</svg>
