<!-- Generated by IcoMoon.io -->
<svg version="1.1" xmlns="http://www.w3.org/2000/svg" width="32" height="32" viewBox="0 0 32 32">
<title>info-circle</title>
<path d="M16.078 0.035c-8.602 0-15.576 6.977-15.576 15.576 0 8.604 6.974 15.576 15.576 15.576s15.576-6.972 15.576-15.576c0-8.599-6.974-15.576-15.576-15.576zM16.078 6.944c1.457 0 2.638 1.181 2.638 2.638s-1.181 2.638-2.638 2.638-2.638-1.181-2.638-2.638 1.181-2.638 2.638-2.638zM19.596 22.897c0 0.416-0.338 0.754-0.754 0.754h-5.527c-0.416 0-0.754-0.338-0.754-0.754v-1.507c0-0.416 0.338-0.754 0.754-0.754h0.754v-4.020h-0.754c-0.416 0-0.754-0.338-0.754-0.754v-1.507c0-0.416 0.338-0.754 0.754-0.754h4.020c0.416 0 0.754 0.338 0.754 0.754v6.281h0.754c0.416 0 0.754 0.338 0.754 0.754v1.507z"></path>
</svg>
