<!-- Generated by IcoMoon.io -->
<svg version="1.1" xmlns="http://www.w3.org/2000/svg" width="12" height="32" viewBox="0 0 12 32">
<title>info</title>
<path d="M1.256 26.177h1.256v-9.073h-1.256c-0.694 0-1.256-0.562-1.256-1.256v-3c0-0.694 0.562-1.256 1.256-1.256h7.034c0.694 0 1.256 0.562 1.256 1.256v13.329h1.256c0.694 0 1.256 0.562 1.256 1.256v3c0 0.694-0.562 1.256-1.256 1.256h-9.546c-0.694 0-1.256-0.562-1.256-1.256v-3c0-0.694 0.562-1.256 1.256-1.256zM6.029-0.467c-2.498 0-4.522 2.025-4.522 4.522s2.025 4.522 4.522 4.522 4.522-2.025 4.522-4.522-2.025-4.522-4.522-4.522z"></path>
</svg>
