<!-- Generated by IcoMoon.io -->
<svg version="1.1" xmlns="http://www.w3.org/2000/svg" width="28" height="32" viewBox="0 0 28 32">
<title>instagram</title>
<path d="M14.075 8.389c-3.994 0-7.216 3.222-7.216 7.216s3.222 7.216 7.216 7.216 7.216-3.222 7.216-7.216-3.222-7.216-7.216-7.216zM14.075 20.297c-2.581 0-4.692-2.104-4.692-4.692s2.104-4.692 4.692-4.692 4.692 2.104 4.692 4.692-2.11 4.692-4.692 4.692zM23.27 8.094c0 0.936-0.754 1.683-1.683 1.683-0.936 0-1.683-0.754-1.683-1.683s0.754-1.683 1.683-1.683 1.683 0.754 1.683 1.683zM28.049 9.802c-0.107-2.255-0.622-4.252-2.274-5.897-1.645-1.645-3.643-2.16-5.898-2.274-2.324-0.132-9.289-0.132-11.613 0-2.248 0.107-4.246 0.622-5.897 2.267s-2.16 3.643-2.274 5.897c-0.132 2.324-0.132 9.289 0 11.613 0.107 2.255 0.622 4.252 2.274 5.898s3.643 2.16 5.897 2.274c2.324 0.132 9.289 0.132 11.613 0 2.255-0.107 4.252-0.622 5.898-2.274 1.645-1.645 2.16-3.643 2.274-5.898 0.132-2.324 0.132-9.283 0-11.607zM25.047 23.902c-0.49 1.231-1.438 2.179-2.676 2.676-1.853 0.735-6.249 0.565-8.297 0.565s-6.45 0.163-8.297-0.565c-1.231-0.49-2.179-1.438-2.676-2.676-0.735-1.853-0.565-6.249-0.565-8.297s-0.163-6.45 0.565-8.297c0.49-1.231 1.438-2.179 2.676-2.676 1.853-0.735 6.249-0.565 8.297-0.565s6.45-0.163 8.297 0.565c1.231 0.49 2.179 1.438 2.676 2.676 0.735 1.853 0.565 6.249 0.565 8.297s0.17 6.45-0.565 8.297z"></path>
</svg>
