<!-- Generated by IcoMoon.io -->
<svg version="1.1" xmlns="http://www.w3.org/2000/svg" width="32" height="32" viewBox="0 0 32 32">
<title>internet-explorer</title>
<path d="M30.338 9.563c0.682-1.543 1.346-3.796 1.346-5.519 0-4.567-5.002-6.178-13.169-2.423-6.76-0.451-13.266 4.627-14.891 11.711 1.938-2.19 4.916-5.169 7.661-6.353-3.409 3.033-6.315 6.874-8.522 10.876-1.303 2.382-2.763 6.231-2.763 9.108 0 6.191 5.832 5.433 11.321 2.638 1.974 0.969 4.18 0.978 6.387 0.978 6.1 0 11.572-3.41 13.617-9.171h-7.589c-3.298 5.564-12.361 3.328-12.361-2.979h20.65c0.402-2.737-0.104-6.011-1.686-8.866zM4.055 21.319c1.112 3.212 3.373 6.021 6.297 7.744-5.573 3.074-10.882 1.827-6.297-7.744zM11.339 14.481c0.126-3.464 3.158-5.958 6.531-5.958 3.355 0 6.405 2.495 6.531 5.958h-13.061zM22.929 2.699c1.346-0.646 3.050-1.382 4.557-1.382 1.974 0 3.409 1.364 3.409 3.374 0 1.256-0.467 3.078-0.915 4.262-1.651-2.656-4.144-5.124-7.051-6.255z"></path>
</svg>
