<!-- Generated by IcoMoon.io -->
<svg version="1.1" xmlns="http://www.w3.org/2000/svg" width="28" height="32" viewBox="0 0 28 32">
<title>intercom</title>
<path d="M24.62 1.543h-21.103c-1.941 0-3.517 1.576-3.517 3.517v21.103c0 1.941 1.576 3.517 3.517 3.517h21.103c1.941 0 3.517-1.576 3.517-3.517v-21.103c0-1.941-1.576-3.517-3.517-3.517zM17.818 6.699c0-1.244 1.878-1.244 1.878 0v12.53c0 1.244-1.878 1.244-1.878 0v-12.53zM13.133 6.228c0-1.244 1.878-1.244 1.878 0v13.598c0 1.244-1.878 1.244-1.878 0v-13.598zM8.441 6.699c0-1.244 1.878-1.244 1.878 0v12.53c0 1.244-1.878 1.244-1.878 0v-12.53zM3.75 8.577c0-1.244 1.878-1.244 1.878 0v8.435c0 1.244-1.878 1.244-1.878 0v-8.435zM24.061 22.884c-4.572 3.957-15.18 4.108-19.979 0-0.942-0.804 0.276-2.23 1.218-1.426 4.139 3.473 13.572 3.385 17.542 0 0.936-0.81 2.154 0.615 1.218 1.426zM24.388 17.012c0 1.244-1.878 1.244-1.878 0v-8.435c0-1.244 1.878-1.244 1.878 0v8.435z"></path>
</svg>
