<!-- Generated by IcoMoon.io -->
<svg version="1.1" xmlns="http://www.w3.org/2000/svg" width="28" height="32" viewBox="0 0 28 32">
<title>invision</title>
<path d="M25.587 1.543h-23.037c-1.407 0-2.55 1.143-2.55 2.55v23.037c0 1.407 1.143 2.55 2.55 2.55h23.037c1.407 0 2.55-1.143 2.55-2.55v-23.037c0-1.407-1.143-2.55-2.55-2.55zM11.060 8.678c0.025 1.47-1.407 1.715-1.671 1.721-0.936 0-1.702-0.754-1.702-1.696 0.006-2.211 3.335-2.23 3.373-0.025zM20.902 23.211c-4.12 0-2.142-4.648-1.57-6.695 0.886-2.914-2.839-3.706-3.762 0.044l-1.62 6.488h-2.833l0.509-2.041c-1.978 3.253-5.941 2.789-5.941-0.27 0.006-0.898 0.057-0.879 1.445-6.538h-1.997l0.609-2.236h4.798c-2.11 8.397-2.047 7.97-2.066 8.68 0 1.313 2.569 0.848 3.605-1.457l1.244-4.987h-2.029l0.609-2.236h4.321l-0.559 2.544c2.544-4.742 8.033-3.002 6.394 2.387-0.892 3.209-0.917 3.184-0.936 3.693 0 0.973 1.099 1.419 1.997-1.061l1.124 0.421c-0.66 2.305-1.847 3.266-3.341 3.266z"></path>
</svg>
