<!-- Generated by IcoMoon.io -->
<svg version="1.1" xmlns="http://www.w3.org/2000/svg" width="40" height="32" viewBox="0 0 40 32">
<title>ioxhost</title>
<path d="M38.689 9.582h-4.227c-2.355-5.609-7.901-9.546-14.364-9.546-8.604 0-15.576 6.971-15.576 15.576 0 1.030 0.1 2.041 0.295 3.015h-3.31c-0.835 0-1.507 0.678-1.507 1.507 0 0.835 0.672 1.507 1.507 1.507h4.227c2.355 5.609 7.901 9.546 14.364 9.546 8.604 0 15.576-6.971 15.576-15.576 0-1.030-0.1-2.041-0.295-3.015h3.31c0.835 0 1.507-0.678 1.507-1.507 0-0.835-0.672-1.507-1.507-1.507zM32.659 15.611c0 6.94-5.621 12.561-12.561 12.561-4.754 0-8.893-2.638-11.022-6.532h17.554c0.835 0 1.507-0.678 1.507-1.507 0-0.835-0.672-1.507-1.507-1.507h-18.729c-0.239-0.967-0.364-1.972-0.364-3.015 0-6.94 5.621-12.561 12.561-12.561 4.754 0 8.893 2.638 11.022 6.532h-17.554c-0.835 0-1.507 0.678-1.507 1.507 0 0.835 0.672 1.507 1.507 1.507h18.729c0.239 0.967 0.364 1.972 0.364 3.015zM13.566 14.104h13.064c0.835 0 1.507 0.672 1.507 1.507 0 0.829-0.672 1.507-1.507 1.507h-13.064c-0.835 0-1.507-0.672-1.507-1.507 0-0.829 0.672-1.507 1.507-1.507z"></path>
</svg>
