<!-- Generated by IcoMoon.io -->
<svg version="1.1" xmlns="http://www.w3.org/2000/svg" width="32" height="32" viewBox="0 0 32 32">
<title>ipa-file</title>
<path d="M16.467 3.679h-5.958c-0.913 0-1.655 0.743-1.655 1.655v11.945c0 0.913 0.743 1.655 1.655 1.655h5.958c0.913 0 1.655-0.743 1.655-1.655v-11.945c0-0.913-0.743-1.656-1.655-1.656zM13.488 17.417c-0.399 0-0.723-0.324-0.723-0.723s0.324-0.723 0.723-0.723c0.399 0 0.723 0.324 0.723 0.723s-0.324 0.723-0.723 0.723zM16.922 15.101h-6.867v-9.461h6.867v9.461zM19.068 24.335h-0.015c-0.076 0.304-0.152 0.692-0.236 0.989l-0.304 1.088h1.134l-0.32-1.088c-0.091-0.304-0.183-0.685-0.259-0.989zM14.815 24.305c-0.236 0-0.395 0.023-0.479 0.045v1.514c0.099 0.023 0.221 0.030 0.388 0.030 0.616 0 0.997-0.312 0.997-0.837 0-0.472-0.327-0.753-0.905-0.753zM27.473 6.69l-5.95-6.785c-0.207-0.236-0.506-0.371-0.819-0.371h-15.029c-0.696 0-1.261 0.565-1.261 1.261v29.635c0 0.697 0.565 1.261 1.261 1.261h20.807c0.697 0 1.261-0.565 1.261-1.261v-23.020c0-0.264-0.096-0.52-0.27-0.718zM12.183 28.596h-1.164v-5.128h1.164v5.128zM14.732 26.785c-0.152 0-0.289-0.007-0.395-0.023v1.833h-1.149v-5.059c0.357-0.061 0.86-0.106 1.567-0.106 0.715 0 1.225 0.137 1.567 0.411 0.327 0.259 0.548 0.685 0.548 1.187s-0.167 0.928-0.472 1.217c-0.396 0.373-0.982 0.54-1.666 0.54zM20.209 28.596l-0.395-1.316h-1.468l-0.365 1.316h-1.202l1.567-5.128h1.521l1.59 5.128h-1.248zM5.675 20.944v0-20.15h14.607v6.452c0 0.348 0.282 0.631 0.631 0.631h5.569l0.001 13.068h-20.808z"></path>
</svg>
