<!-- Generated by IcoMoon.io -->
<svg version="1.1" xmlns="http://www.w3.org/2000/svg" width="32" height="32" viewBox="0 0 32 32">
<title>iso-file-format</title>
<path d="M27.737 7.239c-0.002-0.147-0.049-0.293-0.15-0.408l-6.2-7.082c-0.001-0.002-0.003-0.002-0.005-0.004-0.037-0.041-0.079-0.075-0.125-0.105-0.013-0.009-0.027-0.017-0.041-0.025-0.040-0.021-0.081-0.039-0.124-0.052-0.012-0.004-0.022-0.008-0.034-0.011-0.047-0.011-0.095-0.018-0.145-0.018h-15.238c-0.695 0-1.261 0.566-1.261 1.261v29.635c0 0.695 0.566 1.261 1.261 1.261h20.807c0.696 0 1.261-0.566 1.261-1.261v-23.119c0-0.024-0.004-0.047-0.006-0.071zM10.624 29.587h-1.634v-7.198h1.634v7.198zM13.796 29.694c-0.823 0-1.634-0.214-2.040-0.438l0.331-1.346c0.438 0.224 1.111 0.448 1.805 0.448 0.748 0 1.143-0.309 1.143-0.779 0-0.449-0.342-0.705-1.207-1.015-1.196-0.416-1.976-1.079-1.976-2.125 0-1.228 1.025-2.168 2.723-2.168 0.812 0 1.41 0.171 1.837 0.363l-0.363 1.314c-0.288-0.139-0.8-0.342-1.506-0.342s-1.047 0.321-1.047 0.694c0 0.459 0.406 0.662 1.335 1.015 1.271 0.47 1.869 1.132 1.869 2.146-0.001 1.207-0.93 2.232-2.905 2.232zM20.856 29.704c-2.135 0-3.385-1.613-3.385-3.663 0-2.157 1.378-3.77 3.503-3.77 2.211 0 3.417 1.656 3.417 3.642-0 2.36-1.431 3.791-3.535 3.791zM5.675 20.945v-20.151h14.607v6.452c0 0.348 0.282 0.631 0.631 0.631h5.569l0.001 13.068h-20.808zM20.931 23.564c-1.1 0-1.74 1.047-1.74 2.446 0 1.41 0.662 2.403 1.751 2.403 1.1 0 1.73-1.046 1.73-2.445-0-1.292-0.62-2.403-1.741-2.403zM15.457 3.94c-4.018 0-7.276 3.257-7.276 7.274 0 4.018 3.258 7.276 7.276 7.276s7.275-3.258 7.275-7.276c0-4.017-3.257-7.274-7.275-7.274zM17.648 4.828l-1.581 3.226c-0.307-0.119-0.61-0.056-0.61-0.056l-0.915-3.387c0 0 1.213-0.544 3.105 0.217zM15.457 14.077c-1.581 0-2.862-1.281-2.862-2.863s1.281-2.862 2.862-2.862c1.581 0 2.863 1.281 2.863 2.862s-1.281 2.863-2.863 2.863zM15.457 8.682c-1.397 0-2.532 1.136-2.532 2.533s1.136 2.532 2.532 2.532c1.396 0 2.533-1.136 2.533-2.532s-1.136-2.533-2.533-2.533zM15.457 13.455c-1.235 0-2.241-1.005-2.241-2.24 0-1.236 1.005-2.241 2.241-2.241s2.24 1.005 2.24 2.241c0 1.235-1.005 2.24-2.24 2.24zM15.457 10.004c-0.668 0-1.211 0.543-1.211 1.21s0.543 1.211 1.211 1.211c0.668 0 1.211-0.544 1.211-1.211s-0.544-1.21-1.211-1.21zM15.457 12.133c-0.507 0-0.919-0.412-0.919-0.919s0.412-0.918 0.919-0.918c0.506 0 0.92 0.412 0.92 0.918s-0.413 0.919-0.92 0.919z"></path>
</svg>
