<!-- Generated by IcoMoon.io -->
<svg version="1.1" xmlns="http://www.w3.org/2000/svg" width="32" height="32" viewBox="0 0 32 32">
<title>iso-file-format-symbol</title>
<path d="M21.146 23.54c-1.169 0-1.85 1.112-1.85 2.598 0 1.498 0.703 2.553 1.861 2.553 1.169 0 1.839-1.112 1.839-2.598 0-1.373-0.658-2.553-1.85-2.553zM27.737 7.239c-0.002-0.148-0.049-0.293-0.151-0.408l-6.2-7.082c-0.002-0.002-0.004-0.003-0.005-0.004-0.037-0.041-0.080-0.075-0.126-0.105-0.013-0.009-0.027-0.017-0.041-0.025-0.039-0.021-0.081-0.039-0.124-0.052-0.012-0.003-0.022-0.008-0.034-0.011-0.047-0.011-0.095-0.018-0.145-0.018h-15.237c-0.695 0-1.261 0.566-1.261 1.261v29.635c0 0.696 0.566 1.261 1.261 1.261h20.807c0.695 0 1.261-0.566 1.261-1.261v-23.119c-0-0.024-0.004-0.047-0.006-0.071zM10.194 29.941h-1.736v-7.648h1.736v7.648zM13.565 30.054c-0.874 0-1.736-0.227-2.167-0.466l0.352-1.43c0.465 0.238 1.18 0.477 1.917 0.477 0.795 0 1.214-0.329 1.214-0.828 0-0.477-0.363-0.749-1.282-1.078-1.271-0.443-2.099-1.146-2.099-2.258 0-1.305 1.090-2.304 2.894-2.304 0.863 0 1.498 0.182 1.952 0.386l-0.386 1.396c-0.306-0.148-0.851-0.363-1.6-0.363s-1.112 0.341-1.112 0.738c0 0.488 0.431 0.704 1.418 1.079 1.35 0.499 1.986 1.202 1.986 2.28 0 1.282-0.988 2.372-3.087 2.372zM21.066 30.065c-2.27 0-3.598-1.714-3.598-3.892 0-2.292 1.464-4.006 3.722-4.006 2.349 0 3.632 1.759 3.632 3.87 0 2.508-1.521 4.028-3.756 4.028zM5.675 20.945v-20.151h14.607v6.452c0 0.348 0.283 0.631 0.631 0.631h5.57v13.068h-20.807zM18.055 5.469l-8.029 1.798h8.029zM15.499 15.611c0-2.037 1.466-3.735 3.397-4.101v-3.813h-9.252v11.242h7.518c-1.008-0.764-1.662-1.969-1.662-3.328zM19.877 11.907c-2.046 0-3.704 1.659-3.704 3.704s1.659 3.704 3.704 3.704c2.046 0 3.704-1.659 3.704-3.704s-1.659-3.704-3.704-3.704zM19.877 17.62c-1.11 0-2.009-0.9-2.009-2.009s0.9-2.009 2.009-2.009c1.11 0 2.009 0.899 2.009 2.009s-0.9 2.009-2.009 2.009zM19.877 16.855c-0.685 0-1.243-0.558-1.243-1.243s0.558-1.243 1.243-1.243c0.685 0 1.243 0.558 1.243 1.243s-0.558 1.243-1.243 1.243zM19.877 14.684c-0.512 0-0.928 0.416-0.928 0.928s0.416 0.928 0.928 0.928 0.928-0.416 0.928-0.928-0.416-0.928-0.928-0.928z"></path>
</svg>
