<!-- Generated by IcoMoon.io -->
<svg version="1.1" xmlns="http://www.w3.org/2000/svg" width="20" height="32" viewBox="0 0 20 32">
<title>italic</title>
<path d="M12.86 25.66h-2.126l3.9-20.098h2.558c0.487 0 0.893-0.346 0.985-0.806l0.001-0.006 0.392-2.010c0.121-0.62-0.354-1.197-0.986-1.197h-10.032c-0.487 0-0.893 0.346-0.985 0.806l-0.001 0.006-0.392 2.010c-0.121 0.62 0.354 1.197 0.986 1.197h2.126l-3.9 20.098h-2.479c0 0 0 0-0 0-0.487 0-0.893 0.346-0.985 0.806l-0.001 0.006-0.392 2.010c-0.121 0.62 0.354 1.197 0.986 1.197h9.953c0 0 0 0 0 0 0.487 0 0.893-0.346 0.985-0.806l0.001-0.006 0.392-2.010c0.121-0.62-0.354-1.197-0.986-1.197z"></path>
</svg>
