<!-- Generated by IcoMoon.io -->
<svg version="1.1" xmlns="http://www.w3.org/2000/svg" width="28" height="32" viewBox="0 0 28 32">
<title>itunes</title>
<path d="M14.043 4.576c-5.941 0-10.746 4.817-10.746 10.752s4.805 10.759 10.746 10.759 10.752-4.817 10.752-10.752c0-5.941-4.817-10.759-10.752-10.759zM19.030 19.65c-0.201 0.854-0.848 1.331-1.715 1.495-0.76 0.138-1.394 0.176-2.003-0.314-0.741-0.628-0.754-1.658-0.088-2.311 0.527-0.503 1.275-0.603 2.387-0.804 0.188-0.031 0.352-0.075 0.484-0.232 0.201-0.226 0.138-0.126 0.138-5.075 0-0.352-0.17-0.446-0.527-0.383-0.251 0.044-5.772 1.074-5.772 1.074-0.314 0.069-0.421 0.163-0.421 0.521 0 7.292 0.031 6.959-0.075 7.443-0.132 0.565-0.477 0.992-0.936 1.231-0.521 0.289-1.47 0.415-1.972 0.327-1.344-0.251-1.815-1.802-0.904-2.694 0.527-0.503 1.275-0.603 2.387-0.804 0.188-0.031 0.352-0.075 0.484-0.232 0.314-0.358 0.057-7.976 0.163-8.397 0.025-0.163 0.094-0.301 0.22-0.402 0.132-0.107 0.364-0.17 0.421-0.17 6.343-1.193 7.116-1.344 7.229-1.344 0.358-0.025 0.565 0.188 0.565 0.546-0.006 10.715 0.025 10.137-0.063 10.526zM21.681 1.543h-15.224c-3.574 0-6.456 2.883-6.456 6.456v15.224c0 3.574 2.883 6.456 6.456 6.456h15.224c3.58 0 6.456-2.883 6.456-6.456v-15.224c0-3.574-2.883-6.456-6.456-6.456zM14.043 27.419c-6.676 0-12.090-5.414-12.090-12.090s5.414-12.090 12.090-12.090 12.090 5.414 12.090 12.090-5.414 12.090-12.090 12.090z"></path>
</svg>
