<!-- Generated by IcoMoon.io -->
<svg version="1.1" xmlns="http://www.w3.org/2000/svg" width="24" height="32" viewBox="0 0 24 32">
<title>itunes-note</title>
<path d="M23.986 23.914c-0.402 1.721-1.708 2.688-3.461 3.015-1.539 0.283-2.82 0.352-4.051-0.641-1.501-1.262-1.52-3.354-0.17-4.673 1.068-1.017 2.569-1.225 4.823-1.62 0.377-0.069 0.703-0.157 0.98-0.465 0.402-0.452 0.276-0.258 0.276-10.25 0-0.703-0.345-0.898-1.068-0.772-0.515 0.088-11.663 2.173-11.663 2.173-0.641 0.138-0.842 0.327-0.842 1.049 0 14.741 0.069 14.062-0.157 15.042-0.264 1.143-0.967 2.003-1.897 2.481-1.055 0.584-2.964 0.842-3.982 0.653-2.713-0.509-3.668-3.643-1.828-5.439 1.068-1.017 2.569-1.225 4.824-1.62 0.377-0.069 0.703-0.157 0.98-0.465 0.634-0.722 0.113-16.116 0.327-16.97 0.050-0.327 0.188-0.603 0.446-0.81 0.264-0.22 0.741-0.345 0.842-0.345 12.812-2.399 14.376-2.707 14.596-2.707 0.722-0.050 1.137 0.377 1.137 1.105 0.012 21.637 0.069 20.475-0.113 21.26z"></path>
</svg>
