<!-- Generated by IcoMoon.io -->
<svg version="1.1" xmlns="http://www.w3.org/2000/svg" width="32" height="32" viewBox="0 0 32 32">
<title>jar-file-format</title>
<path d="M22.122 22.941c-0.42 0-0.658 0.034-0.783 0.057v2.111h0.68c0.863 0 1.373-0.432 1.373-1.101 0-0.704-0.477-1.055-1.271-1.066zM27.736 7.239c-0.001-0.147-0.048-0.293-0.15-0.408l-6.2-7.082c-0.002-0.002-0.004-0.003-0.005-0.004-0.037-0.042-0.080-0.075-0.126-0.105-0.013-0.009-0.027-0.017-0.041-0.025-0.039-0.022-0.081-0.039-0.124-0.052-0.012-0.003-0.022-0.008-0.034-0.011-0.047-0.011-0.095-0.018-0.145-0.018h-15.237c-0.696 0-1.261 0.566-1.261 1.261v29.635c0 0.695 0.565 1.261 1.261 1.261h20.807c0.695 0 1.261-0.566 1.261-1.261v-23.119c0-0.024-0.004-0.047-0.007-0.071zM10.739 26.549c0 2.179-1.044 2.939-2.724 2.939-0.397 0-0.919-0.068-1.26-0.181l0.193-1.396c0.238 0.079 0.544 0.136 0.885 0.136 0.727 0 1.18-0.329 1.18-1.521v-4.811h1.725v4.834zM16.742 29.364l-0.59-1.964h-2.19l-0.545 1.964h-1.793l2.338-7.649h2.269l2.372 7.649h-1.861zM23.631 29.364c-0.124-0.216-0.306-0.84-0.533-1.782-0.204-0.953-0.533-1.214-1.237-1.225h-0.522v3.007h-1.714v-7.547c0.556-0.091 1.384-0.159 2.304-0.159 1.135 0 1.929 0.17 2.474 0.602 0.453 0.363 0.703 0.896 0.703 1.6 0 0.976-0.692 1.646-1.35 1.884v0.034c0.533 0.216 0.829 0.726 1.022 1.43 0.238 0.863 0.477 1.861 0.624 2.156h-1.771zM5.675 20.944v-20.15h14.607v6.452c0 0.348 0.283 0.631 0.631 0.631h5.57v13.068h-20.807zM15.040 23.009h-0.023c-0.113 0.454-0.227 1.033-0.351 1.475l-0.454 1.623h1.691l-0.477-1.623c-0.136-0.454-0.272-1.022-0.386-1.475zM15.064 12.403c0 0-0.636-1.225-0.613-2.12 0.017-0.64 1.46-1.272 2.026-2.19 0.565-0.919-0.071-1.813-0.071-1.813s0.142 0.66-0.235 1.342c-0.377 0.683-1.768 1.084-2.309 2.261-0.541 1.178 1.201 2.521 1.201 2.521zM17.444 8.681c0 0-2.167 0.824-2.167 1.766s0.589 1.248 0.683 1.554c0.094 0.307-0.164 0.825-0.164 0.825s0.848-0.589 0.705-1.272c-0.142-0.683-0.801-0.895-0.424-1.577 0.252-0.458 1.366-1.295 1.366-1.295zM14.83 13.647c2.236-0.080 2.499-0.501 2.732-0.703-1.295 0.353-4.734 0.33-4.759 0.071-0.023-0.259 1.060-0.471 1.060-0.471s-1.695 0-1.837 0.424c-0.142 0.423 0.802 0.749 2.804 0.679zM17.891 12.591c0 0 0.966 0 1.060 0.588s-1.224 1.46-1.224 1.46 2.076-0.418 1.883-1.483c-0.235-1.295-1.718-0.566-1.718-0.566zM15.534 14.287c-0.981 0.11-2.166 0.023-2.261-0.142-0.092-0.165 0.165-0.259 0.165-0.259-1.178 0.283-0.534 0.777 0.847 0.872 1.183 0.081 2.506-0.354 2.506-0.354l0.408-0.329c0 0-0.933 0.13-1.665 0.212zM13.722 15.104c0 0-0.534 0.015-0.565 0.297-0.032 0.281 0.165 0.424 1.487 0.393 1.573-0.037 1.836-0.224 1.997-0.361l0.384-0.289c-1.028 0.133-1.108 0.17-1.69 0.186-0.586 0.017-1.613 0.054-1.66-0.055s0.046-0.172 0.046-0.172zM18.857 16.376c0.204-0.22-0.063-0.393-0.063-0.393s0.094 0.11-0.030 0.235c-0.125 0.125-1.273 0.439-3.11 0.533s-3.831-0.172-3.895-0.408c-0.061-0.235 1.021-0.423 1.021-0.423-0.125 0.015-1.633 0.046-1.681 0.455-0.046 0.408 0.66 0.737 3.487 0.737 2.826-0 4.067-0.518 4.271-0.737zM17.758 17.302c-1.241 0.251-5.008 0.093-5.008 0.093s2.448 0.581 5.244 0.094c1.336-0.233 1.414-0.88 1.414-0.88s-0.409 0.44-1.649 0.692z"></path>
</svg>
