<!-- Generated by IcoMoon.io -->
<svg version="1.1" xmlns="http://www.w3.org/2000/svg" width="24" height="32" viewBox="0 0 24 32">
<title>java</title>
<path d="M7.637 24.404s-1.231 0.716 0.873 0.955c2.55 0.289 3.85 0.251 6.657-0.283 0 0 0.741 0.465 1.771 0.867-6.293 2.694-14.244-0.157-9.302-1.539zM6.871 20.881s-1.375 1.017 0.729 1.237c2.72 0.283 4.874 0.301 8.592-0.415 0 0 0.515 0.521 1.325 0.804-7.618 2.23-16.097 0.182-10.646-1.627zM13.353 14.908c1.551 1.784-0.408 3.392-0.408 3.392s3.938-2.035 2.129-4.579c-1.69-2.374-2.983-3.555 4.026-7.618 0.006 0-11.004 2.751-5.747 8.805zM21.681 27.004s0.911 0.747-0.999 1.331c-3.636 1.099-15.124 1.432-18.314 0.044-1.149-0.496 1.005-1.193 1.683-1.338 0.703-0.151 1.112-0.126 1.112-0.126-1.275-0.898-8.246 1.765-3.542 2.525 12.825 2.085 23.389-0.936 20.060-2.437zM8.228 17.232s-5.847 1.388-2.073 1.89c1.595 0.214 4.773 0.163 7.731-0.082 2.418-0.201 4.849-0.641 4.849-0.641s-0.854 0.364-1.47 0.785c-5.935 1.564-17.397 0.835-14.1-0.76 2.795-1.344 5.062-1.193 5.062-1.193zM18.716 23.092c6.036-3.134 3.241-6.149 1.294-5.74-0.477 0.1-0.691 0.188-0.691 0.188s0.176-0.276 0.515-0.396c3.85-1.357 6.814 3.994-1.244 6.111 0-0.006 0.094-0.088 0.126-0.163zM15.073-0.467s3.341 3.341-3.172 8.479c-5.219 4.12-1.193 6.475 0 9.157-3.046-2.751-5.282-5.169-3.781-7.424 2.205-3.297 8.303-4.905 6.953-10.212zM8.824 31.589c5.791 0.371 14.684-0.207 14.891-2.946 0 0-0.402 1.036-4.786 1.865-4.943 0.93-11.041 0.823-14.653 0.226 0-0.006 0.741 0.609 4.547 0.854z"></path>
</svg>
