<!-- Generated by IcoMoon.io -->
<svg version="1.1" xmlns="http://www.w3.org/2000/svg" width="28" height="32" viewBox="0 0 28 32">
<title>jedi-order</title>
<path d="M14.564 20.618l1.975-2.882-1.267 3.486 3.929 0.571-3.929 0.57 1.521 2.979s-1.898-1.995-2.166-2.277c0.11 4.32 0.137 5.383 0.137 5.383s9.697-4.5 4.31-14.451c0 0 6.718-7.416 0.634-11.979 0 0 10.394 6.275 3.803 17.049 0 0 5.45-5.324 2.598-10.711 0 0 4.943 6.972-1.078 14.641 0 0 1.648-1.014 3.106-4.881 0 0-1.063 11.51-13.94 11.661v0.001h-0.256v-0.001c-12.877-0.151-13.94-11.661-13.94-11.661 1.458 3.866 3.105 4.881 3.105 4.881-6.021-7.669-1.077-14.641-1.077-14.641-2.852 5.387 2.599 10.711 2.599 10.711-6.591-10.775 3.802-17.049 3.802-17.049-6.085 4.563 0.634 11.979 0.634 11.979-5.388 9.951 4.31 14.451 4.31 14.451s0.027-1.063 0.137-5.383l-2.166 2.277 1.521-2.979-3.929-0.57 3.929-0.571-1.267-3.486 1.975 2.882c0.141-5.518 0.491-19.207 0.493-19.272l0.001-0.153 0.001 0.063 0.002-0.063 0.001 0.153c0.003 0.108 0.352 13.767 0.494 19.272z"></path>
</svg>
