<!-- Generated by IcoMoon.io -->
<svg version="1.1" xmlns="http://www.w3.org/2000/svg" width="34" height="32" viewBox="0 0 34 32">
<title>jedi</title>
<path d="M30.146 21.641l3.698-3.697c0.207-1.055 0.322-2.143 0.322-3.257 0-0.365-0.043-0.723-0.066-1.085h-2.949l2.591-2.59c-0.911-4.069-3.293-7.728-6.777-10.192-0.174-0.123-0.375-0.188-0.581-0.188-0.337 0-0.654 0.17-0.847 0.455-0.192 0.282-0.229 0.627-0.101 0.948 0.411 1.034 0.619 2.118 0.619 3.223 0 2.834-1.321 5.437-3.623 7.143-0.253 0.187-0.406 0.471-0.421 0.779-0.015 0.309 0.11 0.607 0.345 0.818 2.068 1.868 2.974 4.617 2.422 7.353-0.612 3.037-3.067 5.47-6.112 6.061l-0.157-4.104 1.706 1.16c0.187 0.129 0.464 0.106 0.629-0.050 0.096-0.092 0.156-0.221 0.156-0.364 0-0.096-0.027-0.185-0.073-0.261l0.001 0.002-1.263-2.118 2.642-0.548c0.232-0.047 0.401-0.254 0.401-0.492s-0.169-0.443-0.401-0.492l-2.642-0.548 1.264-2.121c0.121-0.203 0.084-0.459-0.087-0.622-0.17-0.16-0.438-0.182-0.628-0.050l-1.909 1.298-0.724-18.084c-0.009-0.269-0.229-0.484-0.5-0.484-0.001 0-0.002 0-0.003 0h0c-0.272 0-0.492 0.212-0.503 0.482l-0.724 18.086-1.909-1.298c-0.197-0.133-0.457-0.115-0.628 0.049-0.171 0.163-0.207 0.419-0.085 0.624l1.263 2.118-2.642 0.548c-0.232 0.047-0.401 0.254-0.401 0.492s0.168 0.445 0.401 0.492l2.642 0.548-1.264 2.121c-0.121 0.203-0.084 0.46 0.087 0.624 0.163 0.154 0.442 0.173 0.628 0.047l1.706-1.161-0.157 4.099c-3.576-0.731-6.274-3.887-6.274-7.657 0-2.203 0.918-4.246 2.586-5.752 0.234-0.211 0.359-0.509 0.344-0.817s-0.168-0.591-0.42-0.777c-2.303-1.706-3.625-4.31-3.625-7.144 0-1.103 0.208-2.186 0.618-3.219 0.127-0.32 0.090-0.665-0.102-0.948-0.193-0.285-0.511-0.455-0.848-0.455-0.207 0-0.408 0.065-0.582 0.188-3.509 2.482-5.879 6.115-6.781 10.179l2.599 2.599h-2.965c-0.040 0.623-0.061 1.25-0.031 1.884 0.039 0.843 0.16 1.666 0.321 2.475l3.68 3.68h-2.507c2.591 5.667 8.236 9.731 14.766 10.031 0.27 0.012 0.54 0.018 0.807 0.018 6.93 0 12.897-4.135 15.575-10.049h-2.51z"></path>
</svg>
