<!-- Generated by IcoMoon.io -->
<svg version="1.1" xmlns="http://www.w3.org/2000/svg" width="32" height="32" viewBox="0 0 32 32">
<title>jenkins</title>
<path d="M30.593 26.226c-0.088-0.703-1.193-1.451-1.771-2.003-0.32-0.314-1.821-1.451-1.909-1.878-0.088-0.415 0.609-1.35 0.835-1.815 0.32-0.672 0.553-1.488 0.71-2.047 1.181-4.151 1.3-9.854-0.389-13.265-0.641-1.294-2.424-3.078-3.542-3.925-2.638-1.991-7.512-2.217-10.683-1.043-0.886 0.327-1.746 0.615-2.519 1.074-2.079 1.218-4.29 2.041-4.905 4.497-1.52 0.678-1.978 2.625-1.903 4.886 0.013 0.44 0.258 0.992 0.17 1.407-0.044 0.207-0.327 0.477-0.383 0.615-0.729 1.74-0.144 4.020 0.697 5.257 0.509 0.747 1.35 1.407 2.462 1.583 0.044 0.666 0.207 1.237 0.515 1.909 0.195 0.427 0.923 1.193 0.653 1.74-0.138 0.276-1.319 0.867-1.715 1.105-1.325 0.785-2.286 1.275-3.511 2.154-0.791 0.565-2.029 0.641-1.834 1.953 0.132 0.886 0.634 1.985 0.923 2.877 0.044 0.126 0.088 0.258 0.132 0.377h26.504c0.308-0.961 0.609-1.941 0.917-2.964 0.214-0.716 0.641-1.746 0.546-2.493zM12.932 1.65c0.113-0.031 0.214 0.044 0.308 0.151-0.012 0.327-0.339 0.32-0.559 0.427-0.339 0.421-0.842 0.615-1.256 1.080-0.427 0.471-0.904 1.74-1.47 1.884-0.283 0.069-0.609-0.050-0.854-0.031-0.653 0.044-1.112 0.377-1.777 0.471 0.854-1.878 3.523-3.392 5.609-3.982zM6.35 7.528c0.848-0.936 2.016-1.514 3.442-1.627 0.735 1.865-0.527 4.082-0.057 6.13 0.145 0.622 0.641 1.595-0.151 1.614 0.019-1.777-2.186-2.908-3.85-1.859-0.113-1.35-0.308-3.247 0.615-4.258zM8.655 20.102c-0.063-0.258-0.17-0.81-0.145-0.948 0.1-0.546 1.074-0.785 0.691-1.551-0.71-0.006-0.867 0.641-1.514 0.71-1.677 0.163-2.864-2.223-2.789-3.668 0.063-1.225 1.105-2.399 2.519-2.248 1.005 0.113 1.344 1.206 1.539 2.179 0.578 0.031 1.413-0.025 1.69-0.477-0.038-1.099-0.553-1.985-0.515-2.996 0.063-1.903 1.099-3.618 0.301-5.489 0.854-1.941 3.36-3.473 5.219-4.396 2.299-1.149 5.96-0.232 8.121 0.992 1.237 0.697 2.16 2.054 3.034 3.184-1.225-0.364-2.267 0.264-2.079 1.275 1.024-0.936 2.776-0.013 3.297 1.030 0.496 0.992 0.49 2.468 0.565 3.944 0.182 3.58-0.653 7.279-2.456 9.867-0.484 0.691-0.886 1.445-1.564 1.922-1.633 1.143-4.107 2.179-6.23 1.47-2.807-0.942-4.082-2.814-5.621-4.949 0.044 1.175 0.867 2.142 1.683 3.040 0.71 0.785 1.57 1.671 2.493 2.035-0.773-0.182-1.953-0.239-2.274 0.452-1.796-0.119-3.461-0.301-4.315-1.52-0.666-0.967-1.344-2.6-1.652-3.856zM22.598 27.896c0.258-0.188 0.697-0.182 1.093-0.226-0.339-0.17-0.816-0.232-1.212-0.138-0.006-0.264-0.126-0.427-0.201-0.641 0.666-0.239 2.23-1.79 3.115-1.275 0.421 0.245 0.597 1.645 0.634 2.324 0.025 0.565-0.050 1.13-0.283 1.432-1.181-0.038-2.248-0.176-3.184-0.44 0.057-0.383-0.063-0.76 0.038-1.036zM21.517 26.64c-1.055 0.050-1.633-0.075-2.405-0.678 0.012-0.050 0.088-0.031 0.094-0.088 1.13 0.503 2.563-0.207 3.706-0.308-0.496 0.32-0.917 0.729-1.394 1.074zM20.757 28.725c-0.1-0.59-0.22-0.754-0.176-1.269 1.57-1.043 1.865 1.796 0.176 1.269zM14.194 27.080c-0.729-0.044-3.021-0.879-2.418-1.488 0.59 0.408 1.727 0.308 2.594 0.458 0.050 0.276-0.176 0.641-0.176 1.030zM3.624 30.754c-0.27-0.798-0.578-1.576-0.93-2.317 1.934-1.495 4.101-3.071 6.419-3.988 0.176-0.069 1.457 1.595 1.645 1.733 1.036 0.735 2.324 1.319 3.53 1.897 0.075 0.553 0.245 1.269 0.546 2.23 0.044 0.145 0.088 0.295 0.138 0.452h-11.349zM18.735 31.112h-0.050c0.019-0.012 0.031-0.025 0.050-0.031v0.031zM19.206 30.754c0.132-0.088 0.27-0.176 0.402-0.27 0.069 0.088 0.138 0.176 0.201 0.27h-0.603zM20.154 29.203c-0.678 0.458-1.294 1.149-2.091 1.583-0.377 0.207-1.696 0.735-2.098 0.641-0.226-0.050-0.245-0.333-0.339-0.597-0.195-0.565-0.634-1.47-0.678-2.324-0.050-1.080-0.157-2.889 1.005-2.663 0.936 0.182 2.029 0.609 2.757 1.011 0.446 0.245 0.697 0.54 1.375 0.597-0.006 0.088-0.006 0.176-0.012 0.27-0.371 0.245-0.961 0.239-1.369 0.446 0.597 0.025 1.068 0.17 1.476 0.371-0.006 0.214-0.019 0.44-0.025 0.666zM23.508 30.754h-0.879c-0.006-0.201-0.176-0.364-0.383-0.364s-0.371 0.163-0.383 0.364h-1.093c-0.176-0.276-0.358-0.54-0.559-0.785 0.132-0.138 0.251-0.295 0.377-0.433 0.565 0.232 0.93-0.308 1.363-0.264 0.496 0.050 0.892 0.735 1.595 0.691l-0.038 0.791zM24.055 30.754c0.012-0.251 0.025-0.49 0.038-0.722 0.98-0.458 1.821 0.082 2.242 0.722h-2.28zM29.293 28.43c-0.145 0.703-0.364 1.507-0.622 2.33-0.012-0.006-0.025-0.006-0.038-0.006h-1.752c0.038-0.069 0.075-0.138 0.119-0.207-0.163-0.383-0.565-0.546-0.685-0.973 0.76-1.426 0.408-5.866-1.52-4.93 0.27-0.396 0.98-0.722 1.306-1.212 0.816 0.653 1.306 1.275 2.085 1.972 0.427 0.377 1.256 0.835 1.344 1.451 0.050 0.345-0.163 1.187-0.239 1.576zM13.956 7.729c0.339-0.936 1.708-2.179 2.826-2.010 0.484 0.075 1.13 0.515 0.766 1.112-1.897-0.44-2.839 0.791-3.417 2.079-0.509-0.126-0.308-0.823-0.176-1.181zM25.518 11.692c0.515-0.226 1.407-0.044 1.859-0.333-0.264-0.722-0.647-1.344-0.584-2.368 0.031 0 0.063 0 0.088 0.006 0.427 0.892 0.798 1.834 1.344 2.619-0.358 0.848-2.738 1.595-2.707 0.075zM19.438 11.862c-0.427-0.685-1.193-2.041-0.911-2.845 0.408 0.747 0.54 1.533 1.118 2.091 0.258 0.251 0.766 0.565 0.515 1.269-0.057 0.17-0.49 0.54-0.735 0.609-0.904 0.27-3.008 0.057-2.299-1.074 0.747 0.044 1.752 0.49 2.311-0.050zM21.153 16.258c0.239 0.415 0.088 1.175 0.76 1.294 1.269 0.214 2.738-0.773 3.649-1.118 0.565-0.955-0.050-1.3-0.559-1.916-1.043-1.256-2.437-2.814-2.387-4.692 0.421-0.308 0.458 0.465 0.515 0.609 0.546 1.275 1.909 2.902 2.908 3.988 0.245 0.27 0.647 0.527 0.691 0.703 0.132 0.515-0.339 1.13-0.283 1.476-1.363 0.873-2.877 1.828-5.112 1.608-0.465-0.421-0.647-1.344-0.182-1.953zM8.51 15.68c-0.427-0.245-0.527-1.319-1.030-1.344-0.716-0.044-0.584 1.394-0.584 2.23-0.49-0.446-0.578-1.828-0.22-2.531-0.415-0.201-0.597 0.226-0.823 0.371 0.295-2.142 3.128-0.992 2.657 1.275zM27.327 17.489c-0.634 1.206-1.532 2.537-3.392 2.575-0.038-0.389-0.069-0.98 0-1.218 1.426-0.138 2.299-0.86 3.392-1.357zM18.415 18.268c1.187 0.622 3.366 0.691 4.98 0.641 0.088 0.352 0.082 0.791 0.088 1.218-2.073 0.113-4.522-0.402-5.068-1.859zM24.205 21.201c-0.107 0.27-0.333 0.584-0.615 0.697-0.76 0.308-2.864 0.546-3.919-0.019-0.672-0.358-1.099-1.162-1.47-1.633-0.176-0.226-1.061-0.81-0.012-0.81 0.823 2.054 3.643 1.821 6.017 1.765z"></path>
</svg>
