<!-- Generated by IcoMoon.io -->
<svg version="1.1" xmlns="http://www.w3.org/2000/svg" width="31" height="32" viewBox="0 0 31 32">
<title>joget</title>
<path d="M14.288 28.97c-0.565-0.854-1.25-2.091-1.488-2.663-0.358-0.86-1.708-2.864 1.96-4.214 3.247-1.2 11.098-1.036 13.114-1.105-0.251 0.565-0.54 1.124-0.873 1.671-2.537 4.114-6.934 6.375-11.431 6.375-0.427 0-0.854-0.025-1.281-0.063zM4.151 8.571c3.888-6.312 12.153-8.272 18.465-4.384 4.698 2.895 6.984 8.221 6.237 13.359-1.564-0.031-11.261-0.226-14.464-0.308-3.486-0.088-5.131-1.306-3.674-3.027s3.209-2.556 4.327-3.216c1.124-0.66 1.715-2.117-1.482-1.865-8.077 0.546-10.507 6.237-11.198 8.805-0.553-3.121-0.006-6.45 1.79-9.364zM2.317 7.44c-4.516 7.323-2.236 16.914 5.087 21.429s16.914 2.236 21.429-5.081c4.516-7.323 2.236-16.92-5.087-21.429-2.544-1.576-5.37-2.324-8.159-2.324-5.225 0-10.325 2.632-13.271 7.405zM17.667 14.374c-1.978 1.287-4.101 1.966-4.101 1.966l10.646-0.1 2.92-1.47s0.226-0.597-1.2-0.973c-1.426-0.377-3.58 0.71-5.445 1.708-1.865 0.992-1.953 0.515-1.953 0.515s2.525-1.765 3.184-2.167c0.66-0.402 2.003-0.879 0.842-1.545-0.201-0.113-0.421-0.17-0.653-0.17-1.118 0-2.606 1.175-4.239 2.236z"></path>
</svg>
