<!-- Generated by IcoMoon.io -->
<svg version="1.1" xmlns="http://www.w3.org/2000/svg" width="40" height="32" viewBox="0 0 40 32">
<title>joint</title>
<path d="M27.907 10.907c1.406 0.985 2.24 2.585 2.24 4.308v1.904c0 0.278 0.225 0.503 0.503 0.503h3.015c0.278 0 0.502-0.225 0.502-0.503v-1.904c0-2.716-1.32-5.239-3.538-6.787-1.495-1.043-2.491-2.656-2.491-4.479v-3.913c0-0.278-0.225-0.502-0.503-0.502h-3.015c-0.278 0-0.503 0.225-0.503 0.502v4.17c0 2.744 1.543 5.127 3.79 6.701zM12.245 22.079c-4.33 0.697-8.496 2.243-12.245 4.586 5.254 3.284 11.324 5.024 17.519 5.024h5.563l-7.079-8.26c-0.926-1.080-2.352-1.577-3.757-1.351zM34.749 5.003c-0.356-0.239-0.583-0.626-0.583-1.054v-3.913c0-0.278-0.225-0.502-0.502-0.502h-3.015c-0.278 0-0.503 0.225-0.503 0.502v3.913c0 1.383 0.639 2.726 1.799 3.479 2.647 1.717 4.231 4.638 4.231 7.787v1.904c0 0.278 0.225 0.503 0.502 0.503h3.015c0.278 0 0.502-0.225 0.502-0.503v-1.904c0-4.11-2.036-7.926-5.447-10.212zM22.666 21.644c-2.16 0.004-5.452 0.009-5.54 0.011l7.399 8.631c0.741 0.862 1.833 1.404 3.052 1.404 0 0 0 0 0 0h5.555l-7.408-8.642c-0.741-0.862-1.832-1.404-3.051-1.404-0.002 0-0.005 0-0.007 0h0zM38.689 21.641h-11.556l7.411 8.645c0.741 0.862 1.833 1.404 3.052 1.404 0 0 0 0 0 0h1.094c0.832 0 1.507-0.675 1.507-1.507v-7.034c0-0.833-0.675-1.507-1.507-1.507z"></path>
</svg>
