<!-- Generated by IcoMoon.io -->
<svg version="1.1" xmlns="http://www.w3.org/2000/svg" width="28" height="32" viewBox="0 0 28 32">
<title>joomla</title>
<path d="M0.038 5.317c0-2.091 1.683-3.775 3.756-3.775 1.884 0 3.423 1.375 3.718 3.153 2.047-0.477 4.214 0.038 6.061 1.884l-2.782 2.782c-1.287-1.287-2.676-1.024-3.479-0.22-0.898 0.898-0.898 2.38 0 3.278l6.249 6.249-2.763 2.782c-5.508-5.477-3.121-3.121-6.268-6.262-1.683-1.664-2.198-4.070-1.558-6.212-1.69-0.364-2.933-1.865-2.933-3.662zM8.171 12.628l2.782 2.782c0.628-0.628 5.634-5.634 6.262-6.268 0.898-0.898 2.362-0.898 3.26 0 0.804 0.804 1.068 2.198-0.22 3.479l2.763 2.782c1.96-1.96 2.418-4.246 1.815-6.356 1.834-0.258 3.26-1.834 3.26-3.737 0-2.085-1.683-3.775-3.756-3.775-1.903 0-3.479 1.413-3.737 3.241-2.123-0.622-4.503-0.094-6.174 1.576-1.149 1.2-4.465 4.491-6.255 6.274zM24.896 22.187c0.515-2.054-0.057-4.302-1.652-5.898-0.741-0.766 0.314 0.295-6.249-6.262l-2.782 2.782 6.262 6.262c0.898 0.898 0.898 2.362 0 3.26-0.804 0.804-2.198 1.068-3.479-0.22l-2.763 2.782c1.733 1.897 4.271 2.437 6.45 1.759 0.345 1.721 1.865 3.021 3.699 3.021 2.073 0 3.756-1.683 3.756-3.775 0-1.897-1.413-3.454-3.241-3.712zM19.602 18.852l-2.763-2.782c-5.464 5.426-3.165 3.165-6.262 6.268-0.898 0.898-2.362 0.898-3.26 0-0.823-0.842-1.061-2.217 0.201-3.479l-2.763-2.782c-1.897 1.897-2.387 4.095-1.853 6.174-1.677 0.377-2.902 1.878-2.902 3.655 0 2.091 1.683 3.775 3.756 3.775 1.796 0 3.297-1.244 3.68-2.933 2.054 0.515 4.302-0.038 5.916-1.633 2.016-2.010 0.766-0.779 6.249-6.262z"></path>
</svg>
