<!-- Generated by IcoMoon.io -->
<svg version="1.1" xmlns="http://www.w3.org/2000/svg" width="28" height="32" viewBox="0 0 28 32">
<title>journal-whills</title>
<path d="M28.137 22.043v-20.902c0-1.005-0.603-1.608-1.608-1.608h-20.5c-3.417 0-6.029 2.613-6.029 6.029v20.098c0 3.417 2.613 6.029 6.029 6.029h20.5c0.804 0 1.608-0.603 1.608-1.608v-1.005c0-0.402-0.201-0.804-0.603-1.206-0.201-1.005-0.201-3.819 0-4.622 0.402-0.201 0.603-0.603 0.603-1.206zM8.358 8.602l1.335 1.335c0.098 0.098 0.227 0.147 0.355 0.147s0.257-0.049 0.355-0.147c0.196-0.196 0.196-0.514 0-0.71l-1.659-1.659c0.628-1.313 1.648-2.385 2.912-3.094-0.376 0.612-0.604 1.324-0.604 2.094 0 1.254 0.586 2.36 1.486 3.097-0.606 0.632-0.984 1.485-0.984 2.43 0 1.692 1.196 3.103 2.787 3.439l0.085-2.054-0.651 0.442c-0.043 0.028-0.092 0.043-0.141 0.043-0.063 0-0.124-0.024-0.173-0.068-0.048-0.046-0.078-0.111-0.078-0.183 0-0.047 0.013-0.092 0.036-0.129l-0.001 0.001 0.536-0.899-1.125-0.234c-0.117-0.025-0.2-0.127-0.2-0.246s0.084-0.222 0.2-0.246l1.125-0.234-0.536-0.899c-0.060-0.101-0.042-0.23 0.043-0.311 0.085-0.082 0.216-0.090 0.314-0.026l0.754 0.512 0.29-6.96c0.006-0.134 0.117-0.241 0.251-0.241s0.246 0.106 0.251 0.241l0.294 7.052 0.892-0.606c0.040-0.026 0.088-0.042 0.141-0.042 0.067 0 0.128 0.026 0.174 0.068l-0-0c0.048 0.046 0.078 0.111 0.078 0.183 0 0.047-0.013 0.092-0.036 0.129l0.001-0.001-0.536 0.899 1.125 0.234c0.117 0.025 0.2 0.127 0.2 0.246s-0.084 0.222-0.2 0.246l-1.125 0.234 0.536 0.899c0.060 0.101 0.042 0.23-0.043 0.311-0.048 0.045-0.111 0.068-0.173 0.068-0.049 0-0.098-0.014-0.141-0.043l-0.796-0.541 0.090 2.153c1.591-0.335 2.787-1.746 2.787-3.438 0-0.945-0.378-1.798-0.984-2.43 0.9-0.737 1.486-1.843 1.486-3.097 0-0.77-0.227-1.482-0.603-2.093 1.264 0.708 2.284 1.781 2.912 3.094l-1.659 1.659c-0.196 0.196-0.196 0.514 0 0.71 0.098 0.098 0.227 0.147 0.355 0.147s0.257-0.049 0.355-0.147l1.335-1.335c0.187 0.633 0.318 1.291 0.318 1.985 0 0.033-0.009 0.062-0.009 0.095l-2.331 2.039c-0.106 0.092-0.172 0.227-0.172 0.378 0 0.127 0.047 0.243 0.125 0.331l-0-0.001c0.092 0.105 0.227 0.171 0.377 0.171 0 0 0.001 0 0.001 0h-0c0.118 0 0.235-0.041 0.331-0.124l1.482-1.296c-0.725 3.115-3.503 5.441-6.838 5.441s-6.112-2.326-6.837-5.44l1.482 1.296c0.088 0.077 0.203 0.124 0.33 0.124 0 0 0.001 0 0.001 0h-0c0.139 0 0.279-0.058 0.378-0.171 0.183-0.209 0.162-0.526-0.047-0.708l-2.331-2.039c-0.001-0.033-0.009-0.062-0.009-0.095-0.001-0.695 0.131-1.352 0.318-1.986zM23.917 27.67h-17.887c-1.206 0-2.010-0.804-2.010-2.010s1.005-2.010 2.010-2.010h17.887v4.020z"></path>
</svg>
