<!-- Generated by IcoMoon.io -->
<svg version="1.1" xmlns="http://www.w3.org/2000/svg" width="32" height="32" viewBox="0 0 32 32">
<title>journey</title>
<path d="M29.217 0.003c-1.266 0.003-2.372 0.859-2.69 2.087h-16.788c-2.603 0-4.793 1.804-5.397 4.228-1.307 0.25-2.253 1.394-2.255 2.728 0.003 1.28 0.878 2.397 2.122 2.698 0.307 2.78 2.671 4.954 5.53 4.954h12.522c1.88 0 3.459 1.228 3.986 2.932-1.133 0.378-1.897 1.438-1.899 2.633 0 1.25 0.837 2.345 2.041 2.679-0.285 2.030-2.016 3.582-4.128 3.582h-16.788c-0.315-1.228-1.421-2.087-2.69-2.087-1.538 0-2.783 1.245-2.783 2.783s1.245 2.783 2.783 2.783c1.266-0.003 2.372-0.859 2.69-2.087h16.788c2.859 0 5.223-2.174 5.53-4.954 1.245-0.302 2.12-1.418 2.122-2.698 0-1.334-0.948-2.478-2.258-2.731-0.601-2.421-2.791-4.226-5.394-4.226h-12.522c-2.111 0-3.84-1.552-4.128-3.579 1.207-0.334 2.041-1.432 2.041-2.682 0-1.196-0.766-2.255-1.899-2.636 0.527-1.701 2.106-2.929 3.986-2.929h16.785c0.318 1.228 1.424 2.087 2.693 2.087 1.538 0 2.783-1.245 2.783-2.783s-1.245-2.783-2.783-2.783z"></path>
</svg>
