<!-- Generated by IcoMoon.io -->
<svg version="1.1" xmlns="http://www.w3.org/2000/svg" width="32" height="32" viewBox="0 0 32 32">
<title>jpg-image-file-format</title>
<path d="M27.737 7.239c-0.002-0.148-0.049-0.293-0.151-0.408l-6.2-7.082c-0.002-0.002-0.004-0.003-0.005-0.004-0.037-0.041-0.080-0.075-0.126-0.105-0.013-0.009-0.027-0.017-0.041-0.025-0.039-0.021-0.081-0.039-0.124-0.052-0.012-0.003-0.022-0.008-0.034-0.011-0.047-0.011-0.095-0.018-0.145-0.018h-15.237c-0.695 0-1.261 0.566-1.261 1.261v29.635c0 0.696 0.566 1.261 1.261 1.261h20.807c0.695 0 1.261-0.566 1.261-1.261v-23.119c-0-0.024-0.004-0.047-0.006-0.071zM10.7 27.166c0 2.178-1.044 2.939-2.724 2.939-0.397 0-0.919-0.068-1.26-0.182l0.193-1.396c0.238 0.079 0.544 0.137 0.885 0.137 0.727 0 1.18-0.329 1.18-1.521v-4.811h1.725v4.834zM16.931 26.474c-0.59 0.556-1.464 0.805-2.485 0.805-0.227 0-0.431-0.011-0.59-0.034v2.735h-1.714v-7.547c0.534-0.091 1.282-0.159 2.338-0.159 1.067 0 1.827 0.204 2.338 0.613 0.488 0.386 0.817 1.021 0.817 1.77s-0.249 1.384-0.703 1.816zM25.124 29.628c-0.533 0.182-1.543 0.431-2.554 0.431-1.395 0-2.406-0.352-3.109-1.032-0.704-0.659-1.090-1.657-1.078-2.781 0.011-2.542 1.86-3.994 4.368-3.994 0.988 0 1.748 0.193 2.122 0.375l-0.363 1.384c-0.42-0.182-0.942-0.329-1.782-0.329-1.441 0-2.53 0.817-2.53 2.474 0 1.577 0.987 2.508 2.406 2.508 0.397 0 0.715-0.046 0.851-0.114v-1.6h-1.18v-1.35h2.848v4.028zM5.675 20.945v-20.151h14.607v6.452c0 0.348 0.283 0.631 0.631 0.631h5.57v13.068h-20.807zM14.57 23.58c-0.351 0-0.59 0.034-0.715 0.068v2.258c0.148 0.034 0.33 0.045 0.579 0.045 0.919 0 1.487-0.466 1.487-1.248 0-0.704-0.488-1.124-1.351-1.124zM14.364 13.746c-2.518-2.519-4.96 7.225-4.96 7.225h8.393c0 0-0.913-4.704-3.433-7.225zM20.473 16.346c-1.785 0.456-2.676 4.625-2.676 4.625h6.019c-0.817-2.089-1.818-5.015-3.343-4.625zM9.405 11.501c0.863 0 1.562-0.699 1.562-1.562s-0.699-1.561-1.562-1.561c-0.864 0-1.563 0.698-1.563 1.561s0.699 1.562 1.563 1.562zM18.874 12.505c0.315 0 0.61-0.033 0.872-0.086 0.305 0.131 0.677 0.21 1.081 0.21 1.032 0 1.869-0.505 1.869-1.127s-0.837-1.128-1.869-1.128c-0.388 0-0.747 0.071-1.046 0.193-0.122-0.118-0.287-0.193-0.47-0.193h-0.271c-0.347 0-0.621 0.263-0.661 0.599-0.838 0.087-1.458 0.389-1.458 0.751-0 0.432 0.873 0.781 1.952 0.781z"></path>
</svg>
