<!-- Generated by IcoMoon.io -->
<svg version="1.1" xmlns="http://www.w3.org/2000/svg" width="32" height="32" viewBox="0 0 32 32">
<title>js-file-format-symbol</title>
<path d="M27.736 7.239c-0.001-0.148-0.049-0.293-0.15-0.408l-6.2-7.082c-0.002-0.002-0.004-0.003-0.005-0.004-0.037-0.041-0.080-0.076-0.126-0.105-0.013-0.009-0.027-0.017-0.041-0.025-0.039-0.021-0.081-0.039-0.124-0.052-0.012-0.003-0.022-0.008-0.034-0.011-0.047-0.011-0.095-0.018-0.145-0.018h-15.237c-0.696 0-1.261 0.566-1.261 1.261v29.635c0 0.695 0.565 1.261 1.261 1.261h20.807c0.695 0 1.261-0.566 1.261-1.261v-23.119c0-0.024-0.004-0.047-0.007-0.070zM14.689 26.963c0 2.221-1.064 2.996-2.776 2.996-0.405 0-0.937-0.069-1.284-0.185l0.197-1.423c0.243 0.081 0.555 0.139 0.902 0.139 0.74 0 1.202-0.336 1.202-1.55v-4.904h1.759v4.927h0zM18.066 29.947c-0.89 0-1.769-0.232-2.209-0.474l0.358-1.457c0.474 0.243 1.203 0.486 1.955 0.486 0.81 0 1.237-0.335 1.237-0.844 0-0.486-0.37-0.764-1.307-1.098-1.295-0.451-2.14-1.168-2.14-2.302 0-1.33 1.11-2.348 2.949-2.348 0.879 0 1.527 0.185 1.989 0.393l-0.393 1.422c-0.313-0.15-0.868-0.37-1.631-0.37s-1.134 0.348-1.134 0.752c0 0.497 0.44 0.717 1.446 1.098 1.376 0.509 2.024 1.226 2.024 2.324-0 1.307-1.007 2.418-3.147 2.418zM26.482 20.944h-20.807v-20.15h14.607v6.452c0 0.348 0.283 0.631 0.631 0.631h5.57v13.068zM10.182 6.933c0 0.545 0.387 0.988 0.863 0.988 0.134 0 0.244-0.125 0.244-0.28s-0.11-0.279-0.244-0.279c-0.206 0-0.375-0.193-0.375-0.429s0.169-0.429 0.375-0.429h0.002c0.047 0 0.465-0.011 0.469 0.383v10.722c0 0.462 0.328 0.839 0.732 0.839h1.303c-0-0.002-0-0.005-0.001-0.007h6.657c0.531 0 0.962-0.493 0.962-1.102 0-0.505-0.299-0.931-0.706-1.060 0.001-0.002 0.001-0.004 0.001-0.006h0.002v-9.491c0-0.462-0.328-0.838-0.732-0.838h-8.697c-0 0-0 0-0 0-0.469-0-0.856 0.443-0.856 0.988zM13.515 17.345c0-0.217-0.065-0.398-0.157-0.549h6.202c0.261 0 0.474 0.243 0.474 0.543s-0.212 0.543-0.474 0.543h-6.196c0.089-0.146 0.151-0.324 0.151-0.537zM13.278 12.196h5.714v0.512h-5.714v-0.512zM13.278 10.344h5.714v0.512h-5.714v-0.512zM13.278 8.452h5.714v0.512h-5.714v-0.512z"></path>
</svg>
