<!-- Generated by IcoMoon.io -->
<svg version="1.1" xmlns="http://www.w3.org/2000/svg" width="28" height="32" viewBox="0 0 28 32">
<title>js</title>
<path d="M0 1.543v28.137h28.137v-28.137h-28.137zM15.312 23.487c0 2.738-1.608 3.988-3.95 3.988-2.117 0-3.341-1.093-3.969-2.418l2.154-1.3c0.415 0.735 0.791 1.357 1.702 1.357 0.867 0 1.419-0.339 1.419-1.664v-8.988h2.644v9.025zM21.568 27.475c-2.456 0-4.045-1.168-4.817-2.701l2.154-1.244c0.565 0.923 1.306 1.608 2.606 1.608 1.093 0 1.796-0.546 1.796-1.306 0-0.904-0.716-1.225-1.928-1.759l-0.66-0.283c-1.909-0.81-3.172-1.834-3.172-3.988 0-1.985 1.514-3.492 3.869-3.492 1.683 0 2.889 0.584 3.756 2.117l-2.060 1.319c-0.452-0.81-0.942-1.13-1.702-1.13-0.773 0-1.262 0.49-1.262 1.13 0 0.791 0.49 1.112 1.627 1.608l0.66 0.283c2.248 0.961 3.511 1.947 3.511 4.158 0 2.374-1.872 3.68-4.378 3.68z"></path>
</svg>
