<!-- Generated by IcoMoon.io -->
<svg version="1.1" xmlns="http://www.w3.org/2000/svg" width="36" height="32" viewBox="0 0 36 32">
<title>jsfiddle</title>
<path d="M32.071 14.447c-0.297-0.165-0.356-0.361-0.401-0.677-0.148-1.036-0.222-2.111-0.571-3.083-2.254-6.278-9.672-9.005-15.504-5.756-1.719 0.958-3.076 2.284-4.113 4.013-0.2-0.095-0.343-0.17-0.491-0.231-1.891-0.78-3.709-0.636-5.359 0.576-1.604 1.177-2.287 2.798-2.052 4.799 0.022 0.19-0.124 0.479-0.284 0.6-2.494 1.884-3.519 4.903-2.632 7.827 0.869 2.862 3.612 5.012 6.633 5.114 1.902 0.065 3.808 0.034 5.713 0.034 5.278-0.001 10.557 0.033 15.835-0.030 3.308-0.040 6.036-2.316 6.796-5.483 0.725-3.019-0.7-6.111-3.569-7.702zM33.397 24.3c-1.145 1.409-2.659 2.214-4.477 2.239-3.572 0.049-7.145 0.014-10.718 0.014 0 0.044-10.239 0.010-10.283 0.010-2.755-0.021-4.82-1.241-5.978-3.768-1.187-2.59-0.252-5.706 2.147-7.292 0.577-0.381 0.785-0.726 0.634-1.453-0.345-1.656 0.28-3.012 1.659-3.956 1.444-0.988 2.978-1.014 4.524-0.194 0.645 0.342 0.917 0.726 1.394-0.159 0.893-1.658 2.17-2.935 3.811-3.85 6.121-3.414 14.343 0.475 14.46 8.334 0.008 0.512 0.152 0.78 0.618 0.998 3.615 1.685 4.676 6.037 2.207 9.075zM27.883 19.244c-0.367 1.957-2.175 3.46-4.187 3.46-1.065-0-2.013-0.411-2.768-1.112-1.739-1.615-4.468-4.709-6.025-5.865-1.26-0.935-2.637-0.775-3.785 0.237-3.14 2.768 0.996 7.648 4.212 4.848 0.286-0.249 0.492-0.599 0.8-0.807 0.514-0.346 1.304-0.056 0.827 0.667-1.090 1.651-3.098 2.399-4.953 1.84-1.815-0.547-3.067-2.259-3.054-4.408 0.077-1.412 0.777-2.704 2.224-3.515 1.418-0.794 2.912-0.826 4.207 0.155 3.19 2.416 4.747 5.134 6.739 6.359 1.542 0.948 3.407 0.462 4.323-1.099 1.811-3.091-2.173-6.596-4.953-3.986-0.251 0.235-0.434 0.561-0.717 0.736-0.689 0.428-1.089-0.258-0.804-0.65 1.3-1.793 3.169-2.54 5.23-1.772 1.974 0.736 3.084 2.786 2.686 4.911z"></path>
</svg>
