<!-- Generated by IcoMoon.io -->
<svg version="1.1" xmlns="http://www.w3.org/2000/svg" width="32" height="32" viewBox="0 0 32 32">
<title>jsp-file-format-symbol</title>
<path d="M21.799 23.896c-0.331 0-0.555 0.032-0.672 0.064v2.122c0.138 0.033 0.309 0.043 0.544 0.043 0.864 0 1.398-0.438 1.398-1.173-0-0.661-0.459-1.056-1.27-1.056zM27.737 7.239c-0.002-0.148-0.049-0.293-0.15-0.408l-6.201-7.082c-0.001-0.002-0.003-0.002-0.005-0.004-0.037-0.041-0.079-0.075-0.125-0.105-0.013-0.009-0.027-0.017-0.041-0.025-0.040-0.022-0.081-0.039-0.125-0.052-0.012-0.004-0.022-0.008-0.034-0.011-0.047-0.011-0.096-0.018-0.145-0.018h-15.238c-0.695 0-1.261 0.566-1.261 1.261v29.635c0 0.696 0.566 1.261 1.261 1.261h20.807c0.696 0 1.261-0.566 1.261-1.261v-23.119c0-0.024-0.004-0.047-0.006-0.071zM12.403 27.267c0 2.048-0.981 2.763-2.56 2.763-0.373 0-0.864-0.064-1.184-0.171l0.182-1.312c0.224 0.074 0.512 0.128 0.832 0.128 0.683 0 1.11-0.309 1.11-1.429v-4.523h1.621v4.544h-0zM15.516 30.019c-0.821 0-1.632-0.213-2.037-0.438l0.331-1.344c0.437 0.224 1.109 0.448 1.802 0.448 0.747 0 1.142-0.309 1.142-0.779 0-0.448-0.341-0.703-1.205-1.013-1.195-0.416-1.973-1.077-1.973-2.122 0-1.227 1.024-2.166 2.72-2.166 0.81 0 1.407 0.171 1.834 0.363l-0.362 1.312c-0.288-0.138-0.8-0.341-1.504-0.341s-1.045 0.32-1.045 0.693c0 0.459 0.405 0.662 1.333 1.013 1.269 0.47 1.867 1.131 1.867 2.145-0.001 1.205-0.928 2.229-2.903 2.229zM24.018 26.616c-0.556 0.523-1.376 0.757-2.336 0.757-0.214 0-0.406-0.010-0.555-0.032v2.571h-1.611v-7.093c0.501-0.085 1.206-0.149 2.197-0.149 1.003 0 1.718 0.191 2.198 0.576 0.459 0.362 0.768 0.96 0.768 1.664s-0.235 1.302-0.661 1.707zM5.675 20.945v-20.151h14.607v6.452c0 0.348 0.282 0.631 0.631 0.631h5.569l0.001 13.068h-20.808zM15.020 11.47c0 0-0.848-1.633-0.817-2.825 0.023-0.852 1.945-1.695 2.7-2.918 0.752-1.224-0.095-2.416-0.095-2.416s0.189 0.878-0.313 1.789c-0.502 0.91-2.355 1.444-3.076 3.012s1.601 3.358 1.601 3.358zM18.191 6.512c0 0-2.887 1.098-2.887 2.353s0.784 1.663 0.91 2.071c0.125 0.409-0.219 1.099-0.219 1.099s1.13-0.784 0.94-1.695c-0.188-0.91-1.067-1.192-0.565-2.102 0.335-0.609 1.821-1.725 1.821-1.725zM14.708 13.128c2.979-0.107 3.329-0.667 3.64-0.937-1.725 0.47-6.307 0.44-6.34 0.094-0.030-0.345 1.412-0.628 1.412-0.628s-2.259 0-2.447 0.565c-0.189 0.566 1.069 0.999 3.735 0.906zM18.786 11.721c0 0 1.287 0 1.412 0.784s-1.631 1.945-1.631 1.945 2.766-0.557 2.509-1.976c-0.313-1.726-2.29-0.754-2.29-0.754zM15.646 13.981c-1.307 0.147-2.886 0.031-3.012-0.19-0.123-0.22 0.221-0.345 0.221-0.345-1.571 0.377-0.712 1.035 1.127 1.162 1.577 0.107 3.339-0.471 3.339-0.471l0.543-0.439c0 0-1.243 0.173-2.219 0.283zM13.232 15.069c0 0-0.712 0.020-0.753 0.397-0.042 0.374 0.221 0.565 1.982 0.523 2.096-0.050 2.445-0.299 2.661-0.481l0.51-0.385c-1.369 0.178-1.475 0.226-2.252 0.248-0.781 0.023-2.148 0.072-2.211-0.072-0.063-0.147 0.063-0.23 0.063-0.23zM20.073 16.764c0.271-0.294-0.084-0.524-0.084-0.524s0.125 0.147-0.041 0.314c-0.167 0.167-1.695 0.585-4.144 0.71-2.447 0.127-5.104-0.229-5.189-0.543-0.081-0.314 1.361-0.564 1.361-0.564-0.167 0.021-2.176 0.063-2.24 0.607-0.061 0.544 0.879 0.982 4.646 0.982 3.766 0 5.42-0.691 5.69-0.982zM18.608 17.997c-1.653 0.335-6.672 0.124-6.672 0.124s3.262 0.774 6.986 0.126c1.78-0.31 1.884-1.172 1.884-1.172s-0.545 0.587-2.198 0.922z"></path>
</svg>
