<!-- Generated by IcoMoon.io -->
<svg version="1.1" xmlns="http://www.w3.org/2000/svg" width="36" height="32" viewBox="0 0 36 32">
<title>kaaba</title>
<path d="M34.802 4.778l-14.807-4.935c-0.569-0.196-1.224-0.31-1.906-0.31s-1.338 0.113-1.949 0.322l0.042-0.013-14.808 4.935c-0.805 0.274-1.374 1.024-1.374 1.907v0 3.078l16.645-4.994c0.944-0.283 1.942-0.283 2.888 0l16.644 4.994v-3.078c0-0.865-0.553-1.633-1.374-1.907zM17.223 6.695l-17.223 5.167v14.344c0 0.942 0.654 1.757 1.574 1.962l15.207 3.379c0.393 0.091 0.844 0.144 1.308 0.144s0.915-0.052 1.348-0.151l-0.040 0.008 15.207-3.379c0.92-0.204 1.574-1.020 1.574-1.962v-14.344l-17.221-5.166c-0.568-0.171-1.168-0.171-1.733 0zM8.039 13.985c0 0.227-0.151 0.425-0.37 0.485l-5.024 1.37c-0.32 0.087-0.635-0.154-0.635-0.485v-1.041c0-0.227 0.151-0.425 0.37-0.485l5.024-1.37c0.32-0.087 0.635 0.153 0.635 0.485v1.041zM17.083 11.518c0 0.227-0.151 0.425-0.37 0.485l-6.029 1.644c-0.32 0.087-0.635-0.153-0.635-0.485v-1.041c0-0.227 0.151-0.425 0.37-0.485l6.029-1.644c0.32-0.087 0.635 0.153 0.635 0.485v1.041zM28.137 12.944c0-0.332 0.315-0.572 0.635-0.485l5.025 1.37c0.219 0.060 0.37 0.258 0.37 0.485v1.041c0 0.332-0.315 0.572-0.635 0.485l-5.024-1.37c-0.215-0.060-0.37-0.254-0.37-0.485 0-0 0-0 0-0v0-1.041zM19.093 10.478c0-0.332 0.315-0.572 0.635-0.485l6.029 1.644c0.219 0.060 0.37 0.258 0.37 0.485v1.041c0 0.332-0.315 0.572-0.635 0.485l-6.029-1.644c-0.215-0.060-0.37-0.254-0.37-0.485 0-0 0-0 0-0v0-1.041z"></path>
</svg>
