<!-- Generated by IcoMoon.io -->
<svg version="1.1" xmlns="http://www.w3.org/2000/svg" width="18" height="32" viewBox="0 0 18 32">
<title>kaggle</title>
<path d="M18.322 31.5c-0.032 0.126-0.158 0.189-0.378 0.189h-4.203c-0.252 0-0.472-0.11-0.661-0.331l-6.942-8.829-1.936 1.841v6.847c0 0.315-0.158 0.472-0.472 0.472h-3.258c-0.315 0-0.472-0.157-0.472-0.472v-31.213c0-0.314 0.157-0.472 0.472-0.472h3.258c0.315 0 0.472 0.158 0.472 0.472v19.219l8.31-8.405c0.22-0.22 0.441-0.33 0.661-0.33h4.345c0.437 0 0.496 0.494 0.33 0.661l-8.783 8.498 9.161 11.38z"></path>
</svg>
