<!-- Generated by IcoMoon.io -->
<svg version="1.1" xmlns="http://www.w3.org/2000/svg" width="32" height="32" viewBox="0 0 32 32">
<title>key-file-format-variant</title>
<path d="M27.737 7.239c-0.002-0.148-0.049-0.293-0.15-0.408l-6.2-7.082c-0.001-0.002-0.003-0.002-0.005-0.004-0.037-0.041-0.079-0.075-0.125-0.105-0.013-0.009-0.027-0.017-0.041-0.025-0.040-0.022-0.081-0.039-0.124-0.052-0.012-0.004-0.022-0.008-0.034-0.011-0.047-0.011-0.095-0.018-0.145-0.018h-15.238c-0.695 0-1.261 0.566-1.261 1.261v29.635c0 0.696 0.566 1.261 1.261 1.261h20.807c0.696 0 1.261-0.566 1.261-1.261v-23.119c-0-0.024-0.004-0.047-0.006-0.070zM11.635 29.432l-1.7-2.997-0.597 0.731v2.266h-1.555v-6.942h1.555v3.069h0.031c0.154-0.268 0.319-0.515 0.474-0.762l1.576-2.307h1.926l-2.297 2.956 2.42 3.986h-1.833zM18.537 29.432h-4.428v-6.942h4.284v1.287h-2.709v1.442h2.554v1.277h-2.554v1.648h2.853v1.287zM22.782 26.538v2.894h-1.566v-2.843l-2.194-4.099h1.792l0.711 1.668c0.217 0.505 0.361 0.875 0.536 1.328h0.021c0.155-0.433 0.319-0.834 0.526-1.328l0.7-1.668h1.761l-2.286 4.048zM5.675 20.945v-20.151h14.607v6.452c0 0.348 0.282 0.631 0.631 0.631h5.569l0.001 13.068h-20.808zM21.25 12.459c-0.995-0.995-2.47-1.346-3.802-0.92l-5.576-5.577c-0.065-0.065-0.146-0.111-0.235-0.133l-2.145-0.534c-0.174-0.043-0.36 0.010-0.485 0.138s-0.173 0.316-0.124 0.489l0.566 2.025c0.024 0.083 0.068 0.16 0.13 0.221l0.45 0.45c0.049 0.050 0.115 0.078 0.185 0.080l0.773 0.027v0.688c0 0.076 0.030 0.145 0.080 0.194 0.047 0.047 0.113 0.078 0.185 0.081l0.722 0.024v0.611c0 0.076 0.031 0.145 0.080 0.194 0.048 0.048 0.113 0.078 0.185 0.080l0.641 0.022v0.625c0.005 0.149-0.014 0.213 0.062 0.288l0.019 0.019c0.050 0.039 0.151 0.067 0.276 0.065l0.664 0.023v0.738c0 0.073 0.029 0.143 0.081 0.194l1.133 1.133c-0.561 1.387-0.24 2.998 0.826 4.065 1.464 1.464 3.846 1.464 5.31 0s1.464-3.847 0.001-5.31zM16.077 12.079l-5.343-5.343 0.182-0.183 5.342 5.343-0.182 0.182zM16.514 11.642l-5.343-5.343 0.085-0.085 5.343 5.343-0.085 0.085zM20.278 16.797c-0.674 0.674-1.582 0.904-1.983 0.503s-0.171-1.308 0.502-1.982c0.674-0.674 1.581-0.904 1.983-0.503s0.171 1.309-0.503 1.983z"></path>
</svg>
