<!-- Generated by IcoMoon.io -->
<svg version="1.1" xmlns="http://www.w3.org/2000/svg" width="32" height="32" viewBox="0 0 32 32">
<title>key</title>
<path d="M28.984 3.016c-4.021-4.021-10.563-4.021-14.584 0-2.747 2.747-3.701 6.794-2.511 10.466l-11.614 11.614c-0.176 0.176-0.275 0.414-0.275 0.663v5.304c0 0.518 0.419 0.937 0.938 0.937h5.304c0.249 0 0.487-0.099 0.663-0.275l1.326-1.327c0.202-0.202 0.301-0.486 0.268-0.771l-0.165-1.425 1.974-0.186c0.449-0.042 0.803-0.396 0.845-0.845l0.186-1.974 1.425 0.166c0.265 0.036 0.531-0.053 0.732-0.231s0.314-0.433 0.314-0.7v-1.746h1.714c0.249 0 0.487-0.099 0.663-0.275l2.404-2.372c3.671 1.19 7.649 0.308 10.395-2.44 4.021-4.021 4.021-10.563 0-14.584zM26.332 9.645c-1.097 1.097-2.88 1.097-3.977 0s-1.097-2.88 0-3.977 2.88-1.097 3.977 0 1.097 2.88 0 3.977z"></path>
</svg>
