<!-- Generated by IcoMoon.io -->
<svg version="1.1" xmlns="http://www.w3.org/2000/svg" width="32" height="32" viewBox="0 0 32 32">
<title>key1</title>
<path d="M32.157 10.587c0 6.105-4.949 11.054-11.054 11.054-0.705 0-1.394-0.067-2.062-0.193l-1.508 1.697c-0.277 0.311-0.679 0.506-1.127 0.506-0 0-0 0-0 0h-2.338v2.512c0 0.832-0.675 1.507-1.507 1.507h-2.512v2.512c0 0.832-0.675 1.507-1.507 1.507h-7.034c-0.833 0-1.507-0.675-1.507-1.507v-4.903c0-0.4 0.159-0.783 0.442-1.066l10.162-10.162c-0.359-1.090-0.555-2.255-0.555-3.465 0-6.105 4.949-11.054 11.054-11.054 6.123-0 11.054 4.931 11.054 11.054zM21.103 7.572c0 1.665 1.35 3.015 3.015 3.015s3.015-1.35 3.015-3.015-1.35-3.015-3.015-3.015-3.015 1.35-3.015 3.015z"></path>
</svg>
