<!-- Generated by IcoMoon.io -->
<svg version="1.1" xmlns="http://www.w3.org/2000/svg" width="26" height="32" viewBox="0 0 26 32">
<title>keybase</title>
<path d="M11.129 26.596c0 0.615-0.502 1.118-1.118 1.118s-1.118-0.503-1.118-1.118 0.502-1.118 1.118-1.118c0.615-0.006 1.118 0.496 1.118 1.118zM16.958 25.472c-0.615 0-1.118 0.503-1.118 1.118s0.503 1.118 1.118 1.118 1.118-0.503 1.118-1.118-0.503-1.118-1.118-1.118zM25.895 23.211c0 2.443-0.477 4.641-1.394 6.469h-1.715c1.476-2.431 1.916-5.954 1.407-8.435-1.011 1.853-3.272 2.424-5.395 1.809-8.027-2.355-12.090 1.237-14.734 3.159l1.187-3.724-2.506 2.657c0.301 1.677 0.986 3.222 1.96 4.541h-1.809c-0.609-0.992-1.080-2.073-1.394-3.222l-1.495 1.583c0-4.704-0.345-9.27 3.863-13.516 1.269-1.281 2.745-2.274 4.34-2.933-0.427-0.848-0.597-1.834-0.49-2.889l-1.25-0.075c-1.124-0.069-1.985-1.036-1.922-2.16v-0.006l0.1-1.645c0.069-1.074 0.967-1.922 2.041-1.922 0.082 0-0.019-0.006 1.771 0.107 0.873 0.050 1.35 0.615 1.432 0.716 0.446-0.653 0.911-1.288 1.545-2.167l1.294 0.76c-0.854 1.821-0.572 2.274-0.565 2.28 0.245 0 0.873-0.031 2.035 0.358 1.25 0.415 2.255 1.3 2.82 2.493 0.025 0.057 0.973 1.821 0.075 3.932 1.193 0.383 3.222 1.25 5.175 3.253 2.299 2.362 3.624 5.489 3.624 8.579zM8.039 7.214c0.201-0.628 0.484-1.237 0.823-1.847 0.006-0.126 0.138-0.823-0.49-0.867-1.79-0.113-1.652-0.1-1.677-0.1-0.289 0-0.521 0.22-0.54 0.509l-0.1 1.645c-0.019 0.295 0.214 0.553 0.509 0.572l1.476 0.088zM9.66 11.096c0.352 0.59 0.886 1.011 1.401 1.256 0-1.332 1.79-2.632 3.316-1.099l0.527 0.647c1.306-1.181 1.218-2.845 0.76-3.825-0.867-1.828-2.946-2.010-3.41-1.991-0.647 0.025-1.237-0.339-1.488-0.961-0.86 1.332-2.336 3.925-1.105 5.973zM14.866 15.392l-1.237 1.011c-0.119 0.1-0.138 0.276-0.038 0.396l0.559 0.685c0.063 0.075 0.239 0.17 0.396 0.038l1.231-1.005 0.345 0.427c0.308 0.377 0.867-0.088 0.565-0.458-3.994-4.918-2.606-3.209-3.473-4.277-0.295-0.377-0.873 0.088-0.565 0.458 0.119 0.145 1.156 1.419 1.244 1.526l-0.603 0.496c-0.289 0.239 0.163 0.835 0.465 0.59l0.609-0.502 0.502 0.615zM22.302 17.006c-1.061-1.488-2.676-2.933-4.61-3.793-0.496-0.22-0.942-0.383-1.438-0.54-0.126 0.138-0.258 0.27-0.402 0.389l2.003 2.462c0.653 0.798 0.534 1.978-0.264 2.632-0.082 0.069-0.823 0.672-1.821 0.308-0.182 0.145-0.634 0.622-1.394 0.622-0.54 0-1.043-0.239-1.388-0.66l-0.559-0.685c-0.396-0.49-0.496-1.124-0.314-1.683-0.515-0.622-0.521-1.338-0.289-1.884-0.452-0.082-1.677-0.389-2.682-1.344-3.505 1.3-5.527 4.045-6.362 5.728-0.936 1.897-1.181 3.825-1.25 5.665 0.515-0.546-0.245 0.258 7.16-7.593l-1.878 5.879c3.63-1.953 7.788-2.261 12.398-0.904 1.482 0.433 2.833 0.1 3.517-0.873 0.697-0.98 0.534-2.368-0.427-3.724zM6.946 6.272l0.98 0.063 0.063-0.98-0.98-0.063-0.063 0.98z"></path>
</svg>
