<!-- Generated by IcoMoon.io -->
<svg version="1.1" xmlns="http://www.w3.org/2000/svg" width="36" height="32" viewBox="0 0 36 32">
<title>keyboard1</title>
<path d="M33.162 27.67h-30.147c-1.665 0-3.015-1.35-3.015-3.015v-18.088c0-1.665 1.35-3.015 3.015-3.015h30.147c1.665 0 3.015 1.35 3.015 3.015v18.088c0 1.665-1.35 3.015-3.015 3.015zM8.039 10.838v-2.512c0-0.416-0.338-0.754-0.754-0.754h-2.512c-0.416 0-0.754 0.338-0.754 0.754v2.512c0 0.416 0.338 0.754 0.754 0.754h2.512c0.416 0 0.754-0.338 0.754-0.754zM14.069 10.838v-2.512c0-0.416-0.338-0.754-0.754-0.754h-2.512c-0.416 0-0.754 0.338-0.754 0.754v2.512c0 0.416 0.338 0.754 0.754 0.754h2.512c0.416 0 0.754-0.338 0.754-0.754zM20.098 10.838v-2.512c0-0.416-0.338-0.754-0.754-0.754h-2.512c-0.416 0-0.754 0.338-0.754 0.754v2.512c0 0.416 0.338 0.754 0.754 0.754h2.512c0.416 0 0.754-0.338 0.754-0.754zM26.127 10.838v-2.512c0-0.416-0.338-0.754-0.754-0.754h-2.512c-0.416 0-0.754 0.338-0.754 0.754v2.512c0 0.416 0.338 0.754 0.754 0.754h2.512c0.416 0 0.754-0.338 0.754-0.754zM32.157 10.838v-2.512c0-0.416-0.338-0.754-0.754-0.754h-2.512c-0.416 0-0.754 0.338-0.754 0.754v2.512c0 0.416 0.338 0.754 0.754 0.754h2.512c0.416 0 0.754-0.338 0.754-0.754zM11.054 16.867v-2.512c0-0.416-0.338-0.754-0.754-0.754h-2.512c-0.416 0-0.754 0.338-0.754 0.754v2.512c0 0.416 0.338 0.754 0.754 0.754h2.512c0.416 0 0.754-0.338 0.754-0.754zM17.083 16.867v-2.512c0-0.416-0.338-0.754-0.754-0.754h-2.512c-0.416 0-0.754 0.338-0.754 0.754v2.512c0 0.416 0.338 0.754 0.754 0.754h2.512c0.416 0 0.754-0.338 0.754-0.754zM23.113 16.867v-2.512c0-0.416-0.338-0.754-0.754-0.754h-2.512c-0.416 0-0.754 0.338-0.754 0.754v2.512c0 0.416 0.338 0.754 0.754 0.754h2.512c0.416 0 0.754-0.338 0.754-0.754zM29.142 16.867v-2.512c0-0.416-0.338-0.754-0.754-0.754h-2.512c-0.416 0-0.754 0.338-0.754 0.754v2.512c0 0.416 0.338 0.754 0.754 0.754h2.512c0.416 0 0.754-0.338 0.754-0.754zM8.039 22.897v-2.512c0-0.416-0.338-0.754-0.754-0.754h-2.512c-0.416 0-0.754 0.338-0.754 0.754v2.512c0 0.416 0.338 0.754 0.754 0.754h2.512c0.416 0 0.754-0.338 0.754-0.754zM26.127 22.897v-2.512c0-0.416-0.338-0.754-0.754-0.754h-14.571c-0.416 0-0.754 0.338-0.754 0.754v2.512c0 0.416 0.338 0.754 0.754 0.754h14.571c0.416 0 0.754-0.338 0.754-0.754zM32.157 22.897v-2.512c0-0.416-0.338-0.754-0.754-0.754h-2.512c-0.416 0-0.754 0.338-0.754 0.754v2.512c0 0.416 0.338 0.754 0.754 0.754h2.512c0.416 0 0.754-0.338 0.754-0.754z"></path>
</svg>
