<!-- Generated by IcoMoon.io -->
<svg version="1.1" xmlns="http://www.w3.org/2000/svg" width="36" height="32" viewBox="0 0 36 32">
<title>keyboard</title>
<path d="M33.162 3.553h-30.147c-1.665 0-3.015 1.35-3.015 3.015v18.088c0 1.665 1.35 3.015 3.015 3.015h30.147c1.665 0 3.015-1.35 3.015-3.015v-18.088c0-1.665-1.35-3.015-3.015-3.015zM33.664 24.655c0 0.277-0.225 0.503-0.502 0.503h-30.147c-0.277 0-0.502-0.225-0.502-0.503v-18.088c0-0.277 0.225-0.502 0.502-0.502h30.147c0.277 0 0.502 0.225 0.502 0.502v18.088zM10.677 16.491v-1.759c0-0.416-0.338-0.754-0.754-0.754h-1.759c-0.416 0-0.754 0.338-0.754 0.754v1.759c0 0.416 0.338 0.754 0.754 0.754h1.759c0.416 0 0.754-0.338 0.754-0.754zM16.706 16.491v-1.759c0-0.416-0.338-0.754-0.754-0.754h-1.759c-0.416 0-0.754 0.338-0.754 0.754v1.759c0 0.416 0.338 0.754 0.754 0.754h1.759c0.416 0 0.754-0.338 0.754-0.754zM22.736 16.491v-1.759c0-0.416-0.338-0.754-0.754-0.754h-1.759c-0.416 0-0.754 0.338-0.754 0.754v1.759c0 0.416 0.338 0.754 0.754 0.754h1.759c0.416 0 0.754-0.338 0.754-0.754zM28.765 16.491v-1.759c0-0.416-0.338-0.754-0.754-0.754h-1.759c-0.416 0-0.754 0.338-0.754 0.754v1.759c0 0.416 0.338 0.754 0.754 0.754h1.759c0.416 0 0.754-0.338 0.754-0.754zM7.662 21.641v-1.759c0-0.416-0.338-0.754-0.754-0.754h-1.759c-0.416 0-0.754 0.338-0.754 0.754v1.759c0 0.416 0.338 0.754 0.754 0.754h1.759c0.416 0 0.754-0.338 0.754-0.754zM31.78 21.641v-1.759c0-0.416-0.338-0.754-0.754-0.754h-1.759c-0.416 0-0.754 0.338-0.754 0.754v1.759c0 0.416 0.338 0.754 0.754 0.754h1.759c0.416 0 0.754-0.338 0.754-0.754zM7.662 11.341v-1.759c0-0.416-0.338-0.754-0.754-0.754h-1.759c-0.416 0-0.754 0.338-0.754 0.754v1.759c0 0.416 0.338 0.754 0.754 0.754h1.759c0.416 0 0.754-0.338 0.754-0.754zM13.692 11.341v-1.759c0-0.416-0.338-0.754-0.754-0.754h-1.759c-0.416 0-0.754 0.338-0.754 0.754v1.759c0 0.416 0.338 0.754 0.754 0.754h1.759c0.416 0 0.754-0.338 0.754-0.754zM19.721 11.341v-1.759c0-0.416-0.338-0.754-0.754-0.754h-1.759c-0.416 0-0.754 0.338-0.754 0.754v1.759c0 0.416 0.338 0.754 0.754 0.754h1.759c0.416 0 0.754-0.338 0.754-0.754zM25.75 11.341v-1.759c0-0.416-0.338-0.754-0.754-0.754h-1.759c-0.416 0-0.754 0.338-0.754 0.754v1.759c0 0.416 0.338 0.754 0.754 0.754h1.759c0.416 0 0.754-0.338 0.754-0.754zM31.78 11.341v-1.759c0-0.416-0.338-0.754-0.754-0.754h-1.759c-0.416 0-0.754 0.338-0.754 0.754v1.759c0 0.416 0.338 0.754 0.754 0.754h1.759c0.416 0 0.754-0.338 0.754-0.754zM25.625 21.264v-1.005c0-0.416-0.338-0.754-0.754-0.754h-13.566c-0.416 0-0.754 0.338-0.754 0.754v1.005c0 0.416 0.338 0.754 0.754 0.754h13.566c0.416 0 0.754-0.338 0.754-0.754z"></path>
</svg>
