<!-- Generated by IcoMoon.io -->
<svg version="1.1" xmlns="http://www.w3.org/2000/svg" width="32" height="32" viewBox="0 0 32 32">
<title>keycdn</title>
<path d="M4.007 25.24l3.8-3.706c2.016 2.688 4.465 4.145 7.951 4.233 1.916 0.044 3.787-0.44 5.426-1.407 0.32 0.333 1.162 1.225 1.313 1.382-2.022 1.3-4.371 1.953-6.789 1.897-2.72-0.069-5.313-1.049-7.392-2.789 0.019-0.038-2.399 2.355-2.424 2.38 0.597 1.872-0.823 3.919-2.908 3.919-1.683-0.006-2.983-1.363-2.983-3.046 0-2.154 2.079-3.555 4.007-2.864zM26.297 9.387c1.2 1.966 1.859 4.233 1.802 6.532-0.069 2.814-1.193 5.496-3.052 7.6 0.019 0.019 1.495 1.583 1.514 1.602 0.603-0.082 1.206 0.126 1.627 0.572 0.71 0.754 0.685 1.941-0.069 2.663-0.754 0.71-1.941 0.685-2.663-0.069-0.421-0.44-0.59-1.055-0.477-1.652-1.564-1.671-2.789-2.964-2.789-2.964 2.682-2.142 3.976-4.999 4.045-7.801 0.044-1.815-0.452-3.592-1.325-5.163l1.388-1.319zM6.532 2.868c0.421 0.44 0.59 1.055 0.477 1.652l2.883 3.021c-0.295 0.239-0.835 0.653-1.432 1.338-1.595 1.79-2.487 4.070-2.556 6.463-0.044 1.815 0.383 3.592 1.256 5.175l-1.382 1.35c-1.212-1.985-1.815-4.252-1.746-6.576 0.063-2.801 1.149-5.502 2.983-7.606l-1.589-1.658c-0.603 0.082-1.206-0.126-1.627-0.572-0.71-0.754-0.685-1.941 0.069-2.663 0.747-0.703 1.922-0.685 2.663 0.075zM29.199 0.035c1.633 0 2.958 1.407 2.958 3.034s-1.325 2.996-2.958 2.996c-0.396 0.006-0.879-0.069-0.999-0.113l-3.95 3.75c-2.054-2.738-4.817-4.139-7.97-4.221-1.916-0.044-3.787 0.427-5.414 1.407l-1.325-1.382c2.022-1.306 4.371-1.953 6.789-1.897 2.72 0.069 5.313 1.049 7.392 2.801l2.581-2.424c-0.094-0.295-0.138-0.603-0.138-0.911-0.006-1.677 1.401-3.040 3.034-3.040zM16.122 6.655c0.345 0 0.685 0.025 1.030 0.069 4.905 0.615 8.378 5.094 7.775 9.992-0.615 4.905-5.094 8.378-9.992 7.775-4.905-0.615-8.378-5.094-7.775-9.999 0.584-4.547 4.403-7.826 8.962-7.838zM12.417 14.154c0.038 1.426 0.766 2.625 2.035 3.278l-0.691 3.247h4.629l-0.691-3.247c1.262-0.685 2.016-1.821 2.035-3.278-0.025-2.060-1.62-3.611-3.662-3.662-2.016 0.050-3.599 1.558-3.655 3.662z"></path>
</svg>
