<!-- Generated by IcoMoon.io -->
<svg version="1.1" xmlns="http://www.w3.org/2000/svg" width="32" height="32" viewBox="0 0 32 32">
<title>khanda</title>
<path d="M26.115 3.678c-0.4-0.22-0.902-0.146-1.216 0.19-0.17 0.179-0.275 0.423-0.275 0.69 0 0.199 0.058 0.384 0.158 0.54l-0.002-0.004c1.036 1.643 1.583 3.542 1.583 5.49-0.012 3.344-1.681 6.45-4.476 8.316l-4.813 3.351v-1.262l2.767-2.267c0.246-0.264 0.314-0.634 0.177-0.96l-0.493-1.083c2.125-1.21 3.576-3.47 3.576-6.092 0-2.562-1.383-4.781-3.429-6.011l0.328-0.718c0.147-0.347 0.058-0.743-0.224-1.007l-3.705-3.317-3.705 3.317c-0.283 0.264-0.371 0.66-0.224 1.007l0.328 0.718c-2.046 1.23-3.429 3.45-3.429 6.012 0 2.622 1.45 4.882 3.576 6.092l-0.493 1.083c-0.137 0.325-0.069 0.695 0.177 0.96l2.767 2.267v1.25l-4.81-3.349c-2.78-1.857-4.45-4.961-4.461-8.302 0-1.952 0.547-3.851 1.583-5.494 0.243-0.387 0.151-0.865-0.163-1.198-0.314-0.335-0.859-0.389-1.257-0.17-4.932 2.691-7.358 8.702-5.118 14.398 0.444 1.13 1.124 2.159 1.913 3.081l3.515 4.105c0.306 0.357 0.819 0.455 1.234 0.234l4.984-2.652 1.835 1.277-2.957 2.059c-0.105-0.023-0.203-0.063-0.315-0.063-0.832 0-1.507 0.675-1.507 1.507s0.675 1.507 1.507 1.507c0.76 0 1.362-0.572 1.465-1.304l2.552-1.776v1.881c-0.59 0.35-1.004 0.966-1.004 1.702 0 1.11 0.899 2.010 2.009 2.010s2.009-0.9 2.009-2.010c0-0.735-0.415-1.352-1.004-1.702v-1.894l2.569 1.789c0.104 0.732 0.706 1.304 1.465 1.304 0.832 0 1.507-0.675 1.507-1.507s-0.675-1.507-1.507-1.507c-0.112 0-0.21 0.040-0.315 0.063l-2.957-2.059 1.835-1.277 4.984 2.652c0.415 0.221 0.928 0.124 1.234-0.233l3.298-3.851c1.185-1.383 2.135-2.983 2.591-4.747 1.358-5.254-1.033-10.506-5.663-13.033zM20.087 10.587c0 1.401-0.722 2.633-1.811 3.353l-0.355-0.779c-0.55-1.54-0.55-3.206 0-4.746l0.492-1.079c1.009 0.732 1.674 1.913 1.674 3.251zM12.052 10.587c0-1.339 0.665-2.52 1.674-3.251l0.492 1.079c0.55 1.54 0.55 3.205 0 4.746l-0.355 0.779c-1.089-0.72-1.811-1.953-1.811-3.353z"></path>
</svg>
