<!-- Generated by IcoMoon.io -->
<svg version="1.1" xmlns="http://www.w3.org/2000/svg" width="28" height="32" viewBox="0 0 28 32">
<title>kickstarter</title>
<path d="M25.122 29.68h-22.108c-1.658 0-3.015-1.357-3.015-3.015v-22.108c0-1.658 1.357-3.015 3.015-3.015h22.108c1.658 0 3.015 1.357 3.015 3.015v22.108c0 1.658-1.357 3.015-3.015 3.015zM12.536 10.744c0-1.928-1.105-2.833-2.493-2.833-1.62 0-2.512 1.244-2.512 2.795v9.722c0 1.62 0.86 2.864 2.544 2.864 1.35 0 2.462-0.879 2.462-2.864v-2.625l3.806 4.754c0.773 0.936 2.449 1.055 3.505 0 0.917-0.948 0.93-2.311 0.251-3.165l-3.084-3.944 2.544-3.687c0.59-0.848 0.597-2.167-0.352-3.084-1.030-0.999-2.801-1.087-3.856 0.44l-2.814 4.064v-2.437z"></path>
</svg>
