<!-- Generated by IcoMoon.io -->
<svg version="1.1" xmlns="http://www.w3.org/2000/svg" width="24" height="32" viewBox="0 0 24 32">
<title>kickstarter-k</title>
<path d="M9.251 6.718c0-3.53-2.041-5.175-4.61-5.175-2.996 0-4.641 2.274-4.641 5.112v17.774c0 2.971 1.589 5.238 4.704 5.238 2.5 0 4.547-1.608 4.547-5.238v-4.805l7.041 8.686c1.426 1.708 4.528 1.928 6.482 0 1.696-1.733 1.715-4.233 0.465-5.791l-5.703-7.21 4.704-6.745c1.093-1.551 1.099-3.963-0.653-5.64-1.903-1.821-5.175-1.985-7.135 0.804l-5.2 7.424v-4.434z"></path>
</svg>
