<!-- Generated by IcoMoon.io -->
<svg version="1.1" xmlns="http://www.w3.org/2000/svg" width="31" height="32" viewBox="0 0 31 32">
<title>kiss</title>
<path d="M10.551 10.587c-1.112 0-2.010 0.898-2.010 2.010s0.898 2.010 2.010 2.010 2.010-0.898 2.010-2.010-0.898-2.010-2.010-2.010zM19.093 18.877c0-1.206-1.809-2.606-4.491-2.763-0.239-0.025-0.465 0.151-0.515 0.389-0.057 0.239 0.069 0.484 0.295 0.578l1.061 0.452c0.816 0.345 1.306 0.848 1.306 1.35s-0.49 1.005-1.3 1.35l-1.068 0.452c-0.358 0.151-0.377 0.766 0 0.93l1.061 0.452c0.816 0.345 1.306 0.848 1.306 1.35s-0.49 1.005-1.3 1.35l-1.068 0.452c-0.226 0.094-0.352 0.339-0.295 0.578 0.050 0.226 0.258 0.389 0.49 0.389h0.031c2.688-0.157 4.491-1.558 4.491-2.763 0-0.816-0.842-1.715-2.211-2.261 1.363-0.572 2.205-1.47 2.205-2.286zM15.576 0.035c-8.604 0-15.576 6.971-15.576 15.576s6.971 15.576 15.576 15.576 15.576-6.971 15.576-15.576-6.971-15.576-15.576-15.576zM15.576 28.173c-6.928 0-12.561-5.634-12.561-12.561s5.634-12.561 12.561-12.561 12.561 5.634 12.561 12.561-5.634 12.561-12.561 12.561zM20.6 10.587c-1.112 0-2.010 0.898-2.010 2.010s0.898 2.010 2.010 2.010 2.010-0.898 2.010-2.010-0.898-2.010-2.010-2.010z"></path>
</svg>
