<!-- Generated by IcoMoon.io -->
<svg version="1.1" xmlns="http://www.w3.org/2000/svg" width="31" height="32" viewBox="0 0 31 32">
<title>kiss1</title>
<path d="M15.576 0.035c-8.604 0-15.576 6.971-15.576 15.576s6.971 15.576 15.576 15.576 15.576-6.971 15.576-15.576-6.971-15.576-15.576-15.576zM10.551 14.606c-1.112 0-2.010-0.898-2.010-2.010s0.898-2.010 2.010-2.010 2.010 0.898 2.010 2.010-0.898 2.010-2.010 2.010zM19.093 24.404c0 1.206-1.802 2.606-4.491 2.763-0.534 0.050-0.76-0.741-0.226-0.967l1.068-0.452c0.816-0.345 1.306-0.848 1.306-1.35s-0.49-1.005-1.306-1.35l-1.068-0.452c-0.377-0.157-0.383-0.766 0-0.93l1.068-0.452c0.816-0.345 1.306-0.848 1.306-1.35s-0.49-1.005-1.306-1.35l-1.068-0.452c-0.54-0.226-0.301-1.036 0.226-0.967 2.688 0.157 4.491 1.558 4.491 2.763 0 0.816-0.842 1.715-2.211 2.261 1.369 0.572 2.211 1.47 2.211 2.286zM20.6 14.606c-1.112 0-2.010-0.898-2.010-2.010s0.898-2.010 2.010-2.010 2.010 0.898 2.010 2.010-0.898 2.010-2.010 2.010z"></path>
</svg>
