<!-- Generated by IcoMoon.io -->
<svg version="1.1" xmlns="http://www.w3.org/2000/svg" width="32" height="32" viewBox="0 0 32 32">
<title>kiss-wink-heart</title>
<path d="M19.093 18.909c0-1.206-1.809-2.606-4.491-2.763-0.239-0.025-0.465 0.151-0.515 0.389-0.057 0.239 0.069 0.484 0.295 0.578l1.061 0.452c0.816 0.345 1.306 0.848 1.306 1.35s-0.49 1.005-1.3 1.35l-1.068 0.452c-0.358 0.151-0.377 0.766 0 0.93l1.061 0.452c0.816 0.345 1.306 0.848 1.306 1.35s-0.49 1.005-1.3 1.35l-1.068 0.452c-0.226 0.094-0.352 0.339-0.295 0.578 0.050 0.226 0.258 0.389 0.49 0.389h0.031c2.688-0.157 4.491-1.558 4.491-2.763 0-0.816-0.842-1.715-2.211-2.261 1.363-0.572 2.205-1.47 2.205-2.286zM23.521 13.664l0.597 0.534c0.239 0.207 0.584 0.251 0.86 0.1s0.433-0.465 0.383-0.779c-0.251-1.583-2.148-2.644-3.756-2.644s-3.511 1.061-3.756 2.644c-0.050 0.314 0.107 0.628 0.383 0.779 0.364 0.195 0.703 0.044 0.86-0.1l0.597-0.534c0.93-0.829 2.902-0.829 3.831 0zM8.542 12.628c0 1.112 0.898 2.010 2.010 2.010s2.010-0.898 2.010-2.010-0.898-2.010-2.010-2.010-2.010 0.898-2.010 2.010zM31.472 24.812c-0.503-1.306-1.978-1.978-3.335-1.627l-0.527 0.138-0.145-0.527c-0.371-1.344-1.696-2.292-3.078-2.073-1.583 0.251-2.55 1.796-2.135 3.304l1.438 5.188c0.094 0.333 0.44 0.534 0.779 0.446l5.213-1.35c1.514-0.396 2.368-1.997 1.79-3.498zM20.977 26.935c-1.639 0.785-3.467 1.237-5.401 1.237-6.928 0-12.561-5.634-12.561-12.561s5.634-12.561 12.561-12.561 12.561 5.634 12.561 12.561c0 1.388-0.232 2.72-0.653 3.969 0.565 0.402 1.068 0.892 1.419 1.501 0.402 0.006 0.791 0.088 1.168 0.182 0.685-1.752 1.074-3.655 1.074-5.653 0.006-8.604-6.965-15.576-15.57-15.576s-15.576 6.971-15.576 15.576 6.971 15.576 15.576 15.576c2.223 0 4.327-0.471 6.243-1.313-0.157-0.458 0.27 1.080-0.842-2.939z"></path>
</svg>
