<!-- Generated by IcoMoon.io -->
<svg version="1.1" xmlns="http://www.w3.org/2000/svg" width="32" height="32" viewBox="0 0 32 32">
<title>kiss-wink-heart1</title>
<path d="M31.472 24.812c-0.503-1.306-1.978-1.978-3.335-1.627l-0.527 0.138-0.145-0.527c-0.371-1.344-1.696-2.292-3.078-2.073-1.583 0.251-2.55 1.796-2.135 3.304l1.438 5.188c0.094 0.333 0.44 0.534 0.779 0.446l5.213-1.35c1.514-0.396 2.368-1.997 1.79-3.498zM20.318 24.561c-0.352-1.275-0.145-2.638 0.565-3.75 1.865-2.908 6.199-2.858 8.027 0.27 0.402 0.006 0.791 0.088 1.168 0.182 0.685-1.752 1.074-3.655 1.074-5.653 0-8.604-6.971-15.576-15.576-15.576s-15.576 6.971-15.576 15.576 6.971 15.576 15.576 15.576c2.223 0 4.327-0.471 6.243-1.313-0.019-0.044-1.501-5.313-1.501-5.313zM10.551 14.606c-1.112 0-2.010-0.898-2.010-2.010s0.898-2.010 2.010-2.010 2.010 0.898 2.010 2.010-0.898 2.010-2.010 2.010zM18.088 24.404c0 1.206-1.802 2.606-4.491 2.763-0.534 0.050-0.76-0.741-0.226-0.967l1.068-0.452c0.816-0.345 1.306-0.848 1.306-1.35s-0.49-1.005-1.306-1.35l-1.068-0.452c-0.377-0.157-0.358-0.773 0-0.93l1.068-0.452c0.816-0.345 1.306-0.848 1.306-1.35s-0.49-1.005-1.306-1.35l-1.068-0.452c-0.553-0.232-0.289-1.043 0.226-0.967 2.688 0.157 4.491 1.558 4.491 2.763 0 0.816-0.842 1.715-2.211 2.261 1.369 0.572 2.211 1.47 2.211 2.286zM19.093 13.162c-0.521 0.465-1.357 0.025-1.244-0.678 0.251-1.583 2.148-2.644 3.762-2.644s3.511 1.061 3.762 2.644c0.107 0.697-0.71 1.149-1.244 0.678l-0.597-0.534c-0.93-0.829-2.902-0.829-3.831 0l-0.609 0.534z"></path>
</svg>
