<!-- Generated by IcoMoon.io -->
<svg version="1.1" xmlns="http://www.w3.org/2000/svg" width="36" height="32" viewBox="0 0 36 32">
<title>kiwi-bird</title>
<path d="M36.164 13.223c-0.199-3.804-3.613-6.656-7.422-6.656h-0.588c-3.317 0-6.548-1.021-9.279-2.904-2.637-1.819-6.032-2.614-9.623-1.802-1.131 0.255-9.257 2.586-9.252 11.741 0.003 4.456 2.429 8.341 6.029 10.426v4.647c0 0.555 0.45 1.005 1.005 1.005h1.005c0.555 0 1.005-0.45 1.005-1.005v-3.408c0.965 0.249 1.972 0.393 3.015 0.393 0.342 0 0.671-0.046 1.005-0.074v3.089c0 0.555 0.45 1.005 1.005 1.005h1.005c0.555 0 1.005-0.45 1.005-1.005v-3.733c0.894-0.318 1.751-0.715 2.534-1.225 2.873-1.872 6.125-3.081 9.555-3.081 1.6 0 1.005-0.020 1.448-0.049l4.673 8.569c0.18 0.328 0.521 0.524 0.882 0.524 0.082 0 0.166-0.010 0.248-0.031 0.445-0.113 0.757-0.514 0.757-0.973 0 0 0.009-15.089-0.010-15.452zM29.14 15.109c-0.832 0-1.507-0.675-1.507-1.507s0.675-1.507 1.507-1.507 1.507 0.675 1.507 1.507c0 0.832-0.675 1.507-1.507 1.507zM34.165 24.734l-2.503-4.59c0.95-0.366 1.804-0.917 2.503-1.632v6.222z"></path>
</svg>
