<!-- Generated by IcoMoon.io -->
<svg version="1.1" xmlns="http://www.w3.org/2000/svg" width="32" height="32" viewBox="0 0 32 32">
<title>kmz-file-format-symbol</title>
<path d="M27.737 7.239c-0.002-0.148-0.048-0.293-0.15-0.408l-6.201-7.082c-0.001-0.002-0.003-0.002-0.005-0.004-0.037-0.041-0.079-0.075-0.125-0.105-0.013-0.009-0.027-0.017-0.041-0.025-0.040-0.022-0.081-0.039-0.124-0.052-0.012-0.004-0.022-0.008-0.034-0.011-0.047-0.011-0.095-0.018-0.145-0.018h-15.238c-0.695 0-1.261 0.566-1.261 1.261v29.635c0 0.696 0.566 1.261 1.261 1.261h20.807c0.696 0 1.261-0.566 1.261-1.261v-23.119c0-0.024-0.004-0.047-0.006-0.071zM9.895 29.48l-1.599-2.819-0.562 0.688v2.131h-1.463v-6.53h1.463v2.887h0.029c0.145-0.252 0.3-0.485 0.446-0.717l1.482-2.17h1.812l-2.16 2.78 2.277 3.749h-1.725zM17.839 29.48l-0.097-2.5c-0.029-0.784-0.059-1.734-0.059-2.683h-0.029c-0.204 0.833-0.474 1.762-0.727 2.528l-0.794 2.548h-1.153l-0.697-2.529c-0.213-0.765-0.436-1.695-0.591-2.547h-0.020c-0.039 0.881-0.068 1.888-0.116 2.702l-0.116 2.48h-1.366l0.417-6.53h1.966l0.639 2.18c0.203 0.756 0.407 1.57 0.552 2.334h0.029c0.184-0.755 0.407-1.617 0.62-2.344l0.698-2.17h1.928l0.358 6.53-1.443 0.001zM25.074 29.48h-5.076v-0.795l3.11-4.475v-0.039h-2.819v-1.221h4.737v0.853l-3.042 4.418v0.039h3.090v1.221zM5.675 20.945v-20.151h14.607v6.452c0 0.348 0.282 0.631 0.631 0.631h5.569l0.001 13.068h-20.808zM16.072 3.299c4.23-0.016 7.758 3.447 7.75 7.76-0.008 4.209-3.476 7.767-7.815 7.735-4.252-0.033-7.687-3.597-7.673-7.783 0.014-4.231 3.502-7.724 7.737-7.712zM9.208 8.944c0.025 0.018 0.051 0.035 0.076 0.053 0.077-0.046 0.16-0.085 0.228-0.141 0.153-0.125 0.296-0.263 0.448-0.389 0.912-0.757 1.904-0.978 2.999-0.427 0.37 0.186 0.741 0.38 1.086 0.609 1.524 1.012 3.017 2.074 4.566 3.046 1.226 0.77 2.561 1.32 3.997 1.599 0.222 0.043 0.321-0.015 0.363-0.213 0.058-0.27 0.092-0.545 0.165-0.81 0.048-0.174-0.016-0.239-0.164-0.274-0.764-0.18-1.464-0.518-2.072-0.993-1.114-0.869-2.195-1.779-3.274-2.692-0.747-0.632-1.456-1.308-2.2-1.944-1.010-0.862-2.194-1.022-3.455-0.769-0.311 0.062-0.677 0.131-0.895 0.331-0.75 0.686-1.345 1.501-1.701 2.468-0.065 0.178-0.112 0.364-0.166 0.546zM21.997 15.098c-0.029-0.031-0.057-0.061-0.086-0.092-0.091 0.023-0.184 0.044-0.274 0.069-0.973 0.267-1.961 0.5-2.972 0.449-0.872-0.044-1.747-0.163-2.605-0.326-1.484-0.282-2.859-0.9-4.25-1.471-0.44-0.181-0.917-0.336-1.386-0.368-0.627-0.043-0.972 0.592-0.674 1.134 0.701 1.274 1.696 2.253 2.982 2.932 0.103 0.054 0.221 0.080 0.391 0.14-0.034-0.169-0.049-0.264-0.072-0.356-0.17-0.676 0.106-0.96 0.799-0.817 0.097 0.020 0.193 0.039 0.289 0.065 1.668 0.43 3.353 0.632 5.071 0.373 0.909-0.137 1.797-0.314 2.366-1.151 0.134-0.198 0.28-0.388 0.421-0.581zM14.023 4.189c0.005 0.041 0.010 0.082 0.015 0.123 0.072 0.012 0.144 0.032 0.216 0.035 0.375 0.021 0.749 0.034 1.123 0.057 1.369 0.083 2.577 0.575 3.506 1.583 0.721 0.782 1.327 1.669 2.007 2.49 0.3 0.363 0.631 0.709 0.989 1.015 0.27 0.23 0.594 0.197 0.822 0.011 0.249-0.203 0.289-0.396 0.162-0.773-0.449-1.331-1.235-2.435-2.343-3.284-1.607-1.233-3.429-1.754-5.451-1.485-0.352 0.046-0.698 0.151-1.046 0.228z"></path>
</svg>
