<!-- Generated by IcoMoon.io -->
<svg version="1.1" xmlns="http://www.w3.org/2000/svg" width="32" height="32" viewBox="0 0 32 32">
<title>landmark</title>
<path d="M31.505 5.318l-14.721-5.657c-0.21-0.081-0.452-0.128-0.706-0.128s-0.496 0.047-0.719 0.133l0.014-0.005-14.721 5.657c-0.384 0.147-0.652 0.513-0.652 0.941v0 2.318c0 0.555 0.45 1.005 1.005 1.005h30.147c0.555 0 1.005-0.45 1.005-1.005v-2.318c0-0.419-0.26-0.794-0.652-0.941zM4.020 11.592v10.049h-1.005c-0.555 0-1.005 0.45-1.005 1.005v3.015h28.137v-3.015c0-0.555-0.45-1.005-1.005-1.005h-1.005v-10.049h-4.020v10.049h-6.029v-10.049h-4.020v10.049h-6.029v-10.049h-4.020zM31.152 27.67h-30.147c-0.555 0-1.005 0.45-1.005 1.005v2.010c0 0.555 0.45 1.005 1.005 1.005h30.147c0.555 0 1.005-0.45 1.005-1.005v-2.010c0-0.555-0.45-1.005-1.005-1.005z"></path>
</svg>
