<!-- Generated by IcoMoon.io -->
<svg version="1.1" xmlns="http://www.w3.org/2000/svg" width="40" height="32" viewBox="0 0 40 32">
<title>language</title>
<path d="M19.093 25.66h-17.586c-0.833 0-1.507-0.675-1.507-1.507v-17.083c0-0.832 0.675-1.507 1.507-1.507h17.586v20.098zM11.514 21.099c0.095 0.316 0.383 0.542 0.723 0.542 0 0 0 0 0 0h1.436c0.516 0 0.88-0.507 0.714-0.996l-3.608-10.618c-0.104-0.3-0.384-0.511-0.714-0.511 0 0 0 0 0 0h-2.041c-0.329 0-0.609 0.211-0.712 0.506l-0.002 0.005-3.609 10.618c-0.166 0.489 0.197 0.996 0.714 0.996h1.432c0.342 0 0.631-0.228 0.723-0.541l0.001-0.005 0.573-1.998h3.782l0.587 2.002zM9.061 12.28s0.271 1.323 0.492 2.086l0.678 2.357h-2.391l0.695-2.357c0.22-0.763 0.492-2.086 0.492-2.086h0.034zM38.689 25.66h-17.586v-20.098h17.586c0.833 0 1.507 0.675 1.507 1.507v17.083c0 0.832-0.675 1.507-1.507 1.507zM36.428 11.341h-4.020v-1.005c0-0.416-0.338-0.754-0.754-0.754h-1.005c-0.416 0-0.754 0.338-0.754 0.754v1.005h-4.020c-0.416 0-0.754 0.338-0.754 0.754v1.005c0 0.416 0.338 0.754 0.754 0.754h7.167c-0.393 0.898-1.037 1.82-1.886 2.714-0.412-0.433-0.779-0.874-1.091-1.315-0.229-0.323-0.665-0.419-1.005-0.216l-0.865 0.517c-0.374 0.223-0.483 0.717-0.235 1.075 0.381 0.548 0.823 1.089 1.318 1.616-0.51 0.391-1.058 0.769-1.639 1.128-0.347 0.214-0.463 0.663-0.261 1.017l0.499 0.873c0.211 0.37 0.687 0.491 1.049 0.268 0.8-0.492 1.543-1.016 2.226-1.563 0.686 0.55 1.43 1.074 2.223 1.563 0.363 0.223 0.839 0.102 1.050-0.268l0.499-0.873c0.202-0.353 0.086-0.801-0.26-1.016-0.634-0.394-1.168-0.767-1.682-1.165l0.045 0.033c1.32-1.408 2.246-2.907 2.683-4.387h0.716c0.416 0 0.754-0.338 0.754-0.754v-1.005c0-0.416-0.338-0.754-0.754-0.754z"></path>
</svg>
