<!-- Generated by IcoMoon.io -->
<svg version="1.1" xmlns="http://www.w3.org/2000/svg" width="40" height="32" viewBox="0 0 40 32">
<title>laptop-code</title>
<path d="M16.017 15.966c0.392 0.392 1.029 0.392 1.421 0l0.71-0.71c0.392-0.393 0.392-1.029 0-1.421l-2.243-2.243 2.243-2.243c0.392-0.393 0.392-1.029 0-1.421l-0.71-0.71c-0.392-0.393-1.029-0.393-1.421 0l-3.664 3.664c-0.393 0.393-0.393 1.029 0 1.421l3.665 3.664zM22.047 15.257l0.71 0.71c0.392 0.393 1.029 0.393 1.421 0l3.664-3.664c0.392-0.393 0.392-1.029 0-1.421l-3.664-3.664c-0.392-0.393-1.029-0.393-1.421 0l-0.71 0.71c-0.392 0.393-0.392 1.029 0 1.421l2.243 2.243-2.243 2.243c-0.392 0.393-0.392 1.029 0 1.421zM39.191 25.66h-15.228c-0.046 1.244-0.924 2.010-2.056 2.010h-3.819c-1.174 0-2.074-1.097-2.058-2.010h-15.025c-0.553 0-1.005 0.452-1.005 1.005v1.005c0 2.211 1.809 4.020 4.020 4.020h32.157c2.211 0 4.020-1.809 4.020-4.020v-1.005c0-0.553-0.452-1.005-1.005-1.005zM36.176 2.548c0-1.658-1.357-3.015-3.015-3.015h-26.127c-1.658 0-3.015 1.357-3.015 3.015v21.103h32.157v-21.103zM32.157 19.631h-24.118v-16.078h24.118v16.078z"></path>
</svg>
