<!-- Generated by IcoMoon.io -->
<svg version="1.1" xmlns="http://www.w3.org/2000/svg" width="40" height="32" viewBox="0 0 40 32">
<title>laravel</title>
<path d="M40.039 14.707c-0.264-0.301-3.944-4.905-4.591-5.684s-0.967-0.641-1.363-0.584c-0.402 0.057-5.056 0.842-5.596 0.93-0.54 0.094-0.879 0.308-0.546 0.772 0.295 0.415 3.354 4.754 4.032 5.709l-12.166 2.914-9.685-16.173c-0.383-0.572-0.465-0.772-1.344-0.729-0.879 0.038-7.593 0.597-8.071 0.641-0.477 0.038-1.005 0.251-0.527 1.382s8.102 17.561 8.316 18.038c0.214 0.477 0.766 1.256 2.060 0.942 1.325-0.32 5.923-1.52 8.435-2.179 1.325 2.405 4.032 7.279 4.535 7.976 0.666 0.936 1.13 0.779 2.154 0.465 0.804-0.245 12.536-4.465 13.064-4.679 0.528-0.22 0.854-0.371 0.496-0.904-0.264-0.389-3.36-4.535-4.98-6.708 1.112-0.295 5.062-1.344 5.483-1.463 0.496-0.126 0.565-0.364 0.295-0.666zM17.919 19.229c-0.145 0.031-6.959 1.664-7.323 1.746s-0.364 0.044-0.408-0.082c-0.044-0.126-8.102-16.75-8.215-16.958s-0.107-0.371 0-0.371 6.438-0.565 6.657-0.578c0.226-0.013 0.201 0.038 0.283 0.176 0 0 8.931 15.413 9.082 15.683 0.163 0.27 0.069 0.352-0.075 0.383zM37.137 22.834c0.107 0.17 0.22 0.283-0.126 0.402-0.339 0.126-11.537 3.9-11.751 3.994-0.22 0.094-0.389 0.126-0.666-0.283s-3.919-6.708-3.919-6.708l11.858-3.084c0.295-0.094 0.389-0.157 0.578 0.138 0.182 0.301 3.919 5.37 4.026 5.54zM37.897 14.412c-0.264 0.057-4.623 1.137-4.623 1.137l-3.561-4.886c-0.1-0.145-0.182-0.283 0.069-0.314s4.296-0.766 4.478-0.804c0.182-0.044 0.339-0.094 0.565 0.214s3.304 4.208 3.423 4.359c0.113 0.145-0.088 0.232-0.352 0.295z"></path>
</svg>
