<!-- Generated by IcoMoon.io -->
<svg version="1.1" xmlns="http://www.w3.org/2000/svg" width="32" height="32" viewBox="0 0 32 32">
<title>lastfm</title>
<path d="M14.182 22.589l-1.181-3.203s-1.916 2.135-4.786 2.135c-2.544 0-4.346-2.211-4.346-5.747 0-4.528 2.286-6.149 4.528-6.149 4.177 0 4.698 3.348 6.337 8.473 1.181 3.574 3.392 6.444 9.76 6.444 4.566 0 7.662-1.401 7.662-5.081 0-4.579-3.938-5.062-7.223-5.784-1.62-0.371-2.098-1.030-2.098-2.135 0-1.25 0.992-1.991 2.613-1.991 1.771 0 2.726 0.666 2.87 2.248l3.68-0.44c-0.295-3.316-2.581-4.679-6.337-4.679-3.316 0-6.557 1.25-6.557 5.269 0 2.506 1.218 4.089 4.271 4.823 2.82 0.666 5.012 0.867 5.012 2.87 0 1.363-1.325 1.916-3.831 1.916-3.718 0-5.269-1.953-6.149-4.641-2.010-6.080-2.738-10.237-10.131-10.237-5.408 0-8.278 3.423-8.278 9.245 0 5.596 2.87 8.617 8.033 8.617 4.158 0 6.149-1.953 6.149-1.953z"></path>
</svg>
