<!-- Generated by IcoMoon.io -->
<svg version="1.1" xmlns="http://www.w3.org/2000/svg" width="31" height="32" viewBox="0 0 31 32">
<title>laugh-squint</title>
<path d="M15.576 0.035c-8.604 0-15.576 6.971-15.576 15.576s6.971 15.576 15.576 15.576 15.576-6.971 15.576-15.576-6.971-15.576-15.576-15.576zM24.457 24.492c-2.374 2.374-5.527 3.68-8.881 3.68s-6.507-1.306-8.881-3.68-3.68-5.527-3.68-8.881 1.306-6.507 3.68-8.881 5.527-3.68 8.881-3.68 6.507 1.306 8.881 3.68 3.68 5.527 3.68 8.881-1.306 6.507-3.68 8.881zM21.58 11.843l2.11-2.531c0.54-0.647-0.239-1.558-0.967-1.13l-5.024 3.015c-0.49 0.295-0.49 0.999 0 1.294l5.024 3.015c0.722 0.427 1.507-0.477 0.967-1.13l-2.11-2.531zM8.429 15.505l5.024-3.015c0.49-0.295 0.49-0.999 0-1.294l-5.024-3.015c-0.729-0.433-1.507 0.484-0.967 1.13l2.11 2.531-2.11 2.531c-0.546 0.653 0.239 1.558 0.967 1.13zM22.761 17.621h-14.37c-0.515 0-0.911 0.44-0.848 0.942 0.471 3.718 3.699 6.595 7.606 6.595h0.854c3.907 0 7.135-2.877 7.606-6.595 0.063-0.503-0.333-0.942-0.848-0.942z"></path>
</svg>
