<!-- Generated by IcoMoon.io -->
<svg version="1.1" xmlns="http://www.w3.org/2000/svg" width="31" height="32" viewBox="0 0 31 32">
<title>laugh</title>
<path d="M15.576 0.035c-8.604 0-15.576 6.971-15.576 15.576s6.971 15.576 15.576 15.576 15.576-6.971 15.576-15.576-6.971-15.576-15.576-15.576zM24.457 24.492c-2.374 2.374-5.527 3.68-8.881 3.68s-6.507-1.306-8.881-3.68-3.68-5.527-3.68-8.881 1.306-6.507 3.68-8.881 5.527-3.68 8.881-3.68 6.507 1.306 8.881 3.68 3.68 5.527 3.68 8.881-1.306 6.507-3.68 8.881zM20.6 13.602c1.112 0 2.010-0.898 2.010-2.010s-0.898-2.010-2.010-2.010-2.010 0.898-2.010 2.010 0.898 2.010 2.010 2.010zM10.551 13.602c1.112 0 2.010-0.898 2.010-2.010s-0.898-2.010-2.010-2.010-2.010 0.898-2.010 2.010 0.898 2.010 2.010 2.010zM22.761 17.621h-14.37c-0.515 0-0.911 0.44-0.848 0.942 0.471 3.718 3.699 6.595 7.606 6.595h0.854c3.907 0 7.135-2.877 7.606-6.595 0.063-0.503-0.333-0.942-0.848-0.942z"></path>
</svg>
