<!-- Generated by IcoMoon.io -->
<svg version="1.1" xmlns="http://www.w3.org/2000/svg" width="31" height="32" viewBox="0 0 31 32">
<title>laugh1</title>
<path d="M15.576 0.035c-8.604 0-15.576 6.971-15.576 15.576s6.971 15.576 15.576 15.576 15.576-6.971 15.576-15.576-6.971-15.576-15.576-15.576zM20.6 9.582c1.112 0 2.010 0.898 2.010 2.010s-0.898 2.010-2.010 2.010-2.010-0.898-2.010-2.010 0.898-2.010 2.010-2.010zM10.551 9.582c1.112 0 2.010 0.898 2.010 2.010s-0.898 2.010-2.010 2.010-2.010-0.898-2.010-2.010 0.898-2.010 2.010-2.010zM16.078 26.665h-1.005c-4.61 0-8.416-3.454-8.975-7.914-0.075-0.597 0.396-1.13 0.999-1.13h16.958c0.603 0 1.074 0.527 0.999 1.13-0.559 4.459-4.365 7.914-8.975 7.914z"></path>
</svg>
