<!-- Generated by IcoMoon.io -->
<svg version="1.1" xmlns="http://www.w3.org/2000/svg" width="31" height="32" viewBox="0 0 31 32">
<title>laugh-wink1</title>
<path d="M15.576 0.035c-8.604 0-15.576 6.971-15.576 15.576s6.971 15.576 15.576 15.576 15.576-6.971 15.576-15.576-6.971-15.576-15.576-15.576zM16.838 12.477c0.251-1.583 2.148-2.644 3.762-2.644s3.511 1.061 3.762 2.644c0.107 0.697-0.716 1.149-1.244 0.678l-0.597-0.534c-0.93-0.829-2.902-0.829-3.831 0l-0.603 0.54c-0.527 0.465-1.357 0.019-1.25-0.685zM10.551 9.582c1.112 0 2.010 0.898 2.010 2.010s-0.898 2.010-2.010 2.010-2.010-0.898-2.010-2.010 0.898-2.010 2.010-2.010zM25.053 18.752c-0.559 4.459-4.365 7.914-8.975 7.914h-1.005c-4.61 0-8.416-3.454-8.975-7.914-0.075-0.597 0.396-1.13 0.999-1.13h16.958c0.603 0 1.074 0.527 0.999 1.13z"></path>
</svg>
