<!-- Generated by IcoMoon.io -->
<svg version="1.1" xmlns="http://www.w3.org/2000/svg" width="31" height="32" viewBox="0 0 31 32">
<title>laugh-beam1</title>
<path d="M15.576 0.035c-8.604 0-15.576 6.971-15.576 15.576s6.971 15.576 15.576 15.576 15.576-6.971 15.576-15.576-6.971-15.576-15.576-15.576zM17.083 12.559c0.207-2.644 2.022-4.484 3.517-4.484s3.31 1.84 3.517 4.484c0.044 0.54-0.678 0.747-0.936 0.283l-0.597-1.068c-0.484-0.86-1.206-1.357-1.978-1.357s-1.495 0.496-1.978 1.357l-0.597 1.068c-0.264 0.465-0.992 0.258-0.948-0.283zM7.034 12.559c0.207-2.644 2.022-4.484 3.517-4.484s3.31 1.84 3.517 4.484c0.044 0.54-0.678 0.747-0.936 0.283l-0.597-1.068c-0.484-0.86-1.206-1.357-1.978-1.357s-1.495 0.496-1.978 1.357l-0.597 1.068c-0.27 0.465-0.992 0.251-0.948-0.283zM25.053 18.752c-0.559 4.459-4.365 7.914-8.975 7.914h-1.005c-4.61 0-8.416-3.454-8.975-7.914-0.075-0.597 0.396-1.13 0.999-1.13h16.958c0.603 0 1.074 0.527 0.999 1.13z"></path>
</svg>
