<!-- Generated by IcoMoon.io -->
<svg version="1.1" xmlns="http://www.w3.org/2000/svg" width="31" height="32" viewBox="0 0 31 32">
<title>laugh-wink</title>
<path d="M15.576 0.035c-8.604 0-15.576 6.971-15.576 15.576s6.971 15.576 15.576 15.576 15.576-6.971 15.576-15.576-6.971-15.576-15.576-15.576zM24.457 24.492c-2.374 2.374-5.527 3.68-8.881 3.68s-6.507-1.306-8.881-3.68c-2.374-2.374-3.68-5.527-3.68-8.881s1.306-6.507 3.68-8.881c2.374-2.374 5.527-3.68 8.881-3.68s6.507 1.306 8.881 3.68c2.374 2.374 3.68 5.527 3.68 8.881s-1.306 6.507-3.68 8.881zM20.6 9.833c-1.614 0-3.511 1.061-3.762 2.644-0.107 0.703 0.722 1.143 1.244 0.678l0.597-0.534c0.93-0.829 2.902-0.829 3.831 0l0.597 0.534c0.534 0.465 1.357 0.019 1.244-0.678-0.239-1.583-2.135-2.644-3.75-2.644zM10.551 13.602c1.112 0 2.010-0.898 2.010-2.010s-0.898-2.010-2.010-2.010-2.010 0.898-2.010 2.010 0.898 2.010 2.010 2.010zM22.761 17.621h-14.37c-0.515 0-0.911 0.44-0.848 0.942 0.471 3.718 3.699 6.595 7.606 6.595h0.854c3.907 0 7.135-2.877 7.606-6.595 0.063-0.503-0.333-0.942-0.848-0.942z"></path>
</svg>
