<!-- Generated by IcoMoon.io -->
<svg version="1.1" xmlns="http://www.w3.org/2000/svg" width="31" height="32" viewBox="0 0 31 32">
<title>laugh-beam</title>
<path d="M15.576 0.035c-8.604 0-15.576 6.971-15.576 15.576s6.971 15.576 15.576 15.576 15.576-6.971 15.576-15.576-6.971-15.576-15.576-15.576zM24.457 24.492c-2.374 2.374-5.527 3.68-8.881 3.68s-6.507-1.306-8.881-3.68-3.68-5.527-3.68-8.881 1.306-6.507 3.68-8.881 5.527-3.68 8.881-3.68 6.507 1.306 8.881 3.68 3.68 5.527 3.68 8.881-1.306 6.507-3.68 8.881zM20.6 9.080c-1.495 0-3.31 1.84-3.517 4.484-0.044 0.54 0.678 0.747 0.936 0.283l0.597-1.068c0.484-0.86 1.206-1.357 1.978-1.357s1.495 0.496 1.978 1.357l0.597 1.068c0.258 0.465 0.98 0.251 0.936-0.283-0.195-2.644-2.010-4.484-3.505-4.484zM7.976 13.847l0.597-1.068c0.484-0.86 1.206-1.357 1.978-1.357s1.495 0.496 1.978 1.357l0.597 1.068c0.258 0.465 0.98 0.251 0.936-0.283-0.207-2.644-2.022-4.484-3.517-4.484s-3.31 1.84-3.517 4.484c-0.038 0.534 0.685 0.747 0.948 0.283zM22.761 17.621h-14.37c-0.515 0-0.911 0.44-0.848 0.942 0.471 3.718 3.699 6.595 7.606 6.595h0.854c3.907 0 7.135-2.877 7.606-6.595 0.063-0.503-0.333-0.942-0.848-0.942z"></path>
</svg>
