<!-- Generated by IcoMoon.io -->
<svg version="1.1" xmlns="http://www.w3.org/2000/svg" width="31" height="32" viewBox="0 0 31 32">
<title>laugh-squint1</title>
<path d="M15.576 0.035c-8.604 0-15.576 6.971-15.576 15.576s6.971 15.576 15.576 15.576 15.576-6.971 15.576-15.576-6.971-15.576-15.576-15.576zM17.699 10.191l5.024-3.015c0.729-0.433 1.507 0.484 0.967 1.13l-2.11 2.531 2.11 2.531c0.546 0.653-0.245 1.558-0.967 1.13l-5.024-3.015c-0.484-0.295-0.484-0.999 0-1.294zM7.461 8.307c-0.54-0.647 0.239-1.564 0.967-1.13l5.024 3.015c0.49 0.295 0.49 0.999 0 1.294l-5.024 3.015c-0.722 0.427-1.507-0.477-0.967-1.13l2.11-2.531-2.11-2.531zM25.053 18.752c-0.559 4.459-4.365 7.914-8.975 7.914h-1.005c-4.61 0-8.416-3.454-8.975-7.914-0.075-0.597 0.396-1.13 0.999-1.13h16.958c0.603 0 1.074 0.527 0.999 1.13z"></path>
</svg>
