<!-- Generated by IcoMoon.io -->
<svg version="1.1" xmlns="http://www.w3.org/2000/svg" width="32" height="32" viewBox="0 0 32 32">
<title>layer-group</title>
<path d="M0.779 8.83l14.63 6.637c0.427 0.194 0.91 0.194 1.337 0l14.63-6.637c1.039-0.472 1.039-2.043 0-2.514l-14.629-6.637c-0.196-0.092-0.426-0.146-0.669-0.146s-0.472 0.054-0.678 0.15l0.010-0.004-14.631 6.637c-1.039 0.472-1.039 2.043 0 2.515zM31.377 14.374l-3.648-1.654-10.152 4.602c-0.475 0.215-0.979 0.325-1.499 0.325s-1.023-0.109-1.499-0.325l-10.151-4.602-3.649 1.654c-1.039 0.471-1.039 2.041 0 2.512l14.63 6.632c0.427 0.193 0.91 0.193 1.337 0l14.631-6.632c1.039-0.471 1.039-2.041 0-2.512zM31.377 22.401l-3.635-1.647-10.166 4.608c-0.475 0.215-0.979 0.325-1.499 0.325s-1.023-0.109-1.499-0.325l-10.165-4.608-3.635 1.647c-1.039 0.471-1.039 2.041 0 2.512l14.63 6.632c0.427 0.193 0.91 0.193 1.337 0l14.631-6.632c1.039-0.471 1.039-2.041 0-2.512z"></path>
</svg>
