<!-- Generated by IcoMoon.io -->
<svg version="1.1" xmlns="http://www.w3.org/2000/svg" width="36" height="32" viewBox="0 0 36 32">
<title>leaf</title>
<path d="M34.305 0.142c-0.352-0.785-1.357-0.816-1.777-0.075-1.947 3.385-5.433 5.496-9.415 5.496h-5.024c-6.657 0-12.059 5.401-12.059 12.059 0 0.44 0.050 0.86 0.094 1.288 4.007-2.87 9.791-5.307 17.994-5.307 0.553 0 1.005 0.452 1.005 1.005s-0.452 1.005-1.005 1.005c-15.789 0-22.485 9.678-23.967 13.315-0.415 1.024 0.075 2.192 1.099 2.613 1.030 0.427 2.198-0.069 2.625-1.087 0.094-0.226 1.313-3.008 4.516-5.69 2.035 2.757 5.904 5.389 10.985 4.849 9.861-0.716 16.801-9.559 16.801-20.387 0-3.153-0.678-6.419-1.872-9.082z"></path>
</svg>
