<!-- Generated by IcoMoon.io -->
<svg version="1.1" xmlns="http://www.w3.org/2000/svg" width="36" height="32" viewBox="0 0 36 32">
<title>leanpub</title>
<path d="M24.277 6.535l0.948 15.636-0.69-0.017c-2.276-0.052-4.499 0.552-6.447 1.758-1.948-1.207-4.172-1.758-6.447-1.758-2.862 0-5.154 0.672-7.758 1.741l1.965-16.222c1.793-0.741 3.862-1.138 5.792-1.138 2.586 0 4.637 0.827 6.447 2.672 1.741-1.776 3.706-2.62 6.189-2.672zM35.741 27.67c-1.603 0-2.982-0.328-4.43-0.983-2.155-0.983-4.396-1.569-6.775-1.569-2.448 0-4.706 0.81-6.447 2.551-1.741-1.741-3.999-2.551-6.447-2.551-2.379 0-4.62 0.586-6.775 1.569-1.396 0.621-2.81 0.983-4.344 0.983h-0.086l2.672-21.928c2.465-1.396 5.465-2.189 8.309-2.189 2.327 0 4.724 0.483 6.672 1.827 1.948-1.345 4.344-1.827 6.672-1.827 2.844 0 5.844 0.793 8.309 2.189l2.672 21.928zM33.017 24.86l-2.138-17.601c-1.931-0.879-4.224-1.345-6.344-1.345-2.413 0-4.672 0.759-6.447 2.431-1.776-1.672-4.034-2.431-6.447-2.431-2.12 0-4.413 0.466-6.344 1.345l-2.138 17.601c2.965-1.224 5.206-2.103 8.482-2.103 2.362 0 4.448 0.603 6.447 1.862 2-1.258 4.086-1.862 6.447-1.862 3.275 0 5.517 0.879 8.482 2.103z"></path>
</svg>
