<!-- Generated by IcoMoon.io -->
<svg version="1.1" xmlns="http://www.w3.org/2000/svg" width="32" height="32" viewBox="0 0 32 32">
<title>lemon</title>
<path d="M30.405 1.285c-1.766-1.766-4.271-2.258-6.096-1.195-2.478 1.443-10.272-3.139-18.582 5.171-8.32 8.32-3.723 16.096-5.171 18.582-1.063 1.825-0.572 4.329 1.195 6.096s4.271 2.257 6.096 1.195c2.476-1.443 10.272 3.138 18.582-5.171 8.32-8.32 3.723-16.096 5.171-18.582 1.063-1.825 0.572-4.329-1.195-6.096zM28.998 5.863c-2.437 4.183 2.864 10.403-4.701 17.968s-13.784 2.264-17.967 4.701c-1.424 0.829-4.022-1.711-3.171-3.171 2.437-4.183-2.864-10.403 4.701-17.968s13.785-2.264 17.968-4.701c1.428-0.832 4.020 1.714 3.171 3.171zM18.33 6.411c0.086 0.688-0.402 1.316-1.091 1.402-3.445 0.43-8.528 5.514-8.958 8.958-0.086 0.69-0.716 1.177-1.402 1.091-0.688-0.086-1.177-0.714-1.091-1.402 0.575-4.603 6.542-10.565 11.14-11.14 0.688-0.086 1.316 0.402 1.402 1.091z"></path>
</svg>
