<!-- Generated by IcoMoon.io -->
<svg version="1.1" xmlns="http://www.w3.org/2000/svg" width="32" height="32" viewBox="0 0 32 32">
<title>lemon1</title>
<path d="M30.715 0.975c-1.45-1.45-3.416-1.815-4.716-1.057-3.7 2.155-11.384-3.334-20.165 5.448s-3.293 16.466-5.448 20.165c-0.757 1.3-0.393 3.266 1.057 4.716s3.416 1.815 4.716 1.057c3.699-2.155 11.383 3.334 20.165-5.448s3.293-16.466 5.448-20.165c0.757-1.3 0.393-3.266-1.057-4.716zM15.317 5.532c-3.655 0.914-8.404 5.662-9.318 9.318-0.114 0.457-0.524 0.761-0.974 0.761-0.081 0-0.163-0.010-0.245-0.030-0.538-0.135-0.866-0.68-0.731-1.219 1.094-4.377 6.396-9.684 10.78-10.78 0.539-0.135 1.084 0.193 1.219 0.731s-0.193 1.084-0.731 1.219z"></path>
</svg>
