<!-- Generated by IcoMoon.io -->
<svg version="1.1" xmlns="http://www.w3.org/2000/svg" width="28" height="32" viewBox="0 0 28 32">
<title>less-than-equal</title>
<path d="M3.453 12.986l18.93 7.529c1.155 0.379 2.431-0.16 2.85-1.203l0.759-1.889c0.42-1.043-0.177-2.196-1.332-2.575l-11.019-4.274 11.026-4.276c1.149-0.377 1.742-1.524 1.325-2.562l-0.756-1.879c-0.417-1.038-1.687-1.574-2.836-1.197l-18.949 7.534c-0.865 0.284-1.443 1.043-1.443 1.895v1.002c0 0.852 0.578 1.611 1.443 1.895zM26.63 24.655h-25.122c-0.832 0-1.507 0.675-1.507 1.507v3.015c0 0.832 0.675 1.507 1.507 1.507h25.122c0.832 0 1.507-0.675 1.507-1.507v-3.015c0-0.833-0.675-1.507-1.507-1.507z"></path>
</svg>
