<!-- Generated by IcoMoon.io -->
<svg version="1.1" xmlns="http://www.w3.org/2000/svg" width="40" height="32" viewBox="0 0 40 32">
<title>less</title>
<path d="M38.481 13.288c0-1.287 0.201-2.047 0.201-3.429 0-2.148-0.791-2.839-2.544-2.839h-1.288v1.52h0.396c0.892 0 1.087 0.295 1.087 1.388 0 1.024-0.1 2.047-0.1 3.235 0 1.52 0.496 2.11 1.482 2.343v0.1c-0.992 0.232-1.482 0.823-1.482 2.343 0 1.187 0.1 2.148 0.1 3.235 0 1.124-0.232 1.419-1.087 1.419v0.031h-0.396v1.583h1.288c1.746 0 2.544-0.691 2.544-2.839 0-1.419-0.201-2.148-0.201-3.429 0-0.691 0.427-1.419 1.715-1.482v-1.715c-1.288-0.044-1.715-0.772-1.715-1.463zM31.849 15.297c-0.992-0.396-1.916-0.628-1.916-1.287 0-0.496 0.396-0.791 1.124-0.791s1.388 0.295 2.11 0.823l1.319-1.746c-0.823-0.628-1.947-1.287-3.467-1.287-2.242 0-3.762 1.287-3.762 3.103 0 1.614 1.419 2.443 2.606 2.902 1.024 0.396 2.016 0.729 2.016 1.388 0 0.496-0.396 0.823-1.288 0.823-0.823 0-1.652-0.333-2.544-1.024l-1.319 1.916c0.992 0.823 2.506 1.388 3.762 1.388 2.638 0 4.057-1.388 4.057-3.203s-1.413-2.575-2.701-3.002zM9.308 19.028c-0.232 0-0.527-0.201-0.527-0.823v-11.192h-4.685c-1.784 0-2.575 0.691-2.575 2.839 0 1.419 0.201 2.211 0.201 3.429 0 0.691-0.427 1.419-1.715 1.482v1.715c1.288 0.031 1.715 0.76 1.715 1.451 0 1.218-0.201 1.947-0.201 3.366 0 2.148 0.791 2.839 2.544 2.839h1.287v-1.52h-0.396c-0.823 0-1.087-0.333-1.087-1.419s0.1-2.016 0.1-3.235c0-1.52-0.496-2.11-1.482-2.343v-0.1c0.992-0.232 1.482-0.823 1.482-2.343 0-1.187-0.1-2.148-0.1-3.235s0.232-1.388 1.087-1.388h0.886v9.471c0 2.016 0.691 3.335 2.707 3.335 0.628 0 1.124-0.1 1.482-0.232l-0.333-2.148c-0.195 0.050-0.289 0.050-0.389 0.050zM23.86 15.297c-1.024-0.396-1.947-0.628-1.947-1.287 0-0.496 0.396-0.791 1.124-0.791s1.388 0.295 2.11 0.823l1.319-1.746c-0.823-0.628-1.947-1.287-3.467-1.287-2.242 0-3.762 1.287-3.762 3.103 0 1.614 1.419 2.443 2.606 2.902 1.024 0.396 2.016 0.729 2.016 1.388 0 0.496-0.396 0.823-1.288 0.823-0.823 0-1.652-0.333-2.544-1.024l-1.288 1.916c0.992 0.823 2.506 1.388 3.762 1.388 2.638 0 4.057-1.388 4.057-3.203 0.006-1.815-1.413-2.575-2.701-3.002zM14.125 10.976c-2.412 0-4.717 2.016-4.654 5.181 0 3.266 2.148 5.181 4.98 5.181 1.187 0 2.506-0.427 3.53-1.124l-0.992-1.746c-0.729 0.427-1.419 0.628-2.148 0.628-1.319 0-2.343-0.628-2.606-2.148h5.979c0.031-0.232 0.1-0.691 0.1-1.218 0.038-2.676-1.419-4.754-4.189-4.754zM12.241 15.134c0.201-1.319 0.992-1.947 1.916-1.947 1.187 0 1.652 0.823 1.652 1.947h-3.567z"></path>
</svg>
