<!-- Generated by IcoMoon.io -->
<svg version="1.1" xmlns="http://www.w3.org/2000/svg" width="32" height="32" viewBox="0 0 32 32">
<title>licence-plate</title>
<path d="M1.282 6.228c-0.701 0-1.282 0.582-1.282 1.282v16.673c0 0.701 0.582 1.282 1.282 1.282h29.498c0.701 0 1.282-0.582 1.282-1.282v-16.673c0-0.701-0.582-1.282-1.282-1.282h-29.498zM1.282 7.51h29.498v16.673h-29.498v-16.673zM5.13 8.793c-0.354 0-0.641 0.287-0.641 0.641v0c0 0.354 0.287 0.641 0.641 0.641v0c0.354 0 0.641-0.287 0.641-0.641v0c0-0.354-0.287-0.641-0.641-0.641v0zM26.933 8.793c-0.354 0-0.641 0.287-0.641 0.641v0c0 0.354 0.287 0.641 0.641 0.641v0c0.354 0 0.641-0.287 0.641-0.641v0c0-0.354-0.287-0.641-0.641-0.641v0zM8.487 12.64c-0.548 0-1.048 0.038-1.433 0.123v6.223c0.289 0.038 0.693 0.066 1.174 0.066 1.087 0 1.741-0.225 2.125-0.639 0.308-0.31 0.481-0.715 0.481-1.241 0-0.696-0.403-1.307-1.153-1.514v-0.038c0.644-0.273 0.942-0.818 0.942-1.383 0-0.442-0.143-0.865-0.49-1.147-0.452-0.376-1.040-0.451-1.646-0.451zM14.159 12.64c-1.26 0-2.616 0.926-2.616 3.3 0 1.785 0.789 3.112 2.444 3.112 0.442 0 0.798-0.065 0.981-0.149l-0.125-1.031c-0.154 0.047-0.395 0.094-0.606 0.094-0.77 0-1.355-0.588-1.355-2.093 0-1.561 0.643-2.159 1.355-2.159 0.279 0 0.443 0.056 0.587 0.121l0.212-1.028c-0.125-0.084-0.433-0.168-0.875-0.168zM23.743 12.64c-0.571 0-1.114 0.205-1.404 0.391l0.223 0.993c0.233-0.146 0.551-0.322 0.948-0.322 0.523 0 0.804 0.361 0.804 0.868 0 0.906-0.669 1.774-1.482 2.817l-0.629 0.808v0.858h3.447v-1.121h-1.927v-0.019l0.378-0.448c0.727-0.848 1.462-1.803 1.462-2.992 0-0.906-0.445-1.832-1.82-1.832zM28.032 12.64c-0.519 0-1.029 0.165-1.289 0.328l0.164 0.952c0.231-0.144 0.509-0.249 0.788-0.249 0.442 0 0.731 0.269 0.731 0.721 0 0.607-0.597 0.799-1.058 0.809h-0.125v0.924h0.174c0.644 0 1.174 0.299 1.174 0.992 0 0.529-0.337 0.904-0.943 0.904-0.337 0-0.683-0.096-0.933-0.241l-0.183 0.992c0.279 0.154 0.721 0.278 1.231 0.278 1.356 0 2.088-0.933 2.088-1.886 0-0.847-0.462-1.387-1.068-1.589v-0.019c0.548-0.26 0.894-0.779 0.894-1.405 0-0.799-0.548-1.512-1.644-1.512zM20.044 12.721l-1.448 0.75 0.213 1.003 1.070-0.555h0.019v5.134h1.264v-6.332h-1.117zM3.402 12.751l-1.404 6.3h1.221l0.288-1.439h1.165l0.279 1.439h1.221l-1.26-6.3h-1.51zM8.641 13.561c0.519 0 0.741 0.359 0.741 0.819 0 0.517-0.347 0.893-0.799 0.893h-0.269v-1.675c0.077-0.028 0.192-0.038 0.327-0.038zM4.103 13.909h0.029c0.058 0.421 0.145 1.048 0.212 1.432l0.212 1.318h-0.923l0.24-1.309c0.067-0.364 0.164-1.020 0.23-1.44zM15.39 15.205v1.282h2.565v-1.283h-2.565zM8.314 16.185h0.269c0.5 0.009 0.943 0.338 0.943 0.968 0 0.649-0.423 0.949-0.933 0.949-0.115 0-0.202-0-0.279-0.019v-1.899zM5.13 21.618c-0.354 0-0.641 0.287-0.641 0.641v0c0 0.354 0.287 0.641 0.641 0.641v0c0.354 0 0.641-0.287 0.641-0.641v0c0-0.354-0.287-0.641-0.641-0.641v0zM26.933 21.618c-0.354 0-0.641 0.287-0.641 0.641v0c0 0.354 0.287 0.641 0.641 0.641v0c0.354 0 0.641-0.287 0.641-0.641v0c0-0.354-0.287-0.641-0.641-0.641v0z"></path>
</svg>
