<!-- Generated by IcoMoon.io -->
<svg version="1.1" xmlns="http://www.w3.org/2000/svg" width="32" height="32" viewBox="0 0 32 32">
<title>license-plate</title>
<path d="M6.825 14.809l-0.345 1.246h0.675zM10.761 15.981h-0.843v0.623h0.806c0.168 0 0.298-0.11 0.298-0.303 0-0.183-0.11-0.319-0.262-0.319zM10.645 14.616h-0.728v0.57h0.696c0.136-0 0.277-0.058 0.277-0.288 0-0.204-0.115-0.283-0.246-0.283zM0 21.248v0.155c0 1.562 1.271 2.833 2.833 2.833h26.397c1.562 0 2.833-1.271 2.833-2.833v-0.155h-32.063zM0 12.536v6.622h32.063v-6.622h-32.063zM7.542 17.463l-0.225-0.727h-0.989l-0.22 0.727h-1.083l1.387-3.716h0.827l1.382 3.716h-1.078zM10.724 17.463h-1.826v-3.716h2.156c0.523 0 0.848 0.482 0.848 0.953 0 0.345-0.178 0.701-0.534 0.858 0.424 0.126 0.691 0.434 0.691 0.953 0 0.67-0.602 0.953-1.335 0.953zM14.062 17.494c-1.036 0-1.764-0.968-1.764-1.921 0-0.905 0.665-1.847 1.795-1.847 0.659 0 1.183 0.325 1.418 0.811l-0.78 0.555c-0.12-0.361-0.429-0.461-0.659-0.461-0.513 0-0.738 0.508-0.738 0.973 0 0.518 0.277 0.984 0.748 0.984 0.236 0 0.529-0.12 0.633-0.455l0.832 0.497c-0.209 0.549-0.895 0.863-1.486 0.863zM17.511 16.463h-1.638v-0.89h1.638v0.89zM20.536 17.463h-2.423v-0.89h0.743v-1.895c-0.115 0.162-0.581 0.45-0.864 0.45v-0.911h-0c0.377 0 0.853-0.476 0.863-0.497h1.015v2.852h0.665v0.89zM23.712 17.463h-2.863c0-0.963 0.115-1.403 0.911-1.779 0.434-0.204 0.811-0.387 0.811-0.769 0-0.251-0.162-0.33-0.34-0.33-0.272 0-0.57 0.183-0.769 0.377l-0.612-0.665c0.277-0.314 0.843-0.591 1.523-0.591 0.848 0 1.334 0.429 1.334 1.193 0 0.576-0.272 0.837-0.738 1.11-0.298 0.173-0.638 0.34-0.638 0.565h1.382v0.89zM25.339 17.51c-0.555 0-0.953-0.188-1.193-0.607l0.508-0.691c0.042 0.042 0.188 0.387 0.665 0.387 0.235 0 0.466-0.084 0.466-0.303 0-0.272-0.345-0.356-0.963-0.356h-0.173v-0.822h0.168c0.461 0 0.874-0.089 0.874-0.351 0-0.194-0.22-0.199-0.277-0.199-0.392 0-0.591 0.22-0.686 0.34l-0.628-0.738c0.277-0.309 0.837-0.471 1.308-0.471 0.774 0 1.35 0.44 1.35 1.015 0 0.403-0.283 0.68-0.675 0.759 0.455 0.073 0.738 0.492 0.738 0.958 0 0.78-0.785 1.078-1.481 1.078zM29.23 7.457h-26.397c-1.562 0-2.833 1.271-2.833 2.833v0.155h32.063v-0.155c0-1.562-1.271-2.833-2.833-2.833z"></path>
</svg>
