<!-- Generated by IcoMoon.io -->
<svg version="1.1" xmlns="http://www.w3.org/2000/svg" width="32" height="32" viewBox="0 0 32 32">
<title>life-ring</title>
<path d="M16.078 31.187c8.602 0 15.576-6.974 15.576-15.576s-6.974-15.576-15.576-15.576-15.576 6.974-15.576 15.576 6.974 15.576 15.576 15.576zM9.584 26.369l3.355-3.355c1.998 0.848 4.279 0.849 6.279 0l3.355 3.355c-3.97 2.407-9.018 2.407-12.988 0zM21.103 15.611c0 2.77-2.254 5.024-5.024 5.024s-5.024-2.254-5.024-5.024 2.254-5.024 5.024-5.024 5.024 2.254 5.024 5.024zM26.836 22.105l-3.355-3.355c0.848-1.998 0.849-4.279 0-6.279l3.355-3.355c2.407 3.97 2.407 9.018 0 12.988zM22.572 4.854l-3.355 3.355c-1.998-0.848-4.279-0.849-6.279 0l-3.355-3.355c3.97-2.407 9.018-2.407 12.988 0zM5.321 9.117l3.355 3.355c-0.848 1.998-0.849 4.279 0 6.279l-3.355 3.355c-2.407-3.97-2.407-9.018 0-12.988z"></path>
</svg>
