<!-- Generated by IcoMoon.io -->
<svg version="1.1" xmlns="http://www.w3.org/2000/svg" width="22" height="32" viewBox="0 0 22 32">
<title>lightbulb</title>
<path d="M11.054 4.557c-3.325 0-6.029 2.704-6.029 6.029 0 0.555 0.45 1.005 1.005 1.005s1.005-0.45 1.005-1.005c0-2.217 1.804-4.020 4.020-4.020 0.555 0 1.005-0.45 1.005-1.005s-0.45-1.005-1.005-1.005zM6.033 28.372c0 0.198 0.058 0.391 0.168 0.555l1.539 2.314c0.187 0.28 0.501 0.448 0.837 0.448h4.952c0.337 0 0.651-0.168 0.837-0.448l1.539-2.314c0.109-0.165 0.168-0.358 0.168-0.555l0.003-2.712h-10.046l0.003 2.712zM11.054-0.467c-6.424 0-11.054 5.211-11.054 11.054 0 2.787 1.033 5.329 2.736 7.272 1.045 1.193 2.684 3.693 3.292 5.788v0.004h3.015v-0.008c-0.001-0.3-0.045-0.597-0.135-0.884-0.351-1.119-1.433-4.068-3.905-6.888-1.29-1.472-1.98-3.338-1.985-5.285-0.013-4.625 3.748-8.039 8.036-8.039 4.433 0 8.039 3.606 8.039 8.039 0 1.945-0.706 3.822-1.988 5.285-2.456 2.802-3.544 5.745-3.9 6.875-0.088 0.268-0.139 0.577-0.139 0.898v0.006h3.015v-0.003c0.608-2.096 2.247-4.596 3.292-5.788 1.702-1.943 2.735-4.486 2.735-7.272 0-6.105-4.949-11.054-11.054-11.054z"></path>
</svg>
