<!-- Generated by IcoMoon.io -->
<svg version="1.1" xmlns="http://www.w3.org/2000/svg" width="22" height="32" viewBox="0 0 22 32">
<title>lightbulb1</title>
<path d="M6.033 28.069c0.001 0.395 0.117 0.782 0.337 1.111l1.073 1.613c0.365 0.544 0.978 0.897 1.673 0.897h3.876c0.695 0 1.308-0.353 1.669-0.89l0.005-0.007 1.073-1.613c0.211-0.312 0.336-0.697 0.337-1.111v-0l0.003-2.409h-10.048l0.003 2.409zM0 10.587c0 2.787 1.033 5.329 2.736 7.272 1.038 1.184 2.66 3.657 3.279 5.744 0.003 0.016 0.004 0.033 0.007 0.049h10.064c0.003-0.016 0.004-0.032 0.007-0.049 0.619-2.086 2.242-4.56 3.279-5.744 1.703-1.943 2.736-4.485 2.736-7.272 0-6.117-4.967-11.073-11.088-11.054-6.407 0.020-11.019 5.211-11.019 11.054zM11.054 5.562c-2.77 0-5.024 2.254-5.024 5.024 0 0.555-0.45 1.005-1.005 1.005s-1.005-0.45-1.005-1.005c0-3.879 3.155-7.034 7.034-7.034 0.555 0 1.005 0.45 1.005 1.005s-0.45 1.005-1.005 1.005z"></path>
</svg>
