<!-- Generated by IcoMoon.io -->
<svg version="1.1" xmlns="http://www.w3.org/2000/svg" width="32" height="32" viewBox="0 0 32 32">
<title>light-on</title>
<path d="M15.936-0.346c-0.029 0.005-0.058 0.013-0.085 0.021-0.316 0.072-0.539 0.356-0.531 0.68v2.721c-0.003 0.244 0.125 0.473 0.338 0.598 0.213 0.122 0.473 0.122 0.686 0 0.213-0.125 0.34-0.353 0.337-0.598v-2.721c0.008-0.197-0.072-0.385-0.213-0.518-0.143-0.136-0.337-0.202-0.531-0.183zM5.816 3.842c-0.021 0.005-0.043 0.013-0.064 0.021-0.245 0.050-0.441 0.234-0.513 0.473s-0.005 0.5 0.173 0.675l1.935 1.935c0.165 0.202 0.428 0.295 0.683 0.237 0.252-0.058 0.452-0.258 0.51-0.51 0.058-0.255-0.035-0.518-0.237-0.683l-1.935-1.935c-0.128-0.136-0.303-0.21-0.489-0.213-0.021 0-0.043 0-0.064 0zM26.035 3.842c-0.029 0.005-0.058 0.013-0.085 0.021-0.122 0.032-0.231 0.098-0.319 0.191l-1.935 1.935c-0.202 0.165-0.295 0.428-0.237 0.683 0.058 0.252 0.258 0.452 0.51 0.51 0.255 0.058 0.518-0.035 0.683-0.237l1.935-1.935c0.213-0.202 0.274-0.518 0.149-0.784-0.128-0.268-0.409-0.423-0.702-0.385zM16 5.118c-5.251 0-9.525 4.273-9.525 9.525 0 3.327 1.491 5.562 2.891 7.207 0.702 0.821 1.379 1.517 1.85 2.126s0.702 1.095 0.702 1.552v2.402c-0.090 0.189-0.090 0.407 0 0.595v0.404c0 1.119 0.922 2.041 2.041 2.041h0.531c0.375 0.415 0.909 0.68 1.509 0.68s1.135-0.266 1.509-0.68h0.532c1.119 0 2.041-0.922 2.041-2.041v-0.553c0.019-0.090 0.019-0.186 0-0.276v-2.572c0-0.457 0.231-0.949 0.702-1.552s1.148-1.286 1.85-2.105c1.401-1.637 2.891-3.872 2.891-7.229 0-5.251-4.273-9.525-9.525-9.525zM16 6.478c4.518 0 8.164 3.646 8.164 8.164 0 2.966-1.23 4.815-2.551 6.357-0.659 0.771-1.342 1.443-1.892 2.147-0.404 0.518-0.694 1.084-0.85 1.701h-5.74c-0.157-0.617-0.446-1.18-0.85-1.701-0.55-0.71-1.233-1.393-1.892-2.169-1.321-1.549-2.551-3.402-2.551-6.336 0-4.518 3.646-8.164 8.164-8.164zM1.522 13.962c-0.375 0.053-0.638 0.401-0.585 0.776s0.401 0.638 0.776 0.585h2.721c0.245 0.003 0.473-0.125 0.598-0.338 0.122-0.213 0.122-0.473 0-0.686-0.125-0.213-0.353-0.34-0.598-0.338h-2.721c-0.021 0-0.043 0-0.064 0s-0.043 0-0.064 0c-0.021 0-0.043 0-0.064 0zM27.374 13.962c-0.375 0.053-0.638 0.401-0.585 0.776s0.401 0.638 0.776 0.585h2.721c0.244 0.003 0.473-0.125 0.598-0.338 0.122-0.213 0.122-0.473 0-0.686-0.125-0.213-0.353-0.34-0.598-0.338h-2.721c-0.021 0-0.043 0-0.064 0s-0.043 0-0.064 0c-0.021 0-0.043 0-0.064 0zM7.751 22.126c-0.154 0.021-0.298 0.098-0.404 0.213l-1.935 1.935c-0.202 0.165-0.295 0.428-0.237 0.683 0.058 0.252 0.258 0.452 0.51 0.51 0.255 0.058 0.518-0.035 0.683-0.237l1.935-1.935c0.202-0.194 0.263-0.494 0.154-0.752-0.106-0.258-0.364-0.423-0.643-0.417-0.021 0-0.043 0-0.064 0zM24.036 22.126c-0.255 0.045-0.46 0.231-0.532 0.478-0.072 0.25 0.003 0.516 0.191 0.691l1.935 1.935c0.165 0.202 0.428 0.295 0.683 0.237 0.252-0.058 0.452-0.258 0.51-0.51 0.058-0.255-0.035-0.518-0.237-0.683l-1.935-1.935c-0.128-0.136-0.303-0.21-0.489-0.213-0.021 0-0.043 0-0.064 0s-0.043 0-0.064 0zM13.279 26.208h5.443v1.361h-3.402c-0.021 0-0.043 0-0.064 0s-0.043 0-0.064 0c-0.375 0.035-0.651 0.369-0.617 0.744s0.369 0.651 0.744 0.617h3.402c0 0.385-0.295 0.68-0.68 0.68h-4.082c-0.385 0-0.68-0.295-0.68-0.68 0.245 0.003 0.473-0.125 0.598-0.337 0.122-0.213 0.122-0.473 0-0.686-0.125-0.213-0.353-0.34-0.598-0.337z"></path>
</svg>
