<!-- Generated by IcoMoon.io -->
<svg version="1.1" xmlns="http://www.w3.org/2000/svg" width="28" height="32" viewBox="0 0 28 32">
<title>line</title>
<path d="M17.090 12.358v4.465c0 0.113-0.088 0.201-0.201 0.201h-0.716c-0.069 0-0.132-0.038-0.163-0.082l-2.047-2.763v2.65c0 0.113-0.088 0.201-0.201 0.201h-0.716c-0.113 0-0.201-0.088-0.201-0.201v-4.465c0-0.113 0.088-0.201 0.201-0.201h0.71c0.063 0 0.132 0.031 0.163 0.088l2.047 2.763v-2.65c0-0.113 0.088-0.201 0.201-0.201h0.716c0.113-0.006 0.207 0.088 0.207 0.195zM11.939 12.157h-0.716c-0.113 0-0.201 0.088-0.201 0.201v4.466c0 0.113 0.088 0.201 0.201 0.201h0.716c0.113 0 0.201-0.088 0.201-0.201v-4.465c0-0.107-0.088-0.201-0.201-0.201zM10.212 15.9h-1.953v-3.542c0-0.113-0.088-0.201-0.201-0.201h-0.716c-0.113 0-0.201 0.088-0.201 0.201v4.465c0 0.057 0.019 0.1 0.057 0.138 0.038 0.031 0.082 0.057 0.138 0.057h2.87c0.113 0 0.201-0.088 0.201-0.201v-0.716c0-0.107-0.088-0.201-0.195-0.201zM20.858 12.157h-2.87c-0.107 0-0.201 0.088-0.201 0.201v4.466c0 0.107 0.088 0.201 0.201 0.201h2.87c0.113 0 0.201-0.088 0.201-0.201v-0.716c0-0.113-0.088-0.201-0.201-0.201h-1.953v-0.754h1.953c0.113 0 0.201-0.088 0.201-0.201v-0.722c0-0.113-0.088-0.201-0.201-0.201h-1.953v-0.754h1.953c0.113 0 0.201-0.088 0.201-0.201v-0.716c-0.006-0.107-0.094-0.201-0.201-0.201zM28.137 6.674v17.919c-0.006 2.814-2.311 5.094-5.131 5.087h-17.919c-2.814-0.006-5.094-2.317-5.087-5.131v-17.919c0.006-2.814 2.317-5.094 5.131-5.087h17.919c2.814 0.006 5.094 2.311 5.087 5.131zM24.268 14.374c0-4.585-4.597-8.316-10.244-8.316s-10.244 3.731-10.244 8.316c0 4.108 3.643 7.549 8.567 8.202 1.2 0.258 1.061 0.697 0.791 2.311-0.044 0.258-0.207 1.011 0.886 0.553s5.897-3.473 8.052-5.948c1.482-1.633 2.192-3.285 2.192-5.119z"></path>
</svg>
