<!-- Generated by IcoMoon.io -->
<svg version="1.1" xmlns="http://www.w3.org/2000/svg" width="32" height="32" viewBox="0 0 32 32">
<title>link</title>
<path d="M20.513 11.177c3.752 3.756 3.701 9.779 0.023 13.478-0.007 0.008-0.015 0.016-0.023 0.023l-4.221 4.221c-3.723 3.723-9.779 3.722-13.501 0s-3.723-9.779 0-13.501l2.331-2.331c0.618-0.618 1.682-0.207 1.714 0.666 0.041 1.113 0.24 2.231 0.609 3.311 0.125 0.366 0.036 0.77-0.238 1.043l-0.822 0.822c-1.76 1.76-1.815 4.626-0.072 6.404 1.76 1.795 4.653 1.806 6.427 0.032l4.221-4.22c1.771-1.771 1.763-4.632 0-6.396-0.232-0.232-0.467-0.412-0.649-0.538-0.255-0.177-0.423-0.463-0.436-0.79l-0-0.002c-0.025-0.664 0.21-1.348 0.735-1.872l1.322-1.322c0.347-0.347 0.891-0.389 1.293-0.109 0.48 0.337 0.901 0.692 1.289 1.080v0zM29.365 2.325c-3.722-3.722-9.778-3.723-13.501 0l-4.221 4.221c-0.008 0.008-0.016 0.016-0.023 0.023-3.678 3.699-3.73 9.721 0.023 13.478 0.388 0.388 0.809 0.743 1.259 1.060l0.030 0.020c0.402 0.281 0.946 0.238 1.293-0.109l1.322-1.322c0.524-0.524 0.76-1.208 0.735-1.872-0.013-0.328-0.181-0.615-0.433-0.79l-0.003-0.002c-0.183-0.126-0.417-0.306-0.649-0.538-1.763-1.763-1.771-4.625 0-6.396l4.221-4.22c1.774-1.774 4.666-1.763 6.427 0.032 1.743 1.777 1.688 4.644-0.073 6.404l-0.822 0.822c-0.273 0.273-0.362 0.678-0.238 1.043 0.368 1.080 0.568 2.198 0.609 3.311 0.032 0.873 1.096 1.284 1.714 0.666l2.331-2.331c3.723-3.722 3.723-9.779 0-13.501z"></path>
</svg>
