<!-- Generated by IcoMoon.io -->
<svg version="1.1" xmlns="http://www.w3.org/2000/svg" width="28" height="32" viewBox="0 0 28 32">
<title>linkedin-in</title>
<path d="M6.299 27.67h-5.835v-18.785h5.835v18.785zM3.379 6.322c-1.865 0-3.379-1.545-3.379-3.41s1.514-3.379 3.379-3.379 3.379 1.514 3.379 3.379-1.514 3.41-3.379 3.41zM28.137 27.67h-5.822v-9.145c0-2.179-0.044-4.974-3.034-4.974-3.034 0-3.498 2.368-3.498 4.817v9.302h-5.828v-18.785h5.596v2.563h0.082c0.779-1.476 2.682-3.034 5.521-3.034 5.904 0 6.99 3.888 6.99 8.937v10.319h-0.006z"></path>
</svg>
