<!-- Generated by IcoMoon.io -->
<svg version="1.1" xmlns="http://www.w3.org/2000/svg" width="28" height="32" viewBox="0 0 28 32">
<title>linkedin</title>
<path d="M26.127 1.543h-24.124c-1.105 0-2.003 0.911-2.003 2.029v24.080c0 1.118 0.898 2.029 2.003 2.029h24.124c1.105 0 2.010-0.911 2.010-2.029v-24.080c0-1.118-0.904-2.029-2.010-2.029zM8.504 25.66h-4.17v-13.428h4.177v13.428zM6.419 10.398c-1.338 0-2.418-1.087-2.418-2.418s1.080-2.418 2.418-2.418c1.332 0 2.418 1.087 2.418 2.418 0 1.338-1.080 2.418-2.418 2.418zM24.136 25.66h-4.17v-6.532c0-1.558-0.031-3.561-2.167-3.561-2.173 0-2.506 1.696-2.506 3.448v6.645h-4.17v-13.428h4.001v1.834h0.057c0.559-1.055 1.922-2.167 3.95-2.167 4.221 0 5.006 2.782 5.006 6.4v7.361z"></path>
</svg>
