<!-- Generated by IcoMoon.io -->
<svg version="1.1" xmlns="http://www.w3.org/2000/svg" width="28" height="32" viewBox="0 0 28 32">
<title>linode</title>
<path d="M27.471 13.746c-0.019-0.057-0.057-0.088-0.088-0.126l-4.396-2.424c-0.057-0.038-0.126-0.038-0.195 0l-3.699 2.261c-0.057 0.038-0.088 0.107-0.088 0.163l-0.057 1.972-1.507-1.005c-0.057-0.038-0.145-0.038-0.195 0l-2.173 1.332-0.088-2.205c0-0.057-0.038-0.126-0.088-0.145l-2.261-1.526 2.117-1.093c0.069-0.038 0.107-0.107 0.107-0.182l-0.358-8.309c0-0.057-0.057-0.126-0.107-0.163l-5.69-2.745c-0.057-0.019-0.107-0.019-0.145-0.019l-7.769 2.424c-0.088 0.038-0.144 0.126-0.126 0.232l1.721 8.359c0.057 0.214 2.135 1.721 2.424 1.941l-1.69 0.81c-0.088 0.057-0.126 0.145-0.107 0.214l1.294 6.299c0.038 0.182 1.488 1.451 1.702 1.652l-1.093 0.666c-0.057 0.038-0.107 0.126-0.088 0.195 0.088 0.446 0.967 4.88 1.061 4.968l4.089 4.34c0.038 0.038 0.088 0.038 0.145 0.057 0.038 0 0.069-0.019 0.107-0.038l5.257-4.202c0.057-0.038 0.069-0.088 0.069-0.145l-0.126-2.889 1.759 1.488c0.069 0.057 0.182 0.057 0.251 0l4.202-3.354c0.057-0.038 0.069-0.088 0.069-0.145l0.145-2.098 1.275 0.879c0.069 0.057 0.163 0.057 0.232 0l3.429-2.745c0.038-0.019 0.069-0.069 0.069-0.126 0.057-0.408 0.647-4.447 0.609-4.572zM14.609 14.047l0.251 5.816-5.69 3.844-0.879-6.067 6.318-3.592zM14.125 2.742l0.339 7.914-6.695 3.479-1.237-8.466 7.593-2.927zM2.763 10.405l-1.633-7.857 5.006 3.103 1.218 8.347-4.591-3.592zM4.685 19.687l-1.187-5.709 4.396 3.662 0.86 5.866-4.070-3.819zM6.212 27.080l-0.86-4.214 3.875 3.825 0.609 4.233-3.624-3.844zM10.262 31.131l-0.666-4.453 5.383-3.856 0.195 4.396-4.911 3.913zM15.413 23.902c0-0.214 0.057-1.438-0.126-1.576l-1.526-1.256 1.401-0.936c0.145-0.107 0.069-0.358 0.069-0.503l1.847 1.419 0.038 4.29-1.702-1.438zM21.335 22.306l-3.825 3.052-0.038-4.309 4.126-2.946-0.264 4.202zM23.075 20.692l-1.2-0.842 0.126-2.135c0.019-0.057-0.019-0.126-0.069-0.163l-2.588-1.708 0.038-1.884 4.057 2.55-0.364 4.183zM26.504 18.193l-3.034 2.405 0.358-4.089 3.209-2.299-0.534 3.982z"></path>
</svg>
