<!-- Generated by IcoMoon.io -->
<svg version="1.1" xmlns="http://www.w3.org/2000/svg" width="28" height="32" viewBox="0 0 28 32">
<title>linux</title>
<path d="M12.316 7.296c-0.012-0.088 0.119-0.144 0.201-0.182 0.107-0.044 0.245-0.063 0.345-0.006 0.025 0.013 0.050 0.044 0.038 0.069-0.025 0.075-0.151 0.063-0.22 0.1-0.063 0.031-0.113 0.107-0.188 0.107-0.063 0.006-0.17-0.025-0.176-0.088zM13.868 7.277c0.063 0.031 0.113 0.107 0.188 0.107 0.069 0 0.176-0.025 0.182-0.094 0.012-0.088-0.119-0.144-0.201-0.182-0.107-0.044-0.245-0.063-0.345-0.006-0.025 0.013-0.050 0.044-0.038 0.069 0.019 0.082 0.145 0.069 0.214 0.107zM27.352 26.759c-0.031 0.515-0.408 0.867-0.873 1.149-0.936 0.565-2.343 0.992-3.197 2.022v0c-0.892 1.061-1.991 1.671-3.034 1.752-1.036 0.082-2.010-0.396-2.531-1.445v-0.006c-0.069-0.132-0.119-0.276-0.157-0.421-1.35 0.075-2.525-0.333-3.461-0.258-1.382 0.075-2.248 0.408-3.034 0.415-0.301 0.666-0.898 1.105-1.627 1.269-1.005 0.232-2.267 0-3.511-0.653v0c-1.162-0.615-2.638-0.559-3.724-0.785-0.546-0.113-1.024-0.314-1.262-0.773-0.232-0.458-0.188-1.087 0.138-1.991 0.107-0.32 0.025-0.798-0.050-1.306-0.038-0.245-0.075-0.496-0.075-0.741 0-0.27 0.044-0.534 0.176-0.779 0.283-0.534 0.741-0.76 1.162-0.911s0.804-0.251 1.068-0.521c0.327-0.345 0.634-0.904 1.043-1.269-0.163-1.080 0.013-2.223 0.389-3.348 0.791-2.38 2.462-4.66 3.649-6.073 1.011-1.438 1.306-2.594 1.413-4.064 0.069-1.997-1.539-8.504 4.893-8.491 5.081 0.006 4.792 5.364 4.761 8.246-0.019 1.89 1.024 3.172 2.098 4.522 0.955 1.13 2.205 2.782 2.92 4.673 0.584 1.545 0.81 3.253 0.232 4.968 0.088 0.031 0.176 0.075 0.258 0.126 0.088 0.050 0.17 0.113 0.251 0.182 0.415 0.352 0.546 0.898 0.66 1.407 0.119 0.509 0.226 0.986 0.452 1.237 0.697 0.779 0.999 1.35 0.973 1.865zM13.868 6.385c0.226 0.057 0.559 0.151 0.816 0.276-0.132-0.766 0.283-1.476 0.741-1.445 0.559 0.019 0.873 0.973 0.572 1.715-0.050 0.119-0.176 0.214-0.245 0.289 0.421 0.144 0.691 0.258 0.791 0.308 0.496-0.597 0.678-1.645 0.27-2.537-0.615-1.344-2.148-1.369-2.763 0.025-0.201 0.452-0.245 0.936-0.182 1.369zM10.966 7.566c0.49-0.358 0.433-0.295 0.371-0.345-0.502-0.433-0.415-1.721 0.113-1.765 0.396-0.031 0.678 0.672 0.603 1.231 0.195-0.132 0.421-0.226 0.641-0.289 0.107-1.212-0.565-2.104-1.2-2.104-1.187 0-1.507 2.355-0.527 3.272zM10.376 8.879c0.094 0.308 0.383 0.66 0.923 0.961 0.49 0.289 0.754 0.722 1.256 0.942 0.163 0.069 0.358 0.119 0.603 0.132 1.156 0.069 1.702-0.71 2.399-0.936 0.735-0.232 1.262-0.691 1.426-1.137 0.201-0.534-0.132-0.923-0.66-1.143-0.71-0.308-1.024-0.327-1.419-0.584-0.647-0.415-1.181-0.559-1.627-0.559-0.904 0-1.457 0.615-1.752 0.892-0.031 0.031-0.496 0.371-0.886 0.66-0.264 0.207-0.352 0.465-0.264 0.773zM8.272 24.756l-1.231-2.236c-0.427-0.578-0.867-0.93-1.375-1.005-0.484-0.075-0.791 0.088-1.112 0.433-0.301 0.32-0.553 0.773-0.898 1.13-0.49 0.408-0.584 0.389-1.231 0.622-0.396 0.138-0.71 0.289-0.93 0.71-0.17 0.314-0.132 0.766-0.057 1.256 0.075 0.496 0.188 1.024 0.038 1.501v0.012c-0.314 0.86-0.314 1.363-0.163 1.658 0.496 0.967 2.927 0.383 4.805 1.375 1.972 1.030 4.56 1.074 4.729-1.13 0.132-1.288-1.978-3.078-2.575-4.327zM17.937 27.004c0.201-0.691 0.396-1.338 0.427-1.821 0.050-0.955 0.1-1.802 0.276-2.506 0.195-0.791 0.584-1.451 1.344-1.715 0.145-1.325 1.175-1.325 2.405-0.785 1.187 0.534 1.633 1.005 1.432 1.639 0.063 0 0.126-0.006 0.264 0 0.327-1.061-0.898-1.759-1.928-2.186 0.182-0.754 0.151-1.514-0.025-2.242-0.377-1.589-1.419-3.002-2.211-3.706-0.145-0.006-0.132 0.119 0.163 0.408 0.729 0.672 2.33 3.090 1.463 5.332-0.245-0.063-0.477-0.094-0.685-0.088-0.333-1.828-1.099-3.341-1.482-4.057-0.722-1.344-1.853-4.101-2.336-6.011-0.283 0.402-0.779 0.747-1.401 0.942-0.295 0.094-0.609 0.345-0.999 0.565-0.873 0.502-1.884 0.553-2.663-0.075-0.283-0.226-0.502-0.477-0.791-0.647-0.1-0.057-0.32-0.207-0.389-0.258-0.126 2.374-1.715 5.357-2.468 7.078-0.521 1.237-0.829 2.563-0.867 3.863-1.369-1.828-0.371-4.164 0.163-5.175 0.597-1.105 0.691-1.413 0.546-1.306-0.54 0.879-1.382 2.28-1.708 3.718-0.17 0.747-0.201 1.507 0.019 2.211s0.697 1.35 1.545 1.878c0 0 1.558 0.898 2.405 2.041 0.465 0.628 0.609 1.175 0.465 1.564-0.157 0.421-0.603 0.559-1.049 0.559 0.301 0.377 0.647 0.816 0.904 1.231 2.362 1.614 5.163 0.986 7.179-0.452zM26.065 25.189c-0.628-0.71-0.452-2.079-1.074-2.613-0.433-0.377-0.854-0.339-1.419-0.32-0.484 0.553-1.62 1.231-2.412 1.024-0.722-0.182-1.13-1.024-1.181-1.853-0.019 0.012-0.044 0.019-0.063 0.031-0.446 0.245-0.697 0.678-0.86 1.325-0.157 0.641-0.214 1.476-0.264 2.431-0.044 0.741-0.389 1.658-0.622 2.55-0.22 0.829-0.364 1.583-0.069 2.28 0.452 0.911 1.225 1.281 2.117 1.212s1.909-0.615 2.738-1.602c1.382-1.671 3.913-1.865 3.969-2.92 0.019-0.32-0.195-0.816-0.86-1.545zM10.884 8.872c0.126 0.119 0.295 0.283 0.502 0.446 0.415 0.327 0.992 0.666 1.715 0.666 0.729 0 1.413-0.371 1.997-0.678 0.308-0.163 0.685-0.44 0.93-0.653s0.371-0.396 0.195-0.415c-0.176-0.019-0.163 0.163-0.377 0.32-0.276 0.201-0.609 0.465-0.873 0.615-0.465 0.264-1.225 0.641-1.878 0.641s-1.175-0.301-1.564-0.609c-0.195-0.157-0.358-0.314-0.484-0.433-0.094-0.088-0.119-0.289-0.27-0.308-0.088-0.006-0.113 0.232 0.107 0.408z"></path>
</svg>
