<!-- Generated by IcoMoon.io -->
<svg version="1.1" xmlns="http://www.w3.org/2000/svg" width="24" height="32" viewBox="0 0 24 32">
<title>lira-sign</title>
<path d="M23.363 15.611h-3.016c-0.398 0-0.752 0.309-0.752 0.706 0 6.328-5.139 9.343-10.551 9.343v-10l8.454-1.879c0.34-0.077 0.59-0.377 0.59-0.736v0-2.573c0-0.482-0.447-0.84-0.917-0.736l-8.127 1.806v-1.912l8.454-1.879c0.34-0.077 0.59-0.377 0.59-0.736v0-2.573c0-0.482-0.447-0.84-0.917-0.736l-8.127 1.806v-3.217c0-0.416-0.338-0.754-0.754-0.754h-3.517c-0.416 0-0.754 0.338-0.754 0.754v4.333l-3.429 0.762c-0.34 0.077-0.59 0.377-0.59 0.736v0 2.573c0 0.482 0.447 0.84 0.917 0.736l3.102-0.689v1.912l-3.429 0.762c-0.34 0.077-0.59 0.377-0.59 0.736v0 2.574c0 0.482 0.447 0.84 0.917 0.736l3.102-0.689v12.149c0 0.416 0.338 0.754 0.754 0.754h4.998c8.422 0 14.022-4.888 14.345-13.289 0.016-0.426-0.327-0.779-0.753-0.779z"></path>
</svg>
