<!-- Generated by IcoMoon.io -->
<svg version="1.1" xmlns="http://www.w3.org/2000/svg" width="32" height="32" viewBox="0 0 32 32">
<title>list-alt</title>
<path d="M29.142 1.543h-26.127c-1.665 0-3.015 1.35-3.015 3.015v22.108c0 1.665 1.35 3.015 3.015 3.015h26.127c1.665 0 3.015-1.35 3.015-3.015v-22.108c0-1.665-1.35-3.015-3.015-3.015zM28.765 26.665h-25.374c-0.208 0-0.377-0.169-0.377-0.377v0-21.354c0-0.208 0.169-0.377 0.377-0.377v0h25.374c0.208 0 0.377 0.169 0.377 0.377v0 21.354c0 0.208-0.169 0.377-0.377 0.377v0zM26.127 20.887v1.507c0 0.416-0.338 0.754-0.754 0.754h-12.561c-0.416 0-0.754-0.338-0.754-0.754v-1.507c0-0.416 0.338-0.754 0.754-0.754h12.561c0.416 0 0.754 0.338 0.754 0.754zM26.127 14.858v1.507c0 0.416-0.338 0.754-0.754 0.754h-12.561c-0.416 0-0.754-0.338-0.754-0.754v-1.507c0-0.416 0.338-0.754 0.754-0.754h12.561c0.416 0 0.754 0.338 0.754 0.754zM26.127 8.828v1.507c0 0.416-0.338 0.754-0.754 0.754h-12.561c-0.416 0-0.754-0.338-0.754-0.754v-1.507c0-0.416 0.338-0.754 0.754-0.754h12.561c0.416 0 0.754 0.338 0.754 0.754zM10.3 9.582c0 1.249-1.012 2.261-2.261 2.261s-2.261-1.012-2.261-2.261 1.012-2.261 2.261-2.261 2.261 1.012 2.261 2.261zM10.3 15.611c0 1.249-1.012 2.261-2.261 2.261s-2.261-1.012-2.261-2.261 1.012-2.261 2.261-2.261 2.261 1.012 2.261 2.261zM10.3 21.641c0 1.249-1.012 2.261-2.261 2.261s-2.261-1.012-2.261-2.261 1.012-2.261 2.261-2.261 2.261 1.012 2.261 2.261z"></path>
</svg>
