<!-- Generated by IcoMoon.io -->
<svg version="1.1" xmlns="http://www.w3.org/2000/svg" width="32" height="32" viewBox="0 0 32 32">
<title>list-ul</title>
<path d="M6.029 5.562c0 1.665-1.35 3.015-3.015 3.015s-3.015-1.35-3.015-3.015 1.35-3.015 3.015-3.015 3.015 1.35 3.015 3.015zM3.015 12.597c-1.665 0-3.015 1.35-3.015 3.015s1.35 3.015 3.015 3.015 3.015-1.35 3.015-3.015-1.35-3.015-3.015-3.015zM3.015 22.646c-1.665 0-3.015 1.35-3.015 3.015s1.35 3.015 3.015 3.015 3.015-1.35 3.015-3.015-1.35-3.015-3.015-3.015zM9.044 7.823h22.108c0.555 0 1.005-0.45 1.005-1.005v-2.512c0-0.555-0.45-1.005-1.005-1.005h-22.108c-0.555 0-1.005 0.45-1.005 1.005v2.512c0 0.555 0.45 1.005 1.005 1.005zM9.044 17.872h22.108c0.555 0 1.005-0.45 1.005-1.005v-2.512c0-0.555-0.45-1.005-1.005-1.005h-22.108c-0.555 0-1.005 0.45-1.005 1.005v2.512c0 0.555 0.45 1.005 1.005 1.005zM9.044 27.921h22.108c0.555 0 1.005-0.45 1.005-1.005v-2.512c0-0.555-0.45-1.005-1.005-1.005h-22.108c-0.555 0-1.005 0.45-1.005 1.005v2.512c0 0.555 0.45 1.005 1.005 1.005z"></path>
</svg>
