<!-- Generated by IcoMoon.io -->
<svg version="1.1" xmlns="http://www.w3.org/2000/svg" width="32" height="32" viewBox="0 0 32 32">
<title>list-alt1</title>
<path d="M29.142 29.68h-26.127c-1.665 0-3.015-1.35-3.015-3.015v-22.108c0-1.665 1.35-3.015 3.015-3.015h26.127c1.665 0 3.015 1.35 3.015 3.015v22.108c0 1.665-1.35 3.015-3.015 3.015zM8.039 7.070c-1.387 0-2.512 1.125-2.512 2.512s1.125 2.512 2.512 2.512 2.512-1.125 2.512-2.512-1.125-2.512-2.512-2.512zM8.039 13.099c-1.387 0-2.512 1.125-2.512 2.512s1.125 2.512 2.512 2.512 2.512-1.125 2.512-2.512-1.125-2.512-2.512-2.512zM8.039 19.128c-1.387 0-2.512 1.125-2.512 2.512s1.125 2.512 2.512 2.512 2.512-1.125 2.512-2.512-1.125-2.512-2.512-2.512zM26.127 10.587v-2.010c0-0.416-0.338-0.754-0.754-0.754h-12.561c-0.416 0-0.754 0.338-0.754 0.754v2.010c0 0.416 0.338 0.754 0.754 0.754h12.561c0.416 0 0.754-0.338 0.754-0.754zM26.127 16.616v-2.010c0-0.416-0.338-0.754-0.754-0.754h-12.561c-0.416 0-0.754 0.338-0.754 0.754v2.010c0 0.416 0.338 0.754 0.754 0.754h12.561c0.416 0 0.754-0.338 0.754-0.754zM26.127 22.646v-2.010c0-0.416-0.338-0.754-0.754-0.754h-12.561c-0.416 0-0.754 0.338-0.754 0.754v2.010c0 0.416 0.338 0.754 0.754 0.754h12.561c0.416 0 0.754-0.338 0.754-0.754z"></path>
</svg>
