<!-- Generated by IcoMoon.io -->
<svg version="1.1" xmlns="http://www.w3.org/2000/svg" width="32" height="32" viewBox="0 0 32 32">
<title>list-ol</title>
<path d="M0.205 8.296c0-0.47 0.246-0.727 0.727-0.727h0.95v-2.505c0-0.324 0.034-0.66 0.034-0.66h-0.022s-0.112 0.168-0.179 0.235c-0.28 0.268-0.66 0.28-0.984-0.067l-0.347-0.391c-0.335-0.335-0.313-0.704 0.034-1.029l1.364-1.252c0.279-0.257 0.525-0.358 0.905-0.358h0.76c0.481 0 0.738 0.246 0.738 0.727v5.3h0.973c0.481 0 0.727 0.257 0.727 0.727v0.559c0 0.47-0.246 0.727-0.727 0.727h-4.226c-0.481 0-0.727-0.257-0.727-0.727v-0.559zM0.139 18.663c0-2.969 3.2-3.541 3.2-4.344 0-0.451-0.374-0.55-0.583-0.55-0.198 0-0.407 0.066-0.594 0.242-0.319 0.308-0.66 0.44-1.012 0.154l-0.539-0.429c-0.363-0.286-0.451-0.616-0.176-0.968 0.418-0.55 1.199-1.177 2.54-1.177 1.221 0 2.793 0.66 2.793 2.485 0 2.408-2.936 2.914-3.057 3.574h2.453c0.473 0 0.726 0.253 0.726 0.715v0.55c0 0.462-0.253 0.715-0.726 0.715h-4.267c-0.44 0-0.759-0.253-0.759-0.715v-0.253zM0.355 28.085l0.352-0.583c0.242-0.418 0.572-0.44 0.979-0.198 0.308 0.132 0.605 0.198 0.902 0.198 0.638 0 0.902-0.22 0.902-0.517 0-0.418-0.352-0.572-1.001-0.572h-0.297c-0.374 0-0.583-0.132-0.77-0.495l-0.066-0.121c-0.154-0.297-0.077-0.616 0.176-0.935l0.352-0.44c0.429-0.528 0.77-0.847 0.77-0.847v-0.022s-0.264 0.066-0.792 0.066h-0.814c-0.473 0-0.715-0.253-0.715-0.715v-0.55c0-0.473 0.242-0.715 0.715-0.715h3.673c0.473 0 0.715 0.253 0.715 0.715v0.209c0 0.363-0.088 0.616-0.319 0.891l-1.1 1.265c1.232 0.319 1.803 1.287 1.803 2.188 0 1.342-0.902 2.771-3.046 2.771-1.045 0-1.771-0.297-2.254-0.594-0.363-0.264-0.396-0.616-0.165-1.001zM9.044 7.823h22.108c0.555 0 1.005-0.45 1.005-1.005v-2.512c0-0.555-0.45-1.005-1.005-1.005h-22.108c-0.555 0-1.005 0.45-1.005 1.005v2.512c0 0.555 0.45 1.005 1.005 1.005zM9.044 17.872h22.108c0.555 0 1.005-0.45 1.005-1.005v-2.512c0-0.555-0.45-1.005-1.005-1.005h-22.108c-0.555 0-1.005 0.45-1.005 1.005v2.512c0 0.555 0.45 1.005 1.005 1.005zM9.044 27.921h22.108c0.555 0 1.005-0.45 1.005-1.005v-2.512c0-0.555-0.45-1.005-1.005-1.005h-22.108c-0.555 0-1.005 0.45-1.005 1.005v2.512c0 0.555 0.45 1.005 1.005 1.005z"></path>
</svg>
