<!-- Generated by IcoMoon.io -->
<svg version="1.1" xmlns="http://www.w3.org/2000/svg" width="32" height="32" viewBox="0 0 32 32">
<title>list</title>
<path d="M8.039 6.819v-2.512c0-0.555 0.45-1.005 1.005-1.005h22.108c0.555 0 1.005 0.45 1.005 1.005v2.512c0 0.555-0.45 1.005-1.005 1.005h-22.108c-0.555 0-1.005-0.45-1.005-1.005zM9.044 17.872h22.108c0.555 0 1.005-0.45 1.005-1.005v-2.512c0-0.555-0.45-1.005-1.005-1.005h-22.108c-0.555 0-1.005 0.45-1.005 1.005v2.512c0 0.555 0.45 1.005 1.005 1.005zM9.044 27.921h22.108c0.555 0 1.005-0.45 1.005-1.005v-2.512c0-0.555-0.45-1.005-1.005-1.005h-22.108c-0.555 0-1.005 0.45-1.005 1.005v2.512c0 0.555 0.45 1.005 1.005 1.005zM1.005 8.577h4.020c0.555 0 1.005-0.45 1.005-1.005v-4.020c0-0.555-0.45-1.005-1.005-1.005h-4.020c-0.555 0-1.005 0.45-1.005 1.005v4.020c0 0.555 0.45 1.005 1.005 1.005zM1.005 18.626h4.020c0.555 0 1.005-0.45 1.005-1.005v-4.020c0-0.555-0.45-1.005-1.005-1.005h-4.020c-0.555 0-1.005 0.45-1.005 1.005v4.020c0 0.555 0.45 1.005 1.005 1.005zM1.005 28.675h4.020c0.555 0 1.005-0.45 1.005-1.005v-4.020c0-0.555-0.45-1.005-1.005-1.005h-4.020c-0.555 0-1.005 0.45-1.005 1.005v4.020c0 0.555 0.45 1.005 1.005 1.005z"></path>
</svg>
