<!-- Generated by IcoMoon.io -->
<svg version="1.1" xmlns="http://www.w3.org/2000/svg" width="32" height="32" viewBox="0 0 32 32">
<title>lnk-file-format-symbol</title>
<path d="M27.737 7.239c-0.002-0.148-0.049-0.293-0.15-0.408l-6.2-7.082c-0.001-0.002-0.003-0.002-0.005-0.004-0.037-0.041-0.079-0.075-0.125-0.105-0.013-0.009-0.027-0.017-0.041-0.025-0.040-0.021-0.081-0.039-0.124-0.052-0.012-0.004-0.022-0.008-0.034-0.011-0.047-0.011-0.095-0.018-0.145-0.018h-15.238c-0.695 0-1.261 0.566-1.261 1.261v29.635c0 0.696 0.566 1.261 1.261 1.261h20.807c0.696 0 1.261-0.566 1.261-1.261v-23.119c-0-0.024-0.004-0.047-0.006-0.070zM11.324 29.67h-4.504v-7.211h1.637v5.842h2.867v1.369zM18.256 29.67h-1.712l-1.541-2.781c-0.428-0.77-0.899-1.701-1.252-2.547l-0.032 0.011c0.043 0.952 0.064 1.968 0.064 3.145v2.172h-1.498v-7.212h1.905l1.498 2.643c0.428 0.76 0.856 1.658 1.177 2.472h0.032c-0.107-0.953-0.139-1.926-0.139-3.007v-2.108h1.498v7.211h-0zM23.669 29.67l-1.765-3.113-0.621 0.76v2.354h-1.616v-7.211h1.616v3.188h0.032c0.161-0.278 0.332-0.535 0.492-0.792l1.637-2.396h2.001l-2.386 3.070 2.514 4.141h-1.904zM5.675 20.945v-20.151h14.607v6.452c0 0.348 0.282 0.631 0.631 0.631h5.569l0.001 13.068h-20.808zM20.848 14.704l-2.127-2.924c-0.618-0.849-1.721-1.139-2.656-0.77l-0.087-0.12c0.639-0.776 0.703-1.914 0.085-2.764l-1.606-2.208c-0.733-1.007-2.149-1.231-3.156-0.499l-0.228 0.167c-1.008 0.733-1.23 2.149-0.498 3.156l1.606 2.208c0.598 0.822 1.651 1.121 2.565 0.807l0.116 0.159c-0.582 0.773-0.621 1.867-0.023 2.689l2.127 2.924c0.733 1.007 2.149 1.23 3.156 0.498l0.228-0.166c1.008-0.733 1.231-2.15 0.499-3.156zM13.944 9.376c-0.336 0.244-0.41 0.716-0.166 1.052l0.489 0.671c-0.548 0.096-1.13-0.112-1.478-0.591l-1.606-2.209c-0.489-0.671-0.34-1.615 0.332-2.104l0.229-0.166c0.671-0.488 1.616-0.34 2.104 0.333l1.606 2.207c0.371 0.51 0.373 1.176 0.059 1.682l-0.516-0.709c-0.245-0.337-0.717-0.411-1.053-0.166zM19.906 17.251l-0.228 0.166c-0.671 0.488-1.616 0.34-2.104-0.331l-2.127-2.924c-0.349-0.48-0.367-1.096-0.108-1.589l0.488 0.671c0.245 0.337 0.716 0.412 1.052 0.166s0.411-0.716 0.166-1.052l-0.515-0.709c0.578-0.143 1.211 0.063 1.582 0.574l2.127 2.923c0.489 0.672 0.34 1.616-0.332 2.105z"></path>
</svg>
