<!-- Generated by IcoMoon.io -->
<svg version="1.1" xmlns="http://www.w3.org/2000/svg" width="32" height="32" viewBox="0 0 32 32">
<title>location1</title>
<path d="M16.047 9.933c-3.209 0-5.835 2.626-5.835 5.835s2.626 5.835 5.835 5.835c3.209 0 5.835-2.626 5.835-5.835s-2.626-5.835-5.835-5.835zM29.030 14.309c-0.729-6.127-5.544-10.941-11.525-11.525v-3.064h-2.918v3.064c-6.127 0.583-10.941 5.398-11.525 11.525h-3.064v2.918h3.064c0.729 6.127 5.543 10.941 11.525 11.525v3.064h2.918v-3.064c6.127-0.729 10.941-5.544 11.525-11.525h3.064v-2.918h-3.064zM16.047 25.98c-5.689 0-10.212-4.522-10.212-10.212s4.522-10.212 10.212-10.212 10.212 4.522 10.212 10.212-4.522 10.212-10.212 10.212z"></path>
</svg>
