<!-- Generated by IcoMoon.io -->
<svg version="1.1" xmlns="http://www.w3.org/2000/svg" width="32" height="32" viewBox="0 0 32 32">
<title>location_alt</title>
<path d="M31.369 0.121c-0.322-0.161-0.702-0.161-1.024 0v0l-29.713 14.857c-0.564 0.283-0.793 0.969-0.511 1.533 0.161 0.321 0.463 0.548 0.817 0.613l11.793 2.145 2.145 11.793c0.088 0.483 0.475 0.857 0.961 0.927 0.054 0.008 0.108 0.012 0.162 0.011 0.433 0 0.829-0.244 1.023-0.632l14.857-29.713c0.283-0.564 0.054-1.251-0.51-1.534zM16.51 27.279l-1.673-9.197c-0.086-0.464-0.45-0.828-0.914-0.914l-9.202-1.678 23.58-11.79-11.79 23.58z"></path>
</svg>
