<!-- Generated by IcoMoon.io -->
<svg version="1.1" xmlns="http://www.w3.org/2000/svg" width="32" height="32" viewBox="0 0 32 32">
<title>location-on-road</title>
<path d="M25.684 18.986c0.002-0.003 0.004-0.006 0.006-0.009 0.018-0.030-0.008 0.011-0.006 0.009zM25.69 12.547c-0.002-0.004-0.004-0.007-0.006-0.010 0.004 0.007 0.009 0.016 0.013 0.023-0.002-0.004-0.005-0.008-0.007-0.013zM25.914 3.334c0.025-0.030-0.026 0.029 0 0v0zM18.688 24.28c0.017-0.008 0.012-0.006 0 0v0zM29.728 1.032c-0.075-0.153-0.15-0.307-0.225-0.46-0.255 0.132-0.502 0.278-0.745 0.429-0.138 0.086-0.275 0.175-0.411 0.265l-0.179 0.121c-0.055-0.083-0.11-0.166-0.165-0.25l0.177-0.109c0.146-0.089 0.294-0.176 0.443-0.26 0.254-0.144 0.513-0.282 0.778-0.405-0.051-0.104-0.102-0.209-0.153-0.313-0.030-0.062-0.060-0.124-0.091-0.186-0.023-0.048-0.015-0.060-0.066-0.041-0.464 0.168-0.918 0.361-1.363 0.574-1.072 0.515-2.115 1.145-3.016 1.927-0.935 0.811-1.765 1.747-2.334 2.854-0.571 1.11-0.871 2.33-0.888 3.578-0.008 0.629 0.073 1.246 0.188 1.862 0.116 0.625 0.327 1.22 0.543 1.816 0.148 0.43 0.38 0.827 0.543 1.251 0.106 0.276 0.183 0.554 0.249 0.841 0.061 0.265 0.072 0.56 0.041 0.829-0.031 0.264-0.12 0.493-0.254 0.722-0.14 0.239-0.354 0.446-0.558 0.63-0.216 0.195-0.448 0.372-0.69 0.534-1.030 0.693-2.203 1.166-3.376 1.555-0.038 0.013-0.076 0.024-0.114 0.037l-2.411 4.971c0.033-0.011 0.066-0.021 0.099-0.032 0.581-0.193 1.158-0.397 1.73-0.617 0.245-0.095 0.489-0.192 0.732-0.291 0.020-0.008 0.067-0.029 0.067-0.029s0.032 0.078 0.046 0.109c0.124 0.281 0.247 0.561 0.371 0.841 0.051 0.116 0.102 0.232 0.153 0.347 0.009 0.020 0.017 0.040 0.026 0.060 0 0.001-0.174 0.081-0.21 0.097 0.008-0.004 0.016-0.007 0.022-0.010-0.006 0.003-0.015 0.007-0.028 0.013-0.958 0.439-1.938 0.833-2.928 1.192-0.356 0.129-0.715 0.253-1.074 0.373l-2.873 5.925c0.436-0.157 0.87-0.322 1.301-0.488 1.15-0.444 2.286-0.924 3.405-1.441 2.274-1.051 4.49-2.254 6.528-3.716 1.948-1.405 3.786-3.077 4.997-5.176 0.608-1.054 1.051-2.22 1.217-3.429 0.17-1.235 0.053-2.501-0.331-3.687-0.253-0.782-0.615-1.538-1.069-2.224-0.201-0.305-0.414-0.598-0.635-0.888-0.126-0.165-0.264-0.32-0.4-0.476-0.204-0.234-0.373-0.502-0.54-0.763-0.283-0.443-0.492-0.949-0.595-1.464-0.127-0.636-0.082-1.274 0.085-1.898 0.321-1.197 1.077-2.262 1.91-3.16 0.512-0.552 1.073-1.061 1.67-1.52 0.119-0.092 0.24-0.181 0.362-0.268 0.095-0.068 0.085-0.055 0.038-0.153zM25.723 18.919c0 0-0.013 0.024-0.033 0.058-0.005 0.007-0.006 0.009-0.006 0.009-0.535 0.812-1.165 1.527-1.899 2.166-0.692 0.602-1.445 1.121-2.22 1.609-0.229-0.39-0.458-0.78-0.687-1.171 0.971-0.556 1.916-1.168 2.736-1.936 0.404-0.379 0.762-0.79 1.087-1.239l0.076-0.1 0.946 0.602zM25.685 12.536c-0.008-0.014-0.011-0.021 0.006 0.010 0.016 0.029 0.014 0.025 0.007 0.013 0.554 1.005 0.934 2.117 0.929 3.275-0.335-0.006-0.67-0.013-1.004-0.019 0.042-0.86-0.182-1.714-0.526-2.496-0.19-0.433-0.432-0.84-0.666-1.25-0.203-0.354-0.379-0.714-0.55-1.084 0.13-0.059 0.26-0.117 0.39-0.176 0.084-0.038 0.318-0.145 0.318-0.145l0.021 0.044c0.154 0.297 0.312 0.586 0.489 0.87 0.197 0.318 0.402 0.631 0.586 0.957zM25.914 3.334c-0.582 0.671-1.104 1.381-1.468 2.196-0.341 0.763-0.535 1.592-0.521 2.429-0.217-0.003-0.434-0.006-0.652-0.009 0.032-1.115 0.387-2.195 0.956-3.15 0.289-0.485 0.632-0.932 1.002-1.359 0.089-0.103 0.184-0.2 0.278-0.299 0.034-0.035 0.137-0.15 0.137-0.15s0.211 0.205 0.305 0.295c0.001 0.001 0.002 0.002 0.003 0.003-0.014 0.014-0.027 0.029-0.040 0.044zM18.582 13.223c0-4.489-3.652-8.142-8.142-8.142s-8.142 3.652-8.142 8.142c0 1.316 0.314 2.559 0.87 3.66l7.271 14.995 7.272-14.997c0.556-1.1 0.869-2.343 0.869-3.658zM10.441 17.729c-2.484 0-4.506-2.021-4.506-4.505s2.021-4.506 4.506-4.506 4.506 2.021 4.506 4.506c-0 2.484-2.021 4.505-4.506 4.505z"></path>
</svg>
