<!-- Generated by IcoMoon.io -->
<svg version="1.1" xmlns="http://www.w3.org/2000/svg" width="36" height="32" viewBox="0 0 36 32">
<title>lock-open</title>
<path d="M26.598-0.467c-5.276 0.019-9.515 4.365-9.515 9.641v4.428h-14.069c-1.664 0-3.015 1.35-3.015 3.015v12.059c0 1.664 1.35 3.015 3.015 3.015h22.108c1.664 0 3.015-1.35 3.015-3.015v-12.059c0-1.664-1.35-3.015-3.015-3.015h-3.015v-4.465c0-2.487 1.991-4.553 4.478-4.579 2.512-0.025 4.566 2.016 4.566 4.522v5.024c0 0.835 0.672 1.507 1.507 1.507h2.010c0.835 0 1.507-0.672 1.507-1.507v-5.024c0-5.276-4.302-9.565-9.578-9.546z"></path>
</svg>
