<!-- Generated by IcoMoon.io -->
<svg version="1.1" xmlns="http://www.w3.org/2000/svg" width="28" height="32" viewBox="0 0 28 32">
<title>lock</title>
<path d="M25.122 13.602h-1.507v-4.522c0-5.263-4.283-9.546-9.546-9.546s-9.546 4.283-9.546 9.546v4.522h-1.507c-1.664 0-3.015 1.35-3.015 3.015v12.059c0 1.664 1.35 3.015 3.015 3.015h22.108c1.664 0 3.015-1.35 3.015-3.015v-12.059c0-1.664-1.35-3.015-3.015-3.015zM18.591 13.602h-9.044v-4.522c0-2.493 2.029-4.522 4.522-4.522s4.522 2.029 4.522 4.522v4.522z"></path>
</svg>
