<!-- Generated by IcoMoon.io -->
<svg version="1.1" xmlns="http://www.w3.org/2000/svg" width="32" height="32" viewBox="0 0 32 32">
<title>log-file-format</title>
<path d="M15.019 23.997c-1.061 0-1.679 1.009-1.679 2.358 0 1.36 0.638 2.318 1.689 2.318 1.061 0 1.668-1.009 1.668-2.359 0-1.246-0.597-2.317-1.678-2.317zM27.737 7.239c-0.002-0.147-0.049-0.293-0.15-0.408l-6.2-7.082c-0.001-0.002-0.003-0.003-0.005-0.004-0.037-0.041-0.079-0.075-0.125-0.105-0.013-0.009-0.027-0.017-0.041-0.025-0.040-0.021-0.081-0.039-0.124-0.052-0.012-0.003-0.022-0.008-0.034-0.011-0.047-0.011-0.095-0.018-0.145-0.018h-15.238c-0.695 0-1.261 0.566-1.261 1.261v29.635c0 0.695 0.566 1.261 1.261 1.261h20.807c0.696 0 1.261-0.566 1.261-1.261v-23.119c0-0.024-0.004-0.047-0.006-0.071zM11.465 29.805h-4.336v-6.941h1.576v5.623h2.76v1.318zM14.947 29.919c-2.060 0-3.265-1.555-3.265-3.532 0-2.081 1.328-3.636 3.378-3.636 2.132 0 3.296 1.596 3.296 3.512 0 2.276-1.38 3.656-3.409 3.656zM25.186 29.486c-0.485 0.165-1.401 0.391-2.318 0.391-1.267 0-2.183-0.319-2.822-0.937-0.639-0.598-0.989-1.504-0.978-2.524 0.010-2.307 1.689-3.625 3.965-3.625 0.896 0 1.586 0.175 1.926 0.34l-0.329 1.257c-0.381-0.165-0.855-0.299-1.617-0.299-1.308 0-2.297 0.742-2.297 2.245 0 1.432 0.896 2.276 2.184 2.276 0.36 0 0.648-0.041 0.772-0.103v-1.452h-1.071v-1.226h2.585v3.656h0zM5.675 20.945v-20.151h14.607v6.452c0 0.348 0.282 0.631 0.631 0.631h5.569l0.001 13.068h-20.808zM20.833 4.892h-0.893v1.524c0 0.276-0.223 0.499-0.499 0.499s-0.499-0.224-0.499-0.499v-1.524h-1.576v1.524c0 0.276-0.223 0.499-0.499 0.499s-0.499-0.224-0.499-0.499v-1.524h-1.945v1.524c0 0.276-0.224 0.499-0.499 0.499s-0.499-0.224-0.499-0.499v-1.524h-1.576v1.524c0 0.276-0.224 0.499-0.499 0.499s-0.499-0.224-0.499-0.499v-1.524h-0.42c-0.522 0-0.946 0.423-0.946 0.946v12.295c0 0.522 0.423 0.946 0.946 0.946h10.404c0.522 0 0.946-0.423 0.946-0.946v-12.295c-0.001-0.522-0.424-0.946-0.946-0.946zM20.991 18.133h-10.929v-9.458h10.929v9.458zM11.848 4.734c0-0.276-0.224-0.499-0.499-0.499s-0.499 0.224-0.499 0.499v0.158h0.998v-0.158h-0zM14.423 4.734c0-0.276-0.224-0.499-0.499-0.499s-0.499 0.224-0.499 0.499v0.158h0.998v-0.158h-0zM17.366 4.734c0-0.276-0.224-0.499-0.499-0.499s-0.499 0.224-0.499 0.499v0.158h0.998v-0.158h-0zM19.94 4.734c0-0.276-0.223-0.499-0.499-0.499s-0.499 0.224-0.499 0.499v0.158h0.998v-0.158h-0zM11.349 10.488h8.092c0.087 0 0.158-0.071 0.158-0.158s-0.070-0.158-0.158-0.158h-8.092c-0.087 0-0.158 0.071-0.158 0.158s0.071 0.158 0.158 0.158zM11.349 12.327h8.092c0.087 0 0.158-0.071 0.158-0.158s-0.070-0.158-0.158-0.158h-8.092c-0.087 0-0.158 0.071-0.158 0.158s0.071 0.158 0.158 0.158zM11.349 14.482h8.092c0.087 0 0.158-0.071 0.158-0.158s-0.070-0.158-0.158-0.158h-8.092c-0.087 0-0.158 0.071-0.158 0.158s0.071 0.158 0.158 0.158zM11.349 16.321h8.092c0.087 0 0.158-0.071 0.158-0.158s-0.070-0.158-0.158-0.158h-8.092c-0.087 0-0.158 0.071-0.158 0.158s0.071 0.158 0.158 0.158z"></path>
</svg>
