<!-- Generated by IcoMoon.io -->
<svg version="1.1" xmlns="http://www.w3.org/2000/svg" width="36" height="32" viewBox="0 0 36 32">
<title>low-vision</title>
<path d="M35.758 14.081c-3.541-6.009-10.145-10.026-17.67-10.026-1.788 0-3.524 0.227-5.178 0.654l-3.314-4.533c-0.477-0.682-1.417-0.848-2.099-0.371l-0.824 0.576c-0.682 0.477-0.848 1.417-0.371 2.099l2.709 3.668c-3.393 1.658-6.484 4.355-8.591 7.929-0.001 0.001-0.001 0.002-0.002 0.003-0.55 0.934-0.563 2.106 0 3.061 2.418 4.103 6.264 7.277 10.857 8.878l-7.8-11.143c0.561-0.844 1.146-1.581 1.786-2.265l-0.009 0.009 10.051 14.359c0.836 0.12 1.802 0.188 2.784 0.188 0.766 0 1.522-0.041 2.266-0.122l-0.092 0.008-11.932-17.046c0.694-0.47 1.493-0.922 2.328-1.309l0.108-0.045 15.817 22.393c0.477 0.682 1.417 0.848 2.099 0.371l0.824-0.576c0.682-0.477 0.848-1.417 0.371-2.099l-2.709-3.667c3.59-1.757 6.584-4.525 8.593-7.932 0.263-0.438 0.418-0.966 0.418-1.531s-0.155-1.093-0.426-1.544l0.008 0.014zM24.496 21.26l-1.197-1.71c1.55-2.045 1.74-4.795 0.553-7.014v0.002c0 1.485-1.204 2.689-2.689 2.689-1.497 0-2.689-1.215-2.689-2.689 0-1.485 1.204-2.689 2.689-2.689h0.002c-1.554-0.832-3.362-0.983-4.994-0.482l-1.198-1.711c0.965-0.378 2.016-0.585 3.116-0.585 4.721 0 8.542 3.82 8.542 8.542 0 2.167-0.806 4.144-2.134 5.649z"></path>
</svg>
