<!-- Generated by IcoMoon.io -->
<svg version="1.1" xmlns="http://www.w3.org/2000/svg" width="40" height="32" viewBox="0 0 40 32">
<title>luggage-cart</title>
<path d="M14.069 19.631h2.010v-14.069h-2.010c-1.11 0-2.010 0.9-2.010 2.010v10.049c0 1.11 0.9 2.010 2.010 2.010zM36.176 17.621v-10.049c0-1.11-0.9-2.010-2.010-2.010h-2.010v14.069h2.010c1.11 0 2.010-0.9 2.010-2.010zM39.191 23.651h-31.152v-23.113c0-0.555-0.45-1.005-1.005-1.005h-6.029c-0.555 0-1.005 0.45-1.005 1.005v2.010c0 0.555 0.45 1.005 1.005 1.005h3.015v23.113c0 0.555 0.45 1.005 1.005 1.005h5.209c-0.112 0.316-0.185 0.651-0.185 1.005 0 1.665 1.35 3.015 3.015 3.015s3.015-1.35 3.015-3.015c0-0.354-0.072-0.689-0.185-1.005h12.428c-0.112 0.316-0.185 0.651-0.185 1.005 0 1.665 1.35 3.015 3.015 3.015s3.015-1.35 3.015-3.015c0-0.354-0.072-0.689-0.185-1.005h5.209c0.555 0 1.005-0.45 1.005-1.005v-2.010c0-0.555-0.45-1.005-1.005-1.005zM30.147 5.562v-3.015c0-1.665-1.35-3.015-3.015-3.015h-6.029c-1.665 0-3.015 1.35-3.015 3.015v17.083h12.059v-14.069zM27.132 5.562h-6.029v-3.015h6.029v3.015z"></path>
</svg>
