<!-- Generated by IcoMoon.io -->
<svg version="1.1" xmlns="http://www.w3.org/2000/svg" width="32" height="32" viewBox="0 0 32 32">
<title>lyft</title>
<path d="M0 4.627h4.886v13.108c0 2.079 0.942 3.316 1.708 3.831-0.798 0.697-3.216 1.313-5.037-0.176-1.068-0.879-1.558-2.343-1.558-3.706v-13.057zM30.517 15.523v-1.382h1.495v-4.823h-1.639c-0.634-2.908-3.216-5.068-6.299-5.068-3.555 0-6.45 2.889-6.45 6.45v11.255c1.005 0.145 2.223-0.019 3.247-0.879 1.074-0.879 1.558-2.336 1.558-3.706v-0.421h2.437v-4.823h-2.437v-1.463c0-2.173 3.278-2.173 3.278 0v4.842c0 3.555 2.889 6.45 6.45 6.45v-4.805c-0.911 0-1.639-0.735-1.639-1.627zM12.034 9.306v7.097c0 0.967-1.495 0.967-1.495 0v-7.097h-4.824v8.334c0 1.495 0.503 3.392 2.826 4.013 2.324 0.615 3.655-0.666 3.655-0.666-0.132 0.842-0.911 1.463-2.192 1.589-0.973 0.1-2.211-0.226-2.826-0.49v4.415c1.576 0.471 3.235 0.615 4.874 0.295 2.958-0.572 4.823-3.040 4.823-6.331v-11.192h-4.842v0.031z"></path>
</svg>
