<!-- Generated by IcoMoon.io -->
<svg version="1.1" xmlns="http://www.w3.org/2000/svg" width="32" height="32" viewBox="0 0 32 32">
<title>m3u-file-format</title>
<path d="M27.737 7.239c-0.002-0.148-0.049-0.293-0.15-0.408l-6.2-7.082c-0.001-0.002-0.003-0.002-0.005-0.004-0.037-0.041-0.079-0.075-0.125-0.105-0.013-0.009-0.027-0.017-0.041-0.025-0.040-0.021-0.081-0.039-0.124-0.052-0.012-0.003-0.022-0.008-0.034-0.011-0.047-0.011-0.095-0.018-0.145-0.018h-15.238c-0.695 0-1.261 0.566-1.261 1.261v29.635c0 0.695 0.566 1.261 1.261 1.261h20.807c0.696 0 1.261-0.566 1.261-1.261v-23.119c0-0.024-0.004-0.047-0.006-0.070zM12.211 29.602l-0.1-2.572c-0.030-0.808-0.060-1.785-0.060-2.762h-0.030c-0.209 0.858-0.489 1.814-0.748 2.602l-0.818 2.622h-1.186l-0.718-2.602c-0.219-0.788-0.449-1.745-0.608-2.622h-0.020c-0.040 0.907-0.070 1.944-0.12 2.781l-0.12 2.552h-1.405l0.429-6.719h2.024l0.658 2.243c0.209 0.777 0.418 1.615 0.568 2.403h0.030c0.19-0.778 0.419-1.665 0.638-2.412l0.717-2.233h1.984l0.369 6.719h-1.486zM16.507 29.711c-0.837 0-1.545-0.219-1.924-0.459l0.309-1.136c0.269 0.139 0.887 0.399 1.506 0.399 0.787 0 1.186-0.378 1.186-0.867 0-0.638-0.638-0.927-1.306-0.927h-0.618v-1.086h0.588c0.509-0.010 1.156-0.199 1.156-0.748 0-0.388-0.319-0.678-0.957-0.678-0.528 0-1.087 0.229-1.356 0.389l-0.309-1.097c0.389-0.249 1.166-0.488 2.004-0.488 1.386 0 2.153 0.728 2.153 1.614 0 0.688-0.389 1.227-1.186 1.506v0.020c0.778 0.14 1.406 0.728 1.406 1.575-0 1.147-1.007 1.984-2.652 1.984zM25.877 26.651c0 2.074-1.047 3.061-2.801 3.061-1.695 0-2.692-0.937-2.692-3.081v-3.748h1.525v3.868c0 1.156 0.439 1.744 1.216 1.744 0.797 0 1.236-0.558 1.236-1.744v-3.868h1.516v3.768zM5.675 20.945v-20.151h14.607v6.452c0 0.348 0.282 0.631 0.631 0.631h5.569l0.001 13.068h-20.808zM15.531 6.035c-3.286 0-5.959 2.673-5.959 5.959s2.673 5.958 5.959 5.958c3.286 0 5.959-2.673 5.959-5.958s-2.673-5.959-5.959-5.959zM19.402 12.22l-5.478 3.498c-0.030 0.024-0.065 0.036-0.102 0.036l-0.072-0.017c-0.057-0.026-0.093-0.085-0.093-0.148v-6.996c0-0.062 0.036-0.121 0.093-0.148 0.057-0.029 0.125-0.021 0.175 0.018l5.477 3.497c0.039 0.033 0.062 0.081 0.062 0.13s-0.023 0.098-0.062 0.13z"></path>
</svg>
