<!-- Generated by IcoMoon.io -->
<svg version="1.1" xmlns="http://www.w3.org/2000/svg" width="32" height="32" viewBox="0 0 32 32">
<title>m4a-file-format-symbol</title>
<path d="M23.176 24.153h-0.020c-0.1 0.398-0.2 0.907-0.309 1.295l-0.399 1.425h1.485l-0.419-1.425c-0.12-0.398-0.239-0.897-0.339-1.295zM16.986 25.618l-0.867 1.416v0.020h1.456v-1.436c0-0.389 0.020-0.788 0.050-1.206h-0.040c-0.209 0.418-0.378 0.798-0.598 1.206zM27.737 7.239c-0.002-0.148-0.049-0.293-0.15-0.408l-6.2-7.082c-0.001-0.002-0.003-0.002-0.005-0.004-0.037-0.041-0.079-0.075-0.125-0.105-0.013-0.009-0.027-0.017-0.041-0.025-0.040-0.021-0.081-0.039-0.124-0.052-0.012-0.003-0.022-0.008-0.034-0.011-0.047-0.011-0.095-0.018-0.145-0.018h-15.238c-0.695 0-1.261 0.566-1.261 1.261v29.635c0 0.696 0.566 1.261 1.261 1.261h20.807c0.696 0 1.261-0.566 1.261-1.261v-23.119c-0-0.024-0.004-0.047-0.006-0.070zM12.481 29.735l-0.1-2.572c-0.030-0.808-0.060-1.785-0.060-2.762h-0.030c-0.209 0.858-0.489 1.815-0.748 2.602l-0.818 2.622h-1.186l-0.718-2.602c-0.219-0.788-0.449-1.744-0.608-2.622h-0.020c-0.040 0.907-0.070 1.944-0.12 2.782l-0.12 2.552h-1.405l0.429-6.719h2.024l0.658 2.243c0.209 0.777 0.419 1.615 0.568 2.402h0.030c0.19-0.777 0.419-1.664 0.638-2.412l0.717-2.233h1.984l0.369 6.719h-1.486zM19.788 28.19h-0.778v1.545h-1.436v-1.545h-2.871v-0.987l2.452-3.948h1.854v3.798h0.778v1.136zM24.671 29.735l-0.518-1.725h-1.924l-0.478 1.725h-1.575l2.053-6.719h1.994l2.083 6.719h-1.635zM5.675 20.945v-20.151h14.607v6.452c0 0.348 0.282 0.631 0.631 0.631h5.569l0.001 13.068h-20.808zM15.741 5.555c-0.451 0-0.892 0.046-1.318 0.134 0.254 0.295 0.427 0.597 0.543 0.872 0.254-0.036 0.511-0.060 0.775-0.060 3.073 0 5.572 2.5 5.572 5.573s-2.5 5.573-5.572 5.573c-2.491 0-4.604-1.643-5.316-3.901-0.060 0.005-0.12 0.011-0.18 0.011-0.302 0-0.582-0.059-0.834-0.156 0.69 2.859 3.263 4.992 6.33 4.992 3.594 0 6.518-2.924 6.518-6.518s-2.924-6.519-6.518-6.519zM15.741 13.827c0.967 0 1.753-0.786 1.753-1.753s-0.787-1.754-1.753-1.754c-0.967 0-1.753 0.787-1.753 1.754s0.787 1.753 1.753 1.753zM15.741 11.266c0.445 0 0.807 0.362 0.807 0.808s-0.362 0.807-0.807 0.807c-0.445 0-0.807-0.362-0.807-0.807s0.362-0.808 0.807-0.808zM12.488 7.558l0.865-0.512c-0.305-0.318-0.586-0.517-0.819-0.641-0.014 0.008-0.028 0.018-0.043 0.026l-0.003 1.127zM10.487 10.222l0.002-1.991c-0.496 0.676-0.863 1.449-1.070 2.286 0.176-0.093 0.362-0.172 0.562-0.222 0.168-0.042 0.338-0.066 0.506-0.072zM10.756 12.809c0.686-0.17 1.164-0.688 1.167-1.218h0.003l0.017-6.288c0 0 1.369-0.073 2.71 2.028 0 0 0.003-1.084-1.028-1.878-2.011-1.406-2.006-1.737-2.006-1.737-0.383 0.045-0.422 0.336-0.422 0.336v6.622c-0.288-0.1-0.632-0.117-0.984-0.031-0.781 0.194-1.291 0.839-1.141 1.439 0.087 0.553 0.904 0.925 1.685 0.728z"></path>
</svg>
