<!-- Generated by IcoMoon.io -->
<svg version="1.1" xmlns="http://www.w3.org/2000/svg" width="32" height="32" viewBox="0 0 32 32">
<title>m4v-file-format-variant</title>
<path d="M16.645 25.238l-0.866 1.413v0.020h1.453v-1.433c0-0.388 0.020-0.786 0.050-1.204h-0.040c-0.209 0.418-0.378 0.796-0.597 1.204zM27.737 7.239c-0.002-0.148-0.049-0.293-0.15-0.408l-6.2-7.082c-0.001-0.002-0.003-0.002-0.005-0.004-0.037-0.041-0.079-0.075-0.125-0.105-0.013-0.009-0.027-0.017-0.041-0.025-0.040-0.021-0.081-0.039-0.124-0.052-0.012-0.003-0.022-0.008-0.034-0.011-0.047-0.011-0.095-0.018-0.145-0.018h-15.238c-0.695 0-1.261 0.566-1.261 1.261v29.635c0 0.696 0.566 1.261 1.261 1.261h20.807c0.696 0 1.261-0.566 1.261-1.261v-23.119c-0-0.024-0.004-0.047-0.006-0.070zM12.149 29.347l-0.099-2.567c-0.030-0.806-0.060-1.781-0.060-2.757h-0.030c-0.209 0.856-0.487 1.811-0.746 2.597l-0.816 2.617h-1.184l-0.716-2.597c-0.219-0.786-0.448-1.741-0.607-2.617h-0.020c-0.040 0.906-0.070 1.941-0.119 2.776l-0.12 2.547h-1.403l0.428-6.706h2.020l0.657 2.239c0.209 0.776 0.418 1.612 0.567 2.398h0.030c0.189-0.776 0.418-1.662 0.637-2.408l0.716-2.229h1.98l0.368 6.706h-1.483zM19.442 27.805h-0.776v1.543h-1.433v-1.543h-2.866v-0.985l2.448-3.94h1.851v3.791h0.776v1.134zM23.67 29.347h-1.771l-2.149-6.706h1.662l0.816 2.836c0.229 0.796 0.438 1.563 0.597 2.398h0.030c0.169-0.806 0.378-1.602 0.607-2.369l0.856-2.866h1.612l-2.259 6.707zM5.675 20.945v-20.151h14.607v6.452c0 0.348 0.282 0.631 0.631 0.631h5.569l0.001 13.068h-20.808zM11.597 8.593h0.786v0.851h-0.786v-0.851zM11.597 12.418h0.786v0.851h-0.786v-0.851zM11.597 10.518h0.786v0.851h-0.786v-0.851zM11.597 14.343h0.786v0.851h-0.786v-0.851zM21.616 12.005c0-1.528-0.583-2.919-1.532-3.974v7.948c0.949-1.056 1.532-2.447 1.532-3.974zM12.309 16.931c0.955 0.651 2.108 1.033 3.348 1.033s2.393-0.382 3.348-1.033zM9.698 12.005c0 1.528 0.583 2.918 1.531 3.974v-7.949c-0.949 1.056-1.531 2.447-1.531 3.975zM15.656 6.046c-1.189 0-2.296 0.354-3.226 0.957h6.453c-0.931-0.603-2.037-0.957-3.227-0.957zM12.668 7.788h5.829v3.854h-5.829v-3.854zM12.668 12.291h5.829v3.933h-5.829v-3.933zM18.895 8.593h0.787v0.851h-0.787v-0.851zM18.895 12.418h0.787v0.851h-0.787v-0.851zM18.895 10.518h0.787v0.851h-0.787v-0.851zM18.895 14.343h0.787v0.851h-0.787v-0.851z"></path>
</svg>
