<!-- Generated by IcoMoon.io -->
<svg version="1.1" xmlns="http://www.w3.org/2000/svg" width="32" height="32" viewBox="0 0 32 32">
<title>mach-o-file-format</title>
<path d="M11.954 25.336h-0.011c-0.057 0.228-0.114 0.518-0.177 0.74l-0.227 0.815h0.848l-0.239-0.815c-0.068-0.228-0.137-0.512-0.194-0.74zM27.736 7.239c-0.001-0.147-0.048-0.293-0.15-0.408l-6.2-7.082c-0.002-0.002-0.004-0.003-0.005-0.004-0.037-0.041-0.080-0.075-0.126-0.105-0.013-0.008-0.027-0.017-0.041-0.025-0.039-0.021-0.081-0.039-0.124-0.052-0.012-0.004-0.022-0.008-0.034-0.012-0.047-0.011-0.095-0.018-0.145-0.018h-15.237c-0.696 0-1.261 0.566-1.261 1.261v29.635c0 0.695 0.565 1.261 1.261 1.261h20.807c0.695 0 1.261-0.566 1.261-1.261v-23.119c0-0.024-0.004-0.047-0.007-0.071zM5.675 0.794h14.607v6.452c0 0.348 0.283 0.631 0.631 0.631h5.57v13.068h-20.807v-20.151zM9.021 28.523l-0.057-1.469c-0.017-0.461-0.034-1.019-0.034-1.577h-0.017c-0.12 0.489-0.279 1.036-0.427 1.486l-0.467 1.497h-0.677l-0.41-1.486c-0.125-0.45-0.256-0.997-0.347-1.497h-0.011c-0.023 0.518-0.040 1.11-0.069 1.588l-0.068 1.457h-0.803l0.245-3.837h1.155l0.376 1.281c0.119 0.444 0.239 0.922 0.325 1.373h0.017c0.109-0.445 0.239-0.951 0.365-1.378l0.41-1.275h1.133l0.211 3.837-0.847-0zM12.808 28.523l-0.296-0.985h-1.098l-0.274 0.985h-0.9l1.173-3.837h1.138l1.189 3.837h-0.933zM16.076 27.863c0.262 0 0.552-0.057 0.723-0.126l0.131 0.678c-0.159 0.080-0.518 0.165-0.985 0.165-1.326 0-2.010-0.825-2.010-1.918 0-1.309 0.934-2.038 2.095-2.038 0.45 0 0.791 0.091 0.945 0.171l-0.177 0.689c-0.177-0.074-0.421-0.142-0.729-0.142-0.689 0-1.224 0.416-1.224 1.27 0.001 0.768 0.456 1.252 1.23 1.252zM20.666 28.523h-0.865v-1.605h-1.429v1.605h-0.871v-3.837h0.871v1.475h1.429v-1.475h0.865v3.837zM22.71 27.317h-1.491v-0.575h1.491v0.575zM24.953 28.586c-1.138 0-1.805-0.86-1.805-1.953 0-1.149 0.734-2.009 1.867-2.009 1.178 0 1.822 0.882 1.822 1.941 0 1.258-0.763 2.021-1.884 2.021zM24.993 25.313c-0.586 0-0.928 0.558-0.928 1.304 0 0.751 0.353 1.281 0.934 1.281 0.587 0 0.922-0.558 0.922-1.303-0-0.689-0.33-1.281-0.928-1.281zM8.781 8.13c0.126 0 0.231-0.029 0.314-0.087s0.144-0.141 0.183-0.252l-0.3-0.051c-0.017 0.057-0.042 0.099-0.073 0.125s-0.072 0.039-0.12 0.039c-0.069 0-0.127-0.024-0.174-0.075s-0.071-0.119-0.072-0.209h0.76c0-0.231-0.049-0.404-0.146-0.516s-0.231-0.169-0.401-0.169c-0.151 0-0.276 0.054-0.375 0.161s-0.148 0.257-0.148 0.446c0 0.158 0.037 0.29 0.113 0.394 0.095 0.129 0.242 0.194 0.44 0.194zM8.607 7.238c0.043-0.048 0.097-0.072 0.163-0.072 0.062 0 0.115 0.023 0.158 0.068s0.066 0.113 0.068 0.201h-0.453c-0-0.083 0.021-0.149 0.064-0.197zM9.751 8.104l0.234-0.355 0.233 0.355h0.371l-0.422-0.601 0.387-0.541h-0.355l-0.214 0.314-0.201-0.314h-0.37l0.395 0.553-0.412 0.589zM11.235 8.13c0.126 0 0.231-0.029 0.314-0.087s0.144-0.141 0.184-0.252l-0.301-0.051c-0.017 0.057-0.042 0.099-0.073 0.125s-0.072 0.039-0.12 0.039c-0.069 0-0.127-0.024-0.173-0.075s-0.072-0.119-0.073-0.209h0.761c0-0.231-0.048-0.404-0.146-0.516s-0.231-0.169-0.401-0.169c-0.151 0-0.277 0.054-0.375 0.161s-0.149 0.257-0.149 0.446c0 0.158 0.037 0.29 0.113 0.394 0.095 0.129 0.242 0.194 0.441 0.194zM11.060 7.238c0.043-0.048 0.097-0.072 0.162-0.072 0.062 0 0.115 0.023 0.158 0.068s0.066 0.113 0.068 0.201h-0.453c-0-0.083 0.021-0.149 0.065-0.197zM12.633 7.834c-0.037 0.033-0.084 0.049-0.142 0.049-0.076 0-0.137-0.028-0.183-0.083s-0.068-0.151-0.068-0.288c0-0.122 0.022-0.209 0.067-0.26s0.104-0.077 0.179-0.077c0.057 0 0.103 0.015 0.139 0.045s0.059 0.075 0.068 0.134l0.298-0.054c-0.036-0.123-0.095-0.214-0.177-0.274s-0.192-0.090-0.332-0.090c-0.17 0-0.306 0.052-0.405 0.158s-0.15 0.253-0.15 0.442c0 0.187 0.050 0.332 0.149 0.437s0.233 0.158 0.4 0.158c0.147 0 0.265-0.035 0.352-0.105s0.147-0.172 0.177-0.309l-0.296-0.050c-0.015 0.079-0.041 0.135-0.077 0.168zM20.63 8.076h-1.786v-1.193c0-0.621-0.506-1.126-1.126-1.126h-9.511c-0.621 0-1.126 0.505-1.126 1.126v8.572c0 0.621 0.505 1.126 1.126 1.126h1.861c-0.026 0.003-0.050 0.011-0.076 0.013v1.18c0 0.621 0.505 1.126 1.126 1.126h9.51c0.621 0 1.126-0.505 1.126-1.126v-8.572c0-0.621-0.505-1.126-1.126-1.126zM8.208 16.205c-0.414 0-0.751-0.336-0.751-0.751v-8.572c0-0.414 0.337-0.751 0.751-0.751h9.51c0.414 0 0.75 0.337 0.75 0.751v8.572c0 0.414-0.337 0.751-0.75 0.751h-9.51zM21.381 17.774c0 0.414-0.337 0.751-0.751 0.751h-9.51c-0.414 0-0.75-0.337-0.75-0.751v-1.193h7.349c0.621 0 1.126-0.505 1.126-1.126v-7.003h1.786c0.414 0 0.751 0.337 0.751 0.751v8.572zM12.215 11.814c-0.154-0.775 0.582-1.229 0.582-1.229s-0.287-0.414-0.769-0.521c-0.481-0.106-0.722 0.027-0.962 0.127s-0.361 0.1-0.361 0.1c-0.348 0-0.602-0.368-1.263-0.2-0.456 0.115-0.936 0.641-1.023 1.269s0.101 1.43 0.461 2.052c0.361 0.622 0.729 0.856 0.989 0.862s0.521-0.187 0.835-0.234c0.314-0.046 0.507 0.114 0.815 0.201s0.415 0.006 0.769-0.295c0.354-0.301 0.676-1.163 0.676-1.163s-0.595-0.193-0.749-0.969zM10.692 9.956c0 0 0.501-0.047 0.842-0.394 0.342-0.348 0.225-0.886 0.225-0.886s-0.479 0.084-0.8 0.418c-0.321 0.335-0.267 0.862-0.267 0.862z"></path>
</svg>
