<!-- Generated by IcoMoon.io -->
<svg version="1.1" xmlns="http://www.w3.org/2000/svg" width="32" height="32" viewBox="0 0 32 32">
<title>mach-o-file</title>
<path d="M12.217 25.242h-0.010c-0.052 0.208-0.104 0.473-0.161 0.675l-0.208 0.743h0.774l-0.218-0.743c-0.062-0.208-0.125-0.467-0.177-0.675zM24.11 25.221c-0.535 0-0.846 0.509-0.846 1.189 0 0.685 0.322 1.168 0.852 1.168 0.535 0 0.841-0.509 0.841-1.189 0-0.628-0.301-1.168-0.846-1.168zM27.473 6.69l-5.95-6.785c-0.207-0.236-0.506-0.371-0.819-0.371h-15.029c-0.696 0-1.261 0.565-1.261 1.261v29.635c0 0.697 0.565 1.261 1.261 1.261h20.807c0.697 0 1.261-0.565 1.261-1.261v-23.020c0-0.264-0.096-0.52-0.27-0.718zM9.542 28.15l-0.052-1.34c-0.015-0.421-0.031-0.93-0.031-1.439h-0.015c-0.109 0.447-0.255 0.945-0.389 1.355l-0.426 1.366h-0.618l-0.374-1.355c-0.114-0.41-0.234-0.909-0.317-1.366h-0.010c-0.021 0.473-0.036 1.013-0.062 1.449l-0.062 1.329h-0.732l0.223-3.5h1.054l0.343 1.168c0.109 0.405 0.218 0.841 0.296 1.251h0.015c0.099-0.405 0.218-0.867 0.332-1.257l0.374-1.163h1.033l0.192 3.5h-0.774zM12.996 28.15l-0.27-0.898h-1.002l-0.249 0.898h-0.821l1.070-3.5h1.039l1.085 3.5h-0.852zM15.977 27.548c0.239 0 0.504-0.052 0.66-0.114l0.12 0.618c-0.146 0.073-0.473 0.151-0.898 0.151-1.21 0-1.833-0.753-1.833-1.75 0-1.194 0.852-1.859 1.911-1.859 0.41 0 0.722 0.083 0.862 0.156l-0.161 0.628c-0.161-0.068-0.384-0.13-0.665-0.13-0.628 0-1.117 0.379-1.117 1.158-0 0.701 0.415 1.143 1.122 1.143zM20.163 28.15h-0.789v-1.465h-1.304v1.465h-0.795v-3.5h0.795v1.345h1.304v-1.345h0.789v3.5zM22.027 27.049h-1.36v-0.524h1.36v0.524zM24.074 28.207c-1.038 0-1.646-0.784-1.646-1.781 0-1.049 0.67-1.833 1.703-1.833 1.075 0 1.662 0.805 1.662 1.771 0 1.148-0.696 1.844-1.719 1.844zM5.675 20.944v0-20.15h14.607v6.452c0 0.348 0.282 0.631 0.631 0.631h5.569l0.001 13.068h-20.808zM15.894 12.615c-0.015-1.471 1.2-2.177 1.254-2.212-0.682-0.999-1.746-1.135-2.124-1.151-0.905-0.092-1.765 0.533-2.225 0.533-0.458 0-1.166-0.519-1.917-0.505-0.986 0.015-1.895 0.573-2.403 1.457-1.025 1.778-0.262 4.412 0.736 5.854 0.488 0.706 1.070 1.499 1.834 1.47 0.736-0.029 1.014-0.476 1.903-0.476s1.14 0.476 1.918 0.461c0.792-0.015 1.293-0.719 1.778-1.427 0.56-0.819 0.791-1.612 0.805-1.652-0.018-0.008-1.544-0.593-1.559-2.35zM14.431 8.297c0.405-0.492 0.679-1.175 0.604-1.855-0.584 0.024-1.292 0.389-1.711 0.88-0.376 0.435-0.705 1.13-0.617 1.798 0.652 0.051 1.318-0.331 1.724-0.822z"></path>
</svg>
