<!-- Generated by IcoMoon.io -->
<svg version="1.1" xmlns="http://www.w3.org/2000/svg" width="32" height="32" viewBox="0 0 32 32">
<title>magic</title>
<path d="M14.069 5.562l1.005-2.010 2.010-1.005-2.010-1.005-1.005-2.010-1.005 2.010-2.010 1.005 2.010 1.005 1.005 2.010zM5.024 9.582l1.674-3.349 3.35-1.675-3.35-1.675-1.674-3.349-1.674 3.349-3.35 1.675 3.35 1.675 1.674 3.349zM27.132 17.621l-1.674 3.349-3.35 1.675 3.35 1.675 1.674 3.349 1.674-3.349 3.35-1.675-3.35-1.675-1.674-3.349zM31.568 5.451l-5.329-5.329c-0.392-0.393-0.906-0.589-1.421-0.589s-1.029 0.196-1.421 0.589l-22.807 22.807c-0.785 0.785-0.785 2.058 0 2.842l5.329 5.329c0.393 0.392 0.907 0.588 1.421 0.588s1.029-0.196 1.421-0.588l22.807-22.808c0.785-0.784 0.785-2.057 0-2.841zM22.576 12.312l-3.198-3.197 5.439-5.439 3.197 3.197-5.439 5.439z"></path>
</svg>
