<!-- Generated by IcoMoon.io -->
<svg version="1.1" xmlns="http://www.w3.org/2000/svg" width="32" height="32" viewBox="0 0 32 32">
<title>magnet</title>
<path d="M10.306 9.582h-9.553c-0.415 0-0.754-0.339-0.754-0.754v-5.024c0-1.25 1.011-2.261 2.261-2.261h6.532c1.25 0 2.261 1.011 2.261 2.261v5.024c0.006 0.415-0.333 0.754-0.747 0.754zM32.163 8.828v-5.031c0-1.25-1.011-2.261-2.261-2.261h-6.532c-1.25 0-2.261 1.011-2.261 2.261v5.024c0 0.415 0.339 0.754 0.754 0.754h9.546c0.415 0.006 0.754-0.333 0.754-0.747zM21.863 11.592c-0.415 0-0.754 0.339-0.754 0.754v3.266c0 8.045-10.049 8.033-10.049 0v-3.266c0-0.415-0.339-0.754-0.754-0.754h-9.546c-0.421 0-0.754 0.339-0.754 0.76 0.006 1.344 0.038 2.531 0 3.348 0 9.459 8.554 15.488 16.129 15.488s16.022-6.029 16.022-15.494c-0.038-0.804-0.013-2.073 0-3.341 0-0.421-0.333-0.76-0.754-0.76h-9.54z"></path>
</svg>
