<!-- Generated by IcoMoon.io -->
<svg version="1.1" xmlns="http://www.w3.org/2000/svg" width="27" height="32" viewBox="0 0 27 32">
<title>mailchimp</title>
<path d="M26.791 19.865c-0.194-0.414-0.563-0.699-1.027-0.809-0.155-0.708-0.369-1.055-0.389-1.107 0.082-0.093 0.161-0.187 0.178-0.209 0.654-0.812 0.227-2.001-0.891-2.282-0.629-0.605-1.199-0.89-1.667-1.124-0.448-0.224-0.269-0.136-0.69-0.326-0.112-0.547-0.149-1.82-0.327-2.713-0.16-0.803-0.481-1.385-0.977-1.768-0.198-0.43-0.477-0.863-0.812-1.181 1.56-2.392 1.971-4.754 0.828-5.991-0.509-0.551-1.264-0.812-2.168-0.812-1.273 0-2.838 0.519-4.418 1.478 0 0-1.029-0.828-1.051-0.845-4.401-3.466-16.85 11.851-12.456 15.199l1.134 0.867c-0.712 1.981 0.278 4.342 2.342 5.1 0.456 0.168 0.951 0.249 1.464 0.22 0 0 3.334 6.115 10.369 6.117 8.138 0.003 10.209-7.959 10.231-8.030 0 0.001 0.66-0.974 0.325-1.784zM1.264 16.362c-0.892-1.505 0.66-4.597 1.764-6.354 2.729-4.343 7.271-7.77 9.334-7.281l0.567-0.217c0.002 0.002 1.549 1.31 1.551 1.311 1.066-0.64 2.423-1.292 3.693-1.422-0.773 0.174-1.714 0.575-2.829 1.257-0.027 0.016-2.639 1.779-4.235 3.361-0.87 0.862-4.362 5.050-4.359 5.046 0.638-1.208 1.059-1.801 2.069-3.071 0.572-0.718 1.181-1.418 1.805-2.063 0.29-0.3 0.583-0.588 0.876-0.861 0.202-0.188 0.405-0.369 0.606-0.541 0.093-0.080 0.186-0.157 0.278-0.233l0.001-0.001-2.047-1.69 0.108 0.758 1.488 1.311s-1.316 0.886-1.971 1.445c-2.625 2.24-5.2 5.678-6.159 9.025l0.046-0.002c-0.477 0.263-0.951 0.685-1.365 1.259-0.010-0.003-1.070-0.781-1.221-1.036zM5.604 22.648c-1.572 0-2.847-1.342-2.847-2.997s1.274-2.997 2.847-2.997c0.408 0 0.795 0.090 1.146 0.253 0 0 0.605 0.305 0.775 1.747 0.177-0.45 0.266-0.82 0.266-0.82 0.203 0.62 0.307 1.273 0.266 1.932 0.168-0.224 0.349-0.645 0.349-0.645 0.314 1.842-1.030 3.528-2.801 3.528zM9.109 12.063s1.224-2.328 3.915-3.867c-0.2-0.032-0.69 0.030-0.776 0.040 0.489-0.42 1.397-0.701 2.024-0.828-0.183-0.117-0.621-0.146-0.838-0.152-0.064-0.002-0.063-0.001-0.139 0.002 0.59-0.33 1.684-0.524 2.679-0.349-0.125-0.166-0.408-0.287-0.607-0.346-0.018-0.005-0.095-0.025-0.095-0.025l0.075-0.018c0.599-0.116 1.299 0.009 1.853 0.232-0.063-0.146-0.217-0.316-0.332-0.423-0.012-0.011-0.081-0.061-0.081-0.061 0.579 0.12 1.134 0.373 1.552 0.66-0.057-0.11-0.197-0.295-0.295-0.395 0.553 0.158 1.175 0.553 1.441 1.119 0.006 0.013 0.023 0.059 0.025 0.065-1.049-0.806-4.11-0.578-7.175 1.408-1.402 0.909-2.431 1.904-3.224 2.938zM25.647 21.254c-0.037 0.072-0.423 2.16-2.629 3.895-2.787 2.189-6.448 1.968-7.83 0.741-0.739-0.691-1.058-1.679-1.058-1.679s-0.084 0.557-0.098 0.776c-0.557-0.948-0.51-2.105-0.51-2.105s-0.297 0.555-0.433 0.865c-0.41-1.044-0.198-2.122-0.198-2.122l-0.324 0.484s-0.152-1.181 0.221-2.165c0.399-1.051 1.173-1.815 1.326-1.911-0.587-0.187-1.264-0.722-1.265-0.723 0 0 0.269 0.018 0.456-0.025 0 0-1.187-0.85-1.396-2.152 0.172 0.212 0.533 0.453 0.533 0.453-0.117-0.34-0.188-1.098-0.078-1.844l0.001-0.001c0.225-1.424 1.399-2.352 2.728-2.341 1.416 0.012 2.365 0.31 3.552-0.785 0.251-0.232 0.452-0.431 0.805-0.509 0.037-0.008 0.129-0.047 0.318-0.047 0.192 0 0.376 0.043 0.545 0.144 0.644 0.383 0.782 1.382 0.852 2.115 0.256 2.718 0.153 2.234 1.252 2.794 0.525 0.267 1.114 0.521 1.786 1.239 0.002 0.002 0.005 0.006 0.005 0.006h0.008c0.566 0.014 0.857 0.459 0.597 0.783-1.899 2.267-4.551 3.353-7.506 3.444-0.122 0.003-0.397 0.009-0.398 0.009-1.194 0.036-1.582 1.58-0.833 2.509 0.474 0.587 1.384 0.78 2.134 0.782l0.011-0.004c3.231 0.065 6.478-2.221 7.039-3.482 0.004-0.009 0.038-0.089 0.038-0.089-0.13 0.153-3.277 3.116-7.102 3.008 0 0-0.418-0.009-0.812-0.1-0.519-0.121-0.914-0.349-1.065-0.867 0.317 0.063 0.719 0.104 1.185 0.104 2.761 0 4.75-1.255 4.543-1.272-0.008 0-0.016 0.002-0.030 0.005-0.322 0.075-3.641 1.36-5.739 0.701 0.005-0.064 0.015-0.126 0.030-0.182 0.187-0.625 0.518-0.538 1.055-0.561 1.914-0.063 3.459-0.545 4.616-1.095 1.234-0.586 2.175-1.341 2.514-1.722 0.44 0.74 0.437 1.691 0.437 1.691s0.172-0.060 0.401-0.060c0.715 0.001 0.862 0.642 0.32 1.294zM16.27 22.115c0-0.003-0.001-0.006-0.001-0.009 0.001 0.003 0.001 0.006 0.001 0.009zM16.27 22.102c-0.001-0.008-0.001-0.016-0.001-0.025-0.001-0.041-0.002-0.084 0-0.127-0.001 0.046-0.001 0.089 0 0.127 0.001 0.008 0.001 0.017 0.001 0.025zM16.277 22.193c0 0.001 0 0.003 0.001 0.004 0-0.001 0-0.003-0.001-0.004zM16.279 22.201c0.012 0.099 0.032 0.145 0.035 0.151-0.014-0.031-0.026-0.084-0.035-0.151zM12.182 3.281l0.18-0.555 0.307 1.113-0.379-0.123-0.108-0.436zM13.587 4.394l-0.227-0.791 0.626 0.525c-0.141 0.090-0.274 0.18-0.399 0.266zM16.27 22.102c-0.001-0.008-0.001-0.016-0.001-0.025 0.001 0.008 0.001 0.017 0.001 0.025zM16.269 22.077c-0.001-0.041-0.002-0.084 0-0.127-0.002 0.047-0.002 0.089 0 0.127zM16.27 22.115c0-0.003-0.001-0.006-0.001-0.009zM16.278 22.197c0-0.001 0-0.003-0.001-0.004zM16.279 22.201c0.012 0.099 0.032 0.145 0.035 0.151-0.014-0.031-0.026-0.084-0.035-0.151zM19.551 13.495c-0.004-0.211 0.030-0.56 0.228-0.625h0.001c0.34-0.118 0.79 0.752 0.811 1.525-0.269-0.134-0.584-0.192-0.909-0.163-0.082-0.249-0.121-0.484-0.131-0.737zM12.899 4.888l-0.854-0.715 1.292 0.394c-0.166 0.118-0.314 0.226-0.438 0.32zM14.639 15.373c-0.214 0.082-0.366 0.145-0.44 0.134-0.119-0.018-0.004-0.235 0.256-0.447 0.523-0.417 1.241-0.546 1.855-0.318 0.269 0.099 0.57 0.296 0.729 0.527 0.060 0.087 0.076 0.153 0.052 0.181-0.048 0.057-0.22-0.020-0.474-0.119-0.65-0.242-1.129-0.28-1.977 0.041zM15.553 16.286c-0.145 0.059-0.239 0.104-0.278 0.073s-0.001-0.152 0.135-0.283c0.118-0.114 0.241-0.178 0.381-0.237 0.022-0.009 0.045-0.018 0.069-0.024 0.065-0.018 0.131-0.040 0.203-0.050 0.573-0.097 0.992 0.22 0.938 0.313-0.025 0.043-0.131 0.033-0.289 0.023-0.328-0.023-0.673-0.017-1.159 0.185zM5.349 18.208c-0.116 0.025-0.051 0.011-0.166 0.043-0.020 0.005-0.036 0.010-0.051 0.017l0.003-0.001c-0.036 0.017-0.070 0.028-0.102 0.046-0.027 0.015-0.256 0.117-0.442 0.344-0.251 0.311-0.342 0.718-0.326 1.11 0.015 0.381 0.127 0.591 0.148 0.642 0.087 0.186-0.116 0.224-0.301 0.025l-0.001-0.001c-0.148-0.156-0.243-0.395-0.289-0.607-0.187-0.876 0.203-1.757 1.106-2.108 0.050-0.020 0.109-0.032 0.157-0.046h-0.001c0.092-0.028 0.422-0.094 0.758-0.042 0.369 0.057 0.693 0.242 0.9 0.482l0.001 0.001c0.159 0.18 0.278 0.435 0.257 0.661v0.001c-0.008 0.094-0.050 0.229-0.134 0.264-0.031 0.013-0.063 0.006-0.085-0.016-0.062-0.060-0.014-0.184-0.163-0.396-0.199-0.281-0.647-0.55-1.269-0.419zM7.25 20.165c0.118 0.68-0.377 1.288-0.975 1.3-0.419 0.009-0.647-0.253-0.607-0.31 0.019-0.027 0.083-0.015 0.181-0.001 0.534 0.083 0.858-0.242 0.936-0.583 0.001-0.006 0.022-0.097 0.021-0.16 0.004-0.055-0.002-0.11-0.010-0.161-0.063-0.353-0.468-0.42-0.729-0.7-0.234-0.254-0.188-0.579-0.041-0.735 0.176-0.174 0.429-0.11 0.426-0.049 0 0.033-0.061 0.057-0.136 0.109-0.098 0.069-0.111 0.136-0.086 0.25 0.016 0.063 0.045 0.104 0.105 0.152 0.219 0.173 0.807 0.295 0.914 0.887zM20.62 15.049c0.162 0.025 0.265 0.225 0.23 0.448s-0.194 0.382-0.356 0.356c-0.162-0.025-0.265-0.225-0.23-0.448s0.194-0.381 0.356-0.356zM18.841 15.696c0.089-0.163 0.342-0.195 0.565-0.073s0.331 0.353 0.242 0.515c-0.089 0.163-0.342 0.195-0.565 0.073s-0.332-0.352-0.242-0.515z"></path>
</svg>
