<!-- Generated by IcoMoon.io -->
<svg version="1.1" xmlns="http://www.w3.org/2000/svg" width="36" height="32" viewBox="0 0 36 32">
<title>mail-bulk</title>
<path d="M10.049 27.67c-1.608 0-3.216-1.407-4.020-2.010-4.020-2.814-5.225-3.819-6.029-4.422v8.441c0 1.11 0.9 2.010 2.010 2.010h16.078c1.11 0 2.010-0.9 2.010-2.010v-8.441c-0.804 0.603-2.010 1.608-6.029 4.422-0.804 0.603-2.412 2.010-4.020 2.010zM18.088 15.611h-16.078c-1.11 0-2.010 0.9-2.010 2.010v1.005c1.608 1.206 1.407 1.206 7.235 5.426 0.603 0.402 1.809 1.608 2.814 1.608s2.211-1.206 2.814-1.407c5.828-4.221 5.627-4.221 7.235-5.426v-1.206c0-1.11-0.9-2.010-2.010-2.010zM34.167 9.582h-20.098c-1.11 0-2.010 0.9-2.010 2.010v2.010h6.029c2.086 0 3.805 1.597 4.001 3.631l0.018-0.014v8.441h12.059c1.11 0 2.010-0.9 2.010-2.010v-12.059c0-1.11-0.9-2.010-2.010-2.010zM32.157 17.621h-4.020v-4.020h4.020v4.020zM10.049 11.592c0-2.216 1.803-4.020 4.020-4.020h14.069v-6.029c0-1.11-0.9-2.010-2.010-2.010h-20.098c-1.11 0-2.010 0.9-2.010 2.010v12.059h6.029v-2.010z"></path>
</svg>
