<!-- Generated by IcoMoon.io -->
<svg version="1.1" xmlns="http://www.w3.org/2000/svg" width="12" height="32" viewBox="0 0 12 32">
<title>male</title>
<path d="M6.029-0.467c2.22 0 4.020 1.8 4.020 4.020s-1.8 4.020-4.020 4.020-4.020-1.8-4.020-4.020 1.8-4.020 4.020-4.020zM9.044 8.577h-0.713c-1.426 0.656-3.115 0.684-4.602 0h-0.713c-1.665 0-3.015 1.35-3.015 3.015v8.542c0 0.832 0.675 1.507 1.507 1.507h1.005v8.542c0 0.832 0.675 1.507 1.507 1.507h4.020c0.832 0 1.507-0.675 1.507-1.507v-8.542h1.005c0.832 0 1.507-0.675 1.507-1.507v-8.542c0-1.665-1.35-3.015-3.015-3.015z"></path>
</svg>
