<!-- Generated by IcoMoon.io -->
<svg version="1.1" xmlns="http://www.w3.org/2000/svg" width="25" height="32" viewBox="0 0 25 32">
<title>mandalorian</title>
<path d="M12.767 31.683c-0.062-0.205-0.106-0.994-0.087-1.544 0.035-0.998 0.062-1.553 0.088-1.806 0.040-0.389 0.18-1.301 0.206-1.343 0.038-0.060 0.025-1.75-0.015-2.081-0.020-0.162-0.040-0.747-0.043-1.302-0.008-1.034-0.033-1.264-0.171-1.555-0.069-0.146-0.077-0.241-0.062-0.718 0.010-0.302 0-0.661-0.021-0.798-0.129-0.815-0.217-1.74-0.204-2.129 0.013-0.384 0.027-0.449 0.129-0.607 0.192-0.296 0.409-0.882 0.541-1.462 0.142-0.619 0.244-1.079 0.288-1.303 0.056-0.278 0.153-0.61 0.274-0.945 0.143-0.393 0.156-0.967 0.023-0.967-0.019 0-0.087 0.077-0.151 0.17s-0.299 0.301-0.521 0.462c-0.526 0.382-0.735 0.59-0.795 0.79-0.058 0.195-0.064 0.454-0.010 0.487 0.021 0.013 0.081 0.151 0.133 0.307 0.102 0.307 0.117 0.636 0.045 0.965-0.025 0.111-0.066 0.344-0.092 0.517s-0.062 0.406-0.078 0.516c-0.018 0.11-0.061 0.231-0.097 0.267-0.060 0.060-0.072 0.057-0.129-0.033-0.035-0.055-0.075-0.189-0.090-0.298s-0.102-0.447-0.193-0.749c-0.206-0.685-0.221-1.014-0.060-1.316 0.058-0.109 0.105-0.239 0.105-0.29 0-0.15-0.138-0.334-0.465-0.621-0.443-0.388-0.542-0.497-0.643-0.71-0.107-0.226-0.192-0.255-0.285-0.097-0.112 0.189-0.163 0.572-0.187 1.383l-0.022 0.762 0.123 0.141c0.202 0.232 0.758 1.033 0.865 1.245 0.214 0.423 0.273 0.734 0.277 1.48 0.004 0.744 0.060 1.429 0.126 1.552 0.023 0.041 0.032 0.085 0.021 0.095s0.026 0.131 0.081 0.268c0.055 0.137 0.114 0.391 0.129 0.564s0.064 0.467 0.107 0.651c0.14 0.6 0.174 0.884 0.15 1.265-0.012 0.205-0.033 0.695-0.046 1.088-0.082 2.623-0.116 3.642-0.128 3.844-0.008 0.127-0.025 0.723-0.038 1.323-0.023 1.024-0.082 1.719-0.152 1.799-0.040 0.046-0.507-0.308-0.786-0.596-0.235-0.243-0.252-0.301-0.178-0.625 0.044-0.189 0.142-1.149 0.209-2.049 0.023-0.3 0.051-0.66 0.063-0.798 0.052-0.588 0.104-1.278 0.164-2.184 0.035-0.531 0.084-1.032 0.108-1.114s0.056-0.621 0.071-1.2l0.027-1.053-0.142-0.27c-0.108-0.206-0.306-0.436-0.83-0.963-0.379-0.381-0.744-0.773-0.811-0.87l-0.123-0.177 0.047-0.685c0.068-0.987 0.069-3.050 0.001-3.709l-0.056-0.546-0.206-0.284c-0.368-0.508-0.364-0.487-0.391-2.090-0.006-0.381-0.024-0.722-0.040-0.758-0.052-0.117-0.192-0.167-0.536-0.192-0.556-0.039-0.688-0.119-1.498-0.914-0.386-0.379-0.775-0.752-0.864-0.828-0.176-0.152-0.175-0.125-0.035-0.605l0.085-0.292-0.106-0.191c-0.058-0.105-0.131-0.22-0.163-0.256-0.084-0.095-0.345-0.684-0.376-0.847-0.020-0.104-0.006-0.168 0.055-0.245 0.14-0.18 0.214-0.357 0.28-0.674 0.146-0.703 0.486-1.639 0.666-1.835 0.2-0.218 0.484-0.066 0.591 0.316 0.084 0.301 0.086 0.615 0.006 1.165-0.033 0.231-0.062 0.545-0.062 0.698-0.001 0.252 0.012 0.295 0.141 0.464 0.209 0.275 0.485 0.465 0.955 0.661 0.107 0.045 0.24 0.125 0.296 0.179 0.702 0.673 1.169 1.016 1.441 1.058 0.325 0.050 0.501 0.285 0.631 0.841 0.082 0.355 0.251 0.7 0.343 0.7 0.037 0 0.131-0.040 0.209-0.087 0.124-0.077 0.141-0.109 0.141-0.262-0.001-0.233-0.073-0.884-0.126-1.12-0.023-0.104-0.049-0.255-0.058-0.336s-0.038-0.242-0.065-0.357c-0.16-0.701-0.229-0.971-0.258-1.008-0.097-0.127-0.256-0.641-0.31-1-0.103-0.698-0.249-0.894-0.811-1.092-0.291-0.103-0.558-0.259-0.837-0.489-0.072-0.060-0.252-0.202-0.399-0.318s-0.277-0.222-0.289-0.236c-0.011-0.014-0.087-0.072-0.169-0.127-0.392-0.265-0.555-0.438-0.707-0.751l-0.153-0.315-0.028-1.63 0.434-0.411c0.248-0.235 0.533-0.462 0.665-0.529 0.208-0.106 0.28-0.119 0.714-0.129 0.536-0.012 0.636 0.001 0.732 0.098s0.085 0.402-0.018 0.534c-0.046 0.059-0.084 0.124-0.084 0.146 0 0.036-0.164 0.308-0.34 0.565-0.043 0.062-0.134 0.336-0.149 0.428 1.284 0.841 1.353 0.237 0.884 1.82l0.716 0.16c0.195-0.544 0.406-1.084 0.541-1.647 0.018-0.479-0.752-0.263-0.967-0.545-0.146-0.373 0.197-0.891 0.381-1.206 0.1-0.147 0.416-0.295 0.554-0.261 0.055 0.014 0.261-0.022 0.463-0.080 0.2-0.058 0.413-0.105 0.474-0.105s0.23-0.036 0.376-0.081c0.229-0.070 0.283-0.073 0.399-0.025 0.073 0.030 0.238 0.068 0.365 0.085s0.296 0.070 0.377 0.12 0.222 0.111 0.315 0.136c0.158 0.043 0.188 0.036 0.443-0.105l0.273-0.151 0.672-0.026c0.656-0.025 0.679-0.030 0.958-0.168l0.288-0.144 0.155 0.090c0.11 0.064 0.197 0.171 0.305 0.376 0.148 0.283 0.15 0.288 0.086 0.463-0.055 0.153-0.056 0.207-0.006 0.401 0.031 0.123 0.091 0.29 0.132 0.371s0.078 0.194 0.082 0.252c0.020 0.272-0.002 0.333-0.151 0.435-0.136 0.092-0.438 0.497-0.438 0.587 0 0.020-0.030 0.106-0.067 0.19-0.317 0.723-0.425 0.852-0.896 1.066-0.578 0.264-0.772 0.326-1.018 0.326-0.195 0-0.251 0.016-0.285 0.079-0.023 0.043-0.139 0.149-0.257 0.233-0.128 0.092-0.239 0.212-0.275 0.3-0.034 0.080-0.104 0.163-0.156 0.183s-0.122 0.068-0.154 0.107c-0.033 0.039-0.23 0.191-0.44 0.338s-0.431 0.315-0.494 0.374-0.13 0.107-0.15 0.107-0.080 0.046-0.134 0.104c-0.082 0.087-0.094 0.133-0.072 0.289 0.014 0.102 0.054 0.268 0.089 0.369 0.083 0.239 0.082 0.494-0.003 0.664-0.090 0.18-0.056 0.418 0.085 0.602 0.126 0.165 0.136 0.286 0.045 0.555-0.038 0.113-0.066 0.342-0.067 0.56-0.001 0.307 0.014 0.394 0.092 0.526 0.075 0.128 0.114 0.156 0.203 0.146 0.124-0.014 0.145-0.066 0.296-0.761 0.137-0.63 0.233-0.749 0.864-1.073 0.185-0.095 0.469-0.249 0.63-0.342s0.426-0.232 0.588-0.308c0.419-0.198 0.694-0.41 0.956-0.733 0.447-0.552 0.627-1.019 0.807-2.091 0.035-0.206 0.090-0.355 0.18-0.485 0.081-0.118 0.149-0.29 0.182-0.459 0.064-0.333 0.179-0.57 0.35-0.723 0.295-0.263 0.377-0.068 0.288 0.683-0.029 0.243-0.069 0.649-0.090 0.903l-0.038 0.462 0.559 0.514 0.007 0.529c0.004 0.291 0.030 0.599 0.058 0.684l0.052 0.155-0.404 0.394c-0.536 0.523-0.809 0.875-1.053 1.357-0.111 0.219-0.235 0.447-0.275 0.504-0.137 0.195-0.406 0.817-0.55 1.273l-0.144 0.453-0.438 0.408c-0.241 0.224-0.5 0.455-0.576 0.513-0.192 0.146-0.268 0.323-0.268 0.627 0 0.187 0.027 0.312 0.1 0.456 0.055 0.109 0.114 0.246 0.131 0.303s0.062 0.139 0.099 0.182c0.088 0.1 0.121 1.012 0.052 1.458-0.043 0.281-0.228 0.755-0.295 0.755-0.112 0-0.255 0.582-0.318 1.303-0.011 0.127-0.039 0.373-0.062 0.546s-0.060 0.627-0.085 1.008c-0.048 0.767-0.012 1.179 0.129 1.454 0.214 0.42 0.033 0.797-0.693 1.435l-0.249 0.219 0.004 0.326c0.002 0.18 0.035 0.43 0.072 0.557 0.29 1.004 0.297 1.063 0.275 2.332-0.029 1.658-0.016 2.529 0.040 2.773 0.026 0.116 0.057 0.314 0.068 0.441s0.041 0.335 0.068 0.462c0.030 0.142 0.049 0.692 0.050 1.428l0.001 1.197-0.114 0.165c-0.17 0.246-0.949 0.85-0.973 0.772zM14.622 28.85c-0.011-0.019-0.021-0.431-0.021-0.916 0-0.883-0.056-1.73-0.142-2.164-0.025-0.127-0.051-0.609-0.057-1.071-0.009-0.749-0.088-1.531-0.166-1.657-0.041-0.067-0.19-1.109-0.19-1.338-0.001-0.266 0.064-0.377 0.332-0.573 0.26-0.191 0.305-0.197 0.344-0.045 0.018 0.069 0.091 0.353 0.163 0.63 0.247 0.95 0.26 1.022 0.254 1.365-0.006 0.363-0.008 0.385-0.109 1.114-0.062 0.444-0.073 0.778-0.065 1.786 0.011 1.218-0.040 2.244-0.128 2.592-0.045 0.175-0.176 0.344-0.215 0.278zM10.163 26.489c-0.015-0.024-0.063-0.329-0.109-0.678s-0.094-0.654-0.109-0.678c-0.014-0.024-0.043-0.207-0.062-0.408s-0.057-0.469-0.084-0.595c-0.062-0.301-0.21-1.215-0.215-1.323-0.002-0.046-0.021-0.254-0.044-0.462-0.042-0.39-0.053-1.738-0.014-1.777 0.060-0.060 0.416 0.173 0.712 0.467l0.332 0.33-0.028 0.406c-0.016 0.224-0.038 0.642-0.049 0.931s-0.031 0.62-0.042 0.735c-0.011 0.116-0.038 0.588-0.059 1.050-0.050 1.093-0.122 1.965-0.166 2.010-0.020 0.019-0.048 0.015-0.063-0.009zM4.687 9.746c1.323 0.803 1.12 0.889 1.789 1.109 0.817 0.269 1.185 0.448 1.454 1.060-2.742 2.27-4.334 3.636-4.818 4.448-1.948 3.267-0.376 6.38 3.941 5.477-0.891 1.836-4.897 1.798-6.198-0.308-1.55-2.509-1.387-7.43 3.831-11.786zM17.926 20.989c3.559 0.432 5.17-2.37 2.923-5.604 0 0-1.688-1.843-4.037-4.268 0.187-0.97 0.596-2.017 1.92-3.38 5.602 3.989 5.778 8.894 5.807 9.381 0.268 4.433-4.94 5.723-6.613 3.872z"></path>
</svg>
