<!-- Generated by IcoMoon.io -->
<svg version="1.1" xmlns="http://www.w3.org/2000/svg" width="32" height="32" viewBox="0 0 32 32">
<title>manometer</title>
<path d="M27.894 11.569c0-6.533-5.315-11.847-11.847-11.847s-11.847 5.315-11.847 11.847c0 4.7 2.751 8.77 6.728 10.683v4.925h1.327v4.639h1.881v-4.639h3.824v4.639h1.881v-4.639h1.327v-4.925c3.976-1.913 6.728-5.983 6.728-10.683zM19.286 25.296h-6.477v-2.331c1.030 0.293 2.116 0.45 3.239 0.45s2.209-0.157 3.239-0.45zM16.047 21.535c-5.496 0-9.967-4.471-9.967-9.967s4.471-9.967 9.967-9.967 9.967 4.471 9.967 9.967-4.471 9.967-9.967 9.967zM16.047 3.42c-4.217 0-7.647 3.43-7.647 7.647h1.881c0-3.18 2.587-5.767 5.767-5.767s5.767 2.587 5.767 5.767h1.881c0-4.217-3.43-7.647-7.647-7.647zM16.987 13.734v-4.929h-1.881v4.929c-1.112 0.39-1.912 1.449-1.912 2.693 0 1.573 1.28 2.853 2.853 2.853s2.853-1.28 2.853-2.853c0-1.244-0.8-2.303-1.912-2.693zM16.047 17.399c-0.536 0-0.972-0.436-0.972-0.972s0.436-0.972 0.972-0.972 0.972 0.436 0.972 0.972c0 0.536-0.436 0.972-0.972 0.972z"></path>
</svg>
