<!-- Generated by IcoMoon.io -->
<svg version="1.1" xmlns="http://www.w3.org/2000/svg" width="18" height="32" viewBox="0 0 18 32">
<title>map-pin</title>
<path d="M7.034 19.439v9.841l1.383 2.074c0.298 0.447 0.956 0.447 1.254 0l1.382-2.074v-9.841c-0.652 0.121-1.323 0.192-2.010 0.192s-1.357-0.072-2.010-0.192zM9.044-0.467c-4.995 0-9.044 4.049-9.044 9.044s4.049 9.044 9.044 9.044 9.044-4.049 9.044-9.044-4.049-9.044-9.044-9.044zM9.044 4.306c-2.355 0-4.271 1.916-4.271 4.271 0 0.416-0.338 0.754-0.754 0.754s-0.754-0.338-0.754-0.754c0-3.186 2.593-5.778 5.778-5.778 0.416 0 0.754 0.338 0.754 0.754s-0.338 0.754-0.754 0.754z"></path>
</svg>
