<!-- Generated by IcoMoon.io -->
<svg version="1.1" xmlns="http://www.w3.org/2000/svg" width="32" height="32" viewBox="0 0 32 32">
<title>map-navigation</title>
<path d="M7.756 28.337l3.057-2.751-2.897 0.995-0.16 1.755zM6.454 24.54l1.203 1.286 2.897-0.995-4.1-0.291zM10.674 19.882c-0.557-0.184-1.198-0.289-1.863-0.289-3.392 0-6.142 2.75-6.142 6.142s2.75 6.142 6.142 6.142c2.726 0 5.038-1.777 5.84-4.235l0.012-0.043c0.19-0.564 0.3-1.214 0.3-1.89 0-2.723-1.784-5.029-4.246-5.814l-0.043-0.012zM12.91 24.72v0 0c-0.011 0.027-0.023 0.050-0.038 0.072l0.001-0.001c-0.021 0.032-0.045 0.059-0.073 0.083l-0.001 0-5.266 4.738c-0.070 0.064-0.164 0.103-0.267 0.103-0.221 0-0.399-0.179-0.399-0.399 0-0.013 0.001-0.025 0.002-0.038l-0 0.002 0.26-2.849-1.953-2.087c-0.067-0.071-0.108-0.167-0.108-0.273 0-0.221 0.179-0.399 0.399-0.399 0.010 0 0.020 0 0.030 0.001l-0.001-0 7.063 0.501c0.165 0.008 0.304 0.116 0.357 0.264l0.001 0.003v0.004c0.014 0.039 0.022 0.083 0.022 0.13 0 0.053-0.010 0.103-0.029 0.149l0.001-0.003zM26.013 23.266c-0.207 0.017-0.369 0.188-0.369 0.398 0 0.011 0 0.022 0.001 0.032l-0-0.001c0.006 0.075 0.009 0.152 0.009 0.228 0 0.001 0 0.002 0 0.003 0 0.33-0.055 0.647-0.157 0.942l0.006-0.020c-0.013 0.038-0.021 0.082-0.021 0.128 0 0.221 0.179 0.399 0.399 0.399 0.175 0 0.324-0.112 0.378-0.269l0.001-0.003c0.122-0.351 0.193-0.756 0.193-1.178 0-0.001 0-0.002 0-0.003v0c0-0.096-0.004-0.194-0.011-0.29-0.017-0.207-0.189-0.368-0.399-0.368-0.011 0-0.021 0-0.032 0.001l0.001-0zM24.438 14.327c-0.198 0.026-0.349 0.193-0.349 0.396 0 0.221 0.179 0.399 0.399 0.399 0.020 0 0.041-0.002 0.060-0.004l-0.002 0c0.6-0.086 1.092-0.478 1.317-1.010l0.004-0.011c0.020-0.046 0.032-0.1 0.032-0.156 0-0.221-0.179-0.399-0.399-0.399-0.167 0-0.31 0.102-0.37 0.248l-0.001 0.003c-0.12 0.284-0.377 0.489-0.686 0.534l-0.005 0.001zM19.818 14.336c-0.002 0-0.003 0-0.005 0-0.44 0-0.86 0.085-1.244 0.24l0.022-0.008c-0.151 0.059-0.255 0.204-0.255 0.372 0 0.221 0.179 0.399 0.399 0.399 0.054 0 0.105-0.011 0.151-0.030l-0.003 0.001c0.276-0.112 0.595-0.177 0.93-0.177 0.002 0 0.003 0 0.005 0h0.224c0.221 0 0.399-0.179 0.399-0.399s-0.179-0.399-0.399-0.399v0zM17.188 15.613c-0.301 0.38-0.523 0.836-0.636 1.333l-0.004 0.022c-0.006 0.026-0.009 0.055-0.009 0.085 0 0.221 0.179 0.399 0.399 0.399 0.191 0 0.35-0.133 0.39-0.312l0-0.003c0.088-0.396 0.258-0.742 0.491-1.036l-0.004 0.005c0.053-0.067 0.086-0.153 0.086-0.247 0-0.221-0.179-0.399-0.399-0.399-0.127 0-0.24 0.059-0.313 0.151l-0.001 0.001zM21.602 15.134h1.331c0.221 0 0.399-0.179 0.399-0.399s-0.179-0.399-0.399-0.399v0h-1.331c-0.221 0-0.399 0.179-0.399 0.399s0.179 0.399 0.399 0.399v0zM16.632 26.819h-1.331c-0.221 0-0.399 0.179-0.399 0.399s0.179 0.399 0.399 0.399v0h1.331c0.221 0 0.399-0.179 0.399-0.399s-0.179-0.399-0.399-0.399v0zM22.414 26.819h-1.331c-0.221 0-0.399 0.179-0.399 0.399s0.179 0.399 0.399 0.399v0h1.331c0.221 0 0.399-0.179 0.399-0.399s-0.179-0.399-0.399-0.399v0zM24.78 25.997c-0.272 0.266-0.597 0.479-0.958 0.621l-0.020 0.007c-0.152 0.059-0.257 0.204-0.257 0.373 0 0.221 0.179 0.399 0.399 0.399 0.052 0 0.102-0.010 0.148-0.028l-0.003 0.001c0.485-0.19 0.9-0.462 1.248-0.802l-0.001 0.001c0.074-0.072 0.119-0.173 0.119-0.285 0-0.221-0.179-0.399-0.399-0.399-0.108 0-0.206 0.043-0.278 0.112l0-0zM25.994 11.181c0-0.221-0.179-0.399-0.399-0.399s-0.399 0.179-0.399 0.399v0 1.218c0 0.221 0.179 0.399 0.399 0.399s0.399-0.179 0.399-0.399v0zM23.281 20.266c-0.157-0.023-0.338-0.037-0.522-0.037h-0.863c-0.221 0-0.399 0.179-0.399 0.399s0.179 0.399 0.399 0.399v0h0.863c0.145 0 0.287 0.010 0.426 0.031l-0.016-0.002c0.018 0.003 0.038 0.004 0.059 0.004 0.221 0 0.399-0.179 0.399-0.399 0-0.202-0.15-0.369-0.344-0.395l-0.002-0zM17.982 19.447c-0.259-0.269-0.46-0.596-0.582-0.96l-0.005-0.018c-0.051-0.165-0.203-0.284-0.382-0.284-0.221 0-0.399 0.179-0.399 0.399 0 0.047 0.008 0.092 0.023 0.133l-0.001-0.003c0.167 0.501 0.431 0.931 0.772 1.286l-0.001-0.001c0.073 0.076 0.175 0.122 0.288 0.122 0.221 0 0.399-0.179 0.399-0.399 0-0.108-0.043-0.205-0.112-0.277l0 0zM20.336 20.229h-0.518c-0.001 0-0.001 0-0.002 0-0.247 0-0.485-0.035-0.71-0.1l0.018 0.004c-0.032-0.010-0.070-0.015-0.109-0.015-0.221 0-0.399 0.179-0.399 0.399 0 0.182 0.122 0.335 0.288 0.384l0.003 0.001c0.273 0.080 0.586 0.126 0.909 0.126 0.001 0 0.001 0 0.002 0h0.518c0.221 0 0.399-0.179 0.399-0.399s-0.179-0.399-0.399-0.399v0zM19.523 26.819h-1.331c-0.221 0-0.399 0.179-0.399 0.399s0.179 0.399 0.399 0.399v0h1.331c0.221 0 0.399-0.179 0.399-0.399s-0.179-0.399-0.399-0.399v0zM24.89 20.906c-0.064-0.046-0.144-0.073-0.231-0.073-0.221 0-0.399 0.179-0.399 0.399 0 0.134 0.066 0.253 0.168 0.325l0.001 0.001c0.32 0.228 0.586 0.51 0.789 0.835l0.007 0.012c0.072 0.113 0.197 0.188 0.339 0.188 0.221 0 0.399-0.179 0.399-0.399 0-0.077-0.022-0.149-0.059-0.209l0.001 0.002c-0.267-0.43-0.606-0.79-1.003-1.073l-0.011-0.008zM25.724-0.186c-0 0-0 0-0.001 0-2.027 0-3.67 1.643-3.67 3.67 0 1.655 1.096 3.055 2.602 3.512l0.026 0.007 0.652 3.064c0.040 0.182 0.2 0.316 0.391 0.316s0.351-0.134 0.39-0.314l0-0.003 0.652-3.064c1.532-0.464 2.628-1.863 2.628-3.519 0-2.027-1.643-3.67-3.67-3.67-0 0-0.001 0-0.001 0h0z"></path>
</svg>
