<!-- Generated by IcoMoon.io -->
<svg version="1.1" xmlns="http://www.w3.org/2000/svg" width="36" height="32" viewBox="0 0 36 32">
<title>map-marked-alt</title>
<path d="M18.088-0.467c-4.371 0-7.914 3.543-7.914 7.914 0 3.533 5.172 9.974 7.154 12.311 0.401 0.474 1.119 0.474 1.52 0 1.982-2.338 7.154-8.778 7.154-12.311 0-4.371-3.543-7.914-7.914-7.914zM18.088 10.084c-1.457 0-2.638-1.181-2.638-2.638s1.181-2.638 2.638-2.638 2.638 1.181 2.638 2.638-1.181 2.638-2.638 2.638zM1.264 13.096c-0.747 0.305-1.263 1.025-1.264 1.866v15.722c0 0.711 0.718 1.197 1.378 0.933l8.671-3.947v-14.639c-0.555-1.004-1.009-1.981-1.335-2.915l-7.451 2.98zM18.088 22.122c-0.884 0-1.72-0.388-2.293-1.065-1.235-1.457-2.548-3.116-3.736-4.818v11.431l12.059 4.020v-15.45c-1.188 1.701-2.501 3.361-3.736 4.818-0.573 0.676-1.409 1.065-2.293 1.065zM34.798 9.655l-8.671 3.947v18.088l8.785-3.514c0.747-0.304 1.264-1.025 1.264-1.866v0-15.722c0-0.711-0.718-1.197-1.378-0.933z"></path>
</svg>
