<!-- Generated by IcoMoon.io -->
<svg version="1.1" xmlns="http://www.w3.org/2000/svg" width="32" height="32" viewBox="0 0 32 32">
<title>map-signs</title>
<path d="M31.862 4.852l-2.72-2.721c-0.377-0.377-0.888-0.588-1.421-0.588h-9.633v-1.005c0-0.555-0.45-1.005-1.005-1.005h-2.010c-0.555 0-1.005 0.45-1.005 1.005v1.005h-10.551c-0.832 0-1.507 0.675-1.507 1.507v5.024c0 0.832 0.675 1.507 1.507 1.507h24.204c0.533 0 1.044-0.212 1.421-0.588l2.72-2.72c0.392-0.393 0.392-1.029 0-1.421zM14.069 30.685c0 0.555 0.45 1.005 1.005 1.005h2.010c0.555 0 1.005-0.45 1.005-1.005v-7.034h-4.020v7.034zM28.64 13.602h-10.551v-2.010h-4.020v2.010h-9.633c-0.533 0-1.044 0.212-1.421 0.588l-2.72 2.721c-0.393 0.392-0.393 1.029 0 1.421l2.72 2.72c0.377 0.377 0.888 0.588 1.421 0.588h24.204c0.832 0 1.507-0.675 1.507-1.507v-5.024c0-0.832-0.675-1.507-1.507-1.507z"></path>
</svg>
