<!-- Generated by IcoMoon.io -->
<svg version="1.1" xmlns="http://www.w3.org/2000/svg" width="36" height="32" viewBox="0 0 36 32">
<title>map</title>
<path d="M35.173 1.543c-0.123 0-0.25 0.023-0.374 0.073l-10.681 3.947-10.803-3.814c-0.379-0.13-0.816-0.206-1.271-0.206h-0c-0.42 0-0.84 0.066-1.244 0.197l-9.536 3.317c-0.747 0.304-1.263 1.025-1.264 1.866v21.751c0 0.577 0.473 1.006 1.004 1.006 0.123 0 0.249-0.023 0.374-0.073l10.68-3.947 10.803 3.813c0.38 0.131 0.817 0.207 1.272 0.207 0.445 0 0.872-0.072 1.272-0.205l-0.028 0.008 9.536-3.317c0.747-0.304 1.264-1.025 1.264-1.866v0-21.751c0-0.577-0.473-1.006-1.004-1.006zM14.069 5.212l8.039 2.838v17.961l-8.039-2.838v-17.961zM3.015 25.789v-18.15l8.039-2.797v17.975l-0.040 0.014-7.999 2.957zM33.162 23.583l-8.039 2.797v-17.974l0.040-0.015 7.999-2.956v18.149z"></path>
</svg>
