<!-- Generated by IcoMoon.io -->
<svg version="1.1" xmlns="http://www.w3.org/2000/svg" width="40" height="32" viewBox="0 0 40 32">
<title>markdown</title>
<path d="M37.297 27.979h-34.399c-1.598 0-2.898-1.3-2.898-2.898v-18.939c0-1.598 1.3-2.898 2.898-2.898h34.398c1.598 0 2.898 1.3 2.898 2.898v18.939c0.001 1.598-1.299 2.898-2.898 2.898zM9.663 22.182v-7.537l3.865 4.831 3.865-4.831v7.537h3.865v-13.142h-3.865l-3.865 4.831-3.865-4.831h-3.865v13.141h3.865zM35.558 15.611h-3.865v-6.571h-3.865v6.571h-3.865l5.798 6.764 5.798-6.764z"></path>
</svg>
