<!-- Generated by IcoMoon.io -->
<svg version="1.1" xmlns="http://www.w3.org/2000/svg" width="32" height="32" viewBox="0 0 32 32">
<title>marker</title>
<path d="M5.901 17.749c-3.192 3.192-5.339 7.431-5.881 12.157l-0.009 0.095-0.002 0.014c-0.107 0.96 0.704 1.771 1.664 1.665 4.827-0.547 9.072-2.695 12.269-5.891l4.736-4.736-8.040-8.040-4.736 4.736zM30.492 1.198c-2.22-2.22-5.82-2.22-8.040 0l-1.367 1.367-2.296-2.296c-0.981-0.981-2.572-0.981-3.552 0l-6.539 6.539c-0.393 0.393-0.393 1.029 0 1.421l1.421 1.421c0.393 0.393 1.029 0.393 1.421 0l5.474-5.474 1.23 1.23-6.185 6.185 8.040 8.040 10.394-10.394c2.22-2.22 2.22-5.82 0-8.040z"></path>
</svg>
