<!-- Generated by IcoMoon.io -->
<svg version="1.1" xmlns="http://www.w3.org/2000/svg" width="32" height="32" viewBox="0 0 32 32">
<title>mars-double</title>
<path d="M21.354-0.467h-4.962c-0.672 0-1.005 0.81-0.534 1.288l1.061 1.061-3.059 3.059c-1.394-0.879-3.046-1.388-4.817-1.388-4.993 0-9.044 4.051-9.044 9.044s4.051 9.044 9.044 9.044 9.044-4.051 9.044-9.044c0-1.771-0.509-3.423-1.388-4.817l3.059-3.059 1.061 1.061c0.151 0.151 0.345 0.22 0.527 0.22 0.389 0 0.76-0.301 0.76-0.754v-4.962c0-0.415-0.339-0.754-0.754-0.754zM9.044 17.621c-2.77 0-5.024-2.255-5.024-5.024s2.255-5.024 5.024-5.024 5.024 2.255 5.024 5.024-2.255 5.024-5.024 5.024zM31.403 9.576h-4.962c-0.672 0-1.005 0.81-0.534 1.287l1.061 1.061-3.059 3.059c-1.143-0.716-2.449-1.187-3.863-1.338-0.132 1.369-0.515 2.72-1.156 3.976 0.069 0 0.138-0.006 0.201-0.006 2.77 0 5.024 2.255 5.024 5.024s-2.255 5.024-5.024 5.024-5.024-2.255-5.024-5.024c0-0.069 0-0.138 0.006-0.201-1.256 0.641-2.606 1.030-3.976 1.156 0.477 4.553 4.321 8.096 8.994 8.096 4.993 0 9.044-4.051 9.044-9.044 0-1.771-0.509-3.423-1.388-4.817l3.059-3.059 1.061 1.061c0.151 0.151 0.339 0.22 0.527 0.22 0.389 0 0.76-0.301 0.76-0.754v-4.962c0-0.421-0.339-0.76-0.754-0.76z"></path>
</svg>
