<!-- Generated by IcoMoon.io -->
<svg version="1.1" xmlns="http://www.w3.org/2000/svg" width="24" height="32" viewBox="0 0 24 32">
<title>mars</title>
<path d="M23.364 3.553h-4.962c-0.672 0-1.005 0.81-0.534 1.288l1.061 1.061-5.068 5.068c-1.394-0.879-3.046-1.388-4.817-1.388-4.993 0-9.044 4.051-9.044 9.044s4.051 9.044 9.044 9.044 9.044-4.051 9.044-9.044c0-1.771-0.509-3.423-1.388-4.817l5.068-5.068 1.061 1.061c0.477 0.477 1.288 0.138 1.288-0.534v-4.962c0-0.415-0.339-0.754-0.754-0.754zM9.044 23.651c-2.77 0-5.024-2.255-5.024-5.024s2.255-5.024 5.024-5.024 5.024 2.255 5.024 5.024-2.255 5.024-5.024 5.024z"></path>
</svg>
