<!-- Generated by IcoMoon.io -->
<svg version="1.1" xmlns="http://www.w3.org/2000/svg" width="30" height="32" viewBox="0 0 30 32">
<title>mars-stroke-h</title>
<path d="M29.908 15.078l-3.511-3.511c-0.477-0.477-1.288-0.138-1.288 0.534v1.501h-1.495v-1.256c0-0.415-0.339-0.754-0.754-0.754h-2.512c-0.415 0-0.754 0.339-0.754 0.754v1.256h-1.733c-0.364-1.608-1.175-3.134-2.424-4.384-3.53-3.53-9.258-3.53-12.787 0s-3.53 9.258 0 12.787c3.53 3.53 9.258 3.53 12.787 0 1.25-1.25 2.060-2.776 2.424-4.384h1.733v1.256c0 0.415 0.339 0.754 0.754 0.754h2.512c0.415 0 0.754-0.339 0.754-0.754v-1.256h1.501v1.501c0 0.672 0.81 1.005 1.288 0.534l3.511-3.511c0.289-0.295 0.289-0.773-0.006-1.068zM12.599 19.166c-1.96 1.96-5.144 1.96-7.103 0s-1.96-5.144 0-7.103c1.96-1.96 5.144-1.96 7.103 0 1.96 1.953 1.96 5.144 0 7.103z"></path>
</svg>
