<!-- Generated by IcoMoon.io -->
<svg version="1.1" xmlns="http://www.w3.org/2000/svg" width="18" height="32" viewBox="0 0 18 32">
<title>mars-stroke-v</title>
<path d="M15.438 14.242c-1.25-1.25-2.776-2.060-4.384-2.424v-1.595h1.256c0.415 0 0.754-0.339 0.754-0.754v-2.512c0-0.415-0.339-0.754-0.754-0.754h-1.256v-1.558h1.501c0.672 0 1.005-0.81 0.534-1.288l-3.511-3.505c-0.295-0.295-0.772-0.295-1.068 0l-3.511 3.511c-0.477 0.477-0.138 1.288 0.534 1.288h1.501v1.551h-1.256c-0.415 0-0.754 0.339-0.754 0.754v2.512c0 0.415 0.339 0.754 0.754 0.754h1.256v1.595c-1.608 0.364-3.134 1.175-4.384 2.424-3.53 3.53-3.53 9.258 0 12.787s9.258 3.53 12.787 0c3.536-3.53 3.536-9.258 0-12.787zM12.599 24.191c-1.96 1.96-5.144 1.96-7.103 0s-1.96-5.144 0-7.103c1.96-1.96 5.144-1.96 7.103 0 1.96 1.953 1.96 5.144 0 7.103z"></path>
</svg>
