<!-- Generated by IcoMoon.io -->
<svg version="1.1" xmlns="http://www.w3.org/2000/svg" width="40" height="32" viewBox="0 0 40 32">
<title>mask</title>
<path d="M20.14 3.553c-27.798 0-22.458 24.118-9.952 24.118 2.506 0 4.866-1.299 6.37-3.508l1.616-2.373c0.984-1.444 2.95-1.444 3.934 0l1.616 2.373c1.504 2.209 3.863 3.508 6.369 3.508 11.924 0 18.253-24.118-9.952-24.118zM11.556 18.9c-2.579 0-4.256-1.612-5.030-2.578-0.328-0.41-0.328-1.011 0-1.421 0.774-0.967 2.45-2.578 5.030-2.578s4.256 1.612 5.030 2.578c0.328 0.41 0.328 1.011 0 1.421-0.774 0.967-2.451 2.578-5.030 2.578zM28.64 18.9c-2.579 0-4.256-1.612-5.030-2.578-0.328-0.41-0.328-1.011 0-1.421 0.774-0.967 2.45-2.578 5.030-2.578s4.256 1.612 5.030 2.578c0.328 0.41 0.328 1.011 0 1.421-0.774 0.967-2.451 2.578-5.030 2.578z"></path>
</svg>
