<!-- Generated by IcoMoon.io -->
<svg version="1.1" xmlns="http://www.w3.org/2000/svg" width="26" height="32" viewBox="0 0 26 32">
<title>mastodon</title>
<path d="M26.24 10.782c0-6.105-4.001-7.895-4.001-7.895-3.925-1.802-14.351-1.784-18.239 0 0 0-4.001 1.79-4.001 7.895 0 7.267-0.415 16.292 6.632 18.157 2.544 0.672 4.729 0.816 6.488 0.716 3.191-0.176 4.98-1.137 4.98-1.137l-0.107-2.317s-2.28 0.716-4.842 0.634c-2.537-0.088-5.213-0.276-5.627-3.392-0.038-0.276-0.057-0.565-0.057-0.873 5.376 1.313 9.961 0.572 11.223 0.421 3.523-0.421 6.595-2.594 6.984-4.579 0.615-3.128 0.565-7.631 0.565-7.631zM21.524 18.645h-2.927v-7.172c0-3.121-4.020-3.241-4.020 0.433v3.925h-2.908v-3.925c0-3.674-4.020-3.555-4.020-0.433v7.172h-2.933c0-7.669-0.327-9.289 1.156-10.991 1.627-1.815 5.012-1.934 6.519 0.383l0.729 1.225 0.729-1.225c1.514-2.33 4.905-2.186 6.519-0.383 1.488 1.715 1.156 3.329 1.156 10.991z"></path>
</svg>
