<!-- Generated by IcoMoon.io -->
<svg version="1.1" xmlns="http://www.w3.org/2000/svg" width="32" height="32" viewBox="0 0 32 32">
<title>max-file-format-variant</title>
<path d="M17.038 23.936h-0.020c-0.097 0.386-0.193 0.878-0.299 1.254l-0.386 1.38h1.437l-0.405-1.38c-0.116-0.386-0.231-0.868-0.328-1.254zM27.737 7.239c-0.002-0.148-0.049-0.293-0.15-0.408l-6.2-7.082c-0.001-0.002-0.003-0.003-0.005-0.004-0.037-0.041-0.079-0.075-0.125-0.105-0.013-0.009-0.027-0.017-0.041-0.025-0.040-0.021-0.081-0.039-0.124-0.052-0.012-0.003-0.022-0.008-0.034-0.011-0.047-0.011-0.095-0.018-0.145-0.018h-15.238c-0.695 0-1.261 0.566-1.261 1.261v29.635c0 0.696 0.566 1.261 1.261 1.261h20.807c0.696 0 1.261-0.566 1.261-1.261v-23.119c-0-0.024-0.004-0.047-0.006-0.071zM12.070 29.338l-0.097-2.489c-0.029-0.782-0.058-1.727-0.058-2.673h-0.029c-0.203 0.829-0.473 1.756-0.724 2.518l-0.791 2.537h-1.147l-0.695-2.518c-0.212-0.762-0.434-1.688-0.588-2.537h-0.020c-0.038 0.878-0.067 1.882-0.116 2.691l-0.116 2.47h-1.36l0.415-6.502h1.958l0.637 2.171c0.203 0.753 0.406 1.563 0.55 2.325h0.029c0.184-0.752 0.406-1.611 0.618-2.334l0.695-2.161h1.92l0.357 6.502h-1.438zM18.485 29.338l-0.502-1.669h-1.861l-0.463 1.669h-1.524l1.988-6.502h1.929l2.016 6.502h-1.582zM24.129 29.338l-0.589-1.177c-0.241-0.454-0.396-0.791-0.579-1.167h-0.019c-0.135 0.376-0.299 0.714-0.502 1.167l-0.54 1.177h-1.679l1.881-3.29-1.813-3.212h1.688l0.569 1.187c0.193 0.395 0.337 0.714 0.492 1.080h0.020c0.154-0.415 0.28-0.704 0.444-1.080l0.55-1.187h1.678l-1.833 3.174 1.93 3.329h-1.698zM5.675 20.945v-20.151h14.607v6.452c0 0.348 0.282 0.631 0.631 0.631h5.569l0.001 13.068h-20.808zM23.462 10.925c-0.188-1.438-1.228-2.503-2.64-2.674-2.003-0.243-4.052-0.254-6.072-0.163-1.326 0.060-2.349 0.852-2.61 2.256-0.306 1.646-0.582 3.334 0.682 4.749 0.267 0.3 0.696 0.505 1.090 0.631 2.444 0.788 4.676 0.432 6.683-1.309-1.011-1.338-2.191-2.112-3.928-1.886-1.412 0.184-2.619-0.305-3.666-1.697 1.051-0.613 1.993-1.365 3.067-1.752 3.082-1.113 6.239 0.465 6.656 3.318 0.168 1.153 0.029 2.371-0.107 3.543-0.139 1.202-0.908 1.985-2.081 2.273-2.715 0.668-5.453 0.835-8.214 0.268-1.228-0.253-2.197-0.928-2.412-2.152-0.343-1.949-0.746-3.956-0.616-5.904 0.198-2.954 1.094-3.751 4.092-4.176 2.257-0.319 4.552-0.369 6.822-0.61 0.395-0.042 1.041 0 1.125-0.674s-0.023-0.746-0.367-0.666c-3.053 0.443-6.113 0.841-9.156 1.346-1.897 0.315-2.975 1.543-3.365 3.426-0.546 2.631-0.418 5.202 0.536 7.725 0.548 1.446 1.528 2.356 3.077 2.676 2.9 0.601 5.769 0.447 8.632-0.221 1.674-0.391 2.777-1.486 2.942-3.113 0.174-1.719 0.053-3.496-0.172-5.217zM18.939 14.278l-1.573 0.62-0.12-1.049 1.693 0.429zM17.103 11.345l-0.119-1.049-1.573 0.62z"></path>
</svg>
