<!-- Generated by IcoMoon.io -->
<svg version="1.1" xmlns="http://www.w3.org/2000/svg" width="32" height="32" viewBox="0 0 32 32">
<title>mdb-file-format-symbol</title>
<path d="M23.944 24.521c0-0.467-0.357-0.714-0.989-0.714-0.302 0-0.476 0.018-0.595 0.037v1.438h0.458c0.732-0 1.126-0.302 1.126-0.76zM22.836 26.279h-0.476v1.74c0.138 0.018 0.302 0.018 0.54 0.018 0.632 0 1.19-0.238 1.19-0.888 0-0.623-0.558-0.87-1.254-0.87zM16.637 23.862c-0.311 0-0.512 0.028-0.632 0.055v4.038c0.119 0.028 0.311 0.028 0.485 0.028 1.264 0.009 2.088-0.686 2.088-2.161 0.009-1.283-0.742-1.96-1.942-1.96zM27.737 7.239c-0.002-0.148-0.048-0.293-0.15-0.408l-6.201-7.082c-0.001-0.002-0.003-0.003-0.005-0.004-0.037-0.041-0.079-0.075-0.125-0.105-0.013-0.009-0.027-0.017-0.041-0.025-0.040-0.021-0.081-0.039-0.124-0.052-0.012-0.003-0.022-0.008-0.034-0.011-0.047-0.011-0.095-0.018-0.145-0.018h-15.238c-0.695 0-1.261 0.566-1.261 1.261v29.635c0 0.696 0.566 1.261 1.261 1.261h20.807c0.696 0 1.261-0.566 1.261-1.261v-23.119c0-0.024-0.004-0.047-0.006-0.071zM12.169 29.008l-0.092-2.362c-0.027-0.742-0.055-1.639-0.055-2.536h-0.027c-0.192 0.787-0.449 1.666-0.687 2.39l-0.751 2.408h-1.090l-0.66-2.389c-0.201-0.724-0.412-1.602-0.558-2.408h-0.018c-0.036 0.833-0.064 1.785-0.11 2.555l-0.11 2.344h-1.291l0.394-6.172h1.859l0.604 2.060c0.192 0.714 0.385 1.483 0.522 2.207h0.027c0.174-0.714 0.384-1.53 0.586-2.216l0.659-2.051h1.822l0.339 6.172-1.364-0.001zM19.036 28.276c-0.65 0.54-1.639 0.797-2.848 0.797-0.723 0-1.236-0.046-1.584-0.092v-6.061c0.513-0.083 1.181-0.128 1.887-0.128 1.172 0 1.932 0.211 2.527 0.66 0.641 0.476 1.044 1.236 1.044 2.326 0 1.181-0.43 1.996-1.025 2.5zM24.914 28.514c-0.449 0.357-1.199 0.558-2.426 0.558-0.687 0-1.2-0.046-1.511-0.092v-6.061c0.367-0.073 1.108-0.128 1.804-0.128 0.852 0 1.373 0.083 1.822 0.348 0.43 0.229 0.742 0.65 0.742 1.209 0 0.549-0.321 1.062-1.017 1.319v0.018c0.705 0.192 1.227 0.723 1.227 1.52-0.001 0.558-0.257 0.998-0.642 1.309zM5.675 20.945v-20.151h14.607v6.452c0 0.348 0.282 0.631 0.631 0.631h5.569l0.001 13.068h-20.808zM24.58 10.617c-0.078-0.076-0.193-0.105-0.298-0.075l-1.236 0.346c-0.051 0.014-0.098 0.042-0.135 0.079l-0.275 0.275c-0.030 0.030-0.047 0.070-0.049 0.113l-0.017 0.472h-0.42c-0.046 0-0.089 0.019-0.119 0.049-0.029 0.029-0.047 0.069-0.049 0.113l-0.015 0.441h-0.373c-0.046 0-0.089 0.019-0.119 0.049-0.030 0.029-0.048 0.069-0.049 0.113l-0.013 0.391h-0.381c-0.091 0.004-0.13-0.008-0.176 0.038l-0.011 0.011c-0.024 0.031-0.041 0.092-0.040 0.169l-0.013 0.405h-0.451c-0.045 0-0.087 0.018-0.118 0.049l-0.692 0.691c-0.847-0.343-1.831-0.147-2.482 0.505-0.894 0.894-0.894 2.348 0 3.243s2.349 0.894 3.243 0c0.607-0.608 0.822-1.508 0.562-2.322l3.404-3.404c0.039-0.039 0.068-0.089 0.081-0.143l0.326-1.31c0.026-0.107-0.006-0.22-0.084-0.296zM18.852 17.807c-0.245 0.245-0.8 0.105-1.211-0.307s-0.552-0.966-0.307-1.211c0.245-0.245 0.799-0.104 1.211 0.307s0.552 0.965 0.307 1.211zM20.523 14.935l3.262-3.263 0.112 0.111-3.263 3.263-0.111-0.111zM20.841 15.254l-0.052-0.052 3.263-3.263 0.052 0.052-3.263 3.263zM15.977 16.323h-6.843v-6.395h12.758v1.452c0.099-0.1 0.217-0.179 0.346-0.235 0.056-0.151 0.145-0.29 0.264-0.406l0.252-0.252v-3.075h-14.482v9.773h7.737c-0.047-0.285-0.060-0.575-0.031-0.862zM11.8 11.246h7.425v0.958h-7.425v-0.958zM11.8 14.648h4.853c0.079-0.1 0.162-0.198 0.255-0.29 0.284-0.284 0.623-0.509 0.991-0.668h-6.099v0.958z"></path>
</svg>
