<!-- Generated by IcoMoon.io -->
<svg version="1.1" xmlns="http://www.w3.org/2000/svg" width="32" height="32" viewBox="0 0 32 32">
<title>mdf-file-format-variant</title>
<path d="M17.067 23.721c-0.341 0-0.562 0.030-0.692 0.060v4.424c0.131 0.030 0.341 0.030 0.532 0.030 1.384 0.010 2.287-0.753 2.287-2.368 0.009-1.405-0.813-2.147-2.128-2.147zM27.737 7.239c-0.002-0.148-0.049-0.293-0.15-0.408l-6.2-7.082c-0.001-0.002-0.003-0.002-0.005-0.004-0.037-0.041-0.079-0.075-0.125-0.105-0.013-0.009-0.027-0.017-0.041-0.025-0.040-0.021-0.081-0.039-0.124-0.052-0.012-0.004-0.022-0.008-0.034-0.011-0.047-0.011-0.095-0.018-0.145-0.018h-15.238c-0.695 0-1.261 0.566-1.261 1.261v29.635c0 0.696 0.566 1.261 1.261 1.261h20.807c0.696 0 1.261-0.566 1.261-1.261v-23.119c-0-0.024-0.004-0.047-0.006-0.071zM12.17 29.359l-0.1-2.589c-0.030-0.813-0.060-1.796-0.060-2.779h-0.030c-0.211 0.862-0.491 1.826-0.752 2.619l-0.823 2.638h-1.194l-0.722-2.619c-0.221-0.793-0.451-1.756-0.612-2.638h-0.020c-0.040 0.913-0.070 1.956-0.12 2.799l-0.121 2.569h-1.414l0.431-6.762h2.037l0.663 2.257c0.211 0.783 0.421 1.626 0.572 2.418h0.030c0.191-0.783 0.422-1.675 0.642-2.428l0.722-2.247h1.996l0.372 6.762h-1.495zM19.695 28.556c-0.712 0.592-1.796 0.873-3.12 0.873-0.793 0-1.355-0.051-1.736-0.1v-6.642c0.562-0.091 1.294-0.141 2.067-0.141 1.284 0 2.116 0.231 2.769 0.723 0.702 0.522 1.143 1.354 1.143 2.548-0 1.294-0.472 2.187-1.124 2.739zM25.957 23.851h-2.598v1.545h2.428v1.244h-2.428v2.719h-1.534v-6.762h4.133v1.255zM5.675 20.945v-20.151h14.607v6.452c0 0.348 0.282 0.631 0.631 0.631h5.569l0.001 13.068h-20.808zM15.237 3.94c-4.018 0-7.276 3.257-7.276 7.274 0 4.018 3.258 7.276 7.276 7.276 4.019 0 7.276-3.258 7.276-7.276 0-4.017-3.257-7.274-7.276-7.274zM17.428 4.828l-1.581 3.226c-0.307-0.119-0.61-0.056-0.61-0.056l-0.914-3.387c0 0 1.212-0.544 3.105 0.217zM15.237 14.077c-1.581 0-2.863-1.281-2.863-2.863s1.282-2.862 2.863-2.862c1.582 0 2.863 1.281 2.863 2.862s-1.281 2.863-2.863 2.863zM15.237 8.682c-1.397 0-2.532 1.136-2.532 2.534s1.136 2.532 2.532 2.532c1.397 0 2.533-1.136 2.533-2.532s-1.136-2.534-2.533-2.534zM15.237 13.455c-1.235 0-2.24-1.005-2.24-2.24 0-1.236 1.005-2.242 2.24-2.242s2.241 1.005 2.241 2.242c0 1.235-1.005 2.24-2.241 2.24zM15.237 10.004c-0.668 0-1.211 0.543-1.211 1.21s0.543 1.211 1.211 1.211c0.668 0 1.211-0.544 1.211-1.211s-0.543-1.21-1.211-1.21zM15.237 12.133c-0.507 0-0.919-0.412-0.919-0.919s0.412-0.918 0.919-0.918 0.919 0.412 0.919 0.918c0 0.507-0.413 0.919-0.919 0.919z"></path>
</svg>
