<!-- Generated by IcoMoon.io -->
<svg version="1.1" xmlns="http://www.w3.org/2000/svg" width="20" height="32" viewBox="0 0 20 32">
<title>medapps</title>
<path d="M7.43 14.506c0.22-0.785 0.433-2.11 0.829-2.11 0.521 0.113 0.603 1.47 1.168 2.299 0.289-1.476 0.333-5.345 0.886-5.445 0.565-0.044 1.237 4.177 1.382 4.867 0.622 0.258 3.071 0.415 3.071 0.415 0.119 0.458-1.507 0.477-2.512 0.49-0.289 0.93-0.339 1.74-0.716 1.759-0.295 0.012-0.515-1.809-1.099-3.115l-0.59 4.114c-0.276 0.816-0.973-1.413-1.375-2.468-0.207-0.006-3.919-0.1-2.99-0.49l1.947-0.314zM14.32 27.67c1.332 0 1.332-2.010 0-2.010h-8.542c-1.332 0-1.332 2.010 0 2.010h8.542zM12.812 31.69c1.332 0 1.332-2.010 0-2.010h-5.527c-1.332 0-1.332 2.010 0 2.010h5.527zM14.96 22.803c0.201-1.187 0.327-2.286 0.747-3.065 0.496-0.923 1.011-1.765 1.507-2.575 1.545-2.537 2.883-4.723 2.883-7.882 0-5.376-4.509-9.748-10.049-9.748s-10.049 4.371-10.049 9.748c0 3.153 1.338 5.345 2.883 7.882 0.496 0.81 1.005 1.652 1.507 2.575 0.421 0.785 0.546 1.872 0.747 3.071 0.22 1.319 2.267 0.986 2.048-0.32-0.226-1.363-0.352-2.556-0.961-3.68-2.047-3.793-4.151-6.004-4.151-9.528 0-4.265 3.58-7.738 7.976-7.738s7.976 3.473 7.976 7.738c0 3.523-2.104 5.734-4.151 9.521-0.609 1.13-0.735 2.349-0.961 3.68-0.214 1.294 1.821 1.658 2.047 0.32z"></path>
</svg>
