<!-- Generated by IcoMoon.io -->
<svg version="1.1" xmlns="http://www.w3.org/2000/svg" width="32" height="32" viewBox="0 0 32 32">
<title>medal</title>
<path d="M14.053 7.745l-4.342-7.236c-0.357-0.589-0.995-0.976-1.723-0.976h-6.981c-0.813 0-1.289 0.915-0.823 1.581l6.988 9.984c1.867-1.744 4.241-2.941 6.881-3.353zM31.15-0.467h-6.981c-0.706 0-1.36 0.371-1.723 0.976l-4.342 7.236c2.64 0.412 5.014 1.609 6.881 3.353l6.988-9.983c0.466-0.666-0.010-1.581-0.823-1.581zM16.078 9.582c-6.105 0-11.054 4.949-11.054 11.054s4.949 11.054 11.054 11.054 11.054-4.949 11.054-11.054-4.949-11.054-11.054-11.054zM21.889 19.459l-2.382 2.321 0.563 3.28c0.1 0.588-0.519 1.037-1.046 0.759l-2.946-1.548-2.946 1.548c-0.527 0.28-1.146-0.172-1.046-0.759l0.563-3.28-2.382-2.321c-0.428-0.417-0.192-1.145 0.399-1.23l3.293-0.48 1.472-2.985c0.133-0.269 0.389-0.401 0.646-0.401 0.258 0 0.516 0.134 0.649 0.401l1.472 2.985 3.293 0.48c0.59 0.085 0.827 0.813 0.399 1.23z"></path>
</svg>
