<!-- Generated by IcoMoon.io -->
<svg version="1.1" xmlns="http://www.w3.org/2000/svg" width="32" height="32" viewBox="0 0 32 32">
<title>medium-m</title>
<path d="M4.491 8.47c0.038-0.371-0.107-0.741-0.383-0.992l-2.833-3.417v-0.509h8.805l6.808 14.929 5.985-14.929h8.397v0.509l-2.424 2.324c-0.207 0.157-0.314 0.421-0.27 0.678v17.083c-0.044 0.258 0.063 0.521 0.27 0.678l2.368 2.324v0.509h-11.914v-0.509l2.456-2.38c0.239-0.239 0.239-0.314 0.239-0.678v-13.805l-6.827 17.328h-0.923l-7.939-17.328v11.613c-0.069 0.49 0.094 0.98 0.44 1.331l3.191 3.869v0.509h-9.044v-0.503l3.191-3.875c0.339-0.352 0.496-0.848 0.408-1.331v-13.428z"></path>
</svg>
