<!-- Generated by IcoMoon.io -->
<svg version="1.1" xmlns="http://www.w3.org/2000/svg" width="28" height="32" viewBox="0 0 28 32">
<title>medium</title>
<path d="M0 1.543v28.137h28.137v-28.137h-28.137zM23.376 8.207l-1.507 1.445c-0.132 0.1-0.195 0.264-0.17 0.421v10.633c-0.025 0.163 0.038 0.327 0.17 0.421l1.476 1.445v0.32h-7.411v-0.308l1.526-1.482c0.151-0.151 0.151-0.195 0.151-0.421v-8.598l-4.246 10.777h-0.572l-4.943-10.777v7.223c-0.044 0.301 0.063 0.609 0.276 0.829l1.985 2.405v0.32h-5.64v-0.32l1.985-2.405c0.214-0.22 0.308-0.527 0.258-0.829v-8.353c0.025-0.232-0.063-0.458-0.239-0.615l-1.765-2.129v-0.32h5.483l4.233 9.295 3.724-9.289h5.225v0.314z"></path>
</svg>
