<!-- Generated by IcoMoon.io -->
<svg version="1.1" xmlns="http://www.w3.org/2000/svg" width="32" height="32" viewBox="0 0 32 32">
<title>medkit</title>
<path d="M6.029 29.68h20.098v-22.108h-2.010v-3.015c0-1.665-1.35-3.015-3.015-3.015h-10.049c-1.665 0-3.015 1.35-3.015 3.015v3.015h-2.010v22.108zM12.059 5.562h8.039v2.010h-8.039v-2.010zM32.157 10.587v16.078c0 1.665-1.35 3.015-3.015 3.015h-1.005v-22.108h1.005c1.665 0 3.015 1.35 3.015 3.015zM4.020 29.68h-1.005c-1.665 0-3.015-1.35-3.015-3.015v-16.078c0-1.665 1.35-3.015 3.015-3.015h1.005v22.108zM22.108 16.616v2.010c0 0.555-0.45 1.005-1.005 1.005h-3.015v3.015c0 0.555-0.45 1.005-1.005 1.005h-2.010c-0.555 0-1.005-0.45-1.005-1.005v-3.015h-3.015c-0.555 0-1.005-0.45-1.005-1.005v-2.010c0-0.555 0.45-1.005 1.005-1.005h3.015v-3.015c0-0.555 0.45-1.005 1.005-1.005h2.010c0.555 0 1.005 0.45 1.005 1.005v3.015h3.015c0.555 0 1.005 0.45 1.005 1.005z"></path>
</svg>
