<!-- Generated by IcoMoon.io -->
<svg version="1.1" xmlns="http://www.w3.org/2000/svg" width="34" height="32" viewBox="0 0 34 32">
<title>medrt</title>
<path d="M7.141 15.611c0 7.65 5.269 13.993 12.153 15.143-1.175 0.283-2.399 0.433-3.655 0.433-8.642 0-15.639-6.971-15.639-15.576s6.997-15.576 15.632-15.576c1.262 0 2.487 0.151 3.655 0.433-6.884 1.149-12.147 7.493-12.147 15.143zM25.82 21.911c-4.88 3.479-11.28 2.983-15.099-0.917 0.345 0.886 0.798 1.74 1.363 2.544 3.869 5.54 11.456 6.865 16.939 2.952s6.789-11.575 2.92-17.121c-0.565-0.81-1.212-1.526-1.916-2.148 2.349 4.949 0.672 11.211-4.208 14.69zM12.078 6.586c-0.088 0.063-0.17 0.132-0.251 0.195 4.038-1.118 8.535 0.251 11.236 3.8 2.242 2.952 2.694 6.695 1.532 9.923 3.561-3.53 4.246-8.925 1.401-12.674-3.14-4.114-9.364-4.673-13.918-1.244zM18.591 13.602c-0.276 0-0.503-0.226-0.503-0.502v-2.512c0-0.276-0.226-0.502-0.503-0.502h-3.015c-0.276 0-0.502 0.226-0.502 0.502v2.512c0 0.276-0.226 0.502-0.502 0.502h-2.512c-0.276 0-0.502 0.226-0.502 0.502v3.015c0 0.276 0.226 0.503 0.502 0.503h2.512c0.276 0 0.502 0.226 0.502 0.503v2.512c0 0.276 0.226 0.503 0.502 0.503h3.015c0.276 0 0.503-0.226 0.503-0.503v-2.512c0-0.276 0.226-0.503 0.503-0.503h2.512c0.276 0 0.503-0.226 0.503-0.503v-3.015c0-0.276-0.226-0.502-0.503-0.502h-2.512z"></path>
</svg>
