<!-- Generated by IcoMoon.io -->
<svg version="1.1" xmlns="http://www.w3.org/2000/svg" width="32" height="32" viewBox="0 0 32 32">
<title>meetup</title>
<path d="M6.218 25.554c0.069 0.358-0.144 0.697-0.503 0.773-0.339 0.069-0.685-0.145-0.754-0.503-0.069-0.339 0.144-0.697 0.484-0.773s0.697 0.145 0.772 0.503zM15.205 30.038c-0.396 0.289-0.502 0.842-0.232 1.256 0.289 0.415 0.842 0.521 1.256 0.232 0.396-0.289 0.503-0.842 0.214-1.256-0.264-0.408-0.823-0.521-1.237-0.232zM9.804 1.003c0.396-0.088 0.647-0.484 0.559-0.879-0.069-0.415-0.465-0.666-0.86-0.572-0.396 0.088-0.647 0.484-0.572 0.879 0.088 0.415 0.477 0.666 0.873 0.572zM2.16 13.746c-0.628-0.433-1.488-0.27-1.922 0.377-0.433 0.628-0.27 1.507 0.358 1.941 0.628 0.446 1.488 0.289 1.922-0.358 0.433-0.653 0.27-1.514-0.358-1.96zM19.244 3.012c0.666-0.396 0.86-1.256 0.484-1.903-0.396-0.666-1.237-0.879-1.884-0.484s-0.86 1.256-0.465 1.922c0.377 0.647 1.218 0.86 1.865 0.465zM7.242 6.655c0.484-0.339 0.59-1.005 0.27-1.488s-0.986-0.59-1.451-0.27c-0.484 0.339-0.59 1.005-0.27 1.488 0.32 0.49 0.98 0.597 1.451 0.27zM30.624 16.453c-0.465 0.107-0.773 0.572-0.666 1.061 0.088 0.465 0.559 0.773 1.024 0.666 0.465-0.088 0.773-0.559 0.666-1.043-0.094-0.465-0.559-0.773-1.024-0.685zM33.118 12.886c-0.069-0.358-0.415-0.572-0.754-0.502-0.358 0.069-0.572 0.433-0.503 0.791 0.069 0.339 0.415 0.572 0.772 0.502 0.339-0.094 0.572-0.433 0.484-0.791zM28.074 8.257c-0.54 0.377-0.666 1.112-0.308 1.652s1.093 0.666 1.633 0.308c0.521-0.377 0.647-1.112 0.289-1.652-0.358-0.546-1.093-0.685-1.614-0.308zM27.679 17.012c1.652 2.707 0.948 6.281-1.652 8.108-1.093 0.773-2.33 1.112-3.574 1.074-0.754 2.958-4.359 4.057-6.601 2.047-0.069 0.057-0.163 0.107-0.232 0.182-2.456 1.702-5.797 1.093-7.499-1.401-0.609-0.898-0.917-1.922-0.948-2.946-4.107-0.685-5.653-5.904-2.581-8.774-1.777-2.946 0.038-6.745 3.354-7.216 1.576-4.158 6.758-6.13 10.275-3.404 4.233-1.401 8.56 1.847 8.221 6.35 2.581 0.791 3.316 4.202 1.237 5.979zM23.282 21.678c-0.195-1.294-2.569-0.289-2.707-1.702-0.195-2.010 2.745-6.35 2.512-8.039-0.214-1.507-1.218-1.828-2.098-1.847-0.842-0.019-1.061 0.126-1.344 0.289-0.182 0.107-0.415 0.308-0.735-0.019-0.396-0.377-0.697-0.735-1.218-0.81-0.773-0.126-1.112 0.126-1.671 0.609-0.214 0.182-0.754 0.81-1.256 0.572-0.214-0.107-0.967-0.484-1.507-0.716-1.024-0.446-2.512 0.289-3.052 1.256-0.81 1.438-2.387 7.103-2.619 7.857-0.54 1.671 0.685 3.052 2.318 2.958 0.697-0.038 1.149-0.289 1.595-1.093 0.251-0.465 2.619-6.764 2.801-7.072 0.126-0.214 0.559-0.502 0.917-0.32 0.358 0.195 0.433 0.59 0.377 0.948-0.069 0.609-1.759 4.453-1.815 4.88-0.214 1.438 1.69 1.671 2.424 0.251 0.232-0.446 2.87-5.816 3.103-6.174 0.27-0.396 0.465-0.521 0.735-0.502 0.195 0 0.521 0.057 0.446 0.685-0.088 0.59-2.205 4.541-2.443 5.508-0.289 1.294 0.415 2.6 1.564 3.178 0.716 0.358 3.925 0.986 3.674-0.697zM23.64 27.475c-0.647 0.465-0.81 1.382-0.358 2.047 0.446 0.666 1.344 0.823 2.010 0.377 0.666-0.465 0.823-1.382 0.377-2.047-0.465-0.666-1.363-0.848-2.029-0.377z"></path>
</svg>
