<!-- Generated by IcoMoon.io -->
<svg version="1.1" xmlns="http://www.w3.org/2000/svg" width="31" height="32" viewBox="0 0 31 32">
<title>meh-rolling-eyes1</title>
<path d="M15.576 0.035c-8.604 0-15.576 6.971-15.576 15.576s6.971 15.576 15.576 15.576 15.576-6.971 15.576-15.576-6.971-15.576-15.576-15.576zM5.527 13.602c0-1.526 0.86-2.839 2.11-3.517-0.044 0.163-0.1 0.327-0.1 0.502 0 1.112 0.898 2.010 2.010 2.010s2.010-0.898 2.010-2.010c0-0.176-0.057-0.339-0.1-0.502 1.25 0.678 2.11 1.991 2.11 3.517 0 2.217-1.803 4.020-4.020 4.020s-4.020-1.803-4.020-4.020zM19.596 24.655h-8.039c-1.332 0-1.332-2.010 0-2.010h8.039c1.331 0 1.331 2.010 0 2.010zM21.605 17.621c-2.217 0-4.020-1.803-4.020-4.020 0-1.526 0.86-2.839 2.11-3.517-0.044 0.163-0.1 0.327-0.1 0.502 0 1.112 0.898 2.010 2.010 2.010s2.010-0.898 2.010-2.010c0-0.176-0.057-0.339-0.1-0.502 1.25 0.678 2.11 1.991 2.11 3.517 0 2.217-1.802 4.020-4.020 4.020z"></path>
</svg>
