<!-- Generated by IcoMoon.io -->
<svg version="1.1" xmlns="http://www.w3.org/2000/svg" width="31" height="32" viewBox="0 0 31 32">
<title>meh-rolling-eyes</title>
<path d="M15.576 0.035c-8.604 0-15.576 6.971-15.576 15.576s6.971 15.576 15.576 15.576 15.576-6.971 15.576-15.576-6.971-15.576-15.576-15.576zM15.576 28.173c-6.928 0-12.561-5.634-12.561-12.561s5.634-12.561 12.561-12.561 12.561 5.634 12.561 12.561-5.634 12.561-12.561 12.561zM21.103 9.080c-2.5 0-4.522 2.022-4.522 4.522s2.022 4.522 4.522 4.522 4.522-2.022 4.522-4.522-2.022-4.522-4.522-4.522zM21.103 16.114c-1.388 0-2.512-1.124-2.512-2.512 0-0.854 0.458-1.576 1.112-2.029-0.063 0.163-0.107 0.333-0.107 0.521 0 0.835 0.672 1.507 1.507 1.507s1.507-0.672 1.507-1.507c0-0.182-0.044-0.358-0.107-0.521 0.653 0.452 1.112 1.175 1.112 2.029 0 1.388-1.124 2.512-2.512 2.512zM14.571 13.602c0-2.5-2.022-4.522-4.522-4.522s-4.522 2.022-4.522 4.522 2.022 4.522 4.522 4.522 4.522-2.022 4.522-4.522zM7.537 13.602c0-0.854 0.458-1.576 1.112-2.029-0.063 0.163-0.107 0.333-0.107 0.521 0 0.835 0.672 1.507 1.507 1.507s1.507-0.672 1.507-1.507c0-0.182-0.044-0.358-0.107-0.521 0.653 0.452 1.112 1.175 1.112 2.029 0 1.388-1.124 2.512-2.512 2.512s-2.512-1.124-2.512-2.512zM19.596 21.641h-8.039c-0.829 0-1.507 0.678-1.507 1.507s0.678 1.507 1.507 1.507h8.039c0.829 0 1.507-0.678 1.507-1.507s-0.678-1.507-1.507-1.507z"></path>
</svg>
