<!-- Generated by IcoMoon.io -->
<svg version="1.1" xmlns="http://www.w3.org/2000/svg" width="40" height="32" viewBox="0 0 40 32">
<title>memory</title>
<path d="M40.196 7.757v-2.194c0-1.11-0.9-2.010-2.010-2.010h-36.176c-1.11 0-2.010 0.9-2.010 2.010v2.194c1.168 0.415 2.010 1.519 2.010 2.83s-0.842 2.415-2.010 2.83v6.214h40.196v-6.214c-1.168-0.415-2.010-1.519-2.010-2.83s0.842-2.415 2.010-2.83zM14.069 15.611h-4.020v-8.039h4.020v8.039zM22.108 15.611h-4.020v-8.039h4.020v8.039zM30.147 15.611h-4.020v-8.039h4.020v8.039zM0 27.67h4.020v-1.675c0-0.555 0.45-1.005 1.005-1.005s1.005 0.45 1.005 1.005v1.675h8.039v-1.675c0-0.555 0.45-1.005 1.005-1.005s1.005 0.45 1.005 1.005v1.675h8.039v-1.675c0-0.555 0.45-1.005 1.005-1.005s1.005 0.45 1.005 1.005v1.675h8.039v-1.675c0-0.555 0.45-1.005 1.005-1.005s1.005 0.45 1.005 1.005v1.675h4.020v-6.029h-40.196v6.029z"></path>
</svg>
