<!-- Generated by IcoMoon.io -->
<svg version="1.1" xmlns="http://www.w3.org/2000/svg" width="40" height="32" viewBox="0 0 40 32">
<title>mendeley</title>
<path d="M20.104 10.87h0.038c2.179 0 3.944 1.765 3.944 3.944 0 1.57-1.206 3.944-3.944 3.944h-0.038c-2.726 0-3.944-2.355-3.944-3.944 0-2.179 1.771-3.944 3.944-3.944zM3.404 26.734c2.958 0.371 5.125-2.694 3.844-5.514-2.971-6.513 11.676-6.664 9.201-0.515-0.006 0.006-0.012 0.012-0.019 0.025-1.683 2.688 0.427 6.117 3.693 5.979 3.272 0.132 5.364-3.304 3.693-5.979-0.006-0.012-0.012-0.019-0.019-0.025-2.475-6.149 12.172-5.998 9.201 0.515-0.289 0.628-0.421 1.338-0.358 2.073 0.308 3.354 4.315 4.654 6.588 2.211 1.118-0.93 1.451-4.12 0-5.546-0.773-0.779-1.865-1.206-3.040-1.080-2.72-0.063-3.121-2.192-2.355-6.205 1.432-3.611-0.936-8.259-5.489-8.215-4.861 0.044-5.131 5.15-8.221 5.15-3.021 0-3.392-5.106-8.221-5.15-4.579-0.050-6.915 4.604-5.489 8.215 0.766 4.013 0.364 6.142-2.355 6.205-1.332-0.145-2.324 0.408-3.329 1.413-1.25 1.237-1.212 5.954 2.676 6.444z"></path>
</svg>
