<!-- Generated by IcoMoon.io -->
<svg version="1.1" xmlns="http://www.w3.org/2000/svg" width="40" height="32" viewBox="0 0 40 32">
<title>menorah</title>
<path d="M9.044 7.572h-2.010c-0.555 0-1.005 0.45-1.005 1.005v9.044h4.020v-9.044c0-0.555-0.45-1.005-1.005-1.005zM15.073 7.572h-2.010c-0.555 0-1.005 0.45-1.005 1.005v9.044h4.020v-9.044c0-0.555-0.45-1.005-1.005-1.005zM27.132 7.572h-2.010c-0.555 0-1.005 0.45-1.005 1.005v9.044h4.020v-9.044c0-0.555-0.45-1.005-1.005-1.005zM33.162 7.572h-2.010c-0.555 0-1.005 0.45-1.005 1.005v9.044h4.020v-9.044c0-0.555-0.45-1.005-1.005-1.005zM38.186 5.562c1.11 0 2.010-0.9 2.010-2.010s-2.010-4.020-2.010-4.020-2.010 2.91-2.010 4.020 0.9 2.010 2.010 2.010zM32.157 5.562c1.11 0 2.010-0.9 2.010-2.010s-2.010-4.020-2.010-4.020-2.010 2.91-2.010 4.020 0.9 2.010 2.010 2.010zM26.127 5.562c1.11 0 2.010-0.9 2.010-2.010s-2.010-4.020-2.010-4.020-2.010 2.91-2.010 4.020 0.9 2.010 2.010 2.010zM20.098 5.562c1.11 0 2.010-0.9 2.010-2.010s-2.010-4.020-2.010-4.020-2.010 2.91-2.010 4.020 0.9 2.010 2.010 2.010zM14.069 5.562c1.11 0 2.010-0.9 2.010-2.010s-2.010-4.020-2.010-4.020-2.010 2.91-2.010 4.020 0.9 2.010 2.010 2.010zM8.039 5.562c1.11 0 2.010-0.9 2.010-2.010s-2.010-4.020-2.010-4.020-2.010 2.91-2.010 4.020 0.9 2.010 2.010 2.010zM2.010 5.562c1.11 0 2.010-0.9 2.010-2.010s-2.010-4.020-2.010-4.020-2.010 2.91-2.010 4.020 0.9 2.010 2.010 2.010zM36.176 17.621c0 1.11-0.9 2.010-2.010 2.010h-12.059v-11.054c0-0.555-0.45-1.005-1.005-1.005h-2.010c-0.555 0-1.005 0.45-1.005 1.005v11.054h-12.059c-1.11 0-2.010-0.9-2.010-2.010v-9.044c0-0.555-0.45-1.005-1.005-1.005h-2.010c-0.555 0-1.005 0.45-1.005 1.005v9.044c0 3.33 2.699 6.029 6.029 6.029h12.059v4.020h-11.054c-0.555 0-1.005 0.45-1.005 1.005v2.010c0 0.555 0.45 1.005 1.005 1.005h26.127c0.555 0 1.005-0.45 1.005-1.005v-2.010c0-0.555-0.45-1.005-1.005-1.005h-11.054v-4.020h12.059c3.33 0 6.029-2.699 6.029-6.029v-9.044c0-0.555-0.45-1.005-1.005-1.005h-2.010c-0.555 0-1.005 0.45-1.005 1.005v9.044z"></path>
</svg>
