<!-- Generated by IcoMoon.io -->
<svg version="1.1" xmlns="http://www.w3.org/2000/svg" width="18" height="32" viewBox="0 0 18 32">
<title>mercury</title>
<path d="M18.088 12.597c0-2.776-1.25-5.257-3.216-6.915 0.157-0.113 0.308-0.239 0.452-0.364 1.551-1.332 2.5-3.065 2.713-4.949 0.057-0.446-0.295-0.835-0.747-0.835h-2.544c-0.364 0-0.672 0.258-0.741 0.615-0.151 0.785-0.603 1.526-1.3 2.123-0.961 0.829-2.261 1.281-3.662 1.281s-2.701-0.452-3.668-1.281c-0.697-0.597-1.143-1.338-1.3-2.123-0.069-0.358-0.377-0.615-0.735-0.615h-2.544c-0.452 0-0.804 0.389-0.747 0.835 0.214 1.89 1.156 3.624 2.713 4.955 0.144 0.126 0.295 0.245 0.452 0.364-1.966 1.652-3.216 4.133-3.216 6.909 0 4.302 3.008 7.907 7.034 8.818v3.241h-2.261c-0.415 0-0.754 0.339-0.754 0.754v2.512c0 0.415 0.339 0.754 0.754 0.754h2.261v2.261c0 0.415 0.339 0.754 0.754 0.754h2.512c0.415 0 0.754-0.339 0.754-0.754v-2.261h2.261c0.415 0 0.754-0.339 0.754-0.754v-2.512c0-0.415-0.339-0.754-0.754-0.754h-2.261v-3.241c4.026-0.911 7.034-4.516 7.034-8.818zM4.020 12.597c0-2.77 2.255-5.024 5.024-5.024s5.024 2.255 5.024 5.024-2.255 5.024-5.024 5.024-5.024-2.255-5.024-5.024z"></path>
</svg>
