<!-- Generated by IcoMoon.io -->
<svg version="1.1" xmlns="http://www.w3.org/2000/svg" width="32" height="32" viewBox="0 0 32 32">
<title>meteor</title>
<path d="M30.85-0.423c-2.431 0.729-7.022 2.154-11.789 3.85-0.132-0.44-0.251-0.848-0.352-1.168-0.188-0.609-0.873-0.892-1.438-0.597-2.663 1.388-9.597 5.188-13.466 8.95-0.069 0.063-0.157 0.126-0.22 0.188-2.393 2.387-3.586 5.521-3.586 8.655 0 3.128 1.193 6.262 3.58 8.655 2.387 2.387 5.521 3.586 8.655 3.58 3.134 0 6.268-1.193 8.661-3.586 0.063-0.063 0.126-0.151 0.188-0.22 3.756-3.869 7.562-10.809 8.95-13.466 0.295-0.565 0.012-1.25-0.597-1.438-0.327-0.1-0.729-0.22-1.168-0.352 1.696-4.773 3.121-9.358 3.85-11.789 0.226-0.779-0.49-1.495-1.269-1.262zM12.059 27.67c-4.44 0-8.039-3.599-8.039-8.039s3.599-8.039 8.039-8.039 8.039 3.599 8.039 8.039-3.599 8.039-8.039 8.039zM10.049 15.611c-1.112 0-2.010 0.898-2.010 2.010s0.898 2.010 2.010 2.010 2.010-0.898 2.010-2.010-0.898-2.010-2.010-2.010zM13.064 21.641c-0.553 0-1.005 0.452-1.005 1.005s0.452 1.005 1.005 1.005 1.005-0.452 1.005-1.005-0.452-1.005-1.005-1.005z"></path>
</svg>
