<!-- Generated by IcoMoon.io -->
<svg version="1.1" xmlns="http://www.w3.org/2000/svg" width="40" height="32" viewBox="0 0 40 32">
<title>microphone-slash</title>
<path d="M39.808 28.304l-9.911-7.66c0.791-1.508 1.255-3.211 1.255-5.033v-3.015c0-0.555-0.45-1.005-1.005-1.005h-1.005c-0.555 0-1.005 0.45-1.005 1.005v3.015c0 1.125-0.249 2.186-0.673 3.153l-1.668-1.289c0.195-0.59 0.332-1.207 0.332-1.863v-10.050c0-3.33-2.699-6.029-6.029-6.029s-6.029 2.699-6.029 6.029v2.849l-11.213-8.667c-0.438-0.34-1.070-0.262-1.411 0.176l-1.234 1.587c-0.34 0.438-0.262 1.069 0.176 1.41l36.953 28.56c0.438 0.341 1.070 0.262 1.411-0.177l1.233-1.587c0.34-0.438 0.261-1.069-0.177-1.41zM25.122 28.675h-3.517v-2.121c0.732-0.1 1.435-0.285 2.115-0.522l-3.147-2.433c-0.421 0.025-0.842 0.055-1.278 0.012-3.508-0.342-6.201-3.054-6.983-6.397l-3.268-2.527v0.43c0 5.63 4.018 10.649 9.546 11.411v2.145h-3.517c-0.555 0-1.005 0.45-1.005 1.005v1.005c0 0.555 0.45 1.005 1.005 1.005h10.049c0.555 0 1.005-0.45 1.005-1.005v-1.005c0-0.555-0.45-1.005-1.005-1.005z"></path>
</svg>
