<!-- Generated by IcoMoon.io -->
<svg version="1.1" xmlns="http://www.w3.org/2000/svg" width="22" height="32" viewBox="0 0 22 32">
<title>microphone</title>
<path d="M11.054 21.641c3.33 0 6.029-2.699 6.029-6.029v-10.049c0-3.33-2.699-6.029-6.029-6.029s-6.029 2.699-6.029 6.029v10.049c0 3.33 2.699 6.029 6.029 6.029zM21.103 11.592h-1.005c-0.555 0-1.005 0.45-1.005 1.005v3.015c0 4.698-4.050 8.468-8.842 8-4.177-0.408-7.236-4.162-7.236-8.358v-2.657c0-0.555-0.45-1.005-1.005-1.005h-1.005c-0.555 0-1.005 0.45-1.005 1.005v2.522c0 5.63 4.018 10.649 9.546 11.411v2.145h-3.517c-0.555 0-1.005 0.45-1.005 1.005v1.005c0 0.555 0.45 1.005 1.005 1.005h10.049c0.555 0 1.005-0.45 1.005-1.005v-1.005c0-0.555-0.45-1.005-1.005-1.005h-3.517v-2.121c5.383-0.739 9.547-5.359 9.547-10.943v-3.015c0-0.555-0.45-1.005-1.005-1.005z"></path>
</svg>
