<!-- Generated by IcoMoon.io -->
<svg version="1.1" xmlns="http://www.w3.org/2000/svg" width="40" height="32" viewBox="0 0 40 32">
<title>microphone-alt-slash</title>
<path d="M39.808 28.304l-9.896-7.648c0.784-1.515 1.24-3.225 1.24-5.045v-3.015c0-0.555-0.45-1.005-1.005-1.005h-1.005c-0.555 0-1.005 0.45-1.005 1.005v3.015c0 1.125-0.249 2.186-0.673 3.153l-1.668-1.289c0.195-0.59 0.332-1.207 0.332-1.863h-2.743l-2.6-2.010h5.342v-2.010h-5.359c-0.37 0-0.67-0.225-0.67-0.502v-1.005c0-0.278 0.3-0.502 0.67-0.502h5.359v-2.010h-5.359c-0.37 0-0.67-0.225-0.67-0.502v-1.005c0-0.278 0.3-0.503 0.67-0.503h5.359c0-3.33-2.699-6.029-6.029-6.029s-6.029 2.699-6.029 6.029v2.849l-11.213-8.667c-0.438-0.34-1.070-0.262-1.411 0.176l-1.234 1.587c-0.34 0.438-0.262 1.069 0.176 1.41l36.953 28.56c0.438 0.341 1.070 0.262 1.411-0.177l1.233-1.587c0.34-0.438 0.261-1.069-0.177-1.41zM25.122 28.675h-3.517v-2.122c0.735-0.102 1.451-0.269 2.133-0.508l-3.165-2.447c-0.421 0.025-0.842 0.055-1.278 0.012-3.508-0.342-6.201-3.054-6.983-6.397l-3.268-2.526v0.43c0 5.63 4.018 10.649 9.547 11.411v2.145h-3.517c-0.555 0-1.005 0.45-1.005 1.005v1.005c0 0.555 0.45 1.005 1.005 1.005h10.049c0.555 0 1.005-0.45 1.005-1.005v-1.005c0-0.555-0.45-1.005-1.005-1.005z"></path>
</svg>
