<!-- Generated by IcoMoon.io -->
<svg version="1.1" xmlns="http://www.w3.org/2000/svg" width="32" height="32" viewBox="0 0 32 32">
<title>microscope</title>
<path d="M10.049 19.631h0.754v1.005c0 0.555 0.45 1.005 1.005 1.005h2.512c0.555 0 1.005-0.45 1.005-1.005v-1.005h0.754c1.11 0 2.010-0.9 2.010-2.010v-14.069c0-1.11-0.9-2.010-2.010-2.010v-1.005c0-0.555-0.45-1.005-1.005-1.005h-4.020c-0.555 0-1.005 0.45-1.005 1.005v1.005c-1.11 0-2.010 0.9-2.010 2.010v14.069c0 1.11 0.9 2.010 2.010 2.010zM29.142 27.67h-0.081c1.918-2.136 3.096-4.949 3.096-8.039 0-6.65-5.409-12.059-12.059-12.059v4.020c4.433 0 8.039 3.606 8.039 8.039s-3.606 8.039-8.039 8.039h-17.083c-1.665 0-3.015 1.35-3.015 3.015 0 0.555 0.45 1.005 1.005 1.005h30.147c0.555 0 1.005-0.45 1.005-1.005 0-1.665-1.35-3.015-3.015-3.015zM6.532 25.66h13.064c0.278 0 0.503-0.225 0.503-0.503v-1.005c0-0.278-0.225-0.503-0.503-0.503h-13.064c-0.278 0-0.502 0.225-0.502 0.503v1.005c0 0.278 0.225 0.503 0.502 0.503z"></path>
</svg>
