<!-- Generated by IcoMoon.io -->
<svg version="1.1" xmlns="http://www.w3.org/2000/svg" width="32" height="32" viewBox="0 0 32 32">
<title>microchip</title>
<path d="M26.127 2.548v26.127c0 1.665-1.35 3.015-3.015 3.015h-14.069c-1.665 0-3.015-1.35-3.015-3.015v-26.127c0-1.665 1.35-3.015 3.015-3.015h14.069c1.665 0 3.015 1.35 3.015 3.015zM32.157 6.19v0.754c0 0.208-0.169 0.377-0.377 0.377v0h-1.13v0.377c0 0.208-0.169 0.377-0.377 0.377v0h-2.638v-3.015h2.638c0.208 0 0.377 0.169 0.377 0.377v0 0.377h1.13c0.208 0 0.377 0.169 0.377 0.377v0zM32.157 12.22v0.754c0 0.208-0.169 0.377-0.377 0.377v0h-1.13v0.377c0 0.208-0.169 0.377-0.377 0.377v0h-2.638v-3.015h2.638c0.208 0 0.377 0.169 0.377 0.377v0 0.377h1.13c0.208 0 0.377 0.169 0.377 0.377v0zM32.157 18.249v0.754c0 0.208-0.169 0.377-0.377 0.377v0h-1.13v0.377c0 0.208-0.169 0.377-0.377 0.377v0h-2.638v-3.015h2.638c0.208 0 0.377 0.169 0.377 0.377v0 0.377h1.13c0.208 0 0.377 0.169 0.377 0.377v0zM32.157 24.279v0.754c0 0.208-0.169 0.377-0.377 0.377v0h-1.13v0.377c0 0.208-0.169 0.377-0.377 0.377v0h-2.638v-3.015h2.638c0.208 0 0.377 0.169 0.377 0.377v0 0.377h1.13c0.208 0 0.377 0.169 0.377 0.377v0zM1.884 23.148h2.638v3.015h-2.638c-0.208 0-0.377-0.169-0.377-0.377v0-0.377h-1.13c-0.208 0-0.377-0.169-0.377-0.377v0-0.754c0-0.208 0.169-0.377 0.377-0.377v0h1.13v-0.377c0-0.208 0.169-0.377 0.377-0.377v0zM1.884 17.119h2.638v3.015h-2.638c-0.208 0-0.377-0.169-0.377-0.377v0-0.377h-1.13c-0.208 0-0.377-0.169-0.377-0.377v0-0.754c0-0.208 0.169-0.377 0.377-0.377v0h1.13v-0.377c0-0.208 0.169-0.377 0.377-0.377v0zM1.884 11.089h2.638v3.015h-2.638c-0.208 0-0.377-0.169-0.377-0.377v0-0.377h-1.13c-0.208 0-0.377-0.169-0.377-0.377v0-0.754c0-0.208 0.169-0.377 0.377-0.377v0h1.13v-0.377c0-0.208 0.169-0.377 0.377-0.377v0zM1.884 5.060h2.638v3.015h-2.638c-0.208 0-0.377-0.169-0.377-0.377v0-0.377h-1.13c-0.208 0-0.377-0.169-0.377-0.377v0-0.754c0-0.208 0.169-0.377 0.377-0.377v0h1.13v-0.377c0-0.208 0.169-0.377 0.377-0.377v0z"></path>
</svg>
