<!-- Generated by IcoMoon.io -->
<svg version="1.1" xmlns="http://www.w3.org/2000/svg" width="32" height="32" viewBox="0 0 32 32">
<title>mid-file-format</title>
<path d="M21.032 23.953c-0.339 0-0.558 0.030-0.688 0.060v4.396c0.13 0.030 0.339 0.030 0.528 0.030 1.376 0.010 2.273-0.747 2.273-2.353 0.010-1.395-0.808-2.133-2.113-2.133zM27.737 7.239c-0.002-0.147-0.049-0.293-0.15-0.408l-6.2-7.082c-0.001-0.002-0.003-0.003-0.005-0.004-0.037-0.041-0.079-0.075-0.125-0.105-0.013-0.009-0.027-0.017-0.041-0.025-0.040-0.021-0.081-0.039-0.124-0.052-0.012-0.003-0.022-0.008-0.034-0.011-0.047-0.011-0.095-0.018-0.145-0.018h-15.238c-0.695 0-1.261 0.566-1.261 1.261v29.635c0 0.695 0.566 1.261 1.261 1.261h20.807c0.696 0 1.261-0.566 1.261-1.261v-23.119c0-0.024-0.004-0.047-0.006-0.071zM13.327 29.556l-0.1-2.572c-0.030-0.808-0.060-1.785-0.060-2.762h-0.030c-0.209 0.858-0.489 1.814-0.748 2.602l-0.817 2.622h-1.186l-0.718-2.602c-0.219-0.787-0.449-1.745-0.608-2.622h-0.020c-0.040 0.907-0.070 1.944-0.12 2.781l-0.12 2.553h-1.405l0.429-6.719h2.024l0.658 2.243c0.209 0.777 0.418 1.615 0.568 2.402h0.030c0.19-0.778 0.419-1.665 0.638-2.412l0.717-2.233h1.984l0.369 6.719h-1.486zM17.504 29.556h-1.525v-6.719h1.525v6.719zM23.644 28.758c-0.708 0.588-1.785 0.868-3.1 0.868-0.788 0-1.346-0.050-1.725-0.1v-6.6c0.558-0.090 1.286-0.139 2.054-0.139 1.276 0 2.103 0.229 2.752 0.718 0.698 0.518 1.136 1.346 1.136 2.532-0 1.286-0.469 2.174-1.117 2.722zM5.675 20.945v-20.151h14.607v6.452c0 0.348 0.282 0.631 0.631 0.631h5.569l0.001 13.068h-20.808zM13.134 12.788h0.002l0.020-7.3c0 0 1.589-0.085 3.145 2.354 0 0 0.004-1.259-1.193-2.181-2.334-1.632-2.328-2.015-2.328-2.015-0.445 0.052-0.49 0.389-0.49 0.389v7.687c-0.334-0.116-0.733-0.136-1.143-0.036-0.906 0.226-1.498 0.974-1.325 1.67 0.101 0.642 1.049 1.073 1.956 0.845 0.796-0.198 1.352-0.799 1.355-1.415zM14.184 9.373v7.138c-0.311-0.109-0.682-0.128-1.060-0.033-0.842 0.211-1.393 0.904-1.232 1.55 0.094 0.598 0.975 0.998 1.816 0.787 0.74-0.183 1.255-0.744 1.259-1.315h0.001l0.020-6.030 4.35-0.795v4.848c-0.316-0.112-0.695-0.131-1.079-0.036-0.851 0.213-1.408 0.913-1.244 1.567 0.163 0.652 0.984 1.008 1.835 0.797 0.775-0.196 1.272-0.728 1.272-1.393v-8.047l-5.937 0.963z"></path>
</svg>
