<!-- Generated by IcoMoon.io -->
<svg version="1.1" xmlns="http://www.w3.org/2000/svg" width="32" height="32" viewBox="0 0 32 32">
<title>mim-file-format</title>
<path d="M27.737 7.239c-0.002-0.147-0.049-0.293-0.15-0.408l-6.2-7.082c-0.001-0.002-0.003-0.002-0.005-0.004-0.037-0.041-0.079-0.075-0.125-0.105-0.013-0.009-0.027-0.017-0.041-0.025-0.040-0.021-0.081-0.039-0.124-0.052-0.012-0.004-0.022-0.008-0.034-0.011-0.047-0.011-0.095-0.018-0.145-0.018h-15.238c-0.695 0-1.261 0.566-1.261 1.261v29.635c0 0.695 0.566 1.261 1.261 1.261h20.807c0.696 0 1.261-0.566 1.261-1.261v-23.119c0-0.024-0.004-0.047-0.006-0.070zM12.351 29.357l-0.107-2.755c-0.032-0.865-0.064-1.912-0.064-2.959h-0.032c-0.224 0.919-0.523 1.944-0.801 2.787l-0.876 2.808h-1.271l-0.769-2.787c-0.235-0.844-0.481-1.869-0.651-2.809h-0.022c-0.042 0.972-0.075 2.083-0.128 2.98l-0.128 2.734h-1.506l0.459-7.197h2.168l0.704 2.403c0.225 0.833 0.449 1.73 0.609 2.574h0.032c0.203-0.833 0.448-1.784 0.683-2.584l0.769-2.392h2.125l0.395 7.197h-1.591zM16.826 29.357h-1.634v-7.197h1.634v7.197zM24.43 29.357l-0.106-2.755c-0.032-0.865-0.064-1.912-0.064-2.959h-0.032c-0.225 0.919-0.523 1.944-0.801 2.787l-0.875 2.808h-1.271l-0.769-2.787c-0.235-0.844-0.48-1.869-0.651-2.809h-0.022c-0.042 0.972-0.074 2.083-0.128 2.98l-0.128 2.734h-1.505l0.459-7.197h2.168l0.705 2.403c0.224 0.833 0.448 1.73 0.609 2.574h0.032c0.203-0.833 0.448-1.784 0.683-2.584l0.769-2.392h2.125l0.395 7.197h-1.592zM5.675 20.945v-20.151h14.607v6.452c0 0.348 0.282 0.631 0.631 0.631h5.569l0.001 13.068h-20.808zM20.556 8.691c-0.001-0.064-0.021-0.128-0.065-0.178l-2.712-3.098c0-0.001-0.001-0.001-0.002-0.002-0.016-0.018-0.035-0.033-0.055-0.046-0.006-0.004-0.012-0.007-0.018-0.011-0.017-0.010-0.035-0.018-0.054-0.023-0.006-0.002-0.009-0.003-0.015-0.005-0.021-0.005-0.042-0.008-0.063-0.008h-6.663c-0.304 0-0.552 0.248-0.552 0.551v12.961c0 0.303 0.247 0.551 0.552 0.551h9.099c0.305 0 0.552-0.248 0.552-0.551v-10.111c0-0.010-0.001-0.020-0.002-0.031zM10.908 18.787v-12.915h6.388v2.822c0 0.152 0.123 0.276 0.276 0.276h2.436l0.001 9.817h-9.1zM19.214 10.412c-0.001-0.007-0.002-0.012-0.004-0.019s-0.004-0.015-0.007-0.022c-0.002-0.007-0.005-0.013-0.009-0.020-0.002-0.005-0.004-0.009-0.006-0.014-0.001-0.002-0.002-0.003-0.004-0.005-0.005-0.008-0.010-0.015-0.016-0.021-0.003-0.004-0.005-0.007-0.008-0.010-0.039-0.044-0.094-0.072-0.155-0.072h-7.098c-0.061 0-0.116 0.028-0.155 0.072-0.003 0.003-0.005 0.007-0.008 0.010-0.006 0.007-0.011 0.013-0.015 0.021-0.001 0.002-0.002 0.003-0.004 0.005-0.002 0.005-0.004 0.009-0.006 0.014-0.003 0.006-0.006 0.013-0.008 0.020s-0.005 0.015-0.007 0.022c-0.002 0.007-0.003 0.013-0.004 0.019-0.001 0.009-0.002 0.018-0.002 0.026-0.001 0.005-0.001 0.009-0.001 0.013v4.683c0 0.124 0.095 0.224 0.211 0.224h7.098c0.117 0 0.212-0.1 0.212-0.224v-4.683c0-0.004-0.001-0.008-0.001-0.013-0.001-0.008-0.001-0.017-0.003-0.026zM18.24 10.676l-2.783 1.762-2.782-1.762h5.566zM18.794 14.91h-6.675v-4.063l3.229 2.044c0.033 0.021 0.070 0.033 0.108 0.033s0.076-0.011 0.108-0.033l3.229-2.044v4.063z"></path>
</svg>
