<!-- Generated by IcoMoon.io -->
<svg version="1.1" xmlns="http://www.w3.org/2000/svg" width="28" height="32" viewBox="0 0 28 32">
<title>minus-square1</title>
<path d="M25.122 1.543h-22.108c-1.664 0-3.015 1.35-3.015 3.015v22.108c0 1.664 1.35 3.015 3.015 3.015h22.108c1.664 0 3.015-1.35 3.015-3.015v-22.108c0-1.664-1.35-3.015-3.015-3.015zM5.778 18.124c-0.415 0-0.754-0.339-0.754-0.754v-3.517c0-0.415 0.339-0.754 0.754-0.754h16.581c0.415 0 0.754 0.339 0.754 0.754v3.517c0 0.415-0.339 0.754-0.754 0.754h-16.581z"></path>
</svg>
