<!-- Generated by IcoMoon.io -->
<svg version="1.1" xmlns="http://www.w3.org/2000/svg" width="28" height="32" viewBox="0 0 28 32">
<title>mitten</title>
<path d="M23.113 25.66h-20.098c-0.553 0-1.005 0.452-1.005 1.005v4.020c0 0.553 0.452 1.005 1.005 1.005h20.098c0.553 0 1.005-0.452 1.005-1.005v-4.020c0-0.553-0.452-1.005-1.005-1.005zM26.693 12.528c-1.708-1.419-4.239-1.193-5.659 0.515l-1.313 1.57-1.859-8.064c-1.13-4.867-5.992-7.907-10.853-6.783s-7.901 5.979-6.777 10.847l3.008 13.039h19.407l4.553-5.464c1.426-1.708 1.193-4.239-0.509-5.659z"></path>
</svg>
