<!-- Generated by IcoMoon.io -->
<svg version="1.1" xmlns="http://www.w3.org/2000/svg" width="40" height="32" viewBox="0 0 40 32">
<title>mixcloud</title>
<path d="M26.657 13.333c-0.522-5.339-5.043-9.53-10.521-9.53-4.539 0-8.556 2.921-9.999 7.165-3.426 0.504-6.069 3.443-6.069 7.008 0 3.913 3.182 7.095 7.112 7.095h18.189c3.287 0 5.965-2.661 5.965-5.947 0-2.834-2.017-5.217-4.678-5.791zM25.37 22.411h-18.189c-2.452 0-4.452-1.982-4.452-4.434s2-4.434 4.452-4.434c1.182 0 2.295 0.47 3.13 1.304 1.254 1.254 3.149-0.642 1.895-1.895-0.922-0.904-2.052-1.53-3.269-1.843 1.252-2.782 4.069-4.643 7.199-4.643 4.365 0 7.912 3.547 7.912 7.895 0 0.852-0.139 1.687-0.4 2.487-0.562 1.728 2.018 2.446 2.521 0.835 0.174-0.522 0.313-1.061 0.4-1.6 1.217 0.47 2.104 1.652 2.104 3.043 0 1.808-1.478 3.287-3.304 3.287zM40.134 19.124c0 2.765-0.8 5.426-2.33 7.704-0.261 0.383-0.678 0.591-1.113 0.591-1.025 0-1.704-1.182-1.096-2.069 1.217-1.843 1.878-4 1.878-6.225s-0.661-4.382-1.878-6.208c-0.983-1.434 1.216-2.967 2.208-1.478 1.53 2.261 2.33 4.921 2.33 7.686zM35.682 19.124c0 1.983-0.574 3.895-1.687 5.547-0.261 0.383-0.678 0.574-1.113 0.574-1.080 0-1.697-1.192-1.096-2.069 0.817-1.2 1.235-2.591 1.235-4.052 0-1.443-0.417-2.852-1.235-4.052-0.99-1.444 1.194-2.958 2.208-1.478 1.113 1.635 1.687 3.548 1.687 5.53z"></path>
</svg>
