<!-- Generated by IcoMoon.io -->
<svg version="1.1" xmlns="http://www.w3.org/2000/svg" width="31" height="32" viewBox="0 0 31 32">
<title>mizuni</title>
<path d="M15.576 0.035c-8.604 0-15.576 6.978-15.576 15.576 0 8.604 6.971 15.576 15.576 15.576s15.576-6.971 15.576-15.576c0-8.598-6.971-15.576-15.576-15.576zM10.551 22.137c-1.972 0.666-3.693 1.715-5.024 3.027v-17.090c0-1.388 1.124-2.512 2.512-2.512s2.512 1.124 2.512 2.512v14.062zM18.088 21.515c-0.81-0.126-1.645-0.195-2.5-0.195-0.867 0-1.708 0.069-2.525 0.195v-13.441c0-1.388 1.124-2.512 2.512-2.512s2.512 1.124 2.512 2.512v13.441zM25.625 25.139c-1.331-1.306-3.052-2.349-5.024-3.015v-14.050c0-1.388 1.124-2.512 2.512-2.512s2.512 1.124 2.512 2.512v17.064z"></path>
</svg>
