<!-- Generated by IcoMoon.io -->
<svg version="1.1" xmlns="http://www.w3.org/2000/svg" width="20" height="32" viewBox="0 0 20 32">
<title>app-vcn-alt</title>
<path d="M17.083-0.467h-14.069c-1.664 0-3.015 1.35-3.015 3.015v26.127c0 1.664 1.35 3.015 3.015 3.015h14.069c1.664 0 3.015-1.35 3.015-3.015v-26.127c0-1.664-1.35-3.015-3.015-3.015zM10.049 29.68c-1.112 0-2.010-0.898-2.010-2.010s0.898-2.010 2.010-2.010 2.010 0.898 2.010 2.010-0.898 2.010-2.010 2.010zM17.083 22.897c0 0.415-0.339 0.754-0.754 0.754h-12.561c-0.415 0-0.754-0.339-0.754-0.754v-19.596c0-0.415 0.339-0.754 0.754-0.754h12.561c0.415 0 0.754 0.339 0.754 0.754v19.596z"></path>
</svg>
