<!-- Generated by IcoMoon.io -->
<svg version="1.1" xmlns="http://www.w3.org/2000/svg" width="32" height="32" viewBox="0 0 32 32">
<title>app-vcn-navigator</title>
<path d="M8 0.003c-1.469 0-2.667 1.197-2.667 2.667v26.667c0 1.469 1.197 2.667 2.667 2.667h16c1.469 0 2.667-1.197 2.667-2.667v-1.333h-2.667v1.333h-16v-26.667h16v1.333h2.667v-1.333c0-1.469-1.197-2.667-2.667-2.667h-16zM25.333 6.67c-3.666 0-6.667 3.001-6.667 6.667 0 1.139 0.423 2.205 0.961 3.344s1.231 2.311 1.917 3.383c1.372 2.143 2.737 3.896 2.737 3.896l1.052 1.354 1.052-1.354c0 0 1.365-1.753 2.737-3.896 0.686-1.071 1.378-2.244 1.917-3.383s0.961-2.205 0.961-3.344c0-3.666-3.001-6.667-6.667-6.667zM25.333 9.336c2.225 0 4 1.775 4 4 0 0.334-0.244 1.227-0.706 2.203s-1.103 2.072-1.75 3.083c-0.77 1.203-1.045 1.523-1.544 2.2-0.5-0.678-0.774-0.997-1.544-2.2-0.647-1.011-1.288-2.107-1.75-3.083s-0.706-1.869-0.706-2.203c0-2.225 1.775-4 4-4zM25.333 12.003c-0.736 0-1.333 0.597-1.333 1.333s0.597 1.333 1.333 1.333c0.736 0 1.333-0.597 1.333-1.333s-0.597-1.333-1.333-1.333zM13.333 25.336v2.667h5.333v-2.667h-5.333z"></path>
</svg>
