<!-- Generated by IcoMoon.io -->
<svg version="1.1" xmlns="http://www.w3.org/2000/svg" width="40" height="32" viewBox="0 0 40 32">
<title>money-bill-alt</title>
<path d="M20.098 8.577c-3.33 0-6.029 3.149-6.029 7.034s2.699 7.034 6.029 7.034c3.329 0 6.029-3.148 6.029-7.034s-2.699-7.034-6.029-7.034zM22.61 19.128c0 0.278-0.225 0.503-0.503 0.503h-4.020c-0.278 0-0.503-0.225-0.503-0.503v-1.005c0-0.278 0.225-0.503 0.503-0.503h1.005v-3.482l-0.030 0.020c-0.078 0.053-0.175 0.085-0.279 0.085-0.174 0-0.327-0.088-0.417-0.222l-0.001-0.002-0.558-0.836c-0.053-0.078-0.084-0.175-0.084-0.279 0-0.174 0.088-0.327 0.222-0.417l0.002-0.001 0.963-0.642c0.235-0.159 0.524-0.253 0.836-0.253 0 0 0 0 0 0h0.853c0.278 0 0.503 0.225 0.503 0.502v5.527h1.005c0.278 0 0.503 0.225 0.503 0.503v1.005zM38.186 3.553h-36.176c-1.11 0-2.010 0.9-2.010 2.010v20.098c0 1.11 0.9 2.010 2.010 2.010h36.176c1.11 0 2.010-0.9 2.010-2.010v-20.098c0-1.11-0.9-2.010-2.010-2.010zM37.181 20.636c-2.22 0-4.020 1.799-4.020 4.020h-26.127c0-2.22-1.799-4.020-4.020-4.020v-10.049c2.22 0 4.020-1.799 4.020-4.020h26.127c0 2.22 1.799 4.020 4.020 4.020v10.049z"></path>
</svg>
