<!-- Generated by IcoMoon.io -->
<svg version="1.1" xmlns="http://www.w3.org/2000/svg" width="32" height="32" viewBox="0 0 32 32">
<title>money-bag</title>
<path d="M16.016-0.731c-3.844 0-6.927 1.401-6.927 1.401l-1.241 0.52 0.601 1.201 2.042 4.044c-2.733 1.612-9.85 6.546-9.85 14.614 0 3.784 1.226 6.657 3.884 8.248s6.381 2.002 11.491 2.002c5.11 0 8.834-0.41 11.491-2.002s3.884-4.464 3.884-8.248c0-5.265-3.073-9.209-5.966-11.771 2.492 1.011 3.724 2.402 3.724 2.402l1.922-1.762c0 0-3.268-3.453-9.209-4.124l1.722-3.403 0.601-1.201-1.241-0.52c0 0-3.083-1.401-6.927-1.401zM16.016 1.831c2.017 0 3.543 0.375 4.605 0.721l-1.562 3.123h-6.086l-1.562-3.123c1.061-0.345 2.588-0.721 4.604-0.721zM12.572 8.237h6.887c0.315 0.165 9.369 4.94 9.369 12.813 0 3.293-0.766 4.92-2.643 6.046s-5.22 1.642-10.17 1.642c-4.95 0-8.293-0.515-10.17-1.642s-2.643-2.753-2.643-6.046c0-7.873 9.054-12.647 9.369-12.813zM14.734 10.8v1.521c-1.481 0.541-2.563 1.957-2.563 3.604 0 1.066 0.591 1.977 1.241 2.522s1.401 0.876 2.042 1.201c0.641 0.325 1.211 0.626 1.521 0.881s0.32 0.325 0.32 0.52c0 0.671-0.581 1.281-1.281 1.281-0.726 0-1.281-0.556-1.281-1.281h-2.563c0 1.657 1.081 3.068 2.563 3.604v1.521h2.563v-1.521c1.486-0.541 2.563-1.962 2.563-3.604 0-1.066-0.631-1.942-1.281-2.482s-1.361-0.881-2.002-1.201c-0.641-0.32-1.171-0.621-1.481-0.881s-0.36-0.345-0.36-0.561c0-0.691 0.571-1.281 1.281-1.281 0.726 0 1.281 0.556 1.281 1.281h2.563c0-1.657-1.081-3.068-2.563-3.604v-1.521z"></path>
</svg>
