<!-- Generated by IcoMoon.io -->
<svg version="1.1" xmlns="http://www.w3.org/2000/svg" width="40" height="32" viewBox="0 0 40 32">
<title>money-check-alt</title>
<path d="M38.186 1.543h-36.176c-1.11 0-2.010 0.9-2.010 2.010v24.118c0 1.11 0.9 2.010 2.010 2.010h36.176c1.11 0 2.010-0.9 2.010-2.010v-24.118c0-1.11-0.9-2.010-2.010-2.010zM11.054 20.126v1.012c0 0.278-0.225 0.503-0.502 0.503h-1.005c-0.278 0-0.502-0.225-0.502-0.503v-1.023c-0.709-0.036-1.399-0.284-1.97-0.713-0.245-0.184-0.258-0.551-0.036-0.762l0.738-0.704c0.174-0.166 0.433-0.173 0.636-0.046 0.243 0.152 0.519 0.234 0.805 0.234h1.765c0.408 0 0.741-0.372 0.741-0.828 0-0.374-0.227-0.703-0.551-0.8l-2.826-0.848c-1.168-0.35-1.983-1.471-1.983-2.725 0-1.54 1.196-2.791 2.68-2.831v-1.012c0-0.278 0.225-0.502 0.502-0.502h1.005c0.278 0 0.502 0.225 0.502 0.502v1.023c0.709 0.036 1.399 0.283 1.97 0.713 0.245 0.184 0.258 0.551 0.036 0.762l-0.738 0.704c-0.174 0.166-0.433 0.173-0.636 0.046-0.243-0.153-0.519-0.234-0.805-0.234h-1.765c-0.408 0-0.741 0.372-0.741 0.828 0 0.374 0.227 0.703 0.551 0.8l2.826 0.848c1.168 0.35 1.983 1.471 1.983 2.725 0 1.541-1.196 2.791-2.68 2.831zM26.127 19.128c0 0.278-0.225 0.503-0.503 0.503h-7.034c-0.278 0-0.503-0.225-0.503-0.503v-1.005c0-0.278 0.225-0.503 0.503-0.503h7.034c0.278 0 0.503 0.225 0.503 0.503v1.005zM36.176 19.128c0 0.278-0.225 0.503-0.502 0.503h-5.024c-0.278 0-0.503-0.225-0.503-0.503v-1.005c0-0.278 0.225-0.503 0.503-0.503h5.024c0.278 0 0.502 0.225 0.502 0.503v1.005zM36.176 13.099c0 0.278-0.225 0.502-0.502 0.502h-17.083c-0.278 0-0.503-0.225-0.503-0.502v-1.005c0-0.278 0.225-0.502 0.503-0.502h17.083c0.278 0 0.502 0.225 0.502 0.502v1.005z"></path>
</svg>
