<!-- Generated by IcoMoon.io -->
<svg version="1.1" xmlns="http://www.w3.org/2000/svg" width="40" height="32" viewBox="0 0 40 32">
<title>money-check</title>
<path d="M0 27.67c0 1.11 0.9 2.010 2.010 2.010h36.176c1.11 0 2.010-0.9 2.010-2.010v-20.098h-40.196v20.098zM28.137 14.606c0-0.555 0.45-1.005 1.005-1.005h6.029c0.555 0 1.005 0.45 1.005 1.005v2.010c0 0.555-0.45 1.005-1.005 1.005h-6.029c-0.555 0-1.005-0.45-1.005-1.005v-2.010zM28.137 22.143c0-0.278 0.225-0.503 0.503-0.503h7.034c0.278 0 0.502 0.225 0.502 0.503v1.005c0 0.278-0.225 0.503-0.502 0.503h-7.034c-0.278 0-0.503-0.225-0.503-0.503v-1.005zM4.020 16.114c0-0.278 0.225-0.502 0.503-0.502h19.093c0.278 0 0.503 0.225 0.503 0.502v1.005c0 0.278-0.225 0.503-0.503 0.503h-19.093c-0.278 0-0.502-0.225-0.502-0.503v-1.005zM4.020 22.143c0-0.278 0.225-0.503 0.503-0.503h11.054c0.278 0 0.502 0.225 0.502 0.503v1.005c0 0.278-0.225 0.503-0.502 0.503h-11.054c-0.278 0-0.502-0.225-0.502-0.503v-1.005zM39.191 1.543h-38.186c-0.555 0-1.005 0.45-1.005 1.005v3.015h40.196v-3.015c0-0.555-0.45-1.005-1.005-1.005z"></path>
</svg>
