<!-- Generated by IcoMoon.io -->
<svg version="1.1" xmlns="http://www.w3.org/2000/svg" width="40" height="32" viewBox="0 0 40 32">
<title>money-bill-wave-alt</title>
<path d="M39.013 2.953c-2.436-1.022-4.874-1.411-7.311-1.411-7.736-0.001-15.471 3.915-23.207 3.915-1.94 0-3.879-0.246-5.819-0.862-0.218-0.069-0.437-0.102-0.65-0.102-1.081 0-2.025 0.837-2.025 1.998v19.926c0 0.793 0.454 1.545 1.183 1.85 2.436 1.023 4.874 1.411 7.311 1.411 7.736 0 15.472-3.916 23.207-3.916 1.94 0 3.879 0.246 5.819 0.862 0.218 0.069 0.437 0.102 0.65 0.102 1.081 0 2.025-0.837 2.025-1.998v-19.925c-0.001-0.794-0.455-1.545-1.184-1.851zM20.098 21.641c-2.775 0-5.024-2.7-5.024-6.029s2.25-6.029 5.024-6.029 5.024 2.699 5.024 6.029c0 3.331-2.25 6.029-5.024 6.029z"></path>
</svg>
