<!-- Generated by IcoMoon.io -->
<svg version="1.1" xmlns="http://www.w3.org/2000/svg" width="32" height="32" viewBox="0 0 32 32">
<title>money</title>
<path d="M0 4.003v18.667h32v-18.667h-32zM6.833 6.003h18.333l1.188 1.023c-0.086 0.504 0.113 1.096 0.568 1.552l0 0c0 0 0.001 0.001 0.001 0.001 0.536 0.536 1.262 0.718 1.797 0.5l0.009-0.004 1.271 1.094v6.333l-1.271 1.096c-0.544-0.222-1.269-0.040-1.805 0.495l-0 0c-0 0-0 0-0 0-0.455 0.455-0.655 1.048-0.572 1.544l0.002 0.008-1.188 1.023h-18.333l-1.19-1.026c0.085-0.503-0.114-1.095-0.568-1.549l-0-0c-0-0-0-0-0.001-0.001-0.535-0.535-1.26-0.718-1.795-0.501l-0.009 0.004-1.271-1.094v-6.333l1.271-1.096c0.544 0.222 1.269 0.040 1.805-0.495l0-0c0-0 0-0 0-0 0.455-0.455 0.655-1.048 0.572-1.544l-0.002-0.008 1.188-1.023zM16 8.836c-2.669 0-4.833 2.015-4.833 4.5v0c0 2.485 2.164 4.5 4.833 4.5v0c2.669 0 4.833-2.015 4.833-4.5v0c0-2.485-2.164-4.5-4.833-4.5v0zM7.333 11.503c-1.105 0-2 0.821-2 1.833v0c0 1.013 0.895 1.833 2 1.833v0c1.105 0 2-0.821 2-1.833v0c0-1.013-0.895-1.833-2-1.833v0zM24.667 11.503c-1.105 0-2 0.821-2 1.833v0c0 1.013 0.895 1.833 2 1.833v0c1.105 0 2-0.821 2-1.833v0c0-1.013-0.895-1.833-2-1.833v0zM0 24.003v2.667h1c12.198 0 27.169 2.487 27.169 2.487l1.164 0.193v-5.346h-2v0.013h-2.042c-0.011 0.011-0.025 0.014-0.034 0.023-0.495 0.494-0.686 1.144-0.542 1.659l-1.203 0.771c-4.825-0.658-13.295-1.645-21.513-1.732v-0.734h-2z"></path>
</svg>
