<!-- Generated by IcoMoon.io -->
<svg version="1.1" xmlns="http://www.w3.org/2000/svg" width="40" height="32" viewBox="0 0 40 32">
<title>money-bill-alt1</title>
<path d="M22.108 17.621h-1.005v-5.527c0-0.278-0.225-0.502-0.503-0.502h-0.853c-0.298 0-0.588 0.088-0.836 0.253l-0.963 0.642c-0.136 0.091-0.224 0.244-0.224 0.418 0 0.104 0.032 0.2 0.086 0.28l-0.001-0.002 0.558 0.836c0.091 0.136 0.244 0.224 0.418 0.224 0.104 0 0.2-0.032 0.28-0.086l-0.002 0.001 0.030-0.020v3.482h-1.005c-0.278 0-0.503 0.225-0.503 0.503v1.005c0 0.278 0.225 0.503 0.503 0.503h4.020c0.278 0 0.503-0.225 0.503-0.503v-1.005c0-0.278-0.225-0.503-0.503-0.503zM38.186 3.553h-36.176c-1.11 0-2.010 0.9-2.010 2.010v20.098c0 1.11 0.9 2.010 2.010 2.010h36.176c1.11 0 2.010-0.9 2.010-2.010v-20.098c0-1.11-0.9-2.010-2.010-2.010zM3.015 24.655v-4.020c2.22 0 4.020 1.799 4.020 4.020h-4.020zM3.015 10.587v-4.020h4.020c0 2.22-1.799 4.020-4.020 4.020zM20.098 22.646c-3.33 0-6.029-3.15-6.029-7.034s2.699-7.034 6.029-7.034 6.029 3.149 6.029 7.034c0 3.886-2.701 7.034-6.029 7.034zM37.181 24.655h-4.020c0-2.22 1.799-4.020 4.020-4.020v4.020zM37.181 10.587c-2.22 0-4.020-1.799-4.020-4.020h4.020v4.020z"></path>
</svg>
