<!-- Generated by IcoMoon.io -->
<svg version="1.1" xmlns="http://www.w3.org/2000/svg" width="24" height="32" viewBox="0 0 24 32">
<title>monument</title>
<path d="M23.113 27.67h-22.108c-0.555 0-1.005 0.45-1.005 1.005v2.010c0 0.555 0.45 1.005 1.005 1.005h22.108c0.555 0 1.005-0.45 1.005-1.005v-2.010c0-0.555-0.45-1.005-1.005-1.005zM18.16 5.86c-0.049-0.48-0.261-0.903-0.578-1.221l-4.812-4.812c-0.393-0.393-1.029-0.393-1.421 0l-4.811 4.812c-0.318 0.317-0.529 0.741-0.578 1.212l-0.001 0.009-1.939 19.8h16.078l-1.938-19.8zM15.073 18.827c0 0.402-0.402 0.804-0.804 0.804h-4.422c-0.402 0-0.804-0.402-0.804-0.804v-2.412c0-0.402 0.402-0.804 0.804-0.804h4.422c0.402 0 0.804 0.402 0.804 0.804v2.412z"></path>
</svg>
