<!-- Generated by IcoMoon.io -->
<svg version="1.1" xmlns="http://www.w3.org/2000/svg" width="32" height="32" viewBox="0 0 32 32">
<title>moon</title>
<path d="M17.531 31.69c4.946 0 9.483-2.249 12.489-5.952 1.775-2.188-0.161-5.384-2.905-4.861-5.172 0.985-9.94-2.969-9.94-8.215 0-3.041 1.637-5.796 4.235-7.275 2.433-1.385 1.821-5.074-0.943-5.585-0.882-0.171-1.897-0.268-2.935-0.269h-0c-8.878 0-16.078 7.196-16.078 16.078 0 8.878 7.196 16.078 16.078 16.078zM17.531 2.548c0.815 0 1.613 0.075 2.388 0.218-3.439 1.957-5.759 5.655-5.759 9.895 0 7.15 6.509 12.511 13.519 11.176-2.395 2.951-6.051 4.838-10.148 4.838-7.215 0-13.064-5.849-13.064-13.064s5.849-13.064 13.064-13.064z"></path>
</svg>
