<!-- Generated by IcoMoon.io -->
<svg version="1.1" xmlns="http://www.w3.org/2000/svg" width="32" height="32" viewBox="0 0 32 32">
<title>mortar-pestle</title>
<path d="M31.5 3.359c1.082-1.082 0.786-2.905-0.582-3.589-0.292-0.149-0.637-0.236-1.002-0.236-0.507 0-0.975 0.168-1.35 0.452l0.006-0.004-12.8 9.601h9.507l6.223-6.223zM31.152 11.592h-30.147c-0.555 0-1.005 0.45-1.005 1.005v2.010c0 0.555 0.45 1.005 1.005 1.005h1.005c0 5.086 3.153 9.428 7.608 11.2-0.801 1.060-1.364 2.311-1.567 3.686-0.092 0.623 0.379 1.192 1.009 1.192h14.037c0.63 0 1.101-0.569 1.009-1.192-0.202-1.375-0.765-2.627-1.567-3.686 4.455-1.772 7.608-6.114 7.608-11.2h1.005c0.555 0 1.005-0.45 1.005-1.005v-2.010c0-0.555-0.45-1.005-1.005-1.005z"></path>
</svg>
