<!-- Generated by IcoMoon.io -->
<svg version="1.1" xmlns="http://www.w3.org/2000/svg" width="40" height="32" viewBox="0 0 40 32">
<title>mosque</title>
<path d="M0 29.68c0 1.11 0.9 2.010 2.010 2.010h4.020c1.11 0 2.010-0.9 2.010-2.010v-20.098h-8.039v20.098zM36.375 17.621c1.122-1.092 1.811-2.345 1.811-3.7 0-3.32-2.625-5.891-5.522-7.719-2.634-1.663-5.064-3.628-7.032-6.043l-0.51-0.626-0.51 0.626c-1.968 2.415-4.397 4.381-7.032 6.043-2.897 1.828-5.522 4.399-5.522 7.719 0 1.355 0.69 2.608 1.811 3.7h22.505zM38.186 19.631h-26.127c-1.11 0-2.010 0.9-2.010 2.010v8.039c0 1.11 0.9 2.010 2.010 2.010h2.010v-4.020c0-1.11 0.9-2.010 2.010-2.010s2.010 0.9 2.010 2.010v4.020h4.020v-4.522c0-3.015 3.015-4.522 3.015-4.522s3.015 1.507 3.015 4.522v4.522h4.020v-4.020c0-1.11 0.9-2.010 2.010-2.010s2.010 0.9 2.010 2.010v4.020h2.010c1.11 0 2.010-0.9 2.010-2.010v-8.039c0-1.11-0.9-2.010-2.010-2.010zM4.020-0.467s-4.020 2.010-4.020 6.029v2.010h8.039v-2.010c0-4.020-4.020-6.029-4.020-6.029z"></path>
</svg>
