<!-- Generated by IcoMoon.io -->
<svg version="1.1" xmlns="http://www.w3.org/2000/svg" width="40" height="32" viewBox="0 0 40 32">
<title>motorcycle</title>
<path d="M32.216 11.592c-0.933-0.007-1.83 0.146-2.665 0.432l-2.068-3.447h5.176c0.833 0 1.507-0.675 1.507-1.507v-2.010c0-0.832-0.675-1.507-1.507-1.507h-2.846c-0.444 0-0.843 0.192-1.119 0.498l-0.001 0.001-2.355 2.617-1.43-2.384c-0.268-0.441-0.746-0.732-1.293-0.732 0 0 0 0 0 0h-5.024c-0.555 0-1.005 0.45-1.005 1.005v1.005c0 0.555 0.45 1.005 1.005 1.005h4.171l1.206 2.010h-9.654c-1.113-1.449-2.822-2.512-6.275-2.512h-3.483c-0.845 0-1.557 0.692-1.541 1.537 0.015 0.819 0.684 1.478 1.507 1.478h3.517c1.539 0 2.43 0.686 3.001 1.556l-0.709 1.289c-0.817-0.243-1.688-0.36-2.591-0.327-4.232 0.155-7.642 3.612-7.738 7.847-0.103 4.525 3.535 8.226 8.037 8.226 3.746 0 6.893-2.562 7.785-6.029h5.291c0.859 0 1.544-0.717 1.506-1.575-0.133-2.959 1.1-5.883 3.529-7.852l0.784 1.307c-1.736 1.486-2.832 3.698-2.816 6.166 0.030 4.369 3.593 7.942 7.961 7.983 4.499 0.043 8.155-3.611 8.117-8.108-0.037-4.371-3.609-7.938-7.979-7.97zM8.039 24.655c-2.77 0-5.024-2.254-5.024-5.024s2.254-5.024 5.024-5.024c0.266 0 0.528 0.021 0.783 0.062l-2.606 4.739c-0.552 1.003 0.175 2.234 1.321 2.234h5.106c-0.777 1.773-2.547 3.015-4.604 3.015zM32.43 24.648c-2.894 0.154-5.298-2.156-5.298-5.017 0-1.342 0.53-2.561 1.39-3.463l3.103 5.172c0.286 0.476 0.903 0.63 1.379 0.345l0.862-0.517c0.476-0.286 0.63-0.903 0.345-1.379l-3.050-5.083c0.299-0.063 0.643-0.1 0.995-0.1 0 0 0.001 0 0.001 0h-0c2.861 0 5.171 2.404 5.017 5.298-0.136 2.547-2.197 4.608-4.744 4.744z"></path>
</svg>
