<!-- Generated by IcoMoon.io -->
<svg version="1.1" xmlns="http://www.w3.org/2000/svg" width="40" height="32" viewBox="0 0 40 32">
<title>mountain</title>
<path d="M39.877 28.593l-18.088-28.137c-0.37-0.575-1.007-0.923-1.691-0.923s-1.321 0.348-1.691 0.923l-18.088 28.137c-0.2 0.307-0.319 0.683-0.319 1.087 0 0.353 0.091 0.685 0.251 0.973l-0.005-0.010c0.348 0.628 1.007 1.046 1.764 1.046 0 0 0 0 0 0h36.176c0.735 0 1.412-0.401 1.764-1.047 0.155-0.278 0.246-0.61 0.246-0.963 0-0.404-0.119-0.779-0.324-1.094l0.005 0.008zM20.098 5.26l5.363 8.342h-5.363l-4.020 4.020-2.39-2.39 6.41-9.971z"></path>
</svg>
