<!-- Generated by IcoMoon.io -->
<svg version="1.1" xmlns="http://www.w3.org/2000/svg" width="32" height="32" viewBox="0 0 32 32">
<title>mov-file-format-symbol</title>
<path d="M17.211 23.56c-0.973 0-1.54 0.926-1.54 2.163 0 1.247 0.586 2.125 1.549 2.125 0.973 0 1.531-0.926 1.531-2.163 0-1.143-0.548-2.126-1.54-2.126zM27.737 7.239c-0.002-0.147-0.049-0.293-0.151-0.408l-6.2-7.082c-0.002-0.002-0.004-0.003-0.005-0.004-0.037-0.042-0.080-0.075-0.126-0.105-0.013-0.009-0.027-0.017-0.041-0.025-0.039-0.022-0.081-0.039-0.124-0.052-0.012-0.003-0.022-0.008-0.034-0.011-0.047-0.011-0.095-0.018-0.145-0.018h-15.237c-0.695 0-1.261 0.566-1.261 1.261v29.635c0 0.695 0.566 1.261 1.261 1.261h20.807c0.695 0 1.261-0.566 1.261-1.261v-23.119c-0-0.024-0.004-0.047-0.006-0.071zM11.929 28.888l-0.095-2.437c-0.028-0.765-0.057-1.691-0.057-2.617h-0.028c-0.198 0.812-0.463 1.72-0.708 2.466l-0.775 2.485h-1.124l-0.68-2.466c-0.208-0.746-0.425-1.653-0.576-2.485h-0.019c-0.038 0.86-0.066 1.843-0.113 2.636l-0.113 2.419h-1.332l0.406-6.367h1.917l0.624 2.125c0.198 0.737 0.397 1.531 0.538 2.277h0.028c0.18-0.737 0.397-1.578 0.605-2.286l0.68-2.116h1.88l0.35 6.367h-1.408zM17.145 28.992c-1.89 0-2.995-1.427-2.995-3.24 0-1.909 1.219-3.335 3.098-3.335 1.956 0 3.023 1.465 3.023 3.221 0 2.088-1.266 3.354-3.127 3.354zM24.335 28.888h-1.682l-2.041-6.367h1.578l0.774 2.692c0.217 0.756 0.416 1.483 0.568 2.277h0.028c0.161-0.765 0.359-1.522 0.576-2.249l0.812-2.72h1.531l-2.144 6.367zM5.675 20.944v-20.15h14.607v6.452c0 0.348 0.283 0.631 0.631 0.631h5.57v13.068h-20.807zM16.078 5.927c-3.349 0-6.064 2.715-6.064 6.064s2.715 6.064 6.064 6.064 6.064-2.715 6.064-6.064c0-3.349-2.715-6.064-6.064-6.064zM12.343 13.346c-0.838-0.054-1.474-0.778-1.42-1.616 0.054-0.839 0.778-1.475 1.617-1.421 0.838 0.054 1.474 0.778 1.419 1.617-0.053 0.838-0.777 1.473-1.615 1.419zM15.653 17.125c-0.838-0.054-1.474-0.777-1.42-1.616 0.055-0.838 0.779-1.474 1.617-1.419s1.475 0.777 1.42 1.616c-0.054 0.838-0.777 1.474-1.616 1.419zM15.23 12.032c0-0.454 0.368-0.824 0.823-0.824s0.825 0.37 0.825 0.824c0 0.454-0.37 0.824-0.825 0.824s-0.823-0.37-0.823-0.824zM16.085 9.893c-0.838-0.054-1.474-0.778-1.422-1.617 0.055-0.838 0.778-1.474 1.618-1.419 0.838 0.054 1.474 0.777 1.42 1.615s-0.778 1.474-1.616 1.42zM19.319 13.796c-0.838-0.054-1.474-0.777-1.421-1.616 0.055-0.839 0.778-1.474 1.617-1.419 0.838 0.053 1.474 0.777 1.42 1.616-0.055 0.838-0.778 1.474-1.617 1.419z"></path>
</svg>
