<!-- Generated by IcoMoon.io -->
<svg version="1.1" xmlns="http://www.w3.org/2000/svg" width="32" height="32" viewBox="0 0 32 32">
<title>mp3-file-format-variant</title>
<path d="M17.589 23.716c-0.32 0-0.538 0.031-0.651 0.061v2.057c0.134 0.031 0.3 0.042 0.527 0.042 0.837 0 1.355-0.424 1.355-1.138 0-0.64-0.445-1.023-1.231-1.023zM27.736 7.239c-0.001-0.147-0.048-0.293-0.15-0.408l-6.2-7.082c-0.002-0.002-0.004-0.003-0.005-0.004-0.037-0.041-0.080-0.075-0.126-0.105-0.013-0.008-0.027-0.017-0.041-0.025-0.039-0.021-0.081-0.039-0.124-0.052-0.012-0.004-0.022-0.008-0.034-0.011-0.047-0.011-0.095-0.018-0.145-0.018h-15.237c-0.696 0-1.261 0.566-1.261 1.261v29.635c0 0.695 0.565 1.261 1.261 1.261h20.807c0.695 0 1.261-0.566 1.261-1.261v-23.119c-0-0.024-0.004-0.047-0.007-0.071zM12.626 29.546l-0.103-2.667c-0.032-0.837-0.062-1.851-0.062-2.864h-0.031c-0.217 0.889-0.507 1.882-0.776 2.699l-0.847 2.719h-1.23l-0.744-2.699c-0.227-0.816-0.466-1.808-0.631-2.719h-0.021c-0.041 0.941-0.072 2.016-0.124 2.884l-0.125 2.646h-1.457l0.444-6.967h2.098l0.682 2.326c0.217 0.807 0.434 1.675 0.589 2.491h0.031c0.196-0.807 0.434-1.726 0.662-2.501l0.744-2.316h2.057l0.382 6.967-1.54 0zM19.739 26.352c-0.538 0.507-1.334 0.735-2.264 0.735-0.207 0-0.393-0.010-0.538-0.031v2.491h-1.562v-6.874c0.486-0.084 1.169-0.145 2.13-0.145 0.972 0 1.664 0.187 2.13 0.559 0.445 0.351 0.744 0.93 0.744 1.613s-0.228 1.261-0.641 1.654zM23.090 29.66c-0.869 0-1.603-0.227-1.996-0.475l0.321-1.179c0.279 0.145 0.92 0.413 1.561 0.413 0.816 0 1.23-0.393 1.23-0.899 0-0.662-0.662-0.962-1.355-0.962h-0.641v-1.127h0.61c0.527-0.010 1.199-0.206 1.199-0.775 0-0.403-0.331-0.703-0.992-0.703-0.548 0-1.127 0.238-1.406 0.403l-0.321-1.138c0.403-0.258 1.209-0.506 2.079-0.506 1.436 0 2.233 0.755 2.233 1.675 0 0.713-0.403 1.272-1.23 1.561v0.021c0.807 0.145 1.458 0.754 1.458 1.633-0 1.189-1.045 2.057-2.75 2.057zM5.675 20.945v-20.151h14.607v6.452c0 0.348 0.283 0.631 0.631 0.631h5.57v13.068l-20.807-0zM20.55 13.233c-1.691-1.035-1.685-1.28-1.685-1.28-0.323 0.033-0.356 0.248-0.356 0.248v4.879c-0.243-0.074-0.531-0.088-0.828-0.023-0.656 0.142-1.086 0.618-0.96 1.059 0.073 0.408 0.761 0.683 1.417 0.537 0.576-0.126 0.978-0.507 0.981-0.898h0.001l0.015-4.523c0 0 1.151-0.164 2.278 1.384-0-0 0.003-0.799-0.864-1.383zM14.211 12.341c0 0.572 0.466 1.037 1.037 1.037s1.037-0.466 1.037-1.037c0-0.572-0.465-1.037-1.037-1.037s-1.037 0.465-1.037 1.037zM13.264 12.341c0 1.094 0.89 1.985 1.985 1.985s1.984-0.89 1.984-1.985c0-1.094-0.89-1.985-1.984-1.985s-1.985 0.891-1.985 1.985zM16.743 12.341c0 0.824-0.67 1.494-1.495 1.494s-1.495-0.671-1.495-1.494c0-0.824 0.671-1.495 1.495-1.495s1.495 0.671 1.495 1.495zM17.611 16.664c0.159-0.035 0.308-0.054 0.483-0.052l0.001-0.587c-0.789 0.611-1.775 0.978-2.847 0.978-2.571 0-4.662-2.092-4.662-4.662s2.091-4.662 4.662-4.662c2.562 0 4.646 2.078 4.661 4.637 0.129 0.091 0.289 0.198 0.476 0.318 0.006-0.097 0.015-0.194 0.015-0.293 0-2.84-2.311-5.152-5.151-5.152-2.842 0-5.153 2.312-5.153 5.152s2.311 5.152 5.153 5.152c0.438 0 0.861-0.061 1.268-0.164 0.236-0.324 0.627-0.564 1.095-0.665zM19.592 14.020l-0.004 1.085c0.222-0.348 0.403-0.723 0.538-1.121-0.164-0.101-0.314-0.167-0.444-0.209-0.027 0.083-0.059 0.164-0.090 0.245z"></path>
</svg>
