<!-- Generated by IcoMoon.io -->
<svg version="1.1" xmlns="http://www.w3.org/2000/svg" width="32" height="32" viewBox="0 0 32 32">
<title>mp4-file-format-symbol</title>
<path d="M23.473 25.178l-0.929 1.517v0.021h1.558v-1.538c0-0.416 0.022-0.843 0.054-1.292h-0.042c-0.224 0.449-0.406 0.854-0.64 1.292zM27.737 7.239c-0.002-0.148-0.049-0.293-0.15-0.408l-6.2-7.082c-0.001-0.002-0.003-0.003-0.005-0.004-0.037-0.041-0.079-0.075-0.125-0.105-0.013-0.009-0.027-0.017-0.041-0.025-0.040-0.021-0.081-0.039-0.124-0.052-0.012-0.003-0.022-0.008-0.034-0.011-0.047-0.011-0.095-0.018-0.144-0.018h-15.238c-0.695 0-1.261 0.566-1.261 1.261v29.635c0 0.696 0.566 1.261 1.261 1.261h20.807c0.695 0 1.261-0.566 1.261-1.261v-23.119c-0-0.024-0.004-0.047-0.006-0.071zM12.442 29.587l-0.107-2.755c-0.033-0.864-0.064-1.911-0.064-2.957h-0.032c-0.224 0.918-0.523 1.944-0.801 2.787l-0.875 2.808h-1.27l-0.769-2.787c-0.235-0.843-0.48-1.869-0.651-2.808h-0.022c-0.042 0.971-0.074 2.082-0.128 2.979l-0.127 2.733h-1.506l0.459-7.196h2.167l0.704 2.402c0.224 0.833 0.448 1.73 0.609 2.573h0.032c0.202-0.833 0.448-1.783 0.683-2.584l0.769-2.392h2.124l0.395 7.196h-1.592zM19.788 26.288c-0.555 0.523-1.377 0.758-2.338 0.758-0.214 0-0.406-0.010-0.555-0.032v2.573h-1.612v-7.1c0.502-0.085 1.206-0.15 2.2-0.15 1.004 0 1.718 0.192 2.2 0.577 0.459 0.362 0.768 0.961 0.768 1.665-0.001 0.706-0.236 1.303-0.663 1.709zM26.473 27.932h-0.833v1.655h-1.538v-1.655h-3.074v-1.057l2.626-4.228h1.986v4.067h0.833v1.218zM5.675 20.945v-20.151h14.607v6.452c0 0.348 0.282 0.631 0.631 0.631h5.569l0.001 13.068h-20.808zM17.567 23.566c-0.331 0-0.555 0.032-0.672 0.063v2.125c0.138 0.032 0.309 0.043 0.544 0.043 0.865 0 1.399-0.438 1.399-1.175-0-0.661-0.46-1.056-1.271-1.056zM11.024 15.663h8.869v-6.5h-8.869v6.5zM14.213 10.475c0-0.034 0.020-0.067 0.051-0.082 0.032-0.016 0.070-0.012 0.097 0.010l3.035 1.938c0.022 0.018 0.034 0.044 0.034 0.072s-0.012 0.054-0.034 0.072l-3.035 1.939c-0.017 0.013-0.036 0.020-0.057 0.020l-0.041-0.009c-0.031-0.015-0.051-0.047-0.051-0.082v-3.877zM11.024 15.764v-0.101h-0.322v1.587h9.545v-1.587h-0.355v0.101h-8.869zM20.045 15.866v1.182h-9.139v-1.182h9.139zM10.702 9.163h0.322v-0.101h8.869v0.101h0.355v-1.587h-9.545v1.587zM10.905 7.779h9.139v1.181h-9.139v-1.181zM11.261 8.060h1.358v0.575h-1.358v-0.575zM13.001 8.060h1.358v0.575h-1.358v-0.575zM14.727 8.060h1.358v0.575h-1.358v-0.575zM16.467 8.060h1.358v0.575h-1.358v-0.575zM18.263 8.082h1.358v0.576h-1.358v-0.576zM11.277 16.15h1.359v0.576h-1.359v-0.576zM13.018 16.15h1.358v0.576h-1.358v-0.576zM14.744 16.15h1.358v0.576h-1.358v-0.576zM16.484 16.15h1.358v0.576h-1.358v-0.576zM18.28 16.172h1.358v0.576h-1.358v-0.576z"></path>
</svg>
