<!-- Generated by IcoMoon.io -->
<svg version="1.1" xmlns="http://www.w3.org/2000/svg" width="32" height="32" viewBox="0 0 32 32">
<title>mpa-file-format</title>
<path d="M17.554 23.889c-0.309 0-0.518 0.030-0.628 0.060v1.984c0.129 0.030 0.289 0.040 0.509 0.040 0.807 0 1.306-0.409 1.306-1.097-0.001-0.618-0.429-0.987-1.187-0.987zM23.126 23.929h-0.020c-0.099 0.399-0.199 0.907-0.309 1.296l-0.399 1.425h1.485l-0.418-1.425c-0.12-0.399-0.239-0.897-0.339-1.296zM27.737 7.239c-0.002-0.148-0.049-0.293-0.15-0.408l-6.2-7.082c-0.001-0.002-0.003-0.002-0.005-0.004-0.037-0.041-0.079-0.075-0.125-0.105-0.013-0.009-0.027-0.017-0.041-0.025-0.040-0.021-0.081-0.039-0.124-0.052-0.012-0.003-0.022-0.008-0.034-0.011-0.047-0.011-0.095-0.018-0.145-0.018h-15.238c-0.695 0-1.261 0.566-1.261 1.261v29.635c0 0.695 0.566 1.261 1.261 1.261h20.807c0.696 0 1.261-0.566 1.261-1.261v-23.119c0-0.024-0.004-0.047-0.006-0.070zM12.77 29.512l-0.1-2.572c-0.030-0.808-0.060-1.784-0.060-2.762h-0.030c-0.209 0.858-0.489 1.814-0.748 2.602l-0.817 2.622h-1.187l-0.718-2.602c-0.219-0.787-0.448-1.744-0.608-2.622h-0.020c-0.040 0.907-0.070 1.944-0.12 2.782l-0.119 2.552h-1.406l0.428-6.719h2.024l0.658 2.243c0.209 0.778 0.418 1.615 0.568 2.403h0.030c0.19-0.778 0.419-1.665 0.638-2.413l0.717-2.233h1.984l0.369 6.719h-1.485zM17.445 27.139c-0.199 0-0.379-0.010-0.518-0.030v2.402h-1.506v-6.629c0.469-0.080 1.126-0.139 2.054-0.139 0.937 0 1.605 0.179 2.054 0.538 0.428 0.339 0.717 0.897 0.717 1.555s-0.219 1.216-0.618 1.595c-0.519 0.488-1.286 0.707-2.183 0.707zM24.622 29.512l-0.518-1.725h-1.924l-0.479 1.725h-1.575l2.054-6.719h1.993l2.084 6.719h-1.634zM5.675 20.945v-20.151h14.607v6.452c0 0.348 0.282 0.631 0.631 0.631h5.569l0.001 13.068h-20.808zM15.564 5.529c-3.648 0-6.615 2.968-6.615 6.616s2.967 6.616 6.615 6.616c3.648 0 6.615-2.968 6.615-6.616s-2.967-6.616-6.615-6.616zM15.564 17.814c-3.126 0-5.67-2.543-5.67-5.669s2.543-5.67 5.67-5.67c3.126 0 5.669 2.543 5.669 5.67s-2.543 5.669-5.669 5.669zM13.981 14.108c-0.197-0.069-0.431-0.081-0.671-0.021-0.533 0.133-0.881 0.572-0.78 0.981 0.060 0.378 0.617 0.631 1.149 0.498 0.468-0.116 0.794-0.47 0.797-0.832h0.001l0.012-3.816 2.752-0.504v3.067c-0.2-0.070-0.44-0.083-0.683-0.023-0.538 0.135-0.89 0.578-0.787 0.992 0.103 0.413 0.623 0.638 1.161 0.505 0.49-0.124 0.805-0.46 0.805-0.882v-5.091l-3.756 0.609v4.517z"></path>
</svg>
