<!-- Generated by IcoMoon.io -->
<svg version="1.1" xmlns="http://www.w3.org/2000/svg" width="32" height="32" viewBox="0 0 32 32">
<title>mpg-file-format-variant</title>
<path d="M16.801 23.7c-0.309 0-0.518 0.030-0.628 0.060v1.985c0.129 0.030 0.289 0.040 0.509 0.040 0.808 0 1.307-0.41 1.307-1.097 0-0.618-0.429-0.987-1.187-0.987zM27.736 7.239c-0.001-0.148-0.048-0.293-0.15-0.408l-6.2-7.082c-0.002-0.002-0.004-0.003-0.005-0.004-0.037-0.041-0.080-0.075-0.126-0.105-0.013-0.009-0.027-0.017-0.041-0.025-0.039-0.021-0.081-0.039-0.124-0.052-0.012-0.003-0.022-0.008-0.034-0.011-0.047-0.011-0.095-0.018-0.145-0.018h-15.237c-0.696 0-1.261 0.566-1.261 1.261v29.635c0 0.696 0.565 1.261 1.261 1.261h20.807c0.695 0 1.261-0.566 1.261-1.261v-23.119c-0-0.024-0.004-0.047-0.007-0.071zM12.013 29.325l-0.1-2.573c-0.030-0.808-0.060-1.785-0.060-2.763h-0.030c-0.21 0.858-0.489 1.815-0.748 2.603l-0.818 2.623h-1.187l-0.718-2.603c-0.219-0.788-0.449-1.746-0.609-2.623h-0.020c-0.040 0.908-0.070 1.945-0.12 2.783l-0.12 2.554h-1.406l0.429-6.722h2.024l0.658 2.244c0.209 0.778 0.419 1.616 0.569 2.404h0.030c0.19-0.778 0.419-1.666 0.639-2.413l0.718-2.234h1.985l0.369 6.722h-1.486zM18.876 26.243c-0.518 0.488-1.286 0.708-2.184 0.708-0.199 0-0.379-0.010-0.519-0.030v2.404h-1.506v-6.633c0.469-0.080 1.127-0.139 2.054-0.139 0.938 0 1.606 0.179 2.055 0.539 0.429 0.339 0.719 0.897 0.719 1.556s-0.22 1.216-0.619 1.596zM26.077 29.016c-0.469 0.159-1.356 0.379-2.244 0.379-1.227 0-2.114-0.309-2.733-0.908-0.618-0.578-0.957-1.456-0.947-2.443 0.010-2.234 1.635-3.511 3.839-3.511 0.868 0 1.536 0.17 1.865 0.329l-0.319 1.217c-0.369-0.16-0.828-0.289-1.566-0.289-1.267 0-2.224 0.718-2.224 2.174 0 1.386 0.868 2.204 2.114 2.204 0.349 0 0.628-0.040 0.748-0.099v-1.407h-1.037v-1.186h2.503v3.541h0zM5.675 20.945v-20.151h14.607v6.452c0 0.348 0.283 0.631 0.631 0.631h5.57v13.068h-20.807zM13.34 8.908c-0.054-0.042-0.127-0.050-0.189-0.020-0.060 0.029-0.1 0.092-0.1 0.159v7.519c0 0.067 0.039 0.13 0.1 0.158l0.078 0.018c0.039 0 0.078-0.013 0.11-0.038l5.887-3.759c0.042-0.034 0.067-0.086 0.067-0.14s-0.025-0.104-0.067-0.139l-5.887-3.758z"></path>
</svg>
