<!-- Generated by IcoMoon.io -->
<svg version="1.1" xmlns="http://www.w3.org/2000/svg" width="32" height="32" viewBox="0 0 32 32">
<title>msg-file</title>
<path d="M27.473 6.69l-5.95-6.785c-0.207-0.236-0.506-0.371-0.819-0.371h-15.029c-0.696 0-1.261 0.565-1.261 1.261v29.635c0 0.697 0.565 1.261 1.261 1.261h20.807c0.697 0 1.261-0.565 1.261-1.261v-23.020c0-0.264-0.096-0.52-0.27-0.718zM13.126 28.768l-0.076-1.963c-0.023-0.616-0.046-1.362-0.046-2.107h-0.023c-0.16 0.654-0.373 1.385-0.571 1.986l-0.624 2.001h-0.905l-0.548-1.986c-0.167-0.601-0.342-1.331-0.464-2.001h-0.015c-0.030 0.692-0.053 1.483-0.091 2.122l-0.091 1.948h-1.073l0.327-5.128h1.544l0.502 1.712c0.16 0.593 0.32 1.232 0.434 1.833h0.023c0.145-0.593 0.32-1.27 0.487-1.841l0.548-1.704h1.514l0.282 5.128h-1.134zM16.405 28.844c-0.586 0-1.164-0.152-1.453-0.312l0.236-0.959c0.312 0.16 0.791 0.319 1.286 0.319 0.533 0 0.814-0.221 0.814-0.555 0-0.319-0.244-0.502-0.86-0.723-0.852-0.297-1.407-0.768-1.407-1.514 0-0.875 0.73-1.544 1.94-1.544 0.578 0 1.004 0.122 1.308 0.259l-0.259 0.936c-0.205-0.099-0.571-0.243-1.073-0.243s-0.746 0.228-0.746 0.494c0 0.327 0.289 0.472 0.951 0.723 0.905 0.335 1.331 0.806 1.331 1.529 0 0.86-0.662 1.59-2.069 1.59zM23.542 28.532c-0.357 0.122-1.035 0.289-1.712 0.289-0.936 0-1.613-0.236-2.084-0.692-0.472-0.441-0.73-1.111-0.723-1.864 0.008-1.704 1.248-2.678 2.929-2.678 0.662 0 1.172 0.129 1.423 0.251l-0.244 0.928c-0.281-0.122-0.631-0.221-1.194-0.221-0.966 0-1.697 0.548-1.697 1.659 0 1.058 0.662 1.681 1.613 1.681 0.266 0 0.479-0.031 0.571-0.076v-1.073h-0.791v-0.905h1.91v2.701zM5.675 20.944v0-20.15h14.607v6.452c0 0.348 0.282 0.631 0.631 0.631h5.569l0.001 13.068h-20.808zM21.311 9.753h-10.466c-0.623 0-1.129 0.507-1.129 1.129v6.419c0 0.623 0.507 1.129 1.129 1.129h10.466c0.623 0 1.129-0.507 1.129-1.129v-6.419c0-0.623-0.507-1.129-1.129-1.129zM10.845 10.674h10.466c0.038 0 0.075 0.010 0.107 0.030l-5.4 3.638-5.283-3.636c0.032-0.020 0.070-0.032 0.11-0.032zM10.637 16.619v-4.864l3.561 2.451-3.561 2.413zM21.311 17.51h-10.347l4.048-2.743 1 0.688 1.187-0.799 4.2 2.834c-0.027 0.013-0.057 0.020-0.088 0.020zM21.52 16.461l-3.497-2.36 3.497-2.356v4.716z"></path>
</svg>
