<!-- Generated by IcoMoon.io -->
<svg version="1.1" xmlns="http://www.w3.org/2000/svg" width="32" height="32" viewBox="0 0 32 32">
<title>msg-file-format-variant</title>
<path d="M27.737 7.239c-0.002-0.148-0.049-0.293-0.15-0.408l-6.2-7.082c-0.001-0.002-0.003-0.003-0.005-0.004-0.037-0.041-0.079-0.075-0.125-0.105-0.013-0.009-0.027-0.017-0.041-0.025-0.040-0.021-0.081-0.039-0.124-0.052-0.012-0.003-0.022-0.008-0.034-0.011-0.047-0.011-0.095-0.018-0.145-0.018h-15.238c-0.695 0-1.261 0.566-1.261 1.261v29.635c0 0.696 0.566 1.261 1.261 1.261h20.807c0.696 0 1.261-0.566 1.261-1.261v-23.119c-0-0.024-0.004-0.047-0.006-0.071zM12.695 29.21l-0.095-2.459c-0.028-0.772-0.057-1.706-0.057-2.641h-0.029c-0.2 0.82-0.467 1.735-0.715 2.488l-0.781 2.507h-1.134l-0.686-2.488c-0.21-0.753-0.429-1.668-0.581-2.507h-0.019c-0.038 0.868-0.067 1.859-0.115 2.66l-0.114 2.44h-1.344l0.41-6.425h1.935l0.629 2.145c0.2 0.743 0.4 1.544 0.544 2.297h0.028c0.181-0.744 0.4-1.592 0.61-2.307l0.686-2.135h1.897l0.353 6.425-1.42-0zM16.805 29.306c-0.734 0-1.458-0.191-1.821-0.391l0.295-1.201c0.391 0.2 0.991 0.4 1.611 0.4 0.667 0 1.020-0.276 1.020-0.696 0-0.4-0.305-0.629-1.078-0.905-1.067-0.372-1.763-0.963-1.763-1.897 0-1.096 0.915-1.935 2.431-1.935 0.724 0 1.258 0.152 1.639 0.324l-0.324 1.173c-0.257-0.124-0.715-0.305-1.344-0.305s-0.934 0.286-0.934 0.62c0 0.41 0.362 0.591 1.191 0.905 1.134 0.42 1.669 1.010 1.669 1.916 0 1.077-0.829 1.992-2.593 1.992zM25.747 28.915c-0.448 0.152-1.296 0.362-2.145 0.362-1.172 0-2.021-0.296-2.612-0.868-0.591-0.553-0.915-1.391-0.906-2.335 0.009-2.135 1.563-3.356 3.67-3.356 0.829 0 1.468 0.163 1.782 0.315l-0.305 1.163c-0.352-0.153-0.791-0.277-1.497-0.277-1.211 0-2.126 0.686-2.126 2.078 0 1.325 0.829 2.107 2.021 2.107 0.334 0 0.6-0.038 0.715-0.095v-1.344h-0.991v-1.134h2.392v3.385h0zM5.675 20.945v-20.151h14.607v6.452c0 0.348 0.282 0.631 0.631 0.631h5.569l0.001 13.068h-20.808zM22.77 8.682c-0.001-0.017-0.002-0.033-0.005-0.049-0.002-0.012-0.005-0.024-0.008-0.036-0.004-0.014-0.007-0.029-0.013-0.043-0.005-0.013-0.010-0.025-0.016-0.037-0.004-0.009-0.007-0.019-0.012-0.027-0.002-0.004-0.005-0.006-0.006-0.009-0.009-0.015-0.019-0.028-0.030-0.041-0.005-0.007-0.010-0.014-0.015-0.020-0.074-0.085-0.179-0.138-0.295-0.138h-13.537c-0.117 0-0.221 0.054-0.295 0.138-0.006 0.006-0.010 0.013-0.015 0.020-0.010 0.013-0.021 0.026-0.030 0.041-0.002 0.004-0.005 0.006-0.007 0.009-0.005 0.009-0.008 0.018-0.012 0.027-0.006 0.012-0.012 0.024-0.017 0.037-0.005 0.014-0.009 0.029-0.012 0.043-0.004 0.012-0.007 0.024-0.009 0.036-0.002 0.016-0.004 0.033-0.005 0.049-0 0.009-0.002 0.017-0.002 0.026v8.93c0 0.235 0.181 0.427 0.404 0.427h13.537c0.223 0 0.403-0.192 0.403-0.427v-8.93c0-0.009-0.002-0.017-0.002-0.026zM9.234 9.461l6.158 3.9c0.062 0.040 0.134 0.060 0.207 0.060s0.144-0.021 0.207-0.060l6.158-3.9v7.748h-12.731v-7.749zM10.293 9.135h10.614l-5.307 3.361-5.307-3.361z"></path>
</svg>
