<!-- Generated by IcoMoon.io -->
<svg version="1.1" xmlns="http://www.w3.org/2000/svg" width="32" height="32" viewBox="0 0 32 32">
<title>msi-file-format-symbol</title>
<path d="M27.737 7.239c-0.002-0.148-0.049-0.293-0.15-0.408l-6.2-7.082c-0.001-0.002-0.003-0.003-0.005-0.004-0.037-0.041-0.079-0.075-0.125-0.105-0.013-0.009-0.027-0.017-0.041-0.025-0.040-0.021-0.081-0.039-0.124-0.052-0.012-0.003-0.022-0.008-0.034-0.011-0.047-0.011-0.095-0.018-0.145-0.018h-15.238c-0.695 0-1.261 0.566-1.261 1.261v29.635c0 0.696 0.566 1.261 1.261 1.261h20.807c0.696 0 1.261-0.566 1.261-1.261v-23.119c-0-0.024-0.004-0.047-0.006-0.071zM14.134 29.641l-0.107-2.755c-0.032-0.865-0.064-1.912-0.064-2.959h-0.032c-0.224 0.918-0.523 1.944-0.801 2.787l-0.876 2.808h-1.271l-0.769-2.787c-0.235-0.844-0.48-1.869-0.651-2.809h-0.021c-0.043 0.972-0.075 2.082-0.128 2.98l-0.128 2.734h-1.506l0.459-7.198h2.168l0.705 2.403c0.224 0.833 0.449 1.73 0.609 2.574h0.032c0.203-0.833 0.448-1.784 0.683-2.584l0.769-2.392h2.125l0.395 7.198h-1.591zM18.738 29.748c-0.822 0-1.634-0.214-2.040-0.438l0.331-1.346c0.438 0.224 1.111 0.448 1.805 0.448 0.747 0 1.143-0.309 1.143-0.78 0-0.449-0.342-0.705-1.207-1.015-1.196-0.416-1.976-1.079-1.976-2.125 0-1.228 1.025-2.168 2.723-2.168 0.811 0 1.41 0.171 1.836 0.363l-0.363 1.314c-0.288-0.139-0.801-0.342-1.506-0.342s-1.047 0.32-1.047 0.694c0 0.459 0.406 0.662 1.335 1.015 1.271 0.47 1.869 1.132 1.869 2.146 0 1.207-0.929 2.232-2.905 2.232zM24.377 29.641h-1.634v-7.198h1.634v7.198zM5.675 20.945v-20.151h14.607v6.452c0 0.348 0.282 0.631 0.631 0.631h5.569l0.001 13.068h-20.808zM19.823 11.274v-2.072l3.594-1.322-4.175-1.578 0.546-0.978-1.898-0.644-0.475 0.984c-0.103 0.022-0.253 0.059-0.267 0.062-2.708 0.64-6.816 1.597-7.048 1.611-0.044 0-0.081 0.025-0.102 0.059l-0.012-0.007-0.024-0.017-0.029-0.005-2.048-0.392 1.538 0.791v11.369l1.91 0.54v-11.46l-0.056-0.016-1.016-0.637c0.958-0.18 5.9-1.4 7.015-1.664l1.532 0.545-7.062 1.824-0.030-0.011-0.030-0.015v11.434l5.215-1.346c-0.647-0.75-1.042-1.724-1.042-2.79 0-2.253 1.752-4.101 3.965-4.264zM10.618 7.951l-1.094-0.292-0.704-0.361 1.085 0.207 0.713 0.446zM17.971 4.874l1.587 0.539-0.427 0.764-1.513-0.572 0.353-0.73zM19.148 6.521l3.565 1.341-6.425 1.885-3.773-1.423 6.633-1.803zM20.32 11.795c-2.147 0-3.887 1.74-3.887 3.885 0 2.147 1.74 3.887 3.887 3.887s3.886-1.74 3.886-3.887c-0-2.146-1.739-3.885-3.886-3.885zM21.49 12.27l-0.844 1.723c-0.164-0.063-0.326-0.030-0.326-0.030l-0.489-1.809c0 0 0.648-0.291 1.659 0.116zM20.319 17.211c-0.845 0-1.529-0.685-1.529-1.53s0.684-1.529 1.529-1.529 1.529 0.684 1.529 1.529c0 0.845-0.684 1.53-1.529 1.53zM20.32 14.329c-0.746 0-1.353 0.607-1.353 1.354 0 0.745 0.607 1.353 1.353 1.353s1.353-0.607 1.353-1.353c0-0.747-0.607-1.354-1.353-1.354zM20.32 16.878c-0.66 0-1.197-0.537-1.197-1.196 0-0.661 0.537-1.198 1.197-1.198s1.196 0.537 1.196 1.198c0 0.66-0.537 1.196-1.196 1.196zM20.32 15.035c-0.357 0-0.647 0.29-0.647 0.647s0.29 0.646 0.647 0.646c0.356 0 0.647-0.29 0.647-0.646s-0.29-0.647-0.647-0.647zM20.32 16.172c-0.271 0-0.491-0.22-0.491-0.491s0.22-0.49 0.491-0.49c0.27 0 0.491 0.22 0.491 0.49s-0.22 0.491-0.491 0.491z"></path>
</svg>
