<!-- Generated by IcoMoon.io -->
<svg version="1.1" xmlns="http://www.w3.org/2000/svg" width="32" height="32" viewBox="0 0 32 32">
<title>mug-hot</title>
<path d="M7.983 8.734c0.082 0.484 0.503 0.848 1.005 0.848h1.036c0.615 0 1.105-0.534 1.024-1.13-0.239-1.771-1.030-3.404-2.299-4.692-0.904-0.923-1.482-2.091-1.658-3.36-0.069-0.496-0.496-0.867-1.011-0.867h-1.030c-0.615 0-1.093 0.534-1.024 1.13 0.245 2.003 1.13 3.85 2.55 5.301 0.754 0.766 1.237 1.727 1.407 2.77zM15.017 8.734c0.082 0.484 0.502 0.848 1.005 0.848h1.036c0.615 0 1.105-0.534 1.024-1.13-0.239-1.771-1.030-3.404-2.299-4.692-0.904-0.923-1.482-2.091-1.658-3.36-0.069-0.496-0.496-0.867-1.011-0.867h-1.030c-0.615 0-1.099 0.534-1.024 1.13 0.245 2.003 1.13 3.85 2.55 5.301 0.754 0.766 1.237 1.727 1.407 2.77zM25.122 11.592h-23.113c-1.112 0-2.010 0.898-2.010 2.010v12.059c0 3.329 2.701 6.029 6.029 6.029h12.059c3.329 0 6.029-2.701 6.029-6.029h1.005c3.881 0 7.034-3.153 7.034-7.034s-3.153-7.034-7.034-7.034zM25.122 21.641h-1.005v-6.029h1.005c1.664 0 3.015 1.35 3.015 3.015s-1.35 3.015-3.015 3.015z"></path>
</svg>
