<!-- Generated by IcoMoon.io -->
<svg version="1.1" xmlns="http://www.w3.org/2000/svg" width="32" height="32" viewBox="0 0 32 32">
<title>multi-dot</title>
<path d="M4.364 0.003c-2.401 0-4.364 1.963-4.364 4.364s1.963 4.364 4.364 4.364c2.401 0 4.364-1.963 4.364-4.364s-1.963-4.364-4.364-4.364zM16 0.003c-2.401 0-4.364 1.963-4.364 4.364s1.963 4.364 4.364 4.364c2.401 0 4.364-1.963 4.364-4.364s-1.963-4.364-4.364-4.364zM27.636 0.003c-2.401 0-4.364 1.963-4.364 4.364s1.963 4.364 4.364 4.364c2.401 0 4.364-1.963 4.364-4.364s-1.963-4.364-4.364-4.364zM16 11.639c-2.401 0-4.364 1.963-4.364 4.364s1.963 4.364 4.364 4.364c2.401 0 4.364-1.963 4.364-4.364s-1.963-4.364-4.364-4.364zM27.636 11.639c-2.401 0-4.364 1.963-4.364 4.364s1.963 4.364 4.364 4.364c2.401 0 4.364-1.963 4.364-4.364s-1.963-4.364-4.364-4.364zM27.636 23.276c-2.401 0-4.364 1.963-4.364 4.364s1.963 4.364 4.364 4.364c2.401 0 4.364-1.963 4.364-4.364s-1.963-4.364-4.364-4.364z"></path>
</svg>
