<!-- Generated by IcoMoon.io -->
<svg version="1.1" xmlns="http://www.w3.org/2000/svg" width="32" height="32" viewBox="0 0 32 32">
<title>multiple-devices</title>
<path d="M5.12 2.563c-1.415 0-2.56 1.145-2.56 2.56v5.76h1.28v-5.76c0-0.763 0.518-1.28 1.28-1.28h21.76c0.762 0 1.28 0.518 1.28 1.28v9.6h1.28v-9.6c0-1.415-1.145-2.56-2.56-2.56zM5.64 5.123c-0.305 0.058-0.525 0.327-0.52 0.64v5.12h1.28v-4.48h19.2v8.32h1.28v-8.96c0-0.353-0.288-0.64-0.64-0.64h-20.48c-0.020 0-0.040 0-0.060 0s-0.040 0-0.060 0zM1.28 11.523c-0.335 0-0.677 0.117-0.92 0.36s-0.36 0.585-0.36 0.92v15.36c0 0.335 0.117 0.677 0.36 0.92s0.585 0.36 0.92 0.36h12.16c0.335 0 0.678-0.117 0.92-0.36s0.36-0.585 0.36-0.92v-15.36c0-0.335-0.117-0.678-0.36-0.92s-0.585-0.36-0.92-0.36zM1.28 12.803h12.16v15.36h-12.16zM2.44 13.443c-0.305 0.057-0.525 0.328-0.52 0.64v11.52c0 0.352 0.288 0.64 0.64 0.64h9.6c0.352 0 0.64-0.288 0.64-0.64v-11.52c0-0.352-0.287-0.64-0.64-0.64h-9.6c-0.020 0-0.040 0-0.060 0s-0.040 0-0.060 0zM3.2 14.723h8.32v10.24h-8.32zM23.68 15.363c-0.335 0-0.677 0.117-0.92 0.36s-0.36 0.585-0.36 0.92v11.52c0 0.335 0.117 0.677 0.36 0.92s0.585 0.36 0.92 0.36h7.040c0.335 0 0.677-0.117 0.92-0.36s0.36-0.585 0.36-0.92v-11.52c0-0.335-0.117-0.678-0.36-0.92s-0.585-0.36-0.92-0.36zM23.68 16.643h7.040v11.52h-7.040zM24.84 17.283c-0.305 0.058-0.525 0.328-0.52 0.64v7.68c0 0.352 0.288 0.64 0.64 0.64h4.48c0.352 0 0.64-0.288 0.64-0.64v-7.68c0-0.352-0.288-0.64-0.64-0.64h-4.48c-0.020 0-0.040 0-0.060 0s-0.040 0-0.060 0zM25.6 18.563h3.2v6.4h-3.2zM15.36 20.483v1.28h6.4v-1.28zM18.56 22.403v3.2h3.2v-1.28h-1.92v-0.64h1.92v-1.28zM15.36 26.243v1.28h6.4v-1.28zM7.36 26.563c-0.353 0-0.64 0.288-0.64 0.64s0.287 0.64 0.64 0.64c0.353 0 0.64-0.288 0.64-0.64s-0.287-0.64-0.64-0.64zM27.2 26.563c-0.352 0-0.64 0.288-0.64 0.64s0.288 0.64 0.64 0.64c0.352 0 0.64-0.288 0.64-0.64s-0.288-0.64-0.64-0.64z"></path>
</svg>
