<!-- Generated by IcoMoon.io -->
<svg version="1.1" xmlns="http://www.w3.org/2000/svg" width="32" height="32" viewBox="0 0 32 32">
<title>music</title>
<path d="M32.156 1.543c0-1.364-1.325-2.324-2.613-1.916l-20.097 5.935c-0.835 0.264-1.407 1.036-1.407 1.916v16.419c-0.631-0.15-1.301-0.246-2.010-0.246-3.33 0-6.029 1.799-6.029 4.020s2.699 4.020 6.029 4.020 6.029-1.799 6.029-4.020v-14.677l16.078-4.712v11.596c-0.631-0.15-1.301-0.246-2.010-0.246-3.33 0-6.029 1.799-6.029 4.020s2.699 4.020 6.029 4.020 6.029-1.799 6.029-4.020l-0.001-22.107z"></path>
</svg>
