<!-- Generated by IcoMoon.io -->
<svg version="1.1" xmlns="http://www.w3.org/2000/svg" width="31" height="32" viewBox="0 0 31 32">
<title>napster</title>
<path d="M18.735 22.997c-0.892 0.854-1.966 1.514-3.165 1.916-1.193-0.402-2.274-1.061-3.159-1.916h6.325zM21.499 10.461c1.256-1.061 2.738-1.834 4.371-2.274v10.124c0 13.78-20.6 13.667-20.6 0.019v-10.149c1.627 0.433 3.115 1.231 4.365 2.286 3.567-2.512 8.322-2.506 11.864-0.006zM8.385 6.787c4.045-3.768 10.319-3.775 14.376-0.013-0.446 0.22-0.873 0.458-1.294 0.722-3.687-1.916-8.115-1.909-11.801 0.006-0.396-0.251-0.873-0.515-1.281-0.716zM2.751 5.387v4.352c-3.668 2.292-3.668 7.606 0.006 9.942 1.658 15.394 23.973 15.092 25.6 0.094l0.019-0.107c3.687-2.28 3.699-7.643 0.012-9.936v-4.346c-1.087 0.031-2.135 0.188-3.147 0.465-5.15-5.747-14.163-5.747-19.313 0.006-1.024-0.276-2.079-0.44-3.178-0.471zM16.279 21.641s2.261-0.019 3.85-0.094c0.641-0.031 1.325-0.251 1.602-0.408 1.652-0.948 1.595-2.462 1.645-2.977-4.993-0.038-6.274-0.245-7.097 3.479zM7.769 18.168c0.050 0.515-0.006 2.029 1.645 2.977 0.276 0.157 0.955 0.377 1.602 0.408 1.589 0.069 3.85 0.094 3.85 0.094-0.829-3.731-2.117-3.523-7.097-3.479zM18.39 25.918c-0.201-0.333-0.433-0.458-0.433-0.458-1.558 0.458-3.278 0.433-4.767 0 0 0-0.182 0.094-0.402 0.415-0.176 0.258-0.232 0.603-0.232 0.603 1.828 1.105 4.214 1.105 6.042 0-0.006-0.006-0.019-0.251-0.207-0.559z"></path>
</svg>
