<!-- Generated by IcoMoon.io -->
<svg version="1.1" xmlns="http://www.w3.org/2000/svg" width="32" height="32" viewBox="0 0 32 32">
<title>navigation</title>
<path d="M16.031-0.185c-8.838 0-16.031 7.193-16.031 16.031s7.193 16.031 16.031 16.031c8.838 0 16.031-7.193 16.031-16.031s-7.193-16.031-16.031-16.031zM16.031 2.487c7.394 0 13.359 5.965 13.359 13.359s-5.965 13.359-13.359 13.359c-7.394 0-13.359-5.965-13.359-13.359s5.965-13.359 13.359-13.359zM21.375 9.167c-0.147 0-0.283 0.041-0.415 0.084l-12.021 4.008c-0.533 0.175-0.924 0.661-0.924 1.252 0 0.641 0.459 1.15 1.062 1.281l5.618 1.391 1.391 5.618c0.131 0.601 0.64 1.062 1.281 1.062 0.592 0 1.077-0.391 1.252-0.924l4.008-12.021c0.044-0.132 0.084-0.268 0.084-0.415 0-0.737-0.599-1.336-1.336-1.336z"></path>
</svg>
