<!-- Generated by IcoMoon.io -->
<svg version="1.1" xmlns="http://www.w3.org/2000/svg" width="29" height="32" viewBox="0 0 29 32">
<title>neos</title>
<path d="M24.334 31.69h-5.973l-6.796-9.706v5.722l-5.428 3.984h-6.136v-30.284l2.542-1.873h6.786l7.772 11.062v-7.077l5.428-3.985h6.136v28.985l-4.33 3.172zM0.676 1.748v28.936l4.523-3.321v-15.649l13.534 19.325h5.325l3.288-2.397h-4.916l-19.858-28.294-1.896 1.4zM5.86 31.054l5.027-3.692v-6.346l-5.012-7.183v13.876l-4.558 3.344h4.543zM3.305 0.209l19.508 27.796h5.173v-27.796h-5.009v19.945l-14.002-19.945h-5.67zM17.776 11.57l4.523 6.457v-17.493l-4.523 3.326v7.71z"></path>
</svg>
