<!-- Generated by IcoMoon.io -->
<svg version="1.1" xmlns="http://www.w3.org/2000/svg" width="32" height="32" viewBox="0 0 32 32">
<title>nes-file-variant</title>
<path d="M27.737 7.239c-0.002-0.148-0.049-0.293-0.15-0.408l-6.201-7.082c-0.001-0.002-0.003-0.002-0.005-0.004-0.037-0.041-0.079-0.075-0.125-0.105-0.013-0.009-0.027-0.017-0.041-0.025-0.040-0.021-0.081-0.039-0.125-0.052-0.012-0.004-0.022-0.008-0.034-0.011-0.047-0.011-0.096-0.018-0.145-0.018h-15.238c-0.695 0-1.261 0.566-1.261 1.261v29.635c0 0.696 0.566 1.261 1.261 1.261h20.807c0.696 0 1.261-0.566 1.261-1.261v-23.119c0-0.024-0.004-0.047-0.006-0.071zM13.518 29.6h-1.55l-1.395-2.518c-0.388-0.698-0.814-1.541-1.134-2.306l-0.029 0.009c0.039 0.862 0.058 1.782 0.058 2.848v1.966h-1.356v-6.529h1.725l1.356 2.393c0.387 0.689 0.775 1.502 1.065 2.239h0.029c-0.097-0.862-0.125-1.744-0.125-2.723v-1.909h1.356v6.53h-0zM18.962 29.6h-4.166v-6.53h4.030v1.211h-2.548v1.356h2.403v1.202h-2.403v1.55h2.684v1.211zM21.567 29.698c-0.746 0-1.482-0.194-1.85-0.397l0.3-1.221c0.397 0.204 1.007 0.407 1.637 0.407 0.678 0 1.036-0.281 1.036-0.707 0-0.406-0.31-0.639-1.095-0.92-1.085-0.378-1.792-0.979-1.792-1.928 0-1.114 0.93-1.967 2.47-1.967 0.736 0 1.279 0.155 1.666 0.33l-0.329 1.191c-0.262-0.126-0.727-0.31-1.366-0.31s-0.95 0.291-0.95 0.63c0 0.417 0.368 0.601 1.211 0.92 1.153 0.427 1.696 1.027 1.696 1.948 0.001 1.094-0.842 2.025-2.635 2.025zM5.675 20.945v-20.151h14.607v6.452c0 0.348 0.282 0.631 0.631 0.631h5.569l0.001 13.068h-20.808zM18.075 10.068h-4.808v0.657h-0.985v0.21h-0.519v0.184h0.519v0.236h0.985v1.156h-0.985v0.236h-0.519v0.184h0.519v0.21h0.985v1.235h-0.985v0.223h-0.519v0.184h0.519v0.223h0.985v0.893h4.808v-0.893h0.893v-0.223h0.519v-0.184h-0.519v-0.223h-0.893v-1.235h0.893v-0.21h0.519v-0.184h-0.519v-0.236h-0.893v-1.156h0.893v-0.236h0.519v-0.184h-0.519v-0.21h-0.893v-0.657zM17.156 11.645c-0.203 0-0.368-0.165-0.368-0.368s0.165-0.368 0.368-0.368 0.368 0.165 0.368 0.368c0 0.203-0.164 0.368-0.368 0.368zM18.643 5.581h-8.135v13.819h10.235v-11.38l-2.099-2.439zM18.86 6.692l0.991 1.152h-0.991v-1.152zM20.183 18.84h-9.116v-12.698h7.232v2.263h1.883v10.436z"></path>
</svg>
