<!-- Generated by IcoMoon.io -->
<svg version="1.1" xmlns="http://www.w3.org/2000/svg" width="40" height="32" viewBox="0 0 40 32">
<title>network-wired</title>
<path d="M40.196 16.114v-1.005c0-0.555-0.45-1.005-1.005-1.005h-17.586v-2.512h4.522c1.11 0 2.010-0.9 2.010-2.010v-8.039c0-1.11-0.9-2.010-2.010-2.010h-12.059c-1.11 0-2.010 0.9-2.010 2.010v8.039c0 1.11 0.9 2.010 2.010 2.010h4.522v2.512h-17.586c-0.555 0-1.005 0.45-1.005 1.005v1.005c0 0.555 0.45 1.005 1.005 1.005h6.532v2.512h-3.517c-1.11 0-2.010 0.9-2.010 2.010v8.039c0 1.11 0.9 2.010 2.010 2.010h10.049c1.11 0 2.010-0.9 2.010-2.010v-8.039c0-1.11-0.9-2.010-2.010-2.010h-3.517v-2.512h19.093v2.512h-3.517c-1.11 0-2.010 0.9-2.010 2.010v8.039c0 1.11 0.9 2.010 2.010 2.010h10.049c1.11 0 2.010-0.9 2.010-2.010v-8.039c0-1.11-0.9-2.010-2.010-2.010h-3.517v-2.512h6.532c0.555 0 1.005-0.45 1.005-1.005zM16.078 7.572v-4.020h8.039v4.020h-8.039zM12.059 27.67h-6.029v-4.020h6.029v4.020zM34.167 27.67h-6.029v-4.020h6.029v4.020z"></path>
</svg>
