<!-- Generated by IcoMoon.io -->
<svg version="1.1" xmlns="http://www.w3.org/2000/svg" width="18" height="32" viewBox="0 0 18 32">
<title>neuter</title>
<path d="M18.088 10.587c0-4.993-4.051-9.044-9.044-9.044s-9.044 4.051-9.044 9.044c0 4.302 3.008 7.907 7.034 8.818v9.521c0 0.415 0.339 0.754 0.754 0.754h2.512c0.415 0 0.754-0.339 0.754-0.754v-9.521c4.026-0.911 7.034-4.516 7.034-8.818zM9.044 15.611c-2.77 0-5.024-2.255-5.024-5.024s2.255-5.024 5.024-5.024 5.024 2.255 5.024 5.024-2.255 5.024-5.024 5.024z"></path>
</svg>
