<!-- Generated by IcoMoon.io -->
<svg version="1.1" xmlns="http://www.w3.org/2000/svg" width="36" height="32" viewBox="0 0 36 32">
<title>newspaper</title>
<path d="M34.669 3.553h-27.635c-1.31 0-2.427 0.84-2.842 2.010h-2.685c-0.833 0-1.507 0.675-1.507 1.507v17.083c0 1.942 1.575 3.517 3.517 3.517h31.152c0.833 0 1.507-0.675 1.507-1.507v-21.103c0-0.832-0.675-1.507-1.507-1.507zM3.015 24.153v-15.576h1.005v15.576c0 0.277-0.225 0.503-0.502 0.503s-0.502-0.225-0.502-0.503zM33.162 24.655h-26.164c0.024-0.164 0.036-0.332 0.036-0.503v-17.586h26.127v18.088zM10.803 17.119h8.542c0.416 0 0.754-0.338 0.754-0.754v-6.029c0-0.416-0.338-0.754-0.754-0.754h-8.542c-0.416 0-0.754 0.338-0.754 0.754v6.029c0 0.416 0.338 0.754 0.754 0.754zM12.561 12.094h5.024v2.512h-5.024v-2.512zM10.049 20.887v-1.507c0-0.416 0.338-0.754 0.754-0.754h8.542c0.416 0 0.754 0.338 0.754 0.754v1.507c0 0.416-0.338 0.754-0.754 0.754h-8.542c-0.416 0-0.754-0.338-0.754-0.754zM22.108 20.887v-1.507c0-0.416 0.338-0.754 0.754-0.754h6.532c0.416 0 0.754 0.338 0.754 0.754v1.507c0 0.416-0.338 0.754-0.754 0.754h-6.532c-0.416 0-0.754-0.338-0.754-0.754zM22.108 11.843v-1.507c0-0.416 0.338-0.754 0.754-0.754h6.532c0.416 0 0.754 0.338 0.754 0.754v1.507c0 0.416-0.338 0.754-0.754 0.754h-6.532c-0.416 0-0.754-0.338-0.754-0.754zM22.108 16.365v-1.507c0-0.416 0.338-0.754 0.754-0.754h6.532c0.416 0 0.754 0.338 0.754 0.754v1.507c0 0.416-0.338 0.754-0.754 0.754h-6.532c-0.416 0-0.754-0.338-0.754-0.754z"></path>
</svg>
