<!-- Generated by IcoMoon.io -->
<svg version="1.1" xmlns="http://www.w3.org/2000/svg" width="36" height="32" viewBox="0 0 36 32">
<title>newspaper1</title>
<path d="M34.669 3.553h-29.142c-0.832 0-1.507 0.675-1.507 1.507v0.502h-2.512c-0.833 0-1.507 0.675-1.507 1.507v17.083c0 1.942 1.575 3.517 3.517 3.517h29.644c1.665 0 3.015-1.35 3.015-3.015v-19.596c0-0.832-0.675-1.507-1.507-1.507zM3.517 24.655c-0.278 0-0.502-0.225-0.502-0.503v0-15.576h1.005v15.576c0 0.278-0.225 0.503-0.502 0.503v0zM18.339 23.651h-9.546c-0.416 0-0.754-0.338-0.754-0.754v-0.503c0-0.416 0.338-0.754 0.754-0.754h9.546c0.416 0 0.754 0.338 0.754 0.754v0.503c0 0.416-0.338 0.754-0.754 0.754zM31.403 23.651h-9.547c-0.416 0-0.754-0.338-0.754-0.754v-0.503c0-0.416 0.338-0.754 0.754-0.754h9.547c0.416 0 0.754 0.338 0.754 0.754v0.503c0 0.416-0.338 0.754-0.754 0.754zM18.339 17.621h-9.546c-0.416 0-0.754-0.338-0.754-0.754v-0.503c0-0.416 0.338-0.754 0.754-0.754h9.546c0.416 0 0.754 0.338 0.754 0.754v0.503c0 0.416-0.338 0.754-0.754 0.754zM31.403 17.621h-9.547c-0.416 0-0.754-0.338-0.754-0.754v-0.503c0-0.416 0.338-0.754 0.754-0.754h9.547c0.416 0 0.754 0.338 0.754 0.754v0.503c0 0.416-0.338 0.754-0.754 0.754zM31.403 11.592h-22.61c-0.416 0-0.754-0.338-0.754-0.754v-2.512c0-0.416 0.338-0.754 0.754-0.754h22.61c0.416 0 0.754 0.338 0.754 0.754v2.512c0 0.416-0.338 0.754-0.754 0.754z"></path>
</svg>
