<!-- Generated by IcoMoon.io -->
<svg version="1.1" xmlns="http://www.w3.org/2000/svg" width="22" height="32" viewBox="0 0 22 32">
<title>nimblr</title>
<path d="M14.609 18.33c0.978 0 1.705 0.72 1.705 1.693 0 0.977-0.73 1.693-1.705 1.693-0.986 0-1.705-0.727-1.705-1.693 0-0.974 0.727-1.693 1.705-1.693zM6.218 20.023c0-0.98 0.734-1.693 1.705-1.693 0.978 0 1.705 0.72 1.705 1.693 0 0.968-0.72 1.693-1.705 1.693-0.97 0-1.705-0.71-1.705-1.693zM11.164 9.516c-2.183 0-6.426 1.245-8.322 4.274l-2.842-14.257v21.070c0 6.133 5 11.087 11.164 11.087 6.17 0 11.164-4.959 11.164-11.087 0-6.121-4.986-11.087-11.164-11.087zM11.164 28.868c-4.602 0-8.322-3.699-8.322-8.265s3.721-8.265 8.322-8.265 8.322 3.7 8.322 8.265-3.721 8.265-8.322 8.265z"></path>
</svg>
