<!-- Generated by IcoMoon.io -->
<svg version="1.1" xmlns="http://www.w3.org/2000/svg" width="28" height="32" viewBox="0 0 28 32">
<title>nintendo-switch</title>
<path d="M6.023 1.637c-2.801 0.503-5.056 2.575-5.766 5.301-0.258 0.986-0.276 1.564-0.245 9.201 0.013 7.009 0.019 7.172 0.138 7.719 0.647 2.92 2.72 4.999 5.671 5.684 0.383 0.088 0.873 0.107 4.026 0.119 3.26 0.025 3.599 0.019 3.687-0.069s0.094-1.212 0.094-13.956c0-9.452-0.019-13.899-0.057-13.981-0.057-0.107-0.157-0.113-3.574-0.107-2.776 0.006-3.611 0.025-3.976 0.088zM11.293 15.618v11.801l-2.374-0.031c-2.186-0.025-2.418-0.038-2.858-0.145-1.878-0.484-3.266-1.928-3.662-3.812-0.126-0.59-0.126-15.080-0.006-15.658 0.352-1.639 1.488-2.996 3.015-3.605 0.766-0.308 1.124-0.345 3.618-0.352l2.255-0.006v11.808zM6.526 7.377c-0.364 0.069-0.923 0.352-1.225 0.609-0.609 0.527-0.917 1.281-0.867 2.167 0.025 0.458 0.050 0.584 0.239 0.955 0.276 0.565 0.685 0.98 1.25 1.256 0.389 0.195 0.49 0.214 0.999 0.232 0.458 0.019 0.622 0 0.93-0.107 1.262-0.427 2.029-1.652 1.809-2.914-0.245-1.488-1.671-2.493-3.134-2.198zM16.461 1.58c-0.025 0.019-0.038 6.331-0.038 14.037 0 12.706 0.006 13.993 0.094 14.031 0.157 0.057 4.679 0.038 5.238-0.025 2.368-0.27 4.459-1.708 5.59-3.844 0.145-0.276 0.339-0.735 0.44-1.018 0.364-1.093 0.358-0.804 0.358-9.176 0-6.683-0.012-7.681-0.094-8.102-0.578-3.034-2.895-5.326-5.935-5.847-0.408-0.069-1.036-0.088-3.065-0.088-1.407-0.006-2.569 0.012-2.588 0.031zM22.686 14.274c0.911 0.239 1.652 0.93 1.96 1.815 0.195 0.546 0.188 1.35-0.006 1.853-0.358 0.923-1.055 1.57-1.953 1.809-1.457 0.377-3.008-0.503-3.429-1.947-0.126-0.44-0.119-1.187 0.025-1.645 0.433-1.426 1.947-2.267 3.404-1.884z"></path>
</svg>
