<!-- Generated by IcoMoon.io -->
<svg version="1.1" xmlns="http://www.w3.org/2000/svg" width="40" height="32" viewBox="0 0 40 32">
<title>node</title>
<path d="M19.866 27.921c-0.132 0-0.264-0.038-0.383-0.1l-1.206-0.716c-0.182-0.1-0.094-0.138-0.031-0.157 0.239-0.082 0.289-0.1 0.546-0.251 0.025-0.012 0.063-0.006 0.088 0.006l0.93 0.553c0.031 0.019 0.082 0.019 0.113 0l3.63-2.098c0.031-0.019 0.057-0.057 0.057-0.1v-4.189c0-0.044-0.019-0.082-0.057-0.1l-3.63-2.091c-0.031-0.019-0.075-0.019-0.113 0l-3.63 2.091c-0.038 0.019-0.057 0.063-0.057 0.1v4.189c0 0.038 0.025 0.075 0.057 0.094l0.992 0.572c0.54 0.27 0.873-0.050 0.873-0.364v-4.139c0-0.057 0.044-0.107 0.107-0.107h0.458c0.057 0 0.107 0.044 0.107 0.107v4.139c0 0.722-0.389 1.13-1.074 1.13-0.207 0-0.377 0-0.835-0.226l-0.955-0.546c-0.232-0.138-0.383-0.389-0.383-0.66v-4.189c0-0.27 0.145-0.527 0.383-0.66l3.63-2.098c0.232-0.132 0.534-0.132 0.76 0l3.63 2.098c0.232 0.138 0.383 0.389 0.383 0.66v4.189c0 0.27-0.145 0.527-0.383 0.66l-3.63 2.098c-0.107 0.069-0.239 0.107-0.377 0.107zM22.799 23.789c0-0.785-0.527-0.992-1.645-1.143-1.13-0.151-1.244-0.226-1.244-0.49 0-0.22 0.094-0.509 0.93-0.509 0.747 0 1.024 0.163 1.137 0.666 0.012 0.050 0.050 0.082 0.1 0.082h0.471c0.031 0 0.057-0.012 0.075-0.031 0.019-0.025 0.031-0.050 0.025-0.082-0.075-0.867-0.647-1.269-1.809-1.269-1.036 0-1.652 0.44-1.652 1.168 0 0.798 0.615 1.011 1.608 1.112 1.187 0.119 1.281 0.289 1.281 0.521 0 0.408-0.327 0.578-1.093 0.578-0.961 0-1.175-0.239-1.244-0.716-0.006-0.050-0.050-0.088-0.107-0.088h-0.471c-0.057 0-0.107 0.044-0.107 0.107 0 0.609 0.333 1.338 1.922 1.338 1.162 0 1.821-0.452 1.821-1.244zM26.222 20.642c0 0.383-0.314 0.697-0.697 0.697s-0.697-0.314-0.697-0.697c0-0.396 0.327-0.697 0.697-0.697 0.377-0.006 0.697 0.301 0.697 0.697zM26.108 20.642c0-0.327-0.264-0.584-0.59-0.584-0.32 0-0.584 0.258-0.584 0.584s0.264 0.59 0.584 0.59c0.327-0.006 0.59-0.27 0.59-0.59zM25.826 21.032h-0.163c-0.006-0.038-0.031-0.239-0.031-0.245-0.012-0.044-0.025-0.069-0.082-0.069h-0.138v0.314h-0.151v-0.785h0.27c0.094 0 0.276 0 0.276 0.207 0 0.145-0.094 0.176-0.151 0.195 0.107 0.006 0.113 0.075 0.132 0.176 0.006 0.063 0.019 0.17 0.038 0.207zM25.65 20.479c0-0.107-0.075-0.107-0.113-0.107h-0.126v0.22h0.119c0.1 0 0.119-0.069 0.119-0.113zM8.623 11.529c0-0.17-0.088-0.32-0.232-0.402l-3.85-2.217c-0.063-0.038-0.138-0.057-0.214-0.063h-0.038c-0.075 0-0.144 0.025-0.214 0.063l-3.844 2.217c-0.144 0.082-0.232 0.239-0.232 0.402l0.006 5.967c0 0.082 0.044 0.157 0.113 0.201s0.157 0.044 0.232 0l2.286-1.313c0.144-0.088 0.232-0.239 0.232-0.402v-2.789c0-0.163 0.088-0.32 0.232-0.402l0.973-0.559c0.075-0.044 0.151-0.063 0.232-0.063s0.163 0.019 0.232 0.063l0.973 0.559c0.144 0.082 0.232 0.239 0.232 0.402v2.789c0 0.163 0.088 0.32 0.232 0.402l2.286 1.313c0.069 0.044 0.163 0.044 0.232 0 0.069-0.038 0.113-0.119 0.113-0.201l0.012-5.967zM29.676 5.016v11.079c0 0.163-0.088 0.32-0.232 0.402l-3.85 2.223c-0.145 0.082-0.32 0.082-0.465 0l-3.85-2.223c-0.145-0.082-0.232-0.239-0.232-0.402v-4.447c0-0.163 0.088-0.32 0.232-0.402l3.85-2.223c0.145-0.082 0.32-0.082 0.465 0l0.961 0.553c0.107 0.063 0.245-0.019 0.245-0.138v-5.904c0-0.176 0.188-0.289 0.345-0.201l2.292 1.281c0.145 0.075 0.239 0.232 0.239 0.402zM26.787 13.112c0-0.044-0.025-0.082-0.057-0.1l-1.319-0.766c-0.038-0.019-0.082-0.019-0.119 0l-1.319 0.766c-0.038 0.019-0.057 0.057-0.057 0.1v1.526c0 0.044 0.025 0.082 0.057 0.1l1.319 0.76c0.038 0.019 0.082 0.019 0.113 0l1.319-0.76c0.038-0.019 0.057-0.057 0.057-0.1v-1.526zM39.964 13.068c0.145-0.082 0.232-0.239 0.232-0.402v-1.074c0-0.163-0.088-0.32-0.232-0.402l-3.825-2.223c-0.145-0.082-0.32-0.082-0.465 0l-3.85 2.223c-0.145 0.082-0.232 0.239-0.232 0.402v4.447c0 0.17 0.088 0.32 0.232 0.402l3.825 2.179c0.138 0.082 0.314 0.082 0.458 0l2.311-1.288c0.157-0.088 0.157-0.314 0-0.402l-3.875-2.223c-0.075-0.044-0.119-0.119-0.119-0.201v-1.394c0-0.082 0.044-0.157 0.119-0.201l1.206-0.697c0.069-0.044 0.163-0.044 0.232 0l1.206 0.697c0.069 0.044 0.119 0.119 0.119 0.201v1.093c0 0.176 0.195 0.289 0.352 0.201l2.305-1.338zM35.109 13.288c-0.025 0.019-0.044 0.044-0.044 0.075v0.854c0 0.031 0.019 0.063 0.044 0.075l0.741 0.427c0.025 0.019 0.063 0.019 0.088 0l0.741-0.427c0.025-0.019 0.044-0.044 0.044-0.075v-0.854c0-0.031-0.019-0.063-0.044-0.075l-0.741-0.427c-0.025-0.019-0.063-0.019-0.088 0l-0.741 0.427zM19.143 16.020v-4.422c0-0.163-0.1-0.32-0.245-0.402l-3.837-2.211c-0.132-0.075-0.314-0.088-0.465 0l-3.837 2.211c-0.145 0.082-0.245 0.232-0.245 0.402v4.422c0 0.176 0.119 0.327 0.251 0.402l3.844 2.211c0.151 0.088 0.327 0.082 0.465 0l3.831-2.211c0.113-0.063 0.195-0.17 0.226-0.295 0.006-0.031 0.012-0.069 0.012-0.107zM14.477 8.175l-0.050 0.031h0.069l-0.019-0.031zM19.263 16.352l-0.025-0.044v0.057l0.025-0.012z"></path>
</svg>
