<!-- Generated by IcoMoon.io -->
<svg version="1.1" xmlns="http://www.w3.org/2000/svg" width="28" height="32" viewBox="0 0 28 32">
<title>node-js</title>
<path d="M14.069 31.438c-0.421 0-0.848-0.113-1.218-0.327l-3.875-2.292c-0.578-0.327-0.295-0.44-0.107-0.503 0.773-0.27 0.93-0.327 1.752-0.798 0.088-0.050 0.201-0.031 0.289 0.025l2.977 1.765c0.107 0.063 0.258 0.063 0.358 0l11.6-6.695c0.107-0.063 0.176-0.188 0.176-0.314v-13.39c0-0.132-0.069-0.251-0.182-0.32l-11.594-6.689c-0.107-0.063-0.251-0.063-0.358 0l-11.588 6.695c-0.113 0.063-0.182 0.188-0.182 0.32v13.384c0 0.126 0.069 0.251 0.182 0.308l3.178 1.834c1.727 0.86 2.782-0.151 2.782-1.175v-13.214c0-0.188 0.151-0.333 0.339-0.333h1.47c0.182 0 0.339 0.145 0.339 0.333v13.221c0 2.299-1.256 3.618-3.435 3.618-0.672 0-1.2 0-2.669-0.729l-3.040-1.752c-0.754-0.433-1.218-1.244-1.218-2.117v-13.384c0-0.867 0.465-1.683 1.218-2.117l11.588-6.695c0.735-0.415 1.708-0.415 2.437 0l11.6 6.701c0.754 0.433 1.218 1.244 1.218 2.117v13.384c0 0.867-0.465 1.677-1.218 2.117l-11.6 6.695c-0.371 0.214-0.791 0.327-1.218 0.327zM23.433 18.243c0-2.506-1.696-3.172-5.257-3.643-3.605-0.477-3.969-0.722-3.969-1.564 0-0.697 0.308-1.627 2.977-1.627 2.38 0 3.26 0.515 3.624 2.123 0.031 0.151 0.17 0.264 0.327 0.264h1.507c0.094 0 0.182-0.038 0.245-0.107s0.094-0.163 0.088-0.258c-0.232-2.77-2.073-4.057-5.791-4.057-3.31 0-5.282 1.394-5.282 3.737 0 2.537 1.966 3.241 5.138 3.555 3.8 0.371 4.095 0.93 4.095 1.677 0 1.294-1.043 1.847-3.486 1.847-3.071 0-3.743-0.773-3.969-2.299-0.025-0.163-0.163-0.283-0.333-0.283h-1.501c-0.188 0-0.333 0.151-0.333 0.333 0 1.953 1.061 4.283 6.142 4.283 3.668-0.006 5.778-1.457 5.778-3.982z"></path>
</svg>
