<!-- Generated by IcoMoon.io -->
<svg version="1.1" xmlns="http://www.w3.org/2000/svg" width="32" height="32" viewBox="0 0 32 32">
<title>normal-screen</title>
<path d="M9.603-0.183c-0.882 0.012-1.588 0.738-1.576 1.623v6.403h-6.403c-0.578-0.009-1.113 0.294-1.404 0.794-0.294 0.497-0.294 1.116 0 1.613 0.291 0.5 0.825 0.803 1.404 0.794h9.605v-9.605c0.006-0.431-0.163-0.847-0.469-1.154s-0.722-0.475-1.157-0.469zM22.409-0.183c-0.838 0.012-1.526 0.672-1.573 1.51-0.003 0.038-0.003 0.075-0.003 0.113v9.605h9.605c0.053 0 0.106 0 0.159-0.006 0.857-0.078 1.498-0.816 1.454-1.673-0.041-0.86-0.754-1.532-1.613-1.523h-6.403v-6.403c0.006-0.431-0.163-0.847-0.469-1.154s-0.722-0.475-1.157-0.469zM1.624 20.649c-0.578-0.009-1.113 0.294-1.404 0.794-0.294 0.497-0.294 1.116 0 1.613 0.291 0.5 0.825 0.803 1.404 0.794h6.403v6.403c-0.009 0.578 0.294 1.113 0.794 1.404 0.497 0.294 1.116 0.294 1.613 0 0.5-0.291 0.803-0.825 0.794-1.404v-9.605zM20.834 20.649v9.605c-0.009 0.578 0.294 1.113 0.794 1.404 0.497 0.294 1.116 0.294 1.613 0 0.5-0.291 0.803-0.825 0.794-1.404v-6.403h6.403c0.578 0.009 1.113-0.294 1.404-0.794 0.294-0.497 0.294-1.116 0-1.613-0.291-0.5-0.825-0.803-1.404-0.794z"></path>
</svg>
