<!-- Generated by IcoMoon.io -->
<svg version="1.1" xmlns="http://www.w3.org/2000/svg" width="24" height="32" viewBox="0 0 24 32">
<title>notes-medical</title>
<path d="M21.103 3.553h-5.024c0-2.217-1.803-4.020-4.020-4.020s-4.020 1.802-4.020 4.020h-5.024c-1.664 0-3.015 1.35-3.015 3.015v22.108c0 1.664 1.35 3.015 3.015 3.015h18.088c1.664 0 3.015-1.35 3.015-3.015v-22.108c0-1.664-1.35-3.015-3.015-3.015zM12.059 2.045c0.835 0 1.507 0.672 1.507 1.507s-0.672 1.507-1.507 1.507-1.507-0.672-1.507-1.507 0.672-1.507 1.507-1.507zM18.088 21.138c0 0.276-0.226 0.503-0.503 0.503h-3.517v3.517c0 0.276-0.226 0.503-0.502 0.503h-3.015c-0.276 0-0.502-0.226-0.502-0.503v-3.517h-3.517c-0.276 0-0.503-0.226-0.503-0.503v-3.015c0-0.276 0.226-0.503 0.502-0.503h3.517v-3.517c0-0.276 0.226-0.502 0.502-0.502h3.015c0.276 0 0.502 0.226 0.502 0.502v3.517h3.517c0.276 0 0.503 0.226 0.503 0.503v3.015zM18.088 9.080c0 0.276-0.226 0.502-0.503 0.502h-11.054c-0.276 0-0.502-0.226-0.502-0.502v-1.005c0-0.276 0.226-0.502 0.502-0.502h11.054c0.276 0 0.503 0.226 0.503 0.502v1.005z"></path>
</svg>
