<!-- Generated by IcoMoon.io -->
<svg version="1.1" xmlns="http://www.w3.org/2000/svg" width="40" height="32" viewBox="0 0 40 32">
<title>ns8</title>
<path d="M11.751 9.576l-2.148 7.141-3.423-7.141h-3.103l-3.078 10.055h2.82l1.953-6.689 3.178 6.689h3.574l3.046-10.055h-2.82zM40.171 9.519c-0.182-1.13-1.501-1.765-2.644-1.966-2.801-0.49-6.4 1.024-5.558 3.693v0.006c-2.751 0.546-4.666 1.683-5.916 3.027-0.188-0.615-0.854-1.043-2.135-1.043h-5.502c-0.584 0-0.81-0.145-0.722-0.465 0.1-0.345 0.119-0.427 0.232-0.766 0.132-0.402 0.49-0.446 0.835-0.446h8.385l0.609-1.978c-8.774 0-9.076-0.031-10.055 0.075-0.773 0.082-1.476 0.301-1.922 0.942-0.427 0.622-0.904 2.236-1.105 2.958-0.339 1.218-0.038 1.796 2.060 1.796h5.483c0.49 0 0.553 0.17 0.484 0.415-0.069 0.276-0.176 0.628-0.283 0.917-0.1 0.264-0.295 0.465-0.867 0.465h-7.964l-0.729 2.481c8.787 0 9.126-0.038 10.106-0.145 0.415-0.044 0.816-0.132 1.162-0.308 0.012 0.232 0.031 0.458 0.075 0.678 0.339 1.916 1.721 3.285 3.567 3.737 3.052 0.747 6.827-1.055 8.485-4.271 1.175-2.274 0.886-4.786-0.214-6.626h0.006c1.859-0.371 4.415-1.382 4.126-3.178zM33.331 16.095c-0.371 1.853-2.299 3.002-3.869 2.757-1.941-0.301-2.418-2.481-0.886-4.070 1.017-1.055 2.839-1.507 4.302-1.69 0.421 0.886 0.647 2.010 0.452 3.002zM34.7 10.876c-0.264-0.377-0.615-1.162-0.157-1.652 0.421-0.452 1.313-0.634 1.997-0.484 0.961 0.214 1.237 0.999 0.308 1.533-0.672 0.383-1.482 0.509-2.148 0.603z"></path>
</svg>
