<!-- Generated by IcoMoon.io -->
<svg version="1.1" xmlns="http://www.w3.org/2000/svg" width="25" height="32" viewBox="0 0 25 32">
<title>nutritionix</title>
<path d="M5.527 0.042s8.378-0.515 7.6 6.557c0 0 1.2-4.704 6.469-2.55 0 0-1.112 4.648-5.527 3.517 0 0 0.917-3.429 4.151-3.555 0 0-2.506-0.647-5.156 3.065 0 0-1.244-5.935-5.879-6.262 0 0 4.723 1.218 4.874 6.752 0 0.006-6.683 0.44-6.532-7.524zM25.122 19.863c0 3.046-0.609 5.985-2.010 8.309-2.65 1.941-6.595 3.015-10.551 3.015-3.95 0-7.901-1.074-10.551-3.015-1.401-2.324-2.010-5.263-2.010-8.309 0-3.040 1.112-5.948 2.512-8.272 2.65-1.941 6.098-3.052 10.049-3.052 3.957 0 7.399 1.105 10.049 3.052 1.401 2.324 2.512 5.232 2.512 8.272zM7.537 26.414c0-0.973-0.785-1.759-1.759-1.759s-1.759 0.785-1.759 1.759 0.785 1.759 1.759 1.759 1.759-0.785 1.759-1.759zM7.537 22.256c0-0.973-0.785-1.759-1.759-1.759s-1.759 0.785-1.759 1.759 0.785 1.759 1.759 1.759 1.759-0.785 1.759-1.759zM7.537 18.098c0-0.973-0.785-1.759-1.759-1.759s-1.759 0.785-1.759 1.759 0.785 1.759 1.759 1.759 1.759-0.785 1.759-1.759zM12.059 26.414c0-0.973-0.785-1.759-1.759-1.759s-1.759 0.785-1.759 1.759 0.785 1.759 1.759 1.759 1.759-0.785 1.759-1.759zM12.059 22.256c0-0.973-0.785-1.759-1.759-1.759s-1.759 0.785-1.759 1.759 0.785 1.759 1.759 1.759 1.759-0.785 1.759-1.759zM12.059 18.098c0-0.973-0.785-1.759-1.759-1.759s-1.759 0.785-1.759 1.759 0.785 1.759 1.759 1.759 1.759-0.785 1.759-1.759zM16.581 26.414c0-0.973-0.785-1.759-1.759-1.759s-1.759 0.785-1.759 1.759 0.785 1.759 1.759 1.759 1.759-0.785 1.759-1.759zM16.581 22.256c0-0.973-0.785-1.759-1.759-1.759s-1.759 0.785-1.759 1.759 0.785 1.759 1.759 1.759 1.759-0.785 1.759-1.759zM16.581 18.098c0-0.973-0.785-1.759-1.759-1.759s-1.759 0.785-1.759 1.759 0.785 1.759 1.759 1.759 1.759-0.785 1.759-1.759zM21.103 26.414c0-0.973-0.785-1.759-1.759-1.759s-1.759 0.785-1.759 1.759 0.785 1.759 1.759 1.759 1.759-0.785 1.759-1.759zM21.103 22.256c0-0.973-0.785-1.759-1.759-1.759s-1.759 0.785-1.759 1.759 0.785 1.759 1.759 1.759 1.759-0.785 1.759-1.759zM21.103 18.098c0-0.973-0.785-1.759-1.759-1.759s-1.759 0.785-1.759 1.759 0.785 1.759 1.759 1.759 1.759-0.785 1.759-1.759zM22.61 15.611c-0.301-1.401-0.465-2.318-1.005-3.517-2.437-1.25-5.684-2.010-9.044-2.010s-6.607 0.76-9.044 2.010c-0.553 1.225-0.703 2.129-1.005 3.517 2.65-0.496 6.199-0.93 10.049-0.93s7.399 0.433 10.049 0.93z"></path>
</svg>
