<!-- Generated by IcoMoon.io -->
<svg version="1.1" xmlns="http://www.w3.org/2000/svg" width="36" height="32" viewBox="0 0 36 32">
<title>object-ungroup1</title>
<path d="M4.020 19.631v1.633c0 0.208-0.169 0.377-0.377 0.377v0h-3.266c-0.208 0-0.377-0.169-0.377-0.377v0-3.266c0-0.208 0.169-0.377 0.377-0.377v0h1.633v-12.059h-1.633c-0.208 0-0.377-0.169-0.377-0.377v0-3.266c0-0.208 0.169-0.377 0.377-0.377v0h3.266c0.208 0 0.377 0.169 0.377 0.377v0 1.633h18.088v-1.633c0-0.208 0.169-0.377 0.377-0.377v0h3.266c0.208 0 0.377 0.169 0.377 0.377v0 3.266c0 0.208-0.169 0.377-0.377 0.377v0h-1.633v12.059h1.633c0.208 0 0.377 0.169 0.377 0.377v0 3.266c0 0.208-0.169 0.377-0.377 0.377v0h-3.266c-0.208 0-0.377-0.169-0.377-0.377v0-1.633h-18.088zM34.167 15.611v-2.010h1.633c0.208 0 0.377-0.169 0.377-0.377v0-3.266c0-0.208-0.169-0.377-0.377-0.377v0h-3.266c-0.208 0-0.377 0.169-0.377 0.377v0 1.633h-6.532v4.522h0.503c0.832 0 1.507 0.675 1.507 1.507v4.020c0 0.832-0.675 1.507-1.507 1.507h-4.020c-0.832 0-1.507-0.675-1.507-1.507v-0.503h-8.542v4.522h-1.633c-0.208 0-0.377 0.169-0.377 0.377v0 3.266c0 0.208 0.169 0.377 0.377 0.377v0h3.266c0.208 0 0.377-0.169 0.377-0.377v0-1.633h18.088v1.633c0 0.208 0.169 0.377 0.377 0.377v0h3.266c0.208 0 0.377-0.169 0.377-0.377v0-3.266c0-0.208-0.169-0.377-0.377-0.377v0h-1.633v-10.049z"></path>
</svg>
