<!-- Generated by IcoMoon.io -->
<svg version="1.1" xmlns="http://www.w3.org/2000/svg" width="32" height="32" viewBox="0 0 32 32">
<title>object-group1</title>
<path d="M30.147 7.572v-2.010h1.256c0.416 0 0.754-0.338 0.754-0.754v-2.512c0-0.416-0.338-0.754-0.754-0.754h-2.512c-0.416 0-0.754 0.338-0.754 0.754v1.256h-24.118v-1.256c0-0.416-0.338-0.754-0.754-0.754h-2.512c-0.416 0-0.754 0.338-0.754 0.754v2.512c0 0.416 0.338 0.754 0.754 0.754h1.256v20.098h-1.256c-0.416 0-0.754 0.338-0.754 0.754v2.512c0 0.416 0.338 0.754 0.754 0.754h2.512c0.416 0 0.754-0.338 0.754-0.754v-1.256h24.118v1.256c0 0.416 0.338 0.754 0.754 0.754h2.512c0.416 0 0.754-0.338 0.754-0.754v-2.512c0-0.416-0.338-0.754-0.754-0.754h-1.256v-18.088zM6.029 16.867v-8.542c0-0.416 0.338-0.754 0.754-0.754h10.551c0.416 0 0.754 0.338 0.754 0.754v8.542c0 0.416-0.338 0.754-0.754 0.754h-10.551c-0.416 0-0.754-0.338-0.754-0.754zM26.127 22.897c0 0.416-0.338 0.754-0.754 0.754h-10.551c-0.416 0-0.754-0.338-0.754-0.754v-3.266h4.522c0.832 0 1.507-0.675 1.507-1.507v-4.522h5.276c0.416 0 0.754 0.338 0.754 0.754v8.542z"></path>
</svg>
