<!-- Generated by IcoMoon.io -->
<svg version="1.1" xmlns="http://www.w3.org/2000/svg" width="36" height="32" viewBox="0 0 36 32">
<title>object-ungroup</title>
<path d="M35.423 13.602c0.416 0 0.754-0.338 0.754-0.754v-4.522c0-0.416-0.338-0.754-0.754-0.754h-4.522c-0.416 0-0.754 0.338-0.754 0.754v0.754h-5.527v-1.507h0.754c0.416 0 0.754-0.338 0.754-0.754v-4.522c0-0.416-0.338-0.754-0.754-0.754h-4.522c-0.416 0-0.754 0.338-0.754 0.754v0.754h-14.069v-0.754c0-0.416-0.338-0.754-0.754-0.754h-4.522c-0.416 0-0.754 0.338-0.754 0.754v4.522c0 0.416 0.338 0.754 0.754 0.754h0.754v10.049h-0.754c-0.416 0-0.754 0.338-0.754 0.754v4.522c0 0.416 0.338 0.754 0.754 0.754h4.522c0.416 0 0.754-0.338 0.754-0.754v-0.754h5.527v1.507h-0.754c-0.416 0-0.754 0.338-0.754 0.754v4.522c0 0.416 0.338 0.754 0.754 0.754h4.522c0.416 0 0.754-0.338 0.754-0.754v-0.754h14.069v0.754c0 0.416 0.338 0.754 0.754 0.754h4.522c0.416 0 0.754-0.338 0.754-0.754v-4.522c0-0.416-0.338-0.754-0.754-0.754h-0.754v-10.049h0.754zM22.108 3.553h2.010v2.010h-2.010v-2.010zM22.108 19.631h2.010v2.010h-2.010v-2.010zM4.020 21.641h-2.010v-2.010h2.010v2.010zM4.020 5.562h-2.010v-2.010h2.010v2.010zM6.029 19.128v-0.754c0-0.416-0.338-0.754-0.754-0.754h-0.754v-10.049h0.754c0.416 0 0.754-0.338 0.754-0.754v-0.754h14.069v0.754c0 0.416 0.338 0.754 0.754 0.754h0.754v10.049h-0.754c-0.416 0-0.754 0.338-0.754 0.754v0.754h-14.069zM14.069 27.67h-2.010v-2.010h2.010v2.010zM31.654 23.651h-0.754c-0.416 0-0.754 0.338-0.754 0.754v0.754h-14.069v-0.754c0-0.416-0.338-0.754-0.754-0.754h-0.754v-1.507h5.527v0.754c0 0.416 0.338 0.754 0.754 0.754h4.522c0.416 0 0.754-0.338 0.754-0.754v-4.522c0-0.416-0.338-0.754-0.754-0.754h-0.754v-5.527h5.527v0.754c0 0.416 0.338 0.754 0.754 0.754h0.754v10.049zM34.167 27.67h-2.010v-2.010h2.010v2.010zM34.167 11.592h-2.010v-2.010h2.010v2.010z"></path>
</svg>
