<!-- Generated by IcoMoon.io -->
<svg version="1.1" xmlns="http://www.w3.org/2000/svg" width="32" height="32" viewBox="0 0 32 32">
<title>object-group</title>
<path d="M31.403 7.572c0.416 0 0.754-0.338 0.754-0.754v-4.522c0-0.416-0.338-0.754-0.754-0.754h-4.522c-0.416 0-0.754 0.338-0.754 0.754v0.754h-20.098v-0.754c0-0.416-0.338-0.754-0.754-0.754h-4.522c-0.416 0-0.754 0.338-0.754 0.754v4.522c0 0.416 0.338 0.754 0.754 0.754h0.754v16.078h-0.754c-0.416 0-0.754 0.338-0.754 0.754v4.522c0 0.416 0.338 0.754 0.754 0.754h4.522c0.416 0 0.754-0.338 0.754-0.754v-0.754h20.098v0.754c0 0.416 0.338 0.754 0.754 0.754h4.522c0.416 0 0.754-0.338 0.754-0.754v-4.522c0-0.416-0.338-0.754-0.754-0.754h-0.754v-16.078h0.754zM28.137 3.553h2.010v2.010h-2.010v-2.010zM2.010 3.553h2.010v2.010h-2.010v-2.010zM4.020 27.67h-2.010v-2.010h2.010v2.010zM30.147 27.67h-2.010v-2.010h2.010v2.010zM27.635 23.651h-0.754c-0.416 0-0.754 0.338-0.754 0.754v0.754h-20.098v-0.754c0-0.416-0.338-0.754-0.754-0.754h-0.754v-16.078h0.754c0.416 0 0.754-0.338 0.754-0.754v-0.754h20.098v0.754c0 0.416 0.338 0.754 0.754 0.754h0.754v16.078zM25.374 11.592h-5.276v-3.266c0-0.416-0.338-0.754-0.754-0.754h-12.561c-0.416 0-0.754 0.337-0.754 0.754v10.551c0 0.416 0.338 0.754 0.754 0.754h5.276v3.266c0 0.416 0.338 0.754 0.754 0.754h12.561c0.416 0 0.754-0.337 0.754-0.754v-10.551c0-0.416-0.338-0.754-0.754-0.754zM8.542 10.084h9.044v7.034h-9.044v-7.034zM23.615 21.138h-9.044v-1.507h4.773c0.416 0 0.754-0.337 0.754-0.754v-4.773h3.517v7.034z"></path>
</svg>
