<!-- Generated by IcoMoon.io -->
<svg version="1.1" xmlns="http://www.w3.org/2000/svg" width="32" height="32" viewBox="0 0 32 32">
<title>odb-file-format-variant</title>
<path d="M27.736 7.239c-0.001-0.148-0.048-0.293-0.15-0.408l-6.2-7.082c-0.002-0.002-0.004-0.003-0.005-0.004-0.037-0.041-0.080-0.076-0.126-0.105-0.013-0.009-0.027-0.017-0.041-0.025-0.039-0.021-0.081-0.039-0.124-0.052-0.012-0.003-0.022-0.008-0.034-0.011-0.047-0.011-0.095-0.018-0.145-0.018h-15.237c-0.696 0-1.261 0.566-1.261 1.261v29.635c0 0.695 0.565 1.261 1.261 1.261h20.807c0.695 0 1.261-0.566 1.261-1.261v-23.119c-0-0.023-0.004-0.047-0.007-0.070zM9.577 29.48c-1.985 0-3.146-1.498-3.146-3.404 0-2.005 1.281-3.504 3.255-3.504 2.054 0 3.176 1.539 3.176 3.385 0 2.193-1.33 3.523-3.285 3.523zM18.659 28.577c-0.705 0.585-1.776 0.863-3.086 0.863-0.784 0-1.34-0.049-1.717-0.099v-6.57c0.556-0.089 1.281-0.139 2.044-0.139 1.27 0 2.094 0.229 2.739 0.715 0.695 0.516 1.131 1.34 1.131 2.52 0 1.28-0.467 2.164-1.111 2.71zM25.031 28.835c-0.486 0.387-1.3 0.605-2.631 0.605-0.744 0-1.3-0.049-1.637-0.099v-6.57c0.397-0.079 1.201-0.139 1.955-0.139 0.923 0 1.489 0.090 1.975 0.377 0.466 0.248 0.804 0.704 0.804 1.31 0 0.595-0.347 1.151-1.102 1.429v0.020c0.764 0.208 1.33 0.784 1.33 1.647 0 0.605-0.278 1.082-0.695 1.419zM26.482 20.944h-20.807v-20.15h14.607v6.452c0 0.349 0.283 0.631 0.631 0.631h5.57v13.068zM23.979 24.508c0-0.506-0.387-0.774-1.071-0.774-0.328 0-0.517 0.020-0.645 0.039v1.558h0.496c0.794 0 1.22-0.328 1.22-0.824zM16.059 23.793c-0.337 0-0.556 0.030-0.685 0.060v4.376c0.129 0.031 0.338 0.031 0.526 0.031 1.37 0.009 2.263-0.745 2.263-2.343 0.010-1.389-0.804-2.124-2.104-2.124zM9.646 23.774c-1.022 0-1.618 0.973-1.618 2.273 0 1.31 0.615 2.233 1.628 2.233 1.022 0 1.608-0.973 1.608-2.272-0-1.201-0.576-2.233-1.618-2.233zM22.778 26.413h-0.516v1.885c0.149 0.020 0.327 0.020 0.586 0.020 0.685 0 1.29-0.257 1.29-0.962 0-0.675-0.605-0.943-1.36-0.943zM15.612 15.6c2.447 0 4.362-0.874 4.362-1.99v-1.256c0-0.178-0.052-0.36-0.156-0.538l-0.004-0.007c0.102-0.171 0.16-0.351 0.16-0.538v-1.256c0-0.178-0.052-0.36-0.156-0.538l-0.013-0.023c0.108-0.176 0.169-0.361 0.169-0.555v-1.256c0-0.17-0.047-0.343-0.141-0.514l-0.011-0.020c0.028-0.076 0.047-0.155 0.047-0.238 0-1.015-2.193-1.563-4.257-1.563-2.062 0-4.255 0.548-4.255 1.563 0 0.083 0.019 0.161 0.047 0.238l-0.011 0.020c-0.094 0.171-0.141 0.344-0.141 0.514v1.256c0 0.193 0.061 0.379 0.169 0.554l-0.014 0.024c-0.103 0.179-0.155 0.359-0.155 0.538v1.256c0 0.187 0.057 0.366 0.16 0.538l-0.005 0.008c-0.103 0.178-0.155 0.359-0.155 0.537v1.256c-0 1.116 1.915 1.991 4.359 1.991zM11.719 7.854c0.7 0.593 2.322 0.9 3.893 0.9 1.573 0 3.194-0.307 3.895-0.9v1.045c0 0.72-1.598 1.523-3.895 1.523-2.294 0-3.893-0.802-3.893-1.523v-1.045zM11.719 10.089c0.716 0.656 2.189 1.074 3.893 1.074 1.706 0 3.179-0.419 3.895-1.075v1.182c0 0.72-1.598 1.523-3.895 1.523-2.294 0-3.893-0.803-3.893-1.523v-1.182zM11.719 12.428c0.716 0.656 2.189 1.074 3.893 1.074 1.706 0 3.179-0.419 3.895-1.074v1.182c0 0.72-1.598 1.523-3.895 1.523-2.294 0-3.893-0.803-3.893-1.523v-1.182zM16.919 17.451h-0.939v-1.050h-0.631v1.050h-0.69v0.294h-6.636v0.631h6.636v0.179h2.259v-0.179h7.214v-0.631h-7.214z"></path>
</svg>
