<!-- Generated by IcoMoon.io -->
<svg version="1.1" xmlns="http://www.w3.org/2000/svg" width="32" height="32" viewBox="0 0 32 32">
<title>odc-file-format-symbol</title>
<path d="M15.793 23.529c-0.345 0-0.568 0.031-0.7 0.062v4.471c0.132 0.031 0.345 0.031 0.538 0.031 1.399 0.010 2.312-0.761 2.312-2.393 0.010-1.419-0.821-2.17-2.149-2.17zM9.241 23.509c-1.044 0-1.652 0.994-1.652 2.323 0 1.339 0.629 2.281 1.663 2.281 1.044 0 1.642-0.993 1.642-2.321 0-1.227-0.588-2.282-1.653-2.282zM27.736 7.239c-0.001-0.148-0.048-0.293-0.15-0.408l-6.2-7.082c-0.002-0.002-0.004-0.003-0.005-0.004-0.037-0.041-0.080-0.076-0.126-0.105-0.013-0.009-0.027-0.017-0.041-0.025-0.040-0.021-0.082-0.039-0.125-0.052-0.011-0.003-0.022-0.008-0.033-0.011-0.047-0.011-0.095-0.018-0.145-0.018h-15.237c-0.696 0-1.261 0.566-1.261 1.261v29.635c0 0.695 0.565 1.261 1.261 1.261h20.806c0.696 0 1.261-0.566 1.261-1.261v-23.119c-0-0.023-0.003-0.047-0.006-0.070zM9.17 29.339c-2.028 0-3.214-1.531-3.214-3.478 0-2.049 1.308-3.579 3.326-3.579 2.099 0 3.245 1.572 3.245 3.457-0 2.241-1.359 3.6-3.357 3.6zM18.449 28.416c-0.72 0.599-1.815 0.883-3.153 0.883-0.801 0-1.369-0.051-1.754-0.102v-6.712c0.568-0.091 1.308-0.142 2.089-0.142 1.297 0 2.139 0.233 2.798 0.73 0.71 0.527 1.156 1.369 1.156 2.575 0 1.308-0.477 2.211-1.136 2.768zM24.098 28.052c0.466 0 0.983-0.101 1.288-0.224l0.233 1.208c-0.284 0.142-0.923 0.294-1.754 0.294-2.362 0-3.58-1.47-3.58-3.417 0-2.332 1.663-3.63 3.732-3.63 0.8 0 1.409 0.162 1.683 0.304l-0.314 1.227c-0.315-0.131-0.75-0.253-1.298-0.253-1.227 0-2.18 0.74-2.18 2.261-0 1.369 0.811 2.231 2.19 2.231zM26.482 20.944h-20.807v-20.15h14.606v6.452c0 0.349 0.283 0.631 0.631 0.631h5.57v13.068zM8.436 11.424h3.792v0.946h-3.792v-0.946zM8.436 8.615h7.811v0.946h-7.811v-0.946zM8.436 5.734h10.609v0.946h-10.609v-0.946zM8.436 14.31h3.792v0.946h-3.792v-0.946zM8.436 17.098h3.792v0.946h-3.792v-0.946zM15.093 17.098h8.656v0.946h-8.656v-0.946zM15.274 11.424h1.070v4.687h-1.070v-4.687zM17.768 9.333h1.070v6.778h-1.070v-6.778zM20.251 10.357h1.070v5.754h-1.070v-5.753zM22.506 12.722h1.070v3.389h-1.070v-3.389z"></path>
</svg>
