<!-- Generated by IcoMoon.io -->
<svg version="1.1" xmlns="http://www.w3.org/2000/svg" width="32" height="32" viewBox="0 0 32 32">
<title>odf-file-format-variant</title>
<path d="M16.532 23.658c-0.366 0-0.604 0.032-0.744 0.065v4.76c0.14 0.032 0.367 0.032 0.572 0.032 1.49 0.011 2.461-0.809 2.461-2.547 0.011-1.511-0.874-2.31-2.289-2.31zM27.737 7.239c-0.002-0.148-0.049-0.293-0.151-0.408l-6.2-7.082c-0.001-0.002-0.003-0.003-0.004-0.004-0.038-0.041-0.079-0.076-0.125-0.105-0.013-0.009-0.027-0.017-0.041-0.025-0.040-0.021-0.081-0.039-0.124-0.052-0.012-0.003-0.022-0.008-0.034-0.011-0.047-0.011-0.095-0.018-0.145-0.018h-15.238c-0.695 0-1.261 0.566-1.261 1.261v29.635c0 0.695 0.566 1.261 1.261 1.261h20.807c0.696 0 1.261-0.566 1.261-1.261v-23.119c-0-0.023-0.004-0.047-0.006-0.070zM9.482 29.843c-2.159 0-3.422-1.63-3.422-3.702 0-2.18 1.393-3.81 3.54-3.81 2.235 0 3.454 1.673 3.454 3.681 0 2.385-1.446 3.832-3.573 3.832zM19.36 28.861c-0.767 0.637-1.932 0.938-3.357 0.938-0.853 0-1.457-0.054-1.868-0.108v-7.145c0.604-0.097 1.393-0.152 2.224-0.152 1.382 0 2.278 0.249 2.979 0.778 0.756 0.562 1.23 1.457 1.23 2.742 0 1.392-0.507 2.353-1.209 2.947zM26.097 23.798h-2.796v1.663h2.612v1.338h-2.612v2.925h-1.651v-7.275h4.448v1.349zM5.675 20.944v-20.15h14.607v6.452c0 0.349 0.282 0.631 0.631 0.631h5.569l0.001 13.068h-20.808zM9.557 23.636c-1.112 0-1.76 1.058-1.76 2.472 0 1.425 0.669 2.429 1.771 2.429 1.112 0 1.748-1.058 1.748-2.472 0-1.307-0.625-2.429-1.759-2.429zM19.892 8.455c0-0.253-0.205-0.458-0.459-0.458h-7.7c-0.185 0-0.352 0.112-0.423 0.282s-0.032 0.369 0.099 0.5l3.785 3.785-3.717 3.382c-0.14 0.128-0.187 0.328-0.119 0.505s0.238 0.293 0.427 0.293h7.647c0.253 0 0.458-0.205 0.458-0.458s-0.205-0.459-0.458-0.459h-6.462l3.196-2.909c0.093-0.085 0.147-0.203 0.15-0.328s-0.045-0.246-0.134-0.335l-3.342-3.343h6.593c0.253-0 0.459-0.205 0.459-0.458z"></path>
</svg>
