<!-- Generated by IcoMoon.io -->
<svg version="1.1" xmlns="http://www.w3.org/2000/svg" width="32" height="32" viewBox="0 0 32 32">
<title>odg-file-format</title>
<path d="M9.096 23.525c-1.045 0-1.653 0.994-1.653 2.322 0 1.339 0.629 2.282 1.663 2.282 1.045 0 1.643-0.994 1.643-2.322 0-1.227-0.588-2.282-1.653-2.282zM15.647 23.545c-0.345 0-0.568 0.030-0.699 0.060v4.472c0.132 0.030 0.345 0.030 0.537 0.030 1.399 0.011 2.312-0.76 2.312-2.393 0.010-1.419-0.821-2.17-2.15-2.17zM27.737 7.239c-0.002-0.148-0.049-0.293-0.151-0.408l-6.2-7.082c-0.002-0.002-0.004-0.003-0.005-0.004-0.037-0.041-0.080-0.076-0.126-0.105-0.013-0.009-0.027-0.017-0.041-0.025-0.039-0.021-0.081-0.039-0.124-0.052-0.012-0.003-0.022-0.008-0.034-0.011-0.047-0.011-0.095-0.018-0.145-0.018h-15.237c-0.695 0-1.261 0.566-1.261 1.261v29.635c0 0.695 0.566 1.261 1.261 1.261h20.807c0.695 0 1.261-0.566 1.261-1.261v-23.119c0-0.023-0.004-0.047-0.006-0.070zM9.025 29.355c-2.028 0-3.214-1.531-3.214-3.478 0-2.049 1.308-3.58 3.326-3.58 2.099 0 3.245 1.572 3.245 3.458-0 2.24-1.359 3.599-3.357 3.599zM18.304 28.433c-0.72 0.598-1.815 0.882-3.153 0.882-0.801 0-1.369-0.050-1.754-0.101v-6.713c0.568-0.091 1.308-0.142 2.089-0.142 1.298 0 2.139 0.233 2.799 0.729 0.71 0.528 1.156 1.37 1.156 2.577-0 1.308-0.477 2.21-1.136 2.768zM26.164 28.93c-0.477 0.162-1.379 0.385-2.281 0.385-1.247 0-2.149-0.314-2.778-0.922-0.629-0.589-0.974-1.481-0.964-2.485 0.010-2.271 1.663-3.569 3.905-3.569 0.882 0 1.562 0.172 1.896 0.335l-0.324 1.238c-0.375-0.163-0.841-0.295-1.592-0.295-1.288 0-2.261 0.73-2.261 2.211 0 1.409 0.882 2.24 2.149 2.24 0.355 0 0.639-0.040 0.761-0.101v-1.43h-1.054v-1.207h2.545v3.6zM26.482 20.944h-20.807v-20.15h14.607v6.452c0 0.349 0.283 0.631 0.631 0.631h5.57v13.068zM18.673 14.857c-0.366 1.46 0.945 2.744 0.945 2.744 2.027 1.823 3.459 0 3.459 0-0.744-0.39-0.781-1.878-0.781-1.878-0.019-1.693-2.457-2.032-2.457-2.032l-1.166 1.166zM18.892 15.299l0.285-0.414c0 0-0.471 0.66 1.334 2.84 0 0-1.321-0.472-1.619-2.426zM18.954 12.295c-0.289-0.289-9.33-7.814-9.844-8.328-0.636-0.463-1.004 0.010-0.507 0.507 0.496 0.496 8.39 9.228 8.667 9.504s1.117 0.618 1.117 0.618l1.166-1.166c0 0-0.311-0.846-0.6-1.135z"></path>
</svg>
