<!-- Generated by IcoMoon.io -->
<svg version="1.1" xmlns="http://www.w3.org/2000/svg" width="32" height="32" viewBox="0 0 32 32">
<title>odi-file-format-symbol</title>
<path d="M27.737 7.239c-0.002-0.148-0.049-0.293-0.151-0.408l-6.2-7.082c-0.001-0.002-0.003-0.003-0.004-0.004-0.038-0.041-0.079-0.076-0.125-0.105-0.013-0.009-0.028-0.017-0.042-0.025-0.039-0.021-0.081-0.039-0.124-0.052-0.011-0.003-0.022-0.008-0.034-0.011-0.047-0.011-0.095-0.018-0.144-0.018h-15.238c-0.695 0-1.261 0.566-1.261 1.261v29.635c0 0.695 0.566 1.261 1.261 1.261h20.807c0.695 0 1.261-0.566 1.261-1.261v-23.119c-0-0.023-0.004-0.047-0.006-0.070zM10.456 30.072c-2.27 0-3.597-1.713-3.597-3.892 0-2.292 1.464-4.006 3.722-4.006 2.349 0 3.631 1.759 3.631 3.87-0 2.508-1.521 4.029-3.757 4.029zM20.84 29.039c-0.806 0.67-2.031 0.988-3.529 0.988-0.897 0-1.532-0.057-1.963-0.114v-7.512c0.635-0.102 1.464-0.159 2.338-0.159 1.452 0 2.394 0.261 3.132 0.817 0.794 0.59 1.294 1.532 1.294 2.882 0 1.464-0.534 2.474-1.271 3.098zM24.983 29.948h-1.736v-7.649h1.736v7.649zM5.675 20.944v-20.15h14.607v6.452c0 0.349 0.282 0.631 0.631 0.631h5.569l0.001 13.068h-20.808zM17.867 23.57c-0.386 0-0.636 0.035-0.783 0.068v5.004c0.147 0.035 0.386 0.035 0.601 0.035 1.566 0.011 2.587-0.852 2.587-2.678 0.011-1.589-0.919-2.429-2.406-2.429zM10.535 23.547c-1.169 0-1.85 1.113-1.85 2.599 0 1.498 0.704 2.553 1.861 2.553 1.169 0 1.838-1.112 1.838-2.598 0-1.373-0.658-2.554-1.85-2.554zM19.683 14.964v-8.23c0-0.11-0.090-0.199-0.201-0.199h-9.51c-0.112 0-0.201 0.090-0.201 0.199v8.23c0 0.111 0.090 0.201 0.201 0.201h9.51c0.111 0 0.201-0.090 0.201-0.201zM18.932 12.842h-0.602c-0.351-0.9-0.783-2.16-1.439-1.992-0.769 0.196-1.153 1.992-1.153 1.992s-0.393-2.026-1.478-3.112c-1.085-1.085-2.136 3.112-2.136 3.112h-1.436v-5.397h8.244v5.397h-0zM12.691 8.603c0 0.372-0.301 0.673-0.673 0.673s-0.673-0.301-0.673-0.673c0-0.372 0.301-0.673 0.673-0.673s0.673 0.301 0.673 0.673zM16.532 9.078c0.151 0 0.293-0.016 0.419-0.041 0.147 0.063 0.324 0.101 0.518 0.101 0.495 0 0.897-0.243 0.897-0.541s-0.402-0.541-0.897-0.541c-0.186 0-0.359 0.034-0.502 0.092-0.059-0.057-0.138-0.092-0.225-0.092h-0.13c-0.166 0-0.297 0.126-0.317 0.287-0.402 0.042-0.7 0.187-0.7 0.361-0 0.207 0.42 0.375 0.937 0.375zM22.277 10.457l-2.069-0.464v0.933l1.334 0.298-1.18 5.267-0.587-0.132c-0.028-0.179-0.055-0.371-0.086-0.564h-8.56l-0.171 0.764c-0.024 0.108 0.044 0.216 0.152 0.24l9.28 2.079c0.109 0.024 0.216-0.044 0.24-0.152l1.799-8.031c0.024-0.107-0.044-0.214-0.152-0.238zM20.737 12.224c0.055-0.243-0.174-0.506-0.53-0.651v1.007c0.277-0.035 0.486-0.163 0.53-0.356z"></path>
</svg>
