<!-- Generated by IcoMoon.io -->
<svg version="1.1" xmlns="http://www.w3.org/2000/svg" width="28" height="32" viewBox="0 0 28 32">
<title>odnoklassniki-square</title>
<path d="M11.569 10.656c0-1.388 1.124-2.512 2.5-2.512s2.5 1.124 2.5 2.512c0 1.382-1.124 2.5-2.5 2.5s-2.5-1.124-2.5-2.5zM28.137 4.557v22.108c0 1.664-1.35 3.015-3.015 3.015h-22.108c-1.664 0-3.015-1.35-3.015-3.015v-22.108c0-1.664 1.35-3.015 3.015-3.015h22.108c1.664 0 3.015 1.35 3.015 3.015zM8.975 10.656c0 2.801 2.286 5.081 5.094 5.081s5.094-2.274 5.094-5.081c0-2.814-2.286-5.094-5.094-5.094s-5.094 2.274-5.094 5.094zM19.935 16.352c-0.289-0.572-1.087-1.055-2.142-0.226 0 0-1.426 1.13-3.724 1.13s-3.724-1.13-3.724-1.13c-1.055-0.829-1.853-0.345-2.142 0.226-0.496 1.011 0.069 1.488 1.344 2.324 1.087 0.697 2.588 0.955 3.555 1.055l-0.81 0.81c-1.143 1.13-2.23 2.23-2.996 2.996-1.105 1.105 0.672 2.877 1.784 1.796l2.996-3.008c1.143 1.143 2.242 2.242 2.996 3.008 1.105 1.080 2.889-0.672 1.796-1.796l-2.996-2.996-0.816-0.81c0.973-0.1 2.456-0.371 3.53-1.055 1.281-0.835 1.84-1.319 1.35-2.324z"></path>
</svg>
