<!-- Generated by IcoMoon.io -->
<svg version="1.1" xmlns="http://www.w3.org/2000/svg" width="20" height="32" viewBox="0 0 20 32">
<title>odnoklassniki</title>
<path d="M17.278 20.51c-1.721 1.093-4.089 1.526-5.653 1.69l1.313 1.294 4.792 4.792c1.752 1.796-1.099 4.604-2.87 2.87-1.2-1.218-2.958-2.977-4.792-4.811l-4.792 4.805c-1.771 1.727-4.622-1.105-2.851-2.87 1.218-1.218 2.958-2.977 4.792-4.792l1.294-1.294c-1.545-0.163-3.95-0.572-5.69-1.69-2.047-1.319-2.946-2.091-2.154-3.706 0.465-0.917 1.74-1.69 3.429-0.358 0 0 2.28 1.815 5.96 1.815s5.96-1.815 5.96-1.815c1.69-1.325 2.958-0.559 3.429 0.358 0.779 1.614-0.119 2.387-2.167 3.712zM1.903 7.679c0-4.503 3.662-8.146 8.146-8.146s8.146 3.643 8.146 8.146c0 4.484-3.662 8.127-8.146 8.127s-8.146-3.643-8.146-8.127zM6.048 7.679c0 2.205 1.796 4.001 4.001 4.001s4.001-1.796 4.001-4.001c0-2.223-1.796-4.020-4.001-4.020s-4.001 1.796-4.001 4.020z"></path>
</svg>
