<!-- Generated by IcoMoon.io -->
<svg version="1.1" xmlns="http://www.w3.org/2000/svg" width="41" height="32" viewBox="0 0 41 32">
<title>odometer2</title>
<path d="M39.282 26.211c0.305-0.203 0.745-0.643 0.948-0.948l0.389-0.575v-17.839l-0.389-0.575c-0.203-0.305-0.643-0.745-0.948-0.948l-0.575-0.389h-36.794l-0.575 0.389c-0.305 0.203-0.745 0.643-0.948 0.948l-0.389 0.575v17.839l0.389 0.575c0.203 0.305 0.643 0.745 0.948 0.948l0.575 0.389h36.794l0.575-0.389zM2.708 15.768v-8.124h10.832v16.248h-10.832v-8.124zM29.956 20.812c-0.558-0.288-0.863-0.592-1.151-1.151-0.338-0.694-0.372-0.965-0.372-3.893s0.034-3.199 0.372-3.893c0.592-1.185 1.439-1.523 3.69-1.523s3.097 0.338 3.673 1.523c0.355 0.694 0.389 0.965 0.389 3.893s-0.034 3.199-0.389 3.893c-0.575 1.185-1.422 1.523-3.673 1.523-1.523 0-1.896-0.051-2.539-0.372zM17.771 20.812c-0.558-0.288-0.863-0.592-1.151-1.151-0.338-0.694-0.372-0.965-0.372-3.893s0.034-3.199 0.372-3.893c0.592-1.185 1.439-1.523 3.69-1.523s3.097 0.338 3.673 1.523c0.355 0.694 0.389 0.965 0.389 3.893s-0.034 3.199-0.389 3.893c-0.575 1.185-1.422 1.523-3.673 1.523-1.523 0-1.896-0.051-2.539-0.372zM10.849 20.795c0.305-0.203 0.745-0.643 0.948-0.948 0.372-0.558 0.389-0.711 0.389-4.079s-0.017-3.52-0.389-4.079c-0.203-0.305-0.643-0.745-0.948-0.948-0.525-0.355-0.762-0.389-2.725-0.389s-2.2 0.034-2.725 0.389c-0.305 0.203-0.745 0.643-0.948 0.948-0.372 0.558-0.389 0.711-0.389 4.079s0.017 3.52 0.389 4.079c0.203 0.305 0.643 0.745 0.948 0.948 0.525 0.355 0.762 0.389 2.725 0.389s2.2-0.034 2.725-0.389zM6.77 15.768v-2.708h2.708v5.416h-2.708v-2.708zM33.849 15.768v-2.708h-2.708v5.416h2.708v-2.708zM21.663 15.768v-2.708h-2.708v5.416h2.708v-2.708z"></path>
</svg>
