<!-- Generated by IcoMoon.io -->
<svg version="1.1" xmlns="http://www.w3.org/2000/svg" width="32" height="32" viewBox="0 0 32 32">
<title>odometer</title>
<path d="M8.572 19.74c0.241-0.16 0.588-0.508 0.749-0.749 0.294-0.441 0.308-0.562 0.308-3.223s-0.013-2.781-0.308-3.223c-0.16-0.241-0.508-0.588-0.749-0.749-0.415-0.281-0.602-0.308-2.153-0.308s-1.738 0.027-2.153 0.308c-0.241 0.16-0.588 0.508-0.749 0.749-0.294 0.441-0.308 0.562-0.308 3.223s0.013 2.782 0.308 3.223c0.16 0.241 0.508 0.588 0.749 0.749 0.415 0.281 0.602 0.308 2.153 0.308s1.738-0.027 2.153-0.308zM5.349 15.768v-2.14h2.14v4.279h-2.14v-2.14zM31.038 24.019c0.241-0.16 0.588-0.508 0.749-0.749l0.308-0.455v-14.095l-0.308-0.455c-0.16-0.241-0.508-0.588-0.749-0.749l-0.455-0.308h-29.072l-0.455 0.308c-0.241 0.16-0.588 0.508-0.749 0.749l-0.308 0.455v14.095l0.308 0.455c0.16 0.241 0.508 0.588 0.749 0.749l0.455 0.308h29.072l0.455-0.308zM2.14 15.768v-6.419h8.558v12.838h-8.558v-6.419zM23.669 19.753c-0.441-0.227-0.682-0.468-0.909-0.909-0.267-0.548-0.294-0.762-0.294-3.076s0.027-2.527 0.294-3.076c0.468-0.936 1.137-1.204 2.915-1.204s2.447 0.267 2.902 1.204c0.281 0.548 0.308 0.762 0.308 3.076s-0.027 2.527-0.308 3.076c-0.455 0.936-1.123 1.204-2.902 1.204-1.204 0-1.498-0.040-2.006-0.294zM14.041 19.753c-0.441-0.227-0.682-0.468-0.909-0.909-0.267-0.548-0.294-0.762-0.294-3.076s0.027-2.527 0.294-3.076c0.468-0.936 1.137-1.204 2.915-1.204s2.447 0.267 2.902 1.204c0.281 0.548 0.308 0.762 0.308 3.076s-0.027 2.527-0.308 3.076c-0.455 0.936-1.123 1.204-2.902 1.204-1.204 0-1.498-0.040-2.006-0.294zM26.745 15.768v-2.14h-2.14v4.279h2.14v-2.14zM17.117 15.768v-2.14h-2.14v4.279h2.14v-2.14z"></path>
</svg>
