<!-- Generated by IcoMoon.io -->
<svg version="1.1" xmlns="http://www.w3.org/2000/svg" width="32" height="32" viewBox="0 0 32 32">
<title>odp-file-format-symbol</title>
<path d="M8.661 11.003h3.792v0.946h-3.792v-0.946zM8.661 8.195h7.811v0.946h-7.811v-0.946zM8.661 5.313h10.609v0.946h-10.609v-0.946zM8.661 13.89h3.792v0.946h-3.792v-0.946zM8.661 16.678h3.792v0.946h-3.792v-0.946zM18.192 9.793c-2.391 0-4.329 1.938-4.329 4.329s1.938 4.328 4.329 4.328c2.39 0 4.328-1.938 4.328-4.328h-4.328v-4.329zM18.779 13.439v0.001h4.329c0-1.218-0.505-2.316-1.314-3.103l-3.015 3.102zM18.734 12.679l3.060-3.061c-0.86-0.861-1.935-1.281-3.063-1.265l0.002 4.324 0.001 0.001zM9.562 23.876c-1.091 0-1.727 1.038-1.727 2.426 0 1.398 0.657 2.383 1.737 2.383 1.091 0 1.716-1.038 1.716-2.425 0-1.282-0.614-2.384-1.726-2.384zM16.406 23.897c-0.36 0-0.593 0.033-0.73 0.064v4.671c0.138 0.032 0.36 0.032 0.561 0.032 1.462 0.010 2.415-0.795 2.415-2.5 0.010-1.483-0.858-2.267-2.246-2.267zM23.694 23.876c-0.328 0-0.551 0.032-0.668 0.063v2.108c0.138 0.033 0.307 0.043 0.54 0.043 0.858 0 1.388-0.434 1.388-1.165 0-0.657-0.456-1.049-1.261-1.049zM27.736 7.239c-0.001-0.148-0.048-0.293-0.15-0.408l-6.2-7.082c-0.002-0.002-0.004-0.003-0.005-0.004-0.037-0.041-0.080-0.076-0.126-0.105-0.013-0.009-0.027-0.017-0.041-0.025-0.039-0.021-0.081-0.039-0.124-0.052-0.012-0.003-0.022-0.008-0.034-0.011-0.047-0.011-0.095-0.018-0.145-0.018h-15.237c-0.696 0-1.261 0.566-1.261 1.261v29.635c0 0.695 0.565 1.261 1.261 1.261h20.807c0.695 0 1.261-0.566 1.261-1.261v-23.119c-0-0.023-0.004-0.047-0.007-0.070zM5.675 0.794h14.607v6.452c0 0.349 0.283 0.631 0.631 0.631h5.57v13.068h-20.807v-20.15zM9.488 29.967c-2.119 0-3.358-1.599-3.358-3.633 0-2.14 1.366-3.739 3.474-3.739 2.193 0 3.39 1.642 3.39 3.613-0 2.341-1.42 3.76-3.507 3.76zM19.181 29.003c-0.752 0.625-1.896 0.922-3.294 0.922-0.837 0-1.43-0.053-1.833-0.107v-7.011c0.593-0.095 1.366-0.148 2.182-0.148 1.356 0 2.235 0.244 2.923 0.763 0.742 0.55 1.208 1.43 1.208 2.69 0 1.367-0.498 2.309-1.186 2.892zM25.898 26.578c-0.551 0.519-1.366 0.752-2.319 0.752-0.212 0-0.403-0.010-0.551-0.032v2.554h-1.599v-7.044c0.498-0.085 1.197-0.148 2.182-0.148 0.996 0 1.705 0.191 2.183 0.572 0.455 0.36 0.762 0.953 0.762 1.652s-0.233 1.293-0.657 1.695z"></path>
</svg>
