<!-- Generated by IcoMoon.io -->
<svg version="1.1" xmlns="http://www.w3.org/2000/svg" width="32" height="32" viewBox="0 0 32 32">
<title>ods-file-format-symbol</title>
<path d="M16.535 23.838c-0.347 0-0.572 0.030-0.705 0.061v4.505c0.133 0.031 0.348 0.031 0.542 0.031 1.41 0.010 2.329-0.766 2.329-2.411 0.010-1.43-0.828-2.186-2.166-2.186zM9.934 23.817c-1.052 0-1.665 1.001-1.665 2.34 0 1.349 0.633 2.299 1.675 2.299 1.052 0 1.655-1.001 1.655-2.339 0-1.236-0.593-2.299-1.666-2.299zM27.736 7.239c-0.001-0.148-0.048-0.293-0.15-0.408l-6.2-7.082c-0.002-0.002-0.004-0.003-0.005-0.004-0.037-0.041-0.080-0.076-0.126-0.105-0.013-0.009-0.027-0.017-0.041-0.025-0.039-0.021-0.081-0.039-0.124-0.052-0.012-0.003-0.022-0.008-0.034-0.011-0.047-0.011-0.095-0.018-0.145-0.018h-15.237c-0.696 0-1.261 0.566-1.261 1.261v29.635c0 0.695 0.565 1.261 1.261 1.261h20.807c0.695 0 1.261-0.566 1.261-1.261v-23.119c-0-0.023-0.004-0.047-0.007-0.070zM9.862 29.692c-2.043 0-3.238-1.543-3.238-3.504 0-2.064 1.318-3.606 3.351-3.606 2.114 0 3.269 1.584 3.269 3.484 0 2.258-1.369 3.627-3.382 3.627zM19.211 28.762c-0.725 0.603-1.828 0.889-3.177 0.889-0.807 0-1.379-0.051-1.767-0.102v-6.763c0.572-0.092 1.318-0.143 2.105-0.143 1.307 0 2.156 0.235 2.819 0.735 0.715 0.532 1.165 1.379 1.165 2.596 0 1.318-0.48 2.227-1.145 2.789zM23.064 29.682c-0.787 0-1.563-0.205-1.951-0.419l0.317-1.288c0.419 0.215 1.063 0.429 1.727 0.429 0.716 0 1.093-0.296 1.093-0.746 0-0.429-0.327-0.674-1.154-0.97-1.144-0.398-1.89-1.032-1.89-2.033 0-1.175 0.981-2.074 2.605-2.074 0.776 0 1.348 0.163 1.757 0.348l-0.348 1.256c-0.276-0.133-0.766-0.326-1.441-0.326s-1.001 0.307-1.001 0.664c0 0.439 0.388 0.633 1.277 0.97 1.216 0.449 1.788 1.083 1.788 2.054-0.001 1.154-0.89 2.135-2.78 2.135zM26.482 20.944h-20.807v-20.15h14.607v6.452c0 0.349 0.283 0.631 0.631 0.631h5.57v13.068zM8.74 8.567v9.984h14.677v-9.984h-14.677zM22.521 17.653h-4.96v-1.024h4.96v1.024zM17.305 17.653h-2.399v-1.024h2.399v1.024zM14.649 17.653h-2.24v-1.024h2.24v1.024zM12.153 17.653h-2.517v-1.024h2.517v1.024zM17.561 11.348h4.96v1.152h-4.96v-1.152zM17.561 12.757h4.96v1.045h-4.96v-1.045zM17.561 14.058h4.96v1.151h-4.96v-1.151zM22.521 15.466v0.906h-4.96v-0.906h4.96zM14.905 9.591h2.4v1.502h-2.4v-1.502zM14.905 11.348h2.4v1.152h-2.4v-1.152zM14.905 12.757h2.4v1.045h-2.4v-1.045zM14.905 14.058h2.4v1.151h-2.4v-1.151zM17.305 15.466v0.906h-2.399v-0.906h2.399zM12.409 11.348h2.24v1.152h-2.24v-1.152zM12.409 12.757h2.24v1.045h-2.24v-1.045zM12.409 14.058h2.24v1.151h-2.24v-1.151zM14.649 15.466v0.906h-2.24v-0.906h2.24zM9.636 9.591h2.517v1.502h-2.517v-1.502zM9.636 11.348h2.517v1.152h-2.517v-1.152zM9.636 12.757h2.517v1.045h-2.517v-1.045zM9.636 14.058h2.517v1.151h-2.517v-1.151zM12.153 15.466v0.906h-2.517v-0.906h2.517z"></path>
</svg>
