<!-- Generated by IcoMoon.io -->
<svg version="1.1" xmlns="http://www.w3.org/2000/svg" width="32" height="32" viewBox="0 0 32 32">
<title>odt-file-format</title>
<path d="M16.381 23.751c-0.361 0-0.594 0.032-0.732 0.063v4.676c0.138 0.032 0.361 0.032 0.562 0.032 1.464 0.010 2.417-0.796 2.417-2.502 0.011-1.485-0.859-2.269-2.247-2.269zM9.53 23.729c-1.092 0-1.728 1.040-1.728 2.429 0 1.4 0.657 2.385 1.739 2.385 1.092 0 1.717-1.039 1.717-2.428 0-1.283-0.615-2.386-1.728-2.386zM27.737 7.239c-0.002-0.148-0.049-0.293-0.15-0.408l-6.2-7.082c-0.001-0.002-0.004-0.003-0.005-0.004-0.037-0.041-0.079-0.076-0.125-0.105-0.013-0.009-0.028-0.017-0.042-0.025-0.039-0.021-0.081-0.039-0.124-0.052-0.011-0.003-0.022-0.008-0.034-0.011-0.047-0.011-0.095-0.018-0.144-0.018h-15.238c-0.695 0-1.261 0.566-1.261 1.261v29.635c0 0.695 0.566 1.261 1.261 1.261h20.807c0.695 0 1.261-0.566 1.261-1.261v-23.119c0-0.023-0.004-0.047-0.006-0.070zM9.456 29.826c-2.121 0-3.361-1.6-3.361-3.637 0-2.142 1.368-3.743 3.478-3.743 2.195 0 3.393 1.644 3.393 3.616 0 2.343-1.421 3.763-3.509 3.763zM19.158 28.861c-0.752 0.626-1.898 0.923-3.297 0.923-0.837 0-1.431-0.053-1.834-0.107v-7.019c0.594-0.096 1.368-0.149 2.184-0.149 1.357 0 2.237 0.244 2.927 0.764 0.742 0.551 1.209 1.431 1.209 2.693-0 1.368-0.499 2.311-1.188 2.894zM26.062 23.92h-1.951v5.79h-1.622v-5.79h-1.919v-1.357h5.492v1.357zM26.467 20.944h-20.792v-20.15h14.607v6.452c0 0.349 0.282 0.631 0.631 0.631h5.569l-0.015 13.068zM8.228 5.261h8.91c0.348 0 0.63-0.282 0.63-0.631s-0.282-0.631-0.63-0.631h-8.91c-0.348 0-0.631 0.282-0.631 0.631s0.282 0.631 0.631 0.631zM8.228 9.412h8.91c0.348 0 0.63-0.283 0.63-0.631s-0.282-0.631-0.63-0.631h-8.91c-0.348 0-0.631 0.282-0.631 0.631s0.282 0.631 0.631 0.631zM7.598 12.929c0 0.348 0.282 0.631 0.631 0.631h14.576c0.348 0 0.631-0.282 0.631-0.631s-0.283-0.631-0.631-0.631h-14.576c-0.349 0-0.631 0.282-0.631 0.631zM22.804 16.452h-14.576c-0.348 0-0.631 0.282-0.631 0.631s0.282 0.631 0.631 0.631h14.576c0.348 0 0.631-0.283 0.631-0.631s-0.283-0.631-0.631-0.631z"></path>
</svg>
