<!-- Generated by IcoMoon.io -->
<svg version="1.1" xmlns="http://www.w3.org/2000/svg" width="32" height="32" viewBox="0 0 32 32">
<title>odt-file-format-symbol</title>
<path d="M16.357 23.818c-0.365 0-0.602 0.033-0.742 0.065v4.743c0.14 0.033 0.366 0.033 0.57 0.033 1.485 0.010 2.452-0.807 2.452-2.539 0.011-1.505-0.871-2.301-2.28-2.301zM9.408 23.796c-1.107 0-1.753 1.054-1.753 2.463 0 1.42 0.667 2.42 1.764 2.42 1.108 0 1.742-1.055 1.742-2.463 0-1.301-0.623-2.42-1.753-2.42zM27.737 7.239c-0.002-0.147-0.049-0.293-0.15-0.408l-6.2-7.082c-0.001-0.002-0.003-0.003-0.005-0.004-0.037-0.042-0.079-0.075-0.125-0.105-0.013-0.009-0.027-0.017-0.041-0.025-0.040-0.022-0.081-0.039-0.124-0.052-0.012-0.003-0.022-0.008-0.034-0.011-0.047-0.011-0.095-0.018-0.144-0.018h-15.238c-0.695 0-1.261 0.566-1.261 1.261v29.635c0 0.695 0.566 1.261 1.261 1.261h20.807c0.695 0 1.261-0.566 1.261-1.261v-23.119c-0-0.024-0.004-0.047-0.006-0.071zM9.333 29.98c-2.151 0-3.409-1.623-3.409-3.689 0-2.173 1.387-3.797 3.528-3.797 2.226 0 3.441 1.668 3.441 3.668-0 2.377-1.442 3.818-3.56 3.818zM19.175 29.002c-0.764 0.635-1.925 0.936-3.345 0.936-0.85 0-1.452-0.054-1.861-0.108v-7.12c0.602-0.097 1.387-0.151 2.215-0.151 1.377 0 2.27 0.247 2.969 0.774 0.753 0.559 1.226 1.452 1.226 2.732 0 1.387-0.505 2.345-1.204 2.936zM26.177 23.99h-1.978v5.873h-1.646v-5.873h-1.946v-1.376h5.571v1.376zM5.675 20.944v-20.15h14.607v6.452c0 0.348 0.282 0.631 0.631 0.631h5.569l0.001 13.068h-20.808zM13.715 11.389c0.072-0.105 0.155-0.202 0.235-0.301 0.078-0.101 0.167-0.191 0.249-0.289 0.081-0.099 0.176-0.183 0.264-0.275 0.087-0.094 0.184-0.175 0.278-0.26 0.092-0.089 0.191-0.166 0.293-0.243 0.1-0.077 0.196-0.163 0.305-0.226 0.106-0.067 0.212-0.14 0.322-0.204 0.113-0.055 0.227-0.114 0.339-0.176 0.112-0.065 0.234-0.098 0.353-0.149l0.181-0.072c0.061-0.021 0.125-0.032 0.187-0.051 0.125-0.033 0.25-0.073 0.379-0.103 0.129-0.018 0.26-0.035 0.392-0.058 0.134-0.029 0.267-0.031 0.402-0.033l0.412-0.022c-0.13-0.042-0.264-0.079-0.398-0.118s-0.271-0.074-0.412-0.084c-0.14-0.018-0.282-0.031-0.424-0.044-0.142-0.001-0.284 0.008-0.428 0.013-0.146-0-0.288 0.025-0.429 0.055-0.14 0.032-0.289 0.046-0.426 0.094-0.138 0.043-0.277 0.089-0.415 0.139-0.134 0.056-0.264 0.121-0.398 0.183-0.135 0.058-0.256 0.139-0.382 0.212-0.129 0.071-0.249 0.154-0.364 0.243-0.116 0.087-0.238 0.17-0.344 0.269-0.108 0.097-0.223 0.188-0.322 0.293-0.101 0.103-0.209 0.201-0.302 0.313-0.095 0.109-0.193 0.217-0.281 0.332-0.032 0.038-0.059 0.079-0.088 0.119l-0.134-0.152c-0.106-0.114-0.205-0.238-0.322-0.34l-0.354-0.302c-0.118-0.101-0.254-0.174-0.381-0.261l-0.193-0.125-0.204-0.103c-0.137-0.065-0.269-0.142-0.41-0.196l-0.424-0.156c-0.142-0.046-0.286-0.083-0.429-0.124-0.142-0.043-0.288-0.071-0.433-0.097-0.145-0.030-0.29-0.051-0.436-0.066-0.145-0.018-0.29-0.037-0.436-0.044-0.292-0.015-0.583-0.021-0.872-0.002-0.289 0.017-0.576 0.048-0.858 0.112 0.284 0.043 0.563 0.092 0.839 0.153 0.275 0.058 0.548 0.12 0.814 0.2 0.134 0.032 0.266 0.074 0.397 0.116 0.132 0.039 0.262 0.083 0.388 0.135 0.126 0.052 0.257 0.087 0.379 0.146 0.125 0.055 0.249 0.105 0.37 0.162l0.354 0.187c0.119 0.058 0.225 0.137 0.339 0.203s0.22 0.141 0.322 0.222c0.1 0.082 0.213 0.149 0.303 0.24l0.282 0.261c0.093 0.087 0.164 0.194 0.249 0.287l0.125 0.143c0.038 0.050 0.069 0.106 0.104 0.158l0.209 0.317 0.446 0.68 0.381-0.688c0.050-0.090 0.122-0.205 0.19-0.307 0.071-0.104 0.143-0.208 0.22-0.31zM23.955 12.74c-0.14-0.019-0.282-0.031-0.424-0.044-0.142-0.001-0.285 0.008-0.429 0.013-0.146-0-0.288 0.026-0.429 0.055-0.14 0.032-0.289 0.046-0.425 0.094-0.139 0.042-0.278 0.089-0.415 0.139-0.135 0.055-0.264 0.121-0.397 0.183-0.136 0.058-0.256 0.139-0.383 0.212-0.129 0.071-0.249 0.154-0.364 0.242-0.116 0.087-0.238 0.17-0.344 0.269-0.108 0.097-0.224 0.188-0.323 0.293-0.101 0.103-0.209 0.201-0.301 0.313-0.095 0.109-0.193 0.217-0.281 0.332-0.031 0.038-0.059 0.079-0.088 0.119l-0.134-0.152c-0.106-0.114-0.204-0.238-0.321-0.34l-0.354-0.302c-0.118-0.101-0.255-0.174-0.381-0.261l-0.193-0.125-0.204-0.103c-0.137-0.065-0.269-0.142-0.41-0.196l-0.423-0.157c-0.142-0.046-0.287-0.083-0.43-0.124-0.142-0.043-0.288-0.070-0.433-0.097-0.145-0.030-0.29-0.051-0.436-0.066-0.145-0.018-0.29-0.037-0.437-0.044-0.291-0.014-0.582-0.021-0.871-0.002-0.288 0.016-0.576 0.048-0.858 0.112 0.284 0.043 0.563 0.092 0.838 0.153 0.275 0.058 0.548 0.12 0.814 0.2 0.134 0.032 0.266 0.074 0.397 0.116 0.132 0.039 0.261 0.083 0.388 0.135 0.126 0.052 0.257 0.087 0.379 0.146 0.124 0.055 0.249 0.105 0.37 0.162l0.354 0.187c0.119 0.058 0.225 0.137 0.338 0.203s0.22 0.141 0.322 0.222c0.1 0.081 0.213 0.148 0.303 0.239l0.282 0.261c0.093 0.087 0.164 0.193 0.249 0.287l0.125 0.143c0.038 0.050 0.069 0.106 0.104 0.158l0.209 0.317 0.446 0.68 0.381-0.688c0.050-0.090 0.122-0.205 0.189-0.307 0.071-0.105 0.143-0.208 0.22-0.311 0.072-0.105 0.154-0.202 0.235-0.301 0.078-0.101 0.167-0.191 0.249-0.289 0.081-0.099 0.177-0.183 0.265-0.275 0.087-0.094 0.183-0.175 0.278-0.26 0.092-0.089 0.191-0.166 0.293-0.243 0.1-0.077 0.196-0.163 0.305-0.226 0.107-0.067 0.212-0.14 0.321-0.204 0.113-0.055 0.227-0.114 0.339-0.176 0.111-0.065 0.235-0.098 0.353-0.149l0.18-0.072c0.061-0.021 0.124-0.032 0.187-0.051 0.124-0.033 0.251-0.073 0.379-0.103 0.129-0.018 0.26-0.035 0.392-0.058 0.133-0.029 0.266-0.032 0.401-0.033l0.412-0.021c-0.13-0.043-0.264-0.079-0.399-0.118-0.134-0.038-0.271-0.074-0.412-0.084z"></path>
</svg>
