<!-- Generated by IcoMoon.io -->
<svg version="1.1" xmlns="http://www.w3.org/2000/svg" width="32" height="32" viewBox="0 0 32 32">
<title>odx-file-format-extension</title>
<path d="M15.911 23.713c-0.339 0-0.559 0.030-0.689 0.060v4.401c0.13 0.030 0.339 0.030 0.529 0.030 1.377 0.010 2.276-0.749 2.276-2.355 0.010-1.397-0.808-2.136-2.116-2.136zM27.736 7.239c-0.001-0.147-0.048-0.293-0.15-0.408l-6.2-7.082c-0.002-0.002-0.004-0.003-0.005-0.004-0.037-0.041-0.080-0.075-0.126-0.105-0.013-0.008-0.027-0.017-0.041-0.025-0.039-0.021-0.081-0.039-0.124-0.052-0.012-0.004-0.022-0.008-0.034-0.012-0.047-0.011-0.095-0.018-0.145-0.018h-15.237c-0.696 0-1.261 0.566-1.261 1.261v29.635c0 0.695 0.565 1.261 1.261 1.261h20.807c0.695 0 1.261-0.566 1.261-1.261v-23.119c0-0.024-0.004-0.047-0.007-0.071zM9.393 29.431c-1.996 0-3.164-1.506-3.164-3.423 0-2.016 1.287-3.524 3.273-3.524 2.066 0 3.193 1.547 3.193 3.404-0 2.205-1.337 3.542-3.303 3.542zM18.525 28.523c-0.709 0.589-1.786 0.868-3.104 0.868-0.788 0-1.347-0.049-1.727-0.1v-6.606c0.559-0.090 1.287-0.14 2.056-0.14 1.278 0 2.106 0.23 2.755 0.718 0.698 0.519 1.137 1.347 1.137 2.535 0.001 1.287-0.468 2.175-1.117 2.724zM23.855 29.322l-0.608-1.218c-0.249-0.469-0.409-0.818-0.599-1.208h-0.020c-0.14 0.389-0.31 0.739-0.519 1.208l-0.559 1.218h-1.736l1.947-3.403-1.876-3.323h1.746l0.589 1.228c0.2 0.409 0.349 0.738 0.509 1.118h0.020c0.16-0.429 0.29-0.728 0.459-1.118l0.569-1.228h1.736l-1.896 3.284 1.996 3.443h-1.757zM5.675 20.945v-20.151h14.607v6.452c0 0.348 0.283 0.631 0.631 0.631h5.57v13.068l-20.807-0zM9.463 23.693c-1.028 0-1.627 0.979-1.627 2.286 0 1.317 0.619 2.244 1.637 2.244 1.028 0 1.617-0.978 1.617-2.284 0-1.208-0.579-2.246-1.627-2.246zM17.624 11.218h0.451l-1.66 0.77c-0.276-0.459-0.773-0.77-1.348-0.77-0.147 0-0.288 0.027-0.422 0.065l-1.14-2.405h0.748v-1.629h-3.626v1.629h2.529l1.194 2.52c-0.508 0.262-0.86 0.786-0.86 1.397 0 0.399 0.153 0.758 0.397 1.036l-1.773 1.906h-2.578v1.629h3.626v-1.629h-0.617l1.573-1.691c0.265 0.201 0.591 0.324 0.949 0.324 0.871 0 1.576-0.706 1.576-1.576 0-0.184-0.038-0.357-0.095-0.52l2.276-1.056h2.425v-1.629h-3.625v1.629h0.001z"></path>
</svg>
