<!-- Generated by IcoMoon.io -->
<svg version="1.1" xmlns="http://www.w3.org/2000/svg" width="32" height="32" viewBox="0 0 32 32">
<title>ogg-file-format-symbol</title>
<path d="M9.134 24.009c-1.041 0-1.647 0.991-1.647 2.315 0 1.334 0.626 2.274 1.657 2.274 1.041 0 1.637-0.991 1.637-2.314 0-1.223-0.586-2.275-1.647-2.275zM27.736 7.239c-0.001-0.148-0.048-0.293-0.15-0.408l-6.2-7.082c-0.002-0.002-0.004-0.003-0.005-0.004-0.037-0.041-0.080-0.076-0.126-0.105-0.013-0.009-0.027-0.017-0.041-0.025-0.039-0.021-0.081-0.039-0.124-0.052-0.012-0.003-0.022-0.008-0.034-0.011-0.047-0.011-0.095-0.018-0.145-0.018h-15.237c-0.696 0-1.261 0.566-1.261 1.261v29.635c0 0.695 0.565 1.261 1.261 1.261h20.807c0.695 0 1.261-0.566 1.261-1.261v-23.119c-0-0.024-0.004-0.047-0.007-0.070zM9.063 29.821c-2.021 0-3.204-1.526-3.204-3.466 0-2.042 1.304-3.568 3.315-3.568 2.092 0 3.234 1.567 3.234 3.446-0 2.233-1.354 3.588-3.345 3.588zM19.11 29.396c-0.475 0.162-1.375 0.384-2.275 0.384-1.243 0-2.142-0.313-2.769-0.92-0.626-0.586-0.97-1.476-0.96-2.476 0.010-2.264 1.658-3.557 3.891-3.557 0.879 0 1.557 0.172 1.89 0.334l-0.323 1.233c-0.374-0.162-0.839-0.293-1.587-0.293-1.283 0-2.253 0.728-2.253 2.203 0 1.405 0.879 2.233 2.143 2.233 0.353 0 0.637-0.040 0.758-0.101v-1.425h-1.051v-1.203h2.537v3.588zM26.003 29.396c-0.475 0.162-1.374 0.384-2.274 0.384-1.243 0-2.142-0.313-2.769-0.92-0.627-0.586-0.97-1.476-0.96-2.476 0.010-2.264 1.658-3.557 3.891-3.557 0.879 0 1.557 0.172 1.89 0.334l-0.324 1.233c-0.374-0.162-0.839-0.293-1.587-0.293-1.283 0-2.254 0.728-2.254 2.203 0 1.405 0.879 2.233 2.143 2.233 0.353 0 0.637-0.040 0.758-0.101v-1.425h-1.051v-1.203h2.536v3.588zM5.675 20.944v-20.15h14.607v6.452c0 0.348 0.283 0.631 0.631 0.631h5.57v13.068h-20.807zM13.22 15.661c-0.311-0.109-0.682-0.128-1.060-0.034-0.842 0.211-1.393 0.904-1.232 1.55 0.094 0.598 0.975 0.998 1.816 0.787 0.74-0.184 1.255-0.744 1.259-1.315h0.001l0.020-6.030 4.35-0.795v4.848c-0.316-0.112-0.695-0.131-1.079-0.036-0.851 0.213-1.408 0.913-1.244 1.567 0.163 0.652 0.984 1.008 1.835 0.797 0.775-0.196 1.272-0.728 1.272-1.394v-8.047l-5.937 0.963v7.138h-0z"></path>
</svg>
