<!-- Generated by IcoMoon.io -->
<svg version="1.1" xmlns="http://www.w3.org/2000/svg" width="40" height="32" viewBox="0 0 40 32">
<title>oil-can</title>
<path d="M39.555 9.601l-13.428 4-3.171-1.585c-0.524-0.267-1.142-0.424-1.797-0.425h-3.573v-3.015h3.517c0.555 0 1.005-0.45 1.005-1.005v-1.005c0-0.555-0.45-1.005-1.005-1.005h-10.049c-0.555 0-1.005 0.45-1.005 1.005v1.005c0 0.555 0.45 1.005 1.005 1.005h3.517v3.015h-3.517l-8.685-1.579c-0.109-0.021-0.235-0.033-0.364-0.033v0c-1.084 0-2.005 0.881-2.005 2.010v5.963c0 0.971 0.695 1.804 1.651 1.977l4.379 0.797v2.923c0 1.11 0.9 2.010 2.010 2.010h17.248c0.537 0 1.052-0.215 1.43-0.597l13.331-13.488c0.094-0.094 0.147-0.222 0.147-0.355v-1.135c0.001-0.333-0.319-0.575-0.64-0.483zM6.029 17.663l-3.015-0.548v-3.921l3.015 0.548v3.921zM34.501 22.98c0 1.48 1.2 2.68 2.68 2.68s2.68-1.2 2.68-2.68-2.68-5.359-2.68-5.359-2.68 3.88-2.68 5.359z"></path>
</svg>
