<!-- Generated by IcoMoon.io -->
<svg version="1.1" xmlns="http://www.w3.org/2000/svg" width="31" height="32" viewBox="0 0 31 32">
<title>old-republic</title>
<path d="M14.807 0.175c0.471-0.020 0.942-0.018 1.413-0.006 0.227 0.009 0.452 0.025 0.678 0.046 0.309 0.017 0.615 0.065 0.921 0.102 0.184 0.027 0.366 0.062 0.55 0.092 0.496 0.084 0.984 0.206 1.469 0.339 0.769 0.218 1.519 0.497 2.246 0.83 1.668 0.769 3.199 1.835 4.499 3.133 1.258 1.262 2.306 2.735 3.071 4.346 0.071 0.163 0.153 0.32 0.218 0.486 0.177 0.404 0.339 0.815 0.476 1.233 0.26 0.774 0.461 1.57 0.592 2.376 0.036 0.197 0.065 0.396 0.088 0.595 0.035 0.241 0.059 0.483 0.074 0.726 0.052 0.524 0.053 1.051 0.048 1.576-0.004 0.312-0.016 0.624-0.047 0.935-0.015 0.212-0.032 0.425-0.062 0.636-0.025 0.171-0.040 0.343-0.070 0.513-0.057 0.323-0.107 0.648-0.18 0.968-0.258 1.162-0.647 2.296-1.163 3.368-0.99 2.062-2.439 3.905-4.216 5.346-1.032 0.849-2.209 1.582-3.476 2.15l-0.098 0.039c-0.39 0.168-0.782 0.33-1.185 0.465-0.22 0.073-0.44 0.15-0.664 0.213-0.416 0.118-0.835 0.229-1.259 0.314-0.293 0.057-0.587 0.109-0.881 0.156-0.33 0.041-0.66 0.090-0.992 0.109-0.42 0.041-0.842 0.053-1.264 0.051-0.428 0.002-0.857-0.008-1.284-0.050-0.207-0.014-0.413-0.031-0.617-0.060-0.171-0.025-0.343-0.040-0.513-0.070-0.259-0.045-0.518-0.086-0.776-0.139-0.267-0.059-0.533-0.119-0.797-0.19-0.542-0.136-1.073-0.315-1.596-0.511-0.659-0.259-1.306-0.55-1.924-0.895-0.134-0.072-0.269-0.144-0.399-0.224-0.705-0.413-1.373-0.886-2.005-1.403-2.178-1.784-3.857-4.172-4.795-6.827-0.194-0.549-0.359-1.109-0.49-1.676-0.093-0.387-0.158-0.78-0.225-1.172-0.025-0.148-0.038-0.297-0.060-0.445-0.038-0.249-0.047-0.5-0.073-0.75-0.050-0.595-0.045-1.193-0.032-1.789 0.009-0.22 0.021-0.44 0.044-0.66 0.020-0.199 0.029-0.4 0.058-0.598 0.026-0.177 0.041-0.355 0.073-0.53 0.044-0.248 0.082-0.496 0.133-0.742 0.215-1.037 0.532-2.056 0.958-3.026 0.072-0.183 0.163-0.359 0.242-0.54 0.506-1.050 1.124-2.045 1.852-2.956 1.256-1.594 2.833-2.932 4.602-3.923 0.471-0.261 0.952-0.506 1.449-0.714 0.994-0.432 2.036-0.75 3.097-0.966 0.22-0.042 0.442-0.078 0.663-0.116 0.165-0.030 0.332-0.044 0.497-0.068 0.222-0.033 0.446-0.043 0.669-0.065 0.155-0.015 0.308-0.023 0.462-0.032zM15.35 1.709c-0.58 0.006-1.158 0.062-1.732 0.14-0.458 0.068-0.913 0.163-1.364 0.27-0.874 0.22-1.726 0.524-2.541 0.906-0.657 0.313-1.293 0.672-1.895 1.082-0.263 0.183-0.527 0.364-0.775 0.567-0.319 0.249-0.627 0.513-0.922 0.791-0.158 0.141-0.302 0.295-0.453 0.443-1.772 1.808-3.042 4.107-3.611 6.575-0.128 0.53-0.222 1.069-0.279 1.611-0.069 0.558-0.090 1.121-0.089 1.683 0.007 0.448 0.024 0.897 0.077 1.342 0.039 0.447 0.117 0.889 0.201 1.33 0.067 0.292 0.127 0.585 0.209 0.874 0.395 1.468 1.036 2.87 1.889 4.13 0.543 0.815 1.18 1.566 1.883 2.247 1.022 0.994 2.201 1.824 3.476 2.463 0.457 0.221 0.921 0.431 1.399 0.605 0.317 0.11 0.632 0.224 0.956 0.313 0.707 0.203 1.43 0.352 2.16 0.443 0.183 0.018 0.365 0.038 0.548 0.057 0.868 0.068 1.742 0.063 2.609-0.027 0.28-0.038 0.56-0.062 0.838-0.112 0.228-0.042 0.457-0.078 0.683-0.132 0.259-0.062 0.52-0.12 0.776-0.193 1.664-0.461 3.24-1.238 4.621-2.274 0.991-0.742 1.882-1.618 2.645-2.593 0.205-0.253 0.387-0.522 0.573-0.788 0.213-0.318 0.413-0.644 0.603-0.976 0.151-0.279 0.298-0.56 0.437-0.845 0.357-0.757 0.646-1.546 0.864-2.355 0.163-0.629 0.298-1.266 0.371-1.913 0.111-0.846 0.122-1.702 0.081-2.553-0.018-0.244-0.042-0.488-0.063-0.732-0.14-1.198-0.426-2.381-0.868-3.505-0.374-0.95-0.85-1.861-1.42-2.709-0.797-1.181-1.774-2.241-2.887-3.13-1.573-1.256-3.421-2.17-5.379-2.643-0.489-0.121-0.985-0.21-1.484-0.28-0.246-0.037-0.493-0.052-0.739-0.078-0.464-0.036-0.93-0.045-1.396-0.036zM8.746 4.779c0.835-0.558 1.764-0.966 2.72-1.267-0.199 0.111-0.405 0.212-0.599 0.332-0.704 0.42-1.352 0.936-1.908 1.538-0.427 0.467-0.801 0.988-1.068 1.563-0.207 0.431-0.354 0.891-0.431 1.364-0.058 0.305-0.082 0.616-0.073 0.926 0.008 0.858 0.279 1.701 0.709 2.438 0.372 0.642 0.856 1.214 1.404 1.712 0.305 0.274 0.643 0.508 0.939 0.791 0.142 0.137 0.282 0.278 0.404 0.434 0.165 0.208 0.307 0.439 0.376 0.697 0.057 0.19 0.041 0.389 0.043 0.585 0.001 0.258-0.002 0.515 0.002 0.773 0.009 0.222-0.001 0.445 0.007 0.668 0.005 0.15 0.001 0.299 0.003 0.448 0.010 0.362 0.004 0.724 0.009 1.087 0.007 0.183 0.001 0.365 0.008 0.549 0.002 0.102 0.008 0.206-0.002 0.308-0.057 0.008-0.114 0.011-0.171 0.010-0.69 0-1.374-0.165-2.007-0.435-0.377-0.17-0.742-0.37-1.073-0.617-0.361-0.263-0.697-0.563-0.992-0.899-0.41-0.455-0.752-0.967-1.044-1.504-0.067-0.128-0.141-0.253-0.2-0.384-0.073-0.166-0.165-0.323-0.23-0.491-0.254-0.608-0.413-1.252-0.508-1.904-0.031-0.279-0.068-0.558-0.075-0.838-0.044-0.988 0.053-1.982 0.293-2.941 0.133-0.512 0.3-1.016 0.522-1.497 0.397-0.892 0.963-1.707 1.652-2.399 0.394-0.389 0.825-0.744 1.289-1.047zM19.761 3.516c0.172 0.046 0.34 0.109 0.508 0.168 0.399 0.146 0.796 0.304 1.175 0.5 0.823 0.405 1.59 0.93 2.25 1.568 0.641 0.625 1.177 1.357 1.579 2.157 0.080 0.173 0.166 0.343 0.239 0.519 0.396 0.948 0.628 1.963 0.705 2.988 0.026 0.285 0.028 0.571 0.028 0.857 0.004 0.731-0.094 1.46-0.27 2.169-0.124 0.457-0.273 0.91-0.494 1.33-0.2 0.417-0.42 0.827-0.681 1.208-0.436 0.658-0.98 1.248-1.622 1.71-0.658 0.48-1.422 0.818-2.223 0.966-0.22 0.043-0.445 0.068-0.67 0.076-0.116 0.004-0.234 0.010-0.349-0.006-0.018-0.135 0-0.271-0.001-0.406-0.002-0.234 0.009-0.468 0.006-0.702 0.012-0.441 0.001-0.882 0.013-1.323 0.002-0.15-0.002-0.299 0.002-0.448 0.011-0.318-0.003-0.637 0.009-0.955 0.006-0.188-0.015-0.379 0.032-0.563 0.041-0.157 0.112-0.305 0.194-0.445 0.28-0.459 0.695-0.814 1.11-1.147 0.338-0.262 0.658-0.551 0.943-0.869 0.482-0.526 0.89-1.123 1.18-1.775 0.157-0.373 0.284-0.76 0.349-1.159 0.054-0.275 0.067-0.555 0.063-0.833-0.001-0.493-0.088-0.983-0.229-1.455-0.11-0.36-0.268-0.702-0.445-1.033-0.243-0.435-0.543-0.836-0.877-1.206-0.624-0.681-1.366-1.252-2.173-1.702-0.116-0.064-0.241-0.114-0.354-0.187zM13.43 7.187c0.062-0.074 0.125-0.146 0.196-0.212-0.038 0.058-0.080 0.114-0.123 0.168-0.195 0.244-0.348 0.522-0.442 0.82-0.055 0.205-0.105 0.415-0.109 0.628-0.004 0.158-0.005 0.318 0.020 0.475 0.071 0.479 0.272 0.933 0.551 1.326 0.126 0.17 0.267 0.331 0.435 0.46 0.102 0.080 0.222 0.131 0.335 0.192 0.195 0.105 0.397 0.203 0.57 0.344 0.168 0.131 0.286 0.335 0.276 0.552-0.001 4.627 0 9.254-0.001 13.881 0 0.085-0.005 0.17 0.002 0.254 0.008 0.093 0.052 0.178 0.092 0.261 0.054 0.104 0.112 0.21 0.2 0.29 0.053 0.048 0.124 0.088 0.198 0.078 0.094-0.012 0.167-0.085 0.217-0.161 0.060-0.095 0.105-0.198 0.143-0.305 0.048-0.134 0.028-0.278 0.034-0.416 0.009-0.253-0.001-0.506 0.009-0.759 0.002-0.37 0.002-0.739 0.004-1.109 0.009-0.227 0.002-0.455 0.007-0.682 0.009-0.253-0.001-0.506 0.009-0.759 0.002-0.376 0.002-0.752 0.004-1.129 0.009-0.227 0.001-0.455 0.007-0.682 0.009-0.247-0.001-0.494 0.009-0.74 0.002-0.376 0.002-0.752 0.004-1.129 0.010-0.247-0.001-0.495 0.012-0.742 0.018 0.090 0.008 0.183 0.014 0.275 0.012 0.227 0.026 0.454 0.048 0.681 0.020 0.216 0.028 0.433 0.054 0.648 0.023 0.195 0.032 0.391 0.060 0.585 0.036 0.257 0.055 0.516 0.097 0.772 0.092 0.568 0.178 1.137 0.32 1.695 0.071 0.303 0.151 0.604 0.251 0.898 0.16 0.496 0.359 0.984 0.648 1.421 0.109 0.166 0.243 0.313 0.383 0.453 0.017 0.016 0.035 0.032 0.055 0.045 0.038 0.016 0.082-0.004 0.107-0.036 0.045-0.055 0.073-0.122 0.107-0.184 0.254-0.49 0.514-0.977 0.775-1.464 0.044-0.082 0.090-0.165 0.161-0.227 0.11-0.099 0.241-0.169 0.376-0.228 0.181-0.077 0.371-0.137 0.567-0.152 0.413-0.039 0.823 0.047 1.228 0.116 0.232 0.036 0.465 0.073 0.699 0.089 0.235 0.006 0.47 0.003 0.704-0.018 0.537-0.058 1.067-0.186 1.566-0.392 0.333-0.141 0.657-0.303 0.962-0.498 0.72-0.453 1.348-1.041 1.887-1.696 0.073-0.089 0.141-0.182 0.217-0.269-0.075 0.203-0.168 0.4-0.261 0.595-0.078 0.182-0.178 0.352-0.268 0.529-0.324 0.605-0.692 1.188-1.115 1.728-0.253 0.327-0.536 0.631-0.837 0.915-0.417 0.38-0.884 0.714-1.409 0.927-0.516 0.212-1.087 0.291-1.639 0.207-0.224-0.036-0.44-0.106-0.654-0.181-0.175-0.061-0.339-0.15-0.504-0.232-0.215-0.107-0.417-0.239-0.61-0.382 0.17 0.192 0.357 0.368 0.546 0.541 0.268 0.236 0.549 0.459 0.856 0.642 0.25 0.154 0.521 0.276 0.806 0.346 0.092 0.023 0.186 0.029 0.28 0.038-0.078 0.069-0.165 0.128-0.251 0.187-0.604 0.411-1.257 0.745-1.927 1.032-1.31 0.546-2.711 0.877-4.129 0.963-0.293 0.015-0.585 0.023-0.878 0.023-0.313-0.007-0.626-0.008-0.937-0.041-0.703-0.048-1.4-0.171-2.083-0.341-0.65-0.17-1.291-0.384-1.903-0.663-0.547-0.242-1.075-0.529-1.57-0.866-0.115-0.082-0.235-0.159-0.337-0.256 0.415-0.075 0.818-0.213 1.193-0.407 0.36-0.18 0.69-0.418 0.982-0.695 0.141-0.137 0.269-0.288 0.389-0.445-0.215 0.134-0.435 0.261-0.667 0.363-0.277 0.136-0.57 0.237-0.867 0.315-0.36 0.095-0.737 0.109-1.106 0.072-0.511-0.060-0.996-0.268-1.414-0.564-0.271-0.185-0.516-0.404-0.751-0.632-0.624-0.638-1.143-1.37-1.612-2.127-0.247-0.394-0.473-0.801-0.698-1.207-0.066-0.128-0.135-0.254-0.2-0.383 0.179 0.183 0.35 0.375 0.529 0.558 0.565 0.563 1.166 1.095 1.831 1.538 0.474 0.308 0.984 0.58 1.542 0.693 0.195 0.046 0.397 0.030 0.595 0.051 0.174 0.018 0.349 0.012 0.524 0.019 0.317 0.004 0.635 0.003 0.952-0.010 0.229-0.010 0.457-0.041 0.684-0.068 0.13-0.016 0.258-0.045 0.386-0.075 0.244-0.060 0.509-0.060 0.743 0.038 0.299 0.116 0.53 0.354 0.715 0.61 0.136 0.19 0.255 0.391 0.355 0.602 0.073 0.153 0.155 0.301 0.223 0.456 0.063 0.141 0.135 0.278 0.215 0.41 0.042 0.064 0.088 0.135 0.165 0.16 0.067-0.047 0.107-0.12 0.143-0.19 0.132-0.261 0.215-0.543 0.307-0.82 0.127-0.414 0.237-0.833 0.326-1.257 0.139-0.581 0.204-1.176 0.285-1.767 0.035-0.25 0.052-0.502 0.082-0.752 0.055-0.668 0.119-1.336 0.141-2.006 0.005-0.117 0.015-0.233 0.016-0.35 0.001-0.273 0.016-0.546 0.014-0.818-0.001-0.15-0.001-0.299 0-0.448 0.003-0.318-0.012-0.637-0.014-0.955-0.012-0.415-0.045-0.829-0.081-1.242-0.046-0.369-0.097-0.74-0.196-1.1-0.129-0.487-0.351-0.944-0.615-1.37-0.198-0.318-0.426-0.62-0.697-0.881-0.244-0.242-0.539-0.445-0.875-0.531-0.094-0.026-0.192-0.028-0.288-0.040 0.004-0.188 0.044-0.373 0.079-0.556 0.1-0.484 0.239-0.961 0.425-1.419 0.095-0.253 0.214-0.496 0.339-0.736 0.217-0.412 0.479-0.803 0.783-1.159zM15.394 7.293c0.022-0.004 0.045-0.008 0.067-0.012 0.012 0.112 0.006 0.225 0.006 0.337v2.395c-0.001 0.109 0.008 0.219-0.009 0.328-0.023-0.002-0.045-0.003-0.067-0.003-0.060-0.235-0.108-0.474-0.165-0.71-0.024-0.096-0.036-0.194-0.067-0.288-0.107-0.015-0.215-0.011-0.323-0.012-0.318-0.001-0.636 0-0.954-0.001-0.104-0.001-0.209 0.006-0.313-0.002-0.002-0.025-0.016-0.057 0.010-0.074 0.080-0.041 0.171-0.055 0.255-0.085 0.215-0.072 0.432-0.136 0.648-0.208 0.087-0.030 0.182-0.045 0.261-0.097 0.002-0.035 0.001-0.071-0.003-0.105-0.077-0.035-0.159-0.055-0.239-0.080-0.197-0.065-0.395-0.123-0.591-0.19-0.112-0.039-0.23-0.063-0.34-0.112-0.002-0.023-0.004-0.046-0.007-0.068 0.32-0.012 0.641 0.004 0.961-0.008 0.211-0.008 0.423 0.005 0.634-0.004 0.008-0.025 0.016-0.048 0.023-0.073 0.068-0.31 0.146-0.617 0.213-0.926zM15.769 7.281c0.023 0.003 0.045 0.008 0.068 0.013 0.062 0.242 0.109 0.487 0.17 0.729 0.023 0.089 0.035 0.181 0.065 0.268 0.159 0.011 0.318-0.001 0.478 0.003 0.324 0.008 0.649 0.008 0.973 0.004 0.048-0.001 0.095 0.002 0.143 0.005-0.003 0.023-0.004 0.045-0.006 0.068-0.114 0.052-0.237 0.078-0.356 0.119-0.234 0.077-0.47 0.15-0.705 0.224-0.036 0.011-0.070 0.026-0.105 0.040-0.009 0.035-0.011 0.070-0.008 0.106 0.055 0.030 0.114 0.051 0.174 0.068 0.307 0.095 0.611 0.197 0.919 0.289 0.024 0.008 0.049 0.017 0.071 0.031 0.025 0.017 0.014 0.050 0.009 0.074-0.104 0.008-0.208 0.002-0.312 0.002-0.325 0.001-0.649-0.001-0.973 0.001-0.101 0.002-0.202-0.001-0.303 0.013-0.033 0.105-0.045 0.215-0.073 0.321-0.059 0.224-0.095 0.455-0.16 0.677-0.023 0.001-0.045 0.001-0.067 0.004-0.018-0.109-0.009-0.219-0.009-0.328v-2.395c0.001-0.112-0.005-0.225 0.007-0.337zM4.086 10.105c0.070-0.135 0.131-0.276 0.212-0.406-0.114 0.475-0.183 0.959-0.227 1.445-0.050 0.484-0.053 0.973-0.034 1.459 0.066 1.252 0.348 2.502 0.894 3.635 0.188 0.376 0.399 0.743 0.66 1.075 0.384 0.469 0.787 0.927 1.246 1.325 0.301 0.258 0.627 0.489 0.976 0.678 0.205 0.104 0.409 0.213 0.624 0.294 0.315 0.128 0.64 0.227 0.968 0.31 0.241 0.060 0.489 0.089 0.724 0.17 0.314 0.099 0.595 0.29 0.818 0.529 0.31 0.328 0.508 0.745 0.641 1.173 0.062 0.182 0.1 0.371 0.136 0.56 0.009 0.047 0.014 0.095 0.010 0.144-0.408 0.175-0.833 0.318-1.272 0.388-0.258 0.049-0.521 0.062-0.783 0.068-0.644 0.015-1.286-0.11-1.892-0.322-0.235-0.089-0.47-0.179-0.693-0.296-0.506-0.241-0.982-0.546-1.411-0.908-0.183-0.16-0.366-0.322-0.527-0.504-0.575-0.617-1.024-1.345-1.369-2.113-0.15-0.349-0.29-0.702-0.4-1.065-0.073-0.247-0.148-0.495-0.205-0.748-0.047-0.185-0.077-0.374-0.118-0.56-0.029-0.134-0.043-0.271-0.065-0.407-0.053-0.341-0.080-0.686-0.084-1.032 0.007-0.388 0.016-0.777 0.067-1.162 0.025-0.18 0.042-0.36 0.072-0.54 0.062-0.358 0.134-0.714 0.233-1.063 0.194-0.732 0.47-1.441 0.797-2.125zM26.93 9.701c0.069 0.104 0.12 0.219 0.175 0.33 0.132 0.28 0.266 0.559 0.378 0.847 0.478 1.178 0.773 2.436 0.819 3.709 0.001 0.11 0.004 0.221 0.007 0.332 0.008 0.601-0.080 1.199-0.2 1.787-0.046 0.225-0.097 0.45-0.162 0.671-0.254 0.925-0.628 1.821-1.156 2.624-0.516 0.79-1.194 1.479-2 1.973-0.36 0.225-0.74 0.417-1.134 0.577-0.363 0.137-0.735 0.253-1.118 0.321-0.402 0.066-0.811 0.095-1.218 0.077-0.497-0.030-0.991-0.13-1.458-0.305-0.122-0.050-0.247-0.092-0.367-0.146-0.013-0.095 0.016-0.188 0.033-0.28 0.073-0.36 0.19-0.713 0.358-1.041 0.149-0.283 0.347-0.543 0.594-0.747 0.153-0.129 0.329-0.227 0.512-0.303 0.225-0.094 0.469-0.124 0.706-0.178 0.454-0.107 0.902-0.247 1.328-0.44 0.65-0.292 1.238-0.715 1.737-1.222 0.1-0.101 0.203-0.2 0.298-0.306 0.212-0.236 0.421-0.475 0.619-0.724 0.47-0.633 0.805-1.356 1.050-2.103 0.099-0.333 0.202-0.666 0.264-1.008 0.040-0.18 0.065-0.363 0.095-0.545 0.055-0.383 0.1-0.768 0.105-1.154 0.008-0.418 0.009-0.837-0.033-1.252-0.046-0.502-0.117-1.002-0.233-1.494z"></path>
</svg>
