<!-- Generated by IcoMoon.io -->
<svg version="1.1" xmlns="http://www.w3.org/2000/svg" width="32" height="32" viewBox="0 0 32 32">
<title>om</title>
<path d="M22.648 3.36c0.119 0.119 0.282 0.192 0.463 0.192s0.345-0.073 0.463-0.192v0l1.355-1.354c0.119-0.119 0.192-0.282 0.192-0.463s-0.073-0.345-0.192-0.463l-1.355-1.354c-0.256-0.256-0.671-0.256-0.927 0l-1.355 1.354c-0.119 0.119-0.192 0.282-0.192 0.463s0.073 0.345 0.192 0.463l1.355 1.354zM25.883 11.592c-1.676 0-3.251 0.652-4.437 1.837l-1.523 1.523c-0.426 0.425-0.991 0.66-1.594 0.66h-2.942c0.662-1.388 0.89-3.022 0.485-4.725-0.634-2.672-2.912-4.78-5.622-5.225-2.27-0.372-4.453 0.317-6.030 1.808-0.462 0.437-0.438 1.184 0.070 1.566l1.642 1.233c0.359 0.27 0.858 0.271 1.206-0.013 0.531-0.433 1.195-0.673 1.901-0.673 1.662 0 3.015 1.352 3.015 3.015s-1.353 3.015-3.015 3.015h-2.003c-0.751 0-1.24 0.79-0.904 1.462l1.011 2.020c0.159 0.318 0.477 0.509 0.827 0.537h2.075c2.217 0 4.020 1.802 4.020 4.020s-1.803 4.020-4.020 4.020c-6.031 0-7.684-3.393-9.116-5.78-0.285-0.474-0.928-0.225-0.929 0.328-0.006 3.442 2.583 9.472 10.045 9.472 4.433 0 8.040-3.606 8.040-8.039 0-1.471-0.426-2.833-1.119-4.020h1.362c1.676 0 3.251-0.652 4.437-1.837l1.523-1.523c0.426-0.425 0.991-0.66 1.594-0.66 1.242 0 2.253 1.011 2.253 2.253v6.288c0 0.831-1.179 1.507-2.010 1.507-2.475 0-4.187-1.522-5.139-2.694-0.3-0.369-0.892-0.16-0.892 0.315v2.378s0 4.020 6.031 4.020c3.049 0 6.031-2.479 6.031-5.527v-6.288c0-3.459-2.814-6.273-6.274-6.273zM28.532 3.758c-5.373 4.090-10.617 0.173-10.839 0.003-0.378-0.29-0.907-0.275-1.265 0.035-0.36 0.309-0.457 0.827-0.23 1.244 0.101 0.185 2.535 4.543 7.461 4.543 5.019 0 6.204-1.97 6.391-2.365 0.064-0.133 0.096-0.281 0.096-0.429v-2.231c0-0.83-0.951-1.299-1.614-0.8z"></path>
</svg>
