<!-- Generated by IcoMoon.io -->
<svg version="1.1" xmlns="http://www.w3.org/2000/svg" width="40" height="32" viewBox="0 0 40 32">
<title>opencart</title>
<path d="M26.586 27.212c0 1.589-1.275 2.864-2.864 2.864s-2.877-1.275-2.877-2.864 1.294-2.877 2.877-2.877c1.595 0 2.864 1.288 2.864 2.877zM10.639 24.335c-1.589 0-2.864 1.294-2.864 2.877s1.275 2.864 2.864 2.864 2.877-1.275 2.877-2.864-1.287-2.877-2.877-2.877zM28.96 7.377c-18.98 0-23.816-0.804-28.96-6.23 2.16 3.247 3.348 9.352 23.433 9.057 20.933-0.314 8.165 5.408 4.447 11.864 11.726-10.47 20.060-14.69 1.080-14.69z"></path>
</svg>
