<!-- Generated by IcoMoon.io -->
<svg version="1.1" xmlns="http://www.w3.org/2000/svg" width="31" height="32" viewBox="0 0 31 32">
<title>opera</title>
<path d="M19.715 1.587c-10.69 0-15.865 14.056-9.264 22.302 2.292 2.851 5.565 4.748 9.264 4.748 2.28 0 4.415-0.697 6.243-1.909-2.751 2.462-6.4 3.957-10.382 3.957-0.245 0-0.502 0-0.747-0.019-8.259-0.383-14.829-7.198-14.829-15.557 0-8.604 6.971-15.576 15.576-15.576h0.050c3.963 0.019 7.581 1.514 10.325 3.963-1.821-1.218-3.963-1.909-6.237-1.909zM26.108 26.565c-2.569 1.551-5.697 1.482-8.29-0.364 3.53-1.288 6.136-5.753 6.136-11.092 0-5.32-2.588-9.785-6.117-11.092 2.625-1.834 5.728-1.903 8.347-0.314 6.651 6.199 6.626 16.688-0.075 22.861z"></path>
</svg>
