<!-- Generated by IcoMoon.io -->
<svg version="1.1" xmlns="http://www.w3.org/2000/svg" width="36" height="32" viewBox="0 0 36 32">
<title>optin-monster</title>
<path d="M34.586 27.815c0 0.73-0.984 1.222-2.020 0.933-0.764-0.204-1.969-1.103-2.274-1.714-0.356-0.73 0.255-2.054 1.188-1.935 0.984 0.102 3.106 1.595 3.106 2.716zM23.418 4.257c-0.238-4.532-6.331-5.007-7.909-1.477 2.8-1.528 5.669-0.984 7.909 1.477zM4.698 25.099c-0.984 0.102-3.106 1.595-3.106 2.716 0 0.73 0.984 1.222 2.020 0.933 0.764-0.204 1.952-1.103 2.257-1.714 0.373-0.73-0.237-2.054-1.171-1.935zM35.96 25.999c0.068 0.221 0.119 0.441 0.119 0.679 0.051 1.986-2.783 4.022-4.616 4.090-1.086 0.051-2.172-0.526-2.682-1.477-7.128 0.255-14.257 0.306-21.368 0-0.526 0.951-1.612 1.51-2.699 1.477-1.816-0.068-4.65-2.105-4.616-4.090 0.017-0.238 0.051-0.458 0.119-0.679-0.35-0.594-0.304-0.96 0.34-0.73 0.204-0.322 0.441-0.594 0.696-0.866-0.161-0.686 0.080-0.885 0.696-0.577 0.289-0.204 0.628-0.407 1.001-0.577 0-0.99 0.744-0.699 1.086-0.356 0.783-0.112 1.264 0.044 1.68 0.356v-1.239c-0.816 0-2.553-0.714-2.885-2.274-0.312-1.302 0.164-2.391 1.578-2.987 0.051-0.373 0.509-0.883 0.933-1.001 0.475-0.119 0.781 0.289 0.883 0.645 0.466 0 1.115 0.092 1.324 0.509 0.34-0.034 0.696-0.085 1.035-0.119-0.153-0.119-0.322-0.221-0.509-0.289-0.322-0.56-0.866-0.696-1.544-0.73 0-0.051 0-0.102 0.017-0.17-1.239-0.034-2.766-0.356-3.445-1.12-1.339-1.485-1.001-5.249 0.764-6.5 0.526-0.356 1.358-0.051 1.426 0.611 0.152 1.294 0.025 1.685 1.646 1.629 0.509-0.492 1.052-0.917 1.663-1.256-0.933-0.085-1.816 0.102-2.75 0.238 0.801-0.784 1.504-1.598 3.564-2.665 1.477-0.747 3.14-1.307 4.786-1.46-1.171-0.492-2.512-0.747-3.751-1.035 4.803-1.018 10.964-1.392 15.343 2.359 1.137 0.967 2.037 2.274 2.682 3.768 2.5 0.305 2.291-0.351 2.427-1.578 0.068-0.645 0.899-0.967 1.426-0.594 0.933 0.662 1.392 1.935 1.544 3.021 0.136 1.12 0.017 2.597-0.781 3.462-0.679 0.764-2.155 1.103-3.377 1.137v0.17c-0.696 0.017-1.273 0.153-1.612 0.73-0.187 0.068-0.356 0.17-0.526 0.289 0.356 0.034 0.713 0.085 1.052 0.119 0.117-0.353 0.787-0.526 1.324-0.526 0.102-0.34 0.424-0.747 0.883-0.645s0.883 0.628 0.933 1.001c0.679 0.271 1.392 0.764 1.578 1.612 0.119 0.509 0.102 0.951 0.017 1.375-0.36 1.587-2.095 2.274-2.885 2.274 0 0.424 0 0.832-0.017 1.239 0.503-0.377 1.028-0.45 1.68-0.356 0.372-0.372 1.103-0.591 1.103 0.356 0.356 0.17 0.713 0.373 1.001 0.577 0.634-0.317 0.859-0.034 0.679 0.577 0.255 0.271 0.509 0.56 0.696 0.866 0.637-0.227 0.692 0.131 0.34 0.73zM31.327 10.045c1.086 0.424 1.646 1.392 1.901 2.24 0.068-0.662-0.17-2.478-0.866-3.208-0.458-0.458-0.883-0.322-0.883 0.051 0 0.39-0.085 0.73-0.153 0.917zM30.156 10.826c0.815 0.984 1.069 2.614 0.798 3.954 0.679-0.136 1.29-0.39 1.646-0.764 0.119-0.136 0.238-0.306 0.306-0.475-0.068-1.341-0.645-2.682-1.867-3.072-0.204 0.204-0.577 0.306-0.883 0.356zM28.781 10.877c0.475 1.29 0.781 2.682 0.899 4.056 0.221 0 0.475-0.017 0.73-0.051 0.373-1.528-0.017-3.242-0.883-3.988-0.238 0-0.509 0-0.747-0.017zM4.884 10.045c-0.068-0.187-0.153-0.526-0.153-0.917 0-0.373-0.441-0.509-0.883-0.051-0.713 0.73-0.933 2.546-0.866 3.208 0.255-0.849 0.815-1.816 1.901-2.24zM5.241 14.78c-0.271-1.341-0.017-2.97 0.798-3.954-0.306-0.051-0.679-0.153-0.883-0.356-1.222 0.39-1.782 1.731-1.867 3.072 0.085 0.17 0.187 0.339 0.306 0.475 0.356 0.39 0.967 0.628 1.646 0.764zM7.837 10.944c-0.322 0.068-0.628 0.187-0.933 0.306l-0.764 0.322v-0.017c-0.458 0.883-0.628 2.155-0.34 3.327 0.289 0.034 0.543 0.051 0.798 0.051 0.153-1.392 0.577-2.75 1.239-3.989zM13.37 9.485c0 2.648 2.155 4.786 4.786 4.786s4.786-2.139 4.786-4.786c0-2.631-2.155-4.769-4.786-4.769s-4.786 2.139-4.786 4.769zM22.943 15.595c0.626 3.178 0.207 4.063 1.035 3.649 1.001-0.509 1.426-2.461 1.443-3.581-0.815-0.051-1.646-0.051-2.478-0.068zM18.445 15.561v-0.017c-0.017 0.322 0.017 2.393 0.271 2.58 0.696 0.34 2.478 0.289 3.208 0.068 0.34-0.102 0.153-2.325 0.102-2.631-1.188-0.017-2.393-0.017-3.581 0zM17.562 15.561v-0.017c-1.222 0.017-2.427 0.017-3.632 0.051-0.119 0.577-0.289 3.072 0.119 3.242 0.815 0.356 2.614 0.322 3.428 0.102 0.289-0.153 0.153-2.851 0.085-3.377zM12.182 19.176c0.34 0.153 0.543 0.153 0.611-0.271 0.119-0.543 0.153-2.308 0.306-3.276-0.764 0.017-1.544 0.051-2.308 0.102-0.34 1.239 0.017 2.834 1.392 3.445zM8.058 18.48c2.75 2.953 5.821 5.38 9.793 6.687 4.243-1.205 7.264-3.768 10.251-6.721-0.697-0.271-0.485-0.651-0.458-0.73-0.56-0.051-1.12-0.119-1.663-0.17-0.594 2.071-2.257 3.327-2.936 1.986-0.17-0.322-0.221-0.73-0.289-1.052-0.238 0.526-0.832 0.509-1.544 0.56-0.832 0.068-1.986 0.085-2.766-0.187-0.187 0.815-0.696 0.815-1.68 0.899-0.883 0.085-3.055 0.255-3.445-0.679-0.068 1.799-2.206 0.628-2.834-0.441-0.204-0.356-0.34-0.713-0.441-1.103-0.492 0.051-0.984 0.102-1.477 0.17 0.153 0.23 0.097 0.569-0.509 0.781zM7.26 28.018c-0.356-1.46-1.171-3.123-2.105-3.394-1.409-0.424-4.328 1.477-4.158 3.428 0.798 1.222 2.512 2.24 3.717 2.291 1.12 0.051 2.257-0.696 2.495-1.816 0.034-0.153 0.051-0.322 0.051-0.509zM7.719 27.645c2.105-1.222 4.345-2.24 6.653-2.953-2.427-1.29-4.277-3.004-6.11-4.837-0.136 0.085-0.322 0.153-0.492 0.221-0.103 0.308 0.548 0.335 0.34 0.781-0.136 0.255-0.543 0.475-0.95 0.577-0.136 0.17-0.322 0.306-0.492 0.407h-0.017c-0.017 0.849-0.017 1.697 0.017 2.546 0.561 1.003 0.969 2.092 1.052 3.259zM27.865 28.443c-2.308-1.341-4.65-2.597-7.264-3.327-0.866 0.39-1.748 0.713-2.648 0.967-0.136 0.051-0.136 0.051-0.271 0-0.747-0.238-1.46-0.509-2.189-0.832-2.529 0.73-4.854 1.833-7.060 3.191h-0.017v0.017c0.017 0 0.017 0 0.017-0.017 6.483 0.255 12.967 0.221 19.433 0zM29.562 24.42l-0.017 0.017c0.034-0.866 0.051-1.731 0.051-2.597-0.187-0.102-0.356-0.255-0.509-0.424-0.407-0.085-0.815-0.322-0.951-0.56-0.119-0.255 0.085-0.475 0.373-0.645-0.017-0.034-0.034-0.102-0.034-0.153-0.187-0.051-0.34-0.119-0.475-0.204-1.986 1.85-4.107 3.564-6.5 4.82 2.444 0.73 4.769 1.765 7.026 2.987 0.066-0.923 0.454-2.245 1.035-3.242zM31.021 24.624c-0.917 0.271-1.748 1.935-2.105 3.394 0 1.496 1.336 2.38 2.546 2.325 1.205-0.051 2.919-1.069 3.717-2.291 0.187-1.952-2.732-3.853-4.158-3.428zM18.258 7.957c0.003 0 0.006 0 0.008 0s0.006-0 0.009-0h-0.017zM18.258 14.033c1.799 0 3.259-1.358 3.259-3.038 0-2.267-2.544-3.648-4.532-2.783 0.594 0.187 1.035 0.73 1.035 1.358 0 1.461-2.091 2.007-2.919 0.713-0.458 2.14 1.216 3.751 3.157 3.751zM4.273 29.308c0.034 0.407 0.764 0.798 1.358 0.594 0.424-0.17 0.917-0.662 1.086-1.018 0.187-0.441-0.068-1.256-0.611-1.154-0.56 0.102-1.867 1.052-1.833 1.578zM30.071 27.73c-0.526-0.102-0.781 0.713-0.594 1.154 0.153 0.356 0.645 0.849 1.086 1.018 0.577 0.204 1.324-0.187 1.341-0.594 0.051-0.526-1.273-1.477-1.833-1.578z"></path>
</svg>
