<!-- Generated by IcoMoon.io -->
<svg version="1.1" xmlns="http://www.w3.org/2000/svg" width="31" height="32" viewBox="0 0 31 32">
<title>osi</title>
<path d="M0 15.812c0.144-8.529 6.117-14.596 13.428-15.582 8.717-1.168 16.053 4.761 17.46 12.63 1.338 7.461-2.763 14.445-9.521 17.209-0.584 0.239-0.904 0.107-1.13-0.484-1.118-2.908-2.236-5.822-3.354-8.73-0.195-0.509-0.063-0.829 0.44-1.055 1.52-0.691 2.468-1.847 2.72-3.505 0.402-2.663-1.539-4.943-4.051-5.163-2.449-0.214-4.509 1.488-4.867 3.75-0.327 2.073 0.697 4.001 2.632 4.88 0.603 0.276 0.722 0.54 0.49 1.156-1.124 2.927-2.248 5.854-3.373 8.787-0.163 0.433-0.521 0.584-0.973 0.408-3.304-1.275-6.369-3.831-8.215-7.474-1.564-3.090-1.583-5.508-1.683-6.827zM1.313 15.693c0.025 0.415 0.038 0.898 0.082 1.388 0.396 4.516 3.115 9.013 8.228 11.5 0.201 0.094 0.276 0.050 0.352-0.145 0.936-2.456 1.878-4.911 2.826-7.367 0.082-0.207 0.038-0.301-0.151-0.421-1.985-1.25-2.971-3.046-2.864-5.401 0.063-1.357 0.584-2.544 1.495-3.536 1.884-2.054 4.836-2.5 7.254-1.105 2.003 1.156 3.109 3.379 2.839 5.678-0.226 1.922-1.212 3.385-2.87 4.384-0.17 0.1-0.22 0.182-0.145 0.377 0.955 2.462 1.897 4.924 2.839 7.392 0.075 0.195 0.151 0.239 0.352 0.145 2.23-1.043 4.095-2.531 5.533-4.522 2.186-3.027 3.084-6.4 2.657-10.112-0.86-7.38-7.499-13.491-16.047-12.436-6.664 0.816-12.266 6.438-12.379 14.182z"></path>
</svg>
