<!-- Generated by IcoMoon.io -->
<svg version="1.1" xmlns="http://www.w3.org/2000/svg" width="32" height="32" viewBox="0 0 32 32">
<title>otf-file-format</title>
<path d="M27.737 7.239c-0.002-0.147-0.049-0.293-0.15-0.408l-6.2-7.082c-0.001-0.002-0.004-0.003-0.005-0.004-0.037-0.042-0.079-0.075-0.125-0.105-0.013-0.009-0.028-0.017-0.042-0.025-0.039-0.022-0.081-0.039-0.124-0.052-0.011-0.003-0.022-0.008-0.034-0.011-0.047-0.011-0.095-0.018-0.144-0.018h-15.238c-0.695 0-1.261 0.566-1.261 1.261v29.635c0 0.695 0.566 1.261 1.261 1.261h20.807c0.695 0 1.261-0.566 1.261-1.261v-23.119c0-0.024-0.004-0.047-0.006-0.071zM10.143 29.984c-2.27 0-3.597-1.713-3.597-3.892 0-2.292 1.464-4.006 3.722-4.006 2.349 0 3.631 1.759 3.631 3.87-0 2.508-1.52 4.028-3.756 4.028zM20.016 23.663h-2.088v6.196h-1.736v-6.196h-2.054v-1.453h5.878v1.453zM25.611 23.63h-2.939v1.747h2.746v1.407h-2.746v3.076h-1.736v-7.649h4.676v1.419zM5.675 20.944v-20.15h14.607v6.452c0 0.348 0.282 0.631 0.631 0.631h5.569l0.001 13.068h-20.808zM10.222 23.459c-1.169 0-1.85 1.113-1.85 2.599 0 1.498 0.704 2.553 1.862 2.553 1.169 0 1.837-1.112 1.837-2.598 0-1.373-0.658-2.554-1.849-2.554zM19.34 15.515c-0.161-0.337-0.286-1.036-0.373-2.098l-0.383-4.565-0.086-2.2-1.347 0.244c-0.436 0.035-0.761 0.060-0.977 0.073-1.078 0.075-1.901 0.24-2.469 0.496s-1.060 0.685-1.478 1.289c-0.379 0.542-0.61 1.227-0.693 2.055l1.294-0.641c0-0.854 0.25-1.512 0.75-1.972s1.209-0.69 2.129-0.69c0.343 0 0.754 0.028 1.234 0.086l-2.845 4.918c-0.792 1.373-1.473 2.329-2.043 2.868s-1.178 0.809-1.826 0.809c-0.677 0-1.225-0.321-1.644-0.964l-0.891 0.898c0.594 0.532 1.299 0.799 2.113 0.799 0.858 0 1.598-0.241 2.218-0.723 0.621-0.482 1.279-1.326 1.974-2.532h3.598l0.27 3.255 3.031-0.502 0.085-0.436c-0.44 0.026-0.698 0.040-0.772 0.040-0.419-0-0.708-0.169-0.869-0.505zM14.279 13.175l2.846-4.963 0.422 4.963-3.268-0z"></path>
</svg>
