<!-- Generated by IcoMoon.io -->
<svg version="1.1" xmlns="http://www.w3.org/2000/svg" width="32" height="32" viewBox="0 0 32 32">
<title>otf-file-format-extension</title>
<path d="M27.737 7.239c-0.002-0.147-0.049-0.293-0.15-0.408l-6.201-7.082c-0.001-0.002-0.003-0.003-0.005-0.004-0.037-0.041-0.079-0.075-0.125-0.105-0.013-0.009-0.027-0.017-0.041-0.025-0.040-0.021-0.081-0.039-0.125-0.052-0.012-0.003-0.022-0.008-0.033-0.011-0.047-0.011-0.096-0.018-0.145-0.018h-15.238c-0.695 0-1.261 0.566-1.261 1.261v29.635c0 0.695 0.566 1.261 1.261 1.261h20.807c0.696 0 1.261-0.566 1.261-1.261v-23.119c0-0.024-0.004-0.047-0.006-0.071zM10.492 29.925c-2.136 0-3.385-1.612-3.385-3.663 0-2.157 1.377-3.77 3.503-3.77 2.211 0 3.418 1.655 3.418 3.642 0 2.36-1.431 3.791-3.535 3.791zM19.784 23.977h-1.965v5.831h-1.634v-5.831h-1.933v-1.367h5.532v1.367zM25.050 23.945h-2.766v1.645h2.585v1.324h-2.585v2.894h-1.633v-7.198h4.399v1.335zM5.675 20.945v-20.151h14.607v6.452c0 0.348 0.282 0.631 0.631 0.631h5.569l0.001 13.068h-20.808zM10.567 23.784c-1.1 0-1.74 1.047-1.74 2.446 0 1.409 0.663 2.403 1.752 2.403 1.1 0 1.73-1.047 1.73-2.446 0-1.292-0.62-2.403-1.741-2.403zM20.866 10.901c0 3.667-2.63 6.798-6.297 6.798-2.715 0-4.602-1.99-4.602-4.913 0-3.616 2.699-6.85 6.297-6.85 2.75 0 4.601 2.058 4.601 4.965zM11.628 12.942c0 2.318 0.969 4.152 3.079 4.152 2.889 0 4.516-3.529 4.516-6.366 0-2.301-0.848-4.186-3.097-4.186-2.716-0-4.498 3.373-4.498 6.4z"></path>
</svg>
