<!-- Generated by IcoMoon.io -->
<svg version="1.1" xmlns="http://www.w3.org/2000/svg" width="40" height="32" viewBox="0 0 40 32">
<title>otter</title>
<path d="M38.186 1.543h-2.010l-0.832-0.832c-0.727-0.728-1.732-1.178-2.842-1.178-0 0-0.001 0-0.001 0h-1.287c-0.7 0-1.387 0.183-1.994 0.529l-9.625 5.5h-3.517c-6.66 0-12.059 5.399-12.059 12.059v0.101c0 2.057-1.005 3.903-2.485 5.332-1.143 1.104-1.765 2.743-1.456 4.509 0.425 2.437 2.694 4.126 5.168 4.126h6.813c1.11 0 2.010-0.9 2.010-2.010s-0.9-2.010-2.010-2.010h-7.034c-0.555 0-1.005-0.45-1.005-1.005s0.45-1.005 1.005-1.005h14.069c0.555 0 1.005-0.45 1.005-1.005v-1.005c0-1.11-0.9-2.010-2.010-2.010h-4.020l9.389-5.056 4.68 9.075h5.024c0.555 0 1.005-0.45 1.005-1.005v-1.005c0-1.11-0.9-2.010-2.010-2.010h-1.772l-3.461-6.922 5.808-3.127h1.436c3.33 0 6.029-2.699 6.029-6.029v-2.010c0-1.11-0.9-2.010-2.010-2.010zM32.157 2.548c0.555 0 1.005 0.45 1.005 1.005s-0.45 1.005-1.005 1.005-1.005-0.45-1.005-1.005 0.45-1.005 1.005-1.005zM34.167 8.577h-2.196l-6.396 3.444-0.865-1.73 7.447-3.724h4.839c-0.416 1.167-1.521 2.010-2.829 2.010z"></path>
</svg>
