<!-- Generated by IcoMoon.io -->
<svg version="1.1" xmlns="http://www.w3.org/2000/svg" width="28" height="32" viewBox="0 0 28 32">
<title>outdent</title>
<path d="M0 4.809v-2.512c0-0.555 0.45-1.005 1.005-1.005h26.127c0.555 0 1.005 0.45 1.005 1.005v2.512c0 0.555-0.45 1.005-1.005 1.005h-26.127c-0.555 0-1.005-0.45-1.005-1.005zM13.064 13.853h14.069c0.555 0 1.005-0.45 1.005-1.005v-2.512c0-0.555-0.45-1.005-1.005-1.005h-14.069c-0.555 0-1.005 0.45-1.005 1.005v2.512c0 0.555 0.45 1.005 1.005 1.005zM1.005 29.931h26.127c0.555 0 1.005-0.45 1.005-1.005v-2.512c0-0.555-0.45-1.005-1.005-1.005h-26.127c-0.555 0-1.005 0.45-1.005 1.005v2.512c0 0.555 0.45 1.005 1.005 1.005zM13.064 21.892h14.069c0.555 0 1.005-0.45 1.005-1.005v-2.512c0-0.555-0.45-1.005-1.005-1.005h-14.069c-0.555 0-1.005 0.45-1.005 1.005v2.512c0 0.555 0.45 1.005 1.005 1.005zM0.294 16.322l6.029 6.028c0.631 0.631 1.715 0.184 1.715-0.71v-12.057c0-0.9-1.088-1.338-1.715-0.71l-6.029 6.029c-0.392 0.392-0.392 1.029 0 1.421z"></path>
</svg>
