<!-- Generated by IcoMoon.io -->
<svg version="1.1" xmlns="http://www.w3.org/2000/svg" width="32" height="32" viewBox="0 0 32 32">
<title>pages-file-format-symbol</title>
<path d="M7.546 24.483c-0.223 0-0.374 0.022-0.453 0.043v1.429c0.093 0.021 0.208 0.028 0.366 0.028 0.582 0 0.94-0.294 0.94-0.789 0-0.445-0.308-0.711-0.854-0.711zM11.559 24.511h-0.014c-0.072 0.287-0.144 0.653-0.222 0.933l-0.287 1.026h1.069l-0.301-1.026c-0.086-0.287-0.172-0.646-0.244-0.933zM27.737 7.239c-0.002-0.148-0.049-0.293-0.15-0.408l-6.2-7.082c-0.001-0.002-0.003-0.003-0.005-0.004-0.037-0.041-0.079-0.075-0.125-0.105-0.013-0.009-0.027-0.017-0.041-0.025-0.040-0.021-0.081-0.039-0.124-0.052-0.012-0.003-0.022-0.008-0.034-0.011-0.047-0.011-0.095-0.018-0.145-0.018h-15.238c-0.695 0-1.261 0.566-1.261 1.261v29.635c0 0.696 0.566 1.261 1.261 1.261h20.807c0.696 0 1.261-0.566 1.261-1.261v-23.119c-0-0.024-0.004-0.047-0.006-0.071zM7.467 26.823c-0.143 0-0.273-0.006-0.374-0.021v1.73h-1.084v-4.774c0.337-0.058 0.811-0.101 1.478-0.101 0.675 0 1.156 0.129 1.479 0.388 0.309 0.244 0.516 0.646 0.516 1.119s-0.158 0.876-0.445 1.149c-0.373 0.351-0.926 0.509-1.572 0.509zM12.635 28.532l-0.374-1.242h-1.385l-0.345 1.242h-1.134l1.479-4.838h1.436l1.5 4.838h-1.178zM18.321 28.309c-0.337 0.115-0.976 0.273-1.614 0.273-0.884 0-1.522-0.222-1.967-0.653-0.445-0.416-0.69-1.048-0.682-1.759 0.007-1.608 1.177-2.526 2.763-2.526 0.624 0 1.105 0.122 1.342 0.236l-0.23 0.876c-0.266-0.115-0.596-0.208-1.127-0.208-0.912 0-1.601 0.517-1.601 1.565 0 0.997 0.624 1.586 1.522 1.586 0.251 0 0.452-0.029 0.538-0.072v-1.012h-0.746v-0.854h1.802v2.549h-0.001zM22.263 28.532h-3.086v-4.838h2.986v0.897h-1.888v1.005h1.78v0.89h-1.78v1.149h1.989v0.897h-0zM24.194 28.603c-0.553 0-1.098-0.144-1.371-0.295l0.222-0.904c0.295 0.151 0.747 0.301 1.214 0.301 0.503 0 0.768-0.208 0.768-0.524 0-0.302-0.229-0.474-0.81-0.682-0.804-0.28-1.328-0.725-1.328-1.429 0-0.826 0.689-1.457 1.83-1.457 0.546 0 0.948 0.115 1.235 0.244l-0.244 0.883c-0.194-0.093-0.539-0.23-1.012-0.23s-0.704 0.216-0.704 0.467c0 0.308 0.273 0.445 0.898 0.682 0.854 0.316 1.256 0.761 1.256 1.443-0.001 0.811-0.625 1.501-1.953 1.501zM5.675 20.945v-20.151h14.607v6.452c0 0.348 0.282 0.631 0.631 0.631h5.569l0.001 13.068h-20.808zM19.96 6.294h-0.733v-1.060l-1.813-1.814h-7.522v12.798h2.546v2.874h9.335v-10.984l-1.813-1.814zM20.095 7.084l1.042 1.042h-1.042v-1.042zM17.55 4.211l1.042 1.042h-1.042v-1.042zM10.355 3.883h6.731v1.833h1.678v10.040h-8.409v-11.873zM21.31 18.63h-8.409v-2.411h6.326v-9.462h0.405v1.833h1.678v10.040h0z"></path>
</svg>
