<!-- Generated by IcoMoon.io -->
<svg version="1.1" xmlns="http://www.w3.org/2000/svg" width="24" height="32" viewBox="0 0 24 32">
<title>pagelines</title>
<path d="M24.118 19.172c-3.461 8.586-11.751 3.392-11.751 3.392-2.544 5.138-6.745 8.441-11.594 8.46-1.011 0-1.043-1.532 0-1.532 4.045-0.019 7.568-2.682 9.873-6.915-2.581 0.999-7.449 1.752-10.149-5.163 6.846-2.82 9.992 0.703 11.198 2.858 0.622-1.532 1.068-3.197 1.357-5.006 0 0-8.774 1.375-9.389-6.161 7.48-3.008 9.584 4.817 9.584 4.817 0.1-1.049 0.207-3.304 0.207-3.354 0 0-6.676-4.629-2.393-10.376 7.826 2.701 3.856 10.2 3.856 10.2 0.031 0.1 0.031 1.495 0 2.098 0 0 2.839-5.59 8.567-3.611-0.264 8.416-8.912 6.683-8.912 6.683-0.276 1.721-0.703 3.354-1.256 4.867 0 0 5.213-5.766 10.803-1.256z"></path>
</svg>
