<!-- Generated by IcoMoon.io -->
<svg version="1.1" xmlns="http://www.w3.org/2000/svg" width="31" height="32" viewBox="0 0 31 32">
<title>page4</title>
<path d="M15.576 31.187c-8.604 0-15.576-6.971-15.576-15.576s6.971-15.576 15.576-15.576c1.313 0 2.594 0.163 3.812 0.471l-16.732 23.646h12.919v7.034zM15.576 22.168v-13.415l-9.383 13.415h9.383zM21.605 24.153v5.822c2.87-1.206 5.307-3.247 6.997-5.822h-6.997zM25.21 15.473l-1.331 0.528 1.331 0.521v-1.049zM23.935 18.896c-0.421 0-0.503 0.396-0.503 0.81v0.484h1.018v-0.628c0-0.371-0.145-0.666-0.515-0.666zM31.152 15.611c0 2.343-0.515 4.566-1.445 6.557h-8.102v-20.921c5.609 2.355 9.547 7.901 9.547 14.364zM22.635 8.552h4.283v-2.99h-0.873v2.047h-0.873v-1.859h-0.873v1.859h-0.798v-2.047h-0.873v2.99zM26.912 20.19h-1.664v-0.691c0-0.967-0.352-1.583-1.313-1.583-0.967 0-1.3 0.666-1.3 1.627v1.589h4.283v-0.942zM26.912 13.721l-4.283 1.865v0.779l4.283 1.853v-1.043l-0.904-0.358v-1.664l0.904-0.371v-1.061zM26.611 9.419h-2.236v1.671h0.873v-0.766h0.691c0.54 0.992 0.082 2.217-1.168 2.217-1.413 0-1.777-1.589-0.973-2.368l-0.729-0.666c-1.018 1.099-0.766 4.013 1.702 4.013 2.135 0 2.807-2.255 1.84-4.101z"></path>
</svg>
