<!-- Generated by IcoMoon.io -->
<svg version="1.1" xmlns="http://www.w3.org/2000/svg" width="32" height="32" viewBox="0 0 32 32">
<title>paint-brush</title>
<path d="M10.49 18.961c-2.52 0.162-4.807 1.122-6.104 4.541-0.148 0.39-0.502 0.627-0.916 0.627-0.698 0-2.855-1.738-3.47-2.157 0.001 5.172 2.383 9.718 8.040 9.718 4.764 0 8.039-2.749 8.039-7.549 0-0.195-0.041-0.382-0.061-0.573l-5.528-4.606zM28.758-0.467c-0.952 0-1.845 0.421-2.525 1.033-12.838 11.468-14.174 11.738-14.174 15.114 0 0.86 0.204 1.681 0.548 2.431l4.008 3.34c0.453 0.113 0.92 0.19 1.406 0.19 3.901 0 6.162-2.856 13.262-16.107 0.463-0.901 0.873-1.875 0.873-2.888 0-1.816-1.633-3.112-3.398-3.112z"></path>
</svg>
