<!-- Generated by IcoMoon.io -->
<svg version="1.1" xmlns="http://www.w3.org/2000/svg" width="32" height="32" viewBox="0 0 32 32">
<title>paint-roller</title>
<path d="M26.127 7.572v-6.029c0-1.11-0.9-2.010-2.010-2.010h-22.108c-1.11 0-2.010 0.9-2.010 2.010v6.029c0 1.11 0.9 2.010 2.010 2.010h22.108c1.11 0 2.010-0.9 2.010-2.010zM28.137 3.553v8.039c0 1.11-0.9 2.010-2.010 2.010h-10.049c-2.22 0-4.020 1.799-4.020 4.020v2.010c-1.11 0-2.010 0.9-2.010 2.010v8.039c0 1.11 0.9 2.010 2.010 2.010h4.020c1.11 0 2.010-0.9 2.010-2.010v-8.039c0-1.11-0.9-2.010-2.010-2.010v-2.010h10.049c3.33 0 6.029-2.699 6.029-6.029v-4.020c0-2.22-1.799-4.020-4.020-4.020z"></path>
</svg>
