<!-- Generated by IcoMoon.io -->
<svg version="1.1" xmlns="http://www.w3.org/2000/svg" width="32" height="32" viewBox="0 0 32 32">
<title>palette</title>
<path d="M12.831-0.153c-6.243 1.218-11.274 6.237-12.505 12.461-2.324 11.745 8.272 20.5 16.254 19.263 2.588-0.402 3.856-3.429 2.669-5.759-1.451-2.851 0.622-6.18 3.825-6.18h5.006c2.248 0 4.070-1.859 4.076-4.101-0.031-9.898-9.038-17.686-19.325-15.683zM6.029 19.631c-1.112 0-2.010-0.898-2.010-2.010s0.898-2.010 2.010-2.010 2.010 0.898 2.010 2.010-0.898 2.010-2.010 2.010zM8.039 11.592c-1.112 0-2.010-0.898-2.010-2.010s0.898-2.010 2.010-2.010 2.010 0.898 2.010 2.010-0.898 2.010-2.010 2.010zM16.078 7.572c-1.112 0-2.010-0.898-2.010-2.010s0.898-2.010 2.010-2.010 2.010 0.898 2.010 2.010-0.898 2.010-2.010 2.010zM24.118 11.592c-1.112 0-2.010-0.898-2.010-2.010s0.898-2.010 2.010-2.010 2.010 0.898 2.010 2.010-0.898 2.010-2.010 2.010z"></path>
</svg>
