<!-- Generated by IcoMoon.io -->
<svg version="1.1" xmlns="http://www.w3.org/2000/svg" width="28" height="32" viewBox="0 0 28 32">
<title>paperclip</title>
<path d="M2.716 28.809c-3.67-3.787-3.601-9.893 0.087-13.665l13.174-13.476c2.783-2.847 7.308-2.847 10.091 0 2.757 2.82 2.76 7.369 0 10.192l-11.484 11.735c-1.875 1.918-4.939 1.891-6.782-0.063-1.776-1.882-1.719-4.866 0.091-6.717l9.028-9.222c0.388-0.396 1.024-0.403 1.421-0.015l1.436 1.406c0.397 0.388 0.403 1.024 0.015 1.421l-9.027 9.221c-0.31 0.317-0.329 0.843-0.041 1.149 0.275 0.291 0.706 0.296 0.985 0.010l11.484-11.735c1.232-1.26 1.232-3.311-0.001-4.572-1.205-1.233-3.138-1.233-4.343 0l-13.174 13.476c-2.183 2.233-2.217 5.849-0.075 8.059 2.136 2.204 5.589 2.207 7.729 0.018l10.806-11.054c0.388-0.397 1.024-0.404 1.421-0.016l1.437 1.405c0.397 0.388 0.404 1.024 0.016 1.421l-10.806 11.054c-3.742 3.827-9.794 3.782-13.489-0.030z"></path>
</svg>
