<!-- Generated by IcoMoon.io -->
<svg version="1.1" xmlns="http://www.w3.org/2000/svg" width="32" height="32" viewBox="0 0 32 32">
<title>paper-plane</title>
<path d="M27.635-0.059l-26.127 15.067c-2.16 1.25-1.953 4.447 0.358 5.395l7.179 2.971v5.301c0 2.914 3.718 4.114 5.439 1.796l2.751-3.712 7.028 2.902c0.371 0.151 0.76 0.226 1.149 0.226 0.515 0 1.024-0.132 1.482-0.389 0.804-0.452 1.357-1.256 1.501-2.167l3.731-24.319c0.383-2.519-2.317-4.321-4.491-3.071zM12.059 28.675v-4.057l2.299 0.948-2.299 3.109zM25.411 26.872l-9.66-3.988 8.805-12.706c0.672-0.973-0.597-2.104-1.488-1.332l-13.283 11.575-6.771-2.801 26.127-15.073-3.731 24.325z"></path>
</svg>
