<!-- Generated by IcoMoon.io -->
<svg version="1.1" xmlns="http://www.w3.org/2000/svg" width="32" height="32" viewBox="0 0 32 32">
<title>parachute-box</title>
<path d="M32.15 10.524c-0.572-4.748-4.924-8.316-9.942-9.967 2.286 2.475 3.919 6.318 3.919 11.035h1.765l-7.323 8.133c-0.157-0.038-0.301-0.094-0.471-0.094h-3.015v-8.039h7.034c0-7.235-4.327-12.059-8.039-12.059s-8.039 4.824-8.039 12.059h7.034v8.039h-3.015c-0.17 0-0.314 0.057-0.471 0.094l-7.323-8.133h1.765c0-4.717 1.633-8.56 3.919-11.035-5.018 1.658-9.371 5.225-9.942 9.967-0.069 0.572 0.427 1.068 1.005 1.068h0.546l8.586 9.54c-0.044 0.163-0.1 0.327-0.1 0.509v8.039c0 1.112 0.898 2.010 2.010 2.010h8.039c1.112 0 2.010-0.898 2.010-2.010v-8.039c0-0.182-0.057-0.339-0.1-0.509l8.592-9.54h0.546c0.584 0 1.080-0.49 1.011-1.068z"></path>
</svg>
