<!-- Generated by IcoMoon.io -->
<svg version="1.1" xmlns="http://www.w3.org/2000/svg" width="28" height="32" viewBox="0 0 28 32">
<title>paragraph</title>
<path d="M25.625 1.543h-14.475c-5.564 0-10.142 4.48-10.145 10.044-0.003 5.552 4.497 10.054 10.049 10.054v6.532c0 0.832 0.675 1.507 1.507 1.507h2.010c0.832 0 1.507-0.675 1.507-1.507v-21.605h2.010v21.605c0 0.832 0.675 1.507 1.507 1.507h2.010c0.832 0 1.507-0.675 1.507-1.507v-21.605h2.512c0.832 0 1.507-0.675 1.507-1.507v-2.010c0-0.833-0.675-1.507-1.507-1.507z"></path>
</svg>
