<!-- Generated by IcoMoon.io -->
<svg version="1.1" xmlns="http://www.w3.org/2000/svg" width="28" height="32" viewBox="0 0 28 32">
<title>parking</title>
<path d="M25.122 1.543h-22.108c-1.664 0-3.015 1.35-3.015 3.015v22.108c0 1.664 1.35 3.015 3.015 3.015h22.108c1.664 0 3.015-1.35 3.015-3.015v-22.108c0-1.664-1.35-3.015-3.015-3.015zM15.073 19.631h-3.015v3.015c0 0.553-0.452 1.005-1.005 1.005h-2.010c-0.553 0-1.005-0.452-1.005-1.005v-14.069c0-0.553 0.452-1.005 1.005-1.005h6.029c3.322 0 6.029 2.707 6.029 6.029s-2.707 6.029-6.029 6.029zM15.073 11.592h-3.015v4.020h3.015c1.105 0 2.010-0.904 2.010-2.010s-0.904-2.010-2.010-2.010z"></path>
</svg>
