<!-- Generated by IcoMoon.io -->
<svg version="1.1" xmlns="http://www.w3.org/2000/svg" width="28" height="32" viewBox="0 0 28 32">
<title>passport</title>
<path d="M8.141 10.587h2.455c0.094-1.698 0.411-3.225 0.893-4.422-1.74 0.832-3.016 2.461-3.348 4.422zM8.141 12.597c0.332 1.961 1.607 3.591 3.348 4.422-0.482-1.197-0.799-2.725-0.893-4.422h-2.455zM14.069 17.539c0.483-0.468 1.305-2.162 1.472-4.942h-2.944c0.168 2.78 0.989 4.474 1.472 4.942zM12.597 10.587h2.944c-0.167-2.78-0.989-4.474-1.472-4.942-0.484 0.468-1.305 2.162-1.472 4.942zM16.649 17.019c1.74-0.832 3.016-2.461 3.348-4.422h-2.455c-0.094 1.698-0.41 3.225-0.892 4.422zM26.127-0.467h-22.108c-2.22 0-4.020 1.799-4.020 4.020v24.118c0 2.22 1.799 4.020 4.020 4.020h22.108c1.11 0 2.010-0.9 2.010-2.010v-28.137c0-1.11-0.9-2.010-2.010-2.010zM21.103 25.66h-14.069c-0.553 0-1.005-0.452-1.005-1.005s0.452-1.005 1.005-1.005h14.069c0.553 0 1.005 0.452 1.005 1.005s-0.452 1.005-1.005 1.005zM14.069 19.631c-4.44 0-8.039-3.599-8.039-8.039s3.599-8.039 8.039-8.039 8.039 3.599 8.039 8.039-3.599 8.039-8.039 8.039zM16.649 6.165c0.482 1.197 0.799 2.725 0.892 4.422h2.455c-0.332-1.961-1.607-3.591-3.348-4.422z"></path>
</svg>
