<!-- Generated by IcoMoon.io -->
<svg version="1.1" xmlns="http://www.w3.org/2000/svg" width="28" height="32" viewBox="0 0 28 32">
<title>paste</title>
<path d="M8.039 11.089c0-1.939 1.578-3.517 3.517-3.517h8.542v-4.522c0-0.833-0.675-1.507-1.507-1.507h-5.063c-0.696-1.2-1.994-2.010-3.479-2.010s-2.783 0.81-3.479 2.010h-5.063c-0.833 0-1.507 0.675-1.507 1.507v21.103c0 0.832 0.675 1.507 1.507 1.507h6.532v-14.571zM10.049 2.045c0.832 0 1.507 0.675 1.507 1.507s-0.675 1.507-1.507 1.507-1.507-0.675-1.507-1.507 0.675-1.507 1.507-1.507zM21.605 17.621h6.532v12.561c0 0.832-0.675 1.507-1.507 1.507h-15.073c-0.832 0-1.507-0.675-1.507-1.507v-19.093c0-0.832 0.675-1.507 1.507-1.507h8.542v6.532c0 0.829 0.678 1.507 1.507 1.507zM28.137 15.231v0.381h-6.029v-6.029h0.381c0.416 0 0.793 0.169 1.066 0.441l4.141 4.141c0.273 0.273 0.442 0.65 0.442 1.066v0z"></path>
</svg>
