<!-- Generated by IcoMoon.io -->
<svg version="1.1" xmlns="http://www.w3.org/2000/svg" width="40" height="32" viewBox="0 0 40 32">
<title>pastafarianism</title>
<path d="M39.225 21.369c-2.054-0.786-3.603 0.267-4.734 1.033-1.071 0.724-1.46 0.906-1.973 0.713-0.51-0.194-0.68-0.589-0.998-1.845-0.209-0.826-0.467-1.841-1.127-2.679 0.141-0.183 0.278-0.364 0.401-0.538 0.639 0.601 1.47 1.075 2.619 1.075 2.132 0 3.195-1.619 3.898-2.69 0.665-1.014 0.942-1.33 1.378-1.33 0.832 0 1.507-0.675 1.507-1.507s-0.675-1.507-1.507-1.507c-2.132 0-3.195 1.619-3.898 2.69-0.666 1.014-0.942 1.33-1.378 1.33-1.087 0-2.354-3.858-6.109-6.401l1.083-2.167c2.1-0.131 3.769-1.86 3.769-3.994 0-2.22-1.799-4.020-4.020-4.020s-4.020 1.799-4.020 4.020c0 0.818 0.247 1.576 0.667 2.211l-1.14 2.28c-1.066-0.289-2.236-0.472-3.546-0.472s-2.48 0.183-3.546 0.472l-1.14-2.28c0.418-0.635 0.666-1.394 0.666-2.211 0-2.22-1.799-4.020-4.020-4.020s-4.020 1.799-4.020 4.020c0 2.134 1.668 3.863 3.77 3.994l1.083 2.167c-3.743 2.534-5.032 6.4-6.109 6.4-0.436 0-0.712-0.316-1.378-1.33-0.702-1.071-1.765-2.69-3.898-2.69-0.832 0-1.507 0.675-1.507 1.507s0.675 1.507 1.507 1.507c0.436 0 0.712 0.316 1.378 1.33 0.703 1.071 1.765 2.69 3.898 2.69 1.149 0 1.98-0.474 2.619-1.075 0.123 0.175 0.26 0.355 0.401 0.538-0.66 0.837-0.918 1.853-1.127 2.679-0.318 1.256-0.488 1.651-0.998 1.845-0.509 0.192-0.9 0.011-1.973-0.713-1.132-0.766-2.683-1.816-4.734-1.033-0.778 0.296-1.167 1.167-0.871 1.945 0.296 0.779 1.169 1.169 1.945 0.872 0.513-0.194 0.901-0.012 1.971 0.713 0.851 0.575 1.936 1.31 3.292 1.309 0.45 0 0.931-0.080 1.443-0.276 2.051-0.781 2.511-2.596 2.847-3.922 0.139-0.548 0.251-0.91 0.374-1.185 1.044 0.855 2.321 1.625 3.871 2.146-0.626 2.324-2.021 5.703-3.785 5.703-0.832 0-1.507 0.675-1.507 1.507s0.675 1.507 1.507 1.507c4.192 0 6.095-5.566 6.747-8.111 0.42 0.038 0.843 0.072 1.293 0.072s0.872-0.034 1.293-0.072c0.651 2.544 2.555 8.111 6.747 8.111 0.832 0 1.507-0.675 1.507-1.507s-0.675-1.507-1.507-1.507c-1.755 0-3.153-3.38-3.782-5.703 1.551-0.521 2.826-1.291 3.87-2.145 0.123 0.275 0.235 0.637 0.374 1.185 0.335 1.326 0.796 3.14 2.847 3.922 0.511 0.195 0.992 0.276 1.443 0.276 1.356 0 2.441-0.734 3.292-1.309 1.071-0.725 1.462-0.907 1.971-0.713 0.778 0.298 1.65-0.092 1.945-0.872s-0.094-1.649-0.872-1.946zM28.137 2.548c0.554 0 1.005 0.451 1.005 1.005s-0.451 1.005-1.005 1.005-1.005-0.451-1.005-1.005 0.451-1.005 1.005-1.005zM12.059 2.548c0.554 0 1.005 0.451 1.005 1.005s-0.451 1.005-1.005 1.005-1.005-0.451-1.005-1.005 0.451-1.005 1.005-1.005z"></path>
</svg>
