<!-- Generated by IcoMoon.io -->
<svg version="1.1" xmlns="http://www.w3.org/2000/svg" width="32" height="32" viewBox="0 0 32 32">
<title>pastel</title>
<path d="M10.958-0.934c-0.932 0-1.686 0.754-1.686 1.686v6.743h-3.372c-0.93 0-1.686-0.757-1.686-1.686s0.756-1.686 1.686-1.686v-3.372c-2.789 0-5.058 2.269-5.058 5.058v21.916c0 1.859 1.513 3.372 3.372 3.372h23.602c1.859 0 3.372-1.513 3.372-3.372v-16.859c0-1.859-1.513-3.372-3.372-3.372h-1.686v-6.743c0-0.932-0.754-1.686-1.686-1.686zM14.182 2.438h7.040c0.255 0.718 0.82 1.282 1.538 1.538v3.52h-3.372c0-0.93-0.756-1.686-1.686-1.686s-1.686 0.756-1.686 1.686h-3.372v-3.52c0.718-0.255 1.283-0.82 1.538-1.538zM4.215 10.558c0.53 0.189 1.092 0.309 1.686 0.309h21.916v16.859h-23.602zM22.759 17.611c-0.93 0-1.686 0.756-1.686 1.686s0.756 1.686 1.686 1.686c0.93 0 1.686-0.756 1.686-1.686s-0.756-1.686-1.686-1.686z"></path>
</svg>
