<!-- Generated by IcoMoon.io -->
<svg version="1.1" xmlns="http://www.w3.org/2000/svg" width="32" height="32" viewBox="0 0 32 32">
<title>pause-circle</title>
<path d="M16.078 0.035c-8.604 0-15.576 6.971-15.576 15.576s6.971 15.576 15.576 15.576 15.576-6.971 15.576-15.576-6.971-15.576-15.576-15.576zM16.078 28.173c-6.94 0-12.561-5.621-12.561-12.561s5.621-12.561 12.561-12.561 12.561 5.621 12.561 12.561-5.621 12.561-12.561 12.561zM22.108 10.587v10.049c0 0.553-0.452 1.005-1.005 1.005h-3.015c-0.553 0-1.005-0.452-1.005-1.005v-10.049c0-0.553 0.452-1.005 1.005-1.005h3.015c0.553 0 1.005 0.452 1.005 1.005zM15.073 10.587v10.049c0 0.553-0.452 1.005-1.005 1.005h-3.015c-0.553 0-1.005-0.452-1.005-1.005v-10.049c0-0.553 0.452-1.005 1.005-1.005h3.015c0.553 0 1.005 0.452 1.005 1.005z"></path>
</svg>
