<!-- Generated by IcoMoon.io -->
<svg version="1.1" xmlns="http://www.w3.org/2000/svg" width="28" height="32" viewBox="0 0 28 32">
<title>pause</title>
<path d="M9.044 29.617h-6.029c-1.664 0-3.015-1.35-3.015-3.015v-22.108c0-1.664 1.35-3.015 3.015-3.015h6.029c1.664 0 3.015 1.35 3.015 3.015v22.108c0 1.664-1.35 3.015-3.015 3.015zM28.137 26.602v-22.108c0-1.664-1.35-3.015-3.015-3.015h-6.029c-1.664 0-3.015 1.35-3.015 3.015v22.108c0 1.664 1.35 3.015 3.015 3.015h6.029c1.664 0 3.015-1.35 3.015-3.015z"></path>
</svg>
