<!-- Generated by IcoMoon.io -->
<svg version="1.1" xmlns="http://www.w3.org/2000/svg" width="32" height="32" viewBox="0 0 32 32">
<title>paw</title>
<path d="M16.078 13.602c-4.987 0-12.059 7.71-12.059 12.577 0 2.192 1.684 3.501 4.506 3.501 3.067 0 5.093-1.575 7.553-1.575 2.481 0 4.513 1.575 7.553 1.575 2.822 0 4.506-1.31 4.506-3.501 0-4.867-7.071-12.577-12.059-12.577zM6.828 12.81c-0.653-2.176-2.665-3.586-4.494-3.148s-2.782 2.556-2.128 4.732c0.653 2.176 2.665 3.586 4.494 3.148s2.782-2.556 2.128-4.732zM12.149 11.504c1.943-0.511 2.915-3.137 2.172-5.864s-2.922-4.523-4.865-4.011-2.915 3.137-2.172 5.864c0.744 2.727 2.922 4.523 4.865 4.011zM29.822 9.662c-1.829-0.437-3.841 0.972-4.494 3.148s0.3 4.295 2.128 4.732 3.841-0.972 4.494-3.148c0.653-2.176-0.3-4.295-2.128-4.732zM20.008 11.504c1.943 0.511 4.121-1.284 4.865-4.011s-0.229-5.352-2.172-5.864-4.121 1.284-4.865 4.011c-0.744 2.727 0.229 5.352 2.172 5.864z"></path>
</svg>
