<!-- Generated by IcoMoon.io -->
<svg version="1.1" xmlns="http://www.w3.org/2000/svg" width="24" height="32" viewBox="0 0 24 32">
<title>paypal</title>
<path d="M6.997 18.117c-0.22 1.206-1.093 6.827-1.35 8.416-0.019 0.113-0.063 0.157-0.188 0.157h-4.685c-0.477 0-0.823-0.415-0.76-0.873l3.68-23.358c0.094-0.603 0.634-1.061 1.256-1.061 9.565 0 10.369-0.232 12.812 0.716 3.775 1.463 4.12 4.993 2.763 8.812-1.35 3.932-4.553 5.621-8.799 5.671-2.726 0.044-4.365-0.44-4.729 1.52zM22.428 9.080c-0.113-0.082-0.157-0.113-0.188 0.082-0.126 0.716-0.32 1.413-0.553 2.11-2.506 7.147-9.452 6.526-12.844 6.526-0.383 0-0.634 0.207-0.685 0.59-1.419 8.818-1.702 10.658-1.702 10.658-0.063 0.446 0.22 0.81 0.666 0.81h3.988c0.54 0 0.986-0.396 1.093-0.936 0.044-0.339-0.069 0.383 0.904-5.734 0.289-1.382 0.898-1.237 1.84-1.237 4.459 0 7.939-1.809 8.975-7.053 0.408-2.186 0.289-4.484-1.495-5.816z"></path>
</svg>
