<!-- Generated by IcoMoon.io -->
<svg version="1.1" xmlns="http://www.w3.org/2000/svg" width="32" height="32" viewBox="0 0 32 32">
<title>pdb-file-format-variant</title>
<path d="M24.147 24.474c0-0.572-0.437-0.875-1.211-0.875-0.37 0-0.583 0.022-0.729 0.045v1.761h0.56c0.897-0 1.38-0.37 1.38-0.931zM8.593 23.644c-0.348 0-0.583 0.034-0.706 0.067v2.232c0.146 0.034 0.325 0.045 0.572 0.045 0.908 0 1.469-0.46 1.469-1.234 0-0.695-0.482-1.11-1.335-1.11zM15.198 23.666c-0.381 0-0.628 0.033-0.774 0.067v4.946c0.146 0.033 0.381 0.033 0.594 0.033 1.547 0.011 2.557-0.84 2.557-2.647 0.011-1.569-0.908-2.399-2.378-2.399zM22.791 26.627h-0.583v2.13c0.168 0.023 0.37 0.023 0.662 0.023 0.774 0 1.458-0.292 1.458-1.088-0-0.763-0.684-1.065-1.537-1.065zM27.737 7.239c-0.002-0.148-0.048-0.293-0.15-0.408l-6.201-7.082c-0.001-0.002-0.003-0.003-0.005-0.004-0.037-0.041-0.079-0.075-0.125-0.105-0.013-0.009-0.027-0.017-0.041-0.025-0.040-0.021-0.081-0.039-0.124-0.052-0.012-0.003-0.022-0.008-0.034-0.011-0.047-0.011-0.095-0.018-0.145-0.018h-15.238c-0.695 0-1.261 0.566-1.261 1.261v29.635c0 0.696 0.566 1.261 1.261 1.261h20.807c0.696 0 1.261-0.566 1.261-1.261v-23.119c0-0.024-0.004-0.047-0.006-0.071zM10.926 26.504c-0.583 0.549-1.447 0.796-2.456 0.796-0.224 0-0.426-0.011-0.583-0.033v2.703h-1.694v-7.458c0.527-0.089 1.268-0.157 2.311-0.157 1.054 0 1.805 0.202 2.31 0.606 0.482 0.381 0.808 1.009 0.808 1.749s-0.247 1.368-0.696 1.795zM18.137 29.072c-0.796 0.661-2.008 0.976-3.488 0.976-0.886 0-1.514-0.056-1.94-0.112v-7.424c0.628-0.101 1.447-0.157 2.311-0.157 1.435 0 2.367 0.258 3.095 0.807 0.785 0.583 1.278 1.514 1.278 2.849 0 1.446-0.527 2.444-1.256 3.062zM25.336 29.363c-0.55 0.438-1.469 0.684-2.972 0.684-0.84 0-1.469-0.056-1.85-0.112v-7.424c0.449-0.090 1.357-0.157 2.21-0.157 1.043 0 1.682 0.101 2.232 0.426 0.527 0.281 0.908 0.796 0.908 1.48 0 0.673-0.393 1.301-1.245 1.615v0.022c0.864 0.236 1.503 0.886 1.503 1.861 0.001 0.684-0.314 1.223-0.785 1.604zM5.675 20.945v-20.151h14.607v6.452c0 0.348 0.282 0.631 0.631 0.631h5.569l0.001 13.068h-20.808zM20.811 9.741h-2.705v-0.199c0-0.178-0.052-0.36-0.156-0.538l-0.013-0.023c0.108-0.175 0.169-0.361 0.169-0.555v-1.256c0-0.17-0.047-0.343-0.141-0.514l-0.011-0.020c0.028-0.076 0.047-0.154 0.047-0.238 0-1.015-2.193-1.563-4.257-1.563-2.062 0-4.255 0.548-4.255 1.563 0 0.083 0.019 0.161 0.047 0.238l-0.011 0.020c-0.094 0.171-0.141 0.344-0.141 0.514v1.256c0 0.193 0.061 0.379 0.168 0.554l-0.014 0.024c-0.103 0.178-0.154 0.359-0.154 0.538v1.256c0 0.187 0.057 0.366 0.159 0.538l-0.005 0.008c-0.103 0.178-0.154 0.359-0.154 0.537v1.256c0 1.116 1.915 1.99 4.359 1.99 0.543 0 1.056-0.045 1.532-0.124v3.869h6.931v-7.697l-1.396-1.434zM20.902 10.286l0.812 0.834h-0.812v-0.834zM15.276 14.531c-0.462 0.082-0.975 0.13-1.532 0.13-2.294 0-3.893-0.803-3.893-1.523v-1.182c0.716 0.656 2.189 1.074 3.893 1.074 0.541 0 1.054-0.046 1.532-0.125v1.626zM15.276 12.192c-0.462 0.082-0.975 0.13-1.532 0.13-2.294 0-3.893-0.803-3.893-1.523v-1.182c0.716 0.656 2.189 1.074 3.893 1.074 0.541 0 1.054-0.046 1.532-0.125v1.626zM15.276 9.792v0.028c-0.462 0.082-0.975 0.129-1.532 0.129-2.294 0-3.893-0.802-3.893-1.523v-1.045c0.7 0.593 2.322 0.9 3.893 0.9 1.573 0 3.195-0.307 3.895-0.9v1.045c0 0.496-0.76 1.030-1.983 1.315h-0.38v0.051zM17.639 9.616v0.125h-0.158c0.056-0.040 0.11-0.081 0.158-0.125zM21.892 18.556h-6.301v-8.5h4.996v1.38h1.305v7.121h-0.001zM16.376 14.938l1.625 0.968v-0.46l-1.229-0.69v-0.009l1.229-0.69v-0.46l-1.625 0.968zM18.252 16.079h0.342l0.724-3.146h-0.342zM19.515 14.057l1.256 0.69v0.009l-1.256 0.69v0.46l1.625-0.955v-0.399l-1.625-0.955z"></path>
</svg>
