<!-- Generated by IcoMoon.io -->
<svg version="1.1" xmlns="http://www.w3.org/2000/svg" width="32" height="32" viewBox="0 0 32 32">
<title>pdf-file-format-symbol</title>
<path d="M15.608 23.744c-0.386 0-0.635 0.034-0.783 0.068v5.004c0.148 0.034 0.386 0.034 0.602 0.034 1.566 0.011 2.587-0.851 2.587-2.678 0.011-1.589-0.919-2.429-2.406-2.429zM8.923 23.721c-0.352 0-0.59 0.034-0.715 0.068v2.259c0.148 0.034 0.329 0.045 0.578 0.045 0.92 0 1.487-0.466 1.487-1.248 0-0.703-0.488-1.123-1.35-1.123zM27.737 7.239c-0.002-0.148-0.049-0.293-0.15-0.408l-6.2-7.082c-0.001-0.002-0.004-0.003-0.005-0.004-0.037-0.041-0.079-0.075-0.125-0.105-0.013-0.009-0.028-0.017-0.042-0.025-0.039-0.021-0.081-0.039-0.124-0.052-0.011-0.003-0.022-0.008-0.034-0.011-0.047-0.011-0.095-0.018-0.144-0.018h-15.238c-0.695 0-1.261 0.566-1.261 1.261v29.635c0 0.696 0.566 1.261 1.261 1.261h20.807c0.695 0 1.261-0.566 1.261-1.261v-23.119c-0-0.024-0.004-0.047-0.006-0.071zM11.283 26.615c-0.59 0.556-1.464 0.806-2.485 0.806-0.227 0-0.431-0.012-0.59-0.034v2.735h-1.713v-7.547c0.533-0.091 1.282-0.159 2.338-0.159 1.066 0 1.827 0.204 2.337 0.613 0.488 0.386 0.816 1.022 0.816 1.77s-0.249 1.385-0.703 1.816zM18.58 29.214c-0.805 0.669-2.030 0.987-3.528 0.987-0.897 0-1.532-0.057-1.964-0.113v-7.513c0.636-0.102 1.464-0.159 2.338-0.159 1.452 0 2.394 0.261 3.132 0.817 0.795 0.59 1.294 1.532 1.294 2.882-0.001 1.464-0.534 2.474-1.272 3.099zM25.663 23.891h-2.94v1.747h2.746v1.408h-2.746v3.075h-1.736v-7.648h4.675v1.418zM5.675 20.945v-20.151h14.607v6.452c0 0.348 0.282 0.631 0.631 0.631h5.569l0.001 13.068h-20.808zM22.547 13.085c-0.037-0.003-0.925-0.085-2.289-0.085-0.427 0-0.858 0.008-1.283 0.024-2.693-2.021-4.899-4.044-6.080-5.178 0.022-0.125 0.036-0.223 0.043-0.299 0.156-1.644-0.017-2.754-0.513-3.299-0.324-0.356-0.801-0.475-1.298-0.339-0.309 0.081-0.88 0.38-1.063 0.99-0.202 0.673 0.123 1.491 0.975 2.439 0.013 0.014 0.303 0.318 0.829 0.831-0.342 1.63-1.236 5.146-1.67 6.835-1.020 0.545-1.869 1.201-2.527 1.954l-0.043 0.049-0.028 0.059c-0.068 0.142-0.391 0.881-0.148 1.474 0.111 0.27 0.319 0.467 0.601 0.57l0.076 0.020c0 0 0.068 0.015 0.188 0.015 0.526 0 1.824-0.276 2.521-2.843l0.169-0.65c2.431-1.182 5.47-1.563 7.672-1.669 1.133 0.84 2.26 1.612 3.353 2.295l0.036 0.021c0.053 0.027 0.532 0.264 1.093 0.264v0c0.802 0 1.387-0.492 1.605-1.349l0.011-0.059c0.061-0.49-0.062-0.932-0.356-1.277-0.619-0.727-1.771-0.791-1.874-0.794zM8.338 18.2c-0.005-0.006-0.007-0.011-0.010-0.018-0.052-0.126 0.010-0.431 0.103-0.655 0.396-0.443 0.872-0.85 1.422-1.217-0.535 1.732-1.313 1.881-1.515 1.889zM11.734 6.696v0c-0.822-0.914-0.809-1.368-0.765-1.52 0.072-0.255 0.4-0.351 0.403-0.352 0.165-0.045 0.265-0.036 0.354 0.062 0.201 0.221 0.375 0.889 0.306 2.114-0.194-0.195-0.298-0.303-0.298-0.303zM11.309 14.483l0.014-0.054-0.002 0.001c0.411-1.611 1.004-3.97 1.346-5.485l0.012 0.012 0.001-0.007c1.103 1.039 2.795 2.559 4.821 4.14l-0.023 0.001 0.034 0.025c-1.908 0.161-4.188 0.537-6.203 1.368zM23.842 15.011c-0.145 0.534-0.425 0.607-0.681 0.607v0c-0.297 0-0.584-0.124-0.649-0.154-0.744-0.466-1.505-0.974-2.273-1.518 0.006 0 0.012 0 0.018 0 1.316 0 2.193 0.080 2.228 0.082 0.22 0.008 0.916 0.111 1.216 0.463 0.118 0.138 0.163 0.303 0.141 0.519z"></path>
</svg>
