<!-- Generated by IcoMoon.io -->
<svg version="1.1" xmlns="http://www.w3.org/2000/svg" width="31" height="32" viewBox="0 0 31 32">
<title>peace</title>
<path d="M15.576 0.035c-8.603 0-15.576 6.973-15.576 15.576s6.973 15.576 15.576 15.576 15.576-6.973 15.576-15.576-6.973-15.576-15.576-15.576zM27.132 15.611c0 2.005-0.515 3.892-1.418 5.538l-8.129-6.503v-10.404c5.416 0.955 9.547 5.684 9.547 11.37zM13.566 26.981c-2.127-0.375-4.050-1.331-5.608-2.702l5.608-4.487v7.189zM17.586 19.792l5.608 4.486c-1.558 1.37-3.481 2.327-5.608 2.702v-7.188zM13.566 4.242v10.404l-8.129 6.503c-0.902-1.645-1.418-3.532-1.418-5.538 0-5.686 4.131-10.415 9.546-11.37z"></path>
</svg>
