<!-- Generated by IcoMoon.io -->
<svg version="1.1" xmlns="http://www.w3.org/2000/svg" width="32" height="32" viewBox="0 0 32 32">
<title>pen-fancy</title>
<path d="M4.973 17.303c-0.602 0.205-1.066 0.67-1.267 1.257l-0.004 0.014-3.702 11.105 0.295 0.295 5.834-5.834c-0.041-0.161-0.099-0.316-0.099-0.49 0-1.11 0.9-2.010 2.010-2.010s2.010 0.9 2.010 2.010-0.9 2.010-2.010 2.010c-0.174 0-0.329-0.057-0.49-0.099l-5.834 5.834 0.294 0.294 11.105-3.702c0.602-0.204 1.067-0.67 1.267-1.257l0.004-0.014 2.077-5.28-6.21-6.21-5.28 2.077zM23.191 1.312l-11.5 12.529 6.146 6.146 12.529-11.5c5.334-4.715-2.497-12.466-7.174-7.174z"></path>
</svg>
