<!-- Generated by IcoMoon.io -->
<svg version="1.1" xmlns="http://www.w3.org/2000/svg" width="32" height="32" viewBox="0 0 32 32">
<title>pen-alt</title>
<path d="M31.274 4.191l-3.775-3.775c-1.178-1.178-3.087-1.178-4.265 0l-3.552 3.552 8.040 8.040 3.552-3.552c1.178-1.178 1.178-3.087 0-4.265zM15.773 2.902c-0.981-0.981-2.571-0.981-3.552 0l-7.46 7.461c-0.393 0.393-0.393 1.029 0 1.421l1.421 1.421c0.393 0.393 1.029 0.393 1.421 0l6.395-6.395 1.421 1.421-9.519 9.518c-3.192 3.192-5.339 7.431-5.881 12.157l-0.009 0.095-0.002 0.014c-0.107 0.96 0.704 1.771 1.664 1.665 4.827-0.547 9.072-2.695 12.269-5.891l12.36-12.36-10.528-10.528z"></path>
</svg>
