<!-- Generated by IcoMoon.io -->
<svg version="1.1" xmlns="http://www.w3.org/2000/svg" width="32" height="32" viewBox="0 0 32 32">
<title>pen-nib</title>
<path d="M8.579 8.25c-1.287 0.372-2.291 1.335-2.712 2.569l-0.008 0.028-5.859 17.577 0.923 0.923 9.428-9.428c-0.188-0.393-0.301-0.828-0.301-1.293 0-1.665 1.35-3.015 3.015-3.015s3.015 1.35 3.015 3.015-1.35 3.015-3.015 3.015c-0.465 0-0.899-0.114-1.293-0.301l-9.428 9.428 0.923 0.923 17.577-5.859c1.262-0.429 2.225-1.433 2.59-2.692l0.007-0.028 2.688-9.509-8.039-8.039-9.509 2.688zM31.274 4.191l-3.775-3.775c-1.178-1.178-3.087-1.178-4.265 0l-3.552 3.552 8.040 8.040 3.552-3.552c1.178-1.178 1.178-3.087 0-4.265z"></path>
</svg>
