<!-- Generated by IcoMoon.io -->
<svg version="1.1" xmlns="http://www.w3.org/2000/svg" width="28" height="32" viewBox="0 0 28 32">
<title>pen-square</title>
<path d="M25.122 29.68h-22.108c-1.664 0-3.015-1.35-3.015-3.015v-22.108c0-1.664 1.35-3.015 3.015-3.015h22.108c1.664 0 3.015 1.35 3.015 3.015v22.108c0 1.664-1.35 3.015-3.015 3.015zM14.954 10.706l-8.523 8.523-0.396 3.586c-0.050 0.477 0.352 0.886 0.835 0.835l3.586-0.396 8.523-8.523c0.145-0.145 0.145-0.383 0-0.534l-3.486-3.486c-0.157-0.151-0.396-0.151-0.54-0.006zM21.668 9.902l-1.89-1.89c-0.59-0.59-1.545-0.59-2.129 0l-1.451 1.451c-0.145 0.145-0.145 0.383 0 0.534l3.486 3.486c0.145 0.145 0.383 0.145 0.534 0l1.451-1.451c0.584-0.584 0.584-1.539 0-2.129z"></path>
</svg>
