<!-- Generated by IcoMoon.io -->
<svg version="1.1" xmlns="http://www.w3.org/2000/svg" width="32" height="32" viewBox="0 0 32 32">
<title>pencil-alt</title>
<path d="M31.271 8.458l-2.895 2.895c-0.295 0.295-0.773 0.295-1.068 0l-6.971-6.971c-0.295-0.295-0.295-0.772 0-1.068l2.895-2.895c1.175-1.175 3.084-1.175 4.265 0l3.775 3.775c1.181 1.175 1.181 3.084 0 4.265zM17.849 5.801l-16.493 16.493-1.331 7.631c-0.182 1.030 0.716 1.922 1.746 1.746l7.631-1.338 16.493-16.493c0.295-0.295 0.295-0.773 0-1.068l-6.971-6.971c-0.301-0.295-0.779-0.295-1.074 0zM7.794 20.881c-0.345-0.345-0.345-0.898 0-1.244l9.672-9.672c0.345-0.345 0.898-0.345 1.244 0s0.345 0.898 0 1.244l-9.672 9.672c-0.345 0.345-0.898 0.345-1.244 0zM5.527 26.163h3.015v2.28l-4.051 0.71-1.953-1.953 0.71-4.051h2.28v3.015z"></path>
</svg>
