<!-- Generated by IcoMoon.io -->
<svg version="1.1" xmlns="http://www.w3.org/2000/svg" width="32" height="32" viewBox="0 0 32 32">
<title>pencil-ruler</title>
<path d="M6.875 14.86l8.452-8.451-2.771-2.771-3.874 3.874c-0.090 0.090-0.215 0.146-0.352 0.146s-0.262-0.056-0.352-0.146v0l-0.704-0.704c-0.195-0.195-0.195-0.51 0-0.704l3.874-3.874-2.113-2.113c-0.778-0.778-2.039-0.778-2.817 0l-5.634 5.634c-0.777 0.778-0.778 2.039 0 2.817l6.291 6.292zM31.273 7.524c1.178-1.178 1.178-3.088 0-4.266l-2.842-2.842c-1.178-1.178-3.089-1.178-4.268 0l-2.89 2.89 7.11 7.11 2.89-2.891zM19.852 4.728l-18.653 18.651-1.178 6.748c-0.159 0.91 0.634 1.703 1.544 1.543l6.749-1.183 18.648-18.649-7.11-7.109zM31.573 22.654l-2.113-2.113-3.874 3.874c-0.195 0.195-0.51 0.195-0.704 0l-0.704-0.704c-0.194-0.195-0.194-0.51 0-0.704l3.874-3.874-2.772-2.772-8.452 8.451 6.294 6.293c0.778 0.778 2.039 0.778 2.817 0l5.634-5.634c0.778-0.778 0.778-2.039 0-2.817z"></path>
</svg>
