<!-- Generated by IcoMoon.io -->
<svg version="1.1" xmlns="http://www.w3.org/2000/svg" width="40" height="32" viewBox="0 0 40 32">
<title>penny-arcade</title>
<path d="M26.498 9.85c-0.282 1.222-0.088 0.381-0.948 4.101l2.495-0.666c-1.403-3.116-1.086-2.412-1.547-3.434zM13.555 13.060c-1.268 0.339-0.71 0.19-2.489 0.665l0.28 2.901c1.769-0.477 1.295-0.35 2.187-0.587 2.657-0.615 2.063-3.544 0.022-2.979zM34.040 11.415l-2.856-6.23c-0.357-0.777-1.222-1.183-2.049-0.963-4.413 1.178-2.432 0.648-8.516 2.275-0.555 0.152-0.991 0.557-1.183 1.081l-0.004 0.012c-10.372-0.944-19.433 1.598-19.433 6.178 0 2.104 1.926 4.215 5.081 5.99l0.109 1.123c-0.663 0.26-1.124 0.894-1.124 1.635 0 0.058 0.003 0.116 0.008 0.172l-0.001-0.007 0.27 2.794c0.087 0.899 0.843 1.583 1.746 1.583 0.325-0.001-0.189 0.112 7.696-1.995 0.79-0.212 1.326-0.943 1.293-1.76 13.603 2.858 25.247-0.376 25.116-5.328 0.001-1.768-1.394-4.18-6.154-6.561zM16.024 18.268l-1.376 0.369-3.042 0.811 0.155 1.479 1.289-0.346 0.283 2.795-7.242 1.933-0.27-2.796 1.257-0.336-0.698-7.2-1.264 0.339-0.273-2.795c11.189-2.986 10.688-2.915 11.696-2.93 3.559-0.071 4.029 4.512 2.672 6.559-0.763 1.048-1.869 1.806-3.15 2.11l-0.037 0.007zM28.534 19.312l-0.244-2.48 0.936-0.25-0.415-0.922-3.628 0.968-0.258 1.102 1.206-0.322 0.254 2.483-7.088 1.889-0.28-2.79 1.318-0.351 2.078-7.943-1.077 0.286-0.264-2.794c5.864-1.57 4.083-1.093 8.516-2.276l4.187 9.136 1.306-0.349 0.27 2.794-6.818 1.819z"></path>
</svg>
