<!-- Generated by IcoMoon.io -->
<svg version="1.1" xmlns="http://www.w3.org/2000/svg" width="40" height="32" viewBox="0 0 40 32">
<title>people-carry</title>
<path d="M8.039 5.562c1.664 0 3.015-1.35 3.015-3.015s-1.35-3.015-3.015-3.015-3.015 1.35-3.015 3.015 1.35 3.015 3.015 3.015zM32.157 5.562c1.664 0 3.015-1.35 3.015-3.015s-1.35-3.015-3.015-3.015-3.015 1.35-3.015 3.015 1.35 3.015 3.015 3.015zM40.051 28.933l-2.763-6.909-2.581 2.914-0.126 1.143 1.74 4.346c0.314 0.785 1.068 1.262 1.865 1.262 0.251 0 0.502-0.044 0.747-0.145 1.030-0.415 1.532-1.583 1.118-2.613zM37.903 15.756l-1.162-5.037c-0.289-1.256-1.168-2.311-2.355-2.82-1.162-0.502-2.449-0.421-3.523 0.207-1.426 0.842-2.493 2.167-3.021 3.731l-0.71 2.129-1.005 0.641v-6.029c0-0.553-0.452-1.005-1.005-1.005h-10.049c-0.553 0-1.005 0.452-1.005 1.005v6.029l-1.011-0.641-0.71-2.129c-0.521-1.57-1.595-2.889-3.021-3.731-1.080-0.628-2.362-0.71-3.523-0.207-1.187 0.509-2.066 1.564-2.355 2.82l-1.156 5.037c-0.289 1.256 0.044 2.588 0.904 3.561l4.221 4.767 0.634 5.816c0.113 1.024 0.98 1.79 1.997 1.79 0.075 0 0.145-0.006 0.22-0.012 1.105-0.119 1.897-1.112 1.777-2.217l-0.634-5.828c-0.094-0.816-0.433-1.576-0.98-2.198l-2.72-3.078 1.105-4.415 0.427 1.281c0.258 0.785 0.747 1.47 1.539 2.047l3.209 2.041c0.289 0.182 0.76 0.289 1.080 0.314h10.049c0.32-0.025 0.791-0.132 1.080-0.314l3.209-2.041c0.791-0.578 1.281-1.256 1.539-2.047l0.427-1.281 1.105 4.415-2.72 3.078c-0.546 0.622-0.886 1.382-0.98 2.198l-0.634 5.828c-0.119 1.105 0.678 2.098 1.777 2.217 0.075 0.006 0.145 0.012 0.22 0.012 1.011 0 1.884-0.76 1.997-1.79l0.634-5.816 4.221-4.767c0.854-0.973 1.193-2.305 0.904-3.561zM2.908 22.024l-2.763 6.909c-0.415 1.030 0.088 2.198 1.118 2.613 1.055 0.415 2.205-0.107 2.613-1.118l1.74-4.346-0.126-1.143-2.581-2.914z"></path>
</svg>
