<!-- Generated by IcoMoon.io -->
<svg version="1.1" xmlns="http://www.w3.org/2000/svg" width="24" height="32" viewBox="0 0 24 32">
<title>percentage</title>
<path d="M6.862 10.414c1.57-1.57 1.57-4.115 0-5.685s-4.115-1.57-5.685 0c-1.57 1.57-1.57 4.115 0 5.685s4.115 1.57 5.685 0zM22.94 20.808c-1.57-1.57-4.115-1.57-5.685 0s-1.57 4.115 0 5.685c1.57 1.57 4.115 1.57 5.685 0s1.57-4.114 0-5.685zM22.818 6.273l-1.421-1.421c-0.785-0.785-2.058-0.785-2.842 0l-17.256 17.256c-0.785 0.785-0.785 2.058 0 2.842l1.421 1.421c0.785 0.785 2.058 0.785 2.842 0l17.256-17.256c0.785-0.784 0.785-2.057 0-2.842z"></path>
</svg>
