<!-- Generated by IcoMoon.io -->
<svg version="1.1" xmlns="http://www.w3.org/2000/svg" width="28" height="32" viewBox="0 0 28 32">
<title>percent</title>
<path d="M7.034 13.602c3.888 0 7.034-3.147 7.034-7.034s-3.147-7.034-7.034-7.034-7.034 3.147-7.034 7.034 3.147 7.034 7.034 7.034zM7.034 3.553c1.664 0 3.015 1.35 3.015 3.015s-1.35 3.015-3.015 3.015-3.015-1.35-3.015-3.015 1.35-3.015 3.015-3.015zM21.103 17.621c-3.888 0-7.034 3.147-7.034 7.034s3.147 7.034 7.034 7.034 7.034-3.147 7.034-7.034-3.147-7.034-7.034-7.034zM21.103 27.67c-1.664 0-3.015-1.35-3.015-3.015s1.35-3.015 3.015-3.015 3.015 1.35 3.015 3.015-1.35 3.015-3.015 3.015zM24.639-0.454l1.985-0.006c1.218-0.006 1.941 1.369 1.237 2.374l-23 29.123c-0.276 0.389-0.724 0.64-1.231 0.641h-0l-2.098 0.006c-1.225 0-1.941-1.375-1.237-2.374l23.113-29.123c0.283-0.402 0.741-0.641 1.231-0.641z"></path>
</svg>
