<!-- Generated by IcoMoon.io -->
<svg version="1.1" xmlns="http://www.w3.org/2000/svg" width="28" height="32" viewBox="0 0 28 32">
<title>periscope</title>
<path d="M23.238 3.527c-2.424-2.575-5.621-3.994-9.006-3.994-7.204 0-13.070 6.042-13.070 13.466 0 4.717 3.63 10.036 5.194 12.103 2.299 3.040 5.74 6.588 7.876 6.588 2.613 0 7.091-5.916 7.593-6.595 1.545-2.079 5.15-7.43 5.15-12.096 0-3.549-1.325-6.915-3.737-9.471zM14.232 30.553c-2.669 0-11.933-10.507-11.933-17.548 0-6.745 5.269-12.329 11.933-12.329 6.331 0 11.6 5.59 11.6 12.329 0.006 7.041-9.258 17.548-11.6 17.548zM21.228 12.521c0 3.712-3.209 6.89-6.959 6.89-6.318 0-9.465-6.796-5.835-11.418v0.025c0 1.539 1.262 2.789 2.814 2.789s2.814-1.25 2.814-2.789c0-1.143-0.697-2.123-1.69-2.556 4.811-1.206 8.856 2.468 8.856 7.059z"></path>
</svg>
