<!-- Generated by IcoMoon.io -->
<svg version="1.1" xmlns="http://www.w3.org/2000/svg" width="36" height="32" viewBox="0 0 36 32">
<title>person-booth</title>
<path d="M12.059 30.685c0 0.553 0.452 1.005 1.005 1.005h2.010c0.553 0 1.005-0.452 1.005-1.005v-11.054h-4.020v11.054zM14.069 13.602h-3.197l-2.839-2.845c-0.76-0.76-1.771-1.175-2.839-1.175h-1.175c-1.074 0-2.085 0.421-2.845 1.181-0.754 0.76-1.175 1.771-1.175 2.845l0.013 6.023-0.013 10.049c0 1.112 0.898 2.010 2.003 2.010s2.010-0.898 2.010-2.010l0.006-6.325c0.057 0.031 0.1 0.082 0.157 0.107l1.828 2.701v3.517c0 1.112 0.898 2.010 2.010 2.010s2.010-0.898 2.010-2.010v-3.549c0-0.622-0.145-1.244-0.421-1.796l-2.588-3.85v-5.062l1.313 1.313c0.572 0.572 1.325 0.886 2.129 0.886h3.611c1.112 0 2.010-0.898 2.010-2.010s-0.898-2.010-2.010-2.010zM4.020 7.572c1.664 0 3.015-1.35 3.015-3.015s-1.35-3.015-3.015-3.015-3.015 1.35-3.015 3.015 1.35 3.015 3.015 3.015zM18.088 1.543l1.978 14.012-1.941 9.71c-0.27 1.357 0.816 2.405 1.972 2.405 0.955 0 1.759-0.572 2.029-1.909 0.057 1.061 0.917 1.909 1.991 1.909 1.112 0 2.010-0.898 2.010-2.010 0 1.112 0.898 2.010 2.010 2.010s2.010-0.898 2.010-2.010v-26.127h-12.059v2.010zM12.059 1.543v10.049h4.020v-12.059h-2.010c-1.112 0-2.010 0.898-2.010 2.010zM34.167-0.467h-2.010v31.152c0 0.553 0.452 1.005 1.005 1.005h2.010c0.553 0 1.005-0.452 1.005-1.005v-29.142c0-1.112-0.898-2.010-2.010-2.010z"></path>
</svg>
