<!-- Generated by IcoMoon.io -->
<svg version="1.1" xmlns="http://www.w3.org/2000/svg" width="31" height="32" viewBox="0 0 31 32">
<title>phabricator</title>
<path d="M20.286 15.994l-0.006-0.816s1.363-1.244 1.325-1.332l-0.597-1.256c-0.038-0.088-1.853-0.031-1.853-0.031l-0.59-0.584s0.012-1.79-0.075-1.828l-1.262-0.578c-0.088-0.038-1.3 1.319-1.3 1.319l-0.823-0.012s-1.287-1.344-1.375-1.306l-1.256 0.521c-0.088 0.031 0.012 1.815 0.012 1.815l-0.572 0.572s-1.834-0.057-1.865 0.025l-0.509 1.244c-0.038 0.088 1.319 1.319 1.319 1.319l0.006 0.81s-1.363 1.244-1.325 1.331l0.597 1.256c0.038 0.088 1.853 0.031 1.853 0.031l0.59 0.584s-0.012 1.997 0.075 2.029l1.262 0.521c0.088 0.038 1.3-1.476 1.3-1.476l0.823 0.012s1.288 1.495 1.369 1.463l1.256-0.471c0.088-0.038-0.012-2.016-0.012-2.016l0.572-0.572s1.834 0.057 1.865-0.031l0.509-1.244c0.044-0.069-1.313-1.3-1.313-1.3zM17.466 15.448c0.044 1.074-0.804 1.985-1.89 2.035s-2.016-0.785-2.060-1.859c-0.044-1.074 0.804-1.985 1.89-2.029 1.087-0.050 2.016 0.785 2.060 1.853zM30.103 13.068l-6.092-6.092-0.006 0.006c-4.717-4.604-12.272-4.572-16.945 0.1-3.197 3.203-1.746 1.752-6.011 5.985-1.401 1.401-1.401 3.687 0 5.087 4.39 4.359 2.914 2.889 6.117 6.092l0.006-0.006c4.717 4.604 12.272 4.579 16.945-0.1 3.203-3.197 1.752-1.752 5.985-5.985 1.401-1.401 1.401-3.687 0-5.087zM8.818 22.382c-3.743-3.737-3.743-9.798 0-13.535 3.737-3.743 9.798-3.737 13.541 0 3.737 3.737 3.743 9.798 0 13.541-3.743 3.737-9.798 3.731-13.541-0.006z"></path>
</svg>
