<!-- Generated by IcoMoon.io -->
<svg version="1.1" xmlns="http://www.w3.org/2000/svg" width="40" height="32" viewBox="0 0 40 32">
<title>phoenix-framework</title>
<path d="M13.371 21.157c0.239-0.006 1.432-0.088 1.608-0.138-0.151-0.163-2.738-0.063-4.271-3.115-0.27-0.54-0.471-1.105-0.402-1.733 0.182-1.602 2.066-1.884 3.266-1.162 2.261 1.357 3.976 5.734 7.141 6.124 2.324 0.283 5.313-1.068 6.796-2.851-0.038-0.006-0.050-0.012-0.063-0.006-0.025 0.006-0.050 0.012-0.069 0.019-2.091 0.76-5.923 0.609-8.46-0.93-2.362-1.432-3.335-3.687-3.253-4.685 0.113-1.338 1.438-1.457 2.255-1.231 0.904 0.245 1.532 1.105 2.443 1.721 0.98 0.653 2.066 0.86 3.222 0.647 0.936-0.17 2.16-0.772 2.292-0.911-0.069-0.006-0.113-0.006-0.157-0.012-0.389-0.038-0.779-0.050-1.162-0.107-6.984-1.036-8.096-10.275-15.859-10.872-2.782-0.214-6.243 0.509-8.56 2.198-0.050 0.038-0.094 0.075-0.138 0.113 0.006 0.013 0.006 0.019 0.013 0.031 0.050 0 0.1-0.006 0.151-0.013 0.396-0.063 0.785-0.050 1.175 0.019 1.495 0.27 2.996 1.451 3.511 4.805 0.333 2.154-0.044 3.191 0.503 5.408 1.193 4.842 5.715 6.758 8.020 6.683zM4.729 3.609c-0.057-0.063-0.057-0.075-0.082-0.126 0.76-0.163 1.52-0.257 2.299-0.301-0.069 0.923-1.394 1.338-2.217 0.427zM17.096 25.623c-2.688 0.075-5.778-1.677-7.757-3.856-0.289-0.314-1.055-1.269-1.168-1.47l0.025-0.025c0.415 0.258 1.614 1.168 3.442 1.696 1.52 0.44 3.021 0.396 4.497-0.207 1.426-0.584 2.575-0.031 2.707 0.182-1.162 0.239-1.262 0.276-1.507 0.496-0.32 0.276-0.289 0.735 0.44 1.080 1.645 0.779 3.957-0.176 6.105 1.595 0.151 0.126 0.509 0.49 0.634 0.672-0.006 0.012-0.019 0.019-0.025 0.031-0.301-0.094-1.030-0.471-2.525-0.584-1.551-0.126-2.908 0.333-4.867 0.389zM28.074 9.796c1.030-0.327 2.594-0.842 4.177-0.207 1.011 0.408 1.645 1.175 2.016 2.173 0.22 0.59 0.32 1.237 0.32 1.803-0.013 0-0.025 0-0.038 0.006-0.013-0.025-0.025-0.057-0.031-0.082-0.314-1.382-1.878-2.751-4.246-1.878-3.153 1.168-8.19 0.609-11.11-3.015-0.044-0.057-0.151-0.107-0.082-0.201 0.006-0.012 0.132 0.038 0.188 0.082 1.137 0.842 2.405 1.375 3.787 1.645 1.916 0.383 3.429 0.182 5.018-0.327zM34.525 17.175c-2.035 0.012-2.123 3.147-6.507 4.045-1.143 0.232-2.431 0.289-2.82 0.264v-0.025c0.176-0.094 0.923-0.163 1.865-1.043 0.496-0.458 0.961-0.948 1.432-1.438 1.225-1.269 2.6-2.65 5.144-2.449 1.451 0.113 1.84 0.515 2.267 0.798 0.019 0.012 0.025 0.031 0.044 0.057-0.031 0-0.044 0.006-0.057 0-0.44-0.17-0.898-0.207-1.369-0.207zM33.752 15.662c-0.006 0.012-0.006 0.025-0.013 0.038-1.815-0.276-3.015-0.496-4.302 0.251-1.068 0.622-1.972 1.287-3.894 1.533-1.702 0.214-2.833 0.151-4.151-0.503-0.019-0.012-0.038-0.025-0.063-0.038 0-0.012 0.006-0.019 0.006-0.031 1.564 0.239 2.286 0.32 3.486-0.364 1.401-0.81 2.519-1.671 4.478-1.947 1.859-0.258 3.222 0.157 4.453 1.061zM16.87 5.644c-0.038-0.038-0.069-0.075-0.132-0.144 0.477 0 1.865-0.075 3.354 0.527 1.237 0.502 2.022 1.319 3.153 2.066 0.697 0.458 1.47 0.584 2.286 0.509 0.27-0.025 0.534-0.075 0.804-0.107 0.025-0.006 0.057 0 0.094 0.019-0.038 0.025-0.075 0.057-0.113 0.075-0.509 0.251-1.049 0.396-1.608 0.446-1.639 0.163-3.159-0.232-4.61-0.967-1.212-0.622-2.286-1.438-3.228-2.424zM40.196 20.617c-0.22 0.195-1.426 0.729-2.682 0.333-0.773-0.245-1.225-0.936-1.985-1.514-0.628-0.477-1.313-0.496-1.765-0.527 0.038-0.050 0.057-0.075 0.075-0.088 0.93-0.578 1.916-0.766 2.971-0.408 0.785 0.264 1.206 0.848 1.909 1.52 0.678 0.653 1.319 0.622 1.451 0.66 0.006-0.006 0.013 0 0.025 0.025zM26.85 29.221c0.138 0.075 0.1 0.094 0.094 0.126-1.162-0.088-2.129-0.477-2.939-1.394-1.369-1.551-2.619-1.752-3.052-1.865 0.031-0.012 0.050-0.025 0.069-0.025 0.823 0.006 1.639 0.044 2.443 0.245 1.589 0.402 2.198 1.595 2.613 2.217 0.201 0.301 0.458 0.521 0.773 0.697z"></path>
</svg>
