<!-- Generated by IcoMoon.io -->
<svg version="1.1" xmlns="http://www.w3.org/2000/svg" width="32" height="32" viewBox="0 0 32 32">
<title>phoenix-squadron</title>
<path d="M6.044 3.478c2.931-2.276 6.652-3.532 10.366-3.437 1.863-0.024 3.724 0.338 5.475 0.965-1.52-0.291-3.089-0.399-4.622-0.154-2.701 0.336-5.229 1.71-7.044 3.728 0.357-0.062 0.679-0.231 1.009-0.369 1.143-0.495 2.362-0.835 3.605-0.934 1.244-0.134 2.497-0.027 3.734 0.121-0.908 0.175-1.834 0.288-2.708 0.604-2.169 0.698-4.111 2.089-5.436 3.945-0.869 1.242-1.488 2.7-1.554 4.229-0.022 1.039 0.328 2.193 1.249 2.774 0.699 0.418 1.561 0.59 2.363 0.425 0.973-0.155 1.894-0.545 2.747-1.029 0.725-0.43 1.428-0.916 2.013-1.527 0.239-0.203 0.16-0.533 0.165-0.806-0.134-0.021-0.276-0.070-0.397 0.019-0.64 0.359-1.387 0.687-2.166 0.943l-0.091 0.026c-1.26 0.389-2.655 0.533-3.912 0.049 0.806 0.109 1.642 0.020 2.377-0.343 1.274-0.612 2.319-1.587 3.429-2.442 1.749-1.337 3.62-2.519 5.6-3.484 1.619-0.754 3.334-1.435 5.138-1.52-0.985 0.864-2.025 1.671-2.947 2.607-0.914 0.882-1.73 1.858-2.527 2.846-0.222 0.29-0.564 0.437-0.855 0.64-1.397 0.944-2.55 2.258-3.268 3.786-0.588 1.24-0.914 2.636-0.742 4.010 0.122 0.862 0.549 1.738 1.316 2.199 0.813 0.502 1.83 0.508 2.739 0.321 2.066-0.469 3.869-1.82 5.105-3.517 1.288-1.733 1.922-3.918 1.837-6.070-0.033-0.472-0.099-0.942-0.105-1.416 0.504 1.227 0.934 2.502 1.049 3.832 0.126 0.899 0.047 1.811-0.102 2.702-0.121 0.692-0.357 1.355-0.49 2.043 1.279-1.428 2.146-3.218 2.478-5.107 0.359-2.221 0.036-4.545-0.895-6.591 1.309 2.017 2.037 4.383 2.249 6.771 0.031 0.802 0.031 1.607 0 2.408-0.183 2.152-0.815 4.268-1.869 6.155-1.645 2.982-4.283 5.394-7.382 6.803-4.932 2.282-11.004 1.973-15.621-0.925-2.439-1.494-4.463-3.663-5.758-6.215-0.925-1.814-1.47-3.82-1.598-5.853v-1.974c0.247-4.395 2.574-8.562 6.044-11.235zM20.028 8.538c0.346-0.050 0.68-0.161 1.006-0.283 0.313-0.111 0.582-0.374 0.65-0.707-0.56 0.314-1.127 0.625-1.656 0.989z"></path>
</svg>
