<!-- Generated by IcoMoon.io -->
<svg version="1.1" xmlns="http://www.w3.org/2000/svg" width="24" height="32" viewBox="0 0 24 32">
<title>phone-volume</title>
<path d="M6.113 31.373c-8.157-8.157-8.145-21.37 0-29.515 0.358-0.358 0.912-0.417 1.335-0.152l4.071 2.544c0.307 0.194 0.507 0.531 0.507 0.915 0 0.144-0.028 0.282-0.080 0.408l0.003-0.007-2.035 5.089c-0.164 0.401-0.55 0.679-1.002 0.679-0.038 0-0.075-0.002-0.112-0.006l0.005 0-3.505-0.35c-1.322 3.659-1.295 7.692 0 11.275l3.505-0.351c0.032-0.003 0.070-0.005 0.107-0.005 0.452 0 0.839 0.278 1 0.671l0.003 0.007 2.035 5.089c0.049 0.119 0.077 0.256 0.077 0.401 0 0.384-0.201 0.721-0.503 0.913l-0.004 0.003-4.071 2.544c-0.162 0.103-0.36 0.164-0.572 0.164-0.298 0-0.568-0.121-0.763-0.316v0zM15.521 5.529c0.743 1.259 0.743 2.827 0 4.086-0.248 0.42-0.823 0.5-1.176 0.162l-0.375-0.36c-0.246-0.235-0.301-0.604-0.142-0.905 0.147-0.273 0.233-0.596 0.233-0.94s-0.086-0.668-0.238-0.951l0.005 0.011c-0.159-0.301-0.104-0.67 0.142-0.905l0.375-0.36c0.352-0.338 0.928-0.258 1.176 0.162zM21.286-0.198c3.777 4.497 3.774 11.046 0 15.54-0.281 0.335-0.787 0.361-1.102 0.059l-0.364-0.349c-0.286-0.275-0.313-0.724-0.058-1.029 3.121-3.739 3.118-9.165 0-12.902-0.254-0.305-0.228-0.754 0.058-1.029l0.364-0.349c0.315-0.302 0.821-0.276 1.102 0.059zM18.398 2.625c2.264 2.909 2.268 6.981 0 9.895-0.276 0.354-0.797 0.393-1.121 0.082l-0.365-0.35c-0.276-0.265-0.314-0.697-0.081-1.001 1.667-2.171 1.666-5.186 0-7.357-0.233-0.304-0.196-0.736 0.081-1.001l0.365-0.35c0.324-0.311 0.846-0.272 1.121 0.082z"></path>
</svg>
