<!-- Generated by IcoMoon.io -->
<svg version="1.1" xmlns="http://www.w3.org/2000/svg" width="40" height="32" viewBox="0 0 40 32">
<title>phone-slash</title>
<path d="M16.845 23.487l-3.115-3.806c-0.427-0.521-1.143-0.697-1.759-0.433l-7.034 3.015c-0.672 0.289-1.036 1.011-0.873 1.727l1.507 6.532c0.157 0.678 0.76 1.168 1.47 1.168 6.325 0 12.166-2.035 16.939-5.458l-5.024-3.881c-0.685 0.408-1.388 0.798-2.11 1.137zM39.806 28.304l-9.967-7.7c3.944-4.968 6.337-11.217 6.337-18.057 0-0.703-0.484-1.313-1.168-1.47l-6.532-1.507c-0.71-0.163-1.438 0.207-1.727 0.873l-3.015 7.034c-0.264 0.615-0.088 1.338 0.433 1.759l3.806 3.115c-0.766 1.639-1.752 3.159-2.889 4.572l-22.227-17.177c-0.44-0.339-1.068-0.264-1.413 0.176l-1.231 1.583c-0.339 0.44-0.264 1.068 0.176 1.407l36.955 28.558c0.44 0.339 1.068 0.264 1.413-0.176l1.231-1.589c0.339-0.427 0.258-1.061-0.182-1.401z"></path>
</svg>
