<!-- Generated by IcoMoon.io -->
<svg version="1.1" xmlns="http://www.w3.org/2000/svg" width="32" height="32" viewBox="0 0 32 32">
<title>phone</title>
<path d="M30.989 1.078l-6.532-1.507c-0.71-0.163-1.438 0.207-1.727 0.873l-3.015 7.034c-0.264 0.615-0.088 1.338 0.433 1.759l3.806 3.115c-2.261 4.817-6.212 8.824-11.129 11.129l-3.115-3.806c-0.427-0.521-1.143-0.697-1.759-0.433l-7.034 3.015c-0.672 0.295-1.043 1.024-0.879 1.733l1.507 6.532c0.157 0.678 0.76 1.168 1.47 1.168 16.085 0 29.142-13.032 29.142-29.142 0-0.703-0.484-1.313-1.168-1.47z"></path>
</svg>
