<!-- Generated by IcoMoon.io -->
<svg version="1.1" xmlns="http://www.w3.org/2000/svg" width="28" height="32" viewBox="0 0 28 32">
<title>phone-square</title>
<path d="M25.122 1.543h-22.108c-1.665 0-3.015 1.35-3.015 3.015v22.108c0 1.665 1.35 3.015 3.015 3.015h22.108c1.665 0 3.015-1.35 3.015-3.015v-22.108c0-1.665-1.35-3.015-3.015-3.015zM5.904 25.66c-0.442 0-0.82-0.306-0.918-0.73l-0.942-4.082c-0.015-0.064-0.024-0.137-0.024-0.212 0-0.386 0.232-0.718 0.565-0.864l0.006-0.002 4.396-1.884c0.109-0.048 0.237-0.076 0.371-0.076 0.293 0 0.555 0.134 0.728 0.344l0.001 0.002 1.947 2.379c3.074-1.442 5.546-3.948 6.958-6.958l-2.379-1.947c-0.212-0.174-0.346-0.436-0.346-0.729 0-0.134 0.028-0.262 0.078-0.377l-0.002 0.006 1.884-4.396c0.148-0.339 0.48-0.571 0.866-0.571 0.075 0 0.148 0.009 0.218 0.025l-0.006-0.001 4.082 0.942c0.421 0.1 0.73 0.473 0.73 0.918 0 0 0 0 0 0v0c0 10.067-8.161 18.214-18.214 18.214z"></path>
</svg>
