<!-- Generated by IcoMoon.io -->
<svg version="1.1" xmlns="http://www.w3.org/2000/svg" width="40" height="32" viewBox="0 0 40 32">
<title>php</title>
<path d="M20.098 6.096c10.765 0 19.043 4.535 19.043 9.515s-8.284 9.515-19.043 9.515c-10.765 0-19.043-4.535-19.043-9.515s8.284-9.515 19.043-9.515zM20.098 5.041c-11.098 0-20.098 4.729-20.098 10.57s9 10.57 20.098 10.57 20.098-4.729 20.098-10.57-9-10.57-20.098-10.57zM13.704 14.763c-0.496 2.544-2.248 2.28-4.403 2.28l0.86-4.434c2.387 0 4.007-0.258 3.542 2.154zM6.117 21.534h2.305l0.546-2.814c2.581 0 4.183 0.188 5.665-1.2 1.639-1.507 2.066-4.189 0.898-5.533-0.609-0.703-1.589-1.049-2.92-1.049h-4.44l-2.054 10.595zM17.78 8.119h2.292l-0.546 2.814c1.978 0 3.812-0.145 4.698 0.672 0.93 0.854 0.484 1.947-0.521 7.103h-2.324c0.967-4.987 1.149-5.401 0.798-5.778-0.339-0.364-1.112-0.289-2.977-0.289l-1.181 6.067h-2.292l2.054-10.589zM31.717 14.763c-0.503 2.581-2.305 2.28-4.403 2.28l0.86-4.434c2.399 0 4.007-0.258 3.542 2.154zM24.13 21.534h2.311l0.546-2.814c2.713 0 4.214 0.157 5.665-1.2 1.639-1.507 2.066-4.189 0.898-5.533-0.609-0.703-1.589-1.049-2.92-1.049h-4.44l-2.060 10.595z"></path>
</svg>
