<!-- Generated by IcoMoon.io -->
<svg version="1.1" xmlns="http://www.w3.org/2000/svg" width="36" height="32" viewBox="0 0 36 32">
<title>pied-piper-alt</title>
<path d="M15.199 11.278c0.396-0.741 0.829-1.068 1.627-1.369 1.715-0.647 2.525-1.916 3.699-3.209 0.747 0.527 0.754 1.545 1.985 1.445v1.369l0.396 0.019c2.349-0.904 4.692-1.897 6.695-3.429 3.034-2.311 3.322-3.14 5.106-6.281l0.126-0.163c-0.038 0.886-0.396 1.715-0.779 2.506-1.916 4.007-4.943 6.299-9.22 7.329-0.779 0.182-1.658 0.201-2.362 0.559 0.088 0.615 0.829 1.137 0.829 1.445 0 0.214-0.345 0.452-0.471 0.54-0.703-0.81-1.011-1.212-1.426-1.388-0.477-0.22-4.013-0.402-6.205 0.628zM23.86 27.413c-1.193 0-4.026 0.597-5.018 1.244l0.433 2.833c2.242 0.383 4.403 0.226 6.657-0.615-0.301-0.628-1.476-3.461-2.073-3.461zM15.325 14.983c-0.201-0.126-0.396-0.182-0.634-0.182-0.415 0-0.791 0.201-1.212 0.232l0.107 0.308 1.74-0.358zM14.533 16.981l1.514 3.844 1.319-0.867-1.966-3.197-0.867 0.22zM34.889-0.467l-0.038 0.069-0.019 0.057 0.038-0.038 0.019-0.088zM31.171 23.531c-2.129-3.574-4.729-7.436-9.421-7.254l-0.019-0.377c-0.069-0.848 2.060 0.201 2.205-1.947l-0.904 0.452c-1.244-2.87-0.54-3.41-4.114-3.41-0.923 0-1.677 0.107-2.6 0.289 0.182 1.168 0.138 2.305-0.685 3.159l1.225 0.345c-0.107 0.201-0.182 0.396-0.182 0.615 0 1.319 2.688 0.182 2.688 2.11 0 1.156-2.311 3.775-3.448 3.775-0.502 0-3.373-3.14-3.354-3.775l0.019-0.289 3.285-0.722c0.816-0.163 0.773-1.426-0.182-1.426-0.232 0-2.707 0.578-3.103 0.666-0.126-0.327-0.471-0.886-0.867-0.886-0.201 0-0.396 0.201-0.597 0.251-0.578 0.163-1.947 0.182-1.35 1.262l-8.768 1.909c-0.345 0.069-0.559 0.396-0.559 0.741 0 0.377 0.345 0.685 0.722 0.685 0.502 0 8.246-1.784 9.258-2.022 0.163 0.201 0.289 0.396 0.49 0.54 1.262 0.904 3.756 5.395 4.798 5.395 1.514 0 3.643-1.407 4.478-2.632 0.201-0.27 0.433-0.471 0.779-0.433 0.038 0.867-1.985 2.148-2.073 2.745-0.088 0.641-0.063 2.211-0.019 2.581 1.677 0.509 3.266-0.226 4.893-0.182 0.27-1.319 0.666-2.632 0.615-3.988l-0.019-0.597c-0.088-2.148-0.685-2.418-2.186-3.68-0.069-0.069-0.163-0.163-0.232-0.251 0.138-0.088 0.069-0.063 0.289-0.107 5.558 0 3.536 11.531 7.003 14.439 2.079-0.942 4.553-1.752 6.5-2.964-1.821-1.608-3.304-2.87-4.566-5.018zM18.848 26.42v1.715l0.741-0.214-0.182-1.495h-0.559zM23.628 26.602c0-0.088-0.038-0.201-0.057-0.289-1.683 0-2.317 0.239-3.737 0.396l0.126 0.779c0.565-0.094 3.668-0.415 3.668-0.886z"></path>
</svg>
