<!-- Generated by IcoMoon.io -->
<svg version="1.1" xmlns="http://www.w3.org/2000/svg" width="28" height="32" viewBox="0 0 28 32">
<title>pied-piper-pp</title>
<path d="M12.894 10.499c0 1.325-0.892 2.393-1.991 2.393-0.446 0-0.804-0.075-1.080-0.232v-4.271c0.276-0.17 0.634-0.264 1.080-0.264 1.099 0 1.991 1.061 1.991 2.374zM16.198 14.707c-0.446 0-0.804 0.094-1.080 0.264v4.271c0.276 0.157 0.634 0.232 1.080 0.232 1.093 0 1.991-1.061 1.991-2.374 0-1.325-0.898-2.393-1.991-2.393zM28.137 4.557v22.108c0 1.664-1.35 3.015-3.015 3.015h-22.108c-1.664 0-3.015-1.35-3.015-3.015v-22.108c0-1.664 1.35-3.015 3.015-3.015h22.108c1.664 0 3.015 1.35 3.015 3.015zM11.619 15.555c2.575 0 4.66-2.236 4.66-4.999s-2.085-4.999-4.66-4.999c-0.754 0-1.514 0.201-2.173 0.553h-2.87v12.957l3.253-0.634v-3.178c0.54 0.195 1.137 0.301 1.79 0.301zM21.568 17.144c0-2.763-2.085-4.999-4.641-4.999-0.201 0-0.402 0.012-0.603 0.044-0.232 0.785-0.634 1.495-1.206 2.098-0.867 0.942-2.022 1.495-3.253 1.558v9.817l3.253-0.634v-3.178c0.54 0.201 1.143 0.295 1.802 0.295 2.563 0 4.648-2.236 4.648-4.999z"></path>
</svg>
