<!-- Generated by IcoMoon.io -->
<svg version="1.1" xmlns="http://www.w3.org/2000/svg" width="28" height="32" viewBox="0 0 28 32">
<title>pied-piper</title>
<path d="M2.010 25.849l-2.010 3.781 0.050-20.6c0-4.139 3.341-7.486 7.486-7.486h20.55c-5.841 1.815-11.927 5.916-15.946 10.589-4.434 5.112-6.953 8.63-10.131 13.717zM28.137 1.543s-8.969 4.195-11.707 10.495c-1.457 3.366-1.815 7.417-4.459 9.961-1.815 1.746-4.384 2.399-6.613 3.536-1.457 0.754-4.17 2.544-5.332 4.145h20.626c4.145 0 7.493-3.348 7.493-7.486-0.006 0-0.006-20.651-0.006-20.651z"></path>
</svg>
