<!-- Generated by IcoMoon.io -->
<svg version="1.1" xmlns="http://www.w3.org/2000/svg" width="40" height="32" viewBox="0 0 40 32">
<title>pied-piper-hat</title>
<path d="M40.196 1.097c-5.075 3.366-5.615 5.81-6.054 6.557-0.421 0.766-0.735 3.787-1.463 5.251-0.735 1.482-3.404 2.65-4.151 3.14-0.735 0.49-1.777 2.393-2.632 4.032-6.789-0.276-10.514 2.437-16.279 5.879 1.847-0.609 2.72-1.049 2.72-1.049 5.916-2.261 8.749-4.29 17.655-3.090 0.069 0 0.119 0.038 0.176 0.050 0.245 0.138 0.333 0.433 0.195 0.678l-3.385 6.017c-0.157 0.295-0.49 0.452-0.823 0.383-7.964-1.495-14.251 1.087-20.029 1.168-4.61 0.069-6.124-2.104-6.124-2.205 0-0.069 0.038-0.107 0.107-0.107 0 0 2.405 0 6.475-0.961 4.622-8.812 8.743-11.895 13.227-11.895 0 0 4.503 0 5.69 3.888 1.432-2.493 1.777-3.090 1.777-3.090 0.333-0.59 2.198-4.849 5.426-8.881 3.235-4.020 5.678-5.018 7.493-5.766z"></path>
</svg>
