<!-- Generated by IcoMoon.io -->
<svg version="1.1" xmlns="http://www.w3.org/2000/svg" width="32" height="32" viewBox="0 0 32 32">
<title>pif-file-format-variant</title>
<path d="M11.146 23.285c-0.36 0-0.604 0.035-0.731 0.070v2.31c0.151 0.035 0.337 0.046 0.592 0.046 0.94 0 1.521-0.476 1.521-1.277-0-0.72-0.5-1.149-1.381-1.149zM27.737 7.239c-0.002-0.148-0.048-0.293-0.15-0.408l-6.201-7.082c-0.001-0.002-0.003-0.003-0.005-0.004-0.037-0.041-0.079-0.075-0.125-0.105-0.013-0.009-0.027-0.017-0.041-0.025-0.040-0.021-0.081-0.039-0.124-0.052-0.012-0.003-0.022-0.008-0.034-0.011-0.047-0.011-0.095-0.018-0.145-0.018h-15.238c-0.695 0-1.261 0.566-1.261 1.261v29.635c0 0.696 0.566 1.261 1.261 1.261h20.807c0.696 0 1.261-0.566 1.261-1.261v-23.119c0-0.024-0.004-0.047-0.006-0.071zM13.56 26.245c-0.603 0.569-1.498 0.824-2.542 0.824-0.232 0-0.441-0.011-0.603-0.035v2.797h-1.753v-7.719c0.545-0.093 1.312-0.162 2.392-0.162 1.091 0 1.869 0.209 2.391 0.627 0.499 0.394 0.836 1.045 0.836 1.811s-0.256 1.416-0.72 1.858zM17.181 29.832h-1.777v-7.824h1.777v7.824zM23.495 23.46h-3.006v1.788h2.809v1.439h-2.809v3.146h-1.776v-7.824h4.782v1.451h-0.001zM5.675 20.945v-20.151h14.607v6.452c0 0.348 0.282 0.631 0.631 0.631h5.569l0.001 13.068h-20.808zM15.69 4.72c-3.785 0-6.865 3.080-6.865 6.865s3.079 6.865 6.865 6.865 6.865-3.080 6.865-6.865c0-3.785-3.079-6.865-6.865-6.865zM15.69 17.246c-3.121 0-5.66-2.539-5.66-5.66s2.539-5.66 5.66-5.66c3.121 0 5.66 2.539 5.66 5.66s-2.539 5.66-5.66 5.66zM14.767 9.876h1.845v6.107h-1.845v-6.107zM15.74 7.186c-0.618 0-1.121 0.503-1.121 1.121s0.503 1.122 1.121 1.122 1.121-0.503 1.121-1.122c0-0.618-0.503-1.121-1.121-1.121z"></path>
</svg>
