<!-- Generated by IcoMoon.io -->
<svg version="1.1" xmlns="http://www.w3.org/2000/svg" width="36" height="32" viewBox="0 0 36 32">
<title>piggy-bank</title>
<path d="M35.171 13.602h-1.853c-0.553-1.256-1.357-2.368-2.349-3.297l1.187-4.742h-2.010c-1.847 0-3.479 0.848-4.585 2.154-0.477-0.069-0.948-0.144-1.445-0.144h-8.039c-4.861 0-8.912 3.454-9.848 8.039h-2.713c-0.93 0-1.664-0.848-1.476-1.809 0.138-0.716 0.81-1.206 1.539-1.206h0.063c0.207 0 0.377-0.17 0.377-0.377v-1.256c0-0.207-0.17-0.377-0.377-0.377-1.79 0-3.385 1.281-3.611 3.052-0.276 2.148 1.394 3.982 3.486 3.982h2.512c0 3.278 1.595 6.161 4.020 7.995v5.068c0 0.553 0.452 1.005 1.005 1.005h4.020c0.553 0 1.005-0.452 1.005-1.005v-3.015h8.039v3.015c0 0.553 0.452 1.005 1.005 1.005h4.020c0.553 0 1.005-0.452 1.005-1.005v-5.068c0.741-0.559 1.401-1.218 1.966-1.966h3.059c0.553 0 1.005-0.452 1.005-1.005v-8.039c0-0.553-0.452-1.005-1.005-1.005zM27.132 17.621c-0.553 0-1.005-0.452-1.005-1.005s0.452-1.005 1.005-1.005 1.005 0.452 1.005 1.005-0.452 1.005-1.005 1.005zM16.078 5.562h8.039c0.339 0 0.672 0.025 0.999 0.050 0-0.019 0.006-0.031 0.006-0.050 0-3.329-2.701-6.029-6.029-6.029s-6.029 2.701-6.029 6.029c0 0.132 0.031 0.258 0.038 0.389 0.955-0.245 1.947-0.389 2.977-0.389z"></path>
</svg>
