<!-- Generated by IcoMoon.io -->
<svg version="1.1" xmlns="http://www.w3.org/2000/svg" width="36" height="32" viewBox="0 0 36 32">
<title>pills</title>
<path d="M7.034 1.543c-3.888 0-7.034 3.147-7.034 7.034v14.069c0 3.888 3.147 7.034 7.034 7.034s7.034-3.147 7.034-7.034v-14.069c0-3.888-3.147-7.034-7.034-7.034zM10.049 15.611h-6.029v-7.034c0-1.664 1.35-3.015 3.015-3.015s3.015 1.35 3.015 3.015v7.034zM18.823 13.746c-0.22-0.22-0.59-0.195-0.773 0.050-2.845 3.925-2.537 9.427 0.999 12.963s9.038 3.844 12.963 0.999c0.251-0.182 0.27-0.553 0.050-0.773l-13.24-13.24zM33.256 12.553c-3.536-3.536-9.038-3.844-12.963-0.999-0.251 0.182-0.27 0.553-0.050 0.773l13.24 13.24c0.22 0.22 0.59 0.195 0.773-0.050 2.845-3.932 2.544-9.427-0.999-12.963z"></path>
</svg>
