<!-- Generated by IcoMoon.io -->
<svg version="1.1" xmlns="http://www.w3.org/2000/svg" width="31" height="32" viewBox="0 0 31 32">
<title>pinterest</title>
<path d="M31.152 15.611c0 8.604-6.971 15.576-15.576 15.576-1.608 0-3.153-0.245-4.61-0.697 0.634-1.036 1.583-2.732 1.934-4.082 0.188-0.729 0.967-3.706 0.967-3.706 0.509 0.967 1.991 1.79 3.567 1.79 4.698 0 8.083-4.321 8.083-9.691 0-5.144-4.202-8.994-9.603-8.994-6.72 0-10.294 4.51-10.294 9.427 0 2.286 1.218 5.131 3.159 6.036 0.295 0.138 0.452 0.075 0.521-0.207 0.050-0.214 0.314-1.275 0.433-1.765 0.038-0.157 0.019-0.295-0.107-0.446-0.634-0.785-1.149-2.217-1.149-3.555 0-3.435 2.6-6.758 7.034-6.758 3.825 0 6.507 2.606 6.507 6.337 0 4.214-2.129 7.135-4.899 7.135-1.526 0-2.676-1.262-2.305-2.814 0.44-1.853 1.288-3.85 1.288-5.188 0-1.193-0.641-2.192-1.972-2.192-1.564 0-2.82 1.614-2.82 3.781 0 1.382 0.465 2.311 0.465 2.311s-1.539 6.519-1.821 7.738c-0.314 1.344-0.188 3.241-0.057 4.472-5.791-2.267-9.898-7.907-9.898-14.508 0-8.604 6.971-15.576 15.576-15.576s15.576 6.971 15.576 15.576z"></path>
</svg>
