<!-- Generated by IcoMoon.io -->
<svg version="1.1" xmlns="http://www.w3.org/2000/svg" width="24" height="32" viewBox="0 0 24 32">
<title>pinterest-p</title>
<path d="M12.812-0.059c-6.444 0-12.812 4.296-12.812 11.249 0 4.422 2.487 6.934 3.994 6.934 0.622 0 0.98-1.733 0.98-2.223 0-0.584-1.488-1.828-1.488-4.258 0-5.050 3.844-8.63 8.818-8.63 4.277 0 7.443 2.431 7.443 6.896 0 3.335-1.338 9.59-5.671 9.59-1.564 0-2.902-1.13-2.902-2.751 0-2.374 1.658-4.673 1.658-7.122 0-4.158-5.897-3.404-5.897 1.62 0 1.055 0.132 2.223 0.603 3.184-0.867 3.731-2.638 9.289-2.638 13.133 0 1.187 0.17 2.355 0.283 3.542 0.214 0.239 0.107 0.214 0.433 0.094 3.165-4.334 3.052-5.181 4.484-10.853 0.773 1.47 2.77 2.261 4.352 2.261 6.67 0 9.666-6.5 9.666-12.36 0-6.237-5.389-10.306-11.305-10.306z"></path>
</svg>
