<!-- Generated by IcoMoon.io -->
<svg version="1.1" xmlns="http://www.w3.org/2000/svg" width="28" height="32" viewBox="0 0 28 32">
<title>pinterest-square</title>
<path d="M28.137 4.557v22.108c0 1.664-1.35 3.015-3.015 3.015h-15.425c0.615-1.030 1.407-2.512 1.721-3.724 0.188-0.722 0.961-3.668 0.961-3.668 0.502 0.961 1.972 1.771 3.536 1.771 4.654 0 8.002-4.277 8.002-9.591 0-5.094-4.158-8.906-9.509-8.906-6.657 0-10.187 4.465-10.187 9.333 0 2.261 1.206 5.075 3.128 5.973 0.295 0.138 0.446 0.075 0.515-0.207 0.050-0.214 0.314-1.262 0.427-1.746 0.038-0.157 0.019-0.289-0.107-0.44-0.634-0.773-1.149-2.192-1.149-3.517 0-3.404 2.575-6.695 6.965-6.695 3.787 0 6.444 2.581 6.444 6.274 0 4.17-2.104 7.059-4.849 7.059-1.514 0-2.644-1.25-2.286-2.789 0.433-1.834 1.275-3.812 1.275-5.138 0-3.329-4.742-2.87-4.742 1.57 0 1.363 0.458 2.292 0.458 2.292-1.972 8.341-2.267 8.447-1.859 12.096l0.138 0.050h-5.565c-1.664 0-3.015-1.35-3.015-3.015v-22.108c0-1.664 1.35-3.015 3.015-3.015h22.108c1.664 0 3.015 1.35 3.015 3.015z"></path>
</svg>
