<!-- Generated by IcoMoon.io -->
<svg version="1.1" xmlns="http://www.w3.org/2000/svg" width="32" height="32" viewBox="0 0 32 32">
<title>pkg-file-format-variant</title>
<path d="M27.737 7.239c-0.002-0.148-0.049-0.293-0.15-0.408l-6.2-7.082c-0.001-0.002-0.003-0.003-0.005-0.004-0.037-0.041-0.079-0.075-0.125-0.105-0.013-0.009-0.027-0.017-0.041-0.025-0.040-0.021-0.081-0.039-0.124-0.052-0.012-0.003-0.022-0.008-0.034-0.011-0.047-0.011-0.095-0.018-0.145-0.018h-15.238c-0.695 0-1.261 0.566-1.261 1.261v29.635c0 0.696 0.566 1.261 1.261 1.261h20.807c0.696 0 1.261-0.566 1.261-1.261v-23.119c-0-0.024-0.004-0.047-0.006-0.071zM11.552 26.36c-0.555 0.523-1.378 0.758-2.339 0.758-0.214 0-0.406-0.010-0.556-0.032v2.574h-1.612v-7.101c0.502-0.086 1.207-0.15 2.2-0.15 1.004 0 1.719 0.192 2.2 0.576 0.459 0.363 0.769 0.961 0.769 1.666s-0.235 1.303-0.662 1.709zM17.245 29.66l-1.762-3.108-0.619 0.758v2.349h-1.612v-7.197h1.612v3.182h0.032c0.16-0.278 0.331-0.534 0.491-0.79l1.634-2.392h1.997l-2.381 3.065 2.509 4.133-1.9 0.001zM25.47 29.329c-0.502 0.171-1.453 0.406-2.403 0.406-1.314 0-2.264-0.331-2.926-0.972-0.662-0.619-1.025-1.559-1.015-2.616 0.011-2.392 1.752-3.759 4.112-3.759 0.929 0 1.644 0.181 1.997 0.352l-0.342 1.303c-0.395-0.171-0.887-0.31-1.677-0.31-1.356 0-2.381 0.769-2.381 2.328 0 1.485 0.929 2.36 2.264 2.36 0.374 0 0.672-0.043 0.801-0.107v-1.506h-1.111v-1.271h2.68v3.791zM5.675 20.945v-20.151h14.607v6.452c0 0.348 0.282 0.631 0.631 0.631h5.569l0.001 13.068h-20.808zM9.331 23.637c-0.331 0-0.555 0.032-0.673 0.064v2.125c0.139 0.032 0.31 0.043 0.545 0.043 0.865 0 1.399-0.438 1.399-1.175-0-0.662-0.459-1.057-1.271-1.057zM14.512 14.114l-3.354-0.949v3.345l4.983 1.533v-7.571l-0.705 1.604zM17.033 12.107l-0.605-1.539v7.475l4.984-1.533v-3.809l-3.642 1.030zM16.573 9.817l1.457 3.215 4.245-1.2-1.229-2.246 0.001-0.012-0.008-0.001-0.008-0.013-0.099 0.006-1.229-0.095v-2.499h-7.251v2.488l-1.641 0.105-0.109-0.006-0.008 0.014-0.010 0.001 0.001 0.016-1.373 2.509 4.743 1.342 1.63-3.594-2.494-0.144 3.14-0.203 2.444 0.189-2.203 0.127zM16.334 9.211l-3.566 0.229v-2.152h6.62v2.159l-3.054-0.235z"></path>
</svg>
