<!-- Generated by IcoMoon.io -->
<svg version="1.1" xmlns="http://www.w3.org/2000/svg" width="32" height="32" viewBox="0 0 32 32">
<title>place-marker-2</title>
<path d="M16.031-0.185c-4.83 0-8.744 3.915-8.744 8.744 0 6.246 8.744 16.031 8.744 16.031s8.744-9.785 8.744-16.031c0-4.83-3.915-8.744-8.744-8.744zM16.031 5.437c1.726 0 3.123 1.397 3.123 3.123 0 1.724-1.398 3.123-3.123 3.123s-3.123-1.397-3.123-3.123c0-1.726 1.397-3.123 3.123-3.123zM9.445 20.854c-4.735 0.962-7.987 2.924-7.987 5.195 0 3.219 6.525 5.83 14.574 5.83s14.574-2.61 14.574-5.83c0-2.271-3.252-4.231-7.987-5.195-0.659 0.963-1.304 1.846-1.899 2.619 3.982 0.603 6.339 1.865 6.897 2.573-0.751 0.953-4.741 2.915-11.582 2.915l-0.003 0.006-0.003-0.003c-6.841 0-10.83-1.96-11.582-2.915 0.558-0.71 2.914-1.974 6.897-2.576-0.595-0.774-1.24-1.657-1.899-2.619z"></path>
</svg>
