<!-- Generated by IcoMoon.io -->
<svg version="1.1" xmlns="http://www.w3.org/2000/svg" width="32" height="32" viewBox="0 0 32 32">
<title>place-marker</title>
<path d="M16.031-0.165c-4.933 0-8.949 4.015-8.949 8.949 0 4.088 2.144 8.776 4.254 12.5s4.213 6.481 4.213 6.481c0.113 0.153 0.291 0.246 0.482 0.246s0.369-0.093 0.482-0.246c0 0 2.107-2.794 4.213-6.541s4.254-8.437 4.254-12.44c0-4.933-4.015-8.949-8.949-8.949zM16.031 1.039c4.289 0 7.745 3.456 7.745 7.745 0 3.566-2.026 8.186-4.093 11.858-1.688 3.002-3.092 4.971-3.652 5.738-0.562-0.757-1.966-2.701-3.652-5.678-2.064-3.647-4.093-8.256-4.093-11.918 0-4.289 3.456-7.745 7.745-7.745zM16.031 4.952c-2.463 0-4.474 2.011-4.474 4.474s2.011 4.474 4.474 4.474c2.463 0 4.474-2.011 4.474-4.474s-2.011-4.474-4.474-4.474zM16.031 6.196c1.793 0 3.23 1.437 3.23 3.23s-1.437 3.23-3.23 3.23c-1.793 0-3.23-1.437-3.23-3.23s1.437-3.23 3.23-3.23zM9.711 21.725c-2.568 0.376-4.74 0.971-6.34 1.746-0.8 0.386-1.462 0.818-1.946 1.324s-0.803 1.136-0.803 1.806c0 0.918 0.587 1.703 1.425 2.327s1.969 1.129 3.351 1.565c2.761 0.873 6.501 1.404 10.634 1.404s7.873-0.532 10.634-1.404c1.382-0.436 2.513-0.941 3.351-1.565s1.425-1.41 1.425-2.327c0-0.667-0.319-1.299-0.803-1.806s-1.146-0.938-1.946-1.324c-1.6-0.775-3.772-1.369-6.34-1.746-0.354-0.055-0.687 0.188-0.742 0.542s0.188 0.687 0.542 0.742c2.478 0.364 4.565 0.941 5.979 1.625 0.707 0.344 1.254 0.717 1.585 1.063s0.441 0.635 0.441 0.903c0 0.369-0.246 0.793-0.903 1.284s-1.678 0.976-2.97 1.384c-2.583 0.815-6.23 1.344-10.253 1.344s-7.67-0.529-10.253-1.344c-1.292-0.409-2.312-0.893-2.97-1.384s-0.903-0.915-0.903-1.284c0-0.268 0.11-0.557 0.441-0.903s0.878-0.72 1.585-1.063c1.415-0.685 3.501-1.262 5.979-1.625 0.354-0.055 0.597-0.389 0.542-0.742s-0.389-0.597-0.742-0.542z"></path>
</svg>
