<!-- Generated by IcoMoon.io -->
<svg version="1.1" xmlns="http://www.w3.org/2000/svg" width="40" height="32" viewBox="0 0 40 32">
<title>place-of-worship</title>
<path d="M38.978 22.555l-6.821-2.924v12.059h7.034c0.555 0 1.005-0.45 1.005-1.005v-6.283c-0-0.824-0.496-1.532-1.205-1.842l-0.013-0.005zM0 24.402v6.283c0 0.555 0.45 1.005 1.005 1.005h7.034v-12.059l-6.821 2.924c-0.722 0.315-1.218 1.023-1.218 1.847v0zM29.171 15.026l-3.044-1.826v-7.221c0-0.533-0.212-1.044-0.589-1.421l-4.73-4.73c-0.392-0.393-1.029-0.393-1.421 0l-4.73 4.73c-0.377 0.377-0.589 0.888-0.589 1.421v7.221l-3.044 1.826c-0.589 0.357-0.976 0.995-0.976 1.723v0 14.94h6.029v-6.029c0-2.22 1.8-4.020 4.020-4.020s4.020 1.799 4.020 4.020v6.029h6.029v-14.94c0-0.706-0.371-1.36-0.976-1.723z"></path>
</svg>
