<!-- Generated by IcoMoon.io -->
<svg version="1.1" xmlns="http://www.w3.org/2000/svg" width="40" height="32" viewBox="0 0 40 32">
<title>plane-arrival</title>
<path d="M39.191 27.67h-38.186c-0.555 0-1.005 0.45-1.005 1.005v2.010c0 0.555 0.45 1.005 1.005 1.005h38.186c0.555 0 1.005-0.45 1.005-1.005v-2.010c0-0.555-0.45-1.005-1.005-1.005zM2.814 12.45l5.573 5.024c0.441 0.399 0.978 0.702 1.572 0.868l0.028 0.007 18.063 4.921c1.663 0.453 3.427 0.548 5.087 0.085 1.863-0.519 2.728-1.332 2.968-2.243 0.241-0.911-0.109-2.054-1.468-3.452-1.211-1.245-2.785-2.059-4.449-2.512l-6.124-1.668-6.303-12.049c-0.095-0.365-0.374-0.65-0.732-0.748l-4.088-1.114c-0.663-0.181-1.313 0.334-1.301 1.032l3.010 10.313-6.419-1.749-1.733-4.263c-0.121-0.307-0.378-0.538-0.692-0.624l-2.495-0.68c-0.649-0.177-1.289 0.314-1.301 0.997l0.014 6.392c0.012 0.56 0.379 1.089 0.79 1.46z"></path>
</svg>
