<!-- Generated by IcoMoon.io -->
<svg version="1.1" xmlns="http://www.w3.org/2000/svg" width="40" height="32" viewBox="0 0 40 32">
<title>plane-departure</title>
<path d="M39.191 27.67h-38.186c-0.555 0-1.005 0.45-1.005 1.005v2.010c0 0.555 0.45 1.005 1.005 1.005h38.186c0.555 0 1.005-0.45 1.005-1.005v-2.010c0-0.555-0.45-1.005-1.005-1.005zM5.059 20.967c0.394 0.43 0.948 0.673 1.528 0.673l8.199-0.011c0.679-0.001 1.32-0.166 1.885-0.458l-0.023 0.011 18.274-9.273c1.679-0.852 3.185-2.069 4.209-3.662 1.15-1.789 1.275-3.083 0.821-3.998-0.453-0.915-1.554-1.587-3.658-1.724-1.875-0.122-3.739 0.372-5.419 1.223l-6.187 3.14-13.736-5.154c-0.175-0.119-0.392-0.191-0.625-0.191-0.185 0-0.359 0.045-0.512 0.124l0.006-0.003-4.13 2.096c-0.67 0.34-0.832 1.234-0.325 1.792l9.812 6.161-6.482 3.29-4.544-2.291c-0.147-0.075-0.32-0.12-0.503-0.12s-0.359 0.045-0.512 0.124l0.006-0.003-2.52 1.279c-0.656 0.333-0.828 1.201-0.35 1.764l4.786 5.211z"></path>
</svg>
