<!-- Generated by IcoMoon.io -->
<svg version="1.1" xmlns="http://www.w3.org/2000/svg" width="36" height="32" viewBox="0 0 36 32">
<title>plane</title>
<path d="M30.147 11.592h-7.178l-6.601-11.553c-0.177-0.305-0.501-0.506-0.873-0.506-0 0-0 0-0 0h-4.114c-0.668 0-1.149 0.639-0.966 1.281l3.079 10.778h-6.46l-2.713-3.618c-0.19-0.253-0.488-0.402-0.804-0.402h-2.512c-0.654 0-1.134 0.614-0.975 1.249l1.979 6.791-1.979 6.791c-0.159 0.634 0.321 1.249 0.975 1.249h2.512c0.317 0 0.614-0.149 0.804-0.402l2.713-3.618h6.46l-3.079 10.777c-0.183 0.642 0.298 1.281 0.966 1.281h4.114c0.36 0 0.693-0.193 0.872-0.506l6.602-11.553h7.178c2.22 0 6.029-1.799 6.029-4.020s-3.809-4.020-6.029-4.020z"></path>
</svg>
