<!-- Generated by IcoMoon.io -->
<svg version="1.1" xmlns="http://www.w3.org/2000/svg" width="36" height="32" viewBox="0 0 36 32">
<title>playstation</title>
<path d="M35.856 22.916c-0.71 0.892-2.437 1.526-2.437 1.526l-12.882 4.622v-3.41l9.477-3.379c1.074-0.383 1.244-0.93 0.364-1.218-0.873-0.289-2.456-0.207-3.53 0.182l-6.312 2.23v-3.542c1.457-0.49 2.958-0.854 4.754-1.055 2.569-0.283 5.709 0.038 8.177 0.973 2.776 0.879 3.090 2.179 2.387 3.071zM21.762 17.106v-8.73c0-1.024-0.188-1.966-1.149-2.236-0.735-0.239-1.193 0.446-1.193 1.47v21.85l-5.891-1.872v-26.046c2.506 0.465 6.155 1.564 8.115 2.223 4.993 1.715 6.683 3.85 6.683 8.655 0 4.679-2.889 6.456-6.563 4.685zM2.713 25.296c-2.851-0.804-3.329-2.481-2.029-3.442 1.2-0.892 3.247-1.564 3.247-1.564l8.447-3.002v3.423l-6.080 2.173c-1.074 0.383-1.237 0.93-0.364 1.218s2.456 0.207 3.53-0.182l2.914-1.061v3.065c-3.241 0.584-6.369 0.458-9.666-0.628z"></path>
</svg>
