<!-- Generated by IcoMoon.io -->
<svg version="1.1" xmlns="http://www.w3.org/2000/svg" width="32" height="32" viewBox="0 0 32 32">
<title>play-circle</title>
<path d="M23.345 14.481l-11.054-6.72c-0.992-0.553-2.242 0.157-2.242 1.319v13.064c0 1.156 1.244 1.872 2.242 1.319l11.054-6.343c1.030-0.572 1.030-2.060 0-2.638zM31.654 15.611c0-8.604-6.971-15.576-15.576-15.576s-15.576 6.971-15.576 15.576 6.971 15.576 15.576 15.576 15.576-6.971 15.576-15.576zM3.517 15.611c0-6.94 5.621-12.561 12.561-12.561s12.561 5.621 12.561 12.561-5.621 12.561-12.561 12.561-12.561-5.621-12.561-12.561z"></path>
</svg>
