<!-- Generated by IcoMoon.io -->
<svg version="1.1" xmlns="http://www.w3.org/2000/svg" width="24" height="32" viewBox="0 0 24 32">
<title>plug</title>
<path d="M16.078 8.577v-7.034c0-1.11 0.9-2.010 2.010-2.010s2.010 0.9 2.010 2.010v7.034h-4.020zM23.113 9.582h-22.108c-0.555 0-1.005 0.45-1.005 1.005v2.010c0 0.555 0.45 1.005 1.005 1.005h1.005v2.010c0 4.862 3.452 8.917 8.039 9.848v6.231h4.020v-6.231c4.587-0.931 8.039-4.986 8.039-9.848v-2.010h1.005c0.555 0 1.005-0.45 1.005-1.005v-2.010c0-0.555-0.45-1.005-1.005-1.005zM8.039 8.577v-7.034c0-1.11-0.9-2.010-2.010-2.010s-2.010 0.9-2.010 2.010v7.034h4.020z"></path>
</svg>
