<!-- Generated by IcoMoon.io -->
<svg version="1.1" xmlns="http://www.w3.org/2000/svg" width="32" height="32" viewBox="0 0 32 32">
<title>plus1</title>
<path d="M16 0.010c-4.098 0-8.197 1.559-11.315 4.678-6.237 6.237-6.237 16.393 0 22.631 3.119 3.119 7.231 4.692 11.315 4.692s8.197-1.573 11.315-4.692c6.237-6.237 6.237-16.393 0-22.631-3.119-3.119-7.217-4.678-11.315-4.678zM16 1.652c3.671 0 7.341 1.407 10.156 4.195 5.575 5.602 5.575 14.71 0 20.313-5.602 5.602-14.71 5.602-20.285 0-5.602-5.602-5.603-14.71-0.028-20.313 2.815-2.787 6.486-4.195 10.156-4.195zM16 9.931c-0.469 0-0.828 0.359-0.828 0.828v4.416h-4.416c-0.469 0-0.828 0.359-0.828 0.828s0.359 0.828 0.828 0.828h4.416v4.416c0 0.469 0.359 0.828 0.828 0.828s0.828-0.359 0.828-0.828v-4.416h4.416c0.469 0 0.828-0.359 0.828-0.828s-0.359-0.828-0.828-0.828h-4.416v-4.416c0-0.469-0.359-0.828-0.828-0.828z"></path>
</svg>
