<!-- Generated by IcoMoon.io -->
<svg version="1.1" xmlns="http://www.w3.org/2000/svg" width="32" height="32" viewBox="0 0 32 32">
<title>plus-circle</title>
<path d="M16.078 0.035c-8.604 0-15.576 6.971-15.576 15.576s6.971 15.576 15.576 15.576 15.576-6.971 15.576-15.576-6.971-15.576-15.576-15.576zM25.122 17.37c0 0.415-0.339 0.754-0.754 0.754h-5.778v5.778c0 0.415-0.339 0.754-0.754 0.754h-3.517c-0.415 0-0.754-0.339-0.754-0.754v-5.778h-5.778c-0.415 0-0.754-0.339-0.754-0.754v-3.517c0-0.415 0.339-0.754 0.754-0.754h5.778v-5.778c0-0.415 0.339-0.754 0.754-0.754h3.517c0.415 0 0.754 0.339 0.754 0.754v5.778h5.778c0.415 0 0.754 0.339 0.754 0.754v3.517z"></path>
</svg>
