<!-- Generated by IcoMoon.io -->
<svg version="1.1" xmlns="http://www.w3.org/2000/svg" width="28" height="32" viewBox="0 0 28 32">
<title>plus-square</title>
<path d="M22.108 14.606v2.010c0 0.415-0.339 0.754-0.754 0.754h-5.527v5.527c0 0.415-0.339 0.754-0.754 0.754h-2.010c-0.415 0-0.754-0.339-0.754-0.754v-5.527h-5.527c-0.415 0-0.754-0.339-0.754-0.754v-2.010c0-0.415 0.339-0.754 0.754-0.754h5.527v-5.527c0-0.415 0.339-0.754 0.754-0.754h2.010c0.415 0 0.754 0.339 0.754 0.754v5.527h5.527c0.415 0 0.754 0.339 0.754 0.754zM28.137 4.557v22.108c0 1.664-1.35 3.015-3.015 3.015h-22.108c-1.664 0-3.015-1.35-3.015-3.015v-22.108c0-1.664 1.35-3.015 3.015-3.015h22.108c1.664 0 3.015 1.35 3.015 3.015zM25.122 26.288v-21.354c0-0.207-0.17-0.377-0.377-0.377h-21.354c-0.207 0-0.377 0.17-0.377 0.377v21.354c0 0.207 0.17 0.377 0.377 0.377h21.354c0.207 0 0.377-0.17 0.377-0.377z"></path>
</svg>
