<!-- Generated by IcoMoon.io -->
<svg version="1.1" xmlns="http://www.w3.org/2000/svg" width="28" height="32" viewBox="0 0 28 32">
<title>plus</title>
<path d="M26.127 12.597h-9.044v-9.044c0-1.11-0.9-2.010-2.010-2.010h-2.010c-1.11 0-2.010 0.9-2.010 2.010v9.044h-9.044c-1.11 0-2.010 0.9-2.010 2.010v2.010c0 1.11 0.9 2.010 2.010 2.010h9.044v9.044c0 1.11 0.9 2.010 2.010 2.010h2.010c1.11 0 2.010-0.9 2.010-2.010v-9.044h9.044c1.11 0 2.010-0.9 2.010-2.010v-2.010c0-1.11-0.9-2.010-2.010-2.010z"></path>
</svg>
