<!-- Generated by IcoMoon.io -->
<svg version="1.1" xmlns="http://www.w3.org/2000/svg" width="28" height="32" viewBox="0 0 28 32">
<title>plus-square1</title>
<path d="M25.122 1.543h-22.108c-1.664 0-3.015 1.35-3.015 3.015v22.108c0 1.664 1.35 3.015 3.015 3.015h22.108c1.664 0 3.015-1.35 3.015-3.015v-22.108c0-1.664-1.35-3.015-3.015-3.015zM23.113 17.37c0 0.415-0.339 0.754-0.754 0.754h-5.778v5.778c0 0.415-0.339 0.754-0.754 0.754h-3.517c-0.415 0-0.754-0.339-0.754-0.754v-5.778h-5.778c-0.415 0-0.754-0.339-0.754-0.754v-3.517c0-0.415 0.339-0.754 0.754-0.754h5.778v-5.778c0-0.415 0.339-0.754 0.754-0.754h3.517c0.415 0 0.754 0.339 0.754 0.754v5.778h5.778c0.415 0 0.754 0.339 0.754 0.754v3.517z"></path>
</svg>
