<!-- Generated by IcoMoon.io -->
<svg version="1.1" xmlns="http://www.w3.org/2000/svg" width="32" height="32" viewBox="0 0 32 32">
<title>png-file-extension-interface-symbol</title>
<path d="M8.871 23.709c-0.331 0-0.556 0.032-0.674 0.065v2.13c0.139 0.032 0.31 0.043 0.546 0.043 0.867 0 1.403-0.439 1.403-1.178 0-0.664-0.46-1.060-1.275-1.060zM20.648 7.817l0.003 0.001v-0.001zM27.737 7.239c-0.002-0.148-0.049-0.293-0.15-0.408l-6.2-7.082c-0.001-0.002-0.003-0.003-0.005-0.004-0.037-0.041-0.079-0.075-0.125-0.105-0.013-0.009-0.027-0.017-0.041-0.025-0.040-0.021-0.081-0.039-0.124-0.052-0.012-0.003-0.022-0.008-0.034-0.011-0.047-0.011-0.095-0.018-0.144-0.018h-15.238c-0.695 0-1.261 0.566-1.261 1.261v29.635c0 0.696 0.566 1.261 1.261 1.261h20.807c0.695 0 1.261-0.566 1.261-1.261v-23.119c-0-0.024-0.004-0.047-0.006-0.071zM11.099 26.439c-0.557 0.525-1.381 0.76-2.345 0.76-0.214 0-0.408-0.011-0.557-0.032v2.58h-1.617v-7.12c0.503-0.086 1.21-0.15 2.206-0.15 1.006 0 1.724 0.192 2.205 0.578 0.46 0.364 0.771 0.963 0.771 1.67s-0.235 1.307-0.663 1.713zM18.776 29.748h-1.713l-1.542-2.784c-0.429-0.771-0.9-1.702-1.254-2.548l-0.031 0.010c0.043 0.953 0.064 1.97 0.064 3.148v2.174h-1.499v-7.216h1.906l1.5 2.644c0.428 0.76 0.857 1.659 1.177 2.473h0.032c-0.107-0.953-0.139-1.927-0.139-3.009v-2.109h1.5v7.216zM26.218 29.416c-0.503 0.171-1.456 0.407-2.409 0.407-1.317 0-2.27-0.332-2.934-0.975-0.663-0.621-1.028-1.563-1.018-2.623 0.010-2.398 1.756-3.769 4.122-3.769 0.932 0 1.65 0.182 2.003 0.353l-0.342 1.306c-0.397-0.171-0.889-0.31-1.682-0.31-1.359 0-2.387 0.771-2.387 2.334 0 1.489 0.932 2.366 2.27 2.366 0.375 0 0.675-0.042 0.803-0.107v-1.51h-1.114v-1.274h2.687v3.801h0zM5.675 20.945v-20.151h14.607v4.536h0.394v2.487h2.461v0.060h3.345l0.001 13.068h-20.808zM10.761 15.278h2.443v-2.487h-2.461v-2.487h2.461v-2.487h-2.461v-2.487h-2.487v2.487h2.461v2.487h-2.461v2.487h2.461v2.487h-2.443v2.487h2.461v2.487h2.486v-2.487h-2.461zM15.728 15.278h2.443v-2.487h-2.461v-2.487h2.461v-2.487h-2.461v-2.487h-2.488v2.487h2.461v2.487h-2.461v2.487h2.461v2.487h-2.443v2.487h2.461v2.487h2.487v-2.487h-2.461zM18.189 7.817h2.459c-0.216-0.1-0.366-0.317-0.366-0.571v-1.916h-2.093v2.487zM20.65 7.818v2.486h-2.461v2.487h2.461v2.487h-2.443v2.487h2.462v2.487h2.487v-2.487h-2.461v-2.487h2.443v-2.487h-2.461v-2.487h2.461v-2.427h-2.225c-0.094 0-0.182-0.022-0.262-0.059z"></path>
</svg>
