<!-- Generated by IcoMoon.io -->
<svg version="1.1" xmlns="http://www.w3.org/2000/svg" width="28" height="32" viewBox="0 0 28 32">
<title>podcast</title>
<path d="M16.796 30.218c-0.323 1.194-1.543 1.472-2.728 1.472s-2.405-0.278-2.728-1.472c-0.48-1.786-1.292-6.26-1.292-8.341 0-2.208 1.956-2.748 4.020-2.748s4.020 0.54 4.020 2.748c0 2.069-0.808 6.543-1.292 8.341zM9.852 17.656c-1.174-1.15-1.882-2.774-1.808-4.56 0.129-3.123 2.663-5.65 5.786-5.771 3.433-0.133 6.268 2.621 6.268 6.025 0 1.685-0.695 3.21-1.813 4.305-0.168 0.165-0.151 0.439 0.039 0.577 0.585 0.425 1.034 0.964 1.334 1.593 0.109 0.229 0.408 0.293 0.593 0.119 1.81-1.698 2.924-4.132 2.858-6.819-0.117-4.786-3.994-8.68-8.78-8.816-5.106-0.145-9.306 3.967-9.306 9.040 0 2.598 1.101 4.943 2.861 6.594 0.185 0.174 0.484 0.111 0.594-0.119 0.3-0.629 0.749-1.168 1.334-1.593 0.19-0.138 0.207-0.412 0.039-0.577zM14.069-0.467c-7.775 0-14.069 6.292-14.069 14.069 0 5.652 3.304 10.404 7.897 12.65 0.272 0.133 0.582-0.097 0.536-0.396-0.15-0.974-0.273-1.944-0.34-2.785-0.009-0.115-0.072-0.219-0.168-0.283-2.977-1.998-4.934-5.402-4.911-9.254 0.037-6.044 4.98-10.969 11.024-10.985 6.109-0.016 11.083 4.949 11.083 11.054 0 3.89-2.020 7.316-5.065 9.287-0.063 0.882-0.193 1.921-0.353 2.966-0.046 0.299 0.264 0.529 0.536 0.396 4.583-2.241 7.897-6.985 7.897-12.65 0-7.775-6.292-14.069-14.069-14.069zM14.069 9.582c-2.22 0-4.020 1.8-4.020 4.020s1.8 4.020 4.020 4.020 4.020-1.8 4.020-4.020-1.8-4.020-4.020-4.020z"></path>
</svg>
