<!-- Generated by IcoMoon.io -->
<svg version="1.1" xmlns="http://www.w3.org/2000/svg" width="28" height="32" viewBox="0 0 28 32">
<title>poll-h</title>
<path d="M28.137 26.665v-22.108c0-1.664-1.35-3.015-3.015-3.015h-22.108c-1.664 0-3.015 1.35-3.015 3.015v22.108c0 1.664 1.35 3.015 3.015 3.015h22.108c1.664 0 3.015-1.35 3.015-3.015zM7.034 11.592c-0.555 0-1.005-0.45-1.005-1.005v-2.010c0-0.555 0.45-1.005 1.005-1.005h8.039c0.555 0 1.005 0.45 1.005 1.005v2.010c0 0.555-0.45 1.005-1.005 1.005h-8.039zM7.034 17.621c-0.555 0-1.005-0.45-1.005-1.005v-2.010c0-0.555 0.45-1.005 1.005-1.005h14.069c0.555 0 1.005 0.45 1.005 1.005v2.010c0 0.555-0.45 1.005-1.005 1.005h-14.069zM7.034 23.651c-0.555 0-1.005-0.45-1.005-1.005v-2.010c0-0.555 0.45-1.005 1.005-1.005h4.020c0.555 0 1.005 0.45 1.005 1.005v2.010c0 0.555-0.45 1.005-1.005 1.005h-4.020z"></path>
</svg>
