<!-- Generated by IcoMoon.io -->
<svg version="1.1" xmlns="http://www.w3.org/2000/svg" width="28" height="32" viewBox="0 0 28 32">
<title>poo-storm</title>
<path d="M19.344 20.636h-3.624l1.087-4.076c0.126-0.477-0.232-0.948-0.729-0.948h-4.271c-0.377 0-0.697 0.283-0.747 0.653l-1.005 7.537c-0.063 0.452 0.289 0.854 0.747 0.854h3.724l-1.445 6.105c-0.113 0.477 0.251 0.93 0.735 0.93 0.264 0 0.515-0.138 0.653-0.377l5.527-9.547c0.289-0.503-0.075-1.13-0.653-1.13zM23.515 13.646c0.371-0.603 0.603-1.294 0.603-2.054 0-2.217-1.802-4.020-4.020-4.020h-0.371c0.226-0.634 0.371-1.3 0.371-2.010 0-3.329-2.701-6.029-6.029-6.029-0.327 0-0.641 0.044-0.948 0.094 0.59 0.823 0.948 1.828 0.948 2.92 0 2.776-2.248 5.024-5.024 5.024h-1.005c-2.217 0-4.020 1.803-4.020 4.020 0 0.76 0.232 1.451 0.603 2.054-2.575 0.207-4.622 2.355-4.622 4.98 0 2.763 2.261 5.024 5.024 5.024h3.034c0.006-0.038 0-0.075 0-0.113l1.005-7.537c0.188-1.369 1.363-2.399 2.745-2.399h4.271c0.867 0 1.664 0.396 2.192 1.080s0.703 1.558 0.477 2.393l-0.415 1.551h1.005c0.986 0 1.903 0.527 2.393 1.382s0.49 1.916 0 2.763l-0.509 0.879h1.884c2.763 0 5.024-2.261 5.024-5.024 0.006-2.625-2.041-4.773-4.616-4.98z"></path>
</svg>
