<!-- Generated by IcoMoon.io -->
<svg version="1.1" xmlns="http://www.w3.org/2000/svg" width="32" height="32" viewBox="0 0 32 32">
<title>poo</title>
<path d="M28.351 22.715c1.087-0.823 1.796-2.117 1.796-3.586 0-2.5-2.022-4.522-4.522-4.522h-0.886c0.842-0.735 1.388-1.809 1.388-3.015 0-2.217-1.802-4.020-4.020-4.020h-0.371c0.226-0.634 0.371-1.3 0.371-2.010 0-3.329-2.701-6.029-6.029-6.029-0.327 0-0.641 0.044-0.948 0.094 0.59 0.823 0.948 1.828 0.948 2.92 0 2.776-2.248 5.024-5.024 5.024h-1.005c-2.217 0-4.020 1.803-4.020 4.020 0 1.206 0.546 2.28 1.388 3.015h-0.886c-2.5 0-4.522 2.022-4.522 4.522 0 1.47 0.71 2.763 1.796 3.586-2.154 0.345-3.806 2.198-3.806 4.453 0 2.5 2.022 4.522 4.522 4.522h23.113c2.5 0 4.522-2.022 4.522-4.522 0-2.255-1.652-4.108-3.806-4.453zM12.059 15.611c1.112 0 2.010 0.898 2.010 2.010s-0.898 2.010-2.010 2.010-2.010-0.898-2.010-2.010 0.898-2.010 2.010-2.010zM22.076 24.341c-0.66 1.752-3.674 3.329-5.998 3.329s-5.339-1.576-5.998-3.329c-0.126-0.333 0.126-0.691 0.49-0.691h11.016c0.364 0 0.615 0.358 0.49 0.691zM20.098 19.631c-1.112 0-2.010-0.898-2.010-2.010s0.898-2.010 2.010-2.010 2.010 0.898 2.010 2.010-0.898 2.010-2.010 2.010z"></path>
</svg>
