<!-- Generated by IcoMoon.io -->
<svg version="1.1" xmlns="http://www.w3.org/2000/svg" width="32" height="32" viewBox="0 0 32 32">
<title>poop</title>
<path d="M28.348 22.717c1.087-0.826 1.799-2.118 1.799-3.589 0-2.498-2.025-4.522-4.522-4.522h-0.884c0.843-0.737 1.386-1.808 1.386-3.015 0-2.22-1.799-4.020-4.020-4.020h-0.369c0.224-0.631 0.369-1.301 0.369-2.010 0-3.33-2.699-6.029-6.029-6.029-0.325 0-0.637 0.046-0.949 0.095 0.592 0.824 0.949 1.828 0.949 2.919 0 2.775-2.25 5.024-5.024 5.024h-1.005c-2.22 0-4.020 1.799-4.020 4.020 0 1.207 0.543 2.278 1.386 3.015h-0.884c-2.497 0-4.522 2.024-4.522 4.522 0 1.47 0.712 2.763 1.799 3.589-2.156 0.344-3.809 2.197-3.809 4.45 0 2.497 2.025 4.522 4.522 4.522h23.113c2.497 0 4.522-2.025 4.522-4.522 0-2.253-1.652-4.106-3.809-4.45z"></path>
</svg>
