<!-- Generated by IcoMoon.io -->
<svg version="1.1" xmlns="http://www.w3.org/2000/svg" width="20" height="32" viewBox="0 0 20 32">
<title>pound-sign</title>
<path d="M19.344 21.641h-2.857c-0.416 0-0.754 0.338-0.754 0.754v3.194h-7.694v-7.967h5.276c0.416 0 0.754-0.338 0.754-0.754v-2.512c0-0.416-0.338-0.754-0.754-0.754h-5.276v-3.992c0-2.026 1.543-3.585 3.881-3.585 1.486 0 2.881 0.723 3.621 1.184 0.323 0.202 0.747 0.129 0.985-0.169l1.79-2.23c0.266-0.331 0.206-0.817-0.133-1.073-1.029-0.777-3.324-2.194-6.38-2.194-5.144 0-8.789 3.313-8.789 7.911v4.148h-1.759c-0.416 0-0.754 0.338-0.754 0.754v2.512c0 0.416 0.338 0.754 0.754 0.754h1.759v8.039h-2.261c-0.416 0-0.754 0.338-0.754 0.754v2.512c0 0.416 0.338 0.754 0.754 0.754h18.591c0.416 0 0.754-0.338 0.754-0.754v-6.532c0-0.416-0.338-0.754-0.754-0.754z"></path>
</svg>
