<!-- Generated by IcoMoon.io -->
<svg version="1.1" xmlns="http://www.w3.org/2000/svg" width="32" height="32" viewBox="0 0 32 32">
<title>power-off</title>
<path d="M25.122 2.931c3.957 2.826 6.532 7.449 6.532 12.681 0 8.592-6.959 15.557-15.544 15.576-8.573 0.019-15.595-6.971-15.607-15.551-0.006-5.232 2.569-9.867 6.519-12.699 0.735-0.521 1.759-0.301 2.198 0.484l0.992 1.765c0.371 0.66 0.195 1.495-0.415 1.947-2.606 1.934-4.271 4.999-4.271 8.473-0.006 5.797 4.679 10.558 10.551 10.558 5.753 0 10.589-4.66 10.551-10.621-0.019-3.253-1.551-6.394-4.277-8.416-0.609-0.452-0.779-1.287-0.408-1.941l0.992-1.765c0.44-0.779 1.457-1.011 2.186-0.49zM18.591 16.114v-15.073c0-0.835-0.672-1.507-1.507-1.507h-2.010c-0.835 0-1.507 0.672-1.507 1.507v15.073c0 0.835 0.672 1.507 1.507 1.507h2.010c0.835 0 1.507-0.672 1.507-1.507z"></path>
</svg>
