<!-- Generated by IcoMoon.io -->
<svg version="1.1" xmlns="http://www.w3.org/2000/svg" width="32" height="32" viewBox="0 0 32 32">
<title>ppt-file-format</title>
<path d="M15.92 23.759c-0.352 0-0.59 0.034-0.715 0.068v2.259c0.148 0.034 0.329 0.045 0.579 0.045 0.919 0 1.487-0.466 1.487-1.248-0-0.704-0.488-1.123-1.35-1.123zM9.326 23.759c-0.352 0-0.59 0.034-0.715 0.068v2.259c0.148 0.034 0.329 0.045 0.579 0.045 0.919 0 1.487-0.466 1.487-1.248-0-0.704-0.488-1.123-1.35-1.123zM27.737 7.239c-0.002-0.147-0.049-0.293-0.151-0.408l-6.2-7.082c-0.002-0.002-0.004-0.003-0.005-0.004-0.037-0.041-0.080-0.075-0.126-0.105-0.013-0.009-0.027-0.017-0.041-0.025-0.039-0.021-0.081-0.039-0.124-0.052-0.012-0.003-0.022-0.008-0.034-0.011-0.047-0.011-0.095-0.018-0.145-0.018h-15.237c-0.695 0-1.261 0.566-1.261 1.261v29.635c0 0.695 0.566 1.261 1.261 1.261h20.807c0.695 0 1.261-0.566 1.261-1.261v-23.119c0-0.024-0.004-0.047-0.006-0.071zM11.687 26.652c-0.59 0.556-1.464 0.806-2.486 0.806-0.227 0-0.431-0.012-0.59-0.034v2.735h-1.714v-7.547c0.533-0.091 1.282-0.159 2.338-0.159 1.066 0 1.827 0.204 2.337 0.613 0.488 0.386 0.817 1.021 0.817 1.77s-0.249 1.385-0.703 1.816zM18.281 26.652c-0.59 0.556-1.465 0.806-2.486 0.806-0.227 0-0.431-0.012-0.59-0.034v2.735h-1.714v-7.547c0.533-0.091 1.282-0.159 2.338-0.159 1.067 0 1.827 0.204 2.337 0.613 0.488 0.386 0.817 1.021 0.817 1.77s-0.249 1.385-0.703 1.816zM25.385 23.963h-2.088v6.196h-1.736v-6.196h-2.054v-1.453h5.878v1.453h0.001zM5.675 20.945v-20.151h14.607v6.452c0 0.348 0.283 0.631 0.631 0.631h5.57v13.068h-20.807zM15.098 7.725c-2.851 0-5.162 2.311-5.162 5.162s2.311 5.162 5.162 5.162c2.851 0 5.162-2.311 5.162-5.162h-5.162v-5.162zM15.798 12.072v0.002h5.162c0-1.452-0.602-2.762-1.567-3.7l-3.595 3.698zM15.744 11.165l3.649-3.65c-1.026-1.027-2.307-1.528-3.653-1.508l0.003 5.157 0.001 0.001z"></path>
</svg>
