<!-- Generated by IcoMoon.io -->
<svg version="1.1" xmlns="http://www.w3.org/2000/svg" width="32" height="32" viewBox="0 0 32 32">
<title>pptx-file-format-variant</title>
<path d="M27.737 7.239c-0.002-0.148-0.049-0.293-0.15-0.408l-6.2-7.082c-0.001-0.002-0.003-0.002-0.005-0.004-0.037-0.041-0.079-0.075-0.125-0.105-0.013-0.009-0.027-0.017-0.041-0.025-0.040-0.022-0.081-0.039-0.124-0.052-0.012-0.004-0.022-0.008-0.034-0.011-0.047-0.011-0.095-0.018-0.145-0.018h-15.238c-0.695 0-1.261 0.566-1.261 1.261v29.635c0 0.696 0.566 1.261 1.261 1.261h20.807c0.696 0 1.261-0.566 1.261-1.261v-23.119c-0-0.024-0.004-0.047-0.006-0.070zM10.219 26.565c-0.44 0.414-1.090 0.6-1.85 0.6-0.169 0-0.322-0.009-0.44-0.026v2.036h-1.276v-5.618c0.397-0.068 0.955-0.119 1.74-0.119 0.794 0 1.36 0.152 1.741 0.456 0.363 0.288 0.608 0.76 0.608 1.318s-0.186 1.031-0.524 1.352zM15.129 26.565c-0.439 0.414-1.090 0.6-1.85 0.6-0.169 0-0.321-0.009-0.44-0.026v2.036h-1.276v-5.618c0.397-0.068 0.955-0.119 1.74-0.119 0.794 0 1.36 0.152 1.741 0.456 0.363 0.288 0.608 0.76 0.608 1.318s-0.186 1.031-0.524 1.352zM20.419 24.562h-1.555v4.613h-1.293v-4.613h-1.529v-1.082h4.377v1.082zM24.255 29.175l-0.515-1.031c-0.211-0.397-0.346-0.693-0.507-1.022h-0.017c-0.119 0.329-0.262 0.625-0.44 1.022l-0.474 1.031h-1.47l1.648-2.881-1.589-2.813h1.478l0.498 1.039c0.169 0.347 0.296 0.625 0.431 0.946h0.017c0.135-0.363 0.245-0.617 0.389-0.946l0.482-1.039h1.47l-1.606 2.78 1.689 2.914h-1.486zM5.675 20.945v-20.151h14.607v6.452c0 0.348 0.282 0.631 0.631 0.631h5.569l0.001 13.068h-20.808zM8.462 24.41c-0.262 0-0.44 0.026-0.533 0.051v1.681c0.11 0.026 0.245 0.034 0.431 0.034 0.684 0 1.107-0.346 1.107-0.929-0-0.524-0.364-0.836-1.006-0.836zM13.372 24.41c-0.262 0-0.44 0.026-0.532 0.051v1.681c0.11 0.026 0.245 0.034 0.431 0.034 0.685 0 1.107-0.346 1.107-0.929-0-0.524-0.364-0.836-1.006-0.836zM11.658 6.54c-3.007 0.203-5.386 2.7-5.386 5.76 0 0.714 0.136 1.396 0.373 2.027l5.013-2.198v-5.589zM6.897 14.905c0.953 1.882 2.901 3.175 5.155 3.175 1.95 0 3.671-0.969 4.718-2.448l-4.744-2.976-5.128 2.249zM12.402 6.461v5.544l4.819 3.023c0.46-0.83 0.724-1.783 0.724-2.799 0-3.112-2.462-5.643-5.543-5.768zM19.021 9.804h6.305v0.941h-6.305v-0.941zM19.021 12.199h6.305v0.941h-6.305v-0.941zM19.021 14.558h6.305v0.941h-6.305v-0.941z"></path>
</svg>
