<!-- Generated by IcoMoon.io -->
<svg version="1.1" xmlns="http://www.w3.org/2000/svg" width="40" height="32" viewBox="0 0 40 32">
<title>praying-hands</title>
<path d="M17.083 11.586c-1.105 0-2.010 0.904-2.010 2.010v5.025c0 0.555-0.45 1.005-1.005 1.005s-1.005-0.45-1.005-1.005v-4.808c0-1.092 0.296-2.165 0.86-3.102l4.883-8.139c0.571-0.952 0.263-2.186-0.689-2.758-0.907-0.545-2.055-0.27-2.657 0.578-0.012 0.014-0.039 0.013-0.050 0.030l-7.365 11.048c-0.663 0.995-1.013 2.151-1.013 3.343v5.039l-5.66 1.887c-0.805 0.274-1.374 1.023-1.374 1.905 0 0 0 0 0 0.001v-0 6.029c0 0.68 0.535 2.010 2.010 2.010 0.169 0 0.34-0.021 0.506-0.065l11.254-2.928c3.135-0.896 5.323-3.797 5.323-7.056v-8.039c0-1.105-0.904-2.010-2.010-2.010zM38.822 21.744l-5.66-1.887v-5.039c0-1.192-0.349-2.348-1.013-3.343l-7.365-11.047c-0.011-0.017-0.037-0.015-0.050-0.030-0.602-0.848-1.749-1.123-2.657-0.578-0.952 0.571-1.26 1.806-0.689 2.758l4.883 8.139c0.563 0.937 0.86 2.010 0.86 3.102v4.808c0 0.555-0.45 1.005-1.005 1.005s-1.005-0.45-1.005-1.005v-5.024c0-1.105-0.904-2.010-2.010-2.010s-2.010 0.904-2.010 2.010v8.039c0 3.259 2.188 6.16 5.323 7.056l11.254 2.928c0.167 0.043 0.338 0.065 0.506 0.065 1.475 0 2.010-1.33 2.010-2.010v-6.029c0-0.865-0.553-1.632-1.374-1.906z"></path>
</svg>
