<!-- Generated by IcoMoon.io -->
<svg version="1.1" xmlns="http://www.w3.org/2000/svg" width="24" height="32" viewBox="0 0 24 32">
<title>pray</title>
<path d="M16.078 7.572c2.22 0 4.020-1.799 4.020-4.020s-1.799-4.020-4.020-4.020-4.020 1.799-4.020 4.020 1.799 4.020 4.020 4.020zM14.155 18.233c0.883 1.050 2.449 1.199 3.515 0.328l5.527-4.523c1.073-0.878 1.23-2.461 0.353-3.535-0.877-1.075-2.461-1.23-3.537-0.353l-3.608 2.952-2.444-2.909c-0.97-1.155-2.463-1.754-4.020-1.591-1.519 0.156-2.842 1.022-3.54 2.319l-3.101 5.78c-1.47 2.741-0.546 6.053 2.147 7.772l2.814 2.191h-5.751c-1.387 0-2.512 1.125-2.512 2.512s1.125 2.512 2.512 2.512h13.064c2.14 0 3.377-2.688 1.776-4.288l-6.9-6.9 2.186-4.074 1.517 1.806z"></path>
</svg>
