<!-- Generated by IcoMoon.io -->
<svg version="1.1" xmlns="http://www.w3.org/2000/svg" width="24" height="32" viewBox="0 0 24 32">
<title>prescription</title>
<path d="M18.921 21.641l4.903-4.903c0.392-0.392 0.392-1.029 0-1.421l-1.421-1.421c-0.392-0.393-1.029-0.393-1.421 0l-4.903 4.903-5.273-5.273c2.969-0.376 5.273-2.882 5.273-5.953 0-3.33-2.699-6.029-6.029-6.029h-9.044c-0.555 0-1.005 0.45-1.005 1.005v16.078c0 0.555 0.45 1.005 1.005 1.005h2.010c0.555 0 1.005-0.45 1.005-1.005v-5.024h1.178l8.039 8.039-4.903 4.903c-0.393 0.392-0.393 1.029 0 1.421l1.421 1.421c0.393 0.392 1.029 0.392 1.421 0l4.902-4.903 4.903 4.903c0.392 0.392 1.029 0.392 1.421 0l1.421-1.421c0.392-0.392 0.392-1.029 0-1.421l-4.903-4.902zM4.020 5.562h6.029c1.108 0 2.010 0.902 2.010 2.010s-0.902 2.010-2.010 2.010h-6.029v-4.020z"></path>
</svg>
