<!-- Generated by IcoMoon.io -->
<svg version="1.1" xmlns="http://www.w3.org/2000/svg" width="32" height="32" viewBox="0 0 32 32">
<title>pressure-meter</title>
<path d="M27.501 4.413c-3.025-3.025-7.047-4.691-11.325-4.691s-8.3 1.666-11.325 4.691-4.691 7.047-4.691 11.325c0 4.278 1.666 8.3 4.691 11.325s7.047 4.691 11.325 4.691c4.278 0 8.3-1.666 11.325-4.691s4.691-7.047 4.691-11.325c-0-4.278-1.666-8.3-4.691-11.325zM16.176 29.983c-7.855 0-14.245-6.39-14.245-14.245s6.39-14.245 14.245-14.245c7.855 0 14.245 6.39 14.245 14.245s-6.39 14.245-14.245 14.245zM16.732 8.325c-0.511-0.875-0.994-0.022-0.994-0.022l-3.313 11.93c-0.176 0.474-0.274 0.99-0.274 1.529 0 2.331 1.805 4.227 4.024 4.227s4.024-1.896 4.024-4.227c0-0.502-0.084-0.983-0.238-1.43l0.007-0c-0 0-2.727-11.131-3.238-12.006zM16.183 13.108l1.259 4.642c-0.398-0.139-0.823-0.215-1.265-0.215-0.401 0-0.789 0.063-1.155 0.178l1.162-4.604zM16.176 24.084c-1.169 0-2.12-1.042-2.12-2.323s0.951-2.323 2.12-2.323c1.169 0 2.12 1.042 2.12 2.323s-0.951 2.323-2.12 2.323zM6.663 14.937h-0.903c0.194-2.363 1.082-4.518 2.442-6.234l0.807 0.807 1.251-1.251-0.851-0.851c1.628-1.483 3.682-2.444 5.93-2.637v1.357h1.769v-1.348c2.211 0.211 4.23 1.166 5.835 2.628l-0.851 0.851 1.251 1.251 0.807-0.807c1.36 1.715 2.248 3.871 2.442 6.234h-0.903v1.793h2.742l-0.006-0.902c-0.023-3.437-1.3-6.666-3.597-9.094-2.312-2.444-5.385-3.79-8.652-3.79s-6.34 1.346-8.652 3.79c-2.297 2.428-3.574 5.658-3.597 9.094l-0.006 0.902h2.742v-1.793zM20.826 21.852h3.14c-1.367 3.228-4.425 5.395-7.789 5.395s-6.422-2.167-7.789-5.395h2.829v-1.793h-5.271l0.318 1.137c0.618 2.212 1.917 4.204 3.657 5.609 1.811 1.461 3.974 2.234 6.256 2.234s4.445-0.772 6.256-2.234c1.74-1.404 3.039-3.396 3.657-5.609l0.318-1.137h-5.582v1.793z"></path>
</svg>
