<!-- Generated by IcoMoon.io -->
<svg version="1.1" xmlns="http://www.w3.org/2000/svg" width="32" height="32" viewBox="0 0 32 32">
<title>pressure</title>
<path d="M17.384 14.431c0-0.488-0.276-0.898-0.669-1.132v-2.211c0-0.37-0.299-0.669-0.669-0.669s-0.669 0.299-0.669 0.669v2.211c-0.392 0.233-0.669 0.643-0.669 1.132 0 0.737 0.6 1.337 1.337 1.337s1.337-0.6 1.337-1.337zM27.414-0.279c-2.624 0-4.68 2.349-4.68 5.349 0 2.153 1.624 5.966 4.012 6.589v12.801c0 3.318-2.699 6.018-6.018 6.018-3.193 0-5.788-2.507-5.981-5.653 2.097-0.267 3.975-0.766 3.975-1.702v-2.573c2.357-1.035 4.012-3.385 4.012-6.119s-1.655-5.085-4.012-6.119v-3.91c0-1.909-7.798-2.006-9.361-2.006s-9.361 0.097-9.361 2.006v18.721c0 1.909 7.798 2.006 9.361 2.006 0.633 0 2.291-0.018 4.037-0.164 0.261 3.82 3.444 6.85 7.329 6.85 4.056 0 7.355-3.299 7.355-7.355v-12.801c2.388-0.623 4.012-4.437 4.012-6.589 0-3-2.056-5.349-4.68-5.349zM2.055 4.402c1.357-0.332 4.13-0.669 7.306-0.669s5.949 0.337 7.306 0.669c-1.357 0.332-4.13 0.669-7.306 0.669s-5.949-0.337-7.306-0.669zM10.698 14.431c0-2.949 2.4-5.349 5.349-5.349s5.349 2.4 5.349 5.349c0 2.949-2.4 5.349-5.349 5.349s-5.349-2.4-5.349-5.349z"></path>
</svg>
