<!-- Generated by IcoMoon.io -->
<svg version="1.1" xmlns="http://www.w3.org/2000/svg" width="24" height="32" viewBox="0 0 24 32">
<title>prescription-bottle-alt</title>
<path d="M22.61-0.467h-21.103c-0.829 0-1.507 0.678-1.507 1.507v3.015c0 0.829 0.678 1.507 1.507 1.507h21.103c0.829 0 1.507-0.678 1.507-1.507v-3.015c0-0.829-0.678-1.507-1.507-1.507zM2.010 29.68c0 1.105 0.904 2.010 2.010 2.010h16.078c1.105 0 2.010-0.904 2.010-2.010v-22.108h-20.098v22.108zM6.029 18.124c0-0.276 0.226-0.503 0.502-0.503h3.517v-3.517c0-0.276 0.226-0.502 0.502-0.502h3.015c0.276 0 0.502 0.226 0.502 0.502v3.517h3.517c0.276 0 0.503 0.226 0.503 0.503v3.015c0 0.276-0.226 0.503-0.503 0.503h-3.517v3.517c0 0.276-0.226 0.503-0.502 0.503h-3.015c-0.276 0-0.502-0.226-0.502-0.503v-3.517h-3.517c-0.276 0-0.503-0.226-0.503-0.503v-3.015z"></path>
</svg>
