<!-- Generated by IcoMoon.io -->
<svg version="1.1" xmlns="http://www.w3.org/2000/svg" width="32" height="32" viewBox="0 0 32 32">
<title>print</title>
<path d="M28.137 11.592v-7.207c0-0.533-0.212-1.044-0.588-1.421l-2.843-2.842c-0.377-0.377-0.888-0.588-1.421-0.588h-17.255c-1.11 0-2.010 0.9-2.010 2.010v10.049c-2.22 0-4.020 1.799-4.020 4.020v7.034c0 0.555 0.45 1.005 1.005 1.005h3.015v6.029c0 1.11 0.9 2.010 2.010 2.010h20.098c1.11 0 2.010-0.9 2.010-2.010v-6.029h3.015c0.555 0 1.005-0.45 1.005-1.005v-7.034c0-2.22-1.799-4.020-4.020-4.020zM24.118 27.67h-16.078v-6.029h16.078v6.029zM24.118 13.602h-16.078v-10.049h12.059v3.015c0 0.555 0.45 1.005 1.005 1.005h3.015v6.029zM27.132 18.124c-0.832 0-1.507-0.675-1.507-1.507s0.675-1.507 1.507-1.507 1.507 0.675 1.507 1.507c0 0.832-0.675 1.507-1.507 1.507z"></path>
</svg>
