<!-- Generated by IcoMoon.io -->
<svg version="1.1" xmlns="http://www.w3.org/2000/svg" width="40" height="32" viewBox="0 0 40 32">
<title>procedures</title>
<path d="M33.162 13.602h-16.078c-0.553 0-1.005 0.452-1.005 1.005v9.044h-12.059v-15.073c0-0.553-0.452-1.005-1.005-1.005h-2.010c-0.553 0-1.005 0.452-1.005 1.005v22.108c0 0.553 0.452 1.005 1.005 1.005h2.010c0.553 0 1.005-0.452 1.005-1.005v-3.015h32.157v3.015c0 0.553 0.452 1.005 1.005 1.005h2.010c0.553 0 1.005-0.452 1.005-1.005v-10.049c0-3.888-3.147-7.034-7.034-7.034zM8.542 5.562h7.92l1.733 3.467c0.371 0.741 1.426 0.741 1.796 0l3.121-6.243 1.388 2.776h7.656c0.553 0 1.005-0.452 1.005-1.005s-0.452-1.005-1.005-1.005h-6.413l-1.733-3.467c-0.371-0.741-1.426-0.741-1.796 0l-3.121 6.243-1.25-2.5c-0.088-0.17-0.258-0.276-0.452-0.276h-8.849c-0.276 0-0.502 0.226-0.502 0.502v1.005c0 0.276 0.226 0.502 0.502 0.502zM10.049 21.641c2.217 0 4.020-1.802 4.020-4.020s-1.803-4.020-4.020-4.020-4.020 1.803-4.020 4.020 1.803 4.020 4.020 4.020z"></path>
</svg>
