<!-- Generated by IcoMoon.io -->
<svg version="1.1" xmlns="http://www.w3.org/2000/svg" width="40" height="32" viewBox="0 0 40 32">
<title>project-diagram</title>
<path d="M24.118 19.631h-8.039c-1.11 0-2.010 0.9-2.010 2.010v8.039c0 1.11 0.9 2.010 2.010 2.010h8.039c1.11 0 2.010-0.9 2.010-2.010v-8.039c0-1.11-0.9-2.010-2.010-2.010zM12.059 1.543c0-1.11-0.9-2.010-2.010-2.010h-8.039c-1.11 0-2.010 0.9-2.010 2.010v8.039c0 1.11 0.9 2.010 2.010 2.010h6.012l4.595 8.042c0.697-1.197 1.98-2.012 3.462-2.012h0.018l-4.037-7.065v-2.984h14.069v-4.020h-14.069v-2.010zM38.186-0.467h-8.039c-1.11 0-2.010 0.9-2.010 2.010v8.039c0 1.11 0.9 2.010 2.010 2.010h8.039c1.11 0 2.010-0.9 2.010-2.010v-8.039c0-1.11-0.9-2.010-2.010-2.010z"></path>
</svg>
