<!-- Generated by IcoMoon.io -->
<svg version="1.1" xmlns="http://www.w3.org/2000/svg" width="32" height="32" viewBox="0 0 32 32">
<title>ps-file-format</title>
<path d="M12.73 23.265c-0.351 0-0.59 0.034-0.715 0.068v2.258c0.148 0.035 0.329 0.045 0.579 0.045 0.919 0 1.487-0.465 1.487-1.248 0-0.704-0.488-1.124-1.351-1.124zM27.736 7.239c-0.001-0.147-0.048-0.293-0.15-0.408l-6.2-7.082c-0.002-0.002-0.004-0.003-0.005-0.004-0.037-0.042-0.080-0.075-0.126-0.105-0.013-0.009-0.027-0.017-0.041-0.025-0.039-0.022-0.081-0.039-0.124-0.052-0.012-0.003-0.022-0.008-0.034-0.011-0.047-0.011-0.095-0.018-0.145-0.018h-15.237c-0.696 0-1.261 0.566-1.261 1.261v29.635c0 0.695 0.565 1.261 1.261 1.261h20.807c0.695 0 1.261-0.566 1.261-1.261v-23.119c0-0.024-0.004-0.047-0.007-0.071zM15.091 26.159c-0.59 0.556-1.464 0.805-2.485 0.805-0.227 0-0.431-0.011-0.59-0.033v2.735h-1.714v-7.547c0.534-0.091 1.283-0.159 2.338-0.159 1.067 0 1.827 0.204 2.338 0.613 0.488 0.386 0.817 1.021 0.817 1.77s-0.249 1.385-0.703 1.816zM18.768 29.779c-0.874 0-1.736-0.227-2.168-0.466l0.352-1.43c0.465 0.238 1.18 0.477 1.917 0.477 0.794 0 1.214-0.329 1.214-0.828 0-0.477-0.363-0.749-1.282-1.078-1.271-0.443-2.1-1.146-2.1-2.258 0-1.306 1.089-2.304 2.894-2.304 0.862 0 1.498 0.182 1.951 0.386l-0.385 1.396c-0.307-0.148-0.851-0.363-1.6-0.363s-1.112 0.341-1.112 0.738c0 0.488 0.432 0.704 1.419 1.078 1.35 0.499 1.986 1.203 1.986 2.281-0 1.283-0.987 2.372-3.087 2.372zM5.675 20.944v-20.15h14.607v6.452c0 0.348 0.283 0.631 0.631 0.631h5.57v13.068h-20.807zM15.675 10.454c-1.010 0-1.833 0.822-1.833 1.833s0.822 1.833 1.833 1.833c1.011 0 1.833-0.822 1.833-1.833s-0.822-1.833-1.833-1.833zM15.675 13.463c-0.649 0-1.176-0.528-1.176-1.176s0.527-1.176 1.176-1.176c0.648 0 1.176 0.527 1.176 1.176s-0.528 1.176-1.176 1.176zM16.003 7.817v-1.165h-0.656v1.165c-2.16 0.159-3.919 1.876-4.131 4.032h-1.176v0.656h1.154c0.111 2.24 1.913 4.085 4.152 4.25v1.165h0.656v-1.165c2.239-0.165 4.041-2.011 4.152-4.25h1.154v-0.656h-1.176c-0.211-2.155-1.97-3.873-4.13-4.032zM16.003 16.097v-1.13h-0.656v1.13c-1.877-0.163-3.385-1.712-3.494-3.592h1.142v-0.656h-1.118c0.206-1.792 1.672-3.218 3.47-3.373v1.13h0.656v-1.13c1.798 0.156 3.263 1.581 3.47 3.373h-1.118v0.656h1.142c-0.109 1.88-1.617 3.429-3.494 3.592z"></path>
</svg>
