<!-- Generated by IcoMoon.io -->
<svg version="1.1" xmlns="http://www.w3.org/2000/svg" width="32" height="32" viewBox="0 0 32 32">
<title>psd-file-format-variant</title>
<path d="M21.879 23.24c-0.386 0-0.636 0.035-0.783 0.068v5.004c0.148 0.035 0.386 0.035 0.602 0.035 1.566 0.011 2.587-0.852 2.587-2.678 0.011-1.589-0.919-2.429-2.406-2.429zM27.736 7.239c-0.001-0.147-0.048-0.293-0.15-0.408l-6.2-7.082c-0.002-0.002-0.004-0.003-0.005-0.004-0.037-0.042-0.080-0.075-0.126-0.105-0.013-0.009-0.027-0.017-0.041-0.025-0.039-0.022-0.081-0.039-0.124-0.052-0.012-0.003-0.022-0.008-0.034-0.011-0.047-0.011-0.095-0.018-0.145-0.018h-15.237c-0.696 0-1.261 0.566-1.261 1.261v29.635c0 0.695 0.565 1.261 1.261 1.261h20.807c0.695 0 1.261-0.566 1.261-1.261v-23.119c-0-0.024-0.004-0.047-0.007-0.071zM11.426 26.112c-0.59 0.556-1.464 0.805-2.485 0.805-0.227 0-0.431-0.011-0.59-0.034v2.735h-1.714v-7.547c0.534-0.091 1.283-0.159 2.338-0.159 1.067 0 1.827 0.204 2.338 0.613 0.488 0.386 0.817 1.021 0.817 1.77s-0.249 1.385-0.703 1.816zM15.104 29.732c-0.874 0-1.736-0.227-2.167-0.466l0.352-1.43c0.465 0.238 1.18 0.477 1.917 0.477 0.795 0 1.214-0.329 1.214-0.828 0-0.477-0.363-0.749-1.282-1.078-1.271-0.443-2.1-1.146-2.1-2.258 0-1.305 1.089-2.304 2.894-2.304 0.862 0 1.498 0.182 1.952 0.386l-0.386 1.396c-0.307-0.148-0.851-0.363-1.6-0.363s-1.112 0.341-1.112 0.738c0 0.489 0.432 0.704 1.419 1.079 1.35 0.499 1.986 1.202 1.986 2.28-0 1.283-0.987 2.372-3.087 2.372zM24.852 28.71c-0.805 0.67-2.031 0.988-3.529 0.988-0.897 0-1.532-0.057-1.964-0.114v-7.512c0.636-0.102 1.464-0.159 2.338-0.159 1.453 0 2.395 0.261 3.132 0.817 0.794 0.59 1.294 1.532 1.294 2.882 0 1.464-0.534 2.474-1.272 3.098zM5.675 20.944v-20.15h14.607v6.452c0 0.348 0.283 0.631 0.631 0.631h5.57v13.068h-20.807zM9.066 23.218c-0.351 0-0.59 0.035-0.715 0.068v2.258c0.148 0.035 0.33 0.045 0.579 0.045 0.919 0 1.487-0.465 1.487-1.248-0-0.704-0.488-1.124-1.351-1.124zM8.915 10.694l8.987 1.719c0.104 0.020 0.228 0.001 0.275-0.042l3.423-3.133c0 0 0.223-0.134-0.094-0.194s-8.913-1.714-8.913-1.714c-0.105-0.020-0.229-0.001-0.275 0.042l-3.507 3.208c-0.047 0.043-0.001 0.094 0.104 0.114zM12.881 7.814l7.79 1.49-2.3 2.104-0.568-0.108c0.051-0.415 0.18-0.984-0.512-1.037-0.81-0.062-1.938 0.568-1.938 0.568s0.492-0.861-0.070-1.48c-0.563-0.619-3.344 0.827-3.344 0.827l-1.357-0.259 2.3-2.105zM17.707 9.506c0.143 0.028 0.283 0.047 0.414 0.060 0.111 0.051 0.264 0.098 0.446 0.133 0.468 0.089 0.951 0.067 1.078-0.049s-0.149-0.283-0.617-0.373c-0.176-0.034-0.353-0.052-0.514-0.055-0.031-0.033-0.091-0.061-0.174-0.076l-0.123-0.024c-0.157-0.030-0.335-0.005-0.421 0.055-0.398-0.056-0.741-0.054-0.815 0.014-0.088 0.082 0.236 0.223 0.725 0.316zM18.175 15.076l3.424-3.132c0 0 0.223-0.134-0.094-0.195-0.075-0.014-0.624-0.12-1.412-0.271l-1.567 1.433c-0.177 0.162-0.414 0.186-0.539 0.186-0.062 0-0.125-0.006-0.185-0.017l-7.252-1.388-1.741 1.592c-0.047 0.043 0 0.094 0.105 0.115l8.986 1.719c0.104 0.020 0.228 0.001 0.275-0.042zM21.765 14.496c-0.076-0.014-0.624-0.12-1.412-0.271l-1.566 1.432c-0.177 0.163-0.414 0.187-0.539 0.187-0.062 0-0.125-0.006-0.185-0.018l-7.252-1.387-1.741 1.592c-0.046 0.043 0 0.094 0.105 0.115l8.986 1.719c0.105 0.020 0.228 0.001 0.276-0.042l3.423-3.132c0 0 0.223-0.134-0.094-0.194z"></path>
</svg>
