<!-- Generated by IcoMoon.io -->
<svg version="1.1" xmlns="http://www.w3.org/2000/svg" width="32" height="32" viewBox="0 0 32 32">
<title>pub-file-format-symbol</title>
<path d="M23.675 24.516c0-0.549-0.42-0.84-1.162-0.84-0.355 0-0.561 0.022-0.7 0.043v1.69h0.538c0.861 0 1.324-0.355 1.324-0.893zM8.891 23.719c-0.334 0-0.56 0.032-0.679 0.064v2.143c0.14 0.033 0.312 0.043 0.549 0.043 0.873 0 1.41-0.441 1.41-1.184 0-0.668-0.463-1.066-1.281-1.066zM22.372 26.582h-0.559v2.046c0.162 0.021 0.355 0.021 0.635 0.021 0.743 0 1.4-0.28 1.4-1.044-0-0.731-0.657-1.022-1.476-1.022zM27.737 7.239c-0.002-0.147-0.049-0.293-0.15-0.408l-6.2-7.082c-0.001-0.002-0.003-0.003-0.005-0.004-0.037-0.041-0.079-0.075-0.125-0.105-0.014-0.008-0.027-0.017-0.041-0.025-0.040-0.021-0.081-0.039-0.124-0.052-0.012-0.004-0.022-0.008-0.034-0.011-0.047-0.011-0.095-0.018-0.145-0.018h-15.238c-0.695 0-1.261 0.566-1.261 1.261v29.635c0 0.695 0.566 1.261 1.261 1.261h20.807c0.696 0 1.261-0.566 1.261-1.261v-23.119c-0-0.024-0.004-0.047-0.006-0.071zM11.13 26.464c-0.56 0.529-1.388 0.765-2.358 0.765-0.216 0-0.409-0.010-0.56-0.032v2.594h-1.625v-7.159c0.506-0.086 1.217-0.151 2.218-0.151 1.012 0 1.733 0.194 2.218 0.581 0.463 0.366 0.775 0.969 0.775 1.68s-0.236 1.313-0.667 1.722zM18.765 26.604c0 2.239-1.13 3.305-3.026 3.305-1.83 0-2.907-1.012-2.907-3.327v-4.048h1.647v4.177c0 1.249 0.474 1.885 1.314 1.885 0.861 0 1.335-0.603 1.335-1.885v-4.177h1.636v4.070h0.001zM24.817 29.21c-0.528 0.419-1.411 0.656-2.853 0.656-0.808 0-1.411-0.054-1.777-0.108v-7.127c0.43-0.086 1.303-0.151 2.121-0.151 1.001 0 1.614 0.097 2.143 0.409 0.506 0.269 0.872 0.765 0.872 1.422 0 0.646-0.377 1.249-1.194 1.55v0.022c0.829 0.226 1.442 0.85 1.442 1.787-0 0.657-0.301 1.174-0.753 1.54zM5.675 20.945v-20.151h14.607v6.452c0 0.348 0.282 0.631 0.631 0.631h5.569l0.001 13.068-20.808-0zM20.537 9.806c-0.457-0.393-1.169-0.801-2.105-0.801s-1.641 0.41-2.092 0.804c-0.138 0.122-0.254 0.242-0.351 0.352-0.099-0.111-0.22-0.232-0.363-0.355-0.459-0.393-1.17-0.801-2.108-0.801-0.936 0-1.64 0.41-2.090 0.804-0.452 0.396-0.672 0.782-0.685 0.804l-0.049 0.178v5.794l0.725 0.178 0.002 0.001c0.009-0.020 0.205-0.342 0.562-0.642 0.361-0.303 0.862-0.582 1.535-0.583 0.693 0 1.222 0.299 1.593 0.615 0.182 0.157 0.326 0.315 0.417 0.432 0.047 0.060 0.080 0.108 0.103 0.139 0.010 0.017 0.018 0.029 0.023 0.037 0.002 0.003 0.004 0.006 0.004 0.007h0.002l0.673-0.006 0.001-0.001v-0.001c0.015-0.026 0.211-0.342 0.562-0.639 0.362-0.303 0.865-0.582 1.536-0.583 0.693 0 1.22 0.299 1.593 0.615 0.184 0.157 0.323 0.315 0.416 0.432 0.047 0.059 0.081 0.108 0.103 0.138 0.012 0.017 0.018 0.029 0.023 0.038 0.002 0.003 0.004 0.006 0.004 0.007h0.001l0.723-0.184v-5.793l-0.052-0.184c-0.014-0.021-0.244-0.406-0.706-0.8zM15.607 15.586c-0.457-0.388-1.162-0.787-2.088-0.787h-0.001c-0.909 0-1.598 0.387-2.049 0.769v-4.673c0.079-0.116 0.254-0.346 0.515-0.568 0.361-0.302 0.862-0.581 1.535-0.581 0.693 0 1.222 0.299 1.593 0.614 0.182 0.157 0.326 0.316 0.417 0.434 0.033 0.040 0.059 0.077 0.078 0.105v4.688zM20.52 15.586c-0.46-0.389-1.164-0.787-2.089-0.787-0.909-0.002-1.599 0.387-2.051 0.769v-4.673c0.080-0.115 0.254-0.346 0.515-0.568 0.362-0.302 0.865-0.581 1.536-0.581 0.693 0 1.22 0.299 1.593 0.614 0.184 0.157 0.323 0.316 0.416 0.434 0.033 0.040 0.060 0.077 0.080 0.105v4.688z"></path>
</svg>
