<!-- Generated by IcoMoon.io -->
<svg version="1.1" xmlns="http://www.w3.org/2000/svg" width="36" height="32" viewBox="0 0 36 32">
<title>puzzle-piece</title>
<path d="M32.624 17.662c-2.608 0-3.737 1.984-5.154 1.984-3.767 0-0.338-11.069-0.338-11.069s-12.328 5.024-12.328-0.207c0-2.25 2.279-2.905 2.279-5.4 0-2.23-1.766-3.437-3.86-3.437-2.177 0-4.168 1.186-4.168 3.539 0 2.598 1.992 3.723 1.992 5.134 0 4.373-11.047 1.8-11.047 1.8v20.929s11.219 2.578 11.219-1.8c0-1.411-2.512-2.519-2.512-5.117 0-2.352 1.837-3.539 3.993-3.539 2.115 0 3.881 1.207 3.881 3.437 0 2.496-2.279 3.15-2.279 5.4 0 3.819 8.144 1.616 11.382 1.616 0 0-2.181-7.543 1.622-7.543 2.259 0 2.916 2.271 5.421 2.271 2.238 0 3.45-1.759 3.45-3.866 0-2.148-1.191-4.132-3.552-4.132z"></path>
</svg>
