<!-- Generated by IcoMoon.io -->
<svg version="1.1" xmlns="http://www.w3.org/2000/svg" width="28" height="32" viewBox="0 0 28 32">
<title>px</title>
<path d="M6.488 21.157c-0.408-0.892-0.433-1.149 0.465-1.451 1.608-0.503 0.502 0.578 2.713 3.090h0.019v-5.898c0.075-3.153 2.763-5.791 6.136-5.791 3.385 0 6.136 2.732 6.136 6.080 0 3.982-3.819 7.11-8.071 5.86-0.66-0.264-0.132-1.991 0.534-1.796 3.329 0 5.615-0.634 5.615-4.045 0-3.831-4.842-5.627-7.342-2.801-1.476 1.658-1.105 2.644-1.105 9.898 3.184 1.947 7.43 1.382 10.074-1.262 1.558-1.558 2.418-3.643 2.418-5.841 0-2.211-0.867-4.283-2.437-5.86-1.558-1.558-3.63-2.418-5.86-2.418s-4.321 0.867-5.872 2.418c-0.019 0.019-1.005 1.036-1.332 1.501l-0.031 0.038c-0.207 0.295-0.396 0.572-1.262 0.383-0.433-0.107-0.898-0.364-0.898-0.741v-11.732c0-0.314 0.245-0.66 0.66-0.66h15.155c0.521 0 0.521 0.729 0.521 0.948 0 0.245 0 0.948-0.521 0.948h-14.018v8.347h0.019c6.544-6.896 17.762-2.261 17.762 6.84 0 11.186-15.375 13.836-19.476 3.944zM10.463 4.777c-0.031 0.264 0.289 1.539 0.917 1.294 7.838-2.983 12.737 2.537 13.152 2.537 0.301 0 1.432-0.961 0.898-1.432-5.854-5.59-14.728-3.58-14.967-2.399zM24.683 25.579c-6.909 6.902-18.779 3.819-20.852-6.544 0-0.766-1.909-0.465-1.815 0.207 1.507 10.891 15.45 16.135 23.967 7.618 0.433-0.49-0.791-1.784-1.3-1.281zM13.415 18.789c0 0.251 0.27 0.458 0.345 0.534 0.188 0.188 0.383 0.276 0.534 0.276 0.239 0 0.163 0.012 1.401-1.225 1.231 1.212 1.2 1.225 1.401 1.225 0.339 0 1.162-0.653 0.672-1.143l-1.087-1.087 1.143-1.143c0.396-0.427-0.634-1.369-1.018-0.986l-1.124 1.124c-1.168-1.181-1.156-1.225-1.35-1.225-0.314 0-1.13 0.735-0.779 1.087l1.143 1.143c-1.137 1.124-1.281 1.206-1.281 1.419z"></path>
</svg>
