<!-- Generated by IcoMoon.io -->
<svg version="1.1" xmlns="http://www.w3.org/2000/svg" width="28" height="32" viewBox="0 0 28 32">
<title>python</title>
<path d="M10.539 1.819c-2.839 0.502-3.354 1.551-3.354 3.492v2.556h6.714v0.854h-9.232c-1.953 0-3.662 1.175-4.195 3.404-0.615 2.556-0.641 4.151 0 6.821 0.477 1.985 1.614 3.404 3.567 3.404h2.305v-3.065c0-2.217 1.916-4.17 4.195-4.17h6.708c1.865 0 3.354-1.539 3.354-3.41v-6.4c0-1.821-1.532-3.184-3.354-3.492-2.248-0.371-4.692-0.352-6.708 0.006zM10.118 3.603c0.691 0 1.262 0.578 1.262 1.281s-0.565 1.275-1.262 1.275c-0.697 0-1.262-0.572-1.262-1.275 0.006-0.71 0.565-1.281 1.262-1.281zM21.75 8.715v2.983c0 2.311-1.96 4.258-4.195 4.258h-6.708c-1.834 0-3.354 1.57-3.354 3.41v6.394c0 1.821 1.583 2.889 3.354 3.41 2.123 0.622 4.164 0.735 6.708 0 1.69-0.49 3.354-1.476 3.354-3.41v-2.556h-6.701v-0.854h10.062c1.953 0 2.676-1.363 3.354-3.404 0.703-2.104 0.672-4.126 0-6.821-0.484-1.941-1.401-3.404-3.354-3.404h-2.519zM17.975 24.907c0.697 0 1.262 0.572 1.262 1.275 0 0.71-0.565 1.281-1.262 1.281-0.691 0-1.262-0.578-1.262-1.281 0.006-0.71 0.572-1.275 1.262-1.275z"></path>
</svg>
