<!-- Generated by IcoMoon.io -->
<svg version="1.1" xmlns="http://www.w3.org/2000/svg" width="32" height="32" viewBox="0 0 32 32">
<title>python-file-symbol</title>
<path d="M12.538 23.676c-0.331 0-0.555 0.032-0.673 0.064v2.125c0.139 0.032 0.31 0.043 0.545 0.043 0.865 0 1.399-0.438 1.399-1.175-0-0.662-0.46-1.057-1.271-1.057zM27.737 7.239c-0.002-0.148-0.049-0.293-0.15-0.408l-6.2-7.082c-0.001-0.002-0.003-0.002-0.005-0.004-0.037-0.041-0.079-0.075-0.125-0.105-0.013-0.009-0.027-0.017-0.041-0.025-0.040-0.021-0.081-0.039-0.124-0.052-0.012-0.003-0.022-0.008-0.034-0.011-0.047-0.011-0.095-0.018-0.145-0.018h-15.238c-0.695 0-1.261 0.566-1.261 1.261v29.635c0 0.695 0.566 1.261 1.261 1.261h20.807c0.696 0 1.261-0.566 1.261-1.261v-23.119c0-0.024-0.004-0.047-0.006-0.070zM14.759 26.399c-0.555 0.523-1.378 0.758-2.339 0.758-0.214 0-0.406-0.010-0.555-0.032v2.574h-1.612v-7.102c0.502-0.085 1.207-0.15 2.2-0.15 1.004 0 1.72 0.192 2.2 0.577 0.459 0.363 0.769 0.962 0.769 1.666s-0.235 1.303-0.662 1.709zM19.533 26.698v3.001h-1.623v-2.948l-2.275-4.25h1.858l0.737 1.73c0.224 0.523 0.374 0.908 0.555 1.378h0.022c0.16-0.449 0.331-0.865 0.544-1.378l0.726-1.73h1.826l-2.371 4.197zM5.675 20.945v-20.151h14.607v6.452c0 0.348 0.282 0.631 0.631 0.631h5.569l0.001 13.068h-20.808zM17.057 11.66c0.751-0.020 1.331-0.646 1.343-1.398 0.008-0.484 0.001-0.97 0.002-1.454s0.003-0.97-0.002-1.454c-0.001-0.113-0.012-0.23-0.045-0.337-0.206-0.673-0.707-1.050-1.363-1.13-0.783-0.096-1.58-0.117-2.369-0.103-0.431 0.008-0.87 0.123-1.288 0.248-0.58 0.174-0.808 0.508-0.83 1.111-0.013 0.344 0.001 0.688-0.020 1.031-0.014 0.249 0.083 0.313 0.322 0.309 0.811-0.013 1.622 0.001 2.433-0.007 0.19-0.002 0.237 0.069 0.237 0.248 0 0.245-0.167 0.207-0.31 0.207-1.269 0.004-2.539 0.025-3.808 0-0.969-0.019-1.677 0.644-1.871 1.472-0.141 0.604-0.249 1.21-0.194 1.828 0.057 0.649 0.147 1.298 0.471 1.88 0.252 0.452 0.632 0.732 1.16 0.762 0.299 0.018 0.599-0.003 0.899 0.008 0.178 0.006 0.228-0.070 0.224-0.236-0.008-0.37 0.003-0.741-0.004-1.11-0.007-0.358 0.103-0.677 0.297-0.969 0.423-0.635 1.037-0.896 1.782-0.896 0.979-0 1.958 0.016 2.936-0.010zM13.756 7.779c-0.322-0-0.591-0.262-0.596-0.58-0.005-0.325 0.276-0.616 0.596-0.616 0.303-0 0.591 0.284 0.599 0.59 0.008 0.329-0.266 0.606-0.599 0.605zM21.76 11.709c-0.057-0.649-0.147-1.297-0.471-1.88-0.252-0.452-0.632-0.731-1.161-0.762-0.299-0.017-0.6 0.003-0.899-0.008-0.179-0.006-0.228 0.070-0.224 0.236 0.008 0.37-0.004 0.741 0.004 1.11 0.007 0.358-0.104 0.677-0.297 0.969-0.422 0.635-1.036 0.896-1.781 0.896-0.979 0-1.957-0.016-2.935 0.010-0.75 0.020-1.33 0.646-1.343 1.397-0.008 0.485-0.002 0.97-0.002 1.454s-0.003 0.969 0.002 1.455c0.001 0.113 0.013 0.23 0.045 0.337 0.206 0.674 0.707 1.049 1.364 1.13 0.783 0.095 1.579 0.117 2.369 0.103 0.431-0.008 0.87-0.123 1.288-0.248 0.58-0.174 0.808-0.508 0.83-1.111 0.013-0.344-0.001-0.688 0.019-1.031 0.015-0.25-0.083-0.313-0.321-0.309-0.811 0.013-1.622-0.001-2.433 0.007-0.19 0.002-0.237-0.070-0.237-0.248 0-0.245 0.167-0.207 0.31-0.207 1.269-0.004 2.539-0.025 3.808-0.001 0.969 0.019 1.677-0.643 1.871-1.472 0.141-0.604 0.248-1.21 0.194-1.829zM17.297 16.162c0.322 0 0.591 0.261 0.596 0.579 0.005 0.325-0.276 0.616-0.596 0.616-0.303 0-0.592-0.284-0.599-0.591-0.008-0.329 0.266-0.606 0.599-0.605z"></path>
</svg>
