<!-- Generated by IcoMoon.io -->
<svg version="1.1" xmlns="http://www.w3.org/2000/svg" width="28" height="32" viewBox="0 0 28 32">
<title>qq</title>
<path d="M27.242 25.94c-0.724 0.088-2.817-3.312-2.817-3.312 0 1.969-1.014 4.538-3.206 6.393 1.058 0.326 3.444 1.204 2.877 2.162-0.459 0.775-7.883 0.495-10.026 0.254-2.143 0.241-9.566 0.522-10.026-0.254-0.568-0.958 1.816-1.835 2.876-2.161-2.193-1.855-3.207-4.424-3.207-6.393 0 0-2.094 3.4-2.817 3.312-0.337-0.041-0.78-1.862 0.587-6.262 0.644-2.074 1.381-3.798 2.521-6.644-0.192-7.342 2.842-13.501 10.065-13.501 7.143 0 10.247 6.038 10.066 13.501 1.138 2.84 1.879 4.575 2.521 6.643 1.367 4.4 0.924 6.221 0.587 6.262z"></path>
</svg>
