<!-- Generated by IcoMoon.io -->
<svg version="1.1" xmlns="http://www.w3.org/2000/svg" width="28" height="32" viewBox="0 0 28 32">
<title>qrcode</title>
<path d="M0 13.602h12.059v-12.059h-12.059v12.059zM4.020 5.562h4.020v4.020h-4.020v-4.020zM16.078 1.543v12.059h12.059v-12.059h-12.059zM24.118 9.582h-4.020v-4.020h4.020v4.020zM0 29.68h12.059v-12.059h-12.059v12.059zM4.020 21.641h4.020v4.020h-4.020v-4.020zM26.127 17.621h2.010v8.039h-6.029v-2.010h-2.010v6.029h-4.020v-12.059h6.029v2.010h4.020v-2.010zM26.127 27.67h2.010v2.010h-2.010v-2.010zM22.108 27.67h2.010v2.010h-2.010v-2.010z"></path>
</svg>
