<!-- Generated by IcoMoon.io -->
<svg version="1.1" xmlns="http://www.w3.org/2000/svg" width="24" height="32" viewBox="0 0 24 32">
<title>question</title>
<path d="M12.688-0.467c-5.013 0-8.26 2.054-10.809 5.717-0.462 0.665-0.32 1.576 0.325 2.065l2.709 2.054c0.651 0.494 1.578 0.379 2.088-0.261 1.573-1.971 2.74-3.106 5.198-3.106 1.932 0 4.322 1.244 4.322 3.117 0 1.416-1.169 2.144-3.077 3.213-2.225 1.247-5.169 2.8-5.169 6.683v0.615c0 0.832 0.675 1.507 1.507 1.507h4.552c0.832 0 1.507-0.675 1.507-1.507v-0.363c0-2.692 7.868-2.804 7.868-10.088 0-5.486-5.69-9.647-11.021-9.647zM12.059 22.988c-2.399 0-4.351 1.952-4.351 4.351s1.952 4.351 4.351 4.351 4.351-1.952 4.351-4.351-1.952-4.351-4.351-4.351z"></path>
</svg>
