<!-- Generated by IcoMoon.io -->
<svg version="1.1" xmlns="http://www.w3.org/2000/svg" width="32" height="32" viewBox="0 0 32 32">
<title>question-circle1</title>
<path d="M31.654 15.611c0 8.604-6.974 15.576-15.576 15.576s-15.576-6.972-15.576-15.576c0-8.599 6.974-15.576 15.576-15.576s15.576 6.977 15.576 15.576zM16.496 5.186c-3.423 0-5.606 1.442-7.32 4.004-0.222 0.332-0.148 0.78 0.17 1.021l2.179 1.652c0.327 0.248 0.793 0.189 1.047-0.133 1.122-1.423 1.891-2.248 3.599-2.248 1.283 0 2.87 0.826 2.87 2.070 0 0.941-0.776 1.424-2.043 2.134-1.477 0.828-3.432 1.859-3.432 4.438v0.251c0 0.416 0.338 0.754 0.754 0.754h3.517c0.416 0 0.754-0.338 0.754-0.754v-0.084c0-1.788 5.225-1.862 5.225-6.699 0-3.643-3.779-6.406-7.319-6.406zM16.078 20.761c-1.593 0-2.889 1.296-2.889 2.889s1.296 2.889 2.889 2.889 2.889-1.296 2.889-2.889c0-1.593-1.296-2.889-2.889-2.889z"></path>
</svg>
