<!-- Generated by IcoMoon.io -->
<svg version="1.1" xmlns="http://www.w3.org/2000/svg" width="32" height="32" viewBox="0 0 32 32">
<title>question-circle</title>
<path d="M16.078 0.035c-8.602 0-15.576 6.977-15.576 15.576 0 8.604 6.974 15.576 15.576 15.576s15.576-6.972 15.576-15.576c0-8.599-6.974-15.576-15.576-15.576zM16.078 28.173c-6.942 0-12.561-5.617-12.561-12.561 0-6.94 5.619-12.561 12.561-12.561 6.939 0 12.561 5.619 12.561 12.561s-5.617 12.561-12.561 12.561zM22.814 12.144c0 4.211-4.549 4.276-4.549 5.832v0.398c0 0.416-0.338 0.754-0.754 0.754h-2.867c-0.416 0-0.754-0.338-0.754-0.754v-0.544c0-2.245 1.702-3.142 2.988-3.864 1.103-0.618 1.779-1.039 1.779-1.858 0-1.083-1.382-1.802-2.499-1.802-1.456 0-2.129 0.689-3.074 1.882-0.255 0.322-0.72 0.381-1.047 0.133l-1.748-1.325c-0.321-0.243-0.393-0.695-0.166-1.028 1.484-2.179 3.374-3.403 6.317-3.403 3.082 0 6.372 2.406 6.372 5.577zM18.716 22.646c0 1.454-1.183 2.638-2.638 2.638s-2.638-1.183-2.638-2.638 1.183-2.638 2.638-2.638 2.638 1.183 2.638 2.638z"></path>
</svg>
