<!-- Generated by IcoMoon.io -->
<svg version="1.1" xmlns="http://www.w3.org/2000/svg" width="32" height="32" viewBox="0 0 32 32">
<title>question-mark</title>
<path d="M16.016-0.091c-2.242 0-4.359 0.828-6.026 2.302-1.857 1.667-2.943 4.104-2.943 6.666 0 0.706 0.576 1.281 1.281 1.281h1.281c0.706 0 1.281-0.576 1.281-1.281 0-1.474 0.633-2.818 1.722-3.844 0.961-0.833 2.122-1.281 3.403-1.281 0.193 0 0.388-0.005 0.581 0.060 2.37 0.255 4.229 2.177 4.484 4.484 0.255 2.115-0.846 4.099-2.703 5.125-2.69 1.409-4.344 4.099-4.344 7.047v3.784c0 0.706 0.576 1.281 1.281 1.281h1.281c0.706 0 1.281-0.576 1.281-1.281v-3.784c0-1.474 0.893-2.875 2.302-3.644 3.268-1.729 5.133-5.258 4.685-8.909-0.385-4.164-3.729-7.5-7.828-7.948-0.32-0.065-0.701-0.060-1.021-0.060zM14.734 28.097c-0.353 0-0.641 0.285-0.641 0.641v2.563c0 0.355 0.288 0.641 0.641 0.641h2.563c0.355 0 0.641-0.285 0.641-0.641v-2.563c0-0.355-0.285-0.641-0.641-0.641z"></path>
</svg>
