<!-- Generated by IcoMoon.io -->
<svg version="1.1" xmlns="http://www.w3.org/2000/svg" width="40" height="32" viewBox="0 0 40 32">
<title>quidditch</title>
<path d="M16.11 13.149l5.445 6.858s-1.043 6.431-4.811 9.427c-3.762 2.996-16.744 2.142-16.744 2.142s0.239-1.451 0.691-3.479l5.941-7.047c0.251-0.295-0.057-0.729-0.415-0.597l-3.793 1.388c0.904-2.619 2.054-5.024 3.429-6.124 3.762-3.002 10.256-2.569 10.256-2.569zM31.058 21.628c-2.763 0-5.012 2.248-5.012 5.018s2.242 5.018 5.012 5.018c2.77 0 5.012-2.248 5.012-5.018 0-2.776-2.248-5.018-5.012-5.018zM39.976 1.48l-1.244-1.57c-0.345-0.433-0.973-0.502-1.407-0.163l-14.602 11.173-2.142-2.701c-0.32-0.402-0.948-0.327-1.168 0.138l-1.589 3.429 5.445 6.858 3.693-0.779c0.503-0.107 0.716-0.703 0.396-1.105l-2.142-2.694 14.602-11.173c0.433-0.345 0.502-0.98 0.157-1.413z"></path>
</svg>
