<!-- Generated by IcoMoon.io -->
<svg version="1.1" xmlns="http://www.w3.org/2000/svg" width="31" height="32" viewBox="0 0 31 32">
<title>quinscape</title>
<path d="M18.961 29.341h-0.082c-5.483 0-9.93-4.447-9.93-9.93s4.447-9.93 9.93-9.93c5.96 0 10.564 5.219 9.861 11.092 0.251 0.32 0.515 0.603 0.703 0.961 0.842-1.903 1.275-3.919 1.275-6.136 0-8.485-6.877-15.362-15.362-15.362-8.479 0-15.356 6.877-15.356 15.362s6.877 15.362 15.356 15.362c1.558 0 3.002-0.201 4.422-0.634-0.327-0.22-0.565-0.515-0.842-0.791l0.025 0.006zM17.63 24.957c0-3.442 2.789-6.23 6.23-6.23s6.23 2.789 6.23 6.23c0 3.442-2.789 6.23-6.23 6.23s-6.23-2.789-6.23-6.23z"></path>
</svg>
