<!-- Generated by IcoMoon.io -->
<svg version="1.1" xmlns="http://www.w3.org/2000/svg" width="28" height="32" viewBox="0 0 28 32">
<title>quora</title>
<path d="M27.666 23.82h-1.84c-0.094 0.848-0.66 1.934-2.073 1.934-1.288 0-2.217-0.892-3.109-2.248 2.776-2.148 4.692-5.496 4.692-9.609 0.006-7.38-6.067-12.354-12.461-12.354-6.262 0-12.417 5.006-12.417 12.354 0 8.422 8.246 13.918 15.639 11.87 1.237 2.11 2.87 3.913 5.979 3.913 5.138 0 5.703-4.729 5.59-5.86zM18.653 20.209c-1.225-1.834-2.745-3.278-5.747-3.278-1.916 0-3.41 0.628-4.334 1.432l0.766 1.526c0.389-0.188 0.816-0.251 1.244-0.251 2.23 0 3.373 1.934 4.346 3.85-0.628 0.188-1.3 0.264-2.054 0.264-4.71 0-6.752-3.329-6.752-9.842 0-6.557 2.041-9.917 6.752-9.917 4.786 0 6.827 3.36 6.827 9.905 0.006 2.625-0.339 4.748-1.049 6.312z"></path>
</svg>
