<!-- Generated by IcoMoon.io -->
<svg version="1.1" xmlns="http://www.w3.org/2000/svg" width="32" height="32" viewBox="0 0 32 32">
<title>quote-left</title>
<path d="M29.142 15.611h-5.024v-4.020c0-2.217 1.802-4.020 4.020-4.020h0.503c0.835 0 1.507-0.672 1.507-1.507v-3.015c0-0.835-0.672-1.507-1.507-1.507h-0.503c-5.552 0-10.049 4.497-10.049 10.049v15.073c0 1.664 1.35 3.015 3.015 3.015h8.039c1.664 0 3.015-1.35 3.015-3.015v-8.039c0-1.664-1.35-3.015-3.015-3.015zM11.054 15.611h-5.024v-4.020c0-2.217 1.803-4.020 4.020-4.020h0.502c0.835 0 1.507-0.672 1.507-1.507v-3.015c0-0.835-0.672-1.507-1.507-1.507h-0.502c-5.552 0-10.049 4.497-10.049 10.049v15.073c0 1.664 1.35 3.015 3.015 3.015h8.039c1.664 0 3.015-1.35 3.015-3.015v-8.039c0-1.664-1.35-3.015-3.015-3.015z"></path>
</svg>
