<!-- Generated by IcoMoon.io -->
<svg version="1.1" xmlns="http://www.w3.org/2000/svg" width="32" height="32" viewBox="0 0 32 32">
<title>quote-right</title>
<path d="M29.142 1.543h-8.039c-1.664 0-3.015 1.35-3.015 3.015v8.039c0 1.664 1.35 3.015 3.015 3.015h5.024v4.020c0 2.217-1.802 4.020-4.020 4.020h-0.503c-0.835 0-1.507 0.672-1.507 1.507v3.015c0 0.835 0.672 1.507 1.507 1.507h0.503c5.552 0 10.049-4.497 10.049-10.049v-15.073c0-1.664-1.35-3.015-3.015-3.015zM11.054 1.543h-8.039c-1.664 0-3.015 1.35-3.015 3.015v8.039c0 1.664 1.35 3.015 3.015 3.015h5.024v4.020c0 2.217-1.803 4.020-4.020 4.020h-0.502c-0.835 0-1.507 0.672-1.507 1.507v3.015c0 0.835 0.672 1.507 1.507 1.507h0.502c5.552 0 10.049-4.497 10.049-10.049v-15.073c0-1.664-1.35-3.015-3.015-3.015z"></path>
</svg>
