<!-- Generated by IcoMoon.io -->
<svg version="1.1" xmlns="http://www.w3.org/2000/svg" width="28" height="32" viewBox="0 0 28 32">
<title>quran</title>
<path d="M28.137 22.043v-20.902c0-1.005-0.603-1.608-1.608-1.608h-20.5c-3.417 0-6.029 2.613-6.029 6.029v20.098c0 3.417 2.613 6.029 6.029 6.029h20.5c0.804 0 1.608-0.603 1.608-1.608v-1.005c0-0.402-0.201-0.804-0.603-1.206-0.201-1.005-0.201-3.819 0-4.622 0.402-0.201 0.603-0.603 0.603-1.206zM18.91 8.691c0.038-0.076 0.11-0.114 0.183-0.114s0.146 0.038 0.183 0.114l0.702 1.422 1.57 0.228c0.168 0.025 0.235 0.23 0.114 0.349l-1.136 1.107 0.268 1.563c0.023 0.133-0.082 0.24-0.202 0.24-0.031 0-0.064-0.008-0.095-0.024l-1.404-0.738-1.404 0.738c-0.031 0.016-0.064 0.024-0.095 0.024-0.119 0-0.224-0.107-0.202-0.24l0.268-1.563-1.136-1.107c-0.122-0.119-0.055-0.325 0.114-0.349l1.57-0.228 0.703-1.422zM15.274 4.357c0.859 0 1.712 0.156 2.536 0.465 0.235 0 0.425 0.191 0.425 0.425s-0.191 0.425-0.425 0.425c-0.054 0-0.105-0.010-0.152-0.028l0.003 0.001c-0.042 0-0.194-0.013-0.259-0.013-3.285 0-5.958 2.672-5.958 5.958s2.672 5.958 5.958 5.958c0.065 0 0.219-0.013 0.259-0.013 0.247 0 0.427 0.197 0.427 0.426 0 0.187-0.122 0.346-0.29 0.403-0.821 0.306-1.67 0.461-2.524 0.461-3.989 0.001-7.234-3.245-7.234-7.234s3.245-7.235 7.235-7.235zM23.917 27.67h-17.887c-1.206 0-2.010-0.804-2.010-2.010s1.005-2.010 2.010-2.010h17.887v4.020z"></path>
</svg>
