<!-- Generated by IcoMoon.io -->
<svg version="1.1" xmlns="http://www.w3.org/2000/svg" width="36" height="32" viewBox="0 0 36 32">
<title>r-project</title>
<path d="M36.49 13.765c0-6.752-8.171-12.222-18.245-12.222s-18.245 5.47-18.245 12.222c0 6.017 6.488 11.016 15.036 12.027v3.888h6.224v-3.863c1.526-0.17 2.99-0.465 4.359-0.873l2.519 4.736h7.034l-4.233-7.141c3.423-2.223 5.552-5.332 5.552-8.774zM7.172 14.676c0-4.616 6.212-8.353 13.868-8.353s13.309 2.556 13.309 8.353c0 3.147-1.664 5.339-4.415 6.683-0.151-0.1-0.295-0.182-0.402-0.232-0.641-0.327-1.746-0.66-1.746-0.66s5.439-0.402 5.439-5.822-5.69-5.521-5.69-5.521h-12.498v13.083c-4.654-1.35-7.863-4.214-7.863-7.53zM21.31 17.081v-3.492c3.63 0 5.514-0.427 5.514 1.715 0 2.292-2.399 1.777-5.514 1.777zM21.254 21.634h1.671c0.678 0 1.187 0.735 1.507 1.206-1.011 0.119-2.073 0.176-3.178 0.182v-1.388z"></path>
</svg>
