<!-- Generated by IcoMoon.io -->
<svg version="1.1" xmlns="http://www.w3.org/2000/svg" width="32" height="32" viewBox="0 0 32 32">
<title>ra-file-format</title>
<path d="M18.994 23.469h-0.021c-0.108 0.432-0.216 0.983-0.335 1.404l-0.432 1.545h1.609l-0.453-1.545c-0.13-0.432-0.259-0.972-0.367-1.404zM27.737 7.239c-0.002-0.148-0.049-0.293-0.15-0.408l-6.2-7.082c-0.001-0.002-0.003-0.002-0.005-0.004-0.037-0.041-0.079-0.075-0.125-0.105-0.013-0.009-0.027-0.017-0.041-0.025-0.040-0.021-0.081-0.039-0.124-0.052-0.012-0.003-0.022-0.008-0.034-0.011-0.047-0.011-0.095-0.018-0.145-0.018h-15.238c-0.695 0-1.261 0.566-1.261 1.261v29.635c0 0.695 0.566 1.261 1.261 1.261h20.807c0.696 0 1.261-0.566 1.261-1.261v-23.119c0-0.024-0.004-0.047-0.006-0.070zM13.584 29.517c-0.119-0.205-0.292-0.799-0.508-1.696-0.195-0.907-0.508-1.156-1.177-1.166h-0.497v2.862h-1.631v-7.183c0.53-0.086 1.318-0.151 2.193-0.151 1.080 0 1.836 0.162 2.355 0.572 0.432 0.346 0.67 0.854 0.67 1.523 0 0.929-0.659 1.566-1.286 1.793v0.032c0.508 0.205 0.788 0.691 0.972 1.361 0.227 0.821 0.454 1.771 0.594 2.052h-1.685zM20.614 29.517l-0.561-1.868h-2.085l-0.519 1.868h-1.706l2.225-7.28h2.16l2.257 7.28h-1.772zM5.675 20.945v-20.151h14.607v6.452c0 0.348 0.282 0.631 0.631 0.631h5.569l0.001 13.068h-20.808zM12.148 23.404c-0.4 0-0.627 0.033-0.745 0.054v2.009h0.648c0.821 0 1.307-0.41 1.307-1.047-0-0.669-0.454-1.005-1.21-1.015zM17.007 8.115l-3.041 2.27c0 0-0.285 0.029-0.611 0.109v3.295c0.326 0.070 0.611 0.103 0.611 0.103l2.975 2.208c0 0 0.546 0.457 0.546-0.015 0-0.474 0-7.53 0-7.961 0-0.371-0.48-0.009-0.48-0.009zM12.39 11.159c0 0.615 0 1.691 0 2.122 0 0.165 0.232 0.293 0.519 0.388v-3.034c-0.286 0.119-0.519 0.288-0.519 0.523zM15.608 5.487c-3.648 0-6.615 2.968-6.615 6.615s2.968 6.615 6.615 6.615c3.648 0 6.616-2.968 6.616-6.615s-2.968-6.615-6.616-6.615zM15.608 17.773c-3.126 0-5.67-2.543-5.67-5.67s2.543-5.67 5.67-5.67c3.126 0 5.67 2.543 5.67 5.67s-2.543 5.67-5.67 5.67z"></path>
</svg>
