<!-- Generated by IcoMoon.io -->
<svg version="1.1" xmlns="http://www.w3.org/2000/svg" width="31" height="32" viewBox="0 0 31 32">
<title>radiation</title>
<path d="M10.539 15.624h-9.521c-0.572 0-1.055 0.484-1.018 1.055 0.32 4.761 2.789 8.931 6.438 11.569 0.465 0.333 1.124 0.182 1.426-0.301l5.050-8.064c-1.419-0.898-2.374-2.462-2.374-4.258zM12.913 11.372c0.772-0.484 1.683-0.779 2.663-0.779s1.884 0.295 2.663 0.779l5.050-8.071c0.301-0.484 0.151-1.137-0.352-1.407-2.192-1.181-4.698-1.859-7.361-1.859s-5.169 0.678-7.361 1.859c-0.502 0.27-0.653 0.93-0.352 1.407l5.050 8.071zM15.576 12.609c-1.664 0-3.015 1.35-3.015 3.015s1.35 3.015 3.015 3.015 3.015-1.35 3.015-3.015-1.35-3.015-3.015-3.015zM30.134 15.624h-9.521c0 1.796-0.955 3.36-2.374 4.252l5.050 8.064c0.301 0.484 0.961 0.641 1.426 0.301 3.649-2.638 6.117-6.808 6.438-11.569 0.038-0.565-0.446-1.049-1.017-1.049z"></path>
</svg>
