<!-- Generated by IcoMoon.io -->
<svg version="1.1" xmlns="http://www.w3.org/2000/svg" width="31" height="32" viewBox="0 0 31 32">
<title>radiation-alt</title>
<path d="M11.556 15.611h-4.968c-0.578 0-1.061 0.484-1.005 1.055 0.289 2.738 1.696 5.138 3.737 6.771 0.477 0.383 1.181 0.283 1.507-0.239l2.619-4.195c-1.13-0.703-1.89-1.96-1.89-3.392zM17.699 12.214l2.625-4.202c0.308-0.49 0.151-1.156-0.364-1.413-1.325-0.653-2.807-1.036-4.384-1.036s-3.059 0.383-4.39 1.036c-0.515 0.258-0.666 0.923-0.364 1.413l2.625 4.202c0.615-0.389 1.344-0.622 2.123-0.622s1.514 0.232 2.129 0.622zM24.563 15.611h-4.968c0 1.432-0.76 2.688-1.897 3.398l2.619 4.195c0.327 0.521 1.030 0.622 1.507 0.239 2.047-1.633 3.448-4.032 3.737-6.77 0.069-0.578-0.421-1.061-0.999-1.061zM15.576 0.035c-8.604 0-15.576 6.971-15.576 15.576s6.971 15.576 15.576 15.576 15.576-6.971 15.576-15.576-6.971-15.576-15.576-15.576zM15.576 27.168c-6.375 0-11.556-5.181-11.556-11.556s5.181-11.556 11.556-11.556 11.556 5.181 11.556 11.556-5.181 11.556-11.556 11.556zM15.576 13.602c-1.112 0-2.010 0.898-2.010 2.010s0.898 2.010 2.010 2.010 2.010-0.898 2.010-2.010-0.898-2.010-2.010-2.010z"></path>
</svg>
