<!-- Generated by IcoMoon.io -->
<svg version="1.1" xmlns="http://www.w3.org/2000/svg" width="36" height="32" viewBox="0 0 36 32">
<title>rainbow</title>
<path d="M16.851 1.587c-9.603 0.641-16.851 9.057-16.851 18.685v8.403c0 0.553 0.452 1.005 1.005 1.005h2.010c0.553 0 1.005-0.452 1.005-1.005v-9.044c0-8.366 7.342-15.055 15.921-13.949 7.091 0.911 12.216 7.292 12.216 14.439v8.554c0 0.553 0.452 1.005 1.005 1.005h2.010c0.553 0 1.005-0.452 1.005-1.005v-9.044c0-10.382-8.793-18.754-19.325-18.044zM16.499 7.673c-6.073 0.779-10.47 6.249-10.47 12.379v8.623c0 0.553 0.452 1.005 1.005 1.005h2.010c0.553 0 1.005-0.452 1.005-1.005v-9.044c0-4.698 4.051-8.466 8.843-8.002 4.177 0.408 7.235 4.158 7.235 8.359v8.686c0 0.553 0.452 1.005 1.005 1.005h2.010c0.553 0 1.005-0.452 1.005-1.005v-9.044c0-7.172-6.293-12.9-13.648-11.958zM16.889 13.721c-2.864 0.559-4.83 3.235-4.83 6.149v8.805c0 0.553 0.452 1.005 1.005 1.005h2.010c0.553 0 1.005-0.452 1.005-1.005v-9.044c0-1.105 0.898-2.010 2.010-2.010s2.010 0.904 2.010 2.010v9.044c0 0.553 0.452 1.005 1.005 1.005h2.010c0.553 0 1.005-0.452 1.005-1.005v-9.044c0-3.718-3.379-6.657-7.229-5.91z"></path>
</svg>
