<!-- Generated by IcoMoon.io -->
<svg version="1.1" xmlns="http://www.w3.org/2000/svg" width="32" height="32" viewBox="0 0 32 32">
<title>random</title>
<path d="M31.715 22.082c0.589 0.589 0.589 1.543 0 2.132l-5.024 5.023c-0.943 0.943-2.573 0.282-2.573-1.066v-2.511h-3.692c-0.217-0-0.413-0.092-0.551-0.239l-0-0-4.431-4.748 3.35-3.589 3.315 3.552h2.010v-2.511c0-1.346 1.629-2.010 2.573-1.066l5.024 5.023zM0.754 10.587h5.276l3.315 3.552 3.35-3.589-4.431-4.748c-0.138-0.148-0.334-0.239-0.551-0.239-0 0-0 0-0 0h-6.958c-0.416 0-0.754 0.338-0.754 0.754v3.517c0 0.416 0.338 0.754 0.754 0.754zM24.118 10.587v2.511c0 1.348 1.631 2.009 2.573 1.066l5.024-5.024c0.589-0.589 0.589-1.543 0-2.132l-5.024-5.023c-0.944-0.944-2.573-0.281-2.573 1.066v2.511h-3.692c-0.217 0-0.413 0.092-0.551 0.239l-0 0-13.845 14.834h-5.276c-0.416 0-0.754 0.338-0.754 0.754v3.517c0 0.416 0.338 0.754 0.754 0.754h6.958c0.209 0 0.408-0.087 0.551-0.239l13.845-14.834h2.010z"></path>
</svg>
