<!-- Generated by IcoMoon.io -->
<svg version="1.1" xmlns="http://www.w3.org/2000/svg" width="32" height="32" viewBox="0 0 32 32">
<title>rar-file-format</title>
<path d="M8.627 23.639c-0.42 0-0.658 0.034-0.783 0.057v2.11h0.681c0.863 0 1.373-0.431 1.373-1.1-0-0.704-0.477-1.056-1.271-1.067zM15.822 23.707h-0.023c-0.113 0.454-0.227 1.033-0.352 1.475l-0.454 1.623h1.691l-0.477-1.623c-0.137-0.454-0.273-1.022-0.386-1.475zM27.737 7.239c-0.002-0.147-0.049-0.293-0.151-0.408l-6.2-7.082c-0.002-0.002-0.004-0.003-0.005-0.004-0.037-0.041-0.080-0.075-0.126-0.105-0.013-0.009-0.027-0.017-0.041-0.025-0.039-0.021-0.081-0.039-0.124-0.052-0.012-0.003-0.022-0.008-0.034-0.011-0.047-0.011-0.095-0.018-0.145-0.018h-15.237c-0.695 0-1.261 0.566-1.261 1.261v29.635c0 0.695 0.566 1.261 1.261 1.261h20.807c0.695 0 1.261-0.566 1.261-1.261v-23.119c0-0.024-0.004-0.047-0.006-0.071zM10.136 30.062c-0.125-0.216-0.307-0.839-0.533-1.782-0.204-0.953-0.533-1.214-1.237-1.225h-0.522v3.007h-1.714v-7.546c0.556-0.091 1.385-0.159 2.304-0.159 1.135 0 1.93 0.17 2.474 0.601 0.454 0.363 0.704 0.897 0.704 1.6 0 0.976-0.692 1.646-1.35 1.884v0.034c0.533 0.216 0.828 0.726 1.021 1.43 0.238 0.862 0.477 1.861 0.624 2.156l-1.77 0zM17.524 30.062l-0.59-1.963h-2.19l-0.544 1.963h-1.793l2.337-7.648h2.27l2.372 7.648h-1.861zM24.414 30.062c-0.125-0.216-0.307-0.839-0.534-1.782-0.204-0.953-0.533-1.214-1.236-1.225h-0.522v3.007h-1.714v-7.546c0.556-0.091 1.384-0.159 2.304-0.159 1.135 0 1.929 0.17 2.474 0.601 0.454 0.363 0.704 0.897 0.704 1.6 0 0.976-0.693 1.646-1.351 1.884v0.034c0.534 0.216 0.829 0.726 1.022 1.43 0.238 0.862 0.477 1.861 0.624 2.156l-1.77 0zM5.675 20.945v-20.151h14.607v6.452c0 0.348 0.283 0.631 0.631 0.631h5.57v13.068h-20.807zM22.904 23.639c-0.42 0-0.658 0.034-0.783 0.057v2.11h0.681c0.862 0 1.373-0.431 1.373-1.1 0-0.704-0.477-1.056-1.271-1.067zM8.675 8.133h9.551v1.265h-9.551v-1.265zM18.227 11.018h1.615v3.575h-1.615v1.548h-9.551v1.263h9.551v-1.192h4.776v-1.62h-2.669v-0.642h1.054v-0.475h-1.054v-0.552h1.054v-0.476h-1.054v-0.54h1.054v-0.475h-1.054v-0.416h2.669v-1.62h-4.776zM9.904 10.049h7.095v5.515h-7.095v-5.515z"></path>
</svg>
