<!-- Generated by IcoMoon.io -->
<svg version="1.1" xmlns="http://www.w3.org/2000/svg" width="26" height="32" viewBox="0 0 26 32">
<title>raspberry-pi</title>
<path d="M23.364 14.135l-0.232-0.408c0.006-2.914-1.344-4.101-2.92-5.006 0.477-0.126 0.967-0.226 1.105-0.829 0.823-0.207 0.992-0.59 1.074-0.992 0.214-0.144 0.93-0.546 0.854-1.237 0.402-0.276 0.628-0.634 0.509-1.137 0.433-0.471 0.546-0.86 0.364-1.218 0.521-0.647 0.289-0.98 0.069-1.313 0.389-0.703 0.044-1.457-1.043-1.331-0.433-0.634-1.375-0.49-1.52-0.49-0.163-0.201-0.377-0.377-1.036-0.295-0.427-0.383-0.904-0.314-1.401-0.132-0.584-0.458-0.973-0.088-1.419 0.050-0.71-0.226-0.873 0.082-1.218 0.214-0.773-0.163-1.011 0.188-1.382 0.559l-0.433-0.006c-1.168 0.678-1.746 2.060-1.953 2.77-0.207-0.71-0.785-2.091-1.953-2.77l-0.433 0.006c-0.371-0.371-0.609-0.722-1.382-0.559-0.352-0.126-0.509-0.44-1.218-0.214-0.289-0.088-0.559-0.276-0.873-0.27-0.163 0.006-0.345 0.063-0.546 0.22-0.496-0.188-0.973-0.251-1.401 0.132-0.66-0.082-0.879 0.088-1.036 0.295-0.144 0-1.087-0.144-1.52 0.49-1.087-0.126-1.426 0.628-1.036 1.331-0.22 0.339-0.452 0.672 0.069 1.313-0.182 0.358-0.069 0.747 0.364 1.218-0.113 0.503 0.113 0.86 0.509 1.137-0.075 0.691 0.641 1.093 0.854 1.237 0.082 0.402 0.251 0.779 1.074 0.992 0.138 0.597 0.628 0.703 1.105 0.829-1.576 0.904-2.927 2.091-2.92 5.006l-0.232 0.408c-1.809 1.080-3.435 4.566-0.892 7.392 0.163 0.886 0.446 1.52 0.691 2.223 0.371 2.839 2.795 4.164 3.429 4.321 0.936 0.703 1.934 1.369 3.278 1.834 1.275 1.294 2.657 1.784 4.038 1.784h0.063c1.388 0 2.763-0.49 4.032-1.784 1.35-0.465 2.343-1.13 3.278-1.834 0.641-0.157 3.059-1.482 3.429-4.321 0.245-0.703 0.527-1.338 0.691-2.223 2.55-2.833 0.923-6.312-0.879-7.392zM21.97 13.633c-0.094 1.175-6.212-4.089-5.156-4.265 2.87-0.471 5.251 1.206 5.156 4.265zM19.269 19.48c-1.539 0.992-3.756 0.352-4.949-1.432s-0.917-4.032 0.622-5.024c1.539-0.992 3.756-0.352 4.949 1.432s0.917 4.032-0.622 5.025zM15.004 1.373c0.050 0.264 0.113 0.427 0.182 0.477 0.339-0.364 0.615-0.735 1.055-1.087 0 0.207-0.107 0.427 0.157 0.59 0.232-0.314 0.553-0.597 0.973-0.835-0.201 0.352-0.038 0.458 0.075 0.603 0.32-0.276 0.628-0.553 1.218-0.772-0.163 0.195-0.389 0.389-0.151 0.615 0.333-0.207 0.666-0.415 1.451-0.559-0.176 0.195-0.546 0.396-0.32 0.59 0.415-0.157 0.879-0.276 1.388-0.339-0.245 0.201-0.446 0.396-0.245 0.553 0.446-0.138 1.061-0.32 1.658-0.163l-0.377 0.383c-0.044 0.050 0.886 0.038 1.501 0.050-0.226 0.314-0.452 0.609-0.584 1.143 0.063 0.063 0.364 0.025 0.653 0-0.295 0.622-0.804 0.772-0.923 1.043 0.182 0.138 0.427 0.1 0.703 0.006-0.214 0.433-0.653 0.735-1.005 1.087 0.088 0.063 0.245 0.1 0.609 0.057-0.327 0.345-0.716 0.66-1.181 0.942 0.082 0.094 0.364 0.094 0.628 0.1-0.421 0.408-0.961 0.622-1.47 0.892 0.251 0.17 0.433 0.132 0.628 0.132-0.358 0.295-0.967 0.446-1.532 0.628 0.107 0.17 0.214 0.214 0.446 0.258-0.597 0.333-1.457 0.182-1.696 0.352 0.057 0.17 0.226 0.276 0.421 0.364-0.967 0.057-3.599-0.038-4.107-2.029 0.986-1.087 2.789-2.355 5.885-3.932-2.412 0.804-4.585 1.884-6.406 3.36-2.154-0.999-0.678-3.511 0.364-4.51zM12.844 8.571c1.52-0.019 3.398 1.118 3.392 2.179-0.006 0.942-1.319 1.702-3.379 1.69-2.016-0.025-3.373-0.955-3.366-1.872 0-0.747 1.645-2.041 3.354-1.997zM5.119 7.767c0.232-0.044 0.339-0.094 0.446-0.258-0.565-0.176-1.175-0.333-1.532-0.628 0.195 0 0.377 0.044 0.628-0.132-0.509-0.27-1.049-0.484-1.47-0.892 0.264-0.006 0.546 0 0.628-0.1-0.465-0.283-0.854-0.597-1.181-0.942 0.364 0.044 0.521 0.006 0.609-0.057-0.352-0.352-0.798-0.653-1.005-1.087 0.27 0.094 0.521 0.126 0.703-0.006-0.119-0.264-0.628-0.421-0.923-1.043 0.289 0.025 0.59 0.063 0.653 0-0.132-0.534-0.364-0.835-0.584-1.143 0.615-0.006 1.545 0 1.501-0.050l-0.377-0.383c0.597-0.157 1.212 0.025 1.658 0.163 0.201-0.157-0.006-0.352-0.245-0.553 0.509 0.069 0.967 0.182 1.388 0.339 0.22-0.195-0.144-0.396-0.32-0.59 0.785 0.144 1.118 0.352 1.451 0.559 0.239-0.226 0.013-0.421-0.151-0.615 0.59 0.214 0.898 0.496 1.218 0.772 0.107-0.144 0.276-0.251 0.075-0.603 0.421 0.239 0.741 0.521 0.973 0.835 0.258-0.163 0.157-0.389 0.157-0.59 0.44 0.352 0.716 0.722 1.055 1.087 0.069-0.050 0.126-0.214 0.182-0.477 1.043 0.999 2.519 3.511 0.377 4.51-1.821-1.476-3.994-2.556-6.406-3.36 3.096 1.57 4.899 2.845 5.885 3.932-0.502 1.997-3.14 2.085-4.107 2.029 0.195-0.088 0.364-0.201 0.421-0.364-0.251-0.176-1.105-0.025-1.708-0.352zM8.893 9.28c1.055 0.176-5.062 5.433-5.156 4.265-0.094-3.059 2.292-4.742 5.156-4.265zM2.399 21.013c-1.488-1.181-1.966-4.629 0.791-6.174 1.664-0.44 0.565 6.771-0.791 6.174zM8.115 27.18c-0.835 0.496-2.877 0.295-4.321-1.752-0.973-1.721-0.848-3.467-0.163-3.982 1.024-0.615 2.606 0.214 3.825 1.608 1.061 1.256 1.545 3.473 0.66 4.126zM6.456 19.662c-1.539-0.992-1.815-3.241-0.622-5.024s3.41-2.424 4.949-1.432 1.815 3.241 0.622 5.025c-1.2 1.784-3.417 2.424-4.949 1.432zM12.875 30.685c-1.847 0.075-3.655-1.488-3.63-2.029-0.025-0.798 2.248-1.419 3.724-1.382 1.488-0.063 3.492 0.471 3.498 1.187 0.031 0.691-1.809 2.255-3.592 2.223zM16.575 22.84c0.012 1.865-1.645 3.379-3.693 3.392s-3.718-1.495-3.731-3.354v-0.038c-0.012-1.865 1.645-3.379 3.693-3.392s3.718 1.495 3.731 3.354v0.038zM21.737 25.522c-1.589 2.173-3.743 2.255-4.541 1.652-0.835-0.779-0.201-3.197 0.948-4.522 1.313-1.463 2.72-2.418 3.699-1.671 0.66 0.647 1.049 3.084-0.107 4.541zM23.175 20.925c-1.35 0.59-2.449-6.613-0.791-6.174 2.757 1.551 2.28 4.999 0.791 6.174z"></path>
</svg>
