<!-- Generated by IcoMoon.io -->
<svg version="1.1" xmlns="http://www.w3.org/2000/svg" width="32" height="32" viewBox="0 0 32 32">
<title>raw-file-format-symbol</title>
<path d="M14.646 23.77h-0.020c-0.101 0.403-0.201 0.917-0.313 1.31l-0.403 1.441h1.501l-0.423-1.441c-0.122-0.403-0.242-0.907-0.343-1.31zM27.736 7.239c-0.001-0.148-0.048-0.293-0.15-0.408l-6.2-7.082c-0.002-0.002-0.004-0.003-0.005-0.004-0.037-0.041-0.080-0.075-0.126-0.105-0.013-0.009-0.027-0.017-0.041-0.025-0.039-0.021-0.081-0.039-0.124-0.052-0.012-0.003-0.022-0.008-0.034-0.011-0.047-0.011-0.095-0.018-0.145-0.018h-15.237c-0.696 0-1.261 0.566-1.261 1.261v29.635c0 0.696 0.565 1.261 1.261 1.261h20.807c0.695 0 1.261-0.566 1.261-1.261v-23.119c-0-0.024-0.004-0.047-0.007-0.071zM9.598 29.411c-0.111-0.191-0.272-0.745-0.474-1.582-0.182-0.846-0.474-1.078-1.098-1.087h-0.464v2.669h-1.521v-6.699c0.494-0.081 1.228-0.141 2.045-0.141 1.007 0 1.712 0.152 2.196 0.534 0.403 0.322 0.625 0.796 0.625 1.421 0 0.866-0.614 1.461-1.199 1.673v0.030c0.473 0.191 0.735 0.645 0.907 1.269 0.211 0.766 0.423 1.652 0.554 1.914h-1.571zM16.157 29.411l-0.524-1.743h-1.945l-0.483 1.743h-1.592l2.075-6.79h2.015l2.106 6.79h-1.652zM24.52 29.411h-1.663l-0.575-2.922c-0.13-0.685-0.242-1.32-0.322-2.095h-0.020c-0.121 0.766-0.231 1.41-0.393 2.095l-0.645 2.922h-1.683l-1.612-6.79h1.642l0.514 2.8c0.151 0.806 0.292 1.683 0.403 2.368h0.020c0.111-0.735 0.272-1.551 0.443-2.387l0.575-2.781h1.632l0.545 2.861c0.151 0.796 0.262 1.522 0.362 2.277h0.020c0.1-0.755 0.252-1.551 0.392-2.357l0.554-2.781h1.562l-1.752 6.79zM5.675 20.945v-20.151h14.607v6.452c0 0.348 0.283 0.631 0.631 0.631h5.57v13.068h-20.807zM8.258 23.71c-0.373 0-0.584 0.030-0.695 0.050v1.874h0.605c0.765 0 1.218-0.383 1.218-0.977 0-0.625-0.423-0.937-1.128-0.947zM17.476 13.233l4.18-1.072c0 0-0.053-2.081-1.711-4.071l-2.469 5.143zM10.765 14.703c0 0 0.96 1.847 3.323 2.909l-0.035-5.706-3.288 2.796zM19.44 7.644c0 0-1.672-1.239-4.262-1.158l2.533 5.112 1.729-3.955zM14.738 17.792c0 0 2.046 0.381 4.338-0.828l-4.517-3.484 0.179 4.312zM14.516 6.61c0 0-2.006 0.554-3.536 2.646l5.587 1.151-2.051-3.797zM19.618 16.563c0 0 1.56-1.378 2.018-3.928l-5.526 1.415 3.509 2.513zM10.669 9.853c0 0-0.798 1.923-0.093 4.415l4.347-3.694-4.255-0.721z"></path>
</svg>
