<!-- Generated by IcoMoon.io -->
<svg version="1.1" xmlns="http://www.w3.org/2000/svg" width="36" height="32" viewBox="0 0 36 32">
<title>reacteurope</title>
<path d="M34.7 16.748c-1.244 2.205-5.031 3.467-6.639 3.925-0.226-0.747-0.484-1.514-0.779-2.286-0.308 0-0.546-0.163-0.672-0.358l-0.006 0.006c-0.1 0.094-0.214 0.17-0.339 0.226 0.358 0.898 0.666 1.784 0.923 2.65-0.044 0.012-1.997 0.534-4.522 0.816 0.22-0.333 1.080-1.645 2.022-3.404-0.138-0.050-0.264-0.119-0.377-0.201-0.069 0.075-0.226 0.264-0.685 0.264-0.389 0.703-1.093 1.941-2.129 3.467-2.833 0.245-5.295 0.195-7.059 0.063-0.496-0.703-1.35-1.953-2.311-3.63-0.063-0.025-0.126-0.057-0.188-0.094-0.119 0.1-0.245 0.201-0.791 0.201 0.396 0.703 1.099 1.928 2.123 3.429-2.525-0.245-4.309-0.685-4.535-0.735 0.245-0.879 0.54-1.777 0.886-2.694-0.201 0-0.339 0.012-0.527-0.063-0.201 0.075-0.371 0.063-0.433 0.063-0.308 0.842-0.572 1.664-0.798 2.475-10.043-2.676-8.812-7.763-0.094-10.3 0.226 0.747 0.484 1.514 0.779 2.286 0.653 0 0.81 0.214 0.904 0.333 0.044-0.050 0.088-0.1 0.145-0.138-0.364-0.923-0.685-1.834-0.955-2.72 0.44-0.113 2.035-0.527 4.522-0.816-0.999 1.526-1.677 2.757-2.060 3.473 0.188 0.113 0.333 0.283 0.402 0.502 0.232-0.352 0.559-0.49 0.641-0.527 0.408-0.735 1.124-2.003 2.186-3.574 1.752-0.163 4.239-0.258 7.059-0.063 1.978 2.801 1.815 3.021 2.669 4.051 0.075-0.1 0.27-0.333 0.653-0.465-0.402-0.716-1.105-1.947-2.154-3.486 2.537 0.258 4.082 0.628 4.535 0.735-0.251 0.904-0.559 1.834-0.917 2.776 0.163 0.063 0.308 0.157 0.427 0.27l0.006 0.006c0.17-0.264 0.433-0.333 0.559-0.352 0.308-0.842 0.578-1.671 0.804-2.481 0.333 0.088 1.206 0.327 2.167 0.691 6.664 2.506 4.648 5.521 4.56 5.678zM27.49 29.378c-0.182 0.32-0.741 1.275-2.192 1.275-2.305 0-6.199-2.475-10.256-7.926 2.958 0.17 5.282-0.006 5.897-0.057-0.854 1.2-1.746 2.305-2.65 3.291 0.214 0.22 0.427 0.433 0.641 0.641 1.093-1.193 2.167-2.55 3.184-4.032 2.971-0.295 5.043-0.848 5.301-0.917 1.426 5.301 0.283 7.348 0.075 7.725zM8.347 1.851c0.182-0.32 0.747-1.275 2.192-1.275 2.311 0 6.205 2.487 10.256 7.926-1.181-0.063-3.216-0.145-5.898 0.057 0.854-1.2 1.746-2.305 2.65-3.291-0.214-0.22-0.427-0.433-0.641-0.641-1.093 1.193-2.167 2.556-3.184 4.032-2.688 0.27-4.522 0.722-5.301 0.917-0.012-0.088-1.526-5.163-0.075-7.725zM30.404 10.336c-1.112-0.421-2.117-0.678-2.236-0.71 1.231-4.899 0.729-8.46-1.401-9.666-2.167-1.218-5.395 0.27-8.68 3.467 0.214 0.207 0.427 0.421 0.641 0.641 5.181-5.024 7.512-3.36 7.593-3.316 1.407 0.798 2.261 3.505 0.973 8.655-2.091-0.49-3.976-0.703-5.313-0.816-4.516-6.312-8.831-8.925-11.443-8.925-1.934 0-2.751 1.319-2.99 1.74-1.137 2.010-0.835 5.288 0.006 8.403-4.428 1.275-7.581 3.398-7.556 5.967 0.031 3.743 6.482 5.514 7.669 5.828-1.287 5.144-0.634 8.517 1.401 9.666 1.759 0.992 4.717 0.377 8.68-3.467-0.214-0.207-0.427-0.421-0.641-0.641-5.181 5.025-7.518 3.36-7.593 3.316-1.401-0.791-2.261-3.492-0.973-8.661 0.779 0.182 2.625 0.597 5.313 0.816 4.516 6.306 8.831 8.918 11.437 8.918 1.934 0 2.751-1.319 2.99-1.74v0c1.13-2.003 0.835-5.282-0.006-8.403 9.565-2.751 9.81-8.177 2.129-11.073zM5.872 15.059c0 0.301-0.157 0.383-0.383 0.383h-0.364v-1.313h0.364c0.226 0 0.383 0.082 0.383 0.383v0.546zM5.125 16.038h0.352l0.465 1.476c0.044 0.138 0.132 0.201 0.27 0.201h0.207c0.176 0 0.251-0.113 0.201-0.276l-0.509-1.501c0.289-0.126 0.458-0.377 0.458-0.779v-0.747c0-0.634-0.421-0.886-1.055-0.886h-0.842c-0.157 0-0.239 0.082-0.239 0.239v3.712c0 0.157 0.082 0.239 0.239 0.239h0.214c0.157 0 0.239-0.082 0.239-0.239v-1.438zM7.135 13.759v3.712c0 0.157 0.082 0.239 0.239 0.239h1.375c0.157 0 0.239-0.082 0.239-0.239v-0.132c0-0.157-0.082-0.239-0.239-0.239h-0.923v-1.212h0.716c0.157 0 0.239-0.082 0.239-0.239v-0.132c0-0.157-0.082-0.239-0.239-0.239h-0.716v-1.149h0.904c0.157 0 0.239-0.082 0.239-0.239v-0.132c0-0.157-0.082-0.239-0.239-0.239h-1.363c-0.151-0.006-0.232 0.082-0.232 0.239zM10.093 16.202l0.295-1.865 0.295 1.865h-0.59zM9.917 13.733l-0.691 3.718c-0.031 0.17 0.057 0.258 0.214 0.258h0.188c0.145 0 0.232-0.069 0.258-0.22l0.113-0.71h0.766l0.113 0.71c0.025 0.151 0.113 0.22 0.258 0.22h0.22c0.163 0 0.245-0.088 0.214-0.258l-0.703-3.718c-0.025-0.145-0.119-0.214-0.264-0.214h-0.433c-0.132-0.006-0.226 0.069-0.251 0.214zM14.056 14.355c0-0.622-0.421-0.886-1.055-0.886h-0.012c-0.634 0-1.055 0.264-1.055 0.886v2.519c0 0.653 0.421 0.886 1.055 0.886h0.012c0.634 0 1.055-0.239 1.055-0.886 0-0.622 0.069-0.867-0.239-0.867h-0.214c-0.301 0-0.239 0.251-0.239 0.76 0 0.295-0.145 0.383-0.364 0.383s-0.364-0.088-0.364-0.383v-2.299c0-0.295 0.145-0.383 0.364-0.383s0.364 0.088 0.364 0.383c0 0.452-0.044 0.66 0.239 0.66h0.214c0.295-0.006 0.239-0.245 0.239-0.772zM15.714 14.129h0.458c0.157 0 0.239-0.082 0.239-0.239v-0.132c0-0.157-0.082-0.239-0.239-0.239h-1.62c-0.157 0-0.239 0.082-0.239 0.239v0.132c0 0.157 0.082 0.239 0.239 0.239h0.458v3.341c0 0.157 0.082 0.239 0.239 0.239h0.214c0.157 0 0.239-0.082 0.239-0.239v-3.341zM18.383 17.414h-1.218v-1.677h1.011c0.075 0 0.126-0.050 0.126-0.126v-0.050c0-0.075-0.050-0.126-0.126-0.126h-1.011v-1.62h1.2c0.075 0 0.126-0.050 0.126-0.126v-0.050c0-0.082-0.050-0.119-0.126-0.119h-1.394c-0.075 0-0.126 0.044-0.126 0.119v3.957c0 0.075 0.050 0.119 0.126 0.119h1.413c0.082 0 0.126-0.044 0.126-0.119v-0.050c0-0.088-0.044-0.132-0.126-0.132zM20.877 13.514h-0.075c-0.075 0-0.119 0.044-0.119 0.119v3.128c0 0.496-0.163 0.697-0.634 0.697s-0.634-0.195-0.634-0.697v-3.128c0-0.082-0.044-0.119-0.119-0.119h-0.075c-0.075 0-0.126 0.044-0.126 0.119v3.235c0 0.603 0.314 0.886 0.948 0.886h0.025c0.634 0 0.948-0.289 0.948-0.886v-3.235c-0.012-0.075-0.057-0.119-0.138-0.119zM22.748 15.605h-0.641v-1.79h0.641c0.471 0 0.66 0.195 0.66 0.697v0.402c0 0.49-0.188 0.691-0.66 0.691zM23.628 17.709h0.094c0.088 0 0.126-0.063 0.094-0.145l-0.666-1.715c0.383-0.1 0.578-0.383 0.578-0.835v-0.609c0-0.59-0.327-0.886-0.961-0.886h-0.86c-0.075 0-0.126 0.044-0.126 0.119v3.957c0 0.075 0.050 0.119 0.126 0.119h0.075c0.075 0 0.119-0.044 0.119-0.119v-1.69h0.729l0.653 1.708c0.031 0.069 0.082 0.094 0.145 0.094zM25.411 17.458c-0.471 0-0.66-0.195-0.66-0.697v-2.299c0-0.496 0.188-0.697 0.66-0.697s0.66 0.201 0.66 0.697v2.299c-0.006 0.503-0.188 0.697-0.66 0.697zM26.391 14.355c0-0.59-0.327-0.886-0.961-0.886h-0.050c-0.634 0-0.961 0.295-0.961 0.886v2.519c0 0.584 0.327 0.886 0.961 0.886h0.050c0.634 0 0.961-0.301 0.961-0.886v-2.519zM28.784 14.512v0.446c0 0.496-0.188 0.697-0.66 0.697h-0.641v-1.834h0.641c0.471-0.006 0.66 0.195 0.66 0.691zM27.157 13.639v3.957c0 0.075 0.050 0.119 0.126 0.119h0.075c0.075 0 0.119-0.044 0.119-0.119v-1.639h0.666c0.634 0 0.961-0.301 0.961-0.886v-0.66c0-0.59-0.327-0.886-0.961-0.886h-0.86c-0.075-0.012-0.126 0.031-0.126 0.113zM29.739 13.639v3.957c0 0.075 0.050 0.119 0.126 0.119h1.413c0.075 0 0.126-0.044 0.126-0.119v-0.050c0-0.082-0.050-0.126-0.126-0.126h-1.218v-1.677h1.011c0.075 0 0.126-0.050 0.126-0.126v-0.050c0-0.075-0.050-0.126-0.126-0.126h-1.011v-1.62h1.2c0.075 0 0.126-0.050 0.126-0.126v-0.050c0-0.082-0.050-0.119-0.126-0.119h-1.394c-0.075-0.012-0.126 0.031-0.126 0.113zM17.554 12.301l0.364-0.258 0.364 0.258-0.132-0.427 0.358-0.27-0.446-0.006-0.145-0.427-0.145 0.427-0.446 0.006 0.358 0.27-0.132 0.427zM18.063 19.348l-0.145-0.427-0.145 0.427-0.446 0.006 0.358 0.27-0.132 0.427 0.364-0.258 0.364 0.258-0.132-0.427 0.358-0.27-0.446-0.006zM15.551 12.835l0.364-0.258 0.364 0.258-0.132-0.427 0.358-0.27-0.446-0.006-0.145-0.427-0.145 0.427-0.452 0.006 0.358 0.27-0.126 0.427zM19.552 12.835l0.364-0.258 0.364 0.258-0.132-0.427 0.358-0.27-0.452-0.006-0.145-0.427-0.145 0.427-0.452 0.006 0.358 0.27-0.119 0.427zM20.016 18.884l-0.145-0.427-0.145 0.427-0.446 0.006 0.358 0.27-0.132 0.427 0.364-0.258 0.364 0.258-0.132-0.427 0.358-0.27-0.446-0.006zM16.11 18.884l-0.145-0.427-0.145 0.427-0.446 0.006 0.358 0.27-0.132 0.427 0.364-0.258 0.364 0.258-0.132-0.427 0.358-0.27-0.446-0.006z"></path>
</svg>
