<!-- Generated by IcoMoon.io -->
<svg version="1.1" xmlns="http://www.w3.org/2000/svg" width="32" height="32" viewBox="0 0 32 32">
<title>react</title>
<path d="M26.265 10.662c-0.339-0.113-0.678-0.22-1.018-0.32 0.057-0.232 0.107-0.465 0.157-0.697 0.773-3.743 0.264-6.752-1.451-7.744-1.652-0.948-4.346 0.038-7.072 2.412-0.27 0.232-0.534 0.477-0.785 0.722-0.17-0.163-0.345-0.327-0.521-0.484-2.858-2.537-5.722-3.605-7.436-2.606-1.645 0.955-2.135 3.787-1.445 7.329 0.069 0.352 0.144 0.697 0.232 1.049-0.402 0.113-0.798 0.239-1.168 0.371-3.354 1.162-5.759 2.996-5.759 4.893 0 1.96 2.563 3.925 6.048 5.119 0.283 0.094 0.565 0.188 0.854 0.27-0.094 0.377-0.176 0.747-0.251 1.13-0.66 3.486-0.144 6.249 1.501 7.198 1.696 0.98 4.547-0.025 7.323-2.456 0.22-0.195 0.44-0.396 0.66-0.609 0.276 0.27 0.565 0.527 0.854 0.779 2.688 2.311 5.345 3.247 6.984 2.299 1.696-0.98 2.248-3.95 1.532-7.568-0.057-0.276-0.119-0.559-0.188-0.848 0.201-0.057 0.396-0.119 0.59-0.182 3.624-1.2 6.249-3.14 6.249-5.131 0-1.903-2.475-3.75-5.891-4.924zM17.768 5.33c2.336-2.035 4.516-2.833 5.508-2.261 1.061 0.609 1.47 3.071 0.804 6.306-0.044 0.214-0.088 0.421-0.145 0.628-1.394-0.314-2.807-0.54-4.227-0.666-0.816-1.168-1.708-2.286-2.676-3.335 0.245-0.232 0.484-0.452 0.735-0.672zM9.603 17.207c0.289 0.553 0.584 1.099 0.898 1.639 0.32 0.546 0.647 1.093 0.992 1.627-0.98-0.107-1.953-0.264-2.914-0.471 0.276-0.904 0.622-1.84 1.024-2.795zM9.603 14.029c-0.396-0.936-0.729-1.853-1.005-2.738 0.904-0.201 1.865-0.364 2.864-0.49-0.333 0.521-0.66 1.055-0.967 1.595-0.308 0.534-0.609 1.080-0.892 1.633zM10.319 15.618c0.415-0.867 0.867-1.715 1.344-2.55s0.992-1.645 1.533-2.443c0.942-0.069 1.903-0.107 2.883-0.107s1.947 0.038 2.883 0.107c0.534 0.791 1.043 1.602 1.526 2.431s0.936 1.677 1.363 2.537c-0.421 0.867-0.873 1.721-1.357 2.563-0.477 0.835-0.986 1.645-1.52 2.449-0.936 0.069-1.909 0.1-2.895 0.1s-1.941-0.031-2.864-0.088c-0.546-0.798-1.061-1.614-1.545-2.449s-0.93-1.683-1.35-2.55zM21.662 18.833c0.32-0.553 0.622-1.112 0.917-1.677 0.402 0.911 0.754 1.834 1.061 2.782-0.973 0.22-1.96 0.389-2.952 0.503 0.339-0.527 0.66-1.068 0.973-1.608zM22.566 14.029c-0.295-0.553-0.597-1.105-0.911-1.645-0.308-0.534-0.628-1.061-0.961-1.583 1.011 0.126 1.978 0.295 2.883 0.502-0.289 0.93-0.628 1.834-1.011 2.726zM16.091 6.963c0.66 0.716 1.281 1.47 1.859 2.248-1.244-0.057-2.493-0.057-3.737 0 0.615-0.81 1.25-1.564 1.878-2.248zM8.805 3.113c1.055-0.615 3.398 0.264 5.866 2.449 0.157 0.138 0.314 0.289 0.477 0.44-0.973 1.049-1.872 2.167-2.694 3.335-1.419 0.126-2.826 0.345-4.221 0.653-0.082-0.32-0.151-0.647-0.22-0.973-0.59-3.040-0.201-5.332 0.791-5.904zM7.267 19.669c-0.264-0.075-0.521-0.157-0.779-0.245-1.338-0.421-2.858-1.087-3.957-1.96-0.634-0.44-1.061-1.118-1.181-1.878 0-1.149 1.985-2.619 4.849-3.618 0.358-0.126 0.722-0.239 1.087-0.345 0.427 1.363 0.942 2.701 1.539 3.994-0.603 1.313-1.124 2.669-1.558 4.051zM14.59 25.824c-1.036 0.948-2.236 1.702-3.542 2.217-0.697 0.333-1.501 0.364-2.217 0.082-0.999-0.578-1.413-2.795-0.848-5.778 0.069-0.352 0.145-0.703 0.232-1.049 1.407 0.301 2.826 0.509 4.265 0.615 0.829 1.175 1.74 2.299 2.713 3.354-0.201 0.195-0.402 0.383-0.603 0.559zM16.129 24.297c-0.641-0.691-1.281-1.457-1.903-2.28 0.603 0.025 1.225 0.038 1.853 0.038 0.647 0 1.281-0.012 1.909-0.044-0.578 0.798-1.2 1.558-1.859 2.286zM24.337 26.182c-0.057 0.766-0.433 1.482-1.036 1.966-0.999 0.578-3.128-0.176-5.426-2.148-0.264-0.226-0.527-0.471-0.798-0.722 0.961-1.061 1.847-2.186 2.65-3.366 1.438-0.119 2.87-0.339 4.283-0.66 0.063 0.258 0.119 0.515 0.17 0.766 0.308 1.357 0.358 2.77 0.157 4.164zM25.48 19.43c-0.176 0.057-0.352 0.113-0.534 0.163-0.44-1.369-0.98-2.707-1.602-4.007 0.603-1.281 1.112-2.6 1.539-3.95 0.327 0.094 0.641 0.195 0.942 0.295 2.927 1.005 4.98 2.5 4.98 3.643 0 1.231-2.192 2.82-5.326 3.856zM16.078 12.735c1.589 0 2.877 1.287 2.877 2.877s-1.288 2.877-2.877 2.877c-1.589 0-2.877-1.288-2.877-2.877s1.287-2.877 2.877-2.877z"></path>
</svg>
