<!-- Generated by IcoMoon.io -->
<svg version="1.1" xmlns="http://www.w3.org/2000/svg" width="32" height="32" viewBox="0 0 32 32">
<title>rebel</title>
<path d="M16.11 31.187c-8.749 0-15.544-7.298-15.281-15.959 0.176-4.974 2.713-9.559 7.317-12.586 0.019 0 0.119-0.038 0.069 0.050-0.364 0.345-6.99 8.152-0.886 14.219 3.128 3.109 5.653 0.157 5.653 0.157 2.418-3.147-0.038-7.907-0.038-7.907-0.628-1.564-2.87-2.519-2.87-2.519l1.809-1.997c1.533 0.66 2.713 2.431 2.713 2.431 0.050-1.859-1.375-3.856-1.375-3.856l2.801-3.184 2.782 3.147c-1.288 1.809-1.375 3.932-1.375 3.932 0.867-1.445 2.732-2.468 2.732-2.468l1.79 1.997c-1.721 0.559-2.851 2.506-2.851 2.506-0.992 1.79-1.702 5.615 0.038 7.995 2.035 2.801 5.508-0.176 5.508-0.176 6.45-5.772-0.66-14.131-0.66-14.131-0.383-0.345 0.050-0.176 0.050-0.176 3.147 2.292 7.198 5.301 7.298 12.863 0.126 9.145-6.274 15.664-15.224 15.664z"></path>
</svg>
