<!-- Generated by IcoMoon.io -->
<svg version="1.1" xmlns="http://www.w3.org/2000/svg" width="24" height="32" viewBox="0 0 24 32">
<title>receipt</title>
<path d="M22.51-0.266l-2.412 2.814-3.417-2.814c-0.166-0.126-0.375-0.203-0.603-0.203s-0.437 0.076-0.605 0.204l0.002-0.002-3.417 2.814-3.417-2.814c-0.165-0.126-0.375-0.203-0.603-0.203s-0.437 0.076-0.605 0.204l0.002-0.002-3.417 2.814-2.412-2.814c-0.666-0.496-1.608-0.025-1.608 0.804v30.147c0 0.829 0.942 1.3 1.608 0.804l2.412-2.814 3.417 2.814c0.165 0.126 0.375 0.203 0.603 0.203s0.437-0.076 0.605-0.204l-0.002 0.002 3.417-2.814 3.417 2.814c0.165 0.126 0.375 0.203 0.603 0.203s0.437-0.076 0.605-0.204l-0.002 0.002 3.417-2.814 2.412 2.814c0.66 0.496 1.608 0.025 1.608-0.804v-30.147c0-0.829-0.942-1.3-1.608-0.804zM20.098 22.143c0 0.276-0.226 0.503-0.503 0.503h-15.073c-0.276 0-0.502-0.226-0.502-0.503v-1.005c0-0.276 0.226-0.503 0.502-0.503h15.073c0.276 0 0.503 0.226 0.503 0.503v1.005zM20.098 16.114c0 0.276-0.226 0.503-0.503 0.503h-15.073c-0.276 0-0.502-0.226-0.502-0.503v-1.005c0-0.276 0.226-0.502 0.502-0.502h15.073c0.276 0 0.503 0.226 0.503 0.502v1.005zM20.098 10.084c0 0.276-0.226 0.502-0.503 0.502h-15.073c-0.276 0-0.502-0.226-0.502-0.502v-1.005c0-0.276 0.226-0.502 0.502-0.502h15.073c0.276 0 0.503 0.226 0.503 0.502v1.005z"></path>
</svg>
