<!-- Generated by IcoMoon.io -->
<svg version="1.1" xmlns="http://www.w3.org/2000/svg" width="32" height="32" viewBox="0 0 32 32">
<title>recycle</title>
<path d="M11.592 15.982c0.203 0.879-0.761 1.547-1.512 1.078l-2.559-1.599-3.195 5.113c-0.834 1.335 0.13 3.076 1.703 3.076h3.265c0.416 0 0.754 0.338 0.754 0.754v2.512c0 0.416-0.338 0.754-0.754 0.754h-3.259c-4.731 0-7.619-5.216-5.113-9.225l3.192-5.112-2.558-1.598c-0.759-0.474-0.563-1.631 0.306-1.831l6.924-1.598c0.541-0.125 1.080 0.212 1.205 0.753l1.599 6.924zM17.782 4.494l2.593 4.15-2.559 1.599c-0.757 0.473-0.565 1.63 0.306 1.831l6.924 1.598c0.545 0.126 1.081-0.216 1.205-0.753l1.598-6.924c0.201-0.869-0.753-1.552-1.512-1.078l-2.555 1.597-2.592-4.15c-2.357-3.77-7.864-3.779-10.226 0l-1.128 1.807c-0.22 0.353-0.113 0.818 0.24 1.038l2.13 1.331c0.353 0.221 0.818 0.113 1.038-0.24l1.128-1.805c0.798-1.278 2.636-1.236 3.408-0.001zM31.233 18.445l-1.728-2.768c-0.221-0.353-0.686-0.461-1.039-0.24l-2.127 1.329c-0.353 0.221-0.46 0.685-0.24 1.038l1.731 2.77c0.833 1.332-0.129 3.075-1.704 3.075h-6.028v-3.014c0-0.893-1.083-1.343-1.715-0.71l-5.024 5.023c-0.392 0.392-0.392 1.029 0 1.421l5.024 5.024c0.628 0.628 1.715 0.188 1.715-0.711v-3.014h6.022c4.728 0 7.621-5.213 5.113-9.225z"></path>
</svg>
