<!-- Generated by IcoMoon.io -->
<svg version="1.1" xmlns="http://www.w3.org/2000/svg" width="28" height="32" viewBox="0 0 28 32">
<title>red-river</title>
<path d="M22.183 1.543h-16.229c-3.291 0-5.954 2.663-5.954 5.954v16.229c0 3.291 2.663 5.954 5.954 5.954h16.229c3.291 0 5.954-2.663 5.954-5.954v-16.229c0-3.291-2.663-5.954-5.954-5.954zM9.101 12.151v3.536c0 1.696-1.375 3.071-3.071 3.071v-9.685c0-0.829 0.672-1.501 1.501-1.501h9.685c0 1.696-1.375 3.071-3.071 3.071h-3.536c-0.773-0.038-1.545 0.729-1.507 1.507zM20.173 16.673h-3.536c-0.773-0.038-1.545 0.729-1.507 1.507v3.536c0 1.696-1.375 3.071-3.071 3.071v-9.685c0-0.829 0.672-1.501 1.501-1.501h9.685c0 1.696-1.375 3.071-3.071 3.071z"></path>
</svg>
