<!-- Generated by IcoMoon.io -->
<svg version="1.1" xmlns="http://www.w3.org/2000/svg" width="32" height="32" viewBox="0 0 32 32">
<title>reddit</title>
<path d="M12.655 18.72c-0.867 0-1.564-0.697-1.564-1.545 0-0.867 0.697-1.564 1.564-1.564 0.854 0 1.545 0.697 1.545 1.564 0 0.854-0.697 1.545-1.545 1.545zM31.654 15.611c0 8.604-6.971 15.576-15.576 15.576s-15.576-6.971-15.576-15.576 6.971-15.576 15.576-15.576 15.576 6.971 15.576 15.576zM23.345 13.024c-0.59 0-1.112 0.245-1.495 0.628-1.407-0.973-3.304-1.602-5.408-1.671l1.093-4.918 3.479 0.785c0 0.854 0.697 1.545 1.545 1.545 0.867 0 1.564-0.71 1.564-1.564s-0.697-1.564-1.564-1.564c-0.609 0-1.13 0.364-1.388 0.867l-3.844-0.854c-0.188-0.050-0.383 0.088-0.433 0.276l-1.2 5.426c-2.085 0.088-3.963 0.71-5.37 1.683-0.383-0.402-0.923-0.641-1.514-0.641-2.192 0-2.908 2.946-0.904 3.944-0.069 0.314-0.107 0.641-0.107 0.973 0 3.304 3.718 5.979 8.29 5.979 4.591 0 8.309-2.676 8.309-5.979 0-0.333-0.038-0.678-0.119-0.992 1.966-1.005 1.244-3.925-0.936-3.925zM19.018 20.322c-1.143 1.143-4.78 1.124-5.879 0-0.138-0.138-0.383-0.138-0.521 0-0.157 0.157-0.157 0.402 0 0.54 1.432 1.432 5.483 1.432 6.921 0 0.157-0.138 0.157-0.383 0-0.54-0.138-0.138-0.383-0.138-0.521 0zM19.501 15.611c-0.854 0-1.545 0.697-1.545 1.564 0 0.854 0.697 1.545 1.545 1.545 0.867 0 1.564-0.697 1.564-1.545 0-0.867-0.691-1.564-1.564-1.564z"></path>
</svg>
