<!-- Generated by IcoMoon.io -->
<svg version="1.1" xmlns="http://www.w3.org/2000/svg" width="32" height="32" viewBox="0 0 32 32">
<title>reddit-alien</title>
<path d="M27.654 12.314c-0.942 0-1.771 0.389-2.38 0.999-2.242-1.551-5.263-2.55-8.611-2.657l1.74-7.838 5.54 1.244c0 1.357 1.105 2.462 2.462 2.462 1.382 0 2.493-1.137 2.493-2.493s-1.105-2.493-2.493-2.493c-0.967 0-1.802 0.584-2.217 1.382l-6.117-1.357c-0.308-0.082-0.609 0.138-0.691 0.446l-1.909 8.642c-3.322 0.138-6.312 1.137-8.56 2.688-0.609-0.634-1.47-1.024-2.412-1.024-3.492 0-4.635 4.685-1.438 6.287-0.113 0.496-0.163 1.024-0.163 1.551 0 5.263 5.929 9.528 13.208 9.528 7.311 0 13.24-4.265 13.24-9.528 0-0.527-0.057-1.080-0.195-1.576 3.134-1.608 1.978-6.262-1.495-6.262zM8.127 18.934c0-1.382 1.105-2.493 2.493-2.493 1.357 0 2.462 1.105 2.462 2.493 0 1.357-1.105 2.462-2.462 2.462-1.382 0.006-2.493-1.105-2.493-2.462zM21.586 24.806c-2.286 2.286-8.736 2.286-11.022 0-0.251-0.22-0.251-0.609 0-0.86 0.22-0.22 0.609-0.22 0.829 0 1.746 1.79 7.537 1.821 9.358 0 0.22-0.22 0.609-0.22 0.829 0 0.258 0.251 0.258 0.641 0.006 0.86zM21.536 21.402c-1.357 0-2.462-1.105-2.462-2.462 0-1.382 1.105-2.493 2.462-2.493 1.382 0 2.493 1.105 2.493 2.493-0.006 1.35-1.112 2.462-2.493 2.462z"></path>
</svg>
