<!-- Generated by IcoMoon.io -->
<svg version="1.1" xmlns="http://www.w3.org/2000/svg" width="28" height="32" viewBox="0 0 28 32">
<title>reddit-square</title>
<path d="M17.787 21.233c0.17 0.17 0.17 0.427 0 0.578-1.539 1.539-5.891 1.545-7.436 0-0.17-0.151-0.17-0.408 0-0.578 0.151-0.151 0.408-0.151 0.559 0 1.175 1.206 5.087 1.231 6.312 0 0.151-0.145 0.415-0.145 0.565 0zM12.053 17.854c0-0.936-0.747-1.683-1.664-1.683-0.936 0-1.683 0.747-1.683 1.683 0 0.917 0.747 1.664 1.683 1.664 0.917 0 1.664-0.747 1.664-1.664zM17.749 16.17c-0.917 0-1.664 0.747-1.664 1.683 0 0.917 0.747 1.664 1.664 1.664 0.936 0 1.683-0.747 1.683-1.664 0-0.936-0.747-1.683-1.683-1.683zM28.137 4.557v22.108c0 1.664-1.35 3.015-3.015 3.015h-22.108c-1.664 0-3.015-1.35-3.015-3.015v-22.108c0-1.664 1.35-3.015 3.015-3.015h22.108c1.664 0 3.015 1.35 3.015 3.015zM21.875 13.388c-0.634 0-1.193 0.264-1.608 0.672-1.514-1.049-3.549-1.721-5.81-1.796l1.175-5.288 3.737 0.842c0 0.917 0.747 1.664 1.664 1.664 0.936 0 1.683-0.766 1.683-1.683s-0.747-1.683-1.683-1.683c-0.653 0-1.212 0.389-1.495 0.936l-4.126-0.917c-0.207-0.057-0.408 0.094-0.465 0.301l-1.287 5.828c-2.242 0.094-4.258 0.766-5.772 1.815-0.408-0.427-0.992-0.691-1.627-0.691-2.355 0-3.128 3.165-0.973 4.239-0.075 0.339-0.113 0.691-0.113 1.049 0 3.549 4.001 6.425 8.912 6.425 4.93 0 8.931-2.877 8.931-6.425 0-0.358-0.038-0.729-0.132-1.068 2.11-1.080 1.331-4.221-1.011-4.221z"></path>
</svg>
