<!-- Generated by IcoMoon.io -->
<svg version="1.1" xmlns="http://www.w3.org/2000/svg" width="32" height="32" viewBox="0 0 32 32">
<title>redhat</title>
<path d="M19.621 24.731c0.082 0.082 0.226 0.352 0.050 0.697-0.1 0.182-0.201 0.308-0.389 0.458-0.226 0.182-0.666 0.389-1.275 0.006-0.327-0.207-0.345-0.276-0.798-0.214-0.32 0.044-0.446-0.283-0.333-0.553 0.119-0.27 0.59-0.484 1.181-0.138 0.264 0.157 0.678 0.484 1.043 0.195 0.151-0.119 0.239-0.201 0.452-0.44 0.019-0.031 0.050-0.031 0.069-0.012zM16.078 1.398c-8.881 0-16.078 7.198-16.078 16.072 0 1.796 0.295 3.523 0.835 5.138h1.118c0.992 0 1.909-0.239 2.688-0.641 0.195-0.1 0.415-0.163 0.653-0.163 1.2 0 1.149 0.961 1.903 1.438 0.044 0.025 0.471 0.27 0.992 0.245 0.214-0.012 0.534-0.063 0.615-0.283 0.088-0.251-0.019-0.44-0.333-0.572-0.609-0.258-0.597-0.691-0.992-1.143-0.245-0.27-0.54-0.534-0.597-1.118-0.057-0.572 0.264-1.25 0.923-1.426 0.251-0.069 0.804-0.113 1.35 0.314 0.521 0.402 0.873 1.061 1.024 1.331 0.107 0.188 0.49 0.408 0.798 0.132 0.308-0.283 0.59-0.283 0.823 0.075 0.195 0.308 1.645 2.236 3.209 2.286 1.589 0.050 2.437-0.358 3.134-0.333 0.484 0.019 0.722 0.264 0.999 0.308 0.49 0.075 0.835-0.364 1.375-0.339 0.433 0.019 0.911 0.314 1.401 0.314s1.514-0.59 1.501-0.345c-0.025 0.427-0.358 1.187-0.433 1.539-0.057 0.245-0.006 0.829-0.151 1.306-0.132 0.477-0.578 1.093-0.697 1.262-0.396 0.59-0.678 0.766-1.005 1.388-0.358 0.691-0.948 1.331-1.105 1.539-0.025 0.031-0.025 0.057-0.006 0.075 0.126 0.119 1.181-0.138 1.589-0.521 0.396-0.371 1.087-1.507 2.179-1.746 0.553-0.126 0.773-0.314 0.816-0.509 0.031-0.17-0.038-0.182-0.038-0.301 0-0.1 0.057-0.188 0.145-0.232 0.904-0.377 2.72-0.779 4.88-0.283 1.633-2.519 2.581-5.514 2.581-8.736-0.019-8.874-7.216-16.072-16.097-16.072zM29.155 17.15c-0.773 4.233-7.694 5.653-14.427 3.618-6.419-1.941-12.053-5.81-11.406-8.077 0.377-1.319 2.475-1.884 5.263-1.583-0.421 0.86-0.389 1.878 1.457 3.002 2.261 1.281 6.073 2.374 7.103 2.267 0.383-0.038 0.729-0.232 0.383-0.458-1.558-1.043 0.44-2.286-3.498-3.040-5.207-0.992-4.999-2.462-4.849-3.31 0 0 0.465-2.079 0.653-2.807 0.195-0.729 0.691-2.405 4.038-1.652 1.934 0.433 2.983-0.107 3.511-0.245 1.451-0.371 3.052-0.113 3.938 0.798 0.917 0.942 2.179 3.85 2.782 6.023 0.308 1.105 0.226 1.633 0.069 2.010-0.113 0.251-0.176 0.415-0.559 1.061-0.069 0.113-0.012 0.239 0.138 0.163 1.005-0.515 1.231-1.2 1.388-1.733 2.745 0.622 4.359 2.041 4.013 3.963zM14.42 8.012c-1.652 0-2.161 0.44-2.877-0.446-0.145-0.182-0.603-0.352-0.854 0.226-0.251 0.584 0.214 1.206 0.603 1.288 0 0 0.647 1.2 1.137 0.678 0.345-0.371 0.54-0.572 2.399-0.703 1.752-0.132 0.842-1.043-0.408-1.043zM18.258 5.487c-0.615 0.063-1.149 0.214-1.514 0.402-0.044 0.019-0.044 0.094 0.031 0.094 2.148-0.339 3.071 0.509 1.149 0.948-0.075 0.019-0.075 0.119 0 0.138 0.27 0.075 0.584 0.126 0.917 0.132 1.030 0.019 1.878-0.352 1.89-0.829 0.012-0.402-0.779-1.061-2.475-0.886z"></path>
</svg>
