<!-- Generated by IcoMoon.io -->
<svg version="1.1" xmlns="http://www.w3.org/2000/svg" width="32" height="32" viewBox="0 0 32 32">
<title>redo-alt</title>
<path d="M16.107 0.035c4.162 0.007 7.941 1.648 10.731 4.314l2.243-2.243c0.95-0.95 2.573-0.277 2.573 1.066v8.42c0 0.832-0.675 1.507-1.507 1.507h-8.42c-1.343 0-2.015-1.624-1.066-2.573l2.622-2.622c-1.938-1.815-4.447-2.82-7.112-2.843-5.803-0.050-10.695 4.646-10.645 10.642 0.048 5.688 4.659 10.46 10.551 10.46 2.583 0 5.024-0.922 6.948-2.61 0.298-0.261 0.748-0.245 1.028 0.035l2.491 2.491c0.306 0.306 0.291 0.805-0.030 1.095-2.762 2.495-6.422 4.014-10.437 4.014-8.602 0-15.576-6.974-15.576-15.576-0-8.592 7.012-15.591 15.604-15.576z"></path>
</svg>
