<!-- Generated by IcoMoon.io -->
<svg version="1.1" xmlns="http://www.w3.org/2000/svg" width="32" height="32" viewBox="0 0 32 32">
<title>redo</title>
<path d="M31.424-0.467h-2.978c-0.43 0-0.773 0.36-0.753 0.79l0.249 5.198c-2.857-3.356-7.112-5.485-11.864-5.485-8.583 0-15.582 7.005-15.576 15.588 0.006 8.597 6.978 15.564 15.576 15.564 4.015 0 7.675-1.519 10.437-4.014 0.321-0.29 0.336-0.789 0.030-1.095l-2.134-2.134c-0.281-0.281-0.731-0.296-1.029-0.034-1.947 1.715-4.503 2.754-7.305 2.754-6.109 0-11.054-4.944-11.054-11.054 0-6.109 4.944-11.054 11.054-11.054 3.824 0 7.192 1.938 9.176 4.886l-6.376-0.306c-0.43-0.021-0.79 0.322-0.79 0.753v2.978c0 0.416 0.338 0.754 0.754 0.754h12.582c0.416 0 0.754-0.338 0.754-0.754v-12.582c0-0.416-0.338-0.754-0.754-0.754z"></path>
</svg>
