<!-- Generated by IcoMoon.io -->
<svg version="1.1" xmlns="http://www.w3.org/2000/svg" width="32" height="32" viewBox="0 0 32 32">
<title>registered1</title>
<path d="M17.923 12.564c0 1.168-0.617 1.786-1.786 1.786h-1.876v-3.526h1.468c1.801 0 2.194 0.551 2.194 1.74zM31.654 15.611c0 8.602-6.974 15.576-15.576 15.576s-15.576-6.974-15.576-15.576 6.974-15.576 15.576-15.576 15.576 6.974 15.576 15.576zM22.824 22.169c-2.935-5.328-2.719-4.939-2.808-5.086 1.472-0.953 2.383-2.699 2.383-4.678 0-3.407-1.978-5.606-6.626-5.606h-4.438c-0.832 0-1.507 0.675-1.507 1.507v14.59c0 0.832 0.675 1.507 1.507 1.507h1.417c0.832 0 1.507-0.675 1.507-1.507v-4.501h1.605l2.772 5.209c0.259 0.479 0.757 0.799 1.331 0.799h1.537c1.147-0 1.873-1.23 1.32-2.235z"></path>
</svg>
