<!-- Generated by IcoMoon.io -->
<svg version="1.1" xmlns="http://www.w3.org/2000/svg" width="32" height="32" viewBox="0 0 32 32">
<title>renren</title>
<path d="M13.441 10.153c0 6.934-3.831 12.9-9.27 15.538-2.286-2.72-3.668-6.205-3.668-10.043 0-7.706 5.596-14.094 12.938-15.331v9.835zM16.016 31.187c-2.694 0-5.232-0.691-7.443-1.909 3.592-2.267 6.494-5.697 7.443-9.71 0.973 4.013 3.875 7.443 7.461 9.716-2.205 1.212-4.742 1.903-7.461 1.903zM27.986 25.692c-5.439-2.638-9.27-8.598-9.27-15.538v-9.835c7.342 1.237 12.938 7.625 12.938 15.331 0 3.837-1.382 7.323-3.668 10.043z"></path>
</svg>
