<!-- Generated by IcoMoon.io -->
<svg version="1.1" xmlns="http://www.w3.org/2000/svg" width="28" height="32" viewBox="0 0 28 32">
<title>replyd</title>
<path d="M20.098 29.68h-12.059c-4.422 0-8.039-3.618-8.039-8.039v-12.059c0-4.422 3.618-8.039 8.039-8.039h12.059c4.422 0 8.039 3.618 8.039 8.039v12.059c0 4.422-3.618 8.039-8.039 8.039zM12.147 16.692c-0.383-0.126-0.729-0.195-1.030-0.195-0.452 0-0.848 0.119-1.187 0.352s-0.603 0.565-0.804 0.992h-0.069l-0.264-1.149h-1.759v8.724h2.267v-5.634c0.094-0.339 0.276-0.615 0.546-0.829s0.615-0.32 1.018-0.32c0.289 0 0.615 0.063 0.98 0.195l0.301-2.135zM19.382 23.186c-0.201 0.151-0.484 0.301-0.86 0.446s-0.804 0.22-1.281 0.22c-0.766 0-1.325-0.188-1.664-0.559-0.345-0.371-0.534-0.923-0.565-1.658h5.232c0.057-0.301 0.1-0.59 0.132-0.873 0.031-0.276 0.044-0.54 0.044-0.785 0-0.672-0.1-1.237-0.295-1.69-0.201-0.452-0.458-0.816-0.785-1.080-0.327-0.27-0.697-0.458-1.118-0.578-0.421-0.113-0.848-0.176-1.294-0.176-1.325 0-2.355 0.383-3.090 1.149s-1.099 1.916-1.099 3.454c0 1.432 0.327 2.556 0.98 3.373 0.653 0.823 1.683 1.231 3.090 1.231 0.672 0 1.313-0.094 1.909-0.289s1.074-0.427 1.419-0.703l-0.754-1.482zM18.013 18.77c0.239 0.339 0.333 0.823 0.289 1.451h-3.247c0.057-0.59 0.232-1.068 0.515-1.419s0.722-0.534 1.319-0.534c0.515-0.006 0.886 0.163 1.124 0.503zM23.031 18.927c0.258 0.245 0.59 0.364 1.011 0.364 0.44 0 0.791-0.119 1.049-0.364s0.383-0.572 0.383-0.98-0.126-0.729-0.383-0.967c-0.258-0.239-0.603-0.358-1.049-0.358-0.421 0-0.754 0.119-1.011 0.358s-0.383 0.559-0.383 0.967 0.126 0.735 0.383 0.98zM23.031 25.24c0.258 0.245 0.59 0.364 1.011 0.364 0.44 0 0.791-0.119 1.049-0.364s0.383-0.572 0.383-0.98-0.126-0.729-0.383-0.967c-0.258-0.239-0.603-0.358-1.049-0.358-0.421 0-0.754 0.119-1.011 0.358s-0.383 0.559-0.383 0.967c0 0.415 0.126 0.735 0.383 0.98z"></path>
</svg>
