<!-- Generated by IcoMoon.io -->
<svg version="1.1" xmlns="http://www.w3.org/2000/svg" width="36" height="32" viewBox="0 0 36 32">
<title>reply-all</title>
<path d="M8.561 11.456l11.054-9.546c0.968-0.836 2.493-0.157 2.493 1.141v5.198c8.113 0.643 14.069 3.279 14.069 11.528 0 3.859-2.486 7.682-5.234 9.68-0.858 0.624-2.080-0.159-1.763-1.17 2.419-7.735-0.246-10.645-7.071-11.432v5.287c0 1.3-1.526 1.975-2.493 1.141l-11.054-9.546c-0.695-0.601-0.696-1.68 0-2.282zM0.522 13.737l11.054 9.546c0.966 0.835 2.493 0.159 2.493-1.141v-0.993l-6.821-5.89c-0.748-0.648-1.218-1.599-1.218-2.661 0-0.001 0-0.001 0-0.002v0c0-0 0-0.001 0-0.001 0-1.061 0.47-2.012 1.214-2.657l0.004-0.004 6.821-5.89v-0.993c0-1.298-1.525-1.976-2.493-1.141l-11.054 9.546c-0.696 0.601-0.695 1.681 0 2.282z"></path>
</svg>
