<!-- Generated by IcoMoon.io -->
<svg version="1.1" xmlns="http://www.w3.org/2000/svg" width="32" height="32" viewBox="0 0 32 32">
<title>report</title>
<path d="M0.696 0.003c-0.383 0-0.696 0.313-0.696 0.696v2.087c0 0.383 0.313 0.696 0.696 0.696h30.609c0.386 0 0.696-0.313 0.696-0.696v-2.087c0-0.383-0.31-0.696-0.696-0.696zM1.391 4.873v20.87c0 0.386 0.313 0.696 0.696 0.696h27.826c0.386 0 0.696-0.31 0.696-0.696v-20.87zM11.13 9.742c1.921 0 3.478 1.557 3.478 3.478h-3.478zM18.087 10.438h7.652c0.386 0 0.696 0.313 0.696 0.696s-0.31 0.696-0.696 0.696h-7.652c-0.386 0-0.696-0.313-0.696-0.696s0.31-0.696 0.696-0.696zM9.043 11.829v3.478h3.478c0 1.921-1.557 3.478-3.478 3.478s-3.478-1.557-3.478-3.478c0-1.921 1.557-3.478 3.478-3.478zM18.087 13.916h7.652c0.386 0 0.696 0.313 0.696 0.696s-0.31 0.696-0.696 0.696h-7.652c-0.386 0-0.696-0.313-0.696-0.696s0.31-0.696 0.696-0.696zM18.087 17.394h7.652c0.386 0 0.696 0.31 0.696 0.696s-0.31 0.696-0.696 0.696h-7.652c-0.386 0-0.696-0.31-0.696-0.696s0.31-0.696 0.696-0.696zM15.304 27.134v0.826c-0.804 0.291-1.391 1.052-1.391 1.957 0 1.149 0.938 2.087 2.087 2.087s2.087-0.938 2.087-2.087c0-0.905-0.587-1.666-1.391-1.957v-0.826z"></path>
</svg>
