<!-- Generated by IcoMoon.io -->
<svg version="1.1" xmlns="http://www.w3.org/2000/svg" width="40" height="32" viewBox="0 0 40 32">
<title>republican</title>
<path d="M34.167 11.592c0-5.552-4.497-10.049-10.049-10.049h-14.069c-5.552 0-10.049 4.497-10.049 10.049v4.020h34.167v-4.020zM11.073 10.235l-1.244 1.212 0.295 1.715c0.050 0.308-0.27 0.54-0.546 0.396l-1.539-0.81-1.539 0.81c-0.27 0.145-0.597-0.088-0.546-0.396l0.295-1.715-1.244-1.212c-0.226-0.22-0.1-0.597 0.207-0.641l1.721-0.251 0.766-1.558c0.138-0.283 0.54-0.276 0.672 0l0.766 1.558 1.721 0.251c0.314 0.044 0.433 0.421 0.214 0.641zM20.117 10.235l-1.244 1.212 0.295 1.715c0.050 0.308-0.27 0.54-0.546 0.396l-1.539-0.81-1.539 0.81c-0.27 0.145-0.597-0.088-0.546-0.396l0.295-1.715-1.244-1.212c-0.226-0.22-0.1-0.597 0.207-0.641l1.721-0.251 0.766-1.558c0.138-0.283 0.54-0.276 0.672 0l0.766 1.558 1.721 0.251c0.314 0.044 0.433 0.421 0.214 0.641zM29.161 10.235l-1.244 1.212 0.295 1.715c0.050 0.308-0.27 0.54-0.546 0.396l-1.539-0.81-1.539 0.81c-0.27 0.145-0.597-0.088-0.546-0.396l0.295-1.715-1.244-1.212c-0.226-0.22-0.1-0.597 0.207-0.641l1.721-0.251 0.766-1.558c0.138-0.283 0.54-0.276 0.672 0l0.766 1.558 1.721 0.251c0.314 0.044 0.433 0.421 0.214 0.641zM39.191 19.631h-2.010c-0.553 0-1.005 0.452-1.005 1.005v4.020c0 0.553-0.452 1.005-1.005 1.005s-1.005-0.452-1.005-1.005v-7.034h-34.167v11.054c0 0.553 0.452 1.005 1.005 1.005h6.029c0.553 0 1.005-0.452 1.005-1.005v-5.024h12.059v5.024c0 0.553 0.452 1.005 1.005 1.005h6.029c0.553 0 1.005-0.452 1.005-1.005v-7.034h2.010v2.72c0 2.625 1.884 5.031 4.497 5.295 3.002 0.308 5.552-2.054 5.552-4.999v-4.020c0-0.553-0.452-1.005-1.005-1.005z"></path>
</svg>
