<!-- Generated by IcoMoon.io -->
<svg version="1.1" xmlns="http://www.w3.org/2000/svg" width="28" height="32" viewBox="0 0 28 32">
<title>researchgate</title>
<path d="M0 1.543v28.137h28.137v-28.137h-28.137zM16.468 22.545c-0.415 0.188-2.085 0.377-3.14-0.892-0.578-0.666-1.589-2.091-2.65-3.994-0.559 0-0.923 0-1.344-0.038v2.914c0 1.476 0.377 1.331 1.62 1.501v0.509c-0.433-0.019-1.451-0.050-2.236-0.050-0.823 0-1.639 0.038-2.11 0.050v-0.509c0.973-0.182 1.382-0.082 1.382-1.501v-6.871c0-1.419-0.402-1.319-1.382-1.501v-0.509c1.62 0.063 3.335-0.038 4.453-0.038 1.991 0 3.511 0.904 3.511 2.864 0 1.325-1.049 2.65-2.462 2.983 0.854 1.52 1.884 2.864 2.65 3.699 0.452 0.49 1.080 0.923 1.708 0.923v0.458zM17.906 14.066c-1.463 0-2.022-0.986-2.022-2.022v-2.022c0-0.766 0.553-1.909 2.135-1.909s1.909 1.124 1.909 1.124l-0.672 0.452s-0.345-0.785-1.237-0.785c-0.496 0-1.237 0.458-1.237 1.237v1.683c0 0.842 0.415 1.463 1.124 1.463 0.886 0 1.35-0.685 1.35-1.683h-1.124v-0.672h1.909c0 1.287 0.295 3.134-2.135 3.134zM10.589 16.874c-0.59 0-0.854-0.019-1.256-0.050v-4.378c0.402-0.038 0.942-0.038 1.413-0.038 1.463 0 2.336 0.766 2.336 2.167 0 1.375-0.942 2.299-2.493 2.299z"></path>
</svg>
