<!-- Generated by IcoMoon.io -->
<svg version="1.1" xmlns="http://www.w3.org/2000/svg" width="32" height="32" viewBox="0 0 32 32">
<title>research</title>
<path d="M17.984 23.062h-7.181c-0.348 0-0.629 0.282-0.629 0.629s0.282 0.629 0.629 0.629h7.181c0.348 0 0.629-0.282 0.629-0.629s-0.282-0.629-0.629-0.629zM7.445 26.918c0 0.348 0.282 0.629 0.629 0.629h3.513c0.348 0 0.629-0.282 0.629-0.629s-0.282-0.629-0.629-0.629h-3.513c-0.348 0-0.629 0.282-0.629 0.629zM16.57 26.918c0 0.348 0.282 0.629 0.629 0.629h3.513c0.348 0 0.629-0.282 0.629-0.629s-0.282-0.629-0.629-0.629h-3.513c-0.348 0-0.629 0.282-0.629 0.629zM14.388 26.289c-0.348 0-0.629 0.282-0.629 0.629s0.282 0.629 0.629 0.629h0.012c0.348 0 0.629-0.282 0.629-0.629s-0.282-0.629-0.629-0.629zM1.613 10.408c0.348 0 0.629-0.282 0.629-0.629v-0.012c0-0.348-0.282-0.629-0.629-0.629s-0.629 0.282-0.629 0.629v0.012c0 0.348 0.282 0.629 0.629 0.629zM30.276 24.831l-2.828-2.828v-15.938c0-0.020-0.001-0.040-0.003-0.060-0.001-0.008-0.002-0.017-0.003-0.025-0.002-0.011-0.003-0.022-0.005-0.033-0.002-0.010-0.004-0.020-0.007-0.030s-0.004-0.018-0.007-0.027c-0.003-0.010-0.006-0.021-0.010-0.031-0.003-0.008-0.006-0.016-0.009-0.024-0.004-0.010-0.008-0.020-0.013-0.030-0.004-0.008-0.008-0.016-0.011-0.024-0.005-0.009-0.009-0.019-0.015-0.027s-0.010-0.016-0.015-0.024c-0.005-0.008-0.010-0.016-0.016-0.024s-0.012-0.017-0.019-0.025c-0.005-0.007-0.011-0.014-0.016-0.021-0.002-0.002-0.003-0.004-0.004-0.006l-4.686-5.435c-0.004-0.005-0.009-0.009-0.013-0.013-0.009-0.010-0.018-0.020-0.028-0.029-0.006-0.006-0.013-0.012-0.020-0.018-0.010-0.008-0.019-0.017-0.029-0.025-0.007-0.005-0.014-0.011-0.021-0.016-0.011-0.008-0.022-0.015-0.033-0.022-0.007-0.004-0.014-0.008-0.021-0.012-0.012-0.007-0.025-0.014-0.038-0.020-0.006-0.003-0.013-0.006-0.019-0.009-0.014-0.006-0.029-0.012-0.043-0.017-0.006-0.002-0.011-0.004-0.017-0.006-0.016-0.005-0.032-0.009-0.048-0.013-0.005-0.001-0.010-0.003-0.015-0.004-0.017-0.004-0.035-0.006-0.052-0.009-0.005-0.001-0.009-0.002-0.013-0.002-0.022-0.002-0.044-0.004-0.067-0.004h-18.335c-1.552 0-2.814 1.264-2.814 2.817v4.144c0 0.348 0.282 0.629 0.629 0.629s0.629-0.282 0.629-0.629v-4.144c0-0.859 0.698-1.558 1.556-1.558h17.705v4.057c0 0.76 0.619 1.379 1.38 1.379h3.305v14.050l-1.382-1.382c-0.003-0.004-0.006-0.008-0.010-0.011s-0.007-0.007-0.011-0.010l-2.967-2.967c0.607-1.159 0.951-2.477 0.951-3.874 0-4.619-3.757-8.376-8.375-8.376s-8.376 3.758-8.376 8.376c0 2.205 0.856 4.213 2.253 5.71 0.029 0.038 0.062 0.074 0.099 0.105 1.524 1.579 3.661 2.563 6.024 2.563 1.396 0 2.713-0.344 3.872-0.951l2.966 2.968c0.004 0.004 0.007 0.008 0.010 0.011s0.008 0.007 0.011 0.010l4.934 4.936v1.332c0 0.859-0.698 1.558-1.556 1.558h-20.835c-0.858 0-1.556-0.699-1.556-1.558v-16.611c0-0.348-0.282-0.629-0.629-0.629s-0.629 0.282-0.629 0.629v16.611c0 1.553 1.263 2.817 2.814 2.817h20.835c1.552 0 2.814-1.264 2.814-2.817v-0.261c0.345 0.177 0.695 0.255 1.033 0.255 0.669-0 1.292-0.305 1.738-0.751 0.885-0.886 1.206-2.447 0.057-3.596zM22.762 5.316v-2.992l2.683 3.112h-2.561c-0.066 0-0.122-0.055-0.122-0.12zM14.395 5.382c3.924 0 7.116 3.193 7.116 7.117 0 1.3-0.351 2.521-0.962 3.571-0.044 0.053-0.079 0.111-0.104 0.172-0.124 0.2-0.257 0.393-0.4 0.579-0.748-1.384-1.968-2.44-3.411-2.995 0.853-0.686 1.4-1.737 1.4-2.913 0-2.062-1.676-3.739-3.737-3.739s-3.739 1.678-3.739 3.739c0 1.176 0.546 2.226 1.398 2.911-0.496 0.19-0.97 0.441-1.412 0.752-0.791 0.556-1.441 1.27-1.914 2.095-0.851-1.173-1.353-2.614-1.353-4.171 0-3.924 3.193-7.117 7.118-7.117zM11.817 10.912c0-1.368 1.113-2.481 2.48-2.481s2.478 1.113 2.478 2.481c0 1.367-1.112 2.479-2.478 2.479s-2.48-1.112-2.48-2.479zM9.521 17.683c0.862-1.829 2.733-3.033 4.776-3.033 2.103 0 3.996 1.254 4.832 3.159-0.308 0.275-0.64 0.524-0.993 0.743-0.062 0.025-0.121 0.060-0.174 0.105-1.049 0.611-2.268 0.961-3.567 0.961-1.884 0-3.599-0.736-4.874-1.936zM20.256 18.478c0.043-0.033 0.081-0.072 0.114-0.114 0.274-0.28 0.53-0.579 0.763-0.895l2.328 2.328-1.772 1.772-2.328-2.329c0.316-0.233 0.615-0.489 0.894-0.763zM29.328 27.537c-0.404 0.405-1.067 0.606-1.716-0.042l-5.033-5.035 1.772-1.773 2.011 2.011c0.008 0.008 0.016 0.016 0.024 0.024l2.999 2.999c0.645 0.645 0.319 1.439-0.057 1.816z"></path>
</svg>
