<!-- Generated by IcoMoon.io -->
<svg version="1.1" xmlns="http://www.w3.org/2000/svg" width="32" height="32" viewBox="0 0 32 32">
<title>rest-api</title>
<path d="M12.708 1.888l-0.695 3.562c-1.169 0.44-2.235 1.053-3.168 1.82l-3.421-1.177-3.295 5.707 2.738 2.382c-0.109 0.665-0.16 1.261-0.16 1.822 0 0.558 0.053 1.155 0.16 1.825l-2.738 2.382 3.295 5.704 3.419-1.177c0.936 0.768 2.003 1.382 3.17 1.822l0.695 3.559h1.88v-5.109l-0.105-0.538-1.472-0.557c-0.879-0.332-1.678-0.789-2.376-1.362l-1.218-1.001-2.713 0.935-0.965-1.676 2.167-1.886-0.251-1.547c-0.083-0.518-0.124-0.969-0.124-1.376 0-0.409 0.041-0.858 0.124-1.373l0.251-1.549-2.17-1.886 0.968-1.676 2.71 0.935 1.221-1.001c0.696-0.573 1.498-1.030 2.379-1.362l1.469-0.557 0.551-2.823h1.933l0.549 2.823 1.472 0.557c0.879 0.332 1.681 0.789 2.379 1.362l1.218 1.001 2.71-0.935 0.968 1.676-2.167 1.883 0.248 1.549v0.006c0.083 0.514 0.124 0.961 0.124 1.37s-0.041 0.858-0.124 1.373l-0.251 1.549 1.508 1.312h4.251l0.017-0.030-2.738-2.382c0.107-0.665 0.16-1.261 0.16-1.822s-0.051-1.159-0.16-1.825l2.738-2.382-3.294-5.704-3.419 1.177c-0.936-0.768-2.003-1.382-3.17-1.822l-0.695-3.559h-6.584zM16 10.357c-3.1 0-5.646 2.546-5.646 5.646s2.546 5.646 5.646 5.646c3.1 0 5.646-2.546 5.646-5.646s-2.546-5.646-5.646-5.646zM16 13.18c1.569 0 2.823 1.254 2.823 2.823s-1.254 2.823-2.823 2.823c-1.569 0-2.823-1.254-2.823-2.823s1.254-2.823 2.823-2.823zM19.311 23.061l-1.899 7.058h1.486l0.364-1.412h1.93l0.367 1.412h1.5l-1.91-7.058h-1.836zM24.469 23.061v7.058h1.412v-2.823h0.706c1.169 0 2.117-0.948 2.117-2.117s-0.948-2.117-2.117-2.117h-2.117zM30.115 23.061v7.058h1.412v-7.058h-1.412zM25.881 24.472h0.706c0.39 0 0.706 0.316 0.706 0.706s-0.316 0.706-0.706 0.706h-0.706v-1.412zM20.224 24.971l0.604 2.324h-1.202l0.598-2.324z"></path>
</svg>
