<!-- Generated by IcoMoon.io -->
<svg version="1.1" xmlns="http://www.w3.org/2000/svg" width="40" height="32" viewBox="0 0 40 32">
<title>restroom</title>
<path d="M8.039 7.572c2.217 0 4.020-1.803 4.020-4.020s-1.803-4.020-4.020-4.020-4.020 1.802-4.020 4.020 1.803 4.020 4.020 4.020zM32.157 7.572c2.217 0 4.020-1.803 4.020-4.020s-1.803-4.020-4.020-4.020-4.020 1.802-4.020 4.020 1.802 4.020 4.020 4.020zM40.152 21.798l-2.864-11.669c-0.207-0.848-0.973-1.445-1.872-1.52-0.942 0.609-2.060 0.973-3.266 0.973s-2.324-0.364-3.266-0.973c-0.898 0.075-1.664 0.672-1.872 1.52l-2.864 11.669c-0.22 0.948 0.534 1.853 1.551 1.853h3.442v6.532c0 0.835 0.672 1.507 1.507 1.507h3.015c0.835 0 1.507-0.672 1.507-1.507v-6.532h3.442c1.017 0 1.771-0.904 1.539-1.853zM21.103-0.467h-2.010c-0.553 0-1.005 0.452-1.005 1.005v30.147c0 0.553 0.452 1.005 1.005 1.005h2.010c0.553 0 1.005-0.452 1.005-1.005v-30.147c0-0.553-0.452-1.005-1.005-1.005zM11.311 8.602c-0.942 0.615-2.066 0.98-3.272 0.98s-2.33-0.364-3.272-0.98c-1.545 0.132-2.757 1.413-2.757 2.99v8.542c0 0.835 0.672 1.507 1.507 1.507h0.502v8.542c0 0.835 0.672 1.507 1.507 1.507h5.024c0.835 0 1.507-0.672 1.507-1.507v-8.542h0.502c0.835 0 1.507-0.672 1.507-1.507v-8.542c0-1.576-1.212-2.858-2.757-2.99z"></path>
</svg>
