<!-- Generated by IcoMoon.io -->
<svg version="1.1" xmlns="http://www.w3.org/2000/svg" width="40" height="32" viewBox="0 0 40 32">
<title>retweet</title>
<path d="M39.546 21.113l-6.324 6.324c-0.589 0.589-1.543 0.589-2.132 0l-6.324-6.324c-0.589-0.589-0.589-1.543 0-2.132l0.68-0.68c0.601-0.601 1.578-0.587 2.162 0.031l2.538 2.688v-11.438h-11.779c-0.416-0-0.793-0.169-1.066-0.441l-1.005-1.005c-0.95-0.95-0.277-2.573 1.066-2.573h15.296c0.833 0 1.507 0.675 1.507 1.507v13.95l2.538-2.688c0.583-0.617 1.561-0.631 2.162-0.031l0.68 0.68c0.589 0.589 0.589 1.543-0 2.132zM22.894 22.082c-0.273-0.273-0.65-0.442-1.066-0.442-0 0-0 0-0 0h-11.779v-11.438l2.538 2.688c0.583 0.617 1.561 0.632 2.162 0.031l0.68-0.68c0.589-0.589 0.589-1.543 0-2.132l-6.324-6.324c-0.589-0.589-1.543-0.589-2.132 0l-6.324 6.324c-0.589 0.589-0.589 1.543 0 2.132l0.68 0.68c0.601 0.601 1.578 0.587 2.162-0.031l2.538-2.688v13.95c0 0.832 0.675 1.507 1.507 1.507h15.296c1.343 0 2.015-1.624 1.066-2.573l-1.005-1.005z"></path>
</svg>
