<!-- Generated by IcoMoon.io -->
<svg version="1.1" xmlns="http://www.w3.org/2000/svg" width="26" height="32" viewBox="0 0 26 32">
<title>rev</title>
<path d="M17 16.798c0 2.271-1.847 4.118-4.118 4.118s-4.118-1.847-4.118-4.118 1.847-4.118 4.118-4.118 4.118 1.847 4.118 4.118zM25.764 16.481h-0.008c-0.094-3.866-1.89-7.307-4.668-9.608l-2.85 1.645c2.711 1.76 4.51 4.813 4.51 8.279 0 5.44-4.426 9.866-9.866 9.866s-9.866-4.426-9.866-9.866c0-5.141 3.954-9.375 8.981-9.825v2.457l6.831-3.944-6.831-3.943v2.407c-6.701 0.455-11.997 6.032-11.997 12.848 0 7.009 5.597 12.705 12.565 12.874v0.008h13.199v-13.199z"></path>
</svg>
