<!-- Generated by IcoMoon.io -->
<svg version="1.1" xmlns="http://www.w3.org/2000/svg" width="28" height="32" viewBox="0 0 28 32">
<title>ribbon</title>
<path d="M0.383 27.438c-0.603 0.678-0.471 1.733 0.283 2.242l4.321 1.752c0.622 0.421 1.463 0.314 1.966-0.239l5.766-6.4-4.974-5.521-7.361 8.165zM27.754 27.438s-18.339-20.387-18.553-20.732c0.967-0.527 2.525-1.124 4.867-1.124s3.9 0.597 4.867 1.124c-0.207 0.352-3.517 4.057-3.517 4.057l4.968 5.508 2.148-2.387c1.802-2.004 2.091-4.937 0.716-7.254l-2.745-4.616c-0.27-0.452-0.622-0.835-1.055-1.13-2.556-1.733-8.002-1.865-10.765 0-0.433 0.295-0.785 0.678-1.055 1.13l-2.738 4.597c-0.094 0.157-2.33 3.907 0.722 7.285l15.582 17.291c0.503 0.559 1.344 0.66 1.966 0.239l4.321-1.752c0.747-0.503 0.879-1.558 0.27-2.236z"></path>
</svg>
