<!-- Generated by IcoMoon.io -->
<svg version="1.1" xmlns="http://www.w3.org/2000/svg" width="32" height="32" viewBox="0 0 32 32">
<title>ring</title>
<path d="M16.078 3.553c-9.166 0-16.078 3.888-16.078 9.044v6.163c0 4.921 7.199 8.91 16.078 8.91s16.078-3.989 16.078-8.91v-6.163c0-5.156-6.912-9.044-16.078-9.044zM16.078 7.572c6.66 0 12.059 2.25 12.059 5.024 0 0.582-0.249 1.138-0.685 1.658-2.822-1.644-6.837-2.662-11.374-2.662s-8.551 1.018-11.374 2.662c-0.436-0.519-0.685-1.076-0.685-1.658 0-2.775 5.399-5.024 12.059-5.024zM7.564 16.154c2.174-0.924 5.1-1.547 8.515-1.547s6.341 0.624 8.515 1.547c-2.181 0.906-5.19 1.467-8.515 1.467s-6.333-0.561-8.515-1.467z"></path>
</svg>
