<!-- Generated by IcoMoon.io -->
<svg version="1.1" xmlns="http://www.w3.org/2000/svg" width="32" height="32" viewBox="0 0 32 32">
<title>rm-file-format</title>
<path d="M10.633 23.341c-0.457 0-0.716 0.037-0.852 0.062v2.297h0.741c0.939 0 1.494-0.469 1.494-1.198 0-0.765-0.519-1.148-1.383-1.161zM27.737 7.239c-0.002-0.147-0.049-0.293-0.15-0.408l-6.2-7.082c-0.001-0.002-0.003-0.003-0.005-0.004-0.037-0.041-0.079-0.075-0.125-0.105-0.013-0.009-0.027-0.017-0.041-0.025-0.040-0.021-0.081-0.039-0.124-0.052-0.012-0.003-0.022-0.008-0.034-0.011-0.047-0.011-0.095-0.018-0.145-0.018h-15.238c-0.695 0-1.261 0.566-1.261 1.261v29.635c0 0.695 0.566 1.261 1.261 1.261h20.807c0.696 0 1.261-0.566 1.261-1.261v-23.119c0-0.024-0.004-0.047-0.006-0.071zM12.276 30.331c-0.136-0.234-0.334-0.913-0.58-1.938-0.222-1.037-0.58-1.321-1.346-1.334h-0.568v3.273h-1.865v-8.212c0.605-0.099 1.507-0.172 2.507-0.172 1.235 0 2.099 0.185 2.692 0.654 0.494 0.395 0.765 0.976 0.765 1.741 0 1.062-0.753 1.791-1.469 2.050v0.037c0.58 0.235 0.901 0.79 1.111 1.556 0.259 0.939 0.519 2.025 0.679 2.346h-1.926zM22.4 30.331l-0.123-3.186c-0.037-1-0.074-2.21-0.074-3.421h-0.037c-0.259 1.062-0.605 2.247-0.926 3.223l-1.013 3.248h-1.469l-0.889-3.223c-0.272-0.976-0.556-2.161-0.753-3.248h-0.025c-0.050 1.123-0.087 2.408-0.148 3.445l-0.148 3.161h-1.741l0.531-8.323h2.507l0.815 2.779c0.26 0.963 0.519 2.001 0.704 2.976h0.037c0.235-0.963 0.519-2.062 0.791-2.989l0.889-2.766h2.457l0.457 8.323h-1.84zM5.675 20.945v-20.151h14.607v6.452c0 0.348 0.282 0.631 0.631 0.631h5.569l0.001 13.068h-20.808zM14.726 9.313c-0.028-0.022-0.066-0.027-0.099-0.010-0.033 0.015-0.053 0.048-0.053 0.084v3.962c0 0.035 0.020 0.069 0.053 0.083l0.041 0.010c0.021 0 0.041-0.007 0.058-0.021l3.102-1.98c0.022-0.018 0.035-0.046 0.035-0.073s-0.013-0.055-0.035-0.073l-3.102-1.98zM15.484 7.414c-3.522 0-6.377 1.733-6.377 3.87s2.855 3.87 6.377 3.87c0.251 0 0.498-0.010 0.742-0.027-0.202 0.595-0.914 2.163-1.549 3.992l5.804-5.060c1.182-1.143 1.307-2.138 1.307-2.782 0-2.137-2.783-3.863-6.305-3.863zM19.945 13.476l-3.379 2.946c0.184-0.448 0.328-0.803 0.409-1.040 0.086-0.251 0.039-0.528-0.122-0.738-0.15-0.195-0.382-0.309-0.627-0.309-0.018 0-0.037 0.001-0.055 0.002-0.239 0.017-0.464 0.025-0.687 0.025-3.028 0-5.585-1.41-5.585-3.079s2.558-3.079 5.585-3.079c2.988 0 5.513 1.407 5.513 3.072-0 0.549-0.12 1.293-1.052 2.2z"></path>
</svg>
