<!-- Generated by IcoMoon.io -->
<svg version="1.1" xmlns="http://www.w3.org/2000/svg" width="36" height="32" viewBox="0 0 36 32">
<title>road</title>
<path d="M36 24.823l-8.78-20.098c-0.312-0.715-0.992-1.173-1.741-1.173h-6.129l0.154 1.455c0.031 0.296-0.202 0.555-0.5 0.555h-1.831c-0.298 0-0.531-0.259-0.5-0.555l0.154-1.455h-6.129c-0.749 0-1.43 0.458-1.742 1.173l-8.78 20.098c-0.581 1.331 0.346 2.847 1.742 2.847h12.363l0.648-6.135c0.054-0.511 0.485-0.899 0.999-0.899h4.321c0.514 0 0.945 0.388 0.999 0.899l0.648 6.135h12.363c1.396 0 2.323-1.516 1.742-2.847zM16.355 8.022c0.028-0.254 0.241-0.45 0.5-0.45 0 0 0 0 0 0h2.468c0.257 0 0.473 0.194 0.5 0.45l0.289 2.737c0.047 0.445-0.302 0.833-0.749 0.833h-2.546c-0.448 0-0.796-0.387-0.749-0.833l0.288-2.737zM19.824 18.626h-3.473c-0.597 0-1.062-0.517-0.999-1.11l0.318-3.015c0.054-0.511 0.485-0.899 0.999-0.899h2.836c0.514 0 0.945 0.388 0.999 0.899l0.318 3.015c0.063 0.594-0.403 1.11-0.999 1.11z"></path>
</svg>
