<!-- Generated by IcoMoon.io -->
<svg version="1.1" xmlns="http://www.w3.org/2000/svg" width="40" height="32" viewBox="0 0 40 32">
<title>robot</title>
<path d="M0 15.611v8.039c0 1.112 0.898 2.010 2.010 2.010h2.010v-12.059h-2.010c-1.112 0-2.010 0.898-2.010 2.010zM29.142 5.562h-7.034v-4.020c0-1.112-0.898-2.010-2.010-2.010s-2.010 0.898-2.010 2.010v4.020h-7.034c-2.776 0-5.024 2.248-5.024 5.024v17.083c0 2.217 1.803 4.020 4.020 4.020h20.098c2.217 0 4.020-1.802 4.020-4.020v-17.083c0-2.776-2.248-5.024-5.024-5.024zM16.078 25.66h-4.020v-2.010h4.020v2.010zM14.069 18.124c-1.388 0-2.512-1.124-2.512-2.512s1.124-2.512 2.512-2.512 2.512 1.124 2.512 2.512-1.124 2.512-2.512 2.512zM22.108 25.66h-4.020v-2.010h4.020v2.010zM28.137 25.66h-4.020v-2.010h4.020v2.010zM26.127 18.124c-1.388 0-2.512-1.124-2.512-2.512s1.124-2.512 2.512-2.512 2.512 1.124 2.512 2.512-1.124 2.512-2.512 2.512zM38.186 13.602h-2.010v12.059h2.010c1.112 0 2.010-0.898 2.010-2.010v-8.039c0-1.112-0.898-2.010-2.010-2.010z"></path>
</svg>
