<!-- Generated by IcoMoon.io -->
<svg version="1.1" xmlns="http://www.w3.org/2000/svg" width="31" height="32" viewBox="0 0 31 32">
<title>rockrms</title>
<path d="M15.576 0.035c-8.604 0-15.576 6.971-15.576 15.576s6.971 15.576 15.576 15.576 15.576-6.971 15.576-15.576-6.971-15.576-15.576-15.576zM25.462 26.383h-5.653l-7.034-8.246c-1.124-1.281-0.245-3.523 1.671-3.523h4.729l-5.313-6.237-5.295 6.212h-5.653l9.239-10.834c0.904-1.156 2.594-1.087 3.423 0l9.905 11.625c1.193 1.432 0.126 3.593-1.733 3.523-0.038 0-4.66 0.012-4.66 0.012l6.375 7.468z"></path>
</svg>
