<!-- Generated by IcoMoon.io -->
<svg version="1.1" xmlns="http://www.w3.org/2000/svg" width="37" height="32" viewBox="0 0 37 32">
<title>rocketchat</title>
<path d="M30.894 6.184c-4.886-3.228-11.38-3.963-16.776-2.99-6.036-5.822-12.8-3.147-14.119-2.374 0 0 4.641 3.944 3.888 7.399-5.496 5.602-2.883 11.839 0 14.785 0.754 3.454-3.888 7.399-3.888 7.399 1.306 0.773 8.052 3.442 14.119-2.349 5.383 0.967 11.877 0.239 16.776-2.996 7.574-4.836 7.6-14.012 0-18.873zM18.685 25.026c-1.89 0.006-3.768-0.239-5.596-0.722l-1.256 1.212c-0.697 0.678-1.482 1.262-2.324 1.74-1.024 0.515-2.142 0.835-3.285 0.936 0.063-0.113 0.119-0.226 0.176-0.333 1.256-2.33 1.595-4.415 1.018-6.268-2.066-1.627-3.304-3.706-3.304-5.979 0-5.207 6.526-9.427 14.571-9.427s14.571 4.221 14.571 9.427c0 5.207-6.526 9.415-14.571 9.415zM11.694 17.854c-1.2 0.019-2.192-0.942-2.211-2.142-0.044-2.883 4.309-2.946 4.352-0.069v0.031c0.012 1.212-0.973 2.179-2.142 2.179zM16.38 15.712c-0.050-2.883 4.302-2.952 4.352-0.075v0.038c0.025 2.864-4.302 2.895-4.352 0.038zM25.487 17.854c-1.2 0.019-2.192-0.942-2.211-2.142-0.044-2.883 4.309-2.946 4.352-0.069v0.031c0.012 1.193-0.942 2.173-2.142 2.179z"></path>
</svg>
