<!-- Generated by IcoMoon.io -->
<svg version="1.1" xmlns="http://www.w3.org/2000/svg" width="32" height="32" viewBox="0 0 32 32">
<title>rocket</title>
<path d="M31.723 0.733c-0.082-0.383-0.383-0.685-0.766-0.766-2.022-0.433-3.605-0.433-5.181-0.433-6.482 0-10.369 3.467-13.271 8.039h-6.544c-1.143 0-2.186 0.647-2.694 1.664l-3.103 6.205c-0.502 1.005 0.226 2.179 1.35 2.179h5.973c-0.371 0.804-0.747 1.602-1.13 2.368-0.195 0.389-0.119 0.854 0.188 1.162l3.994 3.994c0.308 0.308 0.773 0.383 1.162 0.188 0.766-0.383 1.564-0.754 2.368-1.124v5.973c0 1.118 1.181 1.847 2.179 1.35l6.199-3.103c1.024-0.509 1.664-1.558 1.664-2.694v-6.557c4.56-2.908 8.039-6.808 8.039-13.258 0.006-1.583 0.006-3.165-0.427-5.188zM25.122 9.582c-1.664 0-3.015-1.35-3.015-3.015s1.35-3.015 3.015-3.015 3.015 1.35 3.015 3.015-1.35 3.015-3.015 3.015z"></path>
</svg>
