<!-- Generated by IcoMoon.io -->
<svg version="1.1" xmlns="http://www.w3.org/2000/svg" width="32" height="32" viewBox="0 0 32 32">
<title>rom-file</title>
<path d="M22.074 11.412h-0.845v-0.505c0-0.205-0.081-0.401-0.226-0.546l-3.46-3.46c-0.145-0.145-0.341-0.226-0.546-0.226h-5.321c-0.426 0-0.772 0.346-0.772 0.772v0.064h-0.822c-0.202 0-0.366 0.164-0.366 0.366v0.32c0 0.202 0.164 0.366 0.366 0.366h0.822v0.899h-0.822c-0.202 0-0.366 0.164-0.366 0.366v0.32c0 0.202 0.164 0.366 0.366 0.366h0.822v0.899h-0.822c-0.202 0-0.366 0.164-0.366 0.366v0.32c0 0.202 0.164 0.366 0.366 0.366h0.822v0.899h-0.822c-0.202 0-0.366 0.164-0.366 0.366v0.32c0 0.202 0.164 0.366 0.366 0.366h0.822v0.899h-0.822c-0.202 0-0.366 0.164-0.366 0.366v0.32c0 0.202 0.164 0.366 0.366 0.366h0.822v1.852c0 0.426 0.346 0.772 0.772 0.772h8.781c0.426 0 0.772-0.346 0.772-0.772v-1.852h0.845c0.202 0 0.366-0.164 0.366-0.366v-0.32c0-0.202-0.164-0.366-0.366-0.366h-0.845v-0.898h0.845c0.202 0 0.366-0.164 0.366-0.366v-0.32c0-0.202-0.164-0.366-0.366-0.366h-0.845v-0.899h0.845c0.202 0 0.366-0.164 0.366-0.366v-0.32c0-0.202-0.164-0.366-0.366-0.366zM20.177 17.936h-8.221v-10.209h0.925v2.784c-0.151 0.053-0.259 0.196-0.259 0.366v0.884c0 0.214 0.174 0.388 0.388 0.388h0.884c0.214 0 0.388-0.174 0.388-0.388v-0.884c0-0.201-0.153-0.366-0.349-0.386v-2.764h1.223v3.436c-0.174 0.038-0.304 0.193-0.304 0.379v0.884c0 0.214 0.174 0.388 0.388 0.388h0.884c0.214 0 0.388-0.174 0.388-0.388v-0.884c0-0.185-0.13-0.34-0.304-0.379v-3.436h0.673l1.997 1.997h-1.265c-0.214 0-0.388 0.174-0.388 0.388v0.276c0 0.214 0.174 0.388 0.388 0.388h2.174c0.043 0 0.084-0.007 0.123-0.020l0.268 0.268v6.913zM10.068 24.29c-0.282 0-0.441 0.023-0.525 0.038v1.415h0.456c0.578 0 0.921-0.289 0.921-0.738 0-0.472-0.319-0.707-0.852-0.715zM15.104 24.305c-0.784 0-1.24 0.746-1.24 1.742 0 1.004 0.472 1.712 1.248 1.712 0.784 0 1.232-0.746 1.232-1.742 0-0.921-0.441-1.712-1.24-1.712zM27.473 6.69l-5.95-6.785c-0.207-0.236-0.506-0.371-0.819-0.371h-15.029c-0.696 0-1.261 0.565-1.261 1.261v29.635c0 0.697 0.565 1.261 1.261 1.261h20.807c0.697 0 1.261-0.565 1.261-1.261v-23.020c0-0.264-0.096-0.52-0.27-0.718zM11.080 28.596c-0.084-0.145-0.205-0.563-0.358-1.194-0.137-0.639-0.357-0.814-0.829-0.822h-0.35v2.016h-1.149v-5.059c0.373-0.061 0.928-0.106 1.544-0.106 0.761 0 1.293 0.114 1.659 0.403 0.304 0.244 0.472 0.601 0.472 1.073 0 0.654-0.464 1.103-0.905 1.263v0.023c0.357 0.145 0.555 0.487 0.685 0.959 0.16 0.578 0.32 1.248 0.418 1.445h-1.187zM15.051 28.679c-1.521 0-2.412-1.149-2.412-2.61 0-1.537 0.982-2.686 2.495-2.686 1.575 0 2.434 1.179 2.434 2.594-0 1.681-1.020 2.701-2.518 2.701zM22.743 28.596l-0.076-1.963c-0.023-0.616-0.046-1.362-0.046-2.107h-0.023c-0.16 0.654-0.373 1.385-0.571 1.986l-0.624 2.001h-0.905l-0.548-1.986c-0.167-0.601-0.342-1.331-0.464-2.001h-0.015c-0.030 0.692-0.053 1.483-0.091 2.122l-0.091 1.948h-1.073l0.327-5.128h1.544l0.502 1.712c0.16 0.593 0.32 1.232 0.434 1.833h0.023c0.145-0.593 0.32-1.27 0.487-1.841l0.548-1.704h1.514l0.282 5.128h-1.134zM5.675 20.944v0-20.15h14.607v6.452c0 0.348 0.282 0.631 0.631 0.631h5.569l0.001 13.068h-20.808z"></path>
</svg>
