<!-- Generated by IcoMoon.io -->
<svg version="1.1" xmlns="http://www.w3.org/2000/svg" width="32" height="32" viewBox="0 0 32 32">
<title>rom-file-format-variant</title>
<path d="M8.433 23.786c-0.358 0-0.562 0.029-0.669 0.048v1.802h0.581c0.737 0 1.173-0.368 1.173-0.94-0-0.601-0.407-0.901-1.085-0.91zM14.845 23.805c-0.998 0-1.579 0.95-1.579 2.219 0 1.279 0.601 2.18 1.589 2.18 0.997 0 1.569-0.95 1.569-2.219 0-1.172-0.561-2.18-1.579-2.18zM27.737 7.239c-0.002-0.148-0.049-0.293-0.15-0.408l-6.201-7.082c-0.001-0.002-0.003-0.002-0.005-0.004-0.037-0.041-0.079-0.075-0.125-0.105-0.013-0.009-0.027-0.017-0.041-0.025-0.040-0.021-0.081-0.039-0.125-0.052-0.012-0.004-0.022-0.008-0.034-0.011-0.047-0.011-0.096-0.018-0.145-0.018h-15.238c-0.695 0-1.261 0.566-1.261 1.261v29.635c0 0.696 0.566 1.261 1.261 1.261h20.807c0.696 0 1.261-0.566 1.261-1.261v-23.119c0-0.024-0.004-0.047-0.006-0.070zM9.721 29.269c-0.107-0.184-0.262-0.717-0.455-1.521-0.175-0.814-0.456-1.037-1.056-1.046h-0.446v2.567h-1.463v-6.442c0.475-0.077 1.182-0.136 1.967-0.136 0.968 0 1.647 0.145 2.112 0.514 0.388 0.31 0.601 0.765 0.601 1.366 0 0.833-0.591 1.405-1.153 1.608v0.030c0.455 0.184 0.707 0.62 0.872 1.22 0.204 0.736 0.407 1.589 0.533 1.841l-1.511-0zM14.777 29.375c-1.938 0-3.071-1.463-3.071-3.323 0-1.957 1.25-3.42 3.178-3.42 2.006 0 3.1 1.502 3.1 3.303-0 2.141-1.298 3.439-3.206 3.439zM24.571 29.269l-0.098-2.499c-0.029-0.785-0.058-1.735-0.058-2.684h-0.029c-0.203 0.833-0.475 1.763-0.727 2.529l-0.795 2.548h-1.152l-0.698-2.529c-0.213-0.765-0.436-1.696-0.59-2.548h-0.020c-0.039 0.881-0.068 1.889-0.116 2.703l-0.116 2.48h-1.366l0.417-6.529h1.967l0.639 2.18c0.203 0.755 0.407 1.569 0.552 2.334h0.029c0.184-0.756 0.407-1.618 0.62-2.345l0.698-2.17h1.927l0.359 6.529-1.443 0.001zM5.675 20.945v-20.151h14.607v6.452c0 0.348 0.282 0.631 0.631 0.631h5.569l0.001 13.068h-20.808zM20.504 7.24h-8.994v1.229h-1.843v0.393h-0.971v0.345h0.971v0.442h1.843v2.162h-1.843v0.442h-0.971v0.345h0.971v0.393h1.843v2.31h-1.843v0.418h-0.971v0.345h0.971v0.417h1.843v1.671h8.994v-1.671h1.67v-0.417h0.971v-0.345h-0.971v-0.418h-1.67v-2.31h1.67v-0.393h0.971v-0.345h-0.971v-0.442h-1.67v-2.162h1.67v-0.442h0.971v-0.345h-0.971v-0.393h-1.67v-1.229h0zM18.785 10.189c-0.381 0-0.688-0.308-0.688-0.688s0.308-0.688 0.688-0.688c0.38 0 0.688 0.308 0.688 0.688s-0.308 0.688-0.688 0.688z"></path>
</svg>
