<!-- Generated by IcoMoon.io -->
<svg version="1.1" xmlns="http://www.w3.org/2000/svg" width="32" height="32" viewBox="0 0 32 32">
<title>route</title>
<path d="M26.127 19.631h-6.029c-1.105 0-2.010-0.904-2.010-2.010s0.904-2.010 2.010-2.010h6.029s6.029-6.72 6.029-10.049-2.701-6.029-6.029-6.029-6.029 2.701-6.029 6.029c0 1.602 1.394 3.982 2.845 6.029h-2.845c-3.322 0-6.029 2.707-6.029 6.029s2.707 6.029 6.029 6.029h6.029c1.105 0 2.010 0.904 2.010 2.010s-0.904 2.010-2.010 2.010h-14.477c-1.005 1.558-2.123 2.996-2.971 4.020h17.448c3.322 0 6.029-2.707 6.029-6.029s-2.707-6.029-6.029-6.029zM26.127 3.553c1.112 0 2.010 0.898 2.010 2.010s-0.898 2.010-2.010 2.010-2.010-0.898-2.010-2.010 0.898-2.010 2.010-2.010zM6.029 15.611c-3.329 0-6.029 2.701-6.029 6.029s6.029 10.049 6.029 10.049 6.029-6.72 6.029-10.049-2.701-6.029-6.029-6.029zM6.029 23.651c-1.112 0-2.010-0.898-2.010-2.010s0.898-2.010 2.010-2.010 2.010 0.898 2.010 2.010-0.898 2.010-2.010 2.010z"></path>
</svg>
