<!-- Generated by IcoMoon.io -->
<svg version="1.1" xmlns="http://www.w3.org/2000/svg" width="32" height="32" viewBox="0 0 32 32">
<title>rpm-file-format-symbol</title>
<path d="M14.61 23.521c-0.331 0-0.555 0.032-0.673 0.064v2.125c0.139 0.032 0.31 0.043 0.545 0.043 0.865 0 1.399-0.438 1.399-1.175-0-0.662-0.459-1.057-1.271-1.057zM8.34 23.499c-0.395 0-0.619 0.032-0.737 0.054v1.986h0.641c0.811 0 1.292-0.406 1.292-1.036-0-0.662-0.449-0.993-1.196-1.004zM27.737 7.239c-0.002-0.148-0.049-0.293-0.15-0.408l-6.2-7.082c-0.001-0.002-0.003-0.002-0.005-0.004-0.037-0.041-0.079-0.075-0.125-0.105-0.013-0.009-0.027-0.017-0.041-0.025-0.040-0.021-0.081-0.039-0.124-0.052-0.012-0.004-0.022-0.008-0.034-0.011-0.047-0.011-0.095-0.018-0.145-0.018h-15.238c-0.695 0-1.261 0.566-1.261 1.261v29.635c0 0.696 0.566 1.261 1.261 1.261h20.807c0.696 0 1.261-0.566 1.261-1.261v-23.119c-0-0.024-0.004-0.047-0.006-0.071zM9.761 29.544c-0.118-0.203-0.288-0.791-0.502-1.677-0.192-0.897-0.502-1.143-1.164-1.153h-0.491v2.83h-1.613v-7.102c0.523-0.085 1.303-0.15 2.168-0.15 1.068 0 1.816 0.16 2.328 0.567 0.427 0.342 0.662 0.843 0.662 1.506 0 0.919-0.651 1.548-1.271 1.773v0.032c0.502 0.203 0.78 0.683 0.961 1.345 0.224 0.812 0.449 1.752 0.587 2.029l-1.666-0zM16.831 26.244c-0.556 0.523-1.378 0.758-2.339 0.758-0.214 0-0.406-0.010-0.556-0.032v2.573h-1.613v-7.101c0.502-0.085 1.207-0.15 2.2-0.15 1.004 0 1.72 0.193 2.2 0.577 0.459 0.363 0.769 0.961 0.769 1.666s-0.235 1.302-0.662 1.709zM24.575 29.544l-0.107-2.755c-0.032-0.865-0.064-1.912-0.064-2.958h-0.032c-0.224 0.918-0.523 1.943-0.801 2.788l-0.876 2.808h-1.271l-0.769-2.788c-0.235-0.843-0.481-1.869-0.651-2.808h-0.022c-0.043 0.972-0.074 2.082-0.128 2.98l-0.128 2.734h-1.506l0.459-7.198h2.168l0.705 2.402c0.224 0.833 0.449 1.73 0.609 2.574h0.032c0.203-0.833 0.448-1.783 0.683-2.584l0.769-2.392h2.125l0.395 7.198h-1.591zM5.675 20.945v-20.151h14.607v6.452c0 0.348 0.282 0.631 0.631 0.631h5.569l0.001 13.068h-20.808zM22.546 12.468c-0.012 4.113-3.118 7.095-6.784 7.258-1.929 0.086-3.641-0.471-5.092-1.746-1.624-1.428-2.437-3.259-2.453-5.407-0.013-1.848 0.609-3.498 1.873-4.864 1.485-1.604 3.335-2.382 5.529-2.326 3.746 0.096 6.873 3.161 6.928 7.084zM19.002 11.492c0-0.093-0.003-0.152 0.001-0.212 0.002-0.032 0.018-0.062 0.025-0.094 0.136-0.566 0.174-1.126-0.065-1.68-0.222-0.511-0.416-1.035-0.646-1.542-0.114-0.252-0.237-0.526-0.432-0.71-0.486-0.459-1.11-0.461-1.722-0.362-0.343 0.055-0.676 0.159-1.028 0.121-0.461-0.049-0.92-0.121-1.382-0.15-0.393-0.025-0.81 0.284-0.925 0.66-0.141 0.464-0.276 0.932-0.394 1.402-0.116 0.46-0.025 0.724 0.401 0.949 0.449 0.238 0.943 0.392 1.423 0.566 0.353 0.128 0.722 0.213 1.073 0.345 0.231 0.086 0.415 0.23 0.409 0.531-0.004 0.194 0.070 0.376 0.211 0.527 0.059 0.063 0.080 0.161 0.119 0.243-0.013 0.023-0.026 0.046-0.040 0.069-0.21-0.015-0.43 0.005-0.629-0.050-1.109-0.308-2.153-0.77-3.117-1.4-0.102-0.066-0.185-0.216-0.206-0.339-0.033-0.188-0.033-0.392 0.008-0.576 0.038-0.171-0.027-0.189-0.153-0.181-0.387 0.024-0.774 0.042-1.159 0.081-0.423 0.043-0.766 0.238-1.003 0.6-0.108 0.165-0.147 0.343-0.030 0.514 0.155 0.225 0.303 0.463 0.498 0.649 0.398 0.38 0.801 0.762 1.246 1.083 0.515 0.372 1.063 0.706 1.624 1.005 0.439 0.234 0.915 0.4 1.381 0.58 0.608 0.234 1.238 0.39 1.886 0.465 0.293 0.034 0.586 0.075 0.88 0.082 0.432 0.010 0.867 0.015 1.297-0.021 0.535-0.045 1.001-0.31 1.47-0.548 0.612-0.311 1.037-0.765 1.191-1.459 0.099-0.445 0.084-0.859-0.309-1.129-0.431-0.296-0.887-0.567-1.405-0.706-0.084 0.279-0.171 0.55-0.501 0.687zM8.809 15.185c1.194 2.643 3.195 4.212 6.069 4.434 2.473 0.191 4.533-0.772 6.128-2.765-0.19 0-0.334 0.003-0.478-0.001-0.416-0.010-0.831-0.027-1.247-0.031-0.033-0-0.103 0.083-0.095 0.111 0.046 0.172-0.041 0.256-0.179 0.321-0.458 0.214-0.878 0.481-1.236 0.845-0.109 0.111-0.264 0.188-0.41 0.248-0.070 0.028-0.17-0.020-0.256-0.033 0.018-0.077 0.013-0.17 0.056-0.23 0.31-0.427 0.631-0.846 0.946-1.269 0.050-0.067 0.115-0.135 0.134-0.212 0.1-0.416 0.19-0.834 0.279-1.253 0.022-0.1-0.009-0.172-0.131-0.167-0.066 0.003-0.132 0.007-0.198 0.007-0.161 0.001-0.323 0.008-0.484 0-0.317-0.017-0.633-0.113-0.949 0.027-0.068 0.030-0.163 0.007-0.244-0.002-0.174-0.020-0.347-0.067-0.52-0.067-0.402 0-0.806 0.046-1.206 0.024-0.201-0.010-0.432-0.084-0.586-0.207-0.291-0.231-0.541-0.516-0.8-0.787-0.099-0.104-0.19-0.14-0.329-0.076-0.19 0.088-0.323 0.004-0.447-0.155-0.167-0.214-0.355-0.414-0.548-0.607-0.117-0.116-0.268-0.145-0.431-0.074-0.202 0.087-0.386 0.193-0.383 0.443 0.003 0.228 0.061 0.439 0.215 0.627 0.177 0.215 0.317 0.455 0.565 0.61 0.053 0.033 0.080 0.176 0.055 0.243s-0.127 0.134-0.205 0.148c-0.194 0.034-0.375-0.010-0.525-0.158-0.164-0.162-0.332-0.321-0.51-0.468-0.075-0.063-0.176-0.128-0.267-0.132-0.297-0.012-0.595 0.004-0.893 0.007-0.242 0.002-0.483 0-0.766 0-0.355-0.020-0.295 0.13-0.12 0.599zM13.309 8.038c0.126 0.079 0.23 0.123 0.307 0.196 0.217 0.205 0.484 0.213 0.738 0.162 0.319-0.064 0.607 0.021 0.901 0.101 0.033 0.009 0.078 0.068 0.074 0.097-0.008 0.049-0.042 0.119-0.082 0.133-0.145 0.052-0.295 0.094-0.447 0.12-0.212 0.037-0.426 0.053-0.639 0.086-0.069 0.011-0.148 0.031-0.197 0.074-0.274 0.246-0.472-0.004-0.666-0.118-0.219-0.128-0.226-0.379-0.182-0.603 0.018-0.090 0.122-0.162 0.192-0.249zM16.219 7.293c0.236-0.109 0.483-0.137 0.737-0.102 0.108 0.015 0.22 0.030 0.32 0.071 0.15 0.061 0.252 0.162 0.256 0.348 0.003 0.181-0.133 0.232-0.248 0.26-0.188 0.045-0.387 0.046-0.582 0.059-0.030 0.002-0.062-0.036-0.116-0.070 0.113-0.097 0.209-0.18 0.32-0.275-0.179-0.239-0.458-0.19-0.687-0.291zM16.479 16.605c-0.193-0.068-0.387-0.135-0.58-0.203-0.012-0.004-0.023-0.017-0.035-0.018-0.114-0.006-0.244 0.005-0.204-0.175 0.034-0.152 0.202-0.258 0.343-0.213 0.092 0.029 0.186 0.062 0.268 0.112 0.148 0.090 0.269 0.106 0.4-0.038 0.038-0.042 0.196-0.048 0.204-0.028 0.041 0.093 0.092 0.215 0.062 0.299-0.070 0.198-0.252 0.248-0.459 0.264z"></path>
</svg>
