<!-- Generated by IcoMoon.io -->
<svg version="1.1" xmlns="http://www.w3.org/2000/svg" width="28" height="32" viewBox="0 0 28 32">
<title>rss-square</title>
<path d="M25.122 1.543h-22.108c-1.665 0-3.015 1.35-3.015 3.015v22.108c0 1.665 1.35 3.015 3.015 3.015h22.108c1.665 0 3.015-1.35 3.015-3.015v-22.108c0-1.665-1.35-3.015-3.015-3.015zM7.034 25.66c-1.665 0-3.015-1.35-3.015-3.015s1.35-3.015 3.015-3.015 3.015 1.35 3.015 3.015-1.35 3.015-3.015 3.015zM16.928 25.66h-2.156c-0.378 0-0.694-0.291-0.719-0.668-0.327-5.028-4.349-9.039-9.366-9.366-0.377-0.025-0.668-0.341-0.668-0.719v-2.156c0-0.41 0.343-0.74 0.753-0.717 6.943 0.375 12.498 5.937 12.873 12.873 0.022 0.41-0.307 0.753-0.718 0.753zM23.399 25.66h-2.156c-0.387 0-0.702-0.307-0.718-0.693-0.352-8.575-7.236-15.46-15.812-15.812-0.387-0.016-0.693-0.331-0.693-0.718v-2.156c0-0.405 0.335-0.733 0.74-0.718 10.541 0.378 18.981 8.868 19.357 19.357 0.015 0.405-0.313 0.74-0.718 0.74z"></path>
</svg>
