<!-- Generated by IcoMoon.io -->
<svg version="1.1" xmlns="http://www.w3.org/2000/svg" width="32" height="32" viewBox="0 0 32 32">
<title>rss-file-format-symbol</title>
<path d="M10.606 23.869c-0.358 0-0.562 0.029-0.669 0.049v1.802h0.582c0.736 0 1.172-0.368 1.172-0.94 0-0.601-0.407-0.901-1.085-0.911zM27.737 7.239c-0.002-0.148-0.048-0.293-0.15-0.408l-6.201-7.082c-0.001-0.002-0.003-0.003-0.005-0.004-0.037-0.041-0.079-0.075-0.125-0.105-0.013-0.009-0.027-0.017-0.041-0.025-0.040-0.021-0.081-0.039-0.124-0.052-0.012-0.003-0.022-0.008-0.034-0.011-0.047-0.011-0.095-0.018-0.145-0.018h-15.238c-0.695 0-1.261 0.566-1.261 1.261v29.635c0 0.696 0.566 1.261 1.261 1.261h20.807c0.696 0 1.261-0.566 1.261-1.261v-23.119c0-0.024-0.004-0.047-0.006-0.071zM11.894 29.353c-0.106-0.184-0.261-0.717-0.455-1.521-0.174-0.814-0.455-1.036-1.056-1.046h-0.446v2.568h-1.463v-6.443c0.475-0.077 1.182-0.136 1.967-0.136 0.969 0 1.647 0.146 2.112 0.514 0.387 0.31 0.601 0.765 0.601 1.366 0 0.834-0.591 1.405-1.153 1.608v0.029c0.455 0.184 0.707 0.62 0.872 1.221 0.203 0.736 0.406 1.589 0.533 1.841h-1.511zM15.817 29.45c-0.745 0-1.482-0.194-1.85-0.397l0.3-1.221c0.397 0.204 1.007 0.407 1.637 0.407 0.678 0 1.036-0.281 1.036-0.707 0-0.407-0.31-0.639-1.095-0.921-1.085-0.378-1.792-0.978-1.792-1.928 0-1.114 0.93-1.967 2.47-1.967 0.736 0 1.278 0.155 1.666 0.329l-0.329 1.191c-0.262-0.126-0.727-0.31-1.366-0.31s-0.949 0.29-0.949 0.63c0 0.417 0.368 0.601 1.211 0.92 1.153 0.427 1.695 1.028 1.695 1.948 0.001 1.094-0.842 2.025-2.635 2.025zM21.047 29.45c-0.746 0-1.482-0.194-1.85-0.397l0.3-1.221c0.397 0.204 1.008 0.407 1.637 0.407 0.678 0 1.037-0.281 1.037-0.707 0-0.407-0.31-0.639-1.095-0.921-1.085-0.378-1.793-0.978-1.793-1.928 0-1.114 0.93-1.967 2.471-1.967 0.736 0 1.279 0.155 1.666 0.329l-0.329 1.191c-0.261-0.126-0.727-0.31-1.366-0.31s-0.949 0.29-0.949 0.63c0 0.417 0.368 0.601 1.211 0.92 1.153 0.427 1.695 1.028 1.695 1.948 0.001 1.094-0.842 2.025-2.634 2.025zM5.675 20.945v-20.151h14.607v6.452c0 0.348 0.282 0.631 0.631 0.631h5.569l0.001 13.068h-20.808zM9.195 15.086c-1.168 0-2.118 0.95-2.118 2.12 0 1.166 0.95 2.117 2.118 2.117 1.169 0 2.12-0.951 2.12-2.117 0-1.17-0.951-2.12-2.12-2.12zM7.297 9.707c-0.122 0-0.22 0.099-0.22 0.222v2.689c0 0.122 0.099 0.22 0.22 0.22 3.454 0 6.265 2.811 6.265 6.266 0 0.12 0.098 0.22 0.22 0.22h2.7c0.123 0 0.222-0.1 0.222-0.22l-0.012-0.070c-0.038-5.149-4.24-9.327-9.395-9.327zM21.357 19.034c-0.036-7.723-6.332-13.993-14.061-13.993-0.121 0-0.22 0.099-0.22 0.221v2.768c0 0.122 0.099 0.22 0.22 0.22 5.984 0 10.852 4.869 10.852 10.853 0 0.12 0.099 0.22 0.22 0.22h2.779c0.121 0 0.222-0.099 0.222-0.22l-0.012-0.069z"></path>
</svg>
