<!-- Generated by IcoMoon.io -->
<svg version="1.1" xmlns="http://www.w3.org/2000/svg" width="28" height="32" viewBox="0 0 28 32">
<title>rss</title>
<path d="M8.044 25.658c0 2.221-1.801 4.022-4.022 4.022s-4.022-1.801-4.022-4.022 1.801-4.022 4.022-4.022 4.022 1.801 4.022 4.022zM19.077 28.625c-0.525-9.71-8.302-17.497-18.022-18.022-0.574-0.031-1.055 0.43-1.055 1.004v3.019c0 0.528 0.408 0.972 0.935 1.006 7.024 0.457 12.654 6.073 13.112 13.112 0.034 0.527 0.478 0.935 1.006 0.935h3.019c0.575 0 1.036-0.481 1.005-1.055zM28.137 28.643c-0.527-14.685-12.343-26.57-27.1-27.1-0.567-0.020-1.036 0.438-1.036 1.005v3.019c0 0.542 0.429 0.983 0.971 1.005 12.007 0.492 21.645 10.132 22.137 22.137 0.022 0.541 0.463 0.971 1.005 0.971h3.019c0.567-0 1.026-0.469 1.005-1.037z"></path>
</svg>
