<!-- Generated by IcoMoon.io -->
<svg version="1.1" xmlns="http://www.w3.org/2000/svg" width="32" height="32" viewBox="0 0 32 32">
<title>rtf-icon-format</title>
<path d="M27.737 7.239c-0.002-0.147-0.049-0.293-0.15-0.408l-6.2-7.082c-0.001-0.002-0.003-0.003-0.005-0.004-0.037-0.041-0.079-0.075-0.125-0.105-0.013-0.009-0.027-0.017-0.041-0.025-0.040-0.021-0.081-0.039-0.124-0.052-0.012-0.003-0.022-0.008-0.034-0.011-0.047-0.011-0.095-0.018-0.145-0.018h-15.238c-0.695 0-1.261 0.566-1.261 1.261v29.635c0 0.695 0.566 1.261 1.261 1.261h20.807c0.696 0 1.261-0.566 1.261-1.261v-23.119c0-0.024-0.004-0.047-0.006-0.071zM12.183 29.671c-0.113-0.196-0.278-0.762-0.484-1.617-0.185-0.865-0.484-1.102-1.123-1.112h-0.474v2.729h-1.555v-6.849c0.505-0.083 1.256-0.144 2.091-0.144 1.030 0 1.751 0.154 2.245 0.546 0.412 0.329 0.639 0.813 0.639 1.452 0 0.886-0.628 1.493-1.226 1.71v0.031c0.484 0.196 0.752 0.659 0.927 1.298 0.217 0.783 0.433 1.689 0.566 1.957l-1.606 0zM19.466 24.047h-1.895v5.623h-1.576v-5.623h-1.865v-1.318h5.335v1.318zM24.544 24.016h-2.667v1.586h2.493v1.277h-2.493v2.791h-1.576v-6.942h4.243v1.287zM5.675 20.945v-20.151h14.607v6.452c0 0.348 0.282 0.631 0.631 0.631h5.569l0.001 13.068h-20.808zM10.813 23.841c-0.381 0-0.598 0.031-0.711 0.052v1.915h0.618c0.782 0 1.246-0.391 1.246-0.999-0-0.639-0.433-0.958-1.154-0.968zM18.968 6.741h-0.733v-1.059l-1.813-1.814h-7.522v12.798h2.546v2.874h9.335v-10.984l-1.813-1.814zM19.104 7.532l1.042 1.042h-1.042v-1.042zM18.236 15.452c0.003 0.054 0.003 0.109 0 0.163v-0.163zM16.558 4.658l1.042 1.042h-1.042v-1.042zM9.364 16.203v-11.873h6.731v1.833h1.678v10.041l-8.409-0zM20.319 19.077h-8.409v-2.411h6.326v-0.739h1.471v-0.631h-1.471v-1.418h1.471v-0.631h-1.471v-1.543h1.471v-0.631h-1.471v-3.869h0.405v1.833h1.678v10.040h0zM10.825 7.626h1.289l0.149 1.179h0.471l-0.515-3.73h-0.542l-1.932 3.73h0.487l0.592-1.179zM11.55 6.176c0.11-0.227 0.205-0.459 0.304-0.681h0.011c0.017 0.221 0.044 0.493 0.066 0.686l0.144 1.079h-1.085l0.559-1.085zM13.372 6.995h4.072v0.631h-4.072v-0.631zM13.372 8.597h4.072v0.631h-4.072v-0.631zM10.102 10.147h7.342v0.631h-7.342v-0.631zM10.102 11.671h3.165v0.631h-3.165v-0.631zM10.102 13.247h3.165v0.631h-3.165v-0.631zM10.102 14.857h7.257v0.631h-7.257v-0.631zM12.45 17.339h7.257v0.631h-7.257v-0.631zM15.835 13.745l-0.128-0.407c-1.064-2.867-1.777 0.328-1.777 0.328l-0.046 0.197h3.318c-0.893-1.747-1.366-0.118-1.366-0.118z"></path>
</svg>
