<!-- Generated by IcoMoon.io -->
<svg version="1.1" xmlns="http://www.w3.org/2000/svg" width="24" height="32" viewBox="0 0 24 32">
<title>ruble-sign</title>
<path d="M15.033 19.631c5.346 0 9.084-3.734 9.084-9.102s-3.738-8.986-9.084-8.986h-10.26c-0.416 0-0.754 0.338-0.754 0.754v12.978h-3.266c-0.416 0-0.754 0.338-0.754 0.754v2.849c0 0.416 0.338 0.754 0.754 0.754h3.266v2.010h-3.266c-0.416 0-0.754 0.338-0.754 0.754v2.512c0 0.416 0.338 0.754 0.754 0.754h3.266v3.266c0 0.416 0.338 0.754 0.754 0.754h3.678c0.416 0 0.754-0.338 0.754-0.754v-3.266h10.139c0.416 0 0.754-0.338 0.754-0.754v-2.512c0-0.416-0.338-0.754-0.754-0.754h-10.139v-2.010h5.828zM9.205 5.861h4.944c2.934 0 4.703 1.828 4.703 4.668 0 2.879-1.769 4.746-4.783 4.746h-4.864v-9.414z"></path>
</svg>
