<!-- Generated by IcoMoon.io -->
<svg version="1.1" xmlns="http://www.w3.org/2000/svg" width="32" height="32" viewBox="0 0 32 32">
<title>ruler-combined</title>
<path d="M10.049 17.621h-3.517c-0.278 0-0.503-0.225-0.503-0.503v-1.005c0-0.278 0.225-0.502 0.502-0.502h3.517v-4.020h-3.517c-0.278 0-0.503-0.225-0.503-0.502v-1.005c0-0.278 0.225-0.502 0.502-0.502h3.517v-4.020h-3.517c-0.278 0-0.503-0.225-0.503-0.503v-1.005c0-0.278 0.225-0.502 0.502-0.502h3.517v-2.010c0-1.11-0.9-2.010-2.010-2.010h-6.029c-1.11 0-2.010 0.9-2.010 2.010v28.137c0 0.174 0.057 0.329 0.099 0.49l9.95-9.95v-2.599zM30.147 21.641h-2.010v3.517c0 0.278-0.225 0.503-0.503 0.503h-1.005c-0.278 0-0.503-0.225-0.503-0.503v-3.517h-4.020v3.517c0 0.278-0.225 0.503-0.503 0.503h-1.005c-0.278 0-0.503-0.225-0.503-0.503v-3.517h-4.020v3.517c0 0.278-0.225 0.503-0.502 0.503h-1.005c-0.278 0-0.502-0.225-0.502-0.503v-3.517h-2.598l-9.95 9.95c0.161 0.041 0.317 0.099 0.49 0.099h28.137c1.11 0 2.010-0.9 2.010-2.010v-6.029c0-1.11-0.9-2.010-2.010-2.010z"></path>
</svg>
