<!-- Generated by IcoMoon.io -->
<svg version="1.1" xmlns="http://www.w3.org/2000/svg" width="40" height="32" viewBox="0 0 40 32">
<title>ruler</title>
<path d="M39.926 10.034l-4.999-8.51c-0.553-0.942-1.777-1.262-2.732-0.722l-4.334 2.456 3.75 6.387c0.138 0.239 0.057 0.534-0.182 0.672l-0.867 0.49c-0.239 0.138-0.546 0.057-0.685-0.182l-3.75-6.381-3.467 1.966 1.752 2.977c0.138 0.239 0.057 0.534-0.182 0.672l-0.867 0.49c-0.239 0.138-0.546 0.057-0.685-0.182l-1.752-2.971-3.467 1.966 3.756 6.387c0.138 0.232 0.057 0.534-0.182 0.672l-0.867 0.49c-0.239 0.138-0.546 0.057-0.685-0.182l-3.75-6.387-3.467 1.966 1.752 2.977c0.138 0.239 0.057 0.534-0.182 0.672l-0.867 0.49c-0.239 0.138-0.546 0.057-0.685-0.182l-1.752-2.983-3.467 1.966 3.75 6.387c0.138 0.232 0.057 0.534-0.182 0.672l-0.867 0.49c-0.239 0.138-0.546 0.057-0.685-0.182l-3.75-6.369-4.334 2.456c-0.955 0.546-1.288 1.746-0.735 2.688l4.999 8.517c0.553 0.942 1.777 1.262 2.732 0.722l31.202-17.705c0.955-0.54 1.281-1.746 0.729-2.688z"></path>
</svg>
