<!-- Generated by IcoMoon.io -->
<svg version="1.1" xmlns="http://www.w3.org/2000/svg" width="36" height="32" viewBox="0 0 36 32">
<title>ruler-horizontal</title>
<path d="M34.167 7.572h-3.015v5.527c0 0.278-0.225 0.502-0.503 0.502h-1.005c-0.278 0-0.503-0.225-0.503-0.502v-5.527h-4.020v5.527c0 0.278-0.225 0.502-0.503 0.502h-1.005c-0.278 0-0.503-0.225-0.503-0.502v-5.527h-4.020v5.527c0 0.278-0.225 0.502-0.503 0.502h-1.005c-0.278 0-0.503-0.225-0.503-0.502v-5.527h-4.020v5.527c0 0.278-0.225 0.502-0.502 0.502h-1.005c-0.278 0-0.502-0.225-0.502-0.502v-5.527h-4.020v5.527c0 0.278-0.225 0.502-0.503 0.502h-1.005c-0.278 0-0.503-0.225-0.503-0.502v-5.527h-3.015c-1.11 0-2.010 0.9-2.010 2.010v12.059c0 1.11 0.9 2.010 2.010 2.010h32.157c1.11 0 2.010-0.9 2.010-2.010v-12.059c0-1.11-0.9-2.010-2.010-2.010z"></path>
</svg>
