<!-- Generated by IcoMoon.io -->
<svg version="1.1" xmlns="http://www.w3.org/2000/svg" width="16" height="32" viewBox="0 0 16 32">
<title>ruler-vertical</title>
<path d="M10.551 25.66c-0.278 0-0.502-0.225-0.502-0.503v-1.005c0-0.278 0.225-0.503 0.502-0.503h5.527v-4.020h-5.527c-0.278 0-0.502-0.225-0.502-0.503v-1.005c0-0.278 0.225-0.503 0.502-0.503h5.527v-4.020h-5.527c-0.278 0-0.502-0.225-0.502-0.502v-1.005c0-0.278 0.225-0.502 0.502-0.502h5.527v-4.020h-5.527c-0.278 0-0.502-0.225-0.502-0.503v-1.005c0-0.278 0.225-0.503 0.502-0.503h5.527v-4.020c0-1.11-0.9-2.010-2.010-2.010h-12.059c-1.11 0-2.010 0.9-2.010 2.010v28.137c0 1.11 0.9 2.010 2.010 2.010h12.059c1.11 0 2.010-0.9 2.010-2.010v-4.020h-5.527z"></path>
</svg>
