<!-- Generated by IcoMoon.io -->
<svg version="1.1" xmlns="http://www.w3.org/2000/svg" width="32" height="32" viewBox="0 0 32 32">
<title>run-command</title>
<path d="M8.218 2.701c-0.831 0-1.539 0.621-1.648 1.446l-3.038 23.279c-0.061 0.476 0.084 0.955 0.401 1.314 0.316 0.357 0.771 0.565 1.249 0.565h22.153c0.831 0 1.539-0.621 1.648-1.446l3.038-23.279c0.061-0.476-0.084-0.955-0.401-1.312-0.316-0.361-0.771-0.567-1.249-0.567zM8.218 3.81h22.153c0.162 0 0.31 0.067 0.416 0.188s0.154 0.277 0.134 0.437l-3.038 23.279c-0.035 0.275-0.271 0.483-0.548 0.483h-22.153c-0.162 0-0.31-0.067-0.416-0.188-0.108-0.121-0.154-0.277-0.134-0.437l2.384-18.271c0.071 0.033 0.147 0.052 0.229 0.052h17.736c0.307 0 0.554-0.247 0.554-0.554s-0.247-0.554-0.554-0.554h-17.736c-0.035 0-0.063 0.013-0.095 0.017l0.52-3.969c0.035-0.275 0.271-0.483 0.548-0.483zM9.463 4.918c-0.307 0-0.554 0.247-0.554 0.554v1.109c0 0.307 0.247 0.554 0.554 0.554s0.554-0.247 0.554-0.554v-1.109c0-0.307-0.247-0.554-0.554-0.554zM12.234 4.918c-0.307 0-0.554 0.247-0.554 0.554v1.109c0 0.307 0.247 0.554 0.554 0.554s0.554-0.247 0.554-0.554v-1.109c0-0.307-0.247-0.554-0.554-0.554zM15.006 4.918c-0.307 0-0.554 0.247-0.554 0.554v1.109c0 0.307 0.247 0.554 0.554 0.554s0.554-0.247 0.554-0.554v-1.109c0-0.307-0.247-0.554-0.554-0.554zM17.777 4.918c-0.307 0-0.554 0.247-0.554 0.554v1.109c0 0.307 0.247 0.554 0.554 0.554s0.554-0.247 0.554-0.554v-1.109c0-0.307-0.247-0.554-0.554-0.554zM20.548 4.918c-0.307 0-0.554 0.247-0.554 0.554v1.109c0 0.307 0.247 0.554 0.554 0.554s0.554-0.247 0.554-0.554v-1.109c0-0.307-0.247-0.554-0.554-0.554zM23.319 4.918c-0.307 0-0.554 0.247-0.554 0.554v1.109c0 0.307 0.247 0.554 0.554 0.554s0.554-0.247 0.554-0.554v-1.109c0-0.307-0.247-0.554-0.554-0.554zM26.091 4.918c-0.307 0-0.554 0.247-0.554 0.554v1.109c0 0.307 0.247 0.554 0.554 0.554s0.554-0.247 0.554-0.554v-1.109c0-0.307-0.247-0.554-0.554-0.554zM28.862 4.918c-0.307 0-0.554 0.247-0.554 0.554v1.109c0 0.307 0.247 0.554 0.554 0.554s0.554-0.247 0.554-0.554v-1.109c0-0.307-0.247-0.554-0.554-0.554zM-2.73 8.244c-0.307 0-0.554 0.247-0.554 0.554s0.247 0.554 0.554 0.554h6.651c0.307 0 0.554-0.247 0.554-0.554s-0.247-0.554-0.554-0.554zM27.199 8.244c-0.307 0-0.554 0.247-0.554 0.554s0.247 0.554 0.554 0.554h2.217c0.307 0 0.554-0.247 0.554-0.554s-0.247-0.554-0.554-0.554zM10.045 11.569c-0.554 0-1.026 0.416-1.098 0.966l-0.578 4.432c-0.043 0.316 0.054 0.637 0.264 0.875 0.212 0.24 0.515 0.379 0.836 0.379h16.615c0.556 0 1.029-0.414 1.1-0.963l0.578-4.434c0.043-0.316-0.054-0.637-0.266-0.875-0.21-0.24-0.513-0.379-0.831-0.379zM10.045 12.678h16.619l-0.578 4.434h-16.619zM-2.73 14.895c-0.307 0-0.554 0.247-0.554 0.554s0.247 0.554 0.554 0.554h5.542c0.307 0 0.554-0.247 0.554-0.554s-0.247-0.554-0.554-0.554zM-2.73 21.546c-0.307 0-0.554 0.247-0.554 0.554s0.247 0.554 0.554 0.554h4.988c0.307 0 0.554-0.247 0.554-0.554s-0.247-0.554-0.554-0.554z"></path>
</svg>
