<!-- Generated by IcoMoon.io -->
<svg version="1.1" xmlns="http://www.w3.org/2000/svg" width="26" height="32" viewBox="0 0 26 32">
<title>running</title>
<path d="M17.083 5.562c1.665 0 3.015-1.35 3.015-3.015s-1.35-3.015-3.015-3.015-3.015 1.35-3.015 3.015 1.35 3.015 3.015 3.015zM7.14 19.472l-0.93 2.168h-4.201c-1.11 0-2.010 0.9-2.010 2.010s0.9 2.010 2.010 2.010h4.864c1.209 0 2.297-0.718 2.77-1.827l0.552-1.289-0.67-0.396c-1.088-0.642-1.888-1.593-2.386-2.676zM24.118 13.601h-2.765l-1.637-3.344c-0.785-1.605-2.226-2.778-3.88-3.199l-4.464-1.328c-1.777-0.427-3.628-0.035-5.077 1.077l-2.492 1.91c-0.881 0.675-1.048 1.936-0.372 2.817s1.937 1.046 2.818 0.372l2.493-1.91c0.482-0.37 1.095-0.502 1.587-0.386l0.923 0.275-2.353 5.489c-0.793 1.852-0.082 4.020 1.652 5.044l5.337 3.151-1.725 5.51c-0.332 1.059 0.258 2.186 1.317 2.518 0.2 0.063 0.403 0.093 0.602 0.093 0.855 0 1.647-0.551 1.917-1.41l1.987-6.347c0.371-1.305-0.182-2.706-1.359-3.416l-3.846-2.27 1.966-4.916 1.273 2.602c0.503 1.026 1.565 1.689 2.708 1.689h3.391c1.11 0 2.010-0.9 2.010-2.010s-0.9-2.009-2.010-2.009z"></path>
</svg>
