<!-- Generated by IcoMoon.io -->
<svg version="1.1" xmlns="http://www.w3.org/2000/svg" width="20" height="32" viewBox="0 0 20 32">
<title>rupee-sign</title>
<path d="M19.344 5.562c0.416 0 0.754-0.338 0.754-0.754v-2.512c0-0.416-0.338-0.754-0.754-0.754h-18.591c-0.416 0-0.754 0.338-0.754 0.754v2.81c0 0.416 0.338 0.754 0.754 0.754h5.356c1.715 0 3.031 0.625 3.829 1.712h-9.185c-0.416 0-0.754 0.338-0.754 0.754v2.512c0 0.416 0.338 0.754 0.754 0.754h9.971c-0.39 2.266-2.070 3.682-4.695 3.682h-5.276c-0.416 0-0.754 0.338-0.754 0.754v3.329c0 0.21 0.088 0.411 0.243 0.554l10.366 9.569c0.134 0.124 0.314 0.2 0.511 0.2h5.185c0.686 0 1.015-0.842 0.511-1.308l-9.476-8.747c4.805-0.147 8.237-3.354 8.687-8.033h3.317c0.416 0 0.754-0.338 0.754-0.754v-2.512c0-0.416-0.338-0.754-0.754-0.754h-3.686c-0.219-0.725-0.52-1.397-0.895-2.010h4.581z"></path>
</svg>
