<!-- Generated by IcoMoon.io -->
<svg version="1.1" xmlns="http://www.w3.org/2000/svg" width="31" height="32" viewBox="0 0 31 32">
<title>sad-cry1</title>
<path d="M15.576 0.035c-8.604 0-15.576 6.971-15.576 15.576 0 5.659 3.027 10.595 7.537 13.321v-11.311c0-0.553 0.452-1.005 1.005-1.005s1.005 0.452 1.005 1.005v12.354c1.853 0.779 3.894 1.212 6.029 1.212s4.177-0.433 6.029-1.212v-12.354c0-0.553 0.452-1.005 1.005-1.005s1.005 0.452 1.005 1.005v11.311c4.509-2.726 7.537-7.669 7.537-13.321 0-8.604-6.971-15.576-15.576-15.576zM11.462 13.633c-0.93-0.829-2.902-0.829-3.831 0l-0.597 0.534c-0.239 0.207-0.584 0.251-0.86 0.1s-0.433-0.465-0.383-0.779c0.251-1.583 2.148-2.644 3.762-2.644s3.511 1.061 3.762 2.644c0.050 0.314-0.107 0.628-0.383 0.779-0.364 0.195-0.703 0.044-0.86-0.1l-0.609-0.534zM15.576 25.66c-1.664 0-3.015-1.802-3.015-4.020s1.35-4.020 3.015-4.020 3.015 1.802 3.015 4.020-1.35 4.020-3.015 4.020zM24.984 14.261c-0.364 0.195-0.703 0.044-0.86-0.1l-0.597-0.534c-0.93-0.829-2.902-0.829-3.831 0l-0.603 0.54c-0.239 0.207-0.584 0.251-0.86 0.1s-0.433-0.465-0.383-0.779c0.251-1.583 2.148-2.644 3.762-2.644s3.511 1.061 3.762 2.644c0.038 0.308-0.113 0.622-0.389 0.773z"></path>
</svg>
