<!-- Generated by IcoMoon.io -->
<svg version="1.1" xmlns="http://www.w3.org/2000/svg" width="31" height="32" viewBox="0 0 31 32">
<title>sad-tear</title>
<path d="M15.576 0.035c-8.604 0-15.576 6.971-15.576 15.576s6.971 15.576 15.576 15.576 15.576-6.971 15.576-15.576-6.971-15.576-15.576-15.576zM15.576 28.173c-6.928 0-12.561-5.634-12.561-12.561s5.634-12.561 12.561-12.561 12.561 5.634 12.561 12.561-5.634 12.561-12.561 12.561zM16.078 18.626c-0.829 0-1.507 0.678-1.507 1.507s0.678 1.507 1.507 1.507c1.495 0 2.908 0.66 3.869 1.809 0.509 0.615 1.457 0.747 2.123 0.195 0.641-0.534 0.729-1.482 0.195-2.123-1.539-1.84-3.793-2.895-6.186-2.895zM10.551 14.606c1.112 0 2.010-0.898 2.010-2.010s-0.898-2.010-2.010-2.010-2.010 0.898-2.010 2.010 0.898 2.010 2.010 2.010zM20.6 10.587c-1.112 0-2.010 0.898-2.010 2.010s0.898 2.010 2.010 2.010 2.010-0.898 2.010-2.010-0.898-2.010-2.010-2.010zM10.2 16.792c-0.716 0.961-2.286 3.178-2.286 4.277 0 1.426 1.181 2.581 2.638 2.581s2.638-1.156 2.638-2.581c0-1.099-1.57-3.316-2.286-4.277-0.176-0.232-0.527-0.232-0.703 0z"></path>
</svg>
