<!-- Generated by IcoMoon.io -->
<svg version="1.1" xmlns="http://www.w3.org/2000/svg" width="31" height="32" viewBox="0 0 31 32">
<title>sad-tear1</title>
<path d="M15.576 0.035c-8.604 0-15.576 6.971-15.576 15.576s6.971 15.576 15.576 15.576 15.576-6.971 15.576-15.576-6.971-15.576-15.576-15.576zM20.6 10.587c1.112 0 2.010 0.898 2.010 2.010s-0.898 2.010-2.010 2.010-2.010-0.898-2.010-2.010 0.898-2.010 2.010-2.010zM9.546 25.66c-1.664 0-3.015-1.319-3.015-2.952 0-1.256 1.79-3.793 2.613-4.886 0.201-0.27 0.603-0.27 0.804 0 0.823 1.093 2.613 3.63 2.613 4.886 0 1.633-1.35 2.952-3.015 2.952zM10.551 14.606c-1.112 0-2.010-0.898-2.010-2.010s0.898-2.010 2.010-2.010 2.010 0.898 2.010 2.010-0.898 2.010-2.010 2.010zM21.241 24.291c-1.407-1.683-3.473-2.65-5.665-2.65-1.332 0-1.332-2.010 0-2.010 2.789 0 5.42 1.231 7.204 3.379 0.867 1.030-0.703 2.292-1.539 1.281z"></path>
</svg>
