<!-- Generated by IcoMoon.io -->
<svg version="1.1" xmlns="http://www.w3.org/2000/svg" width="31" height="32" viewBox="0 0 31 32">
<title>sad-cry</title>
<path d="M15.576 0.035c-8.604 0-15.576 6.971-15.576 15.576s6.971 15.576 15.576 15.576 15.576-6.971 15.576-15.576-6.971-15.576-15.576-15.576zM24.62 24.304v-7.185c0-0.829-0.678-1.507-1.507-1.507s-1.507 0.678-1.507 1.507v9.509c-1.79 0.98-3.844 1.545-6.029 1.545s-4.239-0.565-6.029-1.545v-9.509c0-0.829-0.678-1.507-1.507-1.507s-1.507 0.678-1.507 1.507v7.185c-2.173-2.261-3.517-5.32-3.517-8.692 0-6.928 5.634-12.561 12.561-12.561s12.561 5.634 12.561 12.561c0 3.373-1.344 6.438-3.517 8.692zM12.925 14.261c0.276-0.151 0.433-0.465 0.383-0.779-0.251-1.583-2.148-2.644-3.756-2.644s-3.511 1.061-3.756 2.644c-0.050 0.314 0.107 0.628 0.383 0.779s0.622 0.113 0.86-0.1l0.597-0.534c0.93-0.829 2.902-0.829 3.831 0l0.597 0.534c0.157 0.145 0.496 0.301 0.86 0.1zM21.605 10.838c-1.614 0-3.511 1.061-3.756 2.644-0.050 0.314 0.107 0.628 0.383 0.779 0.283 0.151 0.622 0.113 0.86-0.1l0.597-0.534c0.93-0.829 2.902-0.829 3.831 0l0.597 0.534c0.157 0.138 0.503 0.295 0.86 0.1 0.276-0.151 0.433-0.465 0.383-0.779-0.245-1.583-2.142-2.644-3.756-2.644zM15.576 16.616c-1.941 0-3.517 1.802-3.517 4.020s1.576 4.020 3.517 4.020 3.517-1.802 3.517-4.020-1.576-4.020-3.517-4.020z"></path>
</svg>
