<!-- Generated by IcoMoon.io -->
<svg version="1.1" xmlns="http://www.w3.org/2000/svg" width="32" height="32" viewBox="0 0 32 32">
<title>safari</title>
<path d="M14.879 15.662c0-0.572 0.415-1.112 1.024-1.112 0.559 0 1.093 0.402 1.093 1.011 0 0.572-0.402 1.112-1.011 1.112-0.565 0-1.105-0.421-1.105-1.011zM31.654 15.611c0 8.604-6.971 15.576-15.576 15.576s-15.576-6.971-15.576-15.576 6.971-15.576 15.576-15.576 15.576 6.971 15.576 15.576zM29.984 15.611c0-7.681-6.224-13.905-13.905-13.905s-13.905 6.224-13.905 13.905 6.224 13.905 13.905 13.905 13.905-6.224 13.905-13.905zM25.43 21.678c0 0.226 0.816 0.641 1.024 0.766-1.721 2.606-4.384 4.484-7.405 5.232l-0.276-1.162c-0.019-0.157-0.119-0.176-0.264-0.176-0.119 0-0.188 0.176-0.176 0.264l0.276 1.181c-0.835 0.176-1.683 0.264-2.537 0.264-2.28 0-4.522-0.641-6.469-1.828 0.107-0.176 0.766-1.13 0.766-1.269 0-0.119-0.107-0.226-0.226-0.226-0.245 0-0.766 1.043-0.923 1.25-2.625-1.74-4.522-4.434-5.251-7.512l1.2-0.264c0.138-0.038 0.176-0.138 0.176-0.264 0-0.119-0.176-0.188-0.276-0.176l-1.175 0.27c-0.157-0.798-0.245-1.602-0.245-2.418 0-2.33 0.66-4.622 1.897-6.588 0.176 0.107 1.011 0.678 1.149 0.678 0.119 0 0.226-0.088 0.226-0.207 0-0.245-0.923-0.71-1.13-0.854 1.771-2.588 4.466-4.453 7.524-5.144l0.264 1.162c0.038 0.138 0.138 0.176 0.264 0.176s0.188-0.176 0.176-0.276l-0.264-1.149c0.766-0.138 1.545-0.226 2.33-0.226 2.33 0 4.604 0.66 6.588 1.897-0.119 0.176-0.678 0.992-0.678 1.13 0 0.119 0.088 0.226 0.207 0.226 0.245 0 0.71-0.904 0.835-1.112 2.575 1.74 4.415 4.396 5.131 7.424l-0.973 0.207c-0.157 0.038-0.176 0.138-0.176 0.276 0 0.119 0.176 0.188 0.264 0.176l0.992-0.226c0.157 0.798 0.245 1.614 0.245 2.431 0 2.28-0.628 4.522-1.809 6.45-0.176-0.088-0.904-0.609-1.043-0.609-0.132 0-0.239 0.107-0.239 0.226zM23.345 6.467c-0.816 0.766-8.429 7.769-8.642 8.133l-6.067 10.080c0.798-0.747 8.429-7.788 8.623-8.121l6.086-10.093z"></path>
</svg>
