<!-- Generated by IcoMoon.io -->
<svg version="1.1" xmlns="http://www.w3.org/2000/svg" width="40" height="32" viewBox="0 0 40 32">
<title>sass</title>
<path d="M34.612 17.866c-1.407 0.006-2.625 0.345-3.643 0.848-0.371-0.747-0.754-1.401-0.816-1.89-0.075-0.572-0.157-0.911-0.069-1.589s0.484-1.639 0.477-1.708c-0.006-0.069-0.088-0.415-0.898-0.421s-1.507 0.157-1.589 0.371c-0.082 0.214-0.239 0.697-0.333 1.2-0.145 0.735-1.62 3.36-2.456 4.729-0.276-0.534-0.509-1.005-0.559-1.382-0.075-0.572-0.157-0.911-0.069-1.589s0.484-1.639 0.477-1.708c-0.006-0.069-0.088-0.415-0.898-0.421s-1.507 0.157-1.589 0.371c-0.082 0.214-0.17 0.716-0.333 1.2s-2.129 4.855-2.644 5.992c-0.264 0.578-0.49 1.043-0.653 1.357s-0.012 0.019-0.025 0.057c-0.138 0.27-0.22 0.421-0.22 0.421v0.006c-0.107 0.201-0.226 0.383-0.283 0.383-0.038 0-0.119-0.527 0.019-1.25 0.295-1.52 0.992-3.881 0.986-3.963-0.006-0.044 0.132-0.452-0.458-0.672-0.572-0.207-0.779 0.138-0.829 0.138s-0.088 0.126-0.088 0.126 0.634-2.663-1.218-2.663c-1.156 0-2.763 1.269-3.555 2.418-0.496 0.27-1.57 0.854-2.701 1.476-0.433 0.239-0.879 0.484-1.3 0.716-0.031-0.031-0.057-0.063-0.088-0.094-2.248-2.399-6.4-4.095-6.224-7.317 0.063-1.175 0.471-4.258 7.983-8.002 6.155-3.065 11.079-2.223 11.927-0.352 1.218 2.669-2.632 7.637-9.025 8.353-2.437 0.27-3.718-0.672-4.038-1.024-0.333-0.371-0.383-0.389-0.509-0.32-0.207 0.113-0.075 0.44 0 0.634 0.188 0.496 0.973 1.375 2.311 1.815 1.175 0.383 4.032 0.597 7.486-0.741 3.881-1.495 6.902-5.659 6.017-9.145-0.904-3.542-6.777-4.704-12.335-2.732-3.31 1.175-6.89 3.021-9.465 5.426-3.059 2.864-3.549 5.357-3.348 6.4 0.716 3.699 5.816 6.111 7.857 7.895-0.1 0.057-0.195 0.107-0.283 0.157-1.024 0.509-4.911 2.544-5.885 4.692-1.099 2.437 0.182 4.183 1.024 4.422 2.625 0.729 5.313-0.584 6.758-2.738s1.269-4.968 0.603-6.249c-0.006-0.019-0.019-0.031-0.025-0.050 0.264-0.157 0.534-0.314 0.804-0.471 0.521-0.308 1.030-0.59 1.476-0.835-0.251 0.678-0.433 1.495-0.527 2.676-0.113 1.382 0.458 3.172 1.2 3.875 0.327 0.308 0.722 0.314 0.967 0.314 0.867 0 1.256-0.716 1.69-1.57 0.534-1.043 1.005-2.255 1.005-2.255s-0.59 3.278 1.024 3.278c0.59 0 1.181-0.76 1.445-1.149v0.006s0.012-0.025 0.044-0.075c0.063-0.094 0.094-0.151 0.094-0.151v-0.019c0.239-0.408 0.76-1.344 1.545-2.889 1.017-1.997 1.991-4.491 1.991-4.491s0.088 0.609 0.389 1.62c0.176 0.597 0.546 1.25 0.842 1.884-0.239 0.327-0.383 0.515-0.383 0.515s0 0.006 0.006 0.012c-0.188 0.251-0.402 0.521-0.622 0.785-0.804 0.955-1.759 2.047-1.884 2.362-0.151 0.371-0.113 0.647 0.176 0.86 0.214 0.163 0.59 0.188 0.986 0.157 0.722-0.050 1.231-0.226 1.476-0.339 0.389-0.138 0.842-0.358 1.269-0.666 0.785-0.578 1.262-1.407 1.218-2.5-0.025-0.603-0.22-1.206-0.458-1.771 0.069-0.1 0.145-0.207 0.214-0.314 1.244-1.815 2.205-3.806 2.205-3.806s0.088 0.609 0.389 1.62c0.151 0.509 0.446 1.068 0.716 1.614-1.168 0.948-1.89 2.047-2.142 2.77-0.465 1.338-0.1 1.941 0.584 2.079 0.308 0.063 0.747-0.082 1.074-0.22 0.408-0.138 0.898-0.358 1.357-0.697 0.785-0.578 1.545-1.388 1.495-2.487-0.019-0.496-0.157-0.992-0.339-1.47 0.986-0.415 2.267-0.641 3.9-0.452 3.498 0.408 4.183 2.594 4.051 3.505-0.132 0.917-0.867 1.419-1.112 1.57s-0.32 0.207-0.301 0.32c0.031 0.163 0.145 0.157 0.352 0.119 0.289-0.050 1.834-0.741 1.903-2.431 0.1-2.135-1.953-4.484-5.59-4.465zM7.65 26.954c-1.156 1.262-2.776 1.74-3.473 1.338-0.747-0.433-0.452-2.292 0.973-3.636 0.867-0.816 1.985-1.57 2.726-2.035 0.17-0.1 0.415-0.251 0.716-0.433 0.050-0.031 0.075-0.044 0.075-0.044 0.057-0.038 0.119-0.069 0.182-0.107 0.521 1.909 0.019 3.593-1.2 4.918zM16.091 21.214c-0.402 0.986-1.25 3.498-1.765 3.366-0.44-0.113-0.71-2.029-0.088-3.913 0.314-0.948 0.98-2.079 1.375-2.519 0.634-0.71 1.332-0.936 1.495-0.653 0.22 0.371-0.766 3.103-1.018 3.718zM23.062 24.542c-0.17 0.088-0.327 0.145-0.402 0.1-0.057-0.031 0.069-0.151 0.069-0.151s0.873-0.936 1.218-1.363c0.201-0.251 0.433-0.546 0.685-0.873 0 0.031 0.006 0.063 0.006 0.1-0.006 1.124-1.087 1.884-1.576 2.186zM28.439 23.318c-0.126-0.088-0.107-0.383 0.314-1.3 0.163-0.358 0.54-0.961 1.193-1.539 0.075 0.239 0.119 0.465 0.119 0.678-0.006 1.413-1.018 1.941-1.627 2.16z"></path>
</svg>
