<!-- Generated by IcoMoon.io -->
<svg version="1.1" xmlns="http://www.w3.org/2000/svg" width="32" height="32" viewBox="0 0 32 32">
<title>satellite-dish</title>
<path d="M11.858 21.258l1.721-1.721c0.163 0.044 0.314 0.1 0.49 0.1 1.112 0 2.010-0.898 2.010-2.010s-0.898-2.010-2.010-2.010-2.010 0.898-2.010 2.010c0 0.176 0.057 0.327 0.1 0.49l-1.721 1.721-7.336-7.336c-0.458-0.458-1.262-0.383-1.57 0.188-2.625 4.886-1.878 11.098 2.242 15.218s10.338 4.867 15.218 2.242c0.578-0.308 0.653-1.112 0.188-1.57l-7.323-7.323zM13.126-0.467c-0.578-0.031-1.068 0.427-1.068 1.005v1.985c0 0.534 0.415 0.973 0.942 0.999 8.127 0.44 14.659 7.034 15.13 15.168 0.031 0.527 0.471 0.942 0.999 0.942h2.016c0.578 0 1.036-0.49 1.005-1.068-0.534-10.25-8.774-18.49-19.024-19.030zM13.145 5.562c-0.584-0.044-1.087 0.421-1.087 1.011v2.016c0 0.527 0.408 0.961 0.93 0.999 4.823 0.396 8.667 4.283 9.101 9.119 0.050 0.521 0.477 0.923 0.999 0.923h2.022c0.584 0 1.055-0.503 1.011-1.087-0.527-6.915-6.061-12.448-12.976-12.982z"></path>
</svg>
