<!-- Generated by IcoMoon.io -->
<svg version="1.1" xmlns="http://www.w3.org/2000/svg" width="32" height="32" viewBox="0 0 32 32">
<title>satellite</title>
<path d="M31.573 16.177l-5.043-5.050 3.002-3.008c0.823-0.823 0.823-2.16 0-2.983l-2.983-2.983c-0.823-0.823-2.16-0.823-2.983 0l-3.002 3.008-5.043-5.043c-0.396-0.389-0.904-0.584-1.419-0.584s-1.024 0.195-1.413 0.584l-6.073 6.073c-0.779 0.779-0.779 2.047 0 2.833l5.043 5.050-0.615 0.615c-3.373-1.526-7.298-1.426-10.583 0.339-0.534 0.289-0.603 1.030-0.176 1.457l6.752 6.752-1.118 1.118c-0.163-0.044-0.314-0.1-0.49-0.1-1.112 0-2.010 0.898-2.010 2.010s0.898 2.010 2.010 2.010 2.010-0.898 2.010-2.010c0-0.176-0.057-0.327-0.1-0.49l1.118-1.118 6.752 6.752c0.427 0.427 1.175 0.358 1.457-0.176 1.765-3.285 1.865-7.21 0.339-10.583l0.622-0.622 5.043 5.050c0.389 0.389 0.904 0.584 1.413 0.584s1.024-0.195 1.413-0.584l6.073-6.073c0.785-0.779 0.785-2.047 0.006-2.826zM9.465 7.604l4.635-4.635 4.327 4.327-4.635 4.635-4.327-4.327zM24.086 22.225l-4.327-4.327 4.635-4.635 4.327 4.327-4.635 4.635z"></path>
</svg>
