<!-- Generated by IcoMoon.io -->
<svg version="1.1" xmlns="http://www.w3.org/2000/svg" width="32" height="32" viewBox="0 0 32 32">
<title>sav-file-format</title>
<path d="M15.638 24.136h-0.020c-0.097 0.387-0.193 0.882-0.3 1.26l-0.387 1.385h1.444l-0.407-1.385c-0.116-0.388-0.232-0.872-0.329-1.26zM27.737 7.239c-0.002-0.148-0.049-0.293-0.15-0.408l-6.201-7.082c-0.001-0.002-0.003-0.002-0.005-0.004-0.037-0.041-0.079-0.075-0.125-0.105-0.013-0.009-0.027-0.017-0.041-0.025-0.040-0.021-0.081-0.039-0.125-0.052-0.012-0.004-0.022-0.008-0.033-0.011-0.047-0.011-0.096-0.018-0.145-0.018h-15.238c-0.695 0-1.261 0.566-1.261 1.261v29.635c0 0.695 0.566 1.261 1.261 1.261h20.807c0.696 0 1.261-0.566 1.261-1.261v-23.119c0-0.024-0.004-0.047-0.006-0.070zM9.564 29.658c-0.745 0-1.482-0.193-1.85-0.397l0.3-1.221c0.397 0.204 1.007 0.407 1.637 0.407 0.678 0 1.036-0.281 1.036-0.707 0-0.407-0.31-0.639-1.095-0.921-1.085-0.378-1.793-0.978-1.793-1.927 0-1.114 0.93-1.967 2.471-1.967 0.736 0 1.278 0.155 1.666 0.329l-0.329 1.191c-0.262-0.125-0.727-0.309-1.366-0.309s-0.95 0.29-0.95 0.63c0 0.416 0.368 0.6 1.211 0.92 1.153 0.426 1.696 1.027 1.696 1.948 0.001 1.094-0.842 2.024-2.635 2.024zM17.091 29.561l-0.504-1.676h-1.87l-0.465 1.676h-1.531l1.996-6.53h1.938l2.025 6.53h-1.588zM22.244 29.561h-1.724l-2.093-6.53h1.618l0.795 2.761c0.223 0.775 0.426 1.521 0.581 2.335h0.029c0.165-0.785 0.368-1.56 0.591-2.305l0.833-2.79h1.57l-2.199 6.53zM5.675 20.945v-20.151h14.607v6.452c0 0.348 0.282 0.631 0.631 0.631h5.569l0.001 13.068h-20.808zM12.835 15.451c-0.856-0.38-1.454-1.236-1.454-2.233 0-1.35 1.095-2.444 2.444-2.444 1.017 0 1.888 0.621 2.256 1.506 0.048-0.002 0.096-0.007 0.145-0.007h1.402c0.041-0.384 0.176-0.741 0.396-1.028 0.193-0.253 0.435-0.411 0.648-0.551 0.095-0.062 0.131-0.11 0.136-0.121 0.020-0.1-0.163-0.407-0.232-0.523l-0.046-0.078c-0.412-0.699-0.674-1.322-0.825-1.966-0.072-0.304-0.008-0.599 0.178-0.832 0.192-0.243 0.496-0.389 0.814-0.389 0.194 0 0.37 0.056 0.517 0.152v-2.106h-10.777v11.665h4.49c-0.065-0.263-0.103-0.536-0.103-0.82 0-0.075 0.006-0.15 0.011-0.224zM9.604 5.997h7.998v4.11h-7.998v-4.11zM13.881 6.553h2.833v2.833h-2.833v-2.833zM13.826 12.551c0.225 0 0.425 0.106 0.557 0.268 0.298-0.193 0.629-0.339 0.981-0.432-0.307-0.532-0.88-0.891-1.539-0.891-0.982 0-1.778 0.796-1.778 1.778 0 0.658 0.359 1.232 0.891 1.539 0.092-0.352 0.239-0.683 0.432-0.982-0.162-0.132-0.268-0.331-0.268-0.557 0-0.399 0.323-0.723 0.723-0.723zM22.043 12.903h-2.818l-0.54-0.006c-0.041-0.101-0.058-0.197-0.060-0.279-0.021-0.573 0.53-1.069 0.767-1.256 0.315-0.247 0.479-0.5 0.567-0.872 0.058-0.246-0.079-0.522-0.237-0.785l-0.144-0.239c-0.366-0.605-0.713-1.177-0.89-1.926-0.015-0.061-0.044-0.125-0.149-0.125-0.075 0-0.155 0.036-0.197 0.091-0.034 0.044-0.044 0.095-0.028 0.16 0.134 0.564 0.368 1.119 0.736 1.743l0.046 0.078c0.258 0.434 0.69 1.158-0.149 1.708-0.176 0.115-0.342 0.224-0.454 0.371-0.209 0.272-0.29 0.663-0.224 1.071 0.015 0.091 0.038 0.18 0.065 0.266h-2.266c-1.445 0-2.615 1.171-2.615 2.615s1.171 2.615 2.615 2.615c1.404 0 2.55-1.107 2.612-2.497h0.749c0.062 1.389 1.208 2.497 2.613 2.497 1.444 0 2.615-1.171 2.615-2.615s-1.171-2.615-2.615-2.615zM16.239 14.182c0.267-0.098 0.563 0.039 0.661 0.306s-0.039 0.563-0.306 0.661c-0.267 0.098-0.563-0.039-0.661-0.306s0.040-0.563 0.307-0.661zM14.668 15.307c-0.098-0.267 0.039-0.563 0.307-0.662s0.563 0.039 0.661 0.307c0.098 0.267-0.039 0.563-0.306 0.661s-0.563-0.039-0.662-0.306zM15.784 16.854c-0.267 0.098-0.563-0.039-0.662-0.307s0.039-0.563 0.306-0.661c0.267-0.098 0.563 0.039 0.662 0.306s-0.039 0.563-0.306 0.661zM17.049 16.39c-0.267 0.098-0.563-0.039-0.661-0.306s0.040-0.563 0.307-0.662c0.267-0.098 0.563 0.039 0.661 0.307s-0.040 0.563-0.306 0.661zM23.389 15.863h-0.903v0.903h-0.69v-0.903h-0.903v-0.69h0.903v-0.903h0.69v0.903h0.903v0.69z"></path>
</svg>
