<!-- Generated by IcoMoon.io -->
<svg version="1.1" xmlns="http://www.w3.org/2000/svg" width="28" height="32" viewBox="0 0 28 32">
<title>save1</title>
<path d="M27.254 7.694l-5.268-5.268c-0.546-0.546-1.299-0.883-2.132-0.883h-16.839c-1.665 0-3.015 1.35-3.015 3.015v22.108c0 1.665 1.35 3.015 3.015 3.015h22.108c1.665 0 3.015-1.35 3.015-3.015v-16.839c0-0.832-0.337-1.586-0.883-2.132v0zM14.069 25.66c-2.22 0-4.020-1.8-4.020-4.020s1.8-4.020 4.020-4.020 4.020 1.8 4.020 4.020c0 2.22-1.8 4.020-4.020 4.020zM20.098 6.535v6.313c0 0.416-0.338 0.754-0.754 0.754h-14.571c-0.416 0-0.754-0.338-0.754-0.754v-6.532c0-0.416 0.338-0.754 0.754-0.754h14.352c0.2 0 0.392 0.079 0.533 0.221l0.219 0.219c0.136 0.136 0.221 0.325 0.221 0.533 0 0 0 0 0 0v0z"></path>
</svg>
