<!-- Generated by IcoMoon.io -->
<svg version="1.1" xmlns="http://www.w3.org/2000/svg" width="28" height="32" viewBox="0 0 28 32">
<title>save</title>
<path d="M27.254 7.694l-5.268-5.268c-0.546-0.546-1.299-0.883-2.132-0.883h-16.839c-1.665 0-3.015 1.35-3.015 3.015v22.108c0 1.665 1.35 3.015 3.015 3.015h22.108c1.665 0 3.015-1.35 3.015-3.015v-16.839c0-0.832-0.337-1.586-0.883-2.132v0zM17.083 4.557v5.024h-8.039v-5.024h8.039zM24.746 26.665h-21.354c-0.208 0-0.377-0.169-0.377-0.377v0-21.354c0-0.208 0.169-0.377 0.377-0.377v0h2.638v6.532c0 0.832 0.675 1.507 1.507 1.507h11.054c0.832 0 1.507-0.675 1.507-1.507v-6.288l4.914 4.914c0.068 0.068 0.11 0.162 0.11 0.266 0 0 0 0 0 0v0 16.306c0 0.208-0.169 0.377-0.377 0.377v0zM14.069 14.104c-3.048 0-5.527 2.479-5.527 5.527s2.479 5.527 5.527 5.527 5.527-2.479 5.527-5.527-2.479-5.527-5.527-5.527zM14.069 22.143c-1.385 0-2.512-1.127-2.512-2.512s1.127-2.512 2.512-2.512 2.512 1.127 2.512 2.512-1.127 2.512-2.512 2.512z"></path>
</svg>
