<!-- Generated by IcoMoon.io -->
<svg version="1.1" xmlns="http://www.w3.org/2000/svg" width="28" height="32" viewBox="0 0 28 32">
<title>schlix</title>
<path d="M22.014 9.438l-3.404-2.895 4.61-2.449 4.918 2.776-6.124 2.569zM12.059 7.202l2.87-1.771 2.179 2.173-3.479 1.821-1.57-2.223zM7.97 7.616l2.003-1.388 1.080 1.784-2.305 1.413-0.779-1.809zM6.507 13.156l-0.553-2.186 1.859-1.149 0.823 2.217-2.129 1.118zM5.175 7.899l1.501-1.137 0.559 1.507-1.677 1.149-0.383-1.52zM3.706 12.502l-0.226-1.784 1.401-0.973 0.383 1.803-1.558 0.955zM1.784 13.545l1.306-0.804 0.207 2.098-1.438 0.754-0.075-2.047zM0.088 16.365l1.206-0.641 0.025 2.399-1.319 0.553 0.088-2.311zM3.8 20.089l-1.777 0.521-0.1-2.939 1.576-0.672 0.301 3.090zM6.218 16.064l-1.953 0.816-0.327-2.563 1.721-0.904 0.559 2.65zM7.738 23.211l-2.613 0.371-0.509-3.988 2.211-0.678 0.911 4.296zM9.528 14.424l1.332 3.586-2.902 0.854-0.86-3.398 2.431-1.043zM14.91 28.901l-4.453-0.207-1.526-6.017 3.467-0.54 2.512 6.764zM9.578 11.334l2.65-1.407 1.759 2.883-3.191 1.338-1.218-2.814zM12.153 17.295l3.85-1.175 3.316 5.439-5.012 0.71-2.154-4.974zM15.381 11.918l4.227-1.809 4.114 4.107-5.565 1.645-2.776-3.944z"></path>
</svg>
