<!-- Generated by IcoMoon.io -->
<svg version="1.1" xmlns="http://www.w3.org/2000/svg" width="40" height="32" viewBox="0 0 40 32">
<title>school1</title>
<path d="M0 13.602v17.083c0 0.555 0.45 1.005 1.005 1.005h5.024v-20.098h-4.020c-1.11 0-2.010 0.9-2.010 2.010zM22.61 10.587h-1.507v-2.512c0-0.278-0.225-0.502-0.503-0.502h-1.005c-0.278 0-0.503 0.225-0.503 0.502v4.020c0 0.278 0.225 0.502 0.503 0.502h3.015c0.278 0 0.503-0.225 0.503-0.502v-1.005c0-0.278-0.225-0.502-0.503-0.502zM31.262 6.57l-10.049-6.7c-0.313-0.211-0.699-0.337-1.115-0.337s-0.802 0.126-1.122 0.342l0.007-0.005-10.049 6.7c-0.543 0.365-0.895 0.978-0.895 1.672v23.448h8.039v-9.044c0-0.555 0.45-1.005 1.005-1.005h6.029c0.555 0 1.005 0.45 1.005 1.005v9.044h8.039v-23.447c0-0.672-0.336-1.3-0.895-1.673zM20.098 15.611c-2.775 0-5.024-2.25-5.024-5.024s2.25-5.024 5.024-5.024 5.024 2.25 5.024 5.024-2.25 5.024-5.024 5.024zM38.186 11.592h-4.020v20.098h5.024c0.555 0 1.005-0.45 1.005-1.005v-17.083c0-1.11-0.9-2.010-2.010-2.010z"></path>
</svg>
