<!-- Generated by IcoMoon.io -->
<svg version="1.1" xmlns="http://www.w3.org/2000/svg" width="32" height="32" viewBox="0 0 32 32">
<title>school</title>
<path d="M16 5.31c-0.069 0-0.133 0.020-0.197 0.039l-15.096 5.032c-0.256 0.084-0.432 0.319-0.432 0.59s0.177 0.506 0.432 0.59l3.459 1.179c-0.034 0.044-0.084 0.074-0.118 0.118-0.752 0.953-1.14 2.265-1.297 4.167-0.565 0.251-0.943 0.835-0.943 1.494s0.378 1.243 0.943 1.494c-0.501 4.26-3.027 5.69-3.027 6.054 0 0.187 1.966 1.258 2.437 1.258 0.727 0 2.477-1.219 2.477-3.892 0-1.597-0.162-2.771-0.314-3.617 0.418-0.29 0.708-0.747 0.708-1.297 0-0.58-0.329-1.052-0.786-1.337 0.143-1.73 0.472-2.732 0.983-3.381 0.59-0.752 1.548-1.209 2.988-1.808 0.069-0.029 0.177-0.079 0.275-0.118 0.020-0.005 0.020-0.034 0.039-0.039 0.251-0.098 0.511-0.197 0.708-0.275 0.943-0.388 1.72-0.663 2.437-0.943 0.216-0.084 0.349-0.157 0.55-0.236 0.649-0.251 1.115-0.423 1.572-0.59 0.172-0.064 0.28-0.103 0.432-0.157 1.037-0.373 1.479-0.506 1.494-0.511 0.388-0.133 0.811 0.074 0.943 0.472 0.133 0.393-0.074 0.811-0.472 0.943-0.029 0.010-1.774 0.536-6.369 2.437-0.295 0.123-0.595 0.206-0.865 0.315-0.545 0.216-0.998 0.418-1.376 0.59l8.216 2.713c0.064 0.020 0.128 0.039 0.197 0.039s0.133-0.020 0.197-0.039l15.096-5.032c0.256-0.084 0.432-0.319 0.432-0.59s-0.177-0.506-0.432-0.59l-15.096-5.032c-0.064-0.020-0.128-0.039-0.197-0.039zM26.064 15.060l-9.474 3.145c-0.197 0.064-0.388 0.079-0.59 0.079s-0.393-0.015-0.59-0.079l-9.16-3.066c-0.167 0.432-0.236 0.998-0.236 1.808 0.599 0.344 1.179 1.042 1.179 2.241 0 0.737-0.393 1.263-0.708 1.612 1.356 1.577 5.101 2.713 9.514 2.713 5.558 0 10.064-1.794 10.064-4.010z"></path>
</svg>
