<!-- Generated by IcoMoon.io -->
<svg version="1.1" xmlns="http://www.w3.org/2000/svg" width="24" height="32" viewBox="0 0 24 32">
<title>scribd</title>
<path d="M2.657 15.404c-1.011-1.193-1.551-2.883-1.558-5.018 0-6.306 4.723-9.616 10.501-9.616 6.193-0.1 9.848 3.078 11.575 4.434l-3.172 4.528-2.343-1.545 1.69-2.424c-2.292-1.507-4.987-2.292-7.725-2.248-3.184-0.050-7.015 1.708-7.015 4.786 0 1.175 0.703 1.3 1.796 0.98 1.463-0.333 2.632 0.038 3.505 0.879 1.658 1.526 1.457 4.246-0.044 5.772-1.834 1.853-5.351 1.715-7.21-0.527zM22.61 15.775c-0.973-1.181-2.443-1.847-3.969-1.796-2.393-0.126-4.465 1.759-4.428 4.221-0.044 1.055 0.377 2.073 1.156 2.782 0.886 0.873 2.073 1.237 3.536 0.904 1.093-0.32 1.796-0.195 1.796 0.98 0 0.27-0.031 0.534-0.088 0.798-1.049 2.569-3.737 4.045-7.625 4.045-3.26 0.012-6.431-1.030-9.050-2.971l2.117-2.475-2.236-1.721-3.819 4.509 0.967 0.867c3.297 2.939 7.562 4.553 11.977 4.535 3.228 0 5.929-0.66 8.391-2.77 3.586-3.228 3.404-9.371 1.275-11.908z"></path>
</svg>
