<!-- Generated by IcoMoon.io -->
<svg version="1.1" xmlns="http://www.w3.org/2000/svg" width="40" height="32" viewBox="0 0 40 32">
<title>scroll</title>
<path d="M3.015-0.467c-1.663 0-3.015 1.352-3.015 3.015v4.020c0 0.555 0.45 1.005 1.005 1.005h5.024v-5.024c0-1.663-1.352-3.015-3.015-3.015zM16.078 25.445v-3.804h18.088v-16.078c0-3.325-2.704-6.029-6.029-6.029h-21.129c0.638 0.842 1.031 1.879 1.031 3.015v23.113c0 2.441 2.176 4.374 4.695 3.964 1.977-0.322 3.344-2.177 3.344-4.18zM18.088 23.651v2.010c0 3.324-2.704 6.029-6.029 6.029h21.103c3.885 0 7.034-3.149 7.034-7.034 0-0.555-0.45-1.005-1.005-1.005h-21.103z"></path>
</svg>
