<!-- Generated by IcoMoon.io -->
<svg version="1.1" xmlns="http://www.w3.org/2000/svg" width="32" height="32" viewBox="0 0 32 32">
<title>sdf-file-format</title>
<path d="M15.68 23.577c-0.369 0-0.608 0.033-0.749 0.065v4.787c0.141 0.032 0.369 0.032 0.575 0.032 1.499 0.011 2.475-0.814 2.475-2.561 0.011-1.52-0.879-2.323-2.302-2.323zM27.737 7.239c-0.002-0.148-0.049-0.293-0.15-0.408l-6.2-7.082c-0.001-0.002-0.003-0.002-0.005-0.004-0.037-0.041-0.079-0.075-0.125-0.105-0.013-0.009-0.027-0.017-0.041-0.025-0.040-0.022-0.081-0.039-0.124-0.052-0.012-0.004-0.022-0.008-0.034-0.011-0.047-0.011-0.095-0.018-0.145-0.018h-15.238c-0.695 0-1.261 0.566-1.261 1.261v29.635c0 0.695 0.566 1.261 1.261 1.261h20.807c0.696 0 1.261-0.566 1.261-1.261v-23.119c0-0.024-0.004-0.047-0.006-0.070zM9.199 29.786c-0.836 0-1.661-0.217-2.074-0.445l0.336-1.368c0.445 0.228 1.129 0.456 1.834 0.456 0.76 0 1.161-0.315 1.161-0.793 0-0.456-0.347-0.716-1.226-1.031-1.216-0.423-2.008-1.096-2.008-2.16 0-1.249 1.043-2.203 2.768-2.203 0.825 0 1.433 0.174 1.867 0.369l-0.368 1.336c-0.293-0.141-0.814-0.348-1.531-0.348s-1.064 0.326-1.064 0.706c0 0.467 0.413 0.673 1.357 1.031 1.291 0.478 1.899 1.15 1.899 2.181 0 1.227-0.945 2.269-2.952 2.269zM18.524 28.809c-0.771 0.64-1.943 0.944-3.376 0.944-0.857 0-1.465-0.054-1.878-0.108v-7.186c0.607-0.098 1.4-0.153 2.236-0.153 1.389 0 2.291 0.25 2.996 0.782 0.76 0.565 1.237 1.465 1.237 2.757-0 1.4-0.51 2.367-1.216 2.964zM25.3 23.718h-2.812v1.671h2.627v1.346h-2.627v2.942h-1.66v-7.317h4.472v1.357zM5.675 20.945v-20.151h14.607v6.452c0 0.348 0.282 0.631 0.631 0.631h5.569l0.001 13.068h-20.808zM14.323 6.638l0.236-4.295h-0.546l0.236 4.295zM11.033 12.128l-3.205 2.871 0.386 0.386 2.87-3.205zM16.843 15.384l-0.236 4.296h0.546l-0.237-4.295zM23.923 15.715l-1.698-1.122v-2.961l-2.594-1.497v-2.932l-2.752-1.588-2.594 1.497-2.594-1.497-2.588 1.494-1.687-1.115-0.174 0.263 1.698 1.122v3.002l2.594 1.498v2.931l0.016 0.009-1.297 1.419 0.233 0.212 1.344-1.47 2.456 1.418 2.594-1.498 2.594 1.498 2.621-1.513 1.654 1.093 0.173-0.263zM19.316 7.386v2.749l-2.436 1.406-2.436-1.406v-2.749l2.436-1.407 2.436 1.407zM9.256 7.386l2.436-1.407 2.436 1.407v2.749l-2.492 1.438-2.381-1.375v-2.813h-0zM11.85 14.627v-2.749l2.436-1.406 2.436 1.406v2.749l-2.436 1.407-2.436-1.407zM21.91 14.627l-2.436 1.407-2.436-1.407v-2.749l2.491-1.438 2.381 1.375v2.813h0z"></path>
</svg>
