<!-- Generated by IcoMoon.io -->
<svg version="1.1" xmlns="http://www.w3.org/2000/svg" width="29" height="32" viewBox="0 0 29 32">
<title>searchengin</title>
<path d="M13.855 7.717l-4.221 1.771v-7.242l-3.435 11.952 3.435-1.52v8.184l4.221-13.145zM8.63 1.643l-0.082 0.295-0.955 3.322c-2.531 0.973-4.327 3.429-4.327 6.299 0 3.285 2.154 6.023 5.238 6.626v3.366c-4.893-0.66-8.504-4.911-8.504-9.986 0-5.056 3.756-9.245 8.63-9.923zM28.187 29.73c-0.703 0.703-1.451 0.773-1.796 0.66-0.339-0.113-1.702-1.25-3.793-2.789-2.091-1.545-2.11-2.242-2.701-3.561-0.59-1.313-1.909-2.676-3.611-3.291l-0.609-0.923c-1.551 1.061-3.329 1.69-5.106 1.802l0.132-0.415 0.999-3.109c2.92-0.747 5.081-3.392 5.081-6.544 0-3.423-2.412-6.412-6.029-6.727v-3.272c5.225 0.32 9.346 4.679 9.346 10.005 0 2.11-0.703 4.064-1.821 5.678l0.917 0.603c0.615 1.702 1.978 3.015 3.291 3.605s2.022 0.609 3.567 2.701c1.545 2.085 2.682 3.448 2.795 3.787s0.044 1.087-0.66 1.79zM27.566 28.606c0-0.276-0.226-0.503-0.503-0.503s-0.503 0.226-0.503 0.503 0.226 0.503 0.503 0.503 0.503-0.226 0.503-0.503z"></path>
</svg>
