<!-- Generated by IcoMoon.io -->
<svg version="1.1" xmlns="http://www.w3.org/2000/svg" width="32" height="32" viewBox="0 0 32 32">
<title>search</title>
<path d="M31.717 27.337l-6.262-6.262c-0.283-0.283-0.666-0.44-1.068-0.44h-1.024c1.733-2.217 2.763-5.006 2.763-8.039 0-7.216-5.847-13.064-13.064-13.064s-13.064 5.847-13.064 13.064 5.847 13.064 13.064 13.064c3.034 0 5.822-1.030 8.039-2.763v1.024c0 0.402 0.157 0.785 0.44 1.068l6.262 6.262c0.59 0.59 1.545 0.59 2.129 0l1.777-1.777c0.59-0.59 0.59-1.545 0.006-2.135zM13.064 20.636c-4.44 0-8.039-3.593-8.039-8.039 0-4.44 3.592-8.039 8.039-8.039 4.44 0 8.039 3.592 8.039 8.039 0 4.44-3.593 8.039-8.039 8.039z"></path>
</svg>
