<!-- Generated by IcoMoon.io -->
<svg version="1.1" xmlns="http://www.w3.org/2000/svg" width="32" height="32" viewBox="0 0 32 32">
<title>search-minus</title>
<path d="M19.093 11.592v2.010c0 0.415-0.339 0.754-0.754 0.754h-10.551c-0.415 0-0.754-0.339-0.754-0.754v-2.010c0-0.415 0.339-0.754 0.754-0.754h10.551c0.415 0 0.754 0.339 0.754 0.754zM31.717 29.473l-1.777 1.777c-0.59 0.59-1.545 0.59-2.129 0l-6.268-6.262c-0.283-0.283-0.44-0.666-0.44-1.068v-1.024c-2.217 1.733-5.006 2.763-8.039 2.763-7.216 0-13.064-5.847-13.064-13.064s5.847-13.064 13.064-13.064 13.064 5.847 13.064 13.064c0 3.034-1.030 5.822-2.763 8.039h1.024c0.402 0 0.785 0.157 1.068 0.44l6.262 6.262c0.584 0.59 0.584 1.545 0 2.135zM21.605 12.597c0-4.723-3.819-8.542-8.542-8.542s-8.542 3.819-8.542 8.542 3.819 8.542 8.542 8.542 8.542-3.819 8.542-8.542z"></path>
</svg>
