<!-- Generated by IcoMoon.io -->
<svg version="1.1" xmlns="http://www.w3.org/2000/svg" width="32" height="32" viewBox="0 0 32 32">
<title>search-2</title>
<path d="M11.211-0.091c-6.173 0-11.211 5.038-11.211 11.211s5.038 11.211 11.211 11.211c2.8 0 5.357-1.044 7.326-2.753l0.682 0.682v2.071l9.609 9.609 3.203-3.203-9.609-9.609h-2.071l-0.682-0.682c1.709-1.969 2.753-4.526 2.753-7.326 0-6.173-5.038-11.211-11.211-11.211zM11.211 3.112c4.442 0 8.008 3.566 8.008 8.008s-3.566 8.008-8.008 8.008c-4.442 0-8.008-3.566-8.008-8.008s3.566-8.008 8.008-8.008z"></path>
</svg>
