<!-- Generated by IcoMoon.io -->
<svg version="1.1" xmlns="http://www.w3.org/2000/svg" width="32" height="32" viewBox="0 0 32 32">
<title>search-dollar</title>
<path d="M31.72 27.335l-6.262-6.261c-0.283-0.283-0.666-0.44-1.068-0.44h-1.024c1.733-2.217 2.763-5.005 2.763-8.039 0-7.216-5.848-13.062-13.064-13.062s-13.065 5.847-13.065 13.062 5.848 13.062 13.065 13.062c3.034 0 5.823-1.030 8.040-2.763v1.024c0 0.402 0.157 0.785 0.44 1.068l6.262 6.261c0.59 0.59 1.545 0.59 2.129 0l1.777-1.777c0.59-0.59 0.59-1.544 0.006-2.135zM13.065 21.638c-4.996 0-9.044-4.041-9.044-9.043 0-4.995 4.042-9.043 9.044-9.043 4.996 0 9.044 4.041 9.044 9.043 0 4.995-4.042 9.043-9.044 9.043zM14.768 12.058l-2.827-0.848c-0.324-0.097-0.551-0.426-0.551-0.8 0-0.457 0.333-0.828 0.741-0.828h1.765c0.286 0 0.563 0.081 0.805 0.234 0.203 0.127 0.462 0.12 0.636-0.046l0.738-0.704c0.222-0.212 0.209-0.578-0.036-0.762-0.572-0.429-1.261-0.676-1.97-0.713v-1.023c0-0.278-0.225-0.502-0.502-0.502h-1.005c-0.278 0-0.502 0.225-0.502 0.502v1.013c-1.484 0.040-2.681 1.291-2.681 2.831 0 1.254 0.816 2.375 1.983 2.725l2.827 0.848c0.324 0.097 0.551 0.426 0.551 0.8 0 0.457-0.333 0.828-0.741 0.828h-1.765c-0.286 0-0.563-0.081-0.805-0.234-0.203-0.127-0.462-0.12-0.636 0.046l-0.738 0.704c-0.222 0.212-0.209 0.578 0.036 0.762 0.572 0.429 1.261 0.676 1.97 0.713v1.023c0 0.278 0.225 0.503 0.502 0.503h1.005c0.278 0 0.502-0.225 0.502-0.503v-1.012c1.484-0.040 2.681-1.29 2.681-2.831 0-1.254-0.816-2.375-1.984-2.725z"></path>
</svg>
