<!-- Generated by IcoMoon.io -->
<svg version="1.1" xmlns="http://www.w3.org/2000/svg" width="32" height="32" viewBox="0 0 32 32">
<title>search-location</title>
<path d="M31.72 27.335l-6.262-6.261c-0.283-0.283-0.666-0.44-1.068-0.44h-1.024c1.733-2.217 2.763-5.005 2.763-8.039 0-7.216-5.848-13.062-13.064-13.062s-13.065 5.847-13.065 13.062 5.848 13.062 13.065 13.062c3.034 0 5.823-1.030 8.040-2.763v1.024c0 0.402 0.157 0.785 0.44 1.068l6.262 6.261c0.59 0.59 1.545 0.59 2.129 0l1.777-1.777c0.59-0.59 0.59-1.544 0.006-2.135zM13.065 21.638c-4.996 0-9.044-4.041-9.044-9.043 0-4.995 4.042-9.043 9.044-9.043 4.996 0 9.044 4.041 9.044 9.043 0 4.995-4.042 9.043-9.044 9.043zM13.066 6.567c-2.561 0-4.638 2.076-4.638 4.637 0 2.070 3.031 5.844 4.192 7.214 0.107 0.128 0.267 0.208 0.445 0.208s0.338-0.081 0.445-0.207l0.001-0.001c1.161-1.37 4.192-5.143 4.192-7.214 0-2.561-2.076-4.637-4.638-4.637zM13.066 12.597c-0.833 0-1.507-0.675-1.507-1.507s0.675-1.507 1.507-1.507 1.507 0.675 1.507 1.507c0 0.832-0.675 1.507-1.507 1.507z"></path>
</svg>
