<!-- Generated by IcoMoon.io -->
<svg version="1.1" xmlns="http://www.w3.org/2000/svg" width="32" height="32" viewBox="0 0 32 32">
<title>seat-belt</title>
<path d="M11.805 5.529l-5.333-5.333c-0.26-0.26-0.683-0.26-0.943 0s-0.26 0.683 0 0.943l4.863 4.861-4.391 4.391-4.863-4.861c-0.26-0.26-0.683-0.26-0.943 0s-0.26 0.683 0 0.943l5.333 5.333c0.131 0.129 0.301 0.195 0.472 0.195s0.341-0.065 0.471-0.195l5.333-5.333c0.26-0.26 0.26-0.683 0-0.943zM19.139 14.194l-4-4c-0.26-0.26-0.683-0.26-0.943 0s-0.26 0.683 0 0.943l-3.057 3.057c-0.26-0.26-0.683-0.26-0.943 0s-0.26 0.683 0 0.943l4 4c0.129 0.131 0.3 0.196 0.471 0.196s0.341-0.065 0.472-0.195l4-4c0.26-0.261 0.26-0.683 0-0.944zM16.195 7.251l-2.115-2.115c-0.755-0.755-2.073-0.755-2.828 0l-6.077 6.079c-0.379 0.379-0.588 0.881-0.587 1.416 0 0.532 0.208 1.033 0.585 1.411 0.632 0.631 1.451 1.472 2.076 2.116 0.38 0.392 0.888 0.608 1.433 0.608 0.533 0 1.037-0.208 1.416-0.587l6.097-6.097c0.377-0.38 0.585-0.883 0.585-1.416s-0.208-1.036-0.587-1.415zM13.139 9.138l-4 4c-0.131 0.129-0.301 0.195-0.472 0.195s-0.341-0.065-0.472-0.195c-0.26-0.26-0.26-0.683 0-0.943l4-4c0.26-0.26 0.683-0.26 0.943 0s0.261 0.681 0.001 0.943zM31.805 25.529l-4-4c-0.26-0.26-0.683-0.26-0.943 0l-5.333 5.333c-0.26 0.26-0.26 0.683 0 0.943l4 4c0.131 0.129 0.301 0.195 0.472 0.195s0.341-0.065 0.471-0.196c0.26-0.26 0.26-0.683 0-0.943l-3.528-3.528 4.391-4.391 3.528 3.529c0.26 0.26 0.683 0.26 0.943 0s0.26-0.683-0-0.943zM27.954 21.753c-0.039-0.099-0.1-0.184-0.175-0.251-0.228-0.295-1.297-1.944-3.665-5.765-0.648-1.045-2.236-1.225-3.109-0.352l-5.633 5.633c-0.431 0.431-0.64 1.025-0.573 1.632s0.4 1.141 0.915 1.471l5.931 3.775c0.109 0.071 0.233 0.104 0.357 0.104 0.172 0 0.343-0.067 0.472-0.195l5.333-5.333c0.188-0.189 0.247-0.471 0.148-0.719zM23.806 19.805l-4 4c-0.131 0.129-0.301 0.195-0.472 0.195s-0.341-0.065-0.472-0.195c-0.26-0.26-0.26-0.683 0-0.943l4-4c0.26-0.26 0.683-0.26 0.943 0s0.261 0.681 0.001 0.943zM19.334 6.666c-0.368 0-0.667 0.299-0.667 0.667v1.333c0 0.368 0.299 0.667 0.667 0.667s0.667-0.299 0.667-0.667v-1.333c-0-0.368-0.299-0.667-0.667-0.667zM24.668 11.999h-1.333c-0.368 0-0.667 0.299-0.667 0.667s0.299 0.667 0.667 0.667h1.333c0.368 0 0.667-0.299 0.667-0.667s-0.299-0.667-0.667-0.667zM23.805 8.195c-0.26-0.26-0.683-0.26-0.943 0l-1.333 1.333c-0.26 0.26-0.26 0.683 0 0.943 0.131 0.129 0.301 0.195 0.472 0.195s0.341-0.065 0.471-0.195l1.333-1.333c0.26-0.26 0.26-0.683 0-0.943zM12.667 22.666c-0.368 0-0.667 0.299-0.667 0.667v1.333c0 0.368 0.299 0.667 0.667 0.667s0.667-0.299 0.667-0.667v-1.333c0-0.368-0.299-0.667-0.667-0.667zM8.667 18.666h-1.333c-0.368 0-0.667 0.299-0.667 0.667s0.299 0.667 0.667 0.667h1.333c0.368 0 0.667-0.299 0.667-0.667s-0.299-0.667-0.667-0.667zM10.471 21.529c-0.26-0.26-0.683-0.26-0.943 0l-1.333 1.333c-0.26 0.26-0.26 0.683 0 0.943 0.131 0.129 0.301 0.195 0.472 0.195s0.341-0.065 0.471-0.195l1.333-1.333c0.26-0.26 0.26-0.683 0-0.943z"></path>
</svg>
