<!-- Generated by IcoMoon.io -->
<svg version="1.1" xmlns="http://www.w3.org/2000/svg" width="28" height="32" viewBox="0 0 28 32">
<title>sellcast</title>
<path d="M22.196 1.543h-16.248c-3.272 0-5.948 2.676-5.948 5.941v16.248c0 3.272 2.676 5.948 5.948 5.948h16.248c3.272 0 5.948-2.676 5.948-5.941v-16.254c0-3.266-2.676-5.941-5.948-5.941zM19.055 21.415c-1.752 3.027-5.646 4.076-8.68 2.336-1.438 2.5-3.448 0.54-2.657-0.829l0.986-1.708c0.371-0.647 1.206-0.873 1.853-0.496 1.168 0.678-0.006-0.006 1.162 0.672 1.733 0.999 3.982 0.396 4.987-1.338 0.999-1.733 0.396-3.982-1.338-4.987-1.118-0.641-0.038-0.025-1.168-0.666-1.545-0.892-0.214-3.26 1.357-2.355 1.168 0.678-0.006-0.006 1.162 0.672 3.040 1.759 4.089 5.671 2.336 8.699zM20.425 8.301c-1.068 1.853-1.024 1.809-1.193 1.978-0.408 0.408-1.024 0.546-1.664 0.226-1.168-0.678 0.006 0.006-1.162-0.672-1.733-0.999-3.982-0.396-4.987 1.338s-0.396 3.982 1.338 4.987c0 0 1.162 0.666 1.168 0.666 1.545 0.892 0.214 3.26-1.357 2.355-1.168-0.678 0.006 0.006-1.162-0.672-3.027-1.746-4.076-5.659-2.33-8.692 1.752-3.027 5.646-4.076 8.68-2.336l0.301-0.527c0.898-1.564 3.266-0.207 2.368 1.35z"></path>
</svg>
