<!-- Generated by IcoMoon.io -->
<svg version="1.1" xmlns="http://www.w3.org/2000/svg" width="40" height="32" viewBox="0 0 40 32">
<title>sellsy</title>
<path d="M33.897 14.437c0.192-0.77 0.269-1.559 0.269-2.348 0-5.812-4.734-10.547-10.547-10.547-4.85 0-9.084 3.329-10.239 8.025-0.962-0.828-2.194-1.289-3.464-1.289-2.906 0-5.273 2.367-5.273 5.273 0 0.462 0.058 0.943 0.192 1.405-2.694 1.27-4.446 4.003-4.446 6.986-0 4.273 3.483 7.737 7.737 7.737h23.942c4.253 0 7.737-3.464 7.737-7.737 0-3.541-2.444-6.659-5.908-7.506zM12.554 24.753c0 0.52-0.443 0.962-0.962 0.962h-1.944c-0.52 0-0.962-0.443-0.962-0.962v-6.967c0-0.52 0.443-0.962 0.962-0.962h1.944c0.52 0 0.962 0.443 0.962 0.962v6.967zM18.173 24.753c0 0.52-0.443 0.962-0.962 0.962h-1.944c-0.52 0-0.962-0.443-0.962-0.962v-8.256c0-0.52 0.443-0.962 0.962-0.962h1.944c0.52 0 0.962 0.443 0.962 0.962v8.256zM23.793 24.753c0 0.52-0.443 0.962-0.962 0.962h-1.944c-0.52 0-0.962-0.443-0.962-0.962v-10.219c0-0.52 0.443-0.962 0.962-0.962h1.944c0.52 0 0.962 0.443 0.962 0.962v10.219zM29.259 24.753c0 0.52-0.443 0.962-0.962 0.962h-1.79c-0.52 0-0.962-0.443-0.962-0.962v-14.107c0-0.539 0.443-0.982 0.962-0.982h1.79c0.52 0 0.962 0.443 0.962 0.982v14.107z"></path>
</svg>
