<!-- Generated by IcoMoon.io -->
<svg version="1.1" xmlns="http://www.w3.org/2000/svg" width="32" height="32" viewBox="0 0 32 32">
<title>semi-truck</title>
<path d="M5.24 0.003c-1.123 0-2.040 0.917-2.040 2.040v5.64h1.28v-5.64c0-0.413 0.348-0.76 0.76-0.76h21.44c0.505 0 0.84 0.347 0.84 0.76v5.64h1.28v-5.64c0-1.123-0.96-2.040-2.12-2.040zM15.36 5.883c-2.63 0-4.613 0.235-6 0.62-0.695 0.192-1.235 0.415-1.66 0.72-0.407 0.293-0.707 0.713-0.76 1.2h-0.020v0.060l-1.080 8.16h-0.6c-0.26 0-0.515 0.023-0.76 0.080v-1.36h-1.28v2c-0.77 0.6-1.28 1.523-1.28 2.6v5.64c0 0.020 0 0.040 0 0.060v3.020c-0.002 0.027-0.002 0.052 0 0.080v1.32c0 1.052 0.867 1.92 1.92 1.92h2.56c1.053 0 1.92-0.867 1.92-1.92v-1.28h15.36v1.28c0 1.052 0.867 1.92 1.92 1.92h2.56c1.052 0 1.92-0.867 1.92-1.92v-1.28c0-0.020 0-0.040 0-0.060v-3.040c0.003-0.032 0.003-0.067 0-0.1v-5.64c0-1.078-0.51-2-1.28-2.6v-2h-1.28v1.36c-0.245-0.058-0.5-0.080-0.76-0.080h-0.6l-1.080-8.16v-0.060h-0.020c-0.067-0.6-0.525-0.97-1.040-1.24-0.532-0.28-1.218-0.513-2.060-0.7-1.685-0.375-3.97-0.6-6.6-0.6zM15.36 7.163c2.555 0 4.773 0.235 6.32 0.58 0.775 0.173 1.392 0.368 1.76 0.56 0.275 0.145 0.345 0.273 0.36 0.28 0.008 0.008 0.012 0.012 0.020 0.020l0.64 4.92c-0.795 0.143-3.48 0.56-8.46 0.56s-7.665-0.418-8.46-0.56l0.64-4.92c0.008-0.020 0.015-0.040 0.020-0.060 0.002-0.027 0.005-0.11 0.24-0.28s0.658-0.372 1.26-0.54c1.203-0.335 3.105-0.56 5.66-0.56zM2.68 8.263c-0.422 0-0.768 0.188-1.020 0.44s-0.44 0.598-0.44 1.020v3.52c0 0.845 0.613 1.54 1.46 1.54h0.96c0.845 0 1.54-0.613 1.54-1.46v-3.52c0-0.845-0.612-1.54-1.46-1.54zM28.36 8.343c-0.77 0-1.46 0.615-1.46 1.46v3.52c0 0.77 0.615 1.46 1.46 1.46h0.96c0.422 0 0.767-0.188 1.020-0.44s0.44-0.598 0.44-1.020v-3.52c0-0.77-0.615-1.46-1.46-1.46zM2.68 9.663c0.020 0 0.025-0.005 0.020 0h1.020c-0.078 0 0.060 0.088 0.060 0.14v3.52c0-0.078-0.087 0.060-0.14 0.060h-0.96c0.078 0-0.060-0.088-0.060-0.14v-3.5c-0.005 0.005 0 0 0-0.020 0.005-0.008 0.027-0.008 0.040-0.020s0.013-0.035 0.020-0.040zM28.36 9.723h0.96c0.052 0 0.060 0.080 0.060 0.080v3.5c-0.005 0.005-0.023 0.023-0.040 0.040s-0.035 0.035-0.040 0.040h-0.94c-0.052 0-0.080-0.060-0.080-0.060v-3.52c0-0.053 0.080-0.080 0.080-0.080zM7.38 14.783c1.020 0.175 3.855 0.58 8.62 0.58s7.6-0.405 8.62-0.58l0.34 2.58c0.040 0.323 0.315 0.563 0.64 0.56h1.16c1.137 0 2.040 0.843 2.040 2.040v4.36h-25.6v-4.36c0-1.198 0.902-2.040 2.040-2.040h1.16c0.325 0.003 0.6-0.238 0.64-0.56zM12.54 16.663c-0.898 0-1.64 0.742-1.64 1.64v3.080c0 0.898 0.742 1.64 1.64 1.64h6.92c0.898 0 1.64-0.742 1.64-1.64v-3.080c0-0.898-0.742-1.64-1.64-1.64zM12.54 17.903h6.92c0.255 0 0.4 0.145 0.4 0.4v3.080c0 0.255-0.145 0.4-0.4 0.4h-6.92c-0.255 0-0.4-0.145-0.4-0.4v-3.080c0-0.255 0.145-0.4 0.4-0.4zM5.56 19.203c-0.575 0-1.080 0.505-1.080 1.080v1.68c0 0.575 0.505 1.080 1.080 1.080h2.96c0.575 0 1.080-0.505 1.080-1.080v-1.68c0-0.575-0.505-1.080-1.080-1.080zM23.48 19.203c-0.575 0-1.080 0.505-1.080 1.080v1.68c0 0.575 0.505 1.080 1.080 1.080h2.96c0.575 0 1.080-0.505 1.080-1.080v-1.68c0-0.575-0.505-1.080-1.080-1.080zM5.76 20.483h2.56v1.28h-2.56zM23.68 20.483h2.56v1.28h-2.56zM3.2 25.603h25.6c0 0.020 0 0.040 0 0.060v1.86h-25.6v-1.82c0.002-0.032 0.002-0.067 0-0.1zM3.2 28.803h3.84v1.28c0 0.355-0.285 0.64-0.64 0.64h-2.56c-0.355 0-0.64-0.285-0.64-0.64zM24.96 28.803h3.84v1.28c0 0.355-0.285 0.64-0.64 0.64h-2.56c-0.355 0-0.64-0.285-0.64-0.64z"></path>
</svg>
