<!-- Generated by IcoMoon.io -->
<svg version="1.1" xmlns="http://www.w3.org/2000/svg" width="32" height="32" viewBox="0 0 32 32">
<title>sensor</title>
<path d="M3.81 0.003c-2.095 0-3.81 1.715-3.81 3.81v24.381c0 2.095 1.715 3.81 3.81 3.81h24.381c2.095 0 3.81-1.715 3.81-3.81v-24.381c0-2.095-1.715-3.81-3.81-3.81h-24.381zM3.81 1.527h24.381c1.271 0 2.286 1.014 2.286 2.286v24.381c0 1.271-1.014 2.286-2.286 2.286h-24.381c-1.271 0-2.286-1.014-2.286-2.286v-24.381c0-1.271 1.014-2.286 2.286-2.286zM16 3.051c-7.138 0-12.952 5.814-12.952 12.952s5.814 12.952 12.952 12.952c7.138 0 12.952-5.814 12.952-12.952s-5.814-12.952-12.952-12.952zM16 3.813c6.725 0 12.19 5.465 12.19 12.19s-5.465 12.19-12.19 12.19c-6.725 0-12.19-5.465-12.19-12.19s5.465-12.19 12.19-12.19zM16 5.336c-5.875 0-10.667 4.791-10.667 10.667s4.791 10.667 10.667 10.667c5.875 0 10.667-4.791 10.667-10.667s-4.791-10.667-10.667-10.667zM16 6.86c5.049 0 9.143 4.094 9.143 9.143s-4.094 9.143-9.143 9.143c-5.049 0-9.143-4.094-9.143-9.143s4.094-9.143 9.143-9.143zM16 8.765c-3.981 0-7.238 3.257-7.238 7.238s3.257 7.238 7.238 7.238c3.981 0 7.238-3.257 7.238-7.238s-3.257-7.238-7.238-7.238zM16 11.051c2.741 0 4.952 2.212 4.952 4.952s-2.212 4.952-4.952 4.952c-2.741 0-4.952-2.212-4.952-4.952s2.212-4.952 4.952-4.952zM16 13.717c-1.26 0-2.286 1.026-2.286 2.286s1.026 2.286 2.286 2.286c1.26 0 2.286-1.026 2.286-2.286s-1.026-2.286-2.286-2.286z"></path>
</svg>
