<!-- Generated by IcoMoon.io -->
<svg version="1.1" xmlns="http://www.w3.org/2000/svg" width="32" height="32" viewBox="0 0 32 32">
<title>server</title>
<path d="M30.147 9.582h-28.137c-1.11 0-2.010-0.9-2.010-2.010v-4.020c0-1.11 0.9-2.010 2.010-2.010h28.137c1.11 0 2.010 0.9 2.010 2.010v4.020c0 1.11-0.9 2.010-2.010 2.010zM27.132 4.055c-0.832 0-1.507 0.675-1.507 1.507s0.675 1.507 1.507 1.507 1.507-0.675 1.507-1.507-0.675-1.507-1.507-1.507zM23.113 4.055c-0.832 0-1.507 0.675-1.507 1.507s0.675 1.507 1.507 1.507 1.507-0.675 1.507-1.507-0.675-1.507-1.507-1.507zM30.147 19.631h-28.137c-1.11 0-2.010-0.9-2.010-2.010v-4.020c0-1.11 0.9-2.010 2.010-2.010h28.137c1.11 0 2.010 0.9 2.010 2.010v4.020c0 1.11-0.9 2.010-2.010 2.010zM27.132 14.104c-0.832 0-1.507 0.675-1.507 1.507s0.675 1.507 1.507 1.507 1.507-0.675 1.507-1.507-0.675-1.507-1.507-1.507zM23.113 14.104c-0.832 0-1.507 0.675-1.507 1.507s0.675 1.507 1.507 1.507 1.507-0.675 1.507-1.507-0.675-1.507-1.507-1.507zM30.147 29.68h-28.137c-1.11 0-2.010-0.9-2.010-2.010v-4.020c0-1.11 0.9-2.010 2.010-2.010h28.137c1.11 0 2.010 0.9 2.010 2.010v4.020c0 1.11-0.9 2.010-2.010 2.010zM27.132 24.153c-0.832 0-1.507 0.675-1.507 1.507s0.675 1.507 1.507 1.507 1.507-0.675 1.507-1.507-0.675-1.507-1.507-1.507zM23.113 24.153c-0.832 0-1.507 0.675-1.507 1.507s0.675 1.507 1.507 1.507 1.507-0.675 1.507-1.507-0.675-1.507-1.507-1.507z"></path>
</svg>
