<!-- Generated by IcoMoon.io -->
<svg version="1.1" xmlns="http://www.w3.org/2000/svg" width="32" height="32" viewBox="0 0 32 32">
<title>shapes</title>
<path d="M32.157 19.631v10.049c0 1.11-0.9 2.010-2.010 2.010h-10.049c-1.11 0-2.010-0.9-2.010-2.010v-10.049c0-1.11 0.9-2.010 2.010-2.010h10.049c1.11 0 2.010 0.9 2.010 2.010zM8.039 15.611c-4.44 0-8.039 3.599-8.039 8.039s3.599 8.039 8.039 8.039 8.039-3.599 8.039-8.039-3.599-8.039-8.039-8.039zM30.086 13.602c1.592 0 2.586-1.675 1.791-3.015l-5.968-10.049c-0.796-1.34-2.785-1.34-3.581 0l-5.968 10.049c-0.796 1.34 0.199 3.015 1.791 3.015h11.937z"></path>
</svg>
