<!-- Generated by IcoMoon.io -->
<svg version="1.1" xmlns="http://www.w3.org/2000/svg" width="28" height="32" viewBox="0 0 28 32">
<title>share-alt</title>
<path d="M22.108 19.631c-1.42 0-2.725 0.491-3.755 1.312l-6.437-4.023c0.091-0.393 0.143-0.845 0.143-1.309s-0.052-0.916-0.151-1.35l0.008 0.041 6.437-4.023c1.030 0.821 2.335 1.312 3.755 1.312 3.33 0 6.029-2.699 6.029-6.029s-2.699-6.029-6.029-6.029-6.029 2.699-6.029 6.029c0 0.45 0.050 0.888 0.143 1.309l-6.437 4.023c-1.030-0.821-2.335-1.312-3.755-1.312-3.33 0-6.029 2.699-6.029 6.029s2.699 6.029 6.029 6.029c1.42 0 2.725-0.491 3.755-1.312l6.437 4.023c-0.091 0.393-0.143 0.844-0.143 1.307 0 0.001 0 0.001 0 0.002v-0c0 3.33 2.699 6.029 6.029 6.029s6.029-2.699 6.029-6.029-2.699-6.029-6.029-6.029z"></path>
</svg>
