<!-- Generated by IcoMoon.io -->
<svg version="1.1" xmlns="http://www.w3.org/2000/svg" width="36" height="32" viewBox="0 0 36 32">
<title>share-square</title>
<path d="M35.293 9.46l-9.044-9.042c-1.885-1.885-5.146-0.565-5.146 2.132v3.592c-2.666 0.118-5.278 0.411-7.584 1.13-2.209 0.688-3.961 1.732-5.207 3.104-1.514 1.668-2.282 3.766-2.282 6.237 0 3.875 2.084 7.063 5.33 9.092 2.358 1.476 5.354-0.795 4.46-3.501-0.974-2.959-1.078-4.454 5.283-4.947v3.379c0 2.7 3.264 4.014 5.146 2.132l9.044-9.044c1.178-1.177 1.178-3.086 0-4.263zM24.118 20.636v-6.522c-8.083 0.121-13.661 1.456-11.16 9.034-1.854-1.159-3.913-3.261-3.913-6.536 0-6.867 8.111-7.471 15.073-7.527v-6.537l9.044 9.044-9.044 9.044zM25.671 25.943c0.501-0.145 0.938-0.345 1.339-0.597l-0.021 0.013c0.501-0.311 1.148 0.052 1.148 0.642v2.675c0 1.665-1.35 3.015-3.015 3.015h-22.108c-1.665 0-3.015-1.35-3.015-3.015v-22.108c0-1.665 1.35-3.015 3.015-3.015h8.29c0.416 0 0.754 0.338 0.754 0.754v0.282c0 0.309-0.188 0.588-0.475 0.7-0.861 0.335-1.658 0.725-2.39 1.167-0.112 0.070-0.249 0.111-0.394 0.112h-5.408c-0.208 0-0.377 0.169-0.377 0.377v0 21.354c0 0.208 0.169 0.377 0.377 0.377v0h21.354c0.208 0 0.377-0.169 0.377-0.377v0-1.631c0-0.337 0.225-0.632 0.549-0.725z"></path>
</svg>
