<!-- Generated by IcoMoon.io -->
<svg version="1.1" xmlns="http://www.w3.org/2000/svg" width="28" height="32" viewBox="0 0 28 32">
<title>share-alt-square</title>
<path d="M28.137 4.557v22.108c0 1.665-1.35 3.015-3.015 3.015h-22.108c-1.665 0-3.015-1.35-3.015-3.015v-22.108c0-1.665 1.35-3.015 3.015-3.015h22.108c1.665 0 3.015 1.35 3.015 3.015zM19.093 18.124c-0.915 0-1.747 0.349-2.373 0.921l-4.268-2.561c0.069-0.262 0.109-0.563 0.109-0.873s-0.040-0.611-0.115-0.897l0.005 0.025 4.268-2.561c0.626 0.572 1.458 0.922 2.373 0.922 1.942 0 3.517-1.575 3.517-3.517s-1.575-3.517-3.517-3.517-3.517 1.575-3.517 3.517c0 0.301 0.038 0.594 0.109 0.873l-4.268 2.561c-0.626-0.572-1.458-0.922-2.373-0.922-1.942 0-3.517 1.575-3.517 3.517s1.575 3.517 3.517 3.517c0.915 0 1.747-0.349 2.373-0.921l4.268 2.561c-0.069 0.261-0.109 0.561-0.109 0.871 0 0.001 0 0.002 0 0.002v-0c0 1.942 1.575 3.517 3.517 3.517s3.517-1.575 3.517-3.517c-0-1.943-1.575-3.517-3.517-3.517z"></path>
</svg>
