<!-- Generated by IcoMoon.io -->
<svg version="1.1" xmlns="http://www.w3.org/2000/svg" width="36" height="32" viewBox="0 0 36 32">
<title>share-square1</title>
<path d="M35.704 10.678l-9.044 8.541c-0.953 0.9-2.542 0.233-2.542-1.096v-4.52c-9.080 0.061-12.911 2.205-10.349 10.762 0.282 0.94-0.807 1.669-1.571 1.088-2.447-1.859-4.661-5.415-4.661-9.004 0-9.040 7.386-10.834 16.581-10.885v-4.523c0-1.33 1.59-1.995 2.542-1.096l9.044 8.541c0.629 0.594 0.63 1.597 0 2.192zM24.118 23.345v4.326h-20.098v-20.098h3.198c0.213-0 0.406-0.089 0.543-0.232l0-0c0.939-0.978 2.025-1.752 3.204-2.366 0.699-0.364 0.44-1.421-0.348-1.421h-7.602c-1.665 0-3.015 1.35-3.015 3.015v22.108c0 1.665 1.35 3.015 3.015 3.015h22.108c1.665 0 3.015-1.35 3.015-3.015v-5.578c0-0.52-0.515-0.883-1.006-0.71-0.448 0.164-0.965 0.258-1.504 0.258-0.227 0-0.45-0.017-0.668-0.049l0.025 0.003c-0.457-0.066-0.867 0.284-0.867 0.745z"></path>
</svg>
