<!-- Generated by IcoMoon.io -->
<svg version="1.1" xmlns="http://www.w3.org/2000/svg" width="28" height="32" viewBox="0 0 28 32">
<title>shekel-sign</title>
<path d="M15.576 10.084v10.551c0 0.555 0.45 1.005 1.005 1.005h3.015c0.555 0 1.005-0.45 1.005-1.005v-10.551c0-4.717-3.824-8.542-8.542-8.542h-10.551c-0.832 0-1.507 0.675-1.507 1.507v25.625c0 0.555 0.45 1.005 1.005 1.005h3.015c0.555 0 1.005-0.45 1.005-1.005v-22.108h7.034c1.943 0 3.517 1.575 3.517 3.517zM27.132 1.543h-3.015c-0.555 0-1.005 0.45-1.005 1.005v18.591c0 1.943-1.575 3.517-3.517 3.517h-7.034v-14.069c0-0.555-0.45-1.005-1.005-1.005h-3.015c-0.555 0-1.005 0.45-1.005 1.005v17.586c0 0.832 0.675 1.507 1.507 1.507h10.551c4.717 0 8.542-3.824 8.542-8.542v-18.591c0-0.555-0.45-1.005-1.005-1.005z"></path>
</svg>
