<!-- Generated by IcoMoon.io -->
<svg version="1.1" xmlns="http://www.w3.org/2000/svg" width="32" height="32" viewBox="0 0 32 32">
<title>shield-alt</title>
<path d="M31.152 7.572c0 13.898-8.537 21.646-13.914 23.886-0.343 0.147-0.741 0.232-1.159 0.232s-0.817-0.085-1.179-0.239l0.020 0.007c-6.723-2.801-13.914-11.419-13.914-23.886 0 0 0 0 0 0 0-1.247 0.757-2.316 1.835-2.775l0.020-0.007 12.059-5.024c0.343-0.147 0.741-0.232 1.159-0.232s0.817 0.085 1.179 0.239l-0.020-0.007 12.059 5.024c1.099 0.467 1.855 1.536 1.855 2.783 0 0 0 0 0 0v0zM16.078 27.564l0.004 0.002c5.887-2.932 10.834-9.817 11.042-19.327l-11.047-4.603v23.928z"></path>
</svg>
