<!-- Generated by IcoMoon.io -->
<svg version="1.1" xmlns="http://www.w3.org/2000/svg" width="32" height="32" viewBox="0 0 32 32">
<title>shield</title>
<path d="M16 0.003c-1.273 0-2.423 0.605-4.014 1.442-2.050 1.079-4.86 2.555-9.616 3.599l-0.504 0.11v0.517c0 19.574 13.727 26.137 13.865 26.201l0.284 0.13 0.277-0.142c0.138-0.071 13.844-7.268 13.844-26.19v-0.517l-0.504-0.11c-4.756-1.044-7.566-2.52-9.616-3.599-1.591-0.837-2.742-1.442-4.014-1.442zM16.033 8.242l1.528 4.012 0.147 0.389 0.415 0.025 4.302 0.254c0.001 0.020-0.005 0.035-0.015 0.049l-3.628 2.93 0.105 0.402 1.099 4.18-3.943-2.604-3.92 2.52c-0.023 0.011-0.047 0.024-0.068 0.033-0.003-0.001-0.007-0.004-0.010-0.005-0.004-0.008-0.007-0.014-0.009-0.014 0 0-0.001 0.001-0.001 0.001l1.196-4.574-0.316-0.261-3.302-2.719 4.695-0.28 0.148-0.389 1.485-3.895c0.035-0.024 0.068-0.043 0.092-0.053z"></path>
</svg>
