<!-- Generated by IcoMoon.io -->
<svg version="1.1" xmlns="http://www.w3.org/2000/svg" width="40" height="32" viewBox="0 0 40 32">
<title>ship</title>
<path d="M31.191 22.937l4.397-4.397c1.061-1.061 0.624-2.875-0.806-3.335l-2.625-0.844v-8.799c0-1.11-0.9-2.010-2.010-2.010h-4.020v-2.512c0-0.833-0.675-1.507-1.507-1.507h-9.044c-0.832 0-1.507 0.675-1.507 1.507v2.512h-4.020c-1.11 0-2.010 0.9-2.010 2.010v8.799l-2.625 0.844c-1.429 0.459-1.869 2.272-0.806 3.335l4.397 4.397c-1.103 2.741-3.63 4.733-7.498 4.733-0.833 0-1.507 0.675-1.507 1.507v1.005c0 0.832 0.675 1.507 1.507 1.507 3.833 0 6.752-1.294 8.997-3.73 0.906 2.187 3.063 3.73 5.574 3.73h8.039c2.511 0 4.668-1.543 5.574-3.73 2.245 2.436 5.164 3.73 8.997 3.73 0.833 0 1.507-0.675 1.507-1.507v-1.005c0-0.832-0.675-1.507-1.507-1.507-3.82 0-6.377-1.947-7.498-4.733zM12.059 7.572h16.078v5.497l-7.424-2.386c-0.184-0.061-0.395-0.096-0.615-0.096s-0.431 0.035-0.629 0.1l0.014-0.004-7.424 2.386v-5.497z"></path>
</svg>
