<!-- Generated by IcoMoon.io -->
<svg version="1.1" xmlns="http://www.w3.org/2000/svg" width="40" height="32" viewBox="0 0 40 32">
<title>shipping-fast</title>
<path d="M39.191 21.641h-1.005v-6.789c0-0.798-0.32-1.564-0.886-2.129l-6.274-6.274c-0.565-0.565-1.331-0.886-2.129-0.886h-2.77v-3.015c0-1.664-1.35-3.015-3.015-3.015h-16.078c-1.664 0-3.015 1.35-3.015 3.015v3.015h-3.517c-0.276 0-0.502 0.226-0.502 0.502v1.005c0 0.276 0.226 0.503 0.502 0.503h17.083c0.276 0 0.503 0.226 0.503 0.502v1.005c0 0.276-0.226 0.502-0.503 0.502h-15.073c-0.276 0-0.502 0.226-0.502 0.502v1.005c0 0.276 0.226 0.502 0.502 0.502h13.064c0.276 0 0.502 0.226 0.502 0.502v1.005c0 0.276-0.226 0.502-0.502 0.502h-15.073c-0.276 0-0.502 0.226-0.502 0.502v1.005c0 0.276 0.226 0.502 0.502 0.502h13.064c0.276 0 0.502 0.226 0.502 0.502v1.005c0 0.276-0.226 0.503-0.502 0.503h-9.546v8.039c0 3.329 2.701 6.029 6.029 6.029s6.029-2.701 6.029-6.029h8.039c0 3.329 2.701 6.029 6.029 6.029s6.029-2.701 6.029-6.029h3.015c0.553 0 1.005-0.452 1.005-1.005v-2.010c0-0.553-0.452-1.005-1.005-1.005zM10.049 28.675c-1.664 0-3.015-1.35-3.015-3.015s1.35-3.015 3.015-3.015 3.015 1.35 3.015 3.015-1.35 3.015-3.015 3.015zM30.147 28.675c-1.664 0-3.015-1.35-3.015-3.015s1.35-3.015 3.015-3.015 3.015 1.35 3.015 3.015-1.35 3.015-3.015 3.015zM35.171 15.611h-9.044v-7.034h2.77l6.274 6.274v0.76z"></path>
</svg>
