<!-- Generated by IcoMoon.io -->
<svg version="1.1" xmlns="http://www.w3.org/2000/svg" width="28" height="32" viewBox="0 0 28 32">
<title>shirtsinbulk</title>
<path d="M24.821 13.45h0.678v2.107h-0.678v-2.107zM24.821 12.845h0.678v-2.107h-0.678v2.107zM24.821 18.267h0.678v-2.107h-0.678v2.107zM22.532 8.027h-2.107v0.66h2.107v-0.66zM24.821 20.979h0.678v-2.107h-0.678v2.107zM19.564 8.027h-2.107v0.66h2.107v-0.66zM16.597 8.027h-2.088v0.66h2.088v-0.66zM13.629 8.027h-2.088v0.66h2.088v-0.66zM24.821 10.134h0.678v-2.107h-2.107v0.66h1.429v1.447zM8.756 26.401l1.923 0.843 0.275-0.623-1.923-0.843-0.275 0.623zM11.247 27.482l1.905 0.861 0.275-0.623-1.905-0.843-0.275 0.605zM24.821 23.69h0.678v-2.107h-0.678v2.107zM3.792 24.203l1.923 0.843 0.275-0.604-1.923-0.861-0.275 0.623zM6.283 25.302l1.923 0.843 0.275-0.623-1.923-0.843-0.275 0.623zM14.6 27.72l0.275 0.623 1.923-0.861-0.275-0.605-1.924 0.843zM22.037 24.441l0.275 0.604 1.923-0.843-0.275-0.623-1.923 0.861zM19.564 25.522l0.275 0.623 1.923-0.843-0.275-0.623-1.924 0.843zM17.073 26.621l0.275 0.623 1.923-0.843-0.275-0.623-1.923 0.843zM19.564 2.459h-2.107v0.66h2.107v-0.66zM25.481 2.459h-2.088v0.66h2.088v-0.66zM13.629 2.459h-2.088v0.66h2.088v-0.66zM22.532 2.459h-2.107v0.66h2.107v-0.66zM16.597 2.459h-2.088v0.66h2.088v-0.66zM28.137-0.234v25.499l-14.215 6.192-13.922-6.192v-25.499h28.137zM26.305 7.112h-24.474v16.963l12.108 5.386 12.365-5.386v-16.963zM26.305 1.598h-24.474v3.682h24.473v-3.682zM4.745 2.459h-2.088v0.66h2.088v-0.66zM10.68 2.459h-2.107v0.66h2.107v-0.66zM7.712 2.459h-2.107v0.66h2.107v-0.66zM8.188 17.315c0-3.151 2.583-5.734 5.734-5.734 3.169 0 5.734 2.583 5.734 5.734 0 3.169-2.565 5.734-5.734 5.734-3.151-0-5.734-2.565-5.734-5.734zM15.772 18.451c0 0.824-1.502 0.898-2.052 0.898-0.769 0-1.868-0.165-2.253-0.934h-0.055l-0.568 1.154c0.934 0.586 1.832 0.769 2.968 0.769 1.227 0 3.206-0.366 3.206-1.96 0-3.023-4.928-1.026-4.928-2.381 0-0.824 1.301-0.934 1.868-0.934 0.678 0 1.832 0.201 2.235 0.824h0.055l0.55-1.062c-0.953-0.385-1.722-0.751-2.784-0.751-1.264 0-3.114 0.403-3.114 1.997 0 2.784 4.873 0.751 4.873 2.381zM7.712 8.027h-2.107v0.66h2.107v-0.66zM3.316 8.687h1.429v-0.66h-2.107v2.107h0.678v-1.447zM3.316 10.739h-0.678v2.107h0.678v-2.107zM10.68 8.027h-2.107v0.66h2.107v-0.66zM3.316 13.45h-0.678v2.107h0.678v-2.107zM3.316 18.872h-0.678v2.107h0.678v-2.107zM3.316 16.161h-0.678v2.107h0.678v-2.107zM3.316 21.583h-0.678v2.107h0.678v-2.107z"></path>
</svg>
