<!-- Generated by IcoMoon.io -->
<svg version="1.1" xmlns="http://www.w3.org/2000/svg" width="40" height="32" viewBox="0 0 40 32">
<title>shoe-prints</title>
<path d="M12.059 9.582h2.010v-8.039h-2.010c-2.22 0-4.020 1.799-4.020 4.020s1.799 4.020 4.020 4.020zM0 25.66c0 2.22 1.799 4.020 4.020 4.020h2.010v-8.039h-2.010c-2.22 0-4.020 1.799-4.020 4.020zM21.195 17.621c-2.193 0-4.783 0.824-6.578 2.010-1.557 1.029-2.796 2.010-6.578 2.010v8.039l3.613 1.003c1.646 0.457 3.329 0.824 5.044 0.945 2.053 0.145 4.12 0.042 6.129-0.389 6.876-1.477 9.332-4.748 9.332-7.588 0-4.020-5.287-6.029-10.962-6.029zM30.864-0.015c-2.009-0.431-4.075-0.535-6.129-0.389-1.715 0.121-3.398 0.488-5.044 0.945l-3.613 1.003v8.039c3.781 0 5.021 0.981 6.578 2.010 1.794 1.186 4.385 2.010 6.578 2.010 5.675 0 10.962-2.010 10.962-6.029 0-2.84-2.456-6.111-9.332-7.588z"></path>
</svg>
