<!-- Generated by IcoMoon.io -->
<svg version="1.1" xmlns="http://www.w3.org/2000/svg" width="36" height="32" viewBox="0 0 36 32">
<title>shopping-cart</title>
<path d="M33.169 18.458l2.969-13.064c0.214-0.943-0.503-1.841-1.47-1.841h-24.669l-0.576-2.814c-0.143-0.702-0.761-1.205-1.477-1.205h-6.439c-0.833 0-1.507 0.675-1.507 1.507v1.005c0 0.833 0.675 1.507 1.507 1.507h4.389l4.412 21.57c-1.056 0.607-1.767 1.745-1.767 3.050 0 1.942 1.575 3.517 3.517 3.517s3.517-1.575 3.517-3.517c0-0.984-0.405-1.874-1.057-2.512h13.167c-0.652 0.638-1.057 1.528-1.057 2.512 0 1.942 1.575 3.517 3.517 3.517s3.517-1.575 3.517-3.517c0-1.393-0.809-2.596-1.983-3.166l0.347-1.525c0.214-0.943-0.503-1.841-1.47-1.841h-16.858l-0.411-2.010h18.411c0.704 0 1.314-0.487 1.47-1.173z"></path>
</svg>
