<!-- Generated by IcoMoon.io -->
<svg version="1.1" xmlns="http://www.w3.org/2000/svg" width="28" height="32" viewBox="0 0 28 32">
<title>shopping-bag</title>
<path d="M22.108 9.582v-2.010c0-4.433-3.606-8.039-8.039-8.039s-8.039 3.606-8.039 8.039v2.010h-6.029v17.083c0 2.775 2.249 5.024 5.024 5.024h18.088c2.775 0 5.024-2.25 5.024-5.024v-17.083h-6.029zM10.049 7.572c0-2.216 1.803-4.020 4.020-4.020s4.020 1.803 4.020 4.020v2.010h-8.039v-2.010zM20.098 15.109c-0.832 0-1.507-0.675-1.507-1.507s0.675-1.507 1.507-1.507 1.507 0.675 1.507 1.507-0.675 1.507-1.507 1.507zM8.039 15.109c-0.832 0-1.507-0.675-1.507-1.507s0.675-1.507 1.507-1.507 1.507 0.675 1.507 1.507-0.675 1.507-1.507 1.507z"></path>
</svg>
