<!-- Generated by IcoMoon.io -->
<svg version="1.1" xmlns="http://www.w3.org/2000/svg" width="31" height="32" viewBox="0 0 31 32">
<title>shopware</title>
<path d="M24.84 28.127c-2.697 1.997-5.901 3.052-9.263 3.052-8.618 0-15.577-6.971-15.577-15.576 0-8.616 6.974-15.576 15.577-15.576 3.85 0 7.546 1.416 10.406 3.988 0.165 0.148 0.036 0.417-0.18 0.388-1.11-0.153-2.308-0.23-3.562-0.23-8.125 0-13.968 3.358-13.968 9.757 0 6.848 5.786 9.162 11.106 11.225 2.113 0.819 4.107 1.593 5.462 2.612 0.119 0.090 0.119 0.271-0.001 0.359zM31.087 14.164c-0.005-0.059-0.035-0.115-0.080-0.153-3.251-2.698-5.88-3.799-9.074-3.799-5.284 0-5.040 3.277-5.040 3.368 0 2.676 3.27 3.895 7.056 5.306 1.951 0.728 3.969 1.48 5.821 2.508 0.118 0.066 0.267 0.012 0.317-0.114 1.186-3.039 1.127-5.667 1-7.117z"></path>
</svg>
