<!-- Generated by IcoMoon.io -->
<svg version="1.1" xmlns="http://www.w3.org/2000/svg" width="36" height="32" viewBox="0 0 36 32">
<title>shopping-basket</title>
<path d="M36.176 13.099v1.005c0 0.832-0.675 1.507-1.507 1.507h-0.502l-1.64 11.48c-0.212 1.485-1.484 2.588-2.984 2.588h-22.908c-1.5 0-2.772-1.103-2.984-2.588l-1.64-11.48h-0.502c-0.833 0-1.507-0.675-1.507-1.507v-1.005c0-0.832 0.675-1.507 1.507-1.507h4.229l6.706-9.221c0.653-0.898 1.91-1.096 2.808-0.443s1.096 1.91 0.443 2.808l-4.987 6.857h14.762l-4.987-6.857c-0.653-0.898-0.454-2.155 0.443-2.808s2.155-0.454 2.808 0.443l6.706 9.221h4.229c0.833 0 1.507 0.675 1.507 1.507zM19.596 24.153v-7.034c0-0.832-0.675-1.507-1.507-1.507s-1.507 0.675-1.507 1.507v7.034c0 0.832 0.675 1.507 1.507 1.507s1.507-0.675 1.507-1.507zM26.63 24.153v-7.034c0-0.832-0.675-1.507-1.507-1.507s-1.507 0.675-1.507 1.507v7.034c0 0.832 0.675 1.507 1.507 1.507s1.507-0.675 1.507-1.507zM12.561 24.153v-7.034c0-0.832-0.675-1.507-1.507-1.507s-1.507 0.675-1.507 1.507v7.034c0 0.832 0.675 1.507 1.507 1.507s1.507-0.675 1.507-1.507z"></path>
</svg>
