<!-- Generated by IcoMoon.io -->
<svg version="1.1" xmlns="http://www.w3.org/2000/svg" width="32" height="32" viewBox="0 0 32 32">
<title>shower</title>
<path d="M24.473 8.049l-9.927 9.927c-0.588 0.588-1.543 0.588-2.132 0l-0.711-0.711c-0.588-0.588-0.588-1.543 0-2.132l0.007-0.007c-2.137-2.525-2.208-6.214-0.213-8.817-0.752-0.474-1.642-0.748-2.594-0.748-2.693 0-4.884 2.191-4.884 4.884v19.234h-4.020v-19.234c0-4.91 3.994-8.903 8.903-8.903 2.319 0 4.435 0.892 6.021 2.35 2.255-0.723 4.805-0.283 6.7 1.321l0.007-0.007c0.588-0.588 1.543-0.588 2.132 0l0.711 0.711c0.588 0.588 0.588 1.543 0 2.132zM24.118 12.597c0 0.555-0.45 1.005-1.005 1.005s-1.005-0.45-1.005-1.005 0.45-1.005 1.005-1.005 1.005 0.45 1.005 1.005zM26.127 12.597c0-0.555 0.45-1.005 1.005-1.005s1.005 0.45 1.005 1.005-0.45 1.005-1.005 1.005-1.005-0.45-1.005-1.005zM32.157 12.597c0 0.555-0.45 1.005-1.005 1.005s-1.005-0.45-1.005-1.005 0.45-1.005 1.005-1.005 1.005 0.45 1.005 1.005zM22.108 14.606c0 0.555-0.45 1.005-1.005 1.005s-1.005-0.45-1.005-1.005 0.45-1.005 1.005-1.005 1.005 0.45 1.005 1.005zM25.122 13.602c0.555 0 1.005 0.45 1.005 1.005s-0.45 1.005-1.005 1.005-1.005-0.45-1.005-1.005 0.45-1.005 1.005-1.005zM30.147 14.606c0 0.555-0.45 1.005-1.005 1.005s-1.005-0.45-1.005-1.005 0.45-1.005 1.005-1.005 1.005 0.45 1.005 1.005zM20.098 16.616c0 0.555-0.45 1.005-1.005 1.005s-1.005-0.45-1.005-1.005 0.45-1.005 1.005-1.005 1.005 0.45 1.005 1.005zM22.108 16.616c0-0.555 0.45-1.005 1.005-1.005s1.005 0.45 1.005 1.005-0.45 1.005-1.005 1.005-1.005-0.45-1.005-1.005zM28.137 16.616c0 0.555-0.45 1.005-1.005 1.005s-1.005-0.45-1.005-1.005 0.45-1.005 1.005-1.005 1.005 0.45 1.005 1.005zM20.098 18.626c0-0.555 0.45-1.005 1.005-1.005s1.005 0.45 1.005 1.005-0.45 1.005-1.005 1.005-1.005-0.45-1.005-1.005zM26.127 18.626c0 0.555-0.45 1.005-1.005 1.005s-1.005-0.45-1.005-1.005 0.45-1.005 1.005-1.005 1.005 0.45 1.005 1.005zM20.098 20.636c0 0.555-0.45 1.005-1.005 1.005s-1.005-0.45-1.005-1.005 0.45-1.005 1.005-1.005 1.005 0.45 1.005 1.005zM24.118 20.636c0 0.555-0.45 1.005-1.005 1.005s-1.005-0.45-1.005-1.005 0.45-1.005 1.005-1.005 1.005 0.45 1.005 1.005zM22.108 22.646c0 0.555-0.45 1.005-1.005 1.005s-1.005-0.45-1.005-1.005 0.45-1.005 1.005-1.005 1.005 0.45 1.005 1.005zM20.098 24.655c0 0.555-0.45 1.005-1.005 1.005s-1.005-0.45-1.005-1.005 0.45-1.005 1.005-1.005 1.005 0.45 1.005 1.005z"></path>
</svg>
