<!-- Generated by IcoMoon.io -->
<svg version="1.1" xmlns="http://www.w3.org/2000/svg" width="40" height="32" viewBox="0 0 40 32">
<title>shuttle-van</title>
<path d="M39.497 12.763l-8.447-10.136c-0.557-0.665-1.387-1.085-2.316-1.085h-26.725c-1.11 0-2.010 0.9-2.010 2.010v18.088c0 1.11 0.9 2.010 2.010 2.010h2.010c0 3.33 2.699 6.029 6.029 6.029s6.029-2.699 6.029-6.029h8.039c0 3.33 2.699 6.029 6.029 6.029s6.029-2.699 6.029-6.029h2.010c1.11 0 2.010-0.9 2.010-2.010v-6.948c0-0.705-0.248-1.388-0.698-1.93zM4.020 11.592v-6.029h6.029v6.029h-6.029zM10.049 26.665c-1.665 0-3.015-1.35-3.015-3.015s1.35-3.015 3.015-3.015 3.015 1.35 3.015 3.015-1.35 3.015-3.015 3.015zM20.098 11.592h-6.029v-6.029h6.029v6.029zM30.147 26.665c-1.665 0-3.015-1.35-3.015-3.015s1.35-3.015 3.015-3.015 3.015 1.35 3.015 3.015-1.35 3.015-3.015 3.015zM24.118 11.592v-6.029h4.146l5.024 6.029h-9.171z"></path>
</svg>
