<!-- Generated by IcoMoon.io -->
<svg version="1.1" xmlns="http://www.w3.org/2000/svg" width="28" height="32" viewBox="0 0 28 32">
<title>sign-language</title>
<path d="M5.743 29.93c-0.019-1.006 0.823-1.829 1.83-1.829h3.912v-0.359h-7.905c-1.006 0-1.849-0.823-1.83-1.829 0.019-0.975 0.815-1.76 1.794-1.76h7.941v-0.359h-9.655c-1.006 0-1.849-0.823-1.83-1.829 0.019-0.975 0.815-1.759 1.794-1.759h9.69v-0.359h-7.86c-1.006 0-1.849-0.823-1.83-1.829 0.019-0.975 0.815-1.759 1.794-1.759h10.587l-1.952-1.42c-0.802-0.583-0.979-1.705-0.396-2.507s1.705-0.979 2.507-0.396l7.748 5.635c0.54 0.396 0.887 1.028 0.887 1.741v0 8.864c0 0.999-0.687 1.867-1.66 2.096l-5.054 1.189c-0.593 0.146-1.273 0.229-1.973 0.229h-6.745c-0.979-0-1.775-0.785-1.794-1.759zM10.343 15.755h2.288l-0.703-0.511c-1.167-0.849-1.276-2.568-0.199-3.551l-0.817-1.049c-0.618-0.794-1.786-0.953-2.568-0.32-0.758 0.614-0.888 1.724-0.286 2.497l2.284 2.934zM28.136 15.623l-0.314-9.575c-0.033-0.991-0.862-1.767-1.852-1.735s-1.767 0.862-1.735 1.852l0.079 2.413-6.504-8.353c-0.602-0.773-1.71-0.919-2.491-0.335-0.806 0.603-0.938 1.774-0.319 2.568l4.829 6.202-0.283 0.221-5.953-7.646c-0.602-0.773-1.71-0.919-2.491-0.335-0.806 0.603-0.938 1.774-0.319 2.568l5.932 7.618-0.283 0.221-4.878-6.265c-0.602-0.773-1.71-0.919-2.491-0.335-0.806 0.603-0.938 1.774-0.319 2.568l3.269 4.199c0.785-0.519 1.825-0.52 2.618 0.057l7.748 5.635c0.685 0.498 1.094 1.301 1.094 2.148v1.068l3.835-2.986c0.507-0.398 0.83-1.011 0.83-1.699 0-0.025-0-0.050-0.001-0.074l0 0.004z"></path>
</svg>
