<!-- Generated by IcoMoon.io -->
<svg version="1.1" xmlns="http://www.w3.org/2000/svg" width="40" height="32" viewBox="0 0 40 32">
<title>signature</title>
<path d="M39.141 11.592c-3.253 0.22-7.895 3.435-10.244 4.491-1.828 0.823-3.404 1.532-4.78 1.532-1.419 0-1.633-1.017-1.338-3.26 0.069-0.502 0.735-4.974-2.682-4.78-1.576 0.094-4.038 1.558-10.646 7.914l2.606-6.513c1.909-4.767-3.341-9.515-8.146-6.456l-3.448 2.317c-0.465 0.295-0.603 0.917-0.308 1.388l1.080 1.696c0.295 0.471 0.917 0.609 1.388 0.308l3.643-2.443c1.156-0.735 2.556 0.452 2.054 1.702l-6.168 15.425c-0.427 1.061 0.17 2.757 1.865 2.757 0.521 0 1.036-0.201 1.419-0.59 2.65-2.65 9.716-9.465 13.265-12.297-0.138 1.79-0.132 3.699 1.294 5.263 0.961 1.055 2.343 1.589 4.114 1.589 2.236 0 4.271-0.917 6.425-1.884 2.073-0.93 6.218-3.932 8.692-4.133 0.534-0.044 0.955-0.458 0.955-0.992v-2.016c0.013-0.572-0.471-1.055-1.043-1.018z"></path>
</svg>
