<!-- Generated by IcoMoon.io -->
<svg version="1.1" xmlns="http://www.w3.org/2000/svg" width="32" height="32" viewBox="0 0 32 32">
<title>sign-in-alt</title>
<path d="M26.127 27.67h-5.276c-0.415 0-0.754-0.339-0.754-0.754v-2.512c0-0.415 0.339-0.754 0.754-0.754h5.276c1.112 0 2.010-0.898 2.010-2.010v-12.059c0-1.112-0.898-2.010-2.010-2.010h-5.276c-0.415 0-0.754-0.339-0.754-0.754v-2.512c0-0.415 0.339-0.754 0.754-0.754h5.276c3.329 0 6.029 2.701 6.029 6.029v12.059c0 3.329-2.701 6.029-6.029 6.029zM23.175 15.046l-10.551-10.551c-0.942-0.942-2.575-0.283-2.575 1.068v6.029h-8.542c-0.835 0-1.507 0.672-1.507 1.507v6.029c0 0.835 0.672 1.507 1.507 1.507h8.542v6.029c0 1.35 1.633 2.010 2.575 1.068l10.551-10.551c0.584-0.59 0.584-1.545 0-2.135z"></path>
</svg>
