<!-- Generated by IcoMoon.io -->
<svg version="1.1" xmlns="http://www.w3.org/2000/svg" width="32" height="32" viewBox="0 0 32 32">
<title>signpost</title>
<path d="M14.5 0.503c-0.826 0-1.5 0.674-1.5 1.5v1h-5.5c-0.826 0-1.5 0.674-1.5 1.5v6c0 0.826 0.674 1.5 1.5 1.5h5.5v1h-9c-0.469 0-0.918 0.223-1.199 0.6l-2.25 3c-0.398 0.529-0.398 1.271 0 1.801l2.25 3c0.281 0.375 0.73 0.6 1.199 0.6h9v5h-1c-0.783 0-1.531 0.373-2 1l-0.75 1h-1.75c-0.826 0-1.5 0.674-1.5 1.5s0.674 1.5 1.5 1.5h14c0.826 0 1.5-0.674 1.5-1.5s-0.674-1.5-1.5-1.5h-1.75l-0.75-1c-0.469-0.627-1.217-1-2-1h-1v-5h7.5c0.826 0 1.5-0.674 1.5-1.5v-6c0-0.826-0.674-1.5-1.5-1.5h-7.5v-1h11c0.469 0 0.918-0.223 1.201-0.6l2.25-3c0.396-0.529 0.396-1.271 0-1.801l-2.25-3c-0.283-0.375-0.732-0.6-1.201-0.6h-11v-1c0-0.826-0.674-1.5-1.5-1.5zM14.5 1.503c0.275 0 0.5 0.225 0.5 0.5v1h-1v-1c0-0.275 0.225-0.5 0.5-0.5zM7.5 4.003h19.5c0.156 0 0.307 0.074 0.4 0.199l2.25 3c0.133 0.178 0.133 0.424 0 0.602l-2.25 2.998c-0.094 0.127-0.244 0.201-0.4 0.201h-19.5c-0.275 0-0.5-0.225-0.5-0.5v-6c0-0.275 0.225-0.5 0.5-0.5zM8.5 5.003c-0.275 0-0.5 0.223-0.5 0.5s0.225 0.5 0.5 0.5h14c0.275 0 0.5-0.223 0.5-0.5s-0.225-0.5-0.5-0.5zM24.5 5.003c-0.275 0-0.5 0.223-0.5 0.5s0.225 0.5 0.5 0.5h2c0.275 0 0.5-0.223 0.5-0.5s-0.225-0.5-0.5-0.5zM14 12.003h1v1h-1zM4 14.003h19.5c0.275 0 0.5 0.225 0.5 0.5v6c0 0.275-0.225 0.5-0.5 0.5h-19.5c-0.156 0-0.307-0.074-0.4-0.199l-2.25-3c-0.133-0.178-0.133-0.424 0-0.6l2.25-3c0.094-0.127 0.244-0.201 0.4-0.201zM4.5 16.503c-0.275 0-0.5 0.223-0.5 0.5v1c0 0.277 0.225 0.5 0.5 0.5s0.5-0.223 0.5-0.5v-1c0-0.277-0.225-0.5-0.5-0.5zM7 16.503c-0.275 0-0.5 0.223-0.5 0.5v1c0 0.277 0.225 0.5 0.5 0.5s0.5-0.223 0.5-0.5v-1c0-0.277-0.225-0.5-0.5-0.5zM9.5 16.503c-0.275 0-0.5 0.223-0.5 0.5v1c0 0.277 0.225 0.5 0.5 0.5s0.5-0.223 0.5-0.5v-1c0-0.277-0.225-0.5-0.5-0.5zM12 16.503c-0.275 0-0.5 0.223-0.5 0.5v1c0 0.277 0.225 0.5 0.5 0.5s0.5-0.223 0.5-0.5v-1c0-0.277-0.225-0.5-0.5-0.5zM14.5 16.503c-0.275 0-0.5 0.223-0.5 0.5v1c0 0.277 0.225 0.5 0.5 0.5s0.5-0.223 0.5-0.5v-1c0-0.277-0.225-0.5-0.5-0.5zM17 16.503c-0.275 0-0.5 0.223-0.5 0.5v1c0 0.277 0.225 0.5 0.5 0.5s0.5-0.223 0.5-0.5v-1c0-0.277-0.225-0.5-0.5-0.5zM19.5 16.503c-0.275 0-0.5 0.223-0.5 0.5v1c0 0.277 0.225 0.5 0.5 0.5s0.5-0.223 0.5-0.5v-1c0-0.277-0.225-0.5-0.5-0.5zM22 16.503c-0.275 0-0.5 0.223-0.5 0.5v1c0 0.277 0.225 0.5 0.5 0.5s0.5-0.223 0.5-0.5v-1c0-0.277-0.225-0.5-0.5-0.5zM14 22.003h1v5h-1zM12 28.003h5c0.469 0 0.918 0.225 1.201 0.6l0.299 0.4h-8l0.299-0.4c0.283-0.377 0.732-0.6 1.201-0.6zM7.5 30.003h14c0.275 0 0.5 0.225 0.5 0.5s-0.225 0.5-0.5 0.5h-14c-0.275 0-0.5-0.225-0.5-0.5s0.225-0.5 0.5-0.5z"></path>
</svg>
