<!-- Generated by IcoMoon.io -->
<svg version="1.1" xmlns="http://www.w3.org/2000/svg" width="40" height="32" viewBox="0 0 40 32">
<title>signal</title>
<path d="M13.566 17.621h-3.015c-0.555 0-1.005 0.45-1.005 1.005v12.059c0 0.555 0.45 1.005 1.005 1.005h3.015c0.555 0 1.005-0.45 1.005-1.005v-12.059c0-0.555-0.45-1.005-1.005-1.005zM5.527 23.651h-3.015c-0.555 0-1.005 0.45-1.005 1.005v6.029c0 0.555 0.45 1.005 1.005 1.005h3.015c0.555 0 1.005-0.45 1.005-1.005v-6.029c0-0.555-0.45-1.005-1.005-1.005zM21.605 11.592h-3.015c-0.555 0-1.005 0.45-1.005 1.005v18.088c0 0.555 0.45 1.005 1.005 1.005h3.015c0.555 0 1.005-0.45 1.005-1.005v-18.088c0-0.555-0.45-1.005-1.005-1.005zM29.644 5.562h-3.015c-0.555 0-1.005 0.45-1.005 1.005v24.118c0 0.555 0.45 1.005 1.005 1.005h3.015c0.555 0 1.005-0.45 1.005-1.005v-24.118c0-0.555-0.45-1.005-1.005-1.005zM37.684-0.467h-3.015c-0.555 0-1.005 0.45-1.005 1.005v30.147c0 0.555 0.45 1.005 1.005 1.005h3.015c0.555 0 1.005-0.45 1.005-1.005v-30.147c0-0.555-0.45-1.005-1.005-1.005z"></path>
</svg>
