<!-- Generated by IcoMoon.io -->
<svg version="1.1" xmlns="http://www.w3.org/2000/svg" width="32" height="32" viewBox="0 0 32 32">
<title>sim-card1</title>
<path d="M6.28 0.003c-0.982 0-1.8 0.818-1.8 1.8v28.4c0 0.983 0.817 1.8 1.8 1.8h19.44c0.983 0 1.8-0.817 1.8-1.8v-20.54c0-0.63-0.23-1.25-0.7-1.72l-7.24-7.24c-0.44-0.44-1.047-0.7-1.72-0.7zM6.28 1.283h11.58c0.352 0 0.62 0.12 0.82 0.32l7.24 7.24c0.17 0.17 0.32 0.555 0.32 0.82v20.54c0 0.297-0.223 0.52-0.52 0.52h-19.44c-0.298 0-0.52-0.223-0.52-0.52v-28.4c0-0.297 0.223-0.52 0.52-0.52zM12.1 14.143c-2.075 0-3.78 1.705-3.78 3.78v1.62c-0.085 0.177-0.085 0.383 0 0.56v3.28c-0.085 0.177-0.085 0.383 0 0.56v1.080c0 2.075 1.705 3.78 3.78 3.78h7.8c2.075 0 3.78-1.705 3.78-3.78v-1.22c0.017-0.085 0.017-0.175 0-0.26v-3.58c0.017-0.085 0.017-0.175 0-0.26v-1.78c0-2.075-1.705-3.78-3.78-3.78zM12.1 15.423h5.82v4.22c-0.038 0.125-0.038 0.255 0 0.38v3.36c-0.085 0.177-0.085 0.383 0 0.56v3.58h-3.84v-3.72c0.018-0.085 0.018-0.175 0-0.26v-3.7c0-0.352-0.287-0.64-0.64-0.64h-3.84v-1.28c0-1.38 1.12-2.5 2.5-2.5zM19.2 15.423h0.7c1.38 0 2.5 1.12 2.5 2.5v1.28h-3.2zM9.6 20.483h3.2v2.56h-3.2zM19.2 20.483h3.2v2.56h-3.2zM9.6 24.323h3.2v3.2h-0.7c-1.38 0-2.5-1.12-2.5-2.5zM19.2 24.323h3.2v0.7c0 1.38-1.12 2.5-2.5 2.5h-0.7z"></path>
</svg>
