<!-- Generated by IcoMoon.io -->
<svg version="1.1" xmlns="http://www.w3.org/2000/svg" width="32" height="32" viewBox="0 0 32 32">
<title>simplybuilt</title>
<path d="M30.222 3.553h-6.657c-0.911 0-1.671 0.741-1.671 1.652v2.487h-11.638v-2.487c0-0.911-0.754-1.652-1.671-1.652h-6.657c-0.917 0-1.658 0.741-1.658 1.652v20.814c0 0.911 0.741 1.652 1.671 1.652h28.288c0.93 0 1.671-0.741 1.671-1.652v-20.814c-0.012-0.911-0.754-1.652-1.677-1.652zM9.408 21.879c-2.299 0-4.17-1.865-4.17-4.17 0-2.317 1.865-4.183 4.17-4.183 2.317 0 4.183 1.865 4.183 4.183 0 2.305-1.865 4.17-4.183 4.17zM22.748 21.879c-2.317 0-4.183-1.865-4.183-4.183 0-2.299 1.865-4.17 4.183-4.17 2.299 0 4.17 1.865 4.17 4.17 0 2.317-1.872 4.183-4.17 4.183z"></path>
</svg>
