<!-- Generated by IcoMoon.io -->
<svg version="1.1" xmlns="http://www.w3.org/2000/svg" width="28" height="32" viewBox="0 0 28 32">
<title>sith</title>
<path d="M0 1.543l4.378 7.458-3.697-0.724 4.386 5.717c-0.091 0.486-0.143 1.045-0.143 1.616s0.052 1.13 0.151 1.672l-0.009-0.057-4.386 5.717 3.697-0.724-4.378 7.46 7.458-4.378-0.724 3.697 5.717-4.386c1.069 0.191 2.165 0.191 3.233 0l5.717 4.386-0.724-3.697 7.458 4.378-4.378-7.46 3.697 0.724-4.386-5.717c0.19-1.068 0.191-2.163 0-3.231l4.386-5.717-3.697 0.724 4.378-7.458-7.458 4.378 0.724-3.699-5.719 4.388c-0.534-0.095-1.074-0.144-1.615-0.144s-1.081 0.049-1.615 0.144l-5.719-4.388 0.724 3.699-7.458-4.378zM14.069 7.81c1.997 0 3.994 0.761 5.518 2.284 3.046 3.046 3.045 7.99 0 11.035s-7.989 3.044-11.035-0.002c-3.046-3.046-3.045-7.99 0-11.035 1.522-1.523 3.52-2.282 5.518-2.282zM14.069 10.112c-1.408 0-2.816 0.535-3.889 1.608-2.147 2.147-2.147 5.632 0 7.78s5.631 2.147 7.778 0c2.147-2.147 2.147-5.632 0-7.78-1.073-1.073-2.481-1.608-3.889-1.608z"></path>
</svg>
