<!-- Generated by IcoMoon.io -->
<svg version="1.1" xmlns="http://www.w3.org/2000/svg" width="32" height="32" viewBox="0 0 32 32">
<title>sitx-file-format-variant</title>
<path d="M27.737 7.239c-0.002-0.148-0.049-0.293-0.15-0.408l-6.2-7.082c-0.001-0.002-0.003-0.002-0.005-0.004-0.037-0.041-0.079-0.075-0.125-0.105-0.013-0.009-0.027-0.017-0.041-0.025-0.040-0.021-0.081-0.039-0.124-0.052-0.012-0.004-0.022-0.008-0.034-0.011-0.047-0.011-0.095-0.018-0.145-0.018h-15.238c-0.695 0-1.261 0.566-1.261 1.261v29.635c0 0.696 0.566 1.261 1.261 1.261h20.807c0.696 0 1.261-0.566 1.261-1.261v-23.119c-0-0.024-0.004-0.047-0.006-0.071zM5.675 0.794h14.607v6.452c0 0.348 0.282 0.631 0.631 0.631h5.569l0.001 13.068h-20.808v-20.151zM7.741 29.892c-0.822 0-1.634-0.214-2.040-0.438l0.331-1.346c0.438 0.224 1.111 0.449 1.805 0.449 0.747 0 1.143-0.31 1.143-0.78 0-0.449-0.342-0.705-1.207-1.015-1.196-0.416-1.976-1.079-1.976-2.125 0-1.228 1.025-2.168 2.723-2.168 0.812 0 1.41 0.171 1.837 0.363l-0.363 1.314c-0.288-0.139-0.801-0.342-1.506-0.342s-1.047 0.32-1.047 0.694c0 0.459 0.406 0.662 1.335 1.015 1.271 0.47 1.869 1.132 1.869 2.147 0 1.207-0.929 2.232-2.905 2.232zM13.38 29.785h-1.634v-7.198h1.634v7.198zM19.777 23.954h-1.965v5.831h-1.634v-5.831h-1.933v-1.367h5.532v1.367zM24.626 29.785l-0.651-1.303c-0.267-0.502-0.438-0.876-0.641-1.292h-0.021c-0.149 0.416-0.331 0.79-0.556 1.292l-0.598 1.303h-1.858l2.082-3.642-2.008-3.556h1.869l0.63 1.313c0.214 0.438 0.374 0.79 0.545 1.196h0.022c0.171-0.459 0.309-0.78 0.491-1.196l0.609-1.313h1.858l-2.029 3.513 2.136 3.685-1.88-0zM9.355 6.669h9.264v1.526h-9.264v-1.526zM23.251 10.148v-1.953h-4.633v1.953h1.568v4.312h-1.568v1.866h-9.264v1.525h9.264v-1.438h4.633v-1.953h-2.589v-0.774h1.022v-0.572h-1.022v-0.666h1.022v-0.574h-1.022v-0.651h1.022v-0.572h-1.022v-0.503zM10.547 8.979h6.881v6.651h-6.881v-6.651z"></path>
</svg>
