<!-- Generated by IcoMoon.io -->
<svg version="1.1" xmlns="http://www.w3.org/2000/svg" width="31" height="32" viewBox="0 0 31 32">
<title>sketch</title>
<path d="M1.162 9.72l-1.162 1.564h5.684l0.433-8.209-4.955 6.645zM24.325 2.403l-8.077-0.86 8.523 9.245-0.446-8.385zM6.482 13.244l-0.703-1.382h-5.722l14.125 16.436-7.7-15.055zM6.607 11.284h17.837l-8.912-9.678-8.925 9.678zM25.279 11.856l-8.41 16.443 14.119-16.436h-5.709zM25.524 3.867l-0.59-0.791 0.057 1.087 0.383 7.122h5.671l-5.521-7.417zM6.563 5.405l-0.289 5.376 8.529-9.239-8.077 0.86-0.163 3.002zM24.633 11.856h-18.214l9.113 17.824 9.101-17.824z"></path>
</svg>
