<!-- Generated by IcoMoon.io -->
<svg version="1.1" xmlns="http://www.w3.org/2000/svg" width="36" height="32" viewBox="0 0 36 32">
<title>skiing-nordic</title>
<path d="M21.103 5.562c1.664 0 3.015-1.35 3.015-3.015s-1.35-3.015-3.015-3.015-3.015 1.35-3.015 3.015 1.35 3.015 3.015 3.015zM34.669 25.66c-0.829 0-1.507 0.672-1.507 1.507 0 0.829-0.678 1.507-1.507 1.507h-4.365l1.602-11.205c0.735-0.295 1.262-1.018 1.262-1.859 0-1.112-0.898-2.010-2.010-2.010h-2.763l-1.639-3.341c-0.785-1.602-2.23-2.776-3.881-3.197l-4.472-1.332c-1.777-0.427-3.63-0.031-5.075 1.074l-2.493 1.909c-0.879 0.672-1.049 1.934-0.371 2.82 0.044 0.057 0.107 0.082 0.151 0.132l-3.398 17.008h-2.694c-0.829 0-1.507 0.672-1.507 1.507s0.678 1.507 1.507 1.507h30.147c2.493 0 4.522-2.029 4.522-4.522 0-0.829-0.678-1.507-1.507-1.507zM18.308 28.675h-6.086l2.707-5.715-1.382-0.816c-0.76-0.452-1.375-1.061-1.853-1.746l-3.925 8.278h-1.52l3.285-16.418c0.258-0.063 0.509-0.182 0.735-0.352l2.493-1.909c0.484-0.371 1.093-0.502 1.589-0.383l0.923 0.276-2.355 5.489c-0.791 1.853-0.082 4.020 1.652 5.043l5.339 3.153-1.602 5.1zM25.254 28.675h-2.738l1.482-4.742c0.371-1.306-0.182-2.707-1.357-3.417l-3.844-2.267 1.966-4.918 1.275 2.6c0.503 1.024 1.564 1.69 2.707 1.69h2.091l-1.583 11.054z"></path>
</svg>
