<!-- Generated by IcoMoon.io -->
<svg version="1.1" xmlns="http://www.w3.org/2000/svg" width="32" height="32" viewBox="0 0 32 32">
<title>skiing</title>
<path d="M27.132 5.562c1.664 0 3.015-1.35 3.015-3.015s-1.35-3.015-3.015-3.015-3.015 1.35-3.015 3.015 1.35 3.015 3.015 3.015zM31.717 27.928c-0.59-0.59-1.545-0.59-2.129 0-0.76 0.76-1.916 0.967-2.833 0.546l-8.529-4.409 3.090-4.635c0.798-1.193 0.641-2.795-0.377-3.806l-2.537-2.544-6.72-3.335c-0.182 1.25 0.214 2.512 1.112 3.417l4.717 4.723-2.883 4.321-12.429-6.425c-0.735-0.377-1.645-0.094-2.029 0.647s-0.094 1.652 0.647 2.029l24.614 12.718c0.747 0.345 1.539 0.509 2.33 0.509 1.457 0 2.889-0.565 3.957-1.633 0.584-0.584 0.584-1.539 0-2.123zM7.537 5.286l-0.722 1.413c0.904 0.458 1.96 0.308 2.688-0.301l2.964 1.47c-0.006 0.006-0.006 0.013-0.012 0.019l7.191 3.567 2.035-0.816 0.402 1.2c0.251 0.76 0.791 1.382 1.507 1.74l3.649 1.821c0.999 0.496 2.198 0.094 2.694-0.898s0.094-2.198-0.898-2.694l-3.272-1.639-1.074-3.216c-0.509-1.52-2.569-3.555-5.307-2.462l-5.1 2.041-3.925-1.947c0.019-0.911-0.452-1.796-1.313-2.236l-0.697 1.363h-0.012l-2.16-0.44c-0.113-0.025-0.232 0.013-0.314 0.107-0.119 0.138-0.107 0.345 0.031 0.465l1.645 1.445z"></path>
</svg>
