<!-- Generated by IcoMoon.io -->
<svg version="1.1" xmlns="http://www.w3.org/2000/svg" width="28" height="32" viewBox="0 0 28 32">
<title>skull-crossbones</title>
<path d="M27.581 27.988l-8.917-4.337 8.918-4.337c0.496-0.248 0.698-0.852 0.449-1.348l-0.899-1.798c-0.248-0.496-0.852-0.698-1.348-0.45l-11.715 5.698-11.715-5.698c-0.496-0.248-1.1-0.047-1.348 0.45l-0.899 1.798c-0.248 0.496-0.047 1.1 0.449 1.348l8.918 4.337-8.917 4.337c-0.496 0.248-0.698 0.852-0.449 1.348l0.899 1.798c0.248 0.496 0.852 0.698 1.348 0.449l11.715-5.698 11.715 5.698c0.496 0.248 1.1 0.047 1.348-0.449l0.899-1.798c0.248-0.497 0.046-1.1-0.45-1.348zM9.421 14.436l-0.344 1.625c-0.168 0.793 0.34 1.561 1.033 1.561h7.919c0.693 0 1.201-0.768 1.033-1.561l-0.345-1.625c2.624-1.408 4.396-3.941 4.396-6.863 0-4.44-4.049-8.039-9.044-8.039s-9.044 3.599-9.044 8.039c0 2.922 1.772 5.456 4.396 6.863zM17.586 6.567c1.109 0 2.010 0.901 2.010 2.010s-0.901 2.010-2.010 2.010-2.010-0.901-2.010-2.010 0.901-2.010 2.010-2.010zM10.551 6.567c1.109 0 2.010 0.901 2.010 2.010s-0.901 2.010-2.010 2.010-2.010-0.901-2.010-2.010 0.901-2.010 2.010-2.010z"></path>
</svg>
