<!-- Generated by IcoMoon.io -->
<svg version="1.1" xmlns="http://www.w3.org/2000/svg" width="32" height="32" viewBox="0 0 32 32">
<title>skull</title>
<path d="M16.078-0.467c-8.881 0-16.078 6.299-16.078 14.069 0 4.403 2.317 8.328 5.935 10.909 0.603 0.433 0.955 1.137 0.848 1.878l-0.59 4.158c-0.088 0.603 0.377 1.143 0.986 1.143h4.88v-3.517c0-0.276 0.226-0.503 0.502-0.503h1.005c0.276 0 0.502 0.226 0.502 0.503v3.517h4.020v-3.517c0-0.276 0.226-0.503 0.503-0.503h1.005c0.276 0 0.503 0.226 0.503 0.503v3.517h4.88c0.609 0 1.074-0.54 0.986-1.143l-0.59-4.158c-0.107-0.735 0.239-1.445 0.848-1.878 3.618-2.581 5.935-6.507 5.935-10.909 0-7.769-7.198-14.069-16.078-14.069zM10.049 19.631c-2.217 0-4.020-1.802-4.020-4.020s1.803-4.020 4.020-4.020 4.020 1.803 4.020 4.020-1.803 4.020-4.020 4.020zM22.108 19.631c-2.217 0-4.020-1.802-4.020-4.020s1.802-4.020 4.020-4.020 4.020 1.803 4.020 4.020-1.802 4.020-4.020 4.020z"></path>
</svg>
