<!-- Generated by IcoMoon.io -->
<svg version="1.1" xmlns="http://www.w3.org/2000/svg" width="40" height="32" viewBox="0 0 40 32">
<title>skyatlas</title>
<path d="M40.196 20.215c0 4.139-3.297 7.185-7.38 7.185-10.42 0-12.348-15.683-22.591-15.683-9.226 0-9.239 13.327 0.352 13.327 2.669 0 5.709-1.118 7.87-2.669 0.352-0.258 1.061-1.024 1.432-1.024s0.685 0.314 0.685 0.685c0 0.49-0.823 1.2-1.175 1.514-2.569 2.236-6.299 3.844-9.716 3.844-5.238 0.006-9.672-3.706-9.672-9.101s4.239-9.364 9.597-9.364c11.638 0 13.974 15.444 22.73 15.444 6.274 0 5.954-8.774 0.214-8.774-1.099 0-2.198 0.729-2.946 0.729-0.527 0-0.999-0.452-0.999-0.98 0-0.729 0.333-1.488 0.333-2.28 0-4.183-3.197-7.204-7.342-7.204-3.335 0-5.024 2.317-5.577 2.317-0.389 0-0.703-0.314-0.703-0.703 0-0.352 0.258-0.647 0.49-0.904 1.589-1.809 4.064-2.745 6.456-2.745 4.987 0 8.736 3.668 8.736 8.655 0 0.433-0.019 0.86-0.075 1.294 0.747-0.195 1.514-0.295 2.255-0.295 3.812 0 7.028 2.845 7.028 6.733z"></path>
</svg>
