<!-- Generated by IcoMoon.io -->
<svg version="1.1" xmlns="http://www.w3.org/2000/svg" width="28" height="32" viewBox="0 0 28 32">
<title>skype</title>
<path d="M26.674 18.362c0.182-0.879 0.295-1.815 0.295-2.751 0-7.128-5.772-12.894-12.894-12.894-0.936 0-1.865 0.107-2.751 0.295-1.193-0.923-2.676-1.47-4.29-1.47-3.881 0-7.034 3.153-7.034 7.034 0 1.614 0.546 3.096 1.463 4.283-0.182 0.879-0.295 1.815-0.295 2.751 0 7.128 5.772 12.894 12.894 12.894 0.936 0 1.865-0.107 2.751-0.295 1.193 0.917 2.676 1.463 4.283 1.463 3.881 0 7.034-3.153 7.034-7.034 0.006-1.608-0.54-3.090-1.457-4.277zM14.452 24.109c-4.12 0-7.568-1.834-7.568-4.082 0-1.005 0.565-1.922 1.853-1.922 1.96 0 2.142 2.82 5.533 2.82 1.614 0 2.657-0.716 2.657-1.652 0-1.175-1.005-1.357-2.638-1.759-3.925-0.967-7.399-1.382-7.399-5.477 0-3.718 3.68-5.094 6.852-5.094 3.461 0 6.959 1.375 6.959 3.479 0 1.061-0.716 1.997-1.903 1.997-1.777 0-1.834-2.104-4.71-2.104-1.614 0-2.638 0.44-2.638 1.413 0 1.244 1.306 1.369 4.34 2.073 2.6 0.584 5.697 1.683 5.697 4.874 0 3.712-3.586 5.433-7.034 5.433z"></path>
</svg>
