<!-- Generated by IcoMoon.io -->
<svg version="1.1" xmlns="http://www.w3.org/2000/svg" width="28" height="32" viewBox="0 0 28 32">
<title>slack</title>
<path d="M15.337 13.193l1.212 3.624-3.756 1.256-1.212-3.624 3.756-1.256zM17.937 28.499c-9.672 2.902-13.855 0.653-16.757-9.019s-0.653-13.855 9.019-16.757c9.672-2.902 13.855-0.653 16.757 9.019s0.653 13.855-9.019 16.757zM23 16.177c-0.245-0.766-1.080-1.168-1.847-0.923l-1.821 0.609-1.212-3.624 1.821-0.609c0.766-0.245 1.168-1.080 0.923-1.847s-1.080-1.168-1.847-0.923l-1.821 0.609-0.628-1.89c-0.245-0.766-1.080-1.168-1.847-0.923s-1.168 1.080-0.923 1.847l0.628 1.89-3.756 1.262-0.628-1.89c-0.245-0.766-1.080-1.168-1.847-0.923s-1.168 1.080-0.923 1.847l0.628 1.89-1.821 0.609c-0.766 0.245-1.168 1.080-0.923 1.847 0.201 0.584 0.766 0.967 1.35 0.992 0.27 0.038 0.484-0.063 2.317-0.672l1.212 3.624-1.821 0.609c-0.766 0.245-1.168 1.080-0.923 1.847 0.201 0.584 0.766 0.967 1.35 0.992 0.27 0.038 0.484-0.063 2.317-0.672l0.628 1.89c0.232 0.678 0.992 1.168 1.847 0.923 0.766-0.245 1.168-1.080 0.923-1.847l-0.628-1.89 3.756-1.262 0.628 1.89c0.232 0.678 0.992 1.168 1.847 0.923 0.766-0.245 1.168-1.080 0.923-1.847l-0.628-1.89 1.821-0.609c0.766-0.264 1.168-1.099 0.923-1.859z"></path>
</svg>
