<!-- Generated by IcoMoon.io -->
<svg version="1.1" xmlns="http://www.w3.org/2000/svg" width="40" height="32" viewBox="0 0 40 32">
<title>sleigh</title>
<path d="M38.481 21.559l-0.584-0.465c-0.433-0.345-1.068-0.276-1.413 0.157l-0.628 0.785c-0.345 0.433-0.276 1.068 0.157 1.413l0.584 0.465c0.371 0.295 0.578 0.735 0.578 1.206 0 0.854-0.691 1.545-1.545 1.545h-32.615c-0.553 0-1.005 0.452-1.005 1.005v1.005c0 0.553 0.452 1.005 1.005 1.005h32.408c2.449 0 4.629-1.84 4.767-4.29 0.088-1.495-0.546-2.908-1.708-3.831zM2.010 13.602c0 3.743 2.569 6.858 6.029 7.757v3.297h4.020v-3.015h12.059v3.015h4.020v-3.015c3.329 0 6.029-2.701 6.029-6.029v-6.029c1.112 0 2.010-0.898 2.010-2.010s-0.898-2.010-2.010-2.010h-6.029v4.020c0 2.217-1.802 4.020-4.020 4.020h-1.3c-4.133 0-7.907-2.336-9.754-6.029s-5.627-6.029-9.754-6.029h-1.3c-1.112 0-2.010 0.898-2.010 2.010s0.898 2.010 2.010 2.010v8.039z"></path>
</svg>
