<!-- Generated by IcoMoon.io -->
<svg version="1.1" xmlns="http://www.w3.org/2000/svg" width="32" height="32" viewBox="0 0 32 32">
<title>sliders-h</title>
<path d="M31.152 23.651h-21.103v-1.005c0-0.553-0.452-1.005-1.005-1.005h-2.010c-0.553 0-1.005 0.452-1.005 1.005v1.005h-5.024c-0.553 0-1.005 0.452-1.005 1.005v2.010c0 0.553 0.452 1.005 1.005 1.005h5.024v1.005c0 0.553 0.452 1.005 1.005 1.005h2.010c0.553 0 1.005-0.452 1.005-1.005v-1.005h21.103c0.553 0 1.005-0.452 1.005-1.005v-2.010c0-0.553-0.452-1.005-1.005-1.005zM31.152 13.602h-5.024v-1.005c0-0.553-0.452-1.005-1.005-1.005h-2.010c-0.553 0-1.005 0.452-1.005 1.005v1.005h-21.103c-0.553 0-1.005 0.452-1.005 1.005v2.010c0 0.553 0.452 1.005 1.005 1.005h21.103v1.005c0 0.553 0.452 1.005 1.005 1.005h2.010c0.553 0 1.005-0.452 1.005-1.005v-1.005h5.024c0.553 0 1.005-0.452 1.005-1.005v-2.010c0-0.553-0.452-1.005-1.005-1.005zM31.152 3.553h-13.064v-1.005c0-0.553-0.452-1.005-1.005-1.005h-2.010c-0.553 0-1.005 0.452-1.005 1.005v1.005h-13.064c-0.553 0-1.005 0.452-1.005 1.005v2.010c0 0.553 0.452 1.005 1.005 1.005h13.064v1.005c0 0.553 0.452 1.005 1.005 1.005h2.010c0.553 0 1.005-0.452 1.005-1.005v-1.005h13.064c0.553 0 1.005-0.452 1.005-1.005v-2.010c0-0.553-0.452-1.005-1.005-1.005z"></path>
</svg>
