<!-- Generated by IcoMoon.io -->
<svg version="1.1" xmlns="http://www.w3.org/2000/svg" width="32" height="32" viewBox="0 0 32 32">
<title>slideshare</title>
<path d="M15.666 12.812c0 1.992-1.741 3.625-3.876 3.625s-3.876-1.633-3.876-3.625c0-2.010 1.741-3.625 3.876-3.625s3.876 1.615 3.876 3.625zM31.637 15.953c-1.148 1.418-3.338 3.158-6.676 4.522 3.535 12.041-8.632 13.961-8.434 7.788 0 0.108-0.018-3.32-0.018-5.868-0.269-0.054-0.538-0.126-0.861-0.197 0 2.566-0.018 6.173-0.018 6.066 0.197 6.173-11.97 4.253-8.434-7.788-3.338-1.364-5.527-3.105-6.676-4.522-0.574-0.861 0.054-1.777 1.005-1.113 0.126 0.090 0.269 0.18 0.395 0.269v-12.454c0-1.723 1.292-3.122 2.889-3.122h22.557c1.597 0 2.889 1.4 2.889 3.122v12.454l0.377-0.269c0.951-0.664 1.579 0.251 1.005 1.113zM28.712 4.073c0-2.064-0.664-2.871-2.566-2.871h-19.955c-1.992 0-2.548 0.682-2.548 2.871v12.077c4.253 2.225 7.896 1.83 9.888 1.759 0.843-0.018 1.382 0.143 1.705 0.485 0.106 0.106 0.63 0.593 1.274 1.077 0.072-0.987 0.628-1.615 2.118-1.561 2.028 0.090 5.76 0.485 10.085-1.866v-11.969zM20.798 9.188c-2.136 0-3.876 1.615-3.876 3.625 0 1.992 1.741 3.625 3.876 3.625 2.153 0 3.876-1.633 3.876-3.625 0-2.010-1.723-3.625-3.876-3.625z"></path>
</svg>
