<!-- Generated by IcoMoon.io -->
<svg version="1.1" xmlns="http://www.w3.org/2000/svg" width="32" height="32" viewBox="0 0 32 32">
<title>smart_key</title>
<path d="M8.219 29.5h-4.425c-0.534 0-0.856-0.298-1-0.475-0.249-0.307-0.346-0.706-0.265-1.095 1.298-6.235 6.801-10.788 13.153-10.936 0.106 0.004 0.212 0.007 0.319 0.007s0.215-0.003 0.321-0.007c1.553 0.035 3.071 0.328 4.515 0.87 0.646 0.243 1.367-0.084 1.61-0.731s-0.084-1.367-0.731-1.61c-0.207-0.078-0.415-0.15-0.625-0.22 2.069-1.552 3.41-4.024 3.41-6.803 0-4.687-3.813-8.5-8.5-8.5s-8.5 3.813-8.5 8.5c0 2.782 1.343 5.256 3.415 6.807-1.898 0.625-3.679 1.597-5.238 2.879-2.858 2.351-4.846 5.63-5.596 9.234-0.235 1.129 0.046 2.289 0.773 3.182 0.723 0.889 1.794 1.398 2.939 1.398h4.425c0.69 0 1.25-0.56 1.25-1.25s-0.56-1.25-1.25-1.25zM10 8.5c0-3.308 2.692-6 6-6s6 2.692 6 6c0 3.21-2.535 5.84-5.708 5.993-0.097-0.002-0.195-0.003-0.292-0.003s-0.195 0.001-0.293 0.003c-3.173-0.153-5.707-2.783-5.707-5.993zM31.043 21.538c-0.535-1.197-1.74-1.972-3.073-1.975h-3.898c-0.003 0-0.005 0-0.008 0-1.406 0-2.633 0.829-3.127 2.113-0.066 0.171-0.146 0.386-0.23 0.637h-8.184c-0.338 0-0.661 0.137-0.897 0.379l-2.147 2.212c-0.473 0.487-0.471 1.263 0.005 1.747l2.188 2.226c0.235 0.239 0.556 0.374 0.892 0.374h4.062c0.69 0 1.25-0.56 1.25-1.25s-0.56-1.25-1.25-1.25h-3.538l-0.964-0.981 0.929-0.956h8.593c0.576 0 1.077-0.393 1.214-0.953 0.101-0.413 0.228-0.81 0.412-1.287 0.121-0.315 0.425-0.51 0.796-0.51 0.001 0 0.002 0 0.002 0h3.898c0.354 0.001 0.658 0.191 0.794 0.496 0.336 0.751 0.736 1.913 0.739 3.187 0.003 1.283-0.397 2.472-0.734 3.243-0.136 0.311-0.442 0.512-0.785 0.512-0.001 0-0.001 0-0.002 0h-3.945c-0.346-0.001-0.67-0.223-0.806-0.554-0.146-0.354-0.273-0.759-0.387-1.237-0.161-0.671-0.835-1.085-1.507-0.925s-1.085 0.835-0.925 1.507c0.145 0.606 0.311 1.132 0.508 1.609 0.525 1.273 1.746 2.097 3.114 2.1h3.945c0.003 0 0.005 0 0.008 0 1.334-0 2.54-0.789 3.074-2.013 0.432-0.991 0.946-2.532 0.942-4.248-0.004-1.712-0.523-3.229-0.957-4.201zM28.188 25.75c0 0.69-0.56 1.25-1.25 1.25s-1.25-0.56-1.25-1.25c0-0.69 0.56-1.25 1.25-1.25s1.25 0.56 1.25 1.25z"></path>
</svg>
