<!-- Generated by IcoMoon.io -->
<svg version="1.1" xmlns="http://www.w3.org/2000/svg" width="31" height="32" viewBox="0 0 31 32">
<title>smile-beam1</title>
<path d="M15.576 0.035c-8.604 0-15.576 6.971-15.576 15.576s6.971 15.576 15.576 15.576 15.576-6.971 15.576-15.576-6.971-15.576-15.576-15.576zM7.034 13.564c0.207-2.644 2.022-4.484 3.517-4.484s3.31 1.84 3.517 4.484c0.044 0.54-0.678 0.747-0.936 0.283l-0.597-1.068c-0.484-0.86-1.206-1.357-1.978-1.357s-1.495 0.496-1.978 1.357l-0.597 1.068c-0.27 0.465-0.992 0.251-0.948-0.283zM22.786 21.276c-1.79 2.148-4.415 3.379-7.21 3.379s-5.42-1.231-7.21-3.379c-0.848-1.024 0.691-2.305 1.545-1.288 1.407 1.69 3.467 2.65 5.665 2.65s4.258-0.967 5.665-2.65c0.854-1.017 2.393 0.27 1.545 1.288zM23.175 13.847l-0.597-1.068c-0.484-0.86-1.206-1.357-1.978-1.357s-1.495 0.496-1.978 1.357l-0.597 1.068c-0.258 0.458-0.98 0.251-0.936-0.283 0.207-2.644 2.022-4.484 3.517-4.484s3.31 1.84 3.517 4.484c0.038 0.54-0.691 0.747-0.948 0.283z"></path>
</svg>
