<!-- Generated by IcoMoon.io -->
<svg version="1.1" xmlns="http://www.w3.org/2000/svg" width="31" height="32" viewBox="0 0 31 32">
<title>smile-beam</title>
<path d="M15.576 0.035c-8.604 0-15.576 6.971-15.576 15.576s6.971 15.576 15.576 15.576 15.576-6.971 15.576-15.576-6.971-15.576-15.576-15.576zM15.576 28.173c-6.928 0-12.561-5.634-12.561-12.561s5.634-12.561 12.561-12.561 12.561 5.634 12.561 12.561-5.634 12.561-12.561 12.561zM20.852 19.166c-1.306 1.57-3.235 2.475-5.276 2.475s-3.969-0.898-5.276-2.475c-0.534-0.641-1.482-0.722-2.123-0.195-0.641 0.534-0.722 1.482-0.195 2.123 1.884 2.261 4.654 3.555 7.593 3.555s5.709-1.294 7.593-3.555c0.534-0.641 0.446-1.589-0.195-2.123-0.641-0.527-1.589-0.446-2.123 0.195zM8.573 12.785c0.484-0.86 1.206-1.357 1.978-1.357s1.495 0.496 1.978 1.357l0.597 1.068c0.132 0.232 0.389 0.295 0.584 0.232 0.226-0.069 0.377-0.283 0.358-0.521-0.207-2.644-2.022-4.484-3.517-4.484s-3.31 1.84-3.517 4.484c-0.019 0.232 0.132 0.452 0.358 0.521 0.214 0.069 0.465-0.031 0.584-0.232l0.597-1.068zM20.6 9.080c-1.495 0-3.31 1.84-3.517 4.484-0.019 0.232 0.132 0.452 0.358 0.521 0.22 0.069 0.465-0.031 0.584-0.232l0.597-1.068c0.484-0.86 1.206-1.357 1.978-1.357s1.495 0.496 1.978 1.357l0.597 1.068c0.132 0.232 0.389 0.295 0.584 0.232 0.226-0.069 0.377-0.283 0.358-0.521-0.207-2.644-2.022-4.484-3.517-4.484z"></path>
</svg>
