<!-- Generated by IcoMoon.io -->
<svg version="1.1" xmlns="http://www.w3.org/2000/svg" width="31" height="32" viewBox="0 0 31 32">
<title>smile-wink1</title>
<path d="M0 15.611c0 8.604 6.971 15.576 15.576 15.576s15.576-6.971 15.576-15.576-6.971-15.576-15.576-15.576-15.576 6.971-15.576 15.576zM12.561 12.597c0 1.112-0.898 2.010-2.010 2.010s-2.010-0.898-2.010-2.010 0.898-2.010 2.010-2.010 2.010 0.898 2.010 2.010zM22.516 13.633c-0.93-0.829-2.902-0.829-3.831 0l-0.597 0.534c-0.521 0.465-1.357 0.025-1.244-0.678 0.251-1.583 2.148-2.644 3.762-2.644s3.511 1.061 3.762 2.644c0.107 0.697-0.716 1.149-1.244 0.678l-0.609-0.534zM9.911 19.995c1.407 1.69 3.467 2.65 5.665 2.65s4.258-0.967 5.665-2.65c0.854-1.017 2.393 0.264 1.545 1.288-1.79 2.142-4.415 3.373-7.21 3.373s-5.42-1.231-7.21-3.379c-0.848-1.024 0.703-2.305 1.545-1.281z"></path>
</svg>
