<!-- Generated by IcoMoon.io -->
<svg version="1.1" xmlns="http://www.w3.org/2000/svg" width="31" height="32" viewBox="0 0 31 32">
<title>smile</title>
<path d="M15.576 0.035c-8.604 0-15.576 6.971-15.576 15.576s6.971 15.576 15.576 15.576 15.576-6.971 15.576-15.576-6.971-15.576-15.576-15.576zM15.576 28.173c-6.928 0-12.561-5.634-12.561-12.561s5.634-12.561 12.561-12.561 12.561 5.634 12.561 12.561-5.634 12.561-12.561 12.561zM10.551 14.606c1.112 0 2.010-0.898 2.010-2.010s-0.898-2.010-2.010-2.010-2.010 0.898-2.010 2.010 0.898 2.010 2.010 2.010zM20.6 14.606c1.112 0 2.010-0.898 2.010-2.010s-0.898-2.010-2.010-2.010-2.010 0.898-2.010 2.010 0.898 2.010 2.010 2.010zM20.852 19.166c-1.306 1.57-3.235 2.475-5.276 2.475s-3.969-0.898-5.276-2.475c-0.534-0.641-1.488-0.722-2.123-0.195-0.641 0.534-0.722 1.482-0.195 2.123 1.884 2.261 4.654 3.555 7.593 3.555s5.709-1.294 7.593-3.555c0.534-0.641 0.446-1.589-0.195-2.123-0.634-0.527-1.589-0.446-2.123 0.195z"></path>
</svg>
