<!-- Generated by IcoMoon.io -->
<svg version="1.1" xmlns="http://www.w3.org/2000/svg" width="31" height="32" viewBox="0 0 31 32">
<title>smile1</title>
<path d="M15.576 0.035c-8.604 0-15.576 6.971-15.576 15.576s6.971 15.576 15.576 15.576 15.576-6.971 15.576-15.576-6.971-15.576-15.576-15.576zM20.6 10.587c1.112 0 2.010 0.898 2.010 2.010s-0.898 2.010-2.010 2.010-2.010-0.898-2.010-2.010 0.898-2.010 2.010-2.010zM10.551 10.587c1.112 0 2.010 0.898 2.010 2.010s-0.898 2.010-2.010 2.010-2.010-0.898-2.010-2.010 0.898-2.010 2.010-2.010zM22.786 21.276c-1.79 2.148-4.415 3.379-7.21 3.379s-5.42-1.231-7.21-3.379c-0.854-1.024 0.691-2.305 1.545-1.288 1.407 1.69 3.467 2.65 5.665 2.65s4.258-0.967 5.665-2.65c0.842-1.017 2.393 0.264 1.545 1.288z"></path>
</svg>
