<!-- Generated by IcoMoon.io -->
<svg version="1.1" xmlns="http://www.w3.org/2000/svg" width="31" height="32" viewBox="0 0 31 32">
<title>smile-wink</title>
<path d="M15.576 0.035c-8.604 0-15.576 6.971-15.576 15.576s6.971 15.576 15.576 15.576 15.576-6.971 15.576-15.576-6.971-15.576-15.576-15.576zM15.576 28.173c-6.928 0-12.561-5.634-12.561-12.561s5.634-12.561 12.561-12.561 12.561 5.634 12.561 12.561-5.634 12.561-12.561 12.561zM22.974 18.978c-0.641-0.534-1.589-0.446-2.123 0.195-1.306 1.57-3.235 2.475-5.276 2.475s-3.969-0.898-5.276-2.475c-0.534-0.641-1.488-0.722-2.123-0.195-0.641 0.534-0.722 1.482-0.195 2.123 1.884 2.261 4.654 3.555 7.593 3.555s5.709-1.294 7.593-3.555c0.534-0.641 0.446-1.589-0.195-2.123zM10.551 14.606c1.112 0 2.010-0.898 2.010-2.010s-0.898-2.010-2.010-2.010-2.010 0.898-2.010 2.010 0.898 2.010 2.010 2.010zM20.6 10.838c-1.614 0-3.511 1.061-3.762 2.644-0.107 0.703 0.722 1.143 1.244 0.678l0.597-0.534c0.93-0.829 2.902-0.829 3.831 0l0.597 0.534c0.534 0.465 1.357 0.019 1.244-0.678-0.239-1.583-2.135-2.644-3.75-2.644z"></path>
</svg>
