<!-- Generated by IcoMoon.io -->
<svg version="1.1" xmlns="http://www.w3.org/2000/svg" width="40" height="32" viewBox="0 0 40 32">
<title>smog</title>
<path d="M39.191 22.646h-34.167c-0.553 0-1.005 0.452-1.005 1.005v1.005c0 0.553 0.452 1.005 1.005 1.005h34.167c0.553 0 1.005-0.452 1.005-1.005v-1.005c0-0.553-0.452-1.005-1.005-1.005zM9.044 28.675h-8.039c-0.553 0-1.005 0.452-1.005 1.005v1.005c0 0.553 0.452 1.005 1.005 1.005h8.039c0.553 0 1.005-0.452 1.005-1.005v-1.005c0-0.553-0.452-1.005-1.005-1.005zM35.171 28.675h-21.103c-0.553 0-1.005 0.452-1.005 1.005v1.005c0 0.553 0.452 1.005 1.005 1.005h21.103c0.553 0 1.005-0.452 1.005-1.005v-1.005c0-0.553-0.452-1.005-1.005-1.005zM9.044 17.621h9.804c1.413 1.237 3.241 2.010 5.269 2.010s3.85-0.773 5.269-2.010h3.775c3.888 0 7.034-3.147 7.034-7.034s-3.147-7.034-7.034-7.034c-1.13 0-2.179 0.289-3.121 0.76-1.526-2.833-4.491-4.78-7.932-4.78-2.575 0-4.886 1.087-6.532 2.814-1.645-1.727-3.957-2.814-6.532-2.814-4.993 0-9.044 4.051-9.044 9.044s4.051 9.044 9.044 9.044z"></path>
</svg>
