<!-- Generated by IcoMoon.io -->
<svg version="1.1" xmlns="http://www.w3.org/2000/svg" width="32" height="32" viewBox="0 0 32 32">
<title>smoking-ban</title>
<path d="M6.029 18.626c0 0.553 0.452 1.005 1.005 1.005h7.38l-6.029-6.029h-1.35c-0.553 0-1.005 0.452-1.005 1.005v4.020zM16.078-0.467c-8.881 0-16.078 7.198-16.078 16.078s7.198 16.078 16.078 16.078 16.078-7.198 16.078-16.078-7.198-16.078-16.078-16.078zM16.078 27.67c-6.651 0-12.059-5.408-12.059-12.059 0-2.6 0.835-5.006 2.242-6.978l16.794 16.794c-1.972 1.407-4.378 2.242-6.978 2.242zM18.917 15.611h5.2v2.010h-3.191l-2.010-2.010zM25.895 22.589l-2.958-2.958h2.186c0.553 0 1.005-0.452 1.005-1.005v-4.020c0-0.553-0.452-1.005-1.005-1.005h-8.215l-7.807-7.807c1.972-1.407 4.378-2.242 6.978-2.242 6.651 0 12.059 5.408 12.059 12.059 0 2.6-0.835 5.006-2.242 6.978zM20.136 7.572c-0.98 0-1.796-0.703-1.972-1.627-0.044-0.226-0.251-0.383-0.484-0.383h-1.017c-0.314 0-0.546 0.283-0.503 0.59 0.289 1.941 1.96 3.429 3.976 3.429 0.98 0 1.796 0.703 1.972 1.627 0.044 0.226 0.251 0.383 0.484 0.383h1.017c0.314 0 0.546-0.283 0.503-0.59-0.289-1.941-1.96-3.429-3.976-3.429z"></path>
</svg>
