<!-- Generated by IcoMoon.io -->
<svg version="1.1" xmlns="http://www.w3.org/2000/svg" width="40" height="32" viewBox="0 0 40 32">
<title>smoking</title>
<path d="M39.693 21.641h-3.015c-0.276 0-0.502 0.226-0.502 0.503v9.044c0 0.276 0.226 0.503 0.502 0.503h3.015c0.276 0 0.502-0.226 0.502-0.503v-9.044c0-0.276-0.226-0.503-0.502-0.503zM34.751 5.003c-0.358-0.239-0.584-0.628-0.584-1.055v-3.913c0-0.276-0.226-0.502-0.502-0.502h-3.015c-0.276 0-0.503 0.226-0.503 0.502v3.913c0 1.382 0.641 2.726 1.796 3.479 2.65 1.715 4.233 4.635 4.233 7.788v1.903c0 0.276 0.226 0.503 0.502 0.503h3.015c0.276 0 0.502-0.226 0.502-0.503v-1.903c0-4.114-2.035-7.926-5.445-10.212zM27.132 21.641h-24.118c-1.664 0-3.015 1.35-3.015 3.015v4.020c0 1.664 1.35 3.015 3.015 3.015h24.118c0.553 0 1.005-0.452 1.005-1.005v-8.039c0-0.553-0.452-1.005-1.005-1.005zM25.122 28.675h-11.054v-4.020h11.054v4.020zM30.63 8.426c-1.501-1.043-2.493-2.657-2.493-4.478v-3.913c0-0.276-0.226-0.502-0.503-0.502h-3.015c-0.276 0-0.503 0.226-0.503 0.502v4.17c0 2.745 1.545 5.125 3.787 6.701 1.407 0.986 2.242 2.588 2.242 4.309v1.903c0 0.276 0.226 0.503 0.503 0.503h3.015c0.276 0 0.502-0.226 0.502-0.503v-1.903c0-2.72-1.319-5.238-3.536-6.789zM33.664 21.641h-3.015c-0.276 0-0.503 0.226-0.503 0.503v9.044c0 0.276 0.226 0.503 0.503 0.503h3.015c0.276 0 0.502-0.226 0.502-0.503v-9.044c0-0.276-0.226-0.503-0.502-0.503z"></path>
</svg>
