<!-- Generated by IcoMoon.io -->
<svg version="1.1" xmlns="http://www.w3.org/2000/svg" width="32" height="32" viewBox="0 0 32 32">
<title>sms</title>
<path d="M16.078 1.543c-8.881 0-16.078 5.847-16.078 13.064 0 3.115 1.344 5.967 3.58 8.209-0.785 3.165-3.41 5.985-3.442 6.017-0.138 0.145-0.176 0.358-0.094 0.546s0.258 0.301 0.458 0.301c4.164 0 7.285-1.997 8.831-3.228 2.054 0.773 4.334 1.218 6.745 1.218 8.881 0 16.078-5.847 16.078-13.064s-7.198-13.064-16.078-13.064zM8.052 18.626h-0.766c-0.276 0-0.503-0.226-0.503-0.503v-1.005c0-0.276 0.226-0.503 0.502-0.503h0.773c0.377 0 0.653-0.22 0.653-0.415 0-0.082-0.050-0.17-0.132-0.239l-1.375-1.181c-0.534-0.452-0.835-1.099-0.835-1.765 0-1.338 1.193-2.424 2.663-2.424h0.766c0.276 0 0.502 0.226 0.502 0.502v1.005c0 0.276-0.226 0.502-0.502 0.502h-0.773c-0.377 0-0.653 0.22-0.653 0.415 0 0.082 0.050 0.17 0.132 0.239l1.375 1.181c0.534 0.452 0.835 1.099 0.835 1.765 0.006 1.338-1.193 2.424-2.663 2.424zM20.098 18.124c0 0.276-0.226 0.503-0.503 0.503h-1.005c-0.276 0-0.503-0.226-0.503-0.503v-4.283l-1.558 3.505c-0.182 0.371-0.716 0.371-0.898 0l-1.564-3.505v4.283c0 0.276-0.226 0.503-0.502 0.503h-1.005c-0.276 0-0.502-0.226-0.502-0.503v-6.532c0-0.553 0.452-1.005 1.005-1.005h1.005c0.383 0 0.729 0.214 0.898 0.553l1.112 2.223 1.112-2.223c0.17-0.339 0.521-0.553 0.898-0.553h1.005c0.553 0 1.005 0.452 1.005 1.005v6.532zM23.131 18.626h-0.773c-0.276 0-0.503-0.226-0.503-0.503v-1.005c0-0.276 0.226-0.503 0.503-0.503h0.773c0.377 0 0.653-0.22 0.653-0.415 0-0.082-0.050-0.17-0.132-0.239l-1.375-1.181c-0.534-0.452-0.835-1.099-0.835-1.765 0-1.338 1.193-2.424 2.663-2.424h0.766c0.276 0 0.503 0.226 0.503 0.502v1.005c0 0.276-0.226 0.502-0.503 0.502h-0.773c-0.377 0-0.653 0.22-0.653 0.415 0 0.082 0.050 0.17 0.132 0.239l1.375 1.181c0.534 0.452 0.835 1.099 0.835 1.765 0.006 1.338-1.187 2.424-2.657 2.424z"></path>
</svg>
