<!-- Generated by IcoMoon.io -->
<svg version="1.1" xmlns="http://www.w3.org/2000/svg" width="28" height="32" viewBox="0 0 28 32">
<title>snapchat-square</title>
<path d="M25.122 1.543h-22.108c-1.664 0-3.015 1.35-3.015 3.015v22.108c0 1.664 1.35 3.015 3.015 3.015h22.108c1.664 0 3.015-1.35 3.015-3.015v-22.108c0-1.664-1.35-3.015-3.015-3.015zM24.714 21.32c-0.22 0.509-1.137 0.879-2.814 1.143-0.088 0.119-0.157 0.615-0.27 0.999-0.069 0.232-0.232 0.371-0.509 0.371h-0.012c-0.389 0-0.804-0.182-1.62-0.182-1.105 0-1.488 0.251-2.349 0.86-0.911 0.647-1.784 1.2-3.090 1.143-1.319 0.1-2.424-0.703-3.046-1.143-0.867-0.609-1.244-0.86-2.349-0.86-0.785 0-1.281 0.195-1.62 0.195s-0.471-0.207-0.521-0.377c-0.113-0.383-0.182-0.886-0.27-1.005-0.867-0.132-2.814-0.471-2.858-1.344-0.013-0.226 0.144-0.427 0.371-0.465 2.908-0.477 4.214-3.461 4.271-3.586 0-0.006 0.006-0.012 0.012-0.019 0.157-0.314 0.188-0.578 0.1-0.785-0.214-0.496-1.124-0.672-1.507-0.829-0.992-0.389-1.13-0.842-1.068-1.149 0.1-0.534 0.904-0.867 1.375-0.647 0.371 0.176 0.703 0.264 0.986 0.264 0.207 0 0.345-0.050 0.415-0.088-0.088-1.501-0.295-3.643 0.239-4.842 1.413-3.159 4.403-3.41 5.282-3.41 0.038 0 0.383-0.006 0.421-0.006 2.179 0 4.271 1.118 5.295 3.41 0.534 1.2 0.327 3.335 0.239 4.842 0.069 0.038 0.182 0.082 0.358 0.088 0.27-0.012 0.578-0.1 0.923-0.264 0.251-0.119 0.603-0.1 0.854 0 0.396 0.145 0.647 0.427 0.653 0.747 0.006 0.408-0.358 0.76-1.080 1.043-0.088 0.038-0.195 0.069-0.308 0.107-0.408 0.132-1.030 0.327-1.193 0.722-0.088 0.207-0.050 0.471 0.1 0.785 0.006 0.006 0.006 0.012 0.012 0.019 0.057 0.126 1.363 3.109 4.271 3.586 0.251 0.063 0.446 0.345 0.308 0.678z"></path>
</svg>
