<!-- Generated by IcoMoon.io -->
<svg version="1.1" xmlns="http://www.w3.org/2000/svg" width="32" height="32" viewBox="0 0 32 32">
<title>snapchat-ghost</title>
<path d="M32.084 24.195c-0.327 0.764-1.711 1.324-4.231 1.716-0.13 0.175-0.237 0.922-0.409 1.505-0.102 0.35-0.353 0.557-0.762 0.557l-0.019-0c-0.59 0-1.206-0.271-2.44-0.271-1.666 0-2.24 0.38-3.533 1.293-1.371 0.97-2.686 1.806-4.649 1.721-1.988 0.147-3.644-1.062-4.577-1.721-1.301-0.92-1.873-1.293-3.532-1.293-1.185 0-1.93 0.296-2.44 0.296-0.507 0-0.704-0.309-0.78-0.568-0.17-0.577-0.277-1.335-0.41-1.515-1.299-0.201-4.228-0.712-4.302-2.019-0.001-0.011-0.001-0.024-0.001-0.037 0-0.33 0.24-0.604 0.555-0.658l0.004-0.001c4.37-0.719 6.339-5.207 6.42-5.397 0.005-0.011 0.010-0.022 0.015-0.032 0.233-0.473 0.285-0.87 0.155-1.178-0.317-0.747-1.688-1.015-2.264-1.243-1.489-0.588-1.697-1.264-1.609-1.727 0.153-0.806 1.364-1.302 2.073-0.97 0.56 0.263 1.058 0.395 1.479 0.395 0.315 0 0.516-0.076 0.626-0.136-0.128-2.257-0.446-5.482 0.357-7.284 2.121-4.756 6.617-5.125 7.944-5.125 0.059 0 0.574-0.006 0.635-0.006 3.275 0 6.422 1.682 7.959 5.128 0.802 1.799 0.487 5.011 0.358 7.286 0.099 0.055 0.274 0.122 0.54 0.134 0.402-0.018 0.868-0.15 1.386-0.393 0.382-0.179 0.905-0.155 1.286 0.004l0.002 0.001c0.595 0.213 0.97 0.642 0.979 1.122 0.012 0.612-0.535 1.141-1.625 1.571-0.133 0.053-0.295 0.104-0.467 0.159-0.615 0.195-1.545 0.49-1.797 1.085-0.131 0.308-0.079 0.704 0.155 1.178 0.005 0.011 0.010 0.022 0.015 0.032 0.082 0.19 2.048 4.677 6.421 5.397 0.404 0.066 0.701 0.495 0.485 0.996z"></path>
</svg>
