<!-- Generated by IcoMoon.io -->
<svg version="1.1" xmlns="http://www.w3.org/2000/svg" width="28" height="32" viewBox="0 0 28 32">
<title>snowflake</title>
<path d="M27.641 21.842l-2.462-1.445 2.142-0.584c0.527-0.145 0.842-0.697 0.697-1.231l-0.258-0.973c-0.138-0.534-0.685-0.854-1.212-0.71l-5.006 1.363-4.509-2.65 4.516-2.65 5.006 1.363c0.527 0.145 1.068-0.176 1.212-0.71l0.258-0.973c0.138-0.534-0.17-1.087-0.697-1.231l-2.142-0.584 2.462-1.445c0.471-0.276 0.634-0.892 0.364-1.375l-0.496-0.873c-0.27-0.484-0.879-0.647-1.35-0.371l-2.462 1.445 0.572-2.179c0.138-0.534-0.17-1.087-0.697-1.231l-0.955-0.258c-0.527-0.144-1.068 0.176-1.212 0.71l-1.338 5.087-4.516 2.65v-5.307l3.662-3.724c0.383-0.389 0.383-1.030 0-1.419l-0.697-0.71c-0.383-0.389-1.011-0.389-1.394 0l-1.564 1.595v-2.883c0-0.553-0.44-1.005-0.986-1.005h-0.986c-0.546 0-0.986 0.452-0.986 1.005v2.895l-1.564-1.595c-0.383-0.389-1.011-0.389-1.394 0l-0.722 0.71c-0.383 0.389-0.383 1.030 0 1.419l3.662 3.724v5.307l-4.516-2.65-1.338-5.087c-0.138-0.534-0.685-0.854-1.212-0.71l-0.955 0.258c-0.527 0.144-0.842 0.697-0.697 1.231l0.572 2.179-2.462-1.445c-0.471-0.276-1.074-0.113-1.35 0.371l-0.496 0.873c-0.27 0.484-0.113 1.093 0.364 1.375l2.462 1.445-2.142 0.572c-0.527 0.145-0.842 0.697-0.697 1.231l0.258 0.973c0.138 0.534 0.685 0.854 1.212 0.71l5.006-1.363 4.516 2.65-4.516 2.65-5.006-1.363c-0.527-0.145-1.068 0.176-1.212 0.71l-0.258 0.973c-0.138 0.534 0.17 1.087 0.697 1.231l2.142 0.584-2.462 1.445c-0.471 0.276-0.634 0.892-0.364 1.375l0.496 0.873c0.27 0.484 0.879 0.647 1.35 0.371l2.462-1.445-0.572 2.179c-0.138 0.534 0.17 1.087 0.697 1.231l0.955 0.258c0.527 0.145 1.068-0.176 1.212-0.71l1.338-5.087 4.516-2.65v5.307l-3.662 3.724c-0.383 0.389-0.383 1.030 0 1.419l0.697 0.71c0.383 0.389 1.011 0.389 1.394 0l1.564-1.595v2.883c0 0.553 0.44 1.005 0.986 1.005h0.986c0.546 0 0.986-0.452 0.986-1.005v-2.895l1.564 1.595c0.383 0.389 1.011 0.389 1.394 0l0.697-0.71c0.383-0.389 0.383-1.030 0-1.419l-3.662-3.724v-5.307l4.516 2.65 1.338 5.087c0.138 0.534 0.685 0.854 1.212 0.71l0.955-0.258c0.527-0.145 0.842-0.697 0.697-1.231l-0.572-2.179 2.462 1.445c0.471 0.276 1.074 0.113 1.35-0.371l0.496-0.873c0.289-0.471 0.132-1.087-0.345-1.363z"></path>
</svg>
