<!-- Generated by IcoMoon.io -->
<svg version="1.1" xmlns="http://www.w3.org/2000/svg" width="40" height="32" viewBox="0 0 40 32">
<title>snowplow</title>
<path d="M7.537 23.148c-0.835 0-1.507 0.672-1.507 1.507s0.672 1.507 1.507 1.507 1.507-0.672 1.507-1.507-0.672-1.507-1.507-1.507zM12.561 23.148c-0.835 0-1.507 0.672-1.507 1.507s0.672 1.507 1.507 1.507 1.507-0.672 1.507-1.507-0.672-1.507-1.507-1.507zM17.586 23.148c-0.835 0-1.507 0.672-1.507 1.507s0.672 1.507 1.507 1.507 1.507-0.672 1.507-1.507-0.672-1.507-1.507-1.507zM22.61 23.148c-0.835 0-1.507 0.672-1.507 1.507s0.672 1.507 1.507 1.507 1.507-0.672 1.507-1.507-0.672-1.507-1.507-1.507zM37.596 26.251c-0.911-0.911-1.419-2.142-1.419-3.429v-6.381c0-1.287 0.509-2.519 1.419-3.429l2.305-2.305c0.389-0.389 0.389-1.030 0-1.419l-1.419-1.419c-0.389-0.389-1.030-0.389-1.419 0l-2.305 2.305c-1.664 1.664-2.6 3.919-2.6 6.274v1.175h-4.020v-3.197c0-0.546-0.113-1.080-0.327-1.583l-4.918-11.481c-0.477-1.112-1.564-1.828-2.776-1.828h-9.063c-1.664 0-3.015 1.35-3.015 3.015v7.034h-1.005c-1.664 0-3.015 1.35-3.015 3.015v5.728c-2.368 1.13-4.020 3.53-4.020 6.331 0 3.888 3.147 7.034 7.034 7.034h16.078c3.888 0 7.034-3.147 7.034-7.034 0-1.087-0.264-2.098-0.703-3.015h2.713v1.175c0 2.355 0.936 4.61 2.6 6.274l2.305 2.305c0.389 0.389 1.030 0.389 1.419 0l1.419-1.419c0.389-0.389 0.389-1.030 0-1.419l-2.305-2.305zM12.059 3.553h7.399l4.309 10.049h-7.687l-4.020-4.020v-6.029zM23.113 27.67h-16.078c-1.664 0-3.015-1.35-3.015-3.015s1.35-3.015 3.015-3.015h16.078c1.664 0 3.015 1.35 3.015 3.015s-1.35 3.015-3.015 3.015z"></path>
</svg>
