<!-- Generated by IcoMoon.io -->
<svg version="1.1" xmlns="http://www.w3.org/2000/svg" width="32" height="32" viewBox="0 0 32 32">
<title>snowboarding</title>
<path d="M27.132 5.562c1.664 0 3.015-1.35 3.015-3.015s-1.35-3.015-3.015-3.015-3.015 1.35-3.015 3.015 1.35 3.015 3.015 3.015zM28.941 15.209c0.364 0.27 0.785 0.402 1.206 0.402 0.609 0 1.212-0.276 1.608-0.804 0.666-0.886 0.49-2.148-0.402-2.814l-6.997-5.244c-0.867-0.647-1.828-1.156-2.851-1.495l-4.001-1.332-1.639-3.272c-0.496-0.992-1.702-1.394-2.694-0.898s-1.394 1.702-0.898 2.694l1.828 3.649c0.358 0.716 0.98 1.25 1.74 1.507l1.030 0.345-2.588 1.294c-1.369 0.685-2.223 2.060-2.223 3.592v3.335l-4.654 1.551c-1.055 0.352-1.62 1.488-1.269 2.544 0.107 0.327 0.308 0.59 0.546 0.81l-2.431-0.886c-0.609-0.22-1.093-0.666-1.369-1.256-0.352-0.754-1.25-1.080-2.003-0.729s-1.080 1.25-0.729 2.003c0.615 1.319 1.702 2.317 3.071 2.814l22.912 8.334c0.609 0.22 1.237 0.333 1.865 0.333 0.785 0 1.564-0.17 2.292-0.515 0.754-0.352 1.080-1.25 0.729-2.003s-1.25-1.080-2.003-0.729c-0.584 0.276-1.244 0.301-1.853 0.082l-5.703-2.079c0.546-0.258 0.98-0.741 1.118-1.375l1.375-6.406c0.245-1.143-0.201-2.336-1.137-3.040l-3.266-2.449 4.145-1.916 5.244 3.95zM19.872 18.456l-1.237 5.778c-0.094 0.446-0.006 0.873 0.176 1.256l-10.639-3.869c0.17-0.012 0.339-0.025 0.502-0.082l5.339-1.784c1.231-0.408 2.060-1.558 2.060-2.858v-1.287l3.8 2.845z"></path>
</svg>
