<!-- Generated by IcoMoon.io -->
<svg version="1.1" xmlns="http://www.w3.org/2000/svg" width="32" height="32" viewBox="0 0 32 32">
<title>snowman</title>
<path d="M32.088 9.098l-0.371-0.911c-0.207-0.502-0.791-0.747-1.306-0.546l-1.771 0.722v-1.821c0-0.54-0.452-0.98-1.005-0.98h-1.005c-0.553 0-1.005 0.44-1.005 0.98v2.946c0 0.031 0.019 0.063 0.019 0.094l-3.542 1.445c-0.371-0.628-0.835-1.187-1.382-1.671 0.854-1.043 1.382-2.349 1.382-3.8 0-3.329-2.701-6.029-6.029-6.029s-6.029 2.701-6.029 6.029c0 1.451 0.534 2.757 1.382 3.8-0.546 0.484-1.005 1.043-1.382 1.671l-3.542-1.445c0.006-0.031 0.019-0.063 0.019-0.094v-2.946c0.013-0.54-0.44-0.98-0.992-0.98h-1.005c-0.553 0-1.005 0.44-1.005 0.98v1.821l-1.765-0.722c-0.515-0.201-1.099 0.044-1.306 0.546l-0.371 0.911c-0.207 0.502 0.044 1.074 0.559 1.275l8.491 3.467c-0.025 0.251-0.075 0.502-0.075 0.766 0 0.634 0.107 1.231 0.264 1.815-1.721 1.727-2.782 4.101-2.782 6.727 0 3.392 1.784 6.337 4.447 8.027 0.584 0.371 1.275 0.515 1.966 0.515h6.23c0.835 0 1.652-0.258 2.336-0.735 2.92-2.029 4.673-5.615 3.95-9.584-0.345-1.897-1.288-3.618-2.613-4.962 0.157-0.578 0.264-1.175 0.264-1.803 0-0.264-0.050-0.509-0.075-0.766l8.491-3.467c0.509-0.195 0.76-0.766 0.559-1.275zM14.069 5.562c-0.553 0-1.005-0.452-1.005-1.005s0.452-1.005 1.005-1.005 1.005 0.452 1.005 1.005-0.452 1.005-1.005 1.005zM16.078 22.646c-0.553 0-1.005-0.452-1.005-1.005s0.452-1.005 1.005-1.005 1.005 0.452 1.005 1.005-0.452 1.005-1.005 1.005zM16.078 18.626c-0.553 0-1.005-0.452-1.005-1.005s0.452-1.005 1.005-1.005 1.005 0.452 1.005 1.005-0.452 1.005-1.005 1.005zM16.078 14.606c-0.553 0-1.005-0.452-1.005-1.005s0.452-1.005 1.005-1.005 1.005 0.452 1.005 1.005-0.452 1.005-1.005 1.005zM16.078 9.080s-1.005-1.457-1.005-2.010 0.452-1.005 1.005-1.005 1.005 0.452 1.005 1.005-1.005 2.010-1.005 2.010zM18.088 5.562c-0.553 0-1.005-0.452-1.005-1.005s0.452-1.005 1.005-1.005 1.005 0.452 1.005 1.005-0.452 1.005-1.005 1.005z"></path>
</svg>
