<!-- Generated by IcoMoon.io -->
<svg version="1.1" xmlns="http://www.w3.org/2000/svg" width="28" height="32" viewBox="0 0 28 32">
<title>snowflake1</title>
<path d="M27.654 21.214l-2.123-1.225 1.633-0.44c0.515-0.138 0.823-0.672 0.685-1.187l-0.251-0.936c-0.138-0.515-0.672-0.823-1.187-0.685l-4.447 1.193-4.013-2.324 4.007-2.317 4.447 1.193c0.515 0.138 1.049-0.17 1.187-0.685l0.251-0.936c0.138-0.515-0.17-1.049-0.685-1.187l-1.633-0.44 2.123-1.225c0.465-0.27 0.622-0.86 0.358-1.325l-0.973-1.683c-0.27-0.465-0.86-0.622-1.325-0.358l-2.123 1.225 0.44-1.633c0.138-0.515-0.17-1.049-0.685-1.187l-0.936-0.251c-0.515-0.138-1.049 0.17-1.187 0.685l-1.193 4.447-3.944 2.274v-4.867l3.373-3.373c0.389-0.389 0.389-1.030 0-1.419l-0.71-0.71c-0.389-0.389-1.030-0.389-1.419 0l-1.244 1.237v-2.537c0-0.553-0.452-1.005-1.005-1.005h-2.010c-0.553 0-1.005 0.452-1.005 1.005v2.537l-1.237-1.237c-0.389-0.389-1.030-0.389-1.419 0l-0.716 0.71c-0.396 0.389-0.396 1.030 0 1.419l3.373 3.373v4.867l-3.944-2.274-1.193-4.447c-0.138-0.515-0.672-0.823-1.187-0.685l-0.936 0.251c-0.515 0.138-0.823 0.672-0.685 1.187l0.44 1.633-2.123-1.225c-0.465-0.27-1.055-0.107-1.325 0.358l-0.973 1.677c-0.27 0.465-0.107 1.055 0.358 1.325l2.123 1.225-1.633 0.44c-0.521 0.138-0.829 0.672-0.691 1.193l0.251 0.936c0.138 0.515 0.672 0.823 1.187 0.685l4.447-1.193 4.007 2.318-4.007 2.317-4.447-1.193c-0.515-0.138-1.049 0.17-1.187 0.685l-0.251 0.936c-0.138 0.515 0.17 1.049 0.685 1.187l1.633 0.44-2.123 1.231c-0.465 0.27-0.622 0.86-0.358 1.325l0.973 1.683c0.27 0.465 0.86 0.622 1.325 0.358l2.123-1.225-0.44 1.633c-0.138 0.515 0.17 1.049 0.685 1.187l0.936 0.251c0.515 0.138 1.049-0.17 1.187-0.685l1.193-4.447 3.944-2.274v4.867l-3.373 3.373c-0.396 0.389-0.396 1.030 0 1.419l0.71 0.71c0.389 0.389 1.030 0.389 1.419 0l1.237-1.237v2.531c0 0.553 0.452 1.005 1.005 1.005h2.010c0.553 0 1.005-0.452 1.005-1.005v-2.537l1.237 1.237c0.389 0.389 1.030 0.389 1.419 0l0.71-0.71c0.389-0.389 0.389-1.030 0-1.419l-3.354-3.373v-4.867l3.944 2.274 1.193 4.447c0.138 0.515 0.672 0.823 1.187 0.685l0.936-0.251c0.515-0.138 0.823-0.672 0.685-1.187l-0.44-1.633 2.123 1.225c0.465 0.27 1.055 0.107 1.325-0.358l0.973-1.683c0.27-0.458 0.113-1.055-0.352-1.319z"></path>
</svg>
