<!-- Generated by IcoMoon.io -->
<svg version="1.1" xmlns="http://www.w3.org/2000/svg" width="32" height="32" viewBox="0 0 32 32">
<title>socks</title>
<path d="M13.482 19.066l4.606-3.455v-10.049h-10.049v11.054l-5.442 4.058c-2.475 1.857-3.383 5.302-1.835 7.98 1.146 1.983 3.211 3.035 5.272 3.035 1.258 0 2.528-0.392 3.613-1.206l1.373-1.029c-1.875-3.478-0.85-7.904 2.462-10.388zM18.088 1.543c0-0.694 0.193-1.338 0.504-1.908-0.165-0.044-0.325-0.102-0.504-0.102h-8.039c-1.11 0-2.010 0.9-2.010 2.010v2.010h10.049v-2.010zM30.147-0.467h-8.039c-1.11 0-2.010 0.9-2.010 2.010v2.010h12.059v-2.010c0-1.11-0.9-2.010-2.010-2.010zM20.098 16.616l-5.41 4.058c-2.475 1.857-3.383 5.302-1.835 7.98 1.146 1.983 3.179 3.035 5.239 3.035 1.258 0 2.528-0.392 3.613-1.206l7.235-5.426c1.961-1.482 3.216-3.81 3.216-6.431 0-0 0-0 0-0v0-13.064h-12.059v11.054z"></path>
</svg>
