<!-- Generated by IcoMoon.io -->
<svg version="1.1" xmlns="http://www.w3.org/2000/svg" width="40" height="32" viewBox="0 0 40 32">
<title>solar-panel</title>
<path d="M27.131 27.671l-3.013 0.003v-2.014h-8.039v2.023l-3.013 0.003c-0.554 0.001-1.003 0.45-1.004 1.004l-0.003 1.993c-0.001 0.556 0.45 1.007 1.006 1.006l14.066-0.016c0.554-0.001 1.003-0.45 1.004-1.004l0.003-1.993c0.001-0.556-0.45-1.007-1.006-1.006zM36.754 1.212c-0.165-0.969-1.018-1.679-2.019-1.679h-29.276c-1 0-1.854 0.71-2.019 1.679-3.65 21.506-3.439 20.182-3.439 20.428-0.002 1.088 0.897 2.010 2.047 2.010h36.097c1.145 0 2.042-0.914 2.047-1.997 0.001-0.256 0.21 1.065-3.439-20.442zM16.319 3.553h7.557l0.614 6.029h-8.785l0.614-6.029zM11.598 19.631h-7.133l1.194-7.034h6.656l-0.717 7.034zM12.621 9.582h-6.451l1.023-6.029h6.041l-0.614 6.029zM14.682 19.631l0.716-7.034h9.399l0.716 7.034h-10.831zM26.961 3.553h6.041l1.023 6.029h-6.451l-0.614-6.029zM28.598 19.631l-0.716-7.034h6.656l1.194 7.034h-7.133z"></path>
</svg>
