<!-- Generated by IcoMoon.io -->
<svg version="1.1" xmlns="http://www.w3.org/2000/svg" width="28" height="32" viewBox="0 0 28 32">
<title>sort-alpha-up</title>
<path d="M0.295 6.862l5.024-5.025c0.392-0.392 1.029-0.392 1.421 0l5.023 5.025c0.633 0.633 0.182 1.716-0.711 1.716h-3.013v20.098c0 0.555-0.45 1.005-1.005 1.005h-2.010c-0.555 0-1.005-0.45-1.005-1.005v-20.098h-3.014c-0.894 0-1.342-1.084-0.711-1.716zM19.242 13.056c-0.093 0.318-0.382 0.546-0.725 0.546h-2.243c-0.516 0-0.88-0.507-0.714-0.996l3.586-10.551c0.104-0.3 0.384-0.511 0.714-0.511 0 0 0 0 0 0h2.485c0.323 0 0.61 0.206 0.714 0.511l3.586 10.551c0.166 0.489-0.197 0.996-0.714 0.996h-2.244c0 0 0 0-0 0-0.341 0-0.629-0.226-0.722-0.536l-0.001-0.005-0.521-1.777h-2.692l-0.508 1.773zM20.678 8.113h0.84l-0.415-1.441-0.425 1.441zM21.467 26.159l4.236-6.010c0.086-0.121 0.138-0.271 0.138-0.434v0-1.339c0-0.416-0.338-0.754-0.754-0.754h-7.846c-0.416 0-0.754 0.338-0.754 0.754v1.817c0 0.416 0.338 0.754 0.754 0.754h3.547c-0.046 0.062-0.094 0.128-0.142 0.197l-4.221 5.979c-0.086 0.121-0.138 0.272-0.138 0.435 0 0 0 0 0 0v0 1.37c0 0.416 0.338 0.754 0.754 0.754h8.124c0.416 0 0.754-0.338 0.754-0.754v-1.817c0-0.416-0.338-0.754-0.754-0.754h-3.84c0.046-0.062 0.094-0.128 0.143-0.197z"></path>
</svg>
