<!-- Generated by IcoMoon.io -->
<svg version="1.1" xmlns="http://www.w3.org/2000/svg" width="32" height="32" viewBox="0 0 32 32">
<title>sort-amount-up</title>
<path d="M0.295 6.862l5.024-5.025c0.392-0.392 1.029-0.392 1.421 0l5.023 5.025c0.633 0.633 0.182 1.716-0.711 1.716h-3.013v20.098c0 0.555-0.45 1.005-1.005 1.005h-2.010c-0.555 0-1.005-0.45-1.005-1.005v-20.098h-3.014c-0.894 0-1.342-1.084-0.711-1.716zM15.073 5.562h16.078c0.555 0 1.005-0.45 1.005-1.005v-2.010c0-0.555-0.45-1.005-1.005-1.005h-16.078c-0.555 0-1.005 0.45-1.005 1.005v2.010c0 0.555 0.45 1.005 1.005 1.005zM14.069 12.597v-2.010c0-0.555 0.45-1.005 1.005-1.005h12.059c0.555 0 1.005 0.45 1.005 1.005v2.010c0 0.555-0.45 1.005-1.005 1.005h-12.059c-0.555 0-1.005-0.45-1.005-1.005zM14.069 28.675v-2.010c0-0.555 0.45-1.005 1.005-1.005h4.020c0.555 0 1.005 0.45 1.005 1.005v2.010c0 0.555-0.45 1.005-1.005 1.005h-4.020c-0.555 0-1.005-0.45-1.005-1.005zM14.069 20.636v-2.010c0-0.555 0.45-1.005 1.005-1.005h8.039c0.555 0 1.005 0.45 1.005 1.005v2.010c0 0.555-0.45 1.005-1.005 1.005h-8.039c-0.555 0-1.005-0.45-1.005-1.005z"></path>
</svg>
