<!-- Generated by IcoMoon.io -->
<svg version="1.1" xmlns="http://www.w3.org/2000/svg" width="28" height="32" viewBox="0 0 28 32">
<title>sort-numeric-down</title>
<path d="M19.395 6.68l-1.221-1.306c-0.284-0.304-0.268-0.78 0.035-1.065l2.728-2.559c0.134-0.126 0.316-0.204 0.516-0.204 0 0 0 0 0 0h1.984c0.416 0 0.754 0.338 0.754 0.754v7.981h1.612c0.416 0 0.754 0.338 0.754 0.754v1.817c0 0.416-0.338 0.754-0.754 0.754h-6.857c-0.416 0-0.754-0.338-0.754-0.754v-1.817c0-0.416 0.338-0.754 0.754-0.754h1.596v-3.639c-0.456 0.413-0.893 0.309-1.146 0.038zM17.475 21.663c0-2.051 1.499-4.23 4.277-4.23 2.403 0 4.988 1.813 4.988 5.792 0 3.22-2.025 6.643-5.777 6.643-1.12 0-1.919-0.223-2.421-0.426-0.364-0.147-0.552-0.549-0.435-0.923l0.58-1.852c0.128-0.408 0.568-0.627 0.971-0.485 0.818 0.289 1.751 0.331 2.393-0.26-2.433 0.319-4.577-1.593-4.577-4.26zM23.27 22.878c0-1.4-0.961-2.293-1.623-2.293-0.543 0-0.827 0.5-0.827 0.994 0 0.356 0.114 1.518 1.581 1.518 0.626 0 0.84-0.135 0.863-0.171 0.001-0.003 0.005-0.018 0.005-0.048zM11.053 22.646h-3.014v-20.098c0-0.555-0.45-1.005-1.005-1.005h-2.010c-0.555 0-1.005 0.45-1.005 1.005v20.098h-3.014c-0.893 0-1.343 1.083-0.711 1.715l5.023 5.025c0.392 0.392 1.029 0.392 1.421 0l5.024-5.025c0.631-0.631 0.184-1.715-0.71-1.715z"></path>
</svg>
