<!-- Generated by IcoMoon.io -->
<svg version="1.1" xmlns="http://www.w3.org/2000/svg" width="40" height="32" viewBox="0 0 40 32">
<title>soundcloud</title>
<path d="M6.997 15.63l0.364 4.082-0.364 4.29c-0.019 0.157-0.138 0.276-0.276 0.276s-0.264-0.119-0.264-0.276l-0.352-4.29 0.352-4.082c0-0.138 0.119-0.264 0.264-0.264 0.138 0 0.258 0.126 0.276 0.264zM8.341 12.766c-0.176 0-0.295 0.138-0.314 0.314l-0.314 6.632 0.314 4.29c0.019 0.176 0.138 0.314 0.314 0.314 0.157 0 0.295-0.138 0.295-0.314l0.364-4.29-0.364-6.632c0-0.176-0.138-0.314-0.295-0.314zM9.942 11.253c-0.195 0-0.333 0.138-0.352 0.333l-0.276 8.165 0.276 4.258c0.019 0.195 0.157 0.333 0.352 0.333 0.176 0 0.333-0.138 0.333-0.333l0.333-4.258-0.333-8.165c0-0.195-0.157-0.333-0.333-0.333zM0.452 17.32c-0.088 0-0.138 0.069-0.157 0.157l-0.295 2.236 0.295 2.198c0.019 0.088 0.069 0.157 0.157 0.157s0.138-0.069 0.157-0.157l0.352-2.198-0.352-2.236c-0.019-0.088-0.069-0.157-0.157-0.157zM1.934 15.944c-0.088 0-0.157 0.069-0.157 0.157l-0.402 3.611 0.402 3.523c0 0.107 0.069 0.176 0.157 0.176s0.157-0.069 0.176-0.157l0.452-3.542-0.452-3.611c-0.019-0.088-0.088-0.157-0.176-0.157zM3.523 15.228c-0.107 0-0.195 0.088-0.207 0.207l-0.364 4.277 0.364 4.133c0.019 0.107 0.107 0.195 0.207 0.195 0.107 0 0.195-0.088 0.195-0.195l0.433-4.133-0.433-4.277c0-0.119-0.088-0.207-0.195-0.207zM5.112 15.090c-0.119 0-0.226 0.088-0.226 0.226l-0.364 4.396 0.364 4.258c0 0.138 0.107 0.226 0.226 0.226s0.226-0.088 0.245-0.226l0.402-4.258-0.402-4.396c-0.019-0.138-0.126-0.226-0.245-0.226zM20.274 8.125c-0.069-0.050-0.176-0.088-0.264-0.088-0.138 0-0.264 0.050-0.352 0.119-0.119 0.107-0.195 0.264-0.207 0.421v0.050l-0.207 11.098 0.107 2.041 0.107 1.991c0.019 0.295 0.264 0.54 0.559 0.54s0.54-0.245 0.54-0.54l0.245-4.032-0.245-11.148c-0.025-0.188-0.126-0.364-0.283-0.452zM18.597 9.086c-0.088-0.050-0.176-0.088-0.276-0.088s-0.195 0.038-0.276 0.088c-0.138 0.088-0.226 0.245-0.226 0.421l-0.019 0.107-0.176 10.099s0 0.019 0.195 4.12v0.019c0 0.107 0.038 0.207 0.107 0.295 0.107 0.119 0.245 0.195 0.402 0.195 0.138 0 0.264-0.069 0.352-0.157 0.107-0.088 0.157-0.207 0.157-0.352l0.019-0.421 0.195-3.68-0.207-10.225c-0.019-0.176-0.107-0.333-0.245-0.421zM11.6 10.499c-0.195 0-0.364 0.176-0.364 0.383l-0.276 8.831 0.276 4.221c0.019 0.207 0.176 0.364 0.364 0.364 0.207 0 0.364-0.157 0.383-0.364l0.314-4.221-0.314-8.831c-0.012-0.207-0.17-0.383-0.383-0.383zM35.259 14.443c-0.678 0-1.325 0.138-1.922 0.383-0.402-4.447-4.133-7.939-8.686-7.939-1.118 0-2.198 0.207-3.159 0.59-0.383 0.138-0.49 0.276-0.49 0.578v15.683c0 0.314 0.245 0.54 0.54 0.578h13.711c2.72 0 4.937-2.198 4.937-4.918 0.006-2.738-2.211-4.955-4.93-4.955zM16.625 10.656c-0.264 0-0.471 0.207-0.49 0.49l-0.207 8.586 0.207 4.12c0.019 0.264 0.226 0.471 0.49 0.471s0.471-0.207 0.471-0.471l0.245-4.12-0.245-8.586c-0.019-0.283-0.207-0.49-0.471-0.49zM13.258 10.166c-0.207 0-0.402 0.195-0.402 0.421l-0.245 9.126 0.245 4.202c0.019 0.226 0.195 0.402 0.402 0.402 0.226 0 0.402-0.176 0.421-0.402l0.276-4.202-0.276-9.126c-0.019-0.226-0.195-0.421-0.421-0.421zM14.935 10.38c-0.245 0-0.433 0.195-0.433 0.433l-0.245 8.9 0.245 4.17c0.019 0.245 0.195 0.433 0.433 0.433s0.433-0.195 0.433-0.433l0.264-4.17-0.264-8.9c0-0.245-0.188-0.433-0.433-0.433z"></path>
</svg>
