<!-- Generated by IcoMoon.io -->
<svg version="1.1" xmlns="http://www.w3.org/2000/svg" width="36" height="32" viewBox="0 0 36 32">
<title>spa</title>
<path d="M35.69 11.592c-1.824 0.008-8.479 0.387-13.43 5.213-2.080 1.861-3.351 3.976-4.171 5.958-0.82-1.982-2.091-4.097-4.171-5.958-4.951-4.826-11.607-5.205-13.43-5.213-0.277-0.001-0.489 0.214-0.487 0.491 0.014 1.754 0.448 7.922 5.575 12.517 5.277 5.139 10.503 5.080 12.513 5.080s7.235 0.060 12.513-5.080c5.127-4.596 5.561-10.764 5.575-12.517 0.002-0.278-0.21-0.492-0.487-0.491zM18.087 18.538c0.805-1.184 1.733-2.247 2.769-3.173 1.199-1.169 2.486-2.091 3.785-2.838-1.032-4.428-3.248-8.356-6.075-10.816-0.258-0.225-0.692-0.225-0.951 0-2.826 2.458-5.041 6.383-6.076 10.807 1.279 0.735 2.544 1.642 3.719 2.788 1.060 0.953 1.992 2.013 2.79 3.172l0.039 0.060z"></path>
</svg>
