<!-- Generated by IcoMoon.io -->
<svg version="1.1" xmlns="http://www.w3.org/2000/svg" width="40" height="32" viewBox="0 0 40 32">
<title>space-shuttle</title>
<path d="M37.219 12.612c-2.064-0.968-4.825-1.523-7.575-1.523h-17.942c-0.311-0.412-0.665-0.752-1.050-1.005h12.963c-9.223-1.9-9.835-8.542-17.585-8.542h-0v8.039h-1.005v-8.039c-1.665 0-3.015 1.8-3.015 4.020v4.020c-1.457 0-2.010 0.63-2.010 1.507v2.512c0 0.878 0.554 1.507 2.010 1.507v1.005c-1.457 0-2.010 0.63-2.010 1.507v2.512c0 0.878 0.554 1.507 2.010 1.507v4.020c0 2.22 1.35 4.020 3.015 4.020v-8.039h1.005v8.039h0c7.75 0 8.363-6.642 17.585-8.542h-12.963c0.385-0.253 0.739-0.593 1.050-1.005h17.942c2.749 0 5.51-0.555 7.575-1.523 1.864-0.874 2.977-1.995 2.977-2.999s-1.113-2.126-2.977-2.999zM30.649 18.124c-0.278 0-0.503-0.225-0.503-0.503v0-4.020c0-0.278 0.225-0.502 0.503-0.502v0c2.004 0 2.006 5.024 0 5.024z"></path>
</svg>
