<!-- Generated by IcoMoon.io -->
<svg version="1.1" xmlns="http://www.w3.org/2000/svg" width="27" height="32" viewBox="0 0 27 32">
<title>speakap</title>
<path d="M3.455 24.139c-4.987-5.539-4.52-14.091 1.045-19.102s14.119-4.582 19.106 0.957 4.52 14.091-1.045 19.102c-1.177 1.060 4.021 2.706 2.639 3.282-5.154 2.149-15.947 2.201-21.745-4.239zM16.852 10.849l2.418-2.566c-0.604-0.558-2.011-1.685-4.784-1.733-3.287-0.057-6.021 1.777-6.078 5.022-0.012 0.712 0.018 2.306 1.848 3.444 2.164 1.345 5.434 1.351 5.4 3.282-0.023 1.337-1.659 1.621-2.424 1.608-0.187-0.003-1.899-0.029-2.99-1.546l-2.509 2.676c1.769 1.696 3.705 2.049 5.244 2.076 0.643 0.011 6.056 0.021 6.145-5.087 0.018-0.993-0.13-2.495-1.813-3.554-2.158-1.359-5.336-1.222-5.303-3.125 0.026-1.46 1.945-1.593 2.357-1.586 0.027 0 1.672 0.016 2.488 1.091z"></path>
</svg>
