<!-- Generated by IcoMoon.io -->
<svg version="1.1" xmlns="http://www.w3.org/2000/svg" width="34" height="32" viewBox="0 0 34 32">
<title>speedometer</title>
<path d="M27.479 12.035c-0.026-0.034-0.054-0.067-0.085-0.098s-0.064-0.059-0.098-0.085c-2.898-2.852-6.87-4.615-11.248-4.615l-0.002-0-0.002 0c-4.377 0-8.35 1.763-11.248 4.615-0.034 0.026-0.067 0.054-0.098 0.085s-0.059 0.064-0.085 0.098c-2.852 2.898-4.615 6.871-4.615 11.249 0 0.561 0.455 1.016 1.016 1.016h30.062c0.561 0 1.016-0.455 1.016-1.016 0-4.378-1.763-8.351-4.615-11.249zM20.139 22.268h-0.685c-0.196-0.657-0.576-1.234-1.082-1.672l0.3-0.608c0.714 0.57 1.24 1.366 1.467 2.28zM16.518 19.761c-0.154-0.020-0.311-0.032-0.471-0.032-1.61 0-2.969 1.071-3.407 2.539h-0.685c0.456-1.836 2.117-3.2 4.092-3.2 0.265 0 0.525 0.026 0.777 0.073l-0.306 0.621zM21.524 22.268c-0.267-1.443-1.092-2.692-2.242-3.516l2.43-4.926c0.248-0.503 0.041-1.113-0.462-1.361s-1.112-0.042-1.361 0.462l-2.447 4.962c-0.446-0.115-0.913-0.177-1.394-0.177-2.725 0-4.998 1.967-5.477 4.555h-8.502c0.223-3.102 1.461-5.926 3.381-8.145l0.693 0.693c0.198 0.198 0.459 0.298 0.718 0.298s0.52-0.099 0.718-0.298c0.397-0.397 0.397-1.040 0-1.437l-0.693-0.693c2.218-1.92 5.043-3.158 8.145-3.381v1.157c0 0.561 0.455 1.016 1.016 1.016s1.016-0.455 1.016-1.016v-1.157c3.102 0.223 5.926 1.461 8.145 3.381l-0.693 0.693c-0.397 0.397-0.397 1.040 0 1.437 0.198 0.198 0.459 0.298 0.718 0.298s0.52-0.099 0.718-0.298l0.693-0.693c1.92 2.218 3.158 5.043 3.381 8.145h-8.502z"></path>
</svg>
