<!-- Generated by IcoMoon.io -->
<svg version="1.1" xmlns="http://www.w3.org/2000/svg" width="45" height="32" viewBox="0 0 45 32">
<title>speedometer-2</title>
<path d="M38.642 10.518c-0.037-0.047-0.076-0.094-0.119-0.137s-0.090-0.083-0.137-0.119c-4.075-4.011-9.662-6.49-15.817-6.49l-0.002-0-0.002 0c-6.156 0.001-11.742 2.48-15.817 6.49-0.047 0.037-0.094 0.076-0.137 0.119s-0.083 0.090-0.119 0.137c-4.011 4.075-6.49 9.663-6.49 15.819 0 0.789 0.639 1.429 1.429 1.429h42.275c0.789 0 1.429-0.64 1.429-1.429 0-6.156-2.479-11.744-6.49-15.819zM28.32 24.908h-0.964c-0.275-0.924-0.811-1.736-1.521-2.351l0.422-0.855c1.005 0.802 1.744 1.922 2.063 3.206zM23.229 21.383c-0.217-0.029-0.438-0.045-0.662-0.045-2.264 0-4.176 1.506-4.791 3.57h-0.964c0.641-2.582 2.977-4.501 5.754-4.501 0.373 0 0.738 0.036 1.093 0.103l-0.431 0.873zM30.268 24.908c-0.376-2.029-1.535-3.786-3.153-4.944l3.417-6.927c0.349-0.708 0.058-1.564-0.649-1.913s-1.564-0.059-1.913 0.649l-3.442 6.978c-0.627-0.162-1.284-0.248-1.961-0.248-3.832 0-7.028 2.766-7.701 6.406h-11.956c0.314-4.362 2.054-8.334 4.755-11.454l0.975 0.975c0.279 0.279 0.645 0.419 1.011 0.419s0.731-0.139 1.011-0.419c0.558-0.558 0.558-1.463 0-2.020l-0.975-0.975c3.12-2.7 7.092-4.44 11.454-4.754v1.627c0 0.789 0.64 1.429 1.429 1.429s1.429-0.64 1.429-1.429v-1.627c4.362 0.314 8.334 2.054 11.454 4.754l-0.975 0.975c-0.558 0.558-0.558 1.463 0 2.020 0.279 0.279 0.645 0.419 1.011 0.419s0.731-0.139 1.011-0.419l0.975-0.975c2.7 3.12 4.441 7.092 4.755 11.454h-11.956z"></path>
</svg>
