<!-- Generated by IcoMoon.io -->
<svg version="1.1" xmlns="http://www.w3.org/2000/svg" width="36" height="32" viewBox="0 0 36 32">
<title>spider</title>
<path d="M9.494 10.044l1.629 0.543h0.293l0.328-1.64c0.045-0.225 0.113-0.476 0.202-0.74l-1.274-2.549 1.495-4.484c0.175-0.526-0.109-1.095-0.636-1.271l-0.953-0.318c-0.526-0.176-1.096 0.109-1.271 0.636l-1.626 4.879c-0.065 0.19-0.103 0.408-0.103 0.636 0 0.327 0.078 0.637 0.217 0.91l-0.005-0.011 1.705 3.41zM36.007 21.476l-3.313-4.969c-0.365-0.543-0.978-0.895-1.672-0.895h-4.895l4.333-1.53c0.433-0.147 0.789-0.425 1.032-0.785l0.005-0.007 3.366-5.050c0.308-0.462 0.183-1.086-0.279-1.394l-0.836-0.558c-0.462-0.308-1.086-0.183-1.394 0.279l-3.175 4.763-3.8 1.267h-2.267l-0.651-3.256c-0.137-0.689-1.091-3.778-4.373-3.778s-4.236 3.089-4.373 3.778l-0.651 3.256h-2.267l-3.799-1.267-3.176-4.763c-0.308-0.462-0.931-0.587-1.394-0.279l-0.836 0.558c-0.462 0.308-0.587 0.931-0.279 1.394l3.366 5.050c0.248 0.367 0.604 0.645 1.023 0.788l0.014 0.004 4.333 1.529h-4.895c-0.695 0-1.307 0.352-1.668 0.888l-0.005 0.007-3.312 4.97c-0.308 0.462-0.183 1.086 0.279 1.394l0.836 0.558c0.462 0.308 1.086 0.183 1.394-0.279l3.015-4.522h2.956l-3.82 6.113c-0.192 0.302-0.305 0.67-0.305 1.065 0 0 0 0 0 0.001v-0 4.88c0 0.555 0.45 1.005 1.005 1.005h1.005c0.555 0 1.005-0.45 1.005-1.005v-4.592l4.653-7.444c-0.063 0.882-0.131 1.765-0.131 2.651 0 3.333 2.56 6.37 6.029 6.37s6.029-3.037 6.029-6.37c0-0.886-0.068-1.769-0.131-2.651l4.653 7.444v4.592c0 0.555 0.45 1.005 1.005 1.005h1.005c0.555 0 1.005-0.45 1.005-1.005v-4.881c0-0.377-0.106-0.746-0.305-1.065l-3.82-6.113h2.956l3.015 4.522c0.308 0.462 0.932 0.587 1.394 0.279l0.836-0.558c0.462-0.308 0.587-0.931 0.279-1.393zM25.505 5.657l-1.274 2.549c0.089 0.264 0.156 0.516 0.202 0.74l0.328 1.64h0.293l1.629-0.543 1.705-3.41c0.134-0.262 0.212-0.571 0.212-0.898 0-0.228-0.038-0.446-0.107-0.65l0.004 0.014-1.626-4.879c-0.175-0.526-0.745-0.811-1.271-0.636l-0.953 0.318c-0.526 0.176-0.811 0.745-0.636 1.271l1.495 4.484z"></path>
</svg>
