<!-- Generated by IcoMoon.io -->
<svg version="1.1" xmlns="http://www.w3.org/2000/svg" width="32" height="32" viewBox="0 0 32 32">
<title>spinner</title>
<path d="M19.093 2.548c0 1.665-1.35 3.015-3.015 3.015s-3.015-1.35-3.015-3.015 1.35-3.015 3.015-3.015 3.015 1.35 3.015 3.015zM16.078 25.66c-1.665 0-3.015 1.35-3.015 3.015s1.35 3.015 3.015 3.015 3.015-1.35 3.015-3.015-1.35-3.015-3.015-3.015zM29.142 12.597c-1.665 0-3.015 1.35-3.015 3.015s1.35 3.015 3.015 3.015 3.015-1.35 3.015-3.015-1.35-3.015-3.015-3.015zM6.029 15.611c0-1.665-1.35-3.015-3.015-3.015s-3.015 1.35-3.015 3.015 1.35 3.015 3.015 3.015 3.015-1.35 3.015-3.015zM6.841 21.834c-1.665 0-3.015 1.35-3.015 3.015s1.35 3.015 3.015 3.015 3.015-1.35 3.015-3.015c0-1.665-1.35-3.015-3.015-3.015zM25.316 21.834c-1.665 0-3.015 1.35-3.015 3.015s1.35 3.015 3.015 3.015 3.015-1.35 3.015-3.015c0-1.665-1.35-3.015-3.015-3.015zM6.841 3.359c-1.665 0-3.015 1.35-3.015 3.015s1.35 3.015 3.015 3.015 3.015-1.35 3.015-3.015-1.35-3.015-3.015-3.015z"></path>
</svg>
