<!-- Generated by IcoMoon.io -->
<svg version="1.1" xmlns="http://www.w3.org/2000/svg" width="32" height="32" viewBox="0 0 32 32">
<title>splotch</title>
<path d="M29.663 11.836l-4.212-1.441c-1.211-0.415-2.107-1.314-2.395-2.405l-1.004-3.797c-0.727-2.749-4.809-3.588-6.907-1.421l-2.898 2.994c-0.833 0.861-2.107 1.315-3.404 1.213l-4.515-0.353c-3.269-0.256-5.46 2.819-3.707 5.202l2.421 3.292c0.696 0.946 0.805 2.127 0.291 3.155l-1.786 3.579c-1.293 2.591 1.435 5.33 4.616 4.636l4.394-0.96c1.263-0.276 2.603 0 3.584 0.737l3.412 2.564c2.47 1.857 6.346 0.475 6.56-2.338l0.295-3.885c0.085-1.117 0.804-2.127 1.924-2.7l3.894-1.993c2.819-1.442 2.486-5.035-0.562-6.079z"></path>
</svg>
