<!-- Generated by IcoMoon.io -->
<svg version="1.1" xmlns="http://www.w3.org/2000/svg" width="31" height="32" viewBox="0 0 31 32">
<title>spotify</title>
<path d="M15.576 0.035c-8.598 0-15.576 6.978-15.576 15.576s6.978 15.576 15.576 15.576 15.576-6.978 15.576-15.576-6.978-15.576-15.576-15.576zM21.9 22.953c-0.264 0-0.427-0.082-0.672-0.226-3.919-2.362-8.479-2.462-12.982-1.539-0.245 0.063-0.565 0.163-0.747 0.163-0.609 0-0.992-0.484-0.992-0.992 0-0.647 0.383-0.955 0.854-1.055 5.144-1.137 10.401-1.036 14.885 1.645 0.383 0.245 0.609 0.465 0.609 1.036s-0.446 0.967-0.955 0.967zM23.59 18.833c-0.327 0-0.546-0.145-0.773-0.264-3.925-2.324-9.779-3.26-14.986-1.847-0.301 0.082-0.465 0.163-0.747 0.163-0.672 0-1.218-0.546-1.218-1.218s0.327-1.118 0.973-1.3c1.746-0.49 3.53-0.854 6.142-0.854 4.076 0 8.014 1.011 11.117 2.858 0.509 0.301 0.71 0.691 0.71 1.237-0.006 0.678-0.534 1.225-1.218 1.225zM25.537 14.047c-0.327 0-0.527-0.082-0.81-0.245-4.472-2.669-12.467-3.31-17.642-1.865-0.226 0.063-0.509 0.163-0.81 0.163-0.829 0-1.463-0.647-1.463-1.482 0-0.854 0.527-1.338 1.093-1.501 2.211-0.647 4.685-0.955 7.38-0.955 4.585 0 9.39 0.955 12.9 3.002 0.49 0.283 0.81 0.672 0.81 1.419 0 0.854-0.691 1.463-1.457 1.463z"></path>
</svg>
