<!-- Generated by IcoMoon.io -->
<svg version="1.1" xmlns="http://www.w3.org/2000/svg" width="32" height="32" viewBox="0 0 32 32">
<title>spray-can</title>
<path d="M14.069 1.543c0-1.11-0.9-2.010-2.010-2.010h-4.020c-1.11 0-2.010 0.9-2.010 2.010v6.029h8.039v-6.029zM30.147 7.572c-1.11 0-2.010 0.9-2.010 2.010s0.9 2.010 2.010 2.010 2.010-0.9 2.010-2.010-0.9-2.010-2.010-2.010zM14.069 9.582h-8.039c-3.33 0-6.029 2.699-6.029 6.029v14.069c0 1.11 0.9 2.010 2.010 2.010h16.078c1.11 0 2.010-0.9 2.010-2.010v-14.069c0-3.33-2.699-6.029-6.029-6.029zM10.049 25.66c-2.775 0-5.024-2.25-5.024-5.024s2.25-5.024 5.024-5.024 5.024 2.25 5.024 5.024-2.25 5.024-5.024 5.024zM30.147 5.562c1.11 0 2.010-0.9 2.010-2.010s-0.9-2.010-2.010-2.010-2.010 0.9-2.010 2.010 0.9 2.010 2.010 2.010zM24.118 7.572c-1.11 0-2.010 0.9-2.010 2.010s0.9 2.010 2.010 2.010 2.010-0.9 2.010-2.010-0.9-2.010-2.010-2.010zM18.088 1.543c-1.11 0-2.010 0.9-2.010 2.010s0.9 2.010 2.010 2.010 2.010-0.9 2.010-2.010-0.9-2.010-2.010-2.010zM24.118 1.543c-1.11 0-2.010 0.9-2.010 2.010s0.9 2.010 2.010 2.010 2.010-0.9 2.010-2.010-0.9-2.010-2.010-2.010zM30.147 13.602c-1.11 0-2.010 0.9-2.010 2.010s0.9 2.010 2.010 2.010 2.010-0.9 2.010-2.010-0.9-2.010-2.010-2.010z"></path>
</svg>
