<!-- Generated by IcoMoon.io -->
<svg version="1.1" xmlns="http://www.w3.org/2000/svg" width="32" height="32" viewBox="0 0 32 32">
<title>sql-file-format-symbol</title>
<path d="M16.197 23.009c-1.18 0-1.861 1.158-1.861 2.587-0.012 1.453 0.692 2.565 1.85 2.565 1.169 0 1.85-1.101 1.85-2.598-0-1.396-0.658-2.554-1.839-2.554zM27.737 7.239c-0.002-0.148-0.049-0.293-0.15-0.408l-6.2-7.082c-0.001-0.002-0.004-0.003-0.005-0.004-0.037-0.041-0.079-0.075-0.125-0.105-0.013-0.009-0.028-0.017-0.042-0.025-0.039-0.021-0.081-0.039-0.124-0.052-0.011-0.003-0.022-0.008-0.034-0.011-0.047-0.011-0.095-0.018-0.144-0.018h-15.238c-0.695 0-1.261 0.566-1.261 1.261v29.635c0 0.696 0.566 1.261 1.261 1.261h20.807c0.695 0 1.261-0.566 1.261-1.261v-23.119c-0-0.024-0.004-0.047-0.006-0.071zM8.604 29.523c-0.874 0-1.736-0.227-2.167-0.466l0.352-1.43c0.465 0.238 1.18 0.477 1.917 0.477 0.795 0 1.214-0.329 1.214-0.829 0-0.477-0.363-0.749-1.282-1.078-1.271-0.443-2.099-1.147-2.099-2.259 0-1.305 1.090-2.304 2.894-2.304 0.863 0 1.498 0.182 1.952 0.386l-0.386 1.396c-0.306-0.147-0.851-0.362-1.6-0.362s-1.112 0.34-1.112 0.737c0 0.488 0.431 0.703 1.418 1.078 1.35 0.499 1.986 1.203 1.986 2.281-0 1.282-0.988 2.372-3.087 2.372zM19.397 30.725c-1.089-0.318-1.997-0.646-3.018-1.078-0.17-0.068-0.352-0.102-0.533-0.113-1.725-0.113-3.336-1.384-3.336-3.881 0-2.292 1.452-4.017 3.733-4.017 2.338 0 3.62 1.77 3.62 3.858 0 1.736-0.805 2.962-1.816 3.416v0.046c0.59 0.171 1.249 0.307 1.85 0.431l-0.499 1.339zM25.775 29.41h-4.778v-7.648h1.736v6.196h3.041v1.453zM5.675 20.945v-20.151h14.607v6.452c0 0.348 0.282 0.631 0.631 0.631h5.569l0.001 13.068h-20.808zM19.506 9.526c0.028-0.076 0.047-0.155 0.047-0.237 0-1.015-2.193-1.563-4.257-1.563-2.062 0-4.255 0.548-4.255 1.563 0 0.083 0.019 0.161 0.047 0.238l-0.011 0.020c-0.094 0.171-0.141 0.344-0.141 0.514v1.256c0 0.193 0.061 0.379 0.169 0.554l-0.014 0.024c-0.103 0.178-0.155 0.359-0.155 0.538v1.256c0 0.187 0.057 0.367 0.159 0.538l-0.005 0.008c-0.103 0.178-0.155 0.359-0.155 0.537v1.256c0 1.116 1.915 1.99 4.359 1.99 2.447 0 4.362-0.874 4.362-1.99v-1.256c0-0.178-0.052-0.36-0.156-0.538l-0.004-0.007c0.101-0.171 0.16-0.351 0.16-0.538v-1.256c0-0.179-0.052-0.36-0.156-0.538l-0.013-0.023c0.108-0.176 0.169-0.361 0.169-0.555v-1.256c0-0.17-0.047-0.343-0.141-0.514l-0.011-0.019zM19.191 16.026c0 0.721-1.599 1.523-3.895 1.523-2.294 0-3.893-0.802-3.893-1.523v-1.181c0.716 0.656 2.189 1.074 3.893 1.074 1.706 0 3.179-0.419 3.895-1.075v1.182zM19.191 13.688c0 0.72-1.599 1.523-3.895 1.523-2.294 0-3.893-0.803-3.893-1.523v-1.181c0.716 0.655 2.189 1.074 3.893 1.074 1.706 0 3.179-0.419 3.895-1.075v1.182zM19.191 11.316c0 0.72-1.599 1.523-3.895 1.523-2.294 0-3.893-0.803-3.893-1.523v-1.045c0.7 0.593 2.322 0.9 3.893 0.9 1.573 0 3.195-0.307 3.895-0.9v1.045z"></path>
</svg>
