<!-- Generated by IcoMoon.io -->
<svg version="1.1" xmlns="http://www.w3.org/2000/svg" width="32" height="32" viewBox="0 0 32 32">
<title>sql-file-format-symbol-1</title>
<path d="M16.357 23.441c-1.208 0-1.904 1.184-1.904 2.647-0.011 1.486 0.708 2.623 1.892 2.623 1.196 0 1.892-1.126 1.892-2.658 0-1.428-0.674-2.612-1.881-2.612zM27.737 7.239c-0.002-0.148-0.049-0.293-0.15-0.408l-6.201-7.082c-0.001-0.002-0.003-0.003-0.005-0.004-0.037-0.041-0.079-0.075-0.125-0.105-0.013-0.009-0.027-0.017-0.041-0.025-0.040-0.021-0.081-0.039-0.125-0.052-0.012-0.003-0.022-0.008-0.034-0.011-0.047-0.011-0.096-0.018-0.145-0.018h-15.238c-0.695 0-1.261 0.566-1.261 1.261v29.635c0 0.696 0.566 1.261 1.261 1.261h20.807c0.696 0 1.261-0.566 1.261-1.261v-23.119c0-0.024-0.004-0.047-0.006-0.071zM8.592 30.104c-0.894 0-1.776-0.232-2.217-0.476l0.36-1.462c0.476 0.243 1.207 0.487 1.962 0.487 0.812 0 1.242-0.336 1.242-0.847 0-0.488-0.372-0.766-1.312-1.103-1.3-0.453-2.148-1.172-2.148-2.31 0-1.335 1.115-2.357 2.96-2.357 0.882 0 1.532 0.186 1.997 0.395l-0.395 1.428c-0.313-0.151-0.871-0.371-1.636-0.371-0.767 0-1.138 0.348-1.138 0.755 0 0.499 0.441 0.719 1.451 1.103 1.381 0.511 2.031 1.23 2.031 2.333-0 1.313-1.011 2.427-3.158 2.427zM19.631 31.335c-1.115-0.325-2.043-0.662-3.088-1.103-0.174-0.070-0.36-0.105-0.546-0.116-1.764-0.116-3.412-1.416-3.412-3.97 0-2.345 1.486-4.109 3.819-4.109 2.392 0 3.703 1.811 3.703 3.947 0 1.776-0.825 3.030-1.857 3.494v0.046c0.603 0.174 1.277 0.313 1.892 0.441l-0.51 1.37zM26.154 29.988h-4.887v-7.824h1.776v6.338h3.111v1.486zM5.675 20.945v-20.151h14.607v6.452c0 0.348 0.282 0.631 0.631 0.631h5.569l0.001 13.068h-20.808zM7.716 5.517h3.451v0.69h-3.45v-0.69zM11.813 5.517h3.451v0.69h-3.451v-0.69zM7.716 7.649h2.238v0.69h-2.238v-0.69zM10.373 7.649h2.238v0.69h-2.238v-0.69zM12.988 7.649h2.238v0.69h-2.238v-0.69zM15.646 7.649h2.238v0.69h-2.238v-0.69zM7.716 9.846h2.563v0.69h-2.563v-0.69zM10.759 9.846h2.563v0.69h-2.563v-0.69zM13.754 9.846h2.563v0.69h-2.563v-0.69zM16.798 9.846h2.563v0.69h-2.563v-0.69zM7.74 12.087h1.087v0.69h-1.087v-0.69zM9.031 12.087h1.087v0.69h-1.087v-0.69zM10.302 12.087h1.087v0.69h-1.087v-0.69zM11.592 12.087h1.087v0.69h-1.087v-0.69zM12.882 12.087h1.087v0.69h-1.087v-0.69zM14.173 12.087h1.087v0.69h-1.087v-0.69zM15.443 12.087h1.088v0.69h-1.088v-0.69zM16.735 12.087h1.087v0.69h-1.087v-0.69zM18.080 12.087h1.087v0.69h-1.087v-0.69zM19.371 12.087h1.087v0.69h-1.087v-0.69zM20.641 12.087h1.087v0.69h-1.087v-0.69zM21.932 12.087h1.087v0.69h-1.087v-0.69zM7.74 14.215h1.546v0.69h-1.546v-0.69zM9.577 14.215h1.547v0.69h-1.547v-0.69zM11.384 14.215h1.547v0.69h-1.547v-0.69zM13.221 14.215h1.546v0.69h-1.546v-0.69zM15.055 14.215h1.546v0.69h-1.546v-0.69zM16.891 14.215h1.547v0.69h-1.547v-0.69zM18.698 14.215h1.546v0.69h-1.546v-0.69zM20.535 14.215h1.546v0.69h-1.546v-0.69zM7.74 16.627h1.232v0.69h-1.232v-0.69zM9.203 16.627h1.233v0.69h-1.233v-0.69zM10.644 16.627h1.232v0.69h-1.232v-0.69zM12.107 16.627h1.232v0.69h-1.232v-0.69zM13.568 16.627h1.233v0.69h-1.233v-0.69zM15.031 16.627h1.232v0.69h-1.232v-0.69zM16.471 16.627h1.232v0.69h-1.232v-0.69zM17.934 16.627h1.232v0.69h-1.232v-0.69z"></path>
</svg>
