<!-- Generated by IcoMoon.io -->
<svg version="1.1" xmlns="http://www.w3.org/2000/svg" width="32" height="32" viewBox="0 0 32 32">
<title>squarespace</title>
<path d="M11.689 21.097c-0.606 0.606-0.606 1.588 0 2.194s1.588 0.606 2.194 0l9.872-9.872c1.212-1.212 3.176-1.212 4.388 0s1.212 3.176 0 4.388l-9.682 9.681c1.21 1.212 3.174 1.213 4.385 0.003l7.492-7.491c2.424-2.424 2.424-6.352 0-8.775s-6.353-2.424-8.775 0l-9.874 9.873zM27.047 14.515c-0.606-0.606-1.588-0.606-2.194 0l-9.873 9.872c-1.21 1.212-3.174 1.213-4.385 0.003l-0.003-0.003c-0.605-0.605-1.587-0.606-2.193-0.001l-0.001 0.001c-0.606 0.605-0.607 1.588-0.001 2.194l0.001 0.001c2.423 2.422 6.352 2.422 8.775 0l9.873-9.873c0.606-0.606 0.606-1.588 0.001-2.194zM10.593 20l9.872-9.872c0.605-0.606 0.605-1.588 0-2.194s-1.587-0.605-2.193 0l-9.874 9.872c-1.211 1.212-3.175 1.212-4.387 0.001l-0.001-0.001c-1.212-1.211-1.213-3.174-0.002-4.386l9.685-9.685c-1.211-1.212-3.175-1.212-4.387-0.001l-7.49 7.491c-2.423 2.424-2.423 6.352 0 8.775 2.424 2.424 6.352 2.424 8.776 0.001zM5.108 16.709c0.605 0.605 1.587 0.605 2.193 0l9.874-9.873c1.211-1.212 3.175-1.212 4.386-0.001l0.001 0.001c0.606 0.606 1.588 0.606 2.194 0s0.606-1.588 0-2.194c-2.424-2.424-6.352-2.424-8.775 0l-9.873 9.872c-0.606 0.605-0.606 1.588-0.001 2.194h0.001z"></path>
</svg>
