<!-- Generated by IcoMoon.io -->
<svg version="1.1" xmlns="http://www.w3.org/2000/svg" width="28" height="32" viewBox="0 0 28 32">
<title>square</title>
<path d="M25.122 1.543h-22.108c-1.664 0-3.015 1.35-3.015 3.015v22.108c0 1.664 1.35 3.015 3.015 3.015h22.108c1.664 0 3.015-1.35 3.015-3.015v-22.108c0-1.664-1.35-3.015-3.015-3.015zM24.746 26.665h-21.354c-0.207 0-0.377-0.17-0.377-0.377v-21.354c0-0.207 0.17-0.377 0.377-0.377h21.354c0.207 0 0.377 0.17 0.377 0.377v21.354c0 0.207-0.17 0.377-0.377 0.377z"></path>
</svg>
