<!-- Generated by IcoMoon.io -->
<svg version="1.1" xmlns="http://www.w3.org/2000/svg" width="36" height="32" viewBox="0 0 36 32">
<title>square-root-alt</title>
<path d="M35.882 15.317l-1.421-1.421c-0.392-0.393-1.029-0.393-1.421 0l-2.893 2.893-2.893-2.893c-0.392-0.393-1.029-0.393-1.421 0l-1.421 1.421c-0.392 0.393-0.392 1.029 0 1.421l2.893 2.893-2.893 2.893c-0.392 0.392-0.392 1.029 0 1.421l1.421 1.421c0.392 0.392 1.029 0.392 1.421 0l2.893-2.893 2.893 2.893c0.392 0.392 1.029 0.392 1.421 0l1.421-1.421c0.392-0.392 0.392-1.029 0-1.421l-2.893-2.893 2.893-2.893c0.392-0.392 0.392-1.029 0-1.421zM34.669-0.467h-15.347c-0.913 0-1.712 0.615-1.944 1.499l-5.325 20.274-3.668-6.664c-0.349-0.625-1.006-1.040-1.76-1.041h-5.117c-0.832 0-1.507 0.675-1.507 1.507v3.015c0 0.832 0.675 1.507 1.507 1.507h2.74l5.582 10.283c0.784 1.242 1.872 1.775 3.042 1.775 1.085 0 2.791-0.565 3.409-2.605l6.143-23.522h12.245c0.832 0 1.507-0.675 1.507-1.507v-3.015c0-0.833-0.675-1.507-1.507-1.507z"></path>
</svg>
