<!-- Generated by IcoMoon.io -->
<svg version="1.1" xmlns="http://www.w3.org/2000/svg" width="32" height="32" viewBox="0 0 32 32">
<title>srt-file-format-symbol</title>
<path d="M27.737 7.239c-0.002-0.147-0.049-0.293-0.15-0.408l-6.2-7.082c-0.001-0.002-0.003-0.003-0.005-0.004-0.037-0.041-0.079-0.075-0.125-0.105-0.013-0.009-0.027-0.017-0.041-0.025-0.040-0.021-0.081-0.039-0.124-0.052-0.012-0.003-0.022-0.008-0.034-0.011-0.047-0.011-0.095-0.018-0.145-0.018h-15.238c-0.695 0-1.261 0.566-1.261 1.261v29.635c0 0.695 0.566 1.261 1.261 1.261h20.807c0.696 0 1.261-0.566 1.261-1.261v-23.119c0-0.024-0.004-0.047-0.006-0.071zM9.143 30.173c-0.864 0-1.716-0.224-2.143-0.459l0.348-1.413c0.46 0.235 1.166 0.471 1.896 0.471 0.785 0 1.2-0.325 1.2-0.819 0-0.471-0.359-0.74-1.268-1.065-1.256-0.438-2.075-1.133-2.075-2.233 0-1.29 1.077-2.277 2.86-2.277 0.852 0 1.48 0.179 1.929 0.381l-0.381 1.38c-0.303-0.146-0.841-0.359-1.581-0.359s-1.099 0.336-1.099 0.729c0 0.482 0.426 0.695 1.402 1.065 1.335 0.493 1.963 1.189 1.963 2.255-0.001 1.268-0.976 2.344-3.051 2.344zM17.308 30.061c-0.124-0.213-0.303-0.83-0.528-1.761-0.202-0.942-0.527-1.2-1.222-1.212h-0.516v2.973h-1.694v-7.459c0.55-0.090 1.369-0.157 2.277-0.157 1.122 0 1.907 0.168 2.445 0.595 0.449 0.359 0.696 0.886 0.696 1.582 0 0.965-0.684 1.627-1.335 1.862v0.034c0.527 0.213 0.819 0.718 1.010 1.413 0.235 0.853 0.471 1.839 0.617 2.131h-1.75zM25.237 23.936h-2.064v6.125h-1.716v-6.125h-2.030v-1.436h5.81v1.436zM5.675 20.945v-20.151h14.607v6.452c0 0.348 0.282 0.631 0.631 0.631h5.569l0.001 13.068h-20.808zM15.816 23.712c-0.415 0-0.65 0.033-0.774 0.056v2.086h0.673c0.852 0 1.357-0.427 1.357-1.088-0-0.695-0.471-1.043-1.256-1.054zM18.691 5.368h-3.98v-0.946h-0.906v0.946h-4.335v0.946h9.222zM16.164 14.441c-0.567-0.48-1.067-0.973-1.502-1.469 2.506-3.054 2.844-6.035 2.862-6.217l-0.941-0.094c-0.004 0.040-0.309 2.732-2.542 5.549-2.064-2.728-2.362-5.274-2.366-5.313l-0.941 0.095c0.018 0.177 0.337 3.006 2.664 5.971-1.065 1.16-2.479 2.303-4.36 3.253l0.427 0.844c1.951-0.987 3.43-2.161 4.555-3.357 0.525 0.584 1.139 1.165 1.844 1.726l0.301-0.987zM20.519 9.667h-2.566l-2.642 8.645h2.027l0.616-2.219h2.476l0.667 2.219h2.104l-2.681-8.646zM18.236 14.632l0.513-1.834c0.141-0.501 0.269-1.155 0.398-1.668h0.026c0.128 0.513 0.282 1.155 0.436 1.668l0.539 1.834h-1.911z"></path>
</svg>
