<!-- Generated by IcoMoon.io -->
<svg version="1.1" xmlns="http://www.w3.org/2000/svg" width="32" height="32" viewBox="0 0 32 32">
<title>stadium1</title>
<path d="M9.226 0.423v6.077c-2.086 0.427-3.929 1.043-5.419 1.815v-1.795c0.901-0.454 1.809-0.901 2.709-1.355l-4.064-2.032v5.995c-1.714 1.179-2.709 2.608-2.709 4.166v0.339c0 0.684 0.237 1.348 0.677 1.985 0.183 0.271 0.413 0.542 0.677 0.806 0.596 0.589 1.382 1.145 2.31 1.639 0.135 0.075 0.271 0.149 0.413 0.217 0.237 0.129 0.487 0.245 0.745 0.353 0.149 0.068 0.306 0.128 0.462 0.196 0.149 0.061 0.298 0.115 0.447 0.176 2.235 0.867 5.012 1.457 8.088 1.66 0.352 0.020 0.698 0.041 1.057 0.054 0.081 0.007 0.169 0.007 0.257 0.007 0.142 0.007 0.285 0.013 0.427 0.013 0.23 0.007 0.46 0.007 0.697 0.007 0.359 0 0.725-0.006 1.077-0.020 0.19 0 0.373-0.008 0.556-0.021 0.285-0.007 0.569-0.026 0.847-0.040 0.86-0.061 1.7-0.156 2.512-0.271 2.256-0.318 4.288-0.854 5.981-1.565 0.156-0.068 0.313-0.128 0.462-0.196 0.23-0.095 0.453-0.204 0.663-0.312 2.574-1.26 4.16-2.913 4.16-4.687v-0.339c0-1.558-0.996-2.988-2.709-4.166v-2.608c0.901-0.454 1.809-0.901 2.709-1.355l-4.064-2.032v5.182c-1.49-0.772-3.333-1.388-5.419-1.815v-2.69c0.901-0.454 1.809-0.901 2.709-1.355l-4.064-2.032v5.832c-1.687-0.271-3.509-0.413-5.419-0.413s-3.732 0.142-5.419 0.413v-2.445c0.901-0.454 1.809-0.901 2.71-1.355l-4.064-2.032zM10.757 7.603l0.684 2.060c1.456-0.284 2.988-0.434 4.559-0.434s3.103 0.149 4.559 0.434l0.684-2.060c0.122 0.020 0.237 0.041 0.359 0.061 0.264 0.041 0.528 0.089 0.786 0.143h0.007l0.204 0.041-0.705 2.113c1.815 0.467 3.482 1.144 4.898 1.998l1.342-2.154c0.42 0.237 0.799 0.495 1.131 0.759l-1.342 2.147c0.935 0.698 1.72 1.483 2.323 2.336-0.257 0.339-0.582 0.664-0.975 0.968-0.522-0.793-1.22-1.517-2.067-2.16l-0.812 1.294c0.732 0.522 1.261 1.111 1.552 1.741-0.379 0.203-0.786 0.406-1.226 0.589-0.732-1.741-4.877-3.509-10.716-3.509s-9.985 1.768-10.716 3.509c-0.44-0.183-0.847-0.386-1.226-0.589 0.291-0.63 0.82-1.219 1.552-1.741l-0.812-1.294c-0.847 0.644-1.545 1.368-2.067 2.16-0.393-0.305-0.718-0.63-0.975-0.968 0.603-0.854 1.388-1.639 2.323-2.336l-1.342-2.147c0.332-0.264 0.711-0.522 1.131-0.759l1.342 2.154c1.416-0.854 3.082-1.53 4.898-1.998l-0.705-2.113 0.204-0.041h0.007c0.257-0.054 0.522-0.102 0.786-0.143 0.122-0.020 0.237-0.041 0.359-0.061zM16 10.584c-1.422 0-2.811 0.129-4.125 0.373l0.623 1.876c1.111-0.142 2.283-0.217 3.502-0.217s2.391 0.075 3.502 0.217l0.623-1.876c-1.314-0.244-2.703-0.373-4.125-0.373zM10.533 11.242c-1.727 0.434-3.299 1.064-4.613 1.856l0.847 1.355c1.185-0.603 2.676-1.084 4.37-1.402l-0.603-1.809zM21.467 11.242l-0.603 1.809c1.693 0.318 3.184 0.8 4.37 1.402l0.847-1.355c-1.314-0.793-2.886-1.423-4.613-1.856zM-0.257 16.952v7.857c0 3.306 4.464 6.043 10.838 7.038 0.44 0.075 0.894 0.135 1.355 0.189v-7.191c0-0.395 0.32-0.714 0.714-0.714h6.7c0.395 0 0.714 0.32 0.714 0.714v7.191c0.461-0.054 0.914-0.115 1.355-0.189 6.374-0.996 10.838-3.733 10.838-7.038v-7.857c-2.635 3.055-8.847 5.148-16.257 5.148-6.347 0-11.813-1.538-14.902-3.895-0.244-0.183-0.467-0.372-0.677-0.569-0.244-0.217-0.467-0.447-0.677-0.684z"></path>
</svg>
