<!-- Generated by IcoMoon.io -->
<svg version="1.1" xmlns="http://www.w3.org/2000/svg" width="32" height="32" viewBox="0 0 32 32">
<title>stadium2</title>
<path d="M0 4.575v22.857h32v-22.857zM2.286 6.86h12.571v3.536c-2.598 0.536-4.571 2.857-4.571 5.607s1.973 5.071 4.571 5.607v3.536h-12.571v-4.571h4.571v-9.143h-4.571zM17.143 6.86h12.571v4.571h-4.571v9.143h4.571v4.571h-12.571v-3.536c2.598-0.536 4.571-2.857 4.571-5.607s-1.973-5.071-4.571-5.607zM14.857 12.753v6.5c-1.339-0.464-2.286-1.741-2.286-3.25s0.946-2.786 2.286-3.25zM17.143 12.753c1.339 0.464 2.286 1.741 2.286 3.25s-0.946 2.786-2.286 3.25zM2.286 13.717h2.286v4.571h-2.286zM27.429 13.717h2.286v4.571h-2.286z"></path>
</svg>
