<!-- Generated by IcoMoon.io -->
<svg version="1.1" xmlns="http://www.w3.org/2000/svg" width="32" height="32" viewBox="0 0 32 32">
<title>stamp</title>
<path d="M2.010 31.69h28.137v-4.020h-28.137v4.020zM26.127 15.611h-4.18c-1.021 0-1.849-0.828-1.849-1.849v-0.594c0-1.719 0.558-3.354 1.348-4.881 0.572-1.106 0.81-2.411 0.568-3.795-0.425-2.436-2.416-4.44-4.852-4.864-3.808-0.663-7.113 2.25-7.113 5.935 0 0.889 0.196 1.73 0.546 2.486 0.837 1.812 1.464 3.713 1.464 5.71v0.004c0 1.021-0.828 1.849-1.849 1.849h-4.18c-3.33 0-6.029 2.699-6.029 6.029v2.010c0 1.11 0.9 2.010 2.010 2.010h28.137c1.11 0 2.010-0.9 2.010-2.010v-2.010c0-3.33-2.699-6.029-6.029-6.029z"></path>
</svg>
