<!-- Generated by IcoMoon.io -->
<svg version="1.1" xmlns="http://www.w3.org/2000/svg" width="32" height="32" viewBox="0 0 32 32">
<title>standing-man</title>
<path d="M16.348 0.003c-2.109 0-3.826 1.717-3.826 3.826s1.717 3.826 3.826 3.826c2.109 0 3.826-1.717 3.826-3.826s-1.717-3.826-3.826-3.826zM12.87 8.351c-2.109 0-3.826 1.717-3.826 3.826v8.696c0 0.769 0.625 1.391 1.391 1.391s1.391-0.622 1.391-1.391v-6.63c0-0.188 0.16-0.348 0.348-0.348s0.348 0.16 0.348 0.348v15.891c0 1.087 0.584 1.87 1.674 1.87 1.030 0 1.804-0.799 1.804-1.87v-8.935c0-0.193 0.155-0.348 0.348-0.348s0.348 0.155 0.348 0.348v9.13c0.003 0.005 0.019-0.005 0.022 0 0.095 0.962 0.821 1.674 1.783 1.674 1.087 0 1.674-0.783 1.674-1.87v-15.761c0-0.188 0.16-0.348 0.348-0.348s0.348 0.16 0.348 0.348v6.5c0 0.769 0.625 1.391 1.391 1.391s1.391-0.622 1.391-1.391v-8.696c0-2.109-1.717-3.826-3.826-3.826z"></path>
</svg>
