<!-- Generated by IcoMoon.io -->
<svg version="1.1" xmlns="http://www.w3.org/2000/svg" width="36" height="32" viewBox="0 0 36 32">
<title>star</title>
<path d="M33.168 10.304l-9.176-1.338-4.101-8.316c-0.735-1.482-2.864-1.501-3.605 0l-4.101 8.316-9.176 1.338c-1.645 0.239-2.305 2.267-1.112 3.429l6.639 6.469-1.57 9.138c-0.283 1.652 1.457 2.889 2.914 2.117l8.209-4.315 8.209 4.315c1.457 0.766 3.197-0.465 2.914-2.117l-1.57-9.138 6.639-6.469c1.193-1.162 0.534-3.191-1.112-3.429zM24.406 19.147l1.488 8.692-7.807-4.101-7.807 4.101 1.488-8.692-6.318-6.155 8.73-1.269 3.907-7.914 3.907 7.914 8.73 1.269-6.318 6.155z"></path>
</svg>
