<!-- Generated by IcoMoon.io -->
<svg version="1.1" xmlns="http://www.w3.org/2000/svg" width="32" height="32" viewBox="0 0 32 32">
<title>star-and-crescent</title>
<path d="M21.384 28.823c-0.091 0-0.433 0.029-0.577 0.029-7.301 0-13.241-5.94-13.241-13.241s5.94-13.241 13.241-13.241c0.146 0 0.484 0.029 0.577 0.029 0.448 0 0.837-0.316 0.926-0.758 0.092-0.455-0.16-0.91-0.595-1.073-1.832-0.687-3.728-1.035-5.637-1.035-8.866 0-16.078 7.213-16.078 16.078s7.213 16.078 16.078 16.078c1.899 0 3.786-0.345 5.61-1.025 0.374-0.127 0.646-0.48 0.646-0.896 0-0.508-0.401-0.946-0.95-0.946zM31.62 12.965l-4.797-0.697-2.145-4.347c-0.115-0.232-0.338-0.349-0.561-0.349s-0.446 0.116-0.561 0.349l-2.145 4.347-4.797 0.697c-0.513 0.074-0.718 0.705-0.347 1.067l3.471 3.383-0.82 4.778c-0.070 0.405 0.252 0.732 0.616 0.732 0.096 0 0.195-0.023 0.291-0.073l4.292-2.255 4.29 2.255c0.096 0.050 0.195 0.073 0.291 0.073 0.364 0 0.686-0.328 0.616-0.732l-0.82-4.778 3.471-3.383c0.371-0.362 0.166-0.993-0.347-1.067z"></path>
</svg>
