<!-- Generated by IcoMoon.io -->
<svg version="1.1" xmlns="http://www.w3.org/2000/svg" width="29" height="32" viewBox="0 0 29 32">
<title>star-of-david</title>
<path d="M25.479 15.611l3.342-5.614c0.905-1.521-0.214-3.43-2.010-3.43h-6.715l-3.514-5.902c-0.449-0.754-1.23-1.132-2.010-1.132s-1.561 0.378-2.010 1.132l-3.514 5.902h-6.716c-1.796 0-2.915 1.909-2.010 3.43l3.342 5.614-3.342 5.614c-0.905 1.52 0.214 3.43 2.010 3.43h6.716l3.514 5.902c0.449 0.754 1.23 1.132 2.010 1.132s1.561-0.378 2.010-1.132l3.514-5.902h6.716c1.796 0 2.915-1.909 2.010-3.43l-3.343-5.614zM24.677 10.084l-1.244 2.089-1.244-2.089h2.487zM21.386 15.611l-3.29 5.527h-7.049l-3.29-5.527 3.29-5.527h7.050l3.29 5.527zM14.571 4.163l1.431 2.404h-2.862l1.431-2.404zM4.465 10.084h2.487l-1.244 2.089-1.244-2.089zM4.465 21.138l1.244-2.089 1.244 2.089h-2.487zM14.571 27.060l-1.431-2.404h2.862l-1.431 2.404zM22.189 21.138l1.244-2.089 1.244 2.089h-2.488z"></path>
</svg>
