<!-- Generated by IcoMoon.io -->
<svg version="1.1" xmlns="http://www.w3.org/2000/svg" width="30" height="32" viewBox="0 0 30 32">
<title>star-of-life</title>
<path d="M29.644 20.537l-8.537-4.926 8.537-4.926c0.481-0.278 0.646-0.892 0.368-1.373l-2.011-3.481c-0.278-0.48-0.892-0.646-1.374-0.368l-8.537 4.926v-9.851c0-0.555-0.45-1.005-1.005-1.005h-4.022c-0.555 0-1.005 0.45-1.005 1.005v9.852l-8.537-4.926c-0.481-0.278-1.096-0.112-1.374 0.368l-2.011 3.481c-0.278 0.48-0.113 1.095 0.368 1.373l8.537 4.926-8.537 4.926c-0.481 0.278-0.646 0.892-0.368 1.373l2.011 3.481c0.278 0.48 0.893 0.645 1.374 0.368l8.537-4.926v9.851c0 0.555 0.45 1.005 1.005 1.005h4.022c0.555 0 1.005-0.45 1.005-1.005v-9.852l8.537 4.926c0.481 0.278 1.096 0.113 1.374-0.368l2.011-3.481c0.278-0.48 0.113-1.095-0.368-1.372z"></path>
</svg>
