<!-- Generated by IcoMoon.io -->
<svg version="1.1" xmlns="http://www.w3.org/2000/svg" width="34" height="32" viewBox="0 0 34 32">
<title>star-half-alt</title>
<path d="M31.94 10.305l-9.193-1.338-4.108-8.315c-0.369-0.743-1.090-1.119-1.81-1.119-0.716 0-1.431 0.371-1.802 1.119l-4.109 8.314-9.194 1.337c-1.649 0.239-2.309 2.267-1.114 3.429l6.651 6.469-1.574 9.137c-0.224 1.305 0.818 2.352 1.985 2.352 0.31 0 0.628-0.073 0.934-0.235l8.224-4.314 8.224 4.315c0.305 0.16 0.623 0.233 0.931 0.233 1.168 0 2.212-1.043 1.988-2.349l-1.572-9.138 6.652-6.468c1.196-1.162 0.535-3.191-1.114-3.429zM24.294 18.043l-1.138 1.107 1.495 8.688-7.82-4.103 0.002-19.921 3.907 7.909 8.745 1.273-5.191 5.048z"></path>
</svg>
