<!-- Generated by IcoMoon.io -->
<svg version="1.1" xmlns="http://www.w3.org/2000/svg" width="28" height="32" viewBox="0 0 28 32">
<title>staylinked</title>
<path d="M12.662 7.534c0.258-0.201 0.647-0.188 0.867 0.031l10.507 10.338 2.782 2.594c0.232 0.22 0.207 0.565-0.044 0.766l-12.436 10.294c-0.622 0.477-1.087 0.050-1.087 0.050l-13.108-12.316c-0.22-0.22-0.188-0.565 0.075-0.766l2.877-2.192c0.264-0.201 0.653-0.188 0.873 0.031l9.54 9.264c0.232 0.22 0.628 0.232 0.892 0.025l5.854-4.648c0.258-0.201 0.283-0.546 0.057-0.766l-5.276-5.106c-0.226-0.22-0.622-0.232-0.879-0.031l-0.006 0.006c-0.258 0.201-0.653 0.188-0.879-0.031l-4.277-4.038c-0.22-0.22-0.195-0.565 0.069-0.766l3.599-2.738zM13.591 23.695c0.232 0.22 0.634 0.232 0.898 0.025l3.153-2.437-0.019-0.019 0.484-0.377c0.264-0.201 0.289-0.546 0.057-0.766l-3.586-3.417c-0.226-0.22-0.628-0.232-0.892-0.031l-0.006 0.006c-0.264 0.201-0.66 0.195-0.892-0.025l-5.941-5.766c-0.226-0.22-0.195-0.559 0.069-0.766l5.791-4.491c0.258-0.201 0.647-0.188 0.873 0.031l10.074 9.986c0.232 0.22 0.628 0.232 0.886 0.031l2.877-2.248c0.258-0.201 0.276-0.546 0.044-0.766l-13.221-12.976c-0.094-0.075-0.502-0.345-1.024 0.069l-12.988 10.181c-0.264 0.201-0.301 0.546-0.075 0.766l2.657 2.619z"></path>
</svg>
