<!-- Generated by IcoMoon.io -->
<svg version="1.1" xmlns="http://www.w3.org/2000/svg" width="28" height="32" viewBox="0 0 28 32">
<title>steam-symbol</title>
<path d="M24.84 10.681c0 2.123-1.727 3.831-3.831 3.831-2.123 0-3.831-1.715-3.831-3.831s1.715-3.831 3.831-3.831c2.104 0 3.831 1.708 3.831 3.831zM28.137 10.694c0 3.957-3.203 7.147-7.141 7.147l-6.865 5.012c-0.251 2.701-2.544 4.823-5.307 4.823-2.544 0-4.692-1.809-5.213-4.208l-3.611-1.451v-6.739l6.105 2.468c0.948-0.578 2.022-0.835 3.266-0.722l4.459-6.387c0.031-3.913 3.235-7.085 7.16-7.085 3.944 0 7.147 3.203 7.147 7.141zM12.75 22.332c0-2.179-1.746-3.925-3.925-3.925-0.283 0-0.565 0.031-0.848 0.094l1.633 0.66c1.602 0.641 2.387 2.449 1.74 4.051-0.641 1.602-2.462 2.387-4.064 1.727-0.641-0.251-1.287-0.521-1.928-0.766 0.66 1.237 1.96 2.085 3.467 2.085 2.179 0 3.925-1.746 3.925-3.925zM25.782 10.694c0-2.638-2.154-4.786-4.786-4.786-2.657 0-4.805 2.148-4.805 4.786 0 2.65 2.154 4.786 4.805 4.786 2.632 0.006 4.786-2.129 4.786-4.786z"></path>
</svg>
