<!-- Generated by IcoMoon.io -->
<svg version="1.1" xmlns="http://www.w3.org/2000/svg" width="28" height="32" viewBox="0 0 28 32">
<title>steam-square</title>
<path d="M11.632 21.923c0.484-1.162-0.063-2.493-1.231-2.977l-1.853-0.766c0.716-0.27 1.526-0.283 2.286 0.031 0.766 0.32 1.357 0.917 1.677 1.677 0.314 0.766 0.314 1.608-0.006 2.368-0.66 1.576-2.475 2.324-4.057 1.664-0.729-0.301-1.281-0.854-1.595-1.52l1.79 0.741c1.168 0.49 2.506-0.057 2.99-1.218zM25.122 1.543h-22.108c-1.664 0-3.015 1.35-3.015 3.015v10.093l7.323 3.021c0.754-0.515 1.645-0.76 2.556-0.71l3.479-5.037v-0.069c0-3.027 2.468-5.496 5.502-5.496s5.502 2.468 5.502 5.496c0 3.090-2.569 5.571-5.627 5.496l-4.962 3.536c0.1 2.418-1.828 4.321-4.126 4.321-1.997 0-3.674-1.426-4.051-3.31l-5.596-2.317v7.085c0 1.664 1.35 3.015 3.015 3.015h22.108c1.664 0 3.015-1.35 3.015-3.015v-22.108c0-1.664-1.35-3.015-3.015-3.015zM18.861 15.517c-2.022 0-3.668-1.639-3.668-3.662s1.645-3.662 3.668-3.662 3.668 1.645 3.668 3.662-1.645 3.662-3.668 3.662zM18.867 14.6c1.52 0 2.757-1.231 2.757-2.751s-1.231-2.751-2.757-2.751c-1.52 0-2.757 1.231-2.757 2.751s1.237 2.751 2.757 2.751z"></path>
</svg>
