<!-- Generated by IcoMoon.io -->
<svg version="1.1" xmlns="http://www.w3.org/2000/svg" width="31" height="32" viewBox="0 0 31 32">
<title>steam</title>
<path d="M31.152 15.611c0 8.604-6.984 15.576-15.601 15.576-7.147 0-13.164-4.792-15.011-11.33l5.979 2.468c0.402 2.016 2.192 3.542 4.327 3.542 2.462 0 4.516-2.035 4.409-4.616l5.307-3.781c3.272 0.082 6.017-2.569 6.017-5.872 0-3.241-2.638-5.872-5.885-5.872s-5.885 2.638-5.885 5.872v0.075l-3.718 5.383c-0.973-0.057-1.928 0.214-2.732 0.76l-8.359-3.454c0.641-8.020 7.355-14.326 15.551-14.326 8.617 0 15.601 6.971 15.601 15.576zM9.779 23.669l-1.916-0.791c0.358 0.731 0.955 1.3 1.687 1.612l0.022 0.008c1.69 0.703 3.63-0.1 4.334-1.784 0.339-0.816 0.345-1.715 0.006-2.531s-0.973-1.457-1.79-1.796c-0.81-0.339-1.677-0.327-2.443-0.038l1.978 0.816c1.244 0.515 1.834 1.941 1.313 3.184-0.521 1.25-1.947 1.834-3.191 1.319zM20.695 15.511c-2.16 0-3.919-1.759-3.919-3.913s1.759-3.913 3.919-3.913 3.919 1.759 3.919 3.913-1.752 3.913-3.919 3.913zM20.701 14.531c1.627 0 2.946-1.319 2.946-2.939 0-1.627-1.319-2.939-2.946-2.939s-2.946 1.319-2.946 2.939c0.006 1.62 1.325 2.939 2.946 2.939z"></path>
</svg>
