<!-- Generated by IcoMoon.io -->
<svg version="1.1" xmlns="http://www.w3.org/2000/svg" width="32" height="32" viewBox="0 0 32 32">
<title>stethoscope</title>
<path d="M28.081 6.567c-2.148 0.031-3.913 1.784-3.957 3.932-0.031 1.526 0.785 2.864 2.010 3.567v7.072c0 3.599-3.153 6.532-7.034 6.532-3.768 0-6.858-2.77-7.028-6.23 4.572-0.942 8.027-4.999 8.027-9.848v-9.76c0-0.716-0.509-1.338-1.212-1.476l-3.95-0.791c-0.816-0.163-1.608 0.364-1.771 1.181l-0.201 0.986c-0.163 0.816 0.364 1.608 1.181 1.771l1.928 0.383v7.625c0 3.322-2.65 6.073-5.973 6.105-3.354 0.031-6.086-2.682-6.086-6.029v-7.694l1.928-0.383c0.816-0.163 1.344-0.955 1.181-1.771l-0.195-0.986c-0.163-0.816-0.955-1.344-1.771-1.181l-3.944 0.779c-0.703 0.144-1.212 0.76-1.212 1.482v9.76c0 4.855 3.461 8.918 8.045 9.848 0.163 5.678 5.056 10.25 11.048 10.25 6.092 0 11.054-4.736 11.054-10.551v-7.072c1.2-0.697 2.010-1.991 2.010-3.479 0-2.242-1.834-4.051-4.076-4.020zM28.137 11.592c-0.553 0-1.005-0.452-1.005-1.005s0.452-1.005 1.005-1.005 1.005 0.452 1.005 1.005-0.452 1.005-1.005 1.005z"></path>
</svg>
