<!-- Generated by IcoMoon.io -->
<svg version="1.1" xmlns="http://www.w3.org/2000/svg" width="28" height="32" viewBox="0 0 28 32">
<title>sticky-note</title>
<path d="M28.137 21.396v-16.839c0-1.665-1.35-3.015-3.015-3.015h-22.108c-1.665 0-3.015 1.35-3.015 3.015v22.107c0 1.665 1.35 3.015 3.015 3.015h16.839c0.832 0 1.586-0.337 2.132-0.883l5.268-5.268c0.546-0.546 0.883-1.299 0.883-2.132v0zM20.098 26.421v-4.781h4.781l-4.781 4.781zM25.122 4.557v14.068h-6.532c-0.832 0-1.507 0.675-1.507 1.507v6.532h-14.069v-22.107h22.108z"></path>
</svg>
