<!-- Generated by IcoMoon.io -->
<svg version="1.1" xmlns="http://www.w3.org/2000/svg" width="36" height="32" viewBox="0 0 36 32">
<title>sticker-mule</title>
<path d="M22.177 31.552c-0.371 0.182-2.016 0.201-2.292-0.031-0.258-0.188-0.138-0.747-0.094-0.942 0.138-0.942-0.157-0.496-0.615-0.722-0.195-0.094-0.258-0.345-0.289-0.628-0.031-0.094-0.063-0.157-0.094-0.22-0.107-0.672 0.427-2.11 0.515-2.726 0.308-1.488-0.044-2.336 0.094-2.946 0.232-1.018 0.258-0.22 0.258-1.878-0.088-1.627 0.207-2.317 0.031-2.443-0.93 0-4.038 0.672-7.047 0.126-2.895-0.559-3.731-1.821-4.107-1.941-0.647-0.283-1.457 0.031-1.715 0.44-0.006 0.006-2.198 4.434-2.487 5.514-0.389 1.288-0.031 2.977 0.258 4.195 0 0.006 0.283 0.917 0.647 1.225 0.132 0.094 0.32 0.157 0.452 0.283 0.176 0.17 0.59 0.955 0.615 1.005 0.163 0.283 0.226 0.503-0.094 0.66-0.226 0.126-0.584 0.157-0.904 0.157-0.163 0.031-0.094 0.22-0.195 0.314-0.182 0.176-1.3 0.383-1.878 0.157-0.163-0.063-0.358-0.188-0.389-0.314-0.094-0.251 0.132-0.565-0.063-0.785-0.283-0.182-0.823-0.126-1.068-0.754-0.138-0.339-0.163-0.477-0.163-3.103 0-0.609-0.371-2.431-0.515-2.946-0.094-0.345-0.094-0.722 0-1.005 0.019-0.057 0.258-0.289 0.258-0.816-0.063-0.094-0.289-0.031-0.32-0.094-0.653-5.062-0.371-4.962-0.484-6.174-0.094-1.005-0.685-2.757-0.421-4.038 0.031-0.151 0.214-1.319 1.52-2.443 1.947-1.677 3.040-2.405 9.986-0.722 0.069 0.025 4.164 1.325 6.953-0.565 0.973-0.71 1.809-0.71 2.23-1.005 0.006-0.006 3.875-3.272 5.464-4.101 2.964-1.847 4.39-1.049 4.717-1.13 0.295-0.063 0.842-1.62 1.068-1.62 0.345 0 0.1 1.269 0.226 1.627 0.031 0.126 0.226 0.314 0.389 0.314 0.145 0 0.107-0.050 0.647-0.314 0.528-0.339 0.936-1.105 1.294-1.068 0.735 0.1-1.193 2.613-1.193 2.946 0 0.126 0.013 0.050 0.289 0.597 0.163 0.345 0.289 0.848 0.389 1.256 0.521 1.865 0.358 0.917 0.842 2.317 1.269 3.147 1.294 2.839 1.294 3.322 0 0.471-0.258 0.691-0.452 1.036-0.094 0.188-0.289 0.471-0.452 0.502-0.17 0.044 0.44-0.094-0.842 0.157-0.452 0.063-0.842-0.283-0.936-0.597-0.1-0.295 0.176-0.634-0.741-1.438-0.647-0.628-1.325-0.71-2.003-1.068-0.615-0.358-0.747 0.063-1.13 0.502-1.13 1.438-2.135 2.946-3.266 4.384-0.741 0.942-1.52 1.909-2.104 2.977-0.245 0.427-0.597 1.765-0.647 1.878-0.389 1.112-0.345 1.62-1.036 4.29-0.195 0.628-0.358 1.344-0.546 2.035-0.138 0.427-0.465 3.096-0.031 3.731 0.132 0.22 0.546 0.283 0.71 0.503 0.006 0.006 0.603 1.143 0.584 1.256 0 0.383-0.59 0.352-0.71 0.408-0.301 0.182-0.239 0.371-0.402 0.465z"></path>
</svg>
