<!-- Generated by IcoMoon.io -->
<svg version="1.1" xmlns="http://www.w3.org/2000/svg" width="32" height="32" viewBox="0 0 32 32">
<title>stop-circle</title>
<path d="M31.654 15.611c0-8.604-6.971-15.576-15.576-15.576s-15.576 6.971-15.576 15.576 6.971 15.576 15.576 15.576 15.576-6.971 15.576-15.576zM3.517 15.611c0-6.94 5.621-12.561 12.561-12.561s12.561 5.621 12.561 12.561-5.621 12.561-12.561 12.561-12.561-5.621-12.561-12.561zM22.108 10.587v10.049c0 0.553-0.452 1.005-1.005 1.005h-10.049c-0.553 0-1.005-0.452-1.005-1.005v-10.049c0-0.553 0.452-1.005 1.005-1.005h10.049c0.553 0 1.005 0.452 1.005 1.005z"></path>
</svg>
