<!-- Generated by IcoMoon.io -->
<svg version="1.1" xmlns="http://www.w3.org/2000/svg" width="39" height="32" viewBox="0 0 39 32">
<title>store</title>
<path d="M37.809 6.982l-4.076-6.507c-0.364-0.584-1.011-0.942-1.702-0.942h-25.374c-0.691 0-1.338 0.358-1.702 0.942l-4.076 6.507c-2.104 3.36-0.239 8.033 3.693 8.567 0.283 0.038 0.572 0.057 0.86 0.057 1.859 0 3.505-0.816 4.635-2.079 1.13 1.262 2.782 2.079 4.635 2.079 1.859 0 3.505-0.816 4.635-2.079 1.13 1.262 2.782 2.079 4.635 2.079 1.859 0 3.505-0.816 4.635-2.079 1.137 1.262 2.782 2.079 4.635 2.079 0.295 0 0.578-0.019 0.86-0.057 3.944-0.527 5.816-5.2 3.706-8.567zM33.256 17.621c-0.628 0-1.25-0.094-1.853-0.239v6.268h-24.118v-6.268c-0.603 0.138-1.225 0.239-1.853 0.239-0.377 0-0.76-0.025-1.13-0.075-0.352-0.050-0.697-0.132-1.030-0.226v12.36c0 1.112 0.898 2.010 2.010 2.010h28.137c1.112 0 2.010-0.898 2.010-2.010v-12.36c-0.339 0.1-0.678 0.182-1.030 0.226-0.383 0.050-0.76 0.075-1.143 0.075z"></path>
</svg>
