<!-- Generated by IcoMoon.io -->
<svg version="1.1" xmlns="http://www.w3.org/2000/svg" width="40" height="32" viewBox="0 0 40 32">
<title>store-alt</title>
<path d="M20.098 23.651h-12.059v-10.049h-4.020v16.078c0 1.112 0.898 2.010 2.010 2.010h16.078c1.112 0 2.010-0.898 2.010-2.010v-16.078h-4.020v10.049zM39.857 8.464l-5.357-8.039c-0.377-0.559-1.005-0.892-1.677-0.892h-25.449c-0.672 0-1.3 0.333-1.671 0.892l-5.357 8.039c-0.892 1.338 0.063 3.128 1.671 3.128h36.17c1.602 0 2.556-1.79 1.671-3.128zM32.157 30.685c0 0.553 0.452 1.005 1.005 1.005h2.010c0.553 0 1.005-0.452 1.005-1.005v-17.083h-4.020v17.083z"></path>
</svg>
