<!-- Generated by IcoMoon.io -->
<svg version="1.1" xmlns="http://www.w3.org/2000/svg" width="32" height="32" viewBox="0 0 32 32">
<title>street-view</title>
<path d="M23.106 20.244c-0.29 0.333-0.614 0.634-0.999 0.857v1.441c4.178 0.587 7.034 1.762 7.034 3.118 0 1.943-5.848 3.517-13.064 3.517s-13.064-1.575-13.064-3.517c0-1.357 2.856-2.531 7.034-3.118v-1.441c-0.384-0.223-0.708-0.524-0.999-0.857-5.353 0.979-9.050 3.033-9.050 5.416 0 3.33 7.199 6.029 16.078 6.029s16.078-2.699 16.078-6.029c0-2.383-3.697-4.438-9.050-5.416zM16.078 7.572c2.22 0 4.020-1.799 4.020-4.020s-1.799-4.020-4.020-4.020-4.020 1.799-4.020 4.020 1.799 4.020 4.020 4.020zM12.059 19.631v6.029c0 1.11 0.9 2.010 2.010 2.010h4.020c1.11 0 2.010-0.9 2.010-2.010v-6.029c1.11 0 2.010-0.9 2.010-2.010v-6.029c0-1.665-1.35-3.015-3.015-3.015h-0.741c-0.695 0.316-1.461 0.502-2.274 0.502s-1.578-0.187-2.274-0.502h-0.741c-1.665 0-3.015 1.35-3.015 3.015v6.029c0 1.11 0.9 2.010 2.010 2.010z"></path>
</svg>
