<!-- Generated by IcoMoon.io -->
<svg version="1.1" xmlns="http://www.w3.org/2000/svg" width="32" height="32" viewBox="0 0 32 32">
<title>stream</title>
<path d="M1.005 7.572h26.127c0.555 0 1.005-0.45 1.005-1.005v-4.020c0-0.555-0.45-1.005-1.005-1.005h-26.127c-0.555 0-1.005 0.45-1.005 1.005v4.020c0 0.555 0.45 1.005 1.005 1.005zM31.152 12.597h-26.127c-0.555 0-1.005 0.45-1.005 1.005v4.020c0 0.555 0.45 1.005 1.005 1.005h26.127c0.555 0 1.005-0.45 1.005-1.005v-4.020c0-0.555-0.45-1.005-1.005-1.005zM27.132 23.651h-26.127c-0.555 0-1.005 0.45-1.005 1.005v4.020c0 0.555 0.45 1.005 1.005 1.005h26.127c0.555 0 1.005-0.45 1.005-1.005v-4.020c0-0.555-0.45-1.005-1.005-1.005z"></path>
</svg>
