<!-- Generated by IcoMoon.io -->
<svg version="1.1" xmlns="http://www.w3.org/2000/svg" width="23" height="32" viewBox="0 0 23 32">
<title>stripe-s</title>
<path d="M9.063 9.243c0-1.401 1.168-1.941 3.040-1.941 2.726 0 6.186 0.835 8.912 2.305v-8.435c-2.971-1.187-5.935-1.639-8.906-1.639-7.267 0-12.109 3.793-12.109 10.137 0 9.917 13.616 8.309 13.616 12.586 0 1.658-1.438 2.192-3.435 2.192-2.964 0-6.796-1.225-9.804-2.858v8.071c3.329 1.432 6.708 2.035 9.798 2.035 7.449 0 12.58-3.203 12.58-9.647 0-10.69-13.692-8.774-13.692-12.806z"></path>
</svg>
