<!-- Generated by IcoMoon.io -->
<svg version="1.1" xmlns="http://www.w3.org/2000/svg" width="32" height="32" viewBox="0 0 32 32">
<title>strikethrough</title>
<path d="M31.152 17.621h-30.147c-0.555 0-1.005-0.45-1.005-1.005v-2.010c0-0.555 0.45-1.005 1.005-1.005h30.147c0.555 0 1.005 0.45 1.005 1.005v2.010c0 0.555-0.45 1.005-1.005 1.005zM17.669 18.626c1.712 0.812 2.922 1.801 2.922 3.532 0 2.079-1.82 3.371-4.749 3.371-2.030 0-4.828-0.759-4.828-2.781v-0.103c0-0.555-0.45-1.005-1.005-1.005h-2.865c-0.555 0-1.005 0.45-1.005 1.005v1.206c0 4.198 4.881 6.395 9.703 6.395 5.563 0 10.175-2.854 10.175-8.443 0-1.245-0.227-2.287-0.637-3.178h-7.711zM15.726 12.597c-2.036-0.848-3.57-1.818-3.57-3.748 0-2.13 1.941-2.977 4.080-2.977 2.678 0 4.080 1.042 4.080 2.072v0.132c0 0.555 0.45 1.005 1.005 1.005h2.865c0.555 0 1.005-0.45 1.005-1.005v-1.904c0-3.293-4.505-5.017-8.955-5.017-5.351 0-9.467 2.573-9.467 7.891 0 1.426 0.293 2.586 0.802 3.552h8.154z"></path>
</svg>
