<!-- Generated by IcoMoon.io -->
<svg version="1.1" xmlns="http://www.w3.org/2000/svg" width="40" height="32" viewBox="0 0 40 32">
<title>stripe</title>
<path d="M40.196 15.963c0-2.858-1.382-5.112-4.032-5.112s-4.265 2.255-4.265 5.094c0 3.36 1.903 4.911 4.616 4.911 1.331 0 2.33-0.301 3.090-0.722v-2.098c-0.76 0.383-1.633 0.615-2.738 0.615-1.087 0-2.041-0.383-2.167-1.69h5.458c0.013-0.145 0.038-0.729 0.038-0.999zM34.675 14.908c0-1.256 0.773-1.784 1.47-1.784 0.685 0 1.413 0.527 1.413 1.784h-2.883zM27.584 10.851c-1.093 0-1.796 0.515-2.186 0.873l-0.145-0.691h-2.456v12.863l2.789-0.59 0.006-3.153c0.402 0.295 0.999 0.703 1.972 0.703 1.997 0 3.819-1.457 3.819-4.999 0.006-3.241-1.84-5.006-3.8-5.006zM26.919 18.544c-0.653 0-1.043-0.239-1.313-0.527l-0.019-4.145c0.289-0.32 0.691-0.553 1.331-0.553 1.017 0 1.721 1.143 1.721 2.6 0.006 1.501-0.685 2.625-1.721 2.625zM21.756 7.321v2.274l-2.801 0.597v-2.274l2.801-0.597zM18.961 11.039h2.801v9.622h-2.801v-9.622zM15.959 11.862c0.653-1.2 1.953-0.955 2.33-0.823v2.563c-0.358-0.113-1.47-0.283-2.129 0.584v6.475h-2.782v-9.622h2.412l0.17 0.823zM10.369 11.039h2.117v2.374h-2.117v3.969c0 1.645 1.759 1.13 2.117 0.986v2.123c-0.371 0.201-1.043 0.371-1.96 0.371-1.652 0-2.895-1.068-2.895-2.72l0.013-8.944 2.72-0.578 0.006 2.418zM2.82 13.872c0 1.256 4.265 0.66 4.265 3.982 0 2.010-1.595 3.002-3.913 3.002-0.961 0-2.010-0.188-3.046-0.634v-2.512c0.936 0.509 2.129 0.892 3.052 0.892 0.622 0 1.068-0.17 1.068-0.685 0-1.331-4.239-0.829-4.239-3.919 0-1.972 1.507-3.153 3.768-3.153 0.923 0 1.847 0.145 2.77 0.509v2.625c-0.848-0.458-1.928-0.716-2.776-0.716-0.584 0.006-0.948 0.176-0.948 0.609z"></path>
</svg>
