<!-- Generated by IcoMoon.io -->
<svg version="1.1" xmlns="http://www.w3.org/2000/svg" width="32" height="32" viewBox="0 0 32 32">
<title>stroopwafel</title>
<path d="M11.815 12.769l-2.843 2.843 2.842 2.842 2.843-2.842-2.842-2.843zM18.92 11.348l-2.842-2.843-2.842 2.842 2.842 2.843 2.842-2.842zM13.236 19.875l2.842 2.843 2.843-2.843-2.843-2.842-2.842 2.842zM16.078-0.467c-8.88 0-16.078 7.199-16.078 16.078s7.199 16.078 16.078 16.078 16.078-7.199 16.078-16.078-7.199-16.078-16.078-16.078zM27.803 18.098l-0.71 0.71c-0.196 0.196-0.514 0.196-0.71 0l-1.777-1.777-2.842 2.842 2.132 2.132 1.066-1.066c0.196-0.196 0.514-0.196 0.71 0l0.71 0.71c0.196 0.196 0.196 0.514 0 0.71l-1.066 1.066 1.066 1.066c0.196 0.196 0.196 0.514 0 0.71l-0.71 0.71c-0.196 0.196-0.514 0.196-0.71 0l-1.066-1.066-1.066 1.066c-0.196 0.196-0.514 0.196-0.71 0l-0.71-0.71c-0.196-0.196-0.196-0.514 0-0.71l1.066-1.066-2.132-2.132-2.843 2.843 1.777 1.777c0.196 0.196 0.196 0.514 0 0.71l-0.71 0.71c-0.196 0.196-0.514 0.196-0.71 0l-1.778-1.775-1.777 1.777c-0.196 0.196-0.514 0.196-0.71 0l-0.71-0.71c-0.196-0.196-0.196-0.514 0-0.71l1.777-1.777-2.842-2.843-2.132 2.132 1.066 1.066c0.196 0.196 0.196 0.514 0 0.71l-0.71 0.71c-0.196 0.196-0.514 0.196-0.71 0l-1.066-1.066-1.066 1.066c-0.196 0.196-0.514 0.196-0.71 0l-0.71-0.71c-0.196-0.196-0.196-0.514 0-0.71l1.066-1.066-1.066-1.066c-0.196-0.196-0.196-0.514 0-0.71l0.71-0.71c0.196-0.196 0.514-0.196 0.71 0l1.066 1.066 2.132-2.132-2.842-2.842-1.777 1.777c-0.196 0.196-0.514 0.196-0.71 0l-0.712-0.712c-0.196-0.196-0.196-0.514 0-0.71l1.777-1.777-1.777-1.777c-0.196-0.196-0.196-0.514 0-0.71l0.71-0.71c0.196-0.196 0.514-0.196 0.71 0l1.777 1.777 2.842-2.843-2.132-2.132-1.066 1.066c-0.196 0.196-0.514 0.196-0.71 0l-0.71-0.71c-0.196-0.196-0.196-0.514 0-0.71l1.066-1.066-1.066-1.066c-0.196-0.196-0.196-0.514 0-0.71l0.71-0.71c0.196-0.196 0.514-0.196 0.71 0l1.066 1.066 1.066-1.066c0.196-0.196 0.514-0.196 0.71 0l0.71 0.71c0.196 0.196 0.196 0.514 0 0.71l-1.066 1.066 2.132 2.132 2.843-2.842-1.777-1.777c-0.196-0.196-0.196-0.514 0-0.71l0.71-0.71c0.196-0.196 0.514-0.196 0.71 0l1.778 1.775 1.777-1.777c0.196-0.196 0.514-0.196 0.71 0l0.71 0.71c0.196 0.196 0.196 0.514 0 0.71l-1.777 1.777 2.843 2.842 2.132-2.132-1.066-1.066c-0.196-0.196-0.196-0.514 0-0.71l0.71-0.71c0.196-0.196 0.514-0.196 0.71 0l1.066 1.066 1.066-1.066c0.196-0.196 0.514-0.196 0.71 0l0.71 0.71c0.196 0.196 0.196 0.514 0 0.71l-1.066 1.066 1.066 1.066c0.196 0.196 0.196 0.514 0 0.71l-0.71 0.71c-0.196 0.196-0.514 0.196-0.71 0l-1.066-1.066-2.132 2.132 2.842 2.843 1.777-1.777c0.196-0.196 0.514-0.196 0.71 0l0.71 0.71c0.196 0.196 0.196 0.514 0 0.71l-1.775 1.778 1.777 1.776c0.091 0.091 0.147 0.217 0.147 0.355s-0.056 0.264-0.147 0.355v0zM17.5 15.611l2.843 2.842 2.842-2.842-2.842-2.843-2.843 2.843z"></path>
</svg>
