<!-- Generated by IcoMoon.io -->
<svg version="1.1" xmlns="http://www.w3.org/2000/svg" width="32" height="32" viewBox="0 0 32 32">
<title>studiovinari</title>
<path d="M30.166 11.322l0.264 1.759v1.759l-1.576 2.77-2.5 4.924-3.523 4.239-4.968 2.374-1.112 1.539-0.484 0.754-0.603 0.251s1.087-3.994 1.218-3.994c0.132 0 1.275 0.044 1.275 0.044l4.189-2.424-5.81 1.639-3.511 2.311-1.432 1.759-0.415 0.088 1.306-4.622 0.433-0.345 1.3 0.81 5.546-2.839 3.567-3.235 0.93-4.296-7.876 1.463 0.955-1.143-10.891-3.348 5.144-0.66-10.426-7.719 7.216 1.137-6.362-6.783 15.884 7.951-1.978-2.387 7.813 4.673-9-6.218 1.175 2.412-3.115-1.137-2.858-5.295 12.222 7.662-2.694-3.505 6.783 6.054 0.754-0.559-1.319-1.030 0.264-2.374 2.374-0.653 1.834 1.551 0.722 0.264-0.44 0.389 0.534 0.754-0.823 0.465-0.647 1.269 0.66 1.501z"></path>
</svg>
