<!-- Generated by IcoMoon.io -->
<svg version="1.1" xmlns="http://www.w3.org/2000/svg" width="31" height="32" viewBox="0 0 31 32">
<title>stumbleupon-circle</title>
<path d="M16.078 0.035c-8.604 0-15.576 6.971-15.576 15.576s6.971 15.576 15.576 15.576 15.576-6.971 15.576-15.576-6.971-15.576-15.576-15.576zM16.078 11.184c-0.615 0-1.118 0.502-1.118 1.118v6.714c0 2.569-2.129 4.641-4.704 4.641-2.6 0-4.704-2.104-4.704-4.704v-2.92h3.599v2.877c0 0.628 0.502 1.118 1.118 1.118s1.118-0.496 1.118-1.118v-6.808c0-2.512 2.148-4.528 4.692-4.528 2.556 0 4.692 2.029 4.692 4.56v1.488l-2.142 0.634-1.438-0.672v-1.294c0.006-0.603-0.496-1.105-1.112-1.105zM26.605 18.946c0 2.6-2.104 4.704-4.704 4.704-2.588 0-4.704-2.085-4.704-4.66v-2.939l1.438 0.672 2.142-0.634v2.958c0 0.615 0.503 1.105 1.118 1.105s1.118-0.496 1.118-1.105v-3.015h3.599c-0.006 2.883-0.006 2.914-0.006 2.914z"></path>
</svg>
