<!-- Generated by IcoMoon.io -->
<svg version="1.1" xmlns="http://www.w3.org/2000/svg" width="32" height="32" viewBox="0 0 32 32">
<title>subscript</title>
<path d="M24.821 25.66c0.217-0.661 1.181-1.337 2.278-2.037 1.044-0.666 2.228-1.421 3.162-2.441 1.096-1.197 1.629-2.523 1.629-4.055 0-3.804-3.184-5.536-6.143-5.536-2.669 0-4.797 1.383-5.931 3.168-0.292 0.46-0.163 1.070 0.29 1.373l1.905 1.275c0.442 0.296 1.034 0.194 1.358-0.227 0.504-0.653 1.182-1.145 1.989-1.145 1.218 0 1.65 0.81 1.65 1.504 0 2.271-7.501 3.581-7.501 10.050 0 0.418 0.035 0.817 0.089 1.214 0.068 0.5 0.492 0.875 0.997 0.875h10.56c0.555 0 1.005-0.45 1.005-1.005v-2.010c0-0.555-0.45-1.005-1.005-1.005h-6.331zM17.083 15.611c0.555 0 1.005 0.45 1.005 1.005v2.010c0 0.555-0.45 1.005-1.005 1.005h-3.919c-0.357 0-0.67-0.186-0.848-0.466l-0.002-0.004-2.87-4.561c-0.144-0.211-0.278-0.438-0.389-0.641-0.104 0.204-0.229 0.436-0.369 0.665l-2.808 4.531c-0.18 0.287-0.495 0.476-0.854 0.476 0 0 0 0 0 0h-4.018c-0.555 0-1.005-0.45-1.005-1.005v-2.010c0-0.555 0.45-1.005 1.005-1.005h1.653l3.552-5.195-3.314-4.854h-1.891c-0.555 0-1.005-0.45-1.005-1.005v-2.010c0-0.555 0.45-1.005 1.005-1.005h4.321c0 0 0 0 0 0 0.361 0 0.677 0.19 0.855 0.476l0.002 0.004 2.505 4.090c0.13 0.221 0.255 0.45 0.36 0.651 0.112-0.204 0.246-0.437 0.392-0.662l2.533-4.085c0.18-0.287 0.495-0.475 0.854-0.475h4.257c0.555 0 1.005 0.45 1.005 1.005v2.010c0 0.555-0.45 1.005-1.005 1.005h-1.757l-3.309 4.753 3.683 5.296h1.383z"></path>
</svg>
