<!-- Generated by IcoMoon.io -->
<svg version="1.1" xmlns="http://www.w3.org/2000/svg" width="28" height="32" viewBox="0 0 28 32">
<title>subway</title>
<path d="M28.137 5.562v16.078c0 3.254-3.87 6.029-8.166 6.029l3.956 3.123c0.374 0.295 0.164 0.897-0.311 0.897h-19.093c-0.476 0-0.684-0.603-0.311-0.897l3.955-3.123c-4.284 0-8.166-2.766-8.166-6.029v-16.078c0-3.33 4.020-6.029 8.039-6.029h12.059c4.082 0 8.039 2.699 8.039 6.029zM12.561 14.104v-7.034c0-0.833-0.675-1.507-1.507-1.507h-6.532c-0.833 0-1.507 0.675-1.507 1.507v7.034c0 0.832 0.675 1.507 1.507 1.507h6.532c0.832 0 1.507-0.675 1.507-1.507zM25.122 14.104v-7.034c0-0.833-0.675-1.507-1.507-1.507h-6.532c-0.832 0-1.507 0.675-1.507 1.507v7.034c0 0.832 0.675 1.507 1.507 1.507h6.532c0.832 0 1.507-0.675 1.507-1.507zM22.108 17.621c-1.665 0-3.015 1.35-3.015 3.015s1.35 3.015 3.015 3.015 3.015-1.35 3.015-3.015-1.35-3.015-3.015-3.015zM6.029 17.621c-1.665 0-3.015 1.35-3.015 3.015s1.35 3.015 3.015 3.015 3.015-1.35 3.015-3.015-1.35-3.015-3.015-3.015z"></path>
</svg>
