<!-- Generated by IcoMoon.io -->
<svg version="1.1" xmlns="http://www.w3.org/2000/svg" width="32" height="32" viewBox="0 0 32 32">
<title>suitcase</title>
<path d="M8.039 29.68h16.078v-25.122c0-1.664-1.35-3.015-3.015-3.015h-10.049c-1.664 0-3.015 1.35-3.015 3.015v25.122zM12.059 5.562h8.039v2.010h-8.039v-2.010zM32.157 10.587v16.078c0 1.664-1.35 3.015-3.015 3.015h-3.015v-22.108h3.015c1.664 0 3.015 1.35 3.015 3.015zM6.029 29.68h-3.015c-1.664 0-3.015-1.35-3.015-3.015v-16.078c0-1.664 1.35-3.015 3.015-3.015h3.015v22.108z"></path>
</svg>
