<!-- Generated by IcoMoon.io -->
<svg version="1.1" xmlns="http://www.w3.org/2000/svg" width="24" height="32" viewBox="0 0 24 32">
<title>suitcase-rolling</title>
<path d="M21.103 9.582h-18.088c-1.665 0-3.015 1.35-3.015 3.015v14.069c0 1.665 1.35 3.015 3.015 3.015h1.005v1.005c0 0.555 0.45 1.005 1.005 1.005h2.010c0.555 0 1.005-0.45 1.005-1.005v-1.005h8.039v1.005c0 0.555 0.45 1.005 1.005 1.005h2.010c0.555 0 1.005-0.45 1.005-1.005v-1.005h1.005c1.665 0 3.015-1.35 3.015-3.015v-14.069c0-1.665-1.35-3.015-3.015-3.015zM20.098 23.148c0 0.278-0.225 0.503-0.503 0.503h-15.073c-0.278 0-0.502-0.225-0.502-0.503v-1.005c0-0.278 0.225-0.503 0.502-0.503h15.073c0.278 0 0.503 0.225 0.503 0.503v1.005zM20.098 17.119c0 0.278-0.225 0.503-0.503 0.503h-15.073c-0.278 0-0.502-0.225-0.502-0.503v-1.005c0-0.278 0.225-0.502 0.502-0.502h15.073c0.278 0 0.503 0.225 0.503 0.502v1.005zM9.044 2.548h6.029v5.024h3.015v-5.024c0-1.665-1.35-3.015-3.015-3.015h-6.029c-1.665 0-3.015 1.35-3.015 3.015v5.024h3.015v-5.024z"></path>
</svg>
