<!-- Generated by IcoMoon.io -->
<svg version="1.1" xmlns="http://www.w3.org/2000/svg" width="32" height="32" viewBox="0 0 32 32">
<title>summary-list</title>
<path d="M3.478 0.003v32h25.043v-32zM4.87 1.394h22.261v29.217h-22.261zM19.467 4.862c-0.383 0.008-0.69 0.323-0.685 0.707v20.174c-0.003 0.25 0.128 0.484 0.345 0.611 0.217 0.125 0.484 0.125 0.701 0 0.217-0.128 0.348-0.361 0.345-0.611v-20.174c0.003-0.188-0.071-0.37-0.204-0.503s-0.315-0.207-0.503-0.204zM8.348 6.264c-0.25-0.003-0.484 0.128-0.611 0.345-0.125 0.217-0.125 0.484 0 0.701 0.128 0.217 0.361 0.348 0.611 0.345h7.652c0.25 0.003 0.484-0.128 0.611-0.345 0.125-0.217 0.125-0.484 0-0.701-0.128-0.217-0.361-0.348-0.611-0.345zM22.957 6.264c-0.25-0.003-0.484 0.128-0.611 0.345-0.125 0.217-0.125 0.484 0 0.701 0.128 0.217 0.361 0.348 0.611 0.345h0.696c0.25 0.003 0.484-0.128 0.611-0.345 0.125-0.217 0.125-0.484 0-0.701-0.128-0.217-0.361-0.348-0.611-0.345zM8.348 11.829c-0.25-0.003-0.484 0.128-0.611 0.345-0.125 0.217-0.125 0.484 0 0.701 0.128 0.217 0.361 0.348 0.611 0.345h7.652c0.25 0.003 0.484-0.128 0.611-0.345 0.125-0.217 0.125-0.484 0-0.701-0.128-0.217-0.361-0.348-0.611-0.345zM22.957 11.829c-0.25-0.003-0.484 0.128-0.611 0.345-0.125 0.217-0.125 0.484 0 0.701 0.128 0.217 0.361 0.348 0.611 0.345h0.696c0.25 0.003 0.484-0.128 0.611-0.345 0.125-0.217 0.125-0.484 0-0.701-0.128-0.217-0.361-0.348-0.611-0.345zM8.348 17.394c-0.25-0.003-0.484 0.128-0.611 0.345-0.125 0.217-0.125 0.484 0 0.701 0.128 0.217 0.361 0.348 0.611 0.345h7.652c0.25 0.003 0.484-0.128 0.611-0.345 0.125-0.217 0.125-0.484 0-0.701-0.128-0.217-0.361-0.348-0.611-0.345zM22.957 17.394c-0.25-0.003-0.484 0.128-0.611 0.345-0.125 0.217-0.125 0.484 0 0.701 0.128 0.217 0.361 0.348 0.611 0.345h0.696c0.25 0.003 0.484-0.128 0.611-0.345 0.125-0.217 0.125-0.484 0-0.701-0.128-0.217-0.361-0.348-0.611-0.345zM8.348 22.96c-0.25-0.003-0.484 0.128-0.611 0.345-0.125 0.217-0.125 0.484 0 0.701 0.128 0.217 0.361 0.348 0.611 0.345h7.652c0.25 0.003 0.484-0.128 0.611-0.345 0.125-0.217 0.125-0.484 0-0.701-0.128-0.217-0.361-0.348-0.611-0.345zM22.957 22.96c-0.25-0.003-0.484 0.128-0.611 0.345-0.125 0.217-0.125 0.484 0 0.701 0.128 0.217 0.361 0.348 0.611 0.345h0.696c0.25 0.003 0.484-0.128 0.611-0.345 0.125-0.217 0.125-0.484 0-0.701-0.128-0.217-0.361-0.348-0.611-0.345z"></path>
</svg>
