<!-- Generated by IcoMoon.io -->
<svg version="1.1" xmlns="http://www.w3.org/2000/svg" width="32" height="32" viewBox="0 0 32 32">
<title>sun</title>
<path d="M31.039 13.47l-3.756-2.544 0.86-4.459c0.163-0.829-0.1-1.683-0.697-2.286-0.603-0.597-1.457-0.86-2.274-0.697l-4.453 0.86-2.537-3.762c-0.948-1.401-3.26-1.401-4.208 0l-2.537 3.762-4.447-0.86c-0.835-0.157-1.683 0.1-2.28 0.703s-0.86 1.451-0.697 2.28l0.86 4.459-3.756 2.544c-0.703 0.477-1.118 1.262-1.118 2.11s0.421 1.633 1.118 2.104l3.756 2.544-0.86 4.459c-0.163 0.829 0.1 1.683 0.697 2.28s1.438 0.86 2.28 0.697l4.447-0.86 2.537 3.762c0.471 0.703 1.262 1.124 2.104 1.124s1.633-0.421 2.104-1.118l2.537-3.762 4.453 0.86c0.842 0.17 1.683-0.1 2.28-0.697s0.854-1.451 0.697-2.28l-0.86-4.459 3.756-2.544c0.697-0.471 1.118-1.262 1.118-2.104-0.006-0.854-0.421-1.639-1.124-2.117zM23.948 18.846l1.105 5.728-5.715-1.105-3.26 4.83-3.26-4.836-5.709 1.105 1.105-5.728-4.824-3.266 4.824-3.266-1.105-5.728 5.715 1.105 3.253-4.824 3.26 4.83 5.715-1.105-1.105 5.722 4.823 3.266-4.823 3.272zM16.078 9.080c-3.599 0-6.532 2.933-6.532 6.532s2.933 6.532 6.532 6.532 6.532-2.933 6.532-6.532-2.933-6.532-6.532-6.532zM16.078 19.128c-1.941 0-3.517-1.576-3.517-3.517s1.576-3.517 3.517-3.517 3.517 1.576 3.517 3.517-1.576 3.517-3.517 3.517z"></path>
</svg>
