<!-- Generated by IcoMoon.io -->
<svg version="1.1" xmlns="http://www.w3.org/2000/svg" width="32" height="32" viewBox="0 0 32 32">
<title>sun1</title>
<path d="M16.078 9.582c-3.322 0-6.029 2.707-6.029 6.029s2.707 6.029 6.029 6.029 6.029-2.707 6.029-6.029-2.707-6.029-6.029-6.029zM31.554 14.638l-5.948-2.971 2.104-6.306c0.283-0.854-0.527-1.664-1.375-1.375l-6.306 2.104-2.977-5.954c-0.402-0.804-1.545-0.804-1.947 0l-2.971 5.948-6.312-2.104c-0.854-0.283-1.664 0.528-1.375 1.375l2.104 6.306-5.948 2.977c-0.804 0.402-0.804 1.545 0 1.947l5.948 2.971-2.104 6.312c-0.283 0.854 0.527 1.664 1.375 1.375l6.306-2.104 2.971 5.948c0.402 0.804 1.545 0.804 1.947 0l2.971-5.948 6.306 2.104c0.854 0.283 1.664-0.527 1.375-1.375l-2.104-6.306 5.948-2.971c0.816-0.408 0.816-1.551 0.012-1.953zM21.762 21.295c-3.134 3.134-8.234 3.134-11.368 0s-3.134-8.234 0-11.368c3.134-3.134 8.234-3.134 11.368 0s3.134 8.234 0 11.368z"></path>
</svg>
