<!-- Generated by IcoMoon.io -->
<svg version="1.1" xmlns="http://www.w3.org/2000/svg" width="28" height="32" viewBox="0 0 28 32">
<title>superpowers</title>
<path d="M28.137 1.543c-5.232 0.691-10.476 1.382-15.702 2.073-5.778 0.785-10.256 5.445-10.614 11.305-0.207 3.486 1.13 6.877 3.63 9.308l-5.452 5.452c5.232-0.691 10.457-1.382 15.689-2.073 5.766-0.785 10.256-5.452 10.595-11.293 0.22-3.486-1.13-6.877-3.624-9.308l5.477-5.464zM23.131 16.133c-0.264 4.993-4.648 8.743-9.597 8.447-4.993-0.295-8.837-4.459-8.56-9.484 0.283-4.974 4.667-8.749 9.609-8.447 4.98 0.295 8.824 4.459 8.548 9.484z"></path>
</svg>
