<!-- Generated by IcoMoon.io -->
<svg version="1.1" xmlns="http://www.w3.org/2000/svg" width="32" height="32" viewBox="0 0 32 32">
<title>supermarket</title>
<path d="M3.868 0l-5.458 0.028 0.016 3.199 3.312-0.016 5.271 12.644-1.915 3.062c-1.341 2.142 0.29 5.083 2.815 5.083h19.29v-3.199h-19.29c-0.178 0-0.199-0.035-0.103-0.187l1.881-3.012h11.948c1.161 0 2.233-0.631 2.796-1.647l5.761-10.376c0.593-1.065-0.178-2.375-1.397-2.375h-23.592l-1.334-3.206zM8.002 25.601c-1.767 0-3.199 1.432-3.199 3.199v0c0 1.767 1.432 3.199 3.199 3.199v0c1.767 0 3.199-1.432 3.199-3.199v0c0-1.767-1.432-3.199-3.199-3.199v0zM23.998 25.601c-1.767 0-3.199 1.432-3.199 3.199v0c0 1.767 1.432 3.199 3.199 3.199v0c1.767 0 3.199-1.432 3.199-3.199v0c0-1.767-1.432-3.199-3.199-3.199v0z"></path>
</svg>
