<!-- Generated by IcoMoon.io -->
<svg version="1.1" xmlns="http://www.w3.org/2000/svg" width="40" height="32" viewBox="0 0 40 32">
<title>supple</title>
<path d="M40.196 16.020c0 4.026-6.846 7.292-15.293 7.292-1.558 0-3.052-0.113-4.465-0.314 0.484 0.025 0.973 0.038 1.47 0.038 8.447 0 15.293-3.574 15.293-7.983 0-1.847-1.2-3.542-3.216-4.899 3.768 1.325 6.212 3.461 6.212 5.866zM2.996 13.847c-0.006-4.409 6.833-7.995 15.281-8.014 0.496 0 0.98 0.013 1.463 0.031-1.413-0.201-2.908-0.308-4.459-0.308-8.447 0.025-15.287 3.304-15.281 7.329 0.006 2.405 2.456 4.541 6.237 5.86-2.029-1.35-3.235-3.052-3.241-4.899zM6.777 16.352s0.66 0.829 1.84 0.829c1.124 0 1.784-0.722 1.784-1.576 0-1.759-2.525-1.576-2.525-2.493 0-0.339 0.333-0.572 0.785-0.572 0.358 0 0.71 0.163 0.71 0.415v0.245h0.892v-0.496c0-0.76-0.967-1.055-1.595-1.055-1.036 0-1.79 0.641-1.79 1.514 0 1.671 2.525 1.595 2.525 2.506 0 0.415-0.364 0.634-0.772 0.634-0.747 0-1.3-0.634-1.3-0.634l-0.553 0.685zM14.364 11.73v3.417c0 0.71-0.446 1.118-1.118 1.118s-1.118-0.408-1.118-1.112v-3.423h-0.992v3.454c0 1.187 0.842 2.004 2.117 2.004 1.262 0 2.098-0.816 2.098-2.003v-3.454h-0.986zM16.524 17.094h0.992v-1.853h0.973c1.005 0 1.708-0.722 1.708-1.765s-0.703-1.746-1.708-1.746h-2.456v0.842h0.49v4.522zM17.517 14.393v-1.828h0.81c0.546 0 0.86 0.358 0.86 0.904 0 0.559-0.32 0.923-0.879 0.923h-0.791zM21.097 17.094h0.992v-1.853h0.973c1.005 0 1.708-0.722 1.708-1.765s-0.703-1.746-1.708-1.746h-2.456v0.842h0.49v4.522zM22.083 14.393v-1.828h0.81c0.546 0 0.86 0.358 0.86 0.904 0 0.559-0.314 0.923-0.879 0.923h-0.791zM25.669 16.579c0 0.364 0.151 0.515 0.515 0.515h2.362c0.364 0 0.515-0.151 0.515-0.515v-0.816h-0.898v0.327c0 0.107-0.063 0.163-0.163 0.163h-1.168c-0.107 0-0.163-0.063-0.163-0.163v-3.844c0-0.358-0.151-0.515-0.515-0.515h-0.967v0.842h0.327c0.107 0 0.163 0.063 0.163 0.163v3.844zM29.651 16.579c0 0.364 0.151 0.515 0.515 0.515h2.431c0.358 0 0.515-0.151 0.515-0.515v-0.816h-0.898v0.327c0 0.107-0.063 0.163-0.163 0.163h-1.237c-0.107 0-0.163-0.063-0.163-0.163v-1.275h1.74v-0.842h-1.74v-1.407h1.206c0.107 0 0.163 0.063 0.163 0.163v0.327h0.892v-0.816c0-0.358-0.157-0.515-0.515-0.515h-3.241v0.842h0.49v4.013zM33.35 11.805v0.371h0.1v-0.371h0.17v-0.075h-0.44v0.075h0.17zM33.708 11.73v0.446h0.094v-0.358l0.145 0.358h0.082l0.145-0.358v0.358h0.094v-0.446h-0.145l-0.132 0.32-0.132-0.32h-0.151z"></path>
</svg>
