<!-- Generated by IcoMoon.io -->
<svg version="1.1" xmlns="http://www.w3.org/2000/svg" width="31" height="32" viewBox="0 0 31 32">
<title>surprise</title>
<path d="M15.576 0.035c-8.604 0-15.576 6.971-15.576 15.576s6.971 15.576 15.576 15.576 15.576-6.971 15.576-15.576-6.971-15.576-15.576-15.576zM15.576 28.173c-6.928 0-12.561-5.634-12.561-12.561s5.634-12.561 12.561-12.561 12.561 5.634 12.561 12.561-5.634 12.561-12.561 12.561zM15.576 17.119c-2.217 0-4.020 1.802-4.020 4.020s1.803 4.020 4.020 4.020 4.020-1.802 4.020-4.020-1.802-4.020-4.020-4.020zM12.561 12.597c0-1.112-0.898-2.010-2.010-2.010s-2.010 0.898-2.010 2.010 0.898 2.010 2.010 2.010 2.010-0.898 2.010-2.010zM20.6 10.587c-1.112 0-2.010 0.898-2.010 2.010s0.898 2.010 2.010 2.010 2.010-0.898 2.010-2.010-0.898-2.010-2.010-2.010z"></path>
</svg>
