<!-- Generated by IcoMoon.io -->
<svg version="1.1" xmlns="http://www.w3.org/2000/svg" width="31" height="32" viewBox="0 0 31 32">
<title>surprise1</title>
<path d="M15.576 0.035c-8.604 0-15.576 6.971-15.576 15.576s6.971 15.576 15.576 15.576 15.576-6.971 15.576-15.576-6.971-15.576-15.576-15.576zM8.542 12.597c0-1.112 0.898-2.010 2.010-2.010s2.010 0.898 2.010 2.010-0.898 2.010-2.010 2.010-2.010-0.898-2.010-2.010zM15.576 25.66c-2.217 0-4.020-1.802-4.020-4.020s1.803-4.020 4.020-4.020 4.020 1.802 4.020 4.020-1.802 4.020-4.020 4.020zM20.6 14.606c-1.112 0-2.010-0.898-2.010-2.010s0.898-2.010 2.010-2.010 2.010 0.898 2.010 2.010-0.898 2.010-2.010 2.010z"></path>
</svg>
