<!-- Generated by IcoMoon.io -->
<svg version="1.1" xmlns="http://www.w3.org/2000/svg" width="32" height="32" viewBox="0 0 32 32">
<title>svg-file-format-symbol</title>
<path d="M27.737 7.239c-0.002-0.148-0.049-0.293-0.151-0.408l-6.2-7.082c-0.002-0.002-0.004-0.003-0.005-0.004-0.037-0.041-0.080-0.075-0.126-0.105-0.013-0.009-0.027-0.017-0.041-0.025-0.039-0.021-0.081-0.039-0.124-0.052-0.012-0.003-0.022-0.008-0.034-0.011-0.047-0.011-0.095-0.018-0.145-0.018h-15.237c-0.695 0-1.261 0.566-1.261 1.261v29.635c0 0.696 0.566 1.261 1.261 1.261h20.807c0.695 0 1.261-0.566 1.261-1.261v-23.119c-0-0.024-0.004-0.047-0.006-0.071zM8.277 30.139c-0.874 0-1.736-0.227-2.167-0.466l0.352-1.43c0.466 0.238 1.18 0.477 1.918 0.477 0.794 0 1.214-0.329 1.214-0.828 0-0.477-0.363-0.749-1.283-1.078-1.271-0.442-2.099-1.146-2.099-2.258 0-1.305 1.089-2.304 2.893-2.304 0.863 0 1.498 0.182 1.952 0.386l-0.386 1.396c-0.307-0.148-0.851-0.363-1.6-0.363s-1.112 0.341-1.112 0.738c0 0.488 0.431 0.704 1.419 1.079 1.35 0.499 1.986 1.203 1.986 2.28-0 1.283-0.987 2.372-3.087 2.372zM16.358 30.025h-2.020l-2.451-7.649h1.895l0.93 3.234c0.261 0.908 0.499 1.782 0.681 2.735h0.034c0.193-0.919 0.431-1.827 0.692-2.7l0.976-3.268h1.839l-2.576 7.648zM26.050 29.673c-0.533 0.182-1.543 0.432-2.553 0.432-1.396 0-2.406-0.352-3.11-1.033-0.704-0.658-1.089-1.657-1.078-2.78 0.012-2.542 1.861-3.995 4.369-3.995 0.987 0 1.747 0.193 2.122 0.374l-0.363 1.385c-0.42-0.182-0.941-0.329-1.781-0.329-1.441 0-2.531 0.817-2.531 2.474 0 1.578 0.987 2.508 2.406 2.508 0.397 0 0.715-0.046 0.851-0.114v-1.6h-1.18v-1.35h2.848v4.028zM26.482 20.945h-20.807v-20.151h14.607v6.419c0 0-0.042 0.663 0.833 0.663s5.367 0 5.367 0v13.068zM10.605 12.883v-0.264h-0.593l-0.707-0.264v-0.244h-0.505c-0.015-0.016-0.029-0.033-0.041-0.050l0.003-0.626c0.028-0.034 0.063-0.063 0.103-0.085v0.061h0.636v-0.055c0.141 0.058 0.25 0.149 0.329 0.274l-0.003 0.636h0.636v-0.158l0.584-0.079v0.094h0.636v-0.636h-0.147c-0.136-0.543-0.434-0.992-0.885-1.339-0.341-0.261-0.727-0.422-1.149-0.479v-0.141h-0.636v0.134c-0.004 0-0.007 0-0.010 0.001-0.303 0.033-0.605 0.146-0.897 0.336-0.397 0.256-0.674 0.611-0.821 1.053-0.041 0.124-0.072 0.248-0.090 0.373h-0.141v0.636h0.139c0.043 0.332 0.16 0.639 0.346 0.915 0.195 0.289 0.451 0.518 0.76 0.681v0.247h0.607l0.703 0.255v0.261h0.391v0.588h0.009c-0.043 0.057-0.098 0.1-0.166 0.132v-0.055h-0.636v0.085c-0.070-0.020-0.13-0.047-0.179-0.083-0.072-0.052-0.131-0.134-0.175-0.248h0.028v-0.636h-0.636v0.179l-0.611 0.076v-0.086h-0.636v0.636h0.197c0.135 0.623 0.436 1.101 0.894 1.423 0.323 0.227 0.699 0.361 1.117 0.401v0.135h0.636v-0.142l0.083-0.010 0.035-0.010c0.382-0.064 0.726-0.219 1.022-0.461 0.297-0.243 0.513-0.551 0.64-0.915 0.048-0.135 0.084-0.276 0.107-0.421h0.125v-0.636h-0.124c-0.091-0.645-0.42-1.145-0.979-1.49zM9.697 16.426v-0.094h-0.636v0.11c-0.338-0.041-0.637-0.152-0.891-0.331-0.348-0.246-0.587-0.617-0.714-1.102h0.032v-0.152l0.611-0.076v0.059h0.196c0.107 0.365 0.312 0.599 0.613 0.697 0.049 0.014 0.1 0.026 0.153 0.036v0.148h0.636v-0.163c0.3-0.071 0.508-0.258 0.61-0.55h0.191v-0.636h-0.192c-0.045-0.118-0.114-0.22-0.208-0.307v-0.29h-0.546l-0.755-0.281v-0.226h-0.545c-0.218-0.131-0.401-0.305-0.544-0.522-0.14-0.21-0.23-0.44-0.271-0.686h0.115v-0.636h-0.105c0.014-0.086 0.035-0.168 0.061-0.247 0.108-0.323 0.301-0.589 0.576-0.791 0.232-0.171 0.494-0.279 0.781-0.322v0.099h0.636v-0.098c0.334 0.051 0.64 0.183 0.913 0.394 0.354 0.272 0.586 0.609 0.706 1.026h-0.073v0.145l-0.584 0.081v-0.084h-0.204c-0.136-0.361-0.39-0.59-0.757-0.683v-0.171h-0.636v0.158c-0.267 0.065-0.451 0.233-0.541 0.492h-0.198v0.636h0.197c0.064 0.191 0.18 0.341 0.347 0.449v0.236h0.569l0.731 0.272v0.235h0.489c0.41 0.273 0.649 0.64 0.728 1.118h-0.113v0.636h0.114c-0.017 0.1-0.043 0.196-0.078 0.287-0.231 0.631-0.69 1-1.409 1.129-0.001 0-0.002 0-0.004 0zM18.279 10.37v-0.636h-0.636v0.107h-0.601v-0.024l1.028-0.924h0.416v-0.611h-0.611v0.468l-1.095 0.984h-0.375v0.337l-0.707 0.635h-0.489v0.611h0.611v-0.402l0.547-0.492-1.525 3.993-1.425-4.101v-0.58h-0.636v0.107h-0.602v-0.107h-0.636v0.636h0.224l2.020 5.822v0.606h0.636v-0.098h0.744v0.098h0.636v-0.478l-0.005-0.028 2.262-5.922h0.219v-0zM14.192 16.163l-2.011-5.797v-0.129h0.601v0.133h0.242l1.495 4.327v0.632h0.645v-0.636h-0.009l1.651-4.323h0.236v-0.133h0.602v0.111l-2.213 5.815h-0.263v0.142h-0.744v-0.142h-0.232zM25.5 13.522v-0.636h-0.645v0.133h-2.685v-0.133h-0.645v0.636h0.107v0.611h-0.107v0.645h0.645v-0.116h0.949c-0.275 0.269-0.594 0.436-0.966 0.506v-0.091h-0.636v0.1c-0.415-0.055-0.769-0.229-1.077-0.528-0.307-0.297-0.489-0.641-0.555-1.047h0.078v-0.645h-0.089c0.062-0.414 0.244-0.767 0.555-1.075s0.669-0.488 1.089-0.544v0.1h0.636v-0.085c0.291 0.051 0.558 0.169 0.798 0.351v0.331h0.645v-0.115l0.896 0.007v0.108h0.645v-0.636h-0.281c-0.297-0.489-0.692-0.889-1.172-1.191-0.466-0.292-0.979-0.466-1.529-0.516v-0.153h-0.636v0.15c-0.869 0.062-1.626 0.409-2.251 1.031s-0.976 1.374-1.044 2.238h-0.151v0.645h0.153c0.079 0.858 0.435 1.603 1.060 2.216s1.374 0.954 2.232 1.016v0.133h0.636v-0.137c0.535-0.055 1.036-0.225 1.492-0.507v0.484h0.636v-0.125h0.575v0.125h0.645v-0.636h-0.133l0.008-2.65h0.126v-0zM21.516 16.332v0.107c-0.753-0.061-1.412-0.364-1.957-0.903-0.545-0.537-0.861-1.187-0.937-1.934h0.085v-0.645h-0.087c0.067-0.753 0.378-1.41 0.927-1.957s1.212-0.857 1.97-0.923v0.105h0.636v-0.094c0.461 0.049 0.897 0.198 1.295 0.444 0.413 0.254 0.755 0.59 1.018 0.999h-0.871v-0.133h-0.405c-0.303-0.236-0.651-0.385-1.037-0.445v-0.161h-0.636v0.146c-0.527 0.060-0.985 0.282-1.365 0.662s-0.604 0.835-0.669 1.356h-0.157v0.645h0.159c0.070 0.516 0.299 0.963 0.682 1.332 0.382 0.367 0.835 0.583 1.349 0.641v0.137h0.636v-0.151c0.564-0.081 1.038-0.344 1.412-0.784h0.324v-0.645h-0.636v0.143h-1.083v-0.143h-0.142v-0.611h0.142v-0.107h2.686v0.107h0.123c-0.001 0.218-0.004 0.658-0.007 1.32v1.329h-0.116v0.116h-0.575v-0.739h-0.636v0.309c-0.451 0.321-0.951 0.515-1.492 0.576v-0.101l-0.636 0z"></path>
</svg>
