<!-- Generated by IcoMoon.io -->
<svg version="1.1" xmlns="http://www.w3.org/2000/svg" width="32" height="32" viewBox="0 0 32 32">
<title>swatchbook</title>
<path d="M30.088 19.631h-6.706l-11.691 11.714c-0.129 0.13-0.282 0.225-0.419 0.345h18.815c1.108 0 2.006-0.9 2.006-2.010v-8.039c0-1.11-0.898-2.010-2.006-2.010zM27.293 10.028l-5.673-5.685c-0.783-0.785-2.053-0.785-2.837 0l-4.742 4.751v16.566c0 0.186-0.042 0.36-0.055 0.543l13.307-13.332c0.783-0.785 0.783-2.058 0-2.843zM12.035 1.543c0-1.11-0.898-2.010-2.006-2.010h-8.023c-1.108 0-2.006 0.9-2.006 2.010v24.118c0 3.33 2.694 6.029 6.017 6.029s6.017-2.699 6.017-6.029v-24.118zM6.017 27.168c-0.831 0-1.504-0.675-1.504-1.507s0.674-1.507 1.504-1.507 1.504 0.675 1.504 1.507c0.001 0.832-0.673 1.507-1.504 1.507zM8.023 15.611h-4.011v-4.020h4.012v4.020zM8.023 7.572h-4.011v-4.020h4.012v4.020z"></path>
</svg>
