<!-- Generated by IcoMoon.io -->
<svg version="1.1" xmlns="http://www.w3.org/2000/svg" width="32" height="32" viewBox="0 0 32 32">
<title>swf-file-format-symbol</title>
<path d="M27.737 7.239c-0.002-0.148-0.049-0.293-0.15-0.408l-6.2-7.082c-0.001-0.002-0.004-0.003-0.005-0.004-0.037-0.041-0.079-0.076-0.125-0.105-0.013-0.009-0.028-0.017-0.042-0.025-0.039-0.021-0.081-0.039-0.124-0.052-0.011-0.003-0.022-0.008-0.034-0.011-0.047-0.011-0.095-0.018-0.144-0.018h-15.238c-0.695 0-1.261 0.566-1.261 1.261v29.635c0 0.695 0.566 1.261 1.261 1.261h20.807c0.695 0 1.261-0.566 1.261-1.261v-23.119c-0-0.023-0.004-0.047-0.006-0.070zM8.221 29.698c-0.815 0-1.62-0.211-2.022-0.434l0.328-1.334c0.434 0.222 1.101 0.445 1.789 0.445 0.741 0 1.133-0.308 1.133-0.773 0-0.445-0.339-0.699-1.196-1.006-1.186-0.413-1.959-1.069-1.959-2.107 0-1.218 1.017-2.149 2.7-2.149 0.805 0 1.398 0.169 1.821 0.36l-0.36 1.302c-0.286-0.137-0.794-0.339-1.493-0.339s-1.037 0.318-1.037 0.688c0 0.456 0.402 0.656 1.324 1.005 1.26 0.466 1.853 1.123 1.853 2.129 0 1.196-0.921 2.212-2.88 2.212zM18.916 29.593h-1.747l-0.603-3.071c-0.138-0.719-0.254-1.387-0.339-2.202h-0.021c-0.127 0.806-0.244 1.483-0.413 2.202l-0.677 3.071h-1.768l-1.694-7.137h1.726l0.54 2.943c0.159 0.848 0.307 1.768 0.423 2.488h0.021c0.116-0.772 0.286-1.631 0.466-2.509l0.603-2.922h1.715l0.572 3.007c0.159 0.836 0.275 1.599 0.381 2.393h0.021c0.106-0.794 0.265-1.631 0.413-2.478l0.583-2.922h1.641l-1.843 7.137zM25.957 23.78h-2.742v1.631h2.562v1.313h-2.562v2.869h-1.62v-7.136h4.362v1.323zM5.675 20.944v-20.15h14.607v6.452c0 0.349 0.282 0.631 0.631 0.631h5.569l0.001 13.068h-20.808zM17.043 8.77c-1.527 1.145-2.494 4.251-3.309 5.956s-2.316 1.503-2.316 1.503v2.009c0 0 0.941 0.026 1.729-0.303 0.791-0.331 1.706-1.070 2.242-1.985 0.208-0.358 0.527-1.094 0.874-1.91h2.41v-2.062h-1.529c0.235-0.524 0.448-0.968 0.61-1.221 0.586-0.915 2.037-0.892 2.037-0.892v-1.96c0 0-1.222-0.28-2.749 0.866z"></path>
</svg>
