<!-- Generated by IcoMoon.io -->
<svg version="1.1" xmlns="http://www.w3.org/2000/svg" width="40" height="32" viewBox="0 0 40 32">
<title>swimmer</title>
<path d="M11.909 19.039c0.222 0.205 0.959 0.592 2.16 0.592s1.938-0.387 2.16-0.592c1.006-0.928 2.167-1.418 3.358-1.418h1.024c1.191 0 2.352 0.49 3.358 1.418 0.222 0.205 0.959 0.592 2.16 0.592s1.938-0.387 2.16-0.592c0.933-0.861 2.002-1.326 3.102-1.392l-7.087-5.062 1.13-0.808c0.229-0.162 0.52-0.221 0.793-0.164l6.303 1.352c1.627 0.347 3.231-0.689 3.58-2.316s-0.688-3.231-2.316-3.58l-6.303-1.352c-1.93-0.413-3.958 0.008-5.562 1.154l-5.026 3.591c-0.652 0.464-1.216 1.033-1.678 1.692l-4.31 6.157c0.344 0.203 0.68 0.435 0.996 0.727zM39.191 21.641h-1.005c-1.635 0-2.877-0.529-3.523-1.124-0.559-0.516-1.235-0.886-1.995-0.886h-1.024c-0.761 0-1.436 0.37-1.995 0.886-0.645 0.595-1.886 1.124-3.522 1.124s-2.877-0.529-3.523-1.124c-0.559-0.516-1.235-0.886-1.995-0.886h-1.024c-0.761 0-1.436 0.37-1.995 0.886-0.645 0.595-1.886 1.124-3.522 1.124s-2.877-0.529-3.523-1.124c-0.559-0.516-1.235-0.886-1.995-0.886h-1.024c-0.761 0-1.436 0.37-1.995 0.886-0.645 0.595-1.886 1.124-3.522 1.124h-1.005c-0.555 0-1.005 0.45-1.005 1.005v2.010c0 0.555 0.45 1.005 1.005 1.005h1.005c2.426 0 4.567-0.766 6.029-2 1.462 1.235 3.604 2 6.029 2s4.567-0.766 6.029-2c1.462 1.235 3.604 2 6.029 2s4.567-0.766 6.029-2c1.462 1.235 3.604 2 6.029 2h1.005c0.555 0 1.005-0.45 1.005-1.005v-2.010c0-0.555-0.45-1.005-1.005-1.005zM7.034 15.611c2.775 0 5.024-2.25 5.024-5.024s-2.25-5.024-5.024-5.024-5.024 2.25-5.024 5.024 2.25 5.024 5.024 5.024z"></path>
</svg>
