<!-- Generated by IcoMoon.io -->
<svg version="1.1" xmlns="http://www.w3.org/2000/svg" width="40" height="32" viewBox="0 0 40 32">
<title>swimming-pool</title>
<path d="M39.191 25.66h-1.005c-1.635 0-2.877-0.529-3.523-1.124-0.559-0.516-1.235-0.886-1.995-0.886h-1.024c-0.761 0-1.436 0.37-1.995 0.886-0.645 0.595-1.886 1.124-3.522 1.124s-2.877-0.529-3.523-1.124c-0.559-0.516-1.235-0.886-1.995-0.886h-1.024c-0.761 0-1.436 0.37-1.995 0.886-0.645 0.595-1.886 1.124-3.522 1.124s-2.877-0.529-3.523-1.124c-0.559-0.516-1.235-0.886-1.995-0.886h-1.024c-0.761 0-1.436 0.37-1.995 0.886-0.645 0.595-1.886 1.124-3.522 1.124h-1.005c-0.555 0-1.005 0.45-1.005 1.005v2.010c0 0.555 0.45 1.005 1.005 1.005h1.005c2.426 0 4.567-0.766 6.029-2 1.462 1.235 3.604 2 6.029 2s4.567-0.766 6.029-2c1.462 1.235 3.604 2 6.029 2s4.567-0.766 6.029-2c1.462 1.235 3.604 2 6.029 2h1.005c0.555 0 1.005-0.45 1.005-1.005v-2.010c0-0.555-0.45-1.005-1.005-1.005zM14.069 23.651v-6.029h12.059v6.029c1.201 0 1.938-0.387 2.16-0.592 0.576-0.531 1.206-0.901 1.86-1.135v-14.352c0-1.108 0.902-2.010 2.010-2.010s2.010 0.902 2.010 2.010v1.005c0 0.555 0.45 1.005 1.005 1.005h2.010c0.555 0 1.005-0.45 1.005-1.005v-1.005c0-3.325-2.704-6.029-6.029-6.029s-6.029 2.704-6.029 6.029v6.029h-12.059v-6.029c0-1.108 0.902-2.010 2.010-2.010s2.010 0.902 2.010 2.010v1.005c0 0.555 0.45 1.005 1.005 1.005h2.010c0.555 0 1.005-0.45 1.005-1.005v-1.005c0-3.325-2.704-6.029-6.029-6.029s-6.029 2.704-6.029 6.029v14.351c0.654 0.234 1.284 0.604 1.86 1.135 0.222 0.205 0.959 0.592 2.16 0.592z"></path>
</svg>
