<!-- Generated by IcoMoon.io -->
<svg version="1.1" xmlns="http://www.w3.org/2000/svg" width="40" height="32" viewBox="0 0 40 32">
<title>synagogue</title>
<path d="M4.396 11.875l-3.978 4.508c-0.26 0.294-0.419 0.682-0.419 1.107 0 0 0 0 0 0v-0 14.199h8.039v-17.11l-2.387-2.705c-0.333-0.377-0.923-0.377-1.256 0zM39.777 16.383l-3.977-4.508c-0.333-0.378-0.923-0.378-1.256 0l-2.387 2.705v17.11h8.039v-14.199c0-0.408-0.149-0.802-0.419-1.108zM21.353-0.027c-0.734-0.587-1.777-0.587-2.511 0l-8.039 6.431c-0.461 0.372-0.754 0.936-0.754 1.57v0 23.716h6.029v-5.814c0-2.002 1.368-3.858 3.344-4.18 2.518-0.41 4.695 1.523 4.695 3.964v6.029h6.029v-23.716c0-0.61-0.278-1.188-0.754-1.57l-8.039-6.431zM24.624 13.511c0.124 0.198-0.018 0.455-0.251 0.455h-2.446l-1.578 2.512c-0.116 0.185-0.386 0.185-0.503 0l-1.578-2.511h-2.446c-0.234 0-0.376-0.257-0.251-0.455l1.206-1.919-1.206-1.919c-0.124-0.198 0.018-0.455 0.251-0.455h2.446l1.578-2.512c0.116-0.185 0.386-0.185 0.503 0l1.578 2.511h2.446c0.233 0 0.376 0.257 0.251 0.455l-1.206 1.92 1.205 1.919z"></path>
</svg>
