<!-- Generated by IcoMoon.io -->
<svg version="1.1" xmlns="http://www.w3.org/2000/svg" width="32" height="32" viewBox="0 0 32 32">
<title>sync</title>
<path d="M27.693 0.323l0.249 5.198c-2.857-3.356-7.111-5.485-11.864-5.485-7.611 0-13.947 5.459-15.306 12.676-0.087 0.463 0.27 0.89 0.742 0.89h3.083c0.35 0 0.652-0.241 0.733-0.582 1.165-4.857 5.531-8.463 10.748-8.463 3.824 0 7.192 1.938 9.176 4.886l-6.377-0.306c-0.43-0.021-0.79 0.322-0.79 0.753v2.978c0 0.416 0.338 0.754 0.754 0.754h12.582c0.416 0 0.754-0.338 0.754-0.754v-12.582c0-0.416-0.338-0.754-0.754-0.754h-2.978c-0.43 0-0.773 0.36-0.753 0.79zM16.078 26.665c-3.825 0-7.192-1.938-9.177-4.887l6.398 0.306c0.43 0.021 0.79-0.322 0.79-0.753v-2.978c0-0.416-0.338-0.754-0.754-0.754h-12.582c-0.416 0-0.754 0.338-0.754 0.754v12.582c0 0.416 0.338 0.754 0.754 0.754h2.976c0.431 0 0.774-0.361 0.753-0.791l-0.259-5.186c2.857 3.35 7.107 5.475 11.855 5.475 7.611 0 13.947-5.459 15.306-12.676 0.087-0.463-0.27-0.89-0.742-0.89h-3.083c-0.35 0-0.652 0.241-0.733 0.581-1.165 4.857-5.531 8.463-10.748 8.463z"></path>
</svg>
