<!-- Generated by IcoMoon.io -->
<svg version="1.1" xmlns="http://www.w3.org/2000/svg" width="32" height="32" viewBox="0 0 32 32">
<title>sync-settings</title>
<path d="M16 0.003c-8.827 0-16 7.173-16 16-0 0.003-0 0.007-0 0.011 0 0.442 0.358 0.8 0.8 0.8s0.8-0.358 0.8-0.8c0-0.004-0-0.008-0-0.012v0.001c0-7.962 6.438-14.4 14.4-14.4 5.334 0 9.976 2.899 12.466 7.2h-3.666c-0.003-0-0.007-0-0.011-0-0.442 0-0.8 0.358-0.8 0.8s0.358 0.8 0.8 0.8c0.004 0 0.008-0 0.012-0h6.399v-6.4c0-0.003 0-0.007 0-0.011 0-0.442-0.358-0.8-0.8-0.8-0.004 0-0.009 0-0.013 0h0.001c-0.436 0.007-0.788 0.362-0.788 0.8 0 0.004 0 0.008 0 0.012v-0.001 3.581c-2.823-4.549-7.86-7.581-13.6-7.581zM14.4 7.203l-0.48 2.559c-0.24 0.080-0.56 0.16-0.8 0.32l-2.161-1.52-2.4 2.4 1.441 2c-0.080 0.32-0.24 0.561-0.32 0.881l-2.48 0.4v3.359l2.48 0.4c0.080 0.24 0.16 0.56 0.32 0.8l-1.441 2.159 2.4 2.4 2.161-1.439c0.32 0.16 0.56 0.24 0.88 0.32l0.4 2.559h3.28l0.48-2.48c0.24-0.080 0.48-0.16 0.8-0.32l2.161 1.441 2.4-2.4-1.52-2.081c0.16-0.32 0.24-0.64 0.32-0.88l2.48-0.48v-3.359l-2.559-0.4c-0.080-0.24-0.16-0.56-0.32-0.8l1.439-2.161-2.319-2.32-2.081 1.52c-0.24-0.16-0.56-0.24-0.8-0.32l-0.4-2.559h-3.359zM15.759 8.803h0.641l0.32 2.159 0.48 0.161c0.48 0.16 0.959 0.319 1.359 0.559l2.32-1.039 0.4 0.4-1.28 1.839 0.241 0.4c0.24 0.48 0.399 0.961 0.559 1.441l0.159 0.48 2.241 0.32v0.639l-2.159 0.481-0.161 0.48c-0.16 0.48-0.319 0.959-0.559 1.359l-0.32 0.48 1.359 1.841-0.48 0.48-1.839-1.28-0.4 0.241c-0.48 0.24-0.961 0.399-1.441 0.559l-0.48 0.159-0.4 2.241h-0.641l-0.32-2.159-0.48-0.161c-0.48-0.16-0.959-0.319-1.359-0.559l-0.48-0.32-1.92 1.28-0.48-0.48 1.28-1.841-0.241-0.4c-0.24-0.48-0.399-1.039-0.559-1.439l-0.161-0.48-2.159-0.4v-0.641l2.241-0.4 0.080-0.559c0.080-0.4 0.24-0.881 0.48-1.281l0.32-0.4-1.28-1.839 0.48-0.48 1.839 1.28 0.4-0.161c0.56-0.24 1.040-0.479 1.52-0.639l0.48-0.080 0.4-2.241zM16 12.723c-1.76 0-3.2 1.44-3.2 3.2s1.44 3.2 3.2 3.2c1.76 0 3.2-1.36 3.2-3.2 0-1.76-1.44-3.2-3.2-3.2zM16 14.403c0.88 0 1.6 0.64 1.6 1.6 0 0.88-0.72 1.6-1.6 1.6s-1.6-0.72-1.6-1.6c0-0.88 0.72-1.6 1.6-1.6zM31.187 15.192c-0.436 0.007-0.788 0.363-0.788 0.8 0 0.004 0 0.008 0 0.012v-0.001c0 7.962-6.438 14.4-14.4 14.4-5.334 0-9.975-2.899-12.464-7.2l3.664 0.002c0.003 0 0.007 0 0.011 0 0.442 0 0.8-0.358 0.8-0.8s-0.358-0.8-0.8-0.8c-0.004 0-0.008 0-0.012 0l-6.399-0.002v6.4c-0 0.003-0 0.007-0 0.011 0 0.442 0.358 0.8 0.8 0.8s0.8-0.358 0.8-0.8c0-0.004-0-0.008-0-0.012v0.001-3.581c2.823 4.549 7.86 7.581 13.6 7.581 8.827 0 16-7.173 16-16 0-0.003 0-0.007 0-0.011 0-0.442-0.358-0.8-0.8-0.8-0.004 0-0.009 0-0.013 0h0.001z"></path>
</svg>
