<!-- Generated by IcoMoon.io -->
<svg version="1.1" xmlns="http://www.w3.org/2000/svg" width="32" height="32" viewBox="0 0 32 32">
<title>sync-alt</title>
<path d="M23.283 7.904c-1.963-1.838-4.512-2.846-7.215-2.844-4.865 0.004-9.065 3.34-10.224 7.967-0.084 0.337-0.385 0.575-0.732 0.575h-3.599c-0.471 0-0.829-0.427-0.742-0.89 1.359-7.216 7.695-12.676 15.306-12.676 4.173 0 7.963 1.641 10.76 4.314l2.243-2.243c0.95-0.95 2.573-0.277 2.573 1.066v8.42c0 0.832-0.675 1.507-1.507 1.507h-8.42c-1.343 0-2.015-1.624-1.066-2.573l2.622-2.622zM2.010 18.124h8.42c1.343 0 2.015 1.624 1.066 2.573l-2.622 2.622c1.963 1.838 4.512 2.846 7.215 2.844 4.862-0.004 9.064-3.338 10.224-7.967 0.084-0.337 0.384-0.575 0.732-0.575h3.599c0.471 0 0.829 0.427 0.742 0.89-1.359 7.216-7.695 12.676-15.306 12.676-4.173 0-7.963-1.641-10.76-4.314l-2.243 2.243c-0.95 0.95-2.573 0.277-2.573-1.066v-8.42c0-0.832 0.675-1.507 1.507-1.507z"></path>
</svg>
