<!-- Generated by IcoMoon.io -->
<svg version="1.1" xmlns="http://www.w3.org/2000/svg" width="32" height="32" viewBox="0 0 32 32">
<title>syringe</title>
<path d="M12.655 10.511l3.498 3.505c0.195 0.195 0.195 0.515 0 0.71l-0.71 0.71c-0.195 0.195-0.515 0.195-0.71 0l-3.498-3.505-2.845 2.845 3.505 3.505c0.195 0.195 0.195 0.515 0 0.71l-0.71 0.71c-0.195 0.195-0.515 0.195-0.71 0l-3.505-3.511-1.658 1.658c-1.087 1.087-1.608 2.581-1.445 4.108l0.446 3.994-4.17 4.17c-0.195 0.195-0.195 0.515 0 0.71l0.71 0.71c0.195 0.195 0.515 0.195 0.71 0l4.164-4.164 3.994 0.446c1.501 0.163 3.008-0.339 4.107-1.445l11.424-11.424-8.523-8.523-4.076 4.082zM32.012 4.652l-4.974-4.974c-0.195-0.195-0.515-0.195-0.71 0l-0.71 0.71c-0.195 0.195-0.195 0.515 0 0.71l1.777 1.777-2.845 2.845-4.622-4.622c-0.195-0.195-0.515-0.195-0.71 0l-2.129 2.129c-0.195 0.195-0.195 0.515 0 0.71l1.068 1.068 9.591 9.603c0.195 0.195 0.515 0.195 0.71 0l2.129-2.135c0.195-0.195 0.195-0.515 0-0.71l-4.616-4.616 2.845-2.845 1.777 1.777c0.195 0.195 0.515 0.195 0.71 0l0.71-0.71c0.195-0.201 0.195-0.515 0-0.716z"></path>
</svg>
