<!-- Generated by IcoMoon.io -->
<svg version="1.1" xmlns="http://www.w3.org/2000/svg" width="32" height="32" viewBox="0 0 32 32">
<title>sys-file-format</title>
<path d="M27.737 7.239c-0.002-0.147-0.049-0.293-0.15-0.408l-6.2-7.082c-0.001-0.002-0.003-0.002-0.005-0.004-0.037-0.041-0.079-0.075-0.125-0.105-0.013-0.009-0.027-0.017-0.041-0.025-0.040-0.021-0.081-0.039-0.124-0.052-0.012-0.004-0.022-0.008-0.034-0.011-0.047-0.011-0.095-0.018-0.145-0.018h-15.238c-0.695 0-1.261 0.566-1.261 1.261v29.635c0 0.695 0.566 1.261 1.261 1.261h20.807c0.696 0 1.261-0.566 1.261-1.261v-23.119c0-0.024-0.004-0.047-0.006-0.070zM9.696 29.501c-0.822 0-1.634-0.214-2.040-0.438l0.331-1.346c0.438 0.224 1.111 0.448 1.805 0.448 0.748 0 1.143-0.309 1.143-0.779 0-0.448-0.342-0.705-1.207-1.015-1.196-0.416-1.976-1.079-1.976-2.125 0-1.228 1.025-2.168 2.723-2.168 0.811 0 1.41 0.171 1.837 0.363l-0.363 1.314c-0.288-0.138-0.801-0.342-1.506-0.342s-1.047 0.321-1.047 0.694c0 0.459 0.406 0.662 1.335 1.015 1.271 0.47 1.869 1.132 1.869 2.146 0 1.208-0.929 2.233-2.905 2.233zM16.991 26.393v3.001h-1.623v-2.948l-2.275-4.25h1.858l0.737 1.73c0.224 0.523 0.374 0.908 0.555 1.378h0.022c0.16-0.449 0.331-0.865 0.545-1.378l0.726-1.73h1.826l-2.371 4.197zM21.595 29.501c-0.822 0-1.634-0.214-2.040-0.438l0.331-1.346c0.438 0.224 1.111 0.448 1.805 0.448 0.747 0 1.143-0.309 1.143-0.779 0-0.448-0.342-0.705-1.207-1.015-1.196-0.416-1.976-1.079-1.976-2.125 0-1.228 1.025-2.168 2.724-2.168 0.812 0 1.409 0.171 1.837 0.363l-0.363 1.314c-0.288-0.138-0.801-0.342-1.506-0.342s-1.047 0.321-1.047 0.694c0 0.459 0.406 0.662 1.335 1.015 1.271 0.47 1.869 1.132 1.869 2.146 0 1.208-0.929 2.233-2.905 2.233zM5.675 20.945v-20.151h14.607v6.452c0 0.348 0.282 0.631 0.631 0.631h5.569l0.001 13.068h-20.808zM20.994 4.734l-11.248 0.016 0.002 14.619 11.248-0.007-0.002-14.628zM10.488 18.635l-0.009-13.154 9.755-0.005 0.002 13.155-9.749 0.005zM19.219 10.615c-0.327-0.126-0.597-0.389-0.731-0.717-0.136-0.326-0.132-0.7 0.010-1.025 0.013-0.029 0.006-0.065-0.017-0.089l-0.705-0.705c-0.023-0.023-0.059-0.030-0.089-0.017-0.324 0.142-0.698 0.147-1.025 0.011-0.326-0.134-0.589-0.403-0.717-0.733-0.009-0.020-0.020-0.050-0.075-0.051l-0.998-0c-0.033 0-0.063 0.021-0.075 0.052-0.129 0.33-0.389 0.597-0.717 0.732-0.326 0.135-0.699 0.131-1.024-0.011-0.030-0.013-0.066-0.007-0.089 0.017l-0.706 0.706c-0.023 0.023-0.030 0.058-0.017 0.089 0.142 0.325 0.146 0.698 0.012 1.025-0.136 0.326-0.403 0.589-0.733 0.717-0.030 0.012-0.051 0.042-0.051 0.075l-0.001 0.998c0.001 0.055 0.030 0.066 0.052 0.074 0.168 0.066 0.32 0.164 0.449 0.293 0.122 0.123 0.218 0.265 0.283 0.424 0.135 0.328 0.132 0.701-0.010 1.025-0.013 0.029-0.006 0.065 0.017 0.089l0.705 0.705c0.024 0.024 0.059 0.031 0.089 0.018 0.325-0.142 0.698-0.146 1.025-0.011 0.318 0.132 0.573 0.389 0.706 0.704 0.033-0.027 0.070-0.049 0.11-0.065 0.058-0.022 0.105-0.068 0.127-0.123s0.022-0.12-0.002-0.174c-0.072-0.167-0.036-0.356 0.091-0.481l0.334-0.334c0.126-0.127 0.314-0.163 0.479-0.092 0.058 0.025 0.123 0.026 0.178 0.003s0.1-0.068 0.121-0.124c0.066-0.167 0.229-0.277 0.406-0.278h0.473c0.119 0.001 0.227 0.046 0.307 0.125l0.055 0.056 0.039 0.088c0.028 0.071 0.071 0.11 0.124 0.132 0.056 0.023 0.121 0.023 0.175-0.002 0.157-0.067 0.331-0.036 0.458 0.073l0.22-0.22c0.023-0.023 0.030-0.060 0.017-0.090-0.142-0.324-0.146-0.697-0.011-1.024s0.402-0.589 0.732-0.717c0.030-0.012 0.051-0.042 0.051-0.074l-0-0.998c0.001-0.055-0.028-0.066-0.051-0.075zM16.743 12.562c-0.757 0.756-1.988 0.756-2.745-0.001-0.756-0.757-0.756-1.987 0.001-2.743s1.987-0.757 2.744-0.001c0.757 0.757 0.756 1.988-0 2.745zM18.664 15.171c-0.155-0.060-0.284-0.184-0.347-0.339-0.065-0.155-0.062-0.332 0.005-0.486 0.007-0.014 0.003-0.031-0.008-0.042l-0.334-0.334c-0.011-0.011-0.028-0.014-0.042-0.008-0.153 0.068-0.331 0.069-0.485 0.006s-0.28-0.191-0.34-0.348c-0.004-0.010-0.010-0.024-0.036-0.024l-0.473-0.001c-0.015 0.001-0.030 0.010-0.036 0.025-0.060 0.157-0.184 0.282-0.339 0.347s-0.331 0.062-0.485-0.005c-0.014-0.006-0.032-0.004-0.043 0.007l-0.334 0.334c-0.011 0.011-0.014 0.028-0.007 0.043 0.067 0.154 0.069 0.331 0.005 0.485s-0.191 0.28-0.347 0.341c-0.014 0.005-0.024 0.020-0.024 0.035v0.473c0 0.026 0.014 0.031 0.025 0.035 0.079 0.032 0.151 0.078 0.213 0.139 0.058 0.058 0.103 0.125 0.134 0.201 0.064 0.155 0.063 0.332-0.005 0.486-0.006 0.014-0.003 0.031 0.008 0.042l0.334 0.334c0.011 0.011 0.028 0.014 0.042 0.008 0.154-0.067 0.33-0.069 0.485-0.005s0.279 0.191 0.34 0.347c0.004 0.011 0.010 0.024 0.035 0.025l0.473-0.001c0.015 0 0.030-0.010 0.035-0.024 0.061-0.156 0.185-0.283 0.34-0.347 0.155-0.065 0.331-0.063 0.485 0.005 0.014 0.006 0.031 0.004 0.042-0.008l0.334-0.334c0.011-0.011 0.014-0.028 0.008-0.042-0.067-0.154-0.069-0.331-0.005-0.486s0.191-0.279 0.347-0.34c0.014-0.005 0.024-0.020 0.024-0.035v-0.473c0-0.026-0.015-0.031-0.024-0.036zM17.491 16.093c-0.359 0.359-0.941 0.359-1.3 0s-0.358-0.941 0-1.3c0.358-0.358 0.941-0.359 1.3-0s0.358 0.941 0 1.3z"></path>
</svg>
