<!-- Generated by IcoMoon.io -->
<svg version="1.1" xmlns="http://www.w3.org/2000/svg" width="40" height="32" viewBox="0 0 40 32">
<title>tablets</title>
<path d="M10.049 11.592c-5.094 0-9.264 3.674-10.043 8.46-0.050 0.301 0.207 0.584 0.521 0.584h19.049c0.314 0 0.572-0.283 0.521-0.584-0.785-4.786-4.955-8.46-10.049-8.46zM19.57 22.646h-19.043c-0.314 0-0.572 0.283-0.521 0.584 0.779 4.786 4.949 8.46 10.043 8.46s9.264-3.674 10.043-8.46c0.050-0.301-0.207-0.584-0.521-0.584zM37.269 2.46c-3.549-3.549-9.057-3.856-12.995-1.005-0.251 0.182-0.27 0.559-0.050 0.772l13.271 13.277c0.22 0.22 0.597 0.201 0.773-0.050 2.858-3.938 2.55-9.446-0.999-12.995zM22.799 3.659c-0.22-0.22-0.597-0.201-0.773 0.050-2.851 3.938-2.544 9.446 0.999 12.995 3.549 3.549 9.057 3.856 12.995 0.999 0.251-0.182 0.27-0.559 0.050-0.773l-13.271-13.271z"></path>
</svg>
