<!-- Generated by IcoMoon.io -->
<svg version="1.1" xmlns="http://www.w3.org/2000/svg" width="32" height="32" viewBox="0 0 32 32">
<title>table-tennis</title>
<path d="M31.164 18.155c1.978-4.886 0.992-10.696-2.964-14.659-5.269-5.282-13.817-5.282-19.087 0l-3.517 3.523 13.283 13.283c2.895-3.9 8.259-4.861 12.285-2.148zM17.479 23.161l-13.842-13.836c-1.715 2.845-1.363 6.595 1.087 9.050l2.167 2.173-6.469 5.615c-0.54 0.471-0.572 1.3-0.063 1.809l3.354 3.36c0.503 0.509 1.332 0.477 1.803-0.063l5.609-6.488 2.242 2.242c1.237 1.237 2.801 1.916 4.415 2.091-0.446-1.068-0.691-2.236-0.691-3.461-0.006-0.867 0.157-1.696 0.389-2.493zM26.127 19.631c-3.329 0-6.029 2.701-6.029 6.029s2.701 6.029 6.029 6.029 6.029-2.701 6.029-6.029-2.701-6.029-6.029-6.029z"></path>
</svg>
