<!-- Generated by IcoMoon.io -->
<svg version="1.1" xmlns="http://www.w3.org/2000/svg" width="36" height="32" viewBox="0 0 36 32">
<title>tachometer-alt</title>
<path d="M18.088 1.543c-9.99 0-18.088 8.098-18.088 18.088 0 3.316 0.895 6.423 2.453 9.094 0.352 0.604 1.024 0.955 1.723 0.955h27.823c0.7 0 1.371-0.35 1.723-0.955 1.558-2.672 2.453-5.778 2.453-9.094 0-9.99-8.098-18.088-18.088-18.088zM18.088 5.562c0.924 0 1.669 0.636 1.904 1.485-0.070 0.142-0.166 0.266-0.217 0.419l-0.579 1.738c-0.322 0.219-0.689 0.377-1.108 0.377-1.11 0-2.010-0.9-2.010-2.010s0.899-2.010 2.009-2.010zM6.029 23.651c-1.11 0-2.010-0.9-2.010-2.010s0.9-2.010 2.010-2.010 2.010 0.9 2.010 2.010-0.9 2.010-2.010 2.010zM9.044 13.602c-1.11 0-2.010-0.9-2.010-2.010s0.9-2.010 2.010-2.010 2.010 0.9 2.010 2.010-0.9 2.010-2.010 2.010zM24.543 9.054l-3.852 11.556c0.86 0.737 1.417 1.818 1.417 3.040 0 0.736-0.212 1.416-0.558 2.010h-6.924c-0.345-0.594-0.558-1.274-0.558-2.010 0-2.132 1.664-3.858 3.762-3.994l3.852-11.557c0.262-0.789 1.114-1.222 1.907-0.953 0.79 0.263 1.215 1.117 0.953 1.907zM25.463 12.646l0.975-2.924c0.218-0.081 0.448-0.14 0.694-0.14 1.11 0 2.010 0.9 2.010 2.010s-0.9 2.010-2.010 2.010c-0.715-0.001-1.312-0.394-1.669-0.956zM30.147 23.651c-1.11 0-2.010-0.9-2.010-2.010s0.9-2.010 2.010-2.010 2.010 0.9 2.010 2.010-0.9 2.010-2.010 2.010z"></path>
</svg>
