<!-- Generated by IcoMoon.io -->
<svg version="1.1" xmlns="http://www.w3.org/2000/svg" width="32" height="32" viewBox="0 0 32 32">
<title>tag</title>
<path d="M0 15.368v-12.82c0-1.665 1.35-3.015 3.015-3.015h12.82c0.832 0 1.586 0.338 2.132 0.883l13.307 13.307c1.177 1.177 1.177 3.086 0 4.263l-12.82 12.82c-1.177 1.177-3.086 1.177-4.263 0l-13.307-13.307c-0.546-0.546-0.883-1.299-0.883-2.132v0zM7.034 3.553c-1.665 0-3.015 1.35-3.015 3.015s1.35 3.015 3.015 3.015 3.015-1.35 3.015-3.015-1.35-3.015-3.015-3.015z"></path>
</svg>
