<!-- Generated by IcoMoon.io -->
<svg version="1.1" xmlns="http://www.w3.org/2000/svg" width="40" height="32" viewBox="0 0 40 32">
<title>tags</title>
<path d="M31.274 13.723l-13.307-13.307c-0.546-0.546-1.299-0.883-2.132-0.883h-12.82c-1.665 0-3.015 1.35-3.015 3.015v12.82c0 0.832 0.338 1.586 0.883 2.132l13.307 13.307c1.177 1.177 3.086 1.177 4.263 0l12.82-12.82c1.177-1.177 1.177-3.086 0-4.263zM7.034 9.582c-1.665 0-3.015-1.35-3.015-3.015s1.35-3.015 3.015-3.015 3.015 1.35 3.015 3.015-1.35 3.015-3.015 3.015zM39.313 17.987l-12.82 12.82c-1.177 1.177-3.086 1.177-4.263 0l-0.023-0.023 10.932-10.932c1.068-1.068 1.656-2.487 1.656-3.997s-0.588-2.929-1.656-3.997l-12.325-12.325h3.060c0.832 0 1.586 0.338 2.132 0.883l13.307 13.307c1.177 1.177 1.177 3.086 0 4.263z"></path>
</svg>
