<!-- Generated by IcoMoon.io -->
<svg version="1.1" xmlns="http://www.w3.org/2000/svg" width="40" height="32" viewBox="0 0 40 32">
<title>tape</title>
<path d="M14.069 11.592c-2.217 0-4.020 1.803-4.020 4.020s1.803 4.020 4.020 4.020 4.020-1.802 4.020-4.020-1.802-4.020-4.020-4.020zM39.191 25.66h-15.287c2.606-2.556 4.233-6.111 4.233-10.049 0-7.769-6.299-14.069-14.069-14.069s-14.069 6.299-14.069 14.069 6.299 14.069 14.069 14.069h25.122c0.553 0 1.005-0.452 1.005-1.005v-2.010c0-0.553-0.452-1.005-1.005-1.005zM14.069 21.641c-3.329 0-6.029-2.701-6.029-6.029s2.701-6.029 6.029-6.029 6.029 2.701 6.029 6.029-2.701 6.029-6.029 6.029z"></path>
</svg>
