<!-- Generated by IcoMoon.io -->
<svg version="1.1" xmlns="http://www.w3.org/2000/svg" width="32" height="32" viewBox="0 0 32 32">
<title>tar-file-variant</title>
<path d="M22.479 23.705c-0.42 0-0.658 0.034-0.783 0.057v2.11h0.681c0.863 0 1.373-0.431 1.373-1.101-0-0.703-0.477-1.056-1.271-1.067zM27.736 7.239c-0.001-0.148-0.049-0.293-0.15-0.408l-6.2-7.082c-0.002-0.002-0.004-0.003-0.005-0.004-0.037-0.041-0.080-0.076-0.126-0.105-0.013-0.009-0.027-0.017-0.041-0.025-0.040-0.021-0.081-0.039-0.124-0.052-0.012-0.003-0.022-0.008-0.034-0.011-0.047-0.011-0.096-0.018-0.145-0.018h-15.237c-0.696 0-1.261 0.566-1.261 1.261v29.635c0 0.695 0.565 1.261 1.261 1.261h20.807c0.696 0 1.261-0.566 1.261-1.261v-23.119c-0-0.024-0.003-0.047-0.006-0.070zM10.347 30.128h-1.736v-6.195h-2.054v-1.453h5.878v1.453h-2.088v6.195zM17.099 30.128l-0.59-1.963h-2.19l-0.545 1.963h-1.793l2.338-7.648h2.27l2.372 7.648h-1.861zM23.988 30.128c-0.124-0.216-0.306-0.84-0.533-1.781-0.204-0.953-0.533-1.215-1.237-1.226h-0.522v3.007h-1.713v-7.546c0.556-0.091 1.384-0.159 2.304-0.159 1.135 0 1.929 0.17 2.474 0.602 0.453 0.363 0.703 0.897 0.703 1.6 0 0.976-0.692 1.646-1.35 1.884v0.034c0.533 0.216 0.829 0.727 1.022 1.43 0.238 0.862 0.477 1.86 0.624 2.156h-1.77zM5.675 20.944v-20.15h14.607v6.452c0 0.348 0.283 0.631 0.631 0.631h5.569l0.001 13.068h-20.807zM15.397 23.774h-0.023c-0.113 0.454-0.227 1.032-0.352 1.475l-0.454 1.623h1.691l-0.477-1.623c-0.136-0.454-0.272-1.021-0.386-1.475zM9.177 8.191h9.174v1.215h-9.174v-1.215zM18.351 10.962h1.553v3.434h-1.553v1.487h-9.174v1.214h9.174v-1.145h4.588v-1.555h-2.564v-0.616h1.012v-0.456h-1.012v-0.53h1.012v-0.457h-1.012v-0.518h1.012v-0.456h-1.012v-0.4h2.564v-1.556h-4.588zM10.357 10.031h6.814v5.297h-6.814v-5.297z"></path>
</svg>
