<!-- Generated by IcoMoon.io -->
<svg version="1.1" xmlns="http://www.w3.org/2000/svg" width="32" height="32" viewBox="0 0 32 32">
<title>tasks</title>
<path d="M13.064 7.823h18.088c0.553 0 1.005-0.452 1.005-1.005v-2.512c0-0.553-0.452-1.005-1.005-1.005h-18.088c-0.553 0-1.005 0.452-1.005 1.005v2.512c0 0.553 0.452 1.005 1.005 1.005zM13.064 17.872h18.088c0.553 0 1.005-0.452 1.005-1.005v-2.512c0-0.553-0.452-1.005-1.005-1.005h-18.088c-0.553 0-1.005 0.452-1.005 1.005v2.512c0 0.553 0.452 1.005 1.005 1.005zM13.064 27.921h18.088c0.553 0 1.005-0.452 1.005-1.005v-2.512c0-0.553-0.452-1.005-1.005-1.005h-18.088c-0.553 0-1.005 0.452-1.005 1.005v2.512c0 0.553 0.452 1.005 1.005 1.005zM4.020 22.646c-1.664 0-3.052 1.35-3.052 3.015s1.388 3.015 3.052 3.015 3.015-1.35 3.015-3.015-1.35-3.015-3.015-3.015zM9.829 3.867l-5.514 5.514c-0.295 0.295-0.81 0.295-1.105 0l-2.99-2.977c-0.295-0.295-0.295-0.772 0-1.068l0.986-0.986c0.295-0.295 0.772-0.295 1.068 0l1.426 1.388 4.001-3.976c0.295-0.295 0.773-0.295 1.068 0l1.068 1.036c0.289 0.295 0.289 0.772-0.006 1.068zM9.829 13.89l-5.521 5.521c-0.295 0.295-0.81 0.295-1.105 0l-2.983-2.983c-0.295-0.295-0.295-0.773 0-1.068l0.986-0.986c0.295-0.295 0.772-0.295 1.068 0l1.426 1.388 4.001-4.001c0.295-0.295 0.772-0.295 1.068 0l1.068 1.068c0.289 0.289 0.289 0.766-0.006 1.061z"></path>
</svg>
