<!-- Generated by IcoMoon.io -->
<svg version="1.1" xmlns="http://www.w3.org/2000/svg" width="32" height="32" viewBox="0 0 32 32">
<title>taxi</title>
<path d="M29.016 14.709l-1.382-5.328c-0.603-2.211-2.613-3.819-4.823-3.819h-0.703v-2.010c0-1.11-0.9-2.010-2.010-2.010h-8.039c-1.11 0-2.010 0.9-2.010 2.010v2.010h-0.703c-2.211 0-4.221 1.608-4.824 3.819l-1.382 5.328c-1.796 0.402-3.14 1.999-3.14 3.917v3.015c0 1.484 0.813 2.766 2.010 3.462v2.567c0 1.11 0.9 2.010 2.010 2.010h2.010c1.11 0 2.010-0.9 2.010-2.010v-2.010h16.078v2.010c0 1.11 0.9 2.010 2.010 2.010h2.010c1.11 0 2.010-0.9 2.010-2.010v-2.567c1.196-0.697 2.010-1.978 2.010-3.462v-3.015c0-1.918-1.345-3.515-3.14-3.917zM6.029 21.641c-1.11 0-2.010-0.9-2.010-2.010s0.9-2.010 2.010-2.010 2.010 0.9 2.010 2.010-0.9 2.010-2.010 2.010zM7.32 14.606l1.080-4.168c0.14-0.512 0.602-0.857 0.946-0.857h13.466c0.344 0 0.806 0.344 0.933 0.808l1.092 4.217h-17.517zM26.127 21.641c-1.11 0-2.010-0.9-2.010-2.010s0.9-2.010 2.010-2.010 2.010 0.9 2.010 2.010-0.9 2.010-2.010 2.010z"></path>
</svg>
