<!-- Generated by IcoMoon.io -->
<svg version="1.1" xmlns="http://www.w3.org/2000/svg" width="32" height="32" viewBox="0 0 32 32">
<title>teamspeak</title>
<path d="M0.052 14.47c0.148-0.975 0.671-1.698 1.563-2.137 0.22-0.116 0.355-0.22 0.4-0.49 0.388-2.098 1.227-4.016 2.473-5.752 0.148-0.2 0.252-0.336 0.065-0.587-0.232-0.336-0.065-0.639 0.187-0.91 1.762-2.002 3.886-3.461 6.405-4.236 6.017-1.847 11.311-0.587 15.85 3.797 0.42 0.4 0.975 0.807 0.439 1.53-0.084 0.116 0.065 0.22 0.136 0.317 1.298 1.762 2.15 3.732 2.537 5.882 0.052 0.232 0.187 0.317 0.368 0.4 1.091 0.555 1.614 1.466 1.634 2.654 0 1.078 0.116 2.169-0.065 3.248-0.252 1.549-1.833 2.622-3.344 2.305-0.452-0.103-0.587-0.452-0.587-0.891 0-1.762 0.052-3.545 0-5.313-0.116-4.758-2.272-8.341-6.424-10.64-6.973-3.797-15.902 0.438-17.446 8.257-0.381 1.911-0.109 3.032-0.232 7.902-0.020 0.452-0.271 0.703-0.756 0.723-1.937 0.084-3.254-1.142-3.254-3.079v-1.311zM13.927 22.843c0.742-0.271 1.259-0.742 1.414-1.53 0.148-0.775-0.756-1.885-2.034-3.061-1.311-1.207-3.029-2.453-3.984-2.925-1.362-0.756-2.622-0.116-2.905 1.427-0.317 1.646 0 3.228 0.91 4.642 0.639 0.975 1.595 1.427 2.725 1.51 0.73 0.039 3.3 0.136 3.875-0.064zM22.081 23.192c2.292 0.177 3.726-1.793 3.667-3.797-0.134-2.837-4.156-1.035-5.514-0.504-4.595 1.767-2.829 3.449-1.394 3.815zM28.214 22.624c-0.187-0.148-0.452-0.065-0.523 0.148-0.504 1.595-2.809 7.063-10.808 7.632-9.4 0.659 5.043 2.738 9.129-0.4 1.427-1.091 2.99-2.201 2.925-5.366-0.020-0.633-0.304-1.678-0.724-2.014z"></path>
</svg>
