<!-- Generated by IcoMoon.io -->
<svg version="1.1" xmlns="http://www.w3.org/2000/svg" width="40" height="32" viewBox="0 0 40 32">
<title>teeth</title>
<path d="M34.167-0.467h-28.137c-3.33 0-6.029 2.699-6.029 6.029v20.098c0 3.33 2.699 6.029 6.029 6.029h28.137c3.33 0 6.029-2.699 6.029-6.029v-20.098c0-3.33-2.699-6.029-6.029-6.029zM10.049 22.646c0 1.665-1.35 3.015-3.015 3.015s-3.015-1.35-3.015-3.015v-4.020c0-0.555 0.45-1.005 1.005-1.005h4.020c0.555 0 1.005 0.45 1.005 1.005v4.020zM10.049 14.606c0 0.555-0.45 1.005-1.005 1.005h-4.020c-0.555 0-1.005-0.45-1.005-1.005v-4.020c0-1.665 1.35-3.015 3.015-3.015s3.015 1.35 3.015 3.015v4.020zM19.093 22.143c0 1.943-1.575 3.517-3.517 3.517s-3.517-1.575-3.517-3.517v-3.517c0-0.555 0.45-1.005 1.005-1.005h5.024c0.555 0 1.005 0.45 1.005 1.005v3.517zM19.093 14.606c0 0.555-0.45 1.005-1.005 1.005h-5.024c-0.555 0-1.005-0.45-1.005-1.005v-5.527c0-1.943 1.575-3.517 3.517-3.517s3.517 1.575 3.517 3.517v5.527zM28.137 22.143c0 1.943-1.575 3.517-3.517 3.517s-3.517-1.575-3.517-3.517v-3.517c0-0.555 0.45-1.005 1.005-1.005h5.024c0.555 0 1.005 0.45 1.005 1.005v3.517zM28.137 14.606c0 0.555-0.45 1.005-1.005 1.005h-5.024c-0.555 0-1.005-0.45-1.005-1.005v-5.527c0-1.943 1.575-3.517 3.517-3.517s3.517 1.575 3.517 3.517v5.527zM36.176 22.646c0 1.665-1.35 3.015-3.015 3.015s-3.015-1.35-3.015-3.015v-4.020c0-0.555 0.45-1.005 1.005-1.005h4.020c0.555 0 1.005 0.45 1.005 1.005v4.020zM36.176 14.606c0 0.555-0.45 1.005-1.005 1.005h-4.020c-0.555 0-1.005-0.45-1.005-1.005v-4.020c0-1.665 1.35-3.015 3.015-3.015s3.015 1.35 3.015 3.015v4.020z"></path>
</svg>
