<!-- Generated by IcoMoon.io -->
<svg version="1.1" xmlns="http://www.w3.org/2000/svg" width="40" height="32" viewBox="0 0 40 32">
<title>teeth-open</title>
<path d="M34.167-0.467h-28.137c-3.33 0-6.029 2.699-6.029 6.029v4.020c0 2.22 1.8 4.020 4.020 4.020h32.157c2.22 0 4.020-1.799 4.020-4.020v-4.020c0-3.33-2.699-6.029-6.029-6.029zM10.049 10.587c0 0.555-0.45 1.005-1.005 1.005h-4.020c-0.555 0-1.005-0.45-1.005-1.005v-2.010c0-1.665 1.35-3.015 3.015-3.015s3.015 1.35 3.015 3.015v2.010zM19.093 10.587c0 0.555-0.45 1.005-1.005 1.005h-5.024c-0.555 0-1.005-0.45-1.005-1.005v-3.517c0-1.943 1.575-3.517 3.517-3.517s3.517 1.575 3.517 3.517v3.517zM28.137 10.587c0 0.555-0.45 1.005-1.005 1.005h-5.024c-0.555 0-1.005-0.45-1.005-1.005v-3.517c0-1.943 1.575-3.517 3.517-3.517s3.517 1.575 3.517 3.517v3.517zM36.176 10.587c0 0.555-0.45 1.005-1.005 1.005h-4.020c-0.555 0-1.005-0.45-1.005-1.005v-2.010c0-1.665 1.35-3.015 3.015-3.015s3.015 1.35 3.015 3.015v2.010zM36.176 19.631h-32.157c-2.22 0-4.020 1.799-4.020 4.020v2.010c0 3.33 2.699 6.029 6.029 6.029h28.137c3.33 0 6.029-2.699 6.029-6.029v-2.010c0-2.22-1.8-4.020-4.020-4.020zM10.049 24.655c0 1.665-1.35 3.015-3.015 3.015s-3.015-1.35-3.015-3.015v-2.010c0-0.555 0.45-1.005 1.005-1.005h4.020c0.555 0 1.005 0.45 1.005 1.005v2.010zM19.093 24.153c0 1.943-1.575 3.517-3.517 3.517s-3.517-1.575-3.517-3.517v-1.507c0-0.555 0.45-1.005 1.005-1.005h5.024c0.555 0 1.005 0.45 1.005 1.005v1.507zM28.137 24.153c0 1.943-1.575 3.517-3.517 3.517s-3.517-1.575-3.517-3.517v-1.507c0-0.555 0.45-1.005 1.005-1.005h5.024c0.555 0 1.005 0.45 1.005 1.005v1.507zM36.176 24.655c0 1.665-1.35 3.015-3.015 3.015s-3.015-1.35-3.015-3.015v-2.010c0-0.555 0.45-1.005 1.005-1.005h4.020c0.555 0 1.005 0.45 1.005 1.005v2.010z"></path>
</svg>
