<!-- Generated by IcoMoon.io -->
<svg version="1.1" xmlns="http://www.w3.org/2000/svg" width="31" height="32" viewBox="0 0 31 32">
<title>telegram</title>
<path d="M15.576 0.035c-8.604 0-15.576 6.971-15.576 15.576s6.971 15.576 15.576 15.576 15.576-6.971 15.576-15.576-6.971-15.576-15.576-15.576zM23.226 10.706l-2.556 12.046c-0.188 0.854-0.697 1.061-1.407 0.66l-3.894-2.87-1.878 1.809c-0.207 0.207-0.383 0.383-0.785 0.383l0.276-3.963 7.216-6.519c0.314-0.276-0.069-0.433-0.484-0.157l-8.918 5.615-3.844-1.2c-0.835-0.264-0.854-0.835 0.176-1.237l15.017-5.791c0.697-0.251 1.306 0.17 1.080 1.225z"></path>
</svg>
