<!-- Generated by IcoMoon.io -->
<svg version="1.1" xmlns="http://www.w3.org/2000/svg" width="32" height="32" viewBox="0 0 32 32">
<title>temperature-high</title>
<path d="M26.127-0.467c-3.322 0-6.029 2.707-6.029 6.029s2.707 6.029 6.029 6.029 6.029-2.707 6.029-6.029-2.707-6.029-6.029-6.029zM26.127 7.572c-1.112 0-2.010-0.898-2.010-2.010s0.898-2.010 2.010-2.010 2.010 0.898 2.010 2.010-0.898 2.010-2.010 2.010zM16.078 6.567c0-3.888-3.147-7.034-7.034-7.034s-7.034 3.147-7.034 7.034v10.457c-1.237 1.551-2.010 3.486-2.010 5.621 0 4.993 4.051 9.044 9.044 9.044s9.044-4.051 9.044-9.044c0-2.135-0.773-4.076-2.010-5.621v-10.457zM9.044 27.67c-2.77 0-5.024-2.255-5.024-5.024 0-1.602 0.766-3.071 2.010-4.007v-12.071c0-1.664 1.35-3.015 3.015-3.015s3.015 1.35 3.015 3.015v12.071c1.244 0.93 2.010 2.405 2.010 4.007 0 2.77-2.255 5.024-5.024 5.024zM10.049 19.813v-13.246c0-0.553-0.452-1.005-1.005-1.005s-1.005 0.452-1.005 1.005v13.246c-1.168 0.415-2.010 1.52-2.010 2.833 0 1.664 1.35 3.015 3.015 3.015s3.015-1.35 3.015-3.015c0-1.313-0.842-2.418-2.010-2.833z"></path>
</svg>
