<!-- Generated by IcoMoon.io -->
<svg version="1.1" xmlns="http://www.w3.org/2000/svg" width="24" height="32" viewBox="0 0 24 32">
<title>tencent-weibo</title>
<path d="M4.541 30.672c0.088 1.25-1.733 1.394-1.865 0.182-0.729-8.159 1.953-15.042 6.369-19.671-0.98-2.135 0.578-4.842 3.178-4.842 1.903 0 3.461 1.545 3.461 3.461 0 2.763-3.109 4.447-5.458 2.833-4.126 4.478-6.369 10.664-5.684 18.038zM12.059-0.461c-7.907 0-12.831 8.429-9.314 15.218 0.546 1.093 2.217 0.283 1.652-0.842-2.908-5.816 1.319-12.511 7.662-12.511 4.736 0 8.598 3.856 8.598 8.598 0 5.703-5.458 9.666-10.533 8.359-1.2-0.258-1.608 1.532-0.415 1.828 6.953 1.457 12.812-3.768 12.812-10.193 0-5.772-4.685-10.457-10.463-10.457z"></path>
</svg>
