<!-- Generated by IcoMoon.io -->
<svg version="1.1" xmlns="http://www.w3.org/2000/svg" width="24" height="32" viewBox="0 0 24 32">
<title>tenge</title>
<path d="M23.364 9.582h-22.61c-0.415 0-0.754 0.339-0.754 0.754v3.517c0 0.415 0.339 0.754 0.754 0.754h8.793v14.32c0 0.415 0.339 0.754 0.754 0.754h3.517c0.415 0 0.754-0.339 0.754-0.754v-14.32h8.793c0.415 0 0.754-0.339 0.754-0.754v-3.517c0-0.415-0.339-0.754-0.754-0.754zM23.364 1.543h-22.61c-0.415 0-0.754 0.339-0.754 0.754v3.517c0 0.415 0.339 0.754 0.754 0.754h22.61c0.415 0 0.754-0.339 0.754-0.754v-3.517c0-0.415-0.339-0.754-0.754-0.754z"></path>
</svg>
