<!-- Generated by IcoMoon.io -->
<svg version="1.1" xmlns="http://www.w3.org/2000/svg" width="40" height="32" viewBox="0 0 40 32">
<title>terminal</title>
<path d="M16.203 16.677l-12.206 12.206c-0.589 0.589-1.543 0.589-2.132 0l-1.424-1.424c-0.588-0.588-0.589-1.54-0.003-2.129l9.674-9.719-9.673-9.719c-0.586-0.589-0.585-1.542 0.003-2.129l1.424-1.424c0.589-0.589 1.543-0.589 2.132 0l12.206 12.206c0.589 0.589 0.589 1.543 0 2.132zM40.196 28.173v-2.010c0-0.832-0.675-1.507-1.507-1.507h-19.093c-0.832 0-1.507 0.675-1.507 1.507v2.010c0 0.832 0.675 1.507 1.507 1.507h19.093c0.833 0 1.507-0.675 1.507-1.507z"></path>
</svg>
