<!-- Generated by IcoMoon.io -->
<svg version="1.1" xmlns="http://www.w3.org/2000/svg" width="32" height="32" viewBox="0 0 32 32">
<title>tex-file-format</title>
<path d="M27.737 7.239c-0.002-0.147-0.049-0.293-0.15-0.408l-6.2-7.082c-0.001-0.002-0.003-0.003-0.005-0.004-0.037-0.041-0.079-0.075-0.125-0.105-0.013-0.009-0.027-0.017-0.041-0.025-0.040-0.021-0.081-0.039-0.124-0.052-0.012-0.003-0.022-0.008-0.034-0.011-0.047-0.011-0.095-0.018-0.145-0.018h-15.238c-0.695 0-1.261 0.566-1.261 1.261v29.635c0 0.695 0.566 1.261 1.261 1.261h20.807c0.696 0 1.261-0.566 1.261-1.261v-23.119c0-0.024-0.004-0.047-0.006-0.071zM13.283 24.082h-1.895v5.623h-1.576v-5.623h-1.864v-1.318h5.335v1.318zM18.547 29.705h-4.429v-6.942h4.285v1.287h-2.709v1.442h2.555v1.277h-2.555v1.648h2.853v1.287zM23.275 29.705l-0.628-1.256c-0.257-0.484-0.422-0.844-0.618-1.246h-0.020c-0.144 0.402-0.32 0.762-0.536 1.246l-0.577 1.256h-1.792l2.008-3.512-1.936-3.429h1.802l0.608 1.267c0.206 0.422 0.361 0.762 0.525 1.154h0.021c0.165-0.443 0.298-0.752 0.474-1.154l0.587-1.267h1.792l-1.957 3.388 2.060 3.553h-1.813zM5.675 20.945v-20.151h14.607v6.452c0 0.348 0.282 0.631 0.631 0.631h5.569l0.001 13.068h-20.808zM12.76 10.127v-1.467h-5.157v1.467h0.171c0.014-0.219 0.051-0.399 0.113-0.539s0.145-0.249 0.251-0.329c0.105-0.080 0.23-0.135 0.374-0.165s0.31-0.045 0.497-0.045h0.747v4.766c0 0.206-0.015 0.368-0.045 0.487s-0.072 0.209-0.127 0.27c-0.055 0.062-0.124 0.102-0.205 0.12s-0.178 0.027-0.289 0.027h-0.219v0.171h2.64v-0.171h-0.213c-0.11 0-0.205-0.008-0.288-0.024s-0.151-0.053-0.206-0.113c-0.055-0.059-0.097-0.15-0.126-0.271-0.030-0.122-0.045-0.287-0.045-0.497v-4.767h0.878c0.352 0 0.618 0.081 0.799 0.244s0.296 0.44 0.346 0.833h0.103zM16.895 15.752c-0.078 0.073-0.151 0.134-0.22 0.182s-0.148 0.086-0.236 0.113c-0.089 0.027-0.195 0.046-0.319 0.055s-0.274 0.013-0.453 0.013h-1.056c-0.133 0-0.233-0.006-0.301-0.020s-0.119-0.044-0.151-0.092c-0.032-0.048-0.050-0.118-0.055-0.209s-0.007-0.215-0.007-0.371v-2.057h1.365c0.201 0 0.361 0.015 0.48 0.045s0.212 0.080 0.278 0.151c0.066 0.071 0.114 0.165 0.144 0.285s0.056 0.268 0.079 0.446h0.172v-2.167h-0.172c-0.009 0.155-0.028 0.29-0.055 0.405s-0.077 0.208-0.148 0.282c-0.071 0.073-0.168 0.128-0.291 0.164s-0.286 0.055-0.487 0.055h-1.365v-2.462h1.708c0.21 0 0.383 0.010 0.518 0.031s0.246 0.068 0.333 0.14c0.087 0.073 0.157 0.178 0.209 0.312s0.101 0.315 0.147 0.538h0.11v-1.365h-4.801v0.171h0.219c0.261 0 0.446 0.062 0.556 0.185 0.078 0.091 0.116 0.336 0.116 0.734v4.046c0 0.301-0.018 0.503-0.055 0.603-0.018 0.055-0.050 0.102-0.096 0.144s-0.097 0.074-0.154 0.099c-0.058 0.025-0.118 0.045-0.182 0.058s-0.126 0.020-0.186 0.020h-0.219v0.171h4.801l0.542-1.563h-0.185c-0.206 0.393-0.4 0.679-0.583 0.857zM23.366 14.35c-0.103-0.030-0.208-0.088-0.316-0.175s-0.224-0.213-0.35-0.381c-0.126-0.167-0.285-0.392-0.476-0.676l-1.338-1.995 1.234-1.584c0.261-0.329 0.455-0.548 0.583-0.658 0.119-0.105 0.243-0.19 0.374-0.254 0.13-0.064 0.3-0.103 0.511-0.117v-0.171h-2.209v0.171c0.247 0.009 0.42 0.037 0.518 0.082s0.148 0.135 0.148 0.268c0 0.037-0.002 0.069-0.007 0.096s-0.016 0.058-0.034 0.093c-0.018 0.034-0.046 0.078-0.082 0.131s-0.089 0.122-0.158 0.209l-1.104 1.406-0.96-1.433c-0.147-0.215-0.219-0.38-0.219-0.494 0-0.087 0.045-0.165 0.137-0.236s0.258-0.111 0.501-0.12v-0.171h-2.881v0.171c0.155 0.009 0.297 0.031 0.425 0.065s0.255 0.094 0.381 0.178c0.126 0.085 0.256 0.203 0.391 0.356s0.287 0.353 0.456 0.6l1.228 1.797-1.467 1.859c-0.128 0.16-0.251 0.303-0.371 0.428s-0.239 0.231-0.36 0.316c-0.122 0.084-0.248 0.151-0.381 0.202s-0.275 0.080-0.426 0.089v0.171h2.208v-0.171c-0.233-0.009-0.391-0.046-0.473-0.11s-0.123-0.143-0.123-0.24c0-0.032 0.001-0.062 0.003-0.089s0.013-0.059 0.031-0.096c0.019-0.036 0.047-0.082 0.086-0.137s0.095-0.128 0.168-0.219l1.309-1.673 1.056 1.598c0.064 0.101 0.117 0.18 0.158 0.24s0.072 0.108 0.092 0.147c0.021 0.039 0.033 0.068 0.038 0.089s0.007 0.043 0.007 0.065c0 0.133-0.040 0.236-0.12 0.309s-0.246 0.112-0.497 0.116v0.171h2.674v-0.171c-0.141-0.005-0.263-0.021-0.366-0.051z"></path>
</svg>
