<!-- Generated by IcoMoon.io -->
<svg version="1.1" xmlns="http://www.w3.org/2000/svg" width="28" height="32" viewBox="0 0 28 32">
<title>text-width</title>
<path d="M1.005 1.543h26.127c0.555 0 1.005 0.45 1.005 1.005v6.029c0 0.555-0.45 1.005-1.005 1.005h-2.229c-0.555 0-1.005-0.45-1.005-1.005v-3.015h-7.459v8.039h2.152c0.555 0 1.005 0.45 1.005 1.005v2.010c0 0.555-0.45 1.005-1.005 1.005h-9.044c-0.555 0-1.005-0.45-1.005-1.005v-2.010c0-0.555 0.45-1.005 1.005-1.005h2.152v-8.039h-7.459v3.015c0 0.555-0.45 1.005-1.005 1.005h-2.229c-0.555 0-1.005-0.45-1.005-1.005v-6.029c0-0.555 0.45-1.005 1.005-1.005zM27.843 22.94l-5.025-5.024c-0.585-0.585-1.715-0.272-1.715 0.71v3.015h-14.069v-3.014c0-0.899-1.087-1.339-1.716-0.71l-5.025 5.024c-0.392 0.392-0.392 1.029 0 1.421l5.025 5.024c0.585 0.585 1.716 0.272 1.716-0.71v-3.015h14.069v3.014c0 0.899 1.087 1.339 1.715 0.71l5.025-5.024c0.392-0.392 0.392-1.029 0-1.421z"></path>
</svg>
