<!-- Generated by IcoMoon.io -->
<svg version="1.1" xmlns="http://www.w3.org/2000/svg" width="36" height="32" viewBox="0 0 36 32">
<title>text-height</title>
<path d="M1.005 1.543h18.088c0.555 0 1.005 0.45 1.005 1.005v6.029c0 0.555-0.45 1.005-1.005 1.005h-2.229c-0.555 0-1.005-0.45-1.005-1.005v-3.015h-3.439v20.098h2.152c0.555 0 1.005 0.45 1.005 1.005v2.010c0 0.555-0.45 1.005-1.005 1.005h-9.044c-0.555 0-1.005-0.45-1.005-1.005v-2.010c0-0.555 0.45-1.005 1.005-1.005h2.152v-20.098h-3.439v3.015c0 0.555-0.45 1.005-1.005 1.005h-2.229c-0.555 0-1.005-0.45-1.005-1.005v-6.029c0-0.555 0.45-1.005 1.005-1.005zM30.857 1.837l5.024 5.025c0.629 0.629 0.188 1.715-0.711 1.715h-3.014v14.069h3.015c0.982 0 1.296 1.13 0.711 1.715l-5.024 5.025c-0.392 0.392-1.029 0.392-1.421 0l-5.024-5.025c-0.628-0.629-0.188-1.715 0.71-1.715h3.014v-14.069h-3.015c-0.982 0-1.296-1.13-0.71-1.716l5.024-5.025c0.392-0.392 1.029-0.392 1.421 0z"></path>
</svg>
