<!-- Generated by IcoMoon.io -->
<svg version="1.1" xmlns="http://www.w3.org/2000/svg" width="32" height="32" viewBox="0 0 32 32">
<title>th-large</title>
<path d="M18.591 1.543h12.059c0.832 0 1.507 0.675 1.507 1.507v10.049c0 0.832-0.675 1.507-1.507 1.507h-12.059c-0.832 0-1.507-0.675-1.507-1.507v-10.049c0-0.833 0.675-1.507 1.507-1.507zM13.566 1.543h-12.059c-0.833 0-1.507 0.675-1.507 1.507v10.049c0 0.832 0.675 1.507 1.507 1.507h12.059c0.832 0 1.507-0.675 1.507-1.507v-10.049c0-0.833-0.675-1.507-1.507-1.507zM0 18.124v10.049c0 0.832 0.675 1.507 1.507 1.507h12.059c0.832 0 1.507-0.675 1.507-1.507v-10.049c0-0.832-0.675-1.507-1.507-1.507h-12.059c-0.833 0-1.507 0.675-1.507 1.507zM18.591 29.68h12.059c0.832 0 1.507-0.675 1.507-1.507v-10.049c0-0.832-0.675-1.507-1.507-1.507h-12.059c-0.832 0-1.507 0.675-1.507 1.507v10.049c0 0.832 0.675 1.507 1.507 1.507z"></path>
</svg>
