<!-- Generated by IcoMoon.io -->
<svg version="1.1" xmlns="http://www.w3.org/2000/svg" width="32" height="32" viewBox="0 0 32 32">
<title>th</title>
<path d="M9.379 3.050v5.024c0 0.832-0.675 1.507-1.507 1.507h-6.364c-0.833 0-1.507-0.675-1.507-1.507v-5.024c0-0.833 0.675-1.507 1.507-1.507h6.364c0.832 0 1.507 0.675 1.507 1.507zM20.768 18.124v-5.024c0-0.832-0.675-1.507-1.507-1.507h-6.364c-0.832 0-1.507 0.675-1.507 1.507v5.024c0 0.832 0.675 1.507 1.507 1.507h6.364c0.833 0 1.507-0.675 1.507-1.507zM22.778 3.050v5.024c0 0.832 0.675 1.507 1.507 1.507h6.364c0.832 0 1.507-0.675 1.507-1.507v-5.024c0-0.833-0.675-1.507-1.507-1.507h-6.364c-0.832 0-1.507 0.675-1.507 1.507zM20.768 8.075v-5.024c0-0.833-0.675-1.507-1.507-1.507h-6.364c-0.832 0-1.507 0.675-1.507 1.507v5.024c0 0.832 0.675 1.507 1.507 1.507h6.364c0.833 0 1.507-0.675 1.507-1.507zM7.872 11.592h-6.364c-0.833 0-1.507 0.675-1.507 1.507v5.024c0 0.832 0.675 1.507 1.507 1.507h6.364c0.832 0 1.507-0.675 1.507-1.507v-5.024c0-0.832-0.675-1.507-1.507-1.507zM0 23.148v5.024c0 0.832 0.675 1.507 1.507 1.507h6.364c0.832 0 1.507-0.675 1.507-1.507v-5.024c0-0.832-0.675-1.507-1.507-1.507h-6.364c-0.833 0-1.507 0.675-1.507 1.507zM24.285 19.631h6.364c0.832 0 1.507-0.675 1.507-1.507v-5.024c0-0.832-0.675-1.507-1.507-1.507h-6.364c-0.832 0-1.507 0.675-1.507 1.507v5.024c0 0.832 0.675 1.507 1.507 1.507zM24.285 29.68h6.364c0.832 0 1.507-0.675 1.507-1.507v-5.024c0-0.832-0.675-1.507-1.507-1.507h-6.364c-0.832 0-1.507 0.675-1.507 1.507v5.024c0 0.832 0.675 1.507 1.507 1.507zM11.389 23.148v5.024c0 0.832 0.675 1.507 1.507 1.507h6.364c0.832 0 1.507-0.675 1.507-1.507v-5.024c0-0.832-0.675-1.507-1.507-1.507h-6.364c-0.832 0-1.507 0.675-1.507 1.507z"></path>
</svg>
