<!-- Generated by IcoMoon.io -->
<svg version="1.1" xmlns="http://www.w3.org/2000/svg" width="32" height="32" viewBox="0 0 32 32">
<title>the-red-yeti</title>
<path d="M30.424 14.716l1.298 0.448c-0.6-1.502-1.503-2.321-1.992-2.811l0.448-1.143c0.016 0 0.771-1.745-0.155-1.931-0.040-0.713-0.414-1.699-1.158-1.699-0.479-0.664-1.112-0.772-1.931-0.371-0.556 0.263-1.112 0.633-1.591 1.035-0.333-0.405-0.185 0.024-0.185-1.869-2.329-1.525-2.851-0.737-4.695 0.185l0.031 0.031c-1.328-0.479-2.765-0.757-4.293-0.834-0.349-0.547-1.168-1.2-1.575-1.575l1.56 0.448c-0.345-0.345-1.682-0.811-2.147-0.958 1.143-0.258 1.87-1.305 2.672-2.069-2.193-0.633-4.263-0.371-6.147 0.741l0.741-2.78-0.109-0.030c-1.985 1.517-2.072 2.632-2.116 2.857-0.057-0.15-0.397-1.232-0.958-1.699-0.216 0.556-0.216 1.081-0.031 1.591 0.185 0.525 0.371 0.927 0.525 1.19-1.007-0.207-1.781-0.308-3.089 0h-0.232l2.069 0.896c-1.298 1.22-2.255 2.626-2.934 4.232l-0.108 0.525 0.108 0.108 0.479-0.293c-0.209 0.731-0.331 1.218-0.417 1.622-0.71 0.803-1.282 1.637-1.745 2.533-0.94 0.063-1.998 0.677-2.533 0.896l0.185 0.216 1.807 0.062c-0.031 0.062-0.046 0.139-0.077 0.201-0.458 0.401-2.498 2.365-2.069 5.066l1.267-1.406c0.031 0.108 0.046 0.216 0.077 0.324 0 1.603 0.023 5.63 4.077 9.452 2.75 2.519 6.039 3.785 9.901 3.785 7.645 0 14.009-5.482 14.009-13.283 0.427-0.61-0.078 0.19 1.050-1.575l0.818 0.896 0.155-0.031c-0.108-0.71-0.293-1.406-0.556-2.147-0.139-0.402-0.294-0.649-0.433-0.834zM29.451 12.121l-0.896-0.741 1.143-0.077-0.247 0.818zM24.756 6.514l-0.031 1.375c0.347 1.139 1.060 1.081 1.406 1.081l-0.216-0.293 1.406-0.34c-0.633 0.031-1.19 0.031-1.699 0 0.805-0.134 2.093-1.823 2.703-0.71 0.216 0.479 0.401 1.081 0.587 1.745l0.108-0.371c-0.077-0.262-0.108-0.587-0.108-0.958 0.34 0.031 0.556 0.216 0.587 0.633 0.031 0.401 0.108 0.927 0.216 1.591l0.293-0.71c0.288 0 0.281-0.227-0.155 1.298-1.312-0.546-2.204-0.525-2.919-0.525l1.143-1.004c-1.588 0.512-2.075 0.678-3.444 1.313-0.068-0.34-0.313-0.848-1.004-1.251-0.2 0.24-0.173 0.057-0.046 0.927h-0.155c-0.077-0.525-0.262-1.004-0.525-1.452l0.262-0.216c0.525-0.448 0.741-0.896 0.664-1.375-0.031-0.401-0.34-0.85-0.85-1.298 0.355-0.201 0.958-0.016 1.777 0.54zM22.269 5.881c0.169 0.121 0.716 0.338 1.19 1.081 0.264 0.527 0.25 0.616 0.216 0.695-0.030 0.151-0.029 0.272-0.185 0.448-0.108 0.155-0.34 0.293-0.741 0.479-0.479-0.818-1.035-1.483-1.745-1.961l1.266-0.741zM5.48 8.522l0.077-0.108c0.077-0.185 0.263-0.479 0.587-0.958l0.155-0.216-0.818 0.773 0.34-0.293-0.633 0.587-0.263 0.077c0.772-1.514 1.452-2.595 2.039-3.151 0.587-0.587 1.004-1.004 1.267-1.22l-0.401 0.077c-0.71-0.263-1.22-0.448-1.56-0.525 0.155-0.031 0.232-0.031 0.201-0.031 0.649 0 1.097 0.031 1.313 0.077 0.34 0.108 0.664 0.155 1.004 0.155l0.031-0.108-0.525-2.255 0.85 1.823c0.108-0.155 0.262-0.448 0.371-0.896 0.108-0.401 0.34-0.818 0.633-1.22s0.479-0.664 0.587-0.71c-0.185 0.556-0.293 1.081-0.401 1.591l-0.108 0.448-0.031 0.293 0.155 0.155c1.375-0.85 2.857-1.22 4.479-1.19l1.328 0.031c-0.741 0.85-1.745 1.375-3.043 1.56-0.541 0.093-1.019 0.155-1.467 0.185l-0.016-0.031-0.155-0.077c-0.324-0.062-0.618-0.016-0.88 0.124-0.155-0.016-0.309-0.031-0.448-0.046l-0.155 0.108 0.031 0.077c0.124 0.016 0.247 0.031 0.386 0.046l-0.124 0.216 0.216-0.031-0.664 0.71c-0.262 0.185-0.34 0.401-0.262 0.587l0.34-0.216h0.077c0.401-0.525 0.958-0.85 1.591-0.958v-0.185c0.401 0.031 0.818 0.062 1.22 0.077 0.401 0 0.525 0.031 0.34 0.077 0.479 0.263 0.896 0.556 1.298 0.85 0.85 0.633 1.483 1.375 1.884 2.224 0.556 1.143 0.85 2.332 0.85 3.552 0 0.633-0.077 1.22-0.185 1.776-0.148 0.678-0.49 1.86-1.004 2.888l0.155 0.031c1.145-1.235 2.632-1.004 3.089-1.004l-0.401 0.371 1.406 1.112-0.108 1.931c-0.34-0.773-1.035-1.328-2.069-1.745 1.035 0.927 1.483 1.328 1.375 1.267-0.302-0.177-0.222-0.117-0.68-0.232 0.259 0.259 1.096 1.18 1.143 1.298l0.016 0.016-0.016 0.016c0 0.11 0.098-0.074-0.881 1.436-4.72-0.962-6.674-2.684-8.866-3.969l0.741 0.077c-0.738-1.164-0.982-1.113-2.409-1.637l0.664-0.525c-0.556-0.185-1.143-0.185-1.776 0.031l0.479-0.664-0.077-0.108c-0.935 0.273-1.247 0.576-1.421 0.71-0.072-0.343-0.174-0.781-0.772-1.807l-0.077 1.699-0.85-0.34c0.092-1.577 0.339-3.168 0.833-4.682zM22.84 29.25c-3.135 1.568-3.525 1.407-3.707 1.498-1.869-0.741-3.197-1.992-3.985-3.691l1.884 1.035c-0.614-0.585-1.152-1.039-2.409-2.78l0.741 1.452-1.112-0.479c0.892 1.324 1.474 3.25 4.185 4.618-7.585 1.517-12.5-4.529-12.618-4.665 0.71 0.587 1.452 1.112 2.224 1.56 0.216 0.108 0.448 0.155 0.633 0.077l-1.004-1.298c0.58 0.263 0.596 0.283 4.34 1.823-2.672-1.298-4.634-2.564-5.854-3.784-0.031 0.401-0.077 0.633-0.077 0.633 0.556 0.479 1.004 1.035 1.298 1.668-2.453-1.184-3.617-2.99-4.479-5.19 3.133 3.461 7.465 2.355 7.568 2.332 2.185 1.032 4.388 1.483 7.151 0.664 0.209 0 1.275 1.066 1.591 2.456l0.262-0.185-0.155-1.483c0.562 0.562 1.564 1.417 2.162 0.818-0.979-0.334-1.477-0.596-1.853-1.992 0.288 0.264 0.475 0.568 1.745 0.942l0.077-0.077-0.664-0.896c0.732-0.305-0.222 0.063 2.008-0.68 0.273 2.15 0.568 3.087 0.046 5.622zM30.084 15.782l-0.155 0.031 0.185 0.587c-0.223 0.369-1.49 2.78-4.494 5.004-2.483 1.869-4.81 2.458-5.082 2.533l-0.479-0.448-0.077 0.185 0.896 1.004-0.448-0.293 0.216 0.262h-0.077l-1.375-0.85 0.587 1.668-1.19-1.745-0.077 0.155 0.479 1.823c-0.384-0.517-1.321-2.048-3.568-2.486l2.039 1.328c-2.008 0.293-3.969 0.155-5.854-0.401-0.262-0.077-0.556-0.155-0.85-0.262l0.077-0.185-2.811-1.406 1.637 1.406c-3.621 0.57-7.095-1.596-7.939-5.236l-0.155-1.035-1.404 1.406c1.223-3.612 1.608-3.636 3.228-4.402-0.571-0.335-0.097-0.205-2.409-0.587 0.991-0.364 2.076-0.97 4.587 0.324 0.185-0.093 0.134-0.069 0.232-0.108 0.040-0.2 0.026-0.052 0.062-0.741 0.244 0.629 0.228 0.545 0.185 0.587l0.108 0.031c0.797-0.408 0.56-0.284 1.066-0.556l-0.34 0.85 1.406-0.371-0.525 0.525 0.155 0.155c0.283-0.113 1.906 0.215 2.564 1.004l-1.483-0.155c2.474 1.443 3.232 3.39 3.506 4.371l0.108-0.077c-0.178-1.399-0.777-2.128-1.004-2.517 0.265 0.313 2.462 2.171 6.935 2.888-0.71-0.031-1.452 0.34-2.193 1.19l2.934-1.267-0.587 1.375c0.479-0.633 0.927-1.483 1.328-2.486v-0.031l0.077-0.185-0.077 1.004c0.85-2.626 1.591-4.927 2.224-6.889l0.85-1.745v-0.124l-0.34-0.262h0.633l0.371 0.262 0.155-0.077-0.216-1.004 0.773 1.19 2.626-1.267-0.927 0.818 0.031 0.185 1.112-0.031c0.71 0.031 1.375 0.108 2.069 0.262l-1.483 0.155-0.077 0.185 1.668 1.452c0.633 0.633 1.19 1.298 1.699 2.008-0.706-0.207-0.646-0.216-1.328-0.216l0.773 2.039-0.557-0.803zM12.631 10.19c-2.189 0.906-2.181 0.878-2.27 0.896-1.308 0.297-1.191-1.535-1.19-1.56l0.371-0.077-0.031-0.155c-1.267-0.166-1.949 0.262-2.039 0.309 0.031 0.031 0.185 0.216 0.371 0.587 0.262-0.401 0.556-0.633 0.958-0.664-0.108 0.71-0.077 1.406 0.108 2.116 0.004 0.032 0.161 1.095 1.73 1.514 0.71 0.185 1.699 0.077 3.074-0.34l-0.587 0.031c-0.262-0.927-0.401-1.56-0.371-1.853 0.71-0.556 1.375-0.71 1.931-0.479h0.155l-0.741-0.479-0.448 0.031c-0.371 0.077-0.772 0.262-1.22 0.525l0.2-0.401zM13.326 4.738l-0.155 0.031 0.031 0.185c0.525-0.031 1.081 0.077 1.637 0.371-0.157-0.348-0.626-0.896-1.776-0.896l0.031 0.155 0.232 0.155zM9.109 8.259c-0.254-0.399-0.194-0.317-0.293-0.417 1.362 1.053 1.035 1.345 2.919 1.483l-0.185-0.293c0.556-0.479 0.85-1.081 0.927-1.776 0.108-1.004-0.077-1.853-0.556-2.595l0.818-0.479c0-0.031 0-0.077-0.031-0.108-0.293-0.108-0.587-0.077-0.85 0.108-0.796 0.419-1.758 1.315-1.823 1.406-0.108 0.108-0.216 0.371-0.34 0.85-0.108 0.448-0.185 0.927-0.185 1.483-0.294-0.5-0.661-0.402-1.251-0.371l0.448 0.479c-1.034 0-1.465 0.969-1.483 1.004 0.428-0.001 0.289-0.477 1.884-0.773zM9.99 6.668c0.077-0.479 0.216-0.818 0.401-1.081 0.34-0.401 0.664-0.633 1.004-0.741 0.262-0.108 0.448 0.077 0.633 0.587 0.155 0.479 0.216 1.035 0.185 1.591-0.031 0.587-0.216 1.081-0.525 1.452-0.185 0.216-0.34 0.371-0.401 0.479-0.293 0.031-0.525 0-0.71-0.031l-0.448-0.216-0.34-0.401c0.062-0.634 0.093-1.19 0.201-1.638zM13.928 5.325c-0.401-0.216-0.664 0.185-0.773 1.19s0.155 1.853 0.741 2.486c0.587 0.633 1.143 0.664 1.637 0.185s0.216-1.483-0.71-2.996c-0.2-0.34-0.494-0.633-0.896-0.865zM13.635 8.229c0.337 0.14 0.66 0.12 0.773-0.664v-0.293l-0.077 0.031c-0.269-0.192-0.16-0.282-0.108-0.386l0.031-0.031c-0.055-0.077-0.315-0.509-0.788 0.293-0.031-0.85 0.031-1.375 0.185-1.56 0.077-0.155 0.293-0.077 0.71 0.263 0.401 0.34 0.71 1.004 0.958 2.039 0.414 1.762-1.237 1.649-1.684 0.309zM10.808 7.889c0.099 0.020 0.587-0.068 0.587-0.927h-0.031c-0.342-0.068-0.141-0.344-0.046-0.371-0.108-0.185-0.216-0.263-0.34-0.293-0.512 0-0.732 0.795-0.51 1.328 0.078 0.155 0.202 0.232 0.34 0.263zM13.697 11.75c0.108 0.664 0.293 1.112 0.556 1.375-0.582 0.415-1.73 0.87-2.919 1.004l0.031 0.077c0.525 0.077 1.035 0.031 1.56-0.155l-0.448 0.818c0.262-0.108 0.633-0.448 1.112-0.927 0.749-0.346 0.799-0.318 1.267-1.004-0.8-0.413-0.99-0.869-1.159-1.189z"></path>
</svg>
