<!-- Generated by IcoMoon.io -->
<svg version="1.1" xmlns="http://www.w3.org/2000/svg" width="40" height="32" viewBox="0 0 40 32">
<title>theater-masks</title>
<path d="M12.992 14.93c-2.253 0.656-3.765 2.588-3.613 4.654 0.716-0.799 1.809-1.488 3.134-1.942l0.479-2.712zM6.017 18.061l-1.993-11.274c-0.018-0.102 0.018-0.165 0.015-0.166 3.628-2.014 7.733-3.078 11.871-3.078 0.101 0 0.203 0.011 0.305 0.012 0.876-0.846 1.993-1.434 3.24-1.633 1.186-0.19 2.39-0.286 3.591-0.334-0.628-0.876-1.538-1.522-2.623-1.696-1.502-0.239-3.011-0.358-4.513-0.358-4.815 0-9.565 1.22-13.825 3.584-1.518 0.843-2.331 2.601-2.019 4.366l1.993 11.274c0.894 5.057 8.562 8.924 12.841 8.924 0.225 0 0.424-0.029 0.629-0.050-0.849-1.073-1.818-2.542-2.481-4.244-2.99-0.815-6.661-3.242-7.030-5.325zM12.144 9.427c-0.046-0.259-0.14-0.494-0.256-0.716-0.518 0.56-1.298 0.989-2.218 1.151s-1.801 0.025-2.48-0.325c-0.033 0.248-0.040 0.501 0.006 0.76 0.241 1.363 1.544 2.273 2.91 2.033s2.279-1.54 2.037-2.903zM38.111 7.126c-5.588-3.101-12.023-4.234-18.338-3.225-1.715 0.274-3.082 1.649-3.394 3.414l-1.993 11.274c-0.967 5.467 5.984 12.327 9.943 13.023s12.842-3.378 13.809-8.846l1.993-11.274c0.312-1.765-0.501-3.524-2.019-4.366zM20.95 13.206c0.241-1.363 1.544-2.273 2.91-2.032s2.279 1.54 2.038 2.903c-0.046 0.259-0.14 0.494-0.256 0.716-0.518-0.56-1.298-0.989-2.218-1.151s-1.801-0.025-2.48 0.325c-0.033-0.248-0.041-0.502 0.005-0.761zM25.376 25.689c-3.497-0.615-5.874-3.723-5.592-7.091 1.294 1.604 3.53 2.9 6.249 3.378s5.264 0.023 7.030-1.043c-0.891 3.262-4.19 5.371-7.686 4.756zM33.559 16.184c-0.518-0.56-1.299-0.989-2.219-1.151s-1.801-0.025-2.48 0.325c-0.033-0.248-0.040-0.501 0.006-0.76 0.241-1.363 1.544-2.273 2.91-2.033s2.279 1.54 2.038 2.903c-0.046 0.259-0.14 0.495-0.256 0.716z"></path>
</svg>
