<!-- Generated by IcoMoon.io -->
<svg version="1.1" xmlns="http://www.w3.org/2000/svg" width="32" height="32" viewBox="0 0 32 32">
<title>themeisle</title>
<path d="M13.064 5.078c0-0.628 0.395-1.364 1.113-1.364 0.7 0 1.113 0.736 1.113 1.364 0 0.646-0.413 1.364-1.113 1.364-0.718 0-1.113-0.718-1.113-1.364zM32.157 15.127c0 2.261-0.718 6.424-2.279 8.147-1.436 1.561-5.491 3.84-7.591 4.432l-0.072 0.018v2.046c0 1.023-0.79 1.92-1.83 1.92-0.628 0-1.22-0.359-1.543-0.897-0.341 0.538-0.933 0.897-1.561 0.897s-1.22-0.359-1.561-0.897c-0.323 0.538-0.915 0.897-1.543 0.897-0.646 0-1.22-0.359-1.561-0.897-0.323 0.538-0.915 0.897-1.543 0.897-1.184 0-1.848-0.987-1.848-2.064-1.023 0.772-2.243 1.22-3.553 1.22-1.382 0-2.728-0.52-3.786-1.436 0.646-0.018 1.292-0.143 1.902-0.359-1.31-0.359-2.476-1.184-3.266-2.279 1.342 0.292 2.902 0.105 4.217-0.7-1.382-1.382-3.553-3.697-4.307-5.491-0.359-0.843-0.431-1.974-0.431-2.871 0-3.122 1.274-10.049 5.419-10.049 0.664 0 1.184 0.305 1.453 0.933 0.25-0.364 0.498-0.68 0.763-0.98l-0.009 0.011c0.126-0.162 0.359-0.341 0.449-0.52 0.502-0.79 0.736-1.328 1.364-2.135 2.028-2.584 5.132-4.361 8.47-4.361 0.377 0 0.754 0.018 1.113 0.072 0.682-0.736 1.633-1.149 2.62-1.149 0.915 0 1.866 0.377 2.512 1.023 0.054 0.054 0.090 0.143 0.090 0.215 0 0.233-0.646 0.843-0.807 1.023 0.269 0.090 0.987 0.431 0.987 0.754 0 0.179-0.18 0.323-0.287 0.449 1.974 1.741 3.104 4.217 3.535 6.783 0.269-0.323 0.646-0.538 1.077-0.538 0.664 0 1.31 0.449 1.794 0.879 1.31 1.166 1.615 3.338 1.615 5.006zM11.808 5.15c0 1.149 0.79 2.333 2.028 2.333s2.028-1.184 2.028-2.333c0-1.13-0.79-2.315-2.028-2.315s-2.028 1.184-2.028 2.315zM14.93 11.717c0-1.238 0.233-2.458 0.538-3.661-3.268 4.995-0.85 11.592 4.325 11.592 1.346 0 2.674-0.484 3.768-1.256 0.126-0.467 0.233-0.933 0.233-1.418 0-0.897-0.395-1.346-1.292-1.346-0.287 0-0.574 0.054-0.843 0.108-3.978 0.796-6.729 0.23-6.729-4.020zM12.346 27.724c0-0.7-0.556-1.31-1.274-1.31s-1.256 0.61-1.256 1.31v2.046c0 0.7 0.538 1.328 1.256 1.328s1.274-0.61 1.274-1.328v-2.046zM15.432 27.724c0-0.7-0.538-1.31-1.256-1.31s-1.274 0.61-1.274 1.31v2.046c0 0.7 0.556 1.328 1.274 1.328s1.256-0.628 1.256-1.328v-2.046zM18.555 27.724c0-0.7-0.556-1.31-1.274-1.31s-1.274 0.61-1.274 1.31v2.046c0 0.7 0.556 1.328 1.274 1.328s1.274-0.61 1.274-1.328v-2.046zM21.677 27.724c0-0.7-0.556-1.31-1.274-1.31s-1.274 0.61-1.274 1.31v2.046c0 0.7 0.556 1.328 1.274 1.328s1.274-0.628 1.274-1.328v-2.046zM26.486 17.496c-1.938 3.715-5.67 6.442-9.959 6.442-6.065 0-10.085-5.312-10.085-11.090 0-1.059 0.126-2.1 0.377-3.122-1.256 2.117-1.866 4.558-1.866 6.998 0 3.786 1.561 7.644 4.486 10.103 0.323-0.61 0.933-1.023 1.633-1.023 0.628 0 1.22 0.359 1.543 0.897 0.341-0.538 0.915-0.897 1.561-0.897 0.628 0 1.22 0.359 1.543 0.897 0.341-0.538 0.933-0.897 1.561-0.897s1.22 0.359 1.561 0.897c0.323-0.538 0.915-0.897 1.543-0.897 0.682 0 1.31 0.413 1.615 1.005 2.727-2.279 4.307-5.778 4.486-9.313zM27.15 11.233c0-3.374-2.171-6.639-5.814-6.639-1.902 0-3.679 0.951-4.953 2.315-1.256 4.169-1.724 8.578 2.602 8.578 1.809 0 6.115-1.792 5.294 2.315 1.812-1.633 2.871-4.127 2.871-6.568z"></path>
</svg>
