<!-- Generated by IcoMoon.io -->
<svg version="1.1" xmlns="http://www.w3.org/2000/svg" width="28" height="32" viewBox="0 0 28 32">
<title>themeco</title>
<path d="M12.545 0.305c0.612-0.354 1.607-0.36 2.223-0.013l11.816 6.654c0.616 0.347 1.115 1.202 1.115 1.908v13.432c0 0.707-0.498 1.563-1.112 1.913l-11.821 6.729c-0.614 0.35-1.607 0.344-2.216-0.013l-11.445-6.703c-0.61-0.357-1.104-1.22-1.104-1.927v-13.432c0-0.707 0.496-1.568 1.107-1.921l11.438-6.628zM7.759 12.659c-0.985 0-1.971 0.009-2.957 0.009v6.272h1.183v-1.846h1.774c3.074 0 3.064-4.435 0-4.435zM16.424 18.86l-1.9-2.142c2.286-0.464 2.152-4.033-0.672-4.050-0.995 0-1.989-0.009-2.984-0.009v6.281h1.183v-2.096h1.139l1.828 2.096h1.407v-0.080zM13.852 13.771c1.443 0 1.438 2.007 0 2.007h-1.801v-2.007h1.801zM7.944 13.672c1.31 0 1.305 2.402 0 2.402h-1.998v-2.401l1.998-0.001zM19.855 12.543c-4.233 0-4.388 6.541 0 6.541 4.295-0.001 4.292-6.541 0-6.541zM19.855 13.619c2.728 0 2.77 4.381 0 4.381-2.771 0-2.747-4.381 0-4.381z"></path>
</svg>
