<!-- Generated by IcoMoon.io -->
<svg version="1.1" xmlns="http://www.w3.org/2000/svg" width="32" height="32" viewBox="0 0 32 32">
<title>thermometer1</title>
<path d="M21.375 17.888v-12.729c0-2.951-2.392-5.344-5.344-5.344s-5.344 2.393-5.344 5.344v12.729c-1.64 1.468-2.672 3.601-2.672 5.975 0 4.427 3.589 8.016 8.016 8.016s8.016-3.589 8.016-8.016c0-2.374-1.032-4.507-2.672-5.975zM16.031 29.206c-2.951 0-5.344-2.392-5.344-5.344 0-1.543 0.654-2.974 1.782-3.984l0.89-0.797v-13.923c0-1.476 1.196-2.672 2.672-2.672s2.672 1.196 2.672 2.672v13.923l0.89 0.797c1.128 1.010 1.782 2.441 1.782 3.984-0 2.951-2.393 5.344-5.344 5.344zM14.695 10.503h2.672v16.031h-2.672v-16.031zM20.039 23.862c0 2.213-1.794 4.008-4.008 4.008s-4.008-1.794-4.008-4.008c0-2.213 1.794-4.008 4.008-4.008s4.008 1.794 4.008 4.008z"></path>
</svg>
