<!-- Generated by IcoMoon.io -->
<svg version="1.1" xmlns="http://www.w3.org/2000/svg" width="16" height="32" viewBox="0 0 16 32">
<title>thermometer-half</title>
<path d="M12.059 23.651c0 2.22-1.8 4.020-4.020 4.020s-4.020-1.8-4.020-4.020c0-1.488 0.809-2.785 2.010-3.481v-6.568c0-1.11 0.9-2.010 2.010-2.010s2.010 0.9 2.010 2.010v6.568c1.201 0.695 2.010 1.993 2.010 3.481zM14.069 18.334c1.251 1.417 2.010 3.278 2.010 5.317 0 4.44-3.599 8.039-8.039 8.039-0.019 0-0.038-0-0.057-0-4.415-0.031-8.005-3.665-7.982-8.081 0.010-2.022 0.768-3.867 2.010-5.275v-12.771c0-3.33 2.699-6.029 6.029-6.029s6.029 2.699 6.029 6.029v12.771zM13.064 23.651c0-2.157-1.217-3.278-2.010-4.177v-13.911c0-1.662-1.352-3.015-3.015-3.015s-3.015 1.352-3.015 3.015v13.911c-0.8 0.906-1.999 2.016-2.010 4.15-0.014 2.756 2.234 5.032 4.988 5.051l0.036 0c2.77 0 5.024-2.254 5.024-5.024z"></path>
</svg>
