<!-- Generated by IcoMoon.io -->
<svg version="1.1" xmlns="http://www.w3.org/2000/svg" width="32" height="32" viewBox="0 0 32 32">
<title>thermometer</title>
<path d="M29.946 0.814c-2.355-1.928-5.998-1.652-8.284 0.641l-2.87 2.889 3.172 3.172c0.195 0.195 0.195 0.515 0 0.71l-0.71 0.71c-0.195 0.195-0.515 0.195-0.71 0l-3.165-3.172-2.833 2.851 3.159 3.165c0.195 0.195 0.195 0.515 0 0.71l-0.71 0.71c-0.195 0.195-0.515 0.195-0.71 0l-3.159-3.153-2.833 2.851 3.147 3.153c0.195 0.195 0.195 0.515 0 0.71l-0.71 0.71c-0.195 0.195-0.515 0.195-0.71 0l-3.147-3.153-2.845 2.87v6.337l-5.59 5.59c-0.59 0.59-0.59 1.545 0 2.129 0.59 0.59 1.545 0.59 2.129 0l5.59-5.59h6.274l15.965-15.909c2.192-2.192 2.65-6.375-0.452-8.931z"></path>
</svg>
