<!-- Generated by IcoMoon.io -->
<svg version="1.1" xmlns="http://www.w3.org/2000/svg" width="16" height="32" viewBox="0 0 16 32">
<title>thermometer-full</title>
<path d="M14.069 5.562c0-3.33-2.699-6.029-6.029-6.029s-6.029 2.699-6.029 6.029v12.771c-1.242 1.407-1.999 3.253-2.010 5.275-0.023 4.415 3.567 8.050 7.982 8.081 0.019 0 0.038 0 0.057 0 4.44 0 8.039-3.599 8.039-8.039 0-2.039-0.759-3.9-2.010-5.317v-12.771zM8.039 28.675l-0.036-0c-2.755-0.019-5.002-2.295-4.988-5.051 0.011-2.134 1.21-3.244 2.010-4.15v-13.911c0-1.662 1.352-3.015 3.015-3.015s3.015 1.352 3.015 3.015v13.911c0.793 0.899 2.010 2.020 2.010 4.177 0 2.77-2.254 5.024-5.024 5.024zM12.059 23.651c0 2.22-1.8 4.020-4.020 4.020s-4.020-1.8-4.020-4.020c0-1.488 0.809-2.785 2.010-3.481v-14.608c0-1.11 0.9-2.010 2.010-2.010s2.010 0.9 2.010 2.010v14.608c1.201 0.695 2.010 1.993 2.010 3.481z"></path>
</svg>
