<!-- Generated by IcoMoon.io -->
<svg version="1.1" xmlns="http://www.w3.org/2000/svg" width="32" height="32" viewBox="0 0 32 32">
<title>thm-file-format-symbol</title>
<path d="M27.737 7.239c-0.002-0.148-0.048-0.293-0.15-0.408l-6.201-7.082c-0.001-0.002-0.003-0.003-0.005-0.004-0.037-0.041-0.079-0.075-0.125-0.105-0.013-0.009-0.027-0.017-0.041-0.025-0.040-0.021-0.081-0.039-0.124-0.052-0.012-0.003-0.022-0.008-0.034-0.011-0.047-0.011-0.095-0.018-0.145-0.018h-15.238c-0.695 0-1.261 0.566-1.261 1.261v29.635c0 0.696 0.566 1.261 1.261 1.261h20.807c0.696 0 1.261-0.566 1.261-1.261v-23.119c0-0.024-0.004-0.047-0.006-0.071zM11.188 23.983h-1.835v5.444h-1.525v-5.444h-1.805v-1.276h5.165v1.276zM17.539 29.427h-1.515v-2.812h-2.503v2.812h-1.526v-6.72h1.526v2.582h2.503v-2.582h1.515v6.72zM24.648 29.427l-0.1-2.572c-0.030-0.808-0.059-1.785-0.059-2.762h-0.030c-0.21 0.858-0.489 1.815-0.748 2.602l-0.818 2.622h-1.186l-0.718-2.602c-0.219-0.788-0.449-1.745-0.608-2.622h-0.020c-0.040 0.908-0.070 1.945-0.12 2.782l-0.12 2.552h-1.406l0.429-6.72h2.024l0.658 2.244c0.209 0.778 0.419 1.615 0.568 2.403h0.030c0.19-0.778 0.419-1.665 0.638-2.413l0.718-2.234h1.984l0.369 6.72h-1.486zM5.675 20.945v-20.151h14.607v6.452c0 0.348 0.282 0.631 0.631 0.631h5.569l0.001 13.068h-20.808zM17.774 10.364c0.147 0 0.295-0.012 0.44-0.036 0.187 0.068 0.396 0.103 0.609 0.103 0.722 0 1.287-0.39 1.287-0.889s-0.565-0.889-1.287-0.889c-0.179 0-0.357 0.025-0.518 0.072-0.091-0.048-0.192-0.072-0.296-0.072h-0.146c-0.24 0-0.458 0.138-0.568 0.348-0.536 0.095-0.853 0.338-0.853 0.66 0 0.482 0.69 0.701 1.332 0.701zM18.822 9.22c0.447 0 0.721 0.21 0.721 0.323s-0.274 0.323-0.721 0.323c-0.17 0-0.332-0.032-0.469-0.090l-0.080-0.034-0.086 0.017c-0.136 0.026-0.275 0.040-0.414 0.040-0.365 0-0.6-0.077-0.711-0.135 0.080-0.043 0.231-0.099 0.475-0.124l0.225-0.024 0.026-0.224c0.005-0.043 0.035-0.072 0.073-0.072h0.146c0.020 0 0.039 0.008 0.055 0.024l0.132 0.128 0.171-0.069c0.134-0.054 0.292-0.082 0.456-0.082zM12.686 9.826c0.618 0 1.122-0.504 1.122-1.122s-0.503-1.122-1.122-1.122c-0.619 0-1.123 0.503-1.123 1.122s0.504 1.122 1.123 1.122zM12.686 9.26c-0.308 0-0.558-0.249-0.558-0.556s0.25-0.556 0.558-0.556c0.307 0 0.556 0.249 0.556 0.556s-0.249 0.556-0.556 0.556zM10.33 5.122l-0.007 13.546h11.504l0.007-13.546h-11.504zM10.896 16.062v-10.374h10.372v10.374h-10.372zM18.238 11.749c-0.072 0-0.145 0.009-0.218 0.028-0.635 0.162-1.070 0.948-1.351 1.71-0.28-0.893-0.8-2.171-1.66-3.033-0.204-0.203-0.426-0.306-0.662-0.306-1.218 0-2.128 2.982-2.466 4.286l-0.050 0.511h8.448l-0.331-1.028c-0.428-1.096-0.914-2.167-1.71-2.167zM14.348 10.714c0.081 0 0.167 0.046 0.261 0.14 1.060 1.062 1.575 2.922 1.719 3.525h-3.85c0.578-2.133 1.357-3.665 1.87-3.665zM19.504 14.379h-2.522c0.241-0.934 0.694-1.929 1.179-2.053 0.507-0.135 1.037 1.222 1.256 1.78l0.088 0.273z"></path>
</svg>
