<!-- Generated by IcoMoon.io -->
<svg version="1.1" xmlns="http://www.w3.org/2000/svg" width="32" height="32" viewBox="0 0 32 32">
<title>thumbs-down1</title>
<path d="M0 3.050v15.073c0 0.832 0.675 1.507 1.507 1.507h5.024c0.832 0 1.507-0.675 1.507-1.507v-15.073c0-0.833-0.675-1.507-1.507-1.507h-5.024c-0.833 0-1.507 0.675-1.507 1.507zM2.512 15.611c0-0.832 0.675-1.507 1.507-1.507s1.507 0.675 1.507 1.507-0.675 1.507-1.507 1.507-1.507-0.675-1.507-1.507zM19.596 31.69c-1.268 0-1.852-2.468-2.131-3.63-0.327-1.361-0.665-2.768-1.595-3.699-2.039-2.043-3.109-4.646-5.597-7.104-0.138-0.136-0.223-0.326-0.223-0.535 0-0 0-0 0-0v0-13.426c0-0.411 0.329-0.746 0.74-0.754 0.994-0.018 2.305-0.57 3.307-1.016 1.994-0.887 4.476-1.991 7.509-1.992h0.179c2.687 0 5.864 0.026 7.146 1.868 0.527 0.757 0.656 1.698 0.386 2.803 1.024 1.071 1.574 3.069 1.029 4.695 1.102 1.472 1.202 3.525 0.585 4.991l0.007 0.007c0.747 0.75 1.226 1.963 1.221 3.090-0.010 1.906-1.643 3.649-3.74 3.649h-6.389c0.459 1.78 2.090 3.274 2.090 5.938 0 4.613-3.015 5.116-4.522 5.116z"></path>
</svg>
