<!-- Generated by IcoMoon.io -->
<svg version="1.1" xmlns="http://www.w3.org/2000/svg" width="24" height="32" viewBox="0 0 24 32">
<title>thumbtack</title>
<path d="M18.718 12.99l-0.768-7.428h2.651c0.832 0 1.507-0.675 1.507-1.507v-3.015c0-0.833-0.675-1.507-1.507-1.507h-17.083c-0.833 0-1.507 0.675-1.507 1.507v3.015c0 0.832 0.675 1.507 1.507 1.507h2.651l-0.768 7.428c-3.047 1.416-5.4 3.956-5.4 7.143 0 0.832 0.675 1.507 1.507 1.507h8.542v6.532c0 0.078 0.018 0.155 0.053 0.225l1.507 3.015c0.185 0.369 0.714 0.37 0.899 0l1.507-3.015c0.033-0.065 0.053-0.143 0.053-0.225v0-6.532h8.542c0.832 0 1.507-0.675 1.507-1.507-0-3.215-2.386-5.742-5.4-7.143z"></path>
</svg>
