<!-- Generated by IcoMoon.io -->
<svg version="1.1" xmlns="http://www.w3.org/2000/svg" width="32" height="32" viewBox="0 0 32 32">
<title>thumbs-up1</title>
<path d="M6.532 13.602h-5.024c-0.833 0-1.507 0.675-1.507 1.507v15.073c0 0.832 0.675 1.507 1.507 1.507h5.024c0.832 0 1.507-0.675 1.507-1.507v-15.073c0-0.832-0.675-1.507-1.507-1.507zM4.020 29.177c-0.833 0-1.507-0.675-1.507-1.507s0.675-1.507 1.507-1.507 1.507 0.675 1.507 1.507-0.675 1.507-1.507 1.507zM24.118 4.649c0 2.664-1.631 4.158-2.090 5.938h6.389c2.098 0 3.73 1.743 3.74 3.649 0.005 1.127-0.474 2.339-1.221 3.090l-0.007 0.007c0.618 1.466 0.517 3.52-0.585 4.991 0.545 1.626-0.004 3.624-1.029 4.695 0.27 1.105 0.141 2.046-0.386 2.803-1.282 1.842-4.459 1.868-7.146 1.868l-0.179-0c-3.033-0.001-5.515-1.105-7.509-1.992-1.002-0.446-2.313-0.998-3.307-1.016-0.411-0.008-0.74-0.343-0.74-0.754v-13.426c0-0.201 0.081-0.394 0.223-0.535 2.488-2.459 3.558-5.061 5.597-7.104 0.93-0.932 1.268-2.339 1.595-3.699 0.279-1.162 0.864-3.63 2.131-3.63 1.507 0 4.522 0.502 4.522 5.116z"></path>
</svg>
