<!-- Generated by IcoMoon.io -->
<svg version="1.1" xmlns="http://www.w3.org/2000/svg" width="32" height="32" viewBox="0 0 32 32">
<title>thumbs-down</title>
<path d="M29.285 13.684c0.294-1.422 0.054-2.797-0.565-3.956 0.186-1.499-0.253-3.050-1.089-4.207-0.060-3.511-2.25-5.987-7.093-5.987-0.44 0-0.942 0.001-1.396 0.001-6.506 0-8.528 2.512-11.103 2.512h-0.681c-0.354-0.313-0.819-0.502-1.329-0.502h-4.020c-1.11 0-2.010 0.9-2.010 2.010v15.073c0 1.11 0.9 2.010 2.010 2.010h4.020c0.744 0 1.393-0.404 1.74-1.005h0.443c1.203 1.065 2.89 3.809 4.319 5.238 0.858 0.858 0.638 6.821 4.507 6.821 3.616 0 5.984-2.006 5.984-6.578 0-1.156-0.247-2.118-0.556-2.923h2.291c3.052 0 5.39-2.61 5.39-5.375 0-1.203-0.312-2.198-0.862-3.13zM4.020 18.124c-0.833 0-1.507-0.675-1.507-1.507s0.675-1.507 1.507-1.507 1.507 0.675 1.507 1.507-0.675 1.507-1.507 1.507zM24.757 19.174h-6.531c0 2.375 1.781 3.478 1.781 5.938 0 1.492 0 3.563-2.969 3.563-1.188-1.188-0.594-4.157-2.375-5.938-1.668-1.669-4.157-6.121-5.938-6.121h-0.686v-11.693c3.367 0 6.281-2.375 10.78-2.375h2.375c2.23 0 3.82 1.075 3.336 4.139 0.955 0.513 1.664 2.289 0.875 3.616 1.355 1.28 1.174 3.207 0.327 4.121 0.594 0 1.404 1.188 1.399 2.375s-1.050 2.375-2.375 2.375z"></path>
</svg>
