<!-- Generated by IcoMoon.io -->
<svg version="1.1" xmlns="http://www.w3.org/2000/svg" width="32" height="32" viewBox="0 0 32 32">
<title>thumbs-up</title>
<path d="M29.285 17.539c0.551-0.933 0.862-1.928 0.862-3.13 0-2.764-2.338-5.375-5.39-5.375h-2.291c0.309-0.805 0.556-1.767 0.556-2.923 0-4.572-2.367-6.578-5.984-6.578-3.869 0-3.649 5.962-4.507 6.821-1.429 1.429-3.116 4.173-4.319 5.238h-6.203c-1.11 0-2.010 0.9-2.010 2.010v15.073c0 1.11 0.9 2.010 2.010 2.010h4.020c0.935 0 1.721-0.639 1.946-1.504 2.795 0.063 4.714 2.508 11.167 2.508 0.453 0 0.956 0.001 1.396 0.001 4.843 0 7.033-2.476 7.093-5.987 0.837-1.157 1.275-2.708 1.089-4.207 0.619-1.159 0.858-2.534 0.565-3.956zM25.406 20.92c0.789 1.327 0.079 3.103-0.875 3.616 0.484 3.064-1.106 4.139-3.336 4.139h-2.375c-4.499 0-7.413-2.375-10.78-2.375v-11.693h0.686c1.781 0 4.27-4.452 5.938-6.121 1.781-1.781 1.188-4.75 2.375-5.938 2.969 0 2.969 2.071 2.969 3.563 0 2.46-1.781 3.562-1.781 5.938h6.531c1.326 0 2.37 1.188 2.375 2.375s-0.805 2.375-1.399 2.375c0.847 0.914 1.028 2.841-0.327 4.121zM5.527 26.665c0 0.832-0.675 1.507-1.507 1.507s-1.507-0.675-1.507-1.507 0.675-1.507 1.507-1.507 1.507 0.675 1.507 1.507z"></path>
</svg>
