<!-- Generated by IcoMoon.io -->
<svg version="1.1" xmlns="http://www.w3.org/2000/svg" width="36" height="32" viewBox="0 0 36 32">
<title>ticket-alt</title>
<path d="M8.039 9.582h20.098v12.059h-20.098v-12.059zM33.162 15.611c0 1.665 1.35 3.015 3.015 3.015v6.029c0 1.665-1.35 3.015-3.015 3.015h-30.147c-1.665 0-3.015-1.35-3.015-3.015v-6.029c1.665 0 3.015-1.35 3.015-3.015s-1.35-3.015-3.015-3.015v-6.029c0-1.665 1.35-3.015 3.015-3.015h30.147c1.665 0 3.015 1.35 3.015 3.015v6.029c-1.665 0-3.015 1.35-3.015 3.015zM30.147 9.080c0-0.832-0.675-1.507-1.507-1.507h-21.103c-0.832 0-1.507 0.675-1.507 1.507v13.064c0 0.832 0.675 1.507 1.507 1.507h21.103c0.832 0 1.507-0.675 1.507-1.507v-13.064z"></path>
</svg>
