<!-- Generated by IcoMoon.io -->
<svg version="1.1" xmlns="http://www.w3.org/2000/svg" width="32" height="32" viewBox="0 0 32 32">
<title>tiff-images-file-extension-symbol-for-interface</title>
<path d="M27.737 7.239c-0.002-0.147-0.049-0.293-0.151-0.408l-6.2-7.082c-0.002-0.002-0.004-0.003-0.005-0.004-0.037-0.042-0.080-0.075-0.126-0.105-0.013-0.009-0.027-0.017-0.041-0.025-0.039-0.022-0.081-0.039-0.124-0.052-0.012-0.003-0.022-0.008-0.034-0.011-0.047-0.011-0.095-0.018-0.145-0.018h-15.237c-0.695 0-1.261 0.566-1.261 1.261v29.635c0 0.695 0.566 1.261 1.261 1.261h20.807c0.695 0 1.261-0.566 1.261-1.261v-23.119c-0-0.024-0.004-0.047-0.006-0.071zM11.612 23.64h-2.088v6.196h-1.736v-6.196h-2.054v-1.453h5.878v1.453zM14.268 29.836h-1.736v-7.649h1.736v7.649zM20.442 23.606h-2.939v1.748h2.746v1.407h-2.746v3.076h-1.736v-7.649h4.675v1.419zM26.423 23.606h-2.94v1.748h2.747v1.407h-2.747v3.076h-1.736v-7.649h4.675v1.419zM5.675 20.944v-20.15h14.607v6.452c0 0.348 0.283 0.631 0.631 0.631h5.57v13.068h-20.807zM22.477 9.043h-6.467l-0.472-0.95c-0.076-0.122-0.218-0.253-0.443-0.253h-2.893c-0.14 0-0.313 0.115-0.403 0.253l-0.443 0.95h-1.679c-0.699 0-1.266 0.567-1.266 1.267v7.603c0 0.7 0.567 1.268 1.266 1.268h12.799c0.7 0 1.267-0.567 1.267-1.268v-7.603c-0.001-0.7-0.567-1.267-1.267-1.267zM17.947 17.343h-1.899c-0.261-0.602-0.581-1.568-1.064-1.456-0.533 0.121-0.819 1.292-0.855 1.456h-0.009c-0.037-0.177-0.342-1.527-1.097-2.204-0.771-0.691-1.519 1.962-1.586 2.204h-1.662v-6.399h8.173v6.399h-0.001zM20.867 16.364c-1.258 0-2.281-1.024-2.281-2.281s1.023-2.281 2.281-2.281c1.257 0 2.28 1.023 2.28 2.281s-1.022 2.281-2.28 2.281zM20.867 12.056c-1.119 0-2.028 0.909-2.028 2.027s0.909 2.027 2.028 2.027c1.118 0 2.027-0.909 2.027-2.027s-0.909-2.027-2.027-2.027zM19.695 14.748l-0.666-0.665 0.666-0.665v1.331zM20.867 15.847l-0.666-0.666h1.331l-0.664 0.666zM20.201 12.985l0.666-0.665 0.664 0.665h-1.33zM21.891 14.748v-1.331l0.665 0.665-0.665 0.666zM14.006 13.223c0.174 0 0.333-0.015 0.476-0.041 0.168 0.064 0.37 0.103 0.591 0.103 0.563 0 1.019-0.248 1.019-0.551s-0.456-0.551-1.019-0.551c-0.211 0-0.408 0.034-0.572 0.094-0.066-0.058-0.156-0.094-0.256-0.094h-0.149c-0.187 0-0.337 0.128-0.36 0.292-0.456 0.044-0.795 0.19-0.795 0.367 0 0.212 0.477 0.382 1.065 0.382zM12.321 12.634c0 0.252-0.204 0.456-0.456 0.456s-0.456-0.204-0.456-0.456c0-0.252 0.204-0.456 0.456-0.456s0.456 0.204 0.456 0.456z"></path>
</svg>
