<!-- Generated by IcoMoon.io -->
<svg version="1.1" xmlns="http://www.w3.org/2000/svg" width="32" height="32" viewBox="0 0 32 32">
<title>times-circle</title>
<path d="M16.078 0.035c-8.604 0-15.576 6.971-15.576 15.576s6.971 15.576 15.576 15.576 15.576-6.971 15.576-15.576-6.971-15.576-15.576-15.576zM16.078 28.173c-6.94 0-12.561-5.621-12.561-12.561s5.621-12.561 12.561-12.561 12.561 5.621 12.561 12.561-5.621 12.561-12.561 12.561zM22.472 11.705l-3.907 3.907 3.907 3.907c0.295 0.295 0.295 0.773 0 1.068l-1.419 1.419c-0.295 0.295-0.773 0.295-1.068 0l-3.907-3.907-3.907 3.907c-0.295 0.295-0.773 0.295-1.068 0l-1.419-1.419c-0.295-0.295-0.295-0.773 0-1.068l3.907-3.907-3.907-3.907c-0.295-0.295-0.295-0.773 0-1.068l1.419-1.419c0.295-0.295 0.772-0.295 1.068 0l3.907 3.907 3.907-3.907c0.295-0.295 0.773-0.295 1.068 0l1.419 1.419c0.295 0.295 0.295 0.772 0 1.068z"></path>
</svg>
