<!-- Generated by IcoMoon.io -->
<svg version="1.1" xmlns="http://www.w3.org/2000/svg" width="32" height="32" viewBox="0 0 32 32">
<title>times-circle1</title>
<path d="M16.078 0.035c-8.604 0-15.576 6.971-15.576 15.576s6.971 15.576 15.576 15.576 15.576-6.971 15.576-15.576-6.971-15.576-15.576-15.576zM23.716 19.7c0.295 0.295 0.295 0.773 0 1.068l-2.487 2.481c-0.295 0.295-0.773 0.295-1.068 0l-4.082-4.12-4.089 4.12c-0.295 0.295-0.773 0.295-1.068 0l-2.481-2.487c-0.295-0.295-0.295-0.773 0-1.068l4.12-4.082-4.12-4.089c-0.295-0.295-0.295-0.773 0-1.068l2.487-2.487c0.295-0.295 0.773-0.295 1.068 0l4.082 4.126 4.089-4.12c0.295-0.295 0.773-0.295 1.068 0l2.487 2.487c0.295 0.295 0.295 0.772 0 1.068l-4.126 4.082 4.12 4.089z"></path>
</svg>
