<!-- Generated by IcoMoon.io -->
<svg version="1.1" xmlns="http://www.w3.org/2000/svg" width="22" height="32" viewBox="0 0 22 32">
<title>times</title>
<path d="M15.244 15.611l6.285-6.285c0.771-0.771 0.771-2.022 0-2.794l-1.397-1.397c-0.771-0.771-2.022-0.771-2.794 0l-6.285 6.285-6.285-6.285c-0.771-0.771-2.022-0.771-2.794 0l-1.397 1.397c-0.771 0.771-0.771 2.022 0 2.794l6.285 6.285-6.285 6.285c-0.771 0.771-0.771 2.022 0 2.794l1.397 1.397c0.771 0.771 2.022 0.771 2.794 0l6.285-6.285 6.285 6.285c0.771 0.771 2.022 0.771 2.794 0l1.397-1.397c0.771-0.771 0.771-2.022 0-2.794l-6.285-6.285z"></path>
</svg>
