<!-- Generated by IcoMoon.io -->
<svg version="1.1" xmlns="http://www.w3.org/2000/svg" width="22" height="32" viewBox="0 0 22 32">
<title>tint</title>
<path d="M12.889 0.92c-0.499-1.808-3.105-1.892-3.67 0-2.937 9.908-9.219 12.601-9.219 19.584 0 6.183 4.944 11.185 11.054 11.185s11.054-5.003 11.054-11.185c0-7.019-6.267-9.631-9.219-19.584zM11.054 27.67c-3.878 0-7.034-3.156-7.034-7.034 0-0.555 0.45-1.005 1.005-1.005s1.005 0.45 1.005 1.005c0 2.77 2.254 5.024 5.025 5.024 0.555 0 1.005 0.45 1.005 1.005s-0.45 1.005-1.005 1.005z"></path>
</svg>
