<!-- Generated by IcoMoon.io -->
<svg version="1.1" xmlns="http://www.w3.org/2000/svg" width="40" height="32" viewBox="0 0 40 32">
<title>tint-slash</title>
<path d="M39.808 28.304l-8.721-6.74c0.033-0.35 0.065-0.701 0.065-1.060 0-7.019-6.267-9.631-9.219-19.584-0.499-1.808-3.105-1.892-3.67 0-0.975 3.287-2.316 5.776-3.674 7.893l-11.733-9.069c-0.438-0.34-1.070-0.262-1.411 0.176l-1.234 1.587c-0.34 0.438-0.262 1.069 0.176 1.41l36.953 28.56c0.438 0.341 1.070 0.262 1.411-0.177l1.233-1.587c0.34-0.438 0.261-1.069-0.177-1.41zM9.044 20.505c0 6.183 4.944 11.185 11.054 11.185 2.808 0 5.362-1.065 7.311-2.807l-17.189-13.285c-0.717 1.476-1.176 3.037-1.176 4.907z"></path>
</svg>
