<!-- Generated by IcoMoon.io -->
<svg version="1.1" xmlns="http://www.w3.org/2000/svg" width="31" height="32" viewBox="0 0 31 32">
<title>tired</title>
<path d="M15.576 0.035c-8.604 0-15.576 6.971-15.576 15.576s6.971 15.576 15.576 15.576 15.576-6.971 15.576-15.576-6.971-15.576-15.576-15.576zM15.576 28.173c-6.928 0-12.561-5.634-12.561-12.561s5.634-12.561 12.561-12.561 12.561 5.634 12.561 12.561-5.634 12.561-12.561 12.561zM23.684 9.092c-0.239-0.276-0.647-0.339-0.961-0.157l-5.024 3.015c-0.226 0.138-0.364 0.383-0.364 0.647s0.138 0.509 0.364 0.647l5.024 3.015c0.339 0.201 0.741 0.1 0.961-0.157 0.239-0.283 0.245-0.691 0.006-0.973l-2.11-2.531 2.11-2.531c0.239-0.283 0.232-0.697-0.006-0.973zM13.817 12.597c0-0.264-0.138-0.509-0.364-0.647l-5.024-3.015c-0.314-0.188-0.722-0.119-0.961 0.157-0.239 0.283-0.245 0.691-0.006 0.973l2.11 2.531-2.11 2.531c-0.239 0.283-0.232 0.691 0.006 0.973 0.22 0.258 0.622 0.358 0.961 0.157l5.024-3.015c0.226-0.138 0.364-0.383 0.364-0.647zM15.576 16.616c-2.851 0-6.337 2.405-6.771 5.86-0.094 0.741 0.433 1.357 0.973 1.124 1.426-0.609 3.536-0.955 5.797-0.955s4.371 0.345 5.797 0.955c0.534 0.232 1.068-0.377 0.973-1.124-0.433-3.454-3.919-5.86-6.771-5.86z"></path>
</svg>
