<!-- Generated by IcoMoon.io -->
<svg version="1.1" xmlns="http://www.w3.org/2000/svg" width="31" height="32" viewBox="0 0 31 32">
<title>tired1</title>
<path d="M15.576 0.035c-8.604 0-15.576 6.971-15.576 15.576s6.971 15.576 15.576 15.576 15.576-6.971 15.576-15.576-6.971-15.576-15.576-15.576zM17.699 11.95l5.024-3.015c0.729-0.433 1.507 0.484 0.967 1.13l-2.11 2.531 2.11 2.531c0.546 0.653-0.245 1.558-0.967 1.13l-5.024-3.015c-0.484-0.295-0.484-0.999 0-1.294zM7.461 10.066c-0.54-0.647 0.239-1.564 0.967-1.13l5.024 3.015c0.49 0.295 0.49 0.999 0 1.294l-5.024 3.015c-0.722 0.427-1.507-0.477-0.967-1.13l2.11-2.531-2.11-2.531zM15.576 17.621c3.26 0 7.242 2.751 7.738 6.701 0.107 0.854-0.503 1.545-1.112 1.281-1.627-0.697-4.045-1.093-6.626-1.093s-4.999 0.396-6.626 1.093c-0.615 0.264-1.218-0.44-1.112-1.281 0.496-3.95 4.478-6.701 7.738-6.701z"></path>
</svg>
