<!-- Generated by IcoMoon.io -->
<svg version="1.1" xmlns="http://www.w3.org/2000/svg" width="32" height="32" viewBox="0 0 32 32">
<title>tmp-icon-file-format</title>
<path d="M27.737 7.239c-0.002-0.147-0.049-0.293-0.15-0.408l-6.2-7.082c-0.001-0.002-0.003-0.003-0.005-0.004-0.037-0.041-0.079-0.075-0.125-0.105-0.013-0.009-0.027-0.017-0.041-0.025-0.040-0.021-0.081-0.039-0.124-0.052-0.012-0.003-0.022-0.008-0.034-0.011-0.047-0.011-0.095-0.018-0.145-0.018h-15.238c-0.695 0-1.261 0.566-1.261 1.261v29.635c0 0.695 0.566 1.261 1.261 1.261h20.807c0.696 0 1.261-0.566 1.261-1.261v-23.119c0-0.024-0.004-0.047-0.006-0.071zM11.605 24.115h-1.851v5.493h-1.539v-5.493h-1.821v-1.288h5.212v1.288h-0zM18.215 29.608l-0.1-2.596c-0.030-0.815-0.061-1.801-0.061-2.787h-0.030c-0.211 0.865-0.492 1.831-0.755 2.626l-0.825 2.646h-1.197l-0.725-2.626c-0.222-0.795-0.453-1.761-0.614-2.646h-0.020c-0.040 0.915-0.071 1.962-0.121 2.807l-0.121 2.576h-1.419l0.433-6.781h2.043l0.664 2.263c0.211 0.785 0.423 1.631 0.573 2.425h0.030c0.191-0.784 0.422-1.68 0.644-2.435l0.725-2.254h2.002l0.372 6.781h-1.499zM25.139 26.5c-0.523 0.493-1.298 0.714-2.203 0.714-0.201 0-0.382-0.010-0.523-0.030v2.425h-1.519v-6.69c0.473-0.081 1.137-0.141 2.073-0.141 0.946 0 1.62 0.181 2.073 0.543 0.433 0.342 0.725 0.905 0.725 1.57s-0.222 1.226-0.624 1.609zM5.675 20.945v-20.151h14.607v6.452c0 0.348 0.282 0.631 0.631 0.631h5.569l0.001 13.068h-20.808zM23.047 23.934c-0.312 0-0.523 0.030-0.634 0.060v2.003c0.131 0.030 0.292 0.040 0.514 0.040 0.814 0 1.318-0.412 1.318-1.107 0-0.623-0.433-0.996-1.197-0.996zM20.8 8.506c-0.001-0.060-0.020-0.119-0.060-0.165l-2.512-2.869c0-0-0.001-0.001-0.002-0.002-0.015-0.017-0.032-0.030-0.050-0.042-0.006-0.004-0.011-0.007-0.017-0.010-0.017-0.008-0.033-0.016-0.051-0.021-0.005-0.002-0.009-0.004-0.013-0.005-0.019-0.004-0.039-0.007-0.059-0.007h-6.171c-0.281 0-0.511 0.229-0.511 0.511v12.001c0 0.282 0.229 0.511 0.511 0.511h8.427c0.282 0 0.511-0.229 0.511-0.511v-9.363c0-0.010-0.002-0.019-0.002-0.029zM11.865 17.823v-11.927h5.916v2.613c0 0.141 0.114 0.255 0.255 0.255h2.256v9.059h-8.427z"></path>
</svg>
