<!-- Generated by IcoMoon.io -->
<svg version="1.1" xmlns="http://www.w3.org/2000/svg" width="32" height="32" viewBox="0 0 32 32">
<title>toggle-full-screen</title>
<path d="M0.697 3.997c-0.185 0-0.362 0.074-0.493 0.204s-0.204 0.308-0.204 0.493v12.034c0.204-0.117 0.444-0.185 0.697-0.185h0.697v-11.152h29.275v23.698h-11.152v0.697c0 0.253-0.068 0.493-0.185 0.697h12.034c0.185 0 0.362-0.073 0.493-0.204s0.204-0.308 0.204-0.493v-25.092c0-0.185-0.073-0.362-0.204-0.493s-0.308-0.204-0.493-0.204zM23.698 7.482c-0.25-0.003-0.485 0.128-0.613 0.346-0.125 0.218-0.125 0.485 0 0.702 0.128 0.218 0.362 0.348 0.613 0.346h2.499l-7.174 7.174c-0.182 0.174-0.256 0.436-0.191 0.678 0.063 0.245 0.253 0.436 0.498 0.498 0.242 0.065 0.504-0.008 0.678-0.191l7.174-7.174v2.499c-0.003 0.251 0.128 0.485 0.346 0.613 0.218 0.125 0.485 0.125 0.702 0 0.218-0.128 0.349-0.362 0.346-0.613v-4.879zM0.697 17.938c-0.384 0-0.697 0.313-0.697 0.697v11.152c0 0.384 0.313 0.697 0.697 0.697h16.728c0.384 0 0.697-0.313 0.697-0.697v-11.152c0-0.384-0.313-0.697-0.697-0.697z"></path>
</svg>
