<!-- Generated by IcoMoon.io -->
<svg version="1.1" xmlns="http://www.w3.org/2000/svg" width="36" height="32" viewBox="0 0 36 32">
<title>toggle-off</title>
<path d="M24.118 3.553h-12.059c-6.66 0-12.059 5.399-12.059 12.059s5.399 12.059 12.059 12.059h12.059c6.66 0 12.059-5.399 12.059-12.059s-5.399-12.059-12.059-12.059zM4.020 15.611c0-4.443 3.596-8.039 8.039-8.039s8.039 3.596 8.039 8.039c0 4.443-3.596 8.039-8.039 8.039s-8.039-3.596-8.039-8.039zM24.118 23.651h-3.072c4.096-4.576 4.097-11.501 0-16.078h3.072c4.443 0 8.039 3.596 8.039 8.039s-3.596 8.039-8.039 8.039z"></path>
</svg>
