<!-- Generated by IcoMoon.io -->
<svg version="1.1" xmlns="http://www.w3.org/2000/svg" width="36" height="32" viewBox="0 0 36 32">
<title>toilet-paper</title>
<path d="M8.039-0.467c-3.33 0-6.029 5.399-6.029 12.059v10.807c0 2.583-0.615 3.942-1.958 7.968-0.217 0.651 0.268 1.323 0.953 1.323h17.643c0.865 0 1.633-0.553 1.907-1.374 0.806-2.417 1.552-4.547 1.552-7.917v-10.807c0-5.251 1.487-9.642 3.796-12.059h-17.865zM6.029 13.602c-0.555 0-1.005-0.45-1.005-1.005s0.45-1.005 1.005-1.005 1.005 0.45 1.005 1.005-0.45 1.005-1.005 1.005zM10.049 13.602c-0.555 0-1.005-0.45-1.005-1.005s0.45-1.005 1.005-1.005 1.005 0.45 1.005 1.005-0.45 1.005-1.005 1.005zM14.069 13.602c-0.555 0-1.005-0.45-1.005-1.005s0.45-1.005 1.005-1.005 1.005 0.45 1.005 1.005-0.45 1.005-1.005 1.005zM18.088 13.602c-0.555 0-1.005-0.45-1.005-1.005s0.45-1.005 1.005-1.005 1.005 0.45 1.005 1.005-0.45 1.005-1.005 1.005zM30.147-0.467c-3.33 0-6.029 5.399-6.029 12.059s2.699 12.059 6.029 12.059 6.029-5.399 6.029-12.059-2.699-12.059-6.029-12.059zM30.147 15.611c-1.11 0-2.010-1.799-2.010-4.020s0.9-4.020 2.010-4.020 2.010 1.799 2.010 4.020-0.9 4.020-2.010 4.020z"></path>
</svg>
