<!-- Generated by IcoMoon.io -->
<svg version="1.1" xmlns="http://www.w3.org/2000/svg" width="24" height="32" viewBox="0 0 24 32">
<title>toilet</title>
<path d="M23.113 2.548c0.553 0 1.005-0.452 1.005-1.005v-1.005c0-0.553-0.452-1.005-1.005-1.005h-22.108c-0.553 0-1.005 0.452-1.005 1.005v1.005c0 0.553 0.452 1.005 1.005 1.005h1.005v9.842c-1.269 0.634-2.010 1.394-2.010 2.217 0 4.221 2.173 7.926 5.452 10.080l-1.344 4.409c-0.396 1.288 0.572 2.594 1.922 2.594h12.059c1.35 0 2.317-1.306 1.922-2.594l-1.344-4.409c3.278-2.154 5.452-5.86 5.452-10.080 0-0.823-0.741-1.583-2.010-2.217v-9.842h1.005zM5.024 4.055c0-0.276 0.226-0.502 0.502-0.502h3.015c0.276 0 0.502 0.226 0.502 0.502v1.005c0 0.276-0.226 0.502-0.502 0.502h-3.015c-0.276 0-0.503-0.226-0.503-0.502v-1.005zM12.059 16.616c-4.842 0-8.768-0.898-8.768-2.010s3.925-2.010 8.768-2.010 8.768 0.898 8.768 2.010-3.925 2.010-8.768 2.010z"></path>
</svg>
