<!-- Generated by IcoMoon.io -->
<svg version="1.1" xmlns="http://www.w3.org/2000/svg" width="32" height="32" viewBox="0 0 32 32">
<title>tollbooth</title>
<path d="M14.279 0.188l-8.415 4.206c-0.431 0.219-0.721 0.659-0.721 1.167 0 0.721 0.584 1.305 1.305 1.305v0 22.188c-0.005-0-0.012-0-0.018-0-0.721 0-1.305 0.584-1.305 1.305s0.584 1.305 1.305 1.305c0.006 0 0.013-0 0.019-0h15.661c0.006 0 0.012 0 0.018 0 0.721 0 1.305-0.584 1.305-1.305s-0.584-1.305-1.305-1.305c-0.006 0-0.013 0-0.019 0h0.001v-5.776l2.61-1.522v-3.023l-2.61 1.524v-13.391c0.721-0 1.305-0.585 1.305-1.305 0-0.508-0.29-0.948-0.714-1.164l-0.007-0.003-8.415-4.206zM14.279 9.477c2.883 0 5.221 2.338 5.221 5.221v5.221h-10.441v-5.221c0-2.883 2.338-5.221 5.221-5.221zM35.809 12.266l-1.953 1.137v3.023l3.268-1.907-1.315-2.253zM32.552 14.165l-2.61 1.522v3.023l2.61-1.522v-3.023zM28.636 16.449l-2.61 1.522v3.023l2.61-1.522v-3.023z"></path>
</svg>
