<!-- Generated by IcoMoon.io -->
<svg version="1.1" xmlns="http://www.w3.org/2000/svg" width="32" height="32" viewBox="0 0 32 32">
<title>tools</title>
<path d="M31.472 24.385l-7.355-7.355c-1.451-1.451-3.618-1.733-5.364-0.873l-6.695-6.695v-3.9l-8.039-6.029-4.020 4.020 6.029 8.039h3.9l6.695 6.695c-0.854 1.746-0.578 3.913 0.873 5.364l7.355 7.355c0.917 0.917 2.399 0.917 3.31 0l3.31-3.31c0.911-0.917 0.911-2.399 0-3.31zM20.833 13.664c1.777 0 3.448 0.691 4.704 1.947l1.218 1.218c0.992-0.433 1.934-1.036 2.751-1.853 2.33-2.33 3.121-5.609 2.38-8.586-0.138-0.565-0.848-0.76-1.262-0.345l-4.673 4.673-4.265-0.71-0.71-4.265 4.673-4.673c0.415-0.415 0.214-1.124-0.358-1.269-2.977-0.735-6.255 0.057-8.579 2.38-1.79 1.79-2.632 4.151-2.588 6.507l5.156 5.156c0.509-0.119 1.036-0.182 1.551-0.182zM14.307 18.814l-3.561-3.561-9.572 9.578c-1.57 1.57-1.57 4.114 0 5.684s4.114 1.57 5.684 0l7.763-7.763c-0.477-1.25-0.622-2.613-0.314-3.938zM4.020 29.177c-0.829 0-1.507-0.678-1.507-1.507 0-0.835 0.672-1.507 1.507-1.507s1.507 0.672 1.507 1.507c0 0.829-0.672 1.507-1.507 1.507z"></path>
</svg>
