<!-- Generated by IcoMoon.io -->
<svg version="1.1" xmlns="http://www.w3.org/2000/svg" width="32" height="32" viewBox="0 0 32 32">
<title>toolbox</title>
<path d="M31.568 13.013l-2.842-2.842c-0.377-0.377-0.888-0.588-1.421-0.588h-3.187v-5.025c0-1.665-1.35-3.015-3.015-3.015h-10.049c-1.665 0-3.015 1.35-3.015 3.015v5.025h-3.187c-0.533 0-1.044 0.212-1.421 0.588l-2.842 2.843c-0.377 0.377-0.588 0.888-0.588 1.421v5.197h8.039v-1.005c0-0.555 0.45-1.005 1.005-1.005h2.010c0.555 0 1.005 0.45 1.005 1.005v1.005h8.039v-1.005c0-0.555 0.45-1.005 1.005-1.005h2.010c0.555 0 1.005 0.45 1.005 1.005v1.005h8.039v-5.197c0-0.533-0.212-1.044-0.588-1.421zM20.098 9.582h-8.039v-4.020h8.039v4.020zM24.118 22.646c0 0.555-0.45 1.005-1.005 1.005h-2.010c-0.555 0-1.005-0.45-1.005-1.005v-1.005h-8.039v1.005c0 0.555-0.45 1.005-1.005 1.005h-2.010c-0.555 0-1.005-0.45-1.005-1.005v-1.005h-8.039v6.029c0 1.11 0.9 2.010 2.010 2.010h28.137c1.11 0 2.010-0.9 2.010-2.010v-6.029h-8.039v1.005z"></path>
</svg>
