<!-- Generated by IcoMoon.io -->
<svg version="1.1" xmlns="http://www.w3.org/2000/svg" width="28" height="32" viewBox="0 0 28 32">
<title>tooth</title>
<path d="M27.885 5.578c-0.692-2.84-2.959-5.154-5.779-5.886-2.022-0.525-3.957 0.32-5.599 1.528-0.204 0.15-0.437 0.234-0.66 0.344l1.779 1.144c0.466 0.3 0.602 0.921 0.301 1.389-0.28 0.437-0.896 0.619-1.389 0.301l-6.313-4.059c-1.3-0.681-2.725-1.030-4.196-0.647-2.82 0.733-5.087 3.046-5.779 5.886-0.636 2.614-0.026 5.075 1.35 6.936 1.467 1.983 2.053 4.312 2.279 6.742 0.276 2.962 0.649 5.914 1.315 8.813l0.49 2.132c0.2 0.871 0.973 1.488 1.863 1.488 0.877 0 1.642-0.6 1.855-1.455l2.165-8.694c0.286-1.151 1.316-1.957 2.497-1.957s2.211 0.807 2.497 1.957l2.165 8.694c0.213 0.855 0.978 1.455 1.855 1.455 0.891 0 1.663-0.617 1.863-1.488l0.49-2.132c0.666-2.898 1.038-5.851 1.315-8.813 0.227-2.431 0.812-4.759 2.279-6.742 1.379-1.86 1.988-4.321 1.352-6.936z"></path>
</svg>
