<!-- Generated by IcoMoon.io -->
<svg version="1.1" xmlns="http://www.w3.org/2000/svg" width="28" height="32" viewBox="0 0 28 32">
<title>torah</title>
<path d="M28.137 22.043v-20.902c0-1.005-0.603-1.608-1.608-1.608h-20.5c-3.417 0-6.029 2.613-6.029 6.029v20.098c0 3.417 2.613 6.029 6.029 6.029h20.5c0.804 0 1.608-0.603 1.608-1.608v-1.005c0-0.402-0.201-0.804-0.603-1.206-0.201-1.005-0.201-3.819 0-4.622 0.402-0.201 0.603-0.603 0.603-1.206zM8.737 8.402c-0.174-0.277 0.025-0.637 0.352-0.637h3.334c0.057 0 0.109-0.029 0.139-0.077l2.16-3.439c0.163-0.259 0.541-0.259 0.704 0l2.16 3.439c0.029 0.046 0.081 0.077 0.139 0.077 0 0 0 0 0 0h3.334c0.327 0 0.526 0.36 0.352 0.637l-1.689 2.688 1.688 2.688c0.174 0.276-0.025 0.636-0.352 0.636h-3.334c-0.057 0-0.109 0.029-0.139 0.077l-2.16 3.439c-0.163 0.259-0.541 0.259-0.704 0l-2.16-3.439c-0.030-0.046-0.081-0.077-0.139-0.077-0 0-0 0-0 0h-3.334c-0.327 0-0.526-0.36-0.352-0.636l1.688-2.688-1.688-2.688zM23.917 27.67h-17.887c-1.206 0-2.010-0.804-2.010-2.010s1.005-2.010 2.010-2.010h17.887v4.020z"></path>
</svg>
