<!-- Generated by IcoMoon.io -->
<svg version="1.1" xmlns="http://www.w3.org/2000/svg" width="32" height="32" viewBox="0 0 32 32">
<title>torii-gate</title>
<path d="M23.643 1.543h-15.13c-3.103-0-6.033-0.743-8.621-2.060l0.108 0.050v6.029c0 1.11 0.9 2.010 2.010 2.010h2.010v4.020h-3.015c-0.555 0-1.005 0.45-1.005 1.005v2.010c0 0.555 0.45 1.005 1.005 1.005h3.015v15.073c0 0.555 0.45 1.005 1.005 1.005h2.010c0.555 0 1.005-0.45 1.005-1.005v-15.073h16.078v15.073c0 0.555 0.45 1.005 1.005 1.005h2.010c0.555 0 1.005-0.45 1.005-1.005v-15.073h3.015c0.555 0 1.005-0.45 1.005-1.005v-2.010c0-0.555-0.45-1.005-1.005-1.005h-3.015v-4.020h2.010c1.11 0 2.010-0.9 2.010-2.010v-6.029c-2.48 1.267-5.41 2.010-8.513 2.010h-0zM8.039 7.572h6.029v4.020h-6.029v-4.020zM24.118 11.592h-6.029v-4.020h6.029v4.020z"></path>
</svg>
