<!-- Generated by IcoMoon.io -->
<svg version="1.1" xmlns="http://www.w3.org/2000/svg" width="32" height="32" viewBox="0 0 32 32">
<title>torrent-file-format</title>
<path d="M16.298 24.949c-0.211 0-0.346 0.019-0.411 0.039v1.37h0.395c0.45 0 0.731-0.283 0.731-0.714-0-0.477-0.282-0.695-0.715-0.695zM13.216 24.949c-0.211 0-0.346 0.019-0.411 0.039v1.37h0.395c0.449 0 0.731-0.283 0.731-0.714 0-0.477-0.282-0.695-0.715-0.695zM9.859 24.949c-0.66 0-1.013 0.727-1.013 1.621 0 0.882 0.374 1.583 1.013 1.583 0.644 0 1.007-0.708 1.007-1.615-0-0.817-0.341-1.589-1.007-1.589zM27.737 7.239c-0.002-0.148-0.048-0.293-0.15-0.408l-6.201-7.082c-0.001-0.002-0.003-0.002-0.005-0.004-0.037-0.041-0.079-0.076-0.125-0.105-0.013-0.009-0.027-0.017-0.041-0.025-0.040-0.022-0.082-0.039-0.125-0.052-0.012-0.003-0.022-0.008-0.034-0.011-0.047-0.011-0.095-0.018-0.145-0.018h-15.238c-0.695 0-1.261 0.566-1.261 1.261v29.635c0 0.695 0.566 1.261 1.261 1.261h20.807c0.696 0 1.261-0.566 1.261-1.261v-23.119c-0-0.023-0.004-0.047-0.006-0.070zM5.675 0.794h14.607v6.452c0 0.349 0.282 0.631 0.631 0.631h5.569l0.001 11.265c-2.93-0.013-5.852 0.263-8.717-0.439-0.973-0.238-1.959-0.777-2.725-1.43-1.481-1.263-1.469-3.425-0.144-4.784 1.302-1.335 3.597-1.376 4.936-0.082 0.213 0.206 0.4 0.439 0.662 0.728 0.454-0.235 0.919-0.476 1.38-0.714-0.709-1.793-2.985-3.001-5.092-2.693-2.135 0.312-3.648 1.479-4.321 3.538-0.663 2.030-0.134 3.826 1.402 5.308 1.747 1.685 3.962 2.139 6.26 2.223 1.878 0.067 3.76 0.036 5.68 0.148h-7.782c-0.079-0.006-0.159-0.009-0.239-0.014-1.47-0.105-2.824-0.727-3.977-1.697-2.253-1.895-2.846-4.891-1.437-7.247 1.417-2.368 4.457-3.363 7.128-2.332 0.221 0.085 0.439 0.174 0.743 0.296 0.281-0.452 0.555-0.894 0.826-1.329-2.595-2.104-7.457-1.182-9.715 1.789-2.543 3.345-1.811 7.214 1.821 10.535h-0.744c-2.348-1.749-3.564-4.837-2.97-7.702 0.66-3.182 3.428-5.668 6.731-6.080 0.407-0.051 1.008 0.188 1.095-0.585 0.122-1.087-0.047-1.297-1.15-1.139-3.725 0.532-6.501 2.436-7.833 5.985-1.31 3.492-0.639 6.706 1.691 9.522h-4.316v-20.15zM8.055 25.045h-1.050v3.675h-0.666v-3.675h-1.039v-0.663h2.755v0.663zM9.821 28.79c-1.029 0-1.678-0.933-1.678-2.206 0-1.333 0.703-2.272 1.732-2.272 1.066 0 1.694 0.958 1.694 2.194 0 1.454-0.742 2.284-1.748 2.284zM14.040 28.72v0c-0.054-0.129-0.14-0.483-0.244-1.024-0.103-0.567-0.276-0.746-0.655-0.76h-0.335v1.783h-0.66v-4.279c0.249-0.051 0.623-0.089 1.007-0.089 0.525 0 0.882 0.103 1.125 0.348 0.2 0.199 0.314 0.502 0.314 0.868 0 0.559-0.32 0.939-0.66 1.087v0.020c0.259 0.115 0.416 0.418 0.508 0.835 0.114 0.541 0.211 1.043 0.287 1.211h-0.687zM17.121 28.72v0c-0.054-0.129-0.14-0.483-0.244-1.024-0.102-0.567-0.276-0.746-0.654-0.76h-0.335v1.783h-0.661v-4.279c0.249-0.051 0.622-0.089 1.007-0.089 0.524 0 0.882 0.103 1.126 0.348 0.2 0.199 0.313 0.502 0.313 0.868 0 0.559-0.32 0.939-0.66 1.087v0.020c0.26 0.115 0.417 0.418 0.508 0.835 0.113 0.541 0.211 1.043 0.287 1.211h-0.687zM20.511 28.719h-2.203v-4.337h2.122v0.65h-1.456v1.12h1.375v0.643h-1.375v1.274h1.538v0.65zM23.988 28.719v0h-0.687l-0.952-1.905c-0.233-0.477-0.477-1.010-0.655-1.5l-0.017 0.007c0.027 0.56 0.033 1.132 0.033 1.845v1.552h-0.611v-4.337h0.758l0.942 1.86c0.244 0.481 0.454 0.983 0.622 1.453h0.011c-0.044-0.579-0.059-1.139-0.059-1.801v-1.513h0.617v4.338h-0.001zM26.123 25.045v3.675h-0.666v-3.675h-1.040v-0.663h2.755v0.663h-1.049z"></path>
</svg>
