<!-- Generated by IcoMoon.io -->
<svg version="1.1" xmlns="http://www.w3.org/2000/svg" width="40" height="32" viewBox="0 0 40 32">
<title>tractor</title>
<path d="M33.162 20.636c-3.052 0-5.527 2.475-5.527 5.527s2.475 5.527 5.527 5.527 5.527-2.475 5.527-5.527-2.475-5.527-5.527-5.527zM33.162 27.67c-0.831 0-1.507-0.676-1.507-1.507s0.676-1.507 1.507-1.507 1.507 0.676 1.507 1.507-0.676 1.507-1.507 1.507zM38.186 9.582h-4.020v-2.525c0-0.887 0.295-1.743 0.826-2.439 0.278-0.364 0.223-0.883-0.083-1.224l-1.358-1.518c-0.418-0.468-1.151-0.435-1.551 0.049-1.188 1.433-1.853 3.249-1.853 5.133v2.525h-6.427l-3.523-8.219c-0.471-1.085-1.533-1.83-2.769-1.83-0.001 0-0.002 0-0.003 0h-8.381c-1.662 0-3.015 1.352-3.015 3.015v9.202c-0.542-0.423-1.316-0.406-1.814 0.092l-1.954 1.954c-0.54 0.54-0.54 1.414 0 1.954l0.318 0.318c-0.313 0.582-0.563 1.182-0.748 1.804h-0.449c-0.763 0-1.382 0.619-1.382 1.382v2.763c0 0.763 0.619 1.382 1.382 1.382h0.448c0.186 0.622 0.435 1.222 0.748 1.804l-0.318 0.318c-0.54 0.54-0.54 1.414 0 1.954l1.954 1.954c0.54 0.54 1.414 0.54 1.954 0l0.318-0.318c0.582 0.313 1.182 0.563 1.804 0.748v0.449c0 0.763 0.619 1.382 1.382 1.382h2.763c0.763 0 1.382-0.619 1.382-1.382v-0.448c0.622-0.185 1.222-0.435 1.804-0.748l0.318 0.318c0.54 0.54 1.414 0.54 1.954 0l1.954-1.954c0.54-0.54 0.54-1.414 0-1.954l-0.318-0.318c0.313-0.582 0.563-1.182 0.748-1.804h0.45c0.763 0 1.382-0.619 1.382-1.382v-0.377h5.058c1.376-1.821 3.537-3.015 5.995-3.015 1.171 0 2.265 0.29 3.253 0.766l3.192-3.192c0.377-0.377 0.588-0.888 0.588-1.421v-3.188c0.001-1.11-0.899-2.010-2.009-2.010zM11.054 25.66c-2.775 0-5.024-2.25-5.024-5.024s2.25-5.024 5.024-5.024 5.025 2.25 5.025 5.024-2.25 5.024-5.024 5.024zM12.436 9.582h-2.387v-6.029h6.713l2.584 6.029h-6.911z"></path>
</svg>
