<!-- Generated by IcoMoon.io -->
<svg version="1.1" xmlns="http://www.w3.org/2000/svg" width="31" height="32" viewBox="0 0 31 32">
<title>trade-federation</title>
<path d="M12.715 6.342v5.126h-10.269l3.029 3.888h7.206v12.357h4.058v-12.293h5.23v-3.937h-5.224v-1.204h9.146v-3.937h-13.174zM13.020 6.719h12.421v3.183h-9.147v1.943h5.224v3.199h-5.229v12.293h-3.312v-12.357h-7.334l-2.509-3.135h9.886v-5.126zM15.575 0.086c-8.602 0-15.575 6.973-15.575 15.576s6.973 15.576 15.575 15.576 15.577-6.974 15.577-15.576-6.974-15.576-15.577-15.576zM15.577 0.917c8.143 0 14.744 6.602 14.744 14.746s-6.601 14.744-14.744 14.744-14.746-6.602-14.746-14.745 6.602-14.745 14.746-14.745zM15.577 1.413c-7.87 0-14.25 6.379-14.25 14.249s6.38 14.25 14.25 14.25 14.249-6.38 14.249-14.25-6.379-14.249-14.249-14.249zM15.575 2.248c7.408 0 13.413 6.005 13.413 13.413s-6.006 13.413-13.413 13.413-13.413-6.004-13.413-13.412 6.005-13.414 13.413-13.414zM10.97 8.83l0.984 1.134-1.392-0.594-0.774 1.286 0.135-1.507-1.462-0.339 1.475-0.337-0.129-1.495 0.777 1.298 1.382-0.585-0.995 1.14zM8.010 5.907l0.503 0.779 0.797-0.368-0.585 0.719 0.597 0.644-0.865-0.334-0.428 0.766 0.051-0.926-0.861-0.17 0.896-0.237-0.104-0.872zM23.76 10.655l0.753 1.228 1.311-0.572-0.936 1.096 0.949 1.070-1.331-0.551-0.725 1.233 0.113-1.436-1.397-0.308 1.401-0.337-0.139-1.424zM17.036 16.838l0.87-0.202-0.080-0.89 0.462 0.765 0.822-0.351-0.585 0.675 0.588 0.673-0.823-0.348-0.458 0.767 0.077-0.89-0.872-0.198zM9.158 17.246l1.49-0.243-0.109-1.541 0.692 1.343 1.431-0.579-1.063 1.073 0.993 1.183-1.348-0.68-0.818 1.31 0.23-1.493-1.498-0.373zM13.143 6.842v5.126h-9.741l2.306 2.89h7.392v12.357h3.066v-12.293h5.23v-2.954h-5.23v-2.188h9.153v-2.938h-12.176zM13.825 7.545h10.79v1.53h-9.109v3.532h5.209v1.504h-5.209v12.399h-1.681v-12.399h-7.776l-1.262-1.504h9.038v-5.062z"></path>
</svg>
