<!-- Generated by IcoMoon.io -->
<svg version="1.1" xmlns="http://www.w3.org/2000/svg" width="40" height="32" viewBox="0 0 40 32">
<title>trademark</title>
<path d="M6.1 9.779h-5.346c-0.416 0-0.754-0.338-0.754-0.754v-2.709c0-0.416 0.338-0.754 0.754-0.754h15.611c0.416 0 0.754 0.338 0.754 0.754v2.709c0 0.416-0.338 0.754-0.754 0.754h-5.346v15.128c0 0.416-0.338 0.754-0.754 0.754h-3.412c-0.416 0-0.754-0.338-0.754-0.754v-15.128zM20.715 5.562h4.109c0.328 0 0.608 0.21 0.711 0.503l0.002 0.005 2.748 7.981c0.45 1.293 1.012 3.317 1.012 3.317h0.056s0.562-2.024 1.012-3.317l2.748-7.981c0.105-0.298 0.384-0.508 0.713-0.508h4.108c0 0 0 0 0 0 0.395 0 0.719 0.303 0.751 0.69l0 0.003 1.508 18.591c0.036 0.439-0.311 0.815-0.751 0.815h-3.398c-0.398 0-0.724-0.309-0.752-0.7l-0-0.002-0.57-8.349c-0.112-1.518 0-3.373 0-3.373h-0.056s-0.675 2.108-1.124 3.373l-1.928 5.322c-0.108 0.292-0.384 0.497-0.709 0.497h-3.159c-0.324 0-0.601-0.205-0.707-0.492l-0.002-0.005-1.928-5.322c-0.45-1.265-1.124-3.373-1.124-3.373h-0.056s0.112 1.855 0 3.373l-0.57 8.349c-0.027 0.395-0.355 0.702-0.752 0.702h-3.425c-0.441 0-0.787-0.377-0.751-0.816l1.534-18.591c0.033-0.389 0.357-0.692 0.751-0.692 0 0 0 0 0 0v0z"></path>
</svg>
