<!-- Generated by IcoMoon.io -->
<svg version="1.1" xmlns="http://www.w3.org/2000/svg" width="32" height="32" viewBox="0 0 32 32">
<title>traffic-jam</title>
<path d="M22.638 2.063c-1.745 0-2.896 0.137-3.63 0.27-0.679 0.124-0.985 0.246-1.037 0.27-0.005 0.003-0.083 0.021-0.083 0.021-0.729 0.249-1.859 0.599-2.406 1.68-0.148 0.293-0.36 0.848-0.664 1.639-0.223 0.583-0.49 1.289-0.747 1.971-0.028-0.010-0.062-0.016-0.083-0.021v0.021c-0.065-0.029-0.332-0.148-0.996-0.27-0.734-0.132-1.885-0.27-3.63-0.27s-2.896 0.137-3.63 0.27c-0.679 0.124-0.985 0.246-1.037 0.27-0.005 0.003-0.083 0.021-0.083 0.021-0.729 0.249-1.859 0.599-2.406 1.68-0.137 0.27-0.329 0.747-0.602 1.452-0.171 0.443-0.384 1.001-0.581 1.535h-0.021c-0.047 0.124-0.189 0.415-0.27 0.788-0.016 0.044-0.026 0.080-0.041 0.124-0.64 1.711-1.245 3.34-1.245 3.34l-0.041 0.104v6.348c0 0.726 0.602 1.328 1.328 1.328h2.655c0.726 0 1.328-0.602 1.328-1.328v-0.664h5.311v5.974c0 0.726 0.602 1.328 1.328 1.328h2.655c0.726 0 1.328-0.602 1.328-1.328v-0.664h9.293v0.664c0 0.726 0.602 1.328 1.328 1.328h2.655c0.726 0 1.328-0.602 1.328-1.328v-6.348l-0.041-0.104c0 0-0.519-1.418-1.058-2.842h2.427c0.726 0 1.328-0.602 1.328-1.328v-6.348l-0.041-0.104c0 0-0.583-1.571-1.224-3.257-0.117-0.309-0.174-0.42-0.29-0.726-0.047-0.112-0.083-0.197-0.104-0.249-0.477-1.242-0.991-2.611-1.162-3.008-0.503-1.167-1.74-1.491-2.406-1.68-0.029-0.008-0.078-0.034-0.104-0.042v0.021c-0.065-0.029-0.332-0.148-0.996-0.27-0.734-0.132-1.885-0.27-3.63-0.27zM22.638 3.391c1.68 0 2.743 0.111 3.381 0.228s0.788 0.207 0.788 0.207l0.041 0.021 0.062 0.021c0.589 0.171 1.486 0.573 1.66 0.975 0.127 0.296 0.648 1.688 1.12 2.925 0.127 0.332 0.301 0.832 0.249 1.079-0.026 0.122-0.044 0.184-0.228 0.29s-0.565 0.228-1.245 0.228h-12.114c-0.267-0.451-0.64-0.762-1.037-0.975 0.259-0.682 0.524-1.39 0.747-1.971 0.301-0.783 0.573-1.457 0.602-1.514 0.231-0.456 1.027-0.809 1.742-1.058h0.041l0.021-0.021c0 0 0.15-0.091 0.788-0.207s1.701-0.228 3.381-0.228zM9.362 8.701c1.68 0 2.743 0.111 3.381 0.228s0.788 0.207 0.788 0.207l0.041 0.021 0.062 0.021c0.589 0.171 1.486 0.573 1.659 0.975 0.127 0.293 0.615 1.582 1.079 2.8-0.005 0-0.016 0-0.021 0-0.679 0.124-0.985 0.246-1.037 0.27-0.005 0.003-0.083 0.021-0.083 0.021-0.669 0.228-1.678 0.545-2.261 1.431h-9.439c-0.677 0-1.074-0.119-1.265-0.228s-0.22-0.184-0.249-0.311c-0.028-0.127-0.008-0.303 0.042-0.498 0.275-0.739 0.555-1.494 0.788-2.095 0.27-0.697 0.513-1.276 0.539-1.328 0.231-0.456 1.027-0.809 1.743-1.058h0.042l0.021-0.021c0 0 0.15-0.091 0.788-0.207s1.701-0.228 3.381-0.228zM30.604 10.133c0.259 0.69 0.643 1.709 0.664 1.763v3.838c0 0.145-0.117 0.27-0.27 0.27h-3.464c-0.132-0.342-0.353-0.936-0.415-1.079-0.080-0.187-0.2-0.332-0.311-0.477 0.27 0.153 0.589 0.228 0.913 0.228 0.36 0 0.679-0.041 0.954-0.145s0.5-0.236 0.809-0.394c0.226-0.114 0.451-0.233 0.685-0.456s0.436-0.607 0.436-0.996c0-0.765-0.679-1.328-1.411-1.328h-1.473c-0.933 0-1.763 0.71-1.763 1.659 0 0.322 0.109 0.602 0.27 0.851-0.524-0.353-1.12-0.511-1.514-0.622-0.029-0.008-0.078-0.034-0.104-0.041v0.021c-0.065-0.028-0.332-0.148-0.996-0.27-0.734-0.132-1.885-0.27-3.63-0.27-0.905 0-1.649 0.028-2.261 0.083-0.342-0.897-0.573-1.478-0.809-2.074h11.554c0.822 0 1.431-0.117 1.908-0.394 0.080-0.047 0.158-0.109 0.228-0.166zM27.72 12.684h1.473c0.031 0 0.049 0.016 0.062 0.021-0.041 0.041-0.184 0.15-0.373 0.249-0.008 0.003-0.013-0.005-0.021 0-0.316 0.161-0.513 0.283-0.643 0.332-0.135 0.049-0.241 0.062-0.498 0.062-0.288 0-0.436-0.181-0.436-0.332s0.148-0.332 0.436-0.332zM19.983 14.012c1.68 0 2.743 0.111 3.381 0.228s0.788 0.207 0.788 0.207l0.041 0.021 0.062 0.021c0.589 0.171 1.486 0.573 1.66 0.975 0.127 0.296 0.648 1.688 1.12 2.925 0.127 0.332 0.301 0.832 0.249 1.079-0.026 0.122-0.044 0.184-0.228 0.29s-0.565 0.228-1.245 0.228h-11.658c-0.677 0-1.073-0.119-1.265-0.228s-0.22-0.184-0.249-0.311c-0.028-0.127-0.008-0.303 0.041-0.498 0.275-0.739 0.555-1.494 0.788-2.095 0.27-0.698 0.513-1.276 0.539-1.328 0.231-0.456 1.027-0.809 1.742-1.058h0.041l0.021-0.021c0 0 0.15-0.091 0.788-0.207s1.701-0.228 3.381-0.228zM1.396 15.443c0.073 0.057 0.145 0.117 0.228 0.166 0.48 0.275 1.086 0.394 1.908 0.394h8.837c-0.049 0.127-0.088 0.226-0.145 0.373-0.171 0.443-0.384 1.001-0.581 1.535h-0.021c-0.047 0.124-0.189 0.415-0.27 0.788-0.016 0.044-0.026 0.080-0.041 0.124-0.477 1.276-0.731 1.947-0.934 2.489h-9.376c-0.153 0-0.27-0.122-0.27-0.27v-3.838c0.021-0.052 0.41-1.081 0.664-1.763zM2.807 16.667c-0.731 0-1.411 0.563-1.411 1.328 0 0.389 0.202 0.773 0.436 0.996s0.459 0.342 0.685 0.456c0.309 0.158 0.534 0.29 0.809 0.394s0.594 0.145 0.954 0.145c0.933 0 1.763-0.71 1.763-1.66s-0.83-1.66-1.763-1.66zM31.268 17.289v0.705h-2.655v-0.664h2.386c0.093 0 0.179-0.026 0.27-0.041zM2.807 17.995h1.473c0.288 0 0.436 0.181 0.436 0.332s-0.148 0.332-0.436 0.332c-0.257 0-0.363-0.013-0.498-0.062-0.13-0.049-0.327-0.171-0.643-0.332-0.008-0.005-0.013 0.005-0.021 0-0.189-0.099-0.332-0.187-0.373-0.228-0.026-0.026-0.023-0.021-0.021-0.021 0.010-0.005 0.042-0.021 0.083-0.021zM12.017 20.753c0.073 0.057 0.145 0.117 0.228 0.166 0.48 0.275 1.087 0.394 1.908 0.394h11.658c0.822 0 1.431-0.117 1.908-0.394 0.080-0.047 0.158-0.109 0.228-0.166 0.259 0.69 0.643 1.709 0.664 1.763v3.838c0 0.145-0.117 0.27-0.27 0.27h-16.72c-0.153 0-0.27-0.122-0.27-0.27v-3.838c0.021-0.052 0.41-1.081 0.664-1.763zM13.428 21.977c-0.729 0-1.411 0.563-1.411 1.328 0 0.389 0.202 0.773 0.436 0.996s0.459 0.342 0.685 0.456c0.309 0.158 0.534 0.29 0.809 0.394s0.594 0.145 0.954 0.145c0.934 0 1.763-0.71 1.763-1.66s-0.83-1.66-1.763-1.66zM25.065 21.977c-0.933 0-1.763 0.71-1.763 1.66s0.83 1.66 1.763 1.66c0.36 0 0.679-0.041 0.954-0.145s0.5-0.236 0.809-0.394c0.226-0.114 0.451-0.233 0.685-0.456s0.436-0.607 0.436-0.996c0-0.765-0.682-1.328-1.411-1.328zM0.732 22.6c0.091 0.016 0.176 0.041 0.27 0.041h2.386v0.664h-2.655zM13.428 23.305h1.473c0.288 0 0.436 0.181 0.436 0.332s-0.148 0.332-0.436 0.332c-0.257 0-0.363-0.013-0.498-0.062-0.13-0.049-0.327-0.171-0.643-0.332-0.008-0.005-0.013 0.005-0.021 0-0.189-0.099-0.332-0.187-0.373-0.228-0.026-0.026-0.023-0.021-0.021-0.021 0.010-0.003 0.041-0.021 0.083-0.021zM25.065 23.305h1.473c0.031 0 0.049 0.016 0.062 0.021-0.041 0.041-0.184 0.15-0.373 0.249-0.008 0.003-0.013-0.005-0.021 0-0.316 0.161-0.513 0.283-0.643 0.332-0.135 0.049-0.241 0.062-0.498 0.062-0.288 0-0.436-0.181-0.436-0.332s0.148-0.332 0.436-0.332zM11.353 27.91c0.091 0.016 0.176 0.041 0.27 0.041h2.386v0.664h-2.655zM28.612 27.91v0.705h-2.655v-0.664h2.386c0.093 0 0.179-0.026 0.27-0.041z"></path>
</svg>
