<!-- Generated by IcoMoon.io -->
<svg version="1.1" xmlns="http://www.w3.org/2000/svg" width="32" height="32" viewBox="0 0 32 32">
<title>tram</title>
<path d="M18.088 3.553c1.112 0 2.010-0.898 2.010-2.010s-0.898-2.010-2.010-2.010-2.010 0.898-2.010 2.010 0.898 2.010 2.010 2.010zM32.125 2.793c-0.145-0.54-0.691-0.854-1.231-0.71l-30.147 8.039c-0.534 0.145-0.854 0.691-0.71 1.231 0.119 0.446 0.521 0.741 0.967 0.741 0.088 0 0.176-0.012 0.258-0.031l13.811-3.687v5.225h-11.054c-1.112 0-2.010 0.898-2.010 2.010v14.069c0 1.112 0.898 2.010 2.010 2.010h24.118c1.112 0 2.010-0.898 2.010-2.010v-14.069c0-1.112-0.898-2.010-2.010-2.010h-11.054v-5.759l14.326-3.819c0.54-0.144 0.854-0.697 0.716-1.231zM11.054 23.651h-6.029v-6.029h6.029v6.029zM21.103 17.621h6.029v6.029h-6.029v-6.029zM19.093 17.621v6.029h-6.029v-6.029h6.029zM12.059 5.562c1.112 0 2.010-0.898 2.010-2.010s-0.898-2.010-2.010-2.010-2.010 0.898-2.010 2.010 0.898 2.010 2.010 2.010z"></path>
</svg>
