<!-- Generated by IcoMoon.io -->
<svg version="1.1" xmlns="http://www.w3.org/2000/svg" width="30" height="32" viewBox="0 0 30 32">
<title>transgender-alt</title>
<path d="M29.393-0.467h-4.962c-0.672 0-1.005 0.81-0.534 1.288l1.061 1.061-5.068 5.068c-1.394-0.879-3.046-1.388-4.817-1.388s-3.423 0.509-4.817 1.388l-1.036-1.036 1.244-1.244c0.295-0.295 0.295-0.772 0-1.068l-1.777-1.777c-0.295-0.295-0.772-0.295-1.068 0l-1.244 1.244-1.193-1.193 1.061-1.061c0.484-0.471 0.144-1.281-0.527-1.281h-4.962c-0.415 0-0.754 0.339-0.754 0.754v4.962c0 0.672 0.81 1.005 1.288 0.534l1.061-1.061 1.193 1.193-1.244 1.244c-0.295 0.295-0.295 0.772 0 1.068l1.777 1.777c0.295 0.295 0.772 0.295 1.068 0l1.244-1.244 1.036 1.036c-0.886 1.388-1.394 3.040-1.394 4.811 0 4.302 3.008 7.907 7.034 8.818v1.733h-2.261c-0.415 0-0.754 0.339-0.754 0.754v2.512c0 0.415 0.339 0.754 0.754 0.754h2.261v1.759c0 0.415 0.339 0.754 0.754 0.754h2.512c0.415 0 0.754-0.339 0.754-0.754v-1.759h2.261c0.415 0 0.754-0.339 0.754-0.754v-2.512c0-0.415-0.339-0.754-0.754-0.754h-2.261v-1.733c4.026-0.917 7.034-4.516 7.034-8.818 0-1.771-0.509-3.423-1.388-4.817l5.068-5.068 1.061 1.061c0.477 0.477 1.288 0.138 1.288-0.534v-4.962c0-0.415-0.339-0.754-0.754-0.754zM15.073 19.631c-2.77 0-5.024-2.255-5.024-5.024s2.255-5.024 5.024-5.024 5.024 2.255 5.024 5.024-2.255 5.024-5.024 5.024z"></path>
</svg>
