<!-- Generated by IcoMoon.io -->
<svg version="1.1" xmlns="http://www.w3.org/2000/svg" width="24" height="32" viewBox="0 0 24 32">
<title>transgender</title>
<path d="M23.364-0.467h-4.962c-0.672 0-1.005 0.81-0.534 1.288l1.061 1.061-5.068 5.068c-1.394-0.879-3.046-1.388-4.817-1.388-4.993 0-9.044 4.051-9.044 9.044 0 4.302 3.008 7.907 7.034 8.818v1.733h-2.261c-0.415 0-0.754 0.339-0.754 0.754v2.512c0 0.415 0.339 0.754 0.754 0.754h2.261v1.759c0 0.415 0.339 0.754 0.754 0.754h2.512c0.415 0 0.754-0.339 0.754-0.754v-1.759h2.261c0.415 0 0.754-0.339 0.754-0.754v-2.512c0-0.415-0.339-0.754-0.754-0.754h-2.261v-1.733c4.026-0.917 7.034-4.516 7.034-8.818 0-1.771-0.509-3.423-1.388-4.817l5.068-5.068 1.061 1.061c0.477 0.477 1.288 0.138 1.288-0.534v-4.962c0-0.415-0.339-0.754-0.754-0.754zM9.044 19.631c-2.77 0-5.024-2.255-5.024-5.024s2.255-5.024 5.024-5.024 5.024 2.255 5.024 5.024-2.255 5.024-5.024 5.024z"></path>
</svg>
