<!-- Generated by IcoMoon.io -->
<svg version="1.1" xmlns="http://www.w3.org/2000/svg" width="28" height="32" viewBox="0 0 28 32">
<title>trash-alt1</title>
<path d="M0 4.809v-1.759c0-0.835 0.672-1.507 1.507-1.507h7.034l0.59-1.175c0.251-0.515 0.773-0.835 1.344-0.835h7.179c0.572 0 1.093 0.32 1.35 0.835l0.59 1.175h7.034c0.835 0 1.507 0.672 1.507 1.507v1.759c0 0.415-0.339 0.754-0.754 0.754h-26.63c-0.415 0-0.754-0.339-0.754-0.754zM26.127 8.326v20.349c0 1.664-1.35 3.015-3.015 3.015h-18.088c-1.664 0-3.015-1.35-3.015-3.015v-20.349c0-0.415 0.339-0.754 0.754-0.754h22.61c0.415 0 0.754 0.339 0.754 0.754zM9.044 12.597c0-0.553-0.452-1.005-1.005-1.005s-1.005 0.452-1.005 1.005v14.069c0 0.553 0.452 1.005 1.005 1.005s1.005-0.452 1.005-1.005v-14.069zM15.073 12.597c0-0.553-0.452-1.005-1.005-1.005s-1.005 0.452-1.005 1.005v14.069c0 0.553 0.452 1.005 1.005 1.005s1.005-0.452 1.005-1.005v-14.069zM21.103 12.597c0-0.553-0.452-1.005-1.005-1.005s-1.005 0.452-1.005 1.005v14.069c0 0.553 0.452 1.005 1.005 1.005s1.005-0.452 1.005-1.005v-14.069z"></path>
</svg>
