<!-- Generated by IcoMoon.io -->
<svg version="1.1" xmlns="http://www.w3.org/2000/svg" width="28" height="32" viewBox="0 0 28 32">
<title>trash-alt</title>
<path d="M12.059 11.341v13.566c0 0.416-0.338 0.754-0.754 0.754h-1.507c-0.416 0-0.754-0.338-0.754-0.754v-13.566c0-0.416 0.338-0.754 0.754-0.754h1.507c0.416 0 0.754 0.338 0.754 0.754zM18.339 10.587h-1.507c-0.416 0-0.754 0.338-0.754 0.754v13.566c0 0.416 0.338 0.754 0.754 0.754h1.507c0.416 0 0.754-0.338 0.754-0.754v-13.566c0-0.416-0.338-0.754-0.754-0.754zM26.63 4.557c0.832 0 1.507 0.675 1.507 1.507v0.754c0 0.416-0.338 0.754-0.754 0.754h-1.256v21.103c0 1.665-1.35 3.015-3.015 3.015h-18.088c-1.665 0-3.015-1.35-3.015-3.015v-21.103h-1.256c-0.416 0-0.754-0.338-0.754-0.754v-0.754c0-0.832 0.675-1.507 1.507-1.507h4.673l2.137-3.561c0.536-0.883 1.493-1.464 2.585-1.464 0 0 0 0 0 0h6.332c0 0 0 0 0 0 1.092 0 2.049 0.581 2.578 1.45l0.008 0.013 2.137 3.561h4.673zM9.697 4.557h8.744l-1.096-1.827c-0.067-0.11-0.187-0.183-0.323-0.183 0 0 0 0 0 0h-5.906c0 0 0 0 0 0-0.136 0-0.256 0.073-0.322 0.181l-0.001 0.002-1.096 1.827zM23.113 7.572h-18.088v20.726c0 0.208 0.169 0.377 0.377 0.377v0h17.334c0.208 0 0.377-0.169 0.377-0.377v0-20.726z"></path>
</svg>
