<!-- Generated by IcoMoon.io -->
<svg version="1.1" xmlns="http://www.w3.org/2000/svg" width="28" height="32" viewBox="0 0 28 32">
<title>trash</title>
<path d="M0 4.809v-1.759c0-0.835 0.672-1.507 1.507-1.507h7.034l0.59-1.175c0.251-0.515 0.773-0.835 1.344-0.835h7.179c0.572 0 1.093 0.32 1.35 0.835l0.59 1.175h7.034c0.835 0 1.507 0.672 1.507 1.507v1.759c0 0.415-0.339 0.754-0.754 0.754h-26.63c-0.415 0-0.754-0.339-0.754-0.754zM26.077 8.37l-1.281 20.494c-0.1 1.589-1.419 2.826-3.008 2.826h-15.438c-1.589 0-2.908-1.237-3.008-2.826l-1.281-20.494c-0.025-0.433 0.32-0.798 0.754-0.798h22.516c0.427 0 0.773 0.364 0.747 0.798z"></path>
</svg>
