<!-- Generated by IcoMoon.io -->
<svg version="1.1" xmlns="http://www.w3.org/2000/svg" width="24" height="32" viewBox="0 0 24 32">
<title>tree</title>
<path d="M23.76 23.304l-5.018-5.683h1.924c0.566 0 1.066-0.314 1.305-0.82 0.239-0.505 0.16-1.084-0.206-1.51l-4.907-5.708h1.814c0.572 0 1.087-0.336 1.31-0.855 0.221-0.511 0.117-1.105-0.266-1.512l-6.926-7.378c-0.379-0.405-1.085-0.405-1.465 0l-6.926 7.378c-0.383 0.408-0.487 1.002-0.266 1.512 0.224 0.519 0.739 0.855 1.311 0.855h1.814l-4.908 5.71c-0.365 0.426-0.443 1.004-0.205 1.51s0.739 0.82 1.305 0.82h1.924l-5.018 5.683c-0.377 0.426-0.462 1.011-0.224 1.524 0.235 0.506 0.754 0.832 1.32 0.832h8.596v1.536l-1.902 3.040c-0.334 0.668 0.152 1.455 0.899 1.455h6.027c0.747 0 1.233-0.786 0.899-1.455l-1.902-3.040v-1.536h8.596c0.566 0 1.084-0.327 1.32-0.832 0.239-0.513 0.153-1.097-0.224-1.524z"></path>
</svg>
