<!-- Generated by IcoMoon.io -->
<svg version="1.1" xmlns="http://www.w3.org/2000/svg" width="28" height="32" viewBox="0 0 28 32">
<title>trello</title>
<path d="M24.639 1.543h-21.115c-1.947 0-3.523 1.576-3.523 3.517-0.006 0 0-0.251 0 21.103 0 1.941 1.576 3.517 3.517 3.517h21.115c1.934-0.012 3.498-1.583 3.498-3.517v-21.103c0.006-1.934-1.558-3.505-3.492-3.517zM12.373 22.853c-0.012 0.923-0.76 1.671-1.69 1.671h-5.194c-0.93 0.006-1.69-0.741-1.696-1.671v-15.965c0-0.93 0.754-1.69 1.69-1.69h5.207c0.93 0 1.69 0.754 1.69 1.69v15.965zM24.501 15.819c0 0.93-0.754 1.69-1.69 1.69h-5.087c-0.93 0-1.69-0.754-1.69-1.69v-8.925c0-0.93 0.754-1.69 1.683-1.69h5.094c0.93 0 1.69 0.754 1.69 1.69v8.925z"></path>
</svg>
