<!-- Generated by IcoMoon.io -->
<svg version="1.1" xmlns="http://www.w3.org/2000/svg" width="36" height="32" viewBox="0 0 36 32">
<title>tripadvisor</title>
<path d="M10.451 17.151c0 0.831-0.674 1.505-1.505 1.505s-1.505-0.674-1.505-1.505 0.674-1.505 1.505-1.505 1.505 0.674 1.505 1.505zM27.092 15.647c-0.831 0-1.505 0.674-1.505 1.505s0.674 1.505 1.505 1.505c0.831 0 1.505-0.674 1.505-1.505s-0.674-1.505-1.505-1.505zM32.706 24.408c-3.936 3.084-9.627 2.394-12.711-1.542l-1.946 2.91-1.927-2.885c-3.032 3.793-8.518 4.515-12.428 1.636-4.023-2.962-4.884-8.624-1.922-12.648-0.412-1.37-1.017-2.564-1.795-3.622l0.023 0.032 5.671-0.003c3.378-2.133 7.489-3.399 11.895-3.399 0.169 0 0.339 0.002 0.507 0.006l-0.025-0c0.117-0.002 0.254-0.003 0.392-0.003 4.328 0 8.364 1.249 11.768 3.407l-0.090-0.053 6.043 0.005c-0.763 1.034-1.372 2.239-1.76 3.538l-0.021 0.083c2.939 3.941 2.196 9.507-1.674 12.539zM16.29 17.229c-0-3.992-3.237-7.227-7.228-7.227s-7.227 3.237-7.227 7.228c0 3.992 3.237 7.227 7.228 7.227 3.989-0.005 7.222-3.237 7.227-7.226v-0.003zM18.085 16.573c0.341-4.613 4.114-8.22 8.738-8.355-2.491-1.106-5.397-1.749-8.453-1.749-0.113 0-0.227 0.001-0.34 0.003l0.017-0c-0.064-0.001-0.141-0.001-0.217-0.001-3.098 0-6.050 0.63-8.733 1.768l0.147-0.055c4.669 0.099 8.498 3.732 8.841 8.39zM33.894 14.766c-1.381-3.745-5.537-5.662-9.282-4.281s-5.662 5.537-4.281 9.282v0.002c1.384 3.744 5.539 5.658 9.284 4.278 3.744-1.382 5.66-5.537 4.279-9.282zM13.417 17.151v0.007c-0.004 2.47-2.009 4.469-4.479 4.466s-4.469-2.009-4.466-4.479c0.004-2.47 2.009-4.469 4.479-4.466 2.466 0.007 4.462 2.006 4.466 4.472zM11.877 17.151v-0.005c-0.003-1.619-1.319-2.93-2.938-2.926s-2.93 1.319-2.926 2.938c0.003 1.619 1.319 2.93 2.938 2.926 1.616-0.007 2.923-1.317 2.926-2.933zM31.562 17.151v0.003c-0.001 2.47-2.005 4.471-4.475 4.47s-4.471-2.005-4.47-4.475c0.001-2.47 2.005-4.471 4.475-4.47 2.468 0.004 4.467 2.004 4.47 4.472zM30.023 17.15c-0.001-1.619-1.314-2.932-2.933-2.931s-2.932 1.314-2.931 2.933c0.001 1.619 1.314 2.932 2.933 2.931 1.618-0.003 2.929-1.314 2.931-2.933v-0.001z"></path>
</svg>
