<!-- Generated by IcoMoon.io -->
<svg version="1.1" xmlns="http://www.w3.org/2000/svg" width="40" height="32" viewBox="0 0 40 32">
<title>truck-monster</title>
<path d="M39.191 13.602h-1.005v-4.020c0-1.11-0.9-2.010-2.010-2.010h-4.622l-5.224-6.531c-0.743-0.923-1.873-1.508-3.139-1.509h-7.112c-1.11 0-2.010 0.9-2.010 2.010v6.029h-11.054c-0.555 0-1.005 0.45-1.005 1.005v5.024h-1.005c-0.555 0-1.005 0.45-1.005 1.005v2.010c0 0.555 0.45 1.005 1.005 1.005h1.050c1.835-2.428 4.717-4.020 7.994-4.020s6.159 1.592 7.994 4.020h4.111c1.835-2.428 4.717-4.020 7.994-4.020s6.159 1.592 7.994 4.020h1.050c0.555 0 1.005-0.45 1.005-1.005v-2.010c0-0.555-0.45-1.005-1.005-1.005zM18.088 7.572v-4.020h5.102l3.216 4.020h-8.318zM37.181 21.641h-0.327c-0.138-0.46-0.318-0.897-0.543-1.312l0.23-0.23c0.392-0.392 0.392-1.029 0-1.421l-1.421-1.421c-0.392-0.392-1.029-0.392-1.421 0l-0.23 0.23c-0.374-0.206-0.808-0.391-1.263-0.53l-0.049-0.013v-0.327c0-0.555-0.45-1.005-1.005-1.005h-2.010c-0.555 0-1.005 0.45-1.005 1.005v0.327c-0.46 0.138-0.897 0.318-1.312 0.543l-0.23-0.23c-0.392-0.392-1.029-0.392-1.421 0l-1.421 1.421c-0.392 0.392-0.392 1.029 0 1.421l0.23 0.23c-0.206 0.374-0.391 0.808-0.53 1.263l-0.013 0.049h-0.327c-0.555 0-1.005 0.45-1.005 1.005v2.010c0 0.555 0.45 1.005 1.005 1.005h0.327c0.138 0.46 0.318 0.897 0.543 1.312l-0.23 0.23c-0.392 0.392-0.392 1.029 0 1.421l1.421 1.421c0.392 0.392 1.029 0.392 1.421 0l0.23-0.23c0.415 0.224 0.852 0.405 1.313 0.543v0.327c0 0.555 0.45 1.005 1.005 1.005h2.010c0.555 0 1.005-0.45 1.005-1.005v-0.327c0.46-0.138 0.897-0.318 1.313-0.543l0.23 0.23c0.392 0.392 1.029 0.392 1.421 0l1.421-1.421c0.392-0.392 0.392-1.029 0-1.421l-0.23-0.23c0.206-0.374 0.391-0.808 0.53-1.263l0.013-0.049h0.327c0.555 0 1.005-0.45 1.005-1.005v-2.010c-0.001-0.555-0.451-1.005-1.006-1.005zM30.147 26.665c-1.665 0-3.015-1.35-3.015-3.015s1.35-3.015 3.015-3.015 3.015 1.35 3.015 3.015-1.35 3.015-3.015 3.015zM17.083 21.641h-0.327c-0.138-0.46-0.318-0.897-0.543-1.312l0.23-0.23c0.392-0.392 0.392-1.029 0-1.421l-1.421-1.421c-0.393-0.392-1.029-0.392-1.421 0l-0.23 0.23c-0.374-0.206-0.808-0.391-1.263-0.53l-0.049-0.013v-0.327c0-0.555-0.45-1.005-1.005-1.005h-2.010c-0.555 0-1.005 0.45-1.005 1.005v0.327c-0.46 0.138-0.897 0.318-1.312 0.543l-0.23-0.23c-0.393-0.392-1.029-0.392-1.421 0l-1.421 1.421c-0.393 0.392-0.393 1.029 0 1.421l0.23 0.23c-0.206 0.374-0.391 0.808-0.53 1.263l-0.013 0.049h-0.327c-0.555 0-1.005 0.45-1.005 1.005v2.010c0 0.555 0.45 1.005 1.005 1.005h0.327c0.138 0.46 0.318 0.897 0.543 1.312l-0.23 0.23c-0.393 0.392-0.393 1.029 0 1.421l1.421 1.421c0.393 0.392 1.029 0.392 1.421 0l0.23-0.23c0.415 0.224 0.852 0.405 1.313 0.543v0.327c0 0.555 0.45 1.005 1.005 1.005h2.010c0.555 0 1.005-0.45 1.005-1.005v-0.327c0.46-0.138 0.897-0.318 1.313-0.543l0.23 0.23c0.393 0.392 1.029 0.392 1.421 0l1.421-1.421c0.392-0.392 0.392-1.029 0-1.421l-0.23-0.23c0.206-0.374 0.391-0.808 0.53-1.263l0.013-0.049h0.327c0.555 0 1.005-0.45 1.005-1.005v-2.010c-0.001-0.555-0.451-1.004-1.006-1.004zM10.049 26.665c-1.665 0-3.015-1.35-3.015-3.015s1.35-3.015 3.015-3.015 3.015 1.35 3.015 3.015-1.35 3.015-3.015 3.015z"></path>
</svg>
