<!-- Generated by IcoMoon.io -->
<svg version="1.1" xmlns="http://www.w3.org/2000/svg" width="40" height="32" viewBox="0 0 40 32">
<title>truck-moving</title>
<path d="M39.021 14.437l-3.674-3.674c-0.754-0.754-1.777-1.175-2.845-1.175h-2.355v-6.036c0-1.112-0.898-2.010-2.010-2.010h-26.127c-1.112 0-2.010 0.898-2.010 2.010v21.103c0 2.776 2.248 5.024 5.024 5.024 1.652 0 3.103-0.81 4.020-2.035 0.917 1.231 2.368 2.035 4.020 2.035 2.776 0 5.024-2.248 5.024-5.024 0-0.345-0.038-0.678-0.1-1.005h10.25c-0.069 0.327-0.1 0.66-0.1 1.005 0 2.776 2.248 5.024 5.024 5.024s5.025-2.248 5.025-5.024c0-0.345-0.038-0.678-0.1-1.005h1.105c0.553 0 1.005-0.452 1.005-1.005v-5.37c0-1.068-0.421-2.085-1.175-2.839zM5.024 26.665c-1.105 0-2.010-0.904-2.010-2.010s0.904-2.010 2.010-2.010 2.010 0.904 2.010 2.010-0.904 2.010-2.010 2.010zM13.064 26.665c-1.105 0-2.010-0.904-2.010-2.010s0.904-2.010 2.010-2.010 2.010 0.904 2.010 2.010-0.904 2.010-2.010 2.010zM30.147 12.597h2.355c0.27 0 0.521 0.107 0.71 0.295l2.72 2.72h-5.784v-3.015zM33.162 26.665c-1.105 0-2.010-0.904-2.010-2.010s0.904-2.010 2.010-2.010 2.010 0.904 2.010 2.010-0.904 2.010-2.010 2.010z"></path>
</svg>
