<!-- Generated by IcoMoon.io -->
<svg version="1.1" xmlns="http://www.w3.org/2000/svg" width="40" height="32" viewBox="0 0 40 32">
<title>truck-loading</title>
<path d="M3.153 23.123c0.144 0.534 0.697 0.854 1.231 0.71l13.591-3.643c0.534-0.145 0.854-0.697 0.71-1.231l-3.121-11.651c-0.145-0.534-0.697-0.854-1.231-0.71l-4.849 1.306 1.558 5.822-3.881 1.036-1.558-5.822-4.855 1.3c-0.534 0.145-0.854 0.697-0.71 1.231l3.115 11.651zM24.118-0.467c-1.112 0-2.010 0.898-2.010 2.010v20.324l-21.737 5.929c-0.27 0.075-0.427 0.352-0.352 0.615l0.791 2.908c0.075 0.27 0.352 0.427 0.615 0.352l24.727-6.745c0.151 3.756 3.216 6.764 7.009 6.764 3.888 0 7.034-3.147 7.034-7.034v-25.122h-16.078zM33.162 27.67c-1.664 0-3.015-1.35-3.015-3.015s1.35-3.015 3.015-3.015 3.015 1.35 3.015 3.015-1.35 3.015-3.015 3.015z"></path>
</svg>
