<!-- Generated by IcoMoon.io -->
<svg version="1.1" xmlns="http://www.w3.org/2000/svg" width="40" height="32" viewBox="0 0 40 32">
<title>truck-pickup</title>
<path d="M39.191 17.621h-1.005v-4.020c0-1.11-0.9-2.010-2.010-2.010h-3.015l-6.832-8.54c-0.743-0.923-1.873-1.508-3.139-1.509h-7.112c-1.11 0-2.010 0.9-2.010 2.010v8.039h-10.049c-1.11 0-2.010 0.9-2.010 2.010v4.020h-1.005c-0.555 0-1.005 0.45-1.005 1.005v2.010c0 0.555 0.45 1.005 1.005 1.005h3.116c-0.048 0.331-0.101 0.661-0.101 1.005 0 3.885 3.149 7.034 7.034 7.034s7.034-3.149 7.034-7.034c0-0.344-0.053-0.674-0.101-1.005h4.222c-0.048 0.331-0.101 0.661-0.101 1.005 0 3.885 3.149 7.034 7.034 7.034s7.034-3.149 7.034-7.034c0-0.344-0.053-0.674-0.101-1.005h3.115c0.555 0 1.005-0.45 1.005-1.005v-2.010c0-0.555-0.45-1.005-1.005-1.005zM18.088 5.562h5.102l4.823 6.029h-9.926v-6.029zM11.054 25.66c-1.662 0-3.015-1.352-3.015-3.015s1.352-3.015 3.015-3.015 3.015 1.352 3.015 3.015-1.352 3.015-3.015 3.015zM29.142 25.66c-1.663 0-3.015-1.352-3.015-3.015s1.352-3.015 3.015-3.015 3.015 1.352 3.015 3.015-1.352 3.015-3.015 3.015z"></path>
</svg>
