<!-- Generated by IcoMoon.io -->
<svg version="1.1" xmlns="http://www.w3.org/2000/svg" width="40" height="32" viewBox="0 0 40 32">
<title>tshirt</title>
<path d="M39.643 5.594l-12.228-6.061c-1.262 1.746-4.057 2.964-7.317 2.964s-6.055-1.218-7.317-2.964l-12.228 6.061c-0.496 0.251-0.697 0.854-0.452 1.35l3.592 7.191c0.251 0.496 0.854 0.697 1.35 0.452l3.555-1.74c0.666-0.327 1.445 0.157 1.445 0.904v15.928c0 1.112 0.898 2.010 2.010 2.010h16.078c1.112 0 2.010-0.898 2.010-2.010v-15.934c0-0.741 0.779-1.231 1.445-0.904l3.555 1.74c0.496 0.251 1.099 0.050 1.35-0.452l3.599-7.185c0.251-0.496 0.050-1.105-0.446-1.35z"></path>
</svg>
