<!-- Generated by IcoMoon.io -->
<svg version="1.1" xmlns="http://www.w3.org/2000/svg" width="32" height="32" viewBox="0 0 32 32">
<title>ttf-file-format-symbol</title>
<path d="M27.737 7.239c-0.002-0.148-0.049-0.293-0.15-0.408l-6.201-7.082c-0.001-0.002-0.003-0.003-0.005-0.004-0.037-0.041-0.079-0.075-0.125-0.105-0.013-0.009-0.027-0.017-0.041-0.025-0.040-0.021-0.081-0.039-0.125-0.052-0.012-0.003-0.022-0.008-0.034-0.011-0.047-0.011-0.096-0.018-0.145-0.018h-15.238c-0.695 0-1.261 0.566-1.261 1.261v29.635c0 0.696 0.566 1.261 1.261 1.261h20.807c0.696 0 1.261-0.566 1.261-1.261v-23.119c0-0.024-0.004-0.047-0.006-0.071zM13.168 24.236h-1.965v5.831h-1.634v-5.831h-1.933v-1.367h5.532v1.367zM19.256 24.236h-1.965v5.831h-1.634v-5.831h-1.933v-1.367h5.532v1.367zM24.521 24.204h-2.766v1.644h2.584v1.324h-2.584v2.894h-1.635v-7.198h4.4v1.335h0.001zM5.675 20.945v-20.151h14.607v6.452c0 0.348 0.282 0.631 0.631 0.631h5.569l0.001 13.068h-20.808zM16.493 8.88c-0.169-0.734-0.306-1.116-0.49-1.36-0.244-0.367-0.504-0.474-1.65-0.474h-1.085v7.519c0 1.208 0.122 1.36 1.574 1.452v0.427h-4.386v-0.427c1.39-0.092 1.513-0.245 1.513-1.452v-7.519h-0.948c-1.268 0-1.574 0.122-1.773 0.474-0.184 0.26-0.306 0.688-0.489 1.36h-0.443c0.076-0.917 0.153-1.911 0.184-2.751h0.306c0.214 0.352 0.413 0.382 0.84 0.382h6.037c0.413 0 0.535-0.091 0.779-0.382h0.321c0 0.703 0.076 1.819 0.153 2.705l-0.443 0.046zM22.025 10.884c-0.168-0.734-0.305-1.116-0.489-1.36-0.244-0.367-0.505-0.474-1.651-0.474h-1.085v7.519c0 1.208 0.123 1.36 1.574 1.452v0.428h-4.386v-0.428c1.391-0.092 1.513-0.244 1.513-1.452v-7.519h-0.948c-1.268 0-1.574 0.122-1.773 0.474-0.184 0.26-0.305 0.688-0.489 1.36h-0.443c0.076-0.917 0.152-1.911 0.183-2.751h0.306c0.214 0.352 0.413 0.382 0.84 0.382h6.036c0.414 0 0.535-0.091 0.78-0.382h0.321c0 0.703 0.077 1.819 0.153 2.705l-0.443 0.046z"></path>
</svg>
