<!-- Generated by IcoMoon.io -->
<svg version="1.1" xmlns="http://www.w3.org/2000/svg" width="32" height="32" viewBox="0 0 32 32">
<title>tty</title>
<path d="M0.337 6.054c8.701-8.701 22.795-8.688 31.482 0 0.382 0.382 0.444 0.973 0.162 1.424l-2.714 4.342c-0.207 0.327-0.567 0.541-0.976 0.541-0.154 0-0.301-0.030-0.435-0.085l0.008 0.003-5.428-2.171c-0.428-0.174-0.724-0.587-0.724-1.069 0-0.040 0.002-0.080 0.006-0.119l-0 0.005 0.374-3.739c-3.903-1.41-8.205-1.381-12.026 0l0.374 3.739c0.004 0.034 0.006 0.074 0.006 0.115 0 0.482-0.296 0.895-0.716 1.066l-0.008 0.003-5.428 2.171c-0.127 0.052-0.274 0.082-0.428 0.082-0.41 0-0.77-0.214-0.974-0.536l-0.003-0.005-2.714-4.342c-0.11-0.173-0.175-0.384-0.175-0.61 0-0.318 0.129-0.606 0.337-0.814v0zM6.029 18.877v-2.512c0-0.416-0.338-0.754-0.754-0.754h-2.512c-0.416 0-0.754 0.338-0.754 0.754v2.512c0 0.416 0.338 0.754 0.754 0.754h2.512c0.416 0 0.754-0.338 0.754-0.754zM12.059 18.877v-2.512c0-0.416-0.338-0.754-0.754-0.754h-2.512c-0.416 0-0.754 0.338-0.754 0.754v2.512c0 0.416 0.338 0.754 0.754 0.754h2.512c0.416 0 0.754-0.338 0.754-0.754zM18.088 18.877v-2.512c0-0.416-0.338-0.754-0.754-0.754h-2.512c-0.416 0-0.754 0.338-0.754 0.754v2.512c0 0.416 0.338 0.754 0.754 0.754h2.512c0.416 0 0.754-0.338 0.754-0.754zM24.118 18.877v-2.512c0-0.416-0.338-0.754-0.754-0.754h-2.512c-0.416 0-0.754 0.338-0.754 0.754v2.512c0 0.416 0.338 0.754 0.754 0.754h2.512c0.416 0 0.754-0.338 0.754-0.754zM30.147 18.877v-2.512c0-0.416-0.338-0.754-0.754-0.754h-2.512c-0.416 0-0.754 0.338-0.754 0.754v2.512c0 0.416 0.338 0.754 0.754 0.754h2.512c0.416 0 0.754-0.338 0.754-0.754zM9.044 24.907v-2.512c0-0.416-0.338-0.754-0.754-0.754h-2.512c-0.416 0-0.754 0.338-0.754 0.754v2.512c0 0.416 0.338 0.754 0.754 0.754h2.512c0.416 0 0.754-0.338 0.754-0.754zM15.073 24.907v-2.512c0-0.416-0.338-0.754-0.754-0.754h-2.512c-0.416 0-0.754 0.338-0.754 0.754v2.512c0 0.416 0.338 0.754 0.754 0.754h2.512c0.416 0 0.754-0.338 0.754-0.754zM21.103 24.907v-2.512c0-0.416-0.338-0.754-0.754-0.754h-2.512c-0.416 0-0.754 0.338-0.754 0.754v2.512c0 0.416 0.338 0.754 0.754 0.754h2.512c0.416 0 0.754-0.338 0.754-0.754zM27.132 24.907v-2.512c0-0.416-0.338-0.754-0.754-0.754h-2.512c-0.416 0-0.754 0.338-0.754 0.754v2.512c0 0.416 0.338 0.754 0.754 0.754h2.512c0.416 0 0.754-0.338 0.754-0.754zM6.029 30.936v-2.512c0-0.416-0.338-0.754-0.754-0.754h-2.512c-0.416 0-0.754 0.338-0.754 0.754v2.512c0 0.416 0.338 0.754 0.754 0.754h2.512c0.416 0 0.754-0.338 0.754-0.754zM24.118 30.936v-2.512c0-0.416-0.338-0.754-0.754-0.754h-14.571c-0.416 0-0.754 0.338-0.754 0.754v2.512c0 0.416 0.338 0.754 0.754 0.754h14.571c0.416 0 0.754-0.338 0.754-0.754zM30.147 30.936v-2.512c0-0.416-0.338-0.754-0.754-0.754h-2.512c-0.416 0-0.754 0.338-0.754 0.754v2.512c0 0.416 0.338 0.754 0.754 0.754h2.512c0.416 0 0.754-0.338 0.754-0.754z"></path>
</svg>
