<!-- Generated by IcoMoon.io -->
<svg version="1.1" xmlns="http://www.w3.org/2000/svg" width="20" height="32" viewBox="0 0 20 32">
<title>tumblr</title>
<path d="M19.457 29.699c-0.854 0.911-3.14 1.991-6.117 1.991-7.587 0-9.232-5.577-9.232-8.831v-9.044h-2.983c-0.345 0-0.628-0.283-0.628-0.628v-4.271c0-0.452 0.283-0.854 0.71-1.005 3.894-1.369 5.119-4.773 5.295-7.355 0.050-0.691 0.408-1.024 1.011-1.024h4.453c0.345 0 0.628 0.283 0.628 0.628v7.235h5.213c0.345 0 0.628 0.276 0.628 0.622v5.131c0 0.345-0.283 0.628-0.628 0.628h-5.238v8.366c0 2.148 1.488 3.366 4.271 2.248 0.301-0.119 0.565-0.201 0.798-0.138 0.22 0.057 0.364 0.214 0.465 0.496l1.382 4.038c0.113 0.314 0.207 0.666-0.025 0.911z"></path>
</svg>
