<!-- Generated by IcoMoon.io -->
<svg version="1.1" xmlns="http://www.w3.org/2000/svg" width="28" height="32" viewBox="0 0 28 32">
<title>tumblr-square</title>
<path d="M25.122 1.543h-22.108c-1.664 0-3.015 1.35-3.015 3.015v22.108c0 1.664 1.35 3.015 3.015 3.015h22.108c1.664 0 3.015-1.35 3.015-3.015v-22.108c0-1.664-1.35-3.015-3.015-3.015zM19.953 24.417c-0.534 0.572-1.96 1.244-3.825 1.244-4.742 0-5.772-3.486-5.772-5.521v-5.653h-1.865c-0.214 0-0.389-0.176-0.389-0.389v-2.669c0-0.283 0.176-0.534 0.446-0.628 2.437-0.86 3.197-2.983 3.31-4.597 0.031-0.433 0.258-0.641 0.628-0.641h2.782c0.214 0 0.389 0.176 0.389 0.389v4.522h3.26c0.214 0 0.389 0.176 0.389 0.389v3.209c0 0.214-0.176 0.389-0.389 0.389h-3.272v5.232c0 1.344 0.93 2.104 2.669 1.407 0.188-0.075 0.352-0.126 0.503-0.088 0.138 0.031 0.226 0.132 0.289 0.308l0.867 2.525c0.063 0.201 0.126 0.421-0.019 0.572z"></path>
</svg>
