<!-- Generated by IcoMoon.io -->
<svg version="1.1" xmlns="http://www.w3.org/2000/svg" width="40" height="32" viewBox="0 0 40 32">
<title>tv</title>
<path d="M37.181-0.467h-34.167c-1.664 0-3.015 1.35-3.015 3.015v20.098c0 1.664 1.35 3.015 3.015 3.015h15.394v2.010h-10.049c-1.112 0-2.010 0.898-2.010 2.010s0.898 2.010 2.010 2.010h24.118c1.112 0 2.010-0.898 2.010-2.010s-0.898-2.010-2.010-2.010h-10.049v-2.010h14.753c1.664 0 3.015-1.35 3.015-3.015v-20.098c0-1.664-1.35-3.015-3.015-3.015zM36.176 21.641h-32.157v-18.088h32.157v18.088z"></path>
</svg>
