<!-- Generated by IcoMoon.io -->
<svg version="1.1" xmlns="http://www.w3.org/2000/svg" width="28" height="32" viewBox="0 0 28 32">
<title>twitter-square</title>
<path d="M25.122 1.543h-22.108c-1.664 0-3.015 1.35-3.015 3.015v22.108c0 1.664 1.35 3.015 3.015 3.015h22.108c1.664 0 3.015-1.35 3.015-3.015v-22.108c0-1.664-1.35-3.015-3.015-3.015zM22.051 11.516c0.012 0.176 0.012 0.358 0.012 0.534 0 5.445-4.145 11.72-11.72 11.72-2.336 0-4.503-0.678-6.325-1.847 0.333 0.038 0.653 0.050 0.992 0.050 1.928 0 3.699-0.653 5.112-1.759-1.809-0.038-3.329-1.225-3.85-2.858 0.634 0.094 1.206 0.094 1.859-0.075-1.884-0.383-3.297-2.041-3.297-4.045v-0.050c0.546 0.308 1.187 0.496 1.859 0.521-1.112-0.747-1.834-2.001-1.834-3.423 0-0.002 0-0.005 0-0.007v0c0-0.766 0.201-1.47 0.559-2.079 2.029 2.5 5.075 4.133 8.491 4.309-0.584-2.795 1.507-5.062 4.020-5.062 1.187 0 2.255 0.496 3.008 1.3 0.93-0.176 1.821-0.521 2.613-0.992-0.308 0.955-0.955 1.759-1.809 2.267 0.829-0.088 1.633-0.32 2.374-0.641-0.559 0.823-1.262 1.551-2.066 2.135z"></path>
</svg>
