<!-- Generated by IcoMoon.io -->
<svg version="1.1" xmlns="http://www.w3.org/2000/svg" width="32" height="32" viewBox="0 0 32 32">
<title>twitter</title>
<path d="M28.851 9.062c0.020 0.286 0.020 0.571 0.020 0.857 0 8.712-6.631 18.751-18.751 18.751-3.734 0-7.203-1.081-10.12-2.959 0.531 0.061 1.041 0.082 1.592 0.082 3.081 0 5.917-1.041 8.182-2.816-2.897-0.061-5.325-1.959-6.162-4.571 0.408 0.061 0.816 0.102 1.245 0.102 0.592 0 1.183-0.082 1.734-0.224-3.020-0.612-5.285-3.265-5.285-6.468v-0.082c0.877 0.49 1.898 0.796 2.979 0.836-1.775-1.183-2.938-3.203-2.938-5.489 0-1.224 0.326-2.346 0.898-3.326 3.244 3.999 8.121 6.611 13.589 6.897-0.102-0.49-0.163-1-0.163-1.51 0-3.632 2.938-6.59 6.59-6.59 1.898 0 3.611 0.796 4.815 2.081 1.489-0.286 2.918-0.837 4.183-1.592-0.49 1.53-1.53 2.816-2.897 3.632 1.326-0.143 2.612-0.51 3.795-1.020-0.898 1.306-2.020 2.469-3.305 3.407z"></path>
</svg>
