<!-- Generated by IcoMoon.io -->
<svg version="1.1" xmlns="http://www.w3.org/2000/svg" width="32" height="32" viewBox="0 0 32 32">
<title>txt-text-file-extension-symbol</title>
<path d="M27.737 7.239c-0.002-0.148-0.049-0.293-0.151-0.408l-6.2-7.082c-0.002-0.002-0.004-0.003-0.005-0.004-0.037-0.041-0.080-0.075-0.126-0.105-0.013-0.009-0.027-0.017-0.041-0.025-0.039-0.021-0.081-0.039-0.124-0.052-0.012-0.003-0.022-0.008-0.034-0.011-0.047-0.011-0.095-0.018-0.145-0.018h-15.237c-0.695 0-1.261 0.566-1.261 1.261v29.635c0 0.696 0.566 1.261 1.261 1.261h20.807c0.695 0 1.261-0.566 1.261-1.261v-23.119c-0-0.024-0.004-0.047-0.006-0.071zM12.293 23.972h-2.088v6.196h-1.736v-6.196h-2.054v-1.452h5.878v1.452zM17.445 30.168l-0.692-1.384c-0.284-0.533-0.466-0.93-0.681-1.373h-0.023c-0.159 0.443-0.352 0.84-0.59 1.373l-0.636 1.384h-1.975l2.213-3.87-2.134-3.779h1.986l0.67 1.396c0.227 0.465 0.397 0.84 0.579 1.271h0.023c0.181-0.488 0.329-0.828 0.521-1.271l0.647-1.396h1.975l-2.156 3.733 2.27 3.915h-1.997zM25.742 23.972h-2.088v6.196h-1.736v-6.196h-2.054v-1.452h5.878v1.452h0.001zM5.675 20.945v-20.151h14.607v6.452c0 0.348 0.283 0.631 0.631 0.631h5.57v13.068h-20.807zM10.179 8.189h6.995c0.232 0 0.421-0.188 0.421-0.42s-0.189-0.42-0.421-0.42h-6.995c-0.232 0-0.42 0.188-0.42 0.42s0.188 0.42 0.42 0.42zM21.648 10.709h-11.48c-0.232 0-0.42 0.188-0.42 0.42s0.188 0.42 0.42 0.42h11.48c0.232 0 0.421-0.188 0.421-0.42s-0.188-0.42-0.421-0.42zM21.648 14.046h-11.48c-0.232 0-0.42 0.188-0.42 0.42s0.188 0.42 0.42 0.42h11.48c0.232 0 0.421-0.188 0.421-0.42s-0.188-0.42-0.421-0.42zM21.648 17.462h-11.48c-0.232 0-0.42 0.188-0.42 0.42s0.188 0.42 0.42 0.42h11.48c0.232 0 0.421-0.188 0.421-0.42s-0.188-0.42-0.421-0.42z"></path>
</svg>
