<!-- Generated by IcoMoon.io -->
<svg version="1.1" xmlns="http://www.w3.org/2000/svg" width="28" height="32" viewBox="0 0 28 32">
<title>uber</title>
<path d="M26.008 1.543h-23.879c-1.175 0-2.129 0.955-2.129 2.129v23.873c0 1.181 0.955 2.135 2.129 2.135h23.873c1.175 0 2.129-0.955 2.129-2.129v-23.879c0.006-1.175-0.948-2.129-2.123-2.129zM14.923 24.096c-4.685 0.471-8.868-2.946-9.339-7.631h5.929v1.281c0 0.232 0.188 0.427 0.427 0.427h4.265c0.232 0 0.427-0.188 0.427-0.427v-4.265c0-0.232-0.188-0.427-0.427-0.427h-4.265c-0.232 0-0.427 0.188-0.427 0.427v1.281h-5.929c0.44-4.359 4.107-7.675 8.485-7.675s8.045 3.316 8.485 7.675c0.471 4.679-2.946 8.862-7.631 9.333z"></path>
</svg>
