<!-- Generated by IcoMoon.io -->
<svg version="1.1" xmlns="http://www.w3.org/2000/svg" width="31" height="32" viewBox="0 0 31 32">
<title>ubuntu</title>
<path d="M15.576 0.035c-8.604 0-15.576 6.971-15.576 15.576s6.971 15.576 15.576 15.576 15.576-6.971 15.576-15.576-6.971-15.576-15.576-15.576zM18.886 5.876c0.553-0.955 1.777-1.287 2.732-0.735 0.961 0.553 1.288 1.777 0.735 2.738-0.553 0.955-1.777 1.288-2.732 0.735-0.961-0.559-1.288-1.784-0.735-2.738zM5.489 17.615c-1.105 0-2.003-0.898-2.003-2.003s0.898-2.003 2.003-2.003c1.105 0 2.003 0.898 2.003 2.003s-0.898 2.003-2.003 2.003zM7.254 17.81c1.401-1.124 1.407-3.26 0-4.39 0.54-2.060 1.828-3.812 3.549-4.968l1.488 2.487c-3.235 2.28-3.235 7.066 0 9.346l-1.488 2.487c-1.721-1.149-3.002-2.908-3.549-4.962zM21.618 26.081c-0.961 0.553-2.179 0.226-2.732-0.735s-0.226-2.186 0.735-2.738c0.955-0.553 2.179-0.226 2.732 0.735s0.226 2.186-0.735 2.738zM21.637 21.716c-1.677-0.647-3.523 0.415-3.8 2.198-0.327 0.088-3.071 0.898-6.073-0.59l1.413-2.531c3.58 1.664 7.75-0.735 8.096-4.673l2.895 0.044c-0.145 2.167-1.087 4.114-2.531 5.552zM21.266 15.103c-0.339-3.894-4.478-6.356-8.096-4.673l-1.413-2.531c3.008-1.488 5.747-0.678 6.073-0.59 0.276 1.777 2.123 2.845 3.8 2.198 1.451 1.438 2.387 3.385 2.525 5.558l-2.889 0.038z"></path>
</svg>
