<!-- Generated by IcoMoon.io -->
<svg version="1.1" xmlns="http://www.w3.org/2000/svg" width="40" height="32" viewBox="0 0 40 32">
<title>umbrella-beach</title>
<path d="M7.247 8.131l6.413 2.335c2.21-5.121 5.415-9.062 8.73-10.909-6.022-0.307-11.857 2.321-15.609 7.022-0.42 0.527-0.167 1.322 0.466 1.553zM15.553 11.156l14.978 5.453c2.246-7.623 1.175-14.55-2.677-15.951-0.465-0.17-0.95-0.251-1.45-0.251-3.644 0.001-8.056 4.344-10.85 10.749zM32.752 3.333c0.391 1.024 0.68 2.173 0.829 3.466 0.36 3.133-0.089 6.798-1.19 10.487l6.445 2.346c0.634 0.23 1.338-0.215 1.355-0.89 0.146-6.010-2.632-11.772-7.439-15.41zM35.171 27.669h-15.007l4.079-11.21-3.777-1.375-4.579 12.584h-14.883c-0.555 0-1.005 0.45-1.005 1.005v2.010c0 0.555 0.45 1.005 1.005 1.005h34.167c0.555 0 1.005-0.45 1.005-1.005v-2.010c0-0.555-0.45-1.005-1.005-1.005z"></path>
</svg>
