<!-- Generated by IcoMoon.io -->
<svg version="1.1" xmlns="http://www.w3.org/2000/svg" width="36" height="32" viewBox="0 0 36 32">
<title>umbrella</title>
<path d="M36.157 17.169c-1.796-8.56-8.692-13.704-16.059-14.502v-1.124c0-1.112-0.898-2.010-2.010-2.010s-2.010 0.898-2.010 2.010v1.124c-7.392 0.798-14.226 5.941-16.059 14.502-0.138 0.634 0.534 1.338 1.175 0.716 3.266-3.454 6.764-3.291 9.961 2.324 0.333 0.597 0.936 0.54 1.237 0 1.269-2.223 2.82-4.597 5.697-4.597 3.674 0 5.54 4.321 5.697 4.597 0.301 0.54 0.904 0.597 1.237 0 3.203-5.621 6.727-5.74 9.961-2.324 0.647 0.628 1.313-0.082 1.175-0.716zM16.078 18.482v8.184c0 0.553-0.452 1.005-1.005 1.005-0.49 0-0.829-0.333-0.948-0.672-0.371-1.049-1.514-1.595-2.563-1.225s-1.595 1.52-1.225 2.563c0.703 2.003 2.613 3.348 4.736 3.348 2.77 0 5.025-2.255 5.025-5.024v-8.184c-0.572-0.496-1.244-0.854-2.010-0.854-0.773 0.006-1.407 0.301-2.010 0.86z"></path>
</svg>
