<!-- Generated by IcoMoon.io -->
<svg version="1.1" xmlns="http://www.w3.org/2000/svg" width="28" height="32" viewBox="0 0 28 32">
<title>underline</title>
<path d="M14.085 23.917c-5.757 0-9.836-3.213-9.836-9.508v-10.856h-1.777c-0.555 0-1.005-0.45-1.005-1.005v-2.010c0-0.555 0.45-1.005 1.005-1.005h8.629c0.555 0 1.005 0.45 1.005 1.005v2.010c0 0.555-0.45 1.005-1.005 1.005h-1.81v10.856c0 3.373 1.778 4.99 4.793 4.99 2.95 0 4.76-1.597 4.76-5.022v-10.823h-1.777c-0.555 0-1.005-0.45-1.005-1.005v-2.010c0-0.555 0.45-1.005 1.005-1.005h8.596c0.555 0 1.005 0.45 1.005 1.005v2.010c0 0.555-0.45 1.005-1.005 1.005h-1.777v10.856c0 6.243-4.075 9.508-9.803 9.508zM1.005 27.67h26.127c0.555 0 1.005 0.45 1.005 1.005v2.010c0 0.555-0.45 1.005-1.005 1.005h-26.127c-0.555 0-1.005-0.45-1.005-1.005v-2.010c0-0.555 0.45-1.005 1.005-1.005z"></path>
</svg>
