<!-- Generated by IcoMoon.io -->
<svg version="1.1" xmlns="http://www.w3.org/2000/svg" width="32" height="32" viewBox="0 0 32 32">
<title>undo</title>
<path d="M13.336 13.623h-12.582c-0.416 0-0.754-0.338-0.754-0.754v-12.582c0-0.416 0.338-0.754 0.754-0.754h3.015c0.416 0 0.754 0.338 0.754 0.754v4.906c2.875-3.193 7.051-5.19 11.693-5.157 8.599 0.062 15.478 7.011 15.46 15.609-0.018 8.587-6.985 15.542-15.576 15.542-4.025 0-7.693-1.527-10.458-4.033-0.32-0.29-0.335-0.789-0.029-1.094l2.133-2.133c0.281-0.281 0.732-0.296 1.030-0.033 1.949 1.725 4.513 2.771 7.324 2.771 6.109 0 11.054-4.944 11.054-11.054 0-6.109-4.944-11.054-11.054-11.054-3.674 0-6.926 1.788-8.936 4.543h6.172c0.416 0 0.754 0.338 0.754 0.754v3.015c0 0.416-0.338 0.754-0.754 0.754z"></path>
</svg>
