<!-- Generated by IcoMoon.io -->
<svg version="1.1" xmlns="http://www.w3.org/2000/svg" width="32" height="32" viewBox="0 0 32 32">
<title>uniEEFE</title>
<path d="M15.333 11.532l-2.461-0.99c-0.014-0.006-0.031-0.004-0.044 0.005s-0.021 0.024-0.021 0.039v2.955c0 0.020 0.012 0.036 0.030 0.044l2.461 0.99c0.006 0.002 0.012 0.004 0.018 0.004 0.009 0 0.019-0.003 0.027-0.008 0.013-0.009 0.021-0.024 0.021-0.039v-2.955c0-0.020-0.012-0.038-0.030-0.044zM15.104 14.217l-1.781-0.716 1.781-0.784v1.5zM15.104 12.492l-2.035 0.896v-2.487l2.035 0.819v0.772z"></path>
</svg>
