<!-- Generated by IcoMoon.io -->
<svg version="1.1" xmlns="http://www.w3.org/2000/svg" width="32" height="32" viewBox="0 0 32 32">
<title>uniEF4C</title>
<path d="M22.119 8.637c0-0.047-0.029-0.090-0.073-0.107l-6.136-2.395c-0.027-0.011-0.058-0.010-0.085 0l-5.975 2.404c-0.044 0.018-0.072 0.060-0.072 0.107s0.028 0.089 0.072 0.107l5.9 2.396c0.014 0.006 0.029 0.008 0.043 0.008s0.028-0.002 0.042-0.008l6.211-2.405c0.044-0.018 0.073-0.060 0.073-0.108zM15.988 10.413v-3.57l4.592 1.793-4.592 1.778zM15.487 6.951v3.41l-4.218-1.712 4.218-1.697z"></path>
</svg>
