<!-- Generated by IcoMoon.io -->
<svg version="1.1" xmlns="http://www.w3.org/2000/svg" width="32" height="32" viewBox="0 0 32 32">
<title>uniEF5D</title>
<path d="M19.673 10.432c-0.011 0-0.022 0-0.033 0l-0.554-4.59-3.854 2.892h-6.254v6.708h6.708v-0.502c0.243 1.984 1.938 3.526 3.987 3.526 2.215 0 4.017-1.802 4.017-4.017s-1.802-4.017-4.016-4.017zM9.293 15.127v-6.078h5.515l-2.791 2.067 3.353 1.457v2.555l-6.077-0zM15.686 12.71l0.313 0.136c-0.158 0.358-0.265 0.737-0.313 1.123v-1.258zM19.673 18.151c-2.042 0-3.701-1.66-3.701-3.701 0-0.505 0.114-1.009 0.32-1.477l3.774 1.639-0.441-3.863c0.017-0.001 0.033-0.002 0.049-0.002 2.042 0 3.702 1.661 3.702 3.702s-1.661 3.702-3.702 3.702z"></path>
</svg>
