<!-- Generated by IcoMoon.io -->
<svg version="1.1" xmlns="http://www.w3.org/2000/svg" width="32" height="32" viewBox="0 0 32 32">
<title>uniEEFB</title>
<path d="M27.737 7.239c-0.002-0.148-0.048-0.293-0.15-0.408l-6.201-7.082c-0.001-0.002-0.003-0.003-0.005-0.004-0.037-0.041-0.079-0.075-0.125-0.105-0.013-0.009-0.027-0.017-0.041-0.025-0.040-0.021-0.081-0.039-0.124-0.052-0.012-0.003-0.022-0.008-0.034-0.011-0.047-0.011-0.095-0.018-0.145-0.018h-15.238c-0.695 0-1.261 0.566-1.261 1.261v29.635c0 0.696 0.566 1.261 1.261 1.261h20.807c0.696 0 1.261-0.566 1.261-1.261v-23.119c0-0.024-0.004-0.047-0.006-0.071zM11.716 28.733c-0.729 0.605-1.836 0.892-3.191 0.892-0.81 0-1.385-0.052-1.775-0.102v-6.791c0.575-0.092 1.323-0.143 2.113-0.143 1.313 0 2.165 0.236 2.831 0.738 0.718 0.534 1.169 1.385 1.169 2.606-0 1.323-0.482 2.236-1.149 2.8zM18.856 28.733c-0.729 0.605-1.837 0.892-3.191 0.892-0.81 0-1.385-0.052-1.775-0.102v-6.791c0.575-0.092 1.323-0.143 2.114-0.143 1.313 0 2.165 0.236 2.831 0.738 0.718 0.534 1.169 1.385 1.169 2.606 0 1.323-0.482 2.236-1.148 2.8zM22.723 29.657c-0.79 0-1.57-0.205-1.959-0.421l0.318-1.292c0.421 0.215 1.067 0.43 1.734 0.43 0.718 0 1.098-0.297 1.098-0.749 0-0.431-0.329-0.677-1.159-0.975-1.149-0.4-1.898-1.036-1.898-2.042 0-1.18 0.985-2.082 2.616-2.082 0.779 0 1.354 0.164 1.764 0.349l-0.349 1.262c-0.276-0.133-0.769-0.328-1.446-0.328s-1.005 0.308-1.005 0.667c0 0.441 0.389 0.636 1.282 0.975 1.22 0.451 1.795 1.087 1.795 2.062 0 1.16-0.893 2.144-2.79 2.144zM5.675 20.945v-20.151h14.607v6.452c0 0.348 0.282 0.631 0.631 0.631h5.569l0.001 13.068h-20.808z"></path>
</svg>
