<!-- Generated by IcoMoon.io -->
<svg version="1.1" xmlns="http://www.w3.org/2000/svg" width="32" height="32" viewBox="0 0 32 32">
<title>uniEF7F</title>
<path d="M27.737 7.239c-0.002-0.148-0.048-0.293-0.15-0.408l-6.201-7.082c-0.001-0.002-0.003-0.002-0.005-0.004-0.037-0.041-0.079-0.075-0.125-0.105-0.013-0.009-0.027-0.017-0.041-0.025-0.040-0.022-0.081-0.039-0.124-0.052-0.012-0.004-0.022-0.008-0.034-0.011-0.047-0.011-0.095-0.018-0.145-0.018h-15.238c-0.695 0-1.261 0.566-1.261 1.261v29.635c0 0.695 0.566 1.261 1.261 1.261h20.807c0.696 0 1.261-0.566 1.261-1.261v-23.119c0-0.024-0.004-0.047-0.006-0.070zM12.027 23.728h-2.018v5.988h-1.678v-5.988h-1.985v-1.404h5.681v1.404zM18.772 29.376c-0.515 0.175-1.491 0.417-2.468 0.417-1.349 0-2.325-0.341-3.005-0.998-0.68-0.636-1.053-1.602-1.042-2.687 0.011-2.457 1.799-3.86 4.223-3.86 0.954 0 1.689 0.187 2.050 0.361l-0.351 1.338c-0.406-0.175-0.91-0.318-1.722-0.318-1.393 0-2.446 0.789-2.446 2.391 0 1.525 0.954 2.424 2.325 2.424 0.384 0 0.691-0.044 0.823-0.11v-1.547h-1.141v-1.305h2.753v3.893h0zM24.485 29.716l-0.57-1.897h-2.116l-0.526 1.897h-1.733l2.26-7.392h2.193l2.292 7.392h-1.799zM5.675 20.945v-20.151h14.607v6.452c0 0.348 0.282 0.631 0.631 0.631h5.569l0.001 13.068h-20.808z"></path>
</svg>
