<!-- Generated by IcoMoon.io -->
<svg version="1.1" xmlns="http://www.w3.org/2000/svg" width="32" height="32" viewBox="0 0 32 32">
<title>uniEF5C</title>
<path d="M27.737 7.239c-0.002-0.148-0.049-0.293-0.15-0.408l-6.201-7.082c-0.001-0.002-0.003-0.003-0.005-0.004-0.037-0.041-0.079-0.075-0.125-0.105-0.013-0.009-0.027-0.017-0.041-0.025-0.040-0.021-0.081-0.039-0.125-0.052-0.012-0.003-0.022-0.008-0.034-0.011-0.047-0.011-0.096-0.018-0.145-0.018h-15.238c-0.695 0-1.261 0.566-1.261 1.261v29.635c0 0.696 0.566 1.261 1.261 1.261h20.807c0.696 0 1.261-0.566 1.261-1.261v-23.119c0-0.024-0.004-0.047-0.006-0.071zM11.639 26.417c-0.568 0.535-1.409 0.775-2.392 0.775-0.219 0-0.415-0.011-0.568-0.033v2.632h-1.649v-7.263c0.513-0.087 1.235-0.153 2.251-0.153 1.026 0 1.758 0.196 2.249 0.59 0.47 0.371 0.787 0.983 0.787 1.704s-0.241 1.332-0.677 1.747zM17.143 28.524c0.503 0 1.059-0.109 1.387-0.24l0.251 1.3c-0.306 0.152-0.994 0.317-1.889 0.317-2.545 0-3.856-1.584-3.856-3.681 0-2.513 1.792-3.911 4.020-3.911 0.863 0 1.518 0.175 1.813 0.328l-0.339 1.322c-0.339-0.142-0.808-0.274-1.399-0.274-1.321 0-2.348 0.797-2.348 2.436-0 1.474 0.874 2.403 2.359 2.403zM25.128 23.828h-2.010v5.964h-1.671v-5.964h-1.977v-1.398h5.658v1.398h0zM5.675 20.945v-20.151h14.607v6.452c0 0.348 0.282 0.631 0.631 0.631h5.569l0.001 13.068h-20.808z"></path>
</svg>
