<!-- Generated by IcoMoon.io -->
<svg version="1.1" xmlns="http://www.w3.org/2000/svg" width="32" height="32" viewBox="0 0 32 32">
<title>uniEEFD</title>
<path d="M18.047 10.542l-2.461 0.99c-0.018 0.007-0.030 0.024-0.030 0.044v2.955c0 0.016 0.008 0.031 0.021 0.039 0.008 0.005 0.017 0.008 0.027 0.008 0.006 0 0.012-0.001 0.018-0.003l2.461-0.99c0.018-0.007 0.030-0.024 0.030-0.044v-2.955c0-0.016-0.008-0.031-0.021-0.039s-0.030-0.010-0.044-0.004zM15.817 14.217v-1.498l1.853 0.754-1.852 0.745zM17.853 13.323l-2.036-0.827v-0.776l2.036-0.819v2.423z"></path>
</svg>
