<!-- Generated by IcoMoon.io -->
<svg version="1.1" xmlns="http://www.w3.org/2000/svg" width="32" height="32" viewBox="0 0 32 32">
<title>uniEF4A</title>
<path d="M22.232 9.155c-0.032-0.021-0.072-0.026-0.107-0.011l-5.975 2.405c-0.044 0.018-0.072 0.060-0.072 0.107v7.177c0 0.038 0.020 0.074 0.051 0.096 0.019 0.013 0.042 0.020 0.064 0.020 0.015 0 0.030-0.003 0.043-0.008l5.976-2.405c0.043-0.018 0.072-0.059 0.072-0.107v-7.178c0-0.038-0.019-0.074-0.051-0.095zM21.207 16.258l-4.499 1.81v-3.639l4.499 1.829zM16.708 13.888v-1.886l4.944-1.989v5.884l-4.944-2.010z"></path>
</svg>
