<!-- Generated by IcoMoon.io -->
<svg version="1.1" xmlns="http://www.w3.org/2000/svg" width="32" height="32" viewBox="0 0 32 32">
<title>uniEF47</title>
<path d="M27.737 7.239c-0.002-0.148-0.049-0.293-0.15-0.408l-6.2-7.082c-0.001-0.002-0.003-0.003-0.005-0.004-0.037-0.041-0.079-0.075-0.125-0.105-0.013-0.009-0.027-0.017-0.041-0.025-0.040-0.021-0.081-0.039-0.124-0.052-0.012-0.003-0.022-0.008-0.034-0.011-0.047-0.011-0.095-0.018-0.145-0.018h-15.238c-0.695 0-1.261 0.566-1.261 1.261v29.635c0 0.696 0.566 1.261 1.261 1.261h20.807c0.696 0 1.261-0.566 1.261-1.261v-23.119c-0-0.024-0.004-0.047-0.006-0.071zM10.185 30.183c-2.322 0-3.68-1.753-3.68-3.982 0-2.345 1.497-4.098 3.807-4.098 2.403 0 3.714 1.799 3.714 3.958 0 2.565-1.555 4.121-3.842 4.121zM20.178 29.428c-0.569 0.453-1.521 0.708-3.076 0.708-0.87 0-1.521-0.059-1.915-0.116v-7.685c0.465-0.093 1.405-0.162 2.287-0.162 1.079 0 1.741 0.104 2.31 0.441 0.545 0.29 0.94 0.824 0.94 1.532 0 0.696-0.406 1.346-1.288 1.671v0.023c0.893 0.244 1.555 0.917 1.555 1.926-0 0.709-0.325 1.266-0.813 1.661zM25.494 27.176c0 2.229-1.068 3.007-2.786 3.007-0.406 0-0.94-0.070-1.289-0.186l0.198-1.428c0.244 0.081 0.557 0.139 0.905 0.139 0.743 0 1.207-0.336 1.207-1.555v-4.922h1.764v4.945zM5.675 20.945v-20.151h14.607v6.452c0 0.348 0.282 0.631 0.631 0.631h5.569l0.001 13.068h-20.808z"></path>
</svg>
