<!-- Generated by IcoMoon.io -->
<svg version="1.1" xmlns="http://www.w3.org/2000/svg" width="32" height="32" viewBox="0 0 32 32">
<title>uniEF4B</title>
<path d="M15.534 11.547l-5.976-2.405c-0.035-0.014-0.075-0.010-0.107 0.011s-0.051 0.057-0.051 0.096v7.177c0 0.047 0.029 0.089 0.072 0.107l5.976 2.405c0.013 0.006 0.028 0.008 0.043 0.008 0.023 0 0.045-0.007 0.064-0.020 0.032-0.022 0.051-0.058 0.051-0.096v-7.177c-0-0.047-0.029-0.089-0.072-0.107zM10.032 16.053v-6.039l4.943 1.989v1.875l-4.943 2.175zM14.976 14.424v3.644l-4.324-1.74 4.324-1.903z"></path>
</svg>
