<!-- Generated by IcoMoon.io -->
<svg version="1.1" xmlns="http://www.w3.org/2000/svg" width="32" height="32" viewBox="0 0 32 32">
<title>uniEEFC</title>
<path d="M20.261 7.916c-0.001-0.061-0.020-0.121-0.062-0.168l-2.553-2.916c-0.001-0.001-0.002-0.001-0.002-0.002-0.015-0.017-0.033-0.032-0.052-0.043-0.006-0.004-0.011-0.007-0.017-0.010-0.016-0.009-0.034-0.016-0.051-0.021-0.005-0.001-0.009-0.004-0.014-0.005-0.020-0.005-0.039-0.007-0.060-0.007h-6.274c-0.286 0-0.519 0.233-0.519 0.519v12.202c0 0.286 0.233 0.519 0.519 0.519h8.568c0.287 0 0.519-0.233 0.519-0.519v-9.519c-0.001-0.010-0.002-0.019-0.003-0.029zM11.176 17.388v-12.127h6.015v2.657c0 0.143 0.116 0.259 0.26 0.259h2.293v9.21l-8.568 0z"></path>
</svg>
