<!-- Generated by IcoMoon.io -->
<svg version="1.1" xmlns="http://www.w3.org/2000/svg" width="32" height="32" viewBox="0 0 32 32">
<title>uniEEFF</title>
<path d="M18.044 10.334c0-0.020-0.012-0.037-0.030-0.044l-2.527-0.986c-0.011-0.005-0.024-0.004-0.035 0l-2.46 0.99c-0.018 0.007-0.030 0.025-0.030 0.044s0.012 0.036 0.030 0.044l2.429 0.986c0.006 0.002 0.012 0.003 0.018 0.003s0.011-0.001 0.017-0.003l2.558-0.99c0.019-0.008 0.030-0.025 0.030-0.044zM15.314 11.043l-1.737-0.705 1.737-0.699v1.404zM15.52 11.065v-1.47l1.891 0.738-1.891 0.732z"></path>
</svg>
