<!-- Generated by IcoMoon.io -->
<svg version="1.1" xmlns="http://www.w3.org/2000/svg" width="24" height="32" viewBox="0 0 24 32">
<title>uniregistry</title>
<path d="M17.655 13.357h6.463v-0.93h-6.463v0.93zM17.655 11.027h6.463v-0.779h-6.463v0.779zM17.655 15.687h6.463v-1.087h-6.463v1.087zM7.75 21.132h-7.216c0.163 0.534 0.364 1.055 0.603 1.558h8.686c-0.81-0.358-1.514-0.892-2.073-1.558zM16.901 20.353h6.89c0.113-0.458 0.195-0.923 0.245-1.401h-6.557c-0.132 0.496-0.327 0.967-0.578 1.401zM14.295 22.683h8.755c0.232-0.503 0.364-1.017 0.534-1.558h-7.223c-0.553 0.672-1.262 1.206-2.066 1.558zM24.118 1.543h-6.463v0.157h6.463v-0.157zM12.059 29.68c2.481 0 4.786-0.741 6.708-2.022h-13.409c1.916 1.281 4.221 2.022 6.701 2.022zM17.655 8.69h6.463v-0.615h-6.463v0.615zM17.655 6.36h6.463v-0.465h-6.463v0.465zM17.655 4.030h6.463v-0.308h-6.463v0.308zM6.463 10.248h-6.463v0.779h6.463v-0.779zM2.437 25.013h19.175c0.421-0.534 0.791-1.105 1.118-1.708h-21.285c0.327 0.603 0.578 1.175 0.992 1.708zM6.463 17.552v-0.779h-6.463v0.779c0 0.157 0 0.314 0.006 0.465h6.475c-0.013-0.151-0.019-0.308-0.019-0.465zM17.655 17.552c0 0.157-0.006 0.314-0.025 0.465h6.475c0.006-0.157 0.012-0.308 0.012-0.465v-0.779h-6.463v0.779zM4.905 27.35h14.301c0.741-0.546 1.426-1.168 2.022-1.865h-18.408c0.603 0.691 1.344 1.319 2.085 1.865zM6.463 3.722h-6.463v0.308h6.463v-0.308zM6.463 1.543h-6.463v0.157h6.463v-0.157zM6.463 12.427h-6.463v0.93h6.463v-0.93zM6.463 14.6h-6.463v1.087h6.463v-1.087zM6.463 8.075h-6.463v0.622h6.463v-0.622zM6.463 5.895h-6.463v0.465h6.463v-0.465zM6.639 18.953h-6.557c0.057 0.477 0.138 0.942 0.245 1.401h6.89c-0.251-0.433-0.452-0.904-0.578-1.401z"></path>
</svg>
