<!-- Generated by IcoMoon.io -->
<svg version="1.1" xmlns="http://www.w3.org/2000/svg" width="32" height="32" viewBox="0 0 32 32">
<title>unity-symbol</title>
<path d="M16 0.003c-5.667 0-10.286 4.619-10.286 10.286 0 0.358 0.020 0.711 0.056 1.060-3.41 1.678-5.77 5.179-5.77 9.225 0 5.667 4.619 10.286 10.286 10.286 2.112 0 4.078-0.643 5.714-1.741 1.636 1.098 3.602 1.741 5.714 1.741 5.667 0 10.286-4.619 10.286-10.286 0-4.046-2.361-7.548-5.77-9.225 0.036-0.349 0.056-0.702 0.056-1.060 0-5.667-4.619-10.286-10.286-10.286zM16 2.289c4.432 0 8 3.568 8 8 0 0.089-0.011 0.175-0.013 0.263-0.732-0.166-1.491-0.263-2.272-0.263-2.112 0-4.078 0.643-5.714 1.741-1.636-1.098-3.602-1.741-5.714-1.741-0.782 0-1.54 0.097-2.272 0.263-0.003-0.088-0.013-0.174-0.013-0.263 0-4.432 3.568-8 8-8zM10.286 12.575c1.421 0 2.75 0.369 3.904 1.013-0.963 1.036-1.714 2.268-2.188 3.632-1.685-0.971-2.977-2.536-3.596-4.415 0.603-0.145 1.23-0.23 1.879-0.23zM21.714 12.575c0.649 0 1.276 0.085 1.879 0.23-0.619 1.879-1.911 3.444-3.596 4.415-0.473-1.363-1.224-2.595-2.188-3.632 1.154-0.644 2.483-1.013 3.904-1.013zM6.288 13.644c0.893 2.573 2.777 4.68 5.196 5.871-0.036 0.349-0.056 0.702-0.056 1.060 0 2.697 1.054 5.149 2.761 6.987-1.154 0.644-2.483 1.013-3.904 1.013-4.432 0-8-3.568-8-8 0-2.972 1.608-5.551 4.002-6.931zM25.712 13.644c2.394 1.38 4.002 3.959 4.002 6.931 0 4.432-3.568 8-8 8-1.421 0-2.75-0.369-3.904-1.013 1.707-1.837 2.761-4.29 2.761-6.987 0-0.358-0.020-0.711-0.056-1.060 2.419-1.19 4.304-3.298 5.196-5.871zM16 14.967c0.846 0.862 1.492 1.916 1.879 3.091-0.603 0.145-1.23 0.23-1.879 0.23s-1.276-0.085-1.879-0.23c0.387-1.175 1.034-2.23 1.879-3.091zM13.728 20.311c0.732 0.166 1.491 0.263 2.272 0.263s1.54-0.097 2.272-0.263c0.003 0.088 0.013 0.174 0.013 0.263 0 2.189-0.871 4.166-2.286 5.607-1.415-1.442-2.286-3.419-2.286-5.607 0-0.089 0.011-0.175 0.013-0.263z"></path>
</svg>
