<!-- Generated by IcoMoon.io -->
<svg version="1.1" xmlns="http://www.w3.org/2000/svg" width="32" height="32" viewBox="0 0 32 32">
<title>universal-access</title>
<path d="M16.078 2.548c7.22 0 13.064 5.843 13.064 13.064 0 7.22-5.843 13.064-13.064 13.064-7.22 0-13.064-5.843-13.064-13.064 0-7.22 5.843-13.064 13.064-13.064zM16.078 0.035c-8.602 0-15.576 6.974-15.576 15.576s6.974 15.576 15.576 15.576 15.576-6.974 15.576-15.576-6.974-15.576-15.576-15.576zM16.078 3.553c-6.66 0-12.059 5.399-12.059 12.059s5.399 12.059 12.059 12.059 12.059-5.399 12.059-12.059-5.399-12.059-12.059-12.059zM16.078 6.316c1.249 0 2.261 1.012 2.261 2.261s-1.012 2.261-2.261 2.261-2.261-1.012-2.261-2.261 1.012-2.261 2.261-2.261zM23.473 12.473c-1.803 0.426-3.486 0.801-5.159 0.993 0.053 6.345 0.773 7.728 1.572 9.774 0.227 0.582-0.060 1.237-0.642 1.464s-1.237-0.060-1.464-0.642c-0.547-1.401-1.073-2.552-1.398-4.933h-0.608c-0.325 2.377-0.85 3.53-1.398 4.933-0.227 0.581-0.882 0.869-1.464 0.642s-0.869-0.883-0.642-1.464c0.798-2.044 1.519-3.426 1.572-9.774-1.672-0.192-3.356-0.567-5.159-0.993-0.54-0.128-0.875-0.669-0.747-1.209s0.669-0.875 1.209-0.747c6.072 1.434 7.806 1.431 13.866 0 0.54-0.127 1.081 0.207 1.209 0.747s-0.207 1.082-0.747 1.209z"></path>
</svg>
