<!-- Generated by IcoMoon.io -->
<svg version="1.1" xmlns="http://www.w3.org/2000/svg" width="32" height="32" viewBox="0 0 32 32">
<title>university</title>
<path d="M31.152 7.572v1.005c0 0.278-0.225 0.502-0.503 0.502v0h-1.507v0.754c0 0.416-0.338 0.754-0.754 0.754h-24.62c-0.416 0-0.754-0.338-0.754-0.754v-0.754h-1.507c-0.278 0-0.502-0.225-0.502-0.502v0-1.005c0-0.208 0.127-0.387 0.307-0.463l0.003-0.001 14.571-5.527c0.057-0.024 0.123-0.038 0.192-0.038s0.135 0.014 0.195 0.039l-0.003-0.001 14.571 5.527c0.184 0.077 0.31 0.256 0.31 0.464v0zM29.644 26.665h-27.132c-0.833 0-1.507 0.675-1.507 1.507v1.005c0 0.278 0.225 0.503 0.502 0.503v0h29.142c0.278 0 0.503-0.225 0.503-0.503v0-1.005c0-0.832-0.675-1.507-1.507-1.507zM6.029 11.592v12.059h-2.261c-0.416 0-0.754 0.338-0.754 0.754v1.256h26.127v-1.256c0-0.416-0.338-0.754-0.754-0.754h-2.261v-12.059h-4.020v12.059h-4.020v-12.059h-4.020v12.059h-4.020v-12.059h-4.020z"></path>
</svg>
