<!-- Generated by IcoMoon.io -->
<svg version="1.1" xmlns="http://www.w3.org/2000/svg" width="32" height="32" viewBox="0 0 32 32">
<title>unlink</title>
<path d="M19.098 25.026c0.294 0.294 0.294 0.771 0 1.066l-2.806 2.806c-3.722 3.722-9.778 3.722-13.501 0s-3.722-9.779 0-13.501l2.806-2.806c0.294-0.294 0.771-0.294 1.066 0l2.487 2.487c0.294 0.294 0.294 0.771 0 1.066l-2.806 2.806c-1.763 1.763-1.763 4.632 0 6.395s4.632 1.763 6.395 0l2.806-2.806c0.294-0.294 0.772-0.294 1.066 0l2.487 2.487zM15.545 8.683c0.294 0.294 0.772 0.294 1.066 0l2.806-2.806c1.763-1.763 4.632-1.763 6.395 0s1.763 4.632 0 6.395l-2.806 2.806c-0.294 0.294-0.294 0.771 0 1.066l2.487 2.487c0.294 0.294 0.771 0.294 1.066 0l2.806-2.806c3.722-3.722 3.722-9.779 0-13.501s-9.779-3.722-13.501 0l-2.806 2.806c-0.294 0.294-0.294 0.771 0 1.066l2.487 2.487zM30.294 31.248l1.421-1.421c0.589-0.589 0.589-1.543 0-2.132l-27.721-27.721c-0.589-0.589-1.543-0.589-2.132 0l-1.421 1.421c-0.589 0.589-0.589 1.543 0 2.132l27.721 27.721c0.589 0.589 1.543 0.589 2.132 0z"></path>
</svg>
