<!-- Generated by IcoMoon.io -->
<svg version="1.1" xmlns="http://www.w3.org/2000/svg" width="28" height="32" viewBox="0 0 28 32">
<title>unlock</title>
<path d="M25.122 15.611h-15.576v-6.475c0-2.487 1.991-4.553 4.478-4.579 2.512-0.025 4.566 2.016 4.566 4.522v1.005c0 0.835 0.672 1.507 1.507 1.507h2.010c0.835 0 1.507-0.672 1.507-1.507v-1.005c0-5.276-4.302-9.565-9.578-9.546s-9.515 4.365-9.515 9.641v6.438h-1.507c-1.664 0-3.015 1.35-3.015 3.015v10.049c0 1.664 1.35 3.015 3.015 3.015h22.108c1.664 0 3.015-1.35 3.015-3.015v-10.049c0-1.664-1.35-3.015-3.015-3.015z"></path>
</svg>
