<!-- Generated by IcoMoon.io -->
<svg version="1.1" xmlns="http://www.w3.org/2000/svg" width="40" height="32" viewBox="0 0 40 32">
<title>untappd</title>
<path d="M25.204 2.667c-5.012 10.055-5.313 9.578-5.521 10.878l-0.327 2.060c-0.119 0.754-0.415 1.476-0.86 2.098l-9.352 13.051c-0.477 0.666-1.281 1.017-2.098 0.917-2.531-0.314-4.886-2.022-5.985-4.302-0.358-0.741-0.283-1.62 0.195-2.286l9.352-13.057c0.446-0.622 1.030-1.13 1.708-1.488l1.84-0.973c1.162-0.615 0.609-0.747 8.517-8.724 0.063-0.301 0.063-0.458 0.226-0.502 0.188-0.044 0.415-0.063 0.396-0.289l-0.025-0.289c-0.012-0.119 0.082-0.226 0.201-0.226 0.283-0.006 0.829 0.075 1.608 0.628 0.773 0.559 1.030 1.055 1.112 1.325 0.038 0.113-0.038 0.232-0.151 0.264l-0.283 0.069c-0.214 0.057-0.157 0.276-0.145 0.465 0.006 0.176-0.145 0.226-0.408 0.383zM14.452 1.819c0.214 0.057 0.157 0.276 0.145 0.465-0.012 0.17 0.132 0.22 0.402 0.377 0.496 0.999 0.961 1.916 1.394 2.763 0.044 0.082 0.145 0.094 0.207 0.031 0.703-0.754 1.545-1.645 2.544-2.676 0.082-0.088 0.088-0.22 0.006-0.308-0.503-0.515-1.036-1.061-1.608-1.639-0.063-0.295-0.063-0.458-0.226-0.502-0.188-0.050-0.415-0.063-0.396-0.289 0.019-0.207 0.088-0.509-0.176-0.515-0.283-0.006-0.829 0.069-1.608 0.628-0.772 0.559-1.030 1.055-1.112 1.325-0.088 0.264 0.226 0.289 0.427 0.339zM38.94 25.076l-9.346-13.057c-0.829-1.162-1.671-1.47-3.542-2.456-0.703-0.371-0.892-0.685-1.916-1.815-0.063-0.069-0.182-0.057-0.226 0.031-2.908 5.577-2.958 5.2-3.078 5.954-0.107 0.672-0.082 1.256 0.019 1.872 0.119 0.754 0.415 1.476 0.86 2.098l9.352 13.057c0.477 0.666 1.269 1.018 2.079 0.923 2.531-0.308 4.899-2.010 6.011-4.309 0.339-0.747 0.27-1.627-0.214-2.299z"></path>
</svg>
