<!-- Generated by IcoMoon.io -->
<svg version="1.1" xmlns="http://www.w3.org/2000/svg" width="32" height="32" viewBox="0 0 32 32">
<title>up-down</title>
<path d="M30.847 26.486l-5.091 5.091c-0.284 0.284-0.656 0.426-1.028 0.426s-0.744-0.142-1.028-0.426l-5.091-5.091c-0.568-0.568-0.568-1.489 0-2.057s1.489-0.568 2.057 0l2.608 2.608v-16.852c0-0.804 0.651-1.455 1.455-1.455s1.455 0.651 1.455 1.455v16.852l2.608-2.608c0.568-0.568 1.489-0.568 2.057 0s0.568 1.489 0 2.057zM24.727 2.912c0.804 0 1.455-0.651 1.455-1.455s-0.651-1.455-1.455-1.455c-0.804 0-1.455 0.651-1.455 1.455s0.651 1.455 1.455 1.455zM24.727 7.276c0.804 0 1.455-0.651 1.455-1.455s-0.651-1.455-1.455-1.455c-0.804 0-1.455 0.651-1.455 1.455s0.651 1.455 1.455 1.455zM8.301 0.429c-0.568-0.568-1.489-0.568-2.057 0l-5.091 5.091c-0.568 0.568-0.568 1.489 0 2.057s1.489 0.568 2.057 0l2.608-2.608v16.852c0 0.804 0.651 1.455 1.455 1.455s1.455-0.651 1.455-1.455v-16.852l2.608 2.608c0.284 0.284 0.656 0.426 1.028 0.426s0.744-0.142 1.028-0.426c0.568-0.568 0.568-1.489 0-2.057zM7.273 29.094c-0.804 0-1.455 0.651-1.455 1.455s0.651 1.455 1.455 1.455c0.804 0 1.455-0.651 1.455-1.455s-0.651-1.455-1.455-1.455zM7.273 24.73c-0.804 0-1.455 0.651-1.455 1.455s0.651 1.455 1.455 1.455c0.804 0 1.455-0.651 1.455-1.455s-0.651-1.455-1.455-1.455z"></path>
</svg>
