<!-- Generated by IcoMoon.io -->
<svg version="1.1" xmlns="http://www.w3.org/2000/svg" width="32" height="32" viewBox="0 0 32 32">
<title>upload</title>
<path d="M18.591 23.651h-5.024c-0.835 0-1.507-0.672-1.507-1.507v-10.551h-5.508c-1.118 0-1.677-1.35-0.886-2.142l9.553-9.559c0.471-0.471 1.244-0.471 1.715 0l9.559 9.559c0.791 0.791 0.232 2.142-0.886 2.142h-5.508v10.551c0 0.835-0.672 1.507-1.507 1.507zM32.157 23.148v7.034c0 0.835-0.672 1.507-1.507 1.507h-29.142c-0.835 0-1.507-0.672-1.507-1.507v-7.034c0-0.835 0.672-1.507 1.507-1.507h8.542v0.503c0 1.941 1.576 3.517 3.517 3.517h5.024c1.941 0 3.517-1.576 3.517-3.517v-0.503h8.542c0.835 0 1.507 0.672 1.507 1.507zM24.369 28.675c0-0.691-0.565-1.256-1.256-1.256s-1.256 0.565-1.256 1.256 0.565 1.256 1.256 1.256 1.256-0.565 1.256-1.256zM28.388 28.675c0-0.691-0.565-1.256-1.256-1.256s-1.256 0.565-1.256 1.256 0.565 1.256 1.256 1.256 1.256-0.565 1.256-1.256z"></path>
</svg>
