<!-- Generated by IcoMoon.io -->
<svg version="1.1" xmlns="http://www.w3.org/2000/svg" width="24" height="32" viewBox="0 0 24 32">
<title>ups</title>
<path d="M6.23 18.538c-0.327 0.226-2.047 0.823-2.047-1.193v-6.532h-2.054v6.444c0 4.704 5.037 3.209 6.149 2.449v-8.893h-2.047v7.725zM0 4.206v13.874c0 6.513 4.704 8.491 11.789 11.563 7.059-3.071 11.789-5.037 11.789-11.563v-13.874c-7.304-3.869-17.699-3.115-23.577 0zM22.491 18.080c0 5.439-3.341 7.135-10.702 10.382-7.38-3.253-10.708-4.943-10.708-10.382v-7.939c6.425-5.891 14.546-6.281 21.411-5.64v13.579zM9.327 11.334v13.365h2.054v-4.315c1.533 0.458 4.503-0.163 4.503-4.93 0-6.117-5.068-5.081-6.557-4.12zM11.38 18.701v-6.299c0.527-0.264 2.412-0.798 2.412 3.096 0 4.265-2.286 3.253-2.412 3.203zM16.348 13.275c0.006 2.971 3.241 2.669 3.278 4.422 0.038 1.476-1.909 1.445-3.191 0.308v1.89c2.274 1.35 5.144 0.509 5.225-2.104 0.107-3.235-3.398-2.927-3.354-4.597 0.038-1.275 1.922-1.287 3.046-0.138v-1.784c-1.79-1.382-5.018-0.578-5.006 2.003z"></path>
</svg>
