<!-- Generated by IcoMoon.io -->
<svg version="1.1" xmlns="http://www.w3.org/2000/svg" width="40" height="32" viewBox="0 0 40 32">
<title>usb</title>
<path d="M40.29 15.611c0 0.195-0.107 0.383-0.283 0.471l-5.596 3.36c-0.088 0.050-0.176 0.088-0.283 0.088-0.088 0-0.195-0.019-0.283-0.069-0.176-0.107-0.283-0.283-0.283-0.49v-2.236h-14.992c1.589 2.487 2.544 6.714 4.371 6.714h1.677v-1.683c0-0.314 0.245-0.559 0.559-0.559h5.596c0.314 0 0.559 0.245 0.559 0.559v5.596c0 0.314-0.245 0.559-0.559 0.559h-5.596c-0.314 0-0.559-0.245-0.559-0.559v-1.677h-1.677c-4.736 0-5.094-8.95-7.832-8.95h-6.299c-0.509 1.922-2.255 3.36-4.334 3.36-2.468-0.006-4.478-2.016-4.478-4.484s2.010-4.478 4.478-4.478c2.079 0 3.831 1.432 4.334 3.36 2.456 0 2.757 0.597 4.685-3.793 2.519-5.596 3.649-5.156 6.84-5.156 0.471-1.313 1.696-2.236 3.165-2.236 1.853 0 3.36 1.501 3.36 3.36s-1.501 3.36-3.36 3.36c-1.47 0-2.694-0.93-3.165-2.236h-1.872c-1.828 0-2.782 4.233-4.371 6.714h19.476v-2.236c0-0.207 0.107-0.383 0.283-0.49s0.402-0.088 0.559 0.019l5.596 3.36c0.176 0.069 0.283 0.258 0.283 0.452z"></path>
</svg>
