<!-- Generated by IcoMoon.io -->
<svg version="1.1" xmlns="http://www.w3.org/2000/svg" width="31" height="32" viewBox="0 0 31 32">
<title>user-circle1</title>
<path d="M15.576 0.035c-8.604 0-15.576 6.971-15.576 15.576s6.971 15.576 15.576 15.576 15.576-6.971 15.576-15.576-6.971-15.576-15.576-15.576zM15.576 6.065c3.052 0 5.527 2.475 5.527 5.527s-2.475 5.527-5.527 5.527-5.527-2.475-5.527-5.527 2.475-5.527 5.527-5.527zM15.576 27.67c-3.687 0-6.99-1.671-9.201-4.283 1.181-2.223 3.492-3.756 6.186-3.756 0.151 0 0.301 0.025 0.446 0.069 0.816 0.264 1.671 0.433 2.569 0.433s1.759-0.17 2.569-0.433c0.145-0.044 0.295-0.069 0.446-0.069 2.694 0 5.006 1.532 6.186 3.756-2.211 2.613-5.514 4.283-9.201 4.283z"></path>
</svg>
