<!-- Generated by IcoMoon.io -->
<svg version="1.1" xmlns="http://www.w3.org/2000/svg" width="28" height="32" viewBox="0 0 28 32">
<title>user-tie</title>
<path d="M14.069 15.611c4.44 0 8.039-3.599 8.039-8.039s-3.599-8.039-8.039-8.039-8.039 3.599-8.039 8.039 3.599 8.039 8.039 8.039zM20.085 17.659l-3.002 12.021-2.010-8.542 2.010-3.517h-6.029l2.010 3.517-2.010 8.542-3.002-12.021c-4.478 0.214-8.052 3.875-8.052 8.403v2.613c0 1.664 1.35 3.015 3.015 3.015h22.108c1.664 0 3.015-1.35 3.015-3.015v-2.613c0-4.528-3.574-8.19-8.052-8.403z"></path>
</svg>
