<!-- Generated by IcoMoon.io -->
<svg version="1.1" xmlns="http://www.w3.org/2000/svg" width="32" height="32" viewBox="0 0 32 32">
<title>user-alias</title>
<path d="M16 0.009c-8.828 0-16 7.172-16 16 0 8.42 6.526 15.329 14.789 15.95 0.016 0.001 0.033 0.003 0.049 0.004 0.384 0.028 0.77 0.046 1.162 0.046s0.777-0.018 1.162-0.046c0.016-0.001 0.033-0.003 0.049-0.004 8.263-0.621 14.789-7.529 14.789-15.95 0-8.828-7.172-16-16-16zM16 1.4c8.076 0 14.609 6.532 14.609 14.609 0 3.987-1.597 7.594-4.181 10.228-1.105-0.805-2.472-1.285-3.696-1.715-1.45-0.508-2.821-0.989-3.201-1.826-0.060-0.714-0.054-1.272-0.049-1.913l0.001-0.272c0.618-0.588 1.395-1.828 1.66-2.974 0.459-0.245 1.021-0.832 1.189-2.238 0.084-0.698-0.114-1.238-0.393-1.601 0.376-1.29 1.123-4.557-0.186-6.666-0.554-0.891-1.389-1.453-2.488-1.675-0.617-0.764-1.781-1.181-3.338-1.181-2.366 0.044-4.1 0.768-5.152 2.154-1.24 1.635-1.475 4.105-0.698 7.345-0.287 0.362-0.495 0.911-0.409 1.622 0.169 1.406 0.728 1.993 1.188 2.238 0.266 1.147 1.042 2.388 1.66 2.976l0.001 0.265c0.006 0.643 0.011 1.203-0.049 1.92-0.381 0.839-1.759 1.326-3.216 1.84-1.217 0.43-2.575 0.911-3.678 1.705-2.586-2.635-4.183-6.243-4.183-10.232 0-8.076 6.532-14.609 14.609-14.609z"></path>
</svg>
