<!-- Generated by IcoMoon.io -->
<svg version="1.1" xmlns="http://www.w3.org/2000/svg" width="40" height="32" viewBox="0 0 40 32">
<title>user-friends</title>
<path d="M12.059 15.611c3.888 0 7.034-3.147 7.034-7.034s-3.147-7.034-7.034-7.034-7.034 3.147-7.034 7.034 3.147 7.034 7.034 7.034zM16.882 17.621h-0.521c-1.306 0.628-2.757 1.005-4.302 1.005s-2.99-0.377-4.302-1.005h-0.521c-3.994 0-7.235 3.241-7.235 7.235v1.809c0 1.664 1.35 3.015 3.015 3.015h18.088c1.664 0 3.015-1.35 3.015-3.015v-1.809c0-3.994-3.241-7.235-7.235-7.235zM30.147 15.611c3.329 0 6.029-2.701 6.029-6.029s-2.701-6.029-6.029-6.029-6.029 2.701-6.029 6.029 2.701 6.029 6.029 6.029zM33.162 17.621h-0.239c-0.873 0.301-1.796 0.503-2.776 0.503s-1.903-0.201-2.776-0.503h-0.239c-1.281 0-2.462 0.371-3.498 0.967 1.532 1.652 2.493 3.844 2.493 6.268v2.412c0 0.138-0.031 0.27-0.038 0.402h11.092c1.664 0 3.015-1.35 3.015-3.015 0-3.888-3.147-7.034-7.034-7.034z"></path>
</svg>
