<!-- Generated by IcoMoon.io -->
<svg version="1.1" xmlns="http://www.w3.org/2000/svg" width="40" height="32" viewBox="0 0 40 32">
<title>users-cog</title>
<path d="M38.343 20.969c0.163-0.886 0.163-1.79 0-2.676l1.62-0.936c0.188-0.107 0.27-0.327 0.207-0.534-0.421-1.357-1.143-2.588-2.085-3.605-0.145-0.157-0.377-0.195-0.565-0.088l-1.62 0.936c-0.685-0.584-1.47-1.036-2.318-1.338v-1.872c0-0.214-0.151-0.402-0.358-0.446-1.401-0.314-2.826-0.301-4.158 0-0.207 0.044-0.358 0.232-0.358 0.446v1.872c-0.848 0.301-1.633 0.754-2.317 1.338l-1.62-0.936c-0.182-0.107-0.421-0.069-0.565 0.088-0.942 1.018-1.664 2.248-2.085 3.605-0.063 0.207 0.025 0.427 0.207 0.534l1.62 0.936c-0.163 0.886-0.163 1.79 0 2.676l-1.62 0.936c-0.188 0.107-0.27 0.327-0.207 0.534 0.421 1.357 1.143 2.581 2.085 3.605 0.145 0.157 0.377 0.195 0.565 0.088l1.62-0.936c0.685 0.584 1.47 1.036 2.317 1.338v1.872c0 0.214 0.151 0.402 0.358 0.446 1.401 0.314 2.826 0.301 4.158 0 0.207-0.044 0.358-0.232 0.358-0.446v-1.872c0.848-0.301 1.633-0.754 2.318-1.338l1.62 0.936c0.182 0.107 0.421 0.069 0.565-0.088 0.942-1.018 1.664-2.248 2.085-3.605 0.063-0.207-0.025-0.427-0.207-0.534l-1.62-0.936zM31.152 22.677c-1.683 0-3.046-1.369-3.046-3.046s1.369-3.046 3.046-3.046 3.046 1.369 3.046 3.046-1.363 3.046-3.046 3.046zM6.029 13.602c2.217 0 4.020-1.803 4.020-4.020s-1.803-4.020-4.020-4.020-4.020 1.803-4.020 4.020 1.803 4.020 4.020 4.020zM20.098 15.611c0.119 0 0.232-0.031 0.352-0.038 0.521-1.363 1.288-2.644 2.28-3.718 0.465-0.502 1.124-0.791 1.815-0.791 0.433 0 0.86 0.113 1.231 0.333l0.496 0.289c0.050-0.031 0.1-0.057 0.151-0.088 0.44-0.917 0.703-1.934 0.703-3.015 0-3.888-3.147-7.034-7.034-7.034s-7.028 3.14-7.028 7.028c0 3.888 3.147 7.034 7.034 7.034zM26.705 27.827c-0.145-0.075-0.289-0.163-0.427-0.245-0.515 0.301-0.961 0.615-1.727 0.615-0.685 0-1.344-0.289-1.815-0.791-1.149-1.244-2.029-2.757-2.525-4.371-0.672-2.167 1.564-3.121 1.62-3.159-0.006-0.163-0.006-0.327 0-0.49l-0.496-0.289c-0.239-0.138-0.44-0.314-0.615-0.509-0.207 0.012-0.408 0.038-0.615 0.038-1.545 0-2.99-0.377-4.302-1.005h-0.521c-4.001 0-7.242 3.241-7.242 7.235v1.809c0 1.664 1.35 3.015 3.015 3.015h16.041c-0.232-0.377-0.389-0.804-0.389-1.275v-0.578zM10.872 16.78c-0.729-0.722-1.727-1.168-2.833-1.168h-4.020c-2.217 0-4.020 1.802-4.020 4.020v2.010c0 1.112 0.898 2.010 2.010 2.010h4.139c0.396-2.977 2.192-5.483 4.723-6.871z"></path>
</svg>
