<!-- Generated by IcoMoon.io -->
<svg version="1.1" xmlns="http://www.w3.org/2000/svg" width="40" height="32" viewBox="0 0 40 32">
<title>user-check</title>
<path d="M14.069 15.611c4.44 0 8.039-3.599 8.039-8.039s-3.599-8.039-8.039-8.039-8.039 3.599-8.039 8.039 3.599 8.039 8.039 8.039zM19.696 17.621h-1.049c-1.394 0.641-2.946 1.005-4.579 1.005s-3.178-0.364-4.579-1.005h-1.049c-4.66 0-8.441 3.781-8.441 8.441v2.613c0 1.664 1.35 3.015 3.015 3.015h22.108c1.664 0 3.015-1.35 3.015-3.015v-2.613c0-4.66-3.781-8.441-8.441-8.441zM39.982 9.557l-1.746-1.765c-0.289-0.295-0.76-0.295-1.055-0.006l-6.582 6.532-2.858-2.877c-0.289-0.295-0.76-0.295-1.055-0.006l-1.765 1.752c-0.295 0.289-0.295 0.76-0.006 1.055l5.131 5.169c0.289 0.295 0.76 0.295 1.055 0.006l8.875-8.805c0.289-0.295 0.295-0.766 0.006-1.055z"></path>
</svg>
