<!-- Generated by IcoMoon.io -->
<svg version="1.1" xmlns="http://www.w3.org/2000/svg" width="32" height="32" viewBox="0 0 32 32">
<title>user-admin</title>
<path d="M17.208 6.898c-0.041-0.763-0.821-0.633-1.582-0.633 0.562 0.15 1.094 0.358 1.582 0.633zM9.071 4.985c-2.955 0-4.315 3.74-1.953 5.622 0.805-2.15 2.408-3.694 4.51-4.304-0.575-0.795-1.504-1.318-2.557-1.318zM2.966 10.021c0.12 0.386 0.276 0.757 0.462 1.108l-0.971 0.971c-0.261 0.261-0.261 0.684 0 0.945l1.711 1.712c0.125 0.125 0.295 0.195 0.473 0.195 0.176 0 0.346-0.070 0.472-0.195l0.97-0.971c0.146 0.077 0.307 0.124 0.458 0.191 0-0.011-0.001-0.023-0.001-0.034 0-0.794 0.091-1.542 0.253-2.246-1.171-0.753-1.952-2.061-1.952-3.555 0-2.333 1.897-4.231 4.229-4.231 1.579 0 2.942 0.879 3.67 2.163 0.777-0.096 1.507-0.096 2.385 0.070-0.113-0.342-0.246-0.676-0.413-0.99l0.971-0.972c0.127-0.125 0.197-0.295 0.197-0.472s-0.070-0.347-0.197-0.472l-1.71-1.71c-0.131-0.131-0.302-0.196-0.472-0.196s-0.341 0.065-0.471 0.196l-0.974 0.972c-0.352-0.186-0.721-0.342-1.109-0.46v-1.373c0-0.369-0.297-0.668-0.667-0.668h-2.42c-0.368 0-0.668 0.299-0.668 0.668v1.373c-0.386 0.118-0.756 0.274-1.109 0.46l-0.971-0.971c-0.131-0.131-0.302-0.196-0.472-0.196s-0.342 0.065-0.472 0.195l-1.712 1.71c-0.125 0.126-0.195 0.295-0.195 0.473s0.070 0.347 0.195 0.472l0.971 0.971c-0.185 0.352-0.341 0.722-0.46 1.108h-1.372c-0.37 0-0.668 0.299-0.668 0.669v2.42c0 0.368 0.298 0.668 0.668 0.668h1.37zM23.929 22.97c1.070-0.587 1.805-1.71 1.805-3.014 0-1.903-1.549-3.45-3.451-3.45-0.669 0-1.289 0.2-1.819 0.531-0.317 1.263-0.817 2.471-1.47 3.52 1.852 0.348 3.552 1.192 4.935 2.414zM31.071 18.65c0-0.398-0.324-0.721-0.721-0.721h-1.481c-0.128-0.417-0.297-0.817-0.498-1.197l1.048-1.048c0.136-0.135 0.212-0.318 0.212-0.509s-0.075-0.374-0.212-0.51l-1.845-1.846c-0.14-0.141-0.326-0.212-0.51-0.212s-0.369 0.071-0.509 0.212l-1.050 1.049c-0.379-0.201-0.778-0.37-1.197-0.497v-1.481c0-0.398-0.322-0.72-0.719-0.72h-2.61c-0.175 0-0.329 0.070-0.454 0.174 0.22 0.802 0.34 1.672 0.34 2.6 0 0.589-0.046 1.187-0.132 1.782 0.486-0.179 1.003-0.292 1.551-0.292 2.494 0 4.524 2.029 4.524 4.523 0 1.594-0.832 2.991-2.082 3.797 0.909 0.997 1.631 2.18 2.102 3.505 0.077 0.027 0.158 0.046 0.239 0.046 0.184 0 0.369-0.070 0.51-0.211l1.846-1.846c0.135-0.135 0.209-0.318 0.209-0.509s-0.074-0.374-0.209-0.51l-1.050-1.049c0.201-0.379 0.371-0.779 0.498-1.197h1.481c0.191 0 0.376-0.075 0.51-0.212 0.135-0.135 0.212-0.318 0.212-0.509l-0.001-2.61zM25.356 27.91c-1.119-3.294-4.078-5.559-7.492-5.868-1.143 1.211-2.559 1.979-4.163 1.979-1.602 0-3.019-0.768-4.161-1.979-3.417 0.308-6.375 2.574-7.495 5.868l-0.619 1.822c-0.177 0.524-0.092 1.102 0.23 1.551s0.842 0.717 1.395 0.717h21.298c0.554 0 1.073-0.267 1.396-0.717 0.321-0.45 0.407-1.027 0.229-1.551l-0.619-1.822zM8.148 13.943c0 4.086 2.487 8.469 5.553 8.469 3.067 0 5.554-4.384 5.554-8.469 0-8.469-11.107-8.486-11.107 0z"></path>
</svg>
