<!-- Generated by IcoMoon.io -->
<svg version="1.1" xmlns="http://www.w3.org/2000/svg" width="32" height="32" viewBox="0 0 32 32">
<title>user-alt</title>
<path d="M16.078 17.621c4.993 0 9.044-4.051 9.044-9.044s-4.051-9.044-9.044-9.044-9.044 4.051-9.044 9.044 4.051 9.044 9.044 9.044zM24.118 19.631h-3.461c-1.394 0.641-2.946 1.005-4.579 1.005s-3.178-0.364-4.579-1.005h-3.461c-4.44 0-8.039 3.599-8.039 8.039v1.005c0 1.664 1.35 3.015 3.015 3.015h26.127c1.664 0 3.015-1.35 3.015-3.015v-1.005c0-4.44-3.599-8.039-8.039-8.039z"></path>
</svg>
