<!-- Generated by IcoMoon.io -->
<svg version="1.1" xmlns="http://www.w3.org/2000/svg" width="40" height="32" viewBox="0 0 40 32">
<title>user-lock</title>
<path d="M20.098 19.631c0-0.697 0.195-1.344 0.509-1.916-0.301-0.031-0.597-0.094-0.911-0.094h-1.049c-1.394 0.641-2.946 1.005-4.579 1.005s-3.178-0.364-4.579-1.005h-1.049c-4.66 0-8.441 3.781-8.441 8.441v2.613c0 1.664 1.35 3.015 3.015 3.015h17.642c-0.345-0.597-0.559-1.275-0.559-2.010v-10.049zM14.069 15.611c4.44 0 8.039-3.599 8.039-8.039s-3.599-8.039-8.039-8.039-8.039 3.599-8.039 8.039 3.599 8.039 8.039 8.039zM38.186 17.621h-2.010v-3.015c0-2.776-2.248-5.024-5.024-5.024s-5.024 2.248-5.024 5.024v3.015h-2.010c-1.112 0-2.010 0.898-2.010 2.010v10.049c0 1.112 0.898 2.010 2.010 2.010h14.069c1.112 0 2.010-0.898 2.010-2.010v-10.049c0-1.112-0.898-2.010-2.010-2.010zM33.162 17.621h-4.020v-3.015c0-1.105 0.904-2.010 2.010-2.010s2.010 0.904 2.010 2.010v3.015z"></path>
</svg>
