<!-- Generated by IcoMoon.io -->
<svg version="1.1" xmlns="http://www.w3.org/2000/svg" width="32" height="32" viewBox="0 0 32 32">
<title>user-alias1</title>
<path d="M22.4 2.563c-3.090 0-4.265 0.41-4.52 0.52-0.758 0.263-1.883 0.655-2.38 1.64-0.045 0.088-0.158 0.325-0.9 2.28 0.283 0.085 0.71 0.24 1.18 0.48 0.612-1.615 0.805-2.070 0.86-2.18 0.27-0.535 1.12-0.822 1.74-1.040 0.010-0.005 0.992-0.42 4.020-0.42 3.025 0 4.020 0.42 4.020 0.42l0.1 0.040c0.337 0.098 1.363 0.393 1.6 0.94 0.15 0.35 0.605 1.527 1.1 2.82h-0.020l0.040 0.1c0.095 0.242 0.32 0.813 0.14 1.080-0.075 0.107-0.34 0.36-1.36 0.36h-10.26c0.005 0.015 0.012 0.025 0.020 0.040 0.038 0.092 0.093 0.2 0.14 0.32 0.010 0.023 0.010 0.055 0.020 0.080 0.050 0.13 0.117 0.277 0.18 0.44 0.010 0.023 0.010 0.037 0.020 0.060 0.075 0.193 0.15 0.405 0.24 0.64l0.14 0.36c0.4-0.018 0.843-0.020 1.32-0.020 2.925 0 4.32 0.35 4.92 0.58 0.332 0.098 0.945 0.295 1.56 0.66 0.16-0.35 0.535-0.6 0.98-0.6h1.42c0.392 0 0.72 0.287 0.72 0.64 0 0.418-0.33 0.61-0.74 0.82-0.468 0.238-0.68 0.387-1.020 0.44 0.080 0.13 0.155 0.252 0.22 0.4 0.245 0.563 1.145 2.91 1.84 4.74h0.98c0.705 0 1.28-0.575 1.28-1.28v-6.12l-0.040-0.1c-0.093-0.248-2.295-6.088-2.68-6.98-0.465-1.077-1.823-1.478-2.38-1.64-0.288-0.118-1.475-0.52-4.5-0.52zM9.6 7.683c-3.090 0-4.265 0.412-4.52 0.52-0.755 0.262-1.883 0.655-2.38 1.64-0.143 0.283-0.638 1.555-1.16 2.94h-0.020c-0.055 0.14-0.14 0.345-0.2 0.58-0.593 1.575-1.163 3.137-1.28 3.46l-0.040 0.1v6.12c0 0.705 0.575 1.28 1.28 1.28h2.56c0.705 0 1.28-0.575 1.28-1.28v-0.64h3.84v-0.58l0.080-0.22 0.040-0.1 0.020-0.060c0.152-0.415 0.685-1.88 1.24-3.36 0.072-0.262 0.155-0.473 0.22-0.64l0.34-0.82c0.402-1.055 0.613-1.595 0.74-1.9h-7.66c-0.728 0-1.237-0.14-1.4-0.38-0.103-0.152-0.070-0.377-0.020-0.6 0.615-1.637 1.152-3.068 1.28-3.32 0.27-0.535 1.12-0.822 1.74-1.040 0.010-0.005 0.992-0.42 4.020-0.42 3.025 0 4.020 0.42 4.020 0.42l0.1 0.040c0.338 0.098 1.365 0.393 1.6 0.94 0.088 0.2 0.283 0.713 0.58 1.48 0.345-0.070 0.775-0.145 1.3-0.2-0.31-0.807-0.602-1.508-0.72-1.78-0.465-1.078-1.822-1.498-2.38-1.66-0.29-0.12-1.475-0.52-4.5-0.52zM19.84 12.803c-3.090 0-4.265 0.412-4.52 0.52-0.755 0.262-1.883 0.655-2.38 1.64-0.143 0.283-0.637 1.555-1.16 2.94h-0.020c-0.055 0.14-0.14 0.345-0.2 0.58-0.59 1.575-1.162 3.137-1.28 3.46l-0.040 0.1v6.12c0 0.705 0.575 1.28 1.28 1.28h2.56c0.705 0 1.28-0.575 1.28-1.28v-0.64h8.96v0.64c0 0.705 0.575 1.28 1.28 1.28h2.56c0.705 0 1.28-0.575 1.28-1.28v-6.12l-0.040-0.1c-0.093-0.247-2.293-6.088-2.68-6.98-0.465-1.078-1.823-1.477-2.38-1.64-0.288-0.117-1.475-0.52-4.5-0.52zM19.84 14.083c3.025 0 4.020 0.42 4.020 0.42l0.1 0.040c0.337 0.098 1.363 0.393 1.6 0.94 0.15 0.35 0.605 1.528 1.1 2.82l0.020 0.1c0.095 0.242 0.32 0.813 0.14 1.080-0.073 0.108-0.34 0.36-1.36 0.36h-11.24c-0.728 0-1.235-0.142-1.4-0.38-0.102-0.152-0.070-0.38-0.020-0.6 0.615-1.64 1.152-3.067 1.28-3.32 0.27-0.535 1.12-0.822 1.74-1.040 0.010-0.005 0.992-0.42 4.020-0.42zM3.28 17.283h1.42c0.59 0 1.060 0.43 1.060 0.96s-0.47 0.96-1.060 0.96c-0.595 0-0.782-0.145-1.4-0.46-0.413-0.21-0.74-0.402-0.74-0.82 0-0.352 0.328-0.64 0.72-0.64zM13.52 22.403h1.42c0.59 0 1.060 0.43 1.060 0.96s-0.47 0.96-1.060 0.96c-0.595 0-0.783-0.145-1.4-0.46-0.412-0.21-0.74-0.402-0.74-0.82 0-0.355 0.328-0.64 0.72-0.64zM24.74 22.403h1.42c0.392 0 0.72 0.285 0.72 0.64 0 0.418-0.33 0.61-0.74 0.82-0.617 0.315-0.805 0.46-1.4 0.46-0.59 0-1.060-0.43-1.060-0.96s0.47-0.96 1.060-0.96z"></path>
</svg>
