<!-- Generated by IcoMoon.io -->
<svg version="1.1" xmlns="http://www.w3.org/2000/svg" width="40" height="32" viewBox="0 0 40 32">
<title>user-tag</title>
<path d="M39.605 22.451l-5.671-5.665c-0.754-0.754-1.777-1.175-2.845-1.175h-4.98c-1.112 0-2.010 0.898-2.010 2.010v4.974c0 1.068 0.421 2.085 1.175 2.839l5.671 5.665c0.785 0.785 2.060 0.785 2.845 0l5.81-5.81c0.791-0.785 0.791-2.054 0.006-2.839zM28.125 21.132c-0.835 0-1.507-0.672-1.507-1.507s0.672-1.507 1.507-1.507 1.507 0.672 1.507 1.507c0 0.829-0.672 1.507-1.507 1.507zM14.069 15.605c4.44 0 8.039-3.599 8.039-8.039 0-4.434-3.599-8.033-8.039-8.033s-8.039 3.599-8.039 8.039c0 4.434 3.599 8.033 8.039 8.033zM22.095 22.589v-4.591c-0.766-0.226-1.564-0.389-2.399-0.389h-1.049c-1.394 0.641-2.946 1.005-4.579 1.005s-3.178-0.364-4.579-1.005h-1.049c-4.66 0.006-8.441 3.787-8.441 8.447v2.613c0 1.664 1.35 3.015 3.015 3.015h22.108c0.973 0 1.828-0.471 2.38-1.187l-3.643-3.643c-1.137-1.137-1.765-2.65-1.765-4.265z"></path>
</svg>
