<!-- Generated by IcoMoon.io -->
<svg version="1.1" xmlns="http://www.w3.org/2000/svg" width="40" height="32" viewBox="0 0 40 32">
<title>user-times</title>
<path d="M37.030 14.606l2.864-2.864c0.396-0.396 0.396-1.036 0-1.432l-1.432-1.432c-0.396-0.396-1.036-0.396-1.432 0l-2.864 2.864-2.864-2.864c-0.396-0.396-1.036-0.396-1.432 0l-1.432 1.432c-0.396 0.396-0.396 1.036 0 1.432l2.864 2.864-2.864 2.864c-0.396 0.396-0.396 1.036 0 1.432l1.432 1.432c0.396 0.396 1.036 0.396 1.432 0l2.864-2.864 2.864 2.864c0.396 0.396 1.036 0.396 1.432 0l1.432-1.432c0.396-0.396 0.396-1.036 0-1.432l-2.864-2.864zM14.069 15.611c4.44 0 8.039-3.599 8.039-8.039s-3.599-8.039-8.039-8.039-8.039 3.599-8.039 8.039 3.599 8.039 8.039 8.039zM19.696 17.621h-1.049c-1.394 0.641-2.946 1.005-4.579 1.005s-3.178-0.364-4.579-1.005h-1.049c-4.66 0-8.441 3.781-8.441 8.441v2.613c0 1.664 1.35 3.015 3.015 3.015h22.108c1.664 0 3.015-1.35 3.015-3.015v-2.613c0-4.66-3.781-8.441-8.441-8.441z"></path>
</svg>
