<!-- Generated by IcoMoon.io -->
<svg version="1.1" xmlns="http://www.w3.org/2000/svg" width="40" height="32" viewBox="0 0 40 32">
<title>user-slash</title>
<path d="M39.806 28.304l-17.052-13.177c3.128-1.105 5.383-4.051 5.383-7.556 0-4.44-3.599-8.039-8.039-8.039-4.214 0-7.631 3.253-7.97 7.373l-9.27-7.16c-0.44-0.339-1.068-0.264-1.413 0.176l-1.231 1.583c-0.339 0.44-0.264 1.068 0.176 1.407l36.955 28.558c0.44 0.339 1.068 0.264 1.413-0.176l1.231-1.589c0.339-0.427 0.258-1.061-0.182-1.401zM6.029 26.062v2.613c0 1.664 1.35 3.015 3.015 3.015h21.995l-18.013-13.924c-3.969 0.691-6.997 4.126-6.997 8.297z"></path>
</svg>
