<!-- Generated by IcoMoon.io -->
<svg version="1.1" xmlns="http://www.w3.org/2000/svg" width="28" height="32" viewBox="0 0 28 32">
<title>user-astronaut</title>
<path d="M4.020 13.602h0.848c1.551 3.549 5.081 6.029 9.201 6.029s7.65-2.481 9.201-6.029h0.848c0.553 0 1.005-0.452 1.005-1.005v-6.029c0-0.553-0.452-1.005-1.005-1.005h-0.848c-1.551-3.549-5.081-6.029-9.201-6.029s-7.65 2.481-9.201 6.029h-0.848c-0.553 0-1.005 0.452-1.005 1.005v6.029c0 0.553 0.452 1.005 1.005 1.005zM6.532 8.075c0-1.388 1.35-2.512 3.015-2.512h9.044c1.664 0 3.015 1.124 3.015 2.512v1.507c0 3.329-2.701 6.029-6.029 6.029h-3.015c-3.329 0-6.029-2.701-6.029-6.029v-1.507zM11.054 12.597l0.754-2.261 2.261-0.754-2.261-0.754-0.754-2.261-0.754 2.261-2.261 0.754 2.261 0.754 0.754 2.261zM20.575 19.719c-1.878 1.212-4.107 1.922-6.507 1.922s-4.629-0.71-6.507-1.922c-4.239 0.446-7.562 3.994-7.562 8.353v0.603c0 1.664 1.35 3.015 3.015 3.015h5.024v-4.020c0-1.112 0.898-2.010 2.010-2.010h8.039c1.112 0 2.010 0.898 2.010 2.010v4.020h5.024c1.664 0 3.015-1.35 3.015-3.015v-0.603c0-4.359-3.322-7.907-7.562-8.353zM17.083 27.67c-0.553 0-1.005 0.452-1.005 1.005s0.452 1.005 1.005 1.005 1.005-0.452 1.005-1.005-0.452-1.005-1.005-1.005zM11.054 27.67c-0.553 0-1.005 0.452-1.005 1.005v3.015h2.010v-3.015c0-0.553-0.452-1.005-1.005-1.005z"></path>
</svg>
