<!-- Generated by IcoMoon.io -->
<svg version="1.1" xmlns="http://www.w3.org/2000/svg" width="40" height="32" viewBox="0 0 40 32">
<title>user-cog</title>
<path d="M38.343 22.979c0.163-0.886 0.163-1.79 0-2.676l1.62-0.936c0.188-0.107 0.27-0.327 0.207-0.534-0.421-1.357-1.143-2.588-2.085-3.605-0.145-0.157-0.377-0.195-0.565-0.088l-1.62 0.936c-0.685-0.584-1.47-1.036-2.318-1.338v-1.872c0-0.214-0.151-0.402-0.358-0.446-1.401-0.314-2.826-0.301-4.158 0-0.207 0.044-0.358 0.232-0.358 0.446v1.872c-0.848 0.301-1.633 0.754-2.317 1.338l-1.62-0.936c-0.182-0.107-0.421-0.069-0.565 0.088-0.942 1.018-1.664 2.248-2.085 3.605-0.063 0.207 0.025 0.427 0.207 0.534l1.62 0.936c-0.163 0.886-0.163 1.79 0 2.676l-1.62 0.936c-0.188 0.107-0.27 0.327-0.207 0.534 0.421 1.357 1.143 2.581 2.085 3.605 0.145 0.157 0.377 0.195 0.565 0.088l1.62-0.936c0.685 0.584 1.47 1.036 2.317 1.338v1.872c0 0.214 0.151 0.402 0.358 0.446 1.401 0.314 2.826 0.301 4.158 0 0.207-0.044 0.358-0.232 0.358-0.446v-1.872c0.848-0.301 1.633-0.754 2.318-1.338l1.62 0.936c0.182 0.107 0.421 0.069 0.565-0.088 0.942-1.018 1.664-2.248 2.085-3.605 0.063-0.207-0.025-0.427-0.207-0.534l-1.62-0.936zM31.152 24.687c-1.683 0-3.046-1.369-3.046-3.046s1.369-3.046 3.046-3.046 3.046 1.369 3.046 3.046-1.363 3.046-3.046 3.046zM14.069 15.611c4.44 0 8.039-3.599 8.039-8.039s-3.599-8.039-8.039-8.039-8.039 3.599-8.039 8.039 3.599 8.039 8.039 8.039zM26.705 29.837c-0.145-0.075-0.289-0.163-0.427-0.245l-0.496 0.289c-0.377 0.214-0.804 0.333-1.231 0.333-0.685 0-1.344-0.289-1.815-0.791-1.149-1.244-2.029-2.757-2.525-4.371-0.345-1.112 0.119-2.286 1.124-2.87l0.496-0.289c-0.006-0.163-0.006-0.327 0-0.49l-0.496-0.289c-1.005-0.578-1.47-1.759-1.124-2.87 0.057-0.182 0.138-0.364 0.201-0.546-0.239-0.019-0.471-0.075-0.716-0.075h-1.049c-1.394 0.641-2.946 1.005-4.579 1.005s-3.178-0.364-4.579-1.005h-1.049c-4.66 0-8.441 3.781-8.441 8.441v2.613c0 1.664 1.35 3.015 3.015 3.015h22.108c0.634 0 1.225-0.201 1.708-0.534-0.075-0.239-0.126-0.484-0.126-0.741v-0.578z"></path>
</svg>
