<!-- Generated by IcoMoon.io -->
<svg version="1.1" xmlns="http://www.w3.org/2000/svg" width="31" height="32" viewBox="0 0 31 32">
<title>user-circle</title>
<path d="M15.576 6.065c-3.329 0-6.029 2.701-6.029 6.029s2.701 6.029 6.029 6.029 6.029-2.701 6.029-6.029-2.701-6.029-6.029-6.029zM15.576 15.109c-1.664 0-3.015-1.35-3.015-3.015s1.35-3.015 3.015-3.015 3.015 1.35 3.015 3.015-1.35 3.015-3.015 3.015zM15.576 0.035c-8.604 0-15.576 6.971-15.576 15.576s6.971 15.576 15.576 15.576 15.576-6.971 15.576-15.576-6.971-15.576-15.576-15.576zM15.576 28.173c-3.121 0-5.973-1.149-8.171-3.040 0.936-1.445 2.537-2.424 4.371-2.481 1.306 0.402 2.55 0.603 3.8 0.603s2.493-0.195 3.8-0.603c1.834 0.063 3.435 1.036 4.371 2.481-2.198 1.89-5.050 3.040-8.171 3.040zM25.794 22.891c-1.532-1.972-3.9-3.26-6.601-3.26-0.641 0-1.633 0.603-3.618 0.603-1.978 0-2.977-0.603-3.618-0.603-2.694 0-5.062 1.288-6.601 3.26-1.47-2.054-2.343-4.566-2.343-7.279 0-6.928 5.634-12.561 12.561-12.561s12.561 5.634 12.561 12.561c0 2.713-0.873 5.225-2.343 7.279z"></path>
</svg>
