<!-- Generated by IcoMoon.io -->
<svg version="1.1" xmlns="http://www.w3.org/2000/svg" width="40" height="32" viewBox="0 0 40 32">
<title>user-edit</title>
<path d="M14.069 15.611c4.44 0 8.039-3.599 8.039-8.039s-3.599-8.039-8.039-8.039-8.039 3.599-8.039 8.039 3.599 8.039 8.039 8.039zM19.696 17.621h-1.049c-1.394 0.641-2.946 1.005-4.579 1.005s-3.178-0.364-4.579-1.005h-1.049c-4.66 0-8.441 3.781-8.441 8.441v2.613c0 1.664 1.35 3.015 3.015 3.015h17.265c-0.151-0.427-0.214-0.879-0.163-1.338l0.427-3.825 0.075-0.697 5.351-5.351c-1.539-1.74-3.768-2.858-6.274-2.858zM22.541 26.747l-0.427 3.831c-0.069 0.641 0.471 1.181 1.105 1.105l3.825-0.427 8.661-8.661-4.503-4.503-8.661 8.655zM39.756 16.422l-2.38-2.38c-0.584-0.584-1.539-0.584-2.123 0l-2.632 2.632 4.51 4.503 2.625-2.625c0.584-0.59 0.584-1.539 0-2.129z"></path>
</svg>
