<!-- Generated by IcoMoon.io -->
<svg version="1.1" xmlns="http://www.w3.org/2000/svg" width="28" height="32" viewBox="0 0 28 32">
<title>user-md</title>
<path d="M14.069 15.611c4.44 0 8.039-3.599 8.039-8.039s-3.599-8.039-8.039-8.039-8.039 3.599-8.039 8.039 3.599 8.039 8.039 8.039zM6.532 26.163c0 0.835 0.672 1.507 1.507 1.507s1.507-0.672 1.507-1.507-0.672-1.507-1.507-1.507-1.507 0.672-1.507 1.507zM20.098 17.659v3.078c2.292 0.465 4.020 2.5 4.020 4.924v2.619c0 0.477-0.339 0.892-0.81 0.986l-2.022 0.402c-0.27 0.057-0.534-0.119-0.59-0.396l-0.195-0.986c-0.057-0.27 0.119-0.54 0.396-0.59l1.212-0.245v-1.79c0-3.944-6.029-4.089-6.029 0.119v1.677l1.212 0.245c0.27 0.057 0.446 0.32 0.396 0.59l-0.195 0.986c-0.057 0.27-0.32 0.446-0.59 0.396l-1.96-0.264c-0.496-0.069-0.867-0.49-0.867-0.999v-2.751c0-2.424 1.727-4.453 4.020-4.924v-2.839c-0.138 0.044-0.276 0.069-0.415 0.119-1.13 0.396-2.343 0.615-3.605 0.615s-2.475-0.22-3.605-0.615c-0.465-0.163-0.936-0.264-1.419-0.327v5.125c1.451 0.433 2.512 1.765 2.512 3.354 0 1.941-1.576 3.517-3.517 3.517s-3.517-1.576-3.517-3.517c0-1.589 1.061-2.92 2.512-3.354v-5.050c-3.994 0.672-7.041 4.114-7.041 8.297v2.814c0 1.551 1.262 2.814 2.814 2.814h22.51c1.551 0 2.814-1.262 2.814-2.814v-2.814c0-4.522-3.567-8.184-8.039-8.403z"></path>
</svg>
