<!-- Generated by IcoMoon.io -->
<svg version="1.1" xmlns="http://www.w3.org/2000/svg" width="32" height="32" viewBox="0 0 32 32">
<title>user2</title>
<path d="M16.002 0c-4.571 0-8.308 3.737-8.308 8.308s3.737 8.308 8.308 8.308 8.308-3.737 8.308-8.308-3.737-8.308-8.308-8.308zM30.261 23.256c-0.218-0.544-0.508-1.052-0.834-1.524-1.669-2.467-4.245-4.1-7.147-4.499-0.363-0.036-0.762 0.036-1.052 0.254-1.524 1.125-3.338 1.705-5.224 1.705s-3.701-0.581-5.224-1.705c-0.29-0.218-0.689-0.327-1.052-0.254-2.902 0.399-5.515 2.032-7.147 4.499-0.327 0.472-0.617 1.016-0.834 1.524-0.109 0.218-0.073 0.472 0.036 0.689 0.29 0.508 0.653 1.016 0.98 1.451 0.508 0.689 1.052 1.306 1.669 1.887 0.508 0.508 1.088 0.98 1.669 1.451 2.866 2.141 6.313 3.265 9.868 3.265s7.002-1.125 9.868-3.265c0.581-0.435 1.161-0.943 1.669-1.451 0.581-0.581 1.161-1.197 1.669-1.887 0.363-0.472 0.689-0.943 0.98-1.451 0.181-0.218 0.218-0.472 0.109-0.689z"></path>
</svg>
