<!-- Generated by IcoMoon.io -->
<svg version="1.1" xmlns="http://www.w3.org/2000/svg" width="40" height="32" viewBox="0 0 40 32">
<title>user-shield</title>
<path d="M39.084 16.56l-7.235-2.826c-0.258-0.1-0.791-0.232-1.394 0l-7.235 2.826c-0.672 0.264-1.112 0.879-1.112 1.564 0 7.009 4.315 11.858 8.347 13.434 0.603 0.232 1.13 0.1 1.394 0 3.222-1.256 8.347-5.615 8.347-13.434 0-0.685-0.44-1.3-1.112-1.564zM31.152 28.575v-11.877l5.998 2.343c-0.352 5.47-3.825 8.504-5.998 9.534zM14.069 15.611c4.44 0 8.039-3.599 8.039-8.039s-3.599-8.039-8.039-8.039-8.039 3.599-8.039 8.039 3.599 8.039 8.039 8.039zM20.098 18.124c0-0.157 0.050-0.301 0.069-0.452-0.157-0.006-0.308-0.050-0.471-0.050h-1.049c-1.394 0.641-2.946 1.005-4.579 1.005s-3.178-0.364-4.579-1.005h-1.049c-4.66 0-8.441 3.781-8.441 8.441v2.613c0 1.664 1.35 3.015 3.015 3.015h22.108c0.427 0 0.835-0.094 1.206-0.251-3.392-2.694-6.23-7.329-6.23-13.315z"></path>
</svg>
