<!-- Generated by IcoMoon.io -->
<svg version="1.1" xmlns="http://www.w3.org/2000/svg" width="28" height="32" viewBox="0 0 28 32">
<title>user</title>
<path d="M19.696 18.626c-1.802 0-2.669 1.005-5.627 1.005s-3.819-1.005-5.627-1.005c-4.66 0-8.441 3.781-8.441 8.441v1.608c0 1.664 1.35 3.015 3.015 3.015h22.108c1.664 0 3.015-1.35 3.015-3.015v-1.608c0-4.66-3.781-8.441-8.441-8.441zM25.122 28.675h-22.108v-1.608c0-2.99 2.437-5.426 5.426-5.426 0.917 0 2.405 1.005 5.627 1.005 3.247 0 4.704-1.005 5.627-1.005 2.99 0 5.426 2.437 5.426 5.426v1.608zM14.069 17.621c4.993 0 9.044-4.051 9.044-9.044s-4.051-9.044-9.044-9.044-9.044 4.051-9.044 9.044 4.051 9.044 9.044 9.044zM14.069 2.548c3.322 0 6.029 2.707 6.029 6.029s-2.707 6.029-6.029 6.029-6.029-2.707-6.029-6.029 2.707-6.029 6.029-6.029z"></path>
</svg>
