<!-- Generated by IcoMoon.io -->
<svg version="1.1" xmlns="http://www.w3.org/2000/svg" width="28" height="32" viewBox="0 0 28 32">
<title>user-injured</title>
<path d="M17.421 0.285c-1.023-0.472-2.152-0.752-3.352-0.752-3.372 0-6.249 2.081-7.443 5.024h5.099l5.696-4.272zM21.512 4.557c-0.496-1.223-1.298-2.274-2.292-3.11l-4.147 3.11h6.439zM14.069 15.611c4.44 0 8.039-3.599 8.039-8.039 0-0.344-0.060-0.672-0.101-1.005h-15.876c-0.042 0.333-0.101 0.661-0.101 1.005 0 4.44 3.599 8.039 8.039 8.039zM5.024 18.356v13.334h8.056l-6.183-13.913c-0.707 0.132-1.334 0.333-1.925 0.6l0.053-0.021zM0 28.675c0 1.665 1.35 3.015 3.015 3.015v-12.044c-1.829 1.548-3.015 3.832-3.015 6.416v2.613zM16.078 25.66h-3.478l2.68 6.029h0.798c1.663 0 3.015-1.352 3.015-3.015s-1.352-3.015-3.015-3.015zM19.696 17.621h-1.050c-1.397 0.639-2.944 1.005-4.578 1.005s-3.181-0.365-4.578-1.005h-0.463l2.68 6.029h4.371c2.77 0 5.024 2.254 5.024 5.024 0 1.135-0.393 2.172-1.031 3.015h5.050c1.665 0 3.015-1.35 3.015-3.015v-2.613c0-4.662-3.779-8.441-8.441-8.441z"></path>
</svg>
