<!-- Generated by IcoMoon.io -->
<svg version="1.1" xmlns="http://www.w3.org/2000/svg" width="40" height="32" viewBox="0 0 40 32">
<title>user-clock</title>
<path d="M31.152 13.602c-4.999 0-9.044 4.045-9.044 9.044s4.045 9.044 9.044 9.044 9.044-4.045 9.044-9.044-4.045-9.044-9.044-9.044zM35.171 23.041c0 0.333-0.276 0.609-0.609 0.609h-3.806c-0.333 0-0.609-0.276-0.609-0.609v-4.811c0-0.333 0.276-0.609 0.609-0.609h0.791c0.333 0 0.609 0.276 0.609 0.609v3.41h2.405c0.333 0 0.609 0.276 0.609 0.609v0.791zM20.098 22.646c0-1.746 0.421-3.398 1.143-4.867-0.503-0.094-1.018-0.157-1.545-0.157h-1.049c-1.394 0.641-2.946 1.005-4.579 1.005s-3.178-0.364-4.579-1.005h-1.049c-4.66 0-8.441 3.781-8.441 8.441v2.613c0 1.664 1.35 3.015 3.015 3.015h21.8c-2.845-2.003-4.717-5.307-4.717-9.044zM14.069 15.611c4.44 0 8.039-3.599 8.039-8.039s-3.599-8.039-8.039-8.039-8.039 3.599-8.039 8.039 3.599 8.039 8.039 8.039z"></path>
</svg>
