<!-- Generated by IcoMoon.io -->
<svg version="1.1" xmlns="http://www.w3.org/2000/svg" width="28" height="32" viewBox="0 0 28 32">
<title>user-graduate</title>
<path d="M20.060 19.669l-5.992 5.992-5.992-5.992c-4.491 0.195-8.077 3.869-8.077 8.403v0.603c0 1.664 1.35 3.015 3.015 3.015h22.108c1.664 0 3.015-1.35 3.015-3.015v-0.603c0-4.535-3.586-8.209-8.077-8.403zM0.854 4.545l0.402 0.094v3.668c-0.44 0.264-0.754 0.722-0.754 1.275 0 0.527 0.289 0.967 0.697 1.237l-0.98 3.913c-0.107 0.433 0.132 0.879 0.477 0.879h2.625c0.345 0 0.584-0.446 0.477-0.879l-0.98-3.913c0.408-0.27 0.697-0.71 0.697-1.237 0-0.553-0.314-1.011-0.754-1.275v-3.304l4.145 0.999c-0.54 1.080-0.879 2.286-0.879 3.58 0 4.44 3.599 8.039 8.039 8.039s8.039-3.599 8.039-8.039c0-1.294-0.333-2.5-0.879-3.58l6.048-1.457c1.143-0.276 1.143-1.702 0-1.978l-11.958-2.889c-0.816-0.195-1.677-0.195-2.493 0l-11.971 2.883c-1.137 0.276-1.137 1.708 0 1.985z"></path>
</svg>
