<!-- Generated by IcoMoon.io -->
<svg version="1.1" xmlns="http://www.w3.org/2000/svg" width="40" height="32" viewBox="0 0 40 32">
<title>user-alt-slash</title>
<path d="M39.806 28.304l-15.337-11.858c2.776-1.545 4.673-4.472 4.673-7.87 0-4.993-4.051-9.044-9.044-9.044-4.214 0-7.725 2.895-8.73 6.796l-8.51-6.582c-0.44-0.339-1.068-0.264-1.413 0.176l-1.231 1.583c-0.339 0.44-0.264 1.068 0.176 1.407l36.955 28.558c0.44 0.339 1.068 0.264 1.413-0.176l1.231-1.589c0.339-0.427 0.258-1.061-0.182-1.401zM12.461 19.631c-4.66 0-8.441 3.781-8.441 8.441v0.603c0 1.664 1.35 3.015 3.015 3.015h24.004l-15.601-12.059h-2.977z"></path>
</svg>
