<!-- Generated by IcoMoon.io -->
<svg version="1.1" xmlns="http://www.w3.org/2000/svg" width="40" height="32" viewBox="0 0 40 32">
<title>users</title>
<path d="M6.029 13.602c2.217 0 4.020-1.803 4.020-4.020s-1.803-4.020-4.020-4.020-4.020 1.803-4.020 4.020 1.803 4.020 4.020 4.020zM34.167 13.602c2.217 0 4.020-1.803 4.020-4.020s-1.803-4.020-4.020-4.020-4.020 1.803-4.020 4.020 1.802 4.020 4.020 4.020zM36.176 15.611h-4.020c-1.105 0-2.104 0.446-2.833 1.168 2.531 1.388 4.327 3.894 4.717 6.871h4.145c1.112 0 2.010-0.898 2.010-2.010v-2.010c0-2.217-1.803-4.020-4.020-4.020zM20.098 15.611c3.888 0 7.034-3.147 7.034-7.034s-3.147-7.034-7.034-7.034-7.034 3.147-7.034 7.034 3.147 7.034 7.034 7.034zM24.921 17.621h-0.521c-1.306 0.628-2.757 1.005-4.302 1.005s-2.99-0.377-4.302-1.005h-0.521c-3.994 0-7.235 3.241-7.235 7.235v1.809c0 1.664 1.35 3.015 3.015 3.015h18.088c1.664 0 3.015-1.35 3.015-3.015v-1.809c0-3.994-3.241-7.235-7.235-7.235zM10.872 16.78c-0.729-0.722-1.727-1.168-2.833-1.168h-4.020c-2.217 0-4.020 1.802-4.020 4.020v2.010c0 1.112 0.898 2.010 2.010 2.010h4.139c0.396-2.977 2.192-5.483 4.723-6.871z"></path>
</svg>
