<!-- Generated by IcoMoon.io -->
<svg version="1.1" xmlns="http://www.w3.org/2000/svg" width="28" height="32" viewBox="0 0 28 32">
<title>user-ninja</title>
<path d="M20.437 17.697l-6.369 6.369-6.369-6.369c-4.309 0.383-7.7 3.957-7.7 8.366v2.613c0 1.664 1.35 3.015 3.015 3.015h22.108c1.664 0 3.015-1.35 3.015-3.015v-2.613c0-4.409-3.392-7.983-7.7-8.366zM2.010 11.592c1.715 0 3.253-0.722 4.346-1.865 0.948 3.385 4.020 5.885 7.713 5.885 4.44 0 8.039-3.599 8.039-8.039s-3.599-8.039-8.039-8.039c-3.165 0-5.879 1.847-7.191 4.51-1.093-1.507-2.858-2.5-4.867-2.5 0 2.098 1.074 3.944 2.707 5.024-1.633 1.080-2.707 2.927-2.707 5.024zM11.054 5.562h6.029c1.112 0 2.010 0.898 2.010 2.010h-10.049c0-1.112 0.898-2.010 2.010-2.010z"></path>
</svg>
