<!-- Generated by IcoMoon.io -->
<svg version="1.1" xmlns="http://www.w3.org/2000/svg" width="28" height="32" viewBox="0 0 28 32">
<title>user-secret</title>
<path d="M24.111 18.896l1.501-3.932c0.251-0.66-0.232-1.363-0.942-1.363h-3.674c0.691-1.187 1.118-2.55 1.118-4.020v-0.019c2.462-0.49 4.020-1.2 4.020-1.991 0-0.835-1.715-1.576-4.403-2.073-0.578-2.060-1.696-4.133-2.55-5.2-0.597-0.747-1.627-0.98-2.481-0.553l-1.733 0.867c-0.565 0.283-1.231 0.283-1.796 0l-1.733-0.867c-0.854-0.427-1.884-0.195-2.481 0.553-0.848 1.068-1.972 3.14-2.55 5.2-2.682 0.496-4.396 1.237-4.396 2.073 0 0.791 1.558 1.501 4.020 1.991v0.019c0 1.47 0.427 2.833 1.118 4.020h-3.611c-0.722 0-1.206 0.735-0.923 1.401l1.62 3.781c-2.519 1.463-4.233 4.158-4.233 7.279v2.814c0 1.551 1.262 2.814 2.814 2.814h22.51c1.551 0 2.814-1.262 2.814-2.814v-2.814c0-3.040-1.62-5.678-4.026-7.166zM11.054 29.68l-2.613-12.059 3.115 2.010 1.507 2.512-2.010 7.537zM17.083 29.68l-2.010-7.537 1.507-2.512 3.115-2.010-2.613 12.059zM19.702 10.932c-0.245 0.747-0.44 1.545-1.036 2.098-0.634 0.584-3.015 1.407-4.020-1.57-0.176-0.527-0.967-0.527-1.149 0-1.068 3.153-3.517 2.035-4.020 1.57-0.597-0.553-0.798-1.35-1.036-2.098-0.050-0.157-0.396-0.358-0.396-0.364v-0.678c1.777 0.226 3.831 0.364 6.029 0.364s4.252-0.132 6.029-0.364v0.678c-0.006 0.006-0.352 0.201-0.402 0.364z"></path>
</svg>
