<!-- Generated by IcoMoon.io -->
<svg version="1.1" xmlns="http://www.w3.org/2000/svg" width="33" height="32" viewBox="0 0 33 32">
<title>usps</title>
<path d="M27.214 14.72c1.62-2.594 0.955-3.065-0.735-3.065h-1.696c-0.006 0-0.094-0.088-0.685 0.502-0.703 0.352-2.38 0.396-2.38 0.546 0 0.283 4.415-0.195 5.533 0 0.597 0.094-0.094 1.281-0.276 2.010-0.031 0.283 0.151 0.145 0.239 0.006zM20.173 16.139c4.020-1.338 6.111-1.501 6.406-1.645 0.276-0.182-0.276-0.415-1.645-0.364-3.247 0.138-8.642 2.33-10.84 3.385l-1.928-5.86h12.348c-0.17-1.771-9.603-1.419-21.222-1.419l-3.291 15.419c12.335-6.111 16.261-8.184 20.173-9.515zM4.252 5.569c15.909 3.373 20.726 4.126 20.858 5.351 2.286 0 2.883 0 3.291 0.415 1.325 1.237-0.917 4.252-0.917 4.252-0.276 0.182-25.524 10.062-25.524 10.062h26.573l4.252-20.079h-28.533z"></path>
</svg>
