<!-- Generated by IcoMoon.io -->
<svg version="1.1" xmlns="http://www.w3.org/2000/svg" width="32" height="32" viewBox="0 0 32 32">
<title>ussunnah</title>
<path d="M9.848 17.439l0.358 0.904h-0.515c-0.082-0.201-0.195-0.484-0.239-0.597-0.157-0.396-0.069-0.527 0-0.628 0.119-0.17 0.201-0.276 0.226-0.327 0 0.138 0.050 0.358 0.17 0.647zM28.52 18.62c-0.132 0.867-0.358 1.702-0.66 2.493l2.701 1.47-2.814-1.181c-0.333 0.829-0.754 1.608-1.25 2.336l2.148 1.897-2.311-1.658c-0.527 0.741-1.13 1.419-1.802 2.029l1.564 2.179-1.765-1.997c-0.691 0.603-1.451 1.13-2.267 1.576l0.986 2.336-1.212-2.217c-0.823 0.427-1.696 0.76-2.613 0.999l0.421 2.412-0.66-2.349c-0.898 0.214-1.834 0.333-2.795 0.339l-0.113 2.405-0.119-2.412c-0.961-0.006-1.897-0.126-2.795-0.333l-0.666 2.343 0.421-2.399c-0.917-0.232-1.796-0.572-2.619-0.992l-1.206 2.205 0.98-2.324c-0.816-0.44-1.583-0.967-2.274-1.576l-1.752 1.985 1.551-2.16c-0.672-0.609-1.281-1.288-1.809-2.029l-2.292 1.645 2.129-1.878c-0.496-0.729-0.917-1.514-1.256-2.343l-2.789 1.175 2.676-1.457c-0.301-0.798-0.527-1.639-0.66-2.506l-3.203 0.565 3.159-0.892c-0.069-0.534-0.107-1.074-0.107-1.627 0-0.295 0.013-0.59 0.031-0.886l-3.479-0.182 3.517-0.176c0.082-0.823 0.239-1.62 0.471-2.393l-3.586-1.011 3.699 0.653c0.251-0.754 0.572-1.476 0.955-2.16l-3.461-1.884 3.662 1.545c0.396-0.666 0.848-1.281 1.357-1.859l-3.109-2.738 3.385 2.431c0.509-0.54 1.068-1.036 1.671-1.482l-2.512-3.492 2.864 3.241c0.597-0.415 1.237-0.772 1.903-1.080l-1.715-4.076 2.123 3.9c0.66-0.276 1.344-0.496 2.054-0.653l-0.779-4.44 1.225 4.346c0.691-0.132 1.401-0.201 2.123-0.214l0.232-4.535 0.226 4.535c0.722 0.013 1.432 0.088 2.123 0.22l1.231-4.352-0.779 4.44c0.71 0.163 1.394 0.383 2.047 0.66l2.129-3.907-1.721 4.089c0.666 0.308 1.3 0.672 1.897 1.080l2.877-3.253-2.519 3.511c0.597 0.446 1.156 0.942 1.664 1.482l3.404-2.443-3.121 2.757c0.503 0.572 0.955 1.187 1.35 1.847l3.687-1.551-3.486 1.897c0.383 0.685 0.697 1.401 0.948 2.154l3.724-0.653-3.611 1.018c0.232 0.766 0.389 1.564 0.471 2.38l3.536 0.17-3.517 0.176c0.019 0.289 0.031 0.584 0.031 0.886 0 0.546-0.038 1.087-0.1 1.62l3.184 0.898-3.235-0.572zM27.151 16.673c0-6.124-4.962-11.085-11.085-11.085s-11.085 4.962-11.085 11.085 4.962 11.085 11.085 11.085 11.085-4.962 11.085-11.085zM25.644 16.673c0 5.295-4.29 9.584-9.584 9.584s-9.584-4.29-9.584-9.584 4.29-9.584 9.584-9.584 9.584 4.29 9.584 9.584zM12.247 14.669c0 0.132 0.082 0.239 0.226 0.32 0.207 0.119 0.389 0.289 0.515 0.515 0.176-0.358 0.27-0.597 0.27-0.703 0-0.138-0.069-0.276-0.201-0.44-0.132-0.157-0.201-0.327-0.207-0.484-0.408 0.427-0.603 0.685-0.603 0.791zM9.691 13.476c0 0.132 0.082 0.239 0.226 0.32 0.22 0.119 0.389 0.289 0.515 0.515 0.176-0.358 0.27-0.597 0.27-0.703 0-0.138-0.069-0.276-0.201-0.44-0.132-0.157-0.201-0.327-0.207-0.484-0.408 0.427-0.603 0.685-0.603 0.791zM8.498 13.476c0 0.132 0.082 0.239 0.226 0.32 0.207 0.119 0.389 0.289 0.515 0.515 0.176-0.358 0.27-0.597 0.27-0.703 0-0.138-0.069-0.276-0.201-0.44-0.132-0.157-0.201-0.327-0.207-0.484-0.402 0.427-0.603 0.685-0.603 0.791zM21.367 18.997c-0.527-0.188-0.546-0.427-0.546-0.98v-7.053c-0.515 0.785-0.892 1.168-1.13 1.168 0.396 0.904 0.597 1.501 0.597 1.777v4.038c0 0.138-0.138 0.408-0.295 0.408h-1.13c-0.176-0.471-0.641-1.69-0.961-2.531-0.126 0.157-0.452 0.578-0.672 0.86 0.151 0.1 0.258 0.226 0.327 0.396 0.163 0.421 0.402 1.036 0.496 1.269h-0.578c-0.245-0.653-0.603-1.595-0.741-1.953-0.126 0.157-0.452 0.578-0.672 0.86 0.151 0.1 0.258 0.226 0.327 0.396 0.050 0.126 0.176 0.458 0.27 0.685h-0.578c-0.094-0.258-0.352-0.917-0.527-1.382-0.126 0.157-0.452 0.578-0.672 0.86 0.157 0.1 0.27 0.226 0.327 0.396 0.012 0.038 0.031 0.088 0.038 0.107h-1.112c-0.289-0.873-0.716-1.74-0.716-2.142 0-0.138 0.019-0.32 0.069-0.515-0.553 0.678-0.879 0.999-0.879 1.57 0 0.471 0.653 1.777 0.653 2.091 0 0.107-0.031 0.207-0.088 0.308-0.603-0.798-0.973-1.3-1.181-1.3h-0.754l-0.703-1.759c-0.239-0.603-0.358-1.005-0.358-1.181 0-0.239 0.031-0.484 0.107-0.766-0.063 0.082-0.232 0.295-0.345 0.446-0.050-0.132-0.195-0.484-0.289-0.722-0.132 0.157-0.471 0.572-0.703 0.854 0.057 0.145 0.207 0.509 0.308 0.766-0.157 0.207-0.572 0.741-0.854 1.112-0.251 0.333-0.364 0.835-0.17 1.369 0.157 0.421 0.126 0.496-0.107 0.886h3.875c0.345 0 0.898 0.879 0.973 1.382 0.829-1.005 0.967-1.231 1.055-1.357h6.72c0.245 0 0.452-0.119 0.622-0.364zM22.629 17.326v-6.381c-0.565 0.785-0.999 1.168-1.3 1.168 0.446 0.904 0.672 1.501 0.672 1.777v4.164c0 1.099 0.54 1.281 1.507 1.281 0.509 0 0.785-0.050 0.86-0.17-0.27-0.1-0.477-0.157-0.622-0.207-0.509-0.201-1.118-0.465-1.118-1.633z"></path>
</svg>
