<!-- Generated by IcoMoon.io -->
<svg version="1.1" xmlns="http://www.w3.org/2000/svg" width="26" height="32" viewBox="0 0 26 32">
<title>utensils</title>
<path d="M13.057 0.488c0.050 0.295 1.011 5.935 1.011 8.089 0 3.285-1.746 5.627-4.327 6.569l0.81 14.954c0.044 0.86-0.641 1.589-1.507 1.589h-4.020c-0.86 0-1.551-0.722-1.507-1.589l0.81-14.954c-2.588-0.942-4.327-3.291-4.327-6.569 0-2.16 0.961-7.794 1.011-8.089 0.201-1.275 2.845-1.294 3.008 0.069v8.868c0.082 0.214 0.948 0.201 1.005 0 0.088-1.589 0.496-8.743 0.502-8.906 0.207-1.306 2.807-1.306 3.008 0 0.012 0.17 0.415 7.317 0.502 8.906 0.057 0.201 0.93 0.214 1.005 0v-8.868c0.163-1.357 2.814-1.344 3.015-0.069zM20.544 18.431l-0.942 11.625c-0.075 0.879 0.622 1.633 1.501 1.633h3.517c0.835 0 1.507-0.672 1.507-1.507v-29.142c0-0.829-0.672-1.507-1.507-1.507-5.181 0-13.905 11.211-4.076 18.898z"></path>
</svg>
