<!-- Generated by IcoMoon.io -->
<svg version="1.1" xmlns="http://www.w3.org/2000/svg" width="32" height="32" viewBox="0 0 32 32">
<title>uue-file-format-symbol</title>
<path d="M27.737 7.239c-0.002-0.148-0.049-0.293-0.15-0.408l-6.2-7.082c-0.001-0.002-0.003-0.002-0.005-0.004-0.037-0.041-0.079-0.075-0.125-0.105-0.013-0.009-0.027-0.017-0.041-0.025-0.040-0.021-0.081-0.039-0.124-0.052-0.012-0.004-0.022-0.008-0.034-0.011-0.047-0.011-0.095-0.018-0.145-0.018h-15.238c-0.695 0-1.261 0.566-1.261 1.261v29.635c0 0.696 0.566 1.261 1.261 1.261h20.807c0.696 0 1.261-0.566 1.261-1.261v-23.119c-0-0.024-0.004-0.047-0.006-0.070zM12.307 26.717c0 2.221-1.121 3.278-3.001 3.278-1.816 0-2.883-1.004-2.883-3.3v-4.015h1.634v4.143c0 1.239 0.47 1.869 1.303 1.869 0.855 0 1.324-0.598 1.324-1.869v-4.143h1.623v4.037zM19.592 26.717c0 2.221-1.121 3.278-3.001 3.278-1.816 0-2.883-1.004-2.883-3.3v-4.015h1.634v4.143c0 1.239 0.47 1.869 1.303 1.869 0.855 0 1.324-0.598 1.324-1.869v-4.143h1.623v4.037zM25.595 29.878h-4.592v-7.198h4.443v1.335h-2.808v1.495h2.648v1.324h-2.648v1.709h2.958v1.335h-0zM5.675 20.945v-20.151h14.607v6.452c0 0.348 0.282 0.631 0.631 0.631h5.569l0.001 13.068h-20.808zM15.174 1.199h1.913v0.789h-1.913v-0.789zM13.262 0.129h1.912v0.591h-1.912v-0.591zM13.262 2.379h1.912v0.789h-1.912v-0.789zM15.174 3.671h1.913v0.789h-1.913v-0.789zM15.237 6.007h1.913v0.789h-1.913v-0.789zM13.262 4.898h1.912v0.789h-1.912v-0.789zM13.325 7.538h1.912v0.789h-1.912v-0.789zM15.237 8.719h1.913v0.789h-1.913v-0.789zM13.325 10.011h1.912v0.789h-1.912v-0.789zM15.174 11.46c-0.939 0-1.386 0.761-1.386 1.701l-0.315 2.85c0 0.94 0.761 1.701 1.701 1.701s1.701-0.762 1.701-1.701l-0.314-2.849c-0.001-0.939-0.448-1.701-1.387-1.701zM15.738 16.965h-1.126v-2.379h1.126v2.379z"></path>
</svg>
