<!-- Generated by IcoMoon.io -->
<svg version="1.1" xmlns="http://www.w3.org/2000/svg" width="28" height="32" viewBox="0 0 28 32">
<title>vaadin</title>
<path d="M14.1 8.37c0.094-1.105 0.308-3.31 3.128-3.31h6.193c1.3 0 2.016-0.49 2.016-1.357v-0.772c0-0.766 0.584-1.388 1.35-1.388s1.35 0.622 1.35 1.388v2.292c0 2.694-1.35 3.894-4.195 3.894h-6.312c-1.89 0-2.073 0.923-2.073 1.702 0 0.082-0.006 0.157-0.012 0.232-0.044 0.772-0.685 1.394-1.47 1.394s-1.426-0.615-1.47-1.394c-0.006-0.075-0.012-0.151-0.012-0.232 0-0.773-0.188-1.702-2.073-1.702h-6.325c-2.845 0-4.195-1.2-4.195-3.894v-2.292c0-0.766 0.59-1.388 1.357-1.388s1.35 0.622 1.35 1.388v0.772c0 0.867 0.716 1.357 2.016 1.357h6.193c2.814 0 3.034 2.205 3.128 3.31h0.057zM14.069 28.173c0.722 0 1.344-0.44 1.614-1.024 0.069-0.113 6.098-10.652 6.168-10.765 0.747-1.231-0.201-2.782-1.708-2.782-0.873 0-1.463 0.402-1.872 1.275l-4.202 7.392-4.202-7.392c-0.402-0.873-0.999-1.275-1.872-1.275-1.507 0-2.456 1.545-1.708 2.782 0.069 0.119 6.098 10.652 6.168 10.765 0.27 0.584 0.892 1.024 1.614 1.024z"></path>
</svg>
