<!-- Generated by IcoMoon.io -->
<svg version="1.1" xmlns="http://www.w3.org/2000/svg" width="32" height="32" viewBox="0 0 32 32">
<title>vb-file-symbol</title>
<path d="M19.45 26.533h-0.603v2.206c0.174 0.023 0.383 0.023 0.685 0.023 0.801 0 1.509-0.302 1.509-1.126-0-0.789-0.708-1.103-1.59-1.103zM20.855 24.305c0-0.592-0.453-0.905-1.254-0.905-0.383 0-0.603 0.023-0.755 0.046v1.822h0.58c0.929 0 1.428-0.383 1.428-0.963zM27.737 7.239c-0.002-0.148-0.048-0.293-0.15-0.408l-6.201-7.082c-0.001-0.002-0.003-0.002-0.005-0.004-0.037-0.041-0.079-0.075-0.125-0.105-0.013-0.009-0.027-0.017-0.041-0.025-0.040-0.021-0.081-0.039-0.124-0.052-0.012-0.004-0.022-0.008-0.034-0.011-0.047-0.011-0.095-0.018-0.145-0.018h-15.238c-0.695 0-1.261 0.566-1.261 1.261v29.635c0 0.695 0.566 1.261 1.261 1.261h20.807c0.696 0 1.261-0.566 1.261-1.261v-23.119c0-0.024-0.004-0.047-0.006-0.070zM13.623 29.992h-2.066l-2.507-7.823h1.938l0.952 3.308c0.267 0.929 0.511 1.823 0.696 2.798h0.035c0.197-0.94 0.441-1.869 0.708-2.763l0.998-3.343h1.881l-2.635 7.823zM22.085 29.366c-0.569 0.453-1.52 0.708-3.076 0.708-0.87 0-1.52-0.058-1.915-0.116v-7.684c0.464-0.093 1.404-0.162 2.287-0.162 1.080 0 1.741 0.104 2.31 0.441 0.546 0.291 0.94 0.824 0.94 1.532 0 0.696-0.406 1.346-1.288 1.671v0.023c0.893 0.244 1.555 0.917 1.555 1.927-0 0.708-0.325 1.266-0.813 1.66zM5.675 20.945v-20.151h14.607v6.452c0 0.348 0.282 0.631 0.631 0.631h5.569l0.001 13.068h-20.808zM20.023 4.616v0h-9.693c-0.45 0-0.816 0.419-0.816 0.934v10.577h0.003c0 0.002 0.001 0.004 0.002 0.006-0.453 0.143-0.787 0.618-0.787 1.181 0 0.677 0.481 1.228 1.072 1.228h7.419c-0 0.002-0 0.005-0.001 0.008h1.452c0.451 0 0.816-0.419 0.816-0.934v-11.95c0.004-0.439 0.47-0.427 0.523-0.427h0.002c0.231 0 0.419 0.214 0.419 0.479s-0.188 0.479-0.419 0.479c-0.15 0-0.272 0.139-0.272 0.311s0.122 0.312 0.272 0.312c0.531 0 0.963-0.494 0.963-1.101s-0.432-1.101-0.954-1.101zM16.709 17.92h-6.905c-0.291 0-0.528-0.271-0.528-0.605s0.237-0.604 0.528-0.604h6.912c-0.103 0.166-0.175 0.37-0.175 0.612 0 0.236 0.069 0.435 0.168 0.597zM17.681 11.584h-6.515v-0.525h6.515v0.525zM17.681 12.968h-6.515v-0.525h6.515v0.525zM17.681 10.27h-6.515v-0.525h6.515v0.525zM17.681 8.777h-6.515v-0.525h6.515v0.525zM17.681 7.464h-6.515v-0.526h6.515v0.526z"></path>
</svg>
