<!-- Generated by IcoMoon.io -->
<svg version="1.1" xmlns="http://www.w3.org/2000/svg" width="32" height="32" viewBox="0 0 32 32">
<title>vcd-file-format-symbol</title>
<path d="M22.142 23.591c-0.363 0-0.598 0.032-0.736 0.064v4.709c0.138 0.032 0.362 0.032 0.566 0.032 1.474 0.011 2.435-0.801 2.435-2.52 0.011-1.496-0.865-2.285-2.264-2.285zM27.737 7.239c-0.002-0.148-0.049-0.293-0.15-0.408l-6.2-7.082c-0.001-0.002-0.003-0.002-0.005-0.004-0.037-0.041-0.079-0.075-0.125-0.105-0.013-0.009-0.027-0.017-0.041-0.025-0.040-0.021-0.081-0.039-0.124-0.052-0.012-0.004-0.022-0.008-0.034-0.011-0.047-0.011-0.095-0.018-0.145-0.018h-15.238c-0.695 0-1.261 0.566-1.261 1.261v29.635c0 0.696 0.566 1.261 1.261 1.261h20.807c0.696 0 1.261-0.566 1.261-1.261v-23.119c-0-0.024-0.004-0.047-0.006-0.071zM10.308 29.593h-1.901l-2.306-7.198h1.784l0.876 3.044c0.246 0.854 0.47 1.676 0.64 2.573h0.032c0.182-0.865 0.406-1.719 0.651-2.541l0.919-3.076h1.73l-2.424 7.198zM17.101 28.353c0.491 0 1.036-0.107 1.356-0.235l0.245 1.271c-0.299 0.15-0.972 0.31-1.847 0.31-2.488 0-3.77-1.549-3.77-3.599 0-2.456 1.751-3.823 3.93-3.823 0.843 0 1.485 0.171 1.773 0.32l-0.331 1.292c-0.331-0.139-0.791-0.267-1.367-0.267-1.293 0-2.296 0.78-2.296 2.381 0 1.442 0.854 2.349 2.306 2.349zM24.94 28.738c-0.758 0.631-1.912 0.929-3.321 0.929-0.844 0-1.442-0.054-1.848-0.107v-7.070c0.598-0.096 1.377-0.15 2.2-0.15 1.367 0 2.253 0.245 2.948 0.769 0.748 0.555 1.217 1.442 1.217 2.713 0 1.378-0.502 2.328-1.196 2.916zM5.675 20.945v-20.151h14.607v6.452c0 0.348 0.282 0.631 0.631 0.631h5.569l0.001 13.068h-20.808zM19.353 8.846c-2.423 0-4.388 1.964-4.388 4.387s1.965 4.388 4.388 4.388c2.424 0 4.388-1.964 4.388-4.388s-1.964-4.387-4.388-4.387zM20.675 9.382l-0.953 1.946c-0.185-0.072-0.368-0.033-0.368-0.033l-0.551-2.043c0-0 0.731-0.328 1.872 0.131zM19.353 14.959c-0.953 0-1.727-0.773-1.727-1.727s0.773-1.726 1.727-1.726c0.954 0 1.727 0.772 1.727 1.726s-0.773 1.727-1.727 1.727zM19.353 11.706c-0.842 0-1.527 0.685-1.527 1.528s0.685 1.528 1.527 1.528c0.842 0 1.528-0.685 1.528-1.528s-0.685-1.528-1.528-1.528zM19.353 14.584c-0.744 0-1.351-0.606-1.351-1.351s0.607-1.352 1.351-1.352c0.746 0 1.352 0.606 1.352 1.352s-0.606 1.351-1.352 1.351zM19.353 12.503c-0.403 0-0.729 0.328-0.729 0.73s0.327 0.73 0.729 0.73c0.403 0 0.731-0.328 0.731-0.73s-0.328-0.73-0.731-0.73zM19.353 13.787c-0.305 0-0.553-0.248-0.553-0.554s0.248-0.554 0.553-0.554c0.306 0 0.555 0.248 0.555 0.554s-0.249 0.554-0.555 0.554zM14.892 10.858c-0.4 0.091-0.84 0.143-1.306 0.143-1.783 0-3.227-0.745-3.227-1.665s1.445-1.665 3.227-1.665c1.478 0 2.722 0.514 3.104 1.214 0.652-0.421 1.402-0.7 2.21-0.791l-0.22-1.403c-0.006-0.036-0.037-0.063-0.074-0.063h-10.364c-0.037 0-0.068 0.027-0.074 0.063l-0.789 5.036c-0.006 0.011-0.010 0.024-0.010 0.036v3.191c0 0.041 0.033 0.075 0.075 0.075h7.194c-0.066-0.179-0.123-0.362-0.169-0.549h-6.55v-2.243h6.491c0.095-0.488 0.261-0.95 0.483-1.379zM8.871 12.685c-0.042 0-0.075 0.033-0.075 0.075v0.948c0 0.042 0.033 0.075 0.075 0.075h0.948c0.041 0 0.074-0.033 0.074-0.075v-0.948c0-0.041-0.033-0.075-0.074-0.075h-0.948zM10.435 12.685c-0.041 0-0.075 0.033-0.075 0.075v0.948c0 0.042 0.034 0.075 0.075 0.075h0.946c0.041 0 0.074-0.033 0.074-0.075v-0.948c0-0.041-0.033-0.075-0.074-0.075h-0.946zM12.096 12.685c-0.041 0-0.074 0.033-0.074 0.075v0.948c0 0.042 0.033 0.075 0.074 0.075h0.948c0.041 0 0.075-0.033 0.075-0.075v-0.948c0-0.041-0.034-0.075-0.075-0.075h-0.948zM10.947 9.297c0 0.745 1.177 1.35 2.628 1.35 0.606 0 1.163-0.106 1.608-0.283 0.282-0.422 0.624-0.801 1.015-1.123-0.059-0.719-1.208-1.293-2.622-1.293-1.452-0-2.628 0.604-2.628 1.35z"></path>
</svg>
