<!-- Generated by IcoMoon.io -->
<svg version="1.1" xmlns="http://www.w3.org/2000/svg" width="32" height="32" viewBox="0 0 32 32">
<title>vcf-file-format-variant</title>
<path d="M27.737 7.239c-0.002-0.148-0.049-0.293-0.15-0.408l-6.2-7.082c-0.001-0.002-0.003-0.002-0.005-0.004-0.037-0.041-0.079-0.075-0.125-0.105-0.013-0.009-0.027-0.017-0.041-0.025-0.040-0.022-0.081-0.039-0.124-0.052-0.012-0.004-0.022-0.008-0.034-0.011-0.047-0.011-0.095-0.018-0.145-0.018h-15.238c-0.695 0-1.261 0.566-1.261 1.261v29.635c0 0.696 0.566 1.261 1.261 1.261h20.807c0.696 0 1.261-0.566 1.261-1.261v-23.119c-0-0.024-0.004-0.047-0.006-0.070zM10.899 29.494h-1.833l-2.225-6.942h1.72l0.845 2.936c0.237 0.824 0.453 1.617 0.618 2.482h0.031c0.175-0.834 0.391-1.659 0.628-2.451l0.886-2.966h1.668l-2.338 6.941zM17.45 28.299c0.474 0 0.999-0.103 1.308-0.227l0.236 1.226c-0.288 0.144-0.937 0.299-1.781 0.299-2.4 0-3.636-1.494-3.636-3.471 0-2.369 1.689-3.687 3.79-3.687 0.814 0 1.432 0.165 1.71 0.309l-0.319 1.246c-0.32-0.134-0.762-0.257-1.318-0.257-1.246 0-2.215 0.752-2.215 2.297 0 1.39 0.824 2.266 2.224 2.266zM24.27 23.84h-2.667v1.586h2.492v1.277h-2.492v2.791h-1.576v-6.942h4.243v1.287zM5.675 20.945v-20.151h14.607v6.452c0 0.348 0.282 0.631 0.631 0.631h5.569l0.001 13.068h-20.808zM13.785 12.99c-0.441-0.155-0.445-0.311-0.445-0.311-0.045-0.043-0.090-0.079-0.134-0.113 0.205-0.219 0.355-0.515 0.393-0.79 0.028-0.020 0.073-0.067 0.090-0.176 0 0 0.106-0.377-0.034-0.337 0.048-0.145 0.21-0.711-0.102-1.063 0 0-0.147-0.2-0.502-0.306 0 0-0.534-0.168-0.963-0.059s-0.44 0.197-0.558 0.605c0 0-0.089 0.211 0.029 0.83-0.166-0.078-0.053 0.33-0.053 0.33 0.017 0.109 0.063 0.156 0.090 0.176 0.034 0.28 0.173 0.564 0.358 0.775-0.088 0.072-0.138 0.132-0.138 0.132l-0.953 0.501c-0.26 0.101-0.371 0.251-0.371 0.251-0.386 0.572-0.431 1.845-0.431 1.845 0.005 0.291 0.131 0.321 0.131 0.321 0.887 0.396 2.277 0.466 2.277 0.466 1.429 0.030 2.469-0.406 2.469-0.406 0.15-0.095 0.155-0.171 0.155-0.171 0.105-0.912-0.346-1.939-0.346-1.939-0.136-0.301-0.962-0.562-0.962-0.562zM23.052 8.268h-13.596c-0.244 0-0.442 0.198-0.442 0.442v8.447c0 0.244 0.198 0.442 0.442 0.442h13.596c0.244 0 0.442-0.198 0.442-0.442v-8.447c0-0.244-0.198-0.442-0.442-0.442zM23.092 17.157c0 0.022-0.018 0.040-0.040 0.040h-13.596c-0.022 0-0.040-0.018-0.040-0.040v-8.447c0-0.022 0.018-0.040 0.040-0.040h13.596c0.022 0 0.040 0.018 0.040 0.040v8.447zM16.254 11.767h5.551v0.483h-5.551v-0.483zM16.254 10.159h5.551v0.482h-5.551v-0.482zM16.254 13.368h5.551v0.482h-5.551v-0.482zM16.254 15.026h4.184v0.482h-4.184v-0.482z"></path>
</svg>
