<!-- Generated by IcoMoon.io -->
<svg version="1.1" xmlns="http://www.w3.org/2000/svg" width="32" height="32" viewBox="0 0 32 32">
<title>vector-square</title>
<path d="M32.157 7.572v-6.029c0-1.11-0.9-2.010-2.010-2.010h-6.029c-1.11 0-2.010 0.9-2.010 2.010h-12.059c0-1.11-0.9-2.010-2.010-2.010h-6.029c-1.11 0-2.010 0.9-2.010 2.010v6.029c0 1.11 0.9 2.010 2.010 2.010v12.059c-1.11 0-2.010 0.9-2.010 2.010v6.029c0 1.11 0.9 2.010 2.010 2.010h6.029c1.11 0 2.010-0.9 2.010-2.010h12.059c0 1.11 0.9 2.010 2.010 2.010h6.029c1.11 0 2.010-0.9 2.010-2.010v-6.029c0-1.11-0.9-2.010-2.010-2.010v-12.059c1.11 0 2.010-0.9 2.010-2.010zM26.127 3.553h2.010v2.010h-2.010v-2.010zM4.020 3.553h2.010v2.010h-2.010v-2.010zM6.029 27.67h-2.010v-2.010h2.010v2.010zM28.137 27.67h-2.010v-2.010h2.010v2.010zM26.127 21.641h-2.010c-1.11 0-2.010 0.9-2.010 2.010v2.010h-12.059v-2.010c0-1.11-0.9-2.010-2.010-2.010h-2.010v-12.059h2.010c1.11 0 2.010-0.9 2.010-2.010v-2.010h12.059v2.010c0 1.11 0.9 2.010 2.010 2.010h2.010v12.059z"></path>
</svg>
