<!-- Generated by IcoMoon.io -->
<svg version="1.1" xmlns="http://www.w3.org/2000/svg" width="32" height="32" viewBox="0 0 32 32">
<title>venus-double</title>
<path d="M18.088 10.587c0-4.993-4.051-9.044-9.044-9.044s-9.044 4.051-9.044 9.044c0 4.302 3.008 7.907 7.034 8.818v3.241h-2.261c-0.415 0-0.754 0.339-0.754 0.754v2.512c0 0.415 0.339 0.754 0.754 0.754h2.261v2.261c0 0.415 0.339 0.754 0.754 0.754h2.512c0.415 0 0.754-0.339 0.754-0.754v-2.261h2.261c0.415 0 0.754-0.339 0.754-0.754v-2.512c0-0.415-0.339-0.754-0.754-0.754h-2.261v-3.241c4.026-0.911 7.034-4.516 7.034-8.818zM4.020 10.587c0-2.77 2.255-5.024 5.024-5.024s5.024 2.255 5.024 5.024-2.255 5.024-5.024 5.024-5.024-2.255-5.024-5.024zM25.122 19.405v3.241h2.261c0.415 0 0.754 0.339 0.754 0.754v2.512c0 0.415-0.339 0.754-0.754 0.754h-2.261v2.261c0 0.415-0.339 0.754-0.754 0.754h-2.512c-0.415 0-0.754-0.339-0.754-0.754v-2.261h-2.261c-0.415 0-0.754-0.339-0.754-0.754v-2.512c0-0.415 0.339-0.754 0.754-0.754h2.261v-3.241c-1.331-0.301-2.55-0.898-3.593-1.715 0.879-1.049 1.57-2.261 2.016-3.586 0.911 0.93 2.179 1.507 3.586 1.507 2.77 0 5.024-2.255 5.024-5.024s-2.255-5.024-5.024-5.024c-1.401 0-2.676 0.578-3.586 1.507-0.446-1.325-1.13-2.537-2.016-3.586 1.545-1.212 3.486-1.941 5.602-1.941 4.993 0 9.044 4.051 9.044 9.044 0 4.302-3.008 7.907-7.034 8.818z"></path>
</svg>
