<!-- Generated by IcoMoon.io -->
<svg version="1.1" xmlns="http://www.w3.org/2000/svg" width="36" height="32" viewBox="0 0 36 32">
<title>venus-mars</title>
<path d="M35.423-0.467h-4.962c-0.672 0-1.005 0.81-0.534 1.288l1.061 1.061-3.059 3.059c-1.394-0.879-3.046-1.388-4.817-1.388-2.117 0-4.057 0.729-5.602 1.941 0.879 1.049 1.57 2.261 2.016 3.586 0.911-0.93 2.179-1.507 3.586-1.507 2.77 0 5.024 2.255 5.024 5.024s-2.255 5.024-5.024 5.024c-1.401 0-2.676-0.578-3.586-1.507-0.446 1.325-1.13 2.537-2.016 3.586 1.539 1.218 3.486 1.941 5.602 1.941 4.993 0 9.044-4.051 9.044-9.044 0-1.771-0.509-3.423-1.388-4.817l3.059-3.059 1.061 1.061c0.151 0.151 0.339 0.22 0.528 0.22 0.389 0 0.76-0.301 0.76-0.754v-4.962c0-0.415-0.339-0.754-0.754-0.754zM9.044 3.553c-4.993 0-9.044 4.051-9.044 9.044 0 4.302 3.008 7.907 7.034 8.818v3.241h-2.261c-0.415 0-0.754 0.339-0.754 0.754v2.512c0 0.415 0.339 0.754 0.754 0.754h2.261v2.261c0 0.415 0.339 0.754 0.754 0.754h2.512c0.415 0 0.754-0.339 0.754-0.754v-2.261h2.261c0.415 0 0.754-0.339 0.754-0.754v-2.512c0-0.415-0.339-0.754-0.754-0.754h-2.261v-3.241c4.026-0.917 7.034-4.516 7.034-8.818 0-4.993-4.051-9.044-9.044-9.044zM9.044 17.621c-2.77 0-5.024-2.255-5.024-5.024s2.255-5.024 5.024-5.024 5.024 2.255 5.024 5.024-2.255 5.024-5.024 5.024z"></path>
</svg>
