<!-- Generated by IcoMoon.io -->
<svg version="1.1" xmlns="http://www.w3.org/2000/svg" width="28" height="32" viewBox="0 0 28 32">
<title>viadeo-square</title>
<path d="M25.122 1.543h-22.108c-1.664 0-3.015 1.35-3.015 3.015v22.108c0 1.664 1.35 3.015 3.015 3.015h22.108c1.664 0 3.015-1.35 3.015-3.015v-22.108c0-1.664-1.35-3.015-3.015-3.015zM17.63 23.475c-2.663 2.902-7.537 2.927-10.2 0-4.271-4.622-1.244-12.316 5.1-12.316 0.835 0 1.671 0.132 2.456 0.421-0.27 0.527-0.458 1.105-0.527 1.702-0.609-0.258-1.269-0.377-1.928-0.377-3.065 0-5.313 2.619-5.313 5.583 0 2.701 1.79 4.943 4.365 5.395 3.863-1.507 4.579-7.386 4.579-10.991 0-0.458 0-0.93-0.038-1.388-0.703-2.066-1.671-4.057-2.776-5.935 1.702 1.149 2.632 3.925 2.776 5.91v0.025c0.484 1.413 0.741 2.902 0.741 4.396 0 3.398-1.375 6.218-4.29 8.052l-0.151 0.012c3.14 0.063 5.414-2.424 5.414-5.477 0-0.766-0.132-1.526-0.433-2.242 0.597-0.119 1.162-0.352 1.658-0.66 0.961 2.299 0.791 5.483-1.432 7.888zM19.407 14.211c-0.835 0-1.576-0.446-2.16-1.011 1.375-0.754 3.115-1.928 3.913-3.329 0.094-0.188 0.258-0.54 0.283-0.754-0.785 1.752-2.776 3.128-4.641 3.561-0.295-0.458-0.471-0.973-0.471-1.526 0-0.647 0.327-1.514 0.81-1.985 1.357-1.287 3.329-0.534 4.547-3.14 2.041 2.902 0.823 8.184-2.28 8.184z"></path>
</svg>
