<!-- Generated by IcoMoon.io -->
<svg version="1.1" xmlns="http://www.w3.org/2000/svg" width="28" height="32" viewBox="0 0 28 32">
<title>viadeo</title>
<path d="M17.347 8.985v0.044c-1.124-3.304-2.676-6.494-4.447-9.496 2.72 1.834 4.208 6.281 4.447 9.452zM19.401 16.629c0.477 1.143 0.691 2.355 0.691 3.58 0 4.88-3.63 8.856-8.655 8.755l0.239-0.019c4.66-2.933 6.865-7.449 6.865-12.882 0-2.393-0.408-4.767-1.187-7.034 0.063 0.735 0.063 1.488 0.063 2.223 0 5.766-1.137 15.174-7.323 17.586-4.126-0.716-6.99-4.309-6.99-8.63 0-4.748 3.605-8.937 8.504-8.937 1.055 0 2.117 0.195 3.084 0.603 0.107-0.948 0.408-1.878 0.842-2.72-1.25-0.452-2.588-0.672-3.925-0.672-10.143 0-14.992 12.304-8.159 19.702 4.265 4.685 12.059 4.641 16.317 0 3.555-3.85 3.825-8.944 2.286-12.624-0.798 0.502-1.702 0.873-2.65 1.068zM26.259 0.268c-1.947 4.177-5.106 2.964-7.273 5.031-0.779 0.754-1.294 2.135-1.294 3.172 0 0.886 0.283 1.702 0.754 2.437 2.977-0.691 6.174-2.889 7.424-5.697-0.044 0.345-0.301 0.904-0.452 1.206-1.275 2.242-4.057 4.12-6.262 5.332 0.93 0.904 2.117 1.62 3.454 1.62 4.962 0 6.915-8.454 3.649-13.101z"></path>
</svg>
