<!-- Generated by IcoMoon.io -->
<svg version="1.1" xmlns="http://www.w3.org/2000/svg" width="30" height="32" viewBox="0 0 30 32">
<title>vial</title>
<path d="M30.003 11.221l-10.564-10.539c-0.195-0.195-0.515-0.195-0.71 0l-2.135 2.129c-0.195 0.195-0.195 0.515 0 0.71l0.703 0.697-15.224 15.193c-2.437 2.431-2.833 6.406-0.59 9.013 1.294 1.507 3.109 2.261 4.924 2.255 1.658 0 3.316-0.628 4.579-1.89l15.469-15.431 0.703 0.697c0.195 0.195 0.515 0.195 0.71 0l2.135-2.129c0.195-0.188 0.195-0.509 0-0.703zM19.972 15.611h-9.861l9.295-9.276 4.93 4.918-4.365 4.359z"></path>
</svg>
