<!-- Generated by IcoMoon.io -->
<svg version="1.1" xmlns="http://www.w3.org/2000/svg" width="40" height="32" viewBox="0 0 40 32">
<title>vials</title>
<path d="M4.522 3.553h1.507v15.073c0 2.77 2.255 5.024 5.024 5.024s5.025-2.255 5.025-5.024v-15.073h1.507c0.276 0 0.503-0.226 0.503-0.502v-3.015c0-0.276-0.226-0.502-0.503-0.502h-13.064c-0.276 0-0.502 0.226-0.502 0.502v3.015c0 0.276 0.226 0.502 0.502 0.502zM9.044 3.553h4.020v6.029h-4.020v-6.029zM39.191 27.67h-38.186c-0.553 0-1.005 0.452-1.005 1.005v2.010c0 0.553 0.452 1.005 1.005 1.005h38.186c0.553 0 1.005-0.452 1.005-1.005v-2.010c0-0.553-0.452-1.005-1.005-1.005zM22.61 3.553h1.507v15.073c0 2.77 2.255 5.024 5.024 5.024s5.024-2.255 5.024-5.024v-15.073h1.507c0.276 0 0.502-0.226 0.502-0.502v-3.015c0-0.276-0.226-0.502-0.502-0.502h-13.064c-0.276 0-0.503 0.226-0.503 0.502v3.015c0 0.276 0.226 0.502 0.503 0.502zM27.132 3.553h4.020v6.029h-4.020v-6.029z"></path>
</svg>
