<!-- Generated by IcoMoon.io -->
<svg version="1.1" xmlns="http://www.w3.org/2000/svg" width="32" height="32" viewBox="0 0 32 32">
<title>viber</title>
<path d="M27.886 2.667c-0.798-0.735-4.026-3.078-11.223-3.109 0 0-8.485-0.509-12.618 3.285-2.299 2.299-3.109 5.671-3.197 9.848s-0.195 12.002 7.348 14.125h0.006l-0.006 3.241s-0.050 1.313 0.816 1.576c1.043 0.327 1.658-0.672 2.657-1.746 0.546-0.59 1.3-1.457 1.872-2.117 5.163 0.433 9.126-0.559 9.578-0.703 1.043-0.339 6.94-1.093 7.895-8.918 0.992-8.077-0.477-13.177-3.128-15.482zM28.759 17.558c-0.81 6.532-5.59 6.946-6.469 7.229-0.377 0.119-3.863 0.986-8.24 0.703 0 0-3.266 3.938-4.283 4.962-0.333 0.333-0.697 0.301-0.691-0.358 0-0.433 0.025-5.383 0.025-5.383-0.006 0-0.006 0 0 0-6.394-1.771-6.017-8.435-5.948-11.921s0.729-6.343 2.676-8.265c3.498-3.172 10.702-2.701 10.702-2.701 6.086 0.025 9 1.859 9.678 2.475 2.242 1.922 3.385 6.519 2.55 13.258zM20.029 12.484c0.025 0.54-0.785 0.578-0.81 0.038-0.069-1.382-0.716-2.054-2.047-2.129-0.54-0.031-0.49-0.842 0.044-0.81 1.752 0.094 2.726 1.099 2.814 2.902zM21.304 13.193c0.063-2.663-1.602-4.748-4.761-4.981-0.534-0.038-0.477-0.848 0.057-0.81 3.643 0.264 5.583 2.77 5.514 5.81-0.006 0.54-0.823 0.515-0.81-0.019zM24.256 14.035c0.006 0.54-0.81 0.546-0.81 0.006-0.038-5.119-3.448-7.907-7.587-7.939-0.534-0.006-0.534-0.81 0-0.81 4.629 0.031 8.353 3.228 8.397 8.743zM23.546 20.196v0.012c-0.678 1.193-1.947 2.512-3.253 2.091l-0.012-0.019c-1.325-0.371-4.447-1.978-6.419-3.549-1.018-0.804-1.947-1.752-2.663-2.663-0.647-0.81-1.3-1.771-1.934-2.927-1.338-2.418-1.633-3.498-1.633-3.498-0.421-1.306 0.892-2.575 2.091-3.253h0.012c0.578-0.301 1.13-0.201 1.501 0.245 0 0 0.779 0.93 1.112 1.388 0.314 0.427 0.735 1.112 0.955 1.495 0.383 0.685 0.145 1.382-0.232 1.671l-0.754 0.603c-0.383 0.308-0.333 0.879-0.333 0.879s1.118 4.227 5.295 5.295c0 0 0.572 0.050 0.879-0.333l0.603-0.754c0.289-0.377 0.986-0.615 1.671-0.232 0.923 0.521 2.098 1.331 2.877 2.066 0.44 0.358 0.54 0.904 0.239 1.482z"></path>
</svg>
