<!-- Generated by IcoMoon.io -->
<svg version="1.1" xmlns="http://www.w3.org/2000/svg" width="40" height="32" viewBox="0 0 40 32">
<title>video-slash</title>
<path d="M39.806 28.304l-3.454-2.669c0.967-0.088 1.834-0.86 1.834-1.953v-16.141c0-1.602-1.828-2.537-3.165-1.62l-6.884 4.748v8.617l-2.010-1.551v-11.179c0-1.658-1.344-3.002-3.002-3.002h-15.344l-4.924-3.806c-0.44-0.339-1.068-0.264-1.413 0.176l-1.231 1.583c-0.339 0.44-0.264 1.068 0.176 1.407l36.949 28.564c0.44 0.339 1.068 0.264 1.413-0.176l1.231-1.589c0.345-0.433 0.264-1.068-0.176-1.407zM2.010 24.668c0 1.658 1.344 3.002 3.002 3.002h18.113c0.703 0 1.344-0.251 1.859-0.66l-22.974-17.762v15.419z"></path>
</svg>
