<!-- Generated by IcoMoon.io -->
<svg version="1.1" xmlns="http://www.w3.org/2000/svg" width="40" height="32" viewBox="0 0 40 32">
<title>vihara</title>
<path d="M39.749 24.7l-5.582-3.059v-4.020l3.464-1.111c0.74-0.371 0.74-1.427 0-1.797l-7.484-3.121v-4.020l1.715-1.024c0.485-0.485 0.352-1.303-0.261-1.609l-11.503-5.406-11.503 5.406c-0.614 0.307-0.746 1.124-0.261 1.609l1.715 1.024v4.020l-7.484 3.121c-0.74 0.371-0.74 1.427 0 1.797l3.464 1.111v4.020l-5.582 3.059c-0.34 0.227-0.484 0.605-0.44 0.96 0.039 0.315 0.224 0.612 0.548 0.774l3.464 1.235v3.015c0 0.555 0.45 1.005 1.005 1.005h2.010c0.555 0 1.005-0.45 1.005-1.005v-3.015h10.049v3.015c0 0.555 0.45 1.005 1.005 1.005h2.010c0.555 0 1.005-0.45 1.005-1.005v-3.015h10.049v3.015c0 0.555 0.45 1.005 1.005 1.005h2.010c0.555 0 1.005-0.45 1.005-1.005v-3.015l3.464-1.235c0.324-0.162 0.509-0.46 0.548-0.774 0.045-0.356-0.099-0.734-0.439-0.96zM14.069 7.572h12.059v4.020h-12.059v-4.020zM10.049 21.641v-4.020h20.098v4.020h-20.098z"></path>
</svg>
