<!-- Generated by IcoMoon.io -->
<svg version="1.1" xmlns="http://www.w3.org/2000/svg" width="28" height="32" viewBox="0 0 28 32">
<title>vimeo-square</title>
<path d="M25.122 1.543h-22.108c-1.664 0-3.015 1.35-3.015 3.015v22.108c0 1.664 1.35 3.015 3.015 3.015h22.108c1.664 0 3.015-1.35 3.015-3.015v-22.108c0-1.664-1.35-3.015-3.015-3.015zM24.105 10.939c-0.088 1.953-1.457 4.635-4.101 8.033-2.732 3.549-5.043 5.326-6.934 5.326-1.175 0-2.16-1.080-2.971-3.241-1.583-5.797-2.255-9.195-3.561-9.195-0.151 0-0.678 0.314-1.576 0.948l-0.942-1.218c2.317-2.035 4.528-4.296 5.91-4.422 1.564-0.151 2.525 0.917 2.889 3.209 1.287 8.14 1.859 9.371 4.195 5.684 0.842-1.332 1.294-2.336 1.35-3.034 0.214-2.060-1.608-1.922-2.839-1.394 0.986-3.235 2.877-4.805 5.659-4.717 2.066 0.063 3.040 1.407 2.92 4.020z"></path>
</svg>
