<!-- Generated by IcoMoon.io -->
<svg version="1.1" xmlns="http://www.w3.org/2000/svg" width="28" height="32" viewBox="0 0 28 32">
<title>vimeo</title>
<path d="M25.323 1.543h-22.51c-1.551 0-2.814 1.262-2.814 2.814v22.51c0 1.551 1.262 2.814 2.814 2.814h22.51c1.551 0 2.814-1.262 2.814-2.814v-22.51c0-1.551-1.262-2.814-2.814-2.814zM23.678 10.888c-0.088 1.978-1.47 4.692-4.145 8.127-2.763 3.593-5.106 5.389-7.015 5.389-1.187 0-2.186-1.093-3.008-3.285-1.602-5.86-2.286-9.295-3.605-9.295-0.151 0-0.685 0.32-1.595 0.955l-0.955-1.231c2.343-2.060 4.579-4.346 5.979-4.472 1.583-0.151 2.556 0.93 2.92 3.247 1.3 8.24 1.878 9.484 4.246 5.753 0.848-1.344 1.306-2.368 1.369-3.071 0.22-2.085-1.627-1.941-2.877-1.407 0.999-3.272 2.908-4.861 5.728-4.773 2.091 0.057 3.078 1.413 2.958 4.064z"></path>
</svg>
