<!-- Generated by IcoMoon.io -->
<svg version="1.1" xmlns="http://www.w3.org/2000/svg" width="28" height="32" viewBox="0 0 28 32">
<title>vimeo-v</title>
<path d="M28.125 9.18c-0.126 2.738-2.035 6.488-5.74 11.249-3.825 4.974-7.059 7.461-9.71 7.461-1.639 0-3.027-1.514-4.164-4.541-2.211-8.115-3.153-12.869-4.981-12.869-0.214 0-0.948 0.446-2.211 1.325l-1.319-1.708c3.241-2.845 6.337-6.011 8.278-6.186 2.192-0.214 3.536 1.288 4.045 4.491 1.803 11.399 2.6 13.12 5.879 7.958 1.175-1.859 1.809-3.272 1.897-4.246 0.301-2.883-2.248-2.688-3.976-1.947 1.382-4.528 4.026-6.727 7.926-6.601 2.877 0.075 4.239 1.953 4.076 5.615z"></path>
</svg>
