<!-- Generated by IcoMoon.io -->
<svg version="1.1" xmlns="http://www.w3.org/2000/svg" width="24" height="32" viewBox="0 0 24 32">
<title>vine</title>
<path d="M24.118 15.53v3.272c-1.156 0.264-2.317 0.383-3.272 0.383-2.317 4.861-6.469 9.032-7.857 9.81-0.879 0.496-1.702 0.527-2.682-0.050-1.702-1.024-8.159-6.318-10.306-22.962h4.679c1.175 9.992 4.051 15.117 7.21 18.955 1.752-1.752 3.442-4.089 4.748-6.714-3.128-1.589-5.031-5.081-5.031-9.145 0-4.12 2.368-7.229 6.419-7.229 7.216 0 6.67 8.033 5.125 11.399 0 0-2.914 0.578-3.988-1.287 0.214-0.71 0.515-1.934 0.515-3.046 0-1.966-0.71-2.927-1.784-2.927-1.143 0-1.934 1.074-1.934 3.14 0.006 4.974 3.731 7.455 8.159 6.4z"></path>
</svg>
