<!-- Generated by IcoMoon.io -->
<svg version="1.1" xmlns="http://www.w3.org/2000/svg" width="36" height="32" viewBox="0 0 36 32">
<title>vk</title>
<path d="M34.229 6.925c0.232-0.785 0-1.363-1.118-1.363h-3.699c-0.942 0-1.375 0.496-1.608 1.049 0 0-1.884 4.591-4.547 7.568-0.86 0.86-1.256 1.137-1.727 1.137-0.232 0-0.59-0.276-0.59-1.061v-7.329c0-0.942-0.264-1.363-1.043-1.363h-5.816c-0.59 0-0.942 0.44-0.942 0.848 0 0.892 1.332 1.099 1.47 3.611v5.452c0 1.193-0.214 1.413-0.685 1.413-1.256 0-4.309-4.61-6.117-9.886-0.364-1.024-0.722-1.438-1.671-1.438h-3.699c-1.055 0-1.269 0.496-1.269 1.049 0 0.98 1.256 5.847 5.847 12.279 3.059 4.39 7.367 6.77 11.286 6.77 2.355 0 2.644-0.527 2.644-1.438 0-4.195-0.214-4.591 0.967-4.591 0.546 0 1.488 0.276 3.687 2.393 2.512 2.512 2.927 3.636 4.334 3.636h3.699c1.055 0 1.589-0.527 1.281-1.57-0.703-2.192-5.458-6.701-5.671-7.003-0.546-0.703-0.389-1.017 0-1.645 0.006-0.006 4.522-6.362 4.987-8.517z"></path>
</svg>
