<!-- Generated by IcoMoon.io -->
<svg version="1.1" xmlns="http://www.w3.org/2000/svg" width="40" height="32" viewBox="0 0 40 32">
<title>vnv</title>
<path d="M6.588 21.641c-2.142 0-2.914-1.909-2.914-1.909l-3.511-7.003s-0.653-1.137 0.653-1.137h2.060c0.653 0 0.829 0.546 1.181 1.137l2.305 4.679s0.327 0.823 1.325 0.823 1.325-0.823 1.325-0.823l2.305-4.679c0.352-0.597 0.527-1.137 1.181-1.137h2.060c1.306 0 0.653 1.137 0.653 1.137l-3.505 7.003s-0.766 1.909-2.914 1.909h-2.205zM31.397 21.641c-2.142 0-2.914-1.909-2.914-1.909l-3.511-7.003s-0.653-1.137 0.653-1.137h2.060c0.653 0 0.829 0.546 1.181 1.137l2.305 4.679s0.327 0.823 1.325 0.823 1.325-0.823 1.325-0.823l2.311-4.679c0.352-0.597 0.528-1.137 1.181-1.137h2.066c1.306 0 0.653 1.137 0.653 1.137l-3.511 7.003s-0.766 1.909-2.914 1.909h-2.211zM21.203 11.592c2.142 0 2.914 1.909 2.914 1.909l3.511 7.003s0.653 1.137-0.653 1.137h-2.060c-0.653 0-0.829-0.546-1.181-1.137l-2.305-4.679s-0.327-0.823-1.325-0.823c-0.999 0-1.325 0.823-1.325 0.823l-2.305 4.679c-0.352 0.59-0.527 1.137-1.181 1.137h-2.066c-1.306 0-0.653-1.137-0.653-1.137l3.511-7.003s0.766-1.909 2.914-1.909h2.205z"></path>
</svg>
