<!-- Generated by IcoMoon.io -->
<svg version="1.1" xmlns="http://www.w3.org/2000/svg" width="32" height="32" viewBox="0 0 32 32">
<title>vob-file-format-symbol</title>
<path d="M27.737 7.239c-0.002-0.148-0.049-0.293-0.15-0.408l-6.2-7.082c-0.001-0.002-0.003-0.003-0.005-0.004-0.037-0.041-0.079-0.075-0.125-0.105-0.013-0.009-0.027-0.017-0.041-0.025-0.040-0.021-0.081-0.039-0.124-0.052-0.012-0.003-0.022-0.008-0.034-0.011-0.047-0.011-0.095-0.018-0.145-0.018h-15.238c-0.695 0-1.261 0.566-1.261 1.261v29.635c0 0.696 0.566 1.261 1.261 1.261h20.807c0.696 0 1.261-0.566 1.261-1.261v-23.119c-0-0.024-0.004-0.047-0.006-0.071zM10.22 29.773h-1.848l-2.241-6.995h1.733l0.851 2.958c0.239 0.83 0.457 1.63 0.623 2.501h0.031c0.176-0.841 0.394-1.671 0.633-2.47l0.893-2.989h1.681l-2.356 6.995zM16.208 29.887c-2.076 0-3.29-1.567-3.29-3.56 0-2.096 1.339-3.664 3.404-3.664 2.149 0 3.321 1.609 3.321 3.539 0 2.294-1.391 3.685-3.435 3.685zM25.143 29.212c-0.509 0.405-1.359 0.633-2.75 0.633-0.778 0-1.36-0.052-1.712-0.103v-6.871c0.415-0.083 1.256-0.145 2.045-0.145 0.965 0 1.557 0.094 2.065 0.395 0.488 0.26 0.841 0.737 0.841 1.37 0 0.623-0.363 1.204-1.152 1.495v0.020c0.799 0.218 1.39 0.82 1.39 1.723 0 0.633-0.291 1.132-0.727 1.484zM5.675 20.945v-20.151h14.607v6.452c0 0.348 0.282 0.631 0.631 0.631h5.569l0.001 13.068h-20.808zM16.281 23.919c-1.069 0-1.692 1.017-1.692 2.377 0 1.37 0.643 2.335 1.702 2.335 1.069 0 1.681-1.017 1.681-2.376 0-1.256-0.602-2.335-1.691-2.335zM24.043 24.687c0-0.529-0.405-0.809-1.121-0.809-0.343 0-0.54 0.021-0.675 0.041v1.629h0.519c0.831-0 1.277-0.342 1.277-0.861zM22.787 26.679h-0.54v1.972c0.156 0.021 0.343 0.021 0.613 0.021 0.716 0 1.349-0.269 1.349-1.006 0-0.706-0.633-0.986-1.422-0.986zM14.908 17.737l0.041 0.010c0.021 0 0.041-0.007 0.058-0.021l3.117-1.99c0.022-0.018 0.036-0.045 0.036-0.073s-0.013-0.055-0.036-0.074l-3.117-1.99c-0.028-0.023-0.067-0.027-0.099-0.010s-0.053 0.049-0.053 0.084v3.981c-0 0.035 0.020 0.069 0.052 0.084zM21.253 10.39c0 0-8.074 0-10.298 0l0.344-0.245c2.556-1.476 8.212-5.025 8.212-5.025 0.235-0.136 0.315-0.437 0.181-0.672l-0.492-1.212c-0.137-0.236-0.437-0.315-0.673-0.18l-9.305 5.655c-0.235 0.136-0.314 0.438-0.179 0.673l0.891 0.966 0.007 8.126c0 0.273 0.22 0.492 0.491 0.492h10.821c0.271 0 0.492-0.219 0.492-0.492v-7.595c-0-0.272-0.221-0.492-0.492-0.492zM17.686 10.742l-1.518 1.475h-1.967l1.476-1.475h2.009zM17.045 4.403l1.746-1.121-0.255 1.644-1.787 1.147 0.296-1.67zM13.933 6.317l1.776-1.107-0.319 1.667-1.774 1.107 0.316-1.666zM10.393 10.001l0.298-1.671 1.762-1.126-0.298 1.668-1.762 1.129zM12.233 10.742h1.967l-1.475 1.475h-1.967l1.475-1.475zM20.898 18.37h-10.12v-5.384h10.12v5.384zM19.642 12.217h-2l1.476-1.475h1.953l-1.429 1.475z"></path>
</svg>
