<!-- Generated by IcoMoon.io -->
<svg version="1.1" xmlns="http://www.w3.org/2000/svg" width="24" height="32" viewBox="0 0 24 32">
<title>volume-down</title>
<path d="M13.505 4.058l-5.588 5.587h-6.41c-0.833 0-1.507 0.675-1.507 1.507v9.044c0 0.832 0.675 1.507 1.507 1.507h6.41l5.588 5.587c0.944 0.944 2.573 0.281 2.573-1.066v-21.1c0-1.348-1.63-2.009-2.573-1.066zM21.243 10.846c-0.727-0.398-1.645-0.136-2.048 0.594-0.401 0.729-0.136 1.645 0.594 2.048 0.811 0.446 1.315 1.284 1.315 2.187s-0.504 1.741-1.314 2.186c-0.729 0.403-0.995 1.319-0.594 2.048 0.404 0.732 1.322 0.992 2.048 0.594 1.773-0.977 2.875-2.826 2.875-4.829s-1.102-3.851-2.875-4.828z"></path>
</svg>
