<!-- Generated by IcoMoon.io -->
<svg version="1.1" xmlns="http://www.w3.org/2000/svg" width="32" height="32" viewBox="0 0 32 32">
<title>volume-mute</title>
<path d="M13.505 3.995l-5.588 5.587h-6.41c-0.833 0-1.507 0.675-1.507 1.507v9.044c0 0.832 0.675 1.507 1.507 1.507h6.41l5.588 5.587c0.944 0.944 2.573 0.281 2.573-1.066v-21.1c0-1.348-1.63-2.009-2.573-1.066zM28.994 15.611l2.866-2.866c0.396-0.396 0.396-1.037 0-1.433l-1.433-1.433c-0.396-0.396-1.038-0.396-1.433 0l-2.866 2.866-2.866-2.866c-0.396-0.396-1.038-0.396-1.433 0l-1.433 1.433c-0.396 0.396-0.396 1.037 0 1.433l2.866 2.866-2.866 2.866c-0.396 0.396-0.396 1.038 0 1.433l1.433 1.433c0.396 0.396 1.038 0.396 1.433 0l2.866-2.866 2.866 2.866c0.396 0.396 1.038 0.396 1.433 0l1.433-1.433c0.396-0.396 0.396-1.038 0-1.433l-2.866-2.866z"></path>
</svg>
