<!-- Generated by IcoMoon.io -->
<svg version="1.1" xmlns="http://www.w3.org/2000/svg" width="36" height="32" viewBox="0 0 36 32">
<title>volume-up</title>
<path d="M13.505 3.995l-5.588 5.587h-6.41c-0.833 0-1.507 0.675-1.507 1.507v9.044c0 0.832 0.675 1.507 1.507 1.507h6.41l5.588 5.587c0.944 0.944 2.573 0.281 2.573-1.066v-21.1c0-1.348-1.63-2.009-2.573-1.066zM28.159 0.787c-0.702-0.46-1.644-0.266-2.105 0.437-0.461 0.702-0.265 1.644 0.437 2.105 4.162 2.731 6.646 7.323 6.646 12.284s-2.484 9.552-6.646 12.284c-0.702 0.46-0.898 1.403-0.437 2.104 0.442 0.673 1.377 0.914 2.105 0.437 5.019-3.295 8.017-8.837 8.017-14.825s-2.998-11.529-8.017-14.824zM30.147 15.611c0-3.99-2.014-7.659-5.387-9.813-0.703-0.448-1.635-0.24-2.080 0.469s-0.237 1.646 0.465 2.095c2.497 1.595 3.987 4.304 3.987 7.249s-1.49 5.654-3.987 7.249c-0.703 0.448-0.911 1.386-0.465 2.095 0.409 0.651 1.326 0.951 2.080 0.469 3.373-2.154 5.387-5.822 5.387-9.813zM21.243 10.783c-0.727-0.398-1.645-0.136-2.048 0.594-0.401 0.729-0.136 1.645 0.594 2.048 0.811 0.445 1.315 1.284 1.315 2.186s-0.504 1.741-1.314 2.186c-0.729 0.403-0.995 1.319-0.594 2.048 0.404 0.732 1.322 0.992 2.048 0.594 1.773-0.977 2.875-2.826 2.875-4.829s-1.102-3.851-2.875-4.827z"></path>
</svg>
