<!-- Generated by IcoMoon.io -->
<svg version="1.1" xmlns="http://www.w3.org/2000/svg" width="40" height="32" viewBox="0 0 40 32">
<title>vote-yea</title>
<path d="M38.186 19.631h-4.020v4.020h1.407c0.333 0 0.603 0.226 0.603 0.503v1.005c0 0.276-0.27 0.503-0.603 0.503h-30.951c-0.333 0-0.603-0.226-0.603-0.503v-1.005c0-0.276 0.27-0.503 0.603-0.503h1.407v-4.020h-4.020c-1.112 0-2.010 0.898-2.010 2.010v6.029c0 1.112 0.898 2.010 2.010 2.010h36.176c1.112 0 2.010-0.898 2.010-2.010v-6.029c0-1.112-0.898-2.010-2.010-2.010zM32.157 23.651v-20.079c0-1.124-0.911-2.029-2.029-2.029h-20.054c-1.124 0-2.035 0.911-2.035 2.029v20.079h24.118zM13.265 12.22l1.602-1.589c0.264-0.264 0.691-0.264 0.955 0.006l2.594 2.613 5.979-5.929c0.264-0.264 0.691-0.264 0.955 0.006l1.589 1.602c0.264 0.264 0.264 0.691-0.006 0.955l-8.058 7.989c-0.264 0.264-0.691 0.264-0.955-0.006l-4.654-4.692c-0.27-0.264-0.264-0.691 0-0.955z"></path>
</svg>
