<!-- Generated by IcoMoon.io -->
<svg version="1.1" xmlns="http://www.w3.org/2000/svg" width="40" height="32" viewBox="0 0 40 32">
<title>vr-cardboard</title>
<path d="M38.186 3.553h-36.176c-1.11 0-2.010 0.9-2.010 2.010v20.098c0 1.11 0.9 2.010 2.010 2.010h10.063c1.582 0 3.017-0.928 3.665-2.37l1.742-3.871c0.495-1.102 1.509-1.797 2.618-1.797s2.122 0.696 2.618 1.797l1.742 3.871c0.649 1.443 2.084 2.37 3.665 2.37h10.063c1.11 0 2.010-0.9 2.010-2.010v-20.098c0-1.11-0.9-2.010-2.010-2.010zM10.049 18.626c-2.22 0-4.020-1.799-4.020-4.020s1.799-4.020 4.020-4.020 4.020 1.799 4.020 4.020-1.799 4.020-4.020 4.020zM30.147 18.626c-2.22 0-4.020-1.799-4.020-4.020s1.799-4.020 4.020-4.020 4.020 1.799 4.020 4.020-1.799 4.020-4.020 4.020z"></path>
</svg>
