<!-- Generated by IcoMoon.io -->
<svg version="1.1" xmlns="http://www.w3.org/2000/svg" width="20" height="32" viewBox="0 0 20 32">
<title>walking</title>
<path d="M13.064 5.562c1.664 0 3.015-1.35 3.015-3.015s-1.35-3.015-3.015-3.015-3.015 1.35-3.015 3.015 1.35 3.015 3.015 3.015zM18.999 14.927l-1.463-0.741-0.609-1.847c-0.923-2.801-3.498-4.761-6.419-4.767-2.261-0.006-3.511 0.634-5.86 1.583-1.357 0.546-2.468 1.583-3.121 2.902l-0.421 0.854c-0.49 0.992-0.094 2.198 0.892 2.694 0.98 0.496 2.173 0.094 2.669-0.898l0.421-0.854c0.22-0.44 0.584-0.785 1.036-0.967l1.683-0.678-0.955 3.812c-0.327 1.306 0.025 2.694 0.936 3.693l3.762 4.108c0.452 0.496 0.773 1.093 0.936 1.74l1.149 4.604c0.27 1.074 1.363 1.733 2.437 1.463s1.733-1.363 1.463-2.437l-1.394-5.59c-0.163-0.647-0.484-1.25-0.936-1.74l-2.858-3.121 1.080-4.315 0.345 1.036c0.333 1.011 1.049 1.847 1.991 2.324l1.463 0.741c0.98 0.496 2.173 0.094 2.669-0.898 0.484-0.986 0.088-2.205-0.898-2.701zM4.622 23.764c-0.201 0.509-0.503 0.967-0.892 1.35l-3.14 3.147c-0.785 0.785-0.785 2.060 0 2.845s2.054 0.785 2.839 0l3.731-3.731c0.383-0.383 0.685-0.842 0.892-1.35l0.848-2.123c-3.473-3.787-2.431-2.625-2.977-3.373l-1.3 3.235z"></path>
</svg>
