<!-- Generated by IcoMoon.io -->
<svg version="1.1" xmlns="http://www.w3.org/2000/svg" width="32" height="32" viewBox="0 0 32 32">
<title>wallet1</title>
<path d="M28.984 8.003h-23.302c-1.807 0-2.552-0.844-2.844-1.349l25.161-2.651v-0.984c0-1.667-1.349-3.016-3.016-3.016l-21.969 4.083c-1.828 0.333-3.016 1.354-3.016 3.016v21.885c0 1.667 1.349 3.016 3.016 3.016h25.969c1.667 0 3.016-1.349 3.016-3.016v-17.969c0-1.667-1.349-3.016-3.016-3.016zM26.667 22.67c-1.474 0-2.667-1.193-2.667-2.667s1.193-2.667 2.667-2.667c1.474 0 2.667 1.193 2.667 2.667s-1.193 2.667-2.667 2.667z"></path>
</svg>
