<!-- Generated by IcoMoon.io -->
<svg version="1.1" xmlns="http://www.w3.org/2000/svg" width="32" height="32" viewBox="0 0 32 32">
<title>wallet</title>
<path d="M28.966 7.572h-23.942c-0.555 0-1.005-0.45-1.005-1.005s0.45-1.005 1.005-1.005h24.118c0.555 0 1.005-0.45 1.005-1.005 0-1.665-1.35-3.015-3.015-3.015h-23.113c-2.22 0-4.020 1.799-4.020 4.020v20.098c0 2.22 1.799 4.020 4.020 4.020h24.947c1.76 0 3.191-1.352 3.191-3.015v-16.078c0-1.662-1.431-3.015-3.191-3.015zM26.127 20.636c-1.11 0-2.010-0.9-2.010-2.010s0.9-2.010 2.010-2.010 2.010 0.9 2.010 2.010-0.9 2.010-2.010 2.010z"></path>
</svg>
