<!-- Generated by IcoMoon.io -->
<svg version="1.1" xmlns="http://www.w3.org/2000/svg" width="40" height="32" viewBox="0 0 40 32">
<title>warehouse</title>
<path d="M31.654 21.641h-23.087c-0.276 0-0.502 0.226-0.502 0.503l-0.006 3.015c0 0.276 0.226 0.503 0.502 0.503h23.094c0.276 0 0.502-0.226 0.502-0.503v-3.015c0-0.276-0.226-0.503-0.503-0.503zM31.654 27.67h-23.106c-0.276 0-0.502 0.226-0.502 0.503l-0.006 3.015c0 0.276 0.226 0.503 0.502 0.503h23.113c0.276 0 0.502-0.226 0.502-0.503v-3.015c0-0.276-0.226-0.503-0.503-0.503zM31.654 15.611h-23.075c-0.276 0-0.502 0.226-0.502 0.502l-0.006 3.015c0 0.276 0.226 0.503 0.502 0.503h23.081c0.276 0 0.502-0.226 0.502-0.503v-3.015c0-0.276-0.226-0.502-0.503-0.502zM38.343 6.881l-17.090-7.116c-0.342-0.146-0.741-0.231-1.159-0.231s-0.816 0.085-1.179 0.238l0.020-0.007-17.083 7.116c-1.118 0.471-1.853 1.564-1.853 2.782v21.524c0 0.276 0.226 0.503 0.502 0.503h5.024c0.276 0 0.503-0.226 0.503-0.503v-15.576c0-1.105 0.917-2.010 2.047-2.010h24.042c1.13 0 2.047 0.904 2.047 2.010v15.576c0 0.276 0.226 0.503 0.502 0.503h5.025c0.276 0 0.502-0.226 0.502-0.503v-21.524c0-1.218-0.735-2.311-1.853-2.782z"></path>
</svg>
