<!-- Generated by IcoMoon.io -->
<svg version="1.1" xmlns="http://www.w3.org/2000/svg" width="36" height="32" viewBox="0 0 36 32">
<title>water</title>
<path d="M35.303 23.644c-1.35-0.151-2.644-0.66-3.636-1.438-0.886-0.697-2.148-0.71-3.027 0-2.38 1.909-6.733 1.909-9.151-0.094-0.848-0.703-2.073-0.572-2.933 0.113-2.387 1.89-6.714 1.884-9.119-0.107-0.848-0.703-2.091-0.559-2.958 0.126-0.973 0.766-2.261 1.262-3.624 1.407-0.496 0.050-0.854 0.49-0.854 0.986v2.022c0 0.572 0.477 1.055 1.049 1.005 1.809-0.157 3.523-0.716 4.987-1.627 3.549 2.173 8.604 2.142 12.059 0 3.549 2.173 8.604 2.142 12.059 0 1.463 0.892 3.197 1.463 4.968 1.62 0.572 0.050 1.049-0.433 1.049-1.005v-1.985c0.006-0.503-0.358-0.967-0.867-1.024zM35.303 14.6c-1.35-0.151-2.644-0.66-3.636-1.438-0.886-0.697-2.148-0.71-3.027 0-2.38 1.909-6.733 1.909-9.151-0.094-0.848-0.703-2.073-0.572-2.933 0.113-2.387 1.89-6.714 1.884-9.119-0.107-0.848-0.703-2.091-0.559-2.958 0.126-0.973 0.766-2.261 1.262-3.624 1.407-0.496 0.050-0.854 0.49-0.854 0.986v2.022c0 0.572 0.477 1.055 1.049 1.005 1.809-0.157 3.523-0.716 4.987-1.627 3.549 2.173 8.604 2.142 12.059 0 3.549 2.173 8.604 2.142 12.059 0 1.463 0.892 3.197 1.463 4.968 1.62 0.572 0.050 1.049-0.433 1.049-1.005v-1.985c0.006-0.502-0.358-0.967-0.867-1.024zM35.303 5.556c-1.35-0.157-2.644-0.66-3.636-1.438-0.886-0.697-2.148-0.71-3.027 0-2.38 1.909-6.733 1.909-9.151-0.094-0.848-0.703-2.073-0.572-2.933 0.113-2.387 1.89-6.714 1.884-9.119-0.107-0.848-0.703-2.091-0.559-2.958 0.126-0.973 0.766-2.261 1.262-3.624 1.407-0.496 0.050-0.854 0.49-0.854 0.986v2.022c0 0.572 0.477 1.055 1.049 1.005 1.809-0.157 3.523-0.716 4.987-1.627 3.549 2.173 8.604 2.142 12.059 0 3.549 2.173 8.604 2.142 12.059 0 1.463 0.892 3.197 1.463 4.968 1.62 0.572 0.050 1.049-0.433 1.049-1.005v-1.985c0.006-0.502-0.358-0.967-0.867-1.024z"></path>
</svg>
