<!-- Generated by IcoMoon.io -->
<svg version="1.1" xmlns="http://www.w3.org/2000/svg" width="32" height="32" viewBox="0 0 32 32">
<title>wav-file-format-variant</title>
<path d="M27.737 7.239c-0.002-0.147-0.049-0.293-0.15-0.408l-6.2-7.082c-0.001-0.002-0.003-0.003-0.005-0.004-0.037-0.042-0.079-0.075-0.125-0.105-0.013-0.009-0.027-0.017-0.041-0.025-0.040-0.022-0.081-0.039-0.124-0.052-0.012-0.003-0.022-0.008-0.034-0.011-0.047-0.011-0.095-0.018-0.145-0.018h-15.238c-0.695 0-1.261 0.566-1.261 1.261v29.635c0 0.695 0.566 1.261 1.261 1.261h20.807c0.696 0 1.261-0.566 1.261-1.261v-23.119c-0-0.024-0.004-0.047-0.006-0.071zM11.215 29.011l-0.552-2.808c-0.125-0.659-0.232-1.269-0.31-2.015h-0.019c-0.116 0.736-0.223 1.356-0.378 2.015l-0.619 2.808h-1.618l-1.55-6.528h1.579l0.494 2.693c0.145 0.775 0.281 1.617 0.387 2.276h0.020c0.107-0.707 0.261-1.492 0.426-2.296l0.552-2.673h1.57l0.523 2.751c0.145 0.765 0.252 1.462 0.348 2.189h0.020c0.097-0.727 0.242-1.492 0.377-2.267l0.533-2.673h1.501l-1.685 6.528-1.599-0.001zM18.636 29.011l-0.504-1.675h-1.87l-0.465 1.675h-1.53l1.995-6.528h1.937l2.025 6.528h-1.588zM23.789 29.011h-1.724l-2.092-6.528h1.618l0.794 2.76c0.223 0.775 0.426 1.521 0.581 2.335h0.029c0.165-0.785 0.368-1.56 0.591-2.306l0.833-2.789h1.569l-2.2 6.528zM5.675 20.944v-20.15h14.607v6.452c0 0.348 0.282 0.631 0.631 0.631h5.569l0.001 13.068h-20.808zM17.183 23.587h-0.020c-0.097 0.387-0.193 0.881-0.3 1.259l-0.388 1.385h1.443l-0.406-1.385c-0.116-0.387-0.233-0.871-0.329-1.259zM13.269 12.058c0-0.354-0.287-0.642-0.641-0.642h-1.113c-0.355 0-0.641 0.288-0.641 0.642v2.739c0 0.355 0.287 0.642 0.641 0.642h1.113c0.355 0 0.641-0.288 0.641-0.642v0.683l6.302 2.732v-9.612l-6.302 2.775v0.683z"></path>
</svg>
