<!-- Generated by IcoMoon.io -->
<svg version="1.1" xmlns="http://www.w3.org/2000/svg" width="32" height="32" viewBox="0 0 32 32">
<title>waypoint-map</title>
<path d="M11.050 2.835c-0.194-0.006-0.388 0.022-0.573 0.082l-8.793 2.931c-0.677 0.226-1.131 0.858-1.131 1.571v21.61c0 0.356 0.17 0.69 0.457 0.897 0.289 0.207 0.659 0.265 0.996 0.153l8.821-2.942c0.123-0.041 0.256-0.037 0.379 0.013l10.254 4.101c0.198 0.080 0.407 0.119 0.616 0.119 0.203 0 0.405-0.037 0.599-0.114l8.821-3.431c0.642-0.248 1.056-0.853 1.056-1.541v-21.61c0-0.364-0.179-0.707-0.481-0.912-0.3-0.205-0.683-0.25-1.022-0.116l-8.774 3.409c-0.131 0.052-0.276 0.052-0.405 0l-10.256-4.103c-0.181-0.073-0.373-0.112-0.565-0.116zM11.017 3.936c0.062 0.002 0.127 0.015 0.19 0.041l10.252 4.101c0.39 0.155 0.821 0.157 1.216 0.004l8.774-3.409v21.61c0 0.226-0.142 0.431-0.353 0.513l-8.819 3.431c-0.131 0.052-0.276 0.052-0.405 0l-10.256-4.103c-0.196-0.080-0.405-0.119-0.614-0.119-0.177 0-0.353 0.028-0.524 0.084l-8.821 2.94v-21.61c0-0.237 0.151-0.448 0.377-0.524l8.793-2.931c0.062-0.022 0.127-0.030 0.192-0.028zM11.050 5.555c-0.129-0.002-0.259 0.017-0.381 0.058l-7.155 2.384c-0.453 0.153-0.754 0.573-0.754 1.050v16.491c0 0.353 0.172 0.688 0.457 0.894 0.289 0.207 0.657 0.263 0.996 0.151l5.894-1.966c0.289-0.095 0.446-0.407 0.349-0.698-0.097-0.287-0.407-0.444-0.698-0.347l-5.894 1.966v-16.494l7.155-2.386 10.647 4.259c0.259 0.106 0.547 0.106 0.808 0.004l6.769-2.634v16.472l-7.371 2.866c-0.284 0.112-0.427 0.431-0.317 0.713 0.086 0.22 0.295 0.353 0.515 0.353 0.067 0 0.134-0.011 0.198-0.037l7.373-2.869c0.429-0.166 0.705-0.569 0.705-1.028v-16.472c0-0.364-0.179-0.705-0.481-0.909s-0.683-0.25-1.022-0.116l-6.772 2.631-10.644-4.259c-0.121-0.050-0.248-0.075-0.377-0.080zM12.69 11.589c-0.828 0-1.524 0.619-1.634 1.418-1.627 0.651-2.78 2.246-2.78 4.099v0.099c-0.64 0.226-1.103 0.838-1.103 1.556s0.463 1.33 1.103 1.556v1.203c0 0.304 0.248 0.552 0.552 0.552s0.552-0.248 0.552-0.552v-1.203c0.64-0.226 1.103-0.838 1.103-1.556s-0.463-1.33-1.103-1.556v-0.099c0-1.323 0.778-2.466 1.903-2.996 0.287 0.474 0.812 0.789 1.407 0.789s1.121-0.315 1.407-0.789c1.125 0.53 1.903 1.672 1.903 2.996v1.103c0 2.433 1.981 4.414 4.414 4.414s4.414-1.981 4.414-4.414v-0.552c0-0.304-0.248-0.552-0.552-0.552s-0.552 0.248-0.552 0.552v0.552c0 1.825-1.485 3.31-3.31 3.31s-3.31-1.485-3.31-3.31v-1.103c0-1.853-1.153-3.448-2.78-4.099-0.11-0.8-0.806-1.418-1.634-1.418zM24.276 12.141c-1.218 0-2.207 0.989-2.207 2.207s0.989 2.207 2.207 2.207c1.218 0 2.207-0.989 2.207-2.207s-0.989-2.207-2.207-2.207zM12.69 12.693c0.304 0 0.552 0.248 0.552 0.552s-0.248 0.552-0.552 0.552c-0.304 0-0.552-0.248-0.552-0.552s0.248-0.552 0.552-0.552zM24.276 13.245c0.608 0 1.103 0.496 1.103 1.103s-0.496 1.103-1.103 1.103c-0.608 0-1.103-0.496-1.103-1.103s0.496-1.103 1.103-1.103zM8.828 18.21c0.304 0 0.552 0.248 0.552 0.552s-0.248 0.552-0.552 0.552c-0.304 0-0.552-0.248-0.552-0.552s0.248-0.552 0.552-0.552zM12.138 22.9c-0.306 0-0.552 0.246-0.552 0.552v1.103c0 0.306 0.246 0.552 0.552 0.552s0.552-0.246 0.552-0.552v-1.103c0-0.306-0.246-0.552-0.552-0.552zM14.897 24.003c-0.306 0-0.552 0.246-0.552 0.552v1.103c0 0.306 0.246 0.552 0.552 0.552s0.552-0.246 0.552-0.552v-1.103c0-0.306-0.246-0.552-0.552-0.552zM17.655 24.969c-0.306 0-0.552 0.246-0.552 0.552v1.103c0 0.306 0.246 0.552 0.552 0.552s0.552-0.246 0.552-0.552v-1.103c0-0.306-0.246-0.552-0.552-0.552zM20.414 25.934c-0.306 0-0.552 0.246-0.552 0.552v1.103c0 0.306 0.246 0.552 0.552 0.552s0.552-0.246 0.552-0.552v-1.103c0-0.306-0.246-0.552-0.552-0.552z"></path>
</svg>
