<!-- Generated by IcoMoon.io -->
<svg version="1.1" xmlns="http://www.w3.org/2000/svg" width="32" height="32" viewBox="0 0 32 32">
<title>weebly</title>
<path d="M26.698 3.668c-2.505 0-4.602 1.616-5.254 4.040-1.141-3.647-4.114-4.040-5.335-4.040-1.242 0-4.195 0.394-5.356 4.040-0.652-2.424-2.729-4.040-5.254-4.040-3.074 0-5.498 2.128-5.498 4.849 0 1.819 0.263 2.090 4.847 14.664 1.405 3.804 4.256 4.356 5.825 4.356 2.464 0 4.399-1.222 5.397-3.39 0.998 2.188 2.932 3.41 5.397 3.41 1.568 0 4.419-0.572 5.825-4.376 4.808-13.104 4.867-12.912 4.867-14.27 0.040-3.035-2.262-5.242-5.459-5.242zM28.353 10.878l-4.118 11.081c-0.497 1.35-1.333 2.338-2.904 2.338-1.472 0-2.348-0.779-2.765-2.129l-2.467-7.375h-0.060l-2.467 7.375c-0.437 1.35-1.313 2.11-2.765 2.11-1.571 0-2.407-0.989-2.904-2.338l-4.079-11.006c-0.338-0.931-0.497-1.502-0.497-2.167 0-1.026 0.995-1.844 2.407-1.844 1.174 0 2.009 0.741 2.268 1.825l2.765 8.782h0.060l2.805-8.591c0.378-1.235 1.034-2.015 2.447-2.015s2.069 0.761 2.447 2.015l2.805 8.591h0.060l2.765-8.782c0.259-1.083 1.094-1.825 2.268-1.825 1.392 0 2.407 0.837 2.407 2.243-0.020 0.494-0.259 1.007-0.478 1.711z"></path>
</svg>
