<!-- Generated by IcoMoon.io -->
<svg version="1.1" xmlns="http://www.w3.org/2000/svg" width="32" height="32" viewBox="0 0 32 32">
<title>weibo</title>
<path d="M25.562 10.687c0.477-1.507-0.842-2.939-2.349-2.619-1.382 0.301-1.809-1.765-0.446-2.060 3.147-0.685 5.797 2.33 4.805 5.326-0.427 1.332-2.437 0.678-2.010-0.647zM13.491 27.588c-6.676 0-13.491-3.228-13.491-8.56 0-2.782 1.759-5.992 4.792-9.025 6.262-6.262 12.762-6.337 10.903-0.358-0.251 0.823 0.773 0.358 0.773 0.377 4.993-2.11 8.824-1.055 7.16 3.228-0.232 0.59 0.069 0.685 0.521 0.823 8.523 2.657 2.186 13.516-10.658 13.516zM22.516 18.4c-0.339-3.498-4.93-5.904-10.262-5.383-5.326 0.54-9.346 3.787-9.006 7.285s4.93 5.904 10.262 5.383c5.326-0.54 9.346-3.787 9.006-7.285zM21.85 1.738c-1.627 0.352-1.055 2.745 0.521 2.405 4.541-0.955 8.466 3.316 7.015 7.788-0.465 1.52 1.828 2.324 2.349 0.754 2.003-6.268-3.461-12.304-9.886-10.947zM16.92 21.27c-1.074 2.437-4.195 3.768-6.852 2.908-2.563-0.823-3.643-3.354-2.531-5.634 1.112-2.223 3.963-3.479 6.494-2.833 2.638 0.678 3.963 3.153 2.889 5.558zM11.5 19.386c-0.81-0.339-1.884 0.019-2.387 0.81-0.521 0.81-0.27 1.759 0.54 2.135 0.823 0.377 1.934 0.019 2.456-0.81 0.502-0.823 0.232-1.777-0.609-2.135zM13.547 18.544c-0.32-0.107-0.716 0.038-0.898 0.339-0.182 0.32-0.088 0.666 0.232 0.81 0.32 0.126 0.735-0.019 0.917-0.339 0.176-0.327 0.069-0.685-0.251-0.81z"></path>
</svg>
