<!-- Generated by IcoMoon.io -->
<svg version="1.1" xmlns="http://www.w3.org/2000/svg" width="32" height="32" viewBox="0 0 32 32">
<title>weight-hanging</title>
<path d="M32.049 27.536l-4.587-18.348c-0.239-0.954-1.032-1.615-1.939-1.615h-3.784c0.224-0.631 0.369-1.301 0.369-2.010 0-3.33-2.699-6.029-6.029-6.029s-6.029 2.699-6.029 6.029c0 0.708 0.145 1.379 0.369 2.010h-3.784c-0.906 0-1.701 0.662-1.939 1.615l-4.588 18.348c-0.523 2.092 0.921 4.154 2.909 4.154h26.124c1.987 0 3.431-2.062 2.908-4.154zM16.078 7.572c-1.108 0-2.010-0.902-2.010-2.010s0.902-2.010 2.010-2.010 2.010 0.902 2.010 2.010-0.902 2.010-2.010 2.010z"></path>
</svg>
