<!-- Generated by IcoMoon.io -->
<svg version="1.1" xmlns="http://www.w3.org/2000/svg" width="36" height="32" viewBox="0 0 36 32">
<title>weixin</title>
<path d="M24.193 10.059c0.402 0 0.791 0.019 1.181 0.069-1.043-4.924-6.325-8.586-12.329-8.586-6.733 0-12.228 4.572-12.228 10.388 0 3.354 1.84 6.124 4.893 8.265l-1.212 3.68 4.271-2.142c1.533 0.301 2.751 0.609 4.283 0.609 0.389 0 0.76-0.019 1.149-0.050-0.251-0.81-0.389-1.671-0.389-2.563-0.006-5.332 4.579-9.672 10.382-9.672zM17.63 6.737c0.911 0 1.52 0.609 1.52 1.533 0 0.911-0.609 1.52-1.52 1.52-0.93 0-1.84-0.609-1.84-1.52 0.006-0.923 0.917-1.532 1.84-1.532zM9.063 9.789c-0.911 0-1.84-0.609-1.84-1.52 0-0.93 0.93-1.532 1.84-1.532 0.93 0 1.533 0.609 1.533 1.532 0 0.917-0.603 1.52-1.533 1.52zM35.36 19.593c0-4.893-4.893-8.874-10.388-8.874-5.822 0-10.388 3.982-10.388 8.874s4.572 8.875 10.388 8.875c1.212 0 2.443-0.32 3.68-0.622l3.354 1.84-0.93-3.052c2.462-1.847 4.283-4.29 4.283-7.041zM21.599 18.055c-0.609 0-1.212-0.609-1.212-1.231 0-0.609 0.609-1.212 1.212-1.212 0.93 0 1.532 0.609 1.532 1.212 0 0.628-0.609 1.231-1.532 1.231zM28.326 18.055c-0.609 0-1.212-0.609-1.212-1.231 0-0.609 0.609-1.212 1.212-1.212 0.911 0 1.532 0.609 1.532 1.212 0.006 0.628-0.622 1.231-1.532 1.231z"></path>
</svg>
