<!-- Generated by IcoMoon.io -->
<svg version="1.1" xmlns="http://www.w3.org/2000/svg" width="28" height="32" viewBox="0 0 28 32">
<title>whatsapp-square</title>
<path d="M14.069 7.246c-4.566 0-8.278 3.712-8.284 8.278 0 1.564 0.44 3.090 1.269 4.403l0.195 0.314-0.835 3.052 3.134-0.823 0.301 0.182c1.269 0.754 2.726 1.156 4.214 1.156h0.006c4.56 0 8.372-3.712 8.372-8.278 0-2.211-0.955-4.29-2.519-5.854-1.57-1.57-3.643-2.431-5.854-2.431zM18.936 19.078c-0.207 0.584-1.2 1.112-1.677 1.181-0.791 0.119-1.407 0.057-2.983-0.622-2.493-1.080-4.126-3.593-4.252-3.756s-1.018-1.35-1.018-2.575 0.641-1.828 0.873-2.079c0.226-0.251 0.496-0.314 0.666-0.314 0.163 0 0.333 0 0.477 0.006 0.151 0.006 0.358-0.057 0.559 0.427 0.207 0.496 0.703 1.721 0.766 1.847s0.107 0.27 0.019 0.433c-0.477 0.955-0.986 0.917-0.729 1.357 0.961 1.652 1.922 2.223 3.385 2.958 0.251 0.126 0.396 0.107 0.54-0.063 0.145-0.163 0.622-0.729 0.785-0.973 0.163-0.251 0.333-0.207 0.559-0.126s1.451 0.685 1.702 0.81 0.415 0.188 0.477 0.289c0.057 0.119 0.057 0.622-0.151 1.2zM25.122 1.543h-22.108c-1.664 0-3.015 1.35-3.015 3.015v22.108c0 1.664 1.35 3.015 3.015 3.015h22.108c1.664 0 3.015-1.35 3.015-3.015v-22.108c0-1.664-1.35-3.015-3.015-3.015zM14.062 25.484c-1.671 0-3.31-0.421-4.761-1.212l-5.282 1.388 1.413-5.163c-0.873-1.507-1.332-3.222-1.332-4.98 0.006-5.489 4.472-9.955 9.961-9.955 2.663 0 5.163 1.036 7.047 2.92 1.878 1.884 3.008 4.384 3.008 7.047 0 5.489-4.566 9.955-10.055 9.955z"></path>
</svg>
