<!-- Generated by IcoMoon.io -->
<svg version="1.1" xmlns="http://www.w3.org/2000/svg" width="28" height="32" viewBox="0 0 28 32">
<title>whatsapp</title>
<path d="M23.923 5.631c-2.632-2.638-6.136-4.089-9.861-4.089-7.687 0-13.943 6.255-13.943 13.943 0 2.456 0.641 4.855 1.859 6.971l-1.978 7.223 7.392-1.941c2.035 1.112 4.327 1.696 6.664 1.696h0.006c7.681 0 14.075-6.255 14.075-13.943 0-3.724-1.583-7.223-4.214-9.861zM14.062 27.086c-2.085 0-4.126-0.559-5.904-1.614l-0.421-0.251-4.384 1.149 1.168-4.277-0.276-0.44c-1.162-1.847-1.771-3.976-1.771-6.168 0-6.387 5.2-11.588 11.594-11.588 3.096 0 6.004 1.206 8.19 3.398s3.53 5.1 3.523 8.196c0 6.394-5.332 11.594-11.72 11.594zM20.418 18.406c-0.345-0.176-2.060-1.017-2.38-1.13-0.32-0.119-0.553-0.176-0.785 0.176s-0.898 1.13-1.105 1.369c-0.201 0.232-0.408 0.264-0.754 0.088-2.047-1.024-3.392-1.828-4.742-4.145-0.358-0.615 0.358-0.572 1.024-1.903 0.113-0.232 0.057-0.433-0.031-0.609s-0.785-1.89-1.074-2.588c-0.283-0.678-0.572-0.584-0.785-0.597-0.201-0.012-0.433-0.012-0.666-0.012s-0.609 0.088-0.93 0.433c-0.32 0.352-1.218 1.193-1.218 2.908s1.25 3.373 1.419 3.605c0.176 0.232 2.456 3.75 5.954 5.263 2.211 0.955 3.077 1.036 4.183 0.873 0.672-0.1 2.060-0.842 2.349-1.658s0.289-1.514 0.201-1.658c-0.082-0.157-0.314-0.245-0.66-0.415z"></path>
</svg>
