<!-- Generated by IcoMoon.io -->
<svg version="1.1" xmlns="http://www.w3.org/2000/svg" width="32" height="32" viewBox="0 0 32 32">
<title>wheelchair</title>
<path d="M31.158 23.755l0.894 1.8c0.247 0.497 0.044 1.1-0.453 1.347l-4.112 2.065c-1.008 0.5-2.233 0.075-2.713-0.946l-3.943-8.391h-8.773c-1 0-1.848-0.735-1.99-1.726-2.128-14.899-2.006-13.973-2.030-14.353 0-2.283 1.904-4.122 4.211-4.015 2.090 0.097 3.771 1.815 3.826 3.907 0.055 2.068-1.454 3.795-3.43 4.085l0.293 2.053h8.162c0.555 0 1.005 0.45 1.005 1.005v2.010c0 0.555-0.45 1.005-1.005 1.005h-7.588l0.287 2.010h8.306c0.8 0 1.49 0.467 1.814 1.143l0.005 0.012 3.612 7.688 2.272-1.152c0.497-0.247 1.1-0.044 1.347 0.453zM19.555 21.641h-1.539c-0.489 3.404-3.425 6.029-6.962 6.029-3.879 0-7.034-3.156-7.034-7.034 0-2.607 1.425-4.887 3.537-6.102-0.233-1.631-0.43-3.006-0.596-4.166-4.075 1.63-6.961 5.618-6.961 10.268 0 6.095 4.959 11.054 11.054 11.054 4.514 0 8.404-2.72 10.119-6.607l-1.617-3.442z"></path>
</svg>
