<!-- Generated by IcoMoon.io -->
<svg version="1.1" xmlns="http://www.w3.org/2000/svg" width="28" height="32" viewBox="0 0 28 32">
<title>whmcs</title>
<path d="M28.137 9.645v-1.338l-1.79-0.553-0.138-0.653 1.262-1.3-0.653-1.218-1.821 0.471-0.452-0.471 0.471-1.771-1.2-0.729-1.338 1.319-0.672-0.201-0.44-1.658h-1.419l-0.389 1.658-0.76 0.201-1.237-1.319-1.218 0.691 0.509 1.74-0.509 0.527-1.79-0.471-0.691 1.2 1.3 1.319-0.182 0.653-1.79 0.49-0.019 1.363 1.809 0.471 0.151 0.76-1.262 1.25 0.653 1.162 1.859-0.471 0.452 0.54-0.509 1.69 1.25 0.729 1.218-1.281 0.729 0.182 0.421 1.79 1.419 0.019 0.421-1.809 0.729-0.22 1.3 1.357 1.281-0.76-0.553-1.759 0.49-0.509 1.809 0.553 0.647-1.262-1.313-1.181 0.138-0.76 1.828-0.44zM20.651 12.484c-1.966 0-3.567-1.595-3.567-3.567s1.595-3.567 3.567-3.567 3.567 1.595 3.567 3.567c0 1.978-1.595 3.567-3.567 3.567zM25.192 13.514l2.946 0.911v2.506l-3.461 0.842-0.258 1.426 2.443 2.217-1.206 2.38-3.392-1.049-0.917 0.955 1.049 3.297-2.405 1.426-2.443-2.544-1.363 0.415-0.791 3.392-2.663-0.031-0.791-3.366-1.363-0.352-2.286 2.412-2.349-1.363 0.955-3.172-0.86-1.011-3.486 0.886-1.237-2.186 2.38-2.349-0.301-1.432-3.392-0.886 0.031-2.569 3.36-0.923 0.358-1.237-2.443-2.475 1.3-2.248 3.366 0.886 0.955-0.986-0.955-3.266 2.286-1.3 2.311 2.475 1.426-0.383 0.729-3.266h2.663l0.729 2.883-1.419-0.371-0.396-0.107-0.207 0.358-0.691 1.2-0.207 0.352 0.289 0.289 1.080 1.093-0.019 0.063-1.884 0.515-0.006 0.402-0.012 0.81c-2.983 0.653-5.232 3.316-5.232 6.5 0 3.662 2.971 6.639 6.639 6.639 3.172 0 5.822-2.223 6.482-5.2l1.262 0.019 0.1-0.421 0.352-1.507 0.119-0.038 1.369 1.426 0.364-0.214 1.281-0.76 0.364-0.22-0.126-0.408-0.427-1.332z"></path>
</svg>
