<!-- Generated by IcoMoon.io -->
<svg version="1.1" xmlns="http://www.w3.org/2000/svg" width="40" height="32" viewBox="0 0 40 32">
<title>wifi</title>
<path d="M39.876 9.26c-11.127-10.292-28.434-10.288-39.557 0-0.418 0.387-0.426 1.042-0.022 1.443l2.15 2.134c0.386 0.383 1.006 0.391 1.407 0.024 9.165-8.396 23.32-8.398 32.486 0 0.401 0.367 1.021 0.359 1.407-0.024l2.15-2.134c0.404-0.401 0.396-1.056-0.023-1.443zM20.098 21.641c-2.22 0-4.020 1.799-4.020 4.020s1.799 4.020 4.020 4.020 4.020-1.799 4.020-4.020-1.799-4.020-4.020-4.020zM32.827 16.391c-7.239-6.402-18.227-6.395-25.458 0-0.433 0.383-0.447 1.048-0.036 1.454l2.163 2.135c0.377 0.372 0.984 0.397 1.385 0.050 5.273-4.558 13.173-4.548 18.433 0 0.401 0.347 1.008 0.322 1.385-0.050l2.163-2.135c0.412-0.406 0.398-1.071-0.035-1.454z"></path>
</svg>
