<!-- Generated by IcoMoon.io -->
<svg version="1.1" xmlns="http://www.w3.org/2000/svg" width="40" height="32" viewBox="0 0 40 32">
<title>wikipedia-w</title>
<path d="M40.196 2.749l-0.019 0.766c-1.765 0.050-2.826 0.992-3.505 2.531-1.57 3.63-6.488 15.073-9.754 22.522h-0.854l-5.144-12.128c-2.041 3.994-4.29 8.165-6.23 12.128-0.019 0.019-0.942 0-0.942-0.019-2.946-6.89-6.036-13.729-8.988-20.638-0.716-1.677-3.103-4.396-4.748-4.378 0-0.195-0.019-0.628-0.019-0.892h10.168v0.873c-1.206 0.069-3.316 0.835-2.72 2.148 1.375 3.121 6.507 15.092 7.888 18.126 0.942-1.865 3.63-6.858 4.729-8.969-0.873-1.777-3.68-8.41-4.572-10.049-0.609-1.118-2.267-1.218-3.505-1.237v-0.873l8.95 0.019v0.823c-1.218 0.038-2.393 0.49-1.847 1.639 1.187 2.512 1.922 4.277 3.021 6.576 0.352-0.678 2.179-4.359 3.021-6.331 0.559-1.294-0.245-1.796-2.424-1.847 0.019-0.226 0-0.647 0.019-0.854 2.789-0.019 6.978-0.019 7.731-0.038v0.854c-1.413 0.050-2.877 0.804-3.649 1.991l-3.718 7.713c0.402 1.011 3.976 8.969 4.346 9.842l7.687-17.749c-0.54-1.451-2.286-1.765-2.964-1.777v-0.873l8.027 0.069 0.013 0.031z"></path>
</svg>
