<!-- Generated by IcoMoon.io -->
<svg version="1.1" xmlns="http://www.w3.org/2000/svg" width="32" height="32" viewBox="0 0 32 32">
<title>window-close</title>
<path d="M29.142 1.543h-26.127c-1.664 0-3.015 1.35-3.015 3.015v22.108c0 1.664 1.35 3.015 3.015 3.015h26.127c1.664 0 3.015-1.35 3.015-3.015v-22.108c0-1.664-1.35-3.015-3.015-3.015zM29.142 26.288c0 0.207-0.17 0.377-0.377 0.377h-25.374c-0.207 0-0.377-0.17-0.377-0.377v-21.354c0-0.207 0.17-0.377 0.377-0.377h25.374c0.207 0 0.377 0.17 0.377 0.377v21.354zM22.39 11.755l-3.856 3.856 3.856 3.856c0.289 0.289 0.289 0.76 0 1.055l-1.401 1.401c-0.289 0.289-0.76 0.289-1.055 0l-3.856-3.856-3.856 3.856c-0.289 0.289-0.76 0.289-1.055 0l-1.401-1.401c-0.289-0.289-0.289-0.76 0-1.055l3.856-3.856-3.856-3.856c-0.289-0.289-0.289-0.76 0-1.055l1.401-1.401c0.289-0.289 0.76-0.289 1.055 0l3.856 3.856 3.856-3.856c0.289-0.289 0.76-0.289 1.055 0l1.401 1.401c0.295 0.289 0.295 0.76 0 1.055z"></path>
</svg>
