<!-- Generated by IcoMoon.io -->
<svg version="1.1" xmlns="http://www.w3.org/2000/svg" width="32" height="32" viewBox="0 0 32 32">
<title>wind</title>
<path d="M9.842 15.611h-8.837c-0.553 0-1.005 0.452-1.005 1.005v2.010c0 0.553 0.452 1.005 1.005 1.005h8.931c0.999 0 1.934 0.685 2.098 1.671 0.207 1.256-0.76 2.349-1.985 2.349-0.886 0-1.639-0.578-1.909-1.375-0.132-0.396-0.54-0.634-0.955-0.634h-2.060c-0.615 0-1.112 0.553-0.999 1.156 0.54 2.77 2.99 4.874 5.916 4.874 3.586 0 6.45-3.147 5.979-6.821-0.383-3.040-3.121-5.238-6.18-5.238zM1.005 13.602h21.103c3.75 0 6.708-3.442 5.891-7.329-0.477-2.274-2.317-4.114-4.591-4.591-3.479-0.729-6.601 1.564-7.216 4.742-0.119 0.603 0.383 1.149 0.992 1.149h2.060c0.421 0 0.823-0.239 0.955-0.634 0.27-0.798 1.024-1.375 1.909-1.375 1.218 0 2.192 1.093 1.985 2.349-0.163 0.986-1.093 1.671-2.098 1.671h-20.99c-0.553 0-1.005 0.452-1.005 1.005v2.010c0 0.553 0.452 1.005 1.005 1.005zM25.122 15.611h-9.817c1.212 1.043 2.085 2.437 2.5 4.020h7.317c1.664 0 3.015 1.35 3.015 3.015s-1.35 3.015-3.015 3.015c-1.124 0-2.091-0.622-2.613-1.532-0.182-0.314-0.546-0.477-0.911-0.477h-2.123c-0.685 0-1.193 0.678-0.961 1.325 1.118 3.178 4.428 5.326 8.127 4.541 2.588-0.546 4.717-2.613 5.32-5.194 1.074-4.597-2.412-8.711-6.84-8.711z"></path>
</svg>
