<!-- Generated by IcoMoon.io -->
<svg version="1.1" xmlns="http://www.w3.org/2000/svg" width="32" height="32" viewBox="0 0 32 32">
<title>window-close1</title>
<path d="M29.142 1.543h-26.127c-1.664 0-3.015 1.35-3.015 3.015v22.108c0 1.664 1.35 3.015 3.015 3.015h26.127c1.664 0 3.015-1.35 3.015-3.015v-22.108c0-1.664-1.35-3.015-3.015-3.015zM23.891 19.788c0.301 0.301 0.301 0.791 0 1.093l-2.544 2.544c-0.301 0.301-0.791 0.301-1.093 0l-4.177-4.214-4.177 4.214c-0.301 0.301-0.791 0.301-1.093 0l-2.544-2.544c-0.301-0.301-0.301-0.791 0-1.093l4.214-4.177-4.214-4.177c-0.301-0.301-0.301-0.791 0-1.093l2.544-2.544c0.301-0.301 0.791-0.301 1.093 0l4.177 4.214 4.177-4.214c0.301-0.301 0.791-0.301 1.093 0l2.544 2.544c0.301 0.301 0.301 0.791 0 1.093l-4.214 4.177 4.214 4.177z"></path>
</svg>
