<!-- Generated by IcoMoon.io -->
<svg version="1.1" xmlns="http://www.w3.org/2000/svg" width="32" height="32" viewBox="0 0 32 32">
<title>window-restore1</title>
<path d="M32.157 2.548v18.088c0 1.664-1.35 3.015-3.015 3.015h-3.015v-13.064c0-2.77-2.255-5.024-5.024-5.024h-13.064v-3.015c0-1.664 1.35-3.015 3.015-3.015h18.088c1.664 0 3.015 1.35 3.015 3.015zM24.118 10.587v18.088c0 1.664-1.35 3.015-3.015 3.015h-18.088c-1.664 0-3.015-1.35-3.015-3.015v-18.088c0-1.664 1.35-3.015 3.015-3.015h18.088c1.664 0 3.015 1.35 3.015 3.015zM19.847 12.345c0-0.415-0.339-0.754-0.754-0.754h-14.32c-0.415 0-0.754 0.339-0.754 0.754v3.266h15.827v-3.266z"></path>
</svg>
