<!-- Generated by IcoMoon.io -->
<svg version="1.1" xmlns="http://www.w3.org/2000/svg" width="32" height="32" viewBox="0 0 32 32">
<title>window-restore</title>
<path d="M29.142-0.467h-20.098c-1.664 0-3.015 1.35-3.015 3.015v3.015h-3.015c-1.664 0-3.015 1.35-3.015 3.015v20.098c0 1.664 1.35 3.015 3.015 3.015h20.098c1.664 0 3.015-1.35 3.015-3.015v-3.015h3.015c1.664 0 3.015-1.35 3.015-3.015v-20.098c0-1.664-1.35-3.015-3.015-3.015zM23.113 28.675h-20.098v-13.064h20.098v13.064zM29.142 22.646h-3.015v-14.069c0-1.664-1.35-3.015-3.015-3.015h-14.069v-3.015h20.098v20.098z"></path>
</svg>
