<!-- Generated by IcoMoon.io -->
<svg version="1.1" xmlns="http://www.w3.org/2000/svg" width="32" height="32" viewBox="0 0 32 32">
<title>wine-bottle</title>
<path d="M31.862 4.091l-4.263-4.263c-0.392-0.393-1.029-0.393-1.421 0l-1.421 1.421c-0.392 0.393-0.392 1.029 0 1.421l-4.815 4.815c-2.925-1.237-6.431-0.674-8.816 1.71l-9.947 9.947c-1.57 1.57-1.57 4.115 0 5.685l5.685 5.685c1.57 1.57 4.115 1.57 5.685 0l9.948-9.948c2.384-2.384 2.947-5.891 1.71-8.816l4.815-4.815c0.392 0.393 1.029 0.393 1.421 0l1.421-1.421c0.392-0.392 0.392-1.028-0.001-1.421zM11.256 26.118l-5.685-5.685 7.665-7.665 5.685 5.685-7.665 7.665z"></path>
</svg>
