<!-- Generated by IcoMoon.io -->
<svg version="1.1" xmlns="http://www.w3.org/2000/svg" width="18" height="32" viewBox="0 0 18 32">
<title>wine-glass</title>
<path d="M13.566 28.675h-2.512v-7.36c4.3-0.998 7.414-5.019 6.997-9.682l-1.002-11.186c-0.046-0.517-0.474-0.914-0.987-0.914h-14.036c-0.512 0-0.94 0.396-0.986 0.914l-1.002 11.186c-0.418 4.663 2.696 8.684 6.997 9.682v7.36h-2.512c-1.387 0-2.512 1.125-2.512 2.512 0 0.278 0.225 0.503 0.502 0.503h13.064c0.278 0 0.503-0.225 0.503-0.503 0-1.387-1.125-2.512-2.512-2.512z"></path>
</svg>
