<!-- Generated by IcoMoon.io -->
<svg version="1.1" xmlns="http://www.w3.org/2000/svg" width="32" height="32" viewBox="0 0 32 32">
<title>wiper</title>
<path d="M1.282 3.663c-0.706 0-1.282 0.576-1.282 1.283v19.238c0 0.706 0.576 1.282 1.282 1.282h29.498c0.706 0 1.282-0.576 1.282-1.282v-19.238c0-0.706-0.576-1.282-1.282-1.282zM1.282 4.945h29.498v16.673h-12.925c-0.256-0.759-0.959-1.282-1.824-1.282-0.213 0-0.413 0.040-0.601 0.1l-7.855-10.1c-0.005-0.008-0.015-0.012-0.020-0.020-0.050-0.065-0.11-0.118-0.18-0.16-0.010-0.008-0.028 0.005-0.040 0-0.12-0.070-0.263-0.098-0.401-0.080-0.085 0.018-0.168 0.050-0.24 0.1-0.008 0.005-0.013 0.015-0.020 0.020-0.283 0.2-0.356 0.594-0.16 0.882 0.005 0.008 0.015 0.012 0.020 0.020 0.008 0.008 0.013 0.012 0.020 0.020l7.855 10.1c-0.080 0.125-0.15 0.256-0.2 0.401h-12.925zM16.031 7.51c-3.013 0-5.506 0.894-7.495 1.984l4.809 6.232c0.834-0.321 1.723-0.521 2.685-0.521 4.040 0 7.114 3.647 7.114 3.647 0.128 0.128 0.268 0.195 0.461 0.261 0.193 0 0.373-0.053 0.501-0.18l4.369-4.369c0.193-0.193 0.253-0.506 0.060-0.761s-4.617-6.292-12.504-6.292zM5.451 11.739c-1.155 1.090-1.798 1.936-1.864 2.064-0.193 0.255-0.133 0.566 0.060 0.822l4.369 4.369c0.128 0.128 0.248 0.18 0.441 0.18s0.333-0.048 0.461-0.241c0 0 0.436-0.521 1.142-1.162l-4.549-5.892c-0.065-0.065-0.060-0.14-0.060-0.14zM12.885 26.748l-0.18 1.543c-0.065 0.576-0.586 1.022-1.162 1.022h-0.641c-0.386 0-0.641 0.256-0.641 0.641s0.255 0.641 0.641 0.641h10.26c0.386 0 0.641-0.256 0.641-0.641s-0.256-0.641-0.641-0.641h-0.641c-0.576 0-1.097-0.446-1.162-1.022l-0.241-1.543z"></path>
</svg>
