<!-- Generated by IcoMoon.io -->
<svg version="1.1" xmlns="http://www.w3.org/2000/svg" width="40" height="32" viewBox="0 0 40 32">
<title>wix</title>
<path d="M24.707 7.804c0 0.818 0.131 2.053-1.801 2.753-0.598 0.217-1.002 0.607-1.002 0.607 0-1.947 0.296-2.652 1.093-3.069 0.612-0.321 1.71-0.291 1.71-0.291zM17.434 10.036l-2.15 8.332-1.789-6.819c-0.483-2.009-1.307-3.048-3.042-3.048-1.719 0-2.554 1.016-3.042 3.048l-1.789 6.819-2.15-8.332c-0.349-1.678-1.973-2.404-3.472-2.215l4.118 15.572s1.358 0.098 2.039-0.249c0.893-0.455 1.318-0.806 1.858-2.925 0.482-1.889 1.828-7.437 1.955-7.832 0.299-0.938 0.697-0.867 0.967 0 0.124 0.396 1.473 5.943 1.955 7.832 0.54 2.118 0.965 2.47 1.858 2.925 0.68 0.347 2.039 0.249 2.039 0.249l4.118-15.572c-1.534-0.193-3.129 0.561-3.473 2.215zM24.705 10.363s-0.258 0.398-0.845 0.727c-0.378 0.211-0.74 0.354-1.129 0.541-0.951 0.456-0.828 0.876-0.828 2.211v9.551s1.039 0.131 1.719-0.215c0.875-0.446 1.076-0.876 1.084-2.813v-9.438l-0.001 0.001v-0.564zM34.97 15.644l5.225-7.772s-2.205-0.376-3.297 0.619c-0.835 0.76-1.533 1.856-3.403 4.552-0.030 0.046-0.392 0.662-0.821 0-1.84-2.652-2.563-3.787-3.403-4.552-1.092-0.994-3.297-0.619-3.297-0.619l5.225 7.772-5.211 7.748s2.297 0.29 3.388-0.704c0.722-0.657 1.104-1.279 3.298-4.442 0.428-0.661 0.79-0.048 0.821 0 1.847 2.662 2.464 3.647 3.337 4.442 1.092 0.994 3.349 0.704 3.349 0.704l-5.212-7.748z"></path>
</svg>
