<!-- Generated by IcoMoon.io -->
<svg version="1.1" xmlns="http://www.w3.org/2000/svg" width="40" height="32" viewBox="0 0 40 32">
<title>wizards-of-the-coast</title>
<path d="M13.766 21.244c-0.119 0.087-0.695 0.53-0.016 1.48 0.291 0.403 0.886 0.803 1.365 0.411 0.408-0.307 0.462-0.811 0.016-1.447-0.344-0.487-0.897-0.809-1.365-0.445zM34.916 26.014c-0.021 0.107-0.035 0.105 0.050 0 0.131-0.263 0.263-0.641 0.313-1.25 0.197-2.417-2.533-4.49-6.365-4.901-3.437-0.378-7.812 0.576-11.858 3.799l-0.016 0.099c0.165 0.313 0.313 0.675 0.214 1.332l0.050 0.016c4.013-3.668 8.239-4.852 11.578-4.638 3.668 0.23 6.283 2.138 6.283 4.276-0.001 0.626-0.165 0.987-0.248 1.267zM24.638 14.633c0.050 0.444 0.263 0.641 0.576 0.658 0.345 0.016 0.592-0.165 0.658-0.411 0.050-0.214 0.131-1.875 0.131-1.875s-0.707 0.411-0.938 0.658c-0.23 0.231-0.46 0.527-0.427 0.971zM21.496 5.143c-12.844 0-20.673 8.635-21.446 9.539-0.066 0.033-0.082 0.050 0.050 0.082 3.799 1.036 9.786 5.099 12.318 12.697l0.066 0.016c3.47-4.391 8.848-8.042 14.884-8.042 5.082 0 8.174 2.648 8.174 5.049 0 1.151-0.411 2.105-1.398 2.911 0 0.060-0.013 0.050 0.050 0.050 0.921-0.675 1.727-1.809 1.727-3.026 0-1.431-0.757-2.401-0.757-2.401 0.444 0.444 0.675 1.020 0.675 1.020 0.362-2.566 1.694-3.914 1.694-3.914-0.148-0.609-0.428-1.119-0.428-1.119 0.477 0.51 0.904 1.727 0.904 2.598 0 0.658-0.214 1.431-0.79 2.007l0.016 0.033c0.51-0.313 1.036-1.053 1.036-2.385 0-0.987-0.296-1.628-0.296-1.628 0.362-0.329 0.707-0.576 1.003-0.74 0.050 0.214 0.131 0.609 0.148 0.938 0 0.066 0.050 0.115 0.066 0 0.050-0.362-0.016-1.020-0.016-1.036 0.378-0.197 0.609-0.28 0.609-0.28-0.988-6.925-9.047-12.369-18.29-12.369zM15.263 23.333c-0.695 0.565-1.52 0.256-1.924-0.263-0.468-0.602-0.425-1.513 0.263-2.039 0.933-0.713 1.701-0.031 1.957 0.345 0.018 0.025 0.762 1.041-0.296 1.957zM15.394 14.764l0.592-1.119 0.74 4.457-0.79 0.378-1.546-1.809 0.888-1.678 0.23 0.28-0.115-0.509zM16.562 22.149l-0.016-0.016c0.129-0.258-0.157-0.415-1.102-1.99-0.082-0.148-0.197-0.181-0.28-0.165l-0.016-0.033c0.494-0.362 0.97-0.641 1.595-0.987l0.033 0.016c0.082 0.115 0.131 0.181 0.214 0.296l-0.016 0.033c-0.066-0.016-0.148-0.050-0.329 0.016-0.131 0.050-0.494 0.23-0.773 0.477v0.082c0.099 0.148 0.247 0.411 0.362 0.609h0.016c0.631-0.394 0.475-0.286 0.724-0.494h0.016c0.033 0.115 0.033 0.115 0.115 0.345l-0.016 0.016c-0.192 0.038-0.292 0.021-0.724 0.345v0.016c0.594 1.069 0.692 1.052 0.79 1.003l0.016 0.016c-0.147 0.1-0.394 0.264-0.608 0.413zM20.033 20.11c-0.197 0.099-0.378 0.181-0.625 0.313l-0.016-0.016c0.081-0.163 0.073-0.17-0.74-2.039l-0.016-0.016c-0.009 0-0.559 0.229-0.625 0.46h-0.033l-0.066-0.362 0.016-0.033c0.458-0.286 1.603-0.731 1.743-0.79l0.033 0.016 0.197 0.313-0.016 0.033c-0.222-0.11-0.462 0.048-0.773 0.165v0.016c0.773 2.010 0.796 1.924 0.921 1.924v0.016zM22.844 19.073c-0.263 0.066-0.329 0.082-0.609 0.181l-0.016-0.016 0.033-0.28c-0.066-0.214-0.197-0.724-0.23-0.855l-0.016-0.016c-0.214 0.050-0.559 0.165-0.806 0.247l-0.016 0.016c0.050 0.165 0.197 0.625 0.263 0.872 0.050 0.148 0.115 0.181 0.181 0.197v0.033c-0.23 0.066-0.444 0.165-0.641 0.247l-0.016-0.016c0.066-0.082 0.066-0.181 0.016-0.313-0.066-0.197-0.51-1.497-0.576-1.71-0.033-0.115-0.099-0.197-0.165-0.197v-0.033c0.197-0.066 0.378-0.131 0.675-0.214l0.016 0.016-0.016 0.296c0.082 0.247 0.148 0.477 0.197 0.609h0.016c0.247-0.082 0.592-0.181 0.806-0.247l0.016-0.016-0.165-0.592c-0.033-0.115-0.066-0.214-0.165-0.247v-0.016c0.28-0.066 0.46-0.115 0.675-0.148l0.016 0.016c-0.066 0.082-0.066 0.181-0.033 0.28 0.099 0.394 0.296 1.283 0.394 1.661 0.034 0.165 0.116 0.214 0.165 0.247zM24.867 18.646l-0.016 0.016c-0.296 0.033-0.888 0.148-1.414 0.263l-0.016-0.016 0.050-0.263c-0.099-0.494-0.214-1.168-0.313-1.645-0.016-0.115-0.050-0.181-0.165-0.23l0.050-0.033c0.576-0.099 1.266-0.148 1.563-0.165l0.016 0.016c0.033 0.148 0.050 0.197 0.099 0.345l-0.016 0.016c-0.072-0.072-0.21-0.201-1.020-0.050l-0.016 0.016c0.016 0.099 0.066 0.411 0.099 0.625l0.016 0.016c0.598-0.105 0.299-0.004 0.675-0.148h0.016c0 0.099-0.016 0.115-0.016 0.329h-0.016c-0.302-0.065-0.135-0.057-0.641 0l-0.016 0.016c0.016 0.131 0.099 0.592 0.131 0.79l0.016 0.016c0.072 0.024 0.892-0.041 1.020-0.296h0.016c-0.033 0.15-0.066 0.264-0.099 0.379zM25.542 15.85c-0.28 0.148-0.51 0.181-0.691 0.181-0.016 0.001-0.717 0.068-1.102-0.625-0.423-0.678-0.062-1.583 0.345-1.99 0.553-0.51 1.467-0.634 1.793-1.069 0.504-0.649-0.819-1.401-1.858-0.362l-0.165-0.181 0.329-1.020c1.607-0.099 2.839-0.191 3.142 1.020 0.050 0.197 0 0.592-0.016 0.757 0 0.165-0.115 1.184-0.131 1.447-0.033 0.263-0.050 1.151-0.050 1.299 0.016 0.148 0.033 0.263 0.099 0.345 0.099 0.115 0.362 0.115 0.362 0.115l-0.050 0.296c-0.742-0.067-0.646-0.037-1.283-0.066-0.202-0.323-0.14-0.206-0.263-0.494 0 0.001-0.263 0.248-0.46 0.346zM27.877 17.182c-0.399-0.665-1.245-0.45-1.365 0.345-0.165 1.073 0.898 1.243 1.299 0.641l0.016 0.016c-0.033 0.115-0.115 0.378-0.115 0.394l-0.033 0.033c-0.647 0.431-1.79-0.157-1.612-1.168 0.122-0.683 0.907-1.189 1.809-0.625l0.016 0.033c0 0.067-0.017 0.214-0.017 0.33zM28.239 11.672v-0.411c0.043 0 1.234 0.206 1.743 0.46l-0.099 1.102s0.641-0.592 0.97-0.675c0.329-0.099 0.938 0.46 0.938 0.46l-0.707 0.707c-0.758-0.399-1.23-0.005-1.299 0.050-0.332 2.432-0.54 2.649 0.28 2.895l-0.033 0.296c-1.102-0.269-1.164-0.283-2.319-0.46l0.050-0.296c0.455 0 0.47-0.334 0.477-0.428 0 0 0.313-3.339 0.313-3.47-0.001-0.18-0.313-0.23-0.313-0.23zM28.93 18.86c-0.51-0.131-0.888-0.691-0.675-1.299 0.197-0.592 0.773-0.773 1.184-0.641 0.576 0.165 0.806 0.74 0.675 1.217-0.164 0.559-0.592 0.871-1.184 0.724zM31.578 19.468c-0.148-0.033-0.444-0.148-0.543-0.181v-0.016l0.099-0.115c0.037-0.517 0.037-0.457 0.016-0.477-0.303-0.114-0.418-0.148-0.444-0.148-0.082 0.115-0.181 0.28-0.23 0.345l-0.050 0.214v0.016c-0.082-0.016-0.247-0.082-0.378-0.099v-0.016l0.165-0.115c0.214-0.296 0.625-0.888 0.872-1.266v-0.131l0.033-0.016c0.131 0.050 0.345 0.131 0.477 0.181 0.030 0.030 0.011-0.117-0.066 1.579-0.015 0.114 0.001 0.163 0.050 0.246zM31.282 13.827c0.707-1.148 1.932-1.017 2.138-0.214l0.477-1.645c0.147-0.393-0.177-0.622-0.28-0.707l0.115-0.23c0.767 0.651 1.029 0.877 1.414 1.283-1.627 4.589-1.932 5.075-1.546 5.296l-0.115 0.28c-0.4-0.21-0.559-0.278-1.119-0.543l0.131-0.428c-0.016-0.016-0.247 0.247-0.609 0.23-1.197-0.082-1.438-1.994-0.607-3.322zM33.124 18.81c0-0.359-0.398-0.495-0.494-0.329-0.082 0.131 0.066 0.313 0.181 0.526 0.099 0.165 0.165 0.394 0.066 0.592-0.166 0.398-0.779 0.333-0.97-0.050 0-0.044-0.017 0.006 0.115-0.296l0.050-0.016c-0.036 0.355 0.381 0.604 0.526 0.313 0.066-0.131-0.033-0.345-0.131-0.526-0.099-0.165-0.23-0.394-0.115-0.609 0.171-0.318 0.707-0.281 0.921 0.148v0.033l-0.148 0.214zM34.456 19.649c-0.123-0.205-0.057-0.134-0.28-0.296h-0.016c-0.148 0.263-0.362 0.658-0.543 1.020-0.082 0.148-0.066 0.214-0.050 0.247l-0.016 0.016-0.362-0.28 0.016-0.016 0.131-0.082c0.197-0.362 0.411-0.757 0.576-1.069v-0.016c-0.166-0.124-0.077-0.095-0.378-0.115v-0.016l0.197-0.214h0.016c0.23 0.148 0.625 0.428 0.773 0.559l0.016 0.016-0.082 0.246zM36.166 16.869l-0.181-0.181c0.050-0.148 0.115-0.313 0.131-0.477 0.047-0.612-0.724-0.744-0.724-0.313 0 0.313 0.494 1.217 0.494 1.743 0 0.641-0.362 0.987-0.872 1.036-0.526 0.050-1.266-0.658-1.266-0.658l0.313-0.904 0.181 0.131c-0.187 1.118 1.11 1.279 0.838 0.329-0.067-0.253-1.178-2.148 0.131-2.401 0.855-0.148 1.447 1.036 1.447 1.036l-0.493 0.657zM38.403 16.228c-0.691-1.908-3.799-8.010-12.056-8.141-3.355-0.066-5.921 0.97-8.338 2.385l5.378-0.576-5.74 1.299 1.579 1.233-0.247-1.036c0.471-0.107 2.459-0.531 4.194-0.559l-1.398 5.049c0.855-0.044 1.191-0.564 1.233-1.431l0.313-0.066 0.016 1.677c-1.411 0.202-2.343 0.42-3.108 0.625l0.822-2.714-3.865-2.303 0.148 0.51 0.641 0.313c0.394 1.168 1.217 3.552 1.283 3.684 0.122 0.269 0.198 0.363 0.757 0.28l0.066 0.313c-1.010 0.305-1.486 0.478-2.451 0.904l-0.148-0.296c0.276-0.185 0.548-0.247 0.345-0.806-1.488-3.925-1.349-3.652-1.431-3.733l0.148-0.28 2.105 4.227c-0.241-0.745 0.105 0.106-2.072-4.95l-2.632 5.559 0.296-0.872-2.253-2.648 1.743 5.871-0.74 0.526c-7.027-6.386-6.647-6.179-7.139-6.201-0.345-0.016-0.855 0.345-0.855 0.345l-0.313-0.378c1.919-1.478 1.986-1.528 3.668-2.681l0.263 0.444s-0.362 0.263-0.494 0.444c-0.371 0.583 0.105 0.834 3.881 4.753l-1.184-3.701 2.5-0.641 1.612 1.924 0.28-0.773-0.313-1.546 0.822-0.214 0.033 0.197 0.23-0.658-5.921 1.842 0.707-0.313-0.855-2.664 1.085-0.576 1.891 2.27 1.793-0.822c-0.089-0.469-0.155-0.911-0.296-1.233l1.085 0.872 0.296-0.131-3.717-2.681 1.45 0.722c1.192-0.381 1.585-0.469 2.023-0.609l0.165 0.691c-0.788 0.788 0.090 1.056 0.411 1.217l-0.855-3.832 0.757 1.776c0.263-0.082 0.46-0.131 0.46-0.131l0.165 0.543s-0.197 0.066-0.394 0.131l0.559 1.316 2.122-4.128-1.299 3.832c2.664-1.513 5.115-2.303 8.289-2.253 4.21 0.066 10.509 2.566 12.549 8.782 0.049 0.132-0.001 0.165-0.050 0.017zM12.78 9.107s0.115-0.033 0.263-0.082l0.592 0.477c-0.025 0-0.216-0.016-0.707 0.148l-0.148-0.543zM21.809 11.525c-0.099-0.038-1.662-0.302-2.089 1.299l1.365 1.069 0.724-2.368zM19.999 3.745c-3.668 0-6.661 0.757-7.22 0.904v0.050c0.526 0.131 0.904 0.263 1.332 0.74l0.099 0.016c0.411-0.115 3.076-0.872 6.924-0.872 11.315 0 18.947 7.335 18.947 14.029v0.625c0 0.082 0.050 0.165 0.066 0.033 0.033-0.131 0.050-0.543 0.050-1.233 0.016-5.262-6.069-14.292-20.197-14.292zM33.255 14.402c0.082-0.362 0-0.773-0.46-0.822-0.604-0.071-1.014 1.494-1.069 2.105-0.050 0.345-0.082 0.938 0.378 0.938 0.294-0.001 0.61-0.057 1.151-2.221zM29.391 17.1c-0.165-0.050-0.592-0.050-0.79 0.658-0.115 0.428 0.033 0.838 0.378 0.921 0.23 0.066 0.559 0.033 0.74-0.675 0.165-0.624-0.115-0.855-0.328-0.904zM30.838 18.416c0.115 0.033 0.197 0.066 0.362 0.115 0-0.115 0.033-0.526 0.050-0.757-0.066 0.082-0.345 0.51-0.411 0.625v0.017z"></path>
</svg>
