<!-- Generated by IcoMoon.io -->
<svg version="1.1" xmlns="http://www.w3.org/2000/svg" width="32" height="32" viewBox="0 0 32 32">
<title>wmv-file-format-extension</title>
<path d="M27.737 7.239c-0.002-0.148-0.049-0.293-0.151-0.408l-6.2-7.082c-0.002-0.002-0.004-0.003-0.005-0.004-0.037-0.042-0.080-0.075-0.126-0.105-0.013-0.009-0.027-0.017-0.041-0.025-0.039-0.022-0.081-0.039-0.124-0.052-0.012-0.003-0.022-0.008-0.034-0.011-0.047-0.011-0.096-0.018-0.145-0.018h-15.237c-0.695 0-1.261 0.566-1.261 1.261v29.635c0 0.695 0.566 1.261 1.261 1.261h20.807c0.695 0 1.261-0.566 1.261-1.261v-23.119c0-0.024-0.004-0.047-0.006-0.071zM11.995 28.788h-1.379l-0.476-2.423c-0.109-0.569-0.2-1.095-0.267-1.738h-0.017c-0.1 0.635-0.193 1.17-0.326 1.738l-0.535 2.423h-1.396l-1.336-5.632h1.361l0.426 2.323c0.125 0.668 0.243 1.396 0.334 1.964h0.017c0.091-0.61 0.226-1.287 0.367-1.98l0.477-2.306h1.354l0.451 2.373c0.125 0.66 0.217 1.262 0.3 1.888h0.017c0.084-0.627 0.209-1.287 0.326-1.956l0.459-2.306h1.295l-1.454 5.632zM18.957 28.788l-0.084-2.156c-0.025-0.676-0.050-1.496-0.050-2.315h-0.025c-0.175 0.719-0.409 1.522-0.627 2.182l-0.685 2.198h-0.994l-0.601-2.182c-0.184-0.66-0.375-1.462-0.509-2.198h-0.018c-0.033 0.761-0.059 1.63-0.1 2.332l-0.1 2.139h-1.179l0.359-5.631h1.696l0.551 1.88c0.175 0.651 0.351 1.353 0.477 2.014h0.025c0.159-0.651 0.352-1.396 0.535-2.022l0.602-1.872h1.663l0.309 5.632h-1.245zM23.997 28.788h-1.488l-1.805-5.632h1.396l0.685 2.381c0.192 0.668 0.367 1.312 0.501 2.014h0.026c0.142-0.677 0.317-1.346 0.509-1.989l0.718-2.406h1.354l-1.896 5.632zM5.675 20.944v-20.15h14.607v6.452c0 0.348 0.283 0.631 0.631 0.631h5.57v13.068h-20.807zM15.762 6.479c-3.286 0-5.958 2.673-5.958 5.959s2.673 5.959 5.958 5.959c3.286 0 5.959-2.673 5.959-5.959s-2.673-5.959-5.959-5.959zM15.762 17.311c-2.686 0-4.873-2.186-4.873-4.873s2.187-4.873 4.873-4.873c2.687 0 4.874 2.186 4.874 4.873s-2.186 4.873-4.874 4.873zM13.982 8.89c-0.057 0.026-0.093 0.085-0.093 0.148v6.996c0 0.063 0.036 0.121 0.093 0.148l0.072 0.017c0.037 0 0.072-0.013 0.102-0.036l5.477-3.498c0.039-0.032 0.063-0.080 0.063-0.13s-0.023-0.097-0.063-0.13l-5.477-3.496c-0.050-0.039-0.117-0.047-0.174-0.018z"></path>
</svg>
