<!-- Generated by IcoMoon.io -->
<svg version="1.1" xmlns="http://www.w3.org/2000/svg" width="29" height="32" viewBox="0 0 29 32">
<title>wolf-pack-battalion</title>
<path d="M15.057 29.148l0.663 0.995 0.332-0.774 0.332 0.442v1.879c1.323-0.497 1.326-4.199 1.602-6.105 0.29-2.003-0.055-5.829 5.111-9.365-0.558-1.483-0.754-3.105-0.166-5.028 1.75 0.21 3.388 0.665 3.978 3.398l-1.906 0.525c0.7 1.447 1.068 2.937 0.829 4.531l-1.713-0.443-0.387 2.1-1.16-0.442-0.553 2.1-1.215-0.442 1.657 1.326 0.553-1.768 1.547 0.332 0.442-2.238 1.657 0.912c0.016-1.257 0.438-3.647-0.553-5.304l1.657 0.332c0.251-1.386-0.15-2.463-0.497-3.564l1.409 0.608c-0.028-1.575-1.88-3.567-3.868-3.674-1.27-0.068-3.564-1.581-3.398-3.26 0.123-1.248 1.096-2.677 2.708-3.121-2.763 2.293-0.608 4.227 0.332 4.614 0.276-0.718 1.102-4.339 0-8.177-2.542 1.436-5.636 4.089-5.857 9.282l-3.647 2.431-0.221 5.857 6.741-3.757 0.442 0.442-1.105 0.221-2.763 2.431-0.995-0.332-1.768 3.094-0.221 7.514 1.326 0.995-2.044 0.995-2.044-0.995 1.326-0.995-0.221-7.514-1.768-3.094-0.995 0.332-2.763-2.431-1.105-0.221 0.442-0.442 6.741 3.757-0.221-5.857-3.647-2.431c-0.221-5.195-3.315-7.847-5.857-9.283-1.102 3.839-0.276 7.459 0 8.177 0.94-0.387 3.094-2.321 0.332-4.614 1.612 0.445 2.585 1.873 2.708 3.121 0.165 1.679-2.128 3.191-3.398 3.26-1.988 0.108-3.841 2.1-3.868 3.675l1.409-0.608c-0.348 1.101-0.748 2.178-0.497 3.564l1.657-0.332c-0.99 1.657-0.568 4.047-0.553 5.304l1.657-0.912 0.442 2.238 1.547-0.332 0.553 1.768 1.657-1.326-1.215 0.443-0.553-2.1-1.16 0.442-0.387-2.1-1.713 0.442c-0.24-1.594 0.129-3.084 0.829-4.531l-1.906-0.525c0.59-2.733 2.228-3.189 3.978-3.398 0.588 1.923 0.392 3.545-0.166 5.028 5.166 3.536 4.82 7.363 5.111 9.365 0.276 1.906 0.28 5.608 1.602 6.105v-1.879l0.332-0.442 0.332 0.774 0.663-0.995 0.718 1.326 0.718-1.325zM20.029 23.181l-0.995-0.663c0.469-0.274 0.864-0.529 1.215-0.774-0.038 0.456-0.017 0.872-0.22 1.437zM21.797 20.087c-0.025 0.687-0.057 1.36-0.11 1.989-0.493-0.117-0.978-0.239-1.326-0.442 0.517-0.496 0.977-1.022 1.436-1.547zM23.344 20.419c-0.001-0.843-0.129-1.52-0.332-2.1-0.338 0.571-0.705 1.142-1.16 1.713l1.492 0.387zM23.565 15.335c1.221 0.805 1.746 2.114 1.879 3.536-0.774-0.285-1.547-0.585-2.321-0.663 0.318-0.753 0.418-1.767 0.442-2.873zM23.454 12.462c0.051 0.898 0.116 1.81 0.11 2.652 1.207-0.509 1.87-0.61 2.763-0.884-0.666-1.19-1.71-1.603-2.873-1.768zM8.647 23.181l0.995-0.663c-0.469-0.274-0.864-0.529-1.215-0.774 0.038 0.456 0.017 0.872 0.22 1.437zM6.879 20.087c0.025 0.687 0.057 1.36 0.11 1.989 0.493-0.117 0.978-0.239 1.326-0.442-0.518-0.496-0.977-1.022-1.436-1.547zM5.332 20.419c0.001-0.843 0.129-1.52 0.332-2.1 0.338 0.571 0.705 1.142 1.16 1.713l-1.492 0.387zM5.111 15.335c-1.221 0.805-1.746 2.114-1.879 3.536 0.774-0.285 1.547-0.585 2.321-0.663-0.317-0.753-0.418-1.767-0.442-2.873zM5.221 12.462c-0.051 0.898-0.116 1.81-0.11 2.652-1.207-0.509-1.87-0.61-2.763-0.884 0.666-1.19 1.71-1.603 2.873-1.768z"></path>
</svg>
