<!-- Generated by IcoMoon.io -->
<svg version="1.1" xmlns="http://www.w3.org/2000/svg" width="36" height="32" viewBox="0 0 36 32">
<title>won-sign</title>
<path d="M35.423 11.592c0.416 0 0.754-0.338 0.754-0.754v-2.512c0-0.416-0.338-0.754-0.754-0.754h-3.016l1.166-5.063c0.109-0.472-0.25-0.923-0.734-0.923h-2.896c-0 0-0 0-0 0-0.361 0-0.662 0.253-0.736 0.592l-0.001 0.005-0.897 5.389h-6.902l-1.239-5.401c-0.079-0.338-0.378-0.585-0.735-0.585h-2.763c0 0 0 0 0 0-0.356 0-0.654 0.246-0.733 0.578l-0.001 0.005-1.259 5.403h-6.828l-1.098-5.383c-0.072-0.347-0.376-0.603-0.738-0.603 0 0 0 0 0 0h-2.645c-0.483 0-0.841 0.447-0.735 0.919l1.136 5.067h-3.015c-0.416 0-0.754 0.338-0.754 0.754v2.512c0 0.416 0.338 0.754 0.754 0.754h3.915l0.45 2.010h-4.366c-0.416 0-0.754 0.338-0.754 0.754v2.512c0 0.416 0.338 0.754 0.754 0.754h5.267l2.57 11.47c0.078 0.34 0.378 0.589 0.735 0.589h3.565c0.351 0 0.655-0.242 0.734-0.583l2.662-11.475h3.46l2.662 11.475c0.080 0.337 0.378 0.583 0.734 0.583h3.569c0 0 0 0 0 0 0.356 0 0.655-0.247 0.733-0.579l0.001-0.005 2.644-11.474h5.332c0.416 0 0.754-0.338 0.754-0.754v-2.512c0-0.416-0.338-0.754-0.754-0.754h-4.406l0.463-2.010h3.943zM8.669 11.592h5.072l-0.468 2.010h-4.194l-0.41-2.010zM11.545 21.015c-0.389 1.622-0.424 2.968-0.46 2.968h-0.071s-0.106-1.385-0.424-2.968l-0.692-3.393h2.438l-0.791 3.393zM17.22 13.602l0.125-0.54c0.117-0.5 0.217-1.003 0.302-1.47h0.741c0.085 0.467 0.185 0.969 0.302 1.47l0.125 0.54h-1.595zM25.445 21.015c-0.318 1.583-0.424 2.968-0.424 2.968h-0.071c-0.035 0-0.071-1.345-0.46-2.968l-0.778-3.393h2.456l-0.723 3.393zM27.024 13.602h-4.234l-0.461-2.010h5.124l-0.428 2.010z"></path>
</svg>
