<!-- Generated by IcoMoon.io -->
<svg version="1.1" xmlns="http://www.w3.org/2000/svg" width="32" height="32" viewBox="0 0 32 32">
<title>wordpress-simple</title>
<path d="M16.078 0.035c-8.586 0-15.576 6.984-15.576 15.576 0 8.586 6.99 15.576 15.576 15.576s15.576-6.99 15.576-15.576c0-8.592-6.99-15.576-15.576-15.576zM2.073 15.611c0-2.029 0.433-3.957 1.212-5.697l6.683 18.302c-4.673-2.274-7.895-7.066-7.895-12.605zM16.078 29.617c-1.375 0-2.701-0.201-3.957-0.572l4.202-12.21 4.302 11.795c0.031 0.069 0.063 0.132 0.1 0.195-1.451 0.509-3.015 0.791-4.648 0.791zM18.007 9.048c0.842-0.044 1.602-0.132 1.602-0.132 0.754-0.088 0.666-1.2-0.088-1.156 0 0-2.267 0.176-3.731 0.176-1.375 0-3.687-0.176-3.687-0.176-0.754-0.044-0.842 1.112-0.088 1.156 0 0 0.716 0.088 1.47 0.132l2.179 5.979-3.065 9.189-5.1-15.168c0.842-0.044 1.602-0.132 1.602-0.132 0.754-0.088 0.666-1.2-0.088-1.156 0 0-2.267 0.176-3.731 0.176-0.264 0-0.572-0.006-0.904-0.019 2.506-3.8 6.808-6.312 11.701-6.312 3.643 0 6.965 1.394 9.459 3.674-0.063-0.006-0.119-0.013-0.182-0.013-1.375 0-2.349 1.2-2.349 2.487 0 1.156 0.666 2.129 1.375 3.285 0.534 0.93 1.156 2.129 1.156 3.863 0 1.2-0.458 2.588-1.068 4.528l-1.394 4.666-5.068-15.048zM23.119 27.714l4.277-12.367c0.798-1.997 1.068-3.592 1.068-5.018 0-0.515-0.031-0.992-0.094-1.438 1.093 1.997 1.715 4.283 1.715 6.72 0 5.169-2.801 9.678-6.965 12.103z"></path>
</svg>
