<!-- Generated by IcoMoon.io -->
<svg version="1.1" xmlns="http://www.w3.org/2000/svg" width="32" height="32" viewBox="0 0 32 32">
<title>wordpress</title>
<path d="M3.875 10.172l6.375 17.46c-4.459-2.16-7.53-6.733-7.53-12.021 0-1.941 0.415-3.775 1.156-5.439zM25.097 14.939c0-1.652-0.59-2.795-1.099-3.687-0.678-1.099-1.313-2.035-1.313-3.134 0-1.231 0.93-2.374 2.242-2.374 0.057 0 0.113 0.006 0.176 0.013-2.38-2.179-5.546-3.511-9.025-3.511-4.666 0-8.774 2.393-11.167 6.023 0.314 0.012 0.609 0.019 0.86 0.019 1.394 0 3.561-0.17 3.561-0.17 0.722-0.044 0.804 1.018 0.088 1.099 0 0-0.722 0.082-1.526 0.126l4.868 14.47 2.927-8.768-2.079-5.703c-0.722-0.044-1.401-0.126-1.401-0.126-0.722-0.044-0.634-1.143 0.082-1.099 0 0 2.205 0.17 3.517 0.17 1.394 0 3.561-0.17 3.561-0.17 0.722-0.044 0.804 1.018 0.088 1.099 0 0-0.722 0.082-1.526 0.126l4.83 14.364 1.331-4.453c0.565-1.847 1.005-3.172 1.005-4.315zM16.311 16.78l-4.007 11.651c1.2 0.352 2.462 0.546 3.775 0.546 1.558 0 3.046-0.27 4.434-0.76-0.038-0.057-0.069-0.119-0.094-0.182l-4.107-11.255zM27.804 9.199c0.057 0.427 0.088 0.879 0.088 1.375 0 1.357-0.251 2.877-1.018 4.786l-4.082 11.801c3.976-2.317 6.645-6.62 6.645-11.55 0-2.324-0.59-4.509-1.633-6.412zM31.654 15.611c0 8.592-6.99 15.576-15.576 15.576-8.592 0-15.576-6.99-15.576-15.576 0-8.592 6.984-15.576 15.576-15.576 8.586 0 15.576 6.984 15.576 15.576zM30.938 15.611c0-8.196-6.67-14.86-14.86-14.86-8.196 0-14.86 6.664-14.86 14.86s6.67 14.86 14.86 14.86c8.196 0 14.86-6.664 14.86-14.86z"></path>
</svg>
