<!-- Generated by IcoMoon.io -->
<svg version="1.1" xmlns="http://www.w3.org/2000/svg" width="32" height="32" viewBox="0 0 32 32">
<title>wpbeginner</title>
<path d="M29.067 19.78c3.53 4.039 0.261 9.9-5.769 9.9-2.487 0-4.951-1.111-6.29-3.143-0.433 0.022-1.426 0.022-1.858 0-1.342 2.036-3.808 3.143-6.29 3.143-5.997 0-9.317-5.841-5.769-9.9-4.97-8.281 1.964-18.237 12.988-18.237 11.031 0 17.954 9.963 12.988 18.237zM7.735 14.569h2.608v-3.647h-2.608v3.648zM21.375 19.975v-1.497c-3.8 1.314-8.313 0.578-11.782-2.134l0.015 1.564c3.209 2.912 8.274 3.635 11.766 2.067zM11.907 14.569h10.429v-3.647h-10.429v3.648z"></path>
</svg>
