<!-- Generated by IcoMoon.io -->
<svg version="1.1" xmlns="http://www.w3.org/2000/svg" width="32" height="32" viewBox="0 0 32 32">
<title>wpd-file-format-symbol</title>
<path d="M22.492 24.074c-0.32 0-0.527 0.029-0.649 0.057v4.148c0.123 0.028 0.32 0.028 0.498 0.028 1.299 0.009 2.145-0.705 2.145-2.22 0.010-1.317-0.762-2.013-1.994-2.013zM27.737 7.239c-0.002-0.148-0.049-0.293-0.15-0.408l-6.2-7.082c-0.001-0.002-0.003-0.003-0.005-0.004-0.037-0.041-0.079-0.075-0.125-0.105-0.013-0.009-0.027-0.017-0.041-0.025-0.040-0.021-0.081-0.039-0.124-0.052-0.012-0.003-0.022-0.008-0.034-0.011-0.047-0.011-0.095-0.018-0.145-0.018h-15.238c-0.695 0-1.261 0.566-1.261 1.261v29.635c0 0.696 0.566 1.261 1.261 1.261h20.807c0.696 0 1.261-0.566 1.261-1.261v-23.119c-0-0.024-0.004-0.047-0.006-0.071zM12.557 29.36h-1.552l-0.536-2.727c-0.122-0.639-0.226-1.232-0.301-1.957h-0.019c-0.113 0.715-0.217 1.317-0.367 1.957l-0.602 2.727h-1.571l-1.505-6.339h1.533l0.479 2.615c0.141 0.753 0.273 1.57 0.376 2.21h0.019c0.103-0.686 0.254-1.449 0.414-2.228l0.537-2.596h1.523l0.508 2.672c0.141 0.742 0.244 1.42 0.338 2.126h0.018c0.094-0.706 0.235-1.449 0.367-2.201l0.517-2.596h1.458l-1.637 6.338zM18.907 26.455c-0.489 0.461-1.214 0.668-2.060 0.668-0.188 0-0.358-0.009-0.489-0.028v2.267h-1.42v-6.255c0.442-0.075 1.062-0.132 1.937-0.132 0.885 0 1.515 0.169 1.938 0.508 0.405 0.32 0.677 0.847 0.677 1.467-0 0.622-0.207 1.148-0.582 1.506zM24.956 28.608c-0.668 0.555-1.683 0.818-2.925 0.818-0.743 0-1.269-0.046-1.627-0.094v-6.226c0.527-0.085 1.214-0.132 1.938-0.132 1.204 0 1.985 0.217 2.596 0.677 0.658 0.489 1.072 1.27 1.072 2.389 0 1.214-0.442 2.050-1.053 2.568zM5.675 20.945v-20.151h14.607v6.452c0 0.348 0.282 0.631 0.631 0.631h5.569l0.001 13.068h-20.808zM16.951 24.056c-0.292 0-0.489 0.028-0.593 0.057v1.872c0.123 0.029 0.273 0.038 0.48 0.038 0.762 0 1.232-0.386 1.232-1.034 0-0.583-0.405-0.932-1.119-0.932zM18.854 5.821h-0.733v-1.060l-1.813-1.814h-7.522v12.798h2.546v2.874h9.335v-10.984l-1.813-1.814zM18.989 6.612l1.042 1.042h-1.042v-1.042zM18.121 14.532c0.004 0.054 0.004 0.109 0 0.163v-0.163zM16.443 3.738l1.042 1.042h-1.042v-1.042zM9.249 15.283v-11.873h6.731v1.833h1.678v10.040l-8.409-0zM20.204 18.157h-8.409v-2.411h6.326v-0.739h1.471v-0.631h-1.471v-1.418h1.471v-0.631h-1.471v-1.543h1.471v-0.631h-1.471v-3.869h0.405v1.833h1.677l0.001 10.040zM13.258 6.075h4.072v0.631h-4.072v-0.631zM13.258 7.677h4.072v0.631h-4.072v-0.631zM9.988 9.227h7.342v0.631h-7.342v-0.631zM9.988 10.751h3.165v0.631h-3.165v-0.631zM9.988 12.327h3.165v0.631h-3.165v-0.631zM9.988 13.937h7.257v0.631h-7.257v-0.631zM12.335 16.419h7.256v0.631h-7.256v-0.631zM15.72 12.825l-0.128-0.407c-1.064-2.867-1.777 0.328-1.777 0.328l-0.047 0.197h3.318c-0.893-1.747-1.367-0.118-1.367-0.118zM9.78 6.041h0.817v0.079c-0.076 0.004-0.126 0.018-0.149 0.040s-0.035 0.054-0.035 0.094c-0.002 0.023 0 0.047 0.008 0.073s0.018 0.054 0.030 0.086l0.417 1.122 0.419-0.912-0.111-0.289c-0.012-0.036-0.027-0.067-0.043-0.092s-0.035-0.046-0.057-0.063c-0.022-0.017-0.050-0.030-0.084-0.040s-0.075-0.015-0.124-0.018v-0.079h0.928v0.079c-0.087 0.004-0.152 0.018-0.196 0.041s-0.065 0.065-0.065 0.124c0 0.030 0.006 0.058 0.019 0.086l0.442 1.122 0.41-1.081c0.030-0.078 0.044-0.14 0.044-0.185 0-0.027-0.013-0.051-0.041-0.072s-0.082-0.032-0.162-0.036v-0.079h0.613v0.079c-0.125 0.019-0.216 0.103-0.273 0.251l-0.652 1.681h-0.086l-0.486-1.246-0.569 1.246h-0.079l-0.626-1.64c-0.019-0.053-0.038-0.096-0.057-0.129s-0.040-0.060-0.064-0.081c-0.023-0.021-0.051-0.038-0.081-0.050s-0.066-0.022-0.106-0.033v-0.079z"></path>
</svg>
