<!-- Generated by IcoMoon.io -->
<svg version="1.1" xmlns="http://www.w3.org/2000/svg" width="32" height="32" viewBox="0 0 32 32">
<title>wpexplorer</title>
<path d="M32.157 15.611c0 8.868-7.204 16.078-16.078 16.078-8.868 0-16.078-7.204-16.078-16.078s7.204-16.078 16.078-16.078 16.078 7.204 16.078 16.078zM30.147 15.611c0-7.738-6.299-14.069-14.069-14.069-7.757 0-14.069 6.312-14.069 14.069s6.312 14.069 14.069 14.069 14.069-6.312 14.069-14.069zM10.105 7.359l5.458 2.33-2.33 5.458-5.458-2.33 2.33-5.458zM17.014 17.979l2.927 5.904h-0.917l-3.14-6.281-3.071 6.281h-0.879l3.209-6.714-1.401-0.59 0.377-0.879 4.309 1.828-0.377 0.898-1.036-0.446zM16.273 10.675l4.309 1.847-1.847 4.29-4.29-1.828 1.828-4.309zM21.316 13.369l3.429 1.451-1.47 3.41-3.41-1.451 1.451-3.41z"></path>
</svg>
