<!-- Generated by IcoMoon.io -->
<svg version="1.1" xmlns="http://www.w3.org/2000/svg" width="28" height="32" viewBox="0 0 28 32">
<title>wpforms</title>
<path d="M28.137 4.256v22.717c0 1.526-1.193 2.713-2.713 2.713h-22.711c-1.501-0.006-2.713-1.175-2.713-2.72v-22.711c0-1.514 1.181-2.713 2.713-2.713h22.717c1.507 0 2.707 1.181 2.707 2.713zM25.794 26.967v-22.711c0-0.188-0.163-0.364-0.364-0.364h-0.584l-6.928 4.685-3.85-3.134-3.844 3.134-6.928-4.692h-0.584c-0.201 0-0.364 0.176-0.364 0.364v22.717c0 0.188 0.163 0.364 0.364 0.364h22.717c0.201 0.006 0.364-0.17 0.364-0.364zM9.434 11.215v2.324h-4.616v-2.324h4.616zM9.434 15.888v2.343h-4.616v-2.343h4.616zM10.131 6.636l3.392-2.745h-7.443l4.051 2.745zM23.32 11.215v2.324h-12.31v-2.324h12.31zM23.32 15.888v2.343h-12.31v-2.343h12.31zM18.007 6.636l4.051-2.745h-7.436l3.385 2.745zM23.32 20.573v2.343h-6.243v-2.343h6.243z"></path>
</svg>
