<!-- Generated by IcoMoon.io -->
<svg version="1.1" xmlns="http://www.w3.org/2000/svg" width="31" height="32" viewBox="0 0 31 32">
<title>wpressr</title>
<path d="M15.576 0.035c-8.603 0-15.576 6.973-15.576 15.576s6.973 15.576 15.576 15.576 15.576-6.973 15.576-15.576-6.973-15.576-15.576-15.576zM26.336 9.996c-0.953 2.167-1.907 4.335-2.866 6.5-0.153 0.346-0.433 0.517-0.815 0.517-1.446-0.001-2.891 0.004-4.337-0.003-0.322-0.002-0.518 0.119-0.649 0.422-0.64 1.48-1.296 2.952-1.944 4.428-0.097 0.22-0.255 0.332-0.497 0.332-2.885-0.001-5.77-0.001-8.655 0-0.197 0-0.354-0.072-0.485-0.217-0.704-0.774-1.411-1.547-2.115-2.32-0.169-0.185-0.175-0.388-0.076-0.611 0.544-1.227 1.085-2.456 1.626-3.684 0.812-1.843 1.626-3.686 2.434-5.532 0.107-0.244 0.269-0.357 0.536-0.355 0.894 0.006 1.789 0.001 2.683 0.003 0.392 0.001 0.578 0.304 0.418 0.665-0.854 1.932-1.706 3.866-2.559 5.799-0.359 0.816-0.717 1.632-1.073 2.449-0.246 0.562 0.445 0.752 0.688 0.352 0.014-0.023-0.089 0.262 1.885-4.251 0.085-0.195 0.214-0.276 0.425-0.276 0.955 0.005 1.911 0.001 2.866 0.002 0.349 0.001 0.497 0.229 0.355 0.55-0.523 1.191-1.050 2.38-1.569 3.573-0.313 0.718 0.508 0.784 0.708 0.335 0.002-0.005 1.752-3.977 2.022-4.595 0.127-0.29 0.342-0.409 0.65-0.408 1.66 0.003 3.32 0 4.98 0.003 0.781 0.001 0.875-0.857 0.245-0.857-1.586 0.002-3.173 0.001-4.759 0.001-0.394 0-0.492-0.155-0.331-0.519 0.363-0.82 0.728-1.64 1.087-2.463 0.109-0.249 0.284-0.364 0.555-0.363 1.45 0.004 1.632 0.001 8.214 0.002 0.382-0.001 0.504 0.175 0.353 0.519z"></path>
</svg>
