<!-- Generated by IcoMoon.io -->
<svg version="1.1" xmlns="http://www.w3.org/2000/svg" width="32" height="32" viewBox="0 0 32 32">
<title>wps-file-format</title>
<path d="M17.876 23.874c-0.32 0-0.536 0.031-0.649 0.062v2.050c0.134 0.031 0.298 0.041 0.525 0.041 0.834 0 1.349-0.422 1.349-1.133 0-0.638-0.443-1.019-1.225-1.019zM27.737 7.239c-0.002-0.147-0.049-0.293-0.15-0.408l-6.2-7.082c-0.001-0.002-0.003-0.003-0.005-0.004-0.037-0.041-0.079-0.075-0.125-0.105-0.013-0.009-0.027-0.017-0.041-0.025-0.040-0.021-0.081-0.039-0.124-0.052-0.012-0.003-0.022-0.008-0.034-0.011-0.047-0.011-0.095-0.018-0.145-0.018h-15.238c-0.695 0-1.261 0.566-1.261 1.261v29.635c0 0.695 0.566 1.261 1.261 1.261h20.807c0.696 0 1.261-0.566 1.261-1.261v-23.119c0-0.024-0.004-0.047-0.006-0.071zM13.064 29.683h-1.7l-0.587-2.987c-0.134-0.701-0.247-1.349-0.33-2.142h-0.020c-0.124 0.783-0.237 1.442-0.402 2.142l-0.659 2.987h-1.72l-1.648-6.942h1.679l0.525 2.863c0.154 0.824 0.298 1.72 0.412 2.42h0.021c0.113-0.752 0.278-1.586 0.453-2.441l0.587-2.843h1.668l0.556 2.925c0.154 0.813 0.268 1.555 0.371 2.328h0.020c0.103-0.772 0.258-1.586 0.402-2.41l0.566-2.843h1.596l-1.792 6.942zM20.018 26.5c-0.536 0.505-1.329 0.731-2.255 0.731-0.206 0-0.392-0.010-0.536-0.031v2.482h-1.555v-6.849c0.484-0.083 1.163-0.144 2.122-0.144 0.968 0 1.658 0.185 2.121 0.556 0.443 0.35 0.742 0.927 0.742 1.607s-0.227 1.256-0.638 1.648zM23.356 29.786c-0.793 0-1.576-0.206-1.967-0.422l0.319-1.298c0.423 0.216 1.071 0.433 1.741 0.433 0.721 0 1.102-0.299 1.102-0.752 0-0.433-0.33-0.68-1.163-0.978-1.154-0.402-1.906-1.041-1.906-2.050 0-1.185 0.989-2.091 2.627-2.091 0.782 0 1.359 0.165 1.771 0.35l-0.35 1.267c-0.278-0.134-0.773-0.33-1.452-0.33s-1.009 0.309-1.009 0.67c0 0.443 0.391 0.638 1.287 0.979 1.226 0.453 1.803 1.092 1.803 2.070-0.001 1.164-0.896 2.153-2.802 2.153zM5.675 20.945v-20.151h14.607v6.452c0 0.348 0.282 0.631 0.631 0.631h5.569l0.001 13.068h-20.808zM17.423 11.3c0.19-0.117 0.383-0.222 0.563-0.345 0.178-0.123 0.354-0.245 0.527-0.364 0.166-0.116 0.358-0.245 0.492-0.344 0.106-0.080 0.262-0.165 0.405-0.228 0.296-0.127 0.603-0.217 0.897-0.26 0.295-0.053 0.575-0.051 0.829-0.049 0.252 0.014 0.479 0.035 0.663 0.070 0.19 0.020 0.332 0.066 0.435 0.083 0.102 0.021 0.157 0.032 0.157 0.032s-0.045-0.033-0.128-0.095c-0.085-0.060-0.207-0.158-0.381-0.251-0.171-0.101-0.388-0.207-0.654-0.303-0.266-0.094-0.58-0.174-0.938-0.209-0.356-0.026-0.756-0.021-1.172 0.079-0.211 0.053-0.413 0.112-0.649 0.225-0.177 0.087-0.357 0.176-0.541 0.266-0.178 0.087-0.358 0.175-0.541 0.265s-0.377 0.158-0.567 0.239c-0.19 0.078-0.382 0.156-0.574 0.234l-0.588 0.201c-0.387 0.149-0.792 0.225-1.176 0.337-0.392 0.074-0.772 0.174-1.144 0.207-0.371 0.058-0.728 0.066-1.063 0.084-0.335-0.007-0.648-0.013-0.93-0.041-0.143-0.006-0.275-0.032-0.402-0.049-0.128-0.015-0.245-0.039-0.353-0.065-0.22-0.043-0.4-0.101-0.543-0.147-0.142-0.045-1.196-0.326-1.248-0.348-0.051-0.025-0.078-0.038-0.078-0.038l-0.022 2.219c0 0 0.072 0.031 0.207 0.088 0.138 0.052 0.311 0.112 0.534 0.17 0.223 0.056 0.491 0.114 0.794 0.151 0.152 0.023 0.313 0.042 0.482 0.050 0.169 0.010 0.347 0.028 0.53 0.023s0.375 0.007 0.57-0.011c0.194-0.018 0.395-0.035 0.602-0.054 0.406-0.063 0.835-0.125 1.261-0.239 0.434-0.090 0.858-0.248 1.294-0.385 0.419-0.179 0.856-0.332 1.259-0.548 0.204-0.102 0.408-0.204 0.611-0.305 0.198-0.11 0.388-0.23 0.58-0.343zM22.815 10.33c-0.217-0.15-1.050 0.631-1.199 0.848l-5.045 7.041c-0.067 0.096-0.053 0.206 0 0.312-0.018 0.017-0.038 0.029-0.052 0.049-0.103 0.148-0.066 0.351 0.081 0.454l0.248 0.174c0.148 0.102 0.352 0.067 0.455-0.081 0.010-0.014 0.013-0.032 0.021-0.047 0.106 0.018 0.202-0.001 0.266-0.092l4.814-7.267c0.15-0.216 0.63-1.241 0.413-1.391z"></path>
</svg>
