<!-- Generated by IcoMoon.io -->
<svg version="1.1" xmlns="http://www.w3.org/2000/svg" width="32" height="32" viewBox="0 0 32 32">
<title>wrench</title>
<path d="M31.889 6.385c-0.141-0.567-0.85-0.759-1.264-0.346l-4.67 4.67-4.263-0.71-0.71-4.263 4.67-4.67c0.416-0.416 0.215-1.124-0.355-1.266-2.976-0.737-6.252 0.057-8.578 2.382-2.49 2.49-3.175 6.098-2.139 9.245l-13.402 13.402c-1.57 1.57-1.57 4.114 0 5.684s4.114 1.57 5.684 0l13.391-13.391c3.148 1.050 6.75 0.357 9.256-2.149 2.328-2.328 3.121-5.61 2.381-8.587zM4.020 29.177c-0.832 0-1.507-0.675-1.507-1.507s0.675-1.507 1.507-1.507 1.507 0.675 1.507 1.507c0 0.832-0.675 1.507-1.507 1.507z"></path>
</svg>
