<!-- Generated by IcoMoon.io -->
<svg version="1.1" xmlns="http://www.w3.org/2000/svg" width="32" height="32" viewBox="0 0 32 32">
<title>wsf-file-format-variant</title>
<path d="M27.737 7.239c-0.002-0.148-0.048-0.293-0.15-0.408l-6.201-7.082c-0.001-0.002-0.003-0.002-0.005-0.004-0.037-0.041-0.079-0.075-0.125-0.105-0.013-0.009-0.027-0.017-0.041-0.025-0.040-0.021-0.081-0.039-0.124-0.052-0.012-0.004-0.022-0.008-0.034-0.011-0.047-0.011-0.095-0.018-0.145-0.018h-15.238c-0.695 0-1.261 0.566-1.261 1.261v29.635c0 0.696 0.566 1.261 1.261 1.261h20.807c0.696 0 1.261-0.566 1.261-1.261v-23.119c0-0.024-0.004-0.047-0.006-0.070zM13.539 29.548h-1.64l-0.567-2.883c-0.129-0.676-0.238-1.302-0.318-2.068h-0.020c-0.119 0.755-0.228 1.392-0.387 2.068l-0.637 2.883h-1.66l-1.59-6.7h1.621l0.507 2.764c0.149 0.795 0.288 1.66 0.397 2.336h0.020c0.109-0.726 0.268-1.531 0.437-2.356l0.567-2.744h1.61l0.537 2.823c0.149 0.785 0.258 1.501 0.358 2.247h0.020c0.1-0.745 0.249-1.531 0.388-2.326l0.546-2.744h1.541l-1.729 6.7zM17.614 29.647c-0.765 0-1.521-0.199-1.898-0.408l0.308-1.253c0.408 0.209 1.034 0.417 1.68 0.417 0.696 0 1.063-0.288 1.063-0.726 0-0.417-0.318-0.656-1.123-0.944-1.113-0.388-1.839-1.004-1.839-1.978 0-1.144 0.954-2.018 2.535-2.018 0.755 0 1.312 0.159 1.71 0.338l-0.338 1.223c-0.268-0.129-0.746-0.319-1.402-0.319s-0.974 0.298-0.974 0.646c0 0.427 0.378 0.616 1.242 0.945 1.183 0.437 1.739 1.054 1.739 1.998 0 1.123-0.864 2.078-2.704 2.078zM25.437 24.090h-2.575v1.531h2.406v1.233h-2.406v2.694h-1.521v-6.7h4.096v1.242zM5.675 20.945v-20.151h14.607v6.452c0 0.348 0.282 0.631 0.631 0.631h5.569l0.001 13.068h-20.808zM16.099 17.932c-0.004-0.004-0.007-0.009-0.011-0.013h-5.928c-0.291 0-0.528-0.271-0.528-0.605s0.237-0.604 0.528-0.604h5.556c-0.265-0.155-0.426-0.429-0.426-0.733v-0.732c0-0.345 0.206-0.653 0.526-0.784 0.056-0.022 0.092-0.057 0.109-0.098s0.017-0.092-0.002-0.134c-0.139-0.303-0.073-0.682 0.169-0.932l0.331-0.331h-4.901v-0.525h6.29c0.142-0.289 0.438-0.478 0.76-0.478h0.732c0.205 0 0.394 0.073 0.543 0.199v-6.496c0.004-0.439 0.47-0.427 0.523-0.427h0.002c0.231 0 0.418 0.215 0.418 0.479s-0.188 0.479-0.418 0.479c-0.15 0-0.272 0.139-0.272 0.311s0.122 0.312 0.272 0.312c0.531 0 0.962-0.494 0.962-1.101s-0.432-1.101-0.954-1.101v0h-9.694c-0.45 0-0.816 0.419-0.816 0.934v10.577h0.002c0 0.002 0.001 0.004 0.002 0.006-0.453 0.143-0.787 0.618-0.787 1.181 0 0.677 0.481 1.227 1.072 1.227h6.569c-0.038-0.027-0.075-0.056-0.109-0.089l-0.521-0.521zM11.522 6.938h6.516v0.525h-6.515v-0.525zM11.522 8.252h6.516v0.525h-6.515v-0.525zM11.522 9.744h6.516v0.525h-6.515v-0.525zM11.522 11.058h6.516v0.525h-6.515v-0.525zM20.294 16.366c0.043-0.017 0.077-0.051 0.094-0.091s0.016-0.087-0.001-0.127c-0.053-0.12-0.026-0.262 0.066-0.354l0.245-0.245c0.062-0.061 0.142-0.094 0.225-0.094h0.058l0.066 0.025c0.051 0.023 0.094 0.021 0.133 0.004 0.041-0.017 0.075-0.051 0.090-0.092 0.046-0.117 0.152-0.191 0.275-0.2v-0.228c0-0.024-0.015-0.046-0.038-0.056-0.242-0.095-0.438-0.286-0.537-0.525s-0.097-0.514 0.008-0.752c0.009-0.021 0.004-0.048-0.012-0.065l-0.518-0.517c-0.028-0.029-0.049-0.020-0.065-0.013-0.236 0.104-0.512 0.108-0.751 0.008-0.24-0.099-0.432-0.295-0.526-0.537-0.009-0.022-0.030-0.037-0.055-0.037h-0.731c-0.025 0-0.047 0.015-0.055 0.037-0.094 0.242-0.286 0.438-0.525 0.537-0.239 0.1-0.514 0.097-0.752-0.008-0.015-0.006-0.036-0.016-0.065 0.013l-0.517 0.517c-0.017 0.017-0.022 0.044-0.012 0.066 0.104 0.238 0.107 0.511 0.008 0.751s-0.295 0.431-0.537 0.525c-0.023 0.009-0.037 0.031-0.037 0.056v0.732c0 0.024 0.015 0.046 0.037 0.055 0.242 0.094 0.438 0.286 0.537 0.525s0.096 0.514-0.008 0.752c-0.009 0.021-0.004 0.048 0.012 0.065l0.517 0.518c0.029 0.029 0.050 0.019 0.066 0.012 0.121-0.053 0.251-0.081 0.385-0.081 0.127 0 0.25 0.025 0.366 0.073 0.24 0.099 0.432 0.295 0.526 0.537 0.009 0.022 0.031 0.037 0.055 0.037h0.731c0.025 0 0.046-0.015 0.055-0.037 0.094-0.242 0.286-0.438 0.526-0.537 0.233-0.097 0.499-0.095 0.731-0.001 0.003-0.031 0.011-0.061 0.024-0.091 0.018-0.041 0.019-0.089 0.002-0.13s-0.051-0.073-0.091-0.089c-0.124-0.050-0.203-0.166-0.203-0.297v-0.347c-0.001-0.131 0.078-0.248 0.2-0.296zM18.684 16.753c-0.784 0-1.422-0.638-1.422-1.423 0-0.784 0.638-1.423 1.422-1.423s1.424 0.639 1.424 1.423c0 0.786-0.638 1.423-1.424 1.423zM23.113 16.635c-0.115-0.045-0.207-0.136-0.255-0.249s-0.046-0.244 0.004-0.356c0.004-0.010 0.002-0.023-0.006-0.032l-0.245-0.245c-0.014-0.013-0.024-0.009-0.032-0.006-0.112 0.049-0.242 0.051-0.356 0.004s-0.205-0.14-0.249-0.254c-0.004-0.010-0.014-0.018-0.026-0.018h-0.347c-0.012 0-0.022 0.007-0.026 0.018-0.045 0.114-0.136 0.207-0.249 0.254s-0.244 0.046-0.356-0.004c-0.007-0.003-0.017-0.007-0.031 0.006l-0.245 0.245c-0.008 0.008-0.010 0.021-0.006 0.032 0.050 0.112 0.051 0.242 0.004 0.356s-0.14 0.204-0.254 0.249c-0.011 0.005-0.018 0.014-0.018 0.026v0.347c0 0.011 0.007 0.021 0.018 0.026 0.114 0.045 0.207 0.135 0.254 0.249s0.046 0.244-0.004 0.356c-0.004 0.010-0.002 0.022 0.006 0.031l0.245 0.245c0.013 0.013 0.024 0.009 0.031 0.006 0.058-0.025 0.119-0.038 0.182-0.038 0.060 0 0.118 0.012 0.174 0.035 0.114 0.047 0.205 0.14 0.249 0.255 0.004 0.010 0.015 0.018 0.026 0.018h0.347c0.012 0 0.022-0.006 0.026-0.018 0.045-0.114 0.135-0.207 0.249-0.255s0.244-0.045 0.356 0.004c0.007 0.003 0.017 0.007 0.031-0.006l0.245-0.245c0.008-0.008 0.010-0.021 0.006-0.031-0.049-0.113-0.051-0.243-0.004-0.356s0.14-0.204 0.254-0.249c0.010-0.005 0.018-0.015 0.018-0.026v-0.347c0-0.011-0.007-0.022-0.017-0.026zM21.775 17.509c-0.372 0-0.674-0.302-0.674-0.674s0.302-0.674 0.674-0.674 0.674 0.303 0.674 0.674c0 0.372-0.302 0.674-0.674 0.674z"></path>
</svg>
