<!-- Generated by IcoMoon.io -->
<svg version="1.1" xmlns="http://www.w3.org/2000/svg" width="40" height="32" viewBox="0 0 40 32">
<title>x-ray</title>
<path d="M15.073 23.651c-0.553 0-1.005 0.452-1.005 1.005s0.452 1.005 1.005 1.005 1.005-0.452 1.005-1.005-0.452-1.005-1.005-1.005zM25.122 25.66c0.553 0 1.005-0.452 1.005-1.005s-0.452-1.005-1.005-1.005-1.005 0.452-1.005 1.005 0.452 1.005 1.005 1.005zM39.191-0.467h-38.186c-0.553 0-1.005 0.452-1.005 1.005v2.010c0 0.553 0.452 1.005 1.005 1.005h38.186c0.553 0 1.005-0.452 1.005-1.005v-2.010c0-0.553-0.452-1.005-1.005-1.005zM39.191 27.67h-3.015v-22.108h-32.157v22.108h-3.015c-0.553 0-1.005 0.452-1.005 1.005v2.010c0 0.553 0.452 1.005 1.005 1.005h38.186c0.553 0 1.005-0.452 1.005-1.005v-2.010c0-0.553-0.452-1.005-1.005-1.005zM30.147 15.109c0 0.276-0.226 0.502-0.503 0.502h-8.542v2.010h6.532c0.276 0 0.503 0.226 0.503 0.503v1.005c0 0.276-0.226 0.503-0.503 0.503h-6.532v2.010h4.020c1.664 0 3.015 1.35 3.015 3.015s-1.35 3.015-3.015 3.015-3.015-1.35-3.015-3.015v-1.005h-4.020v1.005c0 1.664-1.35 3.015-3.015 3.015s-3.015-1.35-3.015-3.015 1.35-3.015 3.015-3.015h4.020v-2.010h-6.532c-0.276 0-0.502-0.226-0.502-0.503v-1.005c0-0.276 0.226-0.503 0.502-0.503h6.532v-2.010h-8.542c-0.276 0-0.502-0.226-0.502-0.502v-1.005c0-0.276 0.226-0.502 0.502-0.502h8.542v-2.010h-6.532c-0.276 0-0.502-0.226-0.502-0.502v-1.005c0-0.276 0.226-0.502 0.502-0.502h6.532v-1.507c0-0.276 0.226-0.502 0.503-0.502h1.005c0.276 0 0.503 0.226 0.503 0.502v1.507h6.532c0.276 0 0.503 0.226 0.503 0.502v1.005c0 0.276-0.226 0.502-0.503 0.502h-6.532v2.010h8.542c0.276 0 0.503 0.226 0.503 0.502v1.005z"></path>
</svg>
