<!-- Generated by IcoMoon.io -->
<svg version="1.1" xmlns="http://www.w3.org/2000/svg" width="32" height="32" viewBox="0 0 32 32">
<title>xbox</title>
<path d="M23.232 19.518c2.782 3.41 4.064 6.205 3.417 7.455-0.496 0.948-3.561 2.801-5.816 3.511-1.859 0.584-4.296 0.835-6.306 0.641-2.399-0.232-4.83-1.093-6.915-2.449-1.752-1.143-2.148-1.614-2.148-2.55 0-1.878 2.066-5.169 5.602-8.925 2.010-2.129 4.805-4.629 5.112-4.56 0.59 0.132 5.295 4.717 7.053 6.877zM11.845 8.565c-1.865-1.69-3.649-3.385-5.426-3.982-0.955-0.32-1.024-0.301-1.803 0.509-1.834 1.909-3.36 5.006-3.787 7.687-0.339 2.148-0.383 2.751-0.264 3.8 0.352 3.172 1.087 5.364 2.544 7.593 0.597 0.917 0.76 1.087 0.584 0.622-0.264-0.691-0.019-2.355 0.597-4.020 0.898-2.449 3.385-7.091 7.556-12.21zM31.416 12.553c-1.061-5.024-4.239-8.184-4.685-8.184-0.458 0-1.52 0.408-2.261 0.873-1.463 0.911-2.575 1.972-4.038 3.316 2.663 3.348 6.419 8.755 7.719 12.706 0.427 1.3 0.609 2.581 0.465 3.285-0.107 0.534-0.107 0.534 0.088 0.289 0.383-0.484 1.25-1.966 1.595-2.732 0.465-1.017 0.942-2.525 1.168-3.687 0.27-1.413 0.245-4.447-0.050-5.866zM8.874 2.234c2.996-0.157 6.89 2.167 7.179 2.223 0.044 0.006 0.653-0.264 1.357-0.609 4.013-1.953 5.904-1.62 6.745-1.583-4.013-2.468-9.591-3.14-14.69-0.735-1.47 0.697-1.507 0.747-0.59 0.703z"></path>
</svg>
