<!-- Generated by IcoMoon.io -->
<svg version="1.1" xmlns="http://www.w3.org/2000/svg" width="32" height="32" viewBox="0 0 32 32">
<title>xhtml-icon-file-format</title>
<path d="M27.737 7.239c-0.002-0.148-0.048-0.293-0.15-0.408l-6.201-7.082c-0.001-0.002-0.003-0.002-0.005-0.004-0.037-0.041-0.079-0.075-0.125-0.105-0.013-0.009-0.027-0.017-0.041-0.025-0.040-0.021-0.081-0.039-0.124-0.052-0.012-0.003-0.022-0.008-0.034-0.011-0.047-0.011-0.095-0.018-0.145-0.018h-15.238c-0.695 0-1.261 0.566-1.261 1.261v29.635c0 0.695 0.566 1.261 1.261 1.261h20.807c0.696 0 1.261-0.566 1.261-1.261v-23.119c0-0.024-0.004-0.047-0.006-0.070zM8.795 28.47l-0.387-0.774c-0.159-0.298-0.26-0.52-0.381-0.768h-0.013c-0.089 0.248-0.197 0.47-0.33 0.768l-0.355 0.774h-1.103l1.236-2.162-1.192-2.112h1.11l0.374 0.78c0.127 0.26 0.222 0.47 0.323 0.71h0.013c0.101-0.273 0.184-0.463 0.291-0.71l0.362-0.78h1.103l-1.204 2.086 1.268 2.188h-1.116zM13.957 28.47h-0.964v-1.788h-1.592v1.788h-0.97v-4.274h0.97v1.643h1.592v-1.643h0.964v4.274zM17.761 25.008h-1.167v3.462h-0.97v-3.462h-1.148v-0.812h3.285v0.812zM21.926 28.47l-0.063-1.636c-0.019-0.514-0.038-1.135-0.038-1.756h-0.019c-0.133 0.545-0.311 1.154-0.476 1.655l-0.52 1.668h-0.754l-0.457-1.655c-0.139-0.501-0.285-1.11-0.387-1.668h-0.013c-0.025 0.577-0.044 1.236-0.076 1.769l-0.076 1.623h-0.894l0.273-4.274h1.287l0.419 1.427c0.134 0.494 0.267 1.027 0.361 1.528h0.019c0.12-0.495 0.266-1.059 0.406-1.535l0.457-1.421h1.262l0.235 4.274h-0.945zM26.282 28.47h-2.67v-4.274h0.97v3.463h1.699v0.811zM5.675 20.945v-20.151h14.607v6.452c0 0.348 0.282 0.631 0.631 0.631h5.569l0.001 13.068h-20.808zM6.706 13.204l3.639 1.691v-0.804l-2.753-1.206v-0.015l2.753-1.206v-0.804l-3.639 1.691zM21.812 11.665l2.813 1.206v0.015l-2.813 1.206v0.804l3.639-1.668v-0.697l-3.639-1.668zM16.006 8.535c-2.398 0-4.342 1.944-4.342 4.342s1.944 4.342 4.342 4.342 4.342-1.944 4.342-4.342c0-2.398-1.944-4.342-4.342-4.342zM17.638 10.258l0.31-0.207c0 0-0.131-0.334-0.108-0.499 0.075-0.036 0.381 0.124 0.64 0.396-0.174 0.647-0.583 0.57-0.583 0.57s-0.298-0.007-0.259-0.26zM15.021 14.082c-0.019 0.097-0.136 0.331-0.214 0.486s-0.116 0.214-0.214 0.291c-0.097 0.079-0.155 0.214-0.155 0.214l-0.020 0.33c0 0 0.038 0.273 0.097 0.37s-0.208 0.676-0.208 0.676c-0.169-0.033-0.263-0.23-0.322-0.384-0.059-0.156-0.136-0.239-0.116-0.413s-0.151-0.267-0.209-0.364c-0.058-0.098-0.136-0.234-0.136-0.331s-0.214-0.234-0.214-0.234-0.389-0.175-0.447-0.252c-0.058-0.078-0.117-0.409-0.136-0.545-0.020-0.136 0.058-0.485 0.058-0.485s0.157-0.118 0.058-0.214c-0.097-0.097-0.116-0.35-0.116-0.35l-0.175-0.194c0 0-0.136-0.195-0.156-0.292s0-0.155 0.020-0.253c0.019-0.098-0.039-0.272-0.039-0.369 0.726-1.781 1.944-2.197 1.944-2.197l0.097 0.407c0 0-0.214 0.059-0.33 0.020-0.117-0.039-0.176-0.039-0.176-0.039l-0.155 0.214c0 0-0.059 0.136-0.078 0.214s0.039 0.194 0.039 0.194 0.272 0.020 0.272-0.058-0.038-0.116-0.038-0.116l-0.039-0.136c0 0 0.176-0.097 0.641-0.059 0.467 0.039 0.292 0.369 0.487 0.448s-0.156 0.35-0.234 0.505c-0.078 0.156-0.194-0.195-0.194-0.195s0.117-0.134-0.078-0.175c-0.195-0.038-0.323 0.35-0.225 0.331 0.097-0.019 0.205 0.105 0.185 0.202s-0.020 0.089-0.117 0.303c-0.097 0.214-0.308 0.372-0.308 0.372s-0.099-0.060-0.042 0.057c0.060 0.116-0.019 0.388-0.019 0.466 0 0.077-0.233-0.136-0.271-0.331-0.040-0.193-0.267-0.025-0.345-0.005s-0.22-0.033-0.257-0.13c-0.040-0.098-0.39 0.194-0.487 0.252s-0.057 0.214 0.097 0.136c0.155-0.078 0.291-0.020 0.253 0.137-0.038 0.155-0.193 0.058-0.175 0.155s0.175 0.194 0.213 0.331c0.039 0.136 0.409 0.020 0.525-0.039s0.447-0.117 0.486 0.039c0.040 0.155 0.409 0.213 0.545 0.252 0.136 0.039 0.409 0.059 0.565 0.214 0.154 0.155-0.117 0.447-0.137 0.544zM15.895 9.533c-0.020 0.195-0.33 0.447-0.291 0.525s0 0.411-0.272 0.119c-0.272-0.292-0.545-0.391-0.525-0.586 0.005-0.039 0.282-0.1 0.286-0.168 0.412-0.383 1.071-0.305 1.121-0.214-0.118 0.193-0.299 0.129-0.319 0.323zM19.273 10.839c0.263 0.451 0.647 1.654 0.505 1.869-0.085-0.039-0.157-0.071-0.157-0.071h-0.518l0.311 0.363c0 0 0.15 0.22 0.363 0.207-0.14 1.626-1.497 2.67-1.497 2.67-0.207-0.207-0.103-0.388-0.103-0.388l0.058-0.311 0.033-0.525c0 0 0-0.544-0.519-0.285-0.557 0.142-0.325 0.142-0.888 0.181s-0.47-1.149-0.47-1.149c0-1.779 1.364-0.436 1.364-0.436 0.778 0.518 0.882-0.429 0.882-0.429l0.57-0.206 0.052-0.26-0.083-0.362-0.828-0.342c0 0-0.079 0.269 0.133 0.6 0 0-0.071 0.376-0.245 0.279l-0.48-0.242c0 0-0.161-0.070-0.421 0.086s-0.699-0.007-0.699-0.007 0.035-0.261 0.308-0.396l0.223-0.148c0 0-0.059-0.266-0.007-0.473s0.142-0.026 0.35-0.181c0.207-0.155 0.35 0.304 0.661 0.253s0.156-0.104 0.364-0.207c0.208-0.104 0.363 0.207 0.363 0.207l0.414 0.052c-0-0.001-0.065-0.469-0.037-0.347z"></path>
</svg>
