<!-- Generated by IcoMoon.io -->
<svg version="1.1" xmlns="http://www.w3.org/2000/svg" width="28" height="32" viewBox="0 0 28 32">
<title>xing-square</title>
<path d="M25.122 1.543h-22.108c-1.664 0-3.015 1.35-3.015 3.015v22.108c0 1.664 1.35 3.015 3.015 3.015h22.108c1.664 0 3.015-1.35 3.015-3.015v-22.108c0-1.664-1.35-3.015-3.015-3.015zM8.818 19.643h-2.927c-0.345 0-0.546-0.333-0.377-0.647l3.096-5.445c0.006 0 0.006-0.006 0-0.012l-1.972-3.392c-0.188-0.352 0.013-0.634 0.377-0.634h2.927c0.327 0 0.597 0.182 0.81 0.546l2.004 3.473c-0.082 0.145-1.13 1.991-3.147 5.54-0.22 0.389-0.484 0.572-0.791 0.572zM22.616 6.197l-6.456 11.349v0.012l4.114 7.474c0.176 0.32 0.006 0.634-0.377 0.634h-2.927c-0.345 0-0.609-0.182-0.81-0.546l-4.145-7.556c0.145-0.258 2.311-4.076 6.494-11.45 0.207-0.364 0.465-0.546 0.785-0.546h2.946c0.358-0.006 0.553 0.295 0.377 0.628z"></path>
</svg>
