<!-- Generated by IcoMoon.io -->
<svg version="1.1" xmlns="http://www.w3.org/2000/svg" width="24" height="32" viewBox="0 0 24 32">
<title>xing</title>
<path d="M10.219 12.722c-0.113 0.207-1.583 2.789-4.403 7.757-0.308 0.521-0.678 0.785-1.112 0.785h-4.089c-0.484 0-0.76-0.471-0.534-0.904l4.334-7.618c0.013 0 0.013-0.006 0-0.019l-2.757-4.748c-0.27-0.49 0.019-0.886 0.534-0.886h4.089c0.458 0 0.835 0.258 1.13 0.766l2.807 4.867zM24.030 2.428l-9.044 15.89v0.019l5.753 10.463c0.245 0.446 0.012 0.886-0.534 0.886h-4.095c-0.477 0-0.854-0.251-1.13-0.766l-5.803-10.583c0.207-0.364 3.235-5.703 9.094-16.028 0.289-0.509 0.653-0.766 1.099-0.766h4.126c0.503 0 0.773 0.421 0.534 0.886z"></path>
</svg>
