<!-- Generated by IcoMoon.io -->
<svg version="1.1" xmlns="http://www.w3.org/2000/svg" width="32" height="32" viewBox="0 0 32 32">
<title>xlr-file-format-variant</title>
<path d="M22.491 23.485c-0.429 0-0.673 0.035-0.8 0.058v2.159h0.696c0.882 0 1.405-0.441 1.405-1.126 0-0.72-0.487-1.080-1.3-1.091zM27.737 7.239c-0.002-0.148-0.049-0.293-0.15-0.408l-6.201-7.082c-0.001-0.002-0.003-0.003-0.005-0.004-0.037-0.041-0.079-0.075-0.125-0.105-0.013-0.009-0.027-0.017-0.041-0.025-0.040-0.021-0.081-0.039-0.125-0.052-0.012-0.003-0.022-0.008-0.034-0.011-0.047-0.011-0.096-0.018-0.145-0.018h-15.238c-0.695 0-1.261 0.566-1.261 1.261v29.635c0 0.696 0.566 1.261 1.261 1.261h20.807c0.696 0 1.261-0.566 1.261-1.261v-23.119c0-0.024-0.004-0.047-0.006-0.071zM11.012 30.055l-0.708-1.416c-0.29-0.546-0.476-0.952-0.696-1.405h-0.023c-0.163 0.453-0.36 0.859-0.603 1.405l-0.65 1.416h-2.019l2.264-3.959-2.182-3.865h2.031l0.685 1.428c0.232 0.476 0.406 0.859 0.592 1.3h0.023c0.186-0.499 0.337-0.847 0.534-1.3l0.662-1.428h2.020l-2.206 3.819 2.322 4.005-2.043 0.001zM18.893 30.055h-4.887v-7.824h1.777v6.338h3.111v1.486zM24.036 30.055c-0.128-0.22-0.313-0.859-0.546-1.823-0.209-0.975-0.546-1.242-1.265-1.254h-0.534v3.076h-1.753v-7.72c0.569-0.093 1.416-0.163 2.356-0.163 1.161 0 1.974 0.174 2.53 0.615 0.465 0.371 0.72 0.917 0.72 1.637 0 0.998-0.708 1.683-1.381 1.927v0.035c0.545 0.22 0.847 0.743 1.045 1.463 0.243 0.882 0.487 1.904 0.638 2.206l-1.81 0.001zM5.675 20.945v-20.151h14.607v6.452c0 0.348 0.282 0.631 0.631 0.631h5.569l0.001 13.068h-20.808zM8.63 4.615v14.21h13.896v-14.21h-13.896zM22.026 18.326h-12.897v-13.211h12.897v13.211zM10.128 6.095h5.45v0.749h-5.45v-0.749zM10.128 8.381h5.45v0.749h-5.45v-0.749zM10.128 10.537h5.45v0.749h-5.45v-0.749zM10.128 12.824h11.026v0.749h-11.026v-0.749zM10.128 14.706h11.026v0.749h-11.026v-0.749zM10.128 16.75h11.026v0.749h-11.026v-0.749zM16.285 6.095h1.082v4.817h-1.082v-4.817zM18.199 7.842h1.082v3.070h-1.082v-3.070zM20.071 6.635h1.082v4.277h-1.082v-4.277z"></path>
</svg>
