<!-- Generated by IcoMoon.io -->
<svg version="1.1" xmlns="http://www.w3.org/2000/svg" width="32" height="32" viewBox="0 0 32 32">
<title>xls-file-format-symbol</title>
<path d="M27.737 7.239c-0.002-0.148-0.048-0.293-0.15-0.408l-6.201-7.082c-0.001-0.002-0.003-0.003-0.005-0.004-0.037-0.041-0.079-0.075-0.125-0.105-0.013-0.009-0.027-0.017-0.041-0.025-0.040-0.021-0.081-0.039-0.124-0.052-0.012-0.003-0.022-0.008-0.034-0.011-0.047-0.011-0.095-0.018-0.145-0.018h-15.238c-0.695 0-1.261 0.566-1.261 1.261v29.635c0 0.696 0.566 1.261 1.261 1.261h20.807c0.696 0 1.261-0.566 1.261-1.261v-23.119c0-0.024-0.004-0.047-0.006-0.071zM11.746 30.080l-0.708-1.416c-0.29-0.546-0.476-0.952-0.696-1.405h-0.023c-0.163 0.453-0.36 0.859-0.603 1.405l-0.65 1.416h-2.020l2.264-3.959-2.182-3.866h2.031l0.685 1.428c0.232 0.476 0.406 0.859 0.592 1.3h0.023c0.186-0.499 0.337-0.847 0.534-1.3l0.662-1.428h2.020l-2.205 3.819 2.322 4.005h-2.043zM19.627 30.080h-4.887v-7.824h1.776v6.338h3.111v1.486zM22.586 30.195c-0.893 0-1.776-0.232-2.217-0.476l0.36-1.462c0.476 0.243 1.208 0.487 1.962 0.487 0.812 0 1.242-0.336 1.242-0.847 0-0.488-0.372-0.766-1.312-1.103-1.3-0.453-2.148-1.172-2.148-2.31 0-1.335 1.115-2.357 2.961-2.357 0.882 0 1.532 0.186 1.996 0.395l-0.395 1.428c-0.313-0.151-0.871-0.371-1.636-0.371s-1.137 0.348-1.137 0.755c0 0.499 0.441 0.719 1.451 1.102 1.381 0.511 2.031 1.23 2.031 2.333-0.001 1.313-1.010 2.427-3.158 2.427zM5.675 20.945v-20.151h14.607v6.452c0 0.348 0.282 0.631 0.631 0.631h5.569l0.001 13.068h-20.808zM17.944 7.612h-10.456v9.773h16v-9.773h-5.543zM17.944 12.341h-4.913v-2.049h4.913v2.049zM7.803 7.927h4.913v2.049h-4.913v-2.049zM7.803 10.291h4.913v2.049h-4.913v-2.049zM7.803 12.656h4.913v2.049h-4.913v-2.049zM7.803 17.069v-2.049h4.913v2.049h-4.913zM13.031 17.069v-2.049h4.913v2.049h-4.913zM23.172 17.069h-4.913v-2.049h4.913v2.049zM23.172 12.341h-4.913v-2.049h4.913v2.049zM18.259 9.976v-2.049h4.913v2.049h-4.913z"></path>
</svg>
