<!-- Generated by IcoMoon.io -->
<svg version="1.1" xmlns="http://www.w3.org/2000/svg" width="32" height="32" viewBox="0 0 32 32">
<title>xlsx-file-format</title>
<path d="M27.737 7.239c-0.002-0.148-0.048-0.293-0.15-0.408l-6.201-7.082c-0.001-0.002-0.003-0.002-0.005-0.004-0.037-0.041-0.079-0.075-0.125-0.105-0.013-0.009-0.027-0.017-0.041-0.025-0.040-0.021-0.081-0.039-0.124-0.052-0.012-0.004-0.022-0.008-0.034-0.011-0.047-0.011-0.095-0.018-0.145-0.018h-15.238c-0.695 0-1.261 0.566-1.261 1.261v29.635c0 0.695 0.566 1.261 1.261 1.261h20.807c0.696 0 1.261-0.566 1.261-1.261v-23.119c0-0.024-0.004-0.047-0.006-0.070zM9.709 29.339l-0.548-1.097c-0.225-0.423-0.368-0.737-0.539-1.088h-0.018c-0.126 0.35-0.279 0.665-0.467 1.088l-0.504 1.097h-1.564l1.753-3.066-1.69-2.993h1.573l0.53 1.106c0.18 0.368 0.315 0.664 0.459 1.006h0.018c0.144-0.387 0.261-0.656 0.413-1.006l0.513-1.106h1.564l-1.708 2.957 1.798 3.102h-1.583zM15.811 29.339h-3.784v-6.059h1.375v4.907h2.409v1.151zM18.103 29.429c-0.692 0-1.375-0.18-1.716-0.368l0.278-1.132c0.369 0.188 0.935 0.377 1.519 0.377 0.63 0 0.962-0.26 0.962-0.656 0-0.377-0.288-0.593-1.016-0.853-1.006-0.35-1.663-0.908-1.663-1.789 0-1.034 0.863-1.824 2.292-1.824 0.683 0 1.187 0.143 1.546 0.306l-0.305 1.106c-0.243-0.117-0.674-0.288-1.268-0.288s-0.88 0.269-0.88 0.585c0 0.386 0.341 0.557 1.123 0.853 1.070 0.396 1.573 0.953 1.573 1.807 0 1.016-0.782 1.878-2.445 1.878zM24.664 29.339l-0.549-1.097c-0.225-0.423-0.368-0.737-0.539-1.088h-0.017c-0.126 0.35-0.279 0.665-0.468 1.088l-0.503 1.097h-1.564l1.753-3.066-1.69-2.993h1.573l0.531 1.106c0.18 0.368 0.314 0.664 0.458 1.006h0.018c0.143-0.387 0.26-0.656 0.413-1.006l0.512-1.106h1.564l-1.708 2.957 1.798 3.102h-1.582zM5.675 20.945v-20.151h14.607v6.452c0 0.348 0.282 0.631 0.631 0.631h5.569l0.001 13.068h-20.808zM18.236 7.627h-10.456v9.773h15.999v-9.773h-5.543zM18.236 12.356h-4.913v-2.049h4.913v2.049zM8.095 7.942h4.913v2.049h-4.913v-2.049zM8.095 10.307h4.913v2.049h-4.913v-2.049zM8.095 12.671h4.913v2.049h-4.913v-2.049zM8.095 17.085v-2.049h4.913v2.049h-4.913zM13.323 17.085v-2.049h4.913v2.049h-4.913zM23.464 17.085h-4.913v-2.049h4.913v2.049h0zM23.464 12.356h-4.913v-2.049h4.913v2.049h0zM18.551 9.991v-2.049h4.913v2.049h-4.913z"></path>
</svg>
