<!-- Generated by IcoMoon.io -->
<svg version="1.1" xmlns="http://www.w3.org/2000/svg" width="32" height="32" viewBox="0 0 32 32">
<title>xml-file-format-variant</title>
<path d="M27.736 7.239c-0.001-0.147-0.048-0.293-0.15-0.408l-6.2-7.082c-0.002-0.002-0.004-0.003-0.005-0.004-0.037-0.042-0.080-0.075-0.126-0.105-0.013-0.009-0.027-0.017-0.041-0.025-0.039-0.022-0.081-0.039-0.124-0.052-0.012-0.003-0.022-0.008-0.034-0.011-0.047-0.011-0.095-0.018-0.145-0.018h-15.237c-0.696 0-1.261 0.566-1.261 1.261v29.635c0 0.695 0.565 1.261 1.261 1.261h20.807c0.695 0 1.261-0.566 1.261-1.261v-23.119c-0-0.024-0.004-0.047-0.007-0.071zM10.363 29.339l-0.623-1.245c-0.255-0.479-0.418-0.836-0.612-1.235h-0.020c-0.143 0.398-0.317 0.756-0.531 1.235l-0.572 1.245h-1.775l1.989-3.48-1.918-3.398h1.786l0.602 1.255c0.204 0.419 0.357 0.756 0.521 1.143h0.020c0.163-0.438 0.296-0.744 0.469-1.143l0.582-1.255h1.775l-1.939 3.357 2.041 3.521h-1.795zM18.915 29.339l-0.102-2.633c-0.031-0.827-0.062-1.827-0.062-2.827h-0.030c-0.214 0.878-0.5 1.857-0.765 2.663l-0.837 2.684h-1.215l-0.734-2.663c-0.224-0.806-0.459-1.786-0.623-2.684h-0.020c-0.041 0.929-0.072 1.99-0.123 2.847l-0.122 2.613h-1.439l0.439-6.878h2.071l0.674 2.296c0.214 0.796 0.429 1.653 0.581 2.459h0.031c0.194-0.796 0.429-1.704 0.653-2.469l0.735-2.286h2.031l0.377 6.878-1.52 0zM25.927 29.339h-4.297v-6.878h1.562v5.572h2.735v1.306zM26.482 20.944h-20.807v-20.15h14.607v6.452c0 0.348 0.283 0.631 0.631 0.631h5.57v13.068zM6.894 13.246l3.639 1.691v-0.804l-2.752-1.206v-0.015l2.752-1.206v-0.804l-3.639 1.691zM22 11.707l2.813 1.206v0.015l-2.813 1.206v0.804l3.639-1.668v-0.698l-3.639-1.668zM16.194 8.577c-2.398 0-4.343 1.944-4.343 4.342s1.944 4.343 4.343 4.343 4.342-1.944 4.342-4.343c0-2.398-1.944-4.342-4.342-4.342zM17.826 10.301l0.311-0.208c0 0-0.131-0.334-0.108-0.498 0.075-0.037 0.381 0.124 0.639 0.396-0.174 0.648-0.582 0.57-0.582 0.57s-0.299-0.007-0.26-0.26zM15.209 14.124c-0.019 0.097-0.136 0.331-0.214 0.486s-0.116 0.214-0.214 0.292c-0.097 0.079-0.155 0.214-0.155 0.214l-0.020 0.33c0 0 0.038 0.273 0.097 0.37s-0.208 0.676-0.208 0.676c-0.169-0.034-0.263-0.229-0.322-0.384-0.059-0.156-0.136-0.239-0.116-0.413s-0.151-0.268-0.209-0.365c-0.058-0.098-0.136-0.233-0.136-0.331s-0.214-0.234-0.214-0.234-0.389-0.175-0.447-0.252c-0.058-0.078-0.117-0.409-0.136-0.544-0.020-0.136 0.058-0.485 0.058-0.485s0.157-0.118 0.058-0.214c-0.097-0.097-0.116-0.351-0.116-0.351l-0.175-0.194c0 0-0.136-0.194-0.156-0.292s0-0.155 0.020-0.253c0.019-0.098-0.039-0.272-0.039-0.369 0.726-1.781 1.944-2.196 1.944-2.196l0.097 0.407c0 0-0.214 0.059-0.33 0.020-0.117-0.039-0.176-0.039-0.176-0.039l-0.155 0.214c0 0-0.059 0.136-0.078 0.214s0.039 0.194 0.039 0.194 0.272 0.020 0.272-0.058c0-0.078-0.038-0.117-0.038-0.117l-0.039-0.136c0 0 0.176-0.097 0.641-0.059 0.467 0.039 0.292 0.37 0.487 0.448s-0.156 0.35-0.234 0.505c-0.078 0.156-0.194-0.195-0.194-0.195s0.117-0.135-0.077-0.175c-0.195-0.038-0.323 0.35-0.225 0.331 0.097-0.019 0.205 0.105 0.185 0.201s-0.020 0.090-0.117 0.303c-0.097 0.214-0.308 0.372-0.308 0.372s-0.099-0.061-0.042 0.056c0.060 0.116-0.019 0.388-0.019 0.466s-0.233-0.136-0.271-0.331c-0.040-0.193-0.267-0.025-0.345-0.005s-0.22-0.034-0.257-0.13c-0.040-0.098-0.39 0.194-0.488 0.252s-0.057 0.214 0.097 0.136c0.155-0.078 0.291-0.020 0.253 0.137-0.038 0.154-0.194 0.058-0.175 0.154 0.019 0.097 0.175 0.195 0.213 0.331 0.039 0.135 0.409 0.020 0.525-0.039s0.447-0.117 0.485 0.039c0.040 0.156 0.409 0.213 0.545 0.252s0.409 0.059 0.565 0.214c0.155 0.156-0.116 0.448-0.137 0.545zM16.083 9.575c-0.020 0.195-0.33 0.447-0.291 0.525s0 0.411-0.272 0.119c-0.272-0.292-0.545-0.39-0.525-0.586 0.005-0.039 0.282-0.1 0.286-0.168 0.412-0.383 1.071-0.304 1.121-0.214-0.118 0.193-0.299 0.128-0.319 0.323zM19.461 10.881c0.263 0.451 0.647 1.654 0.505 1.869-0.085-0.038-0.157-0.070-0.157-0.070h-0.519l0.311 0.363c0 0 0.151 0.221 0.364 0.206-0.14 1.626-1.497 2.67-1.497 2.67-0.207-0.207-0.103-0.388-0.103-0.388l0.058-0.312 0.033-0.524c0 0 0-0.544-0.519-0.286-0.557 0.142-0.325 0.142-0.888 0.181-0.564 0.039-0.471-1.149-0.471-1.149 0-1.779 1.364-0.436 1.364-0.436 0.778 0.518 0.882-0.429 0.882-0.429l0.57-0.207 0.052-0.26-0.083-0.362-0.828-0.342c0 0-0.080 0.269 0.133 0.6 0 0-0.071 0.376-0.245 0.279l-0.48-0.241c0 0-0.162-0.070-0.421 0.086-0.26 0.155-0.699-0.008-0.699-0.008s0.036-0.261 0.308-0.396l0.223-0.147c0 0-0.059-0.266-0.007-0.473s0.143-0.026 0.35-0.182c0.207-0.155 0.35 0.304 0.661 0.253s0.156-0.104 0.364-0.207c0.208-0.104 0.363 0.207 0.363 0.207l0.414 0.052c0 0-0.064-0.468-0.037-0.347z"></path>
</svg>
