<!-- Generated by IcoMoon.io -->
<svg version="1.1" xmlns="http://www.w3.org/2000/svg" width="28" height="32" viewBox="0 0 28 32">
<title>yahoo</title>
<path d="M15.827 17.872l0.251 13.817c-0.798-0.138-1.476-0.245-2.029-0.245-0.527 0-1.206 0.107-2.029 0.245l0.251-13.817c-3.454-5.954-6.934-12.36-10.928-18.339 0.747 0.195 1.445 0.245 2.085 0.245 0.565 0 1.281-0.050 2.142-0.245 2.569 4.535 5.156 8.711 8.479 14.163 2.343-3.869 5.722-9.050 8.473-14.163 0.697 0.182 1.382 0.245 2.066 0.245 0.722 0 1.457-0.063 2.198-0.245-2.16 3.008-8.265 13.623-10.96 18.339z"></path>
</svg>
