<!-- Generated by IcoMoon.io -->
<svg version="1.1" xmlns="http://www.w3.org/2000/svg" width="31" height="32" viewBox="0 0 31 32">
<title>yarn</title>
<path d="M24.739 21.214c-2.449 0.584-3.040 2.016-6.532 2.977 0 0-0.17 0.251-0.653 0.364-0.842 0.207-4.013 0.377-4.302 0.383-0.779 0.006-1.25-0.201-1.382-0.515-0.402-0.961 0.578-1.382 0.578-1.382-0.509-0.314-0.565-0.622-0.615-0.509-0.151 0.364-0.226 1.262-0.634 1.664-0.553 0.559-1.602 0.371-2.217 0.050-0.678-0.358 0.050-1.206 0.050-1.206s-0.364 0.214-0.66-0.226c-0.377-0.584-1.074-2.343 0.722-3.894-0.082-0.634-0.289-3.373 2.55-5.376 0 0-1.294-1.432-0.81-2.72 0.314-0.842 0.44-0.835 0.54-0.873 0.358-0.138 0.71-0.289 0.967-0.572 1.294-1.394 2.939-1.13 2.939-1.13s0.779-2.374 1.501-1.909c0.22 0.144 1.024 1.922 1.024 1.922s0.854-0.496 0.948-0.314c0.515 1.005 0.578 2.92 0.352 4.089-0.383 1.922-1.344 2.958-1.733 3.611-0.088 0.151 1.036 0.628 1.746 2.594 0.653 1.796 0.069 3.31 0.176 3.473 0.050 0.088 0.86 0.050 2.286-0.829 0.804-0.496 1.765-1.061 2.851-1.068 1.049-0.031 1.105 1.206 0.308 1.394zM31.152 15.611c0 8.598-6.978 15.576-15.576 15.576s-15.576-6.978-15.576-15.576 6.978-15.576 15.576-15.576 15.576 6.978 15.576 15.576zM26.171 20.334c-0.107-0.854-0.829-1.445-1.759-1.432-1.382 0.019-2.544 0.735-3.316 1.206-0.301 0.188-0.559 0.327-0.779 0.427 0.195-2.795-1.413-4.591-1.802-4.987 0.49-0.71 1.156-1.746 1.47-3.341 0.27-1.363 0.188-3.486-0.433-4.679-0.1-0.195-0.465-0.703-1.319-0.465-0.609-1.256-0.816-1.388-0.98-1.495-0.069-0.044-1.482-1.030-2.6 1.759-0.766 0.057-1.966 0.333-2.983 1.432-0.126 0.138-0.371 0.239-0.634 0.339h0.006c-0.527 0.188-0.773 0.622-1.061 1.401-0.408 1.093 0.012 2.173 0.427 2.87-1.118 0.999-2.324 2.5-2.242 5.181-2.135 2.261-0.741 4.585-0.352 4.999-0.1 0.697 0.232 1.218 0.754 1.495 0.791 0.421 1.903 0.603 2.757 0.176 0.308 0.327 0.867 0.634 1.884 0.634 0.427 0 3.643-0.182 4.56-0.408 0.427-0.1 0.722-0.283 0.917-0.446 0.615-0.195 2.311-0.773 3.907-1.802 1.13-0.735 1.52-0.892 2.362-1.093 0.81-0.201 1.319-0.948 1.218-1.771z"></path>
</svg>
