<!-- Generated by IcoMoon.io -->
<svg version="1.1" xmlns="http://www.w3.org/2000/svg" width="24" height="32" viewBox="0 0 24 32">
<title>yelp</title>
<path d="M8.598 20.133c-0.063 0.019-6.858 2.242-7.273 2.242-0.955-0.057-1.162-1.017-1.25-1.96-0.094-0.892-0.088-1.872 0.019-2.939 0.119-1.181 0.345-2.833 1.52-2.763 0.301 0 4.214 1.627 7.078 2.789 1.074 0.427 1.168 2.248-0.094 2.632zM12.235 12.98c0.113 2.399-1.602 3.046-2.964 0.898l-6.676-10.551c-0.094-0.415 0.019-0.779 0.333-1.093 0.98-1.036 6.243-2.5 7.631-2.142 0.471 0.119 0.76 0.383 0.867 0.791 0.082 0.521 0.722 10.514 0.81 12.096zM12.147 23.33c0 0.289 0.012 7.311-0.107 7.631-0.145 0.377-0.44 0.609-0.898 0.703-0.634 0.107-1.702-0.119-3.203-0.672-1.382-0.509-3.561-1.35-3.096-2.669 0.176-0.433 3.228-3.944 4.855-5.879 0.754-0.955 2.5-0.345 2.449 0.886zM23.464 15.932c-0.352 0.232-6.959 1.771-7.417 1.922l0.019-0.038c-1.137 0.295-2.223-1.162-1.463-2.173 0.232-0.232 4.139-5.803 4.572-6.092 0.327-0.226 0.71-0.239 1.149-0.038 1.156 0.553 3.461 3.963 3.605 5.313-0.006 0.182 0.075 0.735-0.465 1.105zM24.099 24.14c-0.17 1.294-2.795 4.61-4.007 5.087-0.433 0.163-0.81 0.126-1.112-0.126-0.314-0.22-3.881-6.098-4.076-6.425-0.685-1.018 0.427-2.5 1.608-2.085 0 0 6.94 2.242 7.204 2.475 0.327 0.258 0.452 0.615 0.383 1.074z"></path>
</svg>
