<!-- Generated by IcoMoon.io -->
<svg version="1.1" xmlns="http://www.w3.org/2000/svg" width="24" height="32" viewBox="0 0 24 32">
<title>yen-sign</title>
<path d="M22.058 1.543h-4.1c0 0 0 0 0 0-0.296 0-0.551 0.17-0.675 0.418l-0.002 0.004-3.479 7.107c-0.911 2.18-1.704 4.518-1.704 4.518h-0.079s-0.793-2.338-1.704-4.518l-3.479-7.107c-0.125-0.252-0.381-0.422-0.677-0.422-0 0-0 0-0 0h-4.1c-0.569 0-0.933 0.606-0.665 1.108l5.032 9.443h-3.663c-0.416 0-0.754 0.338-0.754 0.754v2.010c0 0.416 0.338 0.754 0.754 0.754h5.537l1.246 2.338v1.681h-6.783c-0.416 0-0.754 0.338-0.754 0.754v2.010c0 0.416 0.338 0.754 0.754 0.754h6.783v5.778c0 0.416 0.338 0.754 0.754 0.754h3.517c0.416 0 0.754-0.338 0.754-0.754v-5.778h6.783c0.416 0 0.754-0.338 0.754-0.754v-2.010c0-0.416-0.338-0.754-0.754-0.754h-6.783v-1.681l1.246-2.338h5.537c0.416 0 0.754-0.338 0.754-0.754v-2.010c0-0.416-0.338-0.754-0.754-0.754h-3.663l5.032-9.443c0.267-0.502-0.096-1.108-0.665-1.108z"></path>
</svg>
