<!-- Generated by IcoMoon.io -->
<svg version="1.1" xmlns="http://www.w3.org/2000/svg" width="31" height="32" viewBox="0 0 31 32">
<title>yin-yang</title>
<path d="M15.576 0.035c-8.603 0-15.576 6.973-15.576 15.576s6.973 15.576 15.576 15.576 15.576-6.973 15.576-15.576-6.973-15.576-15.576-15.576zM15.576 23.651c-1.11 0-2.010-0.9-2.010-2.010s0.9-2.010 2.010-2.010 2.010 0.9 2.010 2.010-0.9 2.010-2.010 2.010zM15.576 15.611c-3.33 0-6.029 2.699-6.029 6.029s2.699 6.029 6.029 6.029c-6.66 0-12.059-5.399-12.059-12.059s5.399-12.059 12.059-12.059c3.33 0 6.029 2.699 6.029 6.029s-2.699 6.029-6.029 6.029zM15.576 7.572c-1.11 0-2.010 0.9-2.010 2.010s0.9 2.010 2.010 2.010 2.010-0.9 2.010-2.010-0.9-2.010-2.010-2.010z"></path>
</svg>
