<!-- Generated by IcoMoon.io -->
<svg version="1.1" xmlns="http://www.w3.org/2000/svg" width="28" height="32" viewBox="0 0 28 32">
<title>yoast</title>
<path d="M5.734 4.306h11.682l-0.44 1.187h-11.242c-2.493 0-4.516 1.985-4.516 4.415v12.9c0 2.223 1.564 4.415 5.276 4.415v1.2h-0.76c-3.147 0-5.734-2.525-5.734-5.621v-12.894c0-3.096 2.556-5.602 5.734-5.602zM20.123 0.789h4.177c-9.031 23.747-9.151 25.053-11.6 27.591-1.306 1.357-3.096 1.991-4.918 2.054v-3.209c3.090-0.484 4.057-3.134 4.057-4.729 0-1.262 0.038-0.791-5.156-14.018h3.856l3.165 9.835 6.419-17.523zM28.137 9.676v18.748h-13.441c0.415-0.603 0.672-1.024 0.76-1.218h11.462v-17.529c0-2.041-1.074-3.26-3.027-3.95l0.421-1.105c2.619 0.854 3.825 2.707 3.825 5.056z"></path>
</svg>
