<!-- Generated by IcoMoon.io -->
<svg version="1.1" xmlns="http://www.w3.org/2000/svg" width="36" height="32" viewBox="0 0 36 32">
<title>youtube</title>
<path d="M34.522 7.326c-0.394-1.485-1.557-2.655-3.033-3.052-2.675-0.721-13.401-0.721-13.401-0.721s-10.726 0-13.401 0.721c-1.476 0.397-2.638 1.567-3.033 3.052-0.717 2.692-0.717 8.31-0.717 8.31s0 5.617 0.717 8.31c0.394 1.485 1.557 2.606 3.033 3.003 2.675 0.721 13.401 0.721 13.401 0.721s10.726 0 13.401-0.721c1.476-0.397 2.638-1.518 3.033-3.003 0.717-2.692 0.717-8.31 0.717-8.31s0-5.617-0.717-8.31zM14.58 20.736v-10.2l8.965 5.1-8.965 5.1z"></path>
</svg>
