<!-- Generated by IcoMoon.io -->
<svg version="1.1" xmlns="http://www.w3.org/2000/svg" width="28" height="32" viewBox="0 0 28 32">
<title>youtube-square</title>
<path d="M11.732 12.226l5.979 3.398-5.979 3.398v-6.796zM28.137 4.557v22.108c0 1.664-1.35 3.015-3.015 3.015h-22.108c-1.664 0-3.015-1.35-3.015-3.015v-22.108c0-1.664 1.35-3.015 3.015-3.015h22.108c1.664 0 3.015 1.35 3.015 3.015zM25.499 15.63s0-3.743-0.477-5.54c-0.264-0.992-1.036-1.771-2.022-2.035-1.777-0.484-8.931-0.484-8.931-0.484s-7.154 0-8.931 0.484c-0.986 0.264-1.759 1.043-2.022 2.035-0.477 1.79-0.477 5.54-0.477 5.54s0 3.743 0.477 5.54c0.264 0.992 1.036 1.74 2.022 2.003 1.777 0.477 8.931 0.477 8.931 0.477s7.154 0 8.931-0.484c0.986-0.264 1.759-1.011 2.022-2.003 0.477-1.79 0.477-5.533 0.477-5.533z"></path>
</svg>
