<!-- Generated by IcoMoon.io -->
<svg version="1.1" xmlns="http://www.w3.org/2000/svg" width="32" height="32" viewBox="0 0 32 32">
<title>yuv-file-format-variant</title>
<path d="M27.737 7.239c-0.002-0.148-0.048-0.293-0.15-0.408l-6.201-7.082c-0.001-0.002-0.003-0.003-0.005-0.004-0.037-0.041-0.079-0.075-0.125-0.105-0.013-0.009-0.027-0.017-0.041-0.025-0.040-0.021-0.081-0.039-0.124-0.052-0.012-0.003-0.022-0.008-0.034-0.011-0.047-0.011-0.095-0.018-0.145-0.018h-15.238c-0.695 0-1.261 0.566-1.261 1.261v29.635c0 0.696 0.566 1.261 1.261 1.261h20.807c0.696 0 1.261-0.566 1.261-1.261v-23.119c0-0.024-0.004-0.047-0.006-0.071zM10.004 26.646v2.906h-1.572v-2.854l-2.203-4.117h1.799l0.713 1.675c0.217 0.507 0.362 0.879 0.538 1.334h0.021c0.155-0.435 0.321-0.838 0.527-1.334l0.703-1.675h1.768l-2.296 4.065zM18.743 26.491c0 2.151-1.086 3.175-2.906 3.175-1.758 0-2.792-0.972-2.792-3.196v-3.888h1.582v4.013c0 1.2 0.455 1.81 1.262 1.81 0.827 0 1.282-0.579 1.282-1.81v-4.013h1.572v3.91zM23.593 29.552h-1.841l-2.234-6.97h1.727l0.848 2.947c0.238 0.828 0.455 1.624 0.621 2.493h0.031c0.176-0.838 0.393-1.665 0.631-2.462l0.889-2.978h1.675l-2.347 6.97zM5.675 20.945v-20.151h14.607v6.452c0 0.348 0.282 0.631 0.631 0.631h5.569l0.001 13.068h-20.808zM20.713 9.831c0.011-0.127 0.018-0.249 0.018-0.365 0-2.631-2.14-4.771-4.771-4.771s-4.771 2.14-4.771 4.771c0 0.138 0.010 0.282 0.026 0.434-1.805 0.721-3.002 2.466-3.002 4.424 0 2.631 2.14 4.771 4.771 4.771 1.132 0 2.211-0.403 3.073-1.133 0.862 0.73 1.94 1.133 3.073 1.133 2.631 0 4.771-2.14 4.771-4.771 0-2.019-1.299-3.828-3.188-4.494zM17.124 14.325c0 1.033-0.379 2.002-1.067 2.764-0.689-0.762-1.068-1.731-1.068-2.764 0-0.060 0.004-0.125 0.007-0.189 0.32 0.067 0.643 0.101 0.964 0.101 0.387 0 0.775-0.049 1.155-0.144 0.006 0.080 0.009 0.158 0.009 0.232zM17.029 13.463c-0.641 0.173-1.304 0.189-1.955 0.045 0.146-0.725 0.486-1.402 0.982-1.953 0.484 0.538 0.822 1.2 0.972 1.907zM14.47 13.325c-1.298-0.502-2.263-1.632-2.553-2.996 0.351-0.095 0.709-0.145 1.068-0.145 0.96 0 1.877 0.333 2.616 0.939-0.563 0.622-0.955 1.383-1.13 2.201zM17.628 13.25c-0.183-0.79-0.57-1.526-1.115-2.128 0.969-0.793 2.255-1.114 3.502-0.84-0.265 1.311-1.166 2.427-2.387 2.968zM15.96 5.325c2.283 0 4.141 1.857 4.141 4.141 0 0.061-0.002 0.124-0.005 0.189-1.442-0.3-2.926 0.089-4.032 1.020l-0.007-0.007-0.007 0.007c-0.86-0.724-1.938-1.12-3.066-1.12-0.388 0-0.775 0.048-1.156 0.144-0.006-0.081-0.008-0.157-0.008-0.232 0-2.284 1.858-4.141 4.141-4.141zM12.984 18.465c-2.283 0-4.141-1.857-4.141-4.141 0-1.652 0.98-3.131 2.473-3.787 0.364 1.582 1.518 2.881 3.054 3.423l-0.001 0.008 0.006 0.002c-0.011 0.125-0.016 0.241-0.016 0.353 0 1.199 0.439 2.325 1.242 3.205-0.74 0.606-1.657 0.936-2.616 0.936zM19.13 18.465c-0.959 0-1.877-0.33-2.616-0.936 0.803-0.88 1.242-2.006 1.242-3.205 0-0.136-0.007-0.275-0.023-0.425l0.005-0.002-0.001-0.007c1.463-0.589 2.554-1.888 2.884-3.425 1.576 0.61 2.649 2.15 2.649 3.86 0 2.283-1.858 4.14-4.141 4.14z"></path>
</svg>
