<!-- Generated by IcoMoon.io -->
<svg version="1.1" xmlns="http://www.w3.org/2000/svg" width="32" height="32" viewBox="0 0 32 32">
<title>z-file-format-variant</title>
<path d="M27.737 7.239c-0.002-0.148-0.049-0.293-0.15-0.408l-6.2-7.082c-0.001-0.002-0.003-0.002-0.005-0.004-0.037-0.041-0.079-0.075-0.125-0.105-0.013-0.009-0.027-0.017-0.041-0.025-0.040-0.021-0.081-0.039-0.124-0.052-0.012-0.004-0.022-0.008-0.034-0.011-0.047-0.011-0.095-0.018-0.145-0.018h-15.238c-0.695 0-1.261 0.566-1.261 1.261v29.635c0 0.696 0.566 1.261 1.261 1.261h20.807c0.696 0 1.261-0.566 1.261-1.261v-23.119c-0-0.024-0.004-0.047-0.006-0.070zM15.98 23.721l-2.926 6.049h-1.758l2.927-5.711v-0.021h-3.254v-1.365h5.011v1.048zM22.325 29.77h-5.596v-0.876l3.428-4.934v-0.042h-3.108v-1.346h5.222v0.939l-3.354 4.87v0.042h3.407v1.346zM5.675 20.945v-20.151h14.607v6.452c0 0.348 0.282 0.631 0.631 0.631h5.569l0.001 13.068h-20.808zM9.197 8.223h9.175v1.215h-9.175v-1.215zM22.959 10.993v-1.556h-4.587v1.556h1.552v3.434h-1.552v1.486h-9.175v1.214h9.175v-1.145h4.587v-1.555h-2.563v-0.616h1.012v-0.456h-1.012v-0.53h1.012v-0.457h-1.012v-0.518h1.012v-0.456h-1.012v-0.4zM10.378 10.062h6.815v5.297h-6.814v-5.297z"></path>
</svg>
