<!-- Generated by IcoMoon.io -->
<svg version="1.1" xmlns="http://www.w3.org/2000/svg" width="40" height="32" viewBox="0 0 40 32">
<title>zhihu</title>
<path d="M10.711 8.836v13.663l1.472 0.001 0.484 1.656 2.638-1.656h3.111v-13.663h-7.705zM16.85 21.016h-1.755l-1.752 1.1-0.319-1.097-0.747-0.003v-10.697h4.574v10.697zM9.41 15.088h-3.287c0.109-1.702 0.138-3.24 0.138-4.614h3.213s0.124-1.417-0.539-1.401h-5.558c0.219-0.824 0.494-1.674 0.824-2.554 0 0-1.512 0-2.027 1.355-0.213 0.559-0.83 2.709-1.928 4.906 0.37-0.040 1.593-0.074 2.314-1.395 0.132-0.37 0.158-0.418 0.323-0.913h1.813c0 0.66-0.075 4.2-0.105 4.612h-3.283c-0.737 0-0.977 1.483-0.977 1.483h4.119c-0.276 3.132-1.76 5.771-4.45 7.857 1.287 0.367 2.569-0.058 3.203-0.622 0 0 1.443-1.313 2.235-4.349l3.389 4.079s0.497-1.689-0.078-2.512c-0.476-0.56-1.762-2.076-2.311-2.626l-0.918 0.73c0.274-0.878 0.439-1.73 0.494-2.554h3.872s-0.006-1.483-0.477-1.483v0.001zM35.288 14.988c1.308-1.61 2.825-3.679 2.825-3.679s-1.171-0.93-1.72-0.255c-0.377 0.512-2.313 3.027-2.313 3.027l1.208 0.906zM25.861 11.276c-0.566-0.518-1.627 0.134-1.627 0.134s2.482 3.457 2.583 3.608l1.222-0.862s-1.612-2.362-2.177-2.88h-0.001zM40.196 15.759c-1.242 0-8.222 0.058-8.231 0.058v-6.343c0.302 0 0.78-0.025 1.435-0.075 2.568-0.151 4.405-0.251 5.513-0.302 0 0 0.767-1.708-0.037-2.1-0.193-0.074-1.455 0.288-1.455 0.288s-10.377 1.036-14.594 1.134c0.1 0.554 0.479 1.073 0.991 1.228 0.836 0.219 1.425 0.107 3.087 0.056 1.56-0.1 2.743-0.153 3.549-0.153v6.269h-8.383s0.177 1.401 1.602 1.435h6.779v4.454c0 0.877-0.703 1.381-1.538 1.326-0.884 0.007-1.638-0.072-2.618-0.114 0.125 0.249 0.398 0.904 1.213 1.372 0.62 0.302 1.016 0.413 1.634 0.413 1.857 0 2.868-1.085 2.819-2.846v-4.605h7.685c0.608 0 0.546-1.494 0.546-1.494l0.002-0.001z"></path>
</svg>
