<!-- Generated by IcoMoon.io -->
<svg version="1.1" xmlns="http://www.w3.org/2000/svg" width="32" height="32" viewBox="0 0 32 32">
<title>zip-file</title>
<path d="M21.47 24.838c-0.239 0-0.402 0.023-0.487 0.046v1.537c0.1 0.023 0.224 0.031 0.394 0.031 0.626 0 1.012-0.317 1.012-0.85-0-0.479-0.332-0.765-0.919-0.765zM27.473 6.69l-5.95-6.785c-0.207-0.236-0.506-0.371-0.819-0.371h-15.029c-0.696 0-1.261 0.565-1.261 1.261v29.635c0 0.697 0.565 1.261 1.261 1.261h20.807c0.697 0 1.261-0.565 1.261-1.261v-23.020c0-0.264-0.096-0.52-0.27-0.718zM12.286 24.915l-2.070 4.279h-1.243l2.070-4.040v-0.015h-2.302v-0.965h3.545v0.741zM16.874 29.194h-4.047v-0.633l2.479-3.568v-0.031h-2.248v-0.973h3.777v0.68l-2.425 3.522v0.031h2.464v0.973zM18.797 29.194h-1.182v-5.206h1.182v5.206zM23.076 26.808c-0.402 0.378-0.996 0.548-1.692 0.548-0.155 0-0.294-0.008-0.402-0.023v1.861h-1.166v-5.136c0.363-0.062 0.873-0.108 1.591-0.108 0.726 0 1.244 0.139 1.591 0.417 0.332 0.262 0.556 0.695 0.556 1.205s-0.17 0.942-0.479 1.236zM5.675 20.944v0-20.15h14.607v6.452c0 0.348 0.282 0.631 0.631 0.631h5.569l0.001 13.068h-20.808zM12.49 3.783v-1.017c0-0.223-0.181-0.405-0.405-0.405h-1.322c-0.223 0-0.405-0.181-0.405-0.405v-0.983c0-0.223-0.181-0.405-0.405-0.405h-2.146c-0.223 0-0.405 0.181-0.405 0.405v1.017c0 0.223 0.181 0.405 0.405 0.405h1.322c0.223 0 0.405 0.181 0.405 0.405v0.893c0 0.223-0.181 0.405-0.405 0.405h-1.322c-0.223 0-0.405 0.181-0.405 0.405v1.017c0 0.223 0.181 0.405 0.405 0.405h1.322c0.223 0 0.405 0.181 0.405 0.405v0.94c0 0.223-0.181 0.405-0.405 0.405h-1.322c-0.223 0-0.405 0.181-0.405 0.405v1.017c0 0.223 0.181 0.405 0.405 0.405h2.146c0.223 0 0.405-0.181 0.405-0.405v-0.973c0-0.223 0.181-0.405 0.405-0.405h1.322c0.223 0 0.405-0.181 0.405-0.405v-1.017c0-0.223-0.181-0.405-0.405-0.405h-1.322c-0.223 0-0.405-0.181-0.405-0.405v-0.893c0-0.223 0.181-0.405 0.405-0.405h1.322c0.223 0 0.405-0.181 0.405-0.405zM7.807 14.637h0.388c0.223 0 0.405 0.181 0.405 0.405v2.266c0 0.223 0.181 0.405 0.405 0.405h1.883c0.223 0 0.405-0.181 0.405-0.405v-2.266c0-0.223 0.181-0.405 0.405-0.405h0.388c0.223 0 0.405-0.181 0.405-0.405v-3.327c0-0.223-0.181-0.405-0.405-0.405h-4.278c-0.223 0-0.405 0.181-0.405 0.405v3.327c0 0.224 0.181 0.405 0.405 0.405z"></path>
</svg>
