<!-- Generated by IcoMoon.io -->
<svg version="1.1" xmlns="http://www.w3.org/2000/svg" width="32" height="32" viewBox="0 0 32 32">
<title>zip-compressed-files-extension</title>
<path d="M27.737 7.239c-0.002-0.148-0.049-0.293-0.15-0.408l-6.2-7.082c-0.001-0.002-0.003-0.003-0.005-0.004-0.037-0.041-0.079-0.075-0.125-0.105-0.013-0.009-0.027-0.017-0.041-0.025-0.040-0.021-0.081-0.039-0.124-0.052-0.012-0.003-0.022-0.008-0.034-0.011-0.047-0.011-0.095-0.018-0.145-0.018h-15.238c-0.695 0-1.261 0.566-1.261 1.261v29.635c0 0.696 0.566 1.261 1.261 1.261h20.807c0.696 0 1.261-0.566 1.261-1.261v-23.119c-0-0.024-0.004-0.047-0.006-0.071zM14.222 30.095h-5.946v-0.93l3.643-5.243v-0.046h-3.302v-1.429h5.549v0.999l-3.563 5.175v0.045h3.62v1.43zM17.049 30.095h-1.736v-7.648h1.736v7.648zM23.335 26.589c-0.59 0.556-1.464 0.805-2.485 0.805-0.227 0-0.431-0.011-0.59-0.034v2.735h-1.714v-7.547c0.533-0.091 1.282-0.159 2.337-0.159 1.067 0 1.827 0.204 2.338 0.613 0.488 0.386 0.817 1.021 0.817 1.77s-0.25 1.385-0.704 1.816zM5.675 20.945v-20.151h7.541v-0.198h1.912v0.198h5.154v6.452c0 0.348 0.282 0.631 0.631 0.631h5.569l0.001 13.068h-20.808zM20.975 23.695c-0.352 0-0.59 0.034-0.715 0.068v2.258c0.147 0.034 0.329 0.046 0.579 0.046 0.919 0 1.486-0.466 1.486-1.248 0-0.704-0.488-1.124-1.35-1.124zM15.128 1.863h1.912v0.789h-1.912v-0.789zM13.216 0.794h1.912v0.591h-1.912v-0.591zM13.216 3.044h1.912v0.789h-1.912v-0.789zM15.128 4.336h1.912v0.789h-1.912v-0.789zM15.128 6.83h1.912v0.789h-1.912v-0.789zM13.216 5.562h1.912v0.789h-1.912v-0.789zM15.128 8.263c-1.354 0-1.998 1.097-1.998 2.451l-0.453 4.107c0 1.354 1.097 2.452 2.451 2.452s2.45-1.098 2.45-2.452l-0.452-4.107c0.001-1.354-0.644-2.451-1.998-2.451zM15.941 16.197h-1.623v-3.429h1.623v3.429z"></path>
</svg>
